<?xml version="1.0" encoding="UTF-8"?>
<!DOCTYPE svg PUBLIC "-//W3C//DTD SVG 1.1//EN" "http://www.w3.org/Graphics/SVG/1.1/DTD/svg11.dtd">
<!-- Creator: CorelDRAW 2019 (64-Bit) -->
<svg xmlns="http://www.w3.org/2000/svg" xml:space="preserve" width="100%" height="100%" version="1.1" style="shape-rendering:geometricPrecision; text-rendering:geometricPrecision; image-rendering:optimizeQuality; fill-rule:evenodd; clip-rule:evenodd"
viewBox="0 0 383.82 465.68"
 xmlns:xlink="http://www.w3.org/1999/xlink">
 <defs>
  <style type="text/css">
   <![CDATA[
    .fil0 {fill:#A6A182}
   ]]>
  </style>
 </defs>
 <g id="Layer_x0020_1">
  <metadata id="CorelCorpID_0Corel-Layer"/>
  <g id="_2145863817120">
   <path class="fil0" d="M118.24 452.03l0 -438.38c14.71,0 45.82,3.16 62.81,4.49 14.13,1.11 33.29,1.54 47.49,3.44 4.26,0.58 12.31,1.12 16.12,1.17 18.15,0.25 43.74,4.05 62.77,4.53l63.65 4.56 0 392c-4.56,0 -11.12,1.31 -15.54,1.73l-47.38 5.38c-21.33,2.37 -41.82,4.17 -62.97,7.06 -27.03,3.68 -65.9,7.32 -94.95,10.55l-32 3.47zm-6.32 -452.03l5.58 0c3.2,0.25 5.35,0.85 8.91,0.93 17.65,0.42 34.88,2.78 52.76,3.63l53.01 4.29c19.9,2.69 81.03,5.73 105.2,7.58 3.24,0.25 9.52,0.58 13.44,1.11 15.47,2.07 33,-1.49 33,8.84l0 402.91c0,9 -12.51,7.14 -29.63,9.49 -11.83,1.62 -23.92,2.75 -35.11,3.99 -18.57,2.07 -198.38,22.91 -209.03,22.91 -0.74,0 -4.81,-4.47 -6.38,-5.45l-49.14 -27.26c-4.68,-2.7 -9.27,-4.8 -14.12,-7.7l-27.97 -15.68c-4.16,-2.22 -12.44,-5.77 -12.44,-9.4l0 -356.53c0,-5.08 3.27,-6.06 7.15,-7.41l32.08 -10.66c14.32,-4.77 27.79,-9.27 42.29,-14.1 7.68,-2.57 14.23,-4.56 21.87,-7.24 6.09,-2.14 3.32,-3.82 8.53,-4.25zm-99.18 48.21l91.73 -30.41 0.13 427.87c-3.25,-0.76 -18.56,-10.05 -23.04,-12.43l-45.7 -25.25c-3.42,-2.04 -19.51,-11.51 -23.12,-12.35l0 -347.43z"/>
   <path class="fil0" d="M167.35 336.52l-5.45 0 0 -53.66c0,-4.75 5.66,-1.55 10,-3.63l0 56.38c-2.04,0.48 -2.09,0.91 -4.55,0.91zm70.03 -75.48l0 10.91 -20 0c0.18,-0.13 0.48,-0.51 0.57,-0.33l1.82 -0.91c3.18,-1.31 4.9,-1.25 8.51,-3.32 3.24,-1.87 6.12,-4.36 9.1,-6.35zm82.77 -11.83c-6.52,4.37 -3.4,3.61 -12.72,8.2 -9.79,4.83 -22.9,6.08 -34.6,5.53l-19.07 -1.9 0 -63.67 12.73 0 0 52.75c6.38,0 15.54,0.73 21.49,-0.34 20.26,-3.64 27.26,-18.6 26.75,-40.62 -0.3,-12.65 -8.74,-22.55 -18.61,-25.96 -9.64,-3.32 -29.45,-2.2 -42.36,-2.2l0 -12.74c6.97,0 13.94,0.01 20.92,0 8.31,0 13.35,0.91 20.91,0.91 -0.19,-0.12 -0.51,-0.48 -0.61,-0.3l-11.83 -2.71c-7.05,-1.04 -37.22,-0.62 -45.77,-0.62 0,13.66 1.86,6.55 6.11,14.81 4.64,9 -2.47,11.82 9.3,11.62 21.38,-0.38 40.39,-3.37 45.03,18.63 1.37,6.46 0.24,14.61 -1.42,19.41 -1.71,4.94 -4.25,9.39 -8.58,12.33 -4.27,2.9 -10.07,5.05 -16.78,5.05l0 -52.75 -25.47 0c-2.69,5.61 -1.43,5.59 -6.11,10.26 -2.94,2.95 -5.75,5.06 -10.26,6.11 3.82,5.21 6.82,0.91 8.18,0 0,7.38 -0.62,2.16 6.64,9.73 2.52,2.63 4.62,7.23 5.13,11.3 1.28,10.36 -4.49,18.56 -9.79,22.79 -13.14,10.47 -36.22,9.52 -51.09,1.66 0.42,-5.02 2.61,-6.38 2.73,-11.83 6.18,1.44 2.57,0.84 4.85,0.26 0.13,-0.04 0.42,-0.14 0.61,-0.26 -4.48,-1.04 -6.2,-0.77 -10.04,-2.69 -2.52,-1.26 -6.62,-3.93 -9.06,-4.58 -0.27,3.23 -6.06,22.93 -7.28,25.46 5.91,3.96 13.92,9.1 23.65,9.1l0 0.91c-10.79,0 -21.2,1.82 -31.83,1.82l0 -191.91c9.24,0 18.41,1.82 27.28,1.82 0,6.98 -0.42,13.4 0.91,19.1 7.4,1.72 11.69,1.82 20.92,1.82 -3.1,6.45 1.32,19.36 7.65,24.18 5.47,4.17 3.86,4.88 7.65,9.63 2.69,3.36 6.01,5.45 8.35,8.94 9.21,-6.17 11.59,-14.23 15.23,-17.51 7.14,-6.43 10.23,-10.25 10.23,-23.42 5.19,2.49 19.18,1.25 24.56,0 1.19,-5.12 0.91,-9.19 0.91,-15.46 16.54,0 31.07,2.72 47.29,2.72l0 230.11 -97.18 6.5c-4.85,0.53 -14.13,1.58 -19.22,1.7 -5.83,0.14 -13.92,0.35 -19.77,1.14 -4.14,0.57 -14.69,1.57 -19.35,1.57l0 -56.38c6.88,0 10.33,-0.94 16.34,-0.95l35.5 -0.87c7.14,0.01 11.1,-0.94 17.25,-0.94 23.97,-0.04 45.74,-1.79 70.06,-1.79l-0.05 42.8c-0.07,4.16 -0.85,6.21 2.14,7.19 6.33,2.07 4.29,-8.4 4.28,-12.7 -0.02,-11.5 -0.14,-23.1 0.01,-34.58 0.18,-12.58 3.81,-8.17 -25.48,-8.17 2.62,-2.27 19.83,-9.11 22.74,-20.01zm-170.99 -170.99l0 262.85c0,2.71 3.96,6.37 6.21,7.48 6.06,2.99 63.85,-3.46 78.4,-3.82l32.77 -2.7c13.22,-1.03 66.6,-2.91 73.03,-6.1 2.95,-1.46 6.05,-4.47 6.05,-8.5l0 -235.56c0,-10.44 -14.12,-9.87 -17.8,-10.4 -13,-1.86 -49.91,-3.17 -66.01,-4.93 -4.34,-0.48 -9.98,-0.71 -13.56,-1 -4.69,-0.36 -8.97,-0.61 -12.73,-0.91l-40.87 -2.79c-8.81,-0.07 -17.79,-1.75 -26.39,-1.8 -5.18,-0.04 -11.46,-2.31 -16.55,3.45 -0.78,0.89 -2.55,3.41 -2.55,4.73z"/>
   <path class="fil0" d="M60.94 329.25l0 -36.38c3.29,0 16.36,-1.85 18.19,-2.73l0 47.29c-3.2,-0.74 -6.36,-1.86 -9.62,-3.11 -3.12,-1.19 -8.57,-2.05 -8.57,-5.07zm-1.82 0.91l0.27 0.27c-0.01,-0.02 -0.36,-0.18 -0.27,-0.27zm-3.64 -41.84l0 40.93 -18.19 -6.37 0 -230.1c3.89,-0.09 39.68,-7.15 41.84,-8.19l0 200.09 -23.65 3.64zm-30.92 -195.54l0 230.1c0,9.77 5.79,11.22 12.85,13.52l38.74 14.04c11.06,4.12 15.71,-5.91 15.71,-7.55l0 -261.03c0,-15.64 -21.82,-8.46 -27.36,-7.35l-31.78 6.42c-4.87,1.55 -8.16,5.49 -8.16,11.85z"/>
   <path class="fil0" d="M200.1 246.48c0.72,0.5 0.38,0.46 1.74,0.99l7.58 1.52c23.72,3.15 28.75,-20.27 14.06,-27.71 -6.16,-3.12 -11.72,-2.99 -20.66,-2.99l0 -11.83c38.12,0 28.76,-27.27 9.25,-25.39 -2.38,0.23 -6.48,1.24 -8.94,2.05 -3.63,1.21 -5.25,2.58 -8.49,3.33 -0.91,-3.91 -2.08,-8.57 -3.64,-11.82 4.63,-2.45 8.4,-4.31 14.43,-5.57 7.14,-1.5 11.07,-0.8 17.4,-0.8 -3.19,-2.77 -7.96,-2.86 -12.06,-3.4 -7.46,-1 -20.26,1.56 -26.75,4.61l-10.3 6.07c0.39,4.68 5.65,18.51 7.28,25.47 7.56,-4 14.11,-10.56 25.4,-9.06 4.16,0.55 5.42,1.76 5.52,6.33 -6.09,8.31 -17.36,2.12 -24.41,4.7 -3.38,1.23 -1.97,4.05 -1.97,12.58 0.01,8.02 -1.42,12.25 1.97,13.49 7.05,2.58 18,-3.5 25.2,3.91 3.64,3.74 4.93,13.52 -12.61,13.52z"/>
   <path class="fil0" d="M206.46 407.47l-0.91 -19.1c4.19,0 7.49,-0.62 9.67,2.15 2.91,3.67 4.68,16.95 -8.76,16.95zm-5.45 -19.1l0 23.64c8.95,0 18.75,0.53 21.38,-12.34 0.67,-3.3 -0.25,-8.55 -1.7,-10.98 -4.14,-6.95 -16.97,-4.92 -18.77,-3.92 -3.93,2.18 -0.91,0.21 -0.91,3.6z"/>
   <path class="fil0" d="M192.82 391.1l0 4.54c-1.79,0.86 -4.2,1.32 -6.37,1.82l0 3.64c13.34,0 7.27,8.19 3.64,8.19 -3.13,0 -3.52,-0.68 -6.37,-0.91 0,4.46 0.07,5.45 4.55,5.45 12.66,0 13.61,-12.86 7.28,-14.55 1.11,-4.17 2.73,-2.27 2.73,-8.18 0,-7.3 -15.16,-6.47 -14.33,-0.99 0.66,4.38 1.9,-0.64 8.87,0.99z"/>
   <path class="fil0" d="M240.11 395.64l0 -8.18c2.13,-0.45 6.37,-1.19 6.37,2.73l0 0.91c0,3.22 -3.24,4.28 -6.37,4.54zm-4.54 -11.82l0 25.47c7.42,0 4.54,0.84 4.54,-10.01 15.48,0 12.86,-16.37 3.64,-16.37 -4.56,0 -4.07,0.81 -8.18,0.91z"/>
   <path class="fil0" d="M309.24 392c0.3,-3.62 0.36,-2.96 2.72,-4.54 3.15,0.84 2.8,0.49 3.64,3.64 -2.35,0 -5.27,-0.32 -6.36,0.9zm-4.55 0.91c0,10.65 5.54,11.2 14.55,9.1l0 -3.64c-4.85,0.11 -8.52,2.83 -10,-2.73 4.96,-0.41 2.48,-0.91 10.91,-0.91 0,-17.32 -15.46,-11.44 -15.46,-1.82z"/>
   <path class="fil0" d="M274.67 387.46l0 18.19 4.55 0c0,-7.73 -0.59,-8.1 0.91,-14.55l4.55 0c1.48,6.34 0.91,6.04 0.91,13.64l4.55 0c0,-10.46 1.8,-18.19 -7.28,-18.19 -3.04,0 -1.67,1.62 -3.76,1.85 -2.62,0.29 0.93,0.25 -1.44,-0.27 -0.28,-0.06 -0.35,-0.61 -2.99,-0.67z"/>
   <path class="fil0" d="M291.96 385.64l0 4.55c4.36,-1.05 1.41,-0.62 2.72,0 0,14.54 -0.3,14.35 8.19,13.64l0 -3.64c-4.5,-0.37 -3.64,0.05 -3.64,-10.91l3.64 0 0 -4.55c-2.82,0.24 -1.72,-0.01 -3.64,0.91 -0.06,-2.77 -0.41,-3.32 -0.91,-5.46 -10.29,2.4 0.89,4.82 -6.36,5.46z"/>
   <path class="fil0" d="M253.76 389.28c0,17.35 -1.57,18.19 5.45,18.19 0,-9.25 -2.79,-13.94 4.55,-14.56l0 -4.54c-7.96,0.17 2.1,1.18 -10,0.91z"/>
   <path class="fil0" d="M327.43 385.64c-0.85,-1.11 -0.59,1.02 -0.91,-2.73l-3.64 0 0 19.1c7.96,0 3.95,-1.07 4.51,-9.11 0.58,-8.53 5.49,-3.08 5.49,-8.17 0,-3.68 -4.24,-3.65 -5.45,0.91z"/>
   <path class="fil0" d="M266.49 406.56l4.55 0 -0.91 -19.1c-5.13,0.42 -5.14,1.31 -4.57,7.2 0.42,4.3 0.93,6.29 0.93,11.9z"/>
   <path class="fil0" d="M265.62 381.2c0.06,4.49 -0.01,4.44 3.6,4.44 2.3,-4.09 0.28,-4.89 0,-5.46l-3.6 1.02z"/>
   <polygon class="fil0" points="320.15,249.21 321.06,249.21 320.3,248.15 "/>
   <polygon class="fil0" points="295.59,169.17 295.59,170.08 296.65,169.33 "/>
   <polygon class="fil0" points="200.1,246.48 198.32,245.44 "/>
  </g>
 </g>
</svg>
