<?xml version="1.0" encoding="UTF-8"?>
<!DOCTYPE svg PUBLIC "-//W3C//DTD SVG 1.1//EN" "http://www.w3.org/Graphics/SVG/1.1/DTD/svg11.dtd">
<!-- Creator: CorelDRAW 2019 (64-Bit) -->
<svg xmlns="http://www.w3.org/2000/svg" xml:space="preserve" width="100%" height="100%" version="1.1" style="shape-rendering:geometricPrecision; text-rendering:geometricPrecision; image-rendering:optimizeQuality; fill-rule:evenodd; clip-rule:evenodd"
viewBox="0 0 453.98 465.68"
 xmlns:xlink="http://www.w3.org/1999/xlink">
 <defs>
  <style type="text/css">
   <![CDATA[
    .fil0 {fill:#A6A182}
   ]]>
  </style>
 </defs>
 <g id="Layer_x0020_1">
  <metadata id="CorelCorpID_0Corel-Layer"/>
  <path class="fil0" d="M103.03 361.89l14.26 -0.1 0 40.76 -14.25 -0.04 -0.01 -40.62zm-28.54 35.12l0.01 -34.81 3.2 -0.48 7.87 0.08 3.51 0.06 -0.01 40.6 -3.5 0.11 -6.11 -0.02 -4.96 -0.23 -0.01 -5.31zm-28.21 -35.13l14.56 0.02 0 40.25 -14.54 0.42 -0.02 -40.69zm356.69 13.19c4.5,21.27 -18.61,28.26 -28.48,16.76 -10.49,-12.21 -1.31,-31 18.72,-27.19 3.26,-4.97 5.84,-5.5 9.27,-9.19 2.35,1.78 8.29,7.38 9.89,10.53l-9.4 9.09zm-60.59 -19.8l9.39 9.24c-1.94,3.87 -7.43,7.13 -8.67,9.66 -1.41,2.89 1.49,9.25 -2.34,15.24 -5.5,8.62 -17.93,11.1 -26.1,2.88 -7.17,-7.22 -5.57,-20.35 2.42,-25.68 7.48,-4.99 10.93,-1.22 15.28,-2.42 1.78,-0.49 7.42,-7.25 10.02,-8.92zm-332.98 61.37c-3.92,3.08 -5.14,6.53 -9.3,9.54l0.21 39.5 99.94 -0.07 21.99 -28.04 209.53 -0.11c3.34,3 8.13,10.27 11.06,13.98 3.92,4.97 7.27,9.24 11.1,14.17l100.03 0.04 -0.05 -39.47c-3.59,-2.27 -3.81,-3.62 -6.52,-6.86 -3.04,-3.63 -4.45,-3.28 -6.37,-7.99 -0.26,-0.15 -1.85,-0.14 -2.73,-3.1l-0.31 -79.31 -421.97 0.09 0.02 70.63c0.04,7.54 1.05,9.47 -6.63,17zm132.71 -157.96c17.66,-6.16 25.41,21.07 8.53,26.18 -17.5,5.29 -25.53,-20.24 -8.53,-26.18zm-42.62 0.07c18.45,-5.82 24.71,20.53 9.08,25.94 -17.94,6.2 -26.37,-20.48 -9.08,-25.94zm-42.28 -0.2c18.62,-5.52 24.57,22.05 7.96,26.42 -18.55,4.87 -24.54,-21.51 -7.96,-26.42zm340.91 -23.93l-40.99 -0.05 -0.34 -19.73 -69.48 0.02 -0.1 19.76 -25.25 -0.05 -0.47 -19.73 -69.34 0.03 -0.11 19.75 -25.24 -0.05 -0.32 -19.71c-11.85,-0.18 -62.28,1.46 -69.26,-0.6l-0.36 20.37 -42.72 -0.02 -0.01 -134.74 -19.76 0.42c-0.11,12.75 -0.02,25.54 -0.02,38.3 0,5.61 1.2,13.92 -1.37,18.11l-8.64 10.59c-10.53,12.92 -8.32,9 -8.32,29.8 0,12.52 0.09,25.08 -0.04,37.55l-15.98 0.02 0.01 73.88c150.74,0 303.48,0.77 453.97,-0.04l-0.04 -73.87 -15.92 0.06c-0.13,-12.81 -0.04,-25.66 -0.04,-38.48 0,-21.17 1.68,-16.44 -8.71,-29.4 -10.02,-12.5 -9.63,-8.22 -9.62,-29.09 0,-12.47 0.09,-24.97 -0.02,-37.75l-19.75 0.01c-0.01,40.7 -0.69,87.15 0.05,127.69 0.15,8.18 -0.26,6.3 -1.81,6.95zm-118.45 -191.8l14.26 0.21 -0.18 27.13 -14.34 0.02 0.26 -27.36zm-28.13 0l13.86 0.05 -0.27 27.33 -13.94 0.03 0.35 -27.41zm-3.89 -20.87c-7.7,6.27 -13.15,5.33 -13.09,24.97 0.04,10.09 -1.13,30.17 0.38,39.04l13.6 0.08 0 73.52 13.95 0.06 0.02 15.53c-4.88,0.89 -6.22,-0.6 -6.98,1.86 0.02,10.87 2.16,10.2 7.36,16.31l19 -0.01c5.21,-6.09 7.37,-5.42 7.39,-16.3 -0.77,-2.47 -2.08,-0.96 -6.98,-1.86l0 -15.32 13.93 -0.32 0.04 -73.19 13.59 -0.44c0.9,-5.22 0.92,-45.56 -0.33,-49.44 -2.1,-8.82 -6.46,-11.03 -13.3,-14.87 0.13,-8.33 0.96,-7.15 -3.34,-12.59 -2,-2.53 -4.76,-6.26 -6.64,-8.91 -5.2,0 -10.4,0 -15.6,0 -14.74,-0.01 -10.74,-1.45 -19.4,9.98 -4.13,5.45 -1.47,4.19 -2.68,9.7l-0.92 2.2zm-230.97 13.03l39.48 -0.03 -0.37 37 -39.46 0.05 0.35 -37.02zm-14.18 45.98c3.36,4.49 3.79,4.93 10.6,4.96 22.98,0.04 53.52,1.38 74.21,-1.07 3.81,-9.26 2.33,-24.38 2.33,-35.31 0,-17.03 2.97,-28.1 -8.41,-28.54 -13.93,-0.54 -65.28,1.97 -73.72,-0.42l-2.69 2.4c-0.68,0.68 -1.35,1.24 -1.85,2.51 -1.44,3.62 -0.65,51.55 -0.47,55.47zm71.42 70.73l0.01 4.36 0.03 3.51 160.59 -0.02 0.02 -19.79 -160.6 -0.29 -0.05 12.23zm0.09 -31.69l160.4 -0.04 0.17 -19.67 -160.65 -0.41 0.08 20.12zm90.44 -91.57c-3.46,6.44 -9.77,9.77 -10.5,22.89 -1.09,19.56 13.71,34.02 32.9,34.58 9.82,0.29 24.02,0.64 33.58,-0.14l0.18 -19.34c-15.34,-2.2 -46.1,6.81 -46.84,-12.54 -0.78,-20.34 31,-11.9 46.64,-13.56 1.02,-7.19 2.23,-15.39 6.84,-19.29 -10.2,-1.12 -24.51,-0.28 -35.17,-0.3 -6.06,-0.02 -10.34,-0.14 -15.81,1.65 -5.57,1.83 -7.95,4.57 -11.82,6.05zm252.01 57.5c3.57,-0.74 1.54,1.18 2.61,-1.47l0 -18.63 -95.45 0.4c1.62,5.96 0.23,13.2 0.75,19.53l92.09 0.17zm-105.93 59.65l0.01 13.99 69.5 -0.03 0.04 -3.49 0 -7.86 -0.01 -2.61 -0.02 -6.16 -69.5 0.04 -0.02 6.12zm0.08 -25.57l69.1 -0.04 0.4 -20.09 -69.55 0.01 0.05 20.12z"/>
 </g>
</svg>
