<?xml version="1.0" encoding="UTF-8"?>
<!DOCTYPE svg PUBLIC "-//W3C//DTD SVG 1.1//EN" "http://www.w3.org/Graphics/SVG/1.1/DTD/svg11.dtd">
<!-- Creator: CorelDRAW 2019 (64-Bit) -->
<svg xmlns="http://www.w3.org/2000/svg" xml:space="preserve" width="100%" height="100%" version="1.1" style="shape-rendering:geometricPrecision; text-rendering:geometricPrecision; image-rendering:optimizeQuality; fill-rule:evenodd; clip-rule:evenodd"
viewBox="0 0 517.05 465.68"
 xmlns:xlink="http://www.w3.org/1999/xlink">
 <defs>
  <style type="text/css">
   <![CDATA[
    .fil0 {fill:#A6A182}
   ]]>
  </style>
 </defs>
 <g id="Layer_x0020_1">
  <metadata id="CorelCorpID_0Corel-Layer"/>
  <path class="fil0" d="M347.66 156.96c0.67,-4.03 2.87,-5.18 -0.77,-8.87 -2,-2.04 -4.22,-3.78 -5.9,-6.12l2.18 -2.16c2.66,1.2 6.08,5.17 7.77,7.68 2.88,4.28 1.1,7.89 -0.74,11.2 -1.8,-0.71 -1.13,-0.52 -2.54,-1.73zm0.02 -6.37c1.33,8.9 -10.74,9.47 -15.05,3.19 -5.36,-7.81 5.21,-14.56 7.65,-17.71l2.44 2.59c-2.28,2.61 -9.08,7.12 -7.56,12 0.73,2.35 2.97,4.26 6.13,3.86 3.85,-0.49 2.9,-3.3 6.39,-3.93zm11.7 -7.93c-0.96,1.62 -0.39,1.04 -1.95,2.09 -1.77,-0.94 -8.56,-7.75 -9.7,-9.62l1.76 -2.09c1.6,0.68 8.72,7.83 9.89,9.62zm-17.83 -7.54c1.06,-1.34 7.58,-7.65 9.1,-8.37l1.73 1.46c-0.65,2.2 -6.72,8 -8.78,9.4l-2.05 -2.49zm23.35 1.94c-1.74,-0.82 -6.95,-6.01 -8.13,-8 -1.86,-3.14 -1.52,-11.82 3.14,-10 1.35,3.31 -3.15,4.75 0.8,9.49 1.81,2.16 5,4.01 6.08,6.74l-1.89 1.77zm16.24 -24.33c3.34,14.03 -11.99,16.41 -16.31,8.26 -6.12,-11.57 11.72,-18.41 15.35,-9.3 -1.09,1.79 -3.2,3.28 -4.79,4.87 -1.54,1.55 -2.92,4.32 -5.77,3.63 -1.51,-2.57 0.08,-3.17 1.76,-4.78 1.19,-1.15 2.93,-2.56 3.59,-3.98 -8.13,-2.25 -10.02,7.12 -4.89,10.05 2.8,1.6 6.12,0.14 7.37,-1.73 1.15,-1.73 0.59,-2.09 0.97,-4 0.48,-2.36 0.78,-2.24 2.72,-3.02zm-104.72 -54.43l-4.16 11.05c-7.4,-0.55 -14.01,-1.24 -21.64,-0.89l-0.12 49.24c6.8,-0.34 11.64,-1.08 18.77,-0.58 3.24,0.23 14.26,1.65 16.15,3.06 8.79,1.79 19.51,8.1 25.54,12.38 22.94,16.32 37.27,45.49 35.1,76.45 -1.56,22.1 -10.97,40.15 -21.66,52.69 -13.45,15.77 -26.86,23.69 -48.7,26.39 -8.14,1.56 -16.81,0.57 -25.07,-0.04l-0.13 57.1c10.6,0.49 23.19,-1.46 33.09,-3.65 0.61,-2.99 0.9,-7.45 1.95,-9.15 -0.6,-2.46 -0.06,-9.21 1.16,-11.13 0.46,-0.37 16.19,-5.77 18.86,-6.88 5.22,-2.18 15.86,-8.28 17.11,-8.62 3.24,2.76 11.69,9.91 15.35,11.49 6.64,-3.45 26.86,-19.98 31.25,-26.48 -2.23,-5.49 -7.57,-12.3 -10.53,-17.12l10.06 -16.11c3.33,-6.35 5.44,-11.47 8.36,-18.55 6.24,-0.56 15.92,0.74 21.49,-0.65 2.91,-3.74 8.48,-32.55 7.08,-38.15l0.22 -3.16c-2.72,-1.84 -17.42,-5.47 -21.57,-6.37 -0.93,-7.29 -1.2,-13.37 -2.79,-20.67 -1.41,-6.48 -3.96,-12.68 -5.15,-18.14l18.3 -15.44c-2.04,-8.67 -17.31,-33.66 -21.84,-37.17 -7.76,2.55 -15.05,7.61 -22.3,10.48 -2.2,-1.45 -11.29,-11.73 -22.73,-19.19 -2.65,-1.73 -5.96,-3.55 -8.4,-5.58l5.16 -25.73c-0.11,-0.11 -0.28,-0.24 -0.36,-0.31l-0.74 -0.57c-0.12,-0.08 -0.26,-0.17 -0.38,-0.25l-8.13 -3.89c-3.37,-1.45 -6.73,-2.76 -10.2,-4.08 -4.39,-1.67 -17.86,-6.52 -22.43,-5.62 -0.04,1.87 -5.03,12.63 -5.97,13.84zm-247.94 185.8c-0.24,0.84 0.12,-0.09 -0.46,0.93 -0.09,0.16 -0.44,0.69 -0.61,0.98 -1.59,2.76 -4.62,13.25 -5.74,16.58 -5.35,15.83 -15.21,44.33 -19.04,58.09 2.5,0.43 0.68,-0.19 2.49,1.09l4.25 4.31c1.24,1.24 4.35,4.72 5.54,5.28l20.5 -61.48 1.48 -5.68c2.25,0.87 1.94,0.86 4.42,3.63 4.47,5.02 23.01,22.05 24.5,24.96l0.29 0.31c2.69,1.41 4.58,3.91 6.76,6.09 2.17,2.16 4.83,3.93 6.19,6.59l-12.64 2.88c-6.9,3.73 -23.05,1.21 -22.78,11.82 0.24,9.81 32.86,60.53 40.35,65.06 6.65,-2.12 14.24,1.9 17.5,5.11 5.7,5.62 4.66,8.63 5.93,17.74 1.23,3.32 24.01,18.79 29.52,22.28 10.23,6.47 22.32,12.53 34.48,17.56 66.1,27.37 148.67,22.71 209.34,-15.24 6.36,-3.98 27.37,-17.71 29.56,-21.6 0.89,-3.98 -0.45,-7.09 1.29,-12.17 1.27,-3.71 2.95,-5.89 5.13,-8.02 4.35,-4.27 11.8,-7.6 19.89,-5.52 1.5,-0.89 8.23,-9.59 8.72,-11.07 1.98,-6.02 -3.02,-11 -8.78,-9.89 -4.29,0.83 -7.32,6.91 -9.89,9.55 -3.16,3.24 -6.16,6.96 -9.22,10.22 -11.96,12.76 -25.97,23.65 -43.49,34.84 -32.18,20.55 -77.97,33.48 -124.17,31.24 -46.74,-2.26 -86.17,-19.08 -116.4,-40.37 -5.44,-3.83 -17.76,-13.31 -21.82,-17.64 -3.24,-3.46 -6.53,-6.09 -9.85,-9.59 -12.89,-13.62 -33.58,-40.21 -39.71,-57.33 4.55,-2.66 34.93,-6.75 38.16,-10.84 5.33,-6.73 -2.84,-12.74 -5.66,-15.54l-9.25 -9.05c-1.42,-1.36 -1.92,-1.6 -2.48,-3.02 -2.79,-1.32 -21.6,-20.69 -25.48,-24.48 -4.37,-4.27 -8.38,-8.12 -12.73,-12.43 -6.54,-6.51 -7.29,-10.24 -16.09,-6.18zm78.53 -188.97c-0.03,10.23 0.32,13.96 -5.39,20.39 -8.48,9.53 -12.56,3.13 -15.92,0.77 1.32,3.31 3.23,2.94 5.87,5.12 -4.78,0.91 -7.8,-0.05 -11.34,0.44 -1.23,0.67 -11.27,9.58 -6.9,16.16 1.81,2.73 5.4,4.37 9.16,3.02 3.19,-1.14 6.6,-7.03 9.37,-10.12 24.92,-27.76 50.14,-47.51 88.47,-61.95 47.98,-18.07 106.02,-18.59 154.81,0.51 3.03,1.18 16.61,6.43 17.75,7.9 4.74,1.44 12.99,6.62 17.3,9.09 9.85,5.66 21.61,14.33 29.88,21.57l25.73 25.74c9.03,10.17 25.37,34.25 30.15,46.61 -3.14,2.02 -23.14,6.28 -28.45,7.66 -5.46,1.42 -9.98,1.79 -11.47,6.33 -1.94,5.95 3.19,9.4 5.6,11.6 6.35,5.79 12.19,11.84 18.48,17.57l8.94 8.77c3.03,2.84 6.64,5.16 8.81,9.07 9.12,3.96 24.18,31.47 33.09,18.73 1.33,-1.9 3.94,-11.9 4.94,-15.03 6.33,-19.64 12.95,-39.88 18.51,-59.79 -4.06,-0.74 -8.74,-8.5 -12.32,-10.79l-20.97 67.08c-1.67,-0.55 -3.24,-2.76 -5.56,-4.89l-36.27 -34.62c-0.7,-1.01 -0.13,0.12 -0.6,-1.11 17.97,-7.85 41.59,-2.95 33.87,-20.74 -8.73,-20.11 -22.08,-40.91 -36.33,-57.45 -0.94,-1.1 -0.21,-0.58 -1.34,-1.25 -8.16,1.81 -14.31,-0.88 -18.64,-5.06 -6.06,-5.86 -4.97,-9.45 -5.74,-19.07 -4.54,-5.45 -22.83,-17.83 -29.74,-22.08 -10.09,-6.21 -22.47,-12.97 -34.45,-17.57 -57.78,-22.21 -116.34,-24.47 -174.83,-1.59 -22.25,8.71 -43.13,21 -61.37,35.84 -2.67,2.18 -2.94,1.69 -3.1,3.14zm207.61 137.9c-2.68,-1.36 -13.81,-12.24 -15.02,-14.91 6.56,-0.32 6.49,1.73 9.79,5.19 3.34,3.51 5.32,3.09 5.23,9.72zm-14.58 -15.87c0.84,-1.84 0.41,-1.13 1.85,-2.61l5.27 -4.98c3.42,-2.16 8.12,-2.06 10.89,0.5 7.86,7.26 0.15,15.92 -3.48,17.1l-1.8 -2.19c1.2,-2.43 3.91,-3.61 4.77,-5.62 2,-4.7 -3.75,-11.74 -9.91,-5.33 -2.75,2.85 -2.16,3.01 -7.59,3.13zm-24.44 105.18c1.28,-2.91 1.35,-7.99 1.6,-11.88 1.69,-1.08 7.11,-2.48 9.57,-3.5 3.2,-1.32 7.03,-3.82 9.69,-4.34 1.97,2.46 5.43,5.37 8.4,7.08 4.6,-2.62 14.03,-10.77 15.8,-14.39 -1.58,-2.89 -5.21,-7.22 -6.18,-9.72 2.99,-4.6 7.73,-11.18 8.96,-17.55l12.45 0.15c1.88,-4.82 4.87,-17.04 3.4,-21.62l-11.93 -3.41c-0.21,-3.52 -0.61,-6.86 -1.29,-10.19 -0.68,-3.33 -2.13,-6.46 -2.4,-9.71l10.37 -7.92c-0.62,-3.78 -7.11,-15.61 -9.2,-16.87 -4.1,-0.34 -5.06,5.02 -2.84,8.24 1.78,2.59 5.7,4.26 6.47,7.59 -2.57,1.69 -1.9,1.77 -4.28,-0.62 -2.51,-2.52 -6.3,-5.53 -6.77,-9.33 -0.59,-4.82 1.48,-4.61 0.33,-6.28l-7.18 3.58c-1.2,-0.63 -6.09,-5.2 -7.77,-6.64 -2.42,-2.08 -5.85,-3.77 -8.44,-6.06l3.54 -15.01c-7.19,-2.13 -13.57,-6.63 -22.5,-7.32 -0.12,1.89 -4.11,11.71 -5.42,14.29 -7.03,0.38 -11.77,-0.45 -19.36,0.7l-0.11 28.6c17.17,-3.61 26.77,-2.27 39.05,6.63 8.07,5.84 16.43,18.11 16.28,33.31 -0.14,15.2 -8.38,27.12 -16.55,33.03 -11.95,8.63 -21.8,10.26 -38.61,6.62l-0.19 20.38c2.02,1.92 2.02,1.99 2.53,5.49 1.03,7.16 0.99,7.17 3.78,7.51 6.13,0.76 15.82,-1.32 18.8,-0.84zm-94.83 38.52c-1.38,-0.74 -6.71,-5.95 -7.93,-7.88 -2.18,-3.45 -1.7,-9.79 2.22,-10.7 2.32,3.2 1.11,1.22 0.27,4.74 -1.3,5.45 4.73,7.6 7.52,11.82l-2.08 2.02zm25.17 -248.32c-0.37,0.27 -9.51,3.27 -11.26,3.98 -4.21,1.69 -7.76,3.44 -11.34,5.24 -20.66,10.41 -38.33,29.64 -48.53,50.4 -27.93,56.87 3.77,101.85 4.06,104.67 0.12,0.11 0.27,0.25 0.35,0.33l0.65 0.66c0.09,0.1 0.19,0.24 0.28,0.34l6.51 9.53c2.75,3.52 5.6,6.72 8.16,10.14 3.91,5.23 9.87,18.38 11.13,25.91 3.07,4.79 4.77,30.2 5.81,37.9 1.89,2.12 0.04,0.86 3.73,4.69l-2.52 2.69c-0.46,4.82 2.68,8.06 3.46,11.05 3.14,1.42 3.97,2.72 8.94,3.36 3.84,0.49 7.67,0.69 11.59,0.92 7.21,0.4 16.83,1.1 23.88,0.63l15.43 0.09 -0.28 -14.8c-12.45,0.79 -35.67,0.07 -48.04,-1.54 -1.63,-3.91 -1.76,-15 -2.42,-19.97 -3.27,-1 -5.54,-3.78 -5.83,-7.76 -0.18,-2.41 0.34,-3.88 1.33,-5.4 1.87,-2.86 0.85,-0.56 1.79,-4.07 0.6,-7.93 -7.28,-26.49 -10.35,-33.07 -5.29,-11.35 -11.07,-14.67 -18.11,-25.9 -12.56,-20.05 -19.55,-41.43 -14.1,-69.78 7.44,-38.69 37.79,-68.81 76.05,-77.2 6.81,-1.5 13.82,-1.14 19.77,-2.29l0.09 -14.63 -8.09 0.24c-8.13,0.14 -14.65,2.44 -22.14,3.64zm-25.92 277.38c-0.42,0.62 -7.97,6.91 -1.83,14.33 3.37,4.08 10.87,3.47 17.47,3.81 25.85,1.33 55.91,1.36 81.75,-0.02 5.76,-0.3 21.64,0.85 19.31,-11.93 -0.66,-3.63 -2.91,-4.44 -4.11,-6.41 -7.58,-2.25 -19.31,-0.48 -27.81,-0.12 -18.41,0.77 -39.28,0.65 -57.73,-0.04 -8.76,-0.33 -19.12,-2.25 -27.05,0.38zm11.26 23.66c-10.1,2.24 -10.15,14.7 -2.06,17.96 3.59,1.44 54.06,0.87 61.89,0.8 6.97,-0.06 25.49,0.84 30.96,-0.3 9.05,-1.9 9.94,-14.36 1.69,-17.88 -3.61,-1.54 -53.76,-0.77 -61.82,-0.77 -6.35,0 -25.99,-0.84 -30.66,0.19zm19.32 -275.69c-25.65,7.33 -45.22,24.56 -56.2,48.71 -1.27,2.8 -4.31,9.72 -3.81,13.11 0.65,4.4 5.57,7.76 10.45,5.54 4.94,-2.25 5.36,-11.83 12.33,-22.55 9.14,-14.05 23.28,-25.25 39.72,-30.03 4.76,-1.39 8.77,-2.85 8.21,-8.82 -0.5,-5.32 -4.95,-7.61 -10.7,-5.96zm-12.11 300.84c-0.4,5.61 7.08,10.9 11.14,12.99 14.24,7.33 47.24,6.59 58.9,-3.47 3.74,-3.22 11.03,-10.73 -0.32,-11.42 -7.49,-0.45 -15.81,0.36 -23.39,0.51 -8.04,0.16 -15.99,0.09 -24.02,-0.23 -6.84,-0.28 -17.46,-1.86 -22.31,1.62zm-141.66 -278.53c-5.23,1 -6.09,4.85 -8.44,9.58 -2.33,4.7 -9.62,20.65 -10.27,25.07 -0.78,5.32 3.32,9.45 8.67,8.76 6.63,-0.86 7.62,-11.08 13.04,-22.38 1,-2.09 5.39,-10.67 5.63,-12.3 0.79,-5.34 -3.61,-9.7 -8.63,-8.73zm413.83 182.34c-5.32,1.26 -5.5,5.42 -7.57,10.36l-10.77 24.78c-0.4,5.34 3.98,9.44 9.7,8.01 5.23,-1.31 10.98,-16.59 13.3,-22.3 1.13,-2.79 4.45,-10.36 4.54,-13.21 0.15,-4.93 -4.31,-8.8 -9.2,-7.64zm-390.43 -220.69c3.54,-0.49 6.56,0.47 11.34,-0.44 -2.64,-2.18 -4.55,-1.81 -5.87,-5.12 3.36,2.36 7.44,8.76 15.92,-0.77 5.71,-6.43 5.36,-10.16 5.39,-20.39 -4.82,2.65 -24.75,22.25 -26.78,26.72zm354.65 -0.33c-3.14,-4.62 -7.86,-8.81 -11.69,-12.59 -1.94,-1.91 -3.95,-4.24 -6.01,-6 -1.58,-1.36 -5.01,-4.73 -6.68,-5.54 0.77,9.62 -0.32,13.21 5.74,19.07 4.33,4.18 10.48,6.87 18.64,5.06zm-350.9 304.02c0.97,2.12 0.56,1.02 2.17,2.72 1.19,1.26 1.17,1.67 2.52,2.61 2.75,0.02 8.16,3.77 6.07,6.52 1.3,1.73 10.52,10.02 12.67,11 -1.27,-9.11 -0.23,-12.12 -5.93,-17.74 -3.26,-3.21 -10.85,-7.23 -17.5,-5.11zm297.16 -272.81c-1.94,0.78 -2.24,0.66 -2.72,3.02 -0.38,1.91 0.18,2.27 -0.97,4 -1.25,1.87 -4.57,3.33 -7.37,1.73 -5.13,-2.93 -3.24,-12.3 4.89,-10.05 -0.66,1.42 -2.4,2.83 -3.59,3.98 -1.68,1.61 -3.27,2.21 -1.76,4.78 2.85,0.69 4.23,-2.08 5.77,-3.63 1.59,-1.59 3.7,-3.08 4.79,-4.87 -3.63,-9.11 -21.47,-2.27 -15.35,9.3 4.32,8.15 19.65,5.77 16.31,-8.26zm29.17 298.66l6.92 -5.39c1.01,-1.07 0.57,-0.59 0.9,-1.21 -1.5,-4.96 -0.27,-8.7 2.77,-11.71 3.27,-3.24 6.75,-4.08 11.69,-2.68l4.03 -4.72c-8.09,-2.08 -15.54,1.25 -19.89,5.52 -2.18,2.13 -3.86,4.31 -5.13,8.02 -1.74,5.08 -0.4,8.19 -1.29,12.17zm91.77 -276.89c3.58,2.29 8.26,10.05 12.32,10.79 1.73,-5.33 4.79,-12.43 0.32,-16.32 -4.91,-4.27 -11.36,-0.97 -12.64,5.53zm-487.17 196.86c-1.19,-0.56 -4.3,-4.04 -5.54,-5.28l-4.25 -4.31c-1.81,-1.28 0.01,-0.66 -2.49,-1.09 -1.91,5.12 -4.7,12.06 -0.22,15.8 5.37,4.48 11.12,0.58 12.5,-5.12zm285.13 -154.2c5.43,-0.12 4.84,-0.28 7.59,-3.13 6.16,-6.41 11.91,0.63 9.91,5.33 -0.86,2.01 -3.57,3.19 -4.77,5.62l1.8 2.19c3.63,-1.18 11.34,-9.84 3.48,-17.1 -2.77,-2.56 -7.47,-2.66 -10.89,-0.5l-5.27 4.98c-1.44,1.48 -1.01,0.77 -1.85,2.61zm47.64 -26.57c-3.49,0.63 -2.54,3.44 -6.39,3.93 -3.16,0.4 -5.4,-1.51 -6.13,-3.86 -1.52,-4.88 5.28,-9.39 7.56,-12l-2.44 -2.59c-2.44,3.15 -13.01,9.9 -7.65,17.71 4.31,6.28 16.38,5.71 15.05,-3.19zm70.45 254.2c0.89,-0.59 0.29,-0.16 1.03,-0.83l6.49 -6.13c1.84,-1.98 5.47,-5.3 6.94,-7.43 -4.94,-1.4 -8.42,-0.56 -11.69,2.68 -3.04,3.01 -4.27,6.75 -2.77,11.71zm-100.38 -246.72c1.15,1.67 -0.92,1.46 -0.33,6.28 0.47,3.8 4.26,6.81 6.77,9.33 2.38,2.39 1.71,2.31 4.28,0.62 -0.77,-3.33 -4.69,-5 -6.47,-7.59 -2.22,-3.22 -1.26,-8.58 2.84,-8.24 -0.61,-1.7 -0.23,-0.94 -1.3,-2.52 -1.86,-0.29 -1.4,-0.25 -3.17,0.47 -1.55,0.62 -1.65,0.76 -2.62,1.65zm23.24 -16.1c1.68,2.34 3.9,4.08 5.9,6.12 3.64,3.69 1.44,4.84 0.77,8.87 1.41,1.21 0.74,1.02 2.54,1.73 1.84,-3.31 3.62,-6.92 0.74,-11.2 -1.69,-2.51 -5.11,-6.48 -7.77,-7.68l-2.18 2.16zm23.91 -4.91l1.89 -1.77c-1.08,-2.73 -4.27,-4.58 -6.08,-6.74 -3.95,-4.74 0.55,-6.18 -0.8,-9.49 -4.66,-1.82 -5,6.86 -3.14,10 1.18,1.99 6.39,7.18 8.13,8zm-184.13 183.8l2.08 -2.02c-2.79,-4.22 -8.82,-6.37 -7.52,-11.82 0.84,-3.52 2.05,-1.54 -0.27,-4.74 -3.92,0.91 -4.4,7.25 -2.22,10.7 1.22,1.93 6.55,7.14 7.93,7.88zm133.85 -127.83c0.09,-6.63 -1.89,-6.21 -5.23,-9.72 -3.3,-3.46 -3.23,-5.51 -9.79,-5.19 1.21,2.67 12.34,13.55 15.02,14.91zm-129.09 115.73c-0.33,-4.07 -0.65,-14.64 -2.71,-17.23 -0.94,3.51 0.08,1.21 -1.79,4.07 -0.99,1.52 -1.51,2.99 -1.33,5.4 0.29,3.98 2.56,6.76 5.83,7.76zm162.2 -173.63c1.14,1.87 7.93,8.68 9.7,9.62 1.56,-1.05 0.99,-0.47 1.95,-2.09 -1.17,-1.79 -8.29,-8.94 -9.89,-9.62l-1.76 2.09zm-6.18 -0.01l2.05 2.49c2.06,-1.4 8.13,-7.2 8.78,-9.4l-1.73 -1.46c-1.52,0.72 -8.04,7.03 -9.1,8.37zm-120.71 209.86c2.21,1.04 12.77,1.11 15.65,0.35 1.08,-2.95 0.48,-9.91 0.47,-13.4 -0.25,-3.23 0.02,-0.79 -0.97,-1.66l0.28 14.8 -15.43 -0.09zm-126.1 52.41c2.09,-2.75 -3.32,-6.5 -6.07,-6.52l6.07 6.52zm141.34 -314.1c1.25,-1.93 0.73,-12.58 0.47,-14.7l-6.63 -0.46c-1.61,0.27 -0.86,0.12 -1.84,0.77l8.09 -0.24 -0.09 14.63zm-63.11 245.73l2.52 -2.69c-3.69,-3.83 -1.84,-2.57 -3.73,-4.69 0.17,2.4 0.11,5.72 1.21,7.38z"/>
 </g>
</svg>
