<?xml version="1.0" encoding="UTF-8"?>
<!DOCTYPE svg PUBLIC "-//W3C//DTD SVG 1.1//EN" "http://www.w3.org/Graphics/SVG/1.1/DTD/svg11.dtd">
<!-- Creator: CorelDRAW 2019 (64-Bit) -->
<svg xmlns="http://www.w3.org/2000/svg" xml:space="preserve" width="100%" height="100%" version="1.1" style="shape-rendering:geometricPrecision; text-rendering:geometricPrecision; image-rendering:optimizeQuality; fill-rule:evenodd; clip-rule:evenodd"
viewBox="0 0 465.68 465.68"
 xmlns:xlink="http://www.w3.org/1999/xlink">
 <defs>
  <style type="text/css">
   <![CDATA[
    .fil0 {fill:#A6A182}
   ]]>
  </style>
 </defs>
 <g id="Layer_x0020_1">
  <metadata id="CorelCorpID_0Corel-Layer"/>
  <path class="fil0" d="M69.13 360.17c0,-7.12 4.7,-11.82 11.82,-11.82l65.49 0c0,31.4 -2.31,29.11 18.19,29.1 10.07,0 61.62,-1.48 67.62,1.5 2.96,1.47 6.05,4.47 6.05,8.51l0 34.56 -169.17 0 0 -61.85zm-69.13 91.86l0 -15.69c0.82,-8.07 4.35,-14.32 17.29,-14.32l37.29 0 0 -60.03c0,-17.28 11.78,-28.19 29.1,-28.19l62.76 0 0 -39.11c0,-5.61 -10.13,-0.4 -12.7,-20.05 -1.26,-9.66 -3.29,-18.76 -4.54,-28.21 -2.62,-19.87 -2.72,-2.91 -18.28,-14.45 -7.13,-5.29 -6.32,-13.36 -6.32,-25.52 -6.46,-3.09 -16.37,-7.7 -16.37,-19.1l0 -87.31c-7.5,0 -14.55,-4.91 -14.55,-11.82 0,-13.53 -3.82,-31.84 16.37,-31.84l56.39 0 0 -21.82c0,-18.79 14.29,-34.57 30.92,-34.57l184.63 0c14.4,0 27.37,13.08 29.68,25.8 0.89,4.88 0.38,32.87 0.33,41.51 -0.08,13.65 -4.91,10.91 30.02,10.91 0,-11.17 1.79,-21.83 17.28,-21.83 7.3,0 26.38,-1.24 26.38,12.74l0 28.19c0,10.46 -13.65,8.02 -13.65,1.82l0 -28.19 -15.46 0 0 150.98 15.46 0 0 -92.77c0,-9.15 13.65,-9.15 13.65,0l0 94.58c0,6.73 -7.16,12.74 -16.38,12.74 -15.81,0 -27.28,1.73 -27.28,-20.92l-73.67 0c0,6.25 0.45,12.48 -4.76,17.07 -5.44,4.79 -38.9,10.07 -38.9,-11.61l0 -149.16c0,-16.58 16.41,-15.47 26.38,-15.47 17.25,0 17.28,12.14 17.28,21.83l30.01 0 0 -44.56c0,-12.39 -8.61,-20.01 -20.92,-20.01l-175.53 0c-25.48,0 -20.92,23.48 -20.92,42.74l56.39 0c10.83,0 17.28,6.46 17.28,17.29 0,9.36 1.79,26.37 -14.55,26.37 0,12.13 2.58,27.29 -8.19,27.29 -8.94,0 -6.37,-15.86 -6.37,-27.29l-103.68 0 0 82.77c0,5.67 2.6,10 8.19,10l87.31 0c11.16,0 8.23,-17.21 8.18,-32.74 -0.02,-7.44 -0.99,-13.04 5.15,-14.93 5.78,-1.79 9.41,3.5 9.41,9.47 0,12.77 2.02,35.17 -4.79,43.42 -4.89,5.93 -5.88,5.25 -12.49,8.42 0,10.5 1.36,16.48 -3.47,22.92 -4.05,5.41 -9.93,7.1 -19.27,7.1 -0.53,6.34 -6.84,44.86 -9.24,48.97 -4.39,7.56 -9.86,4.6 -9.86,9.24l0 69.12 67.3 0c13.53,0 24.56,11.81 24.56,25.47l0 32.74 39.11 0c10.19,0 16.37,7.71 16.37,18.19 0,7.8 0.41,25.47 -12.73,25.47l-219.2 0c-7.25,0 -7.25,-13.65 0,-13.65l217.38 0 0 -15.46 -280.13 0 0 15.46 33.65 0c5.15,0 7.55,8.19 3.66,11.85 -0.69,0.65 -2.24,1.8 -3.66,1.8l-33.65 0c-7.77,0 -13.65,-5.88 -13.65,-13.65zm141.89 -215.55l23.65 0 -3.37 22.09c-0.65,3.95 -1.32,7.73 -1.83,10.91 -1.62,9.98 0.07,9.75 -8.45,9.75 -4.86,0 -4.87,-11.95 -6.24,-20.14 -0.62,-3.78 -2.9,-20.68 -3.76,-22.61zm177.35 -165.53l14.56 0 0 150.98 -14.56 0 0 -150.98zm-201 143.7c0,-5.85 -0.81,-8.19 2.73,-8.19l68.21 0c0,6.08 1.36,15.47 -3.64,15.47l-63.66 0c-3.19,0 -3.64,-4.04 -3.64,-7.28zm289.23 -122.78l14.55 0 0 109.14 -14.55 0 0 -109.14zm-30.02 0l15.46 0 0 109.14 -15.46 0 0 -109.14zm-29.1 0l15.46 0 0 109.14 -15.46 0 0 -109.14zm-261.03 -20.92l132.79 0 0 15.46 -132.79 0 0 -15.46z"/>
 </g>
</svg>
