<?xml version="1.0" encoding="UTF-8"?>
<!DOCTYPE svg PUBLIC "-//W3C//DTD SVG 1.1//EN" "http://www.w3.org/Graphics/SVG/1.1/DTD/svg11.dtd">
<!-- Creator: CorelDRAW 2019 (64-Bit) -->
<svg xmlns="http://www.w3.org/2000/svg" xml:space="preserve" width="100%" height="100%" version="1.1" style="shape-rendering:geometricPrecision; text-rendering:geometricPrecision; image-rendering:optimizeQuality; fill-rule:evenodd; clip-rule:evenodd"
viewBox="0 0 593.96 465.66"
 xmlns:xlink="http://www.w3.org/1999/xlink">
 <defs>
  <style type="text/css">
   <![CDATA[
    .fil0 {fill:#A6A182}
   ]]>
  </style>
 </defs>
 <g id="Layer_x0020_1">
  <metadata id="CorelCorpID_0Corel-Layer"/>
  <path class="fil0" d="M41.76 436.76l0.7 -0.37c0.1,-0.03 0.26,-0.11 0.38,-0.14 0.13,-0.03 0.27,-0.07 0.41,-0.1l492.26 -0.04c4.1,0 12.4,-0.45 15.99,0.21 0.5,2.45 0.56,13.03 -0.04,15.37 -3.94,0.68 -442.02,0.13 -502.04,0.15 -1.89,0 -6.13,0.59 -7.61,-0.6l-0.05 -14.48zm142.53 -80.9c12.02,-0.54 25.06,-0.06 37.16,-0.08 4.31,-0.01 6.39,2.7 12.1,6.52 36.63,24.54 96.98,29.81 140.99,25.52 17.23,-1.68 32.29,-3.85 49,-7.01 5.09,-0.97 11.1,-2.83 16.08,-3.26l-0.02 44.75 -255.18 0.06 -0.13 -66.5zm109.05 -39.44c14.11,-2.18 25.37,8.16 27.28,20.07 2.37,14.74 -8.4,26.09 -20.58,27.79 -14.05,1.97 -25.65,-8.26 -27.35,-20.71 -1.94,-14.26 8.49,-25.28 20.65,-27.15zm-11.73 -150.39l30.57 0.01 0.04 138.76c-2.63,-0.38 -4.84,-1.57 -7.57,-2.16 -12.68,-2.72 -20.53,1.93 -23.13,2.11l0.09 -138.72zm-44.37 -67.31l118.99 0.2 0.01 52.67 -4.14 0.09 -111.19 0.03 -3.68 -0.2 0.01 -4.69 0 -44.19 -0.01 -1.9 0.01 -2.01zm155.82 -84.58c0.24,13.9 0.03,28 0.03,41.93 0,10.61 -0.23,23.01 -14.46,27.47 -6.62,2.08 -31.89,1.07 -40.79,1.07l-83.15 0c-9.15,0 -33.1,1.1 -40.05,-1.32 -13.85,-4.8 -14.01,-16.96 -14.01,-27.7 0,-13.75 -0.15,-27.6 0.01,-41.48l192.42 0.03zm-378.99 0.14c0.47,-0.3 0.14,-0.28 1.14,-0.5 0.19,-0.04 1.16,-0.08 1.39,-0.09 0.9,-0.02 1.96,0.04 2.88,0.05l80.78 0c7.4,0 81.13,-0.4 86.34,0.11 0.86,2.56 0.88,27.93 -0.05,30.18 -6.59,0.51 -14.89,0.09 -21.67,0.09l-129.72 0c-2.07,0 -19.26,0.65 -21.02,-0.56l-0.07 -29.28zm393.13 -0.18l172.41 0.16 -0.02 29.54 -172.36 -0.1 -0.04 -2.36 -0.01 -25.19 0.02 -2.05zm-407.2 -9.48l0 48.55c2.17,2.74 2.41,4.67 7.58,4.74 21.95,0.3 174.71,-0.77 178.91,0.23 0.24,7.2 -0.23,10.99 2.08,17.46 3.19,8.95 10.15,16.37 18.84,20.12 2.21,0.96 4.84,1.87 7.07,2.31 2.95,0.58 6.03,0.36 8.64,0.92 0.27,18.41 0.04,37.04 0.02,55.48 -0.01,5.12 -0.24,8.67 3.77,10.66 3.58,1.78 33.06,0.65 40.37,0.98 0.75,5.76 -0.03,125.43 0.15,145.17 0.05,5.94 -1.01,5.15 -3.53,9.2 -7.72,12.39 -7.05,29.56 0.62,41.04 -5.71,-0.54 -26.11,-12.4 -31.44,-17.22 -3.31,-3 -4.24,-2.83 -9.75,-2.81l-36.59 0c-8.63,0 -16.52,-1.42 -16.54,8.32 -0.02,11.53 0.52,66 -0.1,72.54 -15.62,0.57 -32.25,0.05 -47.98,0.05l-83.16 0c-13.99,-0.02 -11.26,4.9 -11.26,24.3 0,13.09 -1.62,13.71 4.72,19l528.45 0c5.82,-4.58 4.65,-2.84 4.65,-15.2 0,-32.5 4.97,-28.1 -31.91,-28.1 -6.32,0 -75.33,0.39 -79.64,-0.13 -0.58,-17.5 0.63,-35.6 -0.03,-53.05 -0.39,-10.63 -8.73,-7.61 -16.54,-5.89 -25.52,5.61 -42.28,8.9 -69.58,10.84 -15.21,1.08 -36.47,1.65 -51.27,-0.68 1.22,-1.17 3.7,-2.59 7.71,-6.43 2.61,-2.49 4.29,-4.84 6.27,-8.44 6.71,-12.21 6.09,-28.04 -2.07,-39.87 -1.69,-2.44 -2.18,-1.83 -2.2,-5.55 -0.27,-48.88 0.77,-98.23 0.01,-147.1 9.2,-0.17 18.52,-0.03 27.73,-0.03 11.96,0 16.37,1.44 16.34,-11.6 -0.05,-18.48 -0.14,-37.03 0,-55.5 5.31,-1.05 8.07,0.46 16.23,-3.18 5.07,-2.27 7.91,-4.54 11.39,-8.1 7.42,-7.58 9.22,-15.52 9.24,-29.7 15.48,-0.67 32.37,-0.06 48.01,-0.06l119.74 0c13.04,0 14.73,1.57 18.59,-4.69l0.42 -0.65 0 -46.1c-0.66,-1.4 -0.57,-2.52 -1.64,-3.87 -0.91,-1.15 -1.75,-1.38 -2.92,-2.58l-584.77 0c-1.05,0.89 -1.93,1.07 -2.74,1.88 -0.83,0.83 -0.98,1.68 -1.89,2.74zm245.19 66.63l102.63 0.01c4.95,0 8.58,-1.89 8.88,-6.69 0.32,-5.14 -3.49,-7.58 -8.4,-7.67l-101.69 0c-13.67,0 -11.9,14.23 -1.42,14.35zm-3.43 -43.45c-4.42,1.55 -6.33,6.76 -3.4,10.86 2.81,3.95 8.6,2.9 13.95,2.9 14.69,0 97.28,0.56 99.99,-0.51 3.62,-1.43 6.11,-6.59 3.14,-10.64 -2.88,-3.96 -7.82,-2.95 -13.79,-2.95 -14.72,0 -97.26,-0.59 -99.89,0.34zm-37.74 177.93c-9.41,3.63 -2.79,11.37 -2.19,22.41 0.51,9.42 -0.95,18.74 -3.04,27.17 -1.79,7.22 -4.41,18.05 -3.71,25.66 0.44,4.73 1.94,8.18 3.11,12.21 2.72,9.31 16.45,6.06 13.55,-4.55 -1.32,-4.84 -2.64,-7.29 -2.46,-12.55 0.46,-13.28 9.36,-29.28 6.58,-52.98 -0.77,-6.55 -3.22,-20.7 -11.84,-17.37zm150.52 53.64c-6.6,2.16 -7.5,14.22 -8.05,21.91 -1.53,21.27 8.41,42.79 6.83,52.62 -0.65,4.02 -3.34,7.49 -2.73,12.5 0.46,3.85 4.46,7.1 9.32,5.4 4.27,-1.5 4.04,-4.61 5.6,-9.13 4.51,-13.14 0.43,-23.96 -2.55,-38 -1.87,-8.82 -2.97,-17.82 -1.8,-27.11 0.43,-3.43 2.82,-10.32 2.4,-12.87 -0.62,-3.73 -4.55,-6.78 -9.02,-5.32zm30.45 -38.96c-11.69,4.1 -8.16,37.82 -5.39,49.48 1.62,6.82 5.35,18.7 3.92,25.63 -0.68,3.26 -3.49,8.58 -2.6,12.16 0.76,3.03 5.11,6.58 9.35,5.18 4.53,-1.49 4.02,-4.95 5.65,-9.13 7.56,-19.42 -8.27,-38.42 -4.29,-66.03 0.53,-3.7 3.11,-9.47 2.56,-12.31 -0.67,-3.5 -4.76,-6.54 -9.2,-4.98zm-150.37 24.53c-4.34,1.18 -6.37,4.6 -4.76,9.39 1.53,4.58 2.15,7.58 2.48,12.69 1.31,20.02 -7.95,36.3 -6.77,52.32 0.35,4.79 1.89,8.05 2.98,12.34 2.36,9.34 15.91,7.68 13.7,-3.74 -1.02,-5.22 -2.87,-6.09 -2.58,-12.44 0.36,-7.81 3.29,-16.97 4.89,-24.86 1.72,-8.5 2.71,-18.38 1.72,-27.6 -0.78,-7.24 -2.66,-20.54 -11.66,-18.1zm-220.48 -201.38c1.76,1.21 18.95,0.56 21.02,0.56l129.72 0c6.78,0 15.08,0.42 21.67,-0.09 0.93,-2.25 0.91,-27.62 0.05,-30.18 -5.21,-0.51 -78.94,-0.11 -86.34,-0.11l-80.78 0c-0.92,-0.01 -1.98,-0.07 -2.88,-0.05 -0.23,0.01 -1.2,0.05 -1.39,0.09 -1,0.22 -0.67,0.2 -1.14,0.5l172.33 -0.01 -0.12 29.33 -172.14 -0.04z"/>
 </g>
</svg>
