<?xml version="1.0" encoding="UTF-8"?>
<!DOCTYPE svg PUBLIC "-//W3C//DTD SVG 1.1//EN" "http://www.w3.org/Graphics/SVG/1.1/DTD/svg11.dtd">
<!-- Creator: CorelDRAW 2019 (64-Bit) -->
<svg xmlns="http://www.w3.org/2000/svg" xml:space="preserve" width="100%" height="100%" version="1.1" style="shape-rendering:geometricPrecision; text-rendering:geometricPrecision; image-rendering:optimizeQuality; fill-rule:evenodd; clip-rule:evenodd"
viewBox="0 0 465.64 465.68"
 xmlns:xlink="http://www.w3.org/1999/xlink">
 <defs>
  <style type="text/css">
   <![CDATA[
    .fil0 {fill:#A6A182}
   ]]>
  </style>
 </defs>
 <g id="Layer_x0020_1">
  <metadata id="CorelCorpID_0Corel-Layer"/>
  <path class="fil0" d="M14.6 253.39c-0.09,-30.1 28.16,-23.8 29.37,-6.44 1.3,18.59 0.03,42.38 0.03,61.55l0 91.06c0,21.67 -2.47,21.98 17.22,21.99l347.45 0c14.72,0 13.23,-2.19 13.22,-16.4 -0.03,-50.88 -0.68,-105.53 -0.01,-155.77 0.3,-22.87 29.43,-22.15 29.43,0.01l0 201.58 -436.71 0 0 -197.58zm44.22 51.12c30.4,-3.89 66.02,-2.96 96.38,-0.52 7.41,0.59 49.6,4.75 53.05,9.2 19.81,25.59 36.74,8.34 43.8,8.32 9.94,-0.02 29.07,7.86 70.38,5.02 15.46,-1.06 29.21,-2.78 43.91,-6 12.75,-2.8 36.29,-10.5 39.81,-11.15l1.71 97.92 -349.58 0.24c-0.29,-2.32 -0.98,-97.27 -0.16,-101.35 0.32,-1.61 0.16,-0.82 0.7,-1.68zm169.42 -20.16c9.01,-3.24 16.18,2.48 18.46,8.75 3.38,9.29 -2.78,16.51 -8.83,18.7 -17.93,6.49 -28.35,-20.71 -9.63,-27.45zm18.97 -126.91c-0.99,2.08 -12.7,17.9 -14.27,19.02 -1.59,-1.14 -13.32,-16.95 -14.26,-19.01 -0.93,-1.11 -0.87,0.03 -0.85,-4.67l0.35 -14.8c3.39,-1 26.17,-1.01 29.78,0l0.07 17.16c-0.01,4.05 0.1,1.2 -0.82,2.3zm-65.14 -55.71l101.84 0.13 -0.64 21.8 -101.23 -0.1 0.03 -21.83zm-14.32 -43.8l130.69 0.02 -0.06 29.23 -130.95 -0.02 0.32 -29.23zm271.74 6.58c-3,2.52 -25.1,0.95 -30.82,0.95l-95.73 -0.02 0.07 -29.12c30.96,-1.35 78.44,-0.09 112.43,-0.09 8.38,0 23.41,-2.29 25.48,12.67 1.84,7.73 -5.29,15.6 -11.43,15.61zm-401.44 0.94c-8.69,0.01 -23.66,0.16 -23.34,-14.95 0.34,-16.03 17.28,-14.27 24.14,-14.27 34.37,0.01 82.88,-1.3 114.11,0.09l-0.12 29.13 -114.79 0zm129.38 -21.86c0,-22.44 -3.18,-29.39 18.39,-29.33l94.25 0c8.39,-0.01 14.67,0.36 17.48,6.76 1.76,4.02 0.93,17.19 0.93,22.67l-131.05 -0.1zm5.25 94.04l31.55 0.19 0.02 23.57c0.82,3.68 7.84,11.93 10.37,15.27 2.45,3.23 9.29,11.66 10.11,14.18 2.15,3.37 0.89,2.65 0.89,2.65 0.06,0.37 0.1,1.91 0.11,2.34l-0.18 74.14c-12.59,4.31 -19.42,11.42 -21.71,26.2 -4.58,-0.25 -11.53,-1.87 -16.6,-2.65 -26.96,-4.14 -65.79,-7.11 -92.5,-5.72l-36.39 2c-0.68,-12.2 1.6,-41.37 -1.21,-50.67 -4.46,-14.7 -15.93,-21.1 -31.07,-20.97 -11.16,3.5 -16.08,4.6 -21.18,13.26 -5.98,10.14 -4.55,17.71 -4.55,30.75l0 174.93c0,13.92 -2.59,26.81 6.56,28.06 8.2,1.12 25.93,0.07 35.15,0.07 56.24,0 415.16,0.85 419,-0.49 4.96,-1.72 4.54,-7.67 4.51,-13.26l0 -192.5c0,-12.91 1.09,-19.22 -5.51,-29.03 -10.2,-15.17 -34.28,-15.7 -46.58,-0.53 -6.68,8.25 -5.84,17.61 -5.84,29.56 0,11.13 0.39,22.99 -0.08,34.03 -38.16,17.75 -104.98,24.98 -147.23,15.27 1.58,-9 3.52,-16.55 -3.52,-26.83 -2.17,-3.17 -4.16,-3.65 -4.69,-5.75 -4.32,-2.56 -6.12,-3.59 -11.78,-5.74 -0.94,-16.55 -0.1,-35.68 -0.1,-52.52 0,-26.23 -2.81,-22.34 5.55,-33.49 1.59,-2.12 3.66,-5.8 6.03,-6.94 1.23,-5.05 7.82,-9.44 9.88,-15.48l0.3 -23.86 31.21 -0.04c6.56,-2.59 5.08,-6.91 5.07,-15.24 -0.01,-6.78 -0.22,-13.91 0.08,-20.66 18.17,0 14.58,-4.62 14.58,-21.86 22.16,-1.54 122.94,2.44 134.18,-2.06 26.12,-10.47 23.36,-45.66 -0.35,-54.26 -13.46,-4.88 -109.87,0.33 -133.94,-2.07 -5.16,-11.44 -6.28,-21.57 -29.55,-21.47l-101.45 0c-16.36,-0.06 -25.74,7.12 -28.5,21.67 -30.43,0 -60.87,0 -91.31,0 -12.04,0 -33.83,-1.61 -43.49,2.06 -22.94,8.72 -25.89,44.14 0.84,54.3 10.64,4.05 111.87,0.46 133.59,1.82 0.04,17.31 -3.61,21.87 14.59,21.87 0.31,6.73 0.1,13.89 0.09,20.66 -0.01,8.31 -1.51,12.66 5.05,15.24zm193.86 253.71c2.33,0.04 3.24,-0.73 4.07,-3.59 0.65,-2.2 0.74,-3.24 -0.43,-4.97 -7.59,-0.56 0.27,-1.62 -7,-2.38 -2.21,-0.23 -5.7,-0.06 -8.03,-0.06l-245.16 0 0 9.63c18.97,1.45 44.71,0.1 64.65,0.1l128.59 0c8.33,0 59.71,-1.26 63.31,1.27zm-293.27 -40.51c1.04,4.69 4.92,5.3 10.27,5.3l76.72 -0.02c8.31,0 23.12,2.7 21.56,-8.36 -0.76,-5.37 -5.06,-5.97 -10.35,-5.97l-76.71 0.03c-7.88,0 -24.04,-2.44 -21.49,9.02zm293.27 40.51c-3.6,-2.53 -54.98,-1.27 -63.31,-1.27l-128.59 0c-19.94,0 -45.68,1.35 -64.65,-0.1l0 -9.63 245.16 0c2.33,0 5.82,-0.17 8.03,0.06 7.27,0.76 -0.59,1.82 7,2.38 -2.34,-5.94 -6.13,-4.61 -13.43,-4.59l-242.03 -0.01c-5.66,-0.02 -10.37,-0.46 -12.09,4.5 -4.58,13.16 15.52,9.92 24.08,9.92l171.73 0c1.56,0 66.69,0.95 67.49,-0.9 0.12,-0.28 0.43,-0.21 0.61,-0.36zm-193.88 -150.85c-14.91,5.23 6.52,21.49 14.31,29.31 2.6,2.61 5.91,7.7 12.17,5.87 4.89,-1.44 6.18,-7.65 2.65,-11.92l-17.96 -17.96c-2.19,-2.2 -5.74,-7.2 -11.17,-5.3zm116.19 0.19c-0.23,3.27 0.01,3.65 -4.77,7.21l-8.97 8.49c-7.18,8.06 -1.38,1.56 -7.02,6.6 0.04,0.23 0.24,0.52 0.31,0.63l1.29 0.96c0,3.82 -0.21,4.21 1.59,6.39 1.97,-0.04 1.67,-0.19 3.21,-0.44 2.99,-0.5 -0.24,-0.4 3.45,-0.63 1.47,-0.37 -0.17,0.35 1.35,-0.62 0.16,-0.11 0.66,-0.49 0.83,-0.63 0.62,-0.51 1.36,-1.36 2,-2.01 7.49,-7.69 18.15,-15.17 15.65,-22.16 -1,-2.8 -5.13,-5.94 -8.92,-3.79zm117.3 68.7c0.78,1.04 1.05,-0.9 0.95,5.48l-0.04 91.91 -348.24 0 0 -102.26c-0.54,0.86 -0.38,0.07 -0.7,1.68 -0.82,4.08 -0.13,99.03 0.16,101.35l349.58 -0.24 -1.71 -97.92zm-128.21 -39.49c-3.69,0.23 -0.46,0.13 -3.45,0.63 -1.54,0.25 -1.24,0.4 -3.21,0.44 -1.8,-2.18 -1.59,-2.57 -1.59,-6.39l-1.29 -0.96c-0.07,-0.11 -0.27,-0.4 -0.31,-0.63 5.64,-5.04 -0.16,1.46 7.02,-6.6l8.97 -8.49c4.78,-3.56 4.54,-3.94 4.77,-7.21 -4.88,1.54 -8.26,6.54 -11.6,9.88 -3.52,3.52 -6.45,6.5 -9.98,9.99 -14.4,14.23 4.91,21.7 10.67,9.34zm-59.26 -112.44l-0.05 -19.21 28.62 -0.01 -0.04 19.21c0.92,-1.1 0.81,1.75 0.82,-2.3l-0.07 -17.16c-3.61,-1.01 -26.39,-1 -29.78,0l-0.35 14.8c-0.02,4.7 -0.08,3.56 0.85,4.67zm-14.43 3.94l-0.02 -23.57 -31.55 -0.19c0.21,0.11 0.49,0.05 0.61,0.31l30.29 0.56c0,5.53 -1.41,18.99 0.67,22.89zm57.44 0.14l0.66 -4.76c0,-2.14 -0.02,-4.28 -0.02,-6.42 0,-3.96 0,-7.92 0,-11.87l28.93 -0.09c1.85,-0.36 1.51,-0.54 1.94,-0.76l-31.21 0.04 -0.3 23.86z"/>
 </g>
</svg>
