<?xml version="1.0" encoding="UTF-8"?>
<!DOCTYPE svg PUBLIC "-//W3C//DTD SVG 1.1//EN" "http://www.w3.org/Graphics/SVG/1.1/DTD/svg11.dtd">
<!-- Creator: CorelDRAW 2019 (64-Bit) -->
<svg xmlns="http://www.w3.org/2000/svg" xml:space="preserve" width="100%" height="100%" version="1.1" style="shape-rendering:geometricPrecision; text-rendering:geometricPrecision; image-rendering:optimizeQuality; fill-rule:evenodd; clip-rule:evenodd"
viewBox="0 0 539.62 465.68"
 xmlns:xlink="http://www.w3.org/1999/xlink">
 <defs>
  <style type="text/css">
   <![CDATA[
    .fil0 {fill:#A6A182}
   ]]>
  </style>
 </defs>
 <g id="Layer_x0020_1">
  <metadata id="CorelCorpID_0Corel-Layer"/>
  <path class="fil0" d="M251.58 304.96l35.54 -0.12 0.17 153.36 -35.45 0.08 -0.26 -153.32zm21.32 -40.14c43.1,0 231.02,2.63 258.45,-2.22l-0.42 35.45 -523.15 -1.33 -0.01 -32.12 265.13 0.22zm-87.37 -61.19c0,-26.31 0.74,-26.84 12.92,-44.7l74.45 -0.83c21.25,-0.01 24.11,-2.9 28.9,19.94 3.4,16.2 -1.55,33.5 4.1,46.01l2.49 -4.97c6.53,-19.76 -2.46,16.68 1.6,-5.61 0.27,-1.48 0.49,-7.91 0.53,-9.66 0.11,-5.99 -0.29,-13.04 -0.28,-19.23 35.21,5.61 30.54,42.58 30.22,73.21l-216.09 -0.59c0.5,-52.9 2.15,-66.54 54.41,-75.44l-0.01 40.77c8.09,-1.36 6.76,13.11 6.76,-18.9zm270.76 -98.57l30.23 -0.56c3.23,3.15 4.48,-0.58 4.81,16.42l-1.65 51.58c-12.52,3.02 -24.54,3.37 -36.77,-0.64 -1.49,-11.14 -0.81,-22.83 -0.85,-34.23 -0.09,-26.54 -3.74,-28.09 4.23,-32.57zm-339.81 149.96c-81.75,2.8 -66.23,10.34 -66.23,-67.89 0,-27.19 -4.28,-116.48 2.98,-134.53l61.26 -1.28c32.58,42.2 -8.27,42.52 118.81,42.52 89.04,0 90.85,9.78 115.5,-41.89 16.22,-1.75 33.05,-0.89 49.5,-0.92 60.85,-0.13 48.3,-2.21 48.3,70.1 0,26.86 4.53,122.69 -3,130.71 -6.49,6.9 -90.74,3.12 -95.82,2.12 -2.01,-28.98 4.37,-54.39 -18.99,-69.99 -19.09,-12.75 -14.08,0.76 -25.09,-21.34 -7.05,-14.18 -10.76,-11.59 -30.8,-11.59 -114.98,-0.02 -67.21,0.35 -91.67,20.46 -8.85,7.27 -26.68,7.05 -36.94,12.16 -29.7,14.78 -23.3,35.92 -27.81,71.36zm138.94 -202.66c-0.19,21.48 -0.15,34.09 -22.12,34.73 -25.51,0.72 -24.44,-12.38 -23.75,-36.24l45.87 1.51zm7.12 -1.2l35.27 -0.21c-0.47,28.25 -12.64,37.11 -38.83,35.57l3.56 -35.36zm-60.02 1.27c-0.36,15.98 2.27,22.05 4.26,34.32 -27.19,0.15 -38.75,-7.72 -39.74,-35.96l35.48 1.64zm89.25 33.26c8.24,-3.5 12.15,-18.01 13.39,-34.61l34.68 -0.17c-4.01,24.58 -20.13,39.37 -48.07,34.78zm-134.37 -34.17c5.78,11.55 -2.61,1.09 15.16,34.91 -28.96,1.61 -42.61,-9.34 -47.59,-35.15l32.43 0.24zm-135.73 253.57l7.73 1.31 34.71 -0.6 7.47 -1.95 120.25 1.25 1.05 78.25c-6.1,6.59 -2.86,5.46 -28.9,5.1l-93.78 0.7 126.63 -0.41c0.54,-17.6 -4.21,-69.81 3.55,-83.94l44.5 2.11 0.4 158.36 46.22 -0.38c3.05,-34.73 -5.11,-137.61 3.43,-160.61l172.32 0.68 7.77 0.62 34.98 -1.12 8.3 -1.81 20.03 2.01 0.34 -233.03c0,-24.06 5.7,-54.27 -10.87,-67.49 -7.34,-4.2 -178.55,-4.12 -188.1,-1.79 -8.66,2.11 -2.03,-0.79 -6.75,3.28 25.65,14.07 175.01,-8.21 193.11,7.45 12.01,12.15 5.55,100.91 5.55,124.55 0,18.98 6.4,110.43 -7.32,118.44 -2.82,1.74 -1.44,2.08 -7.31,3.3 -1.81,0.37 -7.51,0.47 -9.59,0.51l-56.73 -0.73c0.04,-11.88 -1.42,-69.33 4.38,-79.47l40.84 -1.11 -0.28 -80.39 -41.32 -0.59c-2.65,-26.08 3.87,-31.84 -7.68,-51.09 -21.06,-5.14 -379.56,-4.13 -399.46,0.64 -6.58,20.09 -6.44,180.24 -2.71,209.54 -38.81,5.12 -37.36,-1.16 -36.97,-36.52 0.44,-39.85 -6.13,-195.7 5.82,-206.97 16.36,-14.92 255.98,6.11 283.03,-7.56 -4.21,-3.25 0.01,-1.43 -7.46,-3.36 -3.64,-0.94 -5.33,-0.94 -9.12,-1.15l-208.14 0.3c-18.85,0 -58.52,-6.8 -67.47,9.44 -4.64,8.41 -4.91,267.16 -3.01,293.31l20.56 0.92zm50.09 87.48l-1.56 -3.42 93.78 -0.7c26.04,0.36 22.8,1.49 28.9,-5.1l-121.55 -0.23 0.25 -79.27 -7.47 1.95 -0.3 151.86 -34.45 -0.44 0.04 -150.82 -7.73 -1.31 -0.07 160.59 49.65 -1.31 0.51 -71.8zm446.54 -89.92l-8.3 1.81 -0.19 153.46 -34.72 -0.95 -0.07 -151.39 -7.77 -0.62 0.45 160.41 49.47 -0.59 1.13 -162.13zm5.99 -46.58l-69.98 0.5 0.73 -76.89c-5.8,10.14 -4.34,67.59 -4.38,79.47l56.73 0.73c2.08,-0.04 7.78,-0.14 9.59,-0.51 5.87,-1.22 4.49,-1.56 7.31,-3.3zm-417.54 90.57c10.4,1.15 6.32,3.4 6.07,-6.07 -6.84,1.38 -4.91,-1.91 -6.07,6.07z"/>
 </g>
</svg>
