<?xml version="1.0" encoding="UTF-8"?>
<!DOCTYPE svg PUBLIC "-//W3C//DTD SVG 1.1//EN" "http://www.w3.org/Graphics/SVG/1.1/DTD/svg11.dtd">
<!-- Creator: CorelDRAW 2019 (64-Bit) -->
<svg xmlns="http://www.w3.org/2000/svg" xml:space="preserve" width="100%" height="100%" version="1.1" style="shape-rendering:geometricPrecision; text-rendering:geometricPrecision; image-rendering:optimizeQuality; fill-rule:evenodd; clip-rule:evenodd"
viewBox="0 0 845.44 719.68"
 xmlns:xlink="http://www.w3.org/1999/xlink">
 <defs>
  <style type="text/css">
   <![CDATA[
    .fil0 {fill:white}
   ]]>
  </style>
 </defs>
 <g id="Layer_x0020_1">
  <metadata id="CorelCorpID_0Corel-Layer"/>
  <path class="fil0" d="M370.18 555.01c12.12,-4.05 16.88,13.91 6.72,17.87 -12.19,4.76 -19.02,-13.75 -6.72,-17.87zm-12.15 9.46c3.35,0.37 2.97,-0.46 0.6,5.13 9.36,11.45 5.46,4.01 11.86,6.77 -0.23,3.21 0.02,3.32 -2.56,4.44 -1.8,0.78 -2.76,0.61 -4.43,0.05 -2.72,-0.91 -4.65,-4.36 -5.87,-5.82 -1.54,-1.82 -10.17,-5.35 -6.15,-12.52 6.38,1.55 -2.9,0.89 6.55,1.95zm445.6 -369.36c-0.86,-3.35 -1.03,-7.16 -0.77,-10.66 0.43,-5.78 0.8,-3.83 5.45,-4.86 3.6,-0.8 4.61,-2.32 8.94,-1.1l8.34 2.57 -0.31 13.37 -11.27 1.48c-3.07,0.03 -7.4,-0.2 -10.38,-0.8zm-535.1 -90.95c-0.19,0.14 -0.49,0.24 -0.63,0.3l33.81 3.77c7.36,-1.98 79.57,2.7 93.41,3.22 3.17,0.12 89.32,2.69 92.78,4.56 -18.45,10.22 -24.98,10.65 -46.87,25.36 -7.57,5.1 -13.84,9.66 -20.79,14.88 -3.84,2.88 -17.65,15.25 -19.52,15.91 -4.72,1.68 -58.43,3.61 -68.13,4.14 -4.16,0.23 -62.9,2.66 -67.02,4.7l119.31 6.75c-0.63,1.8 -9.95,11.72 -11.86,13.97 -15.24,18.01 -20.41,27.34 -33.07,46.93 -33.86,2.8 -79.03,4.71 -115.03,6.64 -3.58,0.19 -12.44,0.11 -15.6,1.52 3.38,1.58 27.35,2.26 30.79,2.43 10.21,0.51 20.3,1.28 30.55,1.78 19.95,0.98 40.81,1.96 60.52,3.58 -2.09,7.29 -20.85,43.1 -20.35,55.57 1.08,6.16 2.28,2.87 7.94,4.57 1.95,4.22 1.79,11.14 0.31,14.73 -5.6,1.57 -15.79,1.41 -21.8,-0.46l0.15 -12.2c-14.71,0.96 -113.29,5.02 -118.09,7.55l125.28 7.07c-0.44,8.37 -3.01,18.75 -4.02,27.63 -0.86,7.59 -0.83,22.56 -2.32,28.86l-217.09 10.53c5.38,2.68 20.36,1.82 27.9,2.13l81.05 3.97c36.28,1.6 72.49,3.37 108.78,5.27 0.87,10.43 1.5,19.87 2.97,30.15 1.28,8.96 3.9,18.66 4.88,27.05 -36.47,2.45 -75.55,2.29 -112.3,4.16 -7.97,0.41 -31.08,2.15 -37.42,0.8 -3.83,2.11 -17.29,1.34 -22.95,1.49l-40.12 2.01 217.53 8.25c4.46,20.15 23.39,57.38 23.56,59.32 -16.78,1.46 -35.33,1.42 -52.21,2.01l-154.08 5.77c-3.11,0.67 -1,0.11 -2.19,0.88l213.31 7.76c6.92,0.12 4.87,-0.03 8.17,4.44 1.87,2.54 2.43,3.44 4.28,6.46 2.52,4.13 7.41,9.22 8.88,13.83 1.9,0.87 11.79,13.73 14.15,16.54 2.73,3.27 4.62,5.14 7.62,8.41 1.84,1.99 6.01,5.87 6.64,7.98l-64.6 1.63 -35.83 0.88c-18.76,1.56 -79.12,2.23 -101.79,2.68 -12.68,0.25 -99.18,1.48 -103.48,3.22 5.08,2.01 157.52,3.99 179.31,5.14l22.28 0.47 109.62 2.92c22.05,0.53 11.05,0.22 37.83,18.71l34.7 22.02 -226.12 7.2 -21.08 0.61c-36.31,2.02 -73.9,2.14 -110.52,3.51 -18.51,0.69 -36.77,1.17 -55.25,1.78l-51.69 1.78c-0.29,0.04 -0.54,0.1 -0.81,0.14 -0.25,0.05 -0.56,0.15 -0.76,0.19l-1.45 0.48c118.3,3.32 236.28,6.78 354.25,11.21 19.95,0.75 210.83,7.77 222.7,6.68 12.05,-1.11 30.6,1.71 44.56,1.24 19.74,-0.66 42.07,-3.19 61.27,-7.61 5.15,-1.19 13.73,-4.1 18.18,-3.93l3.13 -2.14c-1.81,-4.26 -4.4,-10.33 -6.83,-15.77 -5.39,0.15 -13.88,2.3 -19.83,3.11 -46.97,6.39 -97.46,-1.45 -140.8,-17.46 -23.52,-8.69 -42.88,-18.74 -61.89,-30.77 -9.47,-5.98 -19.2,-12.92 -27,-19.33l-23.98 -21.48c-20.01,-20.44 -26.4,-29.98 -41.37,-51.37l-16 -30.24c-4.83,-10.85 -9.16,-20.94 -12.81,-32.67 -16.7,-53.66 -18.05,-106.46 -2.56,-161.42 24.71,-87.71 97.32,-160.48 184.39,-185.41 52.12,-14.92 110.96,-15.92 162.87,-0.55 35.47,10.51 63.37,26.51 90.02,49.05 9.21,7.79 16.79,17.04 23.23,22.54l27.31 -17.64c2.68,-1.35 4.78,-2.55 6.6,-4.77 -2.04,-3.86 -17.21,-18.32 -21.55,-22.35 -58.18,-54.1 -140.36,-82.08 -223.56,-78.92 -54.66,2.07 -110.48,5.01 -165.08,7.41 -19.9,0.87 -159.71,7.82 -166.72,6.26zm465.59 167.52c-2.06,3.76 -17.29,15.73 -20.84,18.97l-42.02 36.41c-3.06,2.43 -7.93,6.37 -10.47,9.14 -2.85,3.1 -1.74,1.85 -5.34,4.46 -3.2,2.34 -2.11,2.76 -5.9,4.37 -1.4,2.62 -6.67,6.27 -8.95,8.39 -8.48,7.89 -4.06,2.36 -12.74,3.19l-3.75 -1.38c2.09,11.3 -4.33,14.43 -14.52,12.43 0.68,10.3 -2.01,9.9 -8.1,13.91 2.01,1.81 0.02,0.44 1.99,1.24 3.76,-0.58 15.23,-7.66 25.31,3.95 15.39,17.73 -8.97,42.22 -26.88,26.87 -12.11,-10.39 -3.65,-23.06 -3.57,-25.78 1.9,-4.88 -8.56,-7.28 -8.12,-16.03 0.44,-8.89 8.06,-10.73 15.75,-8.68l-0.15 -8.17 -4.92 1.04c-10.56,0.58 -26.07,16.25 -28.22,25.62 0.77,4.51 2.18,2.6 3.69,5.74 -0.17,-8.63 2.7,-13.98 12.22,-13.19l-1.12 14.35c3.92,-1.41 3.7,-3.68 6.32,-6.28 4.02,7.51 -2.57,12.59 -13.44,10.33 0.61,5.88 -0.02,10.51 -6.03,13.04 -4.39,1.84 -3.18,-0.6 -4.09,2.54 -0.22,5.27 2.33,6.81 2.22,11.73l-31.33 30.86c1.44,3.71 18.8,20.72 21.83,21.81l30.93 -31.31c5.46,-0.1 12.48,3.92 22.29,3.61 20.38,-0.65 38.57,-15.17 42.99,-36.25 4.66,-22.28 -6.64,-26.38 -1.94,-32.26 1.88,-2.35 4.34,-4.58 6.37,-7.07l48.91 -56.26c14.92,-16.65 35.23,-41.63 49,-56.16 4.14,-4.38 7.94,-9.58 11.98,-13.84 2.86,-3.01 10.71,-11.62 12.16,-14.66 -4.14,2.4 -9.24,7.64 -12.66,10.59 -6.05,5.2 -36.49,31.96 -38.86,32.73zm-161.37 -233.2c0.62,5.6 4.56,5.61 10.41,5.59l46.37 -0.03c16.17,-0.05 23.76,2.55 24.36,-7.27 0.34,-5.47 0.63,-26.62 -0.13,-31.27 -0.91,-5.53 -4.88,-5.51 -10.84,-5.46l-62.47 -0.04c-5.75,0.17 -7.56,1.57 -7.79,7.28 -0.3,7.55 -0.69,24.17 0.09,31.2zm20.38 45.53l40.42 0.04 0.03 -34.3 -40.54 0.14 0.09 34.12zm1.99 291.09c-2.53,-10.48 7.7,-10.54 9.82,-6.31 2.68,5.31 -2.66,11.37 -9.82,6.31zm22.58 -20.91l0 0zm-16.8 1.82l4.92 -1.04 0.15 8.17c-7.69,-2.05 -15.31,-0.21 -15.75,8.68 -0.44,8.75 10.02,11.15 8.12,16.03 2.4,-1.63 3.72,-2.8 5.14,-5.04 -1.97,-0.8 0.02,0.57 -1.99,-1.24 6.09,-4.01 8.78,-3.61 8.1,-13.91 10.19,2 16.61,-1.13 14.52,-12.43l3.75 1.38c-1.3,-2.69 -0.12,-1.71 -3.89,-2.49 -2,-0.42 -4.4,-0.15 -6.27,0.07 -2.06,-1.37 -9.81,-0.62 -12.83,-0.06l-3.97 1.88zm-205.23 180.1c4.38,-0.76 24.36,-12.64 28.11,-15.53 -0.67,-3.56 -3.01,-6.19 -4.2,-9.32 -4.1,0.66 -24.21,12.52 -28.16,15.56 0.71,3.5 3.2,6.34 4.25,9.29zm95.59 91.11c2.86,-3.59 14.96,-24 15.66,-28.54 -3.28,-1.14 -5.69,-3.63 -9.29,-4.23 -2.91,4.13 -14.7,24.06 -15.42,27.88l9.05 4.89zm81.42 -245.59c-1.49,1.84 -0.41,-0.04 -1.57,3.03 -0.3,0.81 -0.56,1.81 -0.81,2.71 -0.8,2.8 -1.07,3.51 -1.38,6.39l1.55 -2.83c3.09,0.64 3.6,1.45 5.44,2.96l0.03 4.66c-2.43,2.53 -2.67,3.31 -7.16,3.05l1.45 6.56c0.91,-3.14 -0.3,-0.7 4.09,-2.54 6.01,-2.53 6.64,-7.16 6.03,-13.04 10.87,2.26 17.46,-2.82 13.44,-10.33 -2.62,2.6 -2.4,4.87 -6.32,6.28l1.12 -14.35c-9.52,-0.79 -12.39,4.56 -12.22,13.19 -1.51,-3.14 -2.92,-1.23 -3.69,-5.74zm-181.46 -97.91c8.32,2.62 20.56,13.31 28.11,15.07l4.79 -8.94 -3.28 -2.65c-4.75,-2.93 -22,-13.02 -24.86,-13.5 -1.57,3.5 -3.8,5.91 -4.76,10.02zm94.96 -86.97l11.45 18.93c2.51,-0.75 7.75,-3.81 9.59,-5.25 -3.45,-8.74 -12.13,-19.24 -15.22,-27.7l-9.81 4.91c1.05,4.36 2.65,5.24 3.99,9.11zm317.45 -1.64c2.98,0.6 7.31,0.83 10.38,0.8l11.27 -1.48 0.31 -13.37 -8.34 -2.57c-4.33,-1.22 -5.34,0.3 -8.94,1.1 -4.65,1.03 -5.02,-0.92 -5.45,4.86 -0.26,3.5 -0.09,7.31 0.77,10.66zm-195.89 -11.46l10.95 -0.02 0.39 -32.3 -11.25 -0.05 -0.09 32.37zm111.54 26.6l9.1 5.51c3.75,-2.81 5.71,-8.73 8.29,-13.15 2.38,-4.09 6.77,-10.52 7.88,-14.42l-8.87 -5.44 -16.4 27.5zm-111.25 448.29l10.82 -0.04 0.01 -32.2 -11.14 -0.01 0.31 32.25zm-247.99 -247.96l31.95 -0.2 0.11 -10.93 -32.37 0.24 0.31 10.89zm-62.61 -83.77l-0.15 12.2c6.01,1.87 16.2,2.03 21.8,0.46 1.48,-3.59 1.64,-10.51 -0.31,-14.73 -5.66,-1.7 -6.86,1.59 -7.94,-4.57l-2.37 5.9 -11.03 0.74zm80.25 233.35c2.74,10 -5.65,11.35 -8.85,7.21 -3.7,-4.78 0.25,-11 8.85,-7.21zm-7.5 -5.15c-12.3,4.12 -5.47,22.63 6.72,17.87 10.16,-3.96 5.4,-21.92 -6.72,-17.87zm0.31 21.36c-6.4,-2.76 -2.5,4.68 -11.86,-6.77 2.37,-5.59 2.75,-4.76 -0.6,-5.13 -9.45,-1.06 -0.17,-0.4 -6.55,-1.95 -4.02,7.17 4.61,10.7 6.15,12.52 1.22,1.46 3.15,4.91 5.87,5.82 1.67,0.56 2.63,0.73 4.43,-0.05 2.58,-1.12 2.33,-1.23 2.56,-4.44zm224.63 -201.27c7.16,5.06 12.5,-1 9.82,-6.31 -2.12,-4.23 -12.35,-4.17 -9.82,6.31zm-217.44 185.06c-8.6,-3.79 -12.55,2.43 -8.85,7.21 3.2,4.14 11.59,2.79 8.85,-7.21zm191.24 -166.4l-0.14 7.84c4.49,0.26 4.73,-0.52 7.16,-3.05l-0.03 -4.66c-1.84,-1.51 -2.35,-2.32 -5.44,-2.96l-1.55 2.83zm48.78 -39.57l0 0z"/>
 </g>
</svg>
