<?xml version="1.0" encoding="UTF-8"?>
<!DOCTYPE svg PUBLIC "-//W3C//DTD SVG 1.1//EN" "http://www.w3.org/Graphics/SVG/1.1/DTD/svg11.dtd">
<!-- Creator: CorelDRAW 2019 (64-Bit) -->
<svg xmlns="http://www.w3.org/2000/svg" xml:space="preserve" width="100%" height="100%" version="1.1" style="shape-rendering:geometricPrecision; text-rendering:geometricPrecision; image-rendering:optimizeQuality; fill-rule:evenodd; clip-rule:evenodd"
viewBox="0 0 724.12 719.68"
 xmlns:xlink="http://www.w3.org/1999/xlink">
 <defs>
  <style type="text/css">
   <![CDATA[
    .fil0 {fill:white}
   ]]>
  </style>
 </defs>
 <g id="Layer_x0020_1">
  <metadata id="CorelCorpID_0Corel-Layer"/>
  <path class="fil0" d="M723.6 714.42l0.52 -493.97 -135.8 -1.82 -0.01 497.05 135.29 -1.26zm-526.63 3.16l14.01 0.03 109.2 -0.01 14.68 0.11 -0.35 -421.57 -137.09 0.03 -0.46 12.89 0.01 408.52zm125.85 -567.17c0.23,-36.38 -9.19,-60.04 -39.37,-69.36 -32.36,-9.99 -60.35,9.65 -70.16,31.84 -8.39,19.01 -0.52,32.17 -3.53,43 -2.23,8.06 -19.94,19.39 -29.05,26.92 -20.53,16.96 -40.03,32.22 -60.11,49.15 -15.65,13.19 -10.98,14.93 -32.31,8.24 -49.59,-15.55 -90.93,38.02 -67.99,80.93 27.88,52.15 120.67,41.07 104.98,-48.78l108.87 -87.09c16.61,4.84 30.75,12.02 49.82,4.96 25.23,-9.36 13.38,-16.96 41.58,0.96 17.11,10.88 61.23,38.27 78.28,44.38 -2.89,109 126.1,81.36 112.9,5.32 -5.13,-29.56 -5.62,-16.56 46.92,-68.88 19.67,-19.59 43.6,-45.36 64.26,-62.41 95.97,21.41 103.8,-75.61 56.65,-101.86 -42.85,-23.87 -95.98,10.6 -85.05,62.21 4.65,21.91 1.03,17.37 -13.62,31.64l-81.93 80.24c-18.19,18.05 -8.37,17.04 -32.28,12.54 -23.55,-4.43 -25.78,1.37 -42.78,8.6 -19.33,8.23 -64.75,-37.07 -106.08,-52.55zm68.72 567.24l137.92 -0.03 -0.02 -302.67 0.03 -4.77 -137.92 -0.1 -0.01 307.57zm-387.41 -4.89l18.24 0.2 99.27 0 15.98 0.11 -0.14 -256.94 -15.83 0.69 -82.73 -0.12 -16.55 0.05 -18.24 -0.1 0 256.11zm0 -256.11l18.24 0.1 16.55 -0.05 82.73 0.12 15.83 -0.69 0.14 256.94 -15.98 -0.11 -99.27 0 -18.24 -0.2 0 -256.11zm-1.97 -2.32c-2.45,30.09 -3.81,245.93 1.52,263.88l137.46 -0.75 -0.46 -263.58 -138.52 0.45zm721.44 260.09l-135.29 1.26 0.01 -497.05 135.8 1.82c-4.38,-4.57 0.96,-2.17 -7.01,-4.47 -1.62,-0.47 -7.63,-0.69 -9.57,-0.75l-122.54 2.27 1.59 500.18c17.29,3.08 81.67,1.09 107.51,1.29 24.4,0.2 24.96,3.11 29.5,-4.55z"/>
 </g>
</svg>
