<?xml version="1.0" encoding="UTF-8"?>
<!DOCTYPE svg PUBLIC "-//W3C//DTD SVG 1.1//EN" "http://www.w3.org/Graphics/SVG/1.1/DTD/svg11.dtd">
<!-- Creator: CorelDRAW 2019 (64-Bit) -->
<svg xmlns="http://www.w3.org/2000/svg" xml:space="preserve" width="100%" height="100%" version="1.1" style="shape-rendering:geometricPrecision; text-rendering:geometricPrecision; image-rendering:optimizeQuality; fill-rule:evenodd; clip-rule:evenodd"
viewBox="0 0 969.64 719.66"
 xmlns:xlink="http://www.w3.org/1999/xlink">
 <defs>
  <style type="text/css">
   <![CDATA[
    .fil0 {fill:white}
   ]]>
  </style>
 </defs>
 <g id="Layer_x0020_1">
  <metadata id="CorelCorpID_0Corel-Layer"/>
  <path class="fil0" d="M455.34 542.59l17.82 17.69c-1.15,18.29 -11.53,55.9 -21.36,70.67 -23.51,-18.59 -35.93,-62.99 -57.37,-80.87 -37.5,-7.44 -88.26,29.09 -106,46.91 -17.06,17.13 -47.98,81.69 -27.14,113.33 10.21,12.9 22.35,8.74 49.89,8.57l347.41 0c8.65,0.04 21,0.72 29.19,0.18 8.46,-0.56 6.35,0.21 13.98,-2.62 19.18,-7.12 32.78,-99.06 -63.58,-150.77 -31.43,-16.87 -55.95,-31.49 -76.79,2.51 -6.97,11.37 -12.47,20.17 -20.7,33.01 -12.2,19.02 -9.22,21.63 -24.07,30.82 -29.11,-106.23 -20.15,-47.98 -2.61,-92.33l-58.67 2.9zm-72.2 -154.37c13.29,164.72 190.12,165.27 204.13,-0.31 13.98,-165.32 -217.58,-166.3 -204.13,0.31zm-97.95 49.62c21.76,-140.2 -181.59,-154.48 -175.62,-12.6 5.76,136.66 152.35,162.59 175.62,12.6zm572.69 8.27c26.7,-152.45 -173.28,-158.67 -174.35,-28.98 -1.17,142.07 149.58,170.34 174.35,28.98zm-32.05 166.16c10.66,12.43 4.31,5.87 2.18,5.55l45.6 -2.16 0 66.17 -49.63 0c0,-11.55 1.37,-20.52 -2.24,-29.76 -4.55,-11.66 -7.26,-8.74 -15.1,-11.62 -13.39,-1.86 -5.37,6.22 -12.91,-14.83 -20.27,-56.69 -3.24,-35.29 1.25,-62.7l-45.76 -0.1c4.29,22.91 16.31,4.23 10.02,33.17 -10.35,47.61 -17.07,13.79 -6.76,120.17 31.95,3.24 75.44,0.82 108.72,0.84 87.13,0.03 123.81,16.31 102.55,-63.37 -17.26,-64.66 -97.42,-90.03 -111.92,-82.91 -6.21,6.66 -10.8,11.42 -16.35,19.25l-9.65 22.3zm-788.99 -3.92l42.78 7.31 0 82.71 -49.62 0c0,-67.44 2.78,-42.39 -20.78,-50.56 -1.18,1.65 -28.4,66.87 16.64,69.54l191.6 -0.95c14.78,-90.69 -5.2,-101.64 -7.83,-123.41 -3.18,-26.22 6.64,-7.55 10.96,-30.17l-45.78 0.05c4.47,27.1 17.53,3.02 9.19,36.8 -3.63,14.7 -9.38,27.13 -12.2,42.29 -17.28,-10.59 -34.75,-51.25 -53.93,-71.16 -26.05,-2.8 -75.36,21.24 -81.03,37.55zm391.36 -437.2c4.92,4.88 -3.85,8.98 15.76,3.1 7.36,-2.21 29.17,-19.68 41.22,-20.04 16.67,-0.5 43.38,27.82 55.61,20.81 15,-8.59 -8.14,-44.94 1.28,-64.46 7.76,-16.1 32.29,-20.46 36.26,-43.95 -18.24,-15.05 -48.56,-4.86 -62.37,-19.57 -14.33,-15.28 -9.26,-39.09 -31.07,-47.04 -12.3,6.45 -25.8,39.91 -32.08,53.05 -18.94,2.22 -44.36,1.69 -59.04,12.61 2.04,17.21 26.78,35.36 38.16,43.95 0.1,17.31 -11.77,50.77 -3.73,61.54zm215.95 53.77c23.15,7.52 28.23,-13.68 47.34,-13.35 10.93,0.19 26.35,14.21 47.45,17 -0.08,-17.77 -9.26,-41.95 -1.78,-55.26 6.63,-11.83 22.04,-14.75 27.2,-32.01 -16.41,-11.38 -35.54,-4.57 -47.57,-13.97 -9.75,-7.62 -8.73,-24.88 -25.14,-38.75 -11.71,7.95 -8.84,6.89 -15.13,19.99 -2.34,4.89 -2.89,6.99 -5.36,11.2 -0.45,0.77 -1.2,1.92 -1.62,2.6l-51.44 17.71c5.96,13.9 -0.88,7.14 12.51,19.67 33.82,31.64 11.79,24.19 13.54,65.17zm-431.31 -84.92c6.27,14.12 -1.12,7.03 12.51,19.74 33.33,31.1 12.03,24.61 13.52,65.06 23.37,8.18 27.53,-13.43 47.37,-13.2 11.74,0.14 27.27,14.18 47.36,16.93 0.2,-18.15 -9.56,-41.69 -1.57,-55.01 7.73,-12.88 22.04,-14.23 27.22,-32.39 -16.41,-10.81 -35.07,-4.22 -47.75,-13.87 -10.52,-8 -9.77,-26.13 -25.11,-38.7 -11.58,8 -8.83,7.03 -15.16,20.01 -13.75,28.23 -6.29,20.37 -58.39,31.43zm-203.62 507.81c23.56,8.17 20.78,-16.88 20.78,50.56l49.62 0 0 -82.71 -42.78 -7.31c-16.38,9.06 -22.24,16.25 -27.62,39.46zm797.42 -7.36c7.84,2.88 10.55,-0.04 15.1,11.62 3.61,9.24 2.24,18.21 2.24,29.76l49.63 0 0 -66.17 -45.6 2.16c2.13,0.32 8.48,6.88 -2.18,-5.55 -11.47,7.68 -13.45,14.11 -19.19,28.18z"/>
 </g>
</svg>
