<?xml version="1.0" encoding="UTF-8"?>
<!DOCTYPE svg PUBLIC "-//W3C//DTD SVG 1.1//EN" "http://www.w3.org/Graphics/SVG/1.1/DTD/svg11.dtd">
<!-- Creator: CorelDRAW 2019 (64-Bit) -->
<svg xmlns="http://www.w3.org/2000/svg" xml:space="preserve" width="100%" height="100%" version="1.1" style="shape-rendering:geometricPrecision; text-rendering:geometricPrecision; image-rendering:optimizeQuality; fill-rule:evenodd; clip-rule:evenodd"
viewBox="0 0 372.73 465.68"
 xmlns:xlink="http://www.w3.org/1999/xlink">
 <defs>
  <style type="text/css">
   <![CDATA[
    .fil0 {fill:#A6A182}
   ]]>
  </style>
 </defs>
 <g id="Layer_x0020_1">
  <metadata id="CorelCorpID_0Corel-Layer"/>
  <path class="fil0" d="M184.49 25.62l5.32 304.27 -105.52 -0.05 0.72 -199c22.15,-0.16 77.8,2.71 95.64,-1.25 1.62,-5.32 3.48,-59.95 -0.97,-65.63 -2.38,9.38 -1.18,21.16 -1.17,31.35 0,5.74 0.1,11.49 0.12,17.22l-2.27 17.18c1.12,-5.72 4.14,-47.64 1.92,-55.98 -2.06,-7.79 0.62,-3.56 -3.99,-7.18l0.47 57.13 -95.66 0.6c-5.69,10.67 -2.43,101.89 -2.31,130.86l-67.2 0.1c7.37,6.08 24.26,3.49 33.44,3.48 12.18,0 24.38,-0.01 36.54,0.01 -9.73,0.02 -61.89,-3.23 -69.98,3.56l67.28 0.11c-0.26,16.24 -0.03,32.1 -0.12,47.95 -0.12,22.49 -0.11,23.07 10.68,37.23 29.43,38.61 -8.23,47.04 -9.95,65.93l225.56 0.75c-1.27,-19.26 -39.33,-27.97 -9.83,-66.68 10.8,-14.16 10.8,-14.74 10.68,-37.23 -0.09,-15.85 0.14,-31.71 -0.11,-47.56l67.27 -0.5c-2.58,-2.17 -1.18,-2.07 -7.54,-3.38 -5.26,-1.08 -55.83,-0.49 -62.44,1.96l4.18 -1.24c20.69,-3.92 56.04,3.67 65.8,-4.39l-67.27 -0.49c0.18,-11.27 2.71,-119.33 -2.24,-131.05l-95.7 -0.02 0.44 -57.13c-1.48,0.8 -4.01,-2.46 -4.43,13.57 -0.13,5.24 0.31,11.84 0.31,17.34 -0.01,13.86 -0.12,20.81 2.13,32.25 -3.67,-8.83 -2.16,-22.67 -2.15,-32.25 0.01,-10.9 1.33,-23.49 -1.18,-33.61 -4.44,5.76 -2.56,60.48 -0.96,65.74 17.83,3.96 73.48,1.09 96.29,1.25l0.13 199.04 -105.06 0.02 4.52 -282.35 0.76 -47.45 -12.49 -0.1 0.34 25.62zm188.24 40.77c-3.94,-5.38 2.4,-5.08 -21.85,-4.64l-135.55 -0.02c-23.71,-0.36 -17.49,0.09 -18.33,3.31 2.51,10.12 1.19,22.71 1.18,33.61 -0.01,9.58 -1.52,23.42 2.15,32.25 -2.25,-11.44 -2.14,-18.39 -2.13,-32.25 0,-5.5 -0.44,-12.1 -0.3,-17.34 0.41,-16.04 2.95,-12.77 4.42,-13.57 20.89,5.1 133.79,1.69 163.76,1.33l1.02 187.36c-9.77,8.06 -45.12,0.47 -65.81,4.39l-4.18 1.24c6.61,-2.45 57.18,-3.04 62.45,-1.96 6.35,1.31 4.96,1.21 7.54,3.38l-1.19 198.11 -359.27 0.11 -1.01 -198.22c8.09,-6.79 60.25,-3.54 69.99,-3.56 -12.17,-0.02 -24.37,-0.01 -36.55,-0.01 -9.17,0.01 -26.07,2.6 -33.44,-3.48l1.29 -187.36c29.3,0.36 143.07,3.71 163.41,-1.33 4.61,3.62 1.93,-0.61 4,7.18 2.21,8.34 -0.81,50.26 -1.93,55.98l2.27 -17.19c-0.01,-5.72 -0.12,-11.47 -0.12,-17.21 -0.01,-10.2 -1.2,-21.97 1.18,-31.36 -1.41,-2.47 1.95,-2.74 -9.56,-3.56 -2.33,-0.17 -8.23,0.15 -10.95,0.19 -7.17,0.09 -14.37,0.03 -21.54,0.03l-114 -0.09c-22.06,-0.48 -17.32,0.02 -19.68,4.68 4.15,2.22 2.33,8.75 2.29,21.5l-0.12 377.79 368.39 0c0.63,-66.96 -1.23,-134.52 0.19,-201.46 0.7,-33.01 -0.29,-67.75 -0.29,-101.06 0,-4.03 -2.39,-96.75 2.27,-96.77zm-32.54 377.53c0.97,-6.3 1.1,-6.07 6.03,-8.44 4.88,2.39 5.02,2.18 5.81,8.18l-5.49 4.57 -6.35 -4.31zm-5.36 -12c-2.06,8.07 -2.09,11.04 0,19.11 11.26,5.47 11.46,5.41 22.77,0 1.91,-7.4 1.89,-11.73 -0.07,-19.04 -6.3,-3.07 -16.41,-5.57 -22.7,-0.07zm-298.25 3.56c4.88,2.39 5.03,2.18 5.99,8.42l-6.31 4.32 -5.51 -4.56c0.2,-6.02 1.25,-5.98 5.83,-8.18zm-11.39 -3.56c-2.06,8.07 -2.09,11.04 0,19.11 11.26,5.47 11.46,5.41 22.77,0 1.91,-7.4 1.91,-11.75 -0.07,-19.04 -6.29,-3.07 -16.4,-5.57 -22.7,-0.07zm16.72 -348.34c0.67,5.05 0.15,7.36 -1.76,11.22l-7.16 -0.27c-1.92,-3.61 -2.44,-5.95 -1.74,-11.22l10.66 0.27zm4.46 16.95c9.07,-19.13 -4.99,-31.63 -18.16,-22.34 -8.99,6.34 -9.39,30.11 18.16,22.34zm305.18 -16.95c0.67,5.05 0.15,7.36 -1.76,11.22l-7.16 -0.27c-1.92,-3.61 -2.45,-5.95 -1.75,-11.22l10.67 0.27zm4.46 16.95c9.07,-19.13 -5,-31.63 -18.17,-22.34 -8.98,6.34 -9.38,30.11 18.17,22.34z"/>
 </g>
</svg>
