<?xml version="1.0" encoding="UTF-8"?>
<!DOCTYPE svg PUBLIC "-//W3C//DTD SVG 1.1//EN" "http://www.w3.org/Graphics/SVG/1.1/DTD/svg11.dtd">
<!-- Creator: CorelDRAW 2019 (64-Bit) -->
<svg xmlns="http://www.w3.org/2000/svg" xml:space="preserve" width="100%" height="100%" version="1.1" style="shape-rendering:geometricPrecision; text-rendering:geometricPrecision; image-rendering:optimizeQuality; fill-rule:evenodd; clip-rule:evenodd"
viewBox="0 0 460.65 465.67"
 xmlns:xlink="http://www.w3.org/1999/xlink">
 <defs>
  <style type="text/css">
   <![CDATA[
    .fil0 {fill:#A6A182}
   ]]>
  </style>
 </defs>
 <g id="Layer_x0020_1">
  <metadata id="CorelCorpID_0Corel-Layer"/>
  <path class="fil0" d="M116.16 450.25c-1.96,-8.39 -6.78,-51.4 9.25,-51.4 12.27,0 10.6,8.8 23.45,0.84l86.09 -49.61c2.81,-1.7 4.38,-2.42 7.21,-4.1 5.23,-3.09 10.02,-5.98 14.88,-8.76l72.35 -41.75c5.02,-3.04 9.17,-5.52 14.3,-8.32 10.25,-5.59 19.29,-11.42 29.46,-16.8 0,11.38 2.05,19.46 2.05,30.84 -10.85,5.74 -21.49,11.92 -32.05,18.32 -30.25,18.31 -66.17,37.41 -97.15,56.02 -5.49,3.3 -10.29,5.89 -15.69,8.98 -5.42,3.1 -10.23,6.32 -16.14,9.55l-81.51 46.99c-3.76,2.15 -12.52,8.13 -16.5,9.2zm40.09 -149.06c-15.01,0 -7.43,-3.08 -16.45,-3.08 -2.4,0 -5.14,2.74 -5.14,5.14l0 84.29c-4.77,-0.11 -3.66,-1.03 -10.28,-1.03 -29.35,0 -21.58,46.73 -21.58,60.65 -3.65,-0.85 -8.33,-4.41 -11.91,-6.6l-79.58 -49.94 0 -217.93 83.45 48.13c13.91,8.43 27.8,15.64 41.76,24.03l36.57 21c6.48,3.37 4.75,0.78 4.75,23 0,2.46 -1.7,3.4 -3.46,4.77 -4.84,3.78 -11.38,7.57 -18.13,7.57zm-9.25 85.32l0 -74.01c8.22,0.68 13.17,2.45 26.06,-3.75 12.14,-5.83 5.47,-7.34 29.09,-20.25 28.17,-15.39 65.23,-37.71 93.85,-54.18l46.89 -27.12c16.49,-9.99 49.66,-27.53 63.15,-36.56l0 66.82c-4.9,3.28 -10.31,5.86 -15.62,9.05l-32.49 18.91c-35.68,21.39 -76.17,43.68 -112.68,65.15 -11.24,6.6 -21.4,12.28 -32.78,18.62 -8.06,4.48 -60.86,36.25 -65.47,37.32zm43.17 -104.85l0 -13.36c2.89,-0.78 5.45,-2.77 8.02,-4.32 2.76,-1.67 4.94,-2.78 7.84,-4.5l234.53 -135.53c2.85,-1.69 5.61,-3.9 8.65,-4.71l0 13.36c-4.01,1.08 -26.28,14.91 -32.21,18.15 -5.88,3.21 -10.72,6.05 -16.29,9.42l-112.83 65c-5.32,3.05 -10.45,6.31 -16.18,9.52 -25.12,14.03 -57.9,34.47 -81.53,46.97zm-6.17 -23.64c-2.3,0 -36.23,-20.44 -41.47,-23.3l-124.03 -71.28c3,-4.48 143.66,-84.78 160.68,-94.25 5.63,-3.14 10.85,-6.45 16.18,-9.52l56.68 -32.76c3.01,-1.83 5.33,-2.97 8.48,-4.88l16 -9.7c6.43,4.31 13.05,7.58 20.12,11.74l104.2 60.28c4.64,2.79 37.34,22.45 42.21,23.58 -2,2.73 -4.19,3.03 -7.4,4.94l-186.18 107.81c-5.7,3.43 -10.7,6.01 -16.32,9.38l-49.15 27.96zm-184 -94.58l0 229.24c0,7.02 14.69,13.17 25.08,20.15l84.91 52.84c6.94,0 10.74,-4.26 20.24,-9.57l155.11 -89.55c27.14,-15.96 82.88,-46.6 103.23,-60.22 0,-11.54 -3.09,-22.81 -3.09,-41.12 0,-3.94 15.85,-11.37 19.53,-13.36 15.73,-8.52 13.41,-6.46 13.37,-20.56 -0.07,-22.61 0,-45.23 0,-67.85l39.53 -23.17c3.3,-2.67 2.71,-4.29 2.66,-9.68 -0.08,-8.58 -0.05,-17.16 -0.05,-25.74l-102.34 -59.04c-4.07,-2.47 -7.88,-4.65 -11.76,-6.75 -11.02,-5.96 -65.58,-39.06 -68.87,-39.06 -3.99,0 -14.11,6.49 -17.93,8.8l-69.77 40.22c-39.38,21.91 -83.17,49.5 -122.36,70.89l-61.3 35.33c-3.15,1.75 -6.19,3.15 -6.19,8.2z"/>
 </g>
</svg>
