<?xml version="1.0" encoding="UTF-8"?>
<!DOCTYPE svg PUBLIC "-//W3C//DTD SVG 1.1//EN" "http://www.w3.org/Graphics/SVG/1.1/DTD/svg11.dtd">
<!-- Creator: CorelDRAW 2019 (64-Bit) -->
<svg xmlns="http://www.w3.org/2000/svg" xml:space="preserve" width="100%" height="100%" version="1.1" style="shape-rendering:geometricPrecision; text-rendering:geometricPrecision; image-rendering:optimizeQuality; fill-rule:evenodd; clip-rule:evenodd"
viewBox="0 0 540.49 465.67"
 xmlns:xlink="http://www.w3.org/1999/xlink">
 <defs>
  <style type="text/css">
   <![CDATA[
    .fil0 {fill:#A6A182}
   ]]>
  </style>
 </defs>
 <g id="Layer_x0020_1">
  <metadata id="CorelCorpID_0Corel-Layer"/>
  <g id="_1391119350656">
   <path class="fil0" d="M13.78 432.6l0 -13.78c48.77,0 99.35,0 148.8,0 0,15.62 -2.17,22.05 8.26,22.05l206.66 0c0,-33.77 -9.74,-21.09 134.96,-20.72 3.43,0 6.18,-1.16 13.83,-1.33 0,9.79 3.15,33.07 -13.77,33.07l-479.45 0c-12.86,0 -19.29,-6.43 -19.29,-19.29zm162.57 -13.78l187.37 0 0 8.27 -187.37 0 0 -8.27zm-101.95 -275.54l60.62 0 0 179.1c0,6.35 1.92,8.27 8.27,8.27l261.76 0 0 -187.37 60.62 0 0 225.95 -391.27 0 0 -225.95zm74.4 -129.51l242.48 0 0 303.1 -242.48 0 0 -303.1zm-88.18 366.48c29.94,6.97 352.47,2.75 410.56,2.75 6.35,0 8.27,-1.91 8.27,-8.26l0 -236.97c0,-6.35 -1.92,-8.27 -8.27,-8.27l-66.13 0 0 -24.8c47.55,0 99.2,-9.86 99.2,24.8l0 275.55 -468.42 0 0 -275.55c0,-34.66 51.65,-24.8 99.19,-24.8l0 24.8c-90.31,0 -74.4,-13.57 -74.4,55.11l0 195.64zm74.4 -371.99l0 82.67 -77.15 0c-16.9,0 -35.82,18.92 -35.82,35.82l0 278.3 -22.04 2.75c0,34.02 -1.5,57.87 33.06,57.87l479.45 0c33.54,0 27.55,-42.79 27.55,-57.87l-22.04 -2.75 0 -275.55c0,-51 -65.93,-38.57 -112.98,-38.57l0 -90.93 -261.76 0c-6.35,0 -8.27,1.91 -8.27,8.26z"/>
   <path class="fil0" d="M239.73 283.81l0 -46.85 41.35 -19.25 -0.02 49.56c-14.98,3.49 -23.31,12.34 -41.33,16.54zm-55.11 -63.38c16.18,1.35 25.7,12.89 41.33,16.53l0 49.6 -40.85 -20.26 -0.48 -45.87zm85.42 -11.02c-8.45,1.97 -9.82,3.67 -17.47,7.34 -36.48,17.48 -27.21,-0.42 -56.93,-7.34 6.5,-8.87 35.02,-18.33 36.22,-18.41 6.24,-0.42 13.35,4.63 18.88,7.38 8.34,4.15 14.38,4.32 19.3,11.03zm-99.2 0c0,84.36 -7.11,61.04 28.49,78.97 35.41,17.82 27.1,20.11 67.04,0.02 35.11,-17.66 28.47,-4.24 28.47,-78.99 0,-11.22 -60.61,-33.07 -60.62,-33.07 -4.28,0 -63.38,21.04 -63.38,33.07z"/>
   <path class="fil0" d="M198.4 57.86c12.46,-17.27 -5.7,7.75 27.55,0l0 -16.53 11.02 0c0,34.84 21.26,12.7 27.56,11.02l4.96 6.06c-5.16,7.97 -7.69,5.57 -10.47,15.98 5.81,9.85 5.34,8.27 22.04,8.27l0 11.02c-10.88,0 -11.18,0.87 -19.29,2.76 -1.7,20.4 -1.89,9.62 8.27,24.8l-6.06 4.95 -12.75 -10.98c-5.51,3.01 -3.93,2.64 -11.5,3.27 -1.89,8.11 -2.76,8.41 -2.76,19.29l-11.02 0c0,-24.82 1.06,-11.59 -2.76,-19.29 -13.93,-3.57 -11.76,1.38 -22.04,8.27l-4.96 -6.07c1.44,-6.16 22.9,-27 -11.57,-27l0 -11.02 16.53 0c6.58,-27.48 2.26,-8.39 -2.34,-21.37l-0.41 -3.43zm13.77 -16.53c-8.81,-5.9 -1.93,-4.53 -13.77,-5.51 -22.49,24.04 -22.66,19.81 -13.78,33.06 -7.44,0.62 -7.5,1.29 -13.78,2.76l0 33.06c7.32,3.51 2.95,2.52 13.78,2.76 -13.75,20.53 1.11,16.9 13.78,35.82 11.84,-0.99 4.96,0.39 13.77,-5.51 1.39,16.72 6.74,13.77 30.31,13.77 9.96,0 8.27,-6.95 8.27,-16.53 8,5.36 3.7,5.58 13.78,8.27l22.69 -21.4c-3.34,-10.72 -3.56,-6.42 -8.92,-14.42 18.86,0 16.54,1.64 16.54,-27.56 0,-9.04 -5.56,-10.33 -13.78,-11.02 5.9,-8.81 4.52,-1.93 5.51,-13.78 -18.92,-12.67 -15.28,-27.52 -35.82,-13.77 -0.24,-10.83 0.75,-6.47 -2.76,-13.78l-33.06 0c-1.46,6.28 -2.12,6.34 -2.76,13.78z"/>
   <path class="fil0" d="M220.44 90.93c0,-27.07 37.34,-9.47 20.83,7.04 -7.05,7.05 -20.83,3.11 -20.83,-7.04zm-13.78 -2.76c0,38.93 52.36,32.25 52.36,2.76 0,-36.85 -52.36,-35.73 -52.36,-2.76z"/>
   <path class="fil0" d="M303.1 118.48c8.56,12.78 13.85,8.27 52.36,8.27 7.44,0 7.59,-1.32 13.77,-2.76l0 -11.02c-15.66,-3.65 -56.44,-8.44 -66.13,5.51z"/>
   <path class="fil0" d="M303.1 93.68c10.27,5.77 52.03,2.76 66.13,2.76 -0.4,-18.19 1.19,-13.78 -55.11,-13.78 -8.13,0 -9.5,4.66 -11.02,11.02z"/>
   <path class="fil0" d="M303.1 234.21c10.27,5.77 52.03,2.75 66.13,2.75 -0.4,-18.18 1.19,-13.77 -55.11,-13.77 -8.13,0 -9.5,4.66 -11.02,11.02z"/>
   <path class="fil0" d="M303.1 143.28c4.35,16.3 13.52,11.02 57.87,11.02 9.16,0 8.07,-4.95 8.26,-13.78 -8.92,0 -62.06,-2.2 -66.13,2.76z"/>
   <path class="fil0" d="M303.1 283.81c4.35,16.29 13.52,11.02 57.87,11.02 9.16,0 8.07,-4.95 8.26,-13.78 -8.92,0 -62.06,-2.2 -66.13,2.76z"/>
   <path class="fil0" d="M303.1 206.65c9.95,5.59 44.68,2.76 57.87,2.76 7.62,0 6.62,-2.13 8.26,-8.27 -6.89,-9.41 -2.84,-5.28 -35.84,-5.54 -3.94,-0.03 -16.49,-0.58 -19.45,-0.15 -10.69,1.53 -7.63,-1.24 -10.84,11.2z"/>
   <path class="fil0" d="M303.1 66.13c9.95,5.59 44.68,2.75 57.87,2.75 7.62,0 6.62,-2.12 8.26,-8.26 -6.89,-9.41 -2.84,-5.29 -35.84,-5.55 -32.37,-0.25 -26.95,-1.93 -30.29,11.06z"/>
   <path class="fil0" d="M303.1 256.25c4.22,15.78 11.41,11.02 52.36,11.02 7.44,0 7.59,-1.31 13.77,-2.75l0 -11.02c-8.92,0 -62.06,-2.21 -66.13,2.75z"/>
   <path class="fil0" d="M303.1 30.31c2.84,12.15 -0.46,11.29 30.29,11.05 34.67,-0.27 32.48,4.28 35.84,-8.3 -3.22,-4.64 -0.39,-5.51 -8.26,-5.51 -8.13,0 -53.9,-2.09 -57.87,2.76z"/>
   <path class="fil0" d="M303.1 170.83c2.51,10.75 0.63,8.83 8.43,10.86l44.25 0.49c12.88,-0.69 10.59,2.12 13.45,-8.59 -3.22,-4.65 -0.39,-5.51 -8.26,-5.51 -8.13,0 -53.9,-2.09 -57.87,2.75z"/>
  </g>
 </g>
</svg>
