<?xml version="1.0" encoding="UTF-8"?>
<!DOCTYPE svg PUBLIC "-//W3C//DTD SVG 1.1//EN" "http://www.w3.org/Graphics/SVG/1.1/DTD/svg11.dtd">
<!-- Creator: CorelDRAW 2019 (64-Bit) -->
<svg xmlns="http://www.w3.org/2000/svg" xml:space="preserve" width="100%" height="100%" version="1.1" style="shape-rendering:geometricPrecision; text-rendering:geometricPrecision; image-rendering:optimizeQuality; fill-rule:evenodd; clip-rule:evenodd"
viewBox="0 0 383.82 465.66"
 xmlns:xlink="http://www.w3.org/1999/xlink">
 <defs>
  <style type="text/css">
   <![CDATA[
    .fil0 {fill:#A6A182}
   ]]>
  </style>
 </defs>
 <g id="Layer_x0020_1">
  <metadata id="CorelCorpID_0Corel-Layer"/>
  <g id="_2149878876672">
   <path class="fil0" d="M118.24 452.03l0 -438.39c14.71,0 45.82,3.16 62.81,4.49 14.12,1.11 33.29,1.54 47.49,3.44 4.27,0.58 12.31,1.12 16.12,1.17 18.16,0.25 43.75,4.05 62.77,4.53l63.66 4.56 0 392c-4.56,0 -11.13,1.32 -15.55,1.74l-47.37 5.38c-21.34,2.37 -41.83,4.17 -62.98,7.05 -10.89,1.49 -20.29,2 -31.18,3.38 -10.06,1.28 -21.02,2.34 -31.94,3.53l-63.83 7.12zm-6.32 -452.03l5.58 0c3.2,0.24 5.35,0.84 8.91,0.92l237.15 17.52c10.19,1.36 20.26,-1.16 20.26,7.93l0 402.92c0,9.03 -13.03,7.27 -29.75,9.36 -45.72,5.72 -95.05,9.71 -138.9,15.72 -5.99,0.82 -12.12,1.25 -17.17,1.93l-52.39 5.82c-5.52,0.52 -11.1,1.23 -17.2,1.89 -25.73,2.82 -15.93,2.26 -24.18,-3.43 -2.24,-1.54 -4.71,-2.32 -7.2,-3.71l-70.65 -39.41c-4.24,-2.19 -26.38,-13.08 -26.38,-17.27l0 -356.54c0,-6.92 8.64,-7.88 18.07,-11.03 6.84,-2.28 14.32,-4.76 21.16,-7.04 14.32,-4.77 27.79,-9.27 42.28,-14.1 7.69,-2.57 14.24,-4.56 21.87,-7.24 6.1,-2.14 3.33,-3.81 8.54,-4.24zm-99.19 48.2l91.73 -30.41 0.14 427.87c-3.25,-0.75 -18.57,-10.04 -23.04,-12.43l-45.7 -25.24c-3.42,-2.04 -19.51,-11.51 -23.13,-12.35l0 -347.44z"/>
   <path class="fil0" d="M167.35 336.52l-5.45 0 0 -53.66c0,-4.75 5.65,-1.56 10,-3.64l0 56.39c-2.04,0.47 -2.09,0.91 -4.55,0.91zm34.56 -63.67l0 -9.09c5.45,-0.46 20.05,-7.41 27.29,-9.1l0 17.28 -27.29 0.91zm30.93 -0.91l0 -17.28c4.92,1.15 8.99,3.03 13.53,4.66 3.25,1.17 10.27,4.15 13.75,4.44l0 7.27 -17.28 0c-5.05,0 -5.39,0.91 -10,0.91zm0 -25.46c6.95,1.61 14.56,5.15 22.45,7.56 4.42,1.36 4.83,0.62 4.83,6.08 -3.78,-0.32 -17.1,-5.95 -22.44,-7.57 -4.43,-1.35 -4.84,-0.62 -4.84,-6.07zm-30.93 13.64l0 -4.55c5.19,-0.43 19.87,-7.37 27.29,-9.09 0,5.3 0.83,4.5 -11.48,8.53 -4.81,1.57 -11.16,4.72 -15.81,5.11zm30.93 -21.83c3.64,0.3 17.72,6.05 22.44,7.58 4.44,1.43 4.84,0.51 4.84,6.06 -6.64,-1.54 -22.85,-8.72 -27.28,-9.09l0 -4.55zm-30.93 13.64c0,-6.78 0.12,-3.98 11.7,-8.31 4.77,-1.79 10.12,-4.05 15.59,-5.33 0,5.07 0.12,4.53 -4.13,5.88 -3.22,1.02 -4.53,1.43 -7.43,2.57 -2.94,1.17 -13.17,4.98 -15.73,5.19zm30.93 -21.82l22.66 7.35c3.82,1.33 4.62,0.96 4.62,6.29 -7.5,-1.75 -21.72,-8.64 -27.28,-9.1l0 -4.54zm-30.93 13.64c0,-5.48 -1.05,-4.16 11.48,-8.54l15.81 -5.1 0 4.54c-4.43,0.37 -20.64,7.55 -27.29,9.1zm0 -8.19c0,-5.53 -0.72,-4.4 11.49,-8.52 4.71,-1.58 10.88,-4.71 15.8,-5.12l0 4.55c-5.57,0.46 -19.78,7.34 -27.29,9.09zm30.93 -14.55l27.28 10 0 4.55 -27.28 -10 0 -4.55zm0 -8.19l27.28 10.01 0 4.55 -27.28 -10.01 0 -4.55zm-30.93 14.56l0 -4.55 27.29 -10.01 0 4.55 -27.29 10.01zm30.93 -22.74c3.38,0.79 9.74,3.37 13.38,4.81 4.91,1.95 9.63,2.93 13.9,5.19l0 4.55 -27.28 -10 0 -4.55zm-30.93 14.55l0 -4.55c7.28,-3.49 20.04,-6.52 27.29,-10l0 4.55 -27.29 10zm30.93 -22.74c7.24,1.69 21.84,8.64 27.28,9.1l0 5.46c-5.86,-3.11 -15.96,-5.95 -22.66,-8.27 -3.82,-1.33 -4.62,-0.96 -4.62,-6.29zm-30.93 14.56l0 -4.55 19.9 -7.39c2.4,-0.8 4.92,-2.04 7.39,-2.62l0 4.55 -27.29 10.01zm30.93 -22.74c7.42,1.73 22.1,8.66 27.28,9.09l0 4.55c-3.48,-0.29 -17.64,-5.7 -22.52,-7.49 -4.25,-1.56 -4.76,-0.56 -4.76,-6.15zm-30.93 14.55l0 -5.46c4.58,-0.38 9.8,-3.12 13.75,-4.44 4.59,-1.53 9.15,-3.63 13.54,-4.65 0,4.74 -0.26,4.68 -3.94,6.06 -6.68,2.49 -16.86,5.06 -23.35,8.49zm30.93 -22.74l22.45 7.57c4.42,1.35 4.83,0.61 4.83,6.07 -3.78,-0.31 -17.1,-5.95 -22.44,-7.57 -4.43,-1.34 -4.84,-0.62 -4.84,-6.07zm-30.93 13.64l0 -4.54c4.44,-0.37 20.65,-7.55 27.29,-9.1 0,5.31 0.83,4.5 -11.48,8.53 -4.81,1.58 -11.16,4.73 -15.81,5.11zm30.93 -21.82c4.09,0.34 16.93,6.29 21.99,8.01 4.74,1.62 5.17,0.19 5.29,5.63 -4.91,-1.14 -8.99,-3.03 -13.52,-4.66 -2.61,-0.95 -11.19,-4.22 -13.76,-4.44l0 -4.54zm-30.93 13.64c0.11,-4.64 1.27,-4.12 4.63,-5.38l22.66 -8.26c0,6.67 0.15,3.82 -11.56,8.45 -2.94,1.16 -13.17,4.98 -15.73,5.19zm58.21 -78.22c5.19,2.49 19.19,1.25 24.56,0 1.53,-6.55 0.91,-7.63 0.91,-15.46 16.54,0 31.08,2.73 47.3,2.73l0 230.1 -97.19 6.51c-4.85,0.53 -14.13,1.58 -19.22,1.7 -5.83,0.14 -13.92,0.35 -19.77,1.14 -4.14,0.56 -14.69,1.57 -19.35,1.57l0 -56.39c6.8,0 10.7,-0.88 16.33,-0.95 5.72,-0.07 12.63,0.45 18.18,-0.01l34.58 -1.8c24.09,-0.03 45.68,-1.79 70.06,-1.79l0 47.3c0,3.88 6.37,3.88 6.37,0 0,-64.42 3.48,-53.6 -11.82,-52.75 -5.22,0.29 -11.1,-0.11 -16.41,-0.04 -5.43,0.06 -8.13,0.98 -14.51,0.95 -5.46,-0.03 -10.92,-0.01 -16.38,-0.01l0 -80.04c0.01,-2.55 0.21,-5.88 0.08,-8.32 -0.1,-2.02 0.36,-2.63 -2.76,-3.63 -7.53,-2.43 -16.05,-7.18 -23.69,-8.96 1.93,-2.65 3.06,-1.68 6.93,-3.08 10.82,-3.91 6.68,-15.37 -7.84,-18.75 2.13,-3.2 5,-4.99 7.43,-8.03 3.13,-3.92 2.84,-6.01 6.99,-9.39 2.99,-2.43 5.13,-4.73 6.81,-8.64 1.66,-3.89 2.41,-8.72 2.41,-13.96zm-15.46 52.75c-8.24,3.95 -9.36,0.31 -17.55,7.01 -2.83,2.32 -25.33,11.27 -28.83,12.09l0 93.68c-12.56,0 -24.35,1.82 -36.38,1.82l0 -191.91c9.24,0 18.4,1.82 27.28,1.82 0,8.16 -0.68,12.26 0.91,19.1 7.4,1.73 11.69,1.82 20.92,1.82 -6.16,12.83 11.06,26.98 12.79,29.96 1.64,2.84 3,3.91 4.66,6.26 2.14,3.05 1.26,4.87 3.77,8.04 4.27,5.37 11.82,2.96 12.43,10.31zm-95.5 -81.86l0 262.86c0,2.7 3.96,6.37 6.21,7.48 6.06,2.99 63.85,-3.47 78.4,-3.82l32.77 -2.7c13.22,-1.04 66.6,-2.91 73.03,-6.1 2.96,-1.47 6.05,-4.47 6.05,-8.51l0 -235.56c0,-10.44 -14.12,-9.87 -17.8,-10.4 -13,-1.86 -49.9,-3.17 -66.01,-4.93 -4.33,-0.48 -9.97,-0.71 -13.56,-0.99 -4.69,-0.37 -8.97,-0.62 -12.73,-0.92l-40.87 -2.79c-8.81,-0.07 -17.79,-1.75 -26.39,-1.81 -5.19,-0.03 -11.46,-2.3 -16.55,3.47 -0.78,0.88 -2.55,3.4 -2.55,4.72z"/>
   <path class="fil0" d="M60.94 329.24l0 -36.38c3.95,0 15.77,-1.57 18.19,-2.73l0 47.3c-3.2,-0.75 -6.37,-1.86 -9.62,-3.11 -3.12,-1.2 -8.57,-2.06 -8.57,-5.08zm-1.82 0.91l0.27 0.27c-0.02,-0.02 -0.36,-0.18 -0.27,-0.27zm-3.64 -41.84l0 40.93 -18.19 -6.36 0 -230.11c3.68,-0.09 39.79,-7.21 41.84,-8.19l0 200.1c-7.33,0.61 -16.15,3.63 -23.65,3.63zm-30.92 -195.54l0 230.11c0,9.77 5.78,11.22 12.85,13.52l38.74 14.04c11.06,4.11 15.71,-5.91 15.71,-7.55l0 -262.86c0,-2.09 -3.22,-8.18 -10.91,-8.18 -5.9,0 -25.25,4.41 -32.37,5.83 -5.09,1.02 -11.57,1.9 -15.87,3.23 -4.85,1.49 -8.15,5.58 -8.15,11.86z"/>
  </g>
 </g>
</svg>
