<?xml version="1.0" encoding="UTF-8"?>
<!DOCTYPE svg PUBLIC "-//W3C//DTD SVG 1.1//EN" "http://www.w3.org/Graphics/SVG/1.1/DTD/svg11.dtd">
<!-- Creator: CorelDRAW 2019 (64-Bit) -->
<svg xmlns="http://www.w3.org/2000/svg" xml:space="preserve" width="100%" height="100%" version="1.1" style="shape-rendering:geometricPrecision; text-rendering:geometricPrecision; image-rendering:optimizeQuality; fill-rule:evenodd; clip-rule:evenodd"
viewBox="0 0 465.56 465.68"
 xmlns:xlink="http://www.w3.org/1999/xlink">
 <defs>
  <style type="text/css">
   <![CDATA[
    .fil0 {fill:#A6A182}
   ]]>
  </style>
 </defs>
 <g id="Layer_x0020_1">
  <metadata id="CorelCorpID_0Corel-Layer"/>
  <path class="fil0" d="M407.01 407.12l48.46 -0.11 0.34 48.8 -48.84 -0.04 0.04 -48.65zm-396.78 48.25c-0.72,-1.36 -0.17,1.8 -0.6,-1.65l0.14 -46.6c4.03,-1.14 43.55,-0.97 48.99,-0.23 0.7,5.87 0.96,44.9 -0.32,48.89l-48.21 -0.41zm57.75 -387.43l1.01 0 328.56 0.01 0.08 329.63 -329.67 0.06 0.02 -329.7zm339.01 -58.14l48.81 -0.03 -0.19 48.8 -43.69 0.02 -4.92 -0.1 -0.01 -48.69zm-397.14 0.58c3.78,-1.27 43.51,-1.13 48.75,-0.26l-0.07 48.33 -3.83 0.12 -38.66 0.07 -6.19 -0.41 0 -47.85zm-5.86 455.3c9.5,-3.24 49.57,1.73 62.96,-1.37 3.55,-10.66 -0.82,-43.1 1.34,-57.28l329.08 -0.01 0.31 55.3c1.7,4.57 25.99,2.82 33.57,2.82 8.77,0 28.65,1.93 33.4,-2.23 1.37,-6.47 1.12,-58.74 -0.34,-64.14 -6.44,-2.32 -19.96,-1.15 -28.26,-1.14 0.02,-3.46 0.43,-11.32 -0.04,-14.31 -0.71,-4.5 -5.03,-5.76 -8.64,-2.2 -1.54,4.37 -0.79,11.09 -0.69,16.12l-19.68 0.39 -0.01 -329.54 19.66 -0.08c-0.01,9.77 -2.87,17.69 7.93,16.32 2.18,-5.18 1.47,-9.88 1.47,-16.42 8.01,0.11 22.33,1.24 28.39,-1.12 1.37,-6 1.76,-61.47 -0.5,-64.11 -2.87,-3.61 -5.3,-2.3 -14.2,-2.3 -8.47,0.01 -47.37,-0.83 -49.9,0.75 -3.63,2.28 -2.21,20.53 -2.21,27.35 0,9.22 0.65,21.14 -0.21,30.04l-329.31 0.05c-0.73,-12.22 1.8,-49.5 -1.24,-57.3 -5.62,-1.47 -57.78,-1.77 -64.18,-0.32 -3.69,2.13 -2.25,26.44 -2.25,33.41 0,5.39 -2,31.51 2.89,33.15l26.2 0.48 0.13 15.19c3.4,4.23 5.81,3.52 8.73,0.49l0.57 -15.56 19.68 -0.12 -0.05 329.34 -19.71 0.29c0.06,-8.89 2.71,-18.09 -7.27,-17.02 -3.25,5.14 -2.14,10.4 -2.06,16.99 -35.42,0.71 -29.11,-10.03 -29.11,46.1 0,11.84 -1.73,17.2 2.97,21.5 0.14,0.13 0.39,0.31 0.58,0.49zm228.85 -340.34l107.52 107.49 -107.73 107.71 -107.46 -107.92 107.67 -107.28zm-4.8 -32.19c0.19,5.62 0.06,11.25 0.12,16.87 0.09,8.8 -0.58,7.19 -5.26,11.85l-101.28 101.28c-3.82,3.88 -3.65,5.02 -11.41,4.95 -5.68,-0.05 -11.66,0.18 -17.29,-0.1 3.72,-3.45 9.26,-7.33 13.72,-10.57 8.43,-6.12 1.52,-13.76 -6.32,-7.19l-21.58 16.31c-3.7,2.65 -5.6,2.96 -4.68,9.21 16.46,10.84 30.34,27.24 35.35,20.49 3.89,-5.24 -5.06,-10.26 -12.48,-15.32l-3.73 -3.41 20.34 -0.05c4.86,0 6.68,3.66 9.23,6.19l101.25 101.31c4.34,4.31 4.22,3.06 4.13,11.29 -0.06,5.4 -0.02,10.81 -0.02,16.21l-3.16 -3.25c-5.61,-7.35 -10.61,-18.3 -16.14,-12.63 -4.36,4.47 6.16,14.81 12.36,23.13 2.13,2.86 3.72,4.83 5.46,7.2 2.95,4.04 2.11,5.32 8.76,4.73 2.73,-4.1 6.96,-9.21 10.16,-13.45 3.48,-4.61 7.04,-9.04 10.53,-13.86 5.3,-7.29 -2.08,-13.59 -7.97,-5.42 -3.27,4.55 -7.07,9.84 -10.55,13.72 -0.1,-4.89 -0.03,-9.8 -0.04,-14.69 -0.05,-12.79 -0.02,-9.13 18.74,-27.87 10.72,-10.71 20.82,-20.79 31.52,-31.52l47.07 -47.07c16.23,-16.25 9.12,-14.46 37.57,-13.95 -4.55,4.81 -20.6,12.83 -16.66,18.64 3.91,5.77 15.37,-5.34 18.79,-7.85 3.15,-2.31 5.54,-4.16 8.63,-6.5 2.78,-2.12 6.25,-5.04 8.49,-6.59 0.59,-6.14 -2.91,-7.18 -6.25,-9.67 -4.38,-3.26 -23.17,-19.79 -27.58,-17.71 -9.43,4.46 8.3,14.81 14.84,20.14 -5.38,0.21 -10.88,0.04 -16.28,0.09 -8.41,0.09 -7.24,-0.47 -11.53,-4.83 -5.88,-5.97 -11.27,-11.35 -17.21,-17.24l-68.08 -68.08c-5.79,-5.71 -10.94,-11.28 -16.85,-16.79 -4.31,-4.02 -5.31,-3.66 -5.24,-11.1 0.06,-5.61 -0.21,-11.65 0.13,-17.18l10.11 13.19c6.03,8.16 14.18,2.66 8.26,-4.86 -3.27,-4.17 -19.15,-26.85 -22.44,-27.42 -4.42,-0.76 -7.19,5.36 -12.25,12.07 -3.68,4.87 -7.06,9.48 -10.87,14.33 -7.09,9.05 1.29,13.55 6.4,7.23 3.85,-4.76 6.88,-10.24 11.19,-14.26zm-43.59 139.61l32.51 -32.78c1.64,-1.41 2.08,-1.44 3.57,-3.16l5.93 -5.84c3.12,-3.09 2.24,-4.52 6.43,-6.53 3.2,1.91 46.34,45.06 48.27,48.27 -1.95,3.9 -19.31,20.17 -23.71,24.56 -4.53,4.51 -20.58,21.33 -24.56,23.83l-48.44 -48.35zm-11.41 1.64c0.73,3.05 25.34,26.46 29.37,30.47 5.26,5.23 9.91,9.86 15.14,15.14 5.57,5.64 11.63,13.8 16.79,12.44 2.81,-0.75 38.53,-37.61 45.59,-44.62 18.53,-18.41 19.54,-10.6 -16.93,-46.9 -5.25,-5.22 -9.89,-9.91 -15.14,-15.12 -2.72,-2.69 -4.85,-4.83 -7.57,-7.56 -2.08,-2.09 -4.61,-6.12 -8.87,-5.19 -2.88,0.62 -38.87,37.56 -45.68,44.44 -5.46,5.52 -13.95,11.79 -12.7,16.9zm-143.52 -78.17c0,10 -2.21,23.74 4.92,23.2 7.11,-0.54 4.71,-15.95 4.51,-25.79 -0.08,-4.1 -0.82,-7.68 -5.94,-6.68 -4.17,0.81 -3.49,4.58 -3.49,9.27zm141.92 279.04c6.41,1.74 25.3,1.84 30.34,-0.77 1.01,-3.71 0.98,-3.93 -0.45,-7.05 -5.56,-1.36 -24.6,-1.33 -30.24,-0.04 -1.44,3.67 -1.4,4.53 0.35,7.86zm-41.09 -396.35c4.04,0 32.45,2.46 23.66,-7.98 -2.31,-2.74 -11.14,-1.41 -15.26,-1.41 -3.7,0 -12.61,-0.86 -14.82,0.98 -0.98,0.82 -5.41,8.41 6.42,8.41zm182.26 -9.18c-5.32,1.64 -6.01,9.31 5.99,9.21 4.68,-0.03 28.29,2.97 22.6,-6.94 -2.66,-4.64 -28.58,-2.27 -28.59,-2.27zm114.05 75.22c0,5.01 -2.62,34.7 8.06,25.41 2.88,-2.51 1.12,-28.66 0.61,-29.5 -2.34,-3.85 -8.67,-2.7 -8.67,4.09zm3.17 41.08c-4.94,1.84 -3.14,7.55 -3.17,18.6 -0.02,4.79 -0.9,17.43 7.21,12.79 3.97,-2.27 2.17,-13.59 2.19,-18.68 0.01,-5.29 1.05,-15.43 -6.23,-12.71zm-322.52 -107.89c3.17,-8.54 -1.68,-8.68 -9.73,-8.63 -4.08,0.04 -17.31,-0.94 -19.9,0.94 -1.67,1.21 -2.86,4.58 -0.81,6.88 2.13,2.4 6.58,1.62 9.77,1.59 6.42,-0.05 15.13,0.56 20.67,-0.78zm328.74 319.81c0,-4.73 0.97,-22.54 -1.33,-24.56 -1.82,-1.6 -5.03,-1.52 -6.73,0.21 -2.24,2.28 -2.11,27.81 0.17,30.01 4.37,4.25 7.89,-0.08 7.89,-5.66zm-397.94 7.04l0.97 -6.18 -0.19 -18.52 -0.62 -5.45c-10.75,-4.79 -8.75,6.03 -8.75,14.7 0,9.1 -2.33,20 8.59,15.45zm-7.42 -46.15c9.69,2.21 8.25,-3.15 8.21,-11.32 -0.02,-4.67 1.25,-17.28 -1.75,-19.59 -12,-9.27 -7.06,29.39 -6.46,30.91zm185.93 -288.17c-2.31,8.99 3.34,8.29 11.23,8.24 4.66,-0.03 17.51,1.24 19.7,-1.81 2.08,-2.89 0.85,-6.27 -1.73,-7.22 -1.64,-0.61 -24.65,-1.08 -29.2,0.79zm-185.86 194.75c9.9,2.28 8.17,-3.85 8.14,-12.04 -0.02,-5.3 1.74,-16.57 -2.16,-19.1 -11.74,-7.64 -6.47,29.93 -5.98,31.14zm139.45 -187.34c5.76,1.43 14.08,0.79 20.66,0.84 3.03,0.03 7.16,0.6 9.34,-1.15 2.65,-2.13 1.4,-6.04 -0.37,-7.32 -2.58,-1.87 -15.82,-0.9 -19.92,-0.94 -8.04,-0.06 -12.71,0.35 -9.71,8.57zm104.7 397.96c6.62,-0.04 15.39,0.86 20.25,-1.4 2.54,-9.28 -2.73,-8.03 -11,-7.99 -6.07,0.03 -14.5,-0.57 -19.6,0.86 -3.89,8.89 2.29,8.58 10.35,8.53zm84.24 -406.09c-3.3,1.55 -7.77,9.07 5.68,9 4.02,-0.02 17.97,0.58 20.77,-0.55 1.89,-0.76 8.63,-9.04 -6.43,-8.9 -3.92,0.04 -17.56,-0.72 -20.02,0.45zm-281.89 404.68c4.91,2.25 13.53,1.37 20.31,1.41 8.35,0.04 13.89,0.43 10.37,-8.55 -5.28,-1.4 -13.45,-0.81 -19.62,-0.84 -8.44,-0.04 -13.38,-1.35 -11.06,7.98zm351.77 -241.29c-3.95,3.03 -2.33,9.43 -2.38,19.2 -0.01,2.55 -0.39,7.67 0.59,9.83 1.06,2.32 4.3,3.4 6.84,1.47 3.36,-2.56 1.96,-13.96 1.98,-18.87 0.01,-5.2 0.19,-17.17 -7.03,-11.63zm-273.91 241.6c2.69,-10.79 -7.33,-8.43 -23.98,-8.33 -11.94,0.06 -9,9.42 -1.63,9.42 6.34,0.01 20.26,0.88 25.61,-1.09zm61.81 -1.08c5.18,3.72 14.63,2.17 25.21,2.17 4.67,0 6.87,-1.02 7.03,-5.8 -1.37,-5.5 -15.35,-3.59 -24.69,-3.57 -5.69,0.02 -8.33,1.18 -7.55,7.2zm46.66 -395.82c5.41,1.44 13.46,0.83 19.73,0.87 7.53,0.05 13.72,1.24 10.98,-8.04 -5.02,-2.47 -13.77,-1.31 -20.23,-1.35 -8.4,-0.05 -13.27,0.02 -10.48,8.52zm172.47 226.61l0 -19.33c0,-5.32 -4.11,-8.4 -7.67,-5.48 -3.15,2.59 -2.11,27.95 -0.58,29.93 3.32,4.32 8.25,1.49 8.25,-5.12zm-67.85 171.39c6.61,-0.04 15.45,0.89 20.38,-1.31 2.39,-9.34 -3.46,-8.12 -11.13,-8.08 -6.28,0.04 -14.16,-0.57 -19.58,0.89 -3.09,8.78 1.71,8.55 10.33,8.5zm-337.32 -304.03c9.23,2.41 8.06,-3.52 8.01,-11.09 -0.04,-5.96 0.6,-14.67 -0.87,-19.56 -8.71,-3.56 -8.55,1.98 -8.52,10.31 0.03,6.65 -0.84,15.44 1.38,20.34zm396.63 185.15c8.08,2.78 8.61,-1.56 8.54,-9.63 -0.03,-4.08 0.95,-17.35 -0.86,-19.96 -0.35,-0.51 -8.71,-8.37 -8.56,9.01 0.06,6.38 -0.59,15.14 0.88,20.58zm-398 -70.16l0 17.65c0.04,6.13 0.67,9.17 7.69,7.56 2.91,-4.73 1.69,-16.99 1.68,-25.21 0,-9.44 -9.37,-9.55 -9.37,0zm293.3 179.65c-7.84,-0.02 -14.47,-1.29 -12.09,8.2 4.87,1.86 12.42,1.17 18.82,1.18 6.58,0.02 14.71,1.3 12.46,-7.46 -4.19,-3.02 -12.55,-1.89 -19.19,-1.92zm-312.59 28.71l0.14 -48.04 47.94 -0.04 0 47.93 -48.08 0.15zm0 0l48.21 0.41c1.28,-3.99 1.02,-43.02 0.32,-48.89 -5.44,-0.74 -44.96,-0.91 -48.99,0.23l-0.14 46.6c0.43,3.45 -0.12,0.29 0.6,1.65z"/>
 </g>
</svg>
