<?xml version="1.0" encoding="UTF-8"?>
<!DOCTYPE svg PUBLIC "-//W3C//DTD SVG 1.1//EN" "http://www.w3.org/Graphics/SVG/1.1/DTD/svg11.dtd">
<!-- Creator: CorelDRAW 2019 (64-Bit) -->
<svg xmlns="http://www.w3.org/2000/svg" xml:space="preserve" width="100%" height="100%" version="1.1" style="shape-rendering:geometricPrecision; text-rendering:geometricPrecision; image-rendering:optimizeQuality; fill-rule:evenodd; clip-rule:evenodd"
viewBox="0 0 553.9 465.68"
 xmlns:xlink="http://www.w3.org/1999/xlink">
 <defs>
  <style type="text/css">
   <![CDATA[
    .fil0 {fill:#A6A182}
   ]]>
  </style>
 </defs>
 <g id="Layer_x0020_1">
  <metadata id="CorelCorpID_0Corel-Layer"/>
  <path class="fil0" d="M148.01 425.37c0.16,-2.54 -1.66,-1.94 2.11,-1.62 6.14,-4.31 123.36,-1.9 129.95,-1.89l98.23 0.01c11.69,0.03 21.92,-2.05 29.48,3.41 1.95,6.86 3.21,19.78 -1.43,24.29 -5.6,6.46 -52.01,3.46 -62.91,3.46l-166.35 0.01c-23.09,-0.06 -32.49,4.43 -32.56,-15.61 -0.02,-6.43 -0.98,-9.31 3.48,-12.06zm98.92 -57.77l60.01 -0.01 -0.82 42.07 -58.77 0 -0.47 -32.43 0.05 -9.63zm-244.31 -346.84c-4.08,21.15 -1.8,213.94 -1.79,251.9 0.01,20.7 -3.52,62.18 3.96,78.37 9.22,16.26 23.2,16.5 45.56,16.5 20.6,0 41.19,0.01 61.79,-0.01 40.64,-0.01 81.3,0.1 121.94,0 3.28,5.92 1.98,36.17 0.84,42.85l-85.96 0.21c-9.98,1.57 -6.18,3.92 -13.94,7.17 -2.12,21.4 -9.14,35.71 11.98,46.89 19.35,1.41 252.46,1.43 259.6,-0.28 5.34,-1.28 10.24,-5.96 12.35,-10.05 2.81,-5.46 2.34,-11.99 2.29,-18.51 -0.1,-13.47 -3.82,-23.82 -17.05,-25.39l-85.16 -0.73c-1.07,-4.53 -2.2,-37 0.69,-42.18 23.94,0.23 207.33,2.87 212.26,-2.58l0 -6.7c-2.98,0.1 -0.66,0.15 -3.55,-1.38 -2.85,-1.51 0.21,-0.33 -2.81,-1.7 -69.38,2.7 -143.91,0.24 -213.86,0.24l-266.16 -0.01c-18.08,0.04 -31.31,-1.49 -32.58,-19.46 -2.25,-31.91 -0.04,-73.09 -0.03,-106.02 0,-35.39 0,-70.77 0,-106.15 -0.01,-19.32 -3.61,-89.96 3.28,-101.81 -0.15,-0.08 -2.69,-1.93 -2.94,-2.14 -0.23,-0.19 -0.74,-0.96 -1,-1.41 -5.12,4.43 -2.89,6.84 -9.71,2.38zm2.62 -6.45c-0.39,3.53 1.12,2 -2.62,6.45 6.82,4.46 4.59,2.05 9.71,-2.38 0.26,0.45 0.77,1.22 1,1.41 0.25,0.21 2.79,2.06 2.94,2.14 12.09,-12.59 19.03,-8.83 45.17,-8.83l446.77 -0.02c14.15,-0.07 32.07,-1.45 32.76,21.94 1.9,64.84 -0.02,156.85 -0.02,224.97 0,18.48 0,36.96 0,55.45 0.01,21.57 2.77,32.61 -15.33,39.7 3.02,1.37 -0.04,0.19 2.81,1.7 2.89,1.53 0.57,1.48 3.55,1.38l0 6.7c16.73,-5.68 21.11,-18.84 21.04,-39.97l-0.01 -175.86c0,-37.34 2.05,-80.74 -0.09,-117.32 -2.37,-40.48 -51.33,-30.72 -89.07,-30.75 -14.98,-0.01 -428.47,-1.89 -439.95,1.18 -6.2,1.67 -10.84,5.14 -14.95,8.85l-3.71 3.26zm182.95 63.44l1.57 0.26c0.64,9.92 -4.49,0.56 -4.71,9.17l5.73 2.27c24.98,2.15 106.65,0.23 141.57,0.2 15.22,0 37.16,-2.83 41.21,4.9 5.85,4.18 3.15,39.94 3.15,46.61 0,15.87 0.69,33.4 -0.28,49.07 8.53,0.12 14.2,4.09 16.66,11.41l18.47 0.13c15.88,-14.48 -16.5,-11.95 -25.2,-11.74l-0.17 -11.37 76.67 0.59c7.01,-5.57 -1.33,5.53 5.39,-2.45 3.11,-3.68 1.92,-2.66 1.92,-8.7 -3.89,-3.61 4.04,-2.49 -6.85,-2.58 -8.98,2.56 -63.8,1.27 -77.09,1.01l0.07 -11.1c7.22,-0.17 27.03,3.55 28.55,-5.09 1.85,-10.53 -15.97,-7.12 -24.19,-7.17 -6.06,-1.32 -4.66,3.32 -4.31,-7.74 -0.24,-2.94 -0.23,-4.7 -0.05,-7.92 0.32,-5.79 0.92,1.75 0.3,-7.54l-0.37 -11.25c12.16,-0.14 62.79,3.46 68.9,-1.57l-67.32 -0.83c7.48,-3.11 46.86,-1.56 54.81,-1.59 -0.02,-2.98 -0.07,-1.41 -0.7,-3.52l-1.83 -4.67 -52.29 -0.04c-3.29,-4.03 -3.52,-9.14 -7.26,-13.03 -3.92,-4.07 -8.96,-4.26 -13.32,-7.26 -0.33,-8.78 0.12,-18.9 -1.13,-26.36l-2.06 -0.98c-13.25,0.88 -8.06,2.81 -9.29,28.9l-10.88 -0.33c-0.24,-9.19 1.21,-21.06 -2.16,-28.16l-7.76 -0.15c-3.61,6.99 -2.28,18.39 -2.29,27.88l-11.13 0.35c-0.77,-22.34 3.46,-24.5 -5.59,-28.3 -10.25,0.47 -6.53,17.68 -6.79,28.31l-11 0.3c-0.08,-15.93 2.88,-28.67 -5.88,-28.71 -10.39,-0.05 -6.22,21.26 -6.43,28.71l-11.03 -0.09c-0.3,-15.14 5.51,-28.86 -10.6,-28.51 -1.51,6.67 -1.33,18.87 -1.79,28.64l-10.83 -0.51c-0.71,-11.72 1.03,-17.94 -2.2,-27.98l-7.93 0.17c-3.5,6.72 -2.16,18.77 -2.1,27.95l-8.59 0.34 -1.97 2.08c-5.61,-1.55 -7.11,-2.38 -10.32,-5.31 -0.1,-2.45 -0.13,-6.43 0.01,-9.41 0.33,-6.84 -0.66,-5.96 2.38,-7.85 -3.01,-3.9 4.39,-7.78 -4.81,-1.59l-0.16 21.93 -11.04 0.16c-0.22,-8.47 3.03,-27.33 -4.72,-28.65 -11.18,-1.89 -7.5,16.88 -7.48,24 -0.23,8.41 0.68,2.18 -3.46,4.71zm-13.57 199.11c0.71,10.95 8.44,10.57 16.63,14.81 0.47,7.73 -3.42,28.09 6.46,28.09 9.73,0 6.08,-21.31 6.05,-29.02l11.12 1.51c8.59,2.32 4.36,-0.99 12.45,-0.81 4.35,-1.63 5.32,-1.31 10.86,-0.68l0.74 24.75c2.18,5.35 3.33,4.82 9.92,3.41 7.52,-22.36 -9.31,-27.83 12.86,-28.09l-0.63 25.14c0.37,0.29 0.89,0.3 1.08,0.9 0.71,2.13 17.02,13.31 10.83,-25.92 0.39,-0.29 0.98,-0.49 1.31,-0.59 0.33,-0.1 0.9,-0.4 1.3,-0.49 4.43,-1.07 2.99,0.67 16.02,-2.16 8.96,-1.94 13.06,-1.43 17.62,3.67l-0.7 25.64c3.91,2.53 1.96,2.4 7.99,2.76l3.17 -4.16 0.19 -24.74 11.61 -0.45 0.79 25.34c2.22,5.05 3.72,4.59 9.89,3.05 3.29,-9.05 -0.25,-20.15 2.84,-27.81l10 -0.08c-0.16,10.63 -3.72,27.66 6.83,28.88 6.07,-3.15 5.35,-4.41 5.35,-12.18 0,-6.07 -0.64,-10.84 0.65,-16.8l8.64 -1.96c-4.13,-2.49 -2.44,-2.9 -14.04,-2.34 -13.95,0.68 -19.11,-1.87 -38.96,0.09l-39.28 -4.06c-2.92,-0.15 0.69,3.5 -2.94,-0.39 4.72,-3.96 15.62,1.08 22.5,1.24 14.66,0.34 22.81,-1.51 32.9,-2.07 8.01,-0.45 7.61,2.51 12.61,2.07l12.71 -1.3c10.53,-0.9 7.15,1.17 11.89,1.52l-2.39 -6.14 -2.48 -0.66c-0.36,0.26 -0.87,0.5 -1.16,0.62 -0.31,0.11 -0.82,0.43 -1.2,0.56l-8.87 1.03c-44.96,-0.15 -138.33,1.52 -171.02,-1.1 -6.56,0.64 -6.53,0.03 -11.95,-1.74l-0.19 0.66zm-94.66 -176.88c1.14,10.47 5.41,8.89 16.26,8.79 8.47,-0.08 16.95,-0.03 25.42,-0.03 16.87,0 33.79,0.11 50.66,-0.06 2.99,-4.29 -1.2,-0.34 0.68,-3.98 0.13,-0.24 0.46,-0.72 0.61,-0.96 4.64,-7.28 -2.97,0.44 1.92,-2.18 12.84,5.9 0.62,22.83 4.15,48.68l-0.57 46.8c-0.92,2.62 -1,2.43 -2,4.01 -7.33,-0.04 -15.38,-0.45 -18.15,-5.09l-0.62 -2.06c0.47,-0.2 1.2,-0.83 1.5,-0.37 0.01,0.03 9.31,-0.46 12.51,-3.64l-27.48 0.91c-2.58,14.12 1.15,11.13 26.87,11.21l0.33 12.03c7.33,-3.5 0.03,0.89 3.78,-2.83 0.34,-0.35 1.5,-1.69 1.8,-2.04l1.79 16.53c-4.44,-0.34 -7.54,-1.05 -11.87,-1.79 -5.83,-0.99 -5.67,-0.26 -9.46,-3.82l0.54 -2.34c0.41,-0.82 2.15,-3.75 2.61,-4.46 -8.11,0 -11.8,-1.53 -17.15,2.97 -1.47,13.81 16.18,8.96 28.17,9.12l0.79 10.9 -0.24 1.45c3.32,-4.2 1.47,-2.11 7.41,-3.05 -4.2,7.28 -9.09,8.13 -9.47,14 3.15,1.58 0.91,-1.07 1.57,3.54 1.8,-3.03 4.13,-8.88 9.18,-8.79 6.51,0.11 1.99,0.19 3.51,2.3 -2.66,4.34 -2.19,-2.11 -6.98,4.09 -3.66,4.73 -0.68,9.47 0.64,14.91 -0.63,-0.31 -1.54,-1.34 -1.89,-0.91 -0.33,0.4 -1.28,-0.62 -1.68,-0.95 -0.34,-0.28 -0.95,-0.69 -1.3,-1.01l-1.63 -2.16 -3.26 0.34c1.94,10.72 4.18,10.62 12.93,14.95 0.38,-0.5 1.26,-1.64 1.41,-1.22 0.14,0.35 0.12,0.08 1.81,-2.38l-0.62 -38.42 0.11 -112.4c0.02,-19.53 -2.95,-25.18 6.23,-31.12l-5.73 -2.27c0.22,-8.61 5.35,0.75 4.71,-9.17 -11.14,2.17 -15.22,6.83 -17.47,18.59l-80.05 -0.62 -0.03 -21.44c-5.48,3.01 -2.93,-5.48 -4.11,7.89 -1.05,11.83 4.02,6.75 -2.26,21.97 -2.9,-4.27 -1.27,-2.05 -5.88,-4.42zm129.31 21.01l2.27 4.94c1.09,3.58 0.88,3.16 1.02,7.19 0.19,5.05 -0.08,10.83 -0.09,15.97 0,19.55 1.3,86.77 -1.22,96.86 2.73,-0.84 -2.86,-0.3 5.57,-1.8 4.59,-5.77 0.66,-5.6 7.81,-8.48l0.09 0.55 -0.15 -106.1c2.09,-1.33 -1.09,-1.78 11.12,-1.66 25.96,0.25 81.6,-1.13 99.97,0.53 1.94,-10.96 -1.2,-3.1 3.77,-12.12l-119.5 0.52c-0.45,0.26 -1.29,0.95 -1.63,1.06l-2.03 0.55c-0.4,0.04 -4.99,-0.64 -5.85,-0.79l-1.15 2.78zm-36.97 -12.31l-0.51 11.35 -0.14 12.01 0.71 7.55c2.51,4.98 3.74,8.3 1.15,10.56 -6.02,5.25 4.27,1.25 -3.14,0.72l2.84 4.44 -1.04 11.15 -88.72 0.24c-8.3,-0.43 -5.16,-0.28 -9.51,-4.74 -1.46,3.12 0.32,3.73 -5.84,3.61 -3.04,-0.06 -4.6,-1.38 -8.44,-2.71 6.17,8.07 7.24,9.4 2.83,17.85l-0.58 4.83c5.69,7.44 -5.19,-5.3 2.09,1.94 3.45,3.45 -0.55,-2.68 3.18,3.48 8.66,-5.55 5.13,-7.53 11.69,-12.31l93.38 0.04 0.08 11.2c-3.2,3.18 -12.5,3.67 -12.51,3.64 -0.3,-0.46 -1.03,0.17 -1.5,0.37l0.62 2.06c2.77,4.64 10.82,5.05 18.15,5.09 1,-1.58 1.08,-1.39 2,-4.01l0.57 -46.8c-3.53,-25.85 8.69,-42.78 -4.15,-48.68 -4.89,2.62 2.72,-5.1 -1.92,2.18 -0.15,0.24 -0.48,0.72 -0.61,0.96 -1.88,3.64 2.31,-0.31 -0.68,3.98zm325.82 203.08c6.38,-2.06 9.14,-3.56 13.93,1.42 10.15,15.77 -21.78,23.52 -13.93,-1.42zm-3.28 -13.01c-4.43,6.53 -6.47,4.48 -9.64,14.13l-28.99 -0.85 -8.44 3.41c4.41,8.49 -5.63,-7.99 3.29,3.26 2.14,2.69 2.26,-0.27 1.64,3.1l-5.25 1.24c1.53,0.92 0.93,0.78 3.89,1.42l33.71 0.37c8.87,28.16 47.89,13 40.3,-10.99 -4.76,-16.11 -12.86,-15.8 -30.51,-15.09zm-3.26 -253.62c-2.09,2.7 -2.57,2.9 -4.4,5.27l-3.56 4.81c-0.12,-0.26 -0.49,0.68 -0.76,0.99l-28.21 0.15c-12.29,2.28 -6.66,23.01 -7.06,40.04l-7.5 0.15 1.83 4.67c0.63,2.11 0.68,0.54 0.7,3.52 -7.95,0.03 -47.33,-1.52 -54.81,1.59l67.32 0.83c4.48,-0.63 4.62,3.88 4.65,-16.68 0.04,-21.15 -2.77,-20.79 4.25,-22.14 5.66,0 19.4,-2.35 21.51,2.85 3.12,6.02 4.7,7.37 11.57,10.31 3.41,-6.81 3.69,-1.86 6.15,-4.19 0.27,-0.25 1.02,-1.28 1.13,-2.23 0.07,-0.48 1.54,0.09 -0.94,-3.79 -4.39,-1.52 -6.54,-2.1 -7.58,-6.67 -1.22,-5.41 0.88,-5.93 2.35,-10 -0.61,-9.66 -0.46,-2.21 2.21,-8.11 1.23,-2.73 3.34,-0.93 -1.73,-0.4l-7.12 -0.97zm-152.15 71.74c-4.97,9.02 -1.83,1.16 -3.77,12.12l0.09 102.49 11.35 0 0 -102.83c1.37,-9.81 16.51,-12.37 8.44,-20.16 -6.31,-6.43 -14.66,6.02 -16.11,8.38zm-246.61 160.49c0,3.59 0.33,7.86 0.24,11.28 -0.19,7.72 1.47,7.33 -3.09,9.12 -6.46,0.56 -17.76,0.29 -21.64,-0.53 -7.43,1.76 -3.63,-1.61 -8.96,-0.7 -0.25,0.04 -0.81,0.3 -1.01,0.35 -0.3,0.08 -1.43,0.82 -1.86,1.14l1.31 7.59c3.22,2.17 2.75,-0.52 -0.53,4.25 -0.99,1.45 -2.71,3.1 -3.75,4 7.63,9.32 6.35,-4.76 8.83,4.97 4.43,-2.9 3.73,-3.18 7,-8.18 10.27,-1.46 26.67,1.9 33.66,-2.75 6.66,-11.56 -1.48,-44.09 2.51,-58.71 4.86,-2.37 7.66,-1.93 14.03,-1.1 0.47,-3.1 3.55,-7.51 5.1,-10.47 -17.88,0.12 -9.05,-0.81 -16.43,5.72 -0.27,0.24 -0.64,0.52 -0.91,0.74 -9.35,7.55 -7.2,0.29 -7.62,22.34 -0.14,7.5 0.02,10.83 -6.88,10.94zm398.01 -111.13c4.85,17.53 -10.64,18.34 -14.89,11.82 -3.07,-4.71 -1.19,-11 2.22,-13.14 6.6,-4.14 10.62,1.32 12.67,1.32zm-27.73 -3.41l0.22 2.7c10.89,0.09 2.96,-1.03 6.85,2.58 0,6.04 1.19,5.02 -1.92,8.7 -6.72,7.98 1.62,-3.12 -5.39,2.45 6.67,13.17 14.06,16.4 31.08,12.66 2.73,-5.06 6.36,-4.34 9.13,-11.54 2.54,-6.59 0.02,-13.74 -0.34,-19.3 -7.31,-4.09 -8.24,-10.49 -21.44,-9.39 -10.95,0.92 -12.11,6.73 -18.19,11.14zm-91.61 114.67l2.39 6.14c-4.74,-0.35 -1.36,-2.42 -11.89,-1.52l-12.71 1.3c-5,0.44 -4.6,-2.52 -12.61,-2.07 -10.09,0.56 -18.24,2.41 -32.9,2.07 -6.88,-0.16 -17.78,-5.2 -22.5,-1.24 3.63,3.89 0.02,0.24 2.94,0.39l39.28 4.06c19.85,-1.96 25.01,0.59 38.96,-0.09 11.6,-0.56 9.91,-0.15 14.04,2.34 3.37,-4.23 5.13,-4.16 7.53,-9l1.4 -7.69 2.19 -1.74c0.22,-0.2 0.71,-0.47 0.92,-0.69 0,0 2.43,4.11 1.3,-9.84l-3.53 -1.51 -0.12 -9.63 3.21 -0.06 6.05 -9.91 -8.76 -2.66c-0.52,-5.67 -2.6,-10.7 3.14,-10.66 -0.44,-7.96 0.45,-4.3 2.72,-12.33l-4.08 0.1c-0.43,8.75 -4.64,11.4 -11.75,14.29l0.73 8.28c-0.36,10.05 -0.23,31.49 -2.49,36.84l2.47 2.75 -5.93 2.08zm-339.54 13.72c-11.98,14.3 0.52,36.12 19.99,33.49 3.77,-0.79 3.68,-0.15 7.21,-2.15 5.52,-3.13 2.74,-2.68 3.21,-3.72 -2.48,-9.73 -1.2,4.35 -8.83,-4.97 1.04,-0.9 2.76,-2.55 3.75,-4 3.28,-4.77 3.75,-2.08 0.53,-4.25 -6.85,13.63 -17.22,6.06 -18.08,-0.09 -0.64,-4.56 1.71,-8.41 5.26,-9.79 5.54,-2.17 8.57,1.49 11.51,2.29 0.43,-0.32 1.56,-1.06 1.86,-1.14 0.2,-0.05 0.76,-0.31 1.01,-0.35 5.33,-0.91 1.53,2.46 8.96,0.7l-1.17 -6.38c-6.82,-2.68 -7.94,-7.43 -17.14,-7.97 -10.39,-0.61 -12.98,3.21 -18.07,8.33zm35.23 -100.25c-3.73,-6.16 0.27,-0.03 -3.18,-3.48 -7.28,-7.24 3.6,5.5 -2.09,-1.94l0.58 -4.83c-7.58,1.17 -13.89,1.53 -14.87,-6.61 -1,-8.37 5.55,-9.8 12.04,-11.24 3.84,1.33 5.4,2.65 8.44,2.71 6.16,0.12 4.38,-0.49 5.84,-3.61 -4.15,-15.76 -32.91,-13.5 -37.73,5.11 -4.86,18.82 13.55,32.77 30.97,23.89zm309.53 14.01c13.04,2.75 9.17,15.39 0,18.26 -1.85,-12.23 3.72,1.34 3.22,-12.53 -2.97,1.49 -2.78,-2.45 -3.21,5.28l-0.01 -11.01zm-2.75 -8.59l0.22 38.26c-1.09,13.37 1.62,32.34 -2.69,42.85l5.93 -2.08 -2.47 -2.75c2.26,-5.35 2.13,-26.79 2.49,-36.84l-0.73 -8.28c7.11,-2.89 11.32,-5.54 11.75,-14.29l-2.31 -0.79 0.36 -9.31c-7.19,-2.62 -8.94,-1.25 -10.22,-7.77 5.68,0.75 10.38,1.62 12.24,6.77l4.56 -0.51c-2.46,-7.32 -8.13,-11.29 -16.66,-11.41 0.97,-15.67 0.28,-33.2 0.28,-49.07 0,-6.67 2.7,-42.43 -3.15,-46.61l0.4 101.83zm-113.37 52.54l-9.57 -0.02c1.95,-1.29 -2.38,-3.01 5.08,-2.84 4.02,0.09 3.26,1.3 4.49,2.86zm-32.28 -0.02c1.52,-3.78 6.96,-4.1 10.28,0.39l-10.28 -0.39zm-11.49 -4.75l-1.08 10.87c4.86,-1.94 6.23,-3.41 13.83,-3.19l6.87 0.06 19.87 -0.21 14.68 0.02 4.32 0.21 1.04 -0.1 13.24 0.07 18.69 -0.01 13.61 -0.05 18.03 0.28 -3.59 -4.79c2.95,-2.11 7.59,-1.41 12.62,-1.75 -1.14,-3.05 1.38,-2.13 -1.62,-2.47l-13.65 -0.05c-0.2,8.2 1.35,6.81 -6.64,5.81l1.68 -9.38 -5.06 0.01 0.42 9.51 -19.14 -0.09c5.04,-5.66 8.25,0.37 14.78,-9.56l-5.03 0.03c-4.47,6.5 -5.07,1.38 -10.65,4.75 -5.27,3.18 -0.89,6.37 -8.01,4.78 0.73,-4.87 2.02,-5.57 4.46,-9.53l-6.33 0.01 -1.89 9.49 -19.83 0.79c-0.96,-4.13 -1.95,-6.33 -3.07,-10.26l-6.07 -0.02c2.65,4.39 -0.5,-0.72 2.39,3.12l1.49 1.87c1.46,2.21 1.28,1.23 2.04,4.53 -11.79,0.35 -1.1,-3.77 -11.82,-5.86 -9.38,-1.84 -8.11,5.63 -12.69,6.14 -7.85,0.86 -0.11,-7.58 -12.1,-6.76 -7.07,0.48 -6.33,3.94 -6.61,4.21 -3.47,3.43 -0.99,1.81 -6.93,4.78 1.52,-6.03 2.07,-7.81 5.63,-11.7l-0.07 -4.04c-7.15,2.88 -3.22,2.71 -7.81,8.48zm228.66 75.61l0.42 3.09 1.55 0.19 5.25 -1.24c0.62,-3.37 0.5,-0.41 -1.64,-3.1 -8.92,-11.25 1.12,5.23 -3.29,-3.26l8.44 -3.41 -0.36 -72.63c-2.37,-1.12 -0.73,-0.29 -3.25,-0.95l-10.69 -0.47c7.71,8.26 6.83,25.86 5.02,37.95 -2.03,13.65 1.99,30.31 -1.45,43.83zm46.1 -274.63l7.12 0.97c5.07,-0.53 2.96,-2.33 1.73,0.4 -2.67,5.9 -2.82,-1.55 -2.21,8.11 18.85,-4.56 20.85,15.35 5.23,16.67 2.48,3.88 1.01,3.31 0.94,3.79 -0.11,0.95 -0.86,1.98 -1.13,2.23 -2.46,2.33 -2.74,-2.62 -6.15,4.19 -1.89,3.08 17.48,0.09 18.71,0 3.49,-4.6 14.42,-12.83 8.29,-27.42 -4.16,-9.91 -13.06,-13.9 -26.46,-12.26l-6.07 3.32zm-96.99 202.9c4.58,-15.19 13.61,-7.85 24.8,-8.09 14.21,-0.3 16.9,-8.25 24.58,8.23 -9.3,-2.86 -10.43,-7.91 -18.26,-4.17l-4.64 3.34c-8.62,-1.24 -7.08,-4.37 -12.78,-4.54 -9.43,-0.28 -0.3,2.16 -13.7,5.23zm-5.2 0.68l10.07 0.04 16.1 0.05 11.02 0.12 17.32 0 0.09 33.24c-0.02,6.24 -1.93,32.7 1.49,37.6 3.44,-13.52 -0.58,-30.18 1.45,-43.83 1.81,-12.09 2.69,-29.69 -5.02,-37.95l10.69 0.47c-0.32,-0.28 -0.87,-1.04 -1.07,-0.69l-9.87 -1.48 -54.98 -0.14 8.76 2.66 -6.05 9.91zm-238.75 -8.88c0,6.05 1.88,3.47 -2.06,7.81 -5.67,-0.79 -6.09,-4.65 -7.21,-5 -11.21,0.27 -9.93,4.15 -18.32,4.71 1.56,-4.79 3.15,-5.39 7.07,-9.24l20.52 1.72zm22.17 -2.1l-8.37 9.69 -7.94 -0.1c-2.32,-3.04 -0.94,-2.06 -2.22,-4.21 -2.31,-3.86 0.2,-2.45 -3.64,-3.28 4.85,-3.33 15.63,-1.38 22.17,-2.1zm-79.89 37.75l-0.1 1.88c6.9,-0.11 6.74,-3.44 6.88,-10.94 0.42,-22.05 -1.73,-14.79 7.62,-22.34 0.27,-0.22 0.64,-0.5 0.91,-0.74 7.38,-6.53 -1.45,-5.6 16.43,-5.72 -1.55,2.96 -4.63,7.37 -5.1,10.47 -6.37,-0.83 -9.17,-1.27 -14.03,1.1l10.33 -0.29 38.66 -0.02 8.32 0.14 7.91 -0.34c0.38,-5.87 5.27,-6.72 9.47,-14 -5.94,0.94 -4.09,-1.15 -7.41,3.05l0.24 -1.45 -72 0.14c-7.85,0.56 -2.23,-0.24 -4.39,2.24l11.57 0.73c-5.02,6.37 3.5,-0.92 -2.77,2.81 -4.52,2.69 -5.81,0.15 -8.68,5.94 -3.61,8.72 1.75,19.81 -3.86,27.34zm-19.48 -237.21l-2.49 5.7c0.49,-0.21 3.34,-1.51 3.86,-1.65 0.51,-0.13 1.01,-0.37 1.49,-0.44 0.34,-0.04 0.78,-0.12 1.07,-0.1l3.02 3.65c13.29,-0.55 17.35,1.92 12.66,15.75l7.92 -2.58c2.75,6.2 -2.08,-0.92 2.64,4.9 2,-1.85 1.32,2.23 3.33,-5.29 0.61,-2.29 0.48,-4.73 0.18,-7.05 -0.34,-2.6 -0.84,-3.75 -1.74,-6.2l-1.96 -5.26c-5.6,-3.09 -23.9,-13.92 -29.98,-1.43zm199.55 252.68l11.83 0.07c0.19,9.03 -0.84,20.49 1.65,27.52 15.06,4.66 10.68,-14.46 10.68,-27.57l12.09 0.41c-4.56,-5.1 -8.66,-5.61 -17.62,-3.67 -13.03,2.83 -11.59,1.09 -16.02,2.16 -0.4,0.09 -0.97,0.39 -1.3,0.49 -0.33,0.1 -0.92,0.3 -1.31,0.59zm-201.66 -223.66c3.21,5.51 2.55,4.28 8.75,7.23l-0.12 25.46c4.61,2.37 2.98,0.15 5.88,4.42 6.28,-15.22 1.21,-10.14 2.26,-21.97 1.18,-13.37 -1.37,-4.88 4.11,-7.89 1.34,-0.58 0.4,0.14 2.68,-1.55 0.2,-0.15 0.77,-0.38 0.91,-0.93 0.17,-0.6 0.62,-0.7 0.93,-1.06 -3.91,-1.99 -2.22,-1.73 -6.76,1.04 1.38,-10.3 4.82,-6.22 -4.77,-8.5l0 5.15c-6.74,1.5 -6.61,1.36 -13.87,-1.4zm101.88 88.02l-2.84 -4.44c7.41,0.53 -2.88,4.53 3.14,-0.72 2.59,-2.26 1.36,-5.58 -1.15,-10.56 -2.17,5.69 3.32,2.17 -6.27,3.77 -6.33,1.06 -20.34,-3.79 -22.26,4.52 -2.46,10.69 13.74,7.53 29.38,7.43zm-101.88 -88.02c7.26,2.76 7.13,2.9 13.87,1.4l0 -5.15c9.59,2.28 6.15,-1.8 4.77,8.5 4.54,-2.77 2.85,-3.03 6.76,-1.04 4.77,-1 6.01,-2.53 6.88,-7.5 -4.72,-5.82 0.11,1.3 -2.64,-4.9l-7.92 2.58c-10.21,2.64 -8.88,2.08 -15.89,-3.99l-8.51 -0.79c-0.47,-5.62 1.1,-6.4 -2.37,-8.72 -1.54,3.47 -1.75,5.56 -0.94,10.33 0.3,1.73 0.97,4.33 1.96,5.96 2.54,4.15 0.44,1.96 4.03,3.32zm315.02 68.14c0.25,-5.24 2.78,-3.61 9.25,-3.55 5.35,0.06 10.6,0.09 15.96,0.03 13.16,-15.74 -13.64,-11.97 -24.96,-11.94 0.62,9.29 0.02,1.75 -0.3,7.54 -0.18,3.22 -0.19,4.98 0.05,7.92zm-214.7 -3.39l0.14 -12.01c-12.19,-0.06 -29.85,-4.45 -27.35,9.47 6.44,3.98 18.22,2.41 27.21,2.54zm55.37 174.74l0.31 -15.34c-8.09,-0.18 -3.86,3.13 -12.45,0.81 0.18,8.74 -0.84,19.58 1.57,26.58 10.79,2.67 10.61,-1.7 10.57,-12.05zm-11.97 -251.18c9.2,-6.19 1.8,-2.31 4.81,1.59 -3.04,1.89 -2.05,1.01 -2.38,7.85 -0.14,2.98 -0.11,6.96 -0.01,9.41 3.21,2.93 4.71,3.76 10.32,5.31l1.97 -2.08 -2.85 -1.12c0.05,-6.19 0.37,-12.23 0.25,-17.93 -0.19,-8.71 -0.27,-9.91 -8.87,-9.35l-3.24 6.32zm48.25 183.78l-38.6 0.33c-3.56,3.89 -4.11,5.67 -5.63,11.7 5.94,-2.97 3.46,-1.35 6.93,-4.78 0.28,-0.27 -0.46,-3.73 6.61,-4.21 11.99,-0.82 4.25,7.62 12.1,6.76 4.58,-0.51 3.31,-7.98 12.69,-6.14 10.72,2.09 0.03,6.21 11.82,5.86 -0.76,-3.3 -0.58,-2.32 -2.04,-4.53l-1.49 -1.87c-2.89,-3.84 0.26,1.27 -2.39,-3.12zm131.29 8.65c13.4,-3.07 4.27,-5.51 13.7,-5.23 5.7,0.17 4.16,3.3 12.78,4.54l4.64 -3.34c7.83,-3.74 8.96,1.31 18.26,4.17 -7.68,-16.48 -10.37,-8.53 -24.58,-8.23 -11.19,0.24 -20.22,-7.1 -24.8,8.09zm-250.93 17.18l1.16 6.5 17.32 0.55 10.13 2.03c0.17,0.21 0.62,0.73 0.77,0.92 0.15,0.18 0.67,1.1 0.79,0.85 0.11,-0.24 0.53,0.53 0.79,0.8l0.19 -0.66c5.42,1.77 5.39,2.38 11.95,1.74l-0.47 -3.69 -1.23 -2.86c-1.69,2.46 -1.67,2.73 -1.81,2.38 -0.15,-0.42 -1.03,0.72 -1.41,1.22 -8.75,-4.33 -10.99,-4.23 -12.93,-14.95l-4.48 0.05c0.87,3.72 1.64,6.39 4.21,9.41 -13.02,0 -7,1.97 -15.3,-4.01l-9.68 -0.28zm246.76 -39.68c8.22,-0.28 17.94,0.77 23.79,-2.57 1.16,-5.15 0.55,-5.49 -1.07,-9.11l-16.8 -0.28c-0.76,3.01 -0.79,3.92 -2.24,6.53l-2.91 4.21c-0.19,0.29 -0.53,0.8 -0.77,1.22zm-96.26 13.85l-24.79 0.02c1.12,3.93 2.11,6.13 3.07,10.26l19.83 -0.79 1.89 -9.49zm-122.11 -25.34l-10.81 -0.75c-0.46,0.71 -2.2,3.64 -2.61,4.46l-0.54 2.34c3.79,3.56 3.63,2.83 9.46,3.82 4.33,0.74 7.43,1.45 11.87,1.79l-1.79 -16.53c-0.3,0.35 -1.46,1.69 -1.8,2.04 -3.75,3.72 3.55,-0.67 -3.78,2.83zm161.51 25.22l-4.84 0.21 -1.68 9.38c7.99,1 6.44,2.39 6.64,-5.81l13.65 0.05 -0.23 -11.61 -11.35 0c-0.07,2.77 1.19,7.64 -2.19,7.78zm-130.04 -120.82c0.31,0.14 0.8,-0.01 0.95,0.4 0.17,0.45 0.81,0.35 1.03,0.45 0.82,0.37 3.26,1.46 3.77,1.7l1.15 -2.78c0.86,0.15 5.45,0.83 5.85,0.79l2.03 -0.55c0.34,-0.11 1.18,-0.8 1.63,-1.06 -2.23,-3.02 -6.9,-11.45 -12.66,-11.09 -7.91,0.49 -5.2,7.53 -3.75,12.14zm-137.24 -70.76c3.47,2.32 1.9,3.1 2.37,8.72l8.51 0.79c-0.07,-5.97 1.55,-8.13 3.23,-11.76l-3.02 -3.65c-0.29,-0.02 -0.73,0.06 -1.07,0.1 -0.48,0.07 -0.98,0.31 -1.49,0.44 -0.52,0.14 -3.37,1.44 -3.86,1.65l2.49 -5.7c-4.13,2.31 -0.25,-1.86 -4.17,2.95 -2.74,3.34 -1.77,3.13 -2.99,6.46zm77.38 217.53l9.68 0.28c8.3,5.98 2.28,4.01 15.3,4.01 -2.57,-3.02 -3.34,-5.69 -4.21,-9.41 -3.84,-0.32 -8.69,-0.42 -12.83,-0.16 -6.48,0.42 -6.81,-0.17 -7.94,5.28zm-50.74 10.27c5.61,-7.53 0.25,-18.62 3.86,-27.34 2.87,-5.79 4.16,-3.25 8.68,-5.94 6.27,-3.73 -2.25,3.56 2.77,-2.81l-11.57 -0.73c-3.92,0.95 -3.39,0 -4.01,6.9 -0.24,2.6 -0.01,6.9 0.01,9.67 0.04,6.79 -0.07,13.45 0.26,20.25zm57.72 -35.65l-20.52 -1.72c-3.92,3.85 -5.51,4.45 -7.07,9.24 8.39,-0.56 7.11,-4.44 18.32,-4.71 1.12,0.35 1.54,4.21 7.21,5 3.94,-4.34 2.06,-1.76 2.06,-7.81zm56.75 6.77c-1.34,3.21 -0.48,1.53 -0.97,4.02l-0.19 11.26 2.41 0.53c4.46,-2.42 2.04,-1.03 5.03,-1.62 1.51,-3.14 1.41,-3.16 2.07,-5.77l1.08 -10.87c-8.43,1.5 -2.84,0.96 -5.57,1.8 -3.3,1.32 -1.28,0.56 -3.86,0.65zm186.39 22.9l1.94 -9.31c4.79,3.61 3.28,1.03 3.26,9.3l-5.2 0.01zm-8.36 2.68l19.8 0.13c7.26,-0.08 4.02,-0.3 5.9,-1.87l-9.2 -1.05 0.89 -9.68 -2.34 0.04 -10.64 0.16c1.13,13.95 -1.3,9.84 -1.3,9.84 -0.21,0.22 -0.7,0.49 -0.92,0.69l-2.19 1.74zm-212.61 -34.45c-6.54,0.72 -17.32,-1.23 -22.17,2.1 3.84,0.83 1.33,-0.58 3.64,3.28 1.28,2.15 -0.1,1.17 2.22,4.21l7.94 0.1 8.37 -9.69zm167.11 14.37l0.04 2.52c0.3,0.14 0.78,0.03 0.89,0.44 0.12,0.42 0.73,0.38 0.89,0.5 0.16,0.12 0.66,0.45 0.85,0.6l4.91 4.13c0.42,-8.32 2.75,-4.81 5.45,-9.93l-4 -4.8c-5.03,0.34 -9.67,-0.36 -12.62,1.75l3.59 4.79zm71.2 18.34c4.07,-0.41 1.33,1.24 3.6,-0.95l-0.47 -7.8c-3.16,-0.35 -0.69,-0.35 -5.85,-1.74l-5.59 -0.24 -0.89 9.68 9.2 1.05zm-238.8 -18.22l-0.15 7.48 1.63 2.16c0.35,0.32 0.96,0.73 1.3,1.01 0.4,0.33 1.35,1.35 1.68,0.95 0.35,-0.43 1.26,0.6 1.89,0.91 -1.32,-5.44 -4.3,-10.18 -0.64,-14.91 4.79,-6.2 4.32,0.25 6.98,-4.09 -1.52,-2.11 3,-2.19 -3.51,-2.3 -5.05,-0.09 -7.38,5.76 -9.18,8.79zm151.34 -12.74l-1.63 -0.05 -2.31 -0.09c-6.53,9.93 -9.74,3.9 -14.78,9.56l19.14 0.09 -0.42 -9.51zm53.06 -23.5c0.43,-7.73 0.24,-3.79 3.21,-5.28 0.5,13.87 -5.07,0.3 -3.22,12.53 9.17,-2.87 13.04,-15.51 0,-18.26l0.01 11.01zm-62.03 23.39l-14.2 0c-2.44,3.96 -3.73,4.66 -4.46,9.53 7.12,1.59 2.74,-1.6 8.01,-4.78 5.58,-3.37 6.18,1.75 10.65,-4.75zm32.81 20.92l0.71 1.06 3.16 1.32 2.58 -1.84c-4.86,-1.43 -1.79,-0.17 -3.03,-2.43 0.65,-1.39 0.21,-1.27 1.36,-3.48 4.02,3.05 2.32,0.13 3.06,4.99 3.96,0 2.27,-4.29 2.08,-7.84 -1.67,0.02 -1.7,-0.11 -4.47,-1.71 -2.7,5.12 -5.03,1.61 -5.45,9.93zm-27.8 55.33c2.91,-5.31 1.42,-16.44 1.45,-23.63l9.64 -0.12 0.97 22.82c0.05,-0.2 0.35,0.72 0.53,1.08l-0.79 -25.34 -11.61 0.45 -0.19 24.74zm66.81 -112.47l2.02 -1c-1.86,-5.15 -6.56,-6.02 -12.24,-6.77 1.28,6.52 3.03,5.15 10.22,7.77zm-186.24 55.36l5.96 3.37 0.19 -11.26c-4.82,2.92 -3.45,1.2 -6.15,7.89zm189.55 -33.03l0.6 0.05c0.24,-0.42 0.58,-0.93 0.77,-1.22l2.91 -4.21c1.45,-2.61 1.48,-3.52 2.24,-6.53l-3.8 -0.42c-2.27,8.03 -3.16,4.37 -2.72,12.33zm-152.21 80.05c-0.04,4.53 -0.98,7.64 1.32,9.98l-0.74 -24.75c-5.54,-0.63 -6.51,-0.95 -10.86,0.68l10.15 0.78 0.13 13.31zm161.37 -36.04c0.02,-8.27 1.53,-5.69 -3.26,-9.3l-1.94 9.31 5.2 -0.01zm-147.96 -20.59l9.57 0.02c-1.23,-1.56 -0.47,-2.77 -4.49,-2.86 -7.46,-0.17 -3.13,1.55 -5.08,2.84zm-22.71 0l10.28 0.39c-3.32,-4.49 -8.76,-4.17 -10.28,-0.39zm125.64 11.93c2.66,1 2.63,1.76 1.39,-0.92 -0.74,-4.86 0.96,-1.94 -3.06,-4.99 -1.15,2.21 -0.71,2.09 -1.36,3.48 1.24,2.26 -1.83,1 3.03,2.43z"/>
 </g>
</svg>
