<?xml version="1.0" encoding="UTF-8"?>
<!DOCTYPE svg PUBLIC "-//W3C//DTD SVG 1.1//EN" "http://www.w3.org/Graphics/SVG/1.1/DTD/svg11.dtd">
<!-- Creator: CorelDRAW 2019 (64-Bit) -->
<svg xmlns="http://www.w3.org/2000/svg" xml:space="preserve" width="100%" height="100%" version="1.1" style="shape-rendering:geometricPrecision; text-rendering:geometricPrecision; image-rendering:optimizeQuality; fill-rule:evenodd; clip-rule:evenodd"
viewBox="0 0 494.8 465.68"
 xmlns:xlink="http://www.w3.org/1999/xlink">
 <defs>
  <style type="text/css">
   <![CDATA[
    .fil0 {fill:#A6A182}
   ]]>
  </style>
 </defs>
 <g id="Layer_x0020_1">
  <metadata id="CorelCorpID_0Corel-Layer"/>
  <path class="fil0" d="M319.61 356.93c-7.59,3.49 -3.76,2.38 -15.99,-8.21 -6.76,-5.86 -19.68,-19.7 -27.19,-26.31 -2.71,-2.38 -12.25,-11.47 -13.19,-13.06l31.12 -15.44c1.63,-0.71 4.17,-1.87 5.44,-2.56 2.52,-1.38 2.4,-2.06 5.28,-2.13 1.03,-1.38 3.1,-2.38 4.87,-3.05l16.18 -7.79c12.65,-7.19 37.93,-18.19 53.15,-26.26 2.67,-1.41 7.88,-4.14 10.85,-4.83 0.44,-0.46 -0.35,-0.13 0.86,-0.62 1.37,-0.54 0.87,-0.08 1.13,-0.06 1.33,-1.76 3.69,-2.63 5.67,-3.56 3.87,-1.82 13.47,-7.08 16.45,-7.36 5.52,5.53 35.37,33.28 37.39,36.55 1.66,0.72 5.79,4.98 7.12,6.24 2.61,2.49 5.6,4.7 6.08,6.88 -11.84,6.09 -24.93,11.91 -36.86,18.02l-72.41 35.81c-7.44,3.75 -31.77,14.94 -35.95,17.74zm-258.64 -105.83c0.48,-0.76 0.27,-0.66 1.19,-1.75 0.55,-0.66 0.57,-0.57 0.93,-0.92 1.07,-1.02 1.2,-1.25 2.79,-1.99 0.91,-1.3 11.63,-11.47 12.6,-11.96l51.88 25.18c6.82,3.91 73.21,35.24 75.15,37.23 3.1,0.8 9.24,4.14 12.09,5.63 3.72,1.95 7.39,3.28 10.85,5.6 -0.45,2.24 -5.24,6.42 -7.5,7.5 -0.39,1.98 -8.28,8.7 -10.37,10.8 -3.44,3.46 -6.89,6.65 -11.1,10.44l-16.56 16.04c-1.01,0.92 -3.78,4.16 -5.4,5.05l-44.51 -21.87c-15.33,-6.93 -29.23,-14.88 -44.82,-21.71l-28.82 -14.52c-0.04,-0.15 -0.2,-0.14 -0.29,-0.23 -2.84,-0.87 -29.95,-14.06 -31.29,-15.49 0.53,-2.87 1.75,-2.84 4,-4.85 1.72,-1.53 2.42,-2.62 3.96,-4.05 1.66,-1.56 2.4,-2.25 4.33,-4.29 1.33,-1.4 2.67,-2.2 4.21,-3.76l16.68 -16.08zm376.82 -103.53c1.71,-0.29 26,11.48 29.92,14.15 -0.9,1.83 -7.11,8.02 -9.15,9.76l-16.06 15.34c-4.39,4.59 -8.38,7.97 -12.81,12.38 -2.23,2.23 -3.68,3.49 -6.59,6.31 -2.55,2.47 -3.89,4.28 -6.91,5.69 -1.86,0.1 -41.19,-20.83 -46.44,-22.18 0.2,3.1 1.22,9.41 -0.55,11.55 -0.75,3.49 -2,3.58 -3.21,6.76l31.12 15.29c-1.37,1.72 -4.39,2.62 -6.73,3.77 -2.51,1.23 -4.15,2.21 -7.12,3.04l-117.8 58.4c-20.27,8.91 -14.02,10.74 -25.59,5.35l-58.88 -29.04c-8.9,-4.74 -65.41,-31.29 -66.83,-32.86 -3.25,-1.25 -6.1,-2.84 -9.17,-4.38 -2.73,-1.37 -6.34,-2.31 -8.07,-4.28 4.34,-3.24 11.18,-5.12 16.08,-8.32 1.67,-0.75 1.15,-0.88 3.47,-0.72 1.41,-1.7 2.46,-2.17 4.54,-3.14 1.98,-0.93 3.72,-1.87 5.12,-2.38 -1.22,-6.29 -4.44,-4.02 -4.28,-17.64l-3.38 0.76c-1.05,1.36 -28.81,14.44 -35.58,17.96 -3.46,1.8 -4.58,0.08 -6.57,-1.64 -1.02,-0.87 -9.73,-9.11 -9.97,-10.39 -3.08,-1.33 -28.97,-27.33 -33.55,-31.56 -0.82,-0.76 -1.58,-1.46 -2.48,-2.41 -1.6,-1.7 -1.18,-0.52 -1.7,-2.65 3.02,-1.89 6.8,-3.46 9.87,-4.92 6.89,-3.28 24.46,-12.81 29.34,-14.08 1.18,-1.05 7.12,-4.66 9.77,-4.24l2.2 -1.97c0.85,-0.49 1.58,-0.67 2.53,-1.13 19.88,-9.72 17.3,-6.96 17.62,-16.73 0.16,-4.8 1.12,-7.55 1.3,-12.29 -4.13,0.49 -7.25,3.54 -11.69,4.92l-23.66 12.01c-2.83,1.26 -5.99,2.53 -7.98,3.66 -3.06,1.74 -30.52,15.4 -32.4,15.43 -0.62,0.72 -0.17,0.32 -1.03,0.97l-9.36 4.81c-7.21,3.55 -14.67,4.79 -13.59,12.28 0.48,3.35 6.89,8.61 9.7,11.31l32.02 30.72c2.69,2.31 20.18,19.07 20.85,20.76 -2.01,2.12 -8.82,9.23 -11,10.22 -0.22,0.76 0.32,-0.14 -0.73,1.25l-6.23 6.05c-1.42,1.47 -1.16,1.72 -2.48,1.99l-0.22 1.41c4,-0.58 0.94,0.48 2.94,-1.39 0.7,-0.66 0.65,-0.91 1.33,-1.84 3.88,0.33 4.71,-0.13 4.67,4.4 -0.03,2.79 -0.05,5.57 -0.05,8.37l-13.54 0 0.49 -5.5c-0.13,0.06 -1.24,0.6 -1.5,0.72 -0.09,0.04 -0.35,0.31 -0.43,0.18 -0.06,-0.11 -0.26,0.12 -0.39,0.18l-32.11 31.39c-12.25,11.69 0.65,14.52 16.9,22.11 2.05,0.96 2.99,1.87 5.08,2.84l88.32 43.44c0.99,0.73 0.43,0.25 1.12,1.02 2.36,-0.23 18.73,8.82 22.31,10.45 2.42,1.1 5.56,2.32 7.56,3.8l20.17 9.75c2.34,1.28 4.48,2.13 6.58,3.24 5.81,3.07 9.36,3.34 13.52,-0.62 8.46,-8.02 48.27,-47.85 51.25,-48.81l0.11 114.99c-4.03,-0.42 -25.03,-12.07 -32.32,-15.12l-4.28 -2.87c-2.1,0.13 -39.85,-19.01 -43.39,-20.78l-14.86 -7.22c-8.49,-3.92 -44.93,-22.58 -50.89,-24.91 -2.62,-1.02 -4.81,-2.73 -7.02,-3.83 0.04,-3.81 0.67,-14.73 -0.53,-17.2 -2.84,-1.57 -16.14,-8.18 -18.05,-8.19 -0.43,5.98 -0.07,13.36 -0.07,19.51 0,5.72 -1.29,13.29 2.11,17.37 1.66,1.99 9.65,5.75 12.66,7.1l12.94 7.08c2.17,-0.09 16.31,7.02 20.15,9.07l1.99 1.37c2.13,0.56 5.71,2.53 8.26,3.73l31.24 15.39c2.87,1.54 5.1,2.39 8.02,3.8 16.32,7.91 39.61,20.39 55.01,27.29 2.58,1.15 5.52,2.45 7.95,3.75l14.9 7.4c0.93,0.67 0.43,0.25 1.05,0.94 11.12,1.64 9.71,-2.97 15.48,-3.15l0.68 -0.68c1.22,-0.96 0.13,-0.24 1.13,-0.81 1.4,-0.8 5.37,-2.68 7.15,-2.76 0.85,-1.56 1.56,-1.48 3.24,-2.29l18.58 -8.99c3.12,-1.41 3.98,-2.68 7.77,-3.64 1.05,-1.22 3.71,-2.28 5.61,-2.38 1.27,-2.22 22.65,-12.07 24.82,-13.05l26.07 -12.45c0.26,-0.28 0.01,-0.14 0.87,-0.66 0.38,-0.23 0.67,-0.39 1.19,-0.6 1.65,-0.68 0.87,-0.73 2.49,-0.55 2.19,-2.43 53.96,-27.41 58.49,-29.48 4.25,-1.95 8.98,-3.32 10.54,-7.34 1.38,-3.56 0.73,-28.67 0.6,-34.61 -4.68,0.41 -12.63,6.2 -18.04,7.96l-0.18 17.12 -4.9 2.22c-0.53,1.04 -32.91,16.81 -36.64,18.39l-64.74 31.76c-2.97,1.43 -5.71,2.94 -9.39,4.72l-36.91 17.9 -0.17 -112.51c2.21,0.74 19.39,17.91 23.18,21.82 1.05,1.09 2.25,1.89 3.6,3.18 4.14,3.95 24.05,24.44 27.59,25.22 4.16,0.92 20.59,-8.64 26.95,-11.63 4.59,-2.17 42.34,-21.56 44.58,-21.15 1.65,-1.77 -0.34,-0.09 2.16,-1.65 4.3,-2.66 9.59,-4.43 14.34,-7.12l17 -8.12 10.87 -5.26c1.46,-1.59 -0.01,-0.32 2.21,-1.46 0.6,-0.31 0.99,-0.44 1.68,-0.77l49.55 -24.33c3.63,-1.56 11.03,-4.7 11.74,-8.57 1.09,-5.89 -4.68,-9.2 -7.51,-12.08l-10.02 -9.68c-2.04,-1.91 -8.7,-7.85 -9.82,-10.3 -1.88,-0.34 -9.69,-8.52 -12.09,-10.84 -3.37,-3.24 -2.84,-1.76 -3.29,-3.91 -2.9,-0.98 -11.22,-10.18 -14.54,-13.33 -1.94,-1.84 -3.39,-2.45 -4.43,-5 1.22,-1.9 18.09,-18.57 20.73,-19.81 0.29,-1.1 -0.6,-1.24 1.43,-1.1 1.45,-3.07 7.69,-8.24 10.63,-11.08 1.94,-1.88 3.49,-3.24 5.38,-5.07 1.61,-1.57 2.86,-3.89 5.47,-4.65 0.44,-1.06 0.26,-0.9 1.38,-2.05 1.09,-1.11 1.01,-0.96 2,-1.4 1.3,-2.34 3.37,-3.61 5.8,-6.16 7.67,-8.04 16.54,-11.63 8.92,-20.3l-31.19 -15.25c-2.55,-1.16 -4.27,-1.89 -6.44,-2.9l-18.62 -9.54c-2.09,-0.97 -4.54,-2.02 -6.52,-2.85l-35.76 -17.65c-0.9,-0.64 -0.42,-0.29 -0.79,-0.78l-1.62 0.64c0.71,5.66 0.79,14.42 1.67,19.69l11.39 6.01c4.05,1.89 7.34,3.55 11.18,5.48 4.76,2.4 20.61,9.16 22.61,11.88zm-211.06 -146.88c-16.79,2.71 -2.86,13.48 -15.13,17.43l-15.98 6.06c-7.42,3.15 -6.41,6.19 -15.03,-0.24 -3.84,-2.87 -3.5,-2.38 -8.59,-2.72 -1.07,1.49 -10.76,8.16 -15.33,12.59 -1.81,1.76 -0.99,0.43 -2.1,2.64 2.87,0.55 2.08,0.68 3.79,-0.98 3.35,-3.21 1.34,-0.88 4.21,-2.25 3.16,-1.51 -0.74,-0.87 7.28,-6.01 2.37,-1.53 1.63,-2.22 4.05,-2.75 0.87,-0.2 0.81,-0.17 1.72,-0.1 1.6,0.12 2.05,0.4 3.3,1.27 3.45,2.4 0.59,2.33 4.36,3.48 2.94,0.91 2.92,2.84 5.93,1.54 2.63,-1.14 1.63,-2.23 5.62,-2.03 1.96,0.1 5.35,-0.12 6.91,0.52 0.63,-7.12 -0.18,0.51 3.22,-5.27 0.79,-1.34 -0.15,-0.57 0.85,-1.44 0.68,0.43 1.23,0.51 1.71,1.72 0.06,0.14 0.11,0.3 0.15,0.46l-0.28 6.08c-4.38,1.78 -2.59,0.72 -5.08,1.41 -2.52,0.7 -1.23,1.16 -3.88,2.54 -1.95,-0.78 -0.3,-0.24 -1.67,-1.06 -2.04,-1.21 -1.39,-0.75 -3.66,-0.22 1.17,3.12 0.95,-0.55 2.17,2.87 -7.22,5.14 -3.03,-3.77 -8.17,0.9 0.63,0.52 1.68,1.64 2.24,2.79l-0.79 0.46c-0.1,0.06 -0.28,0.16 -0.4,0.22l-1.68 0.83c-2.94,1.68 -7.7,3.02 -10.55,1.46 -2.43,-1.33 -1.77,-4.31 -2.14,-5.65 -0.55,-2 1.1,1.33 -0.53,-1.11 -0.74,-1.1 -0.31,-0.46 -0.84,-0.93l-2.27 -1.04c-1.08,2.44 0.68,1.64 -2.47,3.37 -1.79,0.97 -2.61,0.53 -4.07,1.45 -2.6,1.62 0.92,-0.98 -1.28,2.83l-3.26 2.89c-2.5,-1.45 -0.82,-1.7 -2.57,-3.38 -2.26,-2.16 -1.88,-0.39 -2.76,-4.09 -1.87,0.86 -1.91,1.09 -3.39,2.58l-8.3 9.54c-6.14,8.22 -5.33,8.71 0.55,15.64 2.43,2.86 3.05,4.5 0.9,7.96l-7.34 15.9c-1.75,5.05 -0.45,5.46 -4.4,8.36l9.47 0.06 1.48 -2.03c0.09,-0.12 0.24,-0.33 0.37,-0.49l0.71 1.59c0.04,0.13 0.1,0.32 0.13,0.46 0.17,0.69 0.19,1.48 0.09,2.22 -0.43,3.41 -1.39,2.7 -2.03,4.21 -0.07,0.16 -0.05,5.88 -0.62,8.05l1.11 0.62c-0.66,0.44 -1.1,0.6 -1.72,1.35 -1.87,2.27 -0.54,0.13 -1.15,2.27 5.07,-1.46 4.56,-8.73 5.9,-14.15 1.25,-5.04 3.68,-10.15 5.03,-15.02 -0.18,0.05 -0.42,0.01 -0.51,0.25 -0.05,0.16 -2.39,1.02 -3.26,2.99 -0.41,0.92 -0.1,1.71 -0.9,2.81 -0.55,0.75 -0.1,0.47 -1.14,0.89 -3.34,1.35 -2.62,-2.87 -2.58,-4.37 0.03,-1.34 -1.6,-6.54 0.3,-10.2 1.03,-2 -0.27,-1.28 1.84,-1.39 2.36,-0.12 0.51,-0.21 1.54,0.92l0.49 -9.2c0.12,-3.15 0.86,-5.28 -2.76,-7.43l-3.08 -1.24c1.01,-3.91 -0.92,-4.47 3.05,-7.64 4.1,-3.26 1.73,-2.67 3.67,-6.83 1.9,-0.19 3.35,-0.6 4.24,1.13 0.79,-1.39 0.62,-2.16 1.29,-3.7l3.52 3.96c-0.23,10.72 1.45,8.31 4.59,12.31l-0.78 6.29c-1.15,2.66 -1.66,1.47 -2.98,3.9l-2.91 5.19c0.69,1.65 0.06,0.63 0.95,1.87 0.13,-0.1 0.32,-0.45 0.38,-0.34 0.05,0.11 0.28,-0.27 0.36,-0.35 2.18,-2.38 2.64,-4.39 5.29,-7.71 2.03,-2.54 4.75,-6.03 1.7,-9.74 -2.03,-1.62 -2.75,-2.86 -3.76,-5.1 -3.14,-6.23 7.47,-12.21 7.61,-12.26 6,-1.95 6.26,5.73 16.99,4.67l0.46 0.23c1.2,-2.04 0.49,-1.07 2.71,-2.58 6.77,-4.58 5.11,-3.37 11.63,-6.75l13.48 -6.13c7.56,-2.88 16.72,-2.08 23.15,-6.43l0.55 -2.9c-3.21,0.99 -1.67,0.54 -3.77,2 -1.66,1.16 -8.39,2.39 -11.03,3.03 -3.05,0.74 -5.69,0.85 -8.24,-0.06 -6.42,-2.28 -2.35,-1.38 -4.59,-4.36 1.46,-2.02 0.21,-1.17 2.91,-1.78 2.64,-0.6 7.56,-0.08 8.42,-1.29 1.8,-0.27 -1.08,0.76 0.52,-7.32 1.79,-9.06 1.87,-5.29 2.17,-6.54l2.77 -1.06c10.66,-1.86 5.29,-3.24 16.43,-1.44 -0.86,1.89 0.68,2.15 -2.38,1.85 0.86,0.51 0.58,0.45 2.02,0.53 0.52,-0.83 0.63,-1.7 0.88,-2.88 6.02,-0.3 12.05,-0.63 18.04,0.07 -0.49,3.91 -0.14,0.97 -1.23,2.88 1.71,0.16 2.9,0.95 3.25,0.94 2.05,-0.01 2.04,-3.56 10.43,-0.88 -1.78,-0.6 -0.05,0 0.28,1.65 0.74,3.7 -0.29,7.74 -0.31,11.58 -1.75,1.51 2.39,1.2 -2.45,1.23 0,6.11 0.39,4.94 -1.74,6.51 -1.58,-1.36 -1.84,0.44 -1.84,-6.51 -3.5,-0.54 -2.21,1.26 -2.55,-2.46 -0.02,2.74 -0.87,3.82 -2.47,1.85 2.13,1.36 1.96,-0.4 2.31,2.51 0.37,3.15 0.1,1.03 -0.33,1.72 -1.52,2.4 1.47,0.26 -1.34,0.9 -1.74,0.4 -3.26,-1.4 -3.91,-3.48 -1.73,-5.48 1.11,-8.58 -4.91,-10.87 -2.44,-0.93 -11.82,-1.14 -14.29,-0.37 -5.19,1.64 -4.46,8.24 -4.55,11.43 1.94,-1.11 1.34,0.2 2.14,-1.23 0.62,-8.3 3.63,-9.11 13.24,-8.24 8.56,0.77 4.28,8.31 8.01,13.11 2.08,2.67 9.17,2.79 16.24,4.71 2.63,0.71 5.37,1.49 8.1,2.44l5.15 2.15c0.12,0.08 0.29,0.2 0.4,0.27l1.17 1.06c2.53,-0.25 0.87,0.06 2.72,0.85 1.06,0.4 1.67,0.57 2.83,0.92 -0.63,-2.23 0.8,-1.01 -1.6,-1.89l0.2 0.03c-0.31,-0.68 2.04,1.75 -0.15,-0.24 -2.05,-1.86 -4.55,-1.21 -4.97,-3.95 3.68,-1.83 8.21,-0.88 12.1,-0.37 0.89,0.12 9.29,-1.39 11.45,-1.75 3.21,-3.42 5.54,-3.91 10.89,-4.16 0.71,2.02 0.54,1.39 0.38,3.95 4.2,0.18 6.81,3.04 8.62,6.34 -6.4,3.34 -5.86,1.17 -9.58,3.2l-0.75 0.45c-2.27,1.47 -2.83,3.51 -2.54,4.29 2.79,-0.1 0.81,-0.17 3.16,-1.14 5.59,-2.31 12.72,6.61 12.36,9.81 -0.26,2.4 -2.38,4.91 -4.03,5.81 -0.9,5.5 -3.62,3.69 0.51,10.16l5.93 7.92c0.31,-5.78 -1.45,-6.48 -4.21,-9.6 -0.83,-2.21 3.05,-4.62 3.49,-5.11 0.83,-0.92 -1.26,0.18 1.1,-1.44 -0.97,-0.47 -2.04,-0.71 -3.04,-1.16l0.3 -3.28c2.03,-5.8 3.4,2.14 0.24,-9.73 -0.05,-0.16 -0.08,-0.33 -0.12,-0.49l-1.79 -3.05c-1.68,-2.32 -1.34,-6.37 1.14,-5.93 3.67,0.66 10.62,11.22 13.97,14.33 6.59,6.11 3.86,7.12 4.86,11.29 1.95,-1.57 -0.31,0.97 1.23,-1.04 1.2,-1.59 1.4,-3.37 0.47,-5.71 -1,-2.5 -10.12,-12.69 -11.91,-14.6 -2.88,-3.08 -5.96,-5.72 -8.89,-8.34l-8.54 -6.83c-0.82,-1.01 -0.51,-0.58 -0.82,-1.57 -5.46,-0.15 -4.34,-4.94 -12.29,1.11 -9.26,7.06 -6.84,2.22 -23.1,-3.26 -2.05,-0.7 -10.53,-3.47 -11.85,-4.8 -2.47,-2.48 -1.16,-10.43 -3.61,-12.99 -4.52,-4.73 -39.73,-2.82 -46.03,-2.46zm125.24 115.27c4.12,0.22 10.49,0.52 12.09,3.71 1.55,3.11 1.36,9.7 -0.34,12.37 -2.41,3.78 -7.75,1.77 -11.56,3.78 -3.98,2.1 -2.92,3.51 -3.97,7.21l-1.15 2.62c0.44,4.09 -2.68,12.03 -4.1,15.47 -1.9,4.6 -3.48,10.74 -6.99,12.85 -0.09,2.03 -1.17,4.19 -2.65,4.98 -1.22,3.05 -2.23,3.53 -3.89,6.22 -5.24,8.5 8.53,11.73 3.1,18.35 -12.8,15.61 -12.51,-1.33 -24.17,2.12 -1.13,0.81 -2.68,1.95 -4.11,2.81 -0.86,0.51 -1.63,0.78 -2.4,1.34 -2.14,1.56 -0.81,0.44 -1.7,1.84 0.17,0.01 0.42,-0.19 0.51,-0.02 0.27,0.52 1.07,-1.03 3.71,0.49l2.35 1.96c1.41,-1.42 1.11,-1.11 3.87,-1.28 -2,-1.94 -1.44,-2.23 -1.37,-5.96 9.82,-0.64 5.96,7.48 19.94,4.85 4.46,-7.15 4.11,-0.43 6.51,-10.97l0.54 -1.59c0.08,-0.2 0.23,-0.39 0.31,-0.55 0.08,-0.16 0.21,-0.37 0.34,-0.54 2.08,0.08 4.03,-0.83 4.28,5.48 0.18,4.37 0.32,5.15 -3.67,5.58 0,2.3 0,2.07 -0.61,3.69 -2.08,-0.69 -2.23,-0.01 -1.23,-0.61l0.35 1.22c-0.23,1.94 -0.33,1.32 -0.56,1.8 -2.35,0.65 -2.45,0.32 -4.29,-0.66l-0.17 4.53c-5.96,1.23 -0.61,2.48 -10.09,7 -0.98,-1.06 -0.92,1.21 -1.23,-3 -1.86,-0.07 -3.66,-0.56 -4.47,-0.24 -0.82,0.33 -1.3,1.46 -2.36,2.03 -1.94,0.41 -6.95,-4.19 -13.45,-1.86 -2.87,1.03 -0.81,1.72 -6.17,2.26 -5.16,0.52 -2.64,0.92 -4.93,3.03 -2.42,0.61 -4.82,0.35 -6.96,1.53 -3.57,1.98 -2.48,1.64 -6.57,2.02 -0.15,3.36 -1.67,4.3 -2.21,7.41 -0.52,2.95 -0.39,5.09 -1.24,7.99 -4.03,0.19 -8.98,1.86 -13.74,1.87 -11.69,0.02 -20.42,0.49 -31.63,-1.22 -7.03,-1.07 -5.68,-4.56 -6.42,-10.49 2.54,-2.32 2.4,0.99 2.34,-8.61 -2.58,-0.94 -0.99,0.21 -1.84,-2.46 4.31,-0.21 7.21,0.21 12.28,0.57 -0.73,0.47 -0.9,-0.76 -0.07,0.89 0.82,1.61 1.69,0.76 1.93,4.72 0.15,2.44 0.27,2.69 0.6,4.6 0.41,2.38 -0.17,1.99 0,4.62 7.49,0.41 11.3,-0.65 18.47,0.7 1.69,-1.75 1.95,-2.21 4.92,-2.56l0.81 0.97c0.07,0.07 0.27,0.24 0.41,0.35 -1.5,-2.64 1.58,0.06 0.41,-3.71l-0.82 -6.77c0.48,-6.36 6.97,-2.59 11.81,-5.17 1.73,-0.92 -0.06,-0.93 3.18,-1.49 4.7,-0.83 3.22,-0.4 7.13,-2.08 2.84,-1.21 4.44,-0.66 7.47,-0.39 3.32,-4.12 2.64,-3.68 1.83,-5.36 -2.97,0.79 -5.64,2.49 -8.74,3.43 -3.02,0.93 -5.76,2 -8.38,2.51 -3.89,0.75 -5.93,1.51 -9.78,2.06 -1.98,0.28 -2.81,0.19 -4.45,1.17 -1.66,0.98 -0.61,0.31 -1.61,1.38 -0.06,0.07 -0.19,0.23 -0.25,0.3 -0.05,0.06 -0.19,0.24 -0.23,0.28l-0.43 0.56c-0.69,7.81 -0.48,11.55 -8.79,11.99 -10.4,0.55 -9.68,-0.89 -11.62,-9.16 -1.81,-7.72 -6.55,-5.95 -13.38,-7.71 -6.3,-1.63 -11.37,-3.36 -16.85,-4.87l0 3.27c1.86,0.1 3.94,0.82 5.18,1.47 2.11,1.1 2.23,1.9 3.36,4.66 -0.17,0.15 -0.44,0.08 -0.56,0.37 -1.12,2.74 -0.08,0.16 -1.08,0.64 -6.37,3.06 -7.51,-0.05 -9.23,-1.17 -1.85,-1.2 -1.8,-0.49 -4.23,-1.18 -3.98,-1.14 -4.54,-3.47 -8.84,-2.58 2.8,3.25 15.15,7.55 19.21,8.74 3.95,1.16 6.54,1.8 7.45,6.07 0.37,1.75 0.5,3.75 0.86,5.76l1.82 4.46c0.06,0.09 0.19,0.29 0.24,0.37 0.05,0.08 0.18,0.24 0.24,0.37 3.44,0.24 7.3,1.18 12.02,1.51 9.47,0.67 29.63,0.94 37.51,-1.25 8.48,-2.35 0.78,-12.83 9.88,-16.5 3.49,-1.41 6.22,-1.67 9.8,-3.25 2.77,-1.21 5.58,-2.32 8.91,-3.9 3.98,-1.88 5.23,-4.05 10.1,-0.87 2.04,1.33 5.88,4.53 8.24,4.83 7.71,0.97 28.85,-22.15 34.78,-29.63 1.35,-1.7 4.76,-6.35 1.52,-9.51l-0.56 1.73c-0.05,0.23 -0.04,0.37 -0.08,0.6 -1.06,6.66 -0.83,0.91 -1.38,4.78l-4.6 -1.33c-1.87,-1.14 -1.51,2.33 -1.54,-2.28l-6.15 0c-1.63,-1.94 -1.1,2.56 -1.23,-2.57 -2.31,0.83 -0.48,0.7 -1.24,4.3 -5.17,-1.62 -1.89,-3.12 -3.76,-6.61l-1.16 -1.48c-0.53,-2.45 3.82,-6.87 5.58,-8.98 2.12,-2.55 1.89,-5.92 4.9,-9.09l1.69 -0.79c0.56,-4.1 -0.39,-7.77 4.27,-9.05 0.68,1.69 0.61,1.32 0.61,3.69 0.31,-2.11 5.42,-2.25 3.93,2.65 -0.74,2.45 -2.89,4.69 -1.62,6.85 2.25,-1.54 5.63,-12.6 6.98,-15.91 2.88,-7.04 10.02,-1.41 15.65,-6.55 2.56,-2.34 1.83,-4.27 2.36,-8.41 0.73,-5.77 2.33,-27.24 -0.32,-30.9 -1.82,7.35 2.07,11.25 -0.48,18.92l-1.45 5.23c-1.21,3.28 -0.31,4.08 -0.25,8.01 -0.19,2.85 -2.03,4.83 -3.74,6.74 -4.4,0.14 -17.08,-0.61 -17.65,6.55l-1.54 0c-1.17,-14.53 -0.54,-4.68 0.54,-16.52 2.81,-1.21 1.86,-0.19 3.54,-1.35l3.69 -1.53c2.07,-1.6 3.83,-2.13 6.37,-3.05 1.31,-0.48 1.28,-0.69 1.79,-1.68l1.53 -4.28c0.23,-3.7 0.07,-3.04 1.15,-5.54 -2.79,-1.43 -0.11,0.73 -2.72,-3.3l-1.62 -2.27c-3.68,-4.01 -0.23,-2.15 -3.06,-2.96l-3.14 -1.11c-2.35,-1.19 -2.57,-1.08 -3.79,-2.61 -2.5,-3.13 1.21,1.12 -4.95,-3.46l-1.84 -1.18c0.48,5.36 0.97,6.67 4.26,9.88zm-175.03 -26.57c1.62,-0.01 0.98,0.25 1.71,0.33 2.03,0.21 1.6,0.45 1.79,-1.97 1.64,0.59 0.61,0.22 1.65,1.1 0.06,0.05 0.87,1.01 0.97,1.1 3.42,-0.17 3.15,-0.55 5.54,0.33l1.15 0.7c-2.03,3.26 -1.42,1.22 -4.11,2.47 -0.41,6.83 -1.85,6.41 -3.13,11.97 -0.66,2.85 -0.91,2.52 -3.64,3.7 -1.33,0.57 -1.26,0.63 -2.25,1.25 -2.06,1.28 0.52,0.87 -3.4,1.38 -0.63,-8.64 -1.71,-8.17 2.25,-15.28 0.71,4.16 -1.03,1.66 -0.14,3.61 0.58,1.27 1.54,1.84 1.61,4.28l1.04 0c0,-2.33 0.25,-6.41 0.07,-8.47 -0.28,-3.16 -1.23,-1.97 -1.11,-6.5zm8.7 -7.76c-0.11,-0.27 -0.8,0.12 -0.18,-2.25l4.22 -5.5c5.06,-2.11 0.66,1.24 5.07,-3.75 2.03,-2.3 -0.96,-0.54 2.45,-1.91 1.74,2.1 1.19,4.5 -0.11,7.13 -0.95,1.93 -0.94,1.11 -1.89,2.51 -0.94,1.4 -0.79,-0.61 -0.83,2.91 -7.2,0.76 -2.61,1.83 -7.52,1.23 -0.17,-0.02 -0.48,0.06 -0.6,-0.17 -0.13,-0.24 -0.41,-0.12 -0.61,-0.2zm16.49 -21.02c-1.76,1.73 -0.51,0.78 -2.05,1.1 -1.31,1.7 -2.86,2.32 -4.54,3.64 -1.12,0.87 -3.16,3.12 -4.53,3.49 -0.79,1.83 -3.51,4.48 -5.16,5.76 -4.11,2.44 -11.61,16.11 -13.76,20.86 -10.03,22.19 -7.84,49.99 5.16,70.19l7.04 10.18c-0.51,-1.49 0.1,0.42 -0.62,-2.42l1.8 0.73 -0.63 -4.53c-2.35,-1.01 -1.62,0.49 -3.69,-1.74 0.83,-4 5,-2 1.35,-5.17l4.25 -0.87 0.61 3.21c11.01,0.76 5.78,3.56 11.19,6.61 5.23,2.95 0.58,0.06 3.29,3.19 1.64,1.9 3.44,1.24 6.44,4.72 4.94,0 0.56,0.29 2.31,-1.6 -1.42,-1.58 -4.64,-3.57 -6.24,-4.93 -2.36,-2 -4.06,-3.57 -5.98,-5.68 -3.27,-3.57 -8.37,-9.35 -9.58,-13.62l0.18 -0.31c-2.42,-1.39 -3.58,-7.21 -4.69,-10.28 -4.51,-12.44 -3.69,-25.2 0.44,-37.09 3.63,-10.49 9.82,-19.01 17.58,-25.98l7.49 -6.33c0.09,-0.78 2.46,-3.78 2.51,-5.64 -0.64,-1.65 -0.27,-0.57 -0.67,-2.72 2.3,-0.49 2.71,-0.38 3.5,-2.11l-6.93 -0.04c0.88,-2.8 0.14,0.01 0.99,-1.98 0.54,-1.26 0.3,-0.24 0.76,-2.24 -0.89,0.41 -1.36,0.74 -2.4,0.83 -2.2,0.19 -1.46,1.13 -2.58,-0.62 -1.66,0.86 -0.82,0.63 -2.84,1.39zm98 151.02c-1.64,-0.02 -9.08,3.98 -9.8,4.57 0.81,1.68 1.49,1.24 -1.83,5.36 -3.03,-0.27 -4.63,-0.82 -7.47,0.39 -3.91,1.68 -2.43,1.25 -7.13,2.08 -3.24,0.56 -1.45,0.57 -3.18,1.49 -4.84,2.58 -11.33,-1.19 -11.81,5.17l0.82 6.77c1.17,3.77 -1.91,1.07 -0.41,3.71 -0.14,-0.11 -0.34,-0.28 -0.41,-0.35l-0.81 -0.97c-2.97,0.35 -3.23,0.81 -4.92,2.56 -7.17,-1.35 -10.98,-0.29 -18.47,-0.7 -0.17,-2.63 0.41,-2.24 0,-4.62 -0.33,-1.91 -0.45,-2.16 -0.6,-4.6 -0.24,-3.96 -1.11,-3.11 -1.93,-4.72 -0.83,-1.65 -0.66,-0.42 0.07,-0.89 -5.07,-0.36 -7.97,-0.78 -12.28,-0.57 0.85,2.67 -0.74,1.52 1.84,2.46 0.06,9.6 0.2,6.29 -2.34,8.61 0.74,5.93 -0.61,9.42 6.42,10.49 11.21,1.71 19.94,1.24 31.63,1.22 4.76,-0.01 9.71,-1.68 13.74,-1.87 0.85,-2.9 0.72,-5.04 1.24,-7.99 0.54,-3.11 2.06,-4.05 2.21,-7.41 4.09,-0.38 3,-0.04 6.57,-2.02 2.14,-1.18 4.54,-0.92 6.96,-1.53 2.29,-2.11 -0.23,-2.51 4.93,-3.03 5.36,-0.54 3.3,-1.23 6.17,-2.26 6.5,-2.33 11.51,2.27 13.45,1.86 1.06,-0.57 1.54,-1.7 2.36,-2.03 0.81,-0.32 2.61,0.17 4.47,0.24 0.31,4.21 0.25,1.94 1.23,3 9.48,-4.52 4.13,-5.77 10.09,-7l0.17 -4.53c1.84,0.98 1.94,1.31 4.29,0.66 0.23,-0.48 0.33,0.14 0.56,-1.8l-0.35 -1.22c-1,0.6 -0.85,-0.08 1.23,0.61 0.61,-1.62 0.61,-1.39 0.61,-3.69 3.99,-0.43 3.85,-1.21 3.67,-5.58 -0.25,-6.31 -2.2,-5.4 -4.28,-5.48 -0.13,0.17 -0.26,0.38 -0.34,0.54 -0.08,0.16 -0.23,0.35 -0.31,0.55l-0.54 1.59c-2.4,10.54 -2.05,3.82 -6.51,10.97 -13.98,2.63 -10.12,-5.49 -19.94,-4.85 -0.07,3.73 -0.63,4.02 1.37,5.96 -2.76,0.17 -2.46,-0.14 -3.87,1.28l-2.35 -1.96c-2.64,-1.52 -3.44,0.03 -3.71,-0.49 -0.09,-0.17 -0.34,0.03 -0.51,0.02zm-181.86 -62.45c3.22,7.96 13.52,-0.06 16.71,9.05 2.25,6.41 4.25,12.17 7.02,17.53 1.39,2.68 4.01,5.13 2.05,8.49 -0.54,0.92 -2.01,2.66 -2.61,3.48 -0.71,0.95 -2.29,2.47 -2.81,3.38 -3.53,6.16 5.86,12.23 7.68,16.74 1.34,0.16 0.05,-0.78 1.43,1.04l0.47 0.93c1.76,0.82 5.42,4.82 8.28,7.4 3.68,3.31 13.29,12.75 18.56,12.57 3.31,-0.12 9.19,-4.91 10.33,-6.26 -0.96,-1.25 1.98,-0.11 -1.1,-0.76 -1.11,-0.23 -1.22,-0.13 -2.45,-0.15 -1.21,2.61 -2.86,3.47 -4.93,4.78 -4.91,-2.3 1.61,-0.46 -6.17,-2.58 -4.84,-1.31 1.5,-0.51 -6.49,-2.82 0.29,-5.48 1.33,1.1 0.98,-3.07 -0.25,-5.96 -0.51,-7.95 7.38,-7.14 0.11,-0.14 0.19,-0.56 0.24,-0.46l0.49 -0.88c0.62,-0.87 -0.07,-0.36 0.88,-1.07 0.49,-0.37 6.84,-2.78 8.4,-2.14 1.26,0.5 0.42,2.32 3.79,3.91 0.13,0.06 0.29,0.13 0.42,0.18l3.84 1.87c6.72,5.81 7.15,-1.51 7.16,3.26l2.5 -0.4c-1.17,-1.37 -7.95,-5.04 -9.66,-6.01 -3.43,-1.95 -6.86,-5.62 -11.29,-4.9 -4.6,0.75 -11.53,11.84 -19.89,-2.12 -6.57,-3.2 9.66,-10.48 2.54,-19.05l-4.34 -5.32c0.3,7.39 1.52,3.36 2.53,7.16 0.59,2.2 0.06,5.73 -0.53,7.8 -0.18,0.01 -0.41,-0.03 -0.53,-0.06l-0.96 -0.21c-0.17,-0.06 -0.97,-0.59 -1.12,-0.68 -1.35,-0.82 0.23,-0.69 -1.7,-0.81 0,1.16 -0.62,1.9 -0.68,2.07 -1.28,3.43 -0.19,5.43 -3.65,6.36 -1.07,0.29 -1.21,0.18 -2.43,0.18 -2.63,-6.99 2.47,-10.89 -2.41,-10.51l2.12 -2.4c-0.89,-0.83 -0.3,0.04 -0.95,-0.74 -1.79,-2.18 0.22,2.14 -0.69,-1.19 -0.94,-3.46 2.51,-3.77 -0.52,-9.27 -1.5,-2.7 -0.5,-2.11 -3.36,-3.88 -2.84,-1.75 -0.05,-3.98 -3.4,-9.46 -3.56,-5.8 -2.17,-6.58 0.87,-8.53 1.84,-1.17 0.7,-0.62 2.4,-3.22 0.13,-0.2 0.38,-0.2 0.49,-0.61 0.1,-0.43 0.31,-0.45 0.52,-0.62 0,2.54 1.06,8.2 0.95,8.61 0.34,-1.25 0.04,0.19 -0.23,-0.98l-0.34 -4.41c1.46,3.89 0.15,3.06 1.85,7.24 1.2,2.93 0.63,2.82 2.6,4.53 3.8,3.3 -1.24,-1.92 1.32,1 0.02,2.17 -0.09,4.53 0.83,6.57 1.99,4.42 1.68,-0.56 3.49,4.55l2.44 -0.32c-1.33,-4.97 -9.58,-14.03 -12.94,-36.01 -0.5,-3.31 -1.36,-2.71 -1.69,-4.53 -6.76,-1.56 -13.6,-0.86 -14.79,-7.23 -0.74,-3.97 -0.43,-10.19 3.97,-11.78 0.87,-0.31 1.2,-0.25 2.02,-0.48l1.55 -0.54c0.09,-0.21 0.34,-0.13 0.48,-0.23 -1.11,-1.49 -1.98,-0.53 -4.29,-0.83 -2.78,-0.35 -0.88,-0.74 -3.37,-1.62 -2.67,5.18 -1.54,11.05 -3.57,17.38 3.84,1.38 2.36,3.48 3.73,5.54 1.59,0 3.94,0.17 4.77,0.32l4.46 1.53c-0.21,2.51 -4.81,3.37 -6.39,4.24 -4.31,2.37 1.8,1.67 -3.46,2.52l0 3.08c3.63,0 3.01,-1.6 6.03,0.94l0.74 0.9c-2.6,2.16 -5.58,1.15 -8.33,0.8l-7.24 -1.65zm191.11 -46.67c1.14,-2.29 1.03,-3.13 1.07,-6.61 -2.49,-1.5 -0.94,1.34 -1.97,-2.09l-1.03 1c-1.15,0.49 0.08,0.72 -1.98,0.2l-1.09 -7.14c3.13,-0.08 3.04,0.32 5.44,-0.65 1.36,-0.56 -1.45,-0.4 1.8,-0.76 1.91,5.53 1.29,4.2 3.69,5.13 -0.13,-0.15 -0.82,-0.81 -0.91,-0.94 -2.1,-2.85 -0.21,-1.87 -2.64,-5.43 -1.91,-2.79 -1.28,-2.19 -0.89,-4.34 -0.12,-2.42 -6.85,-8.99 -8.63,-10.64 -9.4,-8.78 -29.94,-20.83 -40.77,-20.1 -11.01,2.05 -21.19,-3.26 -26.64,2.88l-1.58 1.29c-3.84,1.93 -2.02,-3.35 -8.22,-0.24 0.23,1.74 0.14,1.05 0.88,2.05l1.56 1.41c1.28,1.76 -0.52,0.05 0.63,3.04 0.05,0.12 0.2,0.34 0.25,0.44 1.33,2.9 9.18,1.15 11.96,0.78 3.32,-0.43 8.13,-0.22 12.26,-0.44 0.13,-0.17 0.25,-0.67 0.31,-0.57l0.76 -1.57c0.48,-1.09 0.07,-0.7 0.63,-1.59 2.38,0 1.67,0.14 3.63,-0.52 1.86,-0.63 -0.28,-1.44 3.63,0.5 3.54,1.76 2.11,-0.07 4.63,0.02l-9.9 4.44c1.15,-0.19 10.85,1.67 13.53,1.77 0.52,0.96 0.28,0.54 -0.3,2.09 6.91,0.6 5.79,5.3 9.65,1.56 1.71,2.79 5.58,6.64 8.36,8.15 1.69,0.92 0.64,0.15 1.8,1.36 0.1,0.11 0.2,0.26 0.3,0.36l0.58 0.71c0.03,0.03 0.55,0.57 0.62,0.63 1.5,1.32 1.98,0.99 3.49,1.96 2.69,1.75 2.69,6.18 6.92,7.98 1.01,0.43 1.11,0.26 1.98,0.5 1.12,2.75 -0.11,5.66 2.18,8.22 2.39,2.65 0.98,-0.76 3.13,3.89l0.88 1.27zm-20.25 70c-2.94,0.98 -2.67,2.59 -4.81,2.62 -0.34,0.52 -0.93,1.26 -0.95,1.29 -0.7,1.06 -0.23,0.15 -0.53,0.94 0.32,3.66 -0.84,3.42 -4.12,4.36 -4,1.14 -3.3,-0.06 -4.01,4.25 -3.24,0.96 -5.19,1.01 -9.27,1.38 -5.67,0.52 -4.35,2.03 -13.36,2.03 -1.77,0 -2.95,-0.05 -4.09,0.97 -0.13,0.12 -0.47,0.54 -0.58,0.68l-0.45 0.8c-1.54,2.88 -0.68,5.3 -2.39,5.33 -1.8,0.02 -2.09,-5.64 -2.14,-7.7 -6.11,-0.05 -2.71,1.87 -5.74,0.71l-1.06 -0.48c-0.2,2.65 -0.6,1.84 -2.56,3.4l0.59 0.83c0.27,0.58 0.77,1.32 0.37,2.37l-0.66 0.95c-1.04,1.45 -1.01,0.58 -1.45,2.66 4.75,0.11 9.87,-0.05 14.51,0.14 3.17,0.13 16.33,-0.55 19.99,-1.82 1.41,-0.5 1.45,-0.52 2.53,-1.21 0.43,-0.28 1.59,-1.22 1.73,-1.29 3.57,-1.98 8.95,2.51 8.95,-5.09 3.12,0.05 5.85,0.76 8.3,-0.83l5.98 -4.5c0.2,-2.92 0.83,-2.36 -1.06,-3.66l1.26 -1.07c1.33,1.75 0.53,1.06 2.75,1.85l2.6 -2.17c0.08,-0.09 0.2,-0.22 0.28,-0.3l0.54 -0.6c1.31,-1.5 1.69,-1.93 2.92,-3.3 2.42,-2.67 1.88,-1.42 3.46,-2.71 2.29,-1.88 0.5,-2.69 4.65,-2.73 1.43,-0.56 -0.22,1.99 0.92,-1.02 -1.44,-0.77 -1.3,1.1 -1.84,-2.33 5.35,-7.22 -1.47,0.02 5.98,-9.43l2.01 -2.88c-2.92,-2.42 -6.37,-1.02 -8.4,-0.18 -0.74,0.3 0.71,0.19 -0.82,0.18 3.5,-0.24 0.49,0.14 2.46,-0.61 -1.45,-1.7 -0.08,-1.39 -2.7,-1.85 -0.98,-0.17 -1.07,0.14 -1.5,0.59 -1.33,1.39 -0.02,1.55 -1.82,3.81l-2.47 2.51c-3.14,4.25 -0.63,4.91 -6.39,10.21 -2.36,2.17 -6.33,2.92 -7.61,2.9zm69.09 -61.7c-0.33,-3.31 -1.06,-1.19 -1.05,-2.87 0,-0.07 0.02,-0.25 0.03,-0.33 0.36,-2.36 1.57,-2.28 2.78,-3.91 0.09,-0.13 0.2,-0.3 0.28,-0.42l0.57 -0.97c1.41,0.08 2.98,0.35 4.33,0.3 2.55,-0.1 1.88,-0.44 3.81,-1.14 0.01,0.81 0.64,0.97 1.55,1.5 1.48,0.87 0.69,2.34 2.62,0.31l-0.33 1.07c-0.52,1.2 -0.06,0.49 -0.59,1.2 -0.22,0.3 -1.31,0.68 -1.95,2.23 -0.39,0.96 -0.07,0.68 -0.35,1.52 -0.54,1.62 0.35,1.31 -1.77,1.97 -0.61,0.2 -5.39,0.37 -6.14,0.25 -3.76,-0.59 -1.23,-1.31 -3.79,-0.71zm-22.09 -35.46c0.14,1.9 0.66,1.71 1.93,3.86 0.83,1.41 1.44,2.65 2.06,4.07 1.49,3.47 2.62,5.74 3.79,9.64 1.95,3.02 2.78,11.12 3.8,13.16l1.84 1.18c6.16,4.58 2.45,0.33 4.95,3.46 1.22,1.53 1.44,1.42 3.79,2.61l3.14 1.11c2.83,0.81 -0.62,-1.05 3.06,2.96l1.62 2.27c2.61,4.03 -0.07,1.87 2.72,3.3 -1.08,2.5 -0.92,1.84 -1.15,5.54 1.41,-1.31 -0.11,-0.55 0.9,-2.38 1.53,-2.77 -1.58,-1.56 3.32,-1.93 0.95,1.14 0.71,0.47 1.17,2.41l0.06 8.04c-2.78,1.14 -1.67,-0.36 -2.39,2.36 0.51,0.8 -0.04,-0.55 0.64,1.25 0.48,1.26 0.18,0.53 0.57,1.95 0.45,1.65 0.7,2.19 1.2,3.42 -0.06,-3.93 -0.96,-4.73 0.25,-8.01l1.45 -5.23c2.55,-7.67 -1.34,-11.57 0.48,-18.92 0.6,-3.87 -0.71,-5.75 -0.18,-9.63 -2.05,-0.67 -0.78,-0.73 -2.76,-2.08 -2.47,-1.67 -7.51,-1.34 -10.82,-2.19 -5.14,-1.31 -5.96,-12.52 -12.02,-23.07 -4.74,-8.27 -1.17,-6.03 1.31,-11.58 -2.42,-0.31 -2.11,-0.03 -4.17,0.38 -0.8,2.12 -1.23,4.58 -1.23,7.38l0.47 -1.85c-2.34,2.17 -0.61,1.23 -6.01,1.23l0 -6.15c-0.82,-0.38 -2.19,-1.07 -3.35,-1.49l0.57 -0.71c0.07,-0.08 0.21,-0.24 0.29,-0.33 0.83,-0.94 0.05,0.12 0.94,-1 1.41,-1.78 1.38,0.89 0.95,-2.04 -0.38,-2.64 -2.42,-0.91 -5.55,-0.58l0 -3 -0.3 3.28c1,0.45 2.07,0.69 3.04,1.16 -2.36,1.62 -0.27,0.52 -1.1,1.44 -0.44,0.49 -4.32,2.9 -3.49,5.11 2.76,3.12 4.52,3.82 4.21,9.6zm-204.38 21.86c-6.85,1.34 -11.74,0.93 -13.59,4.56 -4.13,8.1 -2.59,47.56 0.11,47.41l7.24 1.65c2.75,0.35 5.73,1.36 8.33,-0.8l-0.74 -0.9c-3.02,-2.54 -2.4,-0.94 -6.03,-0.94l0 -3.08c5.26,-0.85 -0.85,-0.15 3.46,-2.52 1.58,-0.87 6.18,-1.73 6.39,-4.24l-4.46 -1.53c-0.83,-0.15 -3.18,-0.32 -4.77,-0.32 -1.37,-2.06 0.11,-4.16 -3.73,-5.54 2.03,-6.33 0.9,-12.2 3.57,-17.38 2.49,0.88 0.59,1.27 3.37,1.62 2.31,0.3 3.18,-0.66 4.29,0.83 1.85,0.33 3.25,0.34 4.4,-0.51 0.61,-2.14 -0.72,0 1.15,-2.27 0.62,-0.75 1.06,-0.91 1.72,-1.35l-1.11 -0.62c0.57,-2.17 0.55,-7.89 0.62,-8.05 0.64,-1.51 1.6,-0.8 2.03,-4.21 0.1,-0.74 0.08,-1.53 -0.09,-2.22 -0.03,-0.14 -0.09,-0.33 -0.13,-0.46l-0.71 -1.59c-0.13,0.16 -0.28,0.37 -0.37,0.49l-1.48 2.03 -9.47 -0.06zm103.9 -75.74l0.64 -1.85c-0.8,1.43 -0.2,0.12 -2.14,1.23 0.09,-3.19 -0.64,-9.79 4.55,-11.43 2.47,-0.77 11.85,-0.56 14.29,0.37 6.02,2.29 3.18,5.39 4.91,10.87 0.65,2.08 2.17,3.88 3.91,3.48 2.81,-0.64 -0.18,1.5 1.34,-0.9 0.43,-0.69 0.7,1.43 0.33,-1.72 -0.35,-2.91 -0.18,-1.15 -2.31,-2.51 1.6,1.97 2.45,0.89 2.47,-1.85 0.34,3.72 -0.95,1.92 2.55,2.46 0,6.95 0.26,5.15 1.84,6.51 2.13,-1.57 1.74,-0.4 1.74,-6.51 4.84,-0.03 0.7,0.28 2.45,-1.23 0.02,-3.84 1.05,-7.88 0.31,-11.58 -0.33,-1.65 -2.06,-2.25 -0.28,-1.65 -8.39,-2.68 -8.38,0.87 -10.43,0.88 -0.35,0.01 -1.54,-0.78 -3.25,-0.94 1.09,-1.91 0.74,1.03 1.23,-2.88 -5.99,-0.7 -12.02,-0.37 -18.04,-0.07 -0.25,1.18 -0.36,2.05 -0.88,2.88 -1.44,-0.08 -1.16,-0.02 -2.02,-0.53 3.06,0.3 1.52,0.04 2.38,-1.85 -11.14,-1.8 -5.77,-0.42 -16.43,1.44l-2.77 1.06c-0.3,1.25 -0.38,-2.52 -2.17,6.54 -1.6,8.08 1.28,7.05 -0.52,7.32 -0.86,1.21 -5.78,0.69 -8.42,1.29 -2.7,0.61 -1.45,-0.24 -2.91,1.78 2.24,2.98 -1.83,2.08 4.59,4.36 2.55,0.91 5.19,0.8 8.24,0.06 2.64,-0.64 9.37,-1.87 11.03,-3.03 2.1,-1.46 0.56,-1.01 3.77,-2zm-7.52 171.62c-0.07,-3.22 -0.59,-0.9 -1.26,-4.86l5.73 0.24c-0.06,1.38 -0.15,2.38 -0.34,3.15 -1.14,4.61 -1.99,-0.28 -1.99,6.79 -3.41,-0.03 -6.75,0.08 -8.07,-2.24 -1.22,-2.16 -1.79,-2.87 1.41,-2.67 2.77,0.17 1.23,-1.62 1.89,2.13 0.71,-4.07 -1.08,-1.67 2.63,-2.54zm54.71 -15.73c-4.11,1.09 -27.75,17.36 -54.57,8.06 -12.29,-4.25 -6.79,-2.52 -15.76,-6.82 -0.86,1.38 -1.53,-2.47 -0.57,2.28 1.92,1.21 3.86,2.53 6.17,3.4 3.04,1.14 4.45,1.75 6.01,4.4 -1.37,1 -2.15,1.24 -2.54,3.02 -3.74,-0.62 -1.76,-0.82 -4.68,-0.22l-9.99 -1.07c-2.45,-0.94 -1.25,-1.46 -4.36,-2.18 -0.96,-9.73 -3.37,-6.57 -5.35,-11.42 -1.54,0 -3.35,-0.08 -4.85,0.15l-2.5 0.48c-1.43,-0.3 -1.15,-1.31 -2.18,-2.44 -1.92,-2.11 -0.41,-1.55 -4,-1.59 0.72,2.84 0.11,0.93 0.62,2.42 1.86,0.96 1.68,1.27 2.93,2.63 0.72,0.78 1.45,1.35 2.25,2.08 11.65,10.64 23.57,17.43 40.48,20.91 11.74,2.42 21.35,1.8 32.91,-0.09 11.57,-1.9 23.31,-9.02 25.41,-9.24 0.59,-0.75 0.26,-0.35 1.03,-1.01 5.13,-4.34 16.73,-10.98 22.01,-20.5 -4.15,0.04 -2.36,0.85 -4.65,2.73 -1.58,1.29 -1.04,0.04 -3.46,2.71 -1.23,1.37 -1.61,1.8 -2.92,3.3l-0.54 0.6c-0.08,0.08 -0.2,0.21 -0.28,0.3l-2.6 2.17c-2.22,-0.79 -1.42,-0.1 -2.75,-1.85l-1.26 1.07c1.89,1.3 1.26,0.74 1.06,3.66l-5.98 4.5c-2.45,1.59 -5.18,0.88 -8.3,0.83 0,7.6 -5.38,3.11 -8.95,5.09 -0.14,0.07 -1.3,1.01 -1.73,1.29 -1.08,0.69 -1.12,0.71 -2.53,1.21 -3.66,1.27 -16.82,1.95 -19.99,1.82 -4.64,-0.19 -9.76,-0.03 -14.51,-0.14 0.44,-2.08 0.41,-1.21 1.45,-2.66l0.66 -0.95c0.4,-1.05 -0.1,-1.79 -0.37,-2.37l-0.59 -0.83c1.96,-1.56 2.36,-0.75 2.56,-3.4l1.06 0.48c3.03,1.16 -0.37,-0.76 5.74,-0.71 0.05,2.06 0.34,7.72 2.14,7.7 1.71,-0.03 0.85,-2.45 2.39,-5.33l0.45 -0.8c0.11,-0.14 0.45,-0.56 0.58,-0.68 1.14,-1.02 2.32,-0.97 4.09,-0.97 9.01,0 7.69,-1.51 13.36,-2.03 4.08,-0.37 6.03,-0.42 9.27,-1.38 0.71,-4.31 0.01,-3.11 4.01,-4.25 3.28,-0.94 4.44,-0.7 4.12,-4.36zm25.57 -27.05c0.19,-1.03 0.35,-1.95 0.72,-2.86 1.01,-2.5 0.18,0.12 1.14,-1.99 1.31,-2.88 0.1,-3.49 1.17,-5.51 0.95,-1.8 1.51,-1.18 3.02,-3.6 2.43,-3.88 2.18,-1.48 2.4,-4.44l1.89 0 0.08 2.24c0.89,-4.06 0.61,-1.8 1.98,-1.92 2.06,2.49 0.73,14.58 0.33,15.34 -1.22,0.3 0.22,0.86 -0.86,-0.27 -2.25,-2.38 1.19,-2.56 -2.95,-2.63 -0.08,2.62 -0.08,1.58 -0.67,2.92 -0.78,1.78 -2,3.13 -4.38,3.33 -1.12,0.09 -2.15,-0.36 -3.87,-0.61zm6.9 -58.72c2.74,4.18 1.74,6.01 3.64,9.21 0.07,0.13 0.18,0.27 0.26,0.39 0.08,0.11 0.2,0.25 0.28,0.35 2.57,3.59 4,19.3 3.29,24.71 -0.49,3.73 -0.85,3.32 -3.11,4.05 -0.94,-2.99 -0.34,-2.93 -0.7,-5.76 -0.47,-3.76 -0.03,-2.5 0.34,-5.73 -5.47,-0.32 0.56,1.26 -7.97,1.2 0.16,2.71 -0.32,8.2 0.28,9.73 0,0.63 0.1,4.67 0.02,5.07 -0.9,4.4 -0.57,1.86 -2.12,2.55 -0.57,1.19 -1.89,7.74 -2.85,10.21 -2.27,5.8 -6.97,12.83 -10.73,17.54 -2.01,2.51 -5.11,4.66 -6.81,7.4 1.28,0.02 5.25,-0.73 7.61,-2.9 5.76,-5.3 3.25,-5.96 6.39,-10.21l2.47 -2.51c1.8,-2.26 0.49,-2.42 1.82,-3.81 0.43,-0.45 0.52,-0.76 1.5,-0.59 2.62,0.46 1.25,0.15 2.7,1.85 -1.97,0.75 1.04,0.37 -2.46,0.61 1.53,0.01 0.08,0.12 0.82,-0.18 2.03,-0.84 5.48,-2.24 8.4,0.18l-2.01 2.88c-7.45,9.45 -0.63,2.21 -5.98,9.43 0.54,3.43 0.4,1.56 1.84,2.33 -1.14,3.01 0.51,0.46 -0.92,1.02 0.75,-0.31 5.26,-7.51 5.92,-8.73 10.02,-18.5 11.78,-42 4.66,-61.98 -1.24,-3.47 -7.46,-17.58 -11.02,-19.02 -0.39,2.15 -1.02,1.55 0.89,4.34 2.43,3.56 0.54,2.58 2.64,5.43 0.09,0.13 0.78,0.79 0.91,0.94zm-129.93 131.94l5.04 0.09c4.3,-0.89 4.86,1.44 8.84,2.58 2.43,0.69 2.38,-0.02 4.23,1.18 1.72,1.12 2.86,4.23 9.23,1.17 1,-0.48 -0.04,2.1 1.08,-0.64 0.12,-0.29 0.39,-0.22 0.56,-0.37 -1.13,-2.76 -1.25,-3.56 -3.36,-4.66 -1.24,-0.65 -3.32,-1.37 -5.18,-1.47l0 -3.27c-0.93,-1.19 -3.52,-2.19 -5.5,-2.08l-2.5 0.4c-0.01,-4.77 -0.44,2.55 -7.16,-3.26l-3.84 -1.87c-0.13,-0.05 -0.29,-0.12 -0.42,-0.18 -3.37,-1.59 -2.53,-3.41 -3.79,-3.91 -1.56,-0.64 -7.91,1.77 -8.4,2.14 -0.95,0.71 -0.26,0.2 -0.88,1.07l-0.49 0.88c-0.05,-0.1 -0.13,0.32 -0.24,0.46 -7.89,-0.81 -7.63,1.18 -7.38,7.14 0.35,4.17 -0.69,-2.41 -0.98,3.07 7.99,2.31 1.65,1.51 6.49,2.82 7.78,2.12 1.26,0.28 6.17,2.58 2.07,-1.31 3.72,-2.17 4.93,-4.78 1.23,0.02 1.34,-0.08 2.45,0.15 3.08,0.65 0.14,-0.49 1.1,0.76zm19.59 -164.31c1.12,1.75 0.38,0.81 2.58,0.62 1.04,-0.09 1.51,-0.42 2.4,-0.83 1.47,-1.65 1.92,-1.9 4.48,-2.28 2.13,1.88 1.75,1.8 2.46,3.71l0.92 -3.13c0.12,-0.31 -0.14,-2.22 2.79,-1.95 3.89,0.35 3.37,6.07 -2.68,7.32 0.59,1.91 2.61,0.19 2.43,3.05 -0.18,2.98 -4.43,2.22 -8.05,2.37 -0.05,1.86 -2.42,4.86 -2.51,5.64 3.23,-0.89 2.48,-1.84 5.37,-1.73 0.18,-0.63 -1.39,-1.11 4.24,-3.04 2.19,-0.75 3.78,-1.28 5.91,-2.1 22.38,-8.67 53.57,-0.1 69.04,17.39 2.48,2.79 5.72,6.42 6.9,9.79 1.75,1.32 3.31,5.66 4.43,7.87 1.59,3.17 2.07,6.57 3.28,10.19 2.68,8.06 1.56,16.85 0.56,25.25 1.55,-0.69 1.22,1.85 2.12,-2.55 0.08,-0.4 -0.02,-4.44 -0.02,-5.07 0,-3.95 0.35,-9.83 -0.05,-13.55 -0.62,-5.76 -1.99,-7.15 -2.19,-13.68l-0.88 -1.27c-2.15,-4.65 -0.74,-1.24 -3.13,-3.89 -2.29,-2.56 -1.06,-5.47 -2.18,-8.22 -0.87,-0.24 -0.97,-0.07 -1.98,-0.5 -4.23,-1.8 -4.23,-6.23 -6.92,-7.98 -1.51,-0.97 -1.99,-0.64 -3.49,-1.96 -0.07,-0.06 -0.59,-0.6 -0.62,-0.63l-0.58 -0.71c-0.1,-0.1 -0.2,-0.25 -0.3,-0.36 -1.16,-1.21 -0.11,-0.44 -1.8,-1.36 -2.78,-1.51 -6.65,-5.36 -8.36,-8.15 -3.86,3.74 -2.74,-0.96 -9.65,-1.56 0.58,-1.55 0.82,-1.13 0.3,-2.09 -2.68,-0.1 -12.38,-1.96 -13.53,-1.77l9.9 -4.44c-2.52,-0.09 -1.09,1.74 -4.63,-0.02 -3.91,-1.94 -1.77,-1.13 -3.63,-0.5 -1.96,0.66 -1.25,0.52 -3.63,0.52 -0.56,0.89 -0.15,0.5 -0.63,1.59l-0.76 1.57c-0.06,-0.1 -0.18,0.4 -0.31,0.57 -4.13,0.22 -8.94,0.01 -12.26,0.44 -2.78,0.37 -10.63,2.12 -11.96,-0.78 -0.05,-0.1 -0.2,-0.32 -0.25,-0.44 -1.15,-2.99 0.65,-1.28 -0.63,-3.04l-1.56 -1.41c-0.74,-1 -0.65,-0.31 -0.88,-2.05 6.2,-3.11 4.38,2.17 8.22,0.24l1.58 -1.29c5.45,-6.14 15.63,-0.83 26.64,-2.88 -4.3,-3.88 -33.7,-1.41 -44.92,3.49l-11.58 5.59zm-50.4 -22.77c-1.1,0.06 -0.77,-0.27 -0.84,0.78 0.88,3.7 0.5,1.93 2.76,4.09 1.75,1.68 0.07,1.93 2.57,3.38l3.26 -2.89c2.2,-3.81 -1.32,-1.21 1.28,-2.83 1.46,-0.92 2.28,-0.48 4.07,-1.45 3.15,-1.73 1.39,-0.93 2.47,-3.37l2.27 1.04c0.53,0.47 0.1,-0.17 0.84,0.93 1.63,2.44 -0.02,-0.89 0.53,1.11 0.37,1.34 -0.29,4.32 2.14,5.65 2.85,1.56 7.61,0.22 10.55,-1.46l1.68 -0.83c0.12,-0.06 0.3,-0.16 0.4,-0.22l0.79 -0.46c-0.56,-1.15 -1.61,-2.27 -2.24,-2.79 5.14,-4.67 0.95,4.24 8.17,-0.9 -1.22,-3.42 -1,0.25 -2.17,-2.87 2.27,-0.53 1.62,-0.99 3.66,0.22 1.37,0.82 -0.28,0.28 1.67,1.06 2.65,-1.38 1.36,-1.84 3.88,-2.54 2.49,-0.69 0.7,0.37 5.08,-1.41l0.28 -6.08c-0.04,-0.16 -0.09,-0.32 -0.15,-0.46 -0.48,-1.21 -1.03,-1.29 -1.71,-1.72 -1,0.87 -0.06,0.1 -0.85,1.44 -3.4,5.78 -2.59,-1.85 -3.22,5.27 -1.56,-0.64 -4.95,-0.42 -6.91,-0.52 -3.99,-0.2 -2.99,0.89 -5.62,2.03 -3.01,1.3 -2.99,-0.63 -5.93,-1.54 -3.77,-1.15 -0.91,-1.08 -4.36,-3.48 -1.25,-0.87 -1.7,-1.15 -3.3,-1.27 -0.91,-0.07 -0.85,-0.1 -1.72,0.1 -2.42,0.53 -1.68,1.22 -4.05,2.75 -8.02,5.14 -4.12,4.5 -7.28,6.01 -2.87,1.37 -0.86,-0.96 -4.21,2.25 -1.71,1.66 -0.92,1.53 -3.79,0.98zm3.11 142.21c-0.13,-1.63 0.61,0.12 -0.23,-1.12 -0.65,-0.95 -0.25,-0.32 -0.86,-0.71l-2.44 0.32c-1.81,-5.11 -1.5,-0.13 -3.49,-4.55 -0.92,-2.04 -0.81,-4.4 -0.83,-6.57 -2.56,-2.92 2.48,2.3 -1.32,-1 -1.97,-1.71 -1.4,-1.6 -2.6,-4.53 -1.7,-4.18 -0.39,-3.35 -1.85,-7.24l0.34 4.41c0.27,1.17 0.57,-0.27 0.23,0.98 0.11,-0.41 -0.95,-6.07 -0.95,-8.61 -0.21,0.17 -0.42,0.19 -0.52,0.62 -0.11,0.41 -0.36,0.41 -0.49,0.61 -1.7,2.6 -0.56,2.05 -2.4,3.22 -3.04,1.95 -4.43,2.73 -0.87,8.53 3.35,5.48 0.56,7.71 3.4,9.46 2.86,1.77 1.86,1.18 3.36,3.88 3.03,5.5 -0.42,5.81 0.52,9.27 0.91,3.33 -1.1,-0.99 0.69,1.19 0.65,0.78 0.06,-0.09 0.95,0.74l-2.12 2.4c4.88,-0.38 -0.22,3.52 2.41,10.51 1.22,0 1.36,0.11 2.43,-0.18 3.46,-0.93 2.37,-2.93 3.65,-6.36 0.06,-0.17 0.68,-0.91 0.68,-2.07 1.93,0.12 0.35,-0.01 1.7,0.81 0.15,0.09 0.95,0.62 1.12,0.68l0.96 0.21c0.12,0.03 0.35,0.07 0.53,0.06 0.59,-2.07 1.12,-5.6 0.53,-7.8 -1.01,-3.8 -2.23,0.23 -2.53,-7.16zm25.99 -5.25c3.59,0.04 2.08,-0.52 4,1.59 1.03,1.13 0.75,2.14 2.18,2.44l2.5 -0.48c1.5,-0.23 3.31,-0.15 4.85,-0.15 1.98,4.85 4.39,1.69 5.35,11.42 3.11,0.72 1.91,1.24 4.36,2.18l9.99 1.07c2.92,-0.6 0.94,-0.4 4.68,0.22 0.39,-1.78 1.17,-2.02 2.54,-3.02 -1.56,-2.65 -2.97,-3.26 -6.01,-4.4 -2.31,-0.87 -4.25,-2.19 -6.17,-3.4 -0.96,-4.75 -0.29,-0.9 0.57,-2.28l-1.92 -0.64c-1.75,1.89 2.63,1.6 -2.31,1.6 -3,-3.48 -4.8,-2.82 -6.44,-4.72 -2.71,-3.13 1.94,-0.24 -3.29,-3.19 -5.41,-3.05 -0.18,-5.85 -11.19,-6.61l-0.61 -3.21 -4.25 0.87c3.65,3.17 -0.52,1.17 -1.35,5.17 2.07,2.23 1.34,0.73 3.69,1.74l0.63 4.53 -1.8 -0.73zm125.71 -70.9c0.2,6.53 1.57,7.92 2.19,13.68 0.4,3.72 0.05,9.6 0.05,13.55 -0.6,-1.53 -0.12,-7.02 -0.28,-9.73 8.53,0.06 2.5,-1.52 7.97,-1.2 -0.37,3.23 -0.81,1.97 -0.34,5.73 0.36,2.83 -0.24,2.77 0.7,5.76 2.26,-0.73 2.62,-0.32 3.11,-4.05 0.71,-5.41 -0.72,-21.12 -3.29,-24.71 -0.08,-0.1 -0.2,-0.24 -0.28,-0.35 -0.08,-0.12 -0.19,-0.26 -0.26,-0.39 -1.9,-3.2 -0.9,-5.03 -3.64,-9.21 -2.4,-0.93 -1.78,0.4 -3.69,-5.13 -3.25,0.36 -0.44,0.2 -1.8,0.76 -2.4,0.97 -2.31,0.57 -5.44,0.65l1.09 7.14c2.06,0.52 0.83,0.29 1.98,-0.2l1.03 -1c1.03,3.43 -0.52,0.59 1.97,2.09 -0.04,3.48 0.07,4.32 -1.07,6.61zm43.62 88.31c-1.02,-2.38 -4.3,-4.66 -5.14,-7.09 -1.42,-4.14 1.68,-5.7 2.68,-9.7 -1.39,0.59 -1.08,-0.71 -1.4,1.22l-0.76 -0.97c-0.76,-1.41 -0.55,-1.1 -0.26,-2.86 -3.06,-0.05 -4.74,-0.79 -4.93,-0.87l-1.41 -0.66c-3.01,3.17 -2.78,6.54 -4.9,9.09 -1.76,2.11 -6.11,6.53 -5.58,8.98l1.16 1.48c1.87,3.49 -1.41,4.99 3.76,6.61 0.76,-3.6 -1.07,-3.47 1.24,-4.3 0.13,5.13 -0.4,0.63 1.23,2.57l6.15 0c0.03,4.61 -0.33,1.14 1.54,2.28l4.6 1.33c0.55,-3.87 0.32,1.88 1.38,-4.78 0.04,-0.23 0.03,-0.37 0.08,-0.6l0.56 -1.73zm-19.23 -136.06l0 3c3.13,-0.33 5.17,-2.06 5.55,0.58 0.43,2.93 0.46,0.26 -0.95,2.04 -0.89,1.12 -0.11,0.06 -0.94,1 -0.08,0.09 -0.22,0.25 -0.29,0.33l-0.57 0.71c1.16,0.42 2.53,1.11 3.35,1.49l0 6.15c5.4,0 3.67,0.94 6.01,-1.23l-0.47 1.85c0,-2.8 0.43,-5.26 1.23,-7.38 2.06,-0.41 1.75,-0.69 4.17,-0.38 1.38,-0.61 1.19,-0.21 1.21,-1.74 -1,-4.17 1.73,-5.18 -4.86,-11.29 -3.35,-3.11 -10.3,-13.67 -13.97,-14.33 -2.48,-0.44 -2.82,3.61 -1.14,5.93l1.79 3.05c0.04,0.16 0.07,0.33 0.12,0.49 3.16,11.87 1.79,3.93 -0.24,9.73zm-190.23 6.86c3.62,2.15 2.88,4.28 2.76,7.43l-0.49 9.2c-1.03,-1.13 0.82,-1.04 -1.54,-0.92 -2.11,0.11 -0.81,-0.61 -1.84,1.39 -1.9,3.66 -0.27,8.86 -0.3,10.2 -0.04,1.5 -0.76,5.72 2.58,4.37 1.04,-0.42 0.59,-0.14 1.14,-0.89 0.8,-1.1 0.49,-1.89 0.9,-2.81 0.87,-1.97 3.21,-2.83 3.26,-2.99 0.09,-0.24 0.33,-0.2 0.51,-0.25l4.58 -9.49c-0.89,-1.24 -0.26,-0.22 -0.95,-1.87l2.91 -5.19c1.32,-2.43 1.83,-1.24 2.98,-3.9 -4.42,-0.76 -5.04,0.58 -5.09,-2.69 -1.93,0.64 -0.61,0.27 -1.56,1.21 -2.56,2.51 1.5,-0.1 -0.72,0.98l-0.13 -3.95c-5.67,-4.38 -0.43,-0.94 -4.69,-5.67l-0.79 4.52c-2.67,-0.39 -2.17,-0.64 -3.52,1.32zm150.61 -24.73l11.22 6.8c2.13,1.42 3.41,2.86 6.87,2.57 2.54,-0.21 5.37,-1.48 5.96,-3.47 -2.65,-0.77 -3.19,0.2 -5.35,-1.02 0.94,-5.55 0.4,-0.57 2.27,-2.73 0.38,-0.44 0.63,0.21 0.63,-2.55l-2.02 0c-0.16,4.31 0.46,1.68 -1.8,2.51 0.03,-4.15 0.86,-3.05 0.92,-5.85l-3.07 -1.84c0.9,-2.37 -0.56,-1.16 1.4,-2.59 -2.16,0.36 -10.56,1.87 -11.45,1.75 -3.89,-0.51 -8.42,-1.46 -12.1,0.37 0.42,2.74 2.92,2.09 4.97,3.95 2.19,1.99 -0.16,-0.44 0.15,0.24l-0.2 -0.03c2.4,0.88 0.97,-0.34 1.6,1.89zm-150.61 24.73c1.35,-1.96 0.85,-1.71 3.52,-1.32l0.79 -4.52c4.26,4.73 -0.98,1.29 4.69,5.67l0.13 3.95c2.22,-1.08 -1.84,1.53 0.72,-0.98 0.95,-0.94 -0.37,-0.57 1.56,-1.21 0.05,3.27 0.67,1.93 5.09,2.69l0.78 -6.29c-3.14,-4 -4.82,-1.59 -4.59,-12.31l-3.52 -3.96c-0.67,1.54 -0.5,2.31 -1.29,3.7 -0.89,-1.73 -2.34,-1.32 -4.24,-1.13 -1.94,4.16 0.43,3.57 -3.67,6.83 -3.97,3.17 -2.04,3.73 -3.05,7.64l3.08 1.24zm214.45 75.9l-3.69 1.53c-1.68,1.16 -0.73,0.14 -3.54,1.35 -1.08,11.84 -1.71,1.99 -0.54,16.52l1.54 0c0.57,-7.16 13.25,-6.41 17.65,-6.55 1.71,-1.91 3.55,-3.89 3.74,-6.74 -0.5,-1.23 -0.75,-1.77 -1.2,-3.42 -0.39,-1.42 -0.09,-0.69 -0.57,-1.95 -0.68,-1.8 -0.13,-0.45 -0.64,-1.25l-1.94 5.07c-0.32,0.64 -0.88,1.68 -1.24,2.57 -0.39,0.97 -0.36,1.13 -0.58,1.88l-6.15 0c-0.34,-1.18 -0.8,-3 -1.09,-4.45 -0.69,-3.51 -0.33,0.2 0.68,-3.74 -3.9,-0.04 -1.52,-0.17 -2.43,-0.82zm-46.81 -108.8c-1.96,1.43 -0.5,0.22 -1.4,2.59l3.07 1.84c-0.06,2.8 -0.89,1.7 -0.92,5.85 2.26,-0.83 1.64,1.8 1.8,-2.51l2.02 0c0,2.76 -0.25,2.11 -0.63,2.55 -1.87,2.16 -1.33,-2.82 -2.27,2.73 2.16,1.22 2.7,0.25 5.35,1.02 -0.29,-0.78 0.27,-2.82 2.54,-4.29l0.75 -0.45c3.72,-2.03 3.18,0.14 9.58,-3.2 -1.81,-3.3 -4.42,-6.16 -8.62,-6.34 0.16,-2.56 0.33,-1.93 -0.38,-3.95 -5.35,0.25 -7.68,0.74 -10.89,4.16zm-134.24 60.67c-0.12,4.53 0.83,3.34 1.11,6.5 0.18,2.06 -0.07,6.14 -0.07,8.47l-1.04 0c-0.07,-2.44 -1.03,-3.01 -1.61,-4.28 -0.89,-1.95 0.85,0.55 0.14,-3.61 -3.96,7.11 -2.88,6.64 -2.25,15.28 3.92,-0.51 1.34,-0.1 3.4,-1.38 0.99,-0.62 0.92,-0.68 2.25,-1.25 2.73,-1.18 2.98,-0.85 3.64,-3.7 1.28,-5.56 2.72,-5.14 3.13,-11.97 2.69,-1.25 2.08,0.79 4.11,-2.47l-1.15 -0.7c-2.39,-0.88 -2.12,-0.5 -5.54,-0.33 -0.1,-0.09 -0.91,-1.05 -0.97,-1.1 -1.04,-0.88 -0.01,-0.51 -1.65,-1.1 -0.19,2.42 0.24,2.18 -1.79,1.97 -0.73,-0.08 -0.09,-0.34 -1.71,-0.33zm190.74 39.12l-1.53 4.28c-0.51,0.99 -0.48,1.2 -1.79,1.68 -2.54,0.92 -4.3,1.45 -6.37,3.05 0.91,0.65 -1.47,0.78 2.43,0.82 -1.01,3.94 -1.37,0.23 -0.68,3.74 0.29,1.45 0.75,3.27 1.09,4.45l6.15 0c0.22,-0.75 0.19,-0.91 0.58,-1.88 0.36,-0.89 0.92,-1.93 1.24,-2.57l1.94 -5.07c0.72,-2.72 -0.39,-1.22 2.39,-2.36l-0.06 -8.04c-0.46,-1.94 -0.22,-1.27 -1.17,-2.41 -4.9,0.37 -1.79,-0.84 -3.32,1.93 -1.01,1.83 0.51,1.07 -0.9,2.38zm-59.27 21.8c1.72,0.25 2.75,0.7 3.87,0.61 2.38,-0.2 3.6,-1.55 4.38,-3.33 0.59,-1.34 0.59,-0.3 0.67,-2.92 4.14,0.07 0.7,0.25 2.95,2.63 1.08,1.13 -0.36,0.57 0.86,0.27 0.4,-0.76 1.73,-12.85 -0.33,-15.34 -1.37,0.12 -1.09,-2.14 -1.98,1.92l-0.08 -2.24 -1.89 0c-0.22,2.96 0.03,0.56 -2.4,4.44 -1.51,2.42 -2.07,1.8 -3.02,3.6 -1.07,2.02 0.14,2.63 -1.17,5.51 -0.96,2.11 -0.13,-0.51 -1.14,1.99 -0.37,0.91 -0.53,1.83 -0.72,2.86zm-264.96 92.61c-1.51,0.16 -1.9,1.4 -4.05,2.4 -0.18,1.42 -0.06,0.86 -0.11,1.64l-0.49 5.5 13.54 0c0,-2.8 0.02,-5.58 0.05,-8.37 0.04,-4.53 -0.79,-4.07 -4.67,-4.4 -0.68,0.93 -0.63,1.18 -1.33,1.84 -2,1.87 1.06,0.81 -2.94,1.39zm314.77 -132.11c2.56,-0.6 0.03,0.12 3.79,0.71 0.75,0.12 5.53,-0.05 6.14,-0.25 2.12,-0.66 1.23,-0.35 1.77,-1.97 0.28,-0.84 -0.04,-0.56 0.35,-1.52 0.64,-1.55 1.73,-1.93 1.95,-2.23 0.53,-0.71 0.07,0 0.59,-1.2l0.33 -1.07c-1.93,2.03 -1.14,0.56 -2.62,-0.31 -0.91,-0.53 -1.54,-0.69 -1.55,-1.5 -1.93,0.7 -1.26,1.04 -3.81,1.14 -1.35,0.05 -2.92,-0.22 -4.33,-0.3l-0.57 0.97c-0.08,0.12 -0.19,0.29 -0.28,0.42 -1.21,1.63 -2.42,1.55 -2.78,3.91 -0.01,0.08 -0.03,0.26 -0.03,0.33 -0.01,1.68 0.72,-0.44 1.05,2.87zm-148.27 -51.8c-0.46,2 -0.22,0.98 -0.76,2.24 -0.85,1.99 -0.11,-0.82 -0.99,1.98l6.93 0.04c-0.79,1.73 -1.2,1.62 -3.5,2.11 0.4,2.15 0.03,1.07 0.67,2.72 3.62,-0.15 7.87,0.61 8.05,-2.37 0.18,-2.86 -1.84,-1.14 -2.43,-3.05 6.05,-1.25 6.57,-6.97 2.68,-7.32 -2.93,-0.27 -2.67,1.64 -2.79,1.95l-0.92 3.13c-0.71,-1.91 -0.33,-1.83 -2.46,-3.71 -2.56,0.38 -3.01,0.63 -4.48,2.28zm-24.31 22.62c0.2,0.08 0.48,-0.04 0.61,0.2 0.12,0.23 0.43,0.15 0.6,0.17 4.91,0.6 0.32,-0.47 7.52,-1.23 0.04,-3.52 -0.11,-1.51 0.83,-2.91 0.95,-1.4 0.94,-0.58 1.89,-2.51 1.3,-2.63 1.85,-5.03 0.11,-7.13 -3.41,1.37 -0.42,-0.39 -2.45,1.91 -4.41,4.99 -0.01,1.64 -5.07,3.75l-4.22 5.5c-0.62,2.37 0.07,1.98 0.18,2.25zm156.14 88.26l1.41 0.66c0.19,0.08 1.87,0.82 4.93,0.87 -0.29,1.76 -0.5,1.45 0.26,2.86l0.76 0.97c0.32,-1.93 0.01,-0.63 1.4,-1.22l0.12 -0.79c-1.27,-2.16 0.88,-4.4 1.62,-6.85 1.49,-4.9 -3.62,-4.76 -3.93,-2.65 0,-2.37 0.07,-2 -0.61,-3.69 -4.66,1.28 -3.71,4.95 -4.27,9.05l-1.69 0.79zm-113.65 23.2c-3.71,0.87 -1.92,-1.53 -2.63,2.54 -0.66,-3.75 0.88,-1.96 -1.89,-2.13 -3.2,-0.2 -2.63,0.51 -1.41,2.67 1.32,2.32 4.66,2.21 8.07,2.24 0,-7.07 0.85,-2.18 1.99,-6.79 0.19,-0.77 0.28,-1.77 0.34,-3.15l-5.73 -0.24c0.67,3.96 1.19,1.64 1.26,4.86z"/>
 </g>
</svg>
