<?xml version="1.0" encoding="UTF-8"?>
<!DOCTYPE svg PUBLIC "-//W3C//DTD SVG 1.1//EN" "http://www.w3.org/Graphics/SVG/1.1/DTD/svg11.dtd">
<!-- Creator: CorelDRAW 2019 (64-Bit) -->
<svg xmlns="http://www.w3.org/2000/svg" xml:space="preserve" width="100%" height="100%" version="1.1" style="shape-rendering:geometricPrecision; text-rendering:geometricPrecision; image-rendering:optimizeQuality; fill-rule:evenodd; clip-rule:evenodd"
viewBox="0 0 558.64 465.67"
 xmlns:xlink="http://www.w3.org/1999/xlink">
 <defs>
  <style type="text/css">
   <![CDATA[
    .fil0 {fill:#A6A182}
   ]]>
  </style>
 </defs>
 <g id="Layer_x0020_1">
  <metadata id="CorelCorpID_0Corel-Layer"/>
  <g id="_2150107975072">
   <path class="fil0" d="M294.7 120.32c0.21,-7.85 -0.48,-15.87 4.12,-20.63 5.05,-5.22 12.03,-3.91 20.61,-3.91 8.6,0 15.46,-1.3 20.59,3.92 4.59,4.66 3.81,12.94 4.08,20.67 5.49,1.79 10.39,4.44 15.12,6.09 4.8,-3.1 9.88,-11.43 17.68,-11.52 4.81,-0.06 7.45,1.88 10.1,4.76 6.93,7.54 19.12,15.45 18.98,24.59 -0.13,8.14 -8.65,12.28 -11.33,17.64l6.23 14.7c7.24,2.35 14.1,-1.63 20.23,4.34 5.38,5.24 4,12.08 4,20.82 0,8.38 1.27,15.95 -4.09,20.75 -5.18,4.64 -12.23,3.16 -20.11,3.95 -0.4,0.58 -6.09,13.99 -6.42,15.1 2.79,5 11.45,9.48 11.49,17.69 0.03,7.51 -8.27,13.62 -11.85,17.21 -9.67,9.67 -17.39,20.89 -34.2,0.22l-15.75 6.57c-0.78,7.86 0.6,15.81 -4.2,20.56 -4.81,4.77 -12.97,3.69 -21.18,3.69 -8.09,0 -15.86,1.19 -20.48,-4.37 -4.49,-5.41 -2.84,-12.26 -3.76,-20.25 -4.23,-1.34 -12.85,-5.63 -15.74,-5.99 -2.25,3.03 -4.78,4.61 -7.4,6.99 -11.71,10.61 -18.79,0.55 -27.07,-7.67 -3.7,-3.67 -11.87,-9.6 -11.51,-17.59 0.32,-7.15 8.57,-12.49 11.45,-17.06l-6.35 -15.06c-7.98,-1 -15.45,0.58 -20.47,-4.25 -5.05,-4.86 -3.78,-12.78 -3.78,-21.12 0,-8.98 -1.33,-15.4 4.36,-20.54 6.27,-5.67 13.8,-1.52 19.84,-4.07 1.38,-1.77 5.3,-11.87 6.46,-14.55 -3.11,-5.23 -11.35,-10.05 -11.53,-17.69 -0.1,-4.49 1.87,-7.75 4.47,-10.11l14.51 -14.57c12.45,-12.86 23.04,4.01 27.8,6.72l15.1 -6.03zm-172.73 -89.7l-0.02 108.65c-0.04,6.85 1.77,8.36 4.53,12.92 2.37,3.92 4.39,7.37 6.6,11.08l39.89 67.51c2.19,3.66 4.34,7.45 6.52,11.13 2.08,3.52 5.23,8.11 6.56,11.68 1.83,1.62 2.71,10.64 2.39,13.42 1.67,2.36 9.79,62.89 11.53,74.48 0.66,4.33 1.91,9.33 -0.67,12.44 -2.29,2.76 -6.34,3.26 -9.82,1.2l-16.86 -11.59c-5.83,-4.07 -11.11,-7.61 -16.84,-11.58 -3.37,-2.33 -30.98,-22.17 -34.25,-22.66 1.71,5.91 -0.55,60.44 0.54,74.09 6.16,0.9 241.43,0.19 257.36,0.19 6.15,0 23.25,-1.28 26.83,1.74 5.96,5.02 0.24,38.95 3.32,53.58 6.92,32.88 54.18,35.74 64.53,2.86 2.99,-9.49 1.57,-43.77 1.57,-56.15l0 -342.36c0,-9.97 -0.36,-16.34 2.85,-25.37 3.49,-9.86 6.48,-11.23 10.6,-17.42 -7.09,-0.76 -17.59,-0.16 -25.05,-0.16 -91.38,0 -182.76,0 -274.14,0 -11.72,0 -38.66,-1.51 -47.71,2.19 -10.7,4.38 -19.26,14.06 -20.26,28.13z"/>
   <path class="fil0" d="M73.94 398.4c-0.36,12.91 -1.64,36.9 3,47.16 4.57,10.14 15.01,19.27 30.22,19.63 32.9,0.77 66.82,0.01 99.83,0.01 33.48,0 66.96,0 100.44,0 32.73,0 67.38,1.09 99.88,-0.08 -1.29,-2.42 -2.62,-3.36 -4.37,-5.77 -12.81,-17.64 -8.2,-39.63 -8.78,-61.21l-320.22 0.26z"/>
   <path class="fil0" d="M373.44 210c-4.46,27.27 -29.37,50.99 -62.65,45.79 -27.07,-4.23 -50.88,-30.19 -45.32,-63.18 4.49,-26.67 29.71,-50.12 62.15,-45.15 26.81,4.11 51.17,29.84 45.82,62.54zm-112.13 -79.48l-12.85 13.12c1.66,4.2 7.68,7.58 9.9,12.45 3.17,6.96 -0.94,12.17 -3.25,17.37 -7.21,16.24 -2.34,17.47 -26.49,18.48l-0.36 19.41c24.44,1.23 19.49,1.78 26.68,18.27 2.15,4.93 6.32,10.21 3.75,16.91 -1.27,3.28 -2.96,4.29 -4.88,6.49 -1.38,1.58 -4.43,4.52 -5.36,6.25 0.54,0.91 11.47,12.32 13.5,13.44 4.01,-2.54 7.55,-7.92 12.23,-10.02 6.83,-3.06 11.72,1.08 16.96,3.37 14.89,6.53 18.09,2.2 18.53,26.43 3.41,1.11 15.06,0.47 19.38,0.44 0.34,-6.38 -0.46,-14.54 3.09,-19.05 3.72,-4.73 9.42,-5.11 15.09,-7.64 4.93,-2.2 10.38,-6.35 16.98,-3.7 4.95,1.98 8.48,7.45 12.7,10.18 2.67,-1.41 12.48,-11.58 13.42,-13.45 -1.01,-1.8 -3.6,-4.21 -5.02,-5.88 -9.29,-10.99 -6.8,-11.36 -1.46,-23.79 2.64,-6.15 2.82,-11.04 7.29,-14.84 4.61,-3.91 12.32,-2.91 19.31,-3.45l0 -19.37c-22.21,-0.83 -19.52,-0.69 -26.48,-18.02 -2.01,-5 -6.55,-10.21 -3.89,-16.98 1.57,-4.02 7.45,-9.4 10.2,-12.63 -1,-2.29 -11.29,-12.46 -13.37,-13.7 -4.11,2.73 -7.67,7.97 -12.47,10.11 -6.53,2.92 -11.92,-1.44 -16.99,-3.58 -5.96,-2.5 -11.91,-3.18 -15.18,-7.57 -3.98,-5.35 -2.17,-12.29 -3.43,-19.23l-19.06 0.08c-0.72,7.3 0.63,14.55 -3.51,19.47 -3.69,4.39 -9.56,4.87 -15.31,7.4 -5.21,2.29 -10.11,6.46 -17.01,3.25 -5.05,-2.35 -8.48,-8.5 -12.64,-10.02z"/>
   <path class="fil0" d="M358.98 208.11c4.38,-23.88 -13.65,-43.03 -33.23,-46.18 -23.84,-3.84 -42.37,13.21 -45.85,32.57 -4.38,24.35 13.17,43.67 32.86,46.85 24.73,3.99 42.56,-13.31 46.22,-33.24z"/>
   <path class="fil0" d="M22.96 99.05c-0.64,1.79 -6.09,5.15 -9.37,9.89 0.85,3.09 83.26,141.93 91.29,155.16 4.09,6.72 9.85,15.63 12.97,22.32 6.1,-0.49 15.26,-4.97 20.59,-7.08l2.03 -1.03c-0.96,-3.04 -24.66,-42.1 -27.04,-46.14l-54.87 -92.28c-3.83,-6.4 -25.39,-43.84 -27.8,-46.26 -3.32,1.5 -4.66,3.65 -7.8,5.42z"/>
   <path class="fil0" d="M51.61 81.77l-7.98 3.8c2,5.85 105.47,176.14 107.74,182.54 1.47,0.91 0.26,0.34 0.94,1.03 1.49,1.52 -0.53,0.37 1.84,1.57 3.5,-3.39 13.09,-9.56 16.66,-14.59 -1.05,-2.86 -2.35,-3.21 -2.66,-5.82 -2.36,-1.76 -22.53,-37.18 -25.78,-42.63l-63.38 -107.2c-4.17,-6.91 -8.19,-14.9 -12.86,-21.8 -4.41,-0.33 -10.37,2.19 -14.52,3.1z"/>
   <path class="fil0" d="M490.69 30.49l-0.1 37.33 67.12 -0.03c0.22,-12.82 -0.25,-25.67 -0.34,-38.35 0.2,-8.92 -6.76,-16.61 -10.87,-20.63 -11.97,-11.7 -34.34,-10.97 -45.47,0.64 -4.16,4.35 -10.59,11.9 -10.34,21.04z"/>
   <path class="fil0" d="M13.32 52.67c-1.31,2.31 -9.01,5.88 -12.26,17.76 -2.49,9.1 -0.38,18.88 4.43,25.15 1.31,-0.63 11.13,-10.02 16.36,-13.86 3.66,-2.69 15.31,-10.63 19.98,-10.95 2.62,-3.18 11.75,-3.86 15.73,-6.05 -2.58,-9.11 -17.5,-18.58 -31.84,-16.51 -6.06,0.87 -8.33,3.33 -12.4,4.46z"/>
   <path class="fil0" d="M166.37 279.14c-0.05,0.1 -0.17,0.13 -0.2,0.28 -0.46,2.45 -21.92,13.22 -24.44,14.38 -2.75,1.27 -7.47,2.66 -9.6,4.01l5.1 4.23c5.2,2.22 41.58,29.07 46.62,31.2l-8.76 -60.21c-3.48,1.42 -5.03,4.45 -8.72,6.11z"/>
   <path class="fil0" d="M490.69 30.49c-1.59,2.96 -0.69,36.47 -0.42,37.72l67.74 0.25c0.4,-1.64 1.1,-32.69 0.13,-37.24 -0.44,-2.09 -0.36,-1.18 -0.77,-1.78 0.09,12.68 0.56,25.53 0.34,38.35l-67.12 0.03 0.1 -37.33z"/>
  </g>
 </g>
</svg>
