<?xml version="1.0" encoding="UTF-8"?>
<!DOCTYPE svg PUBLIC "-//W3C//DTD SVG 1.1//EN" "http://www.w3.org/Graphics/SVG/1.1/DTD/svg11.dtd">
<!-- Creator: CorelDRAW 2019 (64-Bit) -->
<svg xmlns="http://www.w3.org/2000/svg" xml:space="preserve" width="100%" height="100%" version="1.1" style="shape-rendering:geometricPrecision; text-rendering:geometricPrecision; image-rendering:optimizeQuality; fill-rule:evenodd; clip-rule:evenodd"
viewBox="0 0 465.36 465.68"
 xmlns:xlink="http://www.w3.org/1999/xlink">
 <defs>
  <style type="text/css">
   <![CDATA[
    .fil0 {fill:#A6A182}
   ]]>
  </style>
 </defs>
 <g id="Layer_x0020_1">
  <metadata id="CorelCorpID_0Corel-Layer"/>
  <g id="_2149873218112">
   <path class="fil0" d="M329.65 397.72l19.33 -0.08 -0.02 48.27 -19.17 0.15 -0.14 -48.34zm-213.28 0.19l19.33 -0.31 -0.02 48.41 -19.2 0.03 -0.11 -48.13zm251.82 -58.52c-7.86,0.05 -15.75,0.02 -23.61,0.01 -5.25,-0.01 -14.66,-0.31 -14.96,9.37 -0.13,3.84 1.94,6.75 3.87,8.18 3.16,2.35 6.32,1.9 10.51,1.89 8,-0.02 16.02,0.06 24.02,-0.02 1.31,5.27 0.71,13.05 -2.32,16.23 -4.1,4.3 -9.61,3.11 -16.51,3.11l-231.89 0c-18.88,0 -20.29,-0.1 -20.31,-19.33l177.79 0.01c5.14,0 15.89,0.99 16.06,-9.54 0.17,-10.48 -10.27,-9.91 -15.48,-9.9l-178.21 -0.01c-1.95,-18.72 2.72,-19.31 19,-19.31l232.47 0c16.49,0 21.57,0.15 19.57,19.31zm-174.28 -87.16l29.02 0.02c0,5.64 -1.99,19.34 9.74,19.34 11.71,0 9.75,-13.59 9.74,-19.36l29.03 0.01c0.01,8.93 0.49,42.06 -0.26,48.4l-77.08 0.02c-0.54,-5.72 -0.2,-37.69 -0.2,-45.94l0.01 -2.49zm203.57 -145.41l3.05 0 23.08 -0.01 2.95 0.05 0 193.77 -29.09 0.01 0 -4.39 0 -3.46 0.01 -185.97zm-358.69 0.03l2.95 -0.03 23.07 0 3.06 0 0.01 193.82 -29.09 -0.03 -0.01 -2.63 0 -188.62 0.01 -2.51zm97.26 67.81l193.53 0.03 -0.02 19.26 11.56 0.03 -205.34 -0.03 0.27 -19.29zm29.13 -58.15l135.32 0.14 -0.34 38.56 -135.32 -0.1 0.34 -38.6zm-77.87 -9.69l29.03 -0.01c0.96,13.87 17.13,8.81 29.05,9.8l-0.19 38.52c-11.8,0.85 -28.88,-4.03 -28.87,10.76l-0.01 36.91c0,7.89 4.82,10.62 12.52,10.62l207.66 0c7.7,0 12.52,-2.72 12.51,-10.62 0,-54.6 4.73,-46.41 -29.05,-47.67l0.13 -38.52c11.76,-0.98 27.96,4.08 28.91,-9.8l29.03 0.06 -0.23 193.77 -86.68 0c-1.2,-6.5 0.68,-52.3 -0.41,-59.64 -0.41,-2.72 -1.67,-4.6 -3.55,-6.15 -2.18,-1.79 -4.19,-2.05 -7.76,-2.05 -30.96,0 -61.92,0 -92.88,0 -8.35,0 -12.04,3.47 -12.04,12.11 0,11.56 0.56,47.28 -0.25,55.73l-86.92 -0.02 0 -193.8zm203.75 -9.75c-0.5,-3.64 -0.54,-36.08 0.13,-38.77l38.38 0.01 -0.17 38.76 -38.34 0zm58.01 -29.01l77.46 -0.03 -0.05 19.34c-13.07,-0.06 -26.15,0 -39.22,0 -6.01,0 -34.81,0.69 -38.25,-0.35l0.06 -18.96zm-310.03 -0.01l77.28 0.23 -0.02 18.74c-3.43,1.05 -32.71,0.35 -38.8,0.35 -12.87,0 -25.76,-0.06 -38.72,0l0.26 -19.32zm96.72 -48.51l193.8 0.02 -0.1 19.28c-9.71,0.18 -19.57,0.02 -29.3,0.02 -7.51,0 -21.41,-1.83 -25.98,2.98 -6.12,6.43 -0.83,40.2 -2.94,55.23l-135.48 -0.03 0 -77.5zm-16.15 -17.47c-0.4,2.26 -3.22,1.36 -3.3,9.21 -0.13,11.9 0.44,25.61 -0.03,37.05 -4.25,0.9 -76.62,-0.42 -87.27,0.25 -7.04,0.45 -9.68,5.14 -9.66,12.3 0.06,24.16 0.65,234.98 -0.25,239.78 -4.36,-0.07 -10.38,-0.7 -14.01,1.07 -2.95,1.45 -5.41,4.71 -5.04,9.52 0.8,10.21 11.38,8.83 20.92,8.83 18.8,0 39.44,-0.81 58.01,0.06 -0.47,3.89 -1.41,5.92 -1.42,10.7l0 36.37c0.01,8.15 1.71,12.88 5.64,18.52 4.25,6.1 8.35,7.49 13.74,10.36l-0.12 49.85c-9.84,0.88 -69.58,0.15 -84.51,0.1 -7.03,-0.02 -12.14,2.36 -12.3,9.41 -0.16,7.14 4.74,10.04 11.72,10.06l126.92 -0.02c7.29,0.01 13.19,0.05 15.7,-5.88 1.68,-3.97 0.74,-55.44 0.74,-62.01l155.09 0c0.08,14.28 0.01,28.58 0.01,42.86 0,21.06 -2.18,25.04 17.08,25.03 28.27,0 56.53,0 84.8,0 14.07,0 28.71,0.4 42.71,0.02 6.61,-0.18 11.34,-4.11 10.47,-11.19 -0.83,-6.71 -5.88,-8.31 -12.8,-8.27 -14.46,0.06 -74.45,0.74 -84.04,-0.11l-0.01 -49.85c5.74,-3.05 9.56,-4.29 13.98,-10.71 3.98,-5.77 5.41,-10.36 5.4,-18.75l0 -36.36c-0.03,-4.53 -0.96,-6.46 -1.42,-10.13 18.76,-0.88 39.6,-0.06 58.59,-0.06 9.55,0 20.08,1.19 20.37,-9.4 0.3,-10.66 -9.61,-10.18 -19.07,-10.02 -1.05,-5.54 -0.27,-195.03 -0.27,-216.11 0,-9.63 -0.52,-20.84 -0.26,-29.97 -2.56,-2.34 -3.39,-5.09 -7.72,-5.82 -6.27,-1.06 -83.77,0.66 -88.94,-0.43 -0.46,-11.19 -0.1,-23.44 -0.04,-34.73 0.08,-15.65 -8.25,-13.49 -21.75,-13.49l-191.51 0c-7.65,0 -9.75,-0.71 -16.15,1.96z"/>
   <path class="fil0" d="M162.23 39.33c-12.76,3.77 -6.84,22.21 5.66,18.53 11.5,-3.39 6.76,-22.21 -5.66,-18.53z"/>
   <path class="fil0" d="M200.67 39.55c-12.84,4.59 -5.73,22.47 6.3,18.16 11.39,-4.08 5.93,-22.53 -6.3,-18.16z"/>
   <path class="fil0" d="M239.64 39.38c-12.13,3.57 -7.06,22.68 6.02,18.38 10.54,-3.46 6.84,-22.17 -6.02,-18.38z"/>
  </g>
 </g>
</svg>
