<?xml version="1.0" encoding="UTF-8"?>
<!DOCTYPE svg PUBLIC "-//W3C//DTD SVG 1.1//EN" "http://www.w3.org/Graphics/SVG/1.1/DTD/svg11.dtd">
<!-- Creator: CorelDRAW 2019 (64-Bit) -->
<svg xmlns="http://www.w3.org/2000/svg" xml:space="preserve" width="100%" height="100%" version="1.1" style="shape-rendering:geometricPrecision; text-rendering:geometricPrecision; image-rendering:optimizeQuality; fill-rule:evenodd; clip-rule:evenodd"
viewBox="0 0 720.18 719.68"
 xmlns:xlink="http://www.w3.org/1999/xlink">
 <defs>
  <style type="text/css">
   <![CDATA[
    .fil0 {fill:white}
   ]]>
  </style>
 </defs>
 <g id="Layer_x0020_1">
  <metadata id="CorelCorpID_0Corel-Layer"/>
  <path class="fil0" d="M458.37 373.13c61.31,-11.1 110.13,34.11 118.77,83.89 10.79,62.26 -33.83,110.91 -84.02,119.68 -61.85,10.81 -110.67,-33.42 -119.67,-84.04 -11.3,-63.56 33.77,-110.26 84.92,-119.53zm-47.58 -106.77l-2.82 22.24 -17.43 6.54c-4.06,-2.6 -9.81,-6.52 -12.65,-10.93 -11.08,-2.91 -16.95,-20 -36.05,-16.3 -10.58,2.05 -18.41,15.23 -25.45,20.52 -2.29,1.73 -1.32,1.24 -3.42,1.8 -3.51,7.76 -11.12,12.99 -17.12,18.97 -3.46,3.45 -5.74,5.71 -9.16,9.15 -4.04,4.07 -4.61,5.6 -9.81,8l-3.89 5.72c-5.53,6.74 -6.86,14.77 -3.42,23.21 3.32,8.16 13.11,15.17 15.07,22.18l2.04 1.56c0.26,0.23 0.66,0.55 0.94,0.8l3.73 4.16c6.7,8.25 3.64,7.63 -2.31,23.87l-22.27 2.56c-7.19,1.62 -16.43,1.02 -22.78,4.11 -19.92,9.69 -12.96,39.96 -12.96,71.88 0,16.91 -3.77,38.58 9.9,47.23 11.88,7.5 34.04,3.36 47.56,8.87 10.82,14.97 6.48,18.1 -2.15,29.19 -5.06,6.51 -16.88,18.87 -18.23,27.89 -2.27,15.23 9.8,23.21 16.32,29.58 3.97,3.87 6.78,7.36 11.39,11.55 4.03,3.67 7.79,5.73 9.61,11.33 4.95,2.03 7.38,5.4 12.48,10.92 1.97,2.13 2.57,2.66 5.31,5.3l5.31 6.58c14.27,6.14 14.78,16.26 41.32,-4.35 5.39,-4.18 11.71,-10.11 17.05,-13.68 5.89,-3.94 15.82,1.14 20.98,5 4.91,15.33 0.25,39.83 11.64,50.83 10.56,10.2 39.88,6.31 56.59,6.31 17.54,0 46.58,3.55 55.92,-7.01 9.83,-11.12 5.51,-35.34 10.76,-50.25 17.17,-12.74 21.24,-4.39 33.7,5.5 21.53,17.1 14.13,13.74 37.65,14.07 2.05,-2.85 7.49,-7.21 10.97,-10.71 4.96,-4.98 5.98,-4.42 9.86,-11.47 6.54,-1.47 9.94,-11.12 15.29,-12.24 5.02,-7.75 18.99,-19.53 26.75,-28.35l2.53 -3.04c0.08,-0.4 0.38,-0.48 0.6,-0.69 9.09,-27.99 -20.41,-41.95 -24.37,-54.42 -1.58,-4.97 3.64,-14.32 6.32,-17.96 15.32,-5.52 40.54,-0.84 51.01,-11.52 9.84,-10.03 6.28,-39.58 6.28,-56.69 0,-17.63 4.33,-45.33 -7.2,-55.71 -11.22,-10.11 -34.83,-6.25 -50.03,-11 -2.54,-3.42 -6.59,-10.99 -6.67,-15.97 -0.08,-4.37 5.29,-9.19 8.06,-12.61 24.22,-29.92 26.38,-33.36 5.65,-55l-43.4 -43.68c-23.09,-23.16 -29.73,-12.83 -55.34,7.14 -14.25,11.12 -9.75,8.27 -27.88,1.37 -2.8,-13.47 -2.93,-39.21 -8.57,-48.15 -8.59,-13.64 -29.29,-9.95 -47.19,-9.95 -13.15,0 -45.45,-1.6 -56.4,0.56 -19.53,3.86 -17.8,25.82 -19.62,35.19zm-322.15 119.18c-2.21,-22.73 15.9,-25.28 36.01,-25.23 20.11,0.04 40.63,-0.87 41.99,20.63 1.44,22.58 -17.22,24.19 -37.4,24.17 -11.86,-0.01 -38.34,3.61 -40.6,-19.57zm285.2 -158.5c5.16,-17.39 24.54,-33.59 44.02,-38.93 18.72,-5.14 57.67,-1.57 79.81,-2.6 0.43,-27.47 0.09,-55.17 0.09,-82.67 0,-109.55 11.56,-102.67 -61.38,-102.67 -27.15,0 -54.31,-0.06 -81.47,0.01 -1.59,46.98 -0.2,96.66 -0.15,143.92 0.03,29.76 -4.46,36.31 -34.51,36.22l-143.66 0.01c-30.3,0.15 -33.14,-8.45 -33.11,-37.76 0.05,-46.25 1.85,-96.56 -0.2,-142.34 -34.63,-0.48 -69.54,-0.03 -104.2,-0.07 -44.87,-0.04 -38.51,9.36 -38.51,64.48 0,14.64 -1.39,397.67 0.19,412.6 1.83,17.22 14.22,20.34 32.2,20.27l153.04 -0.12c1.15,-44.28 -7.94,-78.75 17.74,-107.64 10.58,-11.91 18.28,-13 23.64,-17.96 -5.21,-26.5 -7.77,-42.34 7.6,-63.87 8.38,-11.74 65.3,-68.55 77.04,-75.79 26.76,-16.5 46.44,-6.7 61.82,-5.09zm-184.85 -91.41l120.97 -0.26 -0.06 -134.52 -121.06 0.1 0.15 134.68z"/>
 </g>
</svg>
