<?xml version="1.0" encoding="UTF-8"?>
<!DOCTYPE svg PUBLIC "-//W3C//DTD SVG 1.1//EN" "http://www.w3.org/Graphics/SVG/1.1/DTD/svg11.dtd">
<!-- Creator: CorelDRAW 2019 (64-Bit) -->
<svg xmlns="http://www.w3.org/2000/svg" xml:space="preserve" width="100%" height="100%" version="1.1" style="shape-rendering:geometricPrecision; text-rendering:geometricPrecision; image-rendering:optimizeQuality; fill-rule:evenodd; clip-rule:evenodd"
viewBox="0 0 719.94 719.68"
 xmlns:xlink="http://www.w3.org/1999/xlink">
 <defs>
  <style type="text/css">
   <![CDATA[
    .fil0 {fill:white}
   ]]>
  </style>
 </defs>
 <g id="Layer_x0020_1">
  <metadata id="CorelCorpID_0Corel-Layer"/>
  <path class="fil0" d="M321.99 420c-5.08,-80.96 57.84,-145.84 132.35,-150.65 81.92,-5.28 146.49,57.41 151.46,132.84 5.35,81.16 -58.1,146.43 -132.69,150.89 -81.59,4.88 -146.38,-57.51 -151.12,-133.08zm1.25 -99.87c-1.27,3.89 -4.78,8.79 -7.04,13.02 -17.45,32.78 -25.22,78.93 -15.32,113.97 1.39,14.75 14.11,40.93 20.85,51.75 9.25,14.85 22.5,30.58 34.29,39.85 31.53,24.79 64.03,39.48 108.13,39.57 129.65,0.26 208.72,-141.7 143.52,-252.11 -40.55,-68.66 -123.97,-99.98 -202.17,-71.5 -18.82,6.86 -44.16,22.5 -56.7,35.3 -6.54,6.68 -12.19,12.37 -17.71,19.79 -2.18,2.94 -5.23,8.7 -7.85,10.36zm-323.13 -17.35l135.87 0c2.02,-51.57 5.41,-88.69 18.05,-137.55 1.36,-5.24 4.1,-13.02 4.8,-18.16l-45.02 -15.38c-7.22,-2.91 -14.34,-5.88 -21.11,-9.09l-20.42 -9.99c-6.19,5.09 -23.15,30.96 -27.44,37.99 -24.66,40.39 -46.1,103 -44.73,152.18zm158.74 171.18c-1.8,-2.18 -2.23,-5.07 -3.03,-8 -9.17,-33.74 -15.21,-68.61 -17.88,-103.82l-1.68 -30.95c-0.21,-9.76 1.01,-8.77 -2.06,-9.63l-134.15 0c-0.84,33.34 11.28,81.53 22.62,108.12 7.13,16.72 13.74,29.49 22.09,43.93 5.03,8.69 21.85,33.65 27.52,38.22 5.7,-2.06 13.7,-7.04 19.98,-9.95 7,-3.24 14.04,-6.12 21.04,-9.06 11.87,-4.98 32.49,-12.57 45.38,-15.06l0.17 -3.8zm-3.78 -171.19l147.88 0.01 0.16 -136.27c-35.34,-1.01 -61.94,-3.08 -96.13,-9.05 -6.43,-1.12 -24.97,-5.74 -29.61,-5.46 -5.55,12.36 -13.69,55.44 -15.95,70.45 -3.31,22.01 -7.78,57.86 -6.35,80.32zm305.51 6.77c6.04,-2.32 13.2,3.53 17.49,6.11l45.07 26.61c5.81,3.42 27.24,15.06 29.42,18.66 2.31,3.84 1.9,85.02 1.38,94.97 -0.43,8.31 -5.98,9.61 -11.64,12.93 -5.08,2.98 -9.65,5.73 -14.85,8.81 -9.78,5.8 -20.16,11.99 -30.22,17.81 -33.69,19.53 -28.65,22.35 -47.39,11.34 -10.88,-6.39 -72.16,-41.56 -74.54,-45.18 -2.98,-4.52 -1.52,-38.19 -1.52,-46.49 0,-15.69 -0.6,-32.56 0,-48.11 0.33,-8.65 5.17,-9.58 11.21,-13.12l75.59 -44.34zm-119.64 112.9c7.23,67.19 65.03,117.63 133.02,111.71 64.01,-5.57 119.04,-61.21 112.86,-133.18 -5.53,-64.57 -62.01,-119.02 -134.06,-112.65 -30.69,2.71 -62.99,18.97 -81.82,41.73 -17.4,21.04 -34.21,53.21 -30,92.39zm-159.5 49.61c9.71,-4.03 82.75,-14.54 94.03,-12.63 1.73,-1.09 5.63,-0.86 8.34,-0.9 -1.46,-12.63 -4.71,-22.84 -5.5,-36.88 -1.35,-24.14 2.16,-49.23 10.04,-71.57l12.08 -28.99c-6.42,1.45 -27.83,0.48 -35.88,0.48 -11.95,0 -23.9,0 -35.85,0 -23.89,0 -47.83,0.11 -71.7,-0.01 -2.8,0.84 -2.36,-0.54 -1.93,9.64 1.58,36.99 4.74,69.83 13,106.2 2.22,9.78 5.63,26.37 9.3,34.81l4.07 -0.15zm284.73 -325.41l16.16 74.27c0.08,0.56 0.35,2.28 0.5,2.75 1.57,5.11 7.88,2.95 22.28,6.27 75.25,17.32 107.74,71.77 109.76,72.63l10.18 0.26c-0.23,-54.51 -18.67,-107.51 -44.46,-151.61 -7.28,-12.44 -18.78,-29.22 -27.64,-38.59 -4.47,1.15 -14.93,7.31 -20.46,9.93 -19.62,9.33 -45.05,18.38 -66.32,24.09zm-212.2 -125.39c-1.69,2.71 -4.73,4.83 -7.25,6.97 -2.54,2.14 -4.48,4.09 -6.82,6.73 -10.44,9.86 -24.94,31.35 -32.26,44.6 -5.33,9.63 -22.72,44.22 -23.85,53.67 14.16,7.09 83,12.49 101.94,13.99l17.36 0.34c0.1,-16.5 1.03,-142.03 -0.52,-147.55 -26.06,4.92 -28.94,9.18 -46.07,20.08 -2.33,1.49 -0.74,0.75 -2.53,1.17zm91.59 125.34c10.01,1.75 88.23,-9.28 95.68,-13.37 -1.27,-8.8 -11.32,-24.78 -11.68,-31.32 -3.68,-2.9 -26.23,-61.29 -70.01,-88.13 -7.96,-4.88 -25.84,-13.87 -37.61,-13.59l0.12 147.53 23.5 -1.12zm-156.81 342.4c-1.41,1.08 -1.17,1.1 -5.19,1.66 5.81,25.06 35.31,78.49 56.18,98.36l11.07 11.38c2.02,0.54 2.81,1.68 5.06,3.44 12.44,9.71 30.79,19.4 47.16,20.29 0.22,-7.35 0.75,-116.19 -0.31,-120.01 -0.18,-0.64 -11.8,-25.09 -12.92,-26.97 -32.34,-0.92 -96.93,12.29 -101.05,11.85zm133.53 -322.48l-0.35 123.73c2.77,-0.96 9.59,-9.52 12.46,-12.23 4.58,-4.33 8.63,-8.11 13.86,-12.2 33.33,-26.09 69.78,-39.48 115.38,-40.54 0.43,-17.78 -12.95,-57.8 -15.75,-73.45l-60.27 10.19c-22.25,2.73 -42.78,2.97 -65.33,4.5zm261.2 440.06c8.86,14.61 38.12,56.07 49.73,72.89 6.61,9.57 17.92,28.75 26.63,34.46 29.85,19.57 72.53,-14.21 56.67,-49.32 -3.05,-6.74 -9.04,-12.02 -14.12,-16.83 -5.21,-4.94 -9.36,-10.58 -14.54,-15.62l-59.95 -62.05c-5.91,4.87 -42.33,33.37 -44.42,36.47zm-391.89 -583.16c-1.28,1.1 -11.53,5.5 -14.49,6.89 -5.24,2.47 -10.12,5.14 -15.05,7.77 -23.02,12.26 -34.4,22.32 -53.35,37.07 -3.49,2.72 -9.25,7.82 -12.03,10.78 -3.63,3.87 -8.1,7.44 -11.07,11.46 4.71,6.26 65.58,29.35 79.78,31.23 2.59,-12.27 18.02,-43.86 24.34,-55.56 6.08,-11.26 26.57,-43.21 33.57,-46.82 2.87,-5.86 16.79,-16.15 17.08,-17.95 0.03,-0.23 0.16,-0.31 0.2,-0.48 -8.22,1.66 -17.51,4.55 -25.13,7.05 -7.54,2.47 -17.1,7 -23.85,8.56zm250.68 63.86c4.51,4.43 14.35,34.6 17.8,41.13 8.25,-0.48 33.48,-10.02 41.52,-13.11l37.86 -16.86c-1.05,-3.62 -6.81,-8.51 -9.72,-11.23 -19.87,-18.6 -36.03,-30.92 -59.86,-45.27 -3.41,-2.05 -26.18,-13.25 -26.91,-14.41 -10.32,-2.76 -39.91,-17.81 -59.4,-19.72 2.53,3.1 6.76,6.08 9.34,8.47 15.64,14.5 44.28,53.55 49.37,71zm-290.41 412.21c-11.26,2.13 -60.33,21.73 -66.28,27.25 2.91,4.19 10.23,10.65 14.73,15.14 4.45,4.45 10.98,9.61 16.31,13.84 30.64,24.29 61.18,41.22 98.63,53.7 5.33,1.78 19.85,5.13 23.23,6.86 4.26,0.34 1.58,0.38 2.51,-0.75 -6.33,-3.32 -19.52,-18.48 -24.51,-24.42 -7.59,-9.02 -13.71,-17.8 -20.31,-28.61 -10.74,-17.6 -24.36,-44.82 -30.92,-66.75l-13.39 3.74zm240.64 -48.35l61.99 36.32 -0.1 -68.26c-1.78,-1.77 -58.89,-35.59 -61.76,-36.47l-0.13 68.41zm142.72 -0.17l-0.36 -68.45 -61.45 36.22 -0.11 6.16 -0.03 54.58 0.29 8.07 61.66 -36.58zm-213.29 173.1c23.5,1.03 64.37,-30.86 68.97,-42.08 -33.64,-10.98 -68.28,-49.87 -68.94,-50.14l-0.03 92.22zm80.56 -257.83c2.98,2.07 19.01,11.88 20.94,11.93 1.93,0.06 17.98,-10.02 20.69,-11.58 5.45,-3.15 39.37,-22.64 41.02,-24.89l-20.99 -12.31c-3.92,1.29 -12.52,6.9 -16.28,9.19 -6.22,3.78 -43.69,24.47 -45.38,27.66zm40.16 24.08c4.14,1.81 18.54,11.73 21.4,11.58 0.65,-0.03 60.55,-34.3 61,-36.15 0.07,-0.3 0.29,-0.35 0.4,-0.54 -3.92,-1.6 -18.93,-11.77 -21.35,-11.68 -2.05,0.07 -17.4,9.75 -20.64,11.68 -6.85,4.07 -13.6,8.09 -20.48,12.09 -4.06,2.36 -17.94,9.29 -20.33,13.02zm116.8 180.41c0.65,2.63 10.91,17.43 13.05,19.51 2.58,-1.08 39.43,-31.03 42.26,-34.17 -1.82,-2.64 -13.31,-15.17 -16.19,-16.55 -6.75,5.07 -11.83,12.11 -28.39,24 -3.69,2.66 -7.23,4.37 -10.73,7.21zm-175.36 45.78c10.83,-1.61 53.46,-15.46 58.87,-20.51l-32.63 -6.31c-4.1,3.56 -8.48,9.14 -12.47,13.34l-13.77 13.48z"/>
 </g>
</svg>
