<?xml version="1.0" encoding="UTF-8"?>
<!DOCTYPE svg PUBLIC "-//W3C//DTD SVG 1.1//EN" "http://www.w3.org/Graphics/SVG/1.1/DTD/svg11.dtd">
<!-- Creator: CorelDRAW 2019 (64-Bit) -->
<svg xmlns="http://www.w3.org/2000/svg" xml:space="preserve" width="100%" height="100%" version="1.1" style="shape-rendering:geometricPrecision; text-rendering:geometricPrecision; image-rendering:optimizeQuality; fill-rule:evenodd; clip-rule:evenodd"
viewBox="0 0 835.3 719.67"
 xmlns:xlink="http://www.w3.org/1999/xlink">
 <defs>
  <style type="text/css">
   <![CDATA[
    .fil0 {fill:white}
   ]]>
  </style>
 </defs>
 <g id="Layer_x0020_1">
  <metadata id="CorelCorpID_0Corel-Layer"/>
  <g id="_1390529557360">
   <path class="fil0" d="M21.31 668.57l0 -21.29c75.37,0 153.53,0 229.95,0 0,24.14 -3.35,34.07 12.78,34.07l319.37 0c0,-52.18 -15.05,-32.59 208.58,-32.02 5.3,0.01 9.54,-1.78 21.38,-2.05 0,15.13 4.86,51.1 -21.29,51.1l-740.96 0c-19.88,0 -29.81,-9.93 -29.81,-29.81zm251.24 -21.29l289.57 0 0 12.78 -289.57 0 0 -12.78zm-157.56 -425.84l93.69 0 0 276.8c0,9.81 2.96,12.77 12.77,12.77l404.55 0 0 -289.57 93.68 0 0 349.19 -604.69 0 0 -349.19zm114.98 -200.14l374.74 0 0 468.42 -374.74 0 0 -468.42zm-136.27 566.36c46.26,10.78 544.72,4.26 634.5,4.26 9.81,0 12.77,-2.96 12.77,-12.77l0 -366.22c0,-9.82 -2.96,-12.78 -12.77,-12.78l-102.2 0 0 -38.33c73.47,0 153.3,-15.23 153.3,38.33l0 425.84 -723.93 0 0 -425.84c0,-53.56 79.83,-38.33 153.31,-38.33l0 38.33c-139.58,0 -114.98,-20.98 -114.98,85.17l0 302.34zm114.98 -574.88l0 127.75 -119.24 0c-26.11,0 -55.36,29.25 -55.36,55.36l0 430.1 -34.06 4.26c0,52.57 -2.31,89.42 51.1,89.42l740.96 0c51.83,0 42.58,-66.12 42.58,-89.42l-34.07 -4.26 0 -425.84c0,-78.81 -101.88,-59.62 -174.59,-59.62l0 -140.53 -404.55 0c-9.81,0 -12.77,2.97 -12.77,12.78z"/>
   <path class="fil0" d="M370.49 438.62l0 -72.39 63.91 -29.76 -0.03 76.6c-23.15,5.39 -36.02,19.06 -63.88,25.55zm-85.16 -97.94c25,2.08 39.71,19.92 63.87,25.55l0 76.65 -63.13 -31.31 -0.74 -70.89zm132.01 -17.04c-13.06,3.05 -15.18,5.68 -27,11.34 -56.38,27.03 -42.05,-0.64 -87.98,-11.34 10.04,-13.7 54.13,-28.33 55.97,-28.45 9.65,-0.64 20.64,7.16 29.18,11.41 12.89,6.41 22.23,6.68 29.83,17.04zm-153.3 0c0,130.37 -11,94.34 44.03,122.05 54.72,27.55 41.88,31.08 103.6,0.04 54.26,-27.3 43.99,-6.56 43.99,-122.09 0,-17.33 -93.67,-51.1 -93.68,-51.1 -6.62,0 -97.94,32.5 -97.94,51.1z"/>
   <path class="fil0" d="M306.62 89.43c19.27,-26.68 -8.8,11.97 42.58,0l0 -25.55 17.04 0c0,53.84 32.84,19.63 42.58,17.03l7.67 9.37c-7.97,12.32 -11.89,8.61 -16.19,24.7 8.98,15.23 8.26,12.78 34.07,12.78l0 17.03c-16.81,0 -17.28,1.34 -29.81,4.26 -2.62,31.53 -2.93,14.87 12.78,38.32l-9.37 7.67 -19.7 -16.97c-8.51,4.64 -6.07,4.07 -17.78,5.05 -2.91,12.53 -4.25,12.99 -4.25,29.81l-17.04 0c0,-38.36 1.64,-17.92 -4.26,-29.81 -21.54,-5.51 -18.17,2.13 -34.06,12.77l-7.67 -9.37c2.23,-9.53 35.4,-41.73 -17.88,-41.73l0 -17.03 25.55 0c10.16,-42.47 3.49,-12.96 -3.62,-33.02l-0.64 -5.31zm21.29 -25.55c-13.62,-9.12 -2.98,-6.99 -21.29,-8.52 -34.76,37.16 -35.01,30.62 -21.29,51.11 -11.5,0.95 -11.59,1.99 -21.29,4.25l0 51.1c11.3,5.43 4.55,3.89 21.29,4.26 -21.25,31.74 1.71,26.12 21.29,55.36 18.31,-1.52 7.67,0.6 21.29,-8.51 2.15,25.83 10.42,21.29 46.84,21.29 15.38,0 12.78,-10.75 12.78,-25.55 12.37,8.28 5.71,8.61 21.29,12.77l35.07 -33.06c-5.16,-16.58 -5.5,-9.93 -13.78,-22.3 29.15,0 25.55,2.53 25.55,-42.58 0,-13.97 -8.59,-15.98 -21.29,-17.03 9.12,-13.62 6.99,-2.99 8.52,-21.3 -29.24,-19.58 -23.62,-42.54 -55.36,-21.29 -0.37,-16.73 1.16,-9.99 -4.26,-21.29l-51.1 0c-2.26,9.71 -3.28,9.8 -4.26,21.29z"/>
   <path class="fil0" d="M340.69 140.53c0,-41.83 57.71,-14.63 32.18,10.89 -10.89,10.89 -32.18,4.81 -32.18,-10.89zm-21.3 -4.26c0,60.17 80.91,49.85 80.91,4.26 0,-56.94 -80.91,-55.21 -80.91,-4.26z"/>
   <path class="fil0" d="M468.44 183.12c13.22,19.74 21.4,12.77 80.91,12.77 11.5,0 11.74,-2.03 21.29,-4.26l0 -17.03c-24.21,-5.64 -87.23,-13.04 -102.2,8.52z"/>
   <path class="fil0" d="M468.44 144.79c15.87,8.92 80.4,4.26 102.2,4.26 -0.63,-28.1 1.83,-21.29 -85.17,-21.29 -12.57,0 -14.68,7.21 -17.03,17.03z"/>
   <path class="fil0" d="M468.44 361.97c15.87,8.91 80.4,4.26 102.2,4.26 -0.63,-28.1 1.83,-21.29 -85.17,-21.29 -12.57,0 -14.68,7.2 -17.03,17.03z"/>
   <path class="fil0" d="M468.44 221.44c6.72,25.19 20.9,17.04 89.42,17.04 14.17,0 12.48,-7.65 12.78,-21.3 -13.8,0 -95.92,-3.4 -102.2,4.26z"/>
   <path class="fil0" d="M468.44 438.62c6.72,25.19 20.9,17.03 89.42,17.03 14.17,0 12.48,-7.64 12.78,-21.29 -13.8,0 -95.92,-3.4 -102.2,4.26z"/>
   <path class="fil0" d="M468.44 319.38c15.38,8.64 69.05,4.26 89.42,4.26 11.78,0 10.25,-3.28 12.78,-12.77 -10.66,-14.54 -4.39,-8.17 -55.4,-8.57 -6.08,-0.05 -25.49,-0.89 -30.05,-0.24 -16.53,2.37 -11.8,-1.91 -16.75,17.32z"/>
   <path class="fil0" d="M468.44 102.21c15.38,8.64 69.05,4.26 89.42,4.26 11.78,0 10.25,-3.29 12.78,-12.78 -10.66,-14.54 -4.39,-8.17 -55.4,-8.57 -50.03,-0.39 -41.64,-2.98 -46.8,17.09z"/>
   <path class="fil0" d="M468.44 396.04c6.51,24.39 17.63,17.03 80.91,17.03 11.5,0 11.74,-2.03 21.29,-4.26l0 -17.03c-13.8,0 -95.92,-3.41 -102.2,4.26z"/>
   <path class="fil0" d="M468.44 46.85c4.38,18.79 -0.72,17.45 46.8,17.08 53.59,-0.41 50.21,6.62 55.4,-12.82 -4.99,-7.18 -0.61,-8.52 -12.78,-8.52 -12.56,0 -83.29,-3.23 -89.42,4.26z"/>
   <path class="fil0" d="M468.44 264.03c3.87,16.6 0.96,13.63 13.02,16.78l68.39 0.75c19.9,-1.07 16.37,3.27 20.79,-13.28 -4.99,-7.17 -0.61,-8.51 -12.78,-8.51 -12.56,0 -83.29,-3.23 -89.42,4.26z"/>
  </g>
 </g>
</svg>
