<?xml version="1.0" encoding="UTF-8"?>
<!DOCTYPE svg PUBLIC "-//W3C//DTD SVG 1.1//EN" "http://www.w3.org/Graphics/SVG/1.1/DTD/svg11.dtd">
<!-- Creator: CorelDRAW 2019 (64-Bit) -->
<svg xmlns="http://www.w3.org/2000/svg" xml:space="preserve" width="100%" height="100%" version="1.1" style="shape-rendering:geometricPrecision; text-rendering:geometricPrecision; image-rendering:optimizeQuality; fill-rule:evenodd; clip-rule:evenodd"
viewBox="0 0 719.88 719.68"
 xmlns:xlink="http://www.w3.org/1999/xlink">
 <defs>
  <style type="text/css">
   <![CDATA[
    .fil0 {fill:white}
   ]]>
  </style>
 </defs>
 <g id="Layer_x0020_1">
  <metadata id="CorelCorpID_0Corel-Layer"/>
  <path class="fil0" d="M154.56 226.07c1.79,-1.16 0.01,0.22 2.01,-1.65l26.14 -25.85c2.11,-2.1 2.71,-2.95 5.45,-5.46l43.87 -44.21c7.59,-7.42 17.83,-19.61 24.86,-19.86 6.08,-0.22 11.43,4.3 12.6,9.6 2.1,9.56 -7.75,15.77 -17.7,25.83 -27.87,28.15 -61.58,60.27 -87.62,87.68 -11.1,11.69 -20.69,-1.19 -27.21,-7.94 -6.85,-7.09 -14.67,-14.84 -21.79,-21.85l-22.21 -22.23c-8.01,-9.64 4.8,-26.02 17.41,-17.42 3.83,2.61 40.6,41.43 44.19,43.36zm93.34 136.02c2.19,-4.69 88.55,-74.88 107.71,-200.26 2.27,-14.85 8.24,-57.77 1.9,-70.3 -4.71,-9.29 -11.69,-11.83 -21.72,-16.82 -8.68,-4.31 -16.94,-8.48 -25.7,-12.88 -11.58,-5.81 -100.2,-49.18 -102.19,-51.56 -16.6,-4.75 -21.29,-16.85 -42.98,-5.64 -17,8.78 -148.84,73.47 -154.06,77.44 -13.63,10.35 -11.08,26.61 -9.78,46.42 6.33,96.18 49.02,173.46 112.44,233.92 12.39,11.82 32.38,27.99 46.37,40.02 24.59,21.13 38.03,1.55 56.46,-13.38l23.01 -19.77c2.61,-2.23 5.34,-5.06 8.54,-7.19zm288.18 -68.28c-4.12,-5.26 -7.6,-10.61 -10.79,-16.87 -14.46,-28.37 -14.4,-62.2 -0.13,-90.72 7.42,-14.82 14.46,-21.06 24.34,-31.75l-167.57 0.15c-1.65,6.42 -2.49,15.78 -3.94,22.88 -1.49,7.28 -2.96,13.86 -4.74,21.18 -3.3,13.63 -8.01,27.77 -12.77,40.05 -6.75,17.41 -16.4,37.86 -25.99,53.72 -2.87,4.75 -7.74,11.8 -9.72,16.56l225 -0.02 -13.69 -15.18zm54.4 271.27c-47.36,-0.16 -40.62,-0.44 -64.54,47.17 -6.08,12.09 -16.43,26.11 -9.17,42.26 5.56,12.37 12.21,24.38 18.47,36.91 6.41,12.88 11.06,27.15 27.9,28.17 16.65,1.01 28.94,-10.99 28.34,-26.57 -0.34,-9.01 -12.24,-30.1 -16.89,-39.26 -6.65,-13.11 -7.89,-8.06 7.21,-36.9l70.16 0.19c2.85,3.99 7.13,13.69 9.53,18.58 4.85,9.88 2.39,9.17 -2.61,18.98 -4.16,8.15 -16.44,29.66 -16.5,39.21 -0.11,15.77 13.44,27.77 30.22,25.6 15.29,-1.98 20.42,-16.56 26.5,-28.81 3.01,-6.06 6.22,-12.43 9.52,-19.01 15.19,-30.27 15.11,-27.96 -0.86,-59.6 -4.43,-8.77 -14.22,-31.05 -19.15,-37.03 -11.31,-13.73 -25.01,-8.88 -45.74,-9.99l-0.06 -50.91 -51.53 0.44c-1.41,11.91 1.77,41.8 -0.8,50.57zm-50.74 -328.41c4.47,43.89 36.9,72.88 82.03,71.93 40.25,-0.84 75.41,-39.1 72.3,-82.03 -3.1,-42.82 -37.06,-73.51 -82.4,-72.09 -39.3,1.22 -76.23,39.89 -71.93,82.19zm21.52 174.94c-8.76,1.46 -14.07,6.18 -17.47,11.33 -5.13,7.75 -4.12,14.81 -4.12,25.1 0,13.57 -2.12,33.57 18.3,39.5 5.83,1.7 105.68,2.12 114.84,0.71 8,-1.22 13.62,-5.68 17.25,-11.34 5.13,-8.01 4.15,-14.72 4.15,-25.51 0,-9.04 1.08,-18.45 -2.73,-26.11 -2.75,-5.54 -9.04,-11.39 -16.15,-13.22 -4.51,-1.16 -107.57,-1.55 -114.07,-0.46zm3.97 -25.8l102.83 0.06c1.18,-10.31 -0.1,-42.72 0.29,-57.79 0.21,-8.01 -0.09,-6.52 -2.13,-7.65 -4.95,6.91 -36.7,13.83 -50.33,13.65 -28.67,-0.36 -38.29,-10.09 -50.32,-13.88l-0.34 65.61z"/>
 </g>
</svg>
