<?xml version="1.0" encoding="UTF-8"?>
<!DOCTYPE svg PUBLIC "-//W3C//DTD SVG 1.1//EN" "http://www.w3.org/Graphics/SVG/1.1/DTD/svg11.dtd">
<!-- Creator: CorelDRAW 2019 (64-Bit) -->
<svg xmlns="http://www.w3.org/2000/svg" xml:space="preserve" width="100%" height="100%" version="1.1" style="shape-rendering:geometricPrecision; text-rendering:geometricPrecision; image-rendering:optimizeQuality; fill-rule:evenodd; clip-rule:evenodd"
viewBox="0 0 482.24 465.68"
 xmlns:xlink="http://www.w3.org/1999/xlink">
 <defs>
  <style type="text/css">
   <![CDATA[
    .fil0 {fill:#A6A182}
   ]]>
  </style>
 </defs>
 <g id="Layer_x0020_1">
  <metadata id="CorelCorpID_0Corel-Layer"/>
  <path class="fil0" d="M216.39 399.65l51.55 0.05 21.58 55.13 -98.02 0.12 24.89 -55.3zm-174.32 -53.83l400.25 0.02c1.14,7.97 3.8,40.35 -3.1,42.77 -0.29,0.11 -0.82,0.4 -1.19,0.51 -6.31,1.8 -348.89,0.31 -383.97,0.68 -15.08,0.16 -12.87,-1.44 -12.68,-16.25 0.12,-9.12 -0.89,-18.81 0.69,-27.73zm317.29 -100.38l-0.03 -52.73 112.09 0.04 -0.04 111.44c-28.82,1.38 -81.58,0.3 -112,0.29l-0.02 -59.04zm-278.01 -233.08c2.5,-2.54 -2.24,-1 4.39,-1.98 11.45,-1.69 166.71,0.28 166.88,0.3 2.76,9.23 1.06,71.45 1.06,86.12l-0.14 82.25c-0.7,5.31 -0.81,2.75 -1.26,3.73l-171.05 -0.52 0.12 -169.9zm-10.01 174.58c2.05,5.77 -1.36,5.41 8.1,5.8l86.98 -0.26c111.43,0 94.57,7 96.78,-22.53l17.78 -0.79c4.9,3.18 2.59,-0.8 4.18,6.58l-0.49 46.19c0.04,0.24 0.68,1.66 0.73,1.35 0.06,-0.4 0.85,1.03 1.19,1.59l3.62 -3.4c0.32,-0.29 1.68,-0.93 1.87,-1.63 0.16,-0.55 0.63,-0.56 0.97,-0.81 -5.54,-10.94 3.61,-48.6 -3.8,-56.74 -4.29,-4.71 -14.66,-2.57 -26.34,-2.69l0.38 -32.35 179.43 0.51 0.13 54.73 -88.54 -0.34 -4.14 3.62 0.13 44.84c-3.23,5.29 1.39,1.44 -5.15,3.57 -0.07,0.03 -5.94,0.4 -6.3,0.4l-36.44 -1.78c7.94,10.09 9.94,5.09 22.14,3.99 8.08,-0.73 16.57,-0.03 25.28,-0.83 -0.49,0.2 -1.08,0.37 -1.53,0.48 -7.97,1.95 -13.2,1.14 -22.18,1.1 -3.39,-0.02 -7.95,-0.35 -11.09,-0.26 -2.36,0.07 -4.22,0.2 -6.41,0.95 -5.36,1.83 -0.92,-2.1 -4.63,2.76l45.18 -0.18 -0.02 64.85c0.79,7.42 -1.04,3.92 3.19,7.13 4.88,4.48 76.86,0.99 90.5,2.08l-0.03 20.5 -401.27 0.37 -0.15 -21.09c39.63,-0.92 104.13,1.64 139.38,0.02l7.69 -1.78c-9.88,-2.57 -127.98,-1.03 -148.52,-1.03l9.42 -1.7c33.59,-1.37 105.18,0.19 140.38,0.11 -4.92,-4.91 -6.73,-1.52 -21.73,-1.56 -38.65,-0.13 -133.96,-1.87 -159.7,-0.03l11.03 1.7c3.59,0.04 7.46,-0.12 11.1,-0.12 1.81,-3.26 4.92,1.87 -0.98,-0.96 -7,-3.36 -0.32,0.16 -0.29,0.26 2.34,8.74 7.57,-5.07 1.27,2.3 -8.74,0 -18.68,-1.1 -26.83,1.06l4.78 1.55c5.58,0.78 14.66,-0.86 22.97,0.8 0,94.93 -6.66,84.44 43.35,84.44 43.33,0 86.72,0.24 130.04,-0.03l-19.07 42.13c-7.42,15.84 0.37,13.27 -35.08,13.11 -10.48,-0.04 -20.84,-3.15 -18.87,8.69 7.53,2.57 208.77,2.87 218.23,0.17 2.3,-11.42 -6.86,-8.94 -17.49,-8.86 -10.01,0.06 -20.05,0.01 -30.06,0.01 -5.98,-4.64 -21.31,-46.25 -23.69,-55.07 20.16,-0.71 154.41,-2.14 163.38,0.78 0.36,-0.29 0.92,-1.15 1.1,-0.83 0.19,0.31 0.84,-0.64 1.09,-0.83 11.95,-9.26 8.7,-13.72 8.7,-36.53 0,-15.83 0,-31.65 0,-47.47 8.47,-0.93 18.98,1.25 26.51,-1.55 3.66,-6.08 3.64,-123.63 0,-129.84l-26.5 -1.3c-0.06,-91.54 24.92,-59.23 -189.94,-65.22l-0.11 -107.3c-0.47,-4.07 0.5,0.96 -0.5,-2.85 -0.94,-3.53 -0.08,-1.56 -1.66,-3.68 -3.11,3.46 -0.32,4.64 -2.66,1.84l-181.83 0c-6.33,5.9 -0.35,-3.92 -0.1,2.21 0.2,4.76 0.32,3.18 1.68,4.13 0,28.9 0.76,57.88 0.8,86.97 0.01,10.23 -3.66,78.89 0.77,82.22l-0.49 -42.9c-0.21,-2.88 -0.26,-5.4 -0.91,-7.51 -0.07,-0.23 -0.3,-0.67 -0.37,-0.84l-0.89 -0.81c-0.02,-0.21 -0.37,-0.23 -0.5,-0.12 -3.18,1.41 -1.58,23.77 -1.58,30.04 0,14.43 2.77,28.46 -3.37,28.47zm-61.13 62.04l171.68 -0.31c1.86,8.29 2.22,49.31 -0.42,55.99l-170.8 0.2c-2.64,-7.06 -2.28,-47.75 -0.46,-55.88zm284.47 -18.51c1.77,15.8 -8.1,18.22 -17.18,8.84 -0.66,-14.02 6.44,-15.03 17.18,-8.84zm-291.07 82.45c8.15,-2.16 18.09,-1.06 26.83,-1.06 6.3,-7.37 1.07,6.44 -1.27,-2.3 -0.03,-0.1 -6.71,-3.62 0.29,-0.26 5.9,2.83 2.79,-2.3 0.98,0.96 -3.64,0 -7.51,0.16 -11.1,0.12l-11.03 -1.7c25.74,-1.84 121.05,-0.1 159.7,0.03 15,0.04 16.81,-3.35 21.73,1.56 -35.2,0.08 -106.79,-1.48 -140.38,-0.11l-9.42 1.7c20.54,0 138.64,-1.54 148.52,1.03 2.66,-0.31 3.8,4.9 3.52,-13.65 -0.1,-6.18 -0.19,-12.39 0.2,-18.56l73.86 -0.17c31.96,0.03 23.44,0.37 25.55,-25.59 6.27,-4.7 12.24,-5.76 12.4,-13.93 3.71,-4.86 -0.73,-0.93 4.63,-2.76 2.19,-0.75 4.05,-0.88 6.41,-0.95 3.14,-0.09 7.7,0.24 11.09,0.26 8.98,0.04 14.21,0.85 22.18,-1.1 0.45,-0.11 1.04,-0.28 1.53,-0.48 -8.71,0.8 -17.2,0.1 -25.28,0.83 -12.2,1.1 -14.2,6.1 -22.14,-3.99l36.44 1.78c0.36,0 6.23,-0.37 6.3,-0.4 6.54,-2.13 1.92,1.72 5.15,-3.57 -8,0.89 -16.11,0.55 -24.18,0.55 -4.22,0 -8.53,0.13 -12.73,0.12 -6.24,-0.02 -7.31,1.39 -8.92,-3.23 -3.12,-3.72 -5.59,-8.49 -11.42,-9.02 -0.34,0.25 -0.81,0.26 -0.97,0.81 -0.19,0.7 -1.55,1.34 -1.87,1.63l-3.62 3.4c-0.34,-0.56 -1.13,-1.99 -1.19,-1.59 -0.05,0.31 -0.69,-1.11 -0.73,-1.35l0.49 -46.19c-1.59,-7.38 0.72,-3.4 -4.18,-6.58l0.15 47.33c-19.94,14.23 -19.52,24.28 0.05,38.6l-0.24 15.21 -88.7 -0.12c-0.69,-8.03 2.43,-24.1 -2.83,-28.83 -5.34,-4.98 -130.54,-1.76 -147.88,-2.16 -0.47,-18.87 -0.14,-38.09 -0.14,-57 0,-60.32 -7.21,-57.35 29.69,-54.68l0.26 59.43c6.14,-0.01 3.37,-14.04 3.37,-28.47 0,-6.27 -1.6,-28.63 1.58,-30.04 0.13,-0.11 0.48,-0.09 0.5,0.12l0.89 0.81c0.07,0.17 0.3,0.61 0.37,0.84 0.65,2.11 0.7,4.63 0.91,7.51l0.49 42.9c-4.43,-3.33 -0.76,-71.99 -0.77,-82.22 -0.04,-29.09 -0.8,-58.07 -0.8,-86.97 -1.36,-0.95 -1.48,0.63 -1.68,-4.13 -0.25,-6.13 -6.23,3.69 0.1,-2.21l181.83 0c2.34,2.8 -0.45,1.62 2.66,-1.84l1.07 -2.31c-22.75,0.09 -179.69,-2.71 -188.73,1.02 -4.67,7.91 -1.63,97.79 -2.15,114.9 -10.89,0.93 -28,-2.83 -35.14,4.32 -6.74,6.76 -4.48,26.12 -4.48,37.3 0,26.64 0.38,53.57 -0.06,80.17 -7.96,1.41 -23.6,-2.15 -28.59,2.68 -3.63,3.24 -2.06,0.17 -2.64,7.14 -0.19,2.23 0.07,7.1 0.1,9.62l0.43 51.89c1.61,4.12 -1.43,2.47 3.01,2.95zm232.19 -221.26l-0.01 9.99c-12.1,3.85 -14.86,1.69 -20.1,14.43 -7.51,18.23 0.67,13.5 3.21,27.03l-6.49 5.43c-11.69,-4.24 -10.53,-9.85 -25.9,-3.22 -24,10.37 -0.25,20.42 -25.19,19.98 -1.55,-12.53 -2.25,-15.46 -13.39,-19.98 -14.81,-6.01 -13.18,-3.66 -24.42,3.08l-8.52 -7.01c6.06,-12.21 8.94,-10.81 3.42,-24.97 -5.13,-13.17 -6.27,-11.09 -20.16,-14.34l0.19 -10.03c13.59,-7.69 12.98,2.17 19.9,-14.91 6.99,-17.23 0.24,-12.79 -2.65,-26.19l6.4 -6.08c13.17,4.58 7.71,10.18 25.47,3.07 15.83,-6.34 8.27,-5.79 14.78,-19.87l9.44 0.04c5.21,12.32 0.38,14 13.8,19.54 10.71,4.43 16.5,4.87 24.47,-3.05l9.03 7.52c-6.45,11.86 -8.62,11.46 -3.24,25.26 5.63,14.46 7.32,9.38 19.96,14.28zm-60.57 -73.16c-24.58,-6.91 -23.44,12.67 -26.23,16.67 -1.29,1.85 -9.14,7.35 -15.36,4.35 -5.67,-2.74 -8.87,-7.61 -16.73,-3.52 -1.95,1.01 -10.47,10.04 -11.32,12.71 -2.45,7.71 13.89,24.32 -2.2,30.98 -5.93,2.46 -11.54,1.65 -14.19,8.09 -2.33,5.64 -1.85,15.65 1.27,20.14 3.49,5.03 10.64,5.2 16.49,6.11 2.19,8.38 6.25,9.84 2.29,17.19 -2.91,5.42 -6.87,8.71 -2.66,15.85 12.17,20.66 26.39,6.74 29.08,6.05 3.23,-0.84 5.87,0.23 9,1.77 6.92,3.39 3.03,-0.7 5.42,5.58 2.34,6.14 1,11.31 8.11,14.04 5.03,1.94 16.46,1.21 19.9,-1.17 5.89,-4.07 3.32,-9.8 7.08,-15.13 9.92,-14.07 19.68,4.56 32.09,-0.95 20.75,-9.21 6.74,-28.11 6.74,-28.12 -5.86,-17.65 17.18,-14.24 20.83,-23.55 2.39,-6.07 1.82,-16.94 -1.46,-20.93 -2.72,-3.31 -11,-4.4 -15.86,-6.2 -11.48,-21.76 8.34,-19.67 -0.47,-32.69 -13.86,-20.48 -24.46,-5.89 -29.36,-5.25 -17.2,2.25 -11.32,-18.9 -22.46,-22.02zm214.67 203.59c7.03,0.26 7.76,4.01 16.18,0.69 10.13,-4 5.26,-3.76 10.17,-11.67 2.51,1.69 0.24,-0.41 2,2.33 8.18,12.72 11.06,11.94 25.67,7.83 -2.51,9.18 -6.91,16.36 6.5,24.71l1.98 1.23c0.26,0.17 0.76,0.54 0.96,0.68 0.21,0.14 0.68,0.44 0.96,0.71 -5.09,3.98 -7.81,2.18 -11.32,9.44 -4.19,8.67 -0.8,9.77 0.75,17.66 -24.32,-7.68 -19.05,4.41 -27.75,10.4 -4.12,-8.4 0.24,-8.14 -9.79,-11.76 -10.53,-3.8 -8.09,0.1 -16.3,0.63 2.07,-12.62 6.9,-17.05 -9.45,-25.72 -0.27,-0.14 -0.79,-0.39 -1.14,-0.65 2.01,-1.62 19.02,-5.71 10.58,-26.51zm-8.71 12.28c-5.91,5.83 -12.18,2.15 -12.05,14.22 0.13,12.08 7.04,7.95 12.12,14.24 0.74,9.07 -5.63,11.06 1.74,18.98 8.85,9.52 10.69,0.35 20.14,2.48 6.23,6.85 3.16,15.48 19.73,10.93 2.89,-2.42 2.77,-2.44 4.58,-5.58 2.43,-4.21 -0.77,-1.43 3.14,-5.59 8.65,-1.09 12.06,6.11 20.03,-1.04 9.47,-8.51 -0.25,-14.14 1.42,-19.49 2.21,-7.04 12.53,-1.27 12.61,-14.93 0.09,-13.73 -10.15,-7.87 -12.57,-15.59 -0.93,-5.99 3.25,-4.24 2.03,-14.92 -12.85,-14.55 -11.99,-2.86 -23.08,-5.18 -5.88,-2.79 -0.66,-12.65 -14.73,-12.15 -14.37,0.52 -6.75,10.32 -14.76,12.4 -7,1.81 -9.2,-8.28 -18.71,2.1 -8.52,9.29 -0.4,8.7 -1.64,19.12zm-220.72 -148.7c15.59,-9.18 27.4,13.86 13.79,22.19 -14.55,8.89 -30.11,-12.59 -13.79,-22.19zm1.04 -11.73c-30.51,7.6 -19.13,52.75 11.64,45.37 11.01,-2.64 19.73,-14.72 16.65,-28.39 -2.43,-10.76 -14.56,-20.41 -28.29,-16.98zm249.66 171.44c12,-7.35 16.91,9.94 1.85,7.91l-1.85 -7.91zm0.69 -11.4c-21.3,8.04 -7.79,36.45 10.85,29.08 16.65,-6.59 8.94,-36.55 -10.85,-29.08zm-401.52 -96.54c15.45,3.55 0.6,-25.31 31.29,-34.05 4.1,-1.17 18.15,-4.82 8.7,-10.61 -12.66,-7.75 -52.05,21.8 -39.99,44.66zm442.29 269.36c-3.64,10 -28.66,3.15 -29.24,15.05 5.89,6.09 19.88,2.23 28.43,-1.66 10.87,-4.93 12.8,-11.86 19.9,-16.64 3,-8.28 7.06,-11.17 -0.13,-16.69 -7.28,2.36 -5.06,4.12 -9.06,10.8 -2.71,4.52 -5.61,6.64 -9.9,9.14zm-319.19 -120.63c-2.83,-5.71 -3.02,-12.63 0.3,-17.97 12.48,-1.73 9.33,12.13 6.35,18.71l-6.65 -0.74zm-9.22 -2.78c4.51,16 31.95,11.13 25.06,-12.53 -4.6,-15.81 -31.7,-11.01 -25.06,12.53zm-68.12 -5.61l0.82 3.55 -6.07 -1.34 3.5 -7.63 1.75 5.42zm-16.12 14.68c17.05,-0.45 -1.56,-5.83 17.34,-5.68 5.24,5.86 0,5.85 10.52,5.49 -0.67,-5.8 -3.83,-12.17 -5.99,-18.12 -3.02,-8.33 -1.38,-12.08 -10.54,-12.16 -3.77,4.84 -10.82,23.38 -11.33,30.47zm54.27 -30.04l-7.26 -0.32 0.19 10.22c0,1.98 0.24,6.24 0.01,7.96 -0.98,7.39 -0.16,2.14 -1.86,4.36 -2.78,2.73 -2.11,2.11 -7.29,2.23l-1.12 -24.76 -6.09 0.01c-1.72,9.29 -0.88,21.36 1.47,28.41 26.39,7.73 21.45,-8.13 21.95,-28.11zm165.07 62.47c11.21,2.51 9.25,-4.11 9.19,-14.58 -0.06,-9.87 2.72,-19.06 -6.51,-19.77 -5.75,5.14 -4.2,26.46 -2.68,34.35zm-161.96 -62.06c0.12,7.2 -0.87,4.44 8.34,5.28l0.37 24.32 6.67 0.04 0.79 -24.12c9.8,-1.51 7.25,-0.15 8.95,-3.94 -3.87,-5.09 -24.26,-1.91 -25.12,-1.58zm178.82 33.86l-0.72 8.83 0.13 11.07 0.63 8.6c12.31,1.65 9.45,-5.67 9.47,-16.5 -0.03,-8.29 0.15,-15.08 -9.51,-12zm-25.46 28.36c1.04,-9.73 2.51,-15.82 -2.66,-20.32 -6.87,0.56 -6.92,4.4 -6.74,11.85 0.21,8.54 1.6,9.84 9.4,8.47zm-43.07 0.22c5.76,0.59 10.6,0.15 9.96,-7.1l-0.89 -13.26 -8.16 0.01 -0.91 20.35zm26.06 0.05c0.63,-3.86 1.09,-21.46 -7.38,-13.8 -3.88,3.51 -4.81,15.01 7.38,13.8z"/>
 </g>
</svg>
