<svg width="37" height="56" viewBox="0 0 37 56" fill="none" xmlns="http://www.w3.org/2000/svg">
<path fill-rule="evenodd" clip-rule="evenodd" d="M5.96434 11.4732V11.9145H5.35338C5.34192 11.8832 5.30982 11.7702 5.30065 11.7485C5.22959 11.5922 5.22385 11.6006 5.16196 11.5128H4.58882C4.51546 11.3 4.52922 11.2038 4.19336 10.9657L4.01569 10.8574C3.89304 10.7901 3.91826 10.8274 3.82426 10.7709C3.82426 9.91464 3.84031 10.0505 3.63513 9.87015C3.63398 10.5773 3.53082 11.4611 3.72454 12.0793C3.91252 12.6793 4.25182 13.1086 4.83642 13.1267L5.07484 13.2373C5.5643 13.4249 6.01822 13.3564 6.44922 13.2037C6.90887 13.0401 12.0682 13.1014 13.0953 13.1183C13.3807 13.1219 13.4506 13.0738 13.6638 13.265C13.6799 13.2806 13.6971 13.3059 13.7108 13.3227L13.853 13.5764L13.8679 13.3456C14.2885 13.1688 19.1797 13.2722 20.0611 13.2734C20.5919 13.2818 20.1712 13.2337 20.3454 13.4766C21.3564 13.1183 21.2567 13.5344 21.2785 13.6017H21.5891L21.6843 13.188C21.7175 13.4658 21.8161 13.5536 21.8929 13.7568L21.925 16.9508L21.9273 17.1036L21.9869 13.4911C22.0385 13.2602 22.0087 13.3636 22.0683 13.2578L31.3324 13.2265C31.69 13.3552 32.0591 13.2926 32.3365 13.4093C32.3595 13.4189 32.3835 13.4297 32.4042 13.4418C32.4236 13.4526 32.4477 13.467 32.4649 13.4802C32.4821 13.4923 32.5039 13.5103 32.5199 13.5247C32.7022 13.7039 32.5108 13.4249 32.6426 13.7087C32.7102 13.8518 32.7274 14.0984 32.787 14.2535C32.9509 13.7015 32.7767 14.1657 33.0094 13.9553L33.1435 13.9156L33.1458 13.2758C34.981 13.2746 35.9989 13.5548 36.4642 11.8736L36.0768 11.0066C35.9645 10.9549 36.0539 11.0318 35.945 10.9428C35.7501 10.7841 35.8223 11.3132 35.8005 10.5688L34.864 10.754C34.7517 9.52501 34.8446 7.95566 34.8171 6.66291C34.8113 6.41759 34.7987 6.18309 34.7964 5.95099C34.793 5.49642 34.9947 5.56136 34.7655 5.56016L34.7666 11.4696L5.96434 11.4732ZM21.1627 0.155836L21.0767 0.240016C21.0217 0.286916 20.9621 0.332613 20.9277 0.362677C20.0669 1.09384 20.35 2.03304 20.3477 3.55669L18.2455 3.55909L17.9096 3.97638C17.5118 4.14113 17.9039 4.07379 17.7686 3.95834C18.775 3.73948 20.8727 3.85853 21.9708 3.85853L21.972 3.55669L21.9754 1.88272L31.3347 1.75044V3.55789H27.4145L27.5096 5.05989C25.8498 5.0635 19.6634 4.94204 18.5332 5.16091C18.7808 5.40142 18.2283 5.35572 18.8197 5.36173C21.494 5.36654 24.1682 5.36173 26.8413 5.36294L34.3906 5.35572C34.9443 5.45193 34.6291 5.2066 34.7655 5.56016C34.9947 5.56136 34.793 5.49642 34.7964 5.95099C34.7987 6.18309 34.8113 6.41759 34.8171 6.66291C34.8446 7.95566 34.7517 9.52501 34.864 10.754L35.8005 10.5688C35.8223 11.3132 35.7501 10.7841 35.945 10.9428C36.0539 11.0318 35.9645 10.9549 36.0768 11.0066L36.4642 11.8736C36.5078 11.5489 36.5674 5.41465 36.4619 4.88311C36.3267 4.20367 35.9473 3.92227 35.4372 3.6589C35.1953 3.8922 35.7387 3.85733 35.1506 3.85733C34.934 4.25658 35.6057 4.46462 34.6864 4.51994C34.1476 4.55241 33.8278 4.60292 33.3395 4.61374C33.1527 4.61855 32.7446 4.62456 32.575 4.58969C32.356 4.54519 32.3881 4.54038 32.2792 4.48146C32.2528 4.46703 32.1268 4.38285 32.0993 4.35759L31.4505 3.45687C31.4975 2.84717 31.4046 2.73534 31.6167 2.1545C31.6511 2.09557 31.9789 1.91879 32.3342 1.90436L32.1428 1.20207C32.1623 0.464895 32.0866 0.942313 32.3411 0.724649L32.6128 0.567113C32.3996 0.201534 32.0637 0.065644 31.6213 0.0452004C29.8033 -0.0401816 21.9846 -0.00530724 21.1627 0.155836ZM14.3791 4.74963C14.4559 4.84463 14.4777 4.90596 14.4857 4.88311C14.4995 4.84223 14.5052 5.00217 14.5212 5.05989C14.3149 5.14167 14.4421 5.12844 14.0925 5.16091C14.2794 5.39781 13.7395 5.36053 14.331 5.36053C14.3321 5.52168 14.3138 5.79827 14.3298 5.94618C14.3951 6.57151 14.4272 5.93295 14.5212 6.5631C14.0444 6.12416 14.073 6.27208 13.8644 6.26125C13.5928 6.24682 13.2707 6.26245 12.9933 6.26245C12.9898 6.17106 12.9245 5.78263 12.9027 5.71649L12.7388 5.44832C12.4946 5.0623 12.6391 5.82713 12.7067 5.36294C11.0916 5.89086 9.31947 6.64607 7.73418 7.25457C6.88938 7.57926 6.1168 7.88231 5.28575 8.19618C4.23463 8.59302 3.92284 8.73132 3.63513 9.87015C3.84031 10.0505 3.82426 9.91464 3.82426 10.7709C3.91826 10.8274 3.89304 10.7901 4.01569 10.8574L4.19336 10.9657C4.52922 11.2038 4.51546 11.3 4.58882 11.5128H5.16196C5.22385 11.6006 5.22959 11.5922 5.30065 11.7485C5.30982 11.7702 5.34192 11.8832 5.35338 11.9145H5.96434V11.4732C5.48177 11.4744 5.26741 11.7618 5.36828 10.1708C5.70873 9.91224 11.0675 7.93763 11.9593 7.58768L16.9158 5.672C17.7296 5.3461 17.7801 5.35692 18.8197 5.36173C18.2283 5.35572 18.7808 5.40142 18.5332 5.16091C19.6634 4.94204 25.8498 5.0635 27.5096 5.05989L27.4145 3.55789L21.972 3.55669L21.9708 3.85853C20.8727 3.85853 18.775 3.73948 17.7686 3.95834C17.9039 4.07379 17.5118 4.14113 17.9096 3.97638L18.2455 3.55909C16.8459 3.5627 16.1707 3.99682 14.778 4.53197L14.3791 4.74963ZM30.8533 30.8116V31.212C30.1116 31.212 23.9 31.0425 23.3337 31.3383L22.8913 31.5764C22.5405 31.6798 21.2705 31.6883 20.9082 31.5247C20.6159 31.3948 20.5838 31.3287 20.538 31.212H15.5724C15.5632 31.6101 15.4933 31.4862 15.3809 31.8121C15.1265 31.8121 14.8628 31.8037 14.6095 31.8073C14.488 31.8085 14.3734 31.8085 14.2542 31.8302C13.3669 31.9877 12.3193 32.0262 11.3667 31.9673C10.8543 31.9348 11.1375 31.8025 10.2273 31.8097L6.32771 31.6919C6.30822 31.6822 6.28301 31.669 6.26467 31.6582C6.24633 31.6474 6.22111 31.6329 6.20391 31.6221C6.03541 31.5127 6.12253 31.5921 5.99185 31.4417C5.88869 31.3227 5.97008 31.4045 5.8715 31.2662C5.32817 30.5037 5.22959 31.212 4.76764 31.9047C4.59226 32.1669 4.70803 31.9107 4.58882 32.1885C4.25297 31.9997 4.53724 32.0478 4.07988 32.013C4.19909 33.1854 4.36759 32.417 4.58882 33.1494L4.62436 32.7814L5.25824 32.8151C5.25824 32.2679 5.21468 32.6539 5.42789 32.5649L34.7666 32.5914L34.7701 33.9924C34.8996 33.7254 34.8526 33.2624 34.8526 32.8896C35.0314 32.9702 35.075 32.8596 35.0795 33.5907H35.4131C35.5312 33.3358 35.4234 33.4488 35.7192 33.3899C35.7811 33.3779 36.1135 33.3911 36.2017 33.3911L36.2579 34.192C36.4023 33.1999 36.3141 33.4681 36.3634 32.8078L36.4895 32.3256C36.3943 31.758 36.227 31.4502 35.82 31.2108L35.8773 31.4081C35.8808 31.4261 35.89 31.455 35.8934 31.473C35.9312 31.7135 35.8773 31.6606 35.8189 32.013L33.2409 31.9769C32.7377 31.93 32.8512 31.9889 32.3812 32.013C32.3721 32.4363 32.4878 32.3136 31.9995 32.3136C31.9468 31.6293 31.8826 31.7965 31.7588 31.6762C31.2705 31.2024 31.5834 31.3263 31.3313 31.111C31.4379 30.8296 31.2522 31.0509 31.5215 30.6601V29.3649C31.5215 28.2826 31.5811 28.3548 31.4344 27.9002C31.4252 27.8689 31.3989 27.8605 31.3909 27.8028C31.3828 27.7438 31.3611 27.7354 31.3427 27.7054L31.3496 30.8068L30.8533 30.8116ZM16.3358 40.1339C16.6968 40.271 16.8676 40.4357 17.2918 40.3936C17.9486 40.2229 19.0605 40.313 19.778 40.3299C19.95 40.3335 20.1781 40.3515 20.3351 40.3503L20.6526 40.3563C20.6652 40.3587 20.6916 40.3684 20.7053 40.372C21.2086 40.4874 21.5375 40.5584 21.6843 40.2457L21.7232 40.3792C21.8035 40.8722 21.9032 41.8211 21.8241 42.2528C21.7553 42.6015 21.7473 42.6677 21.8573 42.9527L21.9147 40.3972C23.4805 40.3154 25.193 40.3864 26.7462 40.3852C27.544 40.3852 28.3383 40.408 29.1339 40.39C29.4651 40.3828 31.157 40.313 31.4436 40.5343L31.4069 41.245L31.4894 41.1103C31.8815 40.6005 31.8815 40.9408 32.4557 40.8398L32.7435 40.7496C32.7778 40.7351 32.9257 40.6594 32.9544 40.645C32.9452 40.9829 32.8466 41.2607 33.0678 41.3749C33.0667 41.2763 33.0518 41.0117 33.0621 40.93C33.116 40.4742 32.9922 40.7857 33.1951 40.5343C34.2565 40.4249 35.2412 40.752 35.6905 40.1723L34.5717 39.8693C34.5603 39.8693 34.5316 39.8729 34.5202 39.8729L34.2955 39.8789C33.8244 39.7334 33.939 39.6781 33.9092 39.3269H20.1563C20.0153 39.4953 20.0015 39.4256 19.6909 39.4328C19.5029 39.4364 19.2828 39.4135 19.0971 39.4231C18.344 39.4616 18.7315 39.9823 17.004 39.7959C16.6281 39.7551 16.2395 39.4737 16.3358 40.1339ZM14.9385 37.7323C15.1001 38.0053 15.1952 37.9837 15.3809 38.1244C15.0749 38.0667 15.2514 38.1051 15.0542 38.0186C15.0084 37.9993 14.9843 37.9813 14.9465 37.9632L14.7333 37.8237L14.8078 38.6259C14.3848 38.6259 14.3722 38.5741 14.0547 38.7281L13.6535 38.995C13.6466 38.9782 13.6191 39.0179 13.6031 39.0299L16.3358 40.1339C16.2395 39.4737 16.6281 39.7551 17.004 39.7959C18.7315 39.9823 18.344 39.4616 19.0971 39.4231C19.2828 39.4135 19.5029 39.4364 19.6909 39.4328C20.0015 39.4256 20.0153 39.4953 20.1563 39.3269H33.9092C33.939 39.6781 33.8244 39.7334 34.2955 39.8789L34.5202 39.8729C34.5316 39.8729 34.5603 39.8693 34.5717 39.8693L35.6905 40.1723C36.0069 40.0918 36.0195 40.0581 36.2109 39.7358C36.3829 39.4472 36.447 39.2331 36.486 38.8555C36.1914 38.7918 36.4 38.6295 36.1788 39.0227L36.2694 38.4539C35.7788 38.395 35.8361 38.5056 35.3592 38.3036C34.8365 38.0835 34.9592 38.1641 34.9592 37.558C34.9592 37.3163 35.0096 36.7354 34.7792 36.5226L34.7861 38.7148C30.1747 38.8844 24.0903 38.7245 19.2014 38.7269C18.0517 38.7281 17.8752 38.8062 16.9169 38.4142C16.4676 38.2302 15.3867 37.7708 14.9385 37.7323ZM21.8344 29.7834C21.5754 30.0588 21.5811 30.4244 21.6132 30.7863C20.9289 30.7863 21.1753 30.8104 20.6618 30.5578C20.6343 30.5434 20.5311 30.4953 20.5093 30.4857L20.3489 30.4099L20.3477 30.8104L13.571 30.8044C13.3188 30.7659 13.3796 30.7659 13.3142 30.7046L13.1526 30.3101L12.8546 30.8356C12.8511 30.8212 12.8477 30.8886 12.8351 30.9102L11.0228 30.7587C10.7225 30.5975 10.9609 30.6601 10.6056 30.5927C10.5059 30.5747 10.1276 30.5627 10.0244 30.5711C9.5728 30.6072 9.61865 30.6685 9.30572 30.8284C8.74634 31.1146 7.84995 30.9439 7.16793 30.9451C6.35064 30.9463 6.14545 31.0629 5.70529 30.7274L5.41643 30.4099C5.41643 30.5807 5.32358 30.5554 5.23073 30.6589L5.48062 30.7671C4.76879 30.8044 4.19795 31.0437 4.02371 31.5163L3.90679 31.8073C3.94806 31.847 3.97213 31.8771 3.9813 31.93C3.98932 31.9697 4.05352 31.9937 4.07988 32.013C4.53724 32.0478 4.25297 31.9997 4.58882 32.1885C4.70803 31.9107 4.59226 32.1669 4.76764 31.9047C5.22959 31.212 5.32817 30.5037 5.8715 31.2662C5.97008 31.4045 5.88869 31.3227 5.99185 31.4417C6.12253 31.5921 6.03541 31.5127 6.20391 31.6221C6.22111 31.6329 6.24633 31.6474 6.26467 31.6582C6.28301 31.669 6.30822 31.6822 6.32771 31.6919L10.2273 31.8097C11.1375 31.8025 10.8543 31.9348 11.3667 31.9673C12.3193 32.0262 13.3669 31.9877 14.2542 31.8302C14.3734 31.8085 14.488 31.8085 14.6095 31.8073C14.8628 31.8037 15.1265 31.8121 15.3809 31.8121C15.4933 31.4862 15.5632 31.6101 15.5724 31.212H20.538C20.5838 31.3287 20.6159 31.3948 20.9082 31.5247C21.2705 31.6883 22.5405 31.6798 22.8913 31.5764L23.3337 31.3383C23.9 31.0425 30.1116 31.212 30.8533 31.212V30.8116L22.0419 30.8104L22.0534 27.5045L21.8757 27.5502L21.878 30.1093L21.8344 29.7834ZM3.85406 14.0418C3.87699 14.3136 4.02027 14.0178 3.79675 14.3786C3.81051 14.3846 3.83687 14.3677 3.8426 14.3858C3.97328 14.8476 3.75663 14.2174 4.10166 14.4784L4.17846 15.1193C4.29538 15.1314 4.35842 15.1795 4.36072 15.1807L4.54068 15.1819C4.55329 15.1795 4.58194 15.171 4.59455 15.1686C4.60716 15.1674 4.63582 15.1554 4.64728 15.1542L4.78598 15.153C4.95448 15.2288 4.7963 15.1157 4.94302 15.3274C5.59983 15.1434 7.62987 13.2818 11.1099 14.1513C11.9181 14.3533 12.2872 14.6046 12.952 14.8776C13.156 14.6419 12.5313 14.6792 13.2798 14.6792C13.4116 14.8067 13.0322 14.8872 13.6329 14.8391C13.8232 14.8235 13.4139 14.755 13.9997 14.7297L13.9722 13.9781C14.0031 13.9889 14.1315 13.9889 14.1487 13.9841C14.5785 13.847 13.9848 13.7087 13.9779 13.7051L13.853 13.5764L13.7108 13.3227C13.6971 13.3059 13.6799 13.2806 13.6638 13.265C13.4506 13.0738 13.3807 13.1219 13.0953 13.1183C12.0682 13.1014 6.90887 13.0401 6.44922 13.2037C6.01822 13.3564 5.5643 13.4249 5.07484 13.2373L4.83642 13.1267C4.6106 13.6462 4.073 13.6787 3.85406 14.0418ZM4.53151 30.155C4.69428 30.3859 4.935 30.5121 5.23073 30.6589C5.32358 30.5554 5.41643 30.5807 5.41643 30.4099L5.70529 30.7274C6.14545 31.0629 6.35064 30.9463 7.16793 30.9451C7.84995 30.9439 8.74634 31.1146 9.30572 30.8284C9.61865 30.6685 9.5728 30.6072 10.0244 30.5711C10.1276 30.5627 10.5059 30.5747 10.6056 30.5927C10.9609 30.6601 10.7225 30.5975 11.0228 30.7587L12.8351 30.9102C12.8477 30.8886 12.8511 30.8212 12.8546 30.8356L13.1526 30.3101L13.3142 30.7046C13.5756 30.6011 13.7464 30.4989 13.9917 30.357C14.1074 30.2909 14.159 30.2752 14.2954 30.1778C14.5636 29.9866 14.4421 30.1309 14.6026 29.858C14.2438 29.6283 14.1281 29.6078 13.6615 29.6078V29.0065C13.2603 29.1124 13.5996 29.0595 13.1835 29.2074C13.1159 29.4864 13.2225 29.057 13.2798 29.6078C12.7353 29.6211 13.0024 29.5489 12.8981 29.7834H12.7067C12.576 29.3493 12.4419 29.4383 12.0384 29.6078C11.9261 29.4395 11.6601 29.8543 12.0384 29.3348C10.9735 29.6499 10.0611 29.9169 8.6959 29.8111C7.41093 29.7112 6.68764 29.2471 5.73509 28.9103C5.89786 29.3541 5.84399 29.1076 5.83023 29.6078C5.34994 29.6499 5.69497 29.5152 5.45082 29.7822L5.25595 30.0239C4.92812 30.2488 4.5957 30.1021 4.53151 30.155ZM23.5206 22.4947C23.6994 23.5878 25.2916 23.2944 26.651 23.2944C27.7847 23.2944 29.5981 23.6179 29.4124 22.2133C29.2588 21.0576 27.4145 21.4027 26.2693 21.4027C25.742 21.4027 24.8686 21.3486 24.3849 21.4256C23.8553 21.511 23.4209 21.8862 23.5206 22.4947ZM6.07782 27.1029C8.25344 28.8887 12.2425 28.0144 13.2191 26.5689C12.8763 26.1817 12.2035 26.4222 10.9311 26.409L10.7867 26.2226C10.8073 26.0554 10.8108 26.1505 10.8921 26.017C10.2147 26.2106 9.60718 26.415 8.73831 26.2575C7.84766 26.0951 7.68145 25.8666 6.99369 25.5636C6.98223 25.7692 6.95357 25.9833 6.99025 26.1877L7.16793 26.6026C6.01707 26.6026 6.79195 26.8936 6.11794 26.8034C6.03197 26.9538 5.9632 26.5581 6.07782 27.1029ZM23.5126 18.988C23.5126 19.5616 23.9424 19.8851 24.5499 19.8851H28.4541C29.1041 19.8851 29.5156 19.5279 29.4158 18.8004C29.3081 18.0223 28.7086 18.0825 27.9876 18.0825H25.0268C24.2244 18.08 23.5126 18.0548 23.5126 18.988ZM35.4372 3.6589C34.8629 3.47852 33.8725 3.55789 33.1424 3.55789L33.1389 2.55615C33.1378 2.1569 33.163 1.77328 33.0931 1.40771C33.0105 0.97358 32.936 0.747498 32.6128 0.567113L32.3411 0.724649C32.0866 0.942313 32.1623 0.464895 32.1428 1.20207L32.3342 1.90436C31.9789 1.91879 31.6511 2.09557 31.6167 2.1545C31.4046 2.73534 31.4975 2.84717 31.4505 3.45687L32.0993 4.35759C32.1268 4.38285 32.2528 4.46703 32.2792 4.48146C32.3881 4.54038 32.356 4.54519 32.575 4.58969C32.7446 4.62456 33.1527 4.61855 33.3395 4.61374C33.8278 4.60292 34.1476 4.55241 34.6864 4.51994C35.6057 4.46462 34.934 4.25658 35.1506 3.85733C35.7387 3.85733 35.1953 3.8922 35.4372 3.6589ZM21.8241 42.2528L21.6189 41.8523L21.6075 42.5534C20.3122 42.5534 21.4149 42.2696 20.5323 42.2528L20.3764 42.9791C20.3729 42.9659 20.3592 43.0308 20.3466 43.0549L20.3454 44.9934L20.4944 45.7943C21.4195 45.8328 21.6579 45.6164 21.7106 45.9952L21.7599 44.7842C21.9548 44.9646 21.8528 44.6976 21.9215 44.9934L22.0614 43.3856V40.5247L31.3301 40.5295L31.4436 40.5343C31.157 40.313 29.4651 40.3828 29.1339 40.39C28.3383 40.408 27.544 40.3852 26.7462 40.3852C25.193 40.3864 23.4805 40.3154 21.9147 40.3972L21.8573 42.9527C21.7473 42.6677 21.7553 42.6015 21.8241 42.2528ZM21.9273 17.1036L21.8207 20.1893V18.1438H21.7714L21.7393 20.1893C21.4963 20.0943 21.5811 20.4635 21.5616 19.8262L20.3454 19.76L20.3489 23.7718L20.4876 23.8355L20.5598 22.9709H21.6132L21.6292 23.3737L21.784 21.8681L21.9181 23.8824L21.8837 24.9323C21.8734 24.7134 21.8665 24.4404 21.8654 24.2011C21.8642 24.1578 21.878 23.8175 21.8849 23.791C21.9903 23.3232 21.8677 23.6227 22.0557 23.3966L22.0683 13.2578C22.0087 13.3636 22.0385 13.2602 21.9869 13.4911L21.9273 17.1036ZM10.3889 37.8261L13.6031 39.0299C13.6191 39.0179 13.6466 38.9782 13.6535 38.995L14.0547 38.7281C14.3722 38.5741 14.3848 38.6259 14.8078 38.6259L14.7333 37.8237L14.9465 37.9632C14.9843 37.9813 15.0084 37.9993 15.0542 38.0186C15.2514 38.1051 15.0749 38.0667 15.3809 38.1244C15.1952 37.9837 15.1001 38.0053 14.9385 37.7323C14.7425 37.5027 12.7606 36.8485 12.6116 36.816C12.5233 37.1671 12.3009 36.6248 12.2929 37.5904H11.7839C11.7725 37.1419 11.698 37.2645 11.6877 36.822C11.7301 36.454 11.8745 36.7859 11.9456 36.561C11.9593 36.5166 12.0086 36.5394 12.0384 36.5238C11.6624 36.4179 11.4263 36.2676 11.0205 36.2267C11.1524 36.9687 11.1673 36.3566 11.0045 36.9495L10.9563 37.4906C10.6308 37.6169 10.5689 37.4894 10.3889 37.8261ZM23.7888 16.1331C23.9562 16.4758 23.9573 16.477 24.4456 16.4903C25.24 16.5131 28.7017 16.6225 29.0834 16.3279C29.5843 15.9407 29.4881 15.4043 29.182 14.9029C28.8943 15.1193 28.9745 14.5229 28.9195 15.3466H24.8995C24.7574 15.8349 24.9557 15.2312 24.6634 15.5956C24.5362 15.7543 24.5385 15.3033 24.5178 15.9479C24.2141 15.9479 24.0502 15.9263 23.8541 15.8493L23.7888 16.1331ZM33.1676 55.2308C33.0312 54.7799 33.0633 41.6118 33.1951 40.5343C32.9922 40.7857 33.116 40.4742 33.0621 40.93C33.0518 41.0117 33.0667 41.2763 33.0678 41.3749L33.0644 42.2335L33.0518 43.8221L33.0358 46.208L33.0266 46.9428L33.0174 47.8772L32.9727 50.1248L32.9544 51.8925V52.2028L32.8111 54.5273C31.8689 54.4961 32.8099 54.3265 31.7026 54.3265L31.5215 53.4547V52.228V51.5919L31.4837 50.049L31.4493 47.7605L31.4287 45.0499L31.4218 43.4782L31.4161 43.0513L31.4069 41.245L31.4436 40.5343L31.3301 40.5295C31.2189 41.9786 31.3633 47.5753 31.3611 49.5475C31.3599 51.0495 31.3805 52.5539 31.3805 54.0559C31.3805 54.7823 31.3003 55.5628 31.8058 55.8646C32.3789 56.2049 32.8099 55.8526 33.085 55.374L33.1676 55.2308ZM5.24678 35.7818C6.09731 35.5605 5.28231 35.3994 6.42285 35.3994L7.34101 35.6002C7.41437 35.3116 7.4052 35.4138 7.49232 35.219C7.51524 35.2118 7.55078 35.1673 7.5611 35.1949L7.8362 35.2996C7.96458 35.1312 7.90039 35.2827 7.91644 35.0194L5.41643 34.0417L5.42789 32.5649C5.21468 32.6539 5.25824 32.2679 5.25824 32.8151L5.32129 34.2004C5.15623 33.9936 5.15852 33.8781 4.90748 33.8493C4.78025 34.1114 4.94417 33.9395 4.67365 34.0357C4.67135 34.0369 4.29996 34.0729 4.29767 34.0729C3.33481 34.0272 4.0581 33.4428 3.76236 32.2138C3.66837 32.3437 3.71881 32.209 3.66722 32.4338C3.47809 33.2732 3.54916 35.8539 5.24678 35.7818ZM31.3335 19.2309L31.4115 19.6554C31.6258 19.9717 31.5846 20.5706 31.5857 20.9578V20.3565H32.0305V20.9578H32.3491V20.5573H32.6999C32.6999 21.0167 32.6403 21.4532 32.795 21.7599L32.975 20.1569C32.9532 19.7757 32.8822 19.7035 33.1435 19.5315V13.9156L33.0094 13.9553L32.9933 15.4007L32.6816 19.374C32.6644 18.6044 32.4305 18.8918 32.2655 18.5106L31.6304 18.4721C31.6304 17.9381 31.627 18.3278 31.5353 18.1714L31.4447 16.2016C31.4528 15.7603 31.4356 15.3202 31.4218 14.8788C31.4115 14.5758 31.4436 13.8903 31.3324 13.627L31.3335 19.2309ZM31.5215 30.6601C31.2522 31.0509 31.4379 30.8296 31.3313 31.111C31.5834 31.3263 31.2705 31.2024 31.7588 31.6762C31.8826 31.7965 31.9468 31.6293 31.9995 32.3136C32.4878 32.3136 32.3721 32.4363 32.3812 32.013C32.8512 31.9889 32.7377 31.93 33.2409 31.9769L35.8189 32.013C35.8773 31.6606 35.9312 31.7135 35.8934 31.473C35.89 31.455 35.8808 31.4261 35.8773 31.4081L35.82 31.2108C35.5507 30.5819 33.923 30.8104 33.1263 30.8104L33.1343 28.9079C32.8799 28.9079 32.9544 28.8466 32.9544 29.1364C32.9544 29.5501 32.9761 30.0179 32.9635 30.4232C32.9395 31.1712 32.9968 30.6685 32.8145 30.8934C32.5715 31.1952 32.6999 30.8513 32.5876 31.2277H31.9835C31.878 30.9222 32.0259 31.2337 31.8585 31.0557C31.4826 30.6529 31.4688 31.0665 31.5215 30.6601ZM21.9215 44.9934C21.8837 46.2357 21.9089 46.4437 21.7485 47.6547C21.3988 47.3661 21.4149 47.413 21.1134 47.5393L20.977 47.615C20.9667 47.5934 20.9346 47.6463 20.9094 47.6547L20.9105 47.0534H20.5747L20.5426 47.5657L20.3466 47.4539V50.2775L21.4928 50.1753L21.7118 50.6214C21.729 50.3545 21.729 50.1067 21.7393 49.8458L21.8791 49.319L21.9502 47.9373C22.0545 47.4767 21.9628 47.8207 22.0545 47.6439L22.0614 43.3856L21.9215 44.9934ZM31.3335 23.9329L31.5181 25.1992L31.5513 26.201L31.5766 25.8005L31.5949 25.1391L32.3239 25.1403C32.3239 24.4693 32.2311 24.7074 32.5727 24.5486C32.6552 24.6713 32.6277 24.5751 32.6793 24.8072C32.7114 24.9479 32.7102 25.0609 32.7171 25.2088C32.7343 25.6033 32.6082 25.7043 32.8684 25.7416C32.7767 25.2173 32.928 25.3712 33.0392 25.2726C33.0059 25.1848 32.9624 25.3159 32.9945 24.9852C33.0048 24.8805 32.9979 24.9178 33.0266 24.8108C33.085 24.5931 33.0644 24.6641 33.1435 24.5438V19.5315C32.8822 19.7035 32.9532 19.7757 32.975 20.1569L32.7882 24.3767L32.6793 22.2686C32.6632 22.2902 32.6414 22.3179 32.6311 22.3323L32.0775 23.0779C31.3863 23.791 31.8631 22.8963 31.5582 23.5722L31.4115 19.6554L31.3335 19.2309V23.9329ZM11.8481 18.2364C12.0625 18.5996 12.2447 18.6501 12.5611 19.0421C12.8546 19.4041 12.9474 19.6121 13.1824 20.0306C13.7796 19.8959 13.7223 20.0282 13.7807 20.14C13.9103 20.14 14.433 20.1653 14.5109 20.1521C14.739 20.1124 14.6175 20.199 14.8135 19.8141L14.9029 19.6446C14.77 18.8713 13.72 17.4271 13.2225 17.1998C13.3967 17.5834 12.8924 17.1685 13.4701 17.4511C12.9806 17.593 13.203 17.4764 13.2477 17.9526C12.7904 17.9526 12.4339 17.9814 12.1026 17.8516C12.0075 18.3626 12.3296 18.038 11.8481 18.2364ZM3.96984 19.3932C4.13375 19.4762 4.0283 19.6686 3.99162 19.7636C5.10923 19.6338 4.83642 19.8274 4.89946 19.9645C5.63307 19.932 5.0095 19.9693 5.31785 19.7444L5.46457 19.6746C5.48062 19.6662 5.50813 19.6554 5.52532 19.647L5.72821 19.5207C5.95861 19.3512 6.16265 18.9856 6.37815 18.7619C6.61657 18.513 6.93065 18.329 7.13812 18.0356C6.55926 17.854 6.88136 17.9357 6.06865 17.9357C6.0549 17.3705 5.98612 17.106 5.73394 16.9749C5.18374 17.2623 3.98015 18.6416 3.96984 19.3932ZM13.7578 15.4188C14.1475 15.8 14.4685 16.0213 14.8502 16.4361C15.0737 16.6791 15.5678 17.4379 15.7684 17.5858C16.0125 17.51 15.9254 17.7758 15.9541 17.2852L16.1455 17.6519C16.1558 17.6435 16.3931 17.4475 16.3988 17.4439C16.7163 17.2984 16.9089 17.409 17.1072 17.4812C17.1771 17.5064 17.4201 17.6291 17.6437 17.5521C17.6391 17.1817 17.1565 16.5432 16.9605 16.2293C16.745 15.8842 16.3323 15.2733 15.9896 15.1037C15.9311 15.4813 16.024 15.5222 15.6606 15.5847C15.4417 15.622 15.1379 15.5943 14.9385 15.5378C13.9825 15.2697 14.1384 15.4801 14.0432 15.0809L13.8151 15.2636C13.7636 15.3142 13.7578 15.3863 13.7578 15.4188ZM31.3427 27.7054C31.3611 27.7354 31.3828 27.7438 31.3909 27.8028C31.3989 27.8605 31.4252 27.8689 31.4344 27.9002C31.5811 28.3548 31.5215 28.2826 31.5215 29.3649H32.0396L32.1497 29.7666L32.3606 29.5717C32.5727 29.3673 32.4305 29.7317 32.5314 29.3793H32.7767L32.8844 28.1732C32.7973 28.3944 33.0117 28.7564 32.9544 29.1364C32.9544 28.8466 32.8799 28.9079 33.1343 28.9079L33.1435 24.5438C33.0644 24.6641 33.085 24.5931 33.0266 24.8108C32.9979 24.9178 33.0048 24.8805 32.9945 24.9852C32.9624 25.3159 33.0059 25.1848 33.0392 25.2726C32.9991 25.7187 32.8604 26.1625 32.9154 26.6026C33.0059 27.3278 33.0713 27.08 32.9383 27.8713C32.9246 27.8425 32.9142 27.8016 32.9051 27.7799C32.6701 27.2316 32.7228 27.4889 32.6758 27.4817C32.0511 27.3759 32.317 27.2195 31.9308 26.9766C31.9124 26.9646 31.8872 26.9538 31.8677 26.9429C31.5296 26.765 31.6556 27.0199 31.5869 26.8359C31.5754 26.8046 31.5376 26.8227 31.5204 26.8083L31.5181 25.1992L31.3335 23.9329L31.3427 27.7054ZM6.96389 16.1824C6.79653 16.7608 6.86531 16.2882 7.16678 16.4818C7.13354 16.1908 6.88824 16.4578 7.20461 16.2077C7.62529 15.8757 7.36623 16.1656 7.45335 16.1824C7.45793 16.2125 7.46366 16.2257 7.46595 16.2726L7.54963 16.7837H8.31305L8.49989 17.32C8.51021 17.3381 8.56064 17.4066 8.58013 17.4331L9.93731 17.4848C9.71149 16.7921 9.9568 17.29 10.0462 17.1024C10.0542 17.0855 10.0737 17.0651 10.0817 17.0482L10.2904 16.3712C10.3603 16.1211 10.3626 16.1571 10.2239 15.7819C10.9965 16.186 10.3156 15.8625 10.5494 15.7819C9.67825 15.3586 7.58173 15.7338 6.96389 16.1824ZM20.3477 17.0038V19.5219C20.6515 19.2213 20.4463 18.5515 20.4429 18.1522H21.5593L21.7313 17.2503C21.9032 16.8366 21.753 17.136 21.925 16.9508L21.8929 13.7568C21.6086 14.1188 21.69 15.4104 21.6843 16.002H21.2831C21.2739 15.4055 21.361 15.7326 21.0538 15.5438L20.9231 15.4837C20.9025 15.4753 20.8761 15.4657 20.8555 15.4585L20.5575 15.4007C20.5575 14.9606 20.593 13.7893 20.4429 13.4971C20.3844 14.3449 20.6068 16.4097 20.3477 17.0038ZM7.39489 36.6657C7.59892 36.7907 8.46435 37.0878 8.86326 37.2513C9.38137 37.4642 9.8628 37.6734 10.3889 37.8261C10.5689 37.4894 10.6308 37.6169 10.9563 37.4906L11.0045 36.9495C11.1673 36.3566 11.1524 36.9687 11.0205 36.2267C10.8108 35.9838 9.8949 35.7156 9.49141 35.605L9.71379 35.8539L9.5407 36.0908C9.12575 36.4636 8.77385 36.0932 8.30732 36.3843C7.98636 36.5851 8.20071 36.5286 7.8041 36.6224C7.4671 36.3133 7.81671 36.448 7.35821 36.3217C7.3433 36.3734 7.22295 36.436 7.39489 36.6657ZM13.3738 20.5249C13.4575 20.9987 13.5813 21.345 13.5767 21.8934C13.5721 22.4598 13.3841 22.8723 13.4231 23.3148L13.4265 23.5962C13.736 23.2619 13.6443 24.0856 13.6466 23.3136L13.532 23.0526C13.4839 22.8326 13.5033 23.0118 13.4713 22.6955C13.7945 22.8109 13.9997 22.8013 14.237 22.9961C14.6221 23.3136 14.3951 23.1116 14.5212 23.5301L15.0806 23.5974C15.3225 22.5043 15.4107 21.2464 15.1597 20.8688L14.8078 21.1923L14.7516 20.8508C14.7482 20.8147 14.7253 20.8111 14.7127 20.7906H13.6856C13.5641 20.6451 13.7337 20.5188 13.5664 20.3156C13.5652 21.0877 13.6501 20.2892 13.3738 20.5249ZM23.7888 16.1331L23.8541 15.8493C24.0502 15.9263 24.2141 15.9479 24.5178 15.9479C24.5385 15.3033 24.5362 15.7543 24.6634 15.5956C24.9557 15.2312 24.7574 15.8349 24.8995 15.3466H28.9195C28.9745 14.5229 28.8943 15.1193 29.182 14.9029C28.4163 14.5144 26.5777 14.6792 25.5999 14.6792C24.7689 14.6792 23.6432 14.4519 23.5229 15.509C23.4701 15.9708 23.6352 16.0633 23.7888 16.1331ZM21.9181 23.8824C21.9009 23.9053 21.8871 23.9377 21.8803 23.957C21.486 25.0693 22.4179 24.9996 20.538 24.9996L20.4291 24.5847C20.4291 25.2726 20.5965 25.7392 20.3477 26.1877L20.3489 29.6776L20.3661 29.3409C20.3122 28.7732 20.2858 27.8473 20.4222 27.3037C20.6148 27.2316 20.4944 27.3554 20.9174 27.3927C21.1341 27.4119 21.4321 27.3939 21.6579 27.3939L21.8058 25.4927C21.8195 26.0134 22.0167 27.2761 21.8757 27.5502L22.0534 27.5045L22.0557 23.3966C21.8677 23.6227 21.9903 23.3232 21.8849 23.791C21.878 23.8175 21.8642 24.1578 21.8654 24.2011C21.8665 24.4404 21.8734 24.7134 21.8837 24.9323L21.9181 23.8824ZM31.4447 16.2016L31.5353 18.1714C31.627 18.3278 31.6304 17.9381 31.6304 18.4721L32.2655 18.5106C32.4305 18.8918 32.6644 18.6044 32.6816 19.374L32.9933 15.4007L32.9326 15.5318C32.9257 15.5523 32.9131 15.5811 32.9074 15.6064C32.9005 15.6328 32.8936 15.6593 32.8879 15.6881C32.8615 15.8216 32.8615 15.9395 32.8569 16.0742C32.8489 16.3423 32.8592 16.6322 32.8592 16.9027H32.6483V15.8012C31.9353 15.7062 32.8099 15.6148 31.98 15.6004C31.98 14.4567 31.6992 15.4969 31.5846 14.5986L31.4447 16.2016ZM5.24678 35.7818C5.48635 36.0211 7.13468 36.6007 7.39489 36.6657C7.22295 36.436 7.3433 36.3734 7.35821 36.3217C7.81671 36.448 7.4671 36.3133 7.8041 36.6224C8.20071 36.5286 7.98636 36.5851 8.30732 36.3843C8.77385 36.0932 9.12575 36.4636 9.5407 36.0908L9.71379 35.8539L9.49141 35.605L7.91644 35.0194C7.90039 35.2827 7.96458 35.1312 7.8362 35.2996L7.5611 35.1949C7.55078 35.1673 7.51524 35.2118 7.49232 35.219C7.4052 35.4138 7.41437 35.3116 7.34101 35.6002L6.42285 35.3994C5.28231 35.3994 6.09731 35.5605 5.24678 35.7818ZM10.8921 26.017C10.8108 26.1505 10.8073 26.0554 10.7867 26.2226L10.9311 26.409C12.2035 26.4222 12.8763 26.1817 13.2191 26.5689C13.3807 26.5232 13.1984 26.6207 13.3773 26.4908C13.7223 26.2406 14.1762 25.6454 14.3241 25.2281L13.681 25.18V24.7723L12.803 24.8288C12.6689 24.7122 12.474 25.1812 12.7548 24.604C12.3995 24.8156 12.1966 25.1523 11.855 25.4121C11.4779 25.6983 11.2463 25.8113 10.8921 26.017ZM5.00836 22.5331C4.74128 22.7448 4.94073 22.6859 4.9178 22.7424C4.91322 22.7544 4.9029 22.7821 4.89831 22.7953C4.89373 22.8073 4.88456 22.835 4.87883 22.847C4.87424 22.8602 4.86278 22.8879 4.85705 22.9011L4.7023 23.6167H4.09249C3.96869 23.239 4.1051 23.5397 3.54228 23.2968C3.65347 23.6876 3.736 24.3298 4.02371 24.5991C4.31601 24.5522 4.39854 24.6557 4.4868 24.6941C5.08516 24.9515 5.27314 25.0561 5.28919 25.5672H5.79928L6.02166 25.103C6.42744 24.7266 6.07209 25.4097 6.24518 24.8962C5.92766 24.367 5.70414 24.1686 5.43821 23.5096C5.17227 22.8482 5.14705 22.4718 5.16081 21.5819C4.80317 21.6072 5.12986 21.4148 4.94073 21.6901L5.00836 22.5331ZM16.5077 19.2886C16.588 19.6193 16.6728 19.8382 16.7438 20.1605C16.8035 20.4323 16.8378 20.8207 16.9055 21.1658C17.1416 21.2187 17.0637 21.2308 17.2069 21.3222C17.7904 21.6986 17.6654 21.5927 18.6295 21.5927C18.6237 20.8989 18.571 20.2423 18.4346 19.6891L18.2925 19.8045C17.9577 20.0378 18.2879 19.9789 17.8798 19.9873L17.8007 19.4546C17.3319 19.4329 17.4832 19.4053 17.2173 19.2646C16.8023 19.0433 16.9066 19.2694 16.8138 18.8882L16.5077 19.2886ZM4.02371 24.5991C4.32977 25.5215 5.34077 26.6772 6.07782 27.1029C5.9632 26.5581 6.03197 26.9538 6.11794 26.8034C6.79195 26.8936 6.01707 26.6026 7.16793 26.6026L6.99025 26.1877C6.95357 25.9833 6.98223 25.7692 6.99369 25.5636L6.24518 24.8962C6.07209 25.4097 6.42744 24.7266 6.02166 25.103L5.79928 25.5672H5.28919C5.27314 25.0561 5.08516 24.9515 4.4868 24.6941C4.39854 24.6557 4.31601 24.5522 4.02371 24.5991ZM17.2918 40.3936C17.4179 40.4946 17.2883 40.4345 17.5015 40.4922C17.7308 40.5548 17.4156 40.4922 17.67 40.5223C17.7354 40.5307 17.9726 40.5247 18.0517 40.5247C18.3085 40.5223 18.563 40.5211 18.8197 40.5211C19.331 40.5223 19.8434 40.5211 20.3466 40.5163V43.0549C20.3592 43.0308 20.3729 42.9659 20.3764 42.9791L20.5323 42.2528C21.4149 42.2696 20.3122 42.5534 21.6075 42.5534L21.6189 41.8523L21.8241 42.2528C21.9032 41.8211 21.8035 40.8722 21.7232 40.3792L21.6843 40.2457C21.5375 40.5584 21.2086 40.4874 20.7053 40.372C20.6916 40.3684 20.6652 40.3587 20.6526 40.3563L20.3351 40.3503C20.1781 40.3515 19.95 40.3335 19.778 40.3299C19.0605 40.313 17.9486 40.2229 17.2918 40.3936ZM12.0384 29.3348C11.6601 29.8543 11.9261 29.4395 12.0384 29.6078C12.4419 29.4383 12.576 29.3493 12.7067 29.7834H12.8981C13.0024 29.5489 12.7353 29.6211 13.2798 29.6078C13.2225 29.057 13.1159 29.4864 13.1835 29.2074C13.5996 29.0595 13.2603 29.1124 13.6615 29.0065V29.6078C14.1281 29.6078 14.2438 29.6283 14.6026 29.858C14.8617 29.8086 14.6164 29.9169 14.919 29.7257C15.0095 29.668 15.1242 29.5657 15.2422 29.4635C15.5001 29.2374 15.6113 29.1677 15.7592 28.8586C15.3867 28.8911 15.5139 28.8009 15.2136 28.7817C15.1929 28.0409 15.2124 28.5712 15.0176 28.3776L14.6106 28.0156C14.347 27.834 14.4066 28.0758 14.4261 27.8064C14.0581 28.0553 13.7349 28.362 13.3131 28.641C12.9199 28.8995 12.427 29.1328 12.0384 29.3348ZM15.6079 26.4751C15.6216 26.4884 15.6537 26.4751 15.6583 26.498C15.679 26.5834 15.6858 26.4186 15.8154 26.605C16.0412 26.9321 15.8956 26.492 15.8257 26.6868C15.7191 26.985 15.789 26.7481 15.7626 26.7277C16.2326 26.7277 16.6384 26.8155 17.1038 26.7493L17.4648 26.6026C17.7377 26.3753 18.093 25.2954 18.234 24.8C18.2042 24.7891 18.414 24.699 18.1354 24.8036C18.1274 24.806 18.0999 24.8144 18.0907 24.8192C18.0804 24.824 18.0563 24.8409 18.046 24.8481C17.6643 25.1259 18.0598 25.1992 17.1003 25.1992C17.0912 24.7615 17.3216 24.9094 16.4321 24.5991C16.275 25.109 15.6354 26.2587 15.6079 26.4751ZM0.0175065 22.3948C0.130987 23.0959 0.16079 24.0436 0.407237 24.5991C0.74424 24.6112 1.35979 24.6304 1.53287 24.925C1.56497 24.8024 1.54548 24.7098 1.60165 24.5486C1.66125 24.3719 1.63948 24.4188 1.70252 24.325C1.9249 23.9967 1.66699 24.2805 2.00972 23.9979L2.10945 24.1722C1.95355 23.7477 1.84466 23.2366 1.81944 22.7448C1.61426 22.6666 1.74264 22.7268 1.61884 22.5283L1.38959 22.1435C1.24172 22.7183 0.991834 22.4273 0.422139 22.7616C0.404945 22.7712 0.367118 22.829 0.355655 22.8085C0.344193 22.7881 0.31439 22.8434 0.291464 22.8578L0.238736 22.7171C0.22842 22.6955 0.212372 22.663 0.199763 22.6426C0.186008 22.6161 0.125256 22.5043 0.0175065 22.3948ZM31.3324 13.627C31.4436 13.8903 31.4115 14.5758 31.4218 14.8788C31.4356 15.3202 31.4528 15.7603 31.4447 16.2016L31.5846 14.5986C31.6992 15.4969 31.98 14.4567 31.98 15.6004C32.8099 15.6148 31.9353 15.7062 32.6483 15.8012V16.9027H32.8592C32.8592 16.6322 32.8489 16.3423 32.8569 16.0742C32.8615 15.9395 32.8615 15.8216 32.8879 15.6881C32.8936 15.6593 32.9005 15.6328 32.9074 15.6064C32.9131 15.5811 32.9257 15.5523 32.9326 15.5318L32.9933 15.4007L33.0094 13.9553C32.7767 14.1657 32.9509 13.7015 32.787 14.2535C32.7274 14.0984 32.7102 13.8518 32.6426 13.7087C32.5108 13.4249 32.7022 13.7039 32.5199 13.5247C32.5039 13.5103 32.4821 13.4923 32.4649 13.4802C32.4477 13.467 32.4236 13.4526 32.4042 13.4418C32.3835 13.4297 32.3595 13.4189 32.3365 13.4093C32.0591 13.2926 31.69 13.3552 31.3324 13.2265V13.627ZM32.975 20.1569L32.795 21.7599C32.6403 21.4532 32.6999 21.0167 32.6999 20.5573H32.3491V20.9578H32.0305V20.3565H31.5857V20.9578C31.5846 20.5706 31.6258 19.9717 31.4115 19.6554L31.5582 23.5722C31.8631 22.8963 31.3863 23.791 32.0775 23.0779L32.6311 22.3323C32.6414 22.3179 32.6632 22.2902 32.6793 22.2686L32.7882 24.3767L32.975 20.1569ZM1.77244 16.18L1.95814 16.3267C2.29858 16.4361 1.66813 16.6514 2.11403 16.3243C2.35131 16.1499 2.12549 16.0561 2.29629 15.7819C2.36506 16.0249 2.13008 16.085 3.15943 16.0285L3.95952 16.1475C3.97213 16.1547 3.9962 16.18 4.01913 16.1848C4.24036 16.0525 4.8112 15.5835 4.94302 15.3274C4.7963 15.1157 4.95448 15.2288 4.78598 15.153L4.64728 15.1542C4.63582 15.1554 4.60716 15.1674 4.59455 15.1686C4.58194 15.171 4.55329 15.1795 4.54068 15.1819L4.36072 15.1807C4.35842 15.1795 4.29538 15.1314 4.17846 15.1193L4.10166 14.4784C3.75663 14.2174 3.97328 14.8476 3.8426 14.3858C3.83687 14.3677 3.81051 14.3846 3.79675 14.3786C4.02027 14.0178 3.87699 14.3136 3.85406 14.0418C3.2603 14.3004 2.16676 15.5607 1.77244 16.18ZM20.3661 29.3409L21.8275 29.3348L21.8344 29.7834L21.878 30.1093L21.8757 27.5502C22.0167 27.2761 21.8195 26.0134 21.8058 25.4927L21.6579 27.3939C21.4321 27.3939 21.1341 27.4119 20.9174 27.3927C20.4944 27.3554 20.6148 27.2316 20.4222 27.3037C20.2858 27.8473 20.3122 28.7732 20.3661 29.3409ZM5.73394 16.9749C5.98612 17.106 6.0549 17.3705 6.06865 17.9357C6.88136 17.9357 6.55926 17.854 7.13812 18.0356L8.58013 17.4331C8.56064 17.4066 8.51021 17.3381 8.49989 17.32L8.31305 16.7837H7.54963L7.46595 16.2726C7.46366 16.2257 7.45793 16.2125 7.45335 16.1824C7.36623 16.1656 7.62529 15.8757 7.20461 16.2077C6.88824 16.4578 7.13354 16.1908 7.16678 16.4818C6.86531 16.2882 6.79653 16.7608 6.96389 16.1824C6.58562 16.2522 5.83482 16.7272 5.73394 16.9749ZM9.93731 17.4848C10.2262 17.5822 10.7959 17.7289 11.0297 17.7325L11.3163 17.516C11.4573 17.3898 11.2578 17.3345 12.0866 17.3345C12.0957 17.3128 12.1175 17.2587 12.1221 17.2743C12.1221 17.2743 12.3892 16.8883 12.4213 16.5624C12.3674 16.4349 12.2894 16.4229 12.1038 16.3207C11.941 16.2317 11.7954 16.1559 11.6452 16.0886C11.3484 15.9539 10.9082 15.7819 10.5494 15.7819C10.3156 15.8625 10.9965 16.186 10.2239 15.7819C10.3626 16.1571 10.3603 16.1211 10.2904 16.3712L10.0817 17.0482C10.0737 17.0651 10.0542 17.0855 10.0462 17.1024C9.9568 17.29 9.71149 16.7921 9.93731 17.4848ZM0.479452 24.9491C0.637637 25.3532 1.07093 26.6832 1.44346 26.9441C1.46754 26.9237 1.59821 26.8479 1.6177 26.8407L1.73232 26.8119C1.75639 26.8083 1.82746 26.8046 1.85153 26.8046C2.42238 26.8022 2.08996 26.6832 2.22522 26.9778H2.55993C2.66424 26.7493 2.33984 27.1113 2.6608 26.872L3.00927 26.6507C3.36461 26.3356 2.98061 26.8371 3.10784 26.5112C3.07231 26.2058 2.93017 26.0831 2.76855 25.8065C2.58056 25.4854 2.50032 25.2966 2.39257 24.925C2.06245 25.0212 2.30316 24.8649 2.10601 25.0994C2.2149 25.7344 2.20459 25.6009 1.43773 25.6009C1.42398 24.9767 1.42742 25.3616 1.32311 25.2185C1.30591 25.1944 1.24401 25.1427 1.22223 25.1235L1.05029 24.9984C0.909303 24.9034 0.611273 24.7543 0.479452 24.9491ZM21.8791 49.319L21.8195 51.0507C21.7828 51.4392 21.8333 51.9755 21.6545 52.2569L21.5731 51.4512C21.447 51.4512 21.2429 51.4656 21.1283 51.4344L20.7741 51.2047C20.7592 51.1914 20.7352 51.1746 20.7202 51.1602L20.5781 51.0038C20.5093 50.8884 20.5093 50.7778 20.4818 50.6491L20.3466 52.6706L20.3443 53.0542L20.483 53.6302L20.5793 52.655L20.9335 52.6538V53.0398H21.6006L21.7175 53.8431C21.7255 53.3585 21.6327 52.7019 21.9307 52.4241L22.0476 52.3531L22.0545 47.6439C21.9628 47.8207 22.0545 47.4767 21.9502 47.9373L21.8791 49.319ZM12.952 14.8776C13.2477 15.0821 13.4506 15.2324 13.7578 15.4188C13.7578 15.3863 13.7636 15.3142 13.8151 15.2636L14.0432 15.0809C14.1384 15.4801 13.9825 15.2697 14.9385 15.5378C15.1379 15.5943 15.4417 15.622 15.6606 15.5847C16.024 15.5222 15.9311 15.4813 15.9896 15.1037C15.8452 14.7045 15.4027 14.4291 15.0451 14.1296C14.7115 13.8506 14.3138 13.544 13.8679 13.3456L13.853 13.5764L13.9779 13.7051C13.9848 13.7087 14.5785 13.847 14.1487 13.9841C14.1315 13.9889 14.0031 13.9889 13.9722 13.9781L13.9997 14.7297C13.4139 14.755 13.8232 14.8235 13.6329 14.8391C13.0322 14.8872 13.4116 14.8067 13.2798 14.6792C12.5313 14.6792 13.156 14.6419 12.952 14.8776ZM3.37378 22.0942L5.00836 22.5331L4.94073 21.6901C5.12986 21.4148 4.80317 21.6072 5.16081 21.5819L5.16196 21.2584L4.60946 20.674C4.35957 20.4707 4.22087 20.229 4.20712 19.8887C3.7211 19.9055 3.94691 20.3204 3.77726 19.9103C3.55145 20.1328 3.50331 20.5477 3.46089 20.9109C3.41504 21.3089 3.34741 21.7274 3.37378 22.0942ZM16.7668 23.9137L16.5731 24.2588C16.4699 24.5053 16.5948 24.3863 16.4321 24.5991C17.3216 24.9094 17.0912 24.7615 17.1003 25.1992C18.0598 25.1992 17.6643 25.1259 18.046 24.8481C18.0563 24.8409 18.0804 24.824 18.0907 24.8192C18.0999 24.8144 18.1274 24.806 18.1354 24.8036C18.414 24.699 18.2042 24.7891 18.234 24.8C18.4036 24.343 18.6249 23.3689 18.6272 22.77C17.646 23.0202 18.5905 23.5565 17.8878 23.5722C17.8649 22.7797 17.9428 23.4639 17.7468 23.2162C17.4706 22.8663 17.6586 23.4543 17.5061 22.9709C16.8367 22.9889 17.262 22.9504 17.0545 23.5493C16.9937 23.7249 16.8057 23.9053 16.7668 23.9137ZM20.3489 23.7718L20.3477 26.1877C20.5965 25.7392 20.4291 25.2726 20.4291 24.5847L20.538 24.9996C22.4179 24.9996 21.486 25.0693 21.8803 23.957C21.8871 23.9377 21.9009 23.9053 21.9181 23.8824L21.784 21.8681L21.6292 23.3737L21.6132 22.9709H20.5598L20.4876 23.8355L20.3489 23.7718ZM20.3454 13.4766L20.3477 17.0038C20.6068 16.4097 20.3844 14.3449 20.4429 13.4971C20.593 13.7893 20.5575 14.9606 20.5575 15.4007L20.8555 15.4585C20.8761 15.4657 20.9025 15.4753 20.9231 15.4837L21.0538 15.5438C21.361 15.7326 21.2739 15.4055 21.2831 16.002H21.6843C21.69 15.4104 21.6086 14.1188 21.8929 13.7568C21.8161 13.5536 21.7175 13.4658 21.6843 13.188L21.5891 13.6017H21.2785C21.2567 13.5344 21.3564 13.1183 20.3454 13.4766ZM31.4287 45.0499L31.5662 47.0438L31.588 46.3415L31.6316 45.7065C32.1382 45.7065 32.3457 45.7943 32.6838 45.8064C32.6861 45.7126 32.6712 45.6139 32.7102 45.525C32.826 45.2628 32.7572 45.4095 32.9062 45.24L33.0358 46.208L33.0518 43.8221C32.912 43.6694 32.9693 43.8233 32.9131 43.5359L32.7412 43.6453C32.7137 43.6622 32.6896 43.6754 32.6586 43.6935C31.7393 44.2142 32.4236 44.1228 31.6155 44.1228L31.4218 43.4782L31.4287 45.0499ZM16.7668 23.9137C16.8057 23.9053 16.9937 23.7249 17.0545 23.5493C17.262 22.9504 16.8367 22.9889 17.5061 22.9709C17.6586 23.4543 17.4706 22.8663 17.7468 23.2162C17.9428 23.4639 17.8649 22.7797 17.8878 23.5722C18.5905 23.5565 17.646 23.0202 18.6272 22.77C18.626 22.2409 18.6902 21.9595 18.6295 21.5927C17.6654 21.5927 17.7904 21.6986 17.2069 21.3222C17.0637 21.2308 17.1416 21.2187 16.9055 21.1658C16.9158 21.5963 16.9353 22.1664 16.9009 22.5861C16.8631 23.0551 16.7003 23.4555 16.7668 23.9137ZM20.3443 53.0542V54.2423C21.0343 55.2765 20.9059 54.0126 20.9335 55.03H21.6166C21.6717 55.4702 21.6717 55.2513 21.8069 55.3583C21.7817 54.9783 21.7404 54.9254 21.8894 54.6572L21.9307 52.4241C21.6327 52.7019 21.7255 53.3585 21.7175 53.8431L21.6006 53.0398H20.9335V52.6538L20.5793 52.655L20.483 53.6302L20.3443 53.0542ZM34.7701 33.9924L34.7735 35.1192C34.903 35.2875 34.8686 35.213 34.9535 35.4932C34.9569 35.5016 34.9867 35.7601 34.9913 35.7878L35.1174 34.9965L36.2017 34.9833L36.2522 35.7914C36.3404 35.6122 36.3381 35.4234 36.3565 35.2226L36.4574 34.6634C36.4631 34.643 36.4746 34.6105 36.4872 34.5852L36.4895 32.3256L36.3634 32.8078C36.3141 33.4681 36.4023 33.1999 36.2579 34.192L36.2017 33.3911C36.1135 33.3911 35.7811 33.3779 35.7192 33.3899C35.4234 33.4488 35.5312 33.3358 35.4131 33.5907H35.0795C35.075 32.8596 35.0314 32.9702 34.8526 32.8896C34.8526 33.2624 34.8996 33.7254 34.7701 33.9924ZM34.9592 37.558C34.9592 38.1641 34.8365 38.0835 35.3592 38.3036C35.8361 38.5056 35.7788 38.395 36.2694 38.4539L36.1788 39.0227C36.4 38.6295 36.1914 38.7918 36.486 38.8555L36.4872 36.8557C36.3668 36.5021 36.3508 36.5839 36.345 36.1714C36.3221 36.1943 36.3026 36.2291 36.2866 36.2472C36.0722 36.4793 36.0928 36.4805 35.7513 36.537C35.5873 36.5635 35.3478 36.6031 35.0967 36.6212L34.9592 37.558ZM20.3454 44.9934L20.3466 47.4539L20.5426 47.5657L20.5747 47.0534H20.9105L20.9094 47.6547C20.9346 47.6463 20.9667 47.5934 20.977 47.615L21.1134 47.5393C21.4149 47.413 21.3988 47.3661 21.7485 47.6547C21.9089 46.4437 21.8837 46.2357 21.9215 44.9934C21.8528 44.6976 21.9548 44.9646 21.7599 44.7842L21.7106 45.9952C21.6579 45.6164 21.4195 45.8328 20.4944 45.7943L20.3454 44.9934ZM1.44346 26.9441C1.53173 27.2833 1.54548 27.2893 1.75869 27.5719L2.20688 28.0553C2.19542 27.7655 2.16332 28.006 2.39257 27.905L2.58744 28.0974C2.60693 28.1094 2.631 28.1299 2.65392 28.1407C2.89349 28.261 3.42307 28.1888 3.71307 28.1888C3.71307 27.8761 3.68556 27.8797 3.84146 27.6236L3.95952 27.4697C3.81051 27.2857 3.70276 27.169 3.56062 26.9826C3.50216 26.9057 3.44829 26.8227 3.39097 26.7577C3.18923 26.5329 3.30386 26.6399 3.10784 26.5112C2.98061 26.8371 3.36461 26.3356 3.00927 26.6507L2.6608 26.872C2.33984 27.1113 2.66424 26.7493 2.55993 26.9778H2.22522C2.08996 26.6832 2.42238 26.8022 1.85153 26.8046C1.82746 26.8046 1.75639 26.8083 1.73232 26.8119L1.6177 26.8407C1.59821 26.8479 1.46754 26.9237 1.44346 26.9441ZM1.00444 17.6976L1.08697 18.9206C1.3082 18.5923 2.03608 18.7378 2.29285 18.8268L3.06314 17.4114C2.83389 17.2034 2.87057 17.7385 2.86942 17.1336H1.7713C1.73347 17.2852 1.88936 17.3982 1.50307 17.3393C1.30362 17.3092 1.41022 17.486 1.2956 17.124C1.03654 17.3176 1.01361 17.3633 1.00444 17.6976ZM20.3477 19.5219L20.3454 19.76L21.5616 19.8262C21.5811 20.4635 21.4963 20.0943 21.7393 20.1893L21.7714 18.1438H21.8207V20.1893L21.9273 17.1036L21.925 16.9508C21.753 17.136 21.9032 16.8366 21.7313 17.2503L21.5593 18.1522H20.4429C20.4463 18.5515 20.6515 19.2213 20.3477 19.5219ZM34.7735 35.1192L34.7792 36.5226C35.0096 36.7354 34.9592 37.3163 34.9592 37.558L35.0967 36.6212C35.3478 36.6031 35.5873 36.5635 35.7513 36.537C36.0928 36.4805 36.0722 36.4793 36.2866 36.2472C36.3026 36.2291 36.3221 36.1943 36.345 36.1714C36.3508 36.5839 36.3668 36.5021 36.4872 36.8557V34.5852C36.4746 34.6105 36.4631 34.643 36.4574 34.6634L36.3565 35.2226C36.3381 35.4234 36.3404 35.6122 36.2522 35.7914L36.2017 34.9833L35.1174 34.9965L34.9913 35.7878C34.9867 35.7601 34.9569 35.5016 34.9535 35.4932C34.8686 35.213 34.903 35.2875 34.7735 35.1192ZM3.09294 29.1376C3.29239 29.3505 3.47924 29.4743 3.74632 29.6908C3.85177 29.7774 3.94233 29.8616 4.07186 29.9506C4.30111 30.1081 4.29996 30.0997 4.53151 30.155C4.5957 30.1021 4.92812 30.2488 5.25595 30.0239L5.45082 29.7822C5.69497 29.5152 5.34994 29.6499 5.83023 29.6078C5.84399 29.1076 5.89786 29.3541 5.73509 28.9103C5.61588 28.7287 5.49094 28.7095 5.30409 28.6025C4.89717 28.7672 4.96365 28.6025 4.78025 29.1412C2.98863 29.1412 4.39396 28.9885 3.25227 28.7564C3.11701 28.9572 3.13077 28.4389 3.09294 29.1376ZM2.20688 28.0553C2.40862 28.5604 2.73531 28.7203 3.09294 29.1376C3.13077 28.4389 3.11701 28.9572 3.25227 28.7564C4.39396 28.9885 2.98863 29.1412 4.78025 29.1412C4.96365 28.6025 4.89717 28.7672 5.30409 28.6025C4.75388 28.2153 4.40313 27.7968 3.95952 27.4697L3.84146 27.6236C3.68556 27.8797 3.71307 27.8761 3.71307 28.1888C3.42307 28.1888 2.89349 28.261 2.65392 28.1407C2.631 28.1299 2.60693 28.1094 2.58744 28.0974L2.39257 27.905C2.16332 28.006 2.19542 27.7655 2.20688 28.0553ZM31.4161 43.0513L31.4218 43.4782L31.6155 44.1228C32.4236 44.1228 31.7393 44.2142 32.6586 43.6935C32.6896 43.6754 32.7137 43.6622 32.7412 43.6453L32.9131 43.5359C32.9693 43.8233 32.912 43.6694 33.0518 43.8221L33.0644 42.2335C32.8799 42.1253 32.8776 42.0977 32.6048 42.1494C32.575 42.1542 32.4156 42.2167 32.3893 42.2311L31.9709 42.5041C31.627 42.64 31.6946 42.4211 31.4493 42.9731C31.4401 42.9912 31.4321 43.0284 31.4161 43.0513ZM31.4069 41.245L31.4161 43.0513C31.4321 43.0284 31.4401 42.9912 31.4493 42.9731C31.6946 42.4211 31.627 42.64 31.9709 42.5041L32.3893 42.2311C32.4156 42.2167 32.575 42.1542 32.6048 42.1494C32.8776 42.0977 32.8799 42.1253 33.0644 42.2335L33.0678 41.3749C32.8466 41.2607 32.9452 40.9829 32.9544 40.645C32.9257 40.6594 32.7778 40.7351 32.7435 40.7496L32.4557 40.8398C31.8815 40.9408 31.8815 40.6005 31.4894 41.1103L31.4069 41.245ZM31.5215 29.3649V30.6601C31.4688 31.0665 31.4826 30.6529 31.8585 31.0557C32.0259 31.2337 31.878 30.9222 31.9835 31.2277H32.5876C32.6999 30.8513 32.5715 31.1952 32.8145 30.8934C32.9968 30.6685 32.9395 31.1712 32.9635 30.4232C32.9761 30.0179 32.9544 29.5501 32.9544 29.1364C33.0117 28.7564 32.7973 28.3944 32.8844 28.1732L32.7767 29.3793H32.5314C32.4305 29.7317 32.5727 29.3673 32.3606 29.5717L32.1497 29.7666L32.0396 29.3649H31.5215ZM1.77244 16.18C1.70252 16.281 1.59706 16.4398 1.51797 16.5672C1.3105 16.8967 1.32654 16.7897 1.2956 17.124C1.41022 17.486 1.30362 17.3092 1.50307 17.3393C1.88936 17.3982 1.73347 17.2852 1.7713 17.1336H2.86942C2.87057 17.7385 2.83389 17.2034 3.06314 17.4114C3.2752 17.1793 3.36346 17.0062 3.54572 16.7861C3.783 16.4987 3.84948 16.4422 4.01913 16.1848C3.9962 16.18 3.97213 16.1547 3.95952 16.1475L3.15943 16.0285C2.13008 16.085 2.36506 16.0249 2.29629 15.7819C2.12549 16.0561 2.35131 16.1499 2.11403 16.3243C1.66813 16.6514 2.29858 16.4361 1.95814 16.3267L1.77244 16.18ZM14.7986 27.4059C14.9041 27.9026 14.5201 27.3242 15.0141 27.5815C15.0267 27.5875 15.0554 27.5959 15.068 27.6019C15.0806 27.608 15.1081 27.6188 15.1219 27.6248C15.8899 28 15.7156 27.7078 16.2292 27.8292L16.4091 27.9278C16.4275 27.9339 16.275 28.0529 16.6246 27.905C16.9009 27.7751 17.333 27.0031 17.4648 26.6026L17.1038 26.7493C16.6384 26.8155 16.2326 26.7277 15.7626 26.7277C15.789 26.7481 15.7191 26.985 15.8257 26.6868C15.8956 26.492 16.0412 26.9321 15.8154 26.605C15.6858 26.4186 15.679 26.5834 15.6583 26.498C15.6537 26.4751 15.6216 26.4884 15.6079 26.4751L14.7986 27.4059ZM32.7492 48.9932L32.724 49.8361H32.011V49.4357L31.6373 49.4345L31.5892 48.7923L31.4837 50.049L31.5215 51.5919L31.6786 50.9942C32.3468 51.0195 31.9181 50.8812 32.0947 51.3911C32.1829 51.1373 32.0557 51.29 32.2357 51.1012C32.6701 50.6455 32.4512 51.2504 32.7836 50.3689L32.9544 51.8925L32.9727 50.1248L32.8592 48.4881C32.8008 48.5939 32.8374 48.4051 32.7538 48.7382C32.7205 48.8705 32.7446 48.8825 32.7492 48.9932ZM3.76236 32.2138C4.0581 33.4428 3.33481 34.0272 4.29767 34.0729C4.29996 34.0729 4.67135 34.0369 4.67365 34.0357C4.94417 33.9395 4.78025 34.1114 4.90748 33.8493C5.15852 33.8781 5.15623 33.9936 5.32129 34.2004L5.25824 32.8151L4.62436 32.7814L4.58882 33.1494C4.36759 32.417 4.19909 33.1854 4.07988 32.013C4.05352 31.9937 3.98932 31.9697 3.9813 31.93C3.97213 31.8771 3.94806 31.847 3.90679 31.8073L4.02371 31.5163C3.76007 31.734 3.72912 31.8169 3.76236 32.2138ZM15.7684 17.5858C15.8601 17.8371 15.9644 18.1354 16.1466 18.2869L16.4172 18.1895L16.5513 18.6873C17.1084 18.6272 16.2739 18.5106 16.988 18.507C17.3055 18.5058 17.4167 18.6176 17.482 18.7872H17.7686C17.8592 18.4793 17.8248 18.5611 18.0563 18.3867C17.9979 18.2219 17.9646 18.1041 17.8981 17.9586C17.8225 17.7938 17.8626 17.8708 17.7881 17.7505C17.7044 17.6147 17.7147 17.6375 17.6437 17.5521C17.4201 17.6291 17.1771 17.5064 17.1072 17.4812C16.9089 17.409 16.7163 17.2984 16.3988 17.4439C16.3931 17.4475 16.1558 17.6435 16.1455 17.6519L15.9541 17.2852C15.9254 17.7758 16.0125 17.51 15.7684 17.5858ZM31.4493 47.7605C32.0557 47.9265 31.9136 47.7942 32.0156 48.0275H32.3652C32.481 47.7617 32.1371 47.8483 32.6999 47.8279L32.7767 46.8923C32.9486 47.2891 32.842 47.5368 33.0174 47.8772L33.0266 46.9428L32.9544 46.742C32.9291 46.7335 32.8925 46.742 32.8764 46.742L32.5864 46.7504C32.0431 46.659 32.2162 46.594 32.1898 46.3415H31.588L31.5662 47.0438L31.4287 45.0499L31.4493 47.7605ZM12.7548 24.604C12.474 25.1812 12.6689 24.7122 12.803 24.8288L13.681 24.7723V25.18L14.3241 25.2281C14.5659 25.0477 14.7184 24.6833 14.8078 24.2985C14.0662 24.2757 14.4914 23.5361 13.281 23.9967C13.3761 23.7465 13.4059 23.6708 13.4265 23.5962L13.4231 23.3148L12.7548 24.604ZM33.0392 25.2726C32.928 25.3712 32.7767 25.2173 32.8684 25.7416C32.818 26.118 32.9463 25.8678 32.7629 26.0675C32.5463 26.0146 32.6414 25.9761 32.3973 26.0242C32.1245 26.0783 32.2895 25.9436 32.1898 26.2022L31.9984 25.8005H31.5766L31.5513 26.201L31.5181 25.1992L31.5204 26.8083C31.5376 26.8227 31.5754 26.8046 31.5869 26.8359C31.6556 27.0199 31.5296 26.765 31.8677 26.9429C31.8872 26.9538 31.9124 26.9646 31.9308 26.9766C32.317 27.2195 32.0511 27.3759 32.6758 27.4817C32.7228 27.4889 32.6701 27.2316 32.9051 27.7799C32.9142 27.8016 32.9246 27.8425 32.9383 27.8713C33.0713 27.08 33.0059 27.3278 32.9154 26.6026C32.8604 26.1625 32.9991 25.7187 33.0392 25.2726ZM11.0297 17.7325C11.1844 17.961 11.1844 17.9117 11.4103 18.0464C11.6957 18.2171 11.5937 18.1967 11.8481 18.2364C12.3296 18.038 12.0075 18.3626 12.1026 17.8516C12.4339 17.9814 12.7904 17.9526 13.2477 17.9526C13.203 17.4764 12.9806 17.593 13.4701 17.4511C12.8924 17.1685 13.3967 17.5834 13.2225 17.1998C13.1285 16.9653 13.1686 17.047 12.9348 16.8594C12.6734 16.6514 12.7055 16.6875 12.4213 16.5624C12.3892 16.8883 12.1221 17.2743 12.1221 17.2743C12.1175 17.2587 12.0957 17.3128 12.0866 17.3345C11.2578 17.3345 11.4573 17.3898 11.3163 17.516L11.0297 17.7325ZM20.3443 54.2423C20.3374 55.2609 20.2033 55.9933 21.3026 55.9476C22.0006 55.754 22.0488 55.4293 22.0488 54.561C22.0488 53.825 22.0557 53.0891 22.0476 52.3531L21.9307 52.4241L21.8894 54.6572C21.7404 54.9254 21.7817 54.9783 21.8069 55.3583C21.6717 55.2513 21.6717 55.4702 21.6166 55.03H20.9335C20.9059 54.0126 21.0343 55.2765 20.3443 54.2423ZM0.0175065 22.3948C0.125256 22.5043 0.186008 22.6161 0.199763 22.6426C0.212372 22.663 0.22842 22.6955 0.238736 22.7171L0.291464 22.8578C0.31439 22.8434 0.344193 22.7881 0.355655 22.8085C0.367118 22.829 0.404945 22.7712 0.422139 22.7616C0.991834 22.4273 1.24172 22.7183 1.38959 22.1435L1.61884 22.5283C1.74264 22.7268 1.61426 22.6666 1.81944 22.7448L1.80912 21.2921C1.73462 21.3919 1.64062 21.3041 1.62801 21.927L1.56382 21.5591C1.24631 21.5939 0.884085 21.6637 0.602103 21.4701C0.321267 21.2777 0.525303 21.5434 0.354509 21.1923C0.340754 21.2248 0.339608 21.2656 0.333876 21.2957L0.297196 21.4953C0.234151 21.802 0.412969 21.7623 0.157351 21.8946L0.150474 21.1141C-0.0501233 21.3258 0.130987 20.989 0.0427243 21.3186C0.0106288 21.44 0.00489751 21.5603 0.00145871 21.6901C-0.0054189 21.9102 0.0140677 22.1748 0.0175065 22.3948ZM0.290318 19.5388L0.192885 19.8899C0.561984 20.0799 0.367118 20.0643 0.705267 20.1569C0.584909 20.4972 0.618151 20.2386 0.372849 20.4816C-0.0512696 20.9001 1.25777 20.7582 1.46868 20.7582L1.42283 21.4244C1.56955 20.9915 1.76671 21.1851 1.81256 21.1923C1.82746 20.7197 1.91916 20.3192 2.00628 19.8899C1.99711 19.8755 1.98336 19.849 1.97762 19.8466C1.45378 19.653 1.87331 19.7468 1.7243 19.9645H1.46066C1.44117 19.2694 1.50651 19.7444 1.26808 19.5556L0.290318 19.5388ZM31.4493 47.7605L31.4837 50.049L31.5892 48.7923C32.3503 48.8789 31.6304 48.8681 32.1268 48.9871C32.3228 49.034 32.5417 48.9956 32.7492 48.9932C32.7446 48.8825 32.7205 48.8705 32.7538 48.7382C32.8374 48.4051 32.8008 48.5939 32.8592 48.4881L32.9727 50.1248L33.0174 47.8772C32.842 47.5368 32.9486 47.2891 32.7767 46.8923L32.6999 47.8279C32.1371 47.8483 32.481 47.7617 32.3652 48.0275H32.0156C31.9136 47.7942 32.0557 47.9265 31.4493 47.7605ZM0.290318 19.5388L1.26808 19.5556C1.50651 19.7444 1.44117 19.2694 1.46066 19.9645H1.7243C1.87331 19.7468 1.45378 19.653 1.97762 19.8466C1.98336 19.849 1.99711 19.8755 2.00628 19.8899L2.29285 18.8268C2.03608 18.7378 1.3082 18.5923 1.08697 18.9206L1.00444 17.6976L0.290318 19.5388ZM20.3466 50.2775V52.6706L20.4818 50.6491C20.5093 50.7778 20.5093 50.8884 20.5781 51.0038L20.7202 51.1602C20.7352 51.1746 20.7592 51.1914 20.7741 51.2047L21.1283 51.4344C21.2429 51.4656 21.447 51.4512 21.5731 51.4512L21.6545 52.2569C21.8333 51.9755 21.7828 51.4392 21.8195 51.0507L21.8791 49.319L21.7393 49.8458C21.729 50.1067 21.729 50.3545 21.7118 50.6214L21.4928 50.1753L20.3466 50.2775ZM12.7067 5.36294C12.6391 5.82713 12.4946 5.0623 12.7388 5.44832L12.9027 5.71649C12.9245 5.78263 12.9898 6.17106 12.9933 6.26245C13.2707 6.26245 13.5928 6.24682 13.8644 6.26125C14.073 6.27208 14.0444 6.12416 14.5212 6.5631C14.4272 5.93295 14.3951 6.57151 14.3298 5.94618C14.3138 5.79827 14.3321 5.52168 14.331 5.36053C13.7395 5.36053 14.2794 5.39781 14.0925 5.16091C14.4421 5.12844 14.3149 5.14167 14.5212 5.05989C14.5052 5.00217 14.4995 4.84223 14.4857 4.88311C14.4777 4.90596 14.4559 4.84463 14.3791 4.74963L12.7067 5.36294ZM20.3489 29.6776V30.4099L20.5093 30.4857C20.5311 30.4953 20.6343 30.5434 20.6618 30.5578C21.1753 30.8104 20.9289 30.7863 21.6132 30.7863C21.5811 30.4244 21.5754 30.0588 21.8344 29.7834L21.8275 29.3348L20.3661 29.3409L20.3489 29.6776ZM31.5215 51.5919V52.228C31.8562 52.0453 32.3824 52.1811 32.4878 52.2449C32.7744 52.4169 32.6219 52.0609 32.6678 52.5527C32.6987 52.5179 32.7435 52.4229 32.7606 52.4493L32.9544 52.2028V51.8925L32.7836 50.3689C32.4512 51.2504 32.6701 50.6455 32.2357 51.1012C32.0557 51.29 32.1829 51.1373 32.0947 51.3911C31.9181 50.8812 32.3468 51.0195 31.6786 50.9942L31.5215 51.5919ZM16.1466 18.2869C16.2464 18.6044 16.3702 18.9615 16.5077 19.2886L16.8138 18.8882C16.9066 19.2694 16.8023 19.0433 17.2173 19.2646C17.4832 19.4053 17.3319 19.4329 17.8007 19.4546L17.8798 19.9873C18.2879 19.9789 17.9577 20.0378 18.2925 19.8045L18.4346 19.6891C18.4094 19.3764 18.1492 18.5984 18.0563 18.3867C17.8248 18.5611 17.8592 18.4793 17.7686 18.7872H17.482C17.4167 18.6176 17.3055 18.5058 16.988 18.507C16.2739 18.5106 17.1084 18.6272 16.5513 18.6873L16.4172 18.1895L16.1466 18.2869ZM31.5215 53.4547L31.7026 54.3265C32.8099 54.3265 31.8689 54.4961 32.8111 54.5273C32.8111 54.157 32.8741 53.7156 32.7377 53.3765C32.5646 52.946 32.3056 53.1973 32.1898 53.2298C31.9881 52.7211 32.0672 53.3993 31.9995 52.7536L31.6568 52.756L31.5215 53.4547ZM3.37378 22.0942L3.54228 23.2968C4.1051 23.5397 3.96869 23.239 4.09249 23.6167H4.7023L4.85705 22.9011C4.86278 22.8879 4.87424 22.8602 4.87883 22.847C4.88456 22.835 4.89373 22.8073 4.89831 22.7953C4.9029 22.7821 4.91322 22.7544 4.9178 22.7424C4.94073 22.6859 4.74128 22.7448 5.00836 22.5331L3.37378 22.0942ZM14.4261 27.8064C14.4066 28.0758 14.347 27.834 14.6106 28.0156L15.0176 28.3776C15.2124 28.5712 15.1929 28.0409 15.2136 28.7817C15.5139 28.8009 15.3867 28.8911 15.7592 28.8586C16.0698 28.8165 15.9564 28.8081 16.22 28.4906C16.4286 28.2381 16.4607 28.2297 16.6246 27.905C16.275 28.0529 16.4275 27.9339 16.4091 27.9278L16.2292 27.8292C15.7156 27.7078 15.8899 28 15.1219 27.6248C15.1081 27.6188 15.0806 27.608 15.068 27.6019C15.0554 27.5959 15.0267 27.5875 15.0141 27.5815C14.5201 27.3242 14.9041 27.9026 14.7986 27.4059L14.4261 27.8064ZM0.150474 21.1141L0.157351 21.8946C0.412969 21.7623 0.234151 21.802 0.297196 21.4953L0.333876 21.2957C0.339608 21.2656 0.340754 21.2248 0.354509 21.1923C0.525303 21.5434 0.321267 21.2777 0.602103 21.4701C0.884085 21.6637 1.24631 21.5939 1.56382 21.5591L1.62801 21.927C1.64062 21.3041 1.73462 21.3919 1.80912 21.2921L1.81256 21.1923C1.76671 21.1851 1.56955 20.9915 1.42283 21.4244L1.46868 20.7582C1.25777 20.7582 -0.0512696 20.9001 0.372849 20.4816C0.618151 20.2386 0.584909 20.4972 0.705267 20.1569C0.367118 20.0643 0.561984 20.0799 0.192885 19.8899C0.173399 20.33 0.0633572 20.6235 0.150474 21.1141ZM3.77726 19.9103C3.94691 20.3204 3.7211 19.9055 4.20712 19.8887C4.22087 20.229 4.35957 20.4707 4.60946 20.674L5.16196 21.2584C5.24334 20.977 5.29034 20.6331 5.3958 20.3324C5.51845 19.9849 5.61244 19.8418 5.72821 19.5207L5.52532 19.647C5.50813 19.6554 5.48062 19.6662 5.46457 19.6746L5.31785 19.7444C5.0095 19.9693 5.63307 19.932 4.89946 19.9645C4.83642 19.8274 5.10923 19.6338 3.99162 19.7636C4.0283 19.6686 4.13375 19.4762 3.96984 19.3932C3.74517 19.5195 3.91023 19.3427 3.81853 19.576C3.71881 19.831 3.7509 19.5219 3.77726 19.9103ZM13.1824 20.0306L13.3738 20.5249C13.6501 20.2892 13.5652 21.0877 13.5664 20.3156C13.7337 20.5188 13.5641 20.6451 13.6856 20.7906H14.7127C14.7253 20.8111 14.7482 20.8147 14.7516 20.8508L14.8078 21.1923L15.1597 20.8688C15.2205 20.4118 15.076 20.0029 14.9029 19.6446L14.8135 19.8141C14.6175 20.199 14.739 20.1124 14.5109 20.1521C14.433 20.1653 13.9103 20.14 13.7807 20.14C13.7223 20.0282 13.7796 19.8959 13.1824 20.0306ZM13.4265 23.5962C13.4059 23.6708 13.3761 23.7465 13.281 23.9967C14.4914 23.5361 14.0662 24.2757 14.8078 24.2985L15.0806 23.5974L14.5212 23.5301C14.3951 23.1116 14.6221 23.3136 14.237 22.9961C13.9997 22.8013 13.7945 22.8109 13.4713 22.6955C13.5033 23.0118 13.4839 22.8326 13.532 23.0526L13.6466 23.3136C13.6443 24.0856 13.736 23.2619 13.4265 23.5962ZM0.407237 24.5991L0.479452 24.9491C0.611273 24.7543 0.909303 24.9034 1.05029 24.9984L1.22223 25.1235C1.24401 25.1427 1.30591 25.1944 1.32311 25.2185C1.42742 25.3616 1.42398 24.9767 1.43773 25.6009C2.20459 25.6009 2.2149 25.7344 2.10601 25.0994C2.30316 24.8649 2.06245 25.0212 2.39257 24.925L2.10945 24.1722L2.00972 23.9979C1.66699 24.2805 1.9249 23.9967 1.70252 24.325C1.63948 24.4188 1.66125 24.3719 1.60165 24.5486C1.54548 24.7098 1.56497 24.8024 1.53287 24.925C1.35979 24.6304 0.74424 24.6112 0.407237 24.5991ZM31.588 46.3415H32.1898C32.2162 46.594 32.0431 46.659 32.5864 46.7504L32.8764 46.742C32.8925 46.742 32.9291 46.7335 32.9544 46.742L33.0266 46.9428L33.0358 46.208L32.9062 45.24C32.7572 45.4095 32.826 45.2628 32.7102 45.525C32.6712 45.6139 32.6861 45.7126 32.6838 45.8064C32.3457 45.7943 32.1382 45.7065 31.6316 45.7065L31.588 46.3415ZM31.5215 52.228V53.4547L31.6568 52.756L31.9995 52.7536C32.0672 53.3993 31.9881 52.7211 32.1898 53.2298C32.3056 53.1973 32.5646 52.946 32.7377 53.3765C32.8741 53.7156 32.8111 54.157 32.8111 54.5273L32.9544 52.2028L32.7606 52.4493C32.7435 52.4229 32.6987 52.5179 32.6678 52.5527C32.6219 52.0609 32.7744 52.4169 32.4878 52.2449C32.3824 52.1811 31.8562 52.0453 31.5215 52.228ZM31.5766 25.8005H31.9984L32.1898 26.2022C32.2895 25.9436 32.1245 26.0783 32.3973 26.0242C32.6414 25.9761 32.5463 26.0146 32.7629 26.0675C32.9463 25.8678 32.818 26.118 32.8684 25.7416C32.6082 25.7043 32.7343 25.6033 32.7171 25.2088C32.7102 25.0609 32.7114 24.9479 32.6793 24.8072C32.6277 24.5751 32.6552 24.6713 32.5727 24.5486C32.2311 24.7074 32.3239 24.4693 32.3239 25.1403L31.5949 25.1391L31.5766 25.8005ZM32.7492 48.9932C32.5417 48.9956 32.3228 49.034 32.1268 48.9871C31.6304 48.8681 32.3503 48.8789 31.5892 48.7923L31.6373 49.4345L32.011 49.4357V49.8361H32.724L32.7492 48.9932ZM12.6116 36.816C12.466 36.6332 12.2528 36.6813 12.0384 36.5238C12.0086 36.5394 11.9593 36.5166 11.9456 36.561C11.8745 36.7859 11.7301 36.454 11.6877 36.822C11.698 37.2645 11.7725 37.1419 11.7839 37.5904H12.2929C12.3009 36.6248 12.5233 37.1671 12.6116 36.816Z" fill="#A6A182"/>
</svg>
