<?xml version="1.0" encoding="UTF-8"?>
<!DOCTYPE svg PUBLIC "-//W3C//DTD SVG 1.1//EN" "http://www.w3.org/Graphics/SVG/1.1/DTD/svg11.dtd">
<!-- Creator: CorelDRAW 2019 (64-Bit) -->
<svg xmlns="http://www.w3.org/2000/svg" xml:space="preserve" width="100%" height="100%" version="1.1" style="shape-rendering:geometricPrecision; text-rendering:geometricPrecision; image-rendering:optimizeQuality; fill-rule:evenodd; clip-rule:evenodd"
viewBox="0 0 466.03 465.67"
 xmlns:xlink="http://www.w3.org/1999/xlink">
 <defs>
  <style type="text/css">
   <![CDATA[
    .fil0 {fill:#A6A182}
   ]]>
  </style>
 </defs>
 <g id="Layer_x0020_1">
  <metadata id="CorelCorpID_0Corel-Layer"/>
  <g id="_2149894232288">
   <path class="fil0" d="M424.91 387.36c0,38.46 -52.03,52.5 -70.36,15.94 -15.67,-31.26 19.01,-63.53 47.79,-49.71 3.26,1.56 5.96,2.62 8.5,4.87 8.2,7.25 14.07,16.41 14.07,28.9zm-67.79 -55.38c-7.5,0 -11.53,-6.69 -15.28,-6.69 -3.05,0 -16.23,15.1 -16.23,15.28 0,4.21 15.63,19.49 -0.72,30.8 -3.01,2.08 -3.62,2.09 -7.85,2.65 -8.82,1.16 -6.71,3.37 -6.71,21.94 0,3.35 2.6,4.23 5.68,4.82 3.77,0.72 4.79,0.65 8.04,2.46 4.05,2.25 8.24,8.07 8.24,13.72 0,17.15 -15.07,10.33 -0.24,25.07 13.96,13.87 8.52,5.26 21.43,1.77 8.75,-2.37 18.45,3.06 20.4,10.83 2.91,11.58 -1.7,11.03 20.48,11.03 10.74,0 3.06,-12.63 13.87,-19.54 3.82,-2.44 8.89,-3.39 12.97,-2.6 13.69,2.64 7.68,12.93 21.62,-1.02 4.64,-4.64 6.92,-4.84 6.92,-10.26 0,-2.47 -1.57,-2.77 -3.01,-4.63 -4.15,-5.39 -4.06,-13.3 -0.67,-19.1 6.85,-11.68 19.91,-3.55 19.91,-14.46 0,-19.71 1.4,-18.05 -10.24,-20.32 -9.77,-1.91 -16.35,-15.29 -9.26,-25.93 5.09,-7.63 5.13,-6.78 -3.65,-15.58 -15.5,-15.54 -8.7,-0.24 -24.59,-0.24 -6.65,0 -11.6,-3.6 -14.38,-7.59 -9.41,-13.51 8.65,-14.37 -24.77,-14.37 -8.25,0 -0.11,21.96 -21.96,21.96z"/>
   <path class="fil0" d="M131.77 291.87c26.49,14.02 56.46,33.26 82.44,47.42 4.24,2.31 8.43,4.56 12.09,7.01l0 -110.76c-4.36,-1.02 -41.97,-23.6 -47.08,-26.45 -4.55,-2.52 -44.04,-26.12 -47.45,-27.03l0 109.81z"/>
   <path class="fil0" d="M304.6 198.3c0,6.21 0.99,42.84 -0.99,47.71 -1.81,4.47 -7.86,6.67 -12.05,8.95 -12.25,6.67 -22.81,16.93 -27.07,8.27 -1.99,-4.06 -0.95,-35.53 -0.95,-40.11 -6.23,1.45 -17.81,11 -23.87,12.42l0 110.76 94.53 -54.43 0 -109.81c-5.55,1.48 -24.61,14.9 -29.6,16.24z"/>
   <path class="fil0" d="M20.05 215.48c4.08,0 11.18,-6.16 16.23,-9.55 0,9.81 -1.91,18.6 -1.91,31.52 0,41.64 15.09,85.74 38.6,117.04l10.1 12.82c0,4.95 -1.25,5.75 -0.3,9.77 3.62,15.38 17.19,12.19 21.31,12.19 1.59,0 10.67,7.76 12.68,9.28 4.91,3.69 8.16,6 13.64,9.28 48.95,29.3 106.31,38.71 163.09,21.9 5.15,-1.53 13.02,-3.1 13.02,-8.95 0,-6.87 -5.36,-8.36 -11.1,-6.39 -40.39,13.87 -94.71,12.5 -132.77,-5.39 -15.36,-7.22 -24.3,-11.64 -37.71,-21.49 -3.97,-2.92 -7.38,-6.12 -11.3,-8.74 3.8,-16.34 -11.67,-24.08 -20.06,-20.05l-16.42 -22.73c-5.6,-8.31 -9.31,-16.72 -13.81,-26.29 -10.76,-22.89 -17.64,-63.84 -13.97,-91.64 0.46,-3.49 1.17,-8.44 1.23,-11.17 2.81,2.06 6.74,9.38 9.35,12.62 3.31,4.11 12.62,5.47 12.62,-4.03 0,-4.75 -13.23,-20.43 -16.62,-25.4 -9.42,-13.82 -12.46,-5.76 -31.32,7.07 -2.59,1.77 -8.51,5.72 -10.04,8.2 -2.69,4.38 0.73,10.13 5.46,10.13z"/>
   <path class="fil0" d="M166.14 51.24c0,16.81 22.8,-2.86 63.02,-2.86 29.56,0 55.19,2.58 80.85,14.64 14.2,6.68 25.23,12.33 37.71,21.49 3.97,2.92 7.39,6.12 11.31,8.75 -5.38,11.21 8.84,25.43 20.05,20.05 2.62,3.92 5.82,7.34 8.74,11.31 8.48,11.54 16.23,25.28 21.68,38.48 10.3,24.93 17.78,60.58 13.79,90.86 -0.46,3.5 -1.18,8.45 -1.24,11.18 -2.81,-2.06 -6.74,-9.38 -9.35,-12.63 -3.3,-4.1 -12.61,-5.46 -12.61,4.03 0,4.36 7.89,13.29 10.65,17.04 12.71,17.3 10.41,20.09 26.78,8.93 3.88,-2.65 6.64,-5.01 10.5,-7.64 2.66,-1.81 8.47,-5.6 9.95,-8.29 2.34,-4.21 -0.68,-10.04 -5.37,-10.04 -4.27,0 -12.85,7.29 -16.23,9.55 0,-9.93 1.91,-18.64 1.91,-29.6 0,-28.78 -6.14,-54.56 -14.46,-75.3 -8.28,-20.65 -16.25,-33.14 -29.04,-50.21 -1.01,-1.35 -5.2,-5.84 -5.2,-6.26 0,-4.96 1.25,-5.76 0.31,-9.78 -3.63,-15.38 -17.2,-12.18 -21.31,-12.18 -2.43,0 -4.24,-2.88 -6.13,-4.38l-20.2 -14.18c-9.7,-5.81 -18.71,-10.75 -29.74,-15.14 -41.79,-16.66 -88.49,-20.05 -133.35,-6.76 -5.14,1.52 -13.02,3.1 -13.02,8.94z"/>
   <path class="fil0" d="M38.19 75.12c0,27.71 12.83,24.03 14.32,42.01l16.24 0 0 -26.74c0,-6.31 -15.28,-4.41 -15.28,-16.23 0,-2.33 2.21,-4.77 5.73,-4.77 5.74,0 12.35,7.64 16.23,7.64 2.57,0 11.94,-7.64 15.28,-7.64 7.02,0 6.68,4.51 6.68,7.64 0,5.95 -15.28,8.07 -15.28,13.36l0 26.74c24.24,0 10.81,1.81 23.1,-17.01 7.04,-10.77 7.46,-11.95 7.46,-25 0,-17.04 -17.34,-34.38 -34.38,-34.38l-5.72 0c-17.26,0 -34.38,17.04 -34.38,34.38z"/>
   <path class="fil0" d="M203.38 132.41c2.7,3.68 40.23,24.03 46.02,27.51l39.29 22.77c1.99,1.08 6.56,4.13 7.95,4.49 3.13,0.83 3.18,-0.58 7.96,-3.21l15.69 -9.14c3.84,-2.25 4.9,-1.7 7.23,-5.18l-94.54 -54.43c-4.55,3.05 -9.57,5.44 -14.51,8.41 -5.06,3.03 -10.01,6.09 -15.09,8.78z"/>
   <path class="fil0" d="M138.45 169.65c2.71,4.05 79.4,46.69 87.07,51.39 7.69,4.71 7.24,4.71 14.93,0 3.33,-2.04 12.05,-7.63 15.45,-8.42 -0.98,-3.67 -0.76,-2.28 -4.41,-4.18 -18.25,-9.5 -45.94,-26.69 -65.34,-37.79 -31.41,-17.97 -18.76,-16.31 -47.7,-1z"/>
   <path class="fil0" d="M49.65 131.45c-1.66,7.12 -0.96,10.61 -0.96,19.1 0,5.71 8.15,5.73 12.42,5.73 0,13.63 -0.63,11.46 23.87,11.46 5.42,0 4.77,-8.02 4.77,-11.46 14.83,0 12.42,-3.09 12.42,-21.01 0,-3.09 -4.15,-5.73 -7.64,-5.73 -11.15,0 -37.9,-1.55 -44.88,1.91z"/>
   <path class="fil0" d="M174.74 148.64c1.77,2.43 19.19,11.79 23.09,14.15 7.93,4.81 15.8,8.87 23.64,13.6 7.72,4.65 15.59,8.79 23.63,13.61l24.17 14.02c4.06,-2.15 13.05,-6.22 15.28,-9.54 -3.32,-0.78 -19.88,-11 -23.92,-13.32 -7.95,-4.58 -15.68,-8.82 -23.64,-13.6 -8.05,-4.84 -15.44,-8.74 -23.65,-13.6l-23.33 -13.91c-4.72,3.16 -10.1,5.86 -15.27,8.59z"/>
   <path class="fil0" d="M275.95 214.53l0 34.37c5.17,-2.73 10.56,-5.43 15.28,-8.59l0 -33.42c-5.17,1.38 -9.58,6.31 -15.28,7.64z"/>
   <path class="fil0" d="M48.69 27.37c0,-2.95 -5.57,-12.38 -7.45,-14.52 -4.77,-5.44 -12.68,-0.52 -12.32,4.81 0.12,1.85 6.09,12.49 7.58,14.28 4.22,5.02 12.19,3 12.19,-4.57z"/>
   <path class="fil0" d="M126.04 52.2c0,3.22 2.53,6.68 7.64,6.68 1.15,0 24.45,-8.31 14.63,-17.51 -4.34,-4.06 -8.31,-1.13 -12.54,1.46 -3.5,2.13 -9.73,4.22 -9.73,9.37z"/>
   <path class="fil0" d="M102.17 27.37c0,9.39 8.96,8.27 12.2,4.57 3.07,-3.5 6.89,-11.05 6.89,-16.03 0,-1.9 -6.73,-12.49 -14.29,0.99 -2.17,3.88 -4.8,7.23 -4.8,10.47z"/>
   <path class="fil0" d="M-0 46.47c0,4.94 12.63,12.41 19.09,12.41 3.46,0 5.94,-4.8 5.21,-8.07 -1.23,-5.58 -15.47,-11.36 -16.84,-11.44 -3.21,-0.18 -7.46,3.25 -7.46,7.1z"/>
   <path class="fil0" d="M68.75 5.41c0,11.6 -2.05,20.05 6.68,20.05 8.73,0 6.68,-8.45 6.68,-20.05 0,-7.22 -13.36,-7.22 -13.36,0z"/>
  </g>
 </g>
</svg>
