<?xml version="1.0" encoding="UTF-8"?>
<!DOCTYPE svg PUBLIC "-//W3C//DTD SVG 1.1//EN" "http://www.w3.org/Graphics/SVG/1.1/DTD/svg11.dtd">
<!-- Creator: CorelDRAW 2019 (64-Bit) -->
<svg xmlns="http://www.w3.org/2000/svg" xml:space="preserve" width="100%" height="100%" version="1.1" style="shape-rendering:geometricPrecision; text-rendering:geometricPrecision; image-rendering:optimizeQuality; fill-rule:evenodd; clip-rule:evenodd"
viewBox="0 0 494.44 465.68"
 xmlns:xlink="http://www.w3.org/1999/xlink">
 <defs>
  <style type="text/css">
   <![CDATA[
    .fil0 {fill:#A6A182}
   ]]>
  </style>
 </defs>
 <g id="Layer_x0020_1">
  <metadata id="CorelCorpID_0Corel-Layer"/>
  <path class="fil0" d="M304.51 340.96c2.2,2.21 0.26,3.29 -0.66,4.75 1.44,1.76 1.69,1.79 1.01,2.37 -0.89,0.76 -5.01,-5.16 -5.29,-5.9 1.1,-1.58 3.25,-2.93 4.94,-1.22zm142.22 -17.43c0.56,0.24 1.74,0.74 3.27,1.48 0.16,0.14 0.12,0.16 0.35,0.17 2.9,1.42 6.93,3.61 10.47,6.3 0.83,1.22 3.05,2.7 4.1,3.68 0.36,0.39 0.68,0.69 0.98,0.93 24.4,23.62 23.59,63.76 -2.19,86.46 -20.51,18.05 -50.67,20.73 -74.37,3.52 -4.84,-3.51 -13.44,-12 -15.83,-17.44 -1.58,0.63 -4.34,5.66 -8.04,3.21 -0.95,-0.62 -2.03,-2.38 -2.8,-3.47 -1.18,-1.65 -2,-2.22 -2.66,-3.91l1.75 -1.12c2.39,2 5.46,10.08 8.68,4.76 -1.22,-2.37 -4.71,-5.64 -5.46,-7.52l1.49 -1.13c1.48,0.66 2.83,3.01 3.75,4l-0.23 -1.29 0.16 -0.82c-0.89,-0.76 -0.88,-0.86 -1.32,-2.13 -1.32,-0.78 -0.31,-0.24 -0.88,-1.95 -0.28,-0.86 -0.65,-1.24 -0.85,-1.92 -0.28,-0.97 -0.44,-3.44 -0.72,-4.83 -6.73,-33.14 14.48,-64.43 48,-70.64 6.01,-1.12 14.29,-1.16 20.25,0.04 3.26,0.66 6.07,1.31 8.79,2.26l2.94 1.21 0.01 0 0.36 0.15zm-380.77 -121.09c0,0 -0.84,2.28 -1.93,5.67l-0.1 0.27 -0.01 0.05c-0.25,0.77 -0.51,1.6 -0.78,2.47 -0.03,0.03 -0.08,0.07 -0.16,0.17l-0.08 0.63c-1.88,6.21 -3.94,14.2 -3.98,19.49l0 0c-1.96,11.2 -3.98,25.24 -2.82,28.21l11.33 0.54c0.87,-19.31 2.86,-31.54 8.03,-49.01 1,-3.4 3.52,-11.69 4.97,-13.93 1.19,-5.58 9.88,-21.93 13.07,-27.35 14.04,-23.85 30.85,-41.7 52.7,-57.95 1.49,-1.11 4.06,-3.11 6,-4.06l-4.22 26.04 11.28 2.02 7.67 -45.01c-1.59,-0.66 -8.76,-1.71 -10.75,-2 -3.38,-0.48 -7.43,-1.14 -10.64,-1.83 -3.74,-0.79 -20.03,-2.8 -21.46,-3.84l-2.35 -0.1c-0.37,2.7 -1.98,9.2 -1.62,11.5l24.23 3.97c-0.47,1.09 -5.15,4.1 -6.67,5.17 -15.39,10.81 -30.7,26.92 -41.92,41.65 -10.17,13.36 -19.22,29.6 -25.69,45.71 -1.59,3.96 -2.83,7.72 -4.1,11.52zm335.98 -75.55l0.01 0.01c2.19,2.29 4.11,4.5 5.64,6.55 0.78,0.93 1.61,1.91 2.45,2.93l0.11 0.09c0.01,0.02 0.06,0.09 0.13,0.2 0.73,0.88 1.48,1.78 2.22,2.69 0.24,0.2 0.49,0.37 0.73,0.49 0.09,0.27 0.18,0.51 0.26,0.73 0.63,0.77 1.25,1.55 1.85,2.31 0.22,0.12 0.45,0.22 0.73,0.33 0.04,0.35 0.17,0.71 0.36,1.07 1.69,2.17 3.2,4.21 4.32,5.89 10.59,15.14 22.05,36.78 26.93,54.64 0.75,3.5 2.69,8.51 3.63,12.9 0.29,1.39 0.52,3.15 1.25,3.88 -0.21,1.92 6.36,30.33 3.98,56.78 2.8,-1.15 18.13,-15 20.68,-16.04 1.63,3.16 5.08,5.84 6.76,8.82l-26.61 21.84c-1.01,0.81 -1.31,1.01 -2.13,1.78l-1.74 1.41c-2.05,1.48 -3.33,2.92 -5.2,3.78l-21.48 -26.76c-1.34,-1.66 -6.06,-6.97 -6.89,-8.72 0.99,-1.2 3.02,-2.69 4.37,-3.76 1.54,-1.21 2.98,-2.43 4.44,-3.53 1.25,1.67 2.66,3.29 4.03,4.92 1.94,2.31 11.32,14.37 12.18,14.79 1.16,-2.26 0.39,-18.37 0.25,-22.25 -0.23,-6.48 -1.41,-13.57 -2.23,-19.99 -3.11,-24.31 -15.28,-53.58 -29.23,-74.46 -0.29,-0.39 -8.64,-11.55 -15.37,-19.75l-0.3 0.05c-0.05,-0.24 -0.19,-0.54 -0.4,-0.89 -1.97,-2.39 -3.77,-4.46 -5.14,-5.86 -6.35,-6.3 -16.28,-14.72 -19.61,-17.38 -4.54,-3.62 -9.19,-7.03 -14.45,-10.24 -3.17,-1.95 -12.51,-7.83 -15.73,-8.95 0.45,-2.12 1.62,-3.71 2.45,-5.43 0.75,-1.56 1.74,-3.87 2.84,-4.86 2.5,0.83 6.49,3.34 8.84,4.75 2.62,1.56 5.71,3.29 8.32,5.02 9.77,6.49 26.31,19.29 36.75,30.22l0 0zm-202.71 -37.36c0.84,2.52 2.11,5.67 3.98,9.05l0.81 0.65c0.04,0.77 0.85,2.19 1.98,3.82l0.24 0.34 0 0.01 0.34 0.46c2.38,3.27 5.73,7.08 6.95,8.29 26.36,26.12 70.8,22.31 91.93,-10.71 2.42,-3.79 6.42,-11.99 6.95,-16.33 2.11,-4.33 2.38,-15.83 1.75,-21.32 -0.76,-6.63 -2.68,-13.97 -5.46,-19.32 -3.06,-5.9 -5.81,-10.1 -9.83,-14.52 -2.82,-3.1 -9.44,-9.05 -13.6,-10.9 -0.08,-0.11 -0.33,-0.61 -0.33,-0.68l0.13 -0.54c2.76,-1.51 6.77,-3.59 5.37,-8.16l0.3 0.16 1.57 0.42c0.24,0.73 3.4,2.55 4.05,2.99 20.09,13.73 32.13,41.43 28.45,65.69 -0.33,2.19 -2.37,11.07 -2.2,11.97 -1.1,0.81 -2.2,4.93 -2.51,6.24 -0.95,0.92 -2.12,4.28 -3.07,6.06 -1.27,2.39 -2.25,3.85 -3.56,5.85 -4.81,7.38 -11.18,13.53 -18.32,18.6l-11.38 6.71c-2.07,0.43 -7.51,2.76 -13.15,4.07 -4.82,1.12 -9.59,1.73 -15.19,1.75 -18.05,0.09 -35.83,-7.19 -48.19,-19 -3.14,-2.99 -8.62,-9.14 -11.96,-14.54l-0.04 -0.07c-0.26,-0.42 -0.5,-0.83 -0.73,-1.24 -0.66,-1.15 -1.67,-2.97 -2.71,-5.13 -0.21,-0.2 -0.4,-0.54 -0.57,-1.21 -1.22,-2.64 -2.42,-5.66 -3.13,-8.54 -0.05,-0.16 -0.1,-0.32 -0.16,-0.49 -3.31,-10.61 -3.7,-24.17 -1.22,-35.1 1.2,-5.27 3.14,-9.59 3.73,-12.24 0.05,-0.03 0.11,-0.03 0.39,-0.51l5.79 -10.62c7.33,-11.05 16.37,-18.73 28.31,-24.73 15.85,-7.97 41.59,-9.49 57.73,-1.3 -0.33,2.41 -4.68,3.28 -1.39,7.5 4.21,0.81 3.96,-1.97 6.94,-1.43 0.15,2.95 -3.14,2.9 -4.3,4.75 -0.06,0.1 -0.25,0.48 -0.31,0.59l-1.87 0 -10.56 -3.92c-7.74,-2.35 -18.33,-2.81 -26.31,-1.25 -2.82,0.55 -9.5,1.99 -11.57,3.31 -5.88,1.91 -13.31,7.04 -17.77,11.04 -14.21,12.75 -22.07,33.15 -19.02,52.17 0.36,2.22 0.78,3.99 1.23,5.67 0,0 -11.52,-1.08 -9.64,6.56l0 0 11.13 -0.92zm108.36 251.89c0.84,1.18 0.64,1.58 2.29,1.47 0.59,-2.98 -1.59,-2.17 -1.86,-5 2.03,0.02 4.01,4.05 4.18,4.68 -0.45,0.3 -0.7,0.35 -0.92,0.5 -0.62,0.42 -0.1,0.06 -0.65,0.53 -1.62,1.38 -1.97,1.39 -3.84,-0.99 -0.72,-0.93 -1.31,-1.37 -1.5,-2.74 1.48,-0.04 1.29,0.13 2.3,1.55zm2.95 -4.74c1.32,-1.69 3.1,-2.64 3.67,-0.22l-2.25 0.21c0.06,1.74 0.46,2.34 1.93,2.93 1.22,-0.8 0.55,-0.84 1.57,-1.59 0.52,0.79 0.74,-1.17 0.5,1.39 -0.23,2.5 -5.61,2.06 -5.42,-2.72zm6.34 -3.27c-0.98,2.38 1.64,2.1 1.61,4.72 -1.38,0.06 -1.02,0.06 -1.84,-1.05 -1.24,-1.68 -3.15,-3.78 -3.14,-5.46 1.53,0.13 0.98,-0.01 1.95,1.37 1.38,-0.83 2.09,-2.34 3.81,-0.51 0.99,1.06 2.03,2.23 1.95,3.67 -1.49,0.08 -1.33,-0.33 -2.12,-1.53 -0.23,-0.34 -0.44,-0.84 -0.89,-1.13l-1.33 -0.08zm5.25 0.8c-1.53,-1.07 -3.68,-3.65 -1.17,-5.41 2.52,-1.76 4.39,1.07 4.65,3.18 -0.64,1.4 -1.41,2.3 -3.48,2.23zm-125.95 -2.32c0.94,-2.4 -0.9,-2.5 1.96,-2.48 0.51,0.7 0.33,-0.37 0.55,1.41 0.49,3.98 -3.58,3.46 -5.36,3.2l0.19 -1.99 2.66 -0.14zm-5.5 -2.75c-0.33,-2.21 -0.04,-4.03 1.51,-4.67 0.6,-0.25 2.07,-0.36 2.62,-0.19 1.48,0.47 1,-0.06 0.96,1.81 -0.97,0.69 -1.61,0.24 -2.85,0.67l-0.5 2.19c-0.02,-0.05 -0.1,0.2 -0.17,0.29l-1.57 -0.1zm58.16 -114.1c14.91,-2.61 31.34,4.18 40.27,11.88 5.17,4.47 8.57,8.6 11.96,14.33 3.01,5.08 5.97,13.07 6.56,19.7 2.73,30.76 -17.61,55.2 -45.63,58.94 -15.92,2.12 -30.81,-3.73 -40.61,-11.96 -23.47,-19.71 -24.47,-53.58 -6.7,-74.39 9.69,-11.33 19.71,-15.98 34.15,-18.5zm77.81 1.4c0.04,-0.32 0.08,-1.25 0.11,-1.39l1.65 -1.3c0.68,0.84 0.25,-0.67 0.61,1.31 0.54,2.95 -2.26,4.77 -4.9,3.52 -0.28,-2.99 0.24,-1.21 2.53,-2.14zm-130.86 -2.5l1.87 -0.69c1.39,4.47 -1.62,5.43 -3.67,4.77 -1.51,-0.47 -0.95,0.18 -1.05,-1.8 0.1,-0.06 0.23,-0.11 0.3,-0.13l2.39 -0.4 0.16 -1.75zm125.01 0.08c-1,-4.18 0.86,-5.37 4.79,-4.86l0.01 1.57 -2.61 0.56 -0.25 2.83 -1.94 -0.1zm-126.52 -6.46l0.21 2.75 -2.71 -0.07 0.01 2.69c-3.2,0.15 -2.28,-1.09 -2.15,-4.21 -3.17,-0.19 -9.97,-1.94 -13.15,-2.67l-9.66 -2.09c-1.06,-0.18 -2.22,-0.45 -3.04,-1.14 -2.31,0.68 -1.58,-0.08 -3.93,4.12 -1.8,3.22 -8.51,14.14 -8.88,15.95 1.28,1.93 3.42,3.91 4.98,5.69 1.66,1.9 3.06,3.42 5.02,5.55 3.23,3.5 7.17,7.8 10.04,11.13 0.23,2.96 -1.74,10.86 -2.19,13.79 -0.37,2.4 -0.11,4.69 -2.09,5.75l-25.73 13.58c0.2,2.59 3.41,21.18 4.21,22.6l21.92 3.09c7.03,0.68 7.77,0.45 9.34,3.3 1.57,2.83 2.93,5.05 4.44,7.74 2.58,4.58 4.2,5.47 2.96,8.47 -1.67,4.02 -10.23,24.19 -10.59,26.66 1.51,0.69 7.09,5.69 8.82,7.16 1.52,1.29 2.84,2.36 4.3,3.57 1.28,1.06 2.96,2.59 4.26,3.57l24.38 -15.26c2.2,-1.39 5.26,0.19 9.43,1.88 1.35,0.54 9.05,3.18 9.62,3.69 1.55,1.41 7.96,26.51 9.95,28.95 2.99,0.19 8.76,0.28 11.64,-0.07 3.45,-0.43 6.82,0.35 10.72,0.07 1.17,-1.51 5.57,-16.39 6.65,-19.61 0.65,-1.92 1.1,-3.38 1.63,-5.12 1.2,-3.95 0.75,-3.74 2.16,-4.55 1.8,-1.03 7.18,-2.59 9.41,-3.48 5.56,-2.23 7,-3.13 9.61,-1.43l15.91 9.97c2.48,1.49 5.69,3.7 8.01,4.96 2.72,-2.12 15.74,-13.56 17.37,-14.31 -0.49,-3.24 -4.5,-9.51 -3.98,-11.75 -1.31,-0.83 -3.59,-7.3 -3.51,-8.31 -1.09,-0.81 -1.77,-3.03 -1.85,-4.16l-1.34 0.09c-0.37,2.75 0.85,2.32 1.57,3.9 0.55,1.21 -0.36,1.61 -1.37,0.61 -0.34,-0.33 -2.31,-3.05 -2.5,-4.13 2.5,-1.65 1.38,-1.3 2.86,-2.01l-0.54 -1.52c-1.26,-2.1 2.16,-6.46 4.31,-10.13 4.23,-7.26 3.2,-7.47 7.25,-8.07l27.05 -3.62c1.11,-2.39 4.06,-19.62 4.32,-22.94 -4.73,-2.01 -15.61,-8.14 -20.71,-10.84 -5.16,-2.72 -6.05,-2.1 -6.64,-5.13l-2.79 -17.18c1.81,-1.03 7.95,-8.65 10.2,-10.91l9.97 -11.24c-0.32,-1.7 -9.34,-16.81 -11.13,-19.82l-25.68 5.41c-4.34,1.05 -4.3,0.98 -6,-0.5 -1.58,-1.37 -2.67,-2.34 -4.22,-3.61 -2.72,-2.22 -5.51,-4.59 -8.31,-6.98 -0.87,-1.52 1.08,-25.41 0.76,-30.61 -1.69,-1.07 -19.84,-7.67 -21.56,-7.77l-6.18 7.9c-0.76,1.02 -1.13,1.99 -1.88,1.84 -0.85,2.12 -8.22,11.1 -10.41,14.17l-19.23 -0.16c-3.48,-4.42 -5.9,-7.56 -9.2,-11.87l-9.29 -11.88c-1.4,0.07 -20.62,7.08 -21.71,7.78l1.08 30.21 -12.22 10.56zm161.86 153.07l-1.82 14.15c-0.63,9.3 1.12,19.11 4.14,27.59 2.13,5.97 2.51,5.34 4.47,9.28 0.45,0.9 0.33,0.62 0.56,1.29 1.55,1.12 1.06,1.42 1.75,3.4 2.04,1.57 10.94,18.97 34.39,27.61 8.71,3.21 16.7,4.61 27.27,4.4 12.74,-0.25 25.62,-4.72 35.68,-11.24 15.69,-10.18 28.45,-28.48 30.97,-47.08 1.1,-8.15 1.58,-20.54 -1.04,-27.84 -1.09,-9.26 -8.85,-22.75 -15.65,-30.33 -7.49,-8.36 -15.62,-14.35 -26.46,-18.67 -28.08,-11.19 -59.29,-2.93 -78.17,18.24 -13.29,14.92 -14.57,27.44 -16.09,29.2zm-156.91 -271.1l0.02 -0.04c-0.49,-2.04 -1.02,-3.76 -1.51,-5.6l0 0 1.49 5.64zm-72.89 288.88l1.66 1.74c-2.04,2.55 -2.33,2.32 0.1,4.99 1.17,1.29 3.32,3.5 3.84,5.09l-1.28 0.88c-1.81,-0.72 -5.01,-5.72 -6.81,-7.18l-0.13 0.87c0.21,2.43 1.19,1.58 2.19,3.74 -1.11,1.01 -3.74,2.56 -4.18,4.18 1.14,0.8 2.22,1.32 3.21,-0.11 1.13,-1.65 -0.29,-2.17 2.71,-1.89 0.72,2.8 -0.99,4.93 -3.32,5.28 -3.83,0.58 -3.86,-2.82 -5.85,-2.3l-1.51 2.21c1.12,2.13 1.8,1.08 3.89,0.79l1.07 1.56c-1.38,1.63 -3.09,2.39 -5.22,1.03 -1.24,-0.79 -0.31,-0.61 -1.94,-1.04l-2.02 2.33 0.57 0.85c2.78,-0.08 2.03,-1.66 3.66,0.78 -2.01,3.93 -4.95,0.95 -6.68,0.86l-1.34 0.87 1.87 2.93c-0.89,1.83 -2.51,3.52 -4.04,4.43 -3.33,1.96 -4.02,-0.31 -5.77,-1.08 -0.73,0.19 -0.62,0 -0.84,0.39l2.37 3.71 -2.02 1.62 -2.52 -3.54 -1.1 0.02 -2.93 1.04c0.61,2.54 2.13,3.09 2.87,5.23 -0.82,1.02 -0.62,0.91 -1.91,1.29 -1.64,-1.56 -2.3,-3.48 -3.25,-4.37 -0.64,-0.6 0.08,-0.07 -0.83,-0.6 -0.72,0.7 0.13,0.24 -1.41,0.43l-5 1.62 0.14 1.31c2.44,-0.04 8.21,-3.7 8.02,1.86 -0.09,2.65 -3.75,5.67 -6.59,5.45 -0.47,-2.83 -0.58,-1.81 1.67,-2.84 1.53,-0.71 2.32,-1.11 2.17,-2.97 -1.8,-0.72 -2.78,0.92 -4.8,1.05 -2.39,0.14 -2.53,-1.52 -3.46,-3.04l-3.46 0.48c-8.44,-0.42 -8.78,1.56 -21.98,-1.29 -30.92,-6.67 -52.69,-41.26 -43.32,-73.05 3.26,-11.09 7.69,-18.72 15.47,-26.49 37,-36.98 98.93,-10.84 100.96,39.16 0.51,12.5 -1.75,14.25 -2.93,21.72zm9.34 5.32l0.71 -2.64c-2.85,0.45 -6.55,2.8 -7.65,-1.36 -0.88,-3.29 2.43,-5.64 5.46,-5.43 0.45,3.09 0.6,1.63 -1.64,2.78 -1.18,0.61 -1.92,1.13 -1.02,2.3 0.96,0.92 1.42,-0.16 4.23,-0.72 1.99,-0.39 0.39,0.53 1.98,-0.61l0.31 -0.76 0.19 -1.71c-2.27,-1.55 -0.73,-0.5 -2.41,-1.15 -1.67,-0.65 -0.76,-1.52 -0.81,-2.41 -0.06,-0.9 -0.68,-1.22 -0.89,-1.85 -0.34,-1.02 0.26,-1.77 0.83,-2.5 1.3,0.91 1.21,1.46 2.35,2.78 1.31,-0.21 0.92,-0.3 2.1,-0.78l0.79 -4.3c-0.48,-2.69 0.06,-5.85 -0.06,-8.67 -0.69,-15.79 -6.48,-30.76 -16.51,-42.43 -40.3,-46.86 -111.34,-22.68 -122.05,29.88 -8.29,40.72 17.17,73.62 48.87,82.62 18.96,5.38 39.55,2.44 54.64,-6.55 7.49,-4.45 13.22,-9.33 18.38,-15.4 6.96,-8.19 7.98,-11.3 11.69,-19.61 0.32,-0.71 0.3,-0.43 0.51,-1.48zm191.95 64.77c0.04,-0.32 0.1,-1.89 0.11,-1.92 0.42,-1.69 2.83,-1.82 2.28,1.91 -0.42,2.91 -3.77,2.41 -4.24,2.23 -0.96,-0.36 -0.73,-0.72 -0.67,-2.08l2.52 -0.14zm-131.2 -0.49c0.02,-1.77 -0.1,-1.59 0.53,-2.56 1.64,0.27 1.7,0.06 1.65,2.27 -0.06,2.98 -2.57,3.04 -3.89,2.58 -1.09,-0.39 -0.81,-0.85 -0.81,-2.16l2.52 -0.13zm130.14 -7.12l-0.41 2.25 -2.5 0.16 -0.05 2.72c-2.6,0.09 -2.19,-0.34 -2.37,-3.1 -4.34,1.26 -8.65,2.9 -12.98,4.21 -12.82,3.9 -31.29,6.59 -44.6,7.06 -16.97,0.59 -45.56,-1.85 -60.81,-7.69 -2.89,-0.54 -5.13,-1.63 -7.85,-2.41l-1.96 -0.44c-0.06,0.09 -0.13,0.23 -0.16,0.3 -0.03,0.07 -0.11,0.22 -0.15,0.3l-0.48 1.09c-2.26,-0.15 -1.7,-0.44 -2.06,-2.9 -0.72,-0.32 -2.1,-0.87 -3.11,-1.25 -0.47,-0.17 -1.46,-0.47 -1.78,-0.63 -1.58,-0.78 -0.65,-0.22 -1.37,-1.07 -2.45,0.5 -20.11,-9.44 -24.51,-11.94 -1.75,-0.98 -2.26,-0.99 -3.11,-2.42l23.67 -7c-0.2,-1.7 -1.02,-3.82 -1.53,-5.58l-1.72 -5.12c-0.03,-0.15 -0.11,-0.19 -0.19,-0.33l-43.44 12.86 12.78 43.99 11.03 -3.29 -7.29 -25.27 20.73 11.11c22.22,10.54 48.46,18.04 74.09,18.96 21.95,0.79 37.12,-0.58 56.96,-4.68 9.16,-1.9 37.83,-11.12 45.57,-16.6l-5.22 -9.88c-1.17,0.18 -13.94,5.97 -15.18,6.59zm-71.33 -402.58c-0.9,-3.75 0.42,-5.49 3.36,-4.79 1.74,0.41 1.12,-0.22 1.27,1.82 -0.09,0.06 -0.22,0.12 -0.3,0.15l-1.01 0.28c-0.02,0 -1.12,-0.03 -1.26,-0.04l-0.31 2.84 -1.75 -0.26zm-2.42 -5.98c-9.16,0.67 -19.43,9.26 -18.49,21.38 0.87,11.33 10.54,16.25 19.71,19.9 4.69,1.86 9.18,4.06 12.29,7.72 6.25,7.34 1.42,21.51 -15.4,19.41 -10.17,-1.27 -11.75,-4.06 -14.73,-4.9 -0.8,1.19 -2.65,6.44 -2.81,8.16 4.03,3.69 12.29,5.05 18.82,5.57l0.13 12.54c2.2,-0.03 5.98,0.34 7.92,-0.3l0.21 -12.78c19.79,-2.88 27.47,-27.2 8.97,-39.47 -6.77,-4.49 -17.5,-6.77 -22.13,-12.36 -2.98,-3.6 -2.9,-9.35 0.17,-12.94 3.13,-3.66 7.67,-4.17 13.83,-3.92 2.2,-0.05 4.95,0.8 6.95,1.43 0.81,0.26 2.03,0.76 3.05,1.25 1,0.48 2.03,1.27 2.5,0.95 1.07,-0.71 3.05,-6.96 3.16,-7.85 -3.16,-2.57 -10.44,-4.39 -15.27,-4.31 -1.46,-0.42 -1.08,-0.21 -1.05,-2.34l-0.12 -9.56 -6.88 -0.06c-0.76,2 0.37,11.84 -0.83,12.48zm-184.95 289.36c-2.71,0.38 -4.62,1.33 -6.72,1.79 1.05,1.12 0.61,0.48 2.59,0.87l-0.1 1.84c-1.86,0.52 -2.17,-0.29 -2.68,1.18 -0.7,1.96 1.01,1.78 -1.72,2.11 -0.46,-0.62 -0.47,-0.24 -0.59,-1.43 -0.13,-1.23 0.7,-2.52 1.04,-3.27l-1.63 0.41c-0.58,0.53 -0.89,0.8 -1.53,1.29 -1.32,1.01 -0.41,0.59 -2,1.25 -0.06,1.48 -4.52,4.11 -5.26,11.68 -2.4,24.6 29.61,19.99 34.17,35.81 1.45,5.03 -1.14,9.98 -4.42,12.25 -4.18,2.89 -9.17,3.31 -15.06,2.53 -2.07,-0.28 -4.68,-1.02 -6.7,-1.83 -1.85,-0.73 -4.64,-2.49 -6.42,-2.94l-2.91 8.4c3.02,1.35 5.11,2.73 8.75,3.73 2.86,0.79 8.52,1.15 10.41,1.83l0.15 12.27 7.77 -0.06 0 -12.87c7.9,-1.55 13.87,-5 17.31,-11.53 3.86,-7.33 2.95,-16.55 -1.91,-22.64 -9.13,-11.45 -35.31,-12.66 -29.96,-26.89 0.55,-2.66 0.96,-1.68 1.27,-5.38 1.19,-0.08 1.77,-0.1 2.43,-0.43l0.31 -2.76 1.84 0c0.01,0.02 0.2,0.7 0.23,0.75 0.43,0.92 -0.07,0.12 0.55,0.72l1.45 -0.39c1.48,-0.09 2.82,-0.44 4.43,-0.48 0.55,-0.01 1.87,0.01 2.38,0.09 0.63,0.11 0.5,0.12 0.96,0.28 0.07,0.02 0.22,0.22 0.27,0.13 0.04,-0.08 0.17,0.09 0.25,0.15 4.75,-0.78 9.71,3.4 12.24,3.27 0.85,-2.28 2.22,-5.49 2.79,-7.72 -3.38,-3.21 -10.47,-4.26 -15.91,-4.54l-0.22 -12.19 -7.67 0.03 -0.18 12.69zm344.85 53.31l-1.18 -1.9 2.07 -1.89c-0.49,-1.62 -1.07,-1.39 -1.45,-2.99l1.79 -1.04c3.74,3.01 2.54,6.9 -1.23,7.82zm-8.56 -8.58c0.51,0.27 0.5,0.02 0.76,0.41 0.89,-0.73 1.73,-1.62 3.23,-1.97l0.99 1.65c-0.7,1.11 -1.22,1.19 -2.11,2 0.46,1.72 0.99,1.43 1.55,3.24l-1.07 0.31 0.69 1.25c0.99,0.23 1.8,1.44 3.45,2.57 1.16,0.8 2.43,1.69 4.12,2.59 8.44,4.48 20.69,6.93 22.27,16.81 2.02,12.7 -13.83,17.41 -28.21,11.04 -1.41,-0.63 -3.09,-1.83 -4.67,-2.24l-2.92 8.4c2.94,1.31 5.01,2.69 8.43,3.64 3.64,1.02 6.15,1.32 10.49,1.68l0.21 12.37 7.95 0.13c-0.34,-19.31 -1.08,-10.14 8.66,-15.79 2.76,-1.6 4.56,-3.01 6.46,-5.35 3.55,-4.37 5.82,-11.41 4.02,-18.37 -1.55,-5.96 -5.36,-10.11 -10.01,-13.08 -4.25,-2.71 -14.93,-6.76 -15.48,-7.68l-0.64 -0.01c-3.5,-1.2 -3.3,2.14 -7.72,-4.18 -0.9,-1.29 -1.81,-2.54 -1.24,-4.6 1.01,-3.59 0.34,-3.85 1.42,-4.86 0.78,-7.8 14.24,-9.07 16.28,-7.38 4.78,-0.73 9.88,3.39 12.31,3.25 0.8,-2.18 2.27,-5.67 2.78,-7.72 -3.25,-2.89 -10.62,-4.32 -15.93,-4.51l-0.24 -12.21c-11,0 -7.12,-1.81 -7.8,12.41 -1.49,0.9 -5.86,1.77 -8.33,3.06 -5.02,2.62 -8.61,7.26 -9.93,12.82 -1.1,4.66 -0.14,6.34 0.23,10.32zm-30.65 42.21l-1.6 -3.24c-0.46,-1.13 -0.98,-2.57 -1.92,-3.23l0.23 1.29c-0.92,-0.99 -2.27,-3.34 -3.75,-4l-1.49 1.13c0.75,1.88 4.24,5.15 5.46,7.52 -3.22,5.32 -6.29,-2.76 -8.68,-4.76l-1.75 1.12c0.66,1.69 1.48,2.26 2.66,3.91 0.77,1.09 1.85,2.85 2.8,3.47 3.7,2.45 6.46,-2.58 8.04,-3.21zm-91.77 -391.76c0.54,0.94 2.26,1.72 3.53,2.18 -0.08,-0.11 -0.33,-0.61 -0.33,-0.68l0.13 -0.54c2.76,-1.51 6.77,-3.59 5.37,-8.16l0.3 0.16c-0.83,-1.21 -1.29,-1.01 -2.08,-2.01l-1.1 -0.14c0.09,0.14 0.54,1 0.61,1.07 -2.55,0.4 -3.42,2.18 -5.42,1.62 -0.21,-2 1.59,-3.09 3.64,-2.9l-3.72 -2.01c-0.33,2.41 -4.68,3.28 -1.39,7.5 4.21,0.81 3.96,-1.97 6.94,-1.43 0.15,2.95 -3.14,2.9 -4.3,4.75 -0.06,0.1 -0.25,0.48 -0.31,0.59l-1.87 0zm-203.6 401.49l3.46 -0.48c0.93,1.52 1.07,3.18 3.46,3.04 2.02,-0.13 3,-1.77 4.8,-1.05 0.15,1.86 -0.64,2.26 -2.17,2.97 -2.25,1.03 -2.14,0.01 -1.67,2.84 2.84,0.22 6.5,-2.8 6.59,-5.45 0.19,-5.56 -5.58,-1.9 -8.02,-1.86l-0.14 -1.31c-1.42,0.18 -2.25,0.26 -3.64,0.44 -0.55,0.07 -1.2,0.15 -1.7,0.32 -1.12,0.38 -0.42,0.07 -0.97,0.54zm40.34 -24.66c1.99,-0.52 2.02,2.88 5.85,2.3 2.33,-0.35 4.04,-2.48 3.32,-5.28 -3,-0.28 -1.58,0.24 -2.71,1.89 -0.99,1.43 -2.07,0.91 -3.21,0.11 0.44,-1.62 3.07,-3.17 4.18,-4.18 -1,-2.16 -1.98,-1.31 -2.19,-3.74 -0.07,0.09 -0.16,0.12 -0.19,0.29l-0.49 0.84c-0.27,0.51 -0.26,0.61 -0.54,1.05l-4.02 6.72zm17.2 -9.97c1.23,-0.67 1.02,-1.45 1.25,-2.71 0.34,-1.87 0.49,-1.34 0.82,-2.97 -1.59,1.14 0.01,0.22 -1.98,0.61 -2.81,0.56 -3.27,1.64 -4.23,0.72 -0.9,-1.17 -0.16,-1.69 1.02,-2.3 2.24,-1.15 2.09,0.31 1.64,-2.78 -3.03,-0.21 -6.34,2.14 -5.46,5.43 1.1,4.16 4.8,1.81 7.65,1.36l-0.71 2.64zm-11.83 0.2c1.8,1.46 5,6.46 6.81,7.18l1.28 -0.88c-0.52,-1.59 -2.67,-3.8 -3.84,-5.09 -2.43,-2.67 -2.14,-2.44 -0.1,-4.99l-1.66 -1.74c-0.92,0.42 -0.62,1.26 -1.09,2.68 -0.45,1.35 -0.87,1.64 -1.4,2.84zm-17.48 22.42c2.59,0.23 1.14,1.98 0.08,2.66 -1.39,0.89 -2.88,0.54 -2.47,-1.03 -1.07,0.56 -2.38,1.5 -2.96,2.24 1.75,0.77 2.44,3.04 5.77,1.08 1.53,-0.91 3.15,-2.6 4.04,-4.43l-1.87 -2.93c-0.71,0.96 -0.36,0.6 -1.18,1.27 -0.42,0.34 -0.3,0.19 -0.71,0.52 -0.61,0.49 -0.16,-0.04 -0.7,0.62zm31.88 -30.77c0.64,-2.47 0.78,-3.18 1.17,-5.91 -1.18,0.48 -0.79,0.57 -2.1,0.78 -1.14,-1.32 -1.05,-1.87 -2.35,-2.78 -0.57,0.73 -1.17,1.48 -0.83,2.5 0.21,0.63 0.83,0.95 0.89,1.85 0.05,0.89 -0.86,1.76 0.81,2.41 1.68,0.65 0.14,-0.4 2.41,1.15zm284.08 -5.56c-0.79,-1.1 -2.36,-1.49 -3.39,-2.23 -1.14,-0.82 -2.02,-1.59 -2.83,-2.68 -2.17,-2.95 -1.86,-4.62 -1.32,-8.73 -1.08,1.01 -0.41,1.27 -1.42,4.86 -0.57,2.06 0.34,3.31 1.24,4.6 4.42,6.32 4.22,2.98 7.72,4.18zm-120.37 -26.5c-0.44,-0.51 -0.4,-0.73 -0.56,-1.34 0.49,-1.39 4.23,-0.32 1.9,1.99 -1.23,-0.21 -0.48,0.34 -1.34,-0.65zm-2.39 -1.34c0.28,0.74 4.4,6.66 5.29,5.9 0.68,-0.58 0.43,-0.61 -1.01,-2.37 0.92,-1.46 2.86,-2.54 0.66,-4.75 -1.69,-1.71 -3.84,-0.36 -4.94,1.22zm112.59 26.04c0.38,1.6 0.96,1.37 1.45,2.99l-2.07 1.89 1.18 1.9c3.77,-0.92 4.97,-4.81 1.23,-7.82l-1.79 1.04zm-93.67 -30.09c0.03,-2.62 -2.59,-2.34 -1.61,-4.72l1.33 0.08c0.45,0.29 0.66,0.79 0.89,1.13 0.79,1.2 0.63,1.61 2.12,1.53 0.08,-1.44 -0.96,-2.61 -1.95,-3.67 -1.72,-1.83 -2.43,-0.32 -3.81,0.51 -0.97,-1.38 -0.42,-1.24 -1.95,-1.37 -0.01,1.68 1.9,3.78 3.14,5.46 0.82,1.11 0.46,1.11 1.84,1.05zm5.11 -7.61c1.24,1.79 0.19,1.93 0.19,1.93 -0.15,0.08 0.49,0.72 -1.14,0.26 -0.24,-0.07 -2.31,-1.6 -1.04,-2.81 0.87,-0.83 1.63,0.11 1.99,0.62zm-1.47 3.69c2.07,0.07 2.84,-0.83 3.48,-2.23 -0.26,-2.11 -2.13,-4.94 -4.65,-3.18 -2.51,1.76 -0.36,4.34 1.17,5.41zm-232.68 80.72l0 0.51c1.54,-0.19 0.69,0.27 1.41,-0.43 0.91,0.53 0.19,0 0.83,0.6 0.95,0.89 1.61,2.81 3.25,4.37 1.29,-0.38 1.09,-0.27 1.91,-1.29 -0.74,-2.14 -2.26,-2.69 -2.87,-5.23 -2.44,1.44 -1.69,0.86 -4.53,1.47zm220.43 -72.04c-1.65,0.11 -1.45,-0.29 -2.29,-1.47 -1.01,-1.42 -0.82,-1.59 -2.3,-1.55 0.19,1.37 0.78,1.81 1.5,2.74 1.87,2.38 2.22,2.37 3.84,0.99 0.55,-0.47 0.03,-0.11 0.65,-0.53 0.22,-0.15 0.47,-0.2 0.92,-0.5 -0.17,-0.63 -2.15,-4.66 -4.18,-4.68 0.27,2.83 2.45,2.02 1.86,5zm-251.82 -17.7l1.63 -0.41c-0.34,0.75 -1.17,2.04 -1.04,3.27 0.12,1.19 0.13,0.81 0.59,1.43 2.73,-0.33 1.02,-0.15 1.72,-2.11 0.51,-1.47 0.82,-0.66 2.68,-1.18l0.1 -1.84c-1.98,-0.39 -1.54,0.25 -2.59,-0.87 -0.98,0.26 -0.3,-0.11 -1.49,0.54 -0.57,0.3 -1.03,0.64 -1.6,1.17zm346.1 41.23l-0.15 0.86c1.38,1.03 0.79,0.69 1.77,2.33 0.44,0.73 1.07,1.75 1.73,2.45l1.07 -0.31c-0.56,-1.81 -1.09,-1.52 -1.55,-3.24 0.89,-0.81 1.41,-0.89 2.11,-2l-0.99 -1.65c-1.5,0.35 -2.34,1.24 -3.23,1.97 -0.26,-0.39 -0.25,-0.14 -0.76,-0.41zm-289.39 31.83c1.63,0.43 0.7,0.25 1.94,1.04 2.13,1.36 3.84,0.6 5.22,-1.03l-1.07 -1.56c-2.09,0.29 -2.77,1.34 -3.89,-0.79l-2.2 2.34zm212.86 50.25l-2.52 0.14c-0.06,1.36 -0.29,1.72 0.67,2.08 0.47,0.18 3.82,0.68 4.24,-2.23 0.55,-3.73 -1.86,-3.6 -2.28,-1.91 -0.01,0.03 -0.07,1.6 -0.11,1.92zm-131.45 -116.61l-2.66 0.14 -0.19 1.99c1.78,0.26 5.85,0.78 5.36,-3.2 -0.22,-1.78 -0.04,-0.71 -0.55,-1.41 -2.86,-0.02 -1.02,0.08 -1.96,2.48zm-5.5 -2.75l1.57 0.1c0.07,-0.09 0.15,-0.34 0.17,-0.29l0.5 -2.19c1.24,-0.43 1.88,0.02 2.85,-0.67 0.04,-1.87 0.52,-1.34 -0.96,-1.81 -0.55,-0.17 -2.02,-0.06 -2.62,0.19 -1.55,0.64 -1.84,2.46 -1.51,4.67zm64.56 -290.83l1.75 0.26 0.31 -2.84c0.14,0.01 1.24,0.04 1.26,0.04l1.01 -0.28c0.08,-0.03 0.21,-0.09 0.3,-0.15 -0.15,-2.04 0.47,-1.41 -1.27,-1.82 -2.94,-0.7 -4.26,1.04 -3.36,4.79zm-144.94 364.76c1.73,0.09 4.67,3.07 6.68,-0.86 -1.63,-2.44 -0.88,-0.86 -3.66,-0.78l-0.57 -0.85c-0.09,0.07 -0.2,0.17 -0.26,0.22 -0.05,0.06 -0.18,0.16 -0.24,0.22l-1.42 1.3c-0.49,0.52 -0.09,-0.01 -0.53,0.75zm210.5 -189.05l1.94 0.1 0.25 -2.83 2.61 -0.56 -0.01 -1.57c-3.93,-0.51 -5.79,0.68 -4.79,4.86zm-10.26 122.66c-0.19,4.78 5.19,5.22 5.42,2.72 0.24,-2.56 0.02,-0.6 -0.5,-1.39 -1.02,0.75 -0.35,0.79 -1.57,1.59 -1.47,-0.59 -1.87,-1.19 -1.93,-2.93l2.25 -0.21c-0.57,-2.42 -2.35,-1.47 -3.67,0.22zm-114.91 -120.99l-2.39 0.4c-0.07,0.02 -0.2,0.07 -0.3,0.13 0.1,1.98 -0.46,1.33 1.05,1.8 2.05,0.66 5.06,-0.3 3.67,-4.77l-1.87 0.69 -0.16 1.75zm0.8 232.32l-2.52 0.13c0,1.31 -0.28,1.77 0.81,2.16 1.32,0.46 3.83,0.4 3.89,-2.58 0.05,-2.21 -0.01,-2 -1.65,-2.27 -0.63,0.97 -0.51,0.79 -0.53,2.56zm130.22 -231.57c-2.29,0.93 -2.81,-0.85 -2.53,2.14 2.64,1.25 5.44,-0.57 4.9,-3.52 -0.36,-1.98 0.07,-0.47 -0.61,-1.31l-1.65 1.3c-0.03,0.14 -0.07,1.07 -0.11,1.39zm-137.01 -7.72c-0.13,3.12 -1.05,4.36 2.15,4.21l-0.01 -2.69 2.71 0.07 -0.21 -2.75c-1.14,0.6 -0.24,-0.07 -1.17,0.9 -0.87,0.92 -0.27,0.3 -0.72,0.98l-2.75 -0.72zm-92.73 203.7l1.1 -0.02 2.52 3.54 2.02 -1.62 -2.37 -3.71c-0.88,0.41 -0.95,0.48 -1.89,0.9 -1.74,0.77 -0.62,-0.31 -1.38,0.91zm224.33 30.5c0.18,2.76 -0.23,3.19 2.37,3.1l0.05 -2.72 2.5 -0.16 0.41 -2.25 -5.33 2.03zm6.58 -116.91c-1.27,-1.46 -0.62,-0.13 -0.78,-1.54 -1.48,0.71 -0.36,0.36 -2.86,2.01 0.19,1.08 2.16,3.8 2.5,4.13 1.01,1 1.92,0.6 1.37,-0.61 -0.72,-1.58 -1.94,-1.15 -1.57,-3.9l1.34 -0.09zm-40.26 -318.33l-1.17 -0.21c-2.05,-0.19 -3.85,0.9 -3.64,2.9 2,0.56 2.87,-1.22 5.42,-1.62 -0.07,-0.07 -0.52,-0.93 -0.61,-1.07zm-182.02 398.91c-0.32,0.9 -0.46,0.91 -1.54,0.95l-0.02 0.44c-0.41,1.57 1.08,1.92 2.47,1.03 1.06,-0.68 2.51,-2.43 -0.08,-2.66l-0.83 0.24zm218.25 -74.14c0,0 1.05,-0.14 -0.19,-1.93 -0.36,-0.51 -1.12,-1.45 -1.99,-0.62 -1.27,1.21 0.8,2.74 1.04,2.81 1.63,0.46 0.99,-0.18 1.14,-0.26zm-128.79 111.64c-1.55,-1.41 -2.82,-0.74 -4.81,-1.65 0.36,2.46 -0.2,2.75 2.06,2.9l0.48 -1.09c0.04,-0.08 0.12,-0.23 0.15,-0.3 0.03,-0.07 0.1,-0.21 0.16,-0.3l1.96 0.44zm-130.85 -112.43c1.18,-0.42 0.91,-0.38 2.34,-0.65 1.13,-0.21 1.74,-0.1 2.04,-1.03l-1.45 0.39c-0.62,-0.6 -0.12,0.2 -0.55,-0.72 -0.03,-0.05 -0.22,-0.73 -0.23,-0.75l-1.84 0 -0.31 2.76zm237.25 10.52c0.16,0.61 0.12,0.83 0.56,1.34 0.86,0.99 0.11,0.44 1.34,0.65 2.33,-2.31 -1.41,-3.38 -1.9,-1.99z"/>
 </g>
</svg>
