<svg width="44" height="55" viewBox="0 0 44 55" fill="none" xmlns="http://www.w3.org/2000/svg">
<path fill-rule="evenodd" clip-rule="evenodd" d="M11.0909 46.4364C11.2728 47.6045 10.6692 51.7467 11.1488 52.766C11.6507 53.8325 14.5905 54.3026 15.9866 54.5424C19.9681 55.225 24.1161 55.1246 28.0646 54.3699C29.4973 54.0947 32.4713 53.7061 32.8351 52.5061C33.1162 51.5778 32.8871 47.1285 32.6685 46.1175C32.2764 44.314 31.426 42.7714 30.5296 41.6269C29.0886 39.7844 27.278 39.0061 26.9874 38.6624L26.4689 38.5537C25.5193 39.5222 23.7169 40.258 21.8661 40.2344C19.0964 40.199 18.0677 38.8502 17.2445 38.5797C14.7901 39.9002 13.1378 41.3801 12.0275 43.8214L11.346 45.7608C11.3118 45.8837 11.2728 46.0337 11.2255 46.16C11.1051 46.4813 11.1759 46.31 11.0909 46.4364ZM10.8346 43.8368C11.2114 42.4466 12.4362 41.0305 13.1413 40.1919C14.2421 38.8832 15.6559 38.3257 16.4012 37.675C16.133 37.2498 15.9134 37.0065 15.7185 36.4856C15.1834 36.025 14.8137 34.2887 14.7866 33.3072C14.7452 31.7564 15.1019 31.2155 15.4456 29.9836C14.1677 30.7726 13.0763 31.506 11 31.5049C9.78459 31.5037 7.39285 30.9497 6.61686 29.8808C5.13575 29.7273 0.119591 33.7218 0.0499053 39.671C-0.00560679 44.4758 -0.437892 44.4439 2.74755 45.2943C4.53221 45.7714 8.14522 46.414 10.0598 46.2285C10.2771 45.4148 10.4933 44.3978 10.8346 43.8368ZM36.3524 30.6332C34.9953 31.2769 33.7422 31.6678 31.9835 31.4399C31.243 31.3442 30.5567 31.1293 29.9366 30.8541C29.4288 30.6297 28.6398 29.9753 28.3221 30.045C28.7449 30.482 28.902 31.3159 29 31.9076C29.4382 34.5368 28.6008 35.8112 27.5792 37.5143L27.4929 37.675C27.839 37.9324 28.0658 37.9809 28.3906 38.3387C29.2811 38.4982 31.217 40.6171 31.8122 41.4687C32.6981 42.736 33.5697 44.3907 33.8201 46.2309C35.5575 46.147 41.5895 45.423 43.1225 44.5679C44.1028 44.0199 43.8773 42.8624 43.8773 41.6718C43.8761 38.1356 43.7662 35.9187 41.6095 33.0462C41.0343 32.2808 40.9505 32.3576 40.3505 31.6785L39.9158 31.193C39.1599 30.9344 38.5009 30.0521 37.4627 29.8159C37.0729 30.1844 36.865 30.3048 36.3524 30.6332ZM18.7043 8.57011C19.0646 6.68506 20.3047 5.28663 21.4965 4.45513C23.1039 3.33308 24.4185 3.1004 26.6827 2.89135C26.7087 2.3941 25.9599 2.02323 25.5595 1.75512C23.9862 0.701574 21.9571 0.135824 19.9929 0.0153512C12.7657 -0.338981 6.41607 5.49569 11.1287 11.8158C11.6862 12.5634 12.187 12.7725 13.0055 13.4422C12.8507 14.5146 11.287 16.4646 11.7618 16.8296C12.1232 16.956 15.1941 15.3402 15.8496 15.0367C16.8618 14.5701 19.759 15.6579 21.2165 14.967C21.0087 14.4508 19.9776 14.028 19.1756 12.3886C18.748 11.5158 18.2791 9.6083 18.7043 8.57011ZM35.6071 29.673C37.5831 28.8934 39.4516 26.217 38.8138 23.1131C37.9776 19.0371 34.1934 18.58 33.7327 18.2788L32.0095 18.2847C31.98 18.3036 31.9327 18.2906 31.9162 18.332L30.767 18.7182C30.3843 18.8635 29.9768 19.0666 29.6768 19.2544C24.6937 22.3725 26.8303 30.4324 32.9839 30.3722C33.7339 30.3651 35.2115 30.1336 35.6071 29.673ZM6.56962 28.5485C7.35742 28.9348 8.809 30.8954 12.2011 30.2517C17.3354 29.2773 18.8449 22.3619 14.3531 19.3324C12.9322 18.3733 12.1692 18.6131 11.6685 18.2682C9.62632 18.6024 7.3645 18.3709 5.64954 21.5824C4.74953 23.2678 4.75307 25.3489 5.66607 27.1442C5.8208 27.4478 5.88576 27.5753 6.09481 27.8422C6.4208 28.2604 6.47985 28.1635 6.56962 28.5485ZM16.4212 35.6021C16.5063 35.6895 16.7697 36.2104 16.9504 36.4714C19.6457 40.3632 25.5453 39.7738 27.415 35.6033C28.2347 33.7761 27.9973 32.399 27.4705 30.5564C27.2827 30.4147 27.0949 29.9115 26.9012 29.6411C25.2051 27.2741 22.1602 26.3659 19.5063 27.567C18.1279 28.1918 17.0519 29.2348 16.4342 30.6178C15.6027 32.484 15.8791 33.723 16.4212 35.6021ZM22.5039 11.315C22.7555 11.0504 25.8654 11.1709 26.4878 11.1709C27.2839 11.1709 29.8859 10.9855 30.4374 11.3658L30.4563 11.6977C30.1835 11.9221 30.2284 11.8949 29.7359 11.8949H23.2409C22.6917 11.8949 22.5181 11.8666 22.5039 11.315ZM30.4304 9.76775C30.2355 9.90712 30.0937 9.96264 29.7359 9.96264C28.6386 9.96264 23.1205 10.1339 22.5098 9.82327C22.485 8.97877 23.2906 9.2398 24.115 9.24216C25.4366 9.24807 29.9874 9.04846 30.4634 9.43704L30.4304 9.76775ZM22.511 7.43979C22.6551 7.29452 22.961 7.30042 23.2409 7.30042C24.6677 7.30042 29.8693 7.09018 30.4339 7.49767L30.4587 7.82838C29.9461 8.23822 25.3764 8.02326 23.9898 8.03153C23.1654 8.03743 22.511 8.27247 22.511 7.43979ZM20.0224 10.8189C20.2917 11.328 20.3177 11.7012 20.6697 12.2658C21.9252 14.2819 24.6299 15.3544 27.1197 15.1843C28.3859 15.0981 28.9528 15.5186 30.5118 16.2922C31.0741 16.5709 31.8441 17.1107 32.1111 16.7942C32.3036 16.3831 31.1638 14.5725 30.9642 13.9418C32.2079 12.6886 33.7575 11.4107 33.1847 8.74846C32.5764 5.92325 29.9248 5.14136 29.7359 4.85907C27.0606 4.1008 25.1319 3.93545 22.7095 5.29254C20.9791 6.26223 19.6787 7.97129 20.0224 10.8189Z" fill="#A6A182"/>
</svg>
