<?xml version="1.0" encoding="UTF-8"?>
<!DOCTYPE svg PUBLIC "-//W3C//DTD SVG 1.1//EN" "http://www.w3.org/Graphics/SVG/1.1/DTD/svg11.dtd">
<!-- Creator: CorelDRAW 2019 (64-Bit) -->
<svg xmlns="http://www.w3.org/2000/svg" xml:space="preserve" width="100%" height="100%" version="1.1" style="shape-rendering:geometricPrecision; text-rendering:geometricPrecision; image-rendering:optimizeQuality; fill-rule:evenodd; clip-rule:evenodd"
viewBox="0 0 499.32 465.67"
 xmlns:xlink="http://www.w3.org/1999/xlink">
 <defs>
  <style type="text/css">
   <![CDATA[
    .fil0 {fill:#A6A182}
   ]]>
  </style>
 </defs>
 <g id="Layer_x0020_1">
  <metadata id="CorelCorpID_0Corel-Layer"/>
  <path class="fil0" d="M117.44 190.05l0.27 -174.17 65.02 -0.18c0.85,23.88 -2.43,152.37 1.41,161.72 4.69,4.72 8.12,3.02 13.21,1.2l0.59 -2.18 0.04 -102.08 65.01 -0.07c-0.09,16.14 -1.19,170.02 0.75,174.59 2.32,5.46 10.12,6.07 13.17,1.1 2.64,-4.31 1.1,-105.86 1.37,-116.33l64.82 -1.44c8.26,4.38 1.32,1.33 4.22,-0.7 -0.12,-5.21 0.01,-3.15 1.48,-5.85l-1.59 38.07c-0.35,13.44 0.95,11.52 4.51,13.15 3.11,-2.13 3.53,-2.68 3.44,-11.65 -0.05,-4.47 -0.21,-8.78 -0.49,-13.23l-0.03 -26.94c-0.22,-0.19 -1.36,-5.28 -2.92,-1.64 2.89,-8.52 -1.2,-0.37 2.34,-4 -5.04,-4.13 -61.54,-1.3 -74.58,-1.86 -6.09,-14.74 3.57,-42.99 -4.07,-57.38 -16.97,-3.58 -56.83,-0.47 -77.31,-1.13 -1.03,-62.6 5.31,-58.6 -22.02,-58.56 -8.3,0.01 -16.59,0 -24.89,0 -12.83,0 -42.77,-2.48 -46.9,3.69 -3.38,5.05 -2.71,182.46 -0.39,186.18 5.57,6.35 7.63,4.51 13.54,-0.31zm65.01 117.17c0.79,7.52 19.02,32.45 23.01,43.84 2.87,1.93 29.43,47.91 30.05,52.63 4.84,3.66 9.21,13.62 12.34,19.02 19.92,34.31 -15.46,27.34 -48.36,27.34 -18.72,0 -106.02,-2.35 -116.35,0.74 -4.9,0.99 -5.64,2.67 -9.94,-3.14 -3.3,-4.47 -3.09,-19.2 -9.4,-19.01 -6.9,16.51 1.59,13.83 1.36,17.11 -0.17,2.27 -0.73,3.18 -1.4,5.33l2.17 6.3c6.65,2.5 7.38,6.8 19.45,7.67 18.08,1.31 108.64,0.11 133.14,0.11 49.29,0 31.65,-4.91 43.51,-8.08 10.19,-21.98 8.19,-25.23 -3.67,-46.29 -7.92,-14.05 -15.61,-26.98 -23.56,-40.79 -15.2,-26.42 -32.02,-53.39 -46.26,-80.2 -1.5,3.2 0.58,1.72 -3.68,4.19 0.09,0.43 0.34,1 0.43,1.25 0.08,0.23 0.31,0.86 0.39,1.12 0.1,0.31 0.45,1.32 0.51,1.58l0.24 5.08c1.29,8.1 0.83,-0.69 0.73,3.45 -0.16,-0.46 -0.61,-2.12 -0.84,-2.54 -0.2,-0.39 -0.35,-0.81 -0.61,-1.21 -7.57,-12.19 5.97,2.86 -4.28,-4.34 2.41,7.13 2.18,2.52 1.02,8.84zm212.28 3.14c0.06,0.73 0.56,4.05 0.55,4.5l-0.13 2.57c-1.88,7.45 -0.03,3.07 -3.59,3.1 -8.3,0.08 -1.35,-4.74 -10.32,-5.4 3.03,6.31 6.29,7.83 11.19,12.82 10.08,10.28 11.43,9.58 25.08,-4.77 4.5,-4.73 5.27,-7.09 11.78,-9.98 4.13,6.62 23.52,59.34 24.1,66.15 2.95,3.14 23.7,61.02 24.07,65.06 -8.25,-0.66 -13.85,-5.44 -24.01,-7.36l2.63 5.32c0.22,0.28 0.72,0.6 1.09,0.89 -12.64,0.04 -9.26,-0.05 -14.7,-5.83 -3.21,1.77 -0.67,0.09 -3.28,2.48 -2.28,2.08 0.38,0.07 -2.58,2.67 -6.48,-4.45 -13.06,-7.57 -21.04,-5.53 6,5.37 34.69,13.67 43,17.79l4.38 0.39 -2.54 -1.23c-5.06,-2.45 -4.63,-1.68 -8.83,-6.87 1.33,-0.13 7.74,0.1 7.81,0.08 8.93,-1.64 -4.16,2.36 3.55,-1.31 0.55,-0.27 0.85,-0.5 1.36,-0.77l3.04 -1.79 5.5 6.1c24.05,-9 1.46,-1.47 11.07,-11.99 6.18,0.66 2.14,-2.37 5.79,6.21 2.15,5.07 2.49,5.94 7.02,8.39l-35.94 -100.98c-2.46,-1.48 -5.43,-12.43 -6.63,-16.04 -2.11,-6.34 -5.97,-12.24 -5.34,-18.51l-2.09 0.44c-2.49,-1.44 -1.99,-1.46 -3.89,-3.45 -0.25,-0.26 -1.02,-0.83 -1.14,-1.43 -0.07,-0.33 -0.27,-0.43 -0.46,-0.59 3.03,9.02 1.79,3.53 -3.13,5.19 -2.25,-3.4 -2.62,-5.26 -2.86,-11.12 -4.87,-0.48 -15.27,9.94 -13.27,-3.05l-4.27 0.25c-5.24,1.18 -9.51,9.01 -14.75,12.77 -5.12,-1.62 -2.94,-2.32 -8.22,-5.17zm-266.13 -66.34c2.16,10.3 6.31,-0.41 4.94,12.15 -12.27,0.98 -5,-4.5 -13.08,-9.02 -0.45,0.59 -8.06,0.09 0.9,10.07 3.11,7.11 8.89,9.35 15.94,2.4 2.86,-2.83 10.92,-10.6 12.39,-13.23l1.03 -7.91 7.9 -1.58c6.67,-1.87 11.51,-14.12 20.38,-16.58l59.28 58.28c3.57,3.52 5.93,6.07 9.44,9.6l10.42 9.36 5.65 2.47 3.72 -0.38c-0.32,0.59 -0.45,0.88 -0.73,1.44l-1.41 3.13c5.23,-0.98 7.89,-2.05 11.04,-5.45 2.68,-2.89 5,-6.49 2.24,-10.46 -3.9,-5.59 -8.45,5.01 -13.19,1.81 -4.79,-3.23 -1.82,-3.96 -1.98,-5.54 -1.27,-5.83 -8.09,-7.29 -11.24,-14.88 -5.9,-2.07 -21.15,-19.88 -27.42,-25.93 -3.79,-3.66 -25.16,-23.55 -25.33,-26.89l-7.02 -5.31c-8.87,-8.68 -8.79,-11.5 -19.31,-10.34l0.4 -0.92c-5.3,8.5 -14.74,16.72 -21.99,23.83 -4.95,4.85 -16.93,19.33 -22.97,19.88zm295.43 -53.8c-2.05,11.35 -0.59,32.63 -0.59,45.21 0,7.83 -0.02,15.66 -0.06,23.49 -0.07,11.41 -0.62,13.79 10.3,14.45 6.71,-5.79 4.95,-8.64 4.87,-18.9 -0.06,-8.29 -0.01,-16.6 -0.01,-24.89 0,-10.42 1.23,-40.56 -0.56,-48.31l-1.54 0.37c-2.78,0.06 -6.92,-7.33 -21.26,-2.01 -9.06,3.36 -18.27,1.56 -31.29,1.66 -11.03,0.1 -11.69,2.15 -16.08,-4.4 -7.84,2.71 -8.35,-1.71 -11.69,2.92 1.98,4.32 -3.79,-2.15 2.07,2.32 4.17,3.18 4.88,1.58 7.79,2.93 1.46,0.67 0.68,4.49 1.5,1.45 0.05,-0.19 0.19,0.44 0.34,0.62 5.53,2.98 48.67,-0.7 49.9,-0.66l2.51 0.32c5.18,1.71 1.44,0.26 3.8,3.43zm-80.93 -58.01c0.35,20.93 2.6,78.96 -0.71,96.1 20.98,20.16 16.02,-20.28 16,-38.09l65.64 0c-2.36,-3.17 1.38,-1.72 -3.8,-3.43l-2.51 -0.32c-1.23,-0.04 -44.37,3.64 -49.9,0.66 -0.15,-0.18 -0.29,-0.81 -0.34,-0.62 -0.82,3.04 -0.04,-0.78 -1.5,-1.45 -2.91,-1.35 -3.62,0.25 -7.79,-2.93 -5.86,-4.47 -0.09,2 -2.07,-2.32 3.34,-4.63 3.85,-0.21 11.69,-2.92 4.39,6.55 5.05,4.5 16.08,4.4 13.02,-0.1 22.23,1.7 31.29,-1.66 14.34,-5.32 18.48,2.07 21.26,2.01l1.54 -0.37c-1.9,-4.77 -1.23,-2.57 -2.84,-5.71l-76.17 -0.47c-1.55,-9.19 -0.61,-20.86 -0.61,-30.41 0,-13.89 2.41,-22.98 -4.3,-25.26 -3.54,3.63 0.55,-4.52 -2.34,4 1.56,-3.64 2.7,1.45 2.92,1.64l0.03 26.94c0.28,4.45 0.44,8.76 0.49,13.23 0.09,8.97 -0.33,9.52 -3.44,11.65 -3.56,-1.63 -4.86,0.29 -4.51,-13.15l1.59 -38.07c-1.47,2.7 -1.6,0.64 -1.48,5.85 -2.9,2.03 4.04,5.08 -4.22,0.7zm-13.66 270.09c-0.22,-3.94 1.17,-4.24 1.78,-8.95 11.07,-1 9.55,6.02 9.96,7.47 -3.68,1.46 -7.84,3.77 -11.74,1.48zm-1.13 -52.66l16.2 14.47c4.42,4.91 1.87,0.27 3.54,5.98l-23.53 23.28c-1.96,6.57 -1.92,11.03 6.95,14.54 6.59,2.6 12.21,4.46 19.35,6.96 10.69,3.75 28.18,11.91 38.95,13.8 -1.95,-3.88 0.03,-1.66 -2.85,-4.2 -6.09,-5.37 -9.47,1.05 -13.24,-7.54 2.46,-2.03 -4.81,-5.94 16.05,-0.4 5.94,1.58 8.7,2.9 14.77,3.32 -0.33,-0.36 -1.69,-1.96 -1.96,-2.28 -0.28,-0.33 -0.76,-0.42 -0.96,-1.17 -0.22,-0.76 -0.63,-0.8 -0.96,-1.19 -3.71,0.66 -29.34,-7.19 -34.27,-11.36l-20.5 -7.41c1.36,-4.65 -0.13,-0.83 1.83,-4.03 0.23,-0.37 1.17,-1.57 1.36,-1.84l1.37 -2.15c-9.52,-0.19 -2.24,-2.7 -7.47,4.19 -3.67,-3.9 -1.11,-0.88 -3.44,-2.57l-2.46 -1.78c-0.12,-0.41 -0.57,-0.35 -0.78,-0.6 2.96,-1.27 1.81,-1 5.17,-4.43 10.07,-10.28 9.69,-3.9 10.06,-14.54 0.02,-0.45 0.12,-1.98 0.13,-2.74 0.01,-0.73 0,-0.94 0.1,-1.39 7.7,2.77 2.74,1.4 4.31,4.12l1.54 4.27c1.74,-4.94 1.18,-5.56 0.03,-11.47l6.15 1.91c-2.21,-4.94 -2.32,-4.26 -6.2,-7.95l-12.3 -12.5c-3.7,-3.82 -2.48,-3.3 -7.26,-5.48 5.06,14.5 -3.72,8.19 -9.68,12.18zm-29.29 -8.81c-2.97,5.36 -5.46,6.94 -10.21,11.7 -4.02,4.03 -6.47,7.26 -11.73,10.26 -0.38,2.09 0.79,1.13 -1.5,1.46 -2.28,4.57 -0.22,0.52 -2.01,3.64 -1.03,1.8 -0.38,0.43 -1.42,2.41 -2.84,8.98 -1.47,9.83 7.84,11.39l0.68 -0.8c2.56,-2.04 3.23,-2.87 5.28,-4.75 3.52,-3.23 2.24,-2.63 6.54,-4.6 1.2,-3.15 0.15,-1.67 3.27,-4.67 0.7,-0.68 1.66,-1.39 2.35,-1.89 1.99,-1.46 0.84,-0.7 2.47,-1.51 4.47,-9.14 13.2,-13.48 19.79,-21.59 3.25,1.62 7,3.44 7.94,7.76 5.96,-3.99 14.74,2.32 9.68,-12.18 -0.08,-0.28 -0.3,-1 -0.36,-0.8 0,0.01 -10.5,-15.44 -18.11,-13.55 -6.69,3.77 -15.19,16.04 -20.5,17.72zm28.56 -79.04l5.97 8.35c4.04,1.94 0.66,-0.35 4.25,2.68l6.98 8.6c1.56,0.68 0.52,-0.1 2.98,1.96l9.21 10.18c3.97,1.91 0.84,-0.11 3.42,1.94l7.8 9.34c5.14,2.21 7.19,8.41 13.05,10.29 8.97,0.66 2.02,5.48 10.32,5.4 3.56,-0.03 1.71,4.35 3.59,-3.1l0.13 -2.57c0.01,-0.45 -0.49,-3.77 -0.55,-4.5 -4.27,-9.29 -18.43,-17.89 -23.91,-26.62 -2.62,-0.77 -2.27,-1.07 -5.03,-3.77 -1.42,-1.4 -0.59,-0.86 -2.17,-2.2 -2.78,-2.36 -0.67,-1.12 -3.12,-2.02l-5.64 -0.78 -1.67 -6.14c-0.53,-3.13 -2.28,-5.19 -5.75,-5.59l-9.4 -0.5 -1.12 -7.98c-4.95,-2.21 -2.09,-0.46 -4.08,-1.16 -7.1,-2.51 -1.8,-3.22 -9,-4.89 -0.33,-0.08 -0.94,-0.19 -1.39,-0.1 -0.02,0.07 -4.83,1.24 0.45,5.97 2.05,1.84 3.29,1.22 5.39,1.35l-0.71 5.86zm-8.06 -12.74c-3.67,-5.45 -0.79,-7.13 5.04,-4.83 -1.54,5.13 1.27,0.44 -1.48,3.53l-3.56 1.3zm-56.04 35.53c0.16,1.58 -2.81,2.31 1.98,5.54 4.74,3.2 9.29,-7.4 13.19,-1.81 2.76,3.97 0.44,7.57 -2.24,10.46 -3.15,3.4 -5.81,4.47 -11.04,5.45l1.41 -3.13c0.28,-0.56 0.41,-0.85 0.73,-1.44l-3.72 0.38 -5.65 -2.47c10.69,18.69 20.88,2.32 37.36,-14.4 9.17,-9.3 17.48,-17.01 25.45,-25.38 3.25,1.93 2.93,2.21 6.63,4.01l0.71 -5.86c-2.1,-0.13 -3.34,0.49 -5.39,-1.35 -5.28,-4.73 -0.47,-5.9 -0.45,-5.97 0.45,-0.09 1.06,0.02 1.39,0.1 7.2,1.67 1.9,2.38 9,4.89 1.99,0.7 -0.87,-1.05 4.08,1.16l1.12 7.98 9.4 0.5c-1.7,-3.51 -0.96,-1.56 -0.96,-4.27 -8.49,-4.06 -11.11,-12.7 -19.61,-17.89 -9.37,-5.73 -17.19,6.16 -21.75,10.69 -12.11,12.04 -24.79,24.53 -35.37,35.69 -3.46,-1.2 -2.22,-1.15 -6.27,-2.88zm-149.24 50.38l-22.46 36.11 -10.88 20.44c2.9,1.49 3.89,-3.94 1.91,3.47 -1.81,0.97 -3.41,-0.95 -3.99,6.03 -0.64,7.75 -0.21,1.4 0.66,4.21l4.8 -1.37c2.73,-2.22 0.96,-8.26 11.48,-9.63 3.48,-2.52 28.65,-46.67 32.05,-54.27 -7.84,-1.12 2.54,-2.24 2.58,-13.66 0.03,-8.18 -3.78,-4.16 -3.79,-4.16 -7.53,3.66 0.53,12.83 -12.36,12.83zm39.3 -47.2l4.13 -8.15c6.27,0.16 12.88,0.39 17.77,3.23 6.39,3.7 3.98,3.43 9.2,8.21l-5.63 7.31c-3.24,-9.68 4.22,-4.5 -8.8,-10.08 -9.21,-3.96 -8.42,-3.4 -16.67,-0.52zm-35.32 36.53c-0.5,4.98 -1.94,5.18 -3.98,10.67 12.89,0 4.83,-9.17 12.36,-12.83 0.01,0 3.82,-4.02 3.79,4.16 -0.04,11.42 -10.42,12.54 -2.58,13.66 8.08,-11.79 14.8,-25.76 21.66,-37.41 11.64,-19.76 24.78,-13.62 31.09,5.38l1.89 -0.7c1.16,-6.32 1.39,-1.71 -1.02,-8.84 10.25,7.2 -3.29,-7.85 4.28,4.34 0.26,0.4 0.41,0.82 0.61,1.21 0.23,0.42 0.68,2.08 0.84,2.54 0.1,-4.14 0.56,4.65 -0.73,-3.45l-0.24 -5.08c-0.06,-0.26 -0.41,-1.27 -0.51,-1.58 -0.08,-0.26 -0.31,-0.89 -0.39,-1.12 -0.09,-0.25 -0.34,-0.82 -0.43,-1.25 4.26,-2.47 2.18,-0.99 3.68,-4.19 -9.18,-14.06 -29.98,-21.16 -44.66,-6.06 -7.31,7.51 -18.28,34.61 -25.66,40.55zm-85.59 -72.36c0.24,3.95 6.54,8.07 8.54,9.05l7.93 0.56 0.43 7.75c2.13,4.47 10.63,12.95 15.06,15.11l7.92 0.56 0.33 6.93c11.1,2.36 7.79,14.77 25.64,15.26 -0.56,-4.12 -0.79,-5.66 -3.37,-8.43 -1.22,-1.31 -3.7,-3.06 -5.39,-4.81 -0.3,0.15 -0.8,0.11 -0.89,0.48 -0.9,3.38 -3.23,-0.48 -3.19,-0.69l1.42 -3.94c-4.91,-1.69 -4.68,-1.34 -5.58,-7.22 -3,-6.23 -9.3,-10.21 -13.99,-14.67 -3.98,-3.79 -10.14,-12.45 -14.42,-13.42 -21.75,-6.73 -5.94,-4.81 -20.44,-11.2 2.66,-3.07 4.72,3.1 1.58,-4.33 -1.56,-3.68 -4.5,-3.74 -7.42,-4.94 0.14,10.24 -2.02,8.42 5.84,11.71l0 6.24zm31.34 -52.65c0.08,0.27 0.18,0.45 0.23,0.83 0.37,2.63 2.65,2.01 5.45,8.12 1.75,0.62 0.2,-0.44 3.09,1.79l7.62 8.87c3.37,1.66 1.12,0.01 4.32,2.58 2.23,1.81 1.24,1.23 2.91,2.92l5.48 7.26c2.29,0.12 0.19,-0.46 2.63,0.03l5.19 -0.07c1.06,-2.3 1.44,-2.92 2.16,-4.63 2.32,-5.46 -0.51,-0.55 2.02,-4.77 -1.05,-4.47 -15.22,-16.69 -19.36,-20.83 -2.79,-2.8 -16.24,-18.76 -20.41,-18.65 -4.04,0.97 -5.78,1.12 -10.7,1.48 4.5,15.42 8.85,7.52 9.5,7.31l-0.13 7.76zm325.8 229.39c4.05,3.03 21.33,8.87 25.8,8.38 7.98,-2.04 14.56,1.08 21.04,5.53 2.96,-2.6 0.3,-0.59 2.58,-2.67 2.61,-2.39 0.07,-0.71 3.28,-2.48 5.44,5.78 2.06,5.87 14.7,5.83 -0.37,-0.29 -0.87,-0.61 -1.09,-0.89l-2.63 -5.32c-2.37,-1.82 -44.32,-17.96 -48.95,-17.2 -6.07,-0.42 -8.83,-1.74 -14.77,-3.32 -20.86,-5.54 -13.59,-1.63 -16.05,0.4 3.77,8.59 7.15,2.17 13.24,7.54 2.88,2.54 0.9,0.32 2.85,4.2zm-357.14 -176.74l0 -6.24c-7.86,-3.29 -5.7,-1.47 -5.84,-11.71 2.92,1.2 5.86,1.26 7.42,4.94 3.14,7.43 1.08,1.26 -1.58,4.33 14.5,6.39 -1.31,4.47 20.44,11.2 -2.58,-4.2 -3.87,-5.52 -7.4,-8.64 -1.94,-1.72 -1.92,-1.42 -3.82,-3.39 -3.84,-3.99 -2.07,-1.74 -4.05,-6.03 -1.9,-0.65 0.38,1.78 -2.92,-1.77 -2.35,-2.53 -1.05,-0.27 -1.69,-3.05 -15.28,-6.9 -16.29,-24.94 -31.95,-20.24 -4.3,10.63 3.41,14.65 10.52,21.54 6.25,6.07 13.52,15.24 20.87,19.06zm131.74 112.15c-3.54,-2.33 -2.75,0.25 -3.1,-10.1 -0.36,-10.8 -0.39,-7.9 3.1,-9.69 4.17,3.48 2.46,3.29 2.87,9.68 0.74,11.49 0.26,8.39 -2.87,10.11zm-7.7 23.17c1.25,0.84 2.1,1.55 3.95,3.16l9.17 0.17c2.89,-10.07 1.89,-20.64 1.8,-32.21 -0.1,-12.62 2.39,-20.91 -12.53,-18.26 -5.46,12.52 -3.02,32.56 -2.39,47.14zm306.28 67.98c2.16,2.64 16.59,7.09 21.81,8.72 11.44,3.55 18.72,-3.02 11.96,-11.9 -4.53,-2.45 -4.87,-3.32 -7.02,-8.39 -3.65,-8.58 0.39,-5.55 -5.79,-6.21 -9.61,10.52 12.98,2.99 -11.07,11.99l-5.5 -6.1 -3.04 1.79c-0.51,0.27 -0.81,0.5 -1.36,0.77 -7.71,3.67 5.38,-0.33 -3.55,1.31 -0.07,0.02 -6.48,-0.21 -7.81,-0.08 4.2,5.19 3.77,4.42 8.83,6.87l2.54 1.23zm-397.29 -39.93l0.38 0.18c-1.83,4.89 -5.78,10.97 -6.74,16.42 -1.2,6.82 -0.65,14.47 4.46,19.18 0.67,-2.15 1.23,-3.06 1.4,-5.33 0.23,-3.28 -8.26,-0.6 -1.36,-17.11 6.31,-0.19 6.1,14.54 9.4,19.01 4.3,5.81 5.04,4.13 9.94,3.14l-7.05 -6.99c-2.26,-3.39 -2.08,-6.71 -1.7,-11.25l-6.54 0.34c0.52,-3.83 -0.27,-8.86 -0.08,-9.93 1.51,-8.38 -0.16,-0.88 4.42,-6.04 1.73,-1.95 -0.13,-6.9 4.34,-7.71 5.54,-1.01 1.48,-0.08 4.4,1.87 -0.16,2.95 -6.39,9.2 -7.22,13.91 -1.93,11.09 -2.44,3.37 1.83,5.92l20.22 -36.69c-10.52,1.37 -8.75,7.41 -11.48,9.63l-4.8 1.37c-0.87,-2.81 -1.3,3.54 -0.66,-4.21 0.58,-6.98 2.18,-5.06 3.99,-6.03 1.98,-7.41 0.99,-1.98 -1.91,-3.47 -4.47,7.44 -9.13,19.23 -15.24,23.79zm30.04 -183.62c3.33,5.95 7.91,9.19 12.2,13.39 5.17,5.05 7.97,9.47 13.46,12.15 -8.96,-9.98 -1.35,-9.48 -0.9,-10.07 8.08,4.52 0.81,10 13.08,9.02 1.37,-12.56 -2.78,-1.85 -4.94,-12.15 -6.59,-6.1 -15.68,-17.98 -23.53,-21.81 -2.53,4.22 0.3,-0.69 -2.02,4.77 -0.72,1.71 -1.1,2.33 -2.16,4.63l-5.19 0.07zm254.71 156.74c5.43,-2.08 3.14,-4.07 10.72,-8.39 0.1,-0.27 0.37,-0.93 0.43,-0.74 0.07,0.2 0.37,-0.6 0.47,-0.72 2.47,-3.11 6.24,-5.14 4.85,-11.22 -0.98,-4.34 -3.12,-3.96 -3.13,-3.96l-6.15 -1.91c1.15,5.91 1.71,6.53 -0.03,11.47l-1.54 -4.27c-1.57,-2.72 3.39,-1.35 -4.31,-4.12 -0.1,0.45 -0.09,0.66 -0.1,1.39 -0.01,0.76 -0.11,2.29 -0.13,2.74 -0.37,10.64 0.01,4.26 -10.06,14.54 -3.36,3.43 -2.21,3.16 -5.17,4.43 0.21,0.25 0.66,0.19 0.78,0.6l2.46 1.78c2.33,1.69 -0.23,-1.33 3.44,2.57 5.23,-6.89 -2.05,-4.38 7.47,-4.19zm-309.33 -218.14l0.9 -0.71c-1.21,9.93 0.94,10.75 5.83,15.56 2.91,2.87 7.82,6.84 9.11,10.37 0.4,0.2 0.95,0.07 1.17,0.63 0.28,0.74 1.76,0.98 2.31,1.27 1.67,0.91 0.62,0.52 3.57,1.88l0.13 -7.76c-0.65,0.21 -5,8.11 -9.5,-7.31 4.92,-0.36 6.66,-0.51 10.7,-1.48 -2.72,-5.42 -1.21,-3.11 -5.2,-7.11 -1.65,-1.65 -3.17,-3.3 -4.34,-4.38 -5.1,-4.7 -9.95,-3.01 -14.68,-0.96zm380.89 132.23c-2,12.99 8.4,2.57 13.27,3.05 0.24,5.86 0.61,7.72 2.86,11.12 4.92,-1.66 6.16,3.83 3.13,-5.19 -0.43,-3.06 -2.37,-8.2 -3.7,-11.05 -2.71,-5.81 -3.03,-1.79 -6.28,-6.79 -3.31,3.15 -0.84,0.12 -2.77,4.65 -3.57,8.41 0.87,-4.54 -6.51,4.21zm-349.13 -10.62c1.07,3.84 -0.52,0.16 1.18,3.16l5.67 6.05c2.46,2.35 13.54,15.71 19.41,6.6 2.91,-4.52 -0.4,-9.14 -1.6,-11.8 -7.2,-3.37 -8.45,-9.56 -16.02,-13.36 0.9,5.88 0.67,5.53 5.58,7.22l-1.42 3.94c-0.04,0.21 2.29,4.07 3.19,0.69 0.09,-0.37 0.59,-0.33 0.89,-0.48 1.69,1.75 4.17,3.5 5.39,4.81 2.58,2.77 2.81,4.31 3.37,8.43 -17.85,-0.49 -14.54,-12.9 -25.64,-15.26zm97.37 -3.61c13.02,5.58 5.56,0.4 8.8,10.08l5.63 -7.31c-5.22,-4.78 -2.81,-4.51 -9.2,-8.21 -4.89,-2.84 -11.5,-3.07 -17.77,-3.23l-4.13 8.15c8.25,-2.88 7.46,-3.44 16.67,0.52zm254.12 4.86c-0.52,1.56 0.4,0.14 -1.03,2.26 -0.53,0.78 -1.4,1.59 -1.91,2.2 -2.67,3.21 -1.39,1.08 -3.69,5.16l4.27 -0.25c7.38,-8.75 2.94,4.2 6.51,-4.21 1.93,-4.53 -0.54,-1.5 2.77,-4.65 3.25,5 3.57,0.98 6.28,6.79 1.33,2.85 3.27,7.99 3.7,11.05 0.19,0.16 0.39,0.26 0.46,0.59 0.12,0.6 0.89,1.17 1.14,1.43 1.9,1.99 1.4,2.01 3.89,3.45 -1.47,-7.73 -3.72,-11.55 -6.07,-18.3 -3.73,-10.77 -6.7,-9.34 -16.32,-5.52zm-349.94 139.41l1.15 -1.64c-4.27,-2.55 -3.76,5.17 -1.83,-5.92 0.83,-4.71 7.06,-10.96 7.22,-13.91 -2.92,-1.95 1.14,-2.88 -4.4,-1.87 -4.47,0.81 -2.61,5.76 -4.34,7.71 -4.58,5.16 -2.91,-2.34 -4.42,6.04 -0.19,1.07 0.6,6.1 0.08,9.93l6.54 -0.34zm89.98 -68.47c3.13,-1.72 3.61,1.38 2.87,-10.11 -0.41,-6.39 1.3,-6.2 -2.87,-9.68 -3.49,1.79 -3.46,-1.11 -3.1,9.69 0.35,10.35 -0.44,7.77 3.1,10.1zm165.07 38.22c3.9,2.29 8.06,-0.02 11.74,-1.48 -0.41,-1.45 1.11,-8.47 -9.96,-7.47 -0.61,4.71 -2,5.01 -1.78,8.95zm-161.71 16.53l-7.06 -1.9c0.87,-6.03 -0.26,-4.68 5.16,-6.46l1.9 8.36zm-10.01 -9.67l0.17 10.36c1.91,0.71 3.35,1.61 5.11,1.55 10.02,-0.37 2.17,0.61 4.73,-2.24 2.33,-2.27 1.3,5.3 2.48,-4.83 -2.87,-5.48 -3.1,-4.39 -10.21,-4.39l-2.28 -0.45zm10.01 9.67c-2.56,2.85 5.29,1.87 -4.73,2.24 -1.76,0.06 -3.2,-0.84 -5.11,-1.55 3.22,4.43 8.15,5.59 11.99,1.43 3.15,-3.4 1.2,-8.94 0.26,-12.79 -3.71,-0.44 -1.47,-1.53 -7.25,-1 -3.24,0.2 -2.32,-0.66 -2.89,2.45 7.11,0 7.34,-1.09 10.21,4.39 -1.18,10.13 -0.15,2.56 -2.48,4.83zm112.94 -37.94l-0.68 0.8c-9.31,-1.56 -10.68,-2.41 -7.84,-11.39 -4.13,1.92 -5.65,5.59 -2.63,10.29 2.19,3.41 8.34,4.62 11.15,0.3zm-231.14 -111.6l-0.43 -7.75 -7.93 -0.56c1.52,3.33 -0.08,1.98 3.18,5.19 3.17,3.11 1.81,1.61 5.18,3.12zm23.31 22.6l-0.33 -6.93 -7.92 -0.56c1.45,3.18 0,2.2 3.19,5.25 4.68,4.48 0.18,1.22 5.06,2.24zm76.85 -45.5c3.25,-1.88 2.11,-0.93 4.64,-3.39 3.57,-3.48 2.06,-1.83 4.29,-6.1l-7.9 1.58 -1.03 7.91zm18.04 172.44l-1.9 -8.36c-5.42,1.78 -4.29,0.43 -5.16,6.46l7.06 1.9zm151.79 -169.78l3.56 -1.3c2.75,-3.09 -0.06,1.6 1.48,-3.53 -5.83,-2.3 -8.71,-0.62 -5.04,4.83zm40.98 26.7c-2.08,-4.05 -1.64,-4.93 -7.31,-6.92l1.67 6.14 5.64 0.78z"/>
 </g>
</svg>
