<svg width="37" height="55" viewBox="0 0 37 55" fill="none" xmlns="http://www.w3.org/2000/svg">
<path fill-rule="evenodd" clip-rule="evenodd" d="M9.15039 21.8306C9.03464 21.9912 8.313 22.414 8.08742 22.5794C6.96421 23.4002 7.07523 23.49 6.16935 24.3132C4.90677 25.46 3.50483 28.225 3.02413 30.2564C2.77611 31.3076 2.73477 32.2725 2.42533 33.3083C1.8655 35.1839 1.23126 36.8586 0.437573 38.6173C0.132854 39.294 -0.776576 40.5034 1.50054 40.2483L1.47456 41.668C1.33401 41.8014 1.12614 41.8971 1.10724 42.2007C1.08717 42.5314 1.26905 42.6625 1.43322 42.7912C0.919453 43.3345 1.0352 43.1337 1.36944 43.7136C1.81471 44.4849 0.511981 46.1065 2.12179 47.2722C3.35602 48.1651 5.85282 47.4824 7.39649 47.3643C9.69959 47.1872 10.6645 47.7234 11.2775 49.5942C11.8669 51.3954 11.8161 53.0335 11.7936 54.9953L23.5466 55C23.4757 53.9288 23.2206 52.7465 23.1155 51.6268C22.9182 49.4974 22.858 46.8281 23.6517 44.8439C23.9776 44.0301 24.2788 43.7089 24.8835 43.2223C25.0725 43.0711 25.1611 42.914 25.3335 42.7451C25.5213 42.5597 25.676 42.4747 25.8461 42.2644C25.9961 42.0814 26.1024 41.9585 26.2701 41.7577C26.5429 41.4294 26.8004 41.0774 27.0603 40.6901C29.9858 36.3236 29.0823 32.4497 29.2441 31.7198C28.9216 31.1788 29.0834 28.421 26.4107 25.0408C25.604 24.0203 24.7761 23.2054 23.6906 22.4507C20.2844 20.0814 16.2522 19.3515 12.1066 20.5586C10.6929 20.9708 9.52361 21.7219 9.15039 21.8306ZM25.2603 10.3505C25.2213 10.5206 25.3654 10.4497 25.1965 10.4804L23.5265 16.7838L22.3938 16.7803L20.7379 10.6186C20.6813 10.5466 20.7108 10.6021 20.6529 10.4852C20.647 10.4722 20.6305 10.3989 20.6257 10.3777C20.6175 10.1639 20.6529 10.2572 20.5442 10.0954C20.184 10.1863 20.3931 10.4911 20.4935 10.856L21.1608 13.3693C21.4383 14.4158 21.886 15.7622 22.0619 16.7827C19.2273 16.8051 21.2222 14.2209 19.0195 11.1347C16.1707 7.14624 19.3726 2.892 22.9914 2.9357C26.5607 2.9794 29.733 7.18049 26.8205 11.1926C26.5075 11.6237 26.1272 12.5721 25.9311 13.1579C25.6229 14.0815 25.6595 14.6496 25.5284 15.6146C25.4127 16.472 24.789 16.8016 23.8572 16.7815C23.9895 16.0091 24.893 12.7446 25.2001 11.6273C25.4079 10.869 25.7056 10.2182 25.3548 10.0848L25.2603 10.3505ZM19.2273 3.69041C19.1281 3.88292 19.2014 3.76009 19.0703 3.90655C19.0313 3.94906 18.9829 3.98922 18.9356 4.03883C17.2219 5.79509 16.8215 8.40055 17.9187 10.5761C18.2069 11.1489 18.5187 11.4584 18.8069 12.0099C20.3116 14.8729 19.0962 15.8602 20.6257 17.1145C20.5324 17.313 20.5183 17.45 20.5974 17.6791C20.7639 17.6909 20.6092 17.6496 20.8466 17.7252L20.8005 17.9992L20.5502 18.1185C20.4935 18.4149 20.4675 18.344 20.6494 18.5271C20.869 18.748 20.8206 18.4385 20.8537 18.8401C20.7533 19.1531 20.8183 18.8673 20.6376 19.074C20.4191 19.322 20.4781 19.4673 20.8171 19.6137C21.3403 19.8381 20.934 19.8381 21.4596 20.0389C21.9745 20.2338 21.5801 20.1027 21.9686 20.5255C22.0525 20.6153 22.1245 20.666 22.2285 20.7322C22.4505 20.8716 22.6855 20.9554 22.9891 20.9507C23.8584 20.9365 24.0757 20.2621 24.2304 20.1393C24.4843 19.9385 24.3485 20.2184 24.8457 19.7625C25.1753 19.4614 25.2402 19.7613 25.4091 19.3043C25.2426 18.6877 25.043 19.3243 25.0749 18.6405C25.2709 18.5283 25.2213 18.6122 25.3855 18.4704C25.4375 17.7193 24.8753 18.1799 25.102 17.7689C25.1965 17.5988 25.2898 17.7334 25.369 17.4925C25.441 17.274 25.3501 17.3437 25.2875 17.0413C26.2973 16.6835 26.1662 15.0323 26.2819 14.3626C26.7674 11.5552 27.9165 11.4312 28.4161 9.33714C29.6043 4.35535 24.2186 0.718815 20.2821 2.99475L19.2273 3.69041ZM7.93742 15.5886C7.61026 13.3056 10.172 12.0501 11.698 13.2784C11.9838 13.5099 12.1279 13.6008 12.2944 13.8808C13.2464 15.4705 12.2838 17.3236 10.6917 17.5492C9.28739 17.7488 8.11694 16.8488 7.93742 15.5886ZM7.68113 13.1898C7.81813 13.3493 8.00002 13.4756 8.09568 13.6646C7.86419 14.0945 7.83703 14.2764 7.64097 14.7607L6.9961 14.7666L7.02799 15.6181L7.68113 15.6276C7.739 16.2169 7.94687 16.3492 8.10868 16.7815L7.67994 17.2516L8.27993 17.8173L8.72638 17.3933C9.10787 17.5126 9.2992 17.7287 9.8614 17.8279L9.88266 18.4799H10.7106L10.7248 17.8315C11.2822 17.711 11.4724 17.5114 11.8503 17.3862L12.3086 17.7925C12.5543 17.6637 12.6759 17.496 12.8779 17.248C12.7704 17.0626 12.6086 16.948 12.4692 16.772C12.6251 16.3681 12.8247 16.1803 12.8991 15.6288L13.5735 15.6169L13.5853 14.7654L12.9416 14.7559C12.742 14.3355 12.7019 14.0898 12.4562 13.6493L12.9133 13.1863L12.3039 12.6016L11.8444 13.0127C11.4452 12.8402 11.2811 12.6843 10.7342 12.5816L10.6917 11.906L9.87675 11.9131L9.84604 12.5367C9.66416 12.6442 9.46692 12.6607 9.26613 12.7457C9.05472 12.8343 8.93189 12.93 8.71457 13.0257L8.24922 12.5946L7.68113 13.1898ZM8.42639 11.3804C8.1949 11.4265 8.27521 11.4217 8.08269 11.3261C8.01065 10.9068 8.16183 10.9257 8.4878 10.9729C8.49135 10.9966 8.51615 11.1879 8.51261 11.2092C8.51142 11.2245 8.50788 11.2446 8.50434 11.2588C8.50079 11.2729 8.49016 11.2918 8.48544 11.3036L8.42639 11.3804ZM6.94531 10.5064L7.35042 10.5017L7.37405 10.9068L6.94768 10.9375L6.94531 10.5064ZM9.62164 10.9044L9.29684 10.9481C9.1185 10.719 9.17047 10.7521 9.21889 10.5064L9.54251 10.4934C9.54251 10.4946 9.70549 10.556 9.62164 10.9044ZM9.30747 10.4037C8.99685 10.667 9.26495 10.5489 8.86102 10.6056C8.38151 10.6718 8.79843 10.7462 8.40277 10.8052L8.39804 9.8828C8.52796 9.77887 8.43111 9.87808 8.55867 9.72218L9.49408 9.69383C9.47755 10.0363 9.2992 9.70328 9.30747 10.4037ZM7.08232 9.69973L8.0697 9.70682C8.24096 10.0375 8.1819 10.4107 8.15592 10.8265C7.89608 10.7202 8.14765 10.83 7.96459 10.7096C7.56774 10.4485 7.59727 10.7556 7.36105 10.5206C7.20633 10.367 7.30554 10.308 7.25948 10.0919C7.19216 9.77178 7.10004 10.0198 7.08232 9.69973ZM9.65825 9.37612L10.0893 9.36903L10.0953 9.78241L9.67833 9.80958L9.65825 9.37612ZM6.89453 9.77769C6.59926 9.85091 6.54493 9.88753 6.44808 9.55092C6.74217 9.17534 6.94295 9.30053 6.89453 9.77769ZM9.49526 9.45053C8.34489 9.53556 8.32599 9.50722 8.40631 8.36394C8.7937 8.41118 8.42993 8.47023 8.80079 8.55645C9.00157 8.60369 9.0807 8.52811 9.21417 8.66393C9.36889 8.82219 9.25432 8.91432 9.32755 9.14109C9.41377 9.41155 9.45511 9.1588 9.49526 9.45053ZM7.08822 9.45643C7.08941 9.14463 7.18862 9.38557 7.2583 9.07731C7.30436 8.87652 7.22523 8.78086 7.36105 8.64858C7.52641 8.48677 7.57129 8.60724 7.78742 8.55645C8.01065 8.5033 7.876 8.46078 8.16183 8.33913C8.16891 8.52102 8.17718 8.70763 8.17836 8.88952C8.18308 9.25565 8.19371 9.22258 8.07324 9.36077C7.89136 9.55446 7.36224 9.46116 7.08822 9.45643ZM9.20472 8.32024C9.44684 8.17614 9.35826 8.20803 9.63581 8.25528L9.61928 8.66747L9.19763 8.67456L9.20472 8.32024ZM6.95358 8.31433C7.14255 8.18914 7.17799 8.21866 7.3705 8.26354L7.37168 8.66157C7.18389 8.68873 7.09059 8.66984 6.94177 8.59307L6.95358 8.31433ZM8.48662 8.18323C8.31064 8.21276 8.25985 8.23874 8.08387 8.12536C8.03072 7.89032 8.00592 7.97536 8.15946 7.75096L8.51024 7.78166L8.48662 8.18323ZM9.81415 8.23992C9.79171 7.5549 9.82833 8.32614 9.31101 7.97064C8.92362 7.70489 9.29094 7.86552 9.1244 7.56671C8.96614 7.57616 9.03582 7.5986 8.97559 7.62222C8.7252 7.71907 8.66969 7.8171 8.40158 7.55253C8.04254 7.19821 8.54449 7.55253 8.26222 7.40608L8.07206 7.63993C7.7449 7.85843 7.61735 7.67773 7.61499 7.67655C7.42719 7.58206 7.83821 7.58915 7.40357 7.57852L7.29373 7.91867C7.28074 7.93284 7.21106 7.98953 7.18153 8.00725C6.77406 8.23756 7.03744 7.95174 6.7339 8.01434C6.64532 8.39346 6.96185 8.0852 6.69256 8.51629C6.63351 8.60842 6.57327 8.66511 6.51422 8.69228L6.26265 8.75487C6.38194 9.32061 6.09612 8.36866 6.3347 8.89424C6.5402 9.34895 6.32052 9.40919 6.20714 9.49305C6.19651 9.50013 6.16698 9.53557 6.15872 9.52257C6.15163 9.5084 6.12446 9.53911 6.10911 9.55092C6.17761 9.68084 6.19533 9.61942 6.28982 9.73044C6.6406 10.1403 6.28391 10.2643 6.29808 10.4804C6.49178 10.5855 6.55792 10.3706 6.72563 10.6966C6.91106 11.058 6.64768 10.8407 6.72918 11.1525C6.99256 11.182 6.84728 10.9552 7.22877 11.1855C7.61262 11.4182 7.28665 11.3178 7.46617 11.6048C7.58428 11.5777 7.64569 11.4241 7.92443 11.4666C8.22797 11.5127 8.20671 11.7737 8.23269 11.717C8.23741 11.7052 8.24922 11.7513 8.26222 11.7654C8.42521 11.6745 8.2693 11.756 8.37088 11.6497C8.37324 11.6473 8.59528 11.3686 8.94488 11.4973C9.14803 11.5717 8.8185 11.508 9.1244 11.5942C9.33227 11.3379 9.0996 11.5493 9.23306 11.3178C9.24842 11.2906 9.39487 11.1525 9.40078 11.1501C9.84959 10.9115 9.52715 11.2906 9.774 11.1324C10.0433 10.8371 9.55432 11.1229 9.87439 10.6399C10.1118 10.2808 10.022 10.5454 10.3114 10.4344C10.2783 10.1993 10.1023 10.2123 10.1673 9.93949C10.2488 9.59226 10.3645 9.77414 10.4685 9.55092C10.387 9.4836 10.172 9.4836 10.1519 9.12455C10.126 8.66039 10.2854 9.09975 10.2913 8.70645C10.1319 8.58598 9.83423 8.88479 9.81415 8.23992ZM9.91691 13.3008C11.0413 13.0918 12.0204 13.876 12.1858 14.8445C12.3806 15.9807 11.6578 16.9161 10.6385 17.1039C10.1 17.2031 9.53424 17.0496 9.1433 16.7626C8.98622 16.6468 9.00275 16.6398 8.87756 16.5004C8.76654 16.3764 8.75827 16.387 8.6626 16.2512C8.00947 15.3276 8.42875 13.5784 9.91691 13.3008ZM7.93742 15.5886C8.11694 16.8488 9.28739 17.7488 10.6917 17.5492C12.2838 17.3236 13.2464 15.4705 12.2944 13.8808C12.1279 13.6008 11.9838 13.5099 11.698 13.2784C10.172 12.0501 7.61026 13.3056 7.93742 15.5886ZM15.6475 10.5466C15.1349 13.1674 11.1913 12.4599 11.6684 9.77414C11.8409 8.80566 12.8791 7.94229 14.0672 8.19268C15.0168 8.39228 15.8896 9.3088 15.6475 10.5466ZM13.2983 7.95646C12.8436 8.0663 12.6417 8.23165 12.3015 8.34976L11.9306 7.9919C11.7854 8.14425 11.5952 8.29543 11.4724 8.47968L11.8125 8.84227L11.4133 9.80603L10.8901 9.84855V10.4981L11.4511 10.5265C11.5551 11.0237 11.7062 11.1903 11.8161 11.5269L11.4712 11.8623L11.9153 12.3406L12.2897 12.0135L13.2948 12.4233L13.2995 12.9394L14.007 12.9323L14.0141 12.4032C14.4227 12.2485 14.6542 12.1658 14.9625 12.0194L15.351 12.3631L15.8247 11.9461C15.7396 11.7513 15.6321 11.6721 15.4857 11.5635L15.892 10.5442L16.3998 10.51L16.4246 9.83674L15.8636 9.82965C15.7573 9.34187 15.579 9.14699 15.4857 8.79739L15.8648 8.4159C15.5849 8.19622 15.6239 8.1289 15.3605 8.00253L14.9707 8.33795C14.6412 8.2163 14.4652 8.05804 14.0117 7.9789L13.9904 7.42262L13.3007 7.40962L13.2983 7.95646ZM10.0185 13.752C10.9043 13.5926 11.5917 14.2233 11.7204 14.9024C11.8775 15.7327 11.3555 16.4803 10.6326 16.6327C8.5752 17.0661 8.18899 14.0815 10.0185 13.752ZM9.91691 13.3008C8.42875 13.5784 8.00947 15.3276 8.6626 16.2512C8.75827 16.387 8.76654 16.3764 8.87756 16.5004C9.00275 16.6398 8.98622 16.6468 9.1433 16.7626C9.53424 17.0496 10.1 17.2031 10.6385 17.1039C11.6578 16.9161 12.3806 15.9807 12.1858 14.8445C12.0204 13.876 11.0413 13.0918 9.91691 13.3008ZM13.8003 12.03C13.7944 11.0568 14.6412 11.1584 14.8243 11.6084C14.5704 11.8552 14.2219 11.9792 13.8003 12.03ZM13.5074 12.0288C12.9995 11.9733 12.7598 11.8458 12.4692 11.5989C12.6428 11.43 13.0857 10.9871 13.4271 11.5469C13.5499 11.7477 13.5062 11.7206 13.5074 12.0288ZM15.0959 11.3414C14.653 11.0816 14.5089 10.3257 15.514 10.3115C15.4538 10.7509 15.3381 11.0521 15.0959 11.3414ZM11.8019 10.321C12.4539 10.3269 12.533 10.5206 12.5165 11.1513C12.3948 11.2316 12.3617 11.2741 12.2425 11.3556C11.985 11.104 11.8492 10.8017 11.8019 10.321ZM12.7728 9.28636C12.9428 9.17061 12.7692 9.2651 12.9806 9.2273C13.6326 9.11156 13.3857 8.91432 13.6361 8.89778C14.0046 8.98873 13.7141 9.0277 14.0164 9.16943C14.2975 9.30053 14.294 9.13872 14.5656 9.28636C14.6767 9.51785 14.5373 9.49305 14.6542 9.78477C14.7617 10.0552 14.7841 9.87335 14.9318 10.1485C14.8267 10.504 14.8148 10.2359 14.6696 10.5229C14.5503 10.758 14.6282 10.882 14.5881 11.1088C14.346 11.1536 14.2456 11.0698 14.0188 11.195C13.8322 11.2977 13.9385 11.3769 13.6361 11.4489C13.2806 11.3249 13.57 11.2151 13.0361 11.1383C12.409 11.0485 12.8578 10.967 12.6393 10.5454C12.5271 10.3269 12.207 10.3422 12.4716 9.98674C12.5519 9.87808 12.6003 9.93595 12.6688 9.71863C12.7633 9.41746 12.5944 9.52612 12.7728 9.28636ZM15.5081 10.034C15.4384 10.034 15.2885 10.0422 15.2247 10.0328C14.9826 9.99619 14.8184 9.76115 14.7889 9.6584C14.6755 9.26037 14.9318 9.14699 15.0723 8.98754C15.3227 9.26982 15.4467 9.55919 15.5081 10.034ZM11.796 10.0127C11.8468 9.68202 11.9554 9.30762 12.1669 9.06786L12.2425 8.99817C12.5436 9.18006 12.5767 9.27337 12.5153 9.77651C12.2862 9.94304 12.2188 10.0576 11.796 10.0127ZM14.1487 9.03361C13.746 8.88715 13.8003 8.53283 13.7991 8.32142C14.2243 8.3722 14.5987 8.49149 14.829 8.75487C14.7499 8.88715 14.7121 8.96038 14.5515 9.01943C14.4711 9.04896 14.2397 9.06668 14.1487 9.03361ZM12.4787 8.75487C12.5295 8.70172 12.5259 8.697 12.5921 8.64503C12.8188 8.46433 13.2251 8.35331 13.5062 8.32496C13.5062 8.64149 13.4696 8.96629 13.1448 9.05014C12.8318 9.12927 12.6381 8.98991 12.4787 8.75487ZM15.6475 10.5466C15.8896 9.3088 15.0168 8.39228 14.0672 8.19268C12.8791 7.94229 11.8409 8.80566 11.6684 9.77414C11.1913 12.4599 15.1349 13.1674 15.6475 10.5466ZM8.24922 12.5946L8.71457 13.0257C8.93189 12.93 9.05472 12.8343 9.26613 12.7457C9.46692 12.6607 9.66416 12.6442 9.84604 12.5367L9.87675 11.9131L10.6917 11.906L10.7342 12.5816C11.2811 12.6843 11.4452 12.8402 11.8444 13.0127L12.3039 12.6016L12.9133 13.1863L12.4562 13.6493C12.7019 14.0898 12.742 14.3355 12.9416 14.7559L13.5853 14.7654L13.5735 15.6169L12.8991 15.6288C12.8247 16.1803 12.6251 16.3681 12.4692 16.772C12.6086 16.948 12.7704 17.0626 12.8779 17.248C12.6759 17.496 12.5543 17.6637 12.3086 17.7925L11.8503 17.3862C11.4724 17.5114 11.2822 17.711 10.7248 17.8315L10.7106 18.4799H9.88266L9.8614 17.8279C9.2992 17.7287 9.10787 17.5126 8.72638 17.3933L8.27993 17.8173L7.67994 17.2516L8.10868 16.7815C7.94687 16.3492 7.739 16.2169 7.68113 15.6276L7.02799 15.6181L6.9961 14.7666L7.64097 14.7607C7.83703 14.2764 7.86419 14.0945 8.09568 13.6646C8.00002 13.4756 7.81813 13.3493 7.68113 13.1898L8.24922 12.5946ZM7.68467 12.8414C7.61262 12.982 7.5831 12.989 7.46971 13.1154C7.59491 13.393 7.72128 13.367 7.89726 13.6646C7.78979 13.9351 7.60199 14.241 7.54412 14.6095L6.89098 14.6225C6.77524 14.952 6.81185 15.4315 6.86028 15.7811L7.52522 15.7917L7.876 16.7248L7.47326 17.1712C7.56774 17.398 8.07679 17.8681 8.26222 18.0145L8.71693 17.587C8.85866 17.6248 9.47991 17.8811 9.68542 17.9767L9.70431 18.6452L10.8618 18.6783L10.8653 17.9826C11.2444 17.8633 11.5681 17.6744 11.861 17.5834L12.3086 18.0122C12.5082 17.8681 13.0031 17.4122 13.1035 17.1642L12.6983 16.7248L13.0397 15.7894L13.7117 15.7835C13.7637 15.448 13.779 14.9402 13.6834 14.6166H13.029C12.97 14.2044 12.8165 14.0142 12.6759 13.6646C12.8342 13.3977 12.9853 13.3847 13.1058 13.1071C12.8767 12.8662 12.6287 12.5178 12.3086 12.3843C12.0369 12.5261 12.0192 12.6808 11.7877 12.7788L10.8842 12.4044L10.8381 11.7501L9.71731 11.7631L9.6925 12.4079L8.79252 12.8036C8.51851 12.6501 8.55867 12.5166 8.26222 12.3843C7.97758 12.5142 7.95986 12.682 7.68467 12.8414ZM33.1345 16.1437C32.4436 16.2146 31.4728 16.0173 30.9035 15.6406C30.881 15.6252 30.809 15.5709 30.7854 15.5496C30.711 15.4847 30.7334 15.5024 30.6755 15.4315C30.137 15.2721 29.4767 14.2965 29.2287 13.5323C28.3476 10.8194 30.8267 7.8667 33.9223 8.77141C37.8364 9.91469 37.2813 15.8307 33.1345 16.1437ZM30.6484 15.7173C31.272 15.9063 31.5165 16.2157 32.4164 16.3043C33.4003 16.4012 33.705 16.185 34.5117 15.9772C34.5601 15.9335 34.8743 15.7469 35.0042 15.6618C36.2975 14.8138 37.0203 13.2382 36.679 11.5859C35.8829 7.72025 30.4346 7.28325 29.1023 11.0875C28.0949 13.9634 30.5799 15.5933 30.6484 15.7173ZM10.4791 16.5146C10.4472 16.3504 10.4413 16.2654 10.4389 16.1189C10.4389 16.1035 10.4413 15.9252 10.4425 15.9193L10.5181 15.7032L11.0484 16.2524L10.4791 16.5146ZM9.51298 16.2795C9.59447 16.0102 9.85195 15.748 10.1295 15.7091L10.1201 16.498L9.51298 16.2795ZM10.785 15.3795L11.5775 15.3618C11.5244 15.6571 11.5019 15.8012 11.3141 15.9713L10.9149 15.591C10.8476 15.5142 10.7897 15.3854 10.785 15.3795ZM9.25668 15.9724C9.07598 15.7882 9.05 15.65 8.99449 15.3666L9.79171 15.3606C9.69723 15.624 9.43621 15.8331 9.25668 15.9724ZM9.92399 15.3229C9.78108 14.7855 10.5204 14.6154 10.6527 15.0748C10.811 15.6287 10.0374 15.7563 9.92399 15.3229ZM10.8157 15.0276C10.7956 14.7996 10.8452 14.8244 10.9976 14.6756C11.1252 14.5516 11.1287 14.528 11.3141 14.4276C11.4783 14.5894 11.5468 14.7736 11.5645 15.0418L10.8157 15.0276ZM9.00511 15.0358C9.02401 14.7477 9.08897 14.6201 9.25668 14.43C9.42794 14.5788 9.75038 14.8351 9.75864 15.037L9.00511 15.0358ZM10.4425 13.9103C10.7023 13.9469 10.8783 14.0367 11.0732 14.1111C10.9692 14.3095 10.6574 14.6461 10.4602 14.6898L10.4425 13.9103ZM9.50235 14.1111C9.69723 14.0402 9.87203 13.941 10.1342 13.9115L10.087 14.691C9.90746 14.6402 9.61219 14.3201 9.50235 14.1111ZM10.0185 13.752C8.18899 14.0815 8.5752 17.0661 10.6326 16.6327C11.3555 16.4803 11.8775 15.7327 11.7204 14.9024C11.5917 14.2233 10.9043 13.5926 10.0185 13.752ZM13.3007 7.40962L13.9904 7.42262L14.0117 7.9789C14.4652 8.05804 14.6412 8.2163 14.9707 8.33795L15.3605 8.00253C15.6239 8.1289 15.5849 8.19622 15.8648 8.4159L15.4857 8.79739C15.579 9.14699 15.7573 9.34187 15.8636 9.82965L16.4246 9.83674L16.3998 10.51L15.892 10.5442L15.4857 11.5635C15.6321 11.6721 15.7396 11.7513 15.8247 11.9461L15.351 12.3631L14.9625 12.0194C14.6542 12.1658 14.4227 12.2485 14.0141 12.4032L14.007 12.9323L13.2995 12.9394L13.2948 12.4233L12.2897 12.0135L11.9153 12.3406L11.4712 11.8623L11.8161 11.5269C11.7062 11.1903 11.5551 11.0237 11.4511 10.5265L10.8901 10.4981V9.84855L11.4133 9.80603L11.8125 8.84227L11.4724 8.47968C11.5952 8.29543 11.7854 8.14425 11.9306 7.9919L12.3015 8.34976C12.6417 8.23165 12.8436 8.0663 13.2983 7.95646L13.3007 7.40962ZM12.6523 7.93757C12.2625 8.3663 12.3216 7.91985 11.9058 7.77576C11.6862 7.93638 11.3401 8.22221 11.2515 8.51275L11.6011 8.88243L11.2976 9.66076L10.7236 9.69147L10.7366 10.6729L11.2917 10.6966L11.607 11.5658C11.4547 11.6674 11.3436 11.7501 11.2574 11.945C11.4759 12.1576 11.6708 12.3973 11.9212 12.5768C12.135 12.4635 12.1763 12.3371 12.3688 12.2367L13.133 12.552L13.2015 13.1119L14.144 13.0906L14.1688 12.519C14.5113 12.4198 14.7168 12.3005 14.9908 12.2107L15.3759 12.5851L16.0585 11.8576L15.6971 11.4749C15.7573 11.2918 15.9109 10.908 16.0243 10.6907L16.5841 10.6824L16.5829 9.66548L16.0184 9.6643C15.9191 9.42218 15.7892 9.11274 15.6818 8.87298L16.0384 8.48913C15.9428 8.26354 15.5459 7.89623 15.357 7.78048L14.9707 8.14071C14.7239 8.03914 14.4629 7.88678 14.1629 7.83599C14.1652 7.57261 14.1971 7.46513 14.1192 7.24664L13.1472 7.25018V7.81828L12.6523 7.93757ZM13.4932 9.72099C14.1546 9.49777 14.3908 10.4781 13.8015 10.6434C13.1542 10.8241 12.9074 9.91942 13.4932 9.72099ZM12.6393 10.5454C12.8578 10.967 12.409 11.0485 13.0361 11.1383C13.57 11.2151 13.2806 11.3249 13.6361 11.4489C13.9385 11.3769 13.8322 11.2977 14.0188 11.195C14.2456 11.0698 14.346 11.1536 14.5881 11.1088C14.6282 10.882 14.5503 10.758 14.6696 10.5229C14.8148 10.2359 14.8267 10.504 14.9318 10.1485C14.7841 9.87335 14.7617 10.0552 14.6542 9.78477C14.5373 9.49305 14.6767 9.51785 14.5656 9.28636C14.294 9.13872 14.2975 9.30053 14.0164 9.16943C13.7141 9.0277 14.0046 8.98873 13.6361 8.89778C13.3857 8.91432 13.6326 9.11156 12.9806 9.2273C12.7692 9.2651 12.9428 9.17061 12.7728 9.28636C12.5944 9.52612 12.7633 9.41746 12.6688 9.71863C12.6003 9.93595 12.5519 9.87808 12.4716 9.98674C12.207 10.3422 12.5271 10.3269 12.6393 10.5454ZM7.40357 7.57852C7.83821 7.58915 7.42719 7.58206 7.61499 7.67655C7.61735 7.67773 7.7449 7.85843 8.07206 7.63993L8.26222 7.40608C8.54449 7.55253 8.04254 7.19821 8.40158 7.55253C8.66969 7.8171 8.7252 7.71907 8.97559 7.62222C9.03582 7.5986 8.96614 7.57616 9.1244 7.56671C9.29094 7.86552 8.92362 7.70489 9.31101 7.97064C9.82833 8.32614 9.79171 7.5549 9.81415 8.23992C9.83423 8.88479 10.1319 8.58598 10.2913 8.70645C10.2854 9.09975 10.126 8.66039 10.1519 9.12455C10.172 9.4836 10.387 9.4836 10.4685 9.55092C10.3645 9.77414 10.2488 9.59226 10.1673 9.93949C10.1023 10.2123 10.2783 10.1993 10.3114 10.4344C10.022 10.5454 10.1118 10.2808 9.87439 10.6399C9.55432 11.1229 10.0433 10.8371 9.774 11.1324C9.52715 11.2906 9.84959 10.9115 9.40078 11.1501C9.39487 11.1525 9.24842 11.2906 9.23306 11.3178C9.0996 11.5493 9.33227 11.3379 9.1244 11.5942C8.8185 11.508 9.14803 11.5717 8.94488 11.4973C8.59528 11.3686 8.37324 11.6473 8.37088 11.6497C8.2693 11.756 8.42521 11.6745 8.26222 11.7654C8.24922 11.7513 8.23741 11.7052 8.23269 11.717C8.20671 11.7737 8.22797 11.5127 7.92443 11.4666C7.64569 11.4241 7.58428 11.5777 7.46617 11.6048C7.28665 11.3178 7.61262 11.4182 7.22877 11.1855C6.84728 10.9552 6.99256 11.182 6.72918 11.1525C6.64768 10.8407 6.91106 11.058 6.72563 10.6966C6.55792 10.3706 6.49178 10.5855 6.29808 10.4804C6.28391 10.2643 6.6406 10.1403 6.28982 9.73044C6.19533 9.61942 6.17761 9.68084 6.10911 9.55092C6.12446 9.53911 6.15163 9.5084 6.15872 9.52257C6.16698 9.53557 6.19651 9.50013 6.20714 9.49305C6.32052 9.40919 6.5402 9.34895 6.3347 8.89424C6.09612 8.36866 6.38194 9.32061 6.26265 8.75487L6.51422 8.69228C6.57327 8.66511 6.63351 8.60842 6.69256 8.51629C6.96185 8.0852 6.64532 8.39346 6.7339 8.01434C7.03744 7.95174 6.77406 8.23756 7.18153 8.00725C7.21106 7.98953 7.28074 7.93284 7.29373 7.91867L7.40357 7.57852ZM6.65123 7.85489C6.64768 7.86906 6.63587 7.87379 6.63351 7.89269L6.53194 8.07811C6.46698 8.29307 6.72445 8.39228 6.4528 8.49622C6.22722 8.58244 6.28509 8.29898 6.11147 8.67102C6.0536 8.79621 6.06069 8.81747 6.09258 8.92377C6.14927 9.10683 6.10675 8.90251 6.24021 9.1529C6.09612 9.42809 5.89534 9.13282 5.96856 9.81666C6.1847 9.90524 6.28037 9.75406 6.23194 10.0635C6.1847 10.367 5.991 9.99382 6.09612 10.445C6.17879 10.7993 6.27919 10.6434 6.45162 10.7131C6.70437 10.8135 6.57327 10.7072 6.47052 11.1064C6.67012 11.2257 6.62997 11.2151 6.78469 11.3757C7.05515 11.3769 6.85437 11.2257 7.20869 11.3509C7.29137 11.7276 7.01854 11.6556 7.70239 11.854L7.79687 11.6296C8.10631 11.6863 7.95986 11.6532 8.06143 11.9237C8.88346 11.9249 8.36025 11.8221 8.66024 11.6568C8.95433 11.4962 8.7937 11.6875 8.96614 11.7572C9.08188 11.8044 9.26141 11.7761 9.35235 11.6343C9.36062 11.6214 9.36771 11.6025 9.37479 11.5883C9.52006 11.2859 9.28267 11.5316 9.46455 11.2906C9.75628 11.3001 9.69723 11.4808 9.92636 11.2859C10.1968 11.0556 10.0586 11.0922 10.0291 10.9021C9.95943 10.4485 10.2075 10.8796 10.4295 10.5289C10.4354 10.5206 10.5098 10.3151 10.5228 10.2808C10.3834 10.0316 10.4319 10.2596 10.3303 10.0151C10.4401 9.76233 10.3834 9.91587 10.6232 9.79422V9.3714C10.5511 9.33596 10.5582 9.36313 10.4803 9.31825C10.322 9.2273 10.4472 9.3525 10.3657 9.22967C10.061 8.76668 10.7767 9.30053 10.3421 8.46669C10.074 8.45252 10.2393 8.57653 10.0043 8.4159C9.99722 8.11355 10.2145 8.11827 9.9299 7.88087C9.58266 7.59269 9.87675 7.98481 9.36652 7.82891C9.26141 7.42262 9.57794 7.5797 8.99212 7.34466C8.74055 7.47576 8.86457 7.62576 8.65788 7.50883C8.33781 7.32813 8.92008 7.23955 8.05789 7.24664C7.94569 7.52301 8.1512 7.48758 7.8512 7.53482C7.55711 7.5797 7.85593 7.50175 7.53113 7.35529L7.16618 7.54072C7.15673 7.74033 7.29609 7.81473 7.06815 7.85725C6.82957 7.90095 7.04452 7.66946 6.65123 7.85489ZM30.3673 0.24284C32.2251 -0.211875 33.7617 1.12747 34.0818 2.57193C34.5081 4.48646 33.1971 5.9628 31.7421 6.29469C29.8547 6.72342 28.3689 5.42305 28.0335 3.97977C27.5835 2.04162 28.8838 0.606612 30.3673 0.24284ZM29.9574 0.157802C29.9244 0.200321 29.2169 0.552283 29.1189 0.574723L28.8957 0.797947C27.111 2.29792 27.515 5.56124 30.02 6.37027C33.79 7.58797 36.1073 2.2613 32.5759 0.364491C31.6865 -0.113846 30.9767 -0.0524296 29.9574 0.157802ZM29.5606 19.3586C29.4578 18.9877 28.9252 18.0984 28.7315 17.7429C27.7536 15.9465 26.778 17.3767 27.2481 18.0275C27.3898 18.2236 27.7004 18.3818 27.9543 18.5212C28.3854 18.7562 29.1224 19.2133 29.5606 19.3586ZM31.3488 20.0401C31.5377 20.1948 33.5562 20.8326 33.9837 20.744C34.2743 20.6849 34.5081 20.4452 34.5223 20.0944C34.5365 19.7566 34.331 19.498 34.0936 19.4129C33.594 19.2322 31.8507 19.8735 31.3488 20.0401ZM29.5653 20.7723C29.2618 20.8562 27.4016 21.8341 27.2185 22.1412C26.804 22.8357 27.6591 23.5254 28.2331 23.0873C28.4279 22.9384 28.5968 22.6337 28.7303 22.3881C28.963 21.9629 29.4035 21.2365 29.5653 20.7723ZM30.9448 20.7676C31.0523 21.1491 31.572 22.0184 31.7798 22.3892C32.7448 24.1136 33.6684 22.8392 33.2845 22.1483C33.157 21.918 32.8298 21.7609 32.5594 21.6097C32.12 21.3652 31.37 20.9164 30.9448 20.7676ZM29.1508 20.0495C28.1787 19.7129 25.9264 18.7716 25.9831 20.0968C26.0434 21.5117 29.1496 20.0495 29.1508 20.0495ZM30.946 19.3539C31.2401 19.2594 33.0519 18.3122 33.2597 18.0252C33.6991 17.4181 32.8027 15.9228 31.7775 17.7429C31.5814 18.0913 31.0299 19.0244 30.946 19.3539ZM30.2433 21.044C30.033 21.5105 29.8287 22.3054 29.6952 22.8203C29.1968 24.7372 30.8114 24.3817 30.9377 23.6684C31.011 23.2502 30.3755 21.2365 30.2433 21.044ZM30.2385 19.0881C30.3543 18.9275 30.711 17.7004 30.7866 17.411C31.3204 15.3689 29.8027 15.7929 29.5972 16.3539C29.4177 16.8417 30.0767 18.5885 30.2385 19.0881ZM13.3208 5.10652C13.1684 3.94434 13.9975 3.0231 14.9908 2.88491C17.5856 2.52586 18.0569 6.4187 15.5601 6.77538C14.3944 6.94192 13.4507 6.10217 13.3208 5.10652ZM14.8633 2.73728C12.1007 3.26758 12.9109 7.44624 15.6581 6.92656C18.3982 6.40689 17.6471 2.20225 14.8633 2.73728ZM14.7818 15.9866C14.6046 14.2847 17.0364 14.1512 17.2172 15.6571C17.4191 17.333 14.9424 17.5315 14.7818 15.9866ZM15.5258 17.1949C15.7384 17.1701 15.8754 17.2397 16.1341 17.2161C16.4022 17.1913 16.5333 17.0827 16.7305 17.0685C16.9113 16.85 17.6825 16.3433 17.2916 15.3134C16.5522 13.3682 13.6491 14.9792 14.881 16.6646C15.0239 16.8594 15.4833 17.1559 15.4833 17.1559C15.4916 17.1417 15.5129 17.1819 15.5258 17.1949ZM30.2433 21.044C30.3755 21.2365 31.011 23.2502 30.9377 23.6684C30.8114 24.3817 29.1968 24.7372 29.6952 22.8203C29.8287 22.3054 30.033 21.5105 30.2433 21.044ZM29.4791 22.7825C29.5134 23.0518 29.3764 23.2562 29.3882 23.5491C29.4012 23.8609 29.5452 23.9447 29.5889 24.1502C29.9882 24.2943 30.3791 24.5695 30.8291 24.1573C31.1905 23.8278 31.1515 23.4735 31.0145 22.955C30.9106 22.5605 30.4854 20.8019 30.2137 20.6448C30.0543 20.9377 29.961 21.3735 29.8488 21.716L29.4791 22.7825ZM30.2385 19.0881C30.0767 18.5885 29.4177 16.8417 29.5972 16.3539C29.8027 15.7929 31.3204 15.3689 30.7866 17.411C30.711 17.7004 30.3543 18.9275 30.2385 19.0881ZM29.687 15.8874C29.5523 16.1402 29.3362 16.3835 29.4118 16.8476C29.4909 17.3366 30.0437 19.185 30.222 19.4838C30.4299 19.3456 30.4972 18.9157 30.5988 18.6145C30.7027 18.3039 30.796 17.9685 30.887 17.6449C31.3157 16.1154 31.0818 16.3421 30.607 15.7681C30.4051 15.7705 30.3141 15.7268 30.0909 15.7658C29.9752 15.7858 29.961 15.8047 29.8748 15.8343C29.7342 15.8803 29.8216 15.8685 29.687 15.8874ZM30.946 19.3539C31.0299 19.0244 31.5814 18.0913 31.7775 17.7429C32.8027 15.9228 33.6991 17.4181 33.2597 18.0252C33.0519 18.3122 31.2401 19.2594 30.946 19.3539ZM33.1782 18.3689C33.1853 18.3594 33.1971 18.3452 33.2019 18.3405C33.7463 17.7074 33.666 17.3779 33.0519 16.7909C32.5936 16.7272 32.2452 16.7378 32.0113 17.0449C31.7291 17.4145 30.7074 19.3019 30.6389 19.6232C31.1952 19.6539 32.6054 18.5637 33.1782 18.3689ZM29.5606 19.3586C29.1224 19.2133 28.3854 18.7562 27.9543 18.5212C27.7004 18.3818 27.3898 18.2236 27.2481 18.0275C26.778 17.3767 27.7536 15.9465 28.7315 17.7429C28.9252 18.0984 29.4578 18.9877 29.5606 19.3586ZM29.8641 19.6149C29.7732 19.244 28.6642 17.0874 28.2768 16.8665C27.9177 16.6634 27.5043 16.7177 27.2339 16.9787C26.4213 17.763 27.3614 18.3712 27.9189 18.6901C28.265 18.8885 29.537 19.6598 29.8641 19.6149ZM30.9448 20.7676C31.37 20.9164 32.12 21.3652 32.5594 21.6097C32.8298 21.7609 33.157 21.918 33.2845 22.1483C33.6684 22.8392 32.7448 24.1136 31.7798 22.3892C31.572 22.0184 31.0523 21.1491 30.9448 20.7676ZM33.1416 23.2939C33.2172 23.1676 33.7404 22.8416 33.4948 22.2026L33.346 21.9156C32.8109 21.6086 31.0984 20.4759 30.6366 20.5066C30.7488 20.9282 31.311 21.8849 31.5377 22.3007C31.9924 23.1357 32.1755 23.5514 33.1416 23.2939ZM29.5653 20.7723C29.4035 21.2365 28.963 21.9629 28.7303 22.3881C28.5968 22.6337 28.4279 22.9384 28.2331 23.0873C27.6591 23.5254 26.804 22.8357 27.2185 22.1412C27.4016 21.8341 29.2618 20.8562 29.5653 20.7723ZM28.0996 21.3027C28.0146 21.4834 26.4225 22.0066 27.0839 22.9751C27.4335 23.4888 28.1504 23.5514 28.5461 22.9999C28.6736 22.8203 28.7079 22.6703 28.8165 22.6207C29.0693 21.918 29.7082 21.2212 29.87 20.4605C29.2618 20.6235 28.6842 21.0971 28.0996 21.3027ZM25.9831 20.0968C26.0434 21.5117 29.1496 20.0495 29.1508 20.0495C28.1787 19.7129 25.9264 18.7716 25.9831 20.0968ZM27.1016 20.9164C27.4725 20.6424 29.3516 20.3731 29.5464 20.0224C29.1732 19.8169 27.3732 19.3031 26.8394 19.2216C26.2701 19.0952 25.7658 19.5771 25.8213 20.1665C25.8485 20.4546 26.0292 20.672 26.2111 20.7936C26.4508 20.9554 26.7933 20.8846 27.1016 20.9164ZM34.7562 13.8666C34.5955 13.9481 34.5282 13.8949 34.4385 14.1701C34.377 14.3555 34.3924 14.5563 34.4774 14.7146C34.6073 14.9555 34.9569 15.154 35.3254 14.9898C36.0282 14.6756 35.5983 13.4414 34.7562 13.8666ZM31.6381 5.37108C31.7102 5.64627 32.0586 5.8943 32.4306 5.79037C32.7235 5.70769 32.968 5.37108 32.8688 4.99314C32.6751 4.25378 31.4066 4.47228 31.6381 5.37108ZM31.3488 20.0401C31.8507 19.8735 33.594 19.2322 34.0936 19.4129C34.331 19.498 34.5365 19.7566 34.5223 20.0944C34.5081 20.4452 34.2743 20.6849 33.9837 20.744C33.5562 20.8326 31.5377 20.1948 31.3488 20.0401ZM33.1322 19.2806C32.8003 19.5535 31.4373 19.7991 30.9578 20.0106C31.0558 20.2314 30.8551 20.1015 31.5354 20.3129C31.8413 20.4074 33.2007 20.7901 33.3708 20.9105C33.7204 20.8491 34.0711 21.0015 34.3676 20.7286C34.5696 20.5444 34.7538 20.2527 34.6629 19.8464C34.6003 19.5653 34.3286 19.3066 34.0735 19.2334C33.705 19.1271 33.4865 19.3043 33.1322 19.2806ZM15.4715 2.018L15.501 1.92115C15.5613 1.41329 15.4278 1.16172 14.8963 1.26802C14.3424 1.63061 14.6176 2.35225 15.4715 2.018ZM30.5066 2.12075C30.737 2.39949 31.4421 2.48453 31.8023 2.43138C31.9192 2.09477 31.9216 1.76525 31.4397 1.80895C31.1669 1.83375 30.7074 1.96367 30.5066 2.12075ZM29.1082 0.947944C28.9878 1.33179 29.0185 1.42274 29.3315 1.62588C29.6409 1.82667 29.8015 1.91407 30.1476 2.01446C29.9917 1.53258 29.6716 0.734169 29.1082 0.947944ZM30.3803 2.27902C30.4736 2.5861 30.7582 3.14003 30.9224 3.34081L31.3369 3.33845C31.5377 2.84712 31.5885 2.80696 30.9118 2.48807C30.6921 2.38414 30.594 2.28374 30.3803 2.27902ZM29.9622 0.598345C29.8393 1.13219 30.1004 1.43809 30.1889 1.9495C30.4464 1.77942 30.3472 1.7747 30.4759 1.37077C30.5881 1.01645 30.62 0.956211 30.5385 0.60425C30.3673 0.555826 30.137 0.514488 29.9622 0.598345ZM30.1145 2.25658C29.8346 2.32272 28.735 2.79279 29.1118 3.22506C29.413 3.56994 29.6575 3.25577 29.785 3.0042C29.9244 2.72901 30.0803 2.56012 30.1145 2.25658ZM30.2173 2.32036C30.0614 2.62271 29.6315 3.77899 30.2811 3.71403C30.7866 3.66324 30.5019 2.96759 30.3933 2.61917C30.3141 2.37114 30.3885 2.45618 30.2173 2.32036ZM28.7279 1.88454C28.5342 2.15973 28.5992 2.54122 29.1378 2.44083C29.2819 2.41366 29.4626 2.35225 29.6067 2.31327C30.1063 2.17508 29.9244 2.19634 30.0035 2.12075C29.7082 1.92351 29.0386 1.70383 28.7279 1.88454ZM8.02482 10.4922C7.23232 10.3104 7.5642 10.6446 7.38586 9.84265L8.00356 9.89343L8.02482 10.4922ZM8.0697 9.70682L7.08232 9.69973C7.10004 10.0198 7.19216 9.77178 7.25948 10.0919C7.30554 10.308 7.20633 10.367 7.36105 10.5206C7.59727 10.7556 7.56774 10.4485 7.96459 10.7096C8.14765 10.83 7.89608 10.7202 8.15592 10.8265C8.1819 10.4107 8.24096 10.0375 8.0697 9.70682ZM8.55985 8.69464L9.11259 8.78086L9.18346 9.31943L8.57402 9.29108L8.55985 8.69464ZM9.49526 9.45053C9.45511 9.1588 9.41377 9.41155 9.32755 9.14109C9.25432 8.91432 9.36889 8.82219 9.21417 8.66393C9.0807 8.52811 9.00157 8.60369 8.80079 8.55645C8.42993 8.47023 8.7937 8.41118 8.40631 8.36394C8.32599 9.50722 8.34489 9.53556 9.49526 9.45053ZM7.38468 9.31943C7.55947 8.51984 7.22877 8.85408 8.02954 8.6781L7.98584 9.29463L7.38468 9.31943ZM7.08822 9.45643C7.36224 9.46116 7.89136 9.55446 8.07324 9.36077C8.19371 9.22258 8.18308 9.25565 8.17836 8.88952C8.17718 8.70763 8.16891 8.52102 8.16183 8.33913C7.876 8.46078 8.01065 8.5033 7.78742 8.55645C7.57129 8.60724 7.52641 8.48677 7.36105 8.64858C7.22523 8.78086 7.30436 8.87652 7.2583 9.07731C7.18862 9.38557 7.08941 9.14463 7.08822 9.45643ZM9.11377 10.3859L8.5563 10.4733L8.57402 9.87572L9.18464 9.85091L9.11377 10.3859ZM9.30747 10.4037C9.2992 9.70328 9.47755 10.0363 9.49408 9.69383L8.55867 9.72218C8.43111 9.87808 8.52796 9.77887 8.39804 9.8828L8.40277 10.8052C8.79843 10.7462 8.38151 10.6718 8.86102 10.6056C9.26495 10.5489 8.99685 10.667 9.30747 10.4037ZM10.6527 15.0748C10.811 15.6287 10.0374 15.7563 9.92399 15.3229C9.78108 14.7855 10.5204 14.6154 10.6527 15.0748ZM32.4613 14.8327C32.5582 14.5634 32.5416 14.424 32.4389 14.1748L31.9842 14.1063C31.5802 14.6485 31.807 14.9874 32.4613 14.8327ZM13.57 10.4958C13.2416 10.2714 13.2239 10.0789 13.57 9.85682C14.1759 9.87808 14.1239 10.4852 13.57 10.4958ZM13.8015 10.6434C13.1542 10.8241 12.9074 9.91942 13.4932 9.72099C14.1546 9.49777 14.3908 10.4781 13.8015 10.6434ZM10.8818 7.58679C11.5244 7.71316 11.5373 7.21947 11.2763 7.06121C10.8748 6.81672 10.7661 7.27262 10.8818 7.58679ZM16.7176 13.028C16.7246 12.9772 16.9148 12.8131 16.74 12.6194C16.6337 12.5024 16.4105 12.4599 16.2829 12.5946C16.0656 12.8237 16.3148 13.2985 16.7176 13.028ZM29.4614 9.02061C29.5346 9.37376 30.1925 9.28281 30.0342 8.83519C29.9208 8.51629 29.3787 8.61787 29.4614 9.02061ZM30.6165 1.48061L30.6153 1.53494L30.5846 1.80895C31.7161 1.39675 31.3665 0.57118 30.8149 1.31644C30.7098 1.45817 30.7783 1.41801 30.6165 1.48061ZM30.6165 1.48061C30.7783 1.41801 30.7098 1.45817 30.8149 1.31644C31.3665 0.57118 31.7161 1.39675 30.5846 1.80895L30.6153 1.53494L30.3708 1.96013C30.7228 1.97548 31.2921 1.58455 31.448 1.32471C31.4338 1.03889 31.3228 0.814482 30.9909 0.960936C30.822 1.03416 30.7287 1.29754 30.6165 1.48061ZM30.8917 12.7221C31.0665 12.4328 31.0405 12.1576 30.5598 12.2284C30.3496 12.5166 30.3814 12.8119 30.8917 12.7221ZM17.4876 1.66486L17.5219 2.08414L17.816 2.12312C17.9341 2.02509 17.9671 2.00855 18.0628 1.84438L17.8821 1.59517C17.6601 1.57155 17.8384 1.57155 17.6435 1.61289C17.6116 1.61998 17.5608 1.68494 17.5396 1.64714C17.5301 1.63179 17.5053 1.66013 17.4876 1.66486ZM17.4876 1.66486C17.5053 1.66013 17.5301 1.63179 17.5396 1.64714C17.5608 1.68494 17.6116 1.61998 17.6435 1.61289C17.8384 1.57155 17.6601 1.57155 17.8821 1.59517L18.0628 1.84438C17.9671 2.00855 17.9341 2.02509 17.816 2.12312L17.5219 2.08414L17.4876 1.66486ZM17.5112 1.57037L17.4876 1.66486L17.392 1.65659C17.3483 2.31327 17.7758 2.39949 18.1278 1.98611L18.1396 1.70974L17.8939 1.46762C17.6234 1.4688 17.7097 1.43337 17.5112 1.57037ZM30.5598 12.2284C30.3496 12.5166 30.3814 12.8119 30.8917 12.7221C31.0665 12.4328 31.0405 12.1576 30.5598 12.2284ZM30.6271 12.1139C30.0944 12.2969 30.3566 13.0008 30.8515 12.8379C31.2661 12.7032 31.083 11.9568 30.6271 12.1139ZM9.62164 10.9044C9.70549 10.556 9.54251 10.4946 9.54251 10.4934L9.21889 10.5064C9.17047 10.7521 9.1185 10.719 9.29684 10.9481L9.62164 10.9044ZM9.20472 8.32024L9.19763 8.67456L9.61928 8.66747L9.63581 8.25528C9.35826 8.20803 9.44684 8.17614 9.20472 8.32024ZM9.67833 9.80958L10.0953 9.78241L10.0893 9.36903L9.65825 9.37612L9.67833 9.80958ZM8.15946 7.75096C8.00592 7.97536 8.03072 7.89032 8.08387 8.12536C8.25985 8.23874 8.31064 8.21276 8.48662 8.18323L8.51024 7.78166L8.15946 7.75096ZM8.48544 11.3036C8.49016 11.2918 8.50079 11.2729 8.50434 11.2588C8.50788 11.2446 8.51142 11.2245 8.51261 11.2092C8.51615 11.1879 8.49135 10.9966 8.4878 10.9729C8.16183 10.9257 8.01065 10.9068 8.08269 11.3261C8.27521 11.4217 8.1949 11.4265 8.42639 11.3804L8.48544 11.3036ZM6.94768 10.9375L7.37405 10.9068L7.35042 10.5017L6.94531 10.5064L6.94768 10.9375ZM6.44808 9.55092C6.74217 9.17534 6.94295 9.30053 6.89453 9.77769C6.59926 9.85091 6.54493 9.88753 6.44808 9.55092ZM6.95358 8.31433L6.94177 8.59307C7.09059 8.66984 7.18389 8.68873 7.37168 8.66157L7.3705 8.26354C7.17799 8.21866 7.14255 8.18914 6.95358 8.31433ZM8.0945 18.3948L8.08151 18.7999L8.47599 18.8059L8.49371 18.4244L8.0945 18.3948ZM33.8196 5.25297C33.7357 5.62265 33.9046 5.67108 34.2164 5.56596L34.2034 5.23762C34.0499 5.18093 33.9648 5.18447 33.8196 5.25297ZM16.962 2.64161C17.0057 2.66405 16.877 2.75854 17.0896 2.6546C17.2821 2.55893 17.4026 2.41484 17.4416 2.16327C17.2124 2.20225 17.04 2.30264 16.9526 2.5176C16.8605 2.74555 16.929 2.57311 16.962 2.64161ZM18.0935 1.51014C18.3652 1.46762 18.5967 1.27392 18.5837 1.02353C18.3097 1.007 18.1006 1.24321 18.0935 1.51014ZM31.3216 13.8524C31.7007 14.0378 31.4999 14.0898 31.8047 14.1772C31.8188 13.804 31.7586 14.1028 31.5519 13.6953C31.533 13.6918 31.4007 13.6729 31.3204 13.6493L31.3216 13.8524ZM18.5152 2.70185C18.5837 2.6298 18.6026 2.72192 18.5695 2.47272C18.1974 2.28847 18.4041 2.23178 18.0829 2.18217C18.1301 2.44673 18.3108 2.59909 18.5152 2.70185ZM17.0069 1.29872L17.1829 1.41919C17.3412 1.5373 17.2089 1.4688 17.4262 1.55738L17.4108 1.34124C17.1652 1.18888 17.1959 1.12038 17.0813 1.05897C16.8286 0.92196 17.0069 1.0318 16.9396 1.05897L17.0069 1.29872ZM17.8419 0.638501L17.6825 0.719996C17.6506 1.007 17.6034 1.13455 17.7498 1.36132C17.9364 1.17707 17.8431 0.857001 17.8419 0.638501ZM17.7498 3.01247C17.8951 2.8731 17.8656 2.92979 17.862 2.64988C17.8585 2.37587 17.8809 2.44437 17.7498 2.33807C17.6353 2.47744 17.6553 2.41721 17.6506 2.6487C17.6459 2.86602 17.6837 2.91326 17.7498 3.01247ZM32.2239 13.2997L32.0787 13.3327L32.0716 13.863C32.1011 13.9859 32.0999 13.9386 32.146 14.0095C32.3314 13.8607 32.2582 13.5087 32.2239 13.2997ZM31.3062 15.3606C31.6346 15.2827 31.7704 15.1457 31.8507 14.8162C31.5968 14.8988 31.3901 15.1067 31.3062 15.3606ZM32.6574 14.5268C32.6869 14.5433 32.6515 14.6024 33.0117 14.5988C33.2101 14.5977 33.1995 14.6048 33.3247 14.5398C33.2267 14.3733 33.3401 14.4075 33.0105 14.4028C32.5724 14.3957 32.7342 14.4807 32.6574 14.5268ZM30.6767 11.9934C30.8456 11.9024 30.8114 12.0217 30.8161 11.6757C30.8208 11.3592 30.848 11.4253 30.6873 11.3261C30.5917 11.5221 30.5988 11.8162 30.6767 11.9934ZM31.0086 14.5268C31.1928 14.626 31.4976 14.6201 31.6747 14.5528C31.5861 14.3803 31.7125 14.4028 31.3511 14.4028C30.9118 14.4016 31.0818 14.4819 31.0086 14.5268ZM31.0429 12.1198C31.2531 12.1363 31.2448 12.0891 31.3736 11.9615C31.4999 11.8351 31.5472 11.8446 31.5212 11.6367C31.3251 11.678 31.0901 11.9166 31.0429 12.1198ZM31.5342 13.315C31.5283 13.0906 31.2637 12.8154 31.0476 12.8308C31.0712 13.0516 31.3086 13.2831 31.5342 13.315ZM32.146 15.6642C32.3125 15.5319 32.3196 15.1197 32.146 14.9957C32.0031 15.1953 32.0231 15.4823 32.146 15.6642ZM30.3933 12.1115C30.3413 11.9343 30.0921 11.6875 29.9137 11.6343C29.8819 11.8564 29.9008 11.808 30.0614 11.9686C30.1842 12.0914 30.1878 12.1434 30.3933 12.1115ZM30.6283 13.3327L30.6555 13.6304C30.8444 13.5217 30.8255 13.5808 30.8149 13.2654C30.8043 12.9701 30.8421 13.0729 30.698 12.9607C30.6248 13.0717 30.5999 13.1142 30.6283 13.3327ZM29.8996 13.3197C30.1122 13.2737 30.3614 13.0386 30.3838 12.839C30.163 12.8036 29.9031 13.0859 29.8996 13.3197ZM33.0034 15.3288C32.9408 15.089 32.7554 14.8705 32.4767 14.8422C32.557 15.0666 32.746 15.3016 33.0034 15.3288ZM32.994 13.6552L33.0082 13.6634C32.7531 13.7012 32.8806 13.6457 32.8381 13.7579C32.6798 13.8595 32.5003 13.9811 32.5216 14.1583C32.7401 14.1725 32.9704 13.9221 32.994 13.6552Z" fill="#A6A182"/>
</svg>
