<?xml version="1.0" encoding="UTF-8"?>
<!DOCTYPE svg PUBLIC "-//W3C//DTD SVG 1.1//EN" "http://www.w3.org/Graphics/SVG/1.1/DTD/svg11.dtd">
<!-- Creator: CorelDRAW 2019 (64-Bit) -->
<svg xmlns="http://www.w3.org/2000/svg" xml:space="preserve" width="100%" height="100%" version="1.1" style="shape-rendering:geometricPrecision; text-rendering:geometricPrecision; image-rendering:optimizeQuality; fill-rule:evenodd; clip-rule:evenodd"
viewBox="0 0 3846.02 4233.33"
 xmlns:xlink="http://www.w3.org/1999/xlink">
 <defs>
  <style type="text/css">
   <![CDATA[
    .fil0 {fill:white}
   ]]>
  </style>
 </defs>
 <g id="Layer_x0020_1">
  <metadata id="CorelCorpID_0Corel-Layer"/>
  <g id="_2352654721776">
   <path class="fil0" d="M2621.47 1895.32c329.15,-60.24 648.95,190.85 706.11,462.68 79.5,377.88 -181.59,668.25 -478.48,724.49 -826.33,156.56 -983.77,-1048.72 -227.63,-1187.17zm-735.92 725.24c138.3,1095.97 1892.96,867.18 1687.8,-269.07 -189.82,-1051.16 -1832.48,-877.05 -1687.8,269.07z"/>
   <path class="fil0" d="M728.4 3716.41c373.15,309.68 882.8,257.96 1215.07,-38.65 -7.19,-1075.3 -1280.86,-977.1 -1215.07,38.65z"/>
   <polygon class="fil0" points="1298.08,1809.46 1765.17,1807.42 1764.77,16.43 1294.8,0 "/>
   <path class="fil0" d="M925.13 2241.33c271.67,-246.77 -412.21,-1007.39 -813.7,-438.34 -173.35,245.69 -155.4,461.96 131.7,555.97 230.18,75.43 527.43,22.79 682,-117.63z"/>
   <path class="fil0" d="M728.76 928.54c156.32,117.79 218.47,210.83 172.54,473.75 -66.06,378.19 -66.22,99.77 83.02,409.41l204.41 -8.31 -1.48 -1491.98 -440.67 -3.8c-63.59,167.43 -35.49,437.31 -17.82,620.93z"/>
   <path class="fil0" d="M1712.61 2620.56c183.58,-535.27 -607.74,-748.62 -757.79,-279.3 -174.06,544.5 595.71,751.98 757.79,279.3z"/>
   <path class="fil0" d="M1874.08 1808.1c137.34,4.32 174.03,23.03 276.71,-31.33 6.28,-3.32 187.06,-128.18 190.98,-131.1l-0.24 -947.92 -468.17 -9.87 0.72 1120.22z"/>
   <path class="fil0" d="M343.41 978.46c-348.89,185.66 -121.59,737.67 289.82,568.4 344.18,-141.57 116.07,-784.4 -289.82,-568.4z"/>
   <path class="fil0" d="M3096.07 3327.86c43.69,117.63 475.96,826.29 577.48,905.47l172.47 -76.54c-11.43,-167.27 -415.04,-794.63 -524.8,-948.52 -91.33,39.05 -114.71,80.06 -225.15,119.59z"/>
  </g>
 </g>
</svg>
