<?xml version="1.0" encoding="UTF-8"?>
<!DOCTYPE svg PUBLIC "-//W3C//DTD SVG 1.1//EN" "http://www.w3.org/Graphics/SVG/1.1/DTD/svg11.dtd">
<!-- Creator: CorelDRAW 2019 (64-Bit) -->
<svg xmlns="http://www.w3.org/2000/svg" xml:space="preserve" width="100%" height="100%" version="1.1" style="shape-rendering:geometricPrecision; text-rendering:geometricPrecision; image-rendering:optimizeQuality; fill-rule:evenodd; clip-rule:evenodd"
viewBox="0 0 4246.36 4233.34"
 xmlns:xlink="http://www.w3.org/1999/xlink">
 <defs>
  <style type="text/css">
   <![CDATA[
    .fil0 {fill:white}
   ]]>
  </style>
 </defs>
 <g id="Layer_x0020_1">
  <metadata id="CorelCorpID_0Corel-Layer"/>
  <g id="_2352642884784">
   <path class="fil0" d="M3320.41 1297.4l-416.18 -417.77 172.85 -174.98 244.63 238.51c70.83,-56.89 154.77,-153.25 221.4,-219.57 69.08,-68.76 148.82,-159.23 219.7,-218.05l177.81 175.41c-45.07,52.4 -103.46,106.16 -154.14,155.7l-310.04 308.81c-42.34,42.65 -112.54,120.49 -156.03,151.94zm25.36 -1295.07c-439.76,32.23 -811.9,412.73 -777.2,899.03 31.77,445.35 416.35,810.81 901.51,776.43 443.99,-31.48 810.18,-421.19 773.77,-905.74 -33.01,-439.19 -420.05,-804.74 -898.08,-769.72z"/>
   <path class="fil0" d="M1653.67 3154.46c154.33,-22.56 280.9,95.04 299.52,225.14 23.18,161.96 -91.63,287.14 -227.8,305.29 -348.19,46.39 -427.91,-478.4 -71.72,-530.43zm-388.61 -463.54l44.3 181.91c-28.24,33.06 -129.06,95.24 -157.43,167.26l-192.04 -44.06 -86.71 208.76c54.19,29.99 104.4,67.85 161.15,93.54 -0.67,92.89 -6.85,143.81 0.97,242.16 -26.44,10.59 -145.53,79.98 -159.52,97.92l83.3 203.66 181.66 -43.87c81.97,77.66 2.95,29.92 169.07,165.4l-44.51 179.53c21.74,19.08 174,79.64 211.29,90.21l93.35 -161.35c99.37,6.5 140.86,8.23 236.67,0.08l94.11 159.15 208.92 -81.65 -43.32 -184.78c68.55,-66.13 75.35,-50.5 165.73,-164.61l178.93 42.58c22.67,-23.6 75.09,-159.54 89.31,-204.35 -36.26,-37.99 -109.76,-72.08 -159.76,-100.48 9.99,-93.12 8.63,-138.99 1.04,-233.35l158.77 -97.83c-7.95,-37.75 -67.93,-187.56 -89.16,-209.73l-177.53 44.36c-104.49,-122.8 -82.46,-82.77 -166.24,-168.35l44.1 -178.58 -204.66 -88.16c-16.58,14.89 -88.72,137.16 -97.67,160.73 -39.86,-2.75 -80.63,-9.39 -122.72,-9.27 -41.03,0.1 -81.89,8.54 -119.45,6.97l-92.67 -159 -209.28 85.2z"/>
   <path class="fil0" d="M905.59 2433.35c-24.23,118.9 -142.91,224.12 -297.7,190.31 -118.05,-25.79 -223.65,-146.89 -188.18,-300.73 70.88,-307.47 552.65,-217.34 485.88,110.42zm-646.54 -583.11l-127.72 125.25c24.13,39.4 72.69,89.61 87.69,125.46 -32.49,47.7 -57.53,106.57 -70.16,169.53l-145.39 19.45 -3.47 182.27c193.46,19.3 133.07,6.16 179.59,116.48 12.14,28.77 30.14,54.04 39.67,80.35 -29.5,35.37 -60.58,76.35 -85.95,114.44l125.19 129.18c37.72,-26.51 87.74,-74.42 128.83,-88.33 41.37,40.81 111.87,41.5 158.86,73.86 19.04,33.37 19.88,100.51 26.13,144.55l180.63 -0.24 20.53 -145.3c27.22,-13.12 70.46,-22.22 91.27,-31.06 28.31,-12.03 54.59,-29.54 80.8,-40.95 37.48,18.07 82.86,63.1 121.41,85.6 24.36,-16.07 40.45,-36.38 62.02,-57.89 23.34,-23.28 48.38,-41.16 61.69,-69.42 -21.34,-41.67 -66.98,-79.98 -83.83,-122.13 31.67,-63.69 48.12,-90.16 68.75,-168.81l147.65 -22.09c18.23,-216.48 15.56,-176.1 -147.89,-201.58 -19.77,-79.32 -39.42,-105.89 -68.8,-169.35 20.41,-45.59 58.33,-78.29 84.21,-122.13 -15.21,-28.52 -93.48,-104.93 -123.07,-124.72 -46.59,22.63 -77.83,59.51 -122.14,83.86 -27.23,-11.81 -50.59,-28.01 -81.63,-40.37 -27.73,-11.03 -63.64,-17.32 -89.48,-32.77l-22.74 -145.15 -179.01 0.57c-39.1,208.93 19.09,116.26 -125.53,183.38 -103.63,48.1 -39.67,49.8 -188.11,-51.94z"/>
   <path class="fil0" d="M3548.8 1830.46l-0.07 1771.91 -893.28 2.26 -92.52 217.89 1204.49 1.4c11.39,-224.87 0.87,-763.19 0.87,-1024.17 0,-125.43 -8.68,-974.6 4.8,-1022.18 -65.69,7.65 -139.66,45.39 -224.29,52.89z"/>
   <polygon class="fil0" points="765.44,1587.3 985.1,1586.88 984.95,631.25 2424.3,630.95 2497.77,410.6 765.24,410.88 "/>
   <polygon class="fil0" points="1400.52,2170.52 3355.12,2170.42 3357.7,1987.74 1402.88,1987.89 "/>
   <path class="fil0" d="M1399.91 1660.38l1425.14 0.12c-20.33,-26.59 -72.89,-58.27 -97.11,-81.5 -19.36,-18.58 -23.33,-28.97 -43.24,-46.04 -26.16,-22.4 -30.29,-25.63 -44.85,-52.91 -118.99,-8.68 -1181.64,-11.95 -1235.03,3.4l-4.91 176.93z"/>
   <polygon class="fil0" points="2282.38,2679.24 3358.15,2681.62 3357.85,2499.31 2283.24,2499.43 "/>
   <path class="fil0" d="M1400.08 1151.08l1051.63 -0.11c-9.46,-56.39 -28.09,-119.18 -39.34,-182.41l-1010.87 0 -1.42 182.52z"/>
   <polygon class="fil0" points="2665.42,3229.31 3357.76,3230.8 3358.12,3048.2 2665.08,3048.37 "/>
  </g>
 </g>
</svg>
