<?xml version="1.0" encoding="UTF-8"?>
<!DOCTYPE svg PUBLIC "-//W3C//DTD SVG 1.1//EN" "http://www.w3.org/Graphics/SVG/1.1/DTD/svg11.dtd">
<!-- Creator: CorelDRAW 2019 (64-Bit) -->
<svg xmlns="http://www.w3.org/2000/svg" xml:space="preserve" width="100%" height="100%" version="1.1" style="shape-rendering:geometricPrecision; text-rendering:geometricPrecision; image-rendering:optimizeQuality; fill-rule:evenodd; clip-rule:evenodd"
viewBox="0 0 4490.02 4233.34"
 xmlns:xlink="http://www.w3.org/1999/xlink">
 <defs>
  <style type="text/css">
   <![CDATA[
    .fil0 {fill:white}
   ]]>
  </style>
 </defs>
 <g id="Layer_x0020_1">
  <metadata id="CorelCorpID_0Corel-Layer"/>
  <path class="fil0" d="M1577.97 2454.32c-37.84,-29.66 -11.62,-16.49 -9.08,-20.01 -2.83,0.99 -25.56,7.93 -17.9,18.43l-90.08 -115.81c-1.94,-5.5 -0.07,-7.52 0.08,-10.52 12.33,-12.43 -40.13,-17.12 34.28,-12.4 23.5,1.49 31.64,20.87 41.99,35.65 14.1,20.13 6.55,17.26 36.29,31.73 11.63,5.68 11.19,-11.11 22.14,22.88 0.97,2.98 3.23,15.74 2.85,17.88 -5.03,28.47 -0.29,12.76 -20.57,32.17zm17.99 -964.41c57.76,6.14 92.11,43.73 96.35,96.17 -61.5,-9.26 -23.1,-3.43 -67.07,-46.16l-29.28 -50.01zm-143.92 -944.58c6.25,-27.56 -3.35,-18.64 22.22,-46.32l7.99 -7.76c37.11,-89.27 2.92,-67.24 56.43,-86.53l4.34 45.85c-0.17,1.09 -0.67,3.44 -0.92,4.53 -9.4,42.37 -20.18,39.61 -30,45.3 25.72,37.04 -35.18,44.27 -60.06,44.93zm218.49 -274.03c2.46,46.52 -3.28,65.29 -51.42,72.56 -1.81,-40.44 -5.59,-38.62 10.91,-66.99l40.51 -5.57zm64.38 -114.94l-37.75 17.22 -48.54 46.7c-96.58,78.93 -71.24,76.8 -120.59,123.74 -22.63,22.88 -32.56,55.4 -57.67,70.67 -18.02,40.03 -34.89,68.69 -56.1,110.9l-37.86 89.03c-11.85,20.7 -4.43,9.93 -17.2,21.97 -35.79,-41.95 -86.17,-59.58 -112.55,-88.86 -159.05,-61.86 -210.67,-96.07 -415.27,-84.14 -115.58,19.54 -154.6,32.43 -252.87,75.67 5.88,39.48 12.35,3.53 -8,41.06 67.57,10.57 -3.25,-7.83 -8.99,19.03 14.86,21.58 -30.87,-6.36 17.76,15.39 2.28,1.02 5.16,1.78 7.42,2.51 0.29,0.08 24.41,0.12 26.71,0.04 -2.92,0.68 -15.58,4.98 -21.36,6.61l32.35 17.39c-45.56,16 -111.6,22.34 -122.12,66.37 -11.59,48.54 -15.83,-1.2 2.48,21.47l40.82 -29.18c11.07,-8.27 21.45,-15.55 36.58,-25.93 26.77,-18.38 47.43,-31.14 82.2,-41.45 67.38,-59.17 278.43,-64.54 386.33,-35.69 77.23,20.64 165.46,66.43 225.75,115.23 24.3,19.69 32.39,37.42 57.01,58.15 5.15,225.29 -27.8,331.33 97.84,577.84 26.57,52.12 76.99,107.49 90.56,148.19 22.64,8.4 80.33,73.13 85.04,101.63l-0.32 588.51c-103.03,-1.83 -359.36,-39 -244.06,112.19 12.65,16.57 7.07,6.31 12.56,18.85 45.96,24 83.46,79.43 121.38,117.54 20.9,21.02 36.16,39.32 57.49,59.38 29.6,27.85 31.75,22.1 62.04,61.7 16.73,21.82 52.09,50.03 76.48,63.15l2.36 -13.93c8.1,-4.6 26.84,11.15 -4.88,-23.13l-22.56 -18.65c-1.04,-1.13 -3.02,-3.3 -4.2,-4.55 -68.79,-73 -50.17,-90.05 -21.3,-136.32 0.8,-1.28 2.8,-3.83 3.43,-6.07 -31.96,-34.59 -63.4,-55.69 -84.24,-95.36 -20.28,-9.38 -9.27,-3.95 -23.58,-16.34 182.53,-21.69 185.43,65.29 185.43,-221.35 0,-133.7 4.72,-271.95 0.07,-404.87 101.63,42.49 153.17,111.64 374.1,145.69 171.62,26.45 311.43,8.21 464.41,-44.89 -9.94,-21.42 13.04,-23.81 -70.2,-10.81 1.19,-2.95 3.17,-10.26 3.74,-8.8 0.56,1.39 2.62,-6.37 3.31,-8.62l10.27 -44.53c7.25,-14.05 43.68,-40.86 78.99,-13.98 25.93,19.75 -0.51,20.65 42.36,23.74l12.26 -55.18 94.3 -9.56c-16.75,-38.43 -0.1,-7.53 -36.1,-26.94l11.1 -24.76c5.36,-13.91 3.28,11.8 5.8,-28.42 -29.46,10.87 -27.66,15.49 -59.94,26.77 -34.98,64.3 -315,122.55 -422.82,121.31 -119.78,-1.38 -235.97,-29.75 -338.8,-80.09 -22.15,-10.85 -67.84,-31.36 -79.53,-50.41 -85.64,-35.94 -248.51,-204.96 -280.56,-306.17 -48.6,35.24 6.07,74.44 12.71,132.16 -54.62,-5.73 -32.87,4.52 -51.09,-33.12 -6.48,-13.39 2.67,-2.89 -10.85,-23.68 -73.1,-112.46 -16.17,-21.39 -37.03,-78.16 -2.56,-6.96 -32.76,-51.39 -6.05,-67.86l17.1 -4.06c39.43,21.27 -3.84,42.26 34.07,11.65 -0.35,-31.65 -29.72,-105.02 -37.75,-148.36 -11.26,-60.77 -16.75,-122.6 -13.97,-184.75 4.07,-91.19 29.45,-261.29 85.19,-311.65 2.55,-23.34 7.17,-39.71 21.28,-47.84 25.64,-65.68 114.93,-175.47 159.77,-196.74 0.9,-1.63 2.55,-3.79 3.18,-4.59l60.16 -61.82c-15.19,-18.76 15.08,-16.02 -21.46,-14.93 -12.34,20.53 -18.62,29.01 -74.03,8.22 8.39,-30.01 -11.72,-26.81 9,-26.94l12.2 -10.76c1.88,-0.93 4.41,-2.63 6.53,-3.35 2.03,-0.69 4.68,-1.1 6.85,-1.51l14.31 0.84c15.67,0.16 30.3,3.58 49.67,-12.43 48.83,-40.35 -5.1,-55.6 63.27,-53.79 -62.87,4.14 -21.58,7.46 -59.25,-13.56 -31.95,2.66 -12.77,-3.94 -44.58,20.37zm1664.88 321.99c-20.51,18.86 -116.09,48.84 -148.53,66.73 -51.43,28.36 -90.16,51.45 -129.61,90.57 5.26,27.06 -18.29,18.68 21.73,29.92 47.14,13.25 12.63,-39.77 107.59,-48.18 -9.28,55.94 -10.62,23.32 -17.76,46.18 -5.84,18.66 -2.5,-4.63 -2.95,19.45l4.62 12.25c23.69,-20.16 41.11,-34.93 69.85,-38.17 11.81,-14.23 0.04,-4.87 20.98,-18.61 1.24,-0.82 16.86,-8.61 18.35,-9.28l144.84 -43.86c97.67,-15.39 153.48,5.62 232.41,1.63 0.61,-0.29 16.6,-5.21 17.89,-8.85 1.25,-3.52 4.03,-4.24 6.51,-5.73 -24.08,-4.69 -23.45,-4.97 -51.73,-8.98 30.24,-9.79 13.85,-10.73 47.25,-0.1 -39.87,-21.72 -11.19,25 -16.38,-16.55 -2.01,-16.06 10.7,-9.93 18.53,-12.89 -23,7.5 -14.86,8.28 -34.06,8 -28.92,-0.41 -11.95,-2.21 -26.49,-12.53 131.88,-14.03 -3.44,-41.3 77.78,-23.74 36.5,7.89 -0.23,29.13 -3.13,31.85 -14.57,13.7 -4.58,-7.91 -16.65,16.91l13.66 4.85c30.48,4.68 30.48,-6.9 58.95,-15.29 1.72,-0.5 4.47,-0.93 6.1,-1.34 34.93,-8.7 31.74,-8.77 81.32,27.6l39.97 25.88c31.02,16.59 23.79,12.87 47.2,40.41l25.59 38.29c5.65,10.84 19.01,8.09 17.48,20.53 -6.04,49.46 -19.31,14.33 -19.58,14.34l-31.9 -3.69c2.45,-1.09 7.91,0.99 11.69,-35.89 -2.71,1.27 -12,4.52 -14.23,5.54l-18.92 10c-0.96,-1.7 -7.03,5.32 -3.94,5.24l7.37 -10.49c-9.07,12.44 -18.45,2.29 9,8.91 -15.54,-21.97 -57.24,-75.04 -81.14,-76.56 -2.38,-0.15 -10.69,-0.35 -13.4,-0.62 -14.92,-1.51 -8.81,-1.94 -26.39,-5.07 -28.03,-5 22.67,-13.29 -31.55,-1.92l-18.09 8.46c-2.21,-2.81 -7.07,2.9 -9.25,5.8 57.91,15.25 101.89,44.33 146.05,77.01 27.68,20.47 31.61,27.35 55.52,52.01 24.69,25.48 38.57,28.68 51.32,62.25 110.79,88.03 181.05,408.58 42.96,642.25 -21.82,36.92 -87.48,139.42 -134.37,149.65 -14.79,21.83 -14.7,21.91 -37.66,38.11 -18.03,12.71 -25.15,15.9 -46.66,27.54 12.1,24.15 -34.57,19.54 30.69,19.54 18.92,-31.24 68.89,-15.51 113.22,-67.92 80.31,-94.95 81.53,-60.79 66.78,-58.01l7.7 -56.91c6.24,-10.7 -6.92,-10.13 29.58,-19.68l22.15 -3.17c4.31,-0.67 8.28,-0.89 12.44,-1.1 8.23,21.95 2.29,9.11 6.82,36.2l6.59 32.54c63.85,-84.75 94.95,-195.46 116.04,-316.09 2.58,-52.42 4.85,-100.01 -1.11,-152.52 -4.68,-41.12 -23.27,-90.88 -18.54,-126.2 -4.72,-5.9 -6.37,-8.02 -12.6,-19.24l-21.88 -51.75c-42.84,-104.13 -85.45,-137.56 -105.47,-179.63l-1.89 -4.97c-20.41,-11.2 -10.55,-1.8 -28.8,-21.22 -15.95,-16.99 -9.59,-10.73 -19.13,-29.46 -19.98,-6.42 -16.82,-4.87 -36.99,-22.13l-93.67 -68.5c-48.58,-28.31 -93.89,-48.69 -149.79,-65.56 -211.43,-63.84 -276.43,-11.18 -390.28,-14.04zm85.06 2234.86c-16.89,9.83 -5.47,-0.02 0.09,8.94l19.4 -9.6c13.46,-7.07 4.69,-8.73 25.53,-12.1l17.94 66.77c-2.38,0.55 -5.57,0.09 -6.6,3.19l-12.1 7.54c-43.21,27.94 8.34,6.33 -26.23,16.16 -24.33,-30.01 -13.04,-49.18 -13.93,-64.28 -0.09,-1.65 -0.59,-4.47 -0.76,-5.88 -0.26,-2.13 -2.16,-8 -3.34,-10.74zm-197.9 -923.92c11.67,20.14 116.16,48.07 157.37,56.2 79.2,15.59 131.45,8.59 208.89,12.96 17.72,164.65 -0.09,338.51 -38.54,489.32 -21.66,84.96 -109.11,323.92 -155.59,360.4 -16.44,48.95 -68.5,123.42 -104.14,147.75 -3,22.92 7.06,1.11 -10.81,30.31l41.99 5.45c-0.34,-1.61 -0.82,-14.71 -0.33,-17.08l8.16 -26.42c5.98,32.53 3.36,33.82 9.95,62.96l44.97 -35.98c-28.11,80.5 -7.07,20.67 0.04,44.89l10.39 -17.2 2.42 4.49c14.57,-7.25 3.47,-0.58 17.95,-10.46l11.95 -8.68c1.42,-1.03 3.93,-3.22 5.97,-4.74 3.25,-20.38 -1.84,-4.11 8.29,-23.95 12.9,-25.3 62.52,-92.35 106.85,-180.6 141.66,-281.95 173.9,-514.97 157.13,-838.23l146.76 -60.63c-20.72,-18.66 -3.99,-9.34 -32.84,-16.29 -7.96,-1.93 -23.03,1.22 -30.09,1.29l7.5 -29.88c3.18,-16.06 -1.83,-14.04 -16.54,-38.37 -17.72,-1.8 24.2,-21.39 -24.69,3.58 -67.42,1.38 -143.38,46.29 -254.39,41.98 -81.26,-3.16 -165.58,-24.7 -230.57,-55.64 -6.59,19.55 -19.84,11.73 -32.29,34.26l-8.4 32.44c-7.4,53.02 8.56,22.8 -7.36,35.87zm-2040.01 -165.7c-12.81,21.99 -74.37,60.74 -109.09,61.23 -69.76,66.89 -321.29,75.88 -450.33,14.44 -76.43,36.69 -70.57,-29.43 -143.99,-2.46 1.75,6.76 -7.81,49.79 26.98,17.89l-0.04 25.98c16.76,5.82 39.47,12.49 53.97,17.46 16.81,34.59 -9,-37.15 -2.68,10.44 0.05,0.36 0.13,2.46 0.27,2.85l24.96 19.12c1.94,0.98 4.89,1.87 6.73,2.82 33.49,17.2 48.91,-7.12 13.97,18.02l50.85 25.35c-7.23,131.03 -11.35,226.33 4.61,353.86 7.5,59.98 44.59,255.9 69.86,288.78l28.92 16.9c1.21,0.81 3.74,2.26 5.03,2.83 25.23,10.98 4,-15.5 47.31,-1.83l-8.76 -71.69c4.41,1.36 19.15,9.76 20.35,10.4 24.19,13 -14.02,10.01 7.02,3.32 6.65,-67.04 -82.72,-217.89 -60.25,-581.4 93.68,-2.23 181.01,-0.42 267.19,-26.37 60.75,-18.31 167.01,-59.69 195.05,-98.72 -15.59,-14.4 -29.37,-26.49 -31.18,-46.85 -0.3,-3.43 -0.98,-4.81 -0.55,-7.15 21.59,-12.28 39.69,0.29 98.86,-9.09 -2.26,-74.94 8.61,-38.26 -35.12,-55.37 -1.93,-0.76 -10.91,-4.56 -18.81,-7.5 -5.5,5.47 -14.14,22.21 -29.45,25.61 -32.52,7.22 -13.14,17.44 -31.68,-8.87zm310.44 1739.2c198.56,96.02 415.56,157.05 668.09,160.64 222.57,3.16 513.67,-56.26 682.9,-151.8l38.24 -84.59c-42.54,18.1 -12.11,-5.52 -59.28,26.58 -32.4,22.05 13.06,8.61 -16.67,0.47 -1.83,-0.5 -16.1,-4.2 -24.84,-4.55 -45.62,-1.83 -10.16,16.75 -65.43,-5.46 -38.04,8.03 -88.1,30.29 -128.07,42.35 -340.66,102.71 -679.55,72.42 -998.62,-68.54l-11.77 14.44c-27.76,37.17 -18.55,27.54 -10.17,51.12l-71.71 -9.54 -2.67 28.88zm1169.25 -1798.19l-9.3 7.01c-2.52,40.22 -0.44,14.51 -5.8,28.42l-11.1 24.76c36,19.41 19.35,-11.49 36.1,26.94l-94.3 9.56 -12.26 55.18c-42.87,-3.09 -16.43,-3.99 -42.36,-23.74 -35.31,-26.88 -71.74,-0.07 -78.99,13.98l-10.27 44.53c-0.69,2.25 -2.75,10.01 -3.31,8.62 -0.57,-1.46 -2.55,5.85 -3.74,8.8 83.24,-13 60.26,-10.61 70.2,10.81 37.16,-16.5 71.5,-28.8 105.16,-46.44 29.37,-15.39 69.64,-43.81 95.39,-52.92l0.56 565.39c11.36,45.96 -1.86,7.55 5.77,20.67 10.3,17.72 3.74,8.07 11.67,12.69 32.08,-13.78 60.64,-6.27 84.18,2.53l76.28 -35.71c28.08,1.51 40.33,-17.55 74.18,-0.22 -15.23,19.13 1.02,4.04 -28.95,15.25 -5.47,2.05 -19.26,6.77 -23.25,9.1l-17.37 12.84c-3.22,2.34 -6.39,4.7 -8.89,7.74 72.72,14.21 54.63,2.91 67.85,31.65 -45.66,-20.32 -29.55,13.04 -35.39,17.83 -105.15,86.37 -28.4,43.08 -79.24,82.6l-24.74 18.35c-18.36,35.98 -12.09,6.18 -0.48,29.47 0.82,1.65 -2,51.42 50.11,-4.82l21.17 -32.05c0.74,-0.85 2.65,-2.67 3.42,-3.42l18.01 -13.91c0.8,-0.71 2.82,-2.56 3.62,-3.31 15.11,-14.44 28.35,-38.73 47.33,-48.04 46.16,-22.64 33.23,0.3 53.34,-53.22 -65.53,-95.64 12.14,-34.25 40.93,-36.19l42.89 -11.83c9.27,-9.02 9.28,-26.77 0.42,-46.79 -13.84,-31.28 -3.99,-15.66 -37.38,-29.16l-229.83 -0.87c-0.1,-58.49 -7.62,-571.4 4.97,-603.93 9.51,-24.57 68.64,-75.1 88.7,-107.47 -32.65,-17.46 -19.42,-42.74 -2.02,-60.58 28.08,-28.79 41.2,-28.61 29.2,-68.71 -2.86,-0.56 -6.5,-0.99 -8.71,-0.92l-16.15 0.14c-38.33,8.35 -18.55,31.85 -55.86,62.29 -55.98,45.65 15.48,-26.77 -18.35,12.81l-17.26 31.34c-35.98,52.75 -18.68,-40.51 -28.55,42.27 -3.09,25.98 23.87,38 -0.03,0.81 -18.75,21.94 -46.62,28.9 -46.62,28.89 -0.98,-1.82 -4.4,1.07 -6.28,2.27 -3.82,26.87 -17.58,24.63 -0.08,26.99 12.85,29.61 -7.51,0.03 26.01,19.47l-4.53 52.44c-1.24,0.58 -3.57,0.33 -4.09,0.37l-15.36 1.29c-20.11,0.19 9.03,12.04 -15.03,-1.87 -19.17,-11.09 -8.56,-20.13 -33.57,-40.75l-16.77 -11.03c-31.13,-21.16 6.08,13.09 -11.25,-8.2zm1679.79 171.32c68.83,22.56 20.87,297.44 49.9,464.51 -75.23,-2.26 -59.91,24.85 -59.85,-224.83 0.01,-48.28 2.45,-89.81 4,-135.42 1.39,-40.92 -50.94,-122.89 5.95,-104.26zm-85.03 34.34l47.86 16.44 0.09 413.78c-106.82,25.81 -277.07,25.12 -302.56,78.09 -33,68.56 -35.12,227.3 -80.48,299.75 27.23,0 20.26,-6.72 20.26,20.8 18.64,-7.23 26.34,6.71 30.76,13.68l26.02 54.58c0.49,1.32 1.11,4 1.52,5.23 0.35,1.07 0.79,3.64 1.11,4.62 0.28,0.89 0.67,3.26 0.96,4.09l25.11 31.37c21.89,15.75 -25.76,-10.46 16.74,9.46l-13.65 -14.56c-4.28,-4.38 -43.8,-32.98 -16.56,-42.63l36.03 48.19c2.46,0.04 6.55,-2.97 7.38,-0.63l16.24 -4.44c0.15,-14.92 16.7,20.87 -5.63,-3.83 29.11,42.42 -15.26,10.54 31.56,15.8 4.95,-12.25 -2.92,-16.97 7.75,-14.72l-74.44 -64.09c8.89,-83.56 59.34,-189.25 70.37,-288.67 73.79,-6.78 156.83,-25.89 231.62,-37.24 113.48,-17.2 86.53,-73.61 86.46,-186.81 -0.05,-89.95 -0.01,-179.9 -0.01,-269.86 0.02,-118.29 30.44,-158.9 -74.56,-192.31 -21.12,23.11 0.51,15.85 -35.26,17.78 -0.06,0.01 -31.9,-8.92 -36.49,-9.98 -29.1,-6.74 -51.15,-4.14 -81.08,-3.84 -5.28,25.37 -16.53,34.92 -15.83,57.45 57.86,39 64.01,-14.14 78.71,42.5zm-3364.13 2024.25c-36.47,-3.19 -30.71,-8.04 -53.92,-28.93 0.04,-0.18 5.2,-25.67 7.06,-29.5 13.35,-27.46 -1.2,-2.46 18.83,-22.59l37.04 62.02c-2.56,70.87 28.1,-33.04 -9.01,19zm-151.61 -483.85c34.21,70.69 129.08,116.81 150.54,158.59 12.86,25.04 -51.06,190.65 -74.35,214.44l-18.34 85.02c30.99,35.91 7.61,21.99 59.95,48.88 23.5,12.07 52.49,29.54 74.55,42.41 50.62,29.54 92.92,55.84 142.22,82.73 162.34,88.53 215.66,163.09 291.42,97.61l1.91 4.1c20.84,-37.72 21.45,-36.19 51.33,-68.82 -2.23,-0.89 -5.6,-0.82 -7.16,-0.96 -1.51,-0.13 -5.1,-0.69 -6.93,-0.82 -84,-5.83 -43.1,-2.21 -63.73,-19.32 10.89,-27.92 3.53,-13.08 20.03,-44.04 13.32,-24.99 19.47,-38.46 43.29,-56.91 13.28,-10.28 -14.08,27.91 14.33,-10.24 14.24,-19.13 15.47,-32.68 -13.89,-36.24 -15.21,19.63 -6.74,15.28 -29.28,24.46 -9.61,24.76 -53.9,80.15 -74.85,101.49 -34.01,-7.36 -179.72,-91.13 -199.29,-118.51 -50.67,-5.64 -113.45,-65.2 -166.33,-83.51 7.12,-54.61 43.38,-128.71 63.21,-182.48 27.34,-74.1 52.3,-130.54 -30.84,-161.1 -3.27,35.08 -15.01,13.08 7.86,43.12 25.28,33.21 20.45,4.98 23.95,2.3 -19.17,8.26 -2.35,7.34 -18.91,0.04 -58.31,-25.68 17.08,-41.11 -35.15,-29.8l22.25 35.34c1.64,2.03 3.74,3.98 5.34,5.97 1.84,2.27 4.14,5.21 5.71,7.18l-49.95 -9.83c28.19,2.44 19.64,18.09 16.65,44.98 -23.16,-13.03 -32.25,-8.43 -35.94,-49.23 -48.81,3.73 11.32,4.96 -40.35,-23.98 -18.24,-10.23 -29.08,-15.82 -31.29,-52.68 -0.27,-4.61 -0.67,-6 -0.27,-8.95 26.22,5 15.84,9.87 50.69,0 -7.94,-16.45 0.91,0.7 -13.58,-17.1l-33.23 -41.6c-1.02,-2.81 -9.59,-11.84 7.71,-27.92 -17.44,-23.42 -23.78,-22.04 -44.19,-42.74 -12.67,-12.85 -23.74,-30.28 -33.68,-43.91l-43.01 3.16c-17.67,9.55 -19.85,-14.82 -15.52,43.76 2.97,40.01 26.28,42.55 43.76,45.39l-16.64 39.72zm730.29 409.03c-14.68,33.38 -43.58,54.64 -65.12,87.4 29.36,3.56 28.13,17.11 13.89,36.24 -28.41,38.15 -1.05,-0.04 -14.33,10.24 -23.82,18.45 -29.97,31.92 -43.29,56.91 -16.5,30.96 -9.14,16.12 -20.03,44.04 20.63,17.11 -20.27,13.49 63.73,19.32 1.83,0.13 5.42,0.69 6.93,0.82 1.56,0.14 4.93,0.07 7.16,0.96 16.04,-24.34 17.08,-22.68 38.37,-48.65 23.93,-29.2 12.63,-32.14 51.08,-50.68 4.72,-18.98 0.11,-10.53 13.48,-34.91l260.02 69.63c0.73,-0.73 -12.81,-40.94 42.09,-12.64 18.09,9.32 22.11,77.96 33.09,129.89l11.31 69.6c8.19,40.76 12.17,9.87 21.4,99.49 28.89,-10.32 3.14,-4.33 26.61,1.35l505.55 8.41c37.82,-7.94 27.21,16.65 16.59,-18.66 55.99,-23.1 17.18,15.87 -5.01,-16.38l-22.02 -36.11c-47.98,17.83 -28.44,17.29 -98.61,16.64l-286.47 0.77c-17.07,3.93 -11.33,4.08 -19.68,8.46 -2.62,1.39 -10.18,6.58 -12.42,7.95l-14.63 -54.87c-28.82,-25.63 -31.75,-110.2 -38.25,-149.51 -7.37,-44.51 -7.62,-116.25 -37.26,-142.59 -29.29,-26.04 -218.32,-44 -275.3,-76.61 -73.22,-17.06 -80.37,-40.07 -158.88,-26.51zm509.69 395.22l14.63 54.87c2.24,-1.37 9.8,-6.56 12.42,-7.95 8.35,-4.38 2.61,-4.53 19.68,-8.46l286.47 -0.77c70.17,0.65 50.63,1.19 98.61,-16.64l22.02 36.11c22.19,32.25 61,-6.72 5.01,16.38 10.62,35.31 21.23,10.72 -16.59,18.66l-505.55 -8.41c-23.47,-5.68 2.28,-11.67 -26.61,-1.35 -9.23,-89.62 -13.21,-58.73 -21.4,-99.49l-11.31 -69.6c-10.98,-51.93 -15,-120.57 -33.09,-129.89 -54.9,-28.3 -41.36,11.91 -42.09,12.64l17.98 4.43c20.32,18.94 17.86,4.47 28.32,74.98 39.74,268.21 22.7,242.13 178.52,241.81l341.83 0c163.4,0.35 136.19,34.67 190.39,-309.76l-36.45 -5.58c-11.59,-1.29 -27.9,-2.3 -40.3,-4.05 -2.17,-34.02 -8.86,-71.96 17.41,-84.87l175.29 -26.28c10.58,-0.67 34.88,-1.28 44.12,2.42 32,12.78 17.53,6.91 36.28,33.43 -18.81,11.44 -32.75,21.8 -70.47,17.3 -39.08,-4.67 20.53,-9.72 -36.08,-4.25 -31.62,3.05 -4.9,0.04 -46.28,14.29 19.27,10.3 0.13,5.75 26.7,7.5 3.38,0.21 33.2,-5.02 36.17,-5.37 -73.53,22.82 -39.13,0.25 -21.95,23.6 59.57,10.93 139.06,-34.9 201.9,-48.44l97.34 114.45c16.23,22.14 3.38,22.36 28.12,24.94 52.66,-29.75 37.24,-48.37 30.35,-64.8 -55.02,-18.99 2.08,2.14 -45.11,12.62 -21.09,-17.48 -35.88,-60.04 -11.75,-91.74 44.75,13.1 26.22,22.18 63.05,23.19 -13.68,-38.47 -68.53,-90.25 -96.49,-127.47 -46.39,43.14 0.53,49.63 -39.81,68.6 -39.98,18.82 -28.19,-3.81 -28.21,-3.82 -2.66,-1.39 -15.49,-3.49 -18.72,-16.31 -10.16,-40.3 8.83,-18.94 15.82,-63.2 -399.64,115.03 -374.84,51.03 -402.15,223.85 -9.31,58.88 -19.4,112.14 -28.69,173.99l-409.33 -1.56zm132.63 -3801.08l4.72 126.24c-99.1,12.21 -172.71,63.09 -215.61,126.14 -75.16,110.46 -18.96,176.03 -6.65,268.66l17.98 12.42 4.51 18.16c43.42,34.01 78.02,76.99 169.73,95.79 109.89,22.51 127.46,1.13 238.65,44.61 0.64,-35.11 6.48,-12.57 -4.15,-37.65 -45.69,-17.16 -90.93,-27.68 -153,-27.19 -97.9,0.77 -76.08,-16.16 -143.79,-26.78 5.76,9.64 -43.43,-24.81 -51.42,-72.93 -2.94,-17.76 -2.51,-14.1 -2.51,-35.02 70.54,10.94 34.92,15.36 71.88,52.51 15.74,-17.69 37.76,-4.84 53.97,1.47l-11.33 30.04c-0.21,0.57 -1.19,2.48 -1.07,3.78 119.65,16.4 135.82,-27.2 229.25,15.94 2.34,1.08 4.54,2.23 6.91,3.26 4.93,2.16 18.06,6.7 20.87,7.78 43.02,16.42 34.69,28.81 77.99,25.27 -15.1,-23.9 -10.77,-22.02 -37.68,-38.37 -22.91,-13.91 -29.2,-10.37 -48.1,-33.87l-74.85 -12.54c-69.22,-20.51 -126.66,5.6 -200.03,-35.46 -34.9,-19.54 -111.87,-102.98 -66.3,-161.91 0.64,-69.9 71.49,-89.69 140.41,-111.41 16.08,-13.58 1.8,-6.23 27.6,-13.28 49.24,-13.45 43.52,3.93 44.31,4.36 50.11,-36.28 1,-40.47 71.96,-36.93l-0.35 -6.09c-0.02,-0.38 -0.25,-2.87 -0.26,-3.25 -1.18,-41.7 -15.15,22.88 0.61,-10.15 21.33,10.37 22.26,4.26 35.06,4.02 30.91,-0.59 26.88,15.58 27.95,17.9 65.26,0 18.52,4.66 31.01,-19.77 -48.31,-28.46 -81.17,-39.68 -137.54,-51.93 -1.63,-91.57 22.99,-171.23 -86.04,-159.24 -12.42,16.72 -16.22,19.87 -34.69,35.42zm778.54 242.24c78.36,157.43 111.12,330.04 71.64,522.5 -19.05,92.88 -45.96,153.82 -85.19,229.79 -38.6,74.75 -84.78,121.32 -129.34,170.32l-87.28 85.92c17.33,21.29 -19.88,-12.96 11.25,8.2l16.77 11.03c25.01,20.62 14.4,29.66 33.57,40.75 24.06,13.91 -5.08,2.06 15.03,1.87l15.36 -1.29c0.52,-0.04 2.85,0.21 4.09,-0.37l4.53 -52.44c-33.52,-19.44 -13.16,10.14 -26.01,-19.47 -17.5,-2.36 -3.74,-0.12 0.08,-26.99 1.88,-1.2 5.3,-4.09 6.28,-2.27 0,0.01 27.87,-6.95 46.62,-28.89 23.9,37.19 -3.06,25.17 0.03,-0.81 9.87,-82.78 -7.43,10.48 28.55,-42.27l17.26 -31.34c33.83,-39.58 -37.63,32.84 18.35,-12.81 37.31,-30.44 17.53,-53.94 55.86,-62.29l16.15 -0.14c2.21,-0.07 5.85,0.36 8.71,0.92 12,40.1 -1.12,39.92 -29.2,68.71 -17.4,17.84 -30.63,43.12 2.02,60.58 34.75,-52.35 59.78,-84.4 91.87,-145.56 37.41,-71.3 45.17,-120.5 68.21,-161.17 0.92,-1.62 2.6,-4.45 4.13,-6.54 -7.1,-52.21 20.93,-125.91 23.53,-186.1 3.31,-76.62 -2.85,-136.2 -8.96,-209.75 34.2,-17.74 38.84,-30.58 67.19,-60 -0.42,-3.57 2.29,-8.75 2.11,-10.59 -1.12,-11.8 -13.85,-15.13 -13.97,-15.22l-44.93 35.98c-20.81,-20.76 -45.99,-0.29 -85.47,7.65 -7.76,-40.3 -15.04,-20.82 -27.53,-76.93l51.42 -2.77c10.98,-18.19 28.2,24.39 4.4,-25.08l-0.54 -23.81c-24.12,-60.45 -51.61,-119.83 -86.36,-170.13l-22.61 39.16c39.56,41.41 27.91,7.71 40.67,62.93l2.15 -4.17c11.64,38.39 -30.95,-35.76 18.11,20.04 1.28,1.45 3.37,3.22 4.53,5.11 17.45,28.13 9.17,12.29 11.19,50.97 -64.16,-7.62 -42.14,8.73 -44.08,-37.21l-12.45 39.82c-1.66,-2.44 -3.95,-5.11 -5.34,-7.04l-28.08 -49.45c-20.1,-8.04 -21.41,7.78 -24.32,10.65zm503.71 2883.14c10.42,-48.3 58.18,-84.32 121.32,-85.34 -8.97,38.99 -12,40.2 -39.84,55.84 -45.26,25.42 -3.82,29.8 -81.48,29.5zm168.35 -141.37c3.31,-52.51 -7.52,-19.41 21.23,-62.06 34.93,-51.87 31.29,-73.01 84.43,-72.82 0.26,3.01 0.33,6.54 0.39,9.05l0 43.07c-24.13,15.58 -10.39,-8.71 -31.83,27.57l-27.67 39.98c-29.66,22.58 10.32,7.84 -46.55,15.21zm425.35 -198.35c-16.29,43.17 -51.66,95.86 -72.5,135.45l-65.09 -25.29c-37.03,21.92 -12.1,4.67 -9.79,30.27 -21.68,-8.64 6.08,-10.59 10.88,32.03 -64.6,16.25 -49.95,5.38 -107.19,-12.79 -2.74,-0.86 -11.23,-3.15 -13.97,-3.97l-36.75 -14.38c-15.1,-9.87 -6.16,-3.94 -16.55,-14.89 74.52,-52.16 95.52,28.79 137.38,-30.14l-143.92 -53.51c-72.6,-3.2 -73.43,18.6 -104.51,60.13 -20.05,26.77 -47.74,47.68 -71.25,72.57 -47.79,50.58 -95.29,101.87 -156.97,139.46 -7.32,62.65 -19.38,35.86 9.54,107.83 10.59,26.36 32.73,81.55 38.32,108.32 5,-33.07 -2.37,-41.36 -0.77,-80.78 0.53,-0.28 21.69,2.45 23.99,-24.35 1.27,-14.78 -7.05,-27.85 0.88,-64.82 29.09,12.31 38.23,-0.08 26.98,88.55l40.73 -4.71 -20.7 -66.51c53.96,-52.23 161.03,-152.27 204.81,-207.1 43.98,8.4 114.34,28.81 143.46,57.18l0.51 -3.88c137.08,33.3 138,93.97 216.57,-43.9l50.95 -79.01c0.79,-3.53 3.3,-3.88 5.05,-5.71l25.24 -44.11 -4.99 -17.25 -12.08 -4.15c-42.77,-17.05 -11.04,11.32 -19.98,-12.1 0.81,0.46 15.3,-36.67 -0.7,9.55l-3.38 6.77c-0.35,0.67 -1.93,2.8 -2.32,3.49 -28.74,51.23 -13.01,86.68 -73.43,130.53 -2.53,1.83 -7.25,7.96 -9.21,5.7 -2.07,-2.39 -6.47,4.04 -9.81,5.88 5.12,-29.41 3.2,-9.55 -26.98,-26.99 17.87,-55.96 13.01,-1.01 58.69,-95.68l22.06 -54.1c15.91,-39.56 25.36,-60.59 63.16,-39.02 23.06,-55.5 17.65,-2.76 19.95,-64.83 0.9,-23.95 2.71,-56.01 -12.16,-73.31 -35.99,60.57 -68.26,125.46 -104.15,173.57zm-3362.82 -1997.84l27.77 54.14c49.84,20.8 93.92,51.15 166.14,56.14 77.99,5.37 129.33,10.64 151.88,80l11.91 3.13 10.62 1.71c40.41,2.65 13.68,-24.12 50.51,-13.83 1.48,54.39 -2.27,36.98 -9.2,72.04l3.92 52.94c-2.16,33.33 6.83,27.03 -20.44,29.76 -17.67,1.77 -18.55,-6.93 -32.68,-16.11l-13.6 -8.14c-7.23,68.39 31.24,51.79 -49.77,75.26 -25.5,7.38 -35.53,9.07 -61.03,27.02 -1.75,1.25 -3.87,2.98 -5.45,4.22l-12.28 11.63c-9.03,10.14 -6.58,-6.06 -6.4,12.32 7.16,3.29 41.7,10.89 24.12,53.71 -19.69,47.94 27.25,-9.42 -16.8,18.34 -16.85,10.61 -8.57,4.12 -34.3,8.82l-8.79 -56.79c0.21,-64.06 7.87,-33.43 -27.15,-42.15l3.13 89.05c22.81,31.48 50.31,60.39 93.7,26.28 27.44,-21.56 21.42,-74.23 21.23,-115.39 56.98,-12.63 74.82,-30.14 118.02,-45.58 33.06,-35.35 86.74,-81.92 85.36,-169.76 -3.48,-220.32 -269.86,-210.34 -309.59,-219.83 -75.49,-18.05 -101.46,-99.08 -51.38,-156.75 -11.38,-24.71 23.41,-21.06 -26.56,-14.43 -11.94,1.58 -20.27,9.68 -27.04,19.9 -37.93,57.3 27.34,109.85 -6.96,147.37 -20.12,21.98 -19.93,-20.88 -48.89,14.98zm108.12 -245.59c11.8,31.51 14.91,11.7 -0.47,45.14l-40.58 3.46c-5.9,-29.07 -10.78,-18.71 0.91,-45.55 49.54,-22.25 28.68,-7.01 40.14,-3.05zm37.65 -149.1l5.18 84.15c-77.67,14.63 -132.84,51.41 -163.15,105.94 -33.12,59.55 -37.22,164.95 12.2,204.6 28.96,-35.86 28.77,7 48.89,-14.98 34.3,-37.52 -30.97,-90.07 6.96,-147.37 6.77,-10.22 15.1,-18.32 27.04,-19.9 49.97,-6.63 15.18,-10.28 26.56,14.43 62,-41.1 96.15,-35.43 174.37,-20.09l9.04 -12.92c15.28,8.17 21.15,7.55 30.01,17.23 24.96,27.28 3.56,-28.2 12.13,32.06 2.27,-2.85 4.88,-6.61 6.2,-9.02 4.24,-7.68 11.2,-13.76 5.63,-21.72 7.86,20.67 8.74,29.93 10.23,41.47 0.08,0.51 23.32,25.4 -11.97,47.52 58.73,69.75 184.09,-7.81 37.53,-171.39 -0.62,-0.71 -2.43,-2.64 -3.55,-4.04 -23.52,-7.9 -80,-31.53 -109.71,-44.69 -6.74,-73.61 7.05,-69.19 -27.17,-121.27 -72.5,-1.72 -57.65,1.86 -96.42,39.99zm-192.24 605.24l10.86 91.18c33.52,25.56 73.26,106.73 186.27,120.8l1.45 90.68 -3.13 -89.05c35.02,8.72 27.36,-21.91 27.15,42.15l8.79 56.79c25.73,-4.7 17.45,1.79 34.3,-8.82 44.05,-27.76 -2.89,29.6 16.8,-18.34 17.58,-42.82 -16.96,-50.42 -24.12,-53.71 -0.18,-18.38 -2.63,-2.18 6.4,-12.32l12.28 -11.63c1.58,-1.24 3.7,-2.97 5.45,-4.22 25.5,-17.95 35.53,-19.64 61.03,-27.02 81.01,-23.47 42.54,-6.87 49.77,-75.26l13.6 8.14c14.13,9.18 15.01,17.88 32.68,16.11 27.27,-2.73 18.28,3.57 20.44,-29.76l-3.92 -52.94c-13.74,-13.43 -16.23,-12.72 -23.05,-40.27 -20.07,29.36 -13.87,64.6 -28.47,19.69 -33.78,31.64 -40.45,59.25 -101.16,73.85 -37.37,8.99 -108.18,8.51 -126.05,-16.57 -76.6,-27.29 -43.75,-55.13 -76.37,-88.29l-5.82 19.91c-5.86,-24.01 1.25,-25.2 -30.85,-39.98l9.84 -4.31c-30.52,-28.76 -59.93,1.83 -74.17,33.19zm-288.33 1212.06l34 116.98c-40.03,39.53 -81.73,71.41 -125.9,97.26 -9.43,34.9 2.08,9.66 -20.46,14.59 -31.07,47.75 -79.42,52.48 -78.89,103.69 0.35,34.64 48.09,97.14 62.05,135.23 2.96,-2.31 4.63,-11.27 5.35,-9.88l7.37 -19.11c0.48,-2.85 0.84,-5.84 1.05,-8.72 1.34,-17.84 -8.77,-19.02 -8.06,-30.81l4.56 -30.34c14.68,0 14.1,-1.67 28.55,3.61 43.35,15.83 37.05,69.72 58.77,90.48 1.22,1.18 3.22,3.1 4.65,4.03 2.09,1.36 9.08,4.61 11.74,5.13 20.87,4.1 -24.74,23.57 31.56,-4.31 -16.51,-9.14 -65.58,-101.69 -73.13,-127.78l45.75 -25.55c3.14,-28.13 5.08,-12.75 30.16,-31.99 221,-169.61 133.45,-119.77 93.22,-327.91 -32.08,53.48 -8.7,43.56 -7.44,85.4 1.52,50.58 3.46,19.87 -10.33,36.74 -35.06,42.91 -43.18,-8.56 -43.32,-8.9l-26.31 -76.79c-18.7,-4.04 -15.26,-10.58 -24.94,8.95zm1828.19 -1001.07l18.64 31.64c55.1,10.48 59.02,-1.7 93.31,-22.98l2.34 -131.93 21.96 -15.61c1.28,-0.88 4.12,-2.74 6.16,-4.14l-29.61 -8.9c74.63,-11.86 20.47,7.95 59.31,-18.05l14.64 -10.34c1.54,-0.88 3.97,-2.36 5.57,-3.16 14.47,-7.15 12.3,-4.79 22.73,-7.28 78.2,-18.71 36.01,-36.94 23.59,-58.42 -34.55,5.03 -34.02,8.34 -64.1,12.12 -22.55,2.82 6.25,1.89 -12.59,-0.17 -52.35,-5.74 67.88,-16.64 -30.44,9.26 -17.76,4.67 -34.79,4.42 -45.74,4.25 -14.96,24.79 -3.01,-1.64 -3.25,39.11 -0.17,29.13 1.53,21.56 -6.41,42.67 -20.21,-6.51 -26.06,-6.27 -30.4,-38.17 -6.68,-49.02 -6.59,-30.37 22.02,-33.17l-62.87 -17.99c15.51,0 50.25,2.27 63.87,1.25 40.99,-3.07 42.16,-6.05 52.97,-18.48 -56.08,5.15 -93.64,8.52 -146.53,-7.35 -44.25,-13.27 -59.4,-32.91 -92.43,-46.21 -32.93,50.46 -41.11,-2.38 -42.43,-37.06 -35.39,10.56 -16.95,16.4 -32.66,1.84 -38.07,-35.28 46.44,-14.54 -45.66,-28.83 -5.26,109.04 14.17,32.92 53.97,134.84 26.63,4.78 20.69,-10.27 55.11,2.89 37.85,14.47 14.17,25.13 30.46,36.27l14.41 9.98c28.31,16.86 60.24,22.91 97.82,22.91 -30.8,83.61 10.35,57.38 -13.76,159.21zm-2085.26 722.31c-2.27,3.28 -4.8,7.39 -7.21,9.57 -2.06,1.85 -4.72,5.67 -6.96,7.46l-18.65 2.67c-39.62,-12.03 -24.47,5.5 -1.13,11.64 26.06,6.85 27.04,3.62 55.1,1.57l-62.87 20.97c77.22,-12.25 116.13,13.06 170.82,9.09l-39.09 16.38c25.61,15.31 101.42,25.18 129.67,27.43l37.39 171.98c9.68,-19.53 6.24,-12.99 24.94,-8.95l26.31 76.79c0.14,0.34 8.26,51.81 43.32,8.9 13.79,-16.87 11.85,13.84 10.33,-36.74 -1.26,-41.84 -24.64,-31.92 7.44,-85.4l-40.14 -166.89c-37.09,-22.48 1.72,-5.41 -48.76,-41.46 -32.65,-23.33 -15.57,34.56 -25.39,-27.65l-121.12 -23.46c-30.26,12.77 -79.57,22.76 -107.21,11.93l-22.76 5.85c-4.73,34.09 6.84,8.92 8.22,8.32l-12.25 0zm2292.07 -1239.65c1.01,1.37 2.89,3.09 3.49,3.72 51.06,53.71 62.33,77.77 57.78,147.43 10,-13.92 8.17,-1.03 12.58,-26.52 4.25,-24.58 2.01,-18.85 -0.95,-45.35 9.16,19.19 -8.81,26.37 24.55,11.18l15.85 -12.1c2.87,-2.11 5.61,-5.44 8.49,-8.07 -1.51,18.61 -3.76,32 -3.36,36.83 0.28,3.34 15.48,29.4 -5.55,80.1 17.23,-35.64 -10.61,-29.75 -11.7,-31.01 3.57,40.58 -2.77,30.64 -29.65,46.66 10.11,-35.6 22.16,-53.85 14.32,-96.3 -0.38,26.49 1.34,18.1 -6.77,42.65 -13.56,40.95 -22.4,4.8 -14.2,73.79 1.82,15.28 3.13,-21.65 -0.73,11.38 -2.88,24.57 -1.21,-10.06 -4.62,33.7 91.17,-14.83 35.78,-14.25 100.44,-62.87 30.06,-29.13 21.1,-106.43 11.52,-152.6 -6.53,-16.56 -19.74,-48.01 -29.87,-65.26 -9.46,-16.13 -8.36,-16.76 -23.24,-30.69 -18.89,-17.65 -4.72,-8.36 -24.78,-16.19 -43.3,3.54 -34.97,-8.85 -77.99,-25.27 -2.81,-1.08 -15.94,-5.62 -20.87,-7.78 -2.37,-1.03 -4.57,-2.18 -6.91,-3.26 -93.43,-43.14 -109.6,0.46 -229.25,-15.94 -0.12,-1.3 0.86,-3.21 1.07,-3.78l11.33 -30.04c-16.21,-6.31 -38.23,-19.16 -53.97,-1.47 -36.96,-37.15 -1.34,-41.57 -71.88,-52.51 0,20.92 -0.43,17.26 2.51,35.02 7.99,48.12 57.18,82.57 51.42,72.93 67.71,10.62 45.89,27.55 143.79,26.78 62.07,-0.49 107.31,10.03 153,27.19 10.63,25.08 4.79,2.54 4.15,37.65zm366.78 1570.34c3.89,-61.71 21.73,-75.19 87.82,-78.82 -0.54,3.94 -1.02,7.89 -2.04,11.77l-26.61 50.7c-21.33,16.48 -32.91,14.6 -59.17,16.35zm21.68 -297.33c23.82,36.51 95.87,23.78 166.03,23.56 -12.58,29.8 -270.82,287.21 -314.48,331.08l-113.56 117.87c26.44,6.31 24.72,6.66 42.56,-7.69l22.26 -24.54c50.79,-57.9 84.5,-71.08 105.41,-105.8 13.44,-22.32 -4.01,-3.63 10.97,-17.59 22.39,-20.88 -15.31,-5.04 18.5,-10.36 2.86,-0.45 20.3,2.47 23.37,3.68 3.1,1.24 5.11,3.02 7.93,4.49l16.04 11.71c-9.41,56.92 -32.59,37.75 -67.91,75.98 -1.26,1.37 -2.86,3.59 -4.13,4.98 -1.28,1.4 -2.99,3.61 -4.29,5.01 -26.11,27.98 -45.57,33.04 -6.9,45.66 20.21,-12.71 19.74,-15.5 37.85,-33.73 7.29,-7.33 9.83,-10.35 18.22,-16.77 13.15,-10.04 1.58,-3.16 15.16,-8.94l42.88 -49.15c39.42,-26.6 17.45,-39.07 63.35,-52.41 18.52,-30.27 69.65,-85.11 101.11,-101.77 23.74,-57.99 150.13,-136.8 184.63,-210.63l-42.89 11.83c-28.79,1.94 -106.46,-59.45 -40.93,36.19 -20.11,53.52 -7.18,30.58 -53.34,53.22 -18.98,9.31 -32.22,33.6 -47.33,48.04 -0.8,0.75 -2.82,2.6 -3.62,3.31l-18.01 13.91c-0.77,0.75 -2.68,2.57 -3.42,3.42l-21.17 32.05c-52.11,56.24 -49.29,6.47 -50.11,4.82 -11.61,-23.29 -17.88,6.51 0.48,-29.47l24.74 -18.35c50.84,-39.52 -25.91,3.77 79.24,-82.6 5.84,-4.79 -10.27,-38.15 35.39,-17.83 -13.22,-28.74 4.87,-17.44 -67.85,-31.65 2.5,-3.04 5.67,-5.4 8.89,-7.74l17.37 -12.84c3.99,-2.33 17.78,-7.05 23.25,-9.1 29.97,-11.21 13.72,3.88 28.95,-15.25 -33.85,-17.33 -46.1,1.73 -74.18,0.22l-76.28 35.71c-23.54,-8.8 -52.1,-16.31 -84.18,-2.53zm573.03 -1344.95c-37.85,41.33 -12.34,136.94 16.14,175.98 14.09,19.32 39.16,43.59 53.95,55.93 26.48,22.1 41.65,21.59 70.76,37.68 1.76,-2.27 5.46,-7.39 6.83,-5.24 1.43,2.26 11.3,-7.48 13.8,-8.38 1.06,-0.39 26.25,-4.12 29.38,-4.12 42.34,-0.07 117.04,15.39 161.51,34.41l29.08 10.13c0.5,1.49 0.9,5.35 2.22,7.66l48.68 -50.14c1.2,-1.24 3.52,-3.73 5.06,-5.76 -83.07,-117.53 -248.59,-52.76 -307.58,-120.34l-16.01 24.16c-2,-1.41 -3.98,-4.08 -5.07,-5.3 -1.07,-1.2 -3.65,-3.81 -4.92,-5.29 -21.82,-25.23 -33.47,-51.36 -60.64,-62.16 15.33,-25.48 15.47,-13.6 20.34,-48.96l14.36 36.37c5.21,-44.6 20.85,-99.29 -27.03,-122.3 -27.89,22.14 -25.46,25.51 -26.11,62.92l-6.69 3.61c-2.05,3.8 0.94,-28.81 -3.23,14.34 -23.74,-18.33 -38.71,24.97 -14.83,-25.2zm-1445.12 -878.13c-18.99,20.88 -48.76,29.18 -78.12,38.4 3.64,3.15 6.85,5.53 8.95,11.35 1.32,3.63 11.38,8.07 17.94,8.08 -1.41,2.84 -4.49,3.24 -5.12,8.01 -0.9,6.69 -9.14,6.83 -8.71,28.65l4.35 12.13c21.56,-8.61 22.49,-47.24 45.5,-47.77 30.95,11.97 14.7,8.36 41.48,18.79 -20.44,47.15 -0.2,9.77 -25.99,30.64l-67.11 33.81c-30.25,28.23 -4.21,-41.48 -5.98,15.3 -0.05,1.68 1.69,5.48 1.86,6.95 0.19,1.62 1.24,5.33 2.84,7.47 61.13,-39.94 106.74,-47.76 169.89,-78.34 8.44,-32.26 12.45,-17.91 -20.19,-30.13 -1.9,-0.71 -4.58,-1.17 -6.65,-1.82l-21.68 -6.14 120.43 -92.06c43.33,20.44 34.48,14.97 80.92,4.92 3.34,33.02 12.19,15.51 47.67,16.8 60.71,2.21 86.34,-4 87.25,29.72 0.69,25.45 -111.28,19.08 -122.91,20.86 -16.44,2.52 -79.74,9.8 -86.01,31.88 -0.3,1.06 2.83,7.54 4.03,8.41 79.19,-15.02 342.31,-22.64 393.88,25.97 15.39,-24.58 22.31,-28.85 25.61,-53.04l-12.31 -1.99c-91.13,-10.51 -54.24,-6.58 -76.26,-33.95 14.61,15.12 12.34,1.78 -6.62,14.75l-38.41 21.14c-1.74,-2.53 -3.41,-5.94 -4.42,-8.07l-7.12 -14.64c-0.74,-1.84 -1.64,-4.7 -2.23,-6.36 -0.78,-2.2 -0.09,-8.48 -2.84,-15.86 2.44,-1.07 5.79,-1.72 7.72,-2.09 1.89,-0.37 5.29,-1.4 7.62,-1.77l37.72 -2.38c96.66,-6.38 46.39,7.52 93.17,12.79 62.39,7.03 27.67,0.57 41.24,-17.02 -117.5,-29.21 -200.62,-52.18 -332.78,-48.84 -56.44,1.43 -111.98,8.77 -164.77,19.75 -49.5,10.3 -98.81,32.77 -143.84,35.7zm-1898.45 1634.2c-14.38,118.3 -8.16,257.81 -8.17,384.57 0,39.02 -4.86,166.94 4.15,195.59 15.4,48.92 76.71,40.18 133.27,54.66l50.77 0.05 39.09 -16.38c-54.69,3.97 -93.6,-21.34 -170.82,-9.09l62.87 -20.97c-28.06,2.05 -29.04,5.28 -55.1,-1.57 -23.34,-6.14 -38.49,-23.67 1.13,-11.64l-27.83 -28.74c0.07,-15.49 -3.82,-18.04 2.11,-33.67 12.62,-33.29 -3.17,-10.64 25.77,-23.81 35.42,24.3 18.62,29.19 32.77,66.52l12.25 0c-1.38,0.6 -12.95,25.77 -8.22,-8.32l22.76 -5.85c27.64,10.83 76.95,0.84 107.21,-11.93 -35.2,-3.03 -81.59,-20.13 -111.97,-9.97 -41.22,-42.52 -8.81,-301.32 -18.78,-404.74 -7.02,-36.08 -5.56,-8.36 -11.59,-19.33 -0.75,-1.38 -2.04,-3.78 -2.79,-5.2l-5.31 -11.16c-16.81,-29.38 23.32,-9.36 -32.95,-24.18 -2.08,42.5 4.77,79.19 3.48,115.11 -1.76,49.19 -14.06,23.28 -14.31,87.93 -0.3,78.22 -2.5,156.33 -0.96,234.58l-8.44 -17.46c-1.14,-3.27 -2.2,-5.2 -3.24,-8.86 -1.02,-3.61 -1.45,-5.23 -2.24,-9.02l1.64 -421.95c0.71,-1.31 2.44,-3.51 3.31,-4.75 27.9,-39.32 56.82,-10.8 17.8,-39.59 -18.8,1.18 -17.39,0.69 -37.66,9.17zm1685.31 915.33c32.01,1.35 21.75,-17.02 23.09,-18.51 7.33,-8.14 -41.87,-3.66 25.44,-8.27 0.75,-0.05 3.35,-0.39 5.02,-0.25l-26.22 50.42c38.64,10.93 48.94,38.78 74.49,63.72l128.31 138.18c0.94,0.49 3.46,1.46 4.55,1.99 27.48,13.32 50.62,29 62.2,22.38 -0.07,0.35 -20.18,14.79 13.41,50.66l85.54 84.62c16.46,-23.55 19.95,-13.99 26.93,-61.12l-31.82 -22.19c-29.84,-22.55 -29.34,-57.77 -89.71,-99.09 -21.52,-14.74 -14.88,5.59 -21.06,-14.97 -0.3,-0.96 -0.97,-3.55 -0.96,-4.66l13.39 -27.57c-38.56,-49.56 -127.9,-103.21 -151.78,-158.36 -20.86,-6.4 6.32,16.4 -24.42,-14.45 -30.01,-30.13 -8.3,-2.82 -14.27,-24.99 -28.74,-14.39 -16.75,-7.87 -41,-32.63l-31.64 -2.79c0.02,1.8 -11.35,-18.69 -50.68,-24.82 1.81,-37.61 -13.63,-24.94 -10.67,-66.4l-17.65 -19.62c-0.63,2.24 -2.63,4.79 -3.43,6.07 -28.87,46.27 -47.49,63.32 21.3,136.32 1.18,1.25 3.16,3.42 4.2,4.55l22.56 18.65c31.72,34.28 12.98,18.53 4.88,23.13zm-1340.39 596.44c12.98,29.64 37.6,65.88 54.18,96.05 27.13,49.37 27.17,71.18 98.85,66.44 27.8,-15.91 51.78,-26.35 86.46,-26.24 8.56,-12.11 -11.49,-0.86 24.44,-18.72 11.4,-5.66 22.77,-8.45 32.97,-11.86 28.26,-9.45 42.48,-10.98 60.6,-31.05 -22.58,-18.88 -22.99,-4.81 11.41,-14.42 11.76,-22.29 -8.91,-10.51 26.99,-9.09 0,-109.7 -19.37,-66.31 -56.4,-87.97 -32.83,14.42 -38.15,20.24 -72.32,20.93 -23.76,23.67 -80.55,39.92 -116.57,48.35l-58.17 -94.33c-0.76,-3.32 -3.26,-3.61 -4.99,-5.31 -18.32,13.1 -1.16,-6.63 -14.29,14.75 -10.1,16.43 1.36,-6.33 -8.16,20.61 -10.72,30.32 9.92,4.87 -10.82,29.1 -0.91,-2.86 -5.17,-10.46 -6.55,-11.84 -19.14,-19.09 13.96,2.26 -20.49,-15.15l-16.21 16.26c-1.36,1.46 -4.43,8.21 -5.46,6.51 -1.07,-1.76 -3.69,4.63 -5.47,6.98zm3097.41 428.83l32.07 81.58c2.55,-18.52 -2.68,0.51 15.02,-9 2.22,41.01 3.93,41.66 -21.39,82.05 -40.55,1.89 -28.35,-1.29 -66.68,24.12l-93.01 57.44c-63.01,40.83 25.27,-27.57 -62.48,31.63l-16.18 8.07c-68.7,30.3 -10.68,13.99 -71.49,29.81 -28.69,7.47 -25.89,4.75 -51.36,33.24 5.48,5.99 12.47,11.82 18.21,21.1 8.13,13.16 2.66,3.02 9.02,18.25l34.17 30.94c31.9,-18.11 41.85,-15.85 63.5,-43.78 -21.58,1.97 -12.69,-7.71 -26.16,3.42l15.77 -28.65c18.39,-25.9 38.66,-47.23 73.92,-49.15 85.48,-4.63 -4.38,-16.42 53.72,-18.05 63.19,-1.78 16.59,-9.47 36.41,17.12l16.13 -10.55c-8.72,-20.74 -11.08,-1.25 -7.05,-27.56 -18.23,25.37 -13.67,1.94 -15.16,-0.04 11.31,-7.24 23.72,-15.48 33.1,-24.27 0.33,0.22 -23.93,29.72 23.89,-5.65l129.08 -79.69 1.75 -27.51c0.16,-0.83 0.8,-2.99 0.99,-3.83l4.77 -15.25c11.31,-79.01 -37.53,-18.13 -47.43,-76.43 -7.42,-43.63 8.9,-47.77 33.77,-55.17l-25.09 -50.3 -40.73 4.71c11.25,-88.63 2.11,-76.24 -26.98,-88.55 -7.93,36.97 0.39,50.04 -0.88,64.82 -2.3,26.8 -23.46,24.07 -23.99,24.35 -1.6,39.42 5.77,47.71 0.77,80.78zm-53.04 -2165.19c31.77,31.35 73.54,50.53 125.61,58.38 -0.02,23.6 -3.65,62.57 7.94,82.81l15.46 0.23c25.22,13.37 31.87,46.56 61.49,3.85 1.54,-2.22 5.37,-9.52 6.5,-12.11l7.05 -28.06c1.77,-17.55 -1.58,-30.27 1.21,-53.64 -2,-1.38 -5.55,-2.26 -6.75,-2.76l-13.75 -5.69c-17.67,-12.45 11.54,19.75 -6.69,-14.87 -0.52,-0.99 -2.08,-3.65 -2.65,-4.66 -12.46,-21.48 -14.28,5.52 -10.38,-20.29 12.86,15.53 -16.44,5.18 26.16,17.75 43.67,12.87 84.05,-1.88 117.72,-15.73l5.99 -10.02c0.78,-6.69 1.57,-10.52 3,-15.64 -39.39,7 -27.23,8.01 -66.61,-5.24l-67.12 -4.71c-41.49,2.61 -25.65,3.87 -62.64,15.51 -28.54,8.98 -28.44,3.86 -37.46,-22.28 -2.21,2.18 -4.37,5 -6.62,6.56 -2.24,1.56 -4.25,4.21 -7.13,5.93 -25.8,15.36 -24.55,12.46 -49.17,13.13l53.45 -21.4c-42.65,-20.35 -26.68,0.14 -26.56,-32.48 4.34,18.02 -6.94,11.52 10.6,17.48 36.83,12.52 3.84,3.3 24.54,-11.52 -17.39,-2.34 -34.42,-7.02 -37.26,-6.05 -21.1,-26.21 -22,-12.93 0.34,-21.69 -24.47,-60.27 -47.81,-156.05 -132.48,-87.24 -24.38,88.86 27.55,136.64 66.21,174.45zm780.72 1387.08c12.29,41.11 -3.34,33.54 -21.16,73.45 14.87,17.3 13.06,49.36 12.16,73.31 -2.3,62.07 3.11,9.33 -19.95,64.83 -37.8,-21.57 -47.25,-0.54 -63.16,39.02l-22.06 54.1c-45.68,94.67 -40.82,39.72 -58.69,95.68 30.18,17.44 32.1,-2.42 26.98,26.99 3.34,-1.84 7.74,-8.27 9.81,-5.88 1.96,2.26 6.68,-3.87 9.21,-5.7 60.42,-43.85 44.69,-79.3 73.43,-130.53 0.39,-0.69 1.97,-2.82 2.32,-3.49l3.38 -6.77c16,-46.22 1.51,-9.09 0.7,-9.55 8.94,23.42 -22.79,-4.95 19.98,12.1l12.08 4.15c32.45,-24.52 109.37,-176.51 134.67,-217.37l19.44 -31.51 1.97 -55.12c-22.42,-23.53 -14.08,-15.82 -42.44,-37.57 -19.72,-15.11 -26.08,-24.16 -46.48,-39.17 -22.9,4.3 -36.1,24.73 -49.28,37.8 -5.87,5.82 -4.16,2.87 -13.86,11.95 0.85,1.87 1.66,4.66 2.15,5.78 13.32,31.16 -1.83,16.81 24.75,39.15l-15.95 4.35zm-3212.5 -4.39c11.26,3.19 3.21,-2.98 14.3,13.4 0.58,0.85 10.62,22.28 10.75,22.58 20.2,10.71 28.26,24.56 31.97,46.75 9.54,6.68 14.36,8.15 26.98,21.7 10.33,11.07 9.45,13.62 18.84,25.85 24.28,31.68 26.66,15.81 41.92,53.58 12.76,2.99 8.82,-7.85 12.09,13.7 25.21,13.69 12.53,5.51 33.46,25.47 11.15,10.63 15.51,16.21 27.25,26.69 25.47,22.73 42.4,25.09 55.46,62.22 50.26,12.77 69.11,64.68 115.61,70.08 46.65,26.82 6.99,9.34 24.34,-13.13l-47.01 -35.9c-50.48,-63.18 -32.68,-3.47 -58.85,-63.04 23.25,6.87 -8.83,21.22 17.34,-14.43 1.26,-1.73 5.63,-10.35 7.65,-12.56l17.06 7.95c25.87,14.28 23.84,20.88 34.4,29.73l155.43 109.07c32.23,5.87 6.93,8.74 25.7,3.23 29.53,-8.66 9.01,1.11 28.18,-15.69l-29.8 -18.48c-54.47,-14.45 -182.62,-118.59 -216.27,-150.2 -22.91,-13.15 -34.86,-30.19 -44.57,-49.56 -43.54,-23.2 -137.71,-134.45 -172.05,-185.7l-12.15 22.26c0.66,1.4 2.33,3.34 2.63,3.83l20.81 45.15c18.04,28.22 24.57,36.04 64.62,54.49 -2.57,49.9 1.11,33.31 -18,62.87 -30.94,0.37 -17.57,-1.92 -32.89,-13.6l-71.37 -91.65c-28.24,-41.6 -23.78,-12.1 -25.26,-63.66l-28.33 -4.75c-27.53,3.39 6.76,-16.83 -30.24,11.75zm1325 115.61c-4.61,12.76 2.93,3.02 -7.58,15.32 -10.1,11.81 -4.4,3.91 -14.75,8.14 -12.59,24.04 -2.33,18.68 -30.74,32.99 27.77,1.51 14.67,0.79 31.56,7.94l4.83 50.11c0.16,1.3 0.77,3.63 0.95,4.94l2.08 11.62c0.22,2 0.51,5.06 0.68,6.98l0.45 16.2c-54.11,31.85 -64.72,5.18 -87.07,21.42 75.37,67.4 140.5,-37.67 181.9,-79.61 41.52,-42.07 115.11,-133.78 161.09,-158.1 1.24,-12.85 -5.35,-5.23 4.58,-13.34 -51.46,-38.46 -1.93,1.35 -47.21,-10.13 -0.06,-0.01 -35.75,1.28 -23.64,-32.51l33.83 -34.67c43.08,-61.76 -2.71,-50.31 -2.86,-50.47 -61.57,50.11 -149.42,172.68 -208.1,203.17zm-2010.1 -1491.77c17.65,49.68 51.55,95.02 77.82,129.72 30.96,40.87 69.01,52.28 90.91,100.6 22.38,5.77 22.46,8.3 47.82,21.47 11.41,-19.01 -16.53,-27 44.48,4.26l-53.39 -33.99c22.57,7.32 47.17,24.3 69.69,-1.36l-46.66 -67.83c2.54,-29.83 -7.77,-13.88 11.14,-13.55 -25.67,-38.67 -51.01,-39.91 -70.05,-90.27 -5.4,-3.82 0.95,2.78 -12.56,-10.49 -6.34,-6.24 -6.47,-7.59 -12.07,-13.48 -16.18,-17.02 0.42,-7.36 -24.81,-22.35 -16.59,24.25 -13.95,9.17 -23.78,1.35 -24.36,-19.35 -3.99,-41.87 -52.16,-103.05 -17.03,-21.62 0.39,-24.16 -36.67,-53.94 -16.04,19.35 -9.06,-1.88 -20.9,39.17 -4.52,15.68 -4.63,23.38 -6.04,50.38 11.7,7.62 29.94,20.76 33.6,30.13 10.22,26.18 5.16,2.29 -1,15.55l-15.37 17.68zm-234.75 208.89c39.02,28.79 10.1,0.27 -17.8,39.59 -0.87,1.24 -2.6,3.44 -3.31,4.75l-1.64 421.95c0.79,3.79 1.22,5.41 2.24,9.02 1.04,3.66 2.1,5.59 3.24,8.86l8.44 17.46c-1.54,-78.25 0.66,-156.36 0.96,-234.58 0.25,-64.65 12.55,-38.74 14.31,-87.93 1.29,-35.92 -5.56,-72.61 -3.48,-115.11 56.27,14.82 16.14,-5.2 32.95,24.18l5.31 11.16c0.75,1.42 2.04,3.82 2.79,5.2 6.03,10.97 4.57,-16.75 11.59,19.33 9.97,103.42 -22.44,362.22 18.78,404.74l9.89 -428.6c5.44,-1.85 15.19,-4.91 21.01,-6.38 9.23,-2.33 35.43,-7.43 38.27,-8.39 18.54,-55.35 11.53,2.05 47.29,-32.9 41.3,-40.35 -7.73,-61.82 38.04,-48.36l0.82 -14.08c-75.45,-47.23 -217.67,2.22 -229.7,10.09zm2520.26 -1490.59c46.29,13.57 82.55,34.5 121.32,62.88 16.46,12.05 37.55,25.69 52.67,37.43 9.36,7.27 12.9,10.02 24.12,21.05l22.03 27.52c29.49,16.01 42.59,28.41 56.6,59.98 33.01,11.05 83.93,97.52 98.27,137.25 50.89,-30.24 8.32,21.86 22.44,-11.71 1.59,-3.76 5.09,-3.32 6.53,-5.87 -15.86,-25.85 -24.41,-31.47 -37.11,-53.53l-28.72 -45.77c29.07,-32.41 -19.84,-0.92 10.69,0.16 28.25,1 -23.9,33.02 8.42,-0.16 -10.55,-10.42 -31.55,-36.75 -35.67,-38.9l16.08 -16.41c31.48,-10.71 -24.13,-9.97 4.14,1.29 -52.02,-57.22 -3.56,10.94 -38.36,-38.12l-6.61 -13.62c9.63,2.71 27.22,11.54 29.89,12.79l24 11.97 5.68 -37.82c-51.67,-61.05 -54.87,-52.39 -100.27,-92.05l-33.1 -35.08c-40.09,-11.67 -62.72,-42.14 -115.1,-60.91 7.93,38.27 -1.01,20.59 35.89,45.65 -1.59,1 -4.36,2.19 -4.98,2.64l-7.39 5.01c-10.24,13.79 -5.78,-7.05 -1.36,4.51 5.18,13.55 31.59,1.73 42.55,28.78 0.93,2.31 10.15,41.82 -29.44,29.6 -49.15,-15.19 -30.78,-29.6 -69.45,-43.46l-46.42 -5.88c-34.55,5.21 -0.04,-30.36 -27.34,10.78zm-2341.11 793c-20.33,96.25 -29.39,172.96 -15.41,273.02 7.26,52.09 39.89,193.58 71.01,215.68l15.37 -17.68c6.16,-13.26 11.22,10.63 1,-15.55 -3.66,-9.37 -21.9,-22.51 -33.6,-30.13 1.41,-27 1.52,-34.7 6.04,-50.38 11.84,-41.05 4.86,-19.82 20.9,-39.17 37.06,29.78 19.64,32.32 36.67,53.94 48.17,61.18 27.8,83.7 52.16,103.05 9.83,7.82 7.19,22.9 23.78,-1.35 -5.1,-46.81 -62.59,-93.7 -79.66,-248.9 -18.68,-169.85 33.48,-228.85 35.27,-295.87 -14.98,-11.6 1.81,-25.31 -22.34,19.95 -2.95,5.53 -1.45,-0.36 -10.68,21.61 -2.51,5.96 -6.13,17.26 -8.17,23.6 -13.01,-12.2 -6.72,-14.88 -17.39,-4.15 -0.8,0.82 -2.84,4.35 -3.52,5.18 -0.82,1.02 -3.18,8.2 -3.8,6.54 -0.65,-1.82 -2.45,4.95 -2.41,6.73l-15.07 -39.51c7.63,101.93 26.22,-25.28 33.1,133.2l-27.67 -11.78c-1.97,-0.77 -4.61,-1.94 -6.27,-2.52 -11.98,-4.23 0.76,-10.3 -9,-0.52l6.96 176.73c-23.22,-9.82 -40.16,-7.48 -48.26,-62.41 -12.49,-84.65 31.41,-132.98 16.63,-193.18 -7.9,-32.22 18.66,-10.98 -15.64,-26.13zm698.23 1775.43c4.95,32.92 26.45,52.58 42.47,89.43 37,-28.58 2.71,-8.36 30.24,-11.75l28.33 4.75c1.48,51.56 -2.98,22.06 25.26,63.66l71.37 91.65c15.32,11.68 1.95,13.97 32.89,13.6 19.11,-29.56 15.43,-12.97 18,-62.87 -40.05,-18.45 -46.58,-26.27 -64.62,-54.49l-20.81 -45.15c-0.3,-0.49 -1.97,-2.43 -2.63,-3.83l12.15 -22.26c-26.78,-39.06 -83.35,-116.47 -97.22,-156.54 -25.63,25.41 38.9,21.32 -33.67,21.32 -18.02,-43.81 -38.22,-102.67 -54.07,-143.83 -9.13,7.35 -31.81,9.36 -28.25,63.68 1.83,27.88 14.41,40.61 26.21,64.51 19.05,38.61 20.64,56.45 14.35,88.12zm-698.23 -1775.43c34.3,15.15 7.74,-6.09 15.64,26.13 14.78,60.2 -29.12,108.53 -16.63,193.18 8.1,54.93 25.04,52.59 48.26,62.41l-6.96 -176.73c9.76,-9.78 -2.98,-3.71 9,0.52 1.66,0.58 4.3,1.75 6.27,2.52l27.67 11.78c-6.88,-158.48 -25.47,-31.27 -33.1,-133.2l15.07 39.51c-0.04,-1.78 1.76,-8.55 2.41,-6.73 0.62,1.66 2.98,-5.52 3.8,-6.54 0.68,-0.83 2.72,-4.36 3.52,-5.18 10.67,-10.73 4.38,-8.05 17.39,4.15 2.04,-6.34 5.66,-17.64 8.17,-23.6 9.23,-21.97 7.73,-16.08 10.68,-21.61 24.15,-45.26 7.36,-31.55 22.34,-19.95l15.16 -6.75c-25.57,-25.61 -5.75,5.56 -12.56,-27.42 -12.67,-61.35 -3.08,38.27 -0.26,-15.33 2.13,-40.35 31.47,-49.77 37.33,-92.14 -2.7,-1.99 -6.42,-3.66 -9.04,-4.47 -9.16,-2.8 -14.8,-8.93 -30.16,-3.43l-41.76 33.42 0.89 -28.22c-39.43,24.23 -76.56,140.29 -93.13,197.68zm3155.09 -124.02c-8.55,40.64 -2.28,5.87 -16.8,33.5 -17.36,33.05 -11.51,5.23 -11.53,41.21 -23.88,50.17 -8.91,6.87 14.83,25.2 4.17,-43.15 1.18,-10.54 3.23,-14.34l6.69 -3.61c0.65,-37.41 -1.78,-40.78 26.11,-62.92 47.88,23.01 32.24,77.7 27.03,122.3l-14.36 -36.37c-4.87,35.36 -5.01,23.48 -20.34,48.96 27.17,10.8 38.82,36.93 60.64,62.16 1.27,1.48 3.85,4.09 4.92,5.29 1.09,1.22 3.07,3.89 5.07,5.3l16.01 -24.16c-53.28,-48.36 -31.49,-117.32 23.15,-143.97 72.31,-35.26 142.59,2.88 188.38,17.59 41.73,-34.6 -7.44,33.5 5.22,-38.3l33.8 -3.41c20.2,0.87 -13.22,8.76 35.08,2.6l7.88 20.77c19.41,42.52 21.13,30.25 17.27,92.99 -33.89,-9.94 -45.34,-13.36 -44.87,-61.92 -12.32,14.59 -12.13,-6.38 -35.81,17.86 -3.51,39.63 0.32,27.37 11.74,57.29 75.3,25.86 63.83,6.23 105.71,-33.08l-27.14 -102.91c-16.14,-13.82 -48.14,-46.32 -66.24,-54.33l-10.08 18.13c-5.46,13.58 0.18,5.4 0.72,8.02 -43.97,-0.85 -16.2,-0.57 -22.8,-5.46l-29.11 1.98c-6.27,3.13 -14.47,4.66 -21.91,5.96l-79.58 16.92c-25.53,2.52 -21.84,-1.3 -50.3,6.06 -3.2,0.82 -12.11,3.76 -14.88,4.82l-12.19 5.97c-51.07,25.05 -64.81,-27.54 -64.71,-29.28 1.14,-21.37 1.85,-11.87 25.63,-14.85 -18.05,-32.39 26.94,-29.73 -29.95,-24.35l-46.51 32.38zm-37.28 2027.03l-216.08 219.44 8.84 28.37c8.53,14.69 10.79,6.49 24.22,28.88 26.47,-6.26 41.48,-7.88 53.93,-26.99l31.06 7.25c13.74,-6.8 18.89,-13.29 32.43,-24.38 12.87,-10.55 3,-3.91 15.01,-12.01 19.38,-13.07 6.32,-6.07 21.14,-11.01l0 -9.27c-8.79,-11.27 -18.01,-2.79 -9.64,-22.45 -12.24,-5.23 8.39,7.78 -13.24,-15.3 30.08,-4.56 27.3,-13.59 40.13,-47.67 -30.27,1.15 -6.98,8.15 3.18,-1.91l4.83 -10.1c0.39,-2.61 0.95,-4.07 0.43,-6.02 2.46,1.71 1.79,1.71 2.68,2.31l60.42 -43.59c25.39,-19.8 -2.71,1.97 13.97,-6.75 24.39,-12.74 4.78,-16.82 31.47,-14.98 -7.11,-24.22 -28.15,35.61 -0.04,-44.89l-44.97 35.98c-6.59,-29.14 -3.97,-30.43 -9.95,-62.96l-8.16 26.42c-0.49,2.37 -0.01,15.47 0.33,17.08l-41.99 -5.45zm523.8 -1218.06l-47.97 32.21c48.89,-24.97 6.97,-5.38 24.69,-3.58 14.71,24.33 19.72,22.31 16.54,38.37l-7.5 29.88c7.06,-0.07 22.13,-3.22 30.09,-1.29 28.85,6.95 12.12,-2.37 32.84,16.29l141.03 -98.54c12.77,-25.78 8.82,-18.38 29.15,-39.94 10.02,-10.65 16.68,-15.74 27.09,-26.49 17.69,-18.27 32.63,-39.1 50.01,-65.42l-6.59 -32.54c-4.53,-27.09 1.41,-14.25 -6.82,-36.2 -4.16,0.21 -8.13,0.43 -12.44,1.1l-22.15 3.17c-36.5,9.55 -23.34,8.98 -29.58,19.68l-7.7 56.91c14.75,-2.78 13.53,-36.94 -66.78,58.01 -44.33,52.41 -94.3,36.68 -113.22,67.92 -65.26,0 -18.59,4.61 -30.69,-19.54zm-921.32 1618.87c-19.08,-42.28 74.21,-67.69 99.54,-86.53 20.42,-15.2 10.66,-12.11 15.59,-17.83 14.45,-16.79 -6.65,-39.2 54.36,-19.68 15.53,23.72 7.32,-4.88 6.98,26.08 -0.15,13.85 -6.68,14.46 -18.19,22.51 -7.74,5.39 -21.81,19.29 -32.78,31.39 -13.99,15.46 -26.61,39.8 -82.95,40.63 -23.85,0.35 -12.51,5.23 -25.99,-7.77l0 30.99c-18.06,-13.51 -11.56,17.33 -16.56,-19.79zm-166.22 17.04c55.27,22.21 19.81,3.63 65.43,5.46 8.74,0.35 23.01,4.05 24.84,4.55 29.73,8.14 -15.73,21.58 16.67,-0.47 47.17,-32.1 16.74,-8.48 59.28,-26.58l-38.24 84.59c41,-17.93 79.57,-39.98 113.59,-59.75 31.93,-18.55 85.93,-59.25 110.23,-64.79l96.91 -75.17 12.95 -21.23c0.93,-1.63 2.66,-5.04 4.05,-7.51l-31.06 -7.25c-12.45,19.11 -27.46,20.73 -53.93,26.99 -13.43,-22.39 -15.69,-14.19 -24.22,-28.88l-8.84 -28.37c-30.58,6.66 -56.86,35.46 -85.9,55.1 -26.46,17.89 -55.54,35.35 -83.61,51.54 -54.59,31.49 -135.36,64.02 -178.15,91.77zm713.54 -2509.45l-66.01 32.19c56.89,-5.38 11.9,-8.04 29.95,24.35 -23.78,2.98 -24.49,-6.52 -25.63,14.85 -0.1,1.74 13.64,54.33 64.71,29.28l12.19 -5.97c2.77,-1.06 11.68,-4 14.88,-4.82 28.46,-7.36 24.77,-3.54 50.3,-6.06l79.58 -16.92c7.44,-1.3 15.64,-2.83 21.91,-5.96l29.11 -1.98c6.6,4.89 -21.17,4.61 22.8,5.46 -0.54,-2.62 -6.18,5.56 -0.72,-8.02l10.08 -18.13c-30.7,-32.57 -51.04,-25.82 -94.47,-44.66 -4.08,-58.75 12.84,-79.08 -31.75,-108.84 6.17,45.95 31.4,-3.33 -8.98,27.85 -13.59,-29.79 17.04,-13.98 -26.99,-18.71 -45.24,11.69 -18.45,74.64 -24.01,108.7 -10.13,3.45 9.07,-3.24 -5.44,2.97 -62.22,26.61 -39.8,10.48 -51.51,-5.58zm-1007.45 -636.97l80.95 32.56c27.3,-41.14 -7.21,-5.57 27.34,-10.78l46.42 5.88c38.67,13.86 20.3,28.27 69.45,43.46 39.59,12.22 30.37,-27.29 29.44,-29.6 -10.96,-27.05 -37.37,-15.23 -42.55,-28.78 -4.42,-11.56 -8.88,9.28 1.36,-4.51l7.39 -5.01c0.62,-0.45 3.39,-1.64 4.98,-2.64 -36.9,-25.06 -27.96,-7.38 -35.89,-45.65 -19.76,-32.87 -93.23,-38.08 -126.02,-63.42 -13.57,17.59 21.15,24.05 -41.24,17.02 -46.78,-5.27 3.49,-19.17 -93.17,-12.79l-37.72 2.38c-2.33,0.37 -5.73,1.4 -7.62,1.77 -1.93,0.37 -5.28,1.02 -7.72,2.09 2.75,7.38 2.06,13.66 2.84,15.86 0.59,1.66 1.49,4.52 2.23,6.36l7.12 14.64c1.01,2.13 2.68,5.54 4.42,8.07l38.41 -21.14c18.96,-12.97 21.23,0.37 6.62,-14.75 22.02,27.37 -14.87,23.44 76.26,33.95l12.31 1.99c-3.3,24.19 -10.22,28.46 -25.61,53.04zm31.56 2593.71c-17,0.81 1.15,-16.33 -17.92,9.15 0.15,0.16 45.94,-11.29 2.86,50.47l-33.83 34.67c-12.11,33.79 23.58,32.5 23.64,32.51 45.28,11.48 -4.25,-28.33 47.21,10.13l141.85 -151.4c-38.67,-12.62 -19.21,-17.68 6.9,-45.66 1.3,-1.4 3.01,-3.61 4.29,-5.01 1.27,-1.39 2.87,-3.61 4.13,-4.98 35.32,-38.23 58.5,-19.06 67.91,-75.98l-16.04 -11.71c-2.82,-1.47 -4.83,-3.25 -7.93,-4.49 -3.07,-1.21 -20.51,-4.13 -23.37,-3.68 -33.81,5.32 3.89,-10.52 -18.5,10.36 -14.98,13.96 2.47,-4.73 -10.97,17.59 -20.91,34.72 -54.62,47.9 -105.41,105.8l-22.26 24.54c-17.84,14.35 -16.12,14 -42.56,7.69zm-823.22 -146.06l-2.36 13.93c0.9,3.1 403.93,436.32 446.7,455.62 11.48,-18.98 -0.48,-24.22 -0.39,-33.99l4.55 -16.52c0.24,-0.79 1.68,-3.17 1.88,-3.93 6.3,-25.26 -20.37,-20.48 -21.35,-20.77l-24.16 -7.6c8.61,-10.13 6.45,-12.52 6.76,-14.01l1.88 -13.7c0.23,-1.78 0.03,-5.5 0.35,-8.22l55.13 -5.26 -52.64 -72.3 -6.22 -5.48c-47.34,-26.4 -75.97,-75.54 -117.53,-112.43l-13.39 27.57c-0.01,1.11 0.66,3.7 0.96,4.66 6.18,20.56 -0.46,0.23 21.06,14.97 60.37,41.32 59.87,76.54 89.71,99.09l31.82 22.19c-6.98,47.13 -10.47,37.57 -26.93,61.12l-85.54 -84.62c-33.59,-35.87 -13.48,-50.31 -13.41,-50.66 -11.58,6.62 -34.72,-9.06 -62.2,-22.38 -1.09,-0.53 -3.61,-1.5 -4.55,-1.99l-128.31 -138.18c-25.55,-24.94 -35.85,-52.79 -74.49,-63.72l26.22 -50.42c-1.67,-0.14 -4.27,0.2 -5.02,0.25 -67.31,4.61 -18.11,0.13 -25.44,8.27 -1.34,1.49 8.92,19.86 -23.09,18.51zm2027.18 -1250.82l-37.19 29.83c-37.37,25.46 -113.19,43.66 -139.24,19.39 -51.83,-0.66 -44.11,-15.71 -80.5,-25.53 -22.34,8.76 -21.44,-4.52 -0.34,21.69 2.84,-0.97 19.87,3.71 37.26,6.05 -20.7,14.82 12.29,24.04 -24.54,11.52 -17.54,-5.96 -6.26,0.54 -10.6,-17.48 -0.12,32.62 -16.09,12.13 26.56,32.48l-53.45 21.4c24.62,-0.67 23.37,2.23 49.17,-13.13 2.88,-1.72 4.89,-4.37 7.13,-5.93 2.25,-1.56 4.41,-4.38 6.62,-6.56 9.02,26.14 8.92,31.26 37.46,22.28 36.99,-11.64 21.15,-12.9 62.64,-15.51l67.12 4.71c39.38,13.25 27.22,12.24 66.61,5.24 -1.43,5.12 -2.22,8.95 -3,15.64l-5.99 10.02c-7.15,3.22 9.44,11.28 -33.46,10.32 41.85,0 6.58,-3.55 21.25,18.74 48.94,-23.51 80.26,-52 106.29,-99.68 -20.57,-41.89 -5.16,-46.29 -2.65,-98.09 3.04,-62.59 -2.85,-51.63 -55.36,-54.85 -5.47,14.56 -16.2,96.33 -21.21,126.42l-20.58 -18.97zm-3494.61 1637.52c20.98,14.57 20.35,35.02 35.97,45.06l40.74 23.74c0.74,0.86 1.98,3.1 2.53,3.96l7.48 19.82c2.9,4.69 7.07,8.08 8.35,9.44 0.65,0.68 2.75,2.22 3.42,2.93 45.76,48.87 9.46,76.6 64.75,74l16.62 -4.48c31.19,-19.49 7.66,-2.22 13.99,-46.95 5.06,-35.74 -12.25,-0.04 5.85,-22.89 -17.23,-38.41 -36.75,-59.79 -54.16,-104.55 -56.3,27.88 -10.69,8.41 -31.56,4.31 -2.66,-0.52 -9.65,-3.77 -11.74,-5.13 -1.43,-0.93 -3.43,-2.85 -4.65,-4.03 -21.72,-20.76 -15.42,-74.65 -58.77,-90.48 -14.45,-5.28 -13.87,-3.61 -28.55,-3.61l-4.56 30.34c-0.71,11.79 9.4,12.97 8.06,30.81 -0.21,2.88 -0.57,5.87 -1.05,8.72l-7.37 19.11c-0.72,-1.39 -2.39,7.57 -5.35,9.88zm3256.52 720.15c-3.61,24.04 0.87,12.47 -16.44,26.6l-342.39 194.82 -47.69 -44.87c-3.1,73.22 12.14,72.59 18.73,128.74 -25.91,-2.12 -41.62,-7.54 -60.84,-14.29 24.53,72.01 75.49,78.94 142.46,36.65l-34.17 -30.94c-6.36,-15.23 -0.89,-5.09 -9.02,-18.25 -5.74,-9.28 -12.73,-15.11 -18.21,-21.1 25.47,-28.49 22.67,-25.77 51.36,-33.24 60.81,-15.82 2.79,0.49 71.49,-29.81l16.18 -8.07c87.75,-59.2 -0.53,9.2 62.48,-31.63l93.01 -57.44c38.33,-25.41 26.13,-22.23 66.68,-24.12 25.32,-40.39 23.61,-41.04 21.39,-82.05 -17.7,9.51 -12.47,-9.52 -15.02,9zm-1031.05 -2555.16l-9.14 9.08c-29.44,76.76 -69.3,69.9 -137.24,108.62 -10.81,12.43 -11.98,15.41 -52.97,18.48 -13.62,1.02 -48.36,-1.25 -63.87,-1.25l62.87 17.99c-28.61,2.8 -28.7,-15.85 -22.02,33.17 4.34,31.9 10.19,31.66 30.4,38.17 7.94,-21.11 6.24,-13.54 6.41,-42.67 0.24,-40.75 -11.71,-14.32 3.25,-39.11 10.95,0.17 27.98,0.42 45.74,-4.25 98.32,-25.9 -21.91,-15 30.44,-9.26 18.84,2.06 -9.96,2.99 12.59,0.17 30.08,-3.78 29.55,-7.09 64.1,-12.12 12.42,21.48 54.61,39.71 -23.59,58.42 -10.43,2.49 -8.26,0.13 -22.73,7.28 -1.6,0.8 -4.03,2.28 -5.57,3.16l-14.64 10.34c-38.84,26 15.32,6.19 -59.31,18.05l29.61 8.9c42.76,3.92 90.72,-21.51 122.6,-43.85 19.66,-13.75 38.29,-28.18 49.72,-40.22 22.31,-23.49 14.44,-28.29 44.86,-48.26l7.19 -36.77c-64.66,48.62 -9.27,48.04 -100.44,62.87 3.41,-43.76 1.74,-9.13 4.62,-33.7 3.86,-33.03 2.55,3.9 0.73,-11.38 -8.2,-68.99 0.64,-32.84 14.2,-73.79 8.11,-24.55 6.39,-16.16 6.77,-42.65 7.84,42.45 -4.21,60.7 -14.32,96.3 26.88,-16.02 33.22,-6.08 29.65,-46.66 1.09,1.26 28.93,-4.63 11.7,31.01 21.03,-50.7 5.83,-76.76 5.55,-80.1 -0.4,-4.83 1.85,-18.22 3.36,-36.83 -2.88,2.63 -5.62,5.96 -8.49,8.07l-15.85 12.1c-33.36,15.19 -15.39,8.01 -24.55,-11.18 2.96,26.5 5.2,20.77 0.95,45.35 -4.41,25.49 -2.58,12.6 -12.58,26.52zm2003.46 1043.43c-29.03,-167.07 18.93,-441.95 -49.9,-464.51 -56.89,-18.63 -4.56,63.34 -5.95,104.26 -1.55,45.61 -3.99,87.14 -4,135.42 -0.06,249.68 -15.38,222.57 59.85,224.83zm-3663.31 278.94c13.45,48.7 70.7,167.35 71,196.26l60.54 83.02c6.29,-31.67 4.7,-49.51 -14.35,-88.12 -11.8,-23.9 -24.38,-36.63 -26.21,-64.51 -3.56,-54.32 19.12,-56.33 28.25,-63.68 15.85,41.16 36.05,100.02 54.07,143.83 72.57,0 8.04,4.09 33.67,-21.32l-34.8 -73.3c-28.92,-32.41 -44.74,-118.29 -72.3,-152.25 -21.04,6.69 17.17,9.68 -7.02,-3.32 -1.2,-0.64 -15.94,-9.04 -20.35,-10.4l8.76 71.69c-43.31,-13.67 -22.08,12.81 -47.31,1.83 -1.29,-0.57 -3.82,-2.02 -5.03,-2.83l-28.92 -16.9zm1391.77 -956.18c24.11,-101.83 -17.04,-75.6 13.76,-159.21 -37.58,0 -69.51,-6.05 -97.82,-22.91l-14.41 -9.98c-16.29,-11.14 7.39,-21.8 -30.46,-36.27 -34.42,-13.16 -28.48,1.89 -55.11,-2.89 -39.8,-101.92 -59.23,-25.8 -53.97,-134.84 92.1,14.29 7.59,-6.45 45.66,28.83 15.71,14.56 -2.73,8.72 32.66,-1.84 1.32,34.68 9.5,87.52 42.43,37.06 -9.8,-31.16 -26.83,-49.47 -41.82,-108.13 -50.8,-78.85 -172.63,-9.43 -68.18,150.02 42.09,64.26 124.76,112.41 224.27,128.02l2.99 132.14zm-1717.42 -920.41c-16.18,37.67 -58.21,50.93 -84.69,94.91l15.09 30.8c0.86,1.78 1.84,4.23 2.74,5.99l17.1 26.74c7.07,0.71 0.38,14.28 42.37,-16.07 3.27,-2.36 4.23,-6.68 10.43,-7.37 1.03,-0.12 3.78,-0.12 4.91,-0.01l19.91 8.23c21.44,-18.24 7.2,-4.22 9.54,-16.87 -18.31,-22.67 -14.07,27.07 -2.48,-21.47 10.52,-44.03 76.56,-50.37 122.12,-66.37l-32.35 -17.39c5.78,-1.63 18.44,-5.93 21.36,-6.61 -2.3,0.08 -26.42,0.04 -26.71,-0.04 -2.26,-0.73 -5.14,-1.49 -7.42,-2.51 -48.63,-21.75 -2.9,6.19 -17.76,-15.39 5.74,-26.86 76.56,-8.46 8.99,-19.03 20.35,-37.53 13.88,-1.58 8,-41.06 -39.62,23.55 -75.74,55.17 -111.15,63.52zm2475.08 -66.45l14.36 19.74c2.91,-2.87 4.22,-18.69 24.32,-10.65l28.08 49.45c1.39,1.93 3.68,4.6 5.34,7.04l12.45 -39.82c1.94,45.94 -20.08,29.59 44.08,37.21 -2.02,-38.68 6.26,-22.84 -11.19,-50.97 -1.16,-1.89 -3.25,-3.66 -4.53,-5.11 -49.06,-55.8 -6.47,18.35 -18.11,-20.04l-2.15 4.17c-12.76,-55.22 -1.11,-21.52 -40.67,-62.93l22.61 -39.16c-16.96,-29.3 -35.68,-42.82 -40.17,-70.33 -28.86,-21.3 -33.2,-28.65 -53.02,-54.3l-5.68 37.82 -24 -11.97c-2.67,-1.25 -20.26,-10.08 -29.89,-12.79l6.61 13.62c34.8,49.06 -13.66,-19.1 38.36,38.12 -28.27,-11.26 27.34,-12 -4.14,-1.29l-16.08 16.41c4.12,2.15 25.12,28.48 35.67,38.9 -32.32,33.18 19.83,1.16 -8.42,0.16 -30.53,-1.08 18.38,-32.57 -10.69,-0.16l28.72 45.77c12.7,22.06 21.25,27.68 37.11,53.53 -1.44,2.55 -4.94,2.11 -6.53,5.87 -14.12,33.57 28.45,-18.53 -22.44,11.71zm-743.8 16.44c49.51,-2.36 86.02,-3.18 131.61,13.71 46.75,17.3 54.73,36.38 84.79,53.86l25.53 16.36c34.27,-14.28 19.59,16.67 63.06,-19.36 -7.41,-73.95 -16.72,-43.9 9.36,-45.44 -13.29,-28.78 -14.29,-15.36 -26.66,-49.11l-49.8 -33.21c-12.49,24.43 34.25,19.77 -31.01,19.77 -1.07,-2.32 2.96,-18.49 -27.95,-17.9 -12.8,0.24 -13.73,6.35 -35.06,-4.02 -15.76,33.03 -1.79,-31.55 -0.61,10.15 0.01,0.38 0.24,2.87 0.26,3.25l0.35 6.09c-70.96,-3.54 -21.85,0.65 -71.96,36.93 -0.79,-0.43 4.93,-17.81 -44.31,-4.36 -25.8,7.05 -11.52,-0.3 -27.6,13.28zm896.11 1095.97c15.01,31.33 51.36,56.06 81.19,78.02 31.94,23.51 66.38,48.32 111.01,62.53 15.92,-13.07 -0.04,17.15 7.36,-35.87l8.4 -32.44c12.45,-22.53 25.7,-14.71 32.29,-34.26 -68.08,-31.81 -140.34,-86.59 -177.13,-127.6 -40.68,-3.15 -3.14,-1.41 -45.35,15.32l14.35 10.08c49.34,31.4 -24.2,21.4 25.44,36.33 48.54,14.6 19.27,-24.13 47.21,30.32 1.1,2.17 6.04,14.73 6.52,16.82l0 19.72c-101.49,-5.43 -60.14,8.19 -90,-53.88 -23.08,0 -16.64,-5.84 -21.29,14.91zm-1847.81 -25.15c18.54,26.31 -0.84,16.09 31.68,8.87 15.31,-3.4 23.95,-20.14 29.45,-25.61 7.9,2.94 16.88,6.74 18.81,7.5 43.73,17.11 32.86,-19.57 35.12,55.37 -59.17,9.38 -77.27,-3.19 -98.86,9.09 -0.43,2.34 0.25,3.72 0.55,7.15 1.81,20.36 15.59,32.45 31.18,46.85 34.13,-14.07 66.03,-40.26 89.51,-67.58 15.68,-18.27 17.18,-16.94 36.84,-35.44 20.16,-18.95 15.95,-20.51 32,-41.02 -1.32,-78.23 -55.82,-103.7 -103.51,-57.47 -47.01,45.57 -37.99,50.94 -102.77,92.29zm762.8 -1474.34c30.14,-3.23 45.94,-9.97 82.86,-17.56 -1.2,-0.87 -4.33,-7.35 -4.03,-8.41 6.27,-22.08 69.57,-29.36 86.01,-31.88 11.63,-1.78 123.6,4.59 122.91,-20.86 -0.91,-33.72 -26.54,-27.51 -87.25,-29.72 -35.48,-1.29 -44.33,16.22 -47.67,-16.8 -46.44,10.05 -37.59,15.52 -80.92,-4.92l-120.43 92.06 21.68 6.14c2.07,0.65 4.75,1.11 6.65,1.82 32.64,12.22 28.63,-2.13 20.19,30.13zm129.42 2925.61c3.42,13.28 -0.13,7.29 10.5,20.77 7.11,9.02 5.54,6.04 17.18,15.62l25.59 28.1c22.35,-16.24 32.96,10.43 87.07,-21.42l-0.45 -16.2c-0.17,-1.92 -0.46,-4.98 -0.68,-6.98l-2.08 -11.62c-0.18,-1.31 -0.79,-3.64 -0.95,-4.94l-4.83 -50.11c-16.89,-7.15 -3.79,-6.43 -31.56,-7.94 -14.99,-17.53 -21.96,-25.68 -36.7,-41.36 -6.92,-7.34 -10.42,-11.66 -18.03,-17.37 -20.91,-15.7 -7.26,-6.59 -20.41,-10.55l-55.13 5.26c-0.32,2.72 -0.12,6.44 -0.35,8.22l-1.88 13.7c-0.31,1.49 1.85,3.88 -6.76,14.01l24.16 7.6c0.98,0.29 27.65,-4.49 21.35,20.77 -0.2,0.76 -1.64,3.14 -1.88,3.93l-4.55 16.52c-0.09,9.77 11.87,15.01 0.39,33.99zm465.71 847.61c25.95,-16.18 10.07,-5.8 41.11,-14.72 16.93,-4.88 4.44,0.35 22.14,-6.52 20.65,-8.01 12.29,-4.78 21.19,-10.62 -17.18,-23.35 -51.58,-0.78 21.95,-23.6 -2.97,0.35 -32.79,5.58 -36.17,5.37 -26.57,-1.75 -7.43,2.8 -26.7,-7.5 41.38,-14.25 14.66,-11.24 46.28,-14.29 56.61,-5.47 -3,-0.42 36.08,4.25 37.72,4.5 51.66,-5.86 70.47,-17.3 -18.75,-26.52 -4.28,-20.65 -36.28,-33.43 -9.24,-3.7 -33.54,-3.09 -44.12,-2.42l-175.29 26.28c-26.27,12.91 -19.58,50.85 -17.41,84.87 12.4,1.75 28.71,2.76 40.3,4.05l36.45 5.58zm1116.44 -3335.49l69.46 32.37c2.18,-2.9 7.04,-8.61 9.25,-5.8l18.09 -8.46c54.22,-11.37 3.52,-3.08 31.55,1.92 17.58,3.13 11.47,3.56 26.39,5.07 2.71,0.27 11.02,0.47 13.4,0.62 23.9,1.52 65.6,54.59 81.14,76.56 -27.45,-6.62 -18.07,3.53 -9,-8.91l-7.37 10.49c-3.09,0.08 2.98,-6.94 3.94,-5.24l18.92 -10c2.23,-1.02 11.52,-4.27 14.23,-5.54 -3.78,36.88 -9.24,34.8 -11.69,35.89l31.9 3.69c0.27,-0.01 13.54,35.12 19.58,-14.34 1.53,-12.44 -11.83,-9.69 -17.48,-20.53l-25.59 -38.29c-23.41,-27.54 -16.18,-23.82 -47.2,-40.41l-39.97 -25.88c-49.58,-36.37 -46.39,-36.3 -81.32,-27.6 -1.63,0.41 -4.38,0.84 -6.1,1.34 -28.47,8.39 -28.47,19.97 -58.95,15.29l-13.66 -4.85c12.07,-24.82 2.08,-3.21 16.65,-16.91 2.9,-2.72 39.63,-23.96 3.13,-31.85 -81.22,-17.56 54.1,9.71 -77.78,23.74 14.54,10.32 -2.43,12.12 26.49,12.53 19.2,0.28 11.06,-0.5 34.06,-8 -7.83,2.96 -20.54,-3.17 -18.53,12.89 5.19,41.55 -23.49,-5.17 16.38,16.55 -33.4,-10.63 -17.01,-9.69 -47.25,0.1 28.28,4.01 27.65,4.29 51.73,8.98 -2.48,1.49 -5.26,2.21 -6.51,5.73 -1.29,3.64 -17.28,8.56 -17.89,8.85zm-2215.3 2650.81c-4.63,21.69 -16.45,-16.38 5.56,11.67 16.55,21.08 18.06,4.77 27.52,30.43 -15.9,12.94 2.43,7.39 -23.59,12.41 -49.49,9.54 -20.96,-19.48 -92.51,-43.27 -10.73,-3.57 -0.94,12.28 -16.18,-14.07 -64.94,0 -18.38,-4.31 -30.86,18.6 54.78,42.27 116.77,73.27 181.43,109.23l2.67 -28.88 71.71 9.54c-8.38,-23.58 -17.59,-13.95 10.17,-51.12l11.77 -14.44c-30.81,-13.1 -78.38,-28.01 -93.81,-52.56 -19.17,16.8 1.35,7.03 -28.18,15.69 -18.77,5.51 6.53,2.64 -25.7,-3.23zm273.48 -3101.8c37.67,21.02 -3.62,17.7 59.25,13.56 -68.37,-1.81 -14.44,13.44 -63.27,53.79 -19.37,16.01 -34,12.59 -49.67,12.43l-14.31 -0.84c-2.17,0.41 -4.82,0.82 -6.85,1.51 -2.12,0.72 -4.65,2.42 -6.53,3.35l-12.2 10.76c-20.72,0.13 -0.61,-3.07 -9,26.94 55.41,20.79 61.69,12.31 74.03,-8.22 36.54,-1.09 6.27,-3.83 21.46,14.93 28.22,-8.92 40.24,-20.38 67.45,-36.61 -1.6,-2.14 -2.65,-5.85 -2.84,-7.47 -0.17,-1.47 -1.91,-5.27 -1.86,-6.95 1.77,-56.78 -24.27,12.93 5.98,-15.3l67.11 -33.81c25.79,-20.87 5.55,16.51 25.99,-30.64 -26.78,-10.43 -10.53,-6.82 -41.48,-18.79 -23.01,0.53 -23.94,39.16 -45.5,47.77l-4.35 -12.13c-0.43,-21.82 7.81,-21.96 8.71,-28.65 0.63,-4.77 3.71,-5.17 5.12,-8.01 -6.56,-0.01 -16.62,-4.45 -17.94,-8.08 -2.1,-5.82 -5.31,-8.2 -8.95,-11.35 -23.53,24.25 -30.11,9.55 -50.35,41.81zm1714.44 1067.51c50.18,7.76 138.02,6.3 170.49,25.36 30.41,17.85 8.48,2.64 15.88,14.7 57.11,33.08 44.47,52.72 41.7,110.93l20.58 18.97c5.01,-30.09 15.74,-111.86 21.21,-126.42 52.51,3.22 58.4,-7.74 55.36,54.85 -2.51,51.8 -17.92,56.2 2.65,98.09 18.67,-34.06 17.87,-76.26 26.05,-118.53 -17.35,-23.19 -30.08,-63.37 -57.36,-99.39 -1.54,2.03 -3.86,4.52 -5.06,5.76l-48.68 50.14c-1.32,-2.31 -1.72,-6.17 -2.22,-7.66l-29.08 -10.13c-44.47,-19.02 -119.17,-34.48 -161.51,-34.41 -3.13,0 -28.32,3.73 -29.38,4.12 -2.5,0.9 -12.37,10.64 -13.8,8.38 -1.37,-2.15 -5.07,2.97 -6.83,5.24zm-2138.28 2026.6l20.3 23.46c12.48,-22.91 -34.08,-18.6 30.86,-18.6 15.24,26.35 5.45,10.5 16.18,14.07 71.55,23.79 43.02,52.81 92.51,43.27 26.02,-5.02 7.69,0.53 23.59,-12.41 -9.46,-25.66 -10.97,-9.35 -27.52,-30.43 -22.01,-28.05 -10.19,10.02 -5.56,-11.67l-155.43 -109.07c-10.56,-8.85 -8.53,-15.45 -34.4,-29.73l-17.06 -7.95c-2.02,2.21 -6.39,10.83 -7.65,12.56 -26.17,35.65 5.91,21.3 -17.34,14.43 26.17,59.57 8.37,-0.14 58.85,63.04l47.01 35.9c-17.35,22.47 22.31,39.95 -24.34,13.13zm1684.73 -1703.67c-12.16,75.84 -1.98,89.44 54.37,122.31 4.65,-20.75 -1.79,-14.91 21.29,-14.91 29.86,62.07 -11.49,48.45 90,53.88l0 -19.72c-0.48,-2.09 -5.42,-14.65 -6.52,-16.82 -27.94,-54.45 1.33,-15.72 -47.21,-30.32 -49.64,-14.93 23.9,-4.93 -25.44,-36.33l-14.35 -10.08c42.21,-16.73 4.67,-18.47 45.35,-15.32 -42.89,-51.3 -39.03,-59.44 -117.49,-32.69zm987.46 1211.59c25.15,17.41 49.63,38.91 73.95,59.94 13.01,11.26 21.71,17.12 34.98,28.1 28.06,23.21 10.91,19.99 42.75,26.41l15.95 -4.35c-26.58,-22.34 -11.43,-7.99 -24.75,-39.15 -0.49,-1.12 -1.3,-3.91 -2.15,-5.78 9.7,-9.08 7.99,-6.13 13.86,-11.95 13.18,-13.07 26.38,-33.5 49.28,-37.8 -17.2,-10.71 -43.43,-35.05 -59.81,-48.11 -10.67,-2.25 -2.8,2.47 -7.75,14.72 -1.83,24.6 4.24,31.4 -16.92,45.62l-30.56 5.43c-44.49,-6.7 -32.65,-22.66 -38.49,-30.88 -40.21,-56.52 -115.62,-78.48 -71.62,-141.1 0,-27.52 6.97,-20.8 -20.26,-20.8 -9.38,41.55 -22.73,52.76 -18.34,98.9 20.97,29.39 36.09,40.09 59.88,60.8zm-616.81 1172.15l5.94 -3.26c12.44,-17.15 3.1,-8.63 25.35,-10.85 41.42,-51.93 111.43,-53.35 158.73,-104.38 41.18,-44.43 -19.08,-138.45 -32.31,-196.91 -24.87,7.4 -41.19,11.54 -33.77,55.17 9.9,58.3 58.74,-2.58 47.43,76.43l-4.77 15.25c-0.19,0.84 -0.83,3 -0.99,3.83l-1.75 27.51 -129.08 79.69c-47.82,35.37 -23.56,5.87 -23.89,5.65 -9.38,8.79 -21.79,17.03 -33.1,24.27 1.49,1.98 -3.07,25.41 15.16,0.04 -4.03,26.31 -1.67,6.82 7.05,27.56zm-3091.58 -3124.63l-0.89 28.22 41.76 -33.42c15.36,-5.5 21,0.63 30.16,3.43 2.62,0.81 6.34,2.48 9.04,4.47 -5.86,42.37 -35.2,51.79 -37.33,92.14 -2.82,53.6 -12.41,-46.02 0.26,15.33 6.81,32.98 -13.01,1.81 12.56,27.42 8.94,-24.17 13.88,-51.48 34.41,-62.97 22.36,-53.49 52.6,-76.49 85.8,-114.16l-19.91 -8.23c-1.13,-0.11 -3.88,-0.11 -4.91,0.01 -6.2,0.69 -7.16,5.01 -10.43,7.37 -41.99,30.35 -35.3,16.78 -42.37,16.07l-17.1 -26.74c-0.9,-1.76 -1.88,-4.21 -2.74,-5.99l-15.09 -30.8c-28.5,27.67 -51.75,47.7 -63.22,87.85zm179.02 938.17c6.46,14.92 -9.34,-5.45 8.68,11.4 5.54,5.19 12.52,10.05 19.21,14.41 12.74,8.3 29.94,17.84 45.97,26.46 29.79,16.05 61.7,35.4 95.36,35.4 34.94,-25.14 19.52,-0.82 -13.97,-18.02 -1.84,-0.95 -4.79,-1.84 -6.73,-2.82l-24.96 -19.12c-0.14,-0.39 -0.22,-2.49 -0.27,-2.85 -6.32,-47.59 19.49,24.15 2.68,-10.44 -14.5,-4.97 -37.21,-11.64 -53.97,-17.46l0.04 -25.98c-34.79,31.9 -25.23,-11.13 -26.98,-17.89 73.42,-26.97 67.56,39.15 143.99,2.46 -28.88,-8.04 -59.58,-24.5 -81.09,-38.42 -12.68,-8.2 -27.74,-18.19 -38.01,-25.26 -29.89,-20.57 -12.55,-18.31 -44.69,-24.34 -18.91,-0.33 -8.6,-16.28 -11.14,13.55l46.66 67.83c-22.52,25.66 -47.12,8.68 -69.69,1.36l53.39 33.99c-61.01,-31.26 -33.07,-23.27 -44.48,-4.26zm1037.21 -440.69c-12.38,-13.13 -9.7,-13.15 -18.6,-28.29 -4.62,-7.87 -5.48,-10.07 -10.26,-17.65 -13.84,-21.87 -3.27,-6.56 -12.28,-17.13 -37.91,30.61 5.36,9.62 -34.07,-11.65l-17.1 4.06c-26.71,16.47 3.49,60.9 6.05,67.86 20.86,56.77 -36.07,-34.3 37.03,78.16 13.52,20.79 4.37,10.29 10.85,23.68 18.22,37.64 -3.53,27.39 51.09,33.12 -6.64,-57.72 -61.31,-96.92 -12.71,-132.16zm1682.22 -576.86l16.98 -10.89 -4.62 -12.25c0.45,-24.08 -2.89,-0.79 2.95,-19.45 7.14,-22.86 8.48,9.76 17.76,-46.18 -94.96,8.41 -60.45,61.43 -107.59,48.18 -40.02,-11.24 -16.47,-2.86 -21.73,-29.92l-17.72 -16.45c23.8,49.47 6.58,6.89 -4.4,25.08l-51.42 2.77c12.49,56.11 19.77,36.63 27.53,76.93 39.48,-7.94 64.66,-28.41 85.47,-7.65l44.93 -35.98c0.12,0.09 12.85,3.42 13.97,15.22 0.18,1.84 -2.53,7.02 -2.11,10.59zm946.25 2013.89c-46.82,-5.26 -2.45,26.62 -31.56,-15.8 22.33,24.7 5.78,-11.09 5.63,3.83l-16.24 4.44c-0.83,-2.34 -4.92,0.67 -7.38,0.63l-36.03 -48.19c-27.24,9.65 12.28,38.25 16.56,42.63l13.65 14.56c-42.5,-19.92 5.15,6.29 -16.74,-9.46l-25.11 -31.37c-0.29,-0.83 -0.68,-3.2 -0.96,-4.09 -0.32,-0.98 -0.76,-3.55 -1.11,-4.62 -0.41,-1.23 -1.03,-3.91 -1.52,-5.23l-26.02 -54.58c-4.42,-6.97 -12.12,-20.91 -30.76,-13.68 -44,62.62 31.41,84.58 71.62,141.1 5.84,8.22 -6,24.18 38.49,30.88l30.56 -5.43c21.16,-14.22 15.09,-21.02 16.92,-45.62zm-1217.54 566.99c5,37.12 -1.5,6.28 16.56,19.79l0 -30.99c13.48,13 2.14,8.12 25.99,7.77 56.34,-0.83 68.96,-25.17 82.95,-40.63 10.97,-12.1 25.04,-26 32.78,-31.39 11.51,-8.05 18.04,-8.66 18.19,-22.51 0.34,-30.96 8.55,-2.36 -6.98,-26.08 -61.01,-19.52 -39.91,2.89 -54.36,19.68 -4.93,5.72 4.83,2.63 -15.59,17.83 -25.33,18.84 -118.62,44.25 -99.54,86.53zm70.06 694.52l18.61 21.6c19.22,6.75 34.93,12.17 60.84,14.29 -6.59,-56.15 -21.83,-55.52 -18.73,-128.74 -4.46,-19.92 5.21,-2.09 -10.32,-19.39 -17.83,-19.85 0.65,-0.98 -13.86,-8.49 -36.83,-1.01 -18.3,-10.09 -63.05,-23.19 -24.13,31.7 -9.34,74.26 11.75,91.74 47.19,-10.48 -9.91,-31.61 45.11,-12.62 6.89,16.43 22.31,35.05 -30.35,64.8zm-1983.23 -594.12c-3.44,-9.78 8.54,-5.41 -18.91,-15.84l-60.5 -19.7c-34.85,9.87 -24.47,5 -50.69,0 -0.4,2.95 0,4.34 0.27,8.95 2.21,36.86 13.05,42.45 31.29,52.68 51.67,28.94 -8.46,27.71 40.35,23.98 3.69,40.8 12.78,36.2 35.94,49.23 2.99,-26.89 11.54,-42.54 -16.65,-44.98l49.95 9.83c-1.57,-1.97 -3.87,-4.91 -5.71,-7.18 -1.6,-1.99 -3.7,-3.94 -5.34,-5.97l-22.25 -35.34c52.23,-11.31 -23.16,4.12 35.15,29.8 16.56,7.3 -0.26,8.22 18.91,-0.04 -3.5,2.68 1.33,30.91 -23.95,-2.3 -22.87,-30.04 -11.13,-8.04 -7.86,-43.12zm544.53 -933.12c20.28,-19.41 15.54,-3.7 20.57,-32.17 0.38,-2.14 -1.88,-14.9 -2.85,-17.88 -10.95,-33.99 -10.51,-17.2 -22.14,-22.88 -29.74,-14.47 -22.19,-11.6 -36.29,-31.73 -10.35,-14.78 -18.49,-34.16 -41.99,-35.65 -74.41,-4.72 -21.95,-0.03 -34.28,12.4 -0.15,3 -2.02,5.02 -0.08,10.52l90.08 115.81c-7.66,-10.5 15.07,-17.44 17.9,-18.43 -2.54,3.52 -28.76,-9.65 9.08,20.01zm-884.04 710.57c37.03,21.66 56.4,-21.73 56.4,87.97 -35.9,-1.42 -15.23,-13.2 -26.99,9.09 -34.4,9.61 -33.99,-4.46 -11.41,14.42 34.39,-1.01 30.11,-12.24 56.65,2.84l37.07 31.45 16.64 -39.72c-17.48,-2.84 -40.79,-5.38 -43.76,-45.39 -4.33,-58.58 -2.15,-34.21 15.52,-43.76l43.01 -3.16c-13.45,-19.73 -17.7,-22.03 -29.6,-38.4 -59.86,1.22 -65.38,11.98 -113.53,24.66zm3222.69 44.76l-35.99 -13.87c-41.86,58.93 -62.86,-22.02 -137.38,30.14 10.39,10.95 1.45,5.02 16.55,14.89l36.75 14.38c2.74,0.82 11.23,3.11 13.97,3.97 57.24,18.17 42.59,29.04 107.19,12.79 -4.8,-42.62 -32.56,-40.67 -10.88,-32.03 -2.31,-25.6 -27.24,-8.35 9.79,-30.27zm295.05 -1476.96c24.85,32.76 56.13,32.13 109.72,37.57 -14.7,-56.64 -20.85,-3.5 -78.71,-42.5 -0.7,-22.53 10.55,-32.08 15.83,-57.45 29.93,-0.3 51.98,-2.9 81.08,3.84 4.59,1.06 36.43,9.99 36.49,9.98 35.77,-1.93 14.14,5.33 35.26,-17.78l-165.97 -25.3 -28.77 32.54c-14.2,27.27 -8.6,29.42 -4.93,59.1zm-679.32 -126.11c-0.51,17.08 -4.16,32.79 27.3,43.31 93.38,31.23 80.88,-91.29 80.65,-123.44l28.01 -4.82 47.2 -21.97c-14.67,-22.29 20.6,-18.74 -21.25,-18.74 42.9,0.96 26.31,-7.1 33.46,-10.32 -33.67,13.85 -74.05,28.6 -117.72,15.73 -42.6,-12.57 -13.3,-2.22 -26.16,-17.75 -3.9,25.81 -2.08,-1.19 10.38,20.29 0.57,1.01 2.13,3.67 2.65,4.66 18.23,34.62 -10.98,2.42 6.69,14.87l13.75 5.69c1.2,0.5 4.75,1.38 6.75,2.76 -2.79,23.37 0.56,36.09 -1.21,53.64l-7.05 28.06c-1.13,2.59 -4.96,9.89 -6.5,12.11 -29.62,42.71 -36.27,9.52 -61.49,-3.85l-15.46 -0.23zm-217.67 1479.93c13.36,-11.66 12.91,-12 24.62,-24.29 20.77,-21.82 6.29,-11.67 32.93,-25.73 3.96,-16.24 -3.78,-0.98 5.73,-16.77 3.24,-5.38 8,-9.75 10.73,-12.72 22.2,-22.6 25.94,-28.66 43.74,-49.68 25.35,-29.93 23.23,-13.33 29.29,-49.98l-2.42 -4.49 -10.39 17.2c-26.69,-1.84 -7.08,2.24 -31.47,14.98 -16.68,8.72 11.42,-13.05 -13.97,6.75l-60.42 43.59c-0.89,-0.6 -0.22,-0.6 -2.68,-2.31 0.52,1.95 -0.04,3.41 -0.43,6.02l-4.83 10.1c-10.16,10.06 -33.45,3.06 -3.18,1.91 -12.83,34.08 -10.05,43.11 -40.13,47.67 21.63,23.08 1,10.07 13.24,15.3 -8.37,19.66 0.85,11.18 9.64,22.45zm314.18 211.33c56.87,-7.37 16.89,7.37 46.55,-15.21l27.67 -39.98c21.44,-36.28 7.7,-11.99 31.83,-27.57l0 -43.07c-0.06,-2.51 -0.13,-6.04 -0.39,-9.05 -53.14,-0.19 -49.5,20.95 -84.43,72.82 -28.75,42.65 -17.92,9.55 -21.23,62.06zm65.58 -2362.5c8.37,26.99 -0.56,13.69 18.57,30.59 23.68,-24.24 23.49,-3.27 35.81,-17.86 -0.47,48.56 10.98,51.98 44.87,61.92 3.86,-62.74 2.14,-50.47 -17.27,-92.99l-7.88 -20.77c-48.3,6.16 -14.88,-1.73 -35.08,-2.6l-33.8 3.41c-12.66,71.8 36.51,3.7 -5.22,38.3zm-453.2 3060.69l63.7 -23.65c-3.44,-15.03 -3.05,-4.51 12.86,-3.97 19.63,-27.52 46.5,-36.64 77.1,-47.69 -19.82,-26.59 26.78,-18.9 -36.41,-17.12 -58.1,1.63 31.76,13.42 -53.72,18.05 -35.26,1.92 -55.53,23.25 -73.92,49.15l-15.77 28.65c13.47,-11.13 4.58,-1.45 26.16,-3.42zm-794.5 -3281.86c11.87,11.95 22.57,17.82 48.45,15.49 36.43,-3.27 35.46,-18.31 42.43,-38.84 -31.62,-3.2 -13.9,-21.66 -27.49,-42.43 -0.18,-0.29 14.47,-13.1 -30.5,-17.36 -5.25,-0.5 -31.02,4 -35.77,4.34 6.31,70.92 9.9,49.25 24.53,58.53 0,29.55 7.47,23.06 -21.65,20.27zm-994.7 -168.84c24.88,-0.66 85.78,-7.89 60.06,-44.93 9.82,-5.69 20.6,-2.93 30,-45.3 0.25,-1.09 0.75,-3.44 0.92,-4.53l-4.34 -45.85c-53.51,19.29 -19.32,-2.74 -56.43,86.53l-7.99 7.76c-25.57,27.68 -15.97,18.76 -22.22,46.32zm1433.76 3173.3c-6.99,44.26 -25.98,22.9 -15.82,63.2 3.23,12.82 16.06,14.92 18.72,16.31 0.02,0.01 -11.77,22.64 28.21,3.82 40.34,-18.97 -6.58,-25.46 39.81,-68.6 -18.28,-18.86 -36.81,-28.67 -70.92,-14.73zm-2531.37 -516.88c1.78,-2.35 4.4,-8.74 5.47,-6.98 1.03,1.7 4.1,-5.05 5.46,-6.51l16.21 -16.26c34.45,17.41 1.35,-3.94 20.49,15.15 1.38,1.38 5.64,8.98 6.55,11.84 20.74,-24.23 0.1,1.22 10.82,-29.1 9.52,-26.94 -1.94,-4.18 8.16,-20.61 13.13,-21.38 -4.03,-1.65 14.29,-14.75l-14.79 -37.89c-18.1,22.85 -0.79,-12.85 -5.85,22.89 -6.33,44.73 17.2,27.46 -13.99,46.95l-16.62 4.48c-55.29,2.6 -18.99,-25.13 -64.75,-74 -0.67,-0.71 -2.77,-2.25 -3.42,-2.93 -1.28,-1.36 -5.45,-4.75 -8.35,-9.44l-7.48 -19.82c-0.55,-0.86 -1.79,-3.1 -2.53,-3.96l-40.74 -23.74 91.07 164.68zm3106.08 237.46c77.66,0.3 36.22,-4.08 81.48,-29.5 27.84,-15.64 30.87,-16.85 39.84,-55.84 -63.14,1.02 -110.9,37.04 -121.32,85.34zm-1045.47 -2818.87l31.7 93.83c29.12,2.79 21.65,9.28 21.65,-20.27 -14.63,-9.28 -18.22,12.39 -24.53,-58.53 4.75,-0.34 30.52,-4.84 35.77,-4.34 44.97,4.26 30.32,17.07 30.5,17.36 13.59,20.77 -4.13,39.23 27.49,42.43l9.01 -10.56c-2.7,-43.08 -11.86,-76.82 -33.64,-108.36 -26.08,1.54 -16.77,-28.51 -9.36,45.44 -43.47,36.03 -28.79,5.08 -63.06,19.36l-25.53 -16.36zm1078.89 174.29c11.71,16.06 -10.71,32.19 51.51,5.58 14.51,-6.21 -4.69,0.48 5.44,-2.97 5.56,-34.06 -21.23,-97.01 24.01,-108.7 44.03,4.73 13.4,-11.08 26.99,18.71 40.38,-31.18 15.15,18.1 8.98,-27.85 -0.11,-0.18 14.25,-16.91 -33.2,-12.89 -66.9,5.69 -49.88,80.36 -57.14,123.25l-26.59 4.87zm-735.56 1781.56c26.26,-1.75 37.84,0.13 59.17,-16.35l26.61 -50.7c1.02,-3.88 1.5,-7.83 2.04,-11.77 -66.09,3.63 -83.93,17.11 -87.82,78.82zm-1162.41 -1086.28l29.28 50.01c43.97,42.73 5.57,36.9 67.07,46.16 -4.24,-52.44 -38.59,-90.03 -96.35,-96.17zm1888.89 1223.3c1.18,2.74 3.08,8.61 3.34,10.74 0.17,1.41 0.67,4.23 0.76,5.88 0.89,15.1 -10.4,34.27 13.93,64.28 34.57,-9.83 -16.98,11.78 26.23,-16.16l12.1 -7.54c1.03,-3.1 4.22,-2.64 6.6,-3.19l-17.94 -66.77c-20.84,3.37 -12.07,5.03 -25.53,12.1l-19.4 9.6c-5.56,-8.96 -16.98,0.89 -0.09,-8.94zm-3418.15 -448.01l18.65 -2.67c2.24,-1.79 4.9,-5.61 6.96,-7.46 2.41,-2.18 4.94,-6.29 7.21,-9.57 -14.15,-37.33 2.65,-42.22 -32.77,-66.52 -28.94,13.17 -13.15,-9.48 -25.77,23.81 -5.93,15.63 -2.04,18.18 -2.11,33.67l27.83 28.74zm887.33 1086.7l60.5 19.7c-0.94,-1.59 -2.53,-5.89 -2.95,-4.65l-58.41 -64.61c-8.89,-11.48 -4.02,-5.24 -8.42,-15.17 -18.7,-10.71 -12.23,-4.01 -29.82,-21.89 -17.3,16.08 -8.73,25.11 -7.71,27.92l33.23 41.6c14.49,17.8 5.64,0.65 13.58,17.1zm95.06 -2056.84l0.41 39.34c14.6,44.91 8.4,9.67 28.47,-19.69 6.82,27.55 9.31,26.84 23.05,40.27 6.93,-35.06 10.68,-17.65 9.2,-72.04 -36.83,-10.29 -10.1,16.48 -50.51,13.83l-10.62 -1.71zm580.93 -1018.19c-16.5,28.37 -12.72,26.55 -10.91,66.99 48.14,-7.27 53.88,-26.04 51.42,-72.56l-40.51 5.57zm125.93 2253.35c-25.14,-26 -44.36,-38.27 -61.82,-72.91 -16.28,-2.79 -10.58,4.24 -13.18,-13.12 -18.61,-6.35 -10.04,2.14 -17.99,-7.98 -2.96,41.46 12.48,28.79 10.67,66.4 39.33,6.13 50.7,26.62 50.68,24.82l31.64 2.79zm-852.61 1235.36c23.21,20.89 17.45,25.74 53.92,28.93 37.11,-52.04 6.45,51.87 9.01,-19l-37.04 -62.02c-20.03,20.13 -5.48,-4.87 -18.83,22.59 -1.86,3.83 -7.02,29.32 -7.06,29.5zm133.14 -2757.22c35.29,-22.12 12.05,-47.01 11.97,-47.52 -1.49,-11.54 -2.37,-20.8 -10.23,-41.47 5.57,7.96 -1.39,14.04 -5.63,21.72 -1.32,2.41 -3.93,6.17 -6.2,9.02 -8.57,-60.26 12.83,-4.78 -12.13,-32.06 -8.86,-9.68 -14.73,-9.06 -30.01,-17.23l-9.04 12.92c20.26,20.62 23.25,11.57 38.51,33.78 12.55,18.29 12.89,37.82 22.76,60.84zm-845.76 757.7c46.6,-5.12 62.71,-12 87.38,-30.15l-2.05 -51.11c-45.77,-13.46 3.26,8.01 -38.04,48.36 -35.76,34.95 -28.75,-22.45 -47.29,32.9zm568.65 -906.95c-11.69,26.84 -6.81,16.48 -0.91,45.55l40.58 -3.46c15.38,-33.44 12.27,-13.63 0.47,-45.14 -11.46,-3.96 9.4,-19.2 -40.14,3.05zm-330.58 1452.86l-7.95 -47.21c-20.59,-9.97 -35.33,-17.68 -66.2,-21.9 9.82,62.21 -7.26,4.32 25.39,27.65 50.48,36.05 11.67,18.98 48.76,41.46zm317.13 -1008.58c-2.8,-29.55 6.77,-21.99 -26.83,-24.38l-9.84 4.31c32.1,14.78 24.99,15.97 30.85,39.98l5.82 -19.91z"/>
 </g>
</svg>
