<?xml version="1.0" encoding="UTF-8"?>
<!DOCTYPE svg PUBLIC "-//W3C//DTD SVG 1.1//EN" "http://www.w3.org/Graphics/SVG/1.1/DTD/svg11.dtd">
<!-- Creator: CorelDRAW 2019 (64-Bit) -->
<svg xmlns="http://www.w3.org/2000/svg" xml:space="preserve" width="100%" height="100%" version="1.1" style="shape-rendering:geometricPrecision; text-rendering:geometricPrecision; image-rendering:optimizeQuality; fill-rule:evenodd; clip-rule:evenodd"
viewBox="0 0 4411.55 4233.32"
 xmlns:xlink="http://www.w3.org/1999/xlink">
 <defs>
  <style type="text/css">
   <![CDATA[
    .fil0 {fill:white}
   ]]>
  </style>
 </defs>
 <g id="Layer_x0020_1">
  <metadata id="CorelCorpID_0Corel-Layer"/>
  <g id="_2352652078688">
   <path class="fil0" d="M3636.92 666.16l576.14 0c-32.38,61.19 -267.89,475.58 -297.08,495.13 -52.36,-196.12 -209.53,-45.74 -414.55,71.57l-314.63 180.48c-52.09,28.22 -103.32,60.88 -153.48,89.58 -52.94,30.29 -101.5,56.91 -154.23,88.83l-775.34 449.09c-49.92,51.45 -0.46,108.67 34.96,168.54l316.08 548.14c18.38,30.4 35.46,46.58 38.84,87.19 -92.51,48.94 -171.73,99.49 -264.16,149.94l-1181.27 682.19c-66.39,40.21 -621.68,364.98 -661.1,374.17 -23.49,-44.39 -119.07,-204.19 -126.03,-234.06 39.85,-21.09 71.32,-42.85 113.94,-66.11 41.19,-22.49 73.01,-43.35 114.21,-65.84 42.7,-23.31 74.02,-44.52 113.94,-66.1 403.46,-218.19 878.36,-521.9 1278.31,-738.19 38.76,-20.96 73.69,-43.19 114.26,-65.79 181.33,-100.96 106.3,-112.51 -102.47,-486.12 -70.12,-125.46 -143.53,-241.02 -209.84,-366.31l630.63 -359.63c42.81,-24.65 83.34,-49.65 125.56,-72.48 41.92,-22.67 84.42,-47.75 125.52,-72.54l1010.5 -582.9c124.48,-74.69 132.77,-73.67 61.29,-208.78zm-169.76 9.01c13.89,31.24 26.36,36.1 34.73,72.01l-601.02 342.08c-9.47,9.55 -6.22,7.27 -20.51,17.6 -1.53,1.11 -15.08,9.53 -16.7,10.47 -36.77,21.58 -74.21,47.51 -108.96,52.93 -21.55,29.45 -464.84,274.36 -497.97,294.26l-501.73 290.46c-42.76,24.47 -85.28,47.34 -126.1,71.95 -159.8,96.37 -177.61,53.91 79.89,479.28 26.03,42.99 45.97,82.93 71.93,126.12 25.4,42.24 50.28,84.53 73.3,124.75 24.05,42.05 46.36,86.6 72.46,125.59l-455.16 261.06c-6.43,6.37 -6.4,6.64 -16.05,14l-51.54 30.39c-29.31,16.95 -38.04,26.07 -71.39,36.49 -90.59,61.57 -463.26,267.65 -597.99,347.4 -30.04,17.78 -60.87,36.51 -89.96,48.83 -17.48,20.72 -104.57,67.1 -131.26,77.94 -22.06,16.16 -35.12,19.75 -59.24,33.92l-290.16 168.91c-151.92,90.74 -69.34,109.48 49.31,343.42 22.32,44.03 45.43,77.32 68.75,120.29 59.35,109.38 93.95,71.62 230.89,-6.74 137.35,-78.59 735.47,-434.4 831.77,-476.66 19.57,-26.68 115.47,-75.5 149.93,-90.73 24.68,-15.28 36.45,-22.2 65.83,-35.31 18.38,-20.97 235.29,-144.63 267.25,-152.96 9.53,-8.34 1.2,-1.78 15.56,-11.52l154.97 -87.58c28,-28.01 227.44,-147.23 270.59,-152.95 22.8,-31.34 299.24,-173.5 360.42,-215.81 85.18,-58.89 37.72,-110.5 -32.51,-229.23 -58.96,-99.67 -108.38,-193.91 -167.51,-291.6l-128.2 -222.89c-14.73,-24.94 -34.09,-49.15 -41.21,-75.82l756.7 -431.59c32.82,-19.78 80.16,-41.49 107.52,-67.35 40.02,-17.22 91.78,-60.47 135.04,-68.14 36.61,-32 38.75,-26.22 77.18,-48.91 30.99,-18.29 57.75,-33.01 85.37,-49.66 29.67,-17.9 53.55,-30.38 85.67,-49.36 32.83,-19.39 58.46,-28.75 84.85,-54.35l126.04 -67.35c30.77,-17.29 41.03,-33.17 81.02,-36.5 6.69,25.07 39.64,79.06 53.68,99.35 96.56,139.65 170.15,-46.16 231.62,-156.14l290.45 -501.75c121.01,-207.36 -81.34,-170.65 -242.67,-170.65 -131.17,0 -540.55,-16.9 -639.16,5.2 -96.84,28.23 -56.25,89.65 -25.72,156.85z"/>
   <path class="fil0" d="M513.13 3498.78c26.69,-10.84 113.78,-57.22 131.26,-77.94 -18.82,-17.29 -53.8,-59.45 -68.24,-81.02 26.38,-39.39 70.38,-74.89 105.77,-110.27 31.4,-31.38 94.61,-73.74 81.9,-139.21 -3.04,-15.69 -122.89,-206.72 -160.57,-290.75 -42.03,-93.72 -88.59,-224.86 -110.37,-339.73 -28.91,-152.45 -69.39,-119.28 -330.84,-119.28l-13.08 -225.06c0,-19.92 4.3,-72.33 3.99,-108.12 -0.48,-53.96 8.2,-76.62 9.09,-116.94 452.5,0 224.13,44.32 438.48,-452.75 30.92,-71.68 159.8,-283.55 161.45,-289.54 18.92,-69.06 -43.69,-110.38 -75.54,-142.17 -35.89,-35.83 -83.84,-75.29 -110.28,-114.78 42.52,-63.51 79.4,-87.13 109.37,-124.7 66.6,-83.5 52.99,-50.4 122.33,-120.72 21.72,-22.04 64.76,-62.29 92.38,-69.67 118.95,79.66 155.65,211.33 247.93,185.84 46.09,-12.73 259.89,-199.91 623.03,-269.1 153.44,-29.24 119.29,-71.37 119.29,-330.83l225.05 -18.6 234.07 18.6c0,300.22 -27.28,304.62 110.27,330.83 115.05,21.91 250.16,65.84 339.97,110.14l210.66 113.42c111.02,73.33 112.65,72.06 214.57,-30.02 35.83,-35.88 75.29,-83.82 114.78,-110.28 61.93,41.48 90.35,89.82 127.31,99.04 -30.53,-67.2 -71.12,-128.62 25.72,-156.85 -16.68,-34.24 -49.13,-53.06 -91.11,-85.13 -137.53,-105.07 -161.96,65.18 -304.99,160.96 -91.03,-48.18 -168.24,-101.77 -277.68,-145.44 -68.76,-27.44 -237.92,-95.68 -325.47,-97.63 0,-60.01 -0.24,-120.07 0.03,-180.07 0.66,-149.37 9.79,-171.01 -378.13,-171.01 -446.06,0 -378.1,8.45 -378.1,351.08 -177.95,3.97 -453.68,163.98 -603.14,243.07 -237.64,-159.13 -111.76,-404.53 -627.99,146.2 -225.7,240.81 -38.07,205.87 87.85,393.93 -24.89,47.05 -50.66,83.62 -75.15,131.9 -26.78,52.81 -45.57,93.49 -69.15,146.9 -26.89,60.91 -97.03,246.71 -98.76,324.35 -60.01,0 -120.06,0.23 -180.07,-0.04 -147.89,-0.64 -171.02,-11.55 -171.02,378.13 0,80.45 6.28,283.52 27.77,332.32 22.17,50.35 62.35,46.32 134.21,45.84 63,-0.42 126.1,-0.06 189.11,-0.06 3.95,177.51 164.14,453.99 243.06,603.14 -41.43,61.88 -132.89,121.69 -176.7,183.52 -47.89,67.59 19.37,129.85 95.68,218.5z"/>
   <path class="fil0" d="M1890.48 3798.94l459.12 0 0 180.04c-45.65,0 -49.05,9.01 -99.03,9.01l-261.07 0c-49.97,0 -53.38,-9.01 -99.02,-9.01l0 -180.04zm1233.31 -2182.36c17.98,92.86 90.63,198.54 90.63,435.92 0,70.47 -15.66,172.17 -28.18,233.49 -50.68,248.08 -202.77,488.34 -404.78,639.49 -31.8,23.79 -42.93,36.28 -45.1,89.94 -1.73,43.07 0.33,91.64 0.33,135.36l-468.11 0.09c-43.15,5.72 -242.59,124.94 -270.59,152.95l738.7 0 0 99.02 -909.23 0.08c-31.96,8.33 -248.87,131.99 -267.25,152.96l1221.5 0 -45.02 0 0 90.03 -1242.31 0 0 -54.72c-34.46,15.23 -130.36,64.05 -149.93,90.73 -12.84,95.66 39.68,118.04 131.69,117.26 87.04,-0.74 174.25,-0.24 261.29,-0.24 0,128.18 -23.07,283.85 45.75,314.35 80.35,35.62 584.35,35.62 664.71,0 68.82,-30.5 45.74,-186.17 45.74,-314.35 406.29,0 396.23,36.01 396.1,-189.05 -0.11,-195.04 -0.01,-390.1 -0.01,-585.14 75.01,-39.68 195.36,-182.98 246.74,-257.39 70.29,-101.75 128.96,-215.24 168.52,-344.61 40.02,-130.88 62.51,-278.02 52.91,-460.32 -6.13,-116.47 -32.42,-208.97 -66.44,-311.65 -10.69,-32.25 -30.19,-73.08 -32.62,-102.34 -43.26,7.67 -95.02,50.92 -135.04,68.14z"/>
   <path class="fil0" d="M3591.9 1346.16c7.4,38.77 22.82,57.33 39.13,91.08 39.38,81.47 73.85,193.62 95.93,282.16 50.65,203.12 10.38,171.06 342.06,171.06 24.3,291.9 24.3,158.23 0,450.12 -481.25,0 -212.43,-15.17 -437.99,453.23l-112.81 211.27c-79.33,123.1 -78.96,105.59 26.42,210.97 35.91,35.9 83.81,75.24 110.28,114.78 -17.1,64.01 -251.48,281.49 -315.07,324.08 -51.47,-34.47 -112.56,-114.12 -164.43,-159.67 -93.95,-82.53 -188.99,20.98 -117.3,99.28 51.21,55.93 108.15,107.34 162.44,161.67 77.62,77.64 93.51,111.31 196.52,29.97 35.16,-27.76 55.25,-45.37 86.99,-75.07 19.49,-18.24 25.63,-18.93 45,-36 62.75,-55.25 223.75,-229.17 268.01,-299.25 67.43,-106.75 -89.09,-143.08 -180.16,-279.08 48.17,-91.03 101.76,-168.24 145.42,-277.67 25.89,-64.87 97.64,-242.91 97.64,-325.47 346.02,0 351.08,66.78 351.08,-378.1 0,-361.36 -7.95,-379.18 -161.98,-378.16 -62.98,0.43 -126.1,0.07 -189.1,0.07 0,-106.05 -109.17,-361.99 -162.04,-458.62l-126.04 67.35z"/>
   <path class="fil0" d="M1332.34 3024.61c33.35,-10.42 42.08,-19.54 71.39,-36.49l51.54 -30.39c9.65,-7.36 9.62,-7.63 16.05,-14 -18.95,-19.86 -16.14,-15.27 -36.23,-31.02l-109.62 -97.15c-15.29,-16.57 -15.4,-19.67 -27.87,-35.13 -125.93,-156.03 -203.91,-266.99 -252.75,-503.45 -190.81,-923.62 784.64,-1587.96 1535.91,-1211.83 44.75,22.41 150.7,73.45 173.94,105.11 34.75,-5.42 72.19,-31.35 108.96,-52.93 1.62,-0.94 15.17,-9.36 16.7,-10.47 14.29,-10.33 11.04,-8.05 20.51,-17.6 -33.57,-19.48 -99.81,-80.67 -185.07,-123.13 -74.13,-36.93 -134.56,-69.85 -220.12,-94.97 -510.53,-149.91 -1027.81,1.59 -1342.22,399.31 -46.73,59.11 -86.45,111.46 -124.24,181.84 -225.08,419.27 -211.04,947.38 74.13,1324.31 51.32,67.82 120.81,154.88 186.71,209.39 20.79,17.21 27.65,16.97 42.28,38.6z"/>
  </g>
 </g>
</svg>
