<?xml version="1.0" encoding="UTF-8"?>
<!DOCTYPE svg PUBLIC "-//W3C//DTD SVG 1.1//EN" "http://www.w3.org/Graphics/SVG/1.1/DTD/svg11.dtd">
<!-- Creator: CorelDRAW 2019 (64-Bit) -->
<svg xmlns="http://www.w3.org/2000/svg" xml:space="preserve" width="100%" height="100%" version="1.1" style="shape-rendering:geometricPrecision; text-rendering:geometricPrecision; image-rendering:optimizeQuality; fill-rule:evenodd; clip-rule:evenodd"
viewBox="0 0 3206.07 4233.27"
 xmlns:xlink="http://www.w3.org/1999/xlink">
 <defs>
  <style type="text/css">
   <![CDATA[
    .fil0 {fill:white}
   ]]>
  </style>
 </defs>
 <g id="Layer_x0020_1">
  <metadata id="CorelCorpID_0Corel-Layer"/>
  <path class="fil0" d="M2496.09 1341.78c88.06,59.97 115.82,56.81 193.5,-6.35l0 210.77 -193.35 -16.96 -0.15 -187.46zm-65.09 181.57l-1648.6 0.26c-44.6,-600.73 120.01,-1215.12 812.65,-1218.54 312.21,-1.52 552.75,148.29 686.82,342.25 169.73,245.59 174.64,539.71 149.13,876.03zm-1962.52 19.16c30.49,-28.48 63.54,2.24 63.99,-207.08l160.24 10.04c1.55,-124.45 -16.24,-277.95 33.08,-390.43 0,330.7 34.71,495.57 -45.86,616.22 -1.83,2.77 -7.38,10.76 -9.24,13.65l-296.62 88.67 2508.49 32.13c30.96,47.15 19.43,-12.47 22.51,74.45 112.33,158.6 47.69,827.28 47.69,1068.2 0,251.18 35.55,890.09 -25.67,1091.51 60.99,139.35 10.76,110.53 -12.32,258.67l-2704.09 7.19c353.54,49.54 1778.48,16.99 2317.81,17.64 813.17,0.95 667.43,-44.33 667.43,-1632.58 0,-214.61 21.21,-567.89 -3.04,-765.95 -47.99,-392.03 -416.74,-229.06 -454.01,-360.81 -1.48,-404.53 -25.43,-777.78 -242.13,-1030.63 -503.4,-587.39 -1314.18,-574.24 -1786.32,18.32 -281.6,353.43 -216.2,607.24 -241.94,1090.79zm0 0c-595.57,-130.42 -453.7,564.01 -453.7,1209.27 0,170.34 -19.24,1114.93 19.47,1239.27 48.06,154.6 113.27,130.84 176.43,214.68l2704.09 -7.19c23.08,-148.14 73.31,-119.32 12.32,-258.67 -88.98,59.85 -2485.15,72.55 -2625.19,10.41 -58.44,-92.43 -42.55,-129.62 -41.52,-264.03 2.85,-380.77 -27.34,-1716.05 27.87,-1887.38 167.61,-58.33 2334.73,-49.28 2616.82,-18.71 -3.08,-86.92 8.45,-27.3 -22.51,-74.45l-2508.49 -32.13 296.62 -88.67c1.86,-2.89 7.41,-10.88 9.24,-13.65 80.57,-120.65 45.86,-285.52 45.86,-616.22 -49.32,112.48 -31.53,265.98 -33.08,390.43l-160.24 -10.04c-0.45,209.32 -33.5,178.6 -63.99,207.08zm1261.21 819.07c226.01,-21.41 540.39,-51.56 527.5,228.1 -11.14,241.23 -284.34,231.83 -524.69,214.91l-2.81 -443.01zm-304.12 3.88l0.12 997.97c0,324.87 304.15,548.03 305.78,-160.96l0.95 -154.45c357.35,-34.03 737.02,21.48 821.58,-336.97 152.32,-645.6 -500.92,-588.3 -894.77,-588.6 -216.66,-0.23 -233.77,35.4 -233.66,243.01zm-655.98 0l-0.27 933.59c-0.07,260.5 -11.37,375.98 259.97,332.1 86.66,-196.16 45.97,-1003.22 46.09,-1265.69 0.11,-383.93 -305.79,-360.85 -305.79,0zm1920 -1030.03c-77.68,63.16 -105.44,66.32 -193.5,6.35l0.15 187.46 193.35 16.96 0 -210.77z"/>
 </g>
</svg>
