<?xml version="1.0" encoding="UTF-8"?>
<!DOCTYPE svg PUBLIC "-//W3C//DTD SVG 1.1//EN" "http://www.w3.org/Graphics/SVG/1.1/DTD/svg11.dtd">
<!-- Creator: CorelDRAW 2019 (64-Bit) -->
<svg xmlns="http://www.w3.org/2000/svg" xml:space="preserve" width="100%" height="100%" version="1.1" style="shape-rendering:geometricPrecision; text-rendering:geometricPrecision; image-rendering:optimizeQuality; fill-rule:evenodd; clip-rule:evenodd"
viewBox="0 0 3633.91 4233.32"
 xmlns:xlink="http://www.w3.org/1999/xlink">
 <defs>
  <style type="text/css">
   <![CDATA[
    .fil0 {fill:white}
   ]]>
  </style>
 </defs>
 <g id="Layer_x0020_1">
  <metadata id="CorelCorpID_0Corel-Layer"/>
  <path class="fil0" d="M842.12 4084.18l1.48 -80.12c110.97,-39.92 1728.46,-26.47 1955.75,-11.25l7.34 107.84c-232.83,24.08 -1861.41,38.92 -1964.57,-16.47zm798.86 -573.11c545.97,-1.35 358.04,-33.02 481.23,198.65 32.92,61.91 75.46,92.44 119.13,155.04 -271.34,26.47 -559.66,15.29 -833.36,7.69 40.02,-46.91 83.09,-88.03 122.44,-165.63 93.48,-184.41 -1.7,-135.29 110.56,-195.75zm1835.2 -129.52c-338.86,42.4 -2340.38,12.95 -2982.3,15.09 -217.65,0.72 -433,56.4 -366.3,-234.6 1020.16,3.34 2489.22,-33.37 3387.35,4.95 15.88,176.91 -35.79,171.71 -38.75,214.56zm-1867.72 -2285.78l419.42 12.44c0.38,262.55 -32.01,1101.57 18.71,1295.4 79.3,29.59 79.81,11.66 137.47,58.89 -146.07,80.56 -229.15,201.8 -356.38,307.63 -162.13,-86.33 -226.15,-232.74 -378.14,-312.01 5.96,-4.7 15.12,-8.6 19.88,-11.03 4.73,-2.39 14.08,-7.72 19.88,-10.52l114.59 -46.92 4.57 -1293.88zm-1494.68 54.06c0,-128.23 37.05,-170 166.74,-169.94 92.44,0.06 460.47,-30.88 525.97,36.58 -94.33,46.47 -194.68,39.92 -277.07,88.37l-3.75 151.71c-4.82,398.34 144.99,172.72 266.14,287.78 198.36,353.79 77.28,234.22 -15.95,512.49 54.57,75.93 205.46,231.13 280.57,263.33l211.06 -132.52 216.93 116.45 -239.23 19.5c-13.68,110.91 31.73,130.54 101.51,187.28 197.68,160.75 349.57,351.74 480.98,396.79 46.29,-26.4 573.71,-466.89 572.89,-565.19 -73.91,-58.92 -147.73,-33.72 -251.08,-38.22l31.86 -25.68c5.79,-4.19 26.4,-18.93 33.3,-23.35 90.39,-57.59 106.24,-59.16 154.95,-44.1 33.81,10.42 139.73,91.08 205.01,120.89 85.42,-43.36 231.51,-189.01 269.48,-275.18 -162.45,-333.66 -152.9,-98.71 -16.89,-497.59l272.98 -73.34c42.53,-611.36 -54.98,-293.71 -280.7,-462.59 39.39,-42.15 40.46,-43.63 155.27,-43.54 640.09,0.41 546.23,-33.96 545.47,410.16l-0.25 1659.26 -3405.3 -0.25 -0.89 -1899.1zm1379.05 518.89c-73.47,-38.47 -14.02,6.43 -74.67,-54.79 -5.73,-5.74 -38.06,-52.08 -44.83,-64.05 -363.91,-644.47 687.16,-1124.7 928.56,-420.87 86.61,252.46 -17.17,410.47 -157.44,542.54l-18.56 -654.58c-6.04,-4.38 -14.74,-8.41 -19.84,-10.4 -98.18,-37.84 -510.7,-52.11 -611.71,16.8l-1.51 645.35zm432.75 -1551.04c92.31,352.56 -5.42,194.87 282.45,332.49 304.61,145.59 144.33,20.51 396.86,-47.8l114.05 133.94c-113.8,256.02 -198.17,65.69 26.75,601.77 188.29,66.26 309.71,-2.23 235.36,257.95 -347.11,150.19 -152.02,-85.42 -322.6,292.13 -122.75,271.74 -63.45,125.93 50.13,371.15l-133.97 133.11c-300.51,-132.77 -82.32,-158.89 -429.5,-37.68 -3.84,-284.95 -32.13,-273.64 53.82,-367.75 18.43,-20.16 63.39,-57.87 69.19,-63.48 59.92,-57.75 70.1,-72.47 110.4,-156.75 201.26,-420.8 -99.09,-895.29 -550.8,-901.94 -725.29,-10.65 -810.14,970.94 -337.25,1145.27l1.45 343.67c-348.31,-111.06 -118.25,-144.49 -439.52,27.16l-136.46 -150.88 118.53 -211.16 -136.99 -378.43 -256.84 -65.72 -1.04 -192.79 259.36 -56.62c42.09,-152.02 77.6,-200.76 128.3,-324.77 43.7,-106.96 -54.32,-173.32 -99,-286.65l129.62 -128.73c256.09,122.4 117.02,170.83 401.62,49.43 285.92,-121.96 179.96,16.64 267.8,-320.48l198.28 3.56zm-871.48 132.73c-80.97,39.58 -218.22,179.15 -262.7,259.24 78.1,225.97 162.13,106.18 84.15,356.66 -565.92,10.71 -875.54,-100.42 -875.54,283.52l0 2080.71c-0.03,355.04 274.49,280.53 573.93,280.62 299.19,0.07 598.4,0.1 897.59,0.07 -146,663.15 -742.89,100.19 -745.54,546.26l-0.19 26.69c-0.91,153.34 26.75,136.23 168.25,137.3 227.38,0.51 1932.14,41.15 2000.77,-31.16 32.1,-33.77 70.32,-209.8 -11.57,-284.41 -161.25,-134.91 -616.9,129.62 -704.52,-388 1465.98,-144.3 1455.14,370.01 1455.17,-740.85l-0.22 -1679.75c-21.11,-298.46 -366.39,-229.59 -765.65,-229.65 -287.93,-0.03 -35.57,-232.42 -14.84,-358.01 -53.97,-85.07 -164.37,-199.97 -251.89,-245.94 -106.78,30.09 -177.38,120.99 -239.77,121.68 -40.2,0.47 -226.91,-87.21 -267.71,-116.04l-76.69 -264.28 -377.23 -5.07c-87.96,233.37 35.13,229.4 -210.27,326.03 -261.66,103 -159.96,0.32 -375.53,-75.62z"/>
 </g>
</svg>
