<?xml version="1.0" encoding="UTF-8"?>
<!DOCTYPE svg PUBLIC "-//W3C//DTD SVG 1.1//EN" "http://www.w3.org/Graphics/SVG/1.1/DTD/svg11.dtd">
<!-- Creator: CorelDRAW 2019 (64-Bit) -->
<svg xmlns="http://www.w3.org/2000/svg" xml:space="preserve" width="100%" height="100%" version="1.1" style="shape-rendering:geometricPrecision; text-rendering:geometricPrecision; image-rendering:optimizeQuality; fill-rule:evenodd; clip-rule:evenodd"
viewBox="0 0 4136.7 4233.34"
 xmlns:xlink="http://www.w3.org/1999/xlink">
 <defs>
  <style type="text/css">
   <![CDATA[
    .fil0 {fill:white}
   ]]>
  </style>
 </defs>
 <g id="Layer_x0020_1">
  <metadata id="CorelCorpID_0Corel-Layer"/>
  <g id="_2352535429744">
   <path class="fil0" d="M1455.01 1515.4c10.89,-1.92 340.83,-138.98 353.05,-147.48 18.15,-137.15 4.78,-241.88 171.34,-245.83 81,-1.92 117.45,21 149.85,67.94 37.46,54.3 20.01,106.45 29.25,190.32 56.47,20.28 340.33,133.77 363.5,135.71 64.66,-47.54 98.36,-139.13 229.98,-99.62 68.46,20.54 156.11,127 102.68,237.45 -45.71,94.48 -139.14,47.13 -56.02,203.28 50.27,94.46 67.91,163.76 98.19,262.42 68.26,6.81 133.41,-4.63 180.44,21.89 97.98,55.25 113.18,215.71 13.81,292.27 -104.98,80.9 -152.39,-19.84 -200.08,70.05l-127.43 318.88c31.44,45.1 199.08,163.31 48.59,308.87 -38.87,37.6 -85.36,67.89 -174.5,44.14 -62.46,-16.62 -75.58,-65.9 -133.96,-102.55 -12.54,4.27 -333.71,141.89 -341.76,147.33 -12.55,18.86 33.06,247.64 -182.14,248.79 -268.08,1.46 -66.5,-218.31 -253.43,-285.82 -32.48,-11.72 -57.36,-16.55 -94.3,-31.39 -70.54,-28.36 -108.15,-66.31 -177.06,-77.2 -96.1,51.91 -149.04,196.11 -298.79,46.55 -150.34,-150.17 1.18,-199.48 47.39,-298.72l-105.09 -258.17c-59.07,-178.38 -107.72,-51.31 -222.55,-121.17 -75.19,-45.74 -108.29,-195.25 2.33,-287.1 70.71,-58.71 87.09,-14.61 191,-44.49 22.47,-59.98 36.35,-118.5 59.89,-175.54 24.77,-60.05 57.01,-101.52 75.42,-162.22 -57.4,-90.31 -190.21,-163.49 -55.31,-305.27 39.74,-41.75 79.04,-79.72 175.14,-54.23 56.98,15.1 83.09,67.55 130.57,100.91zm252.66 -211.53l-234.32 97.85c-105.26,-68.95 -22.78,-87.43 -235.32,-87.19 -97.91,0.11 -235.55,143.68 -235.55,242.49 0,221.05 26.89,125.83 86.43,235.04l-96.61 227.87c-56.45,9.58 -277.99,8.41 -277.99,242.25 0,158.95 -4.38,146.31 88.16,236.96 85.52,83.8 56.97,49.63 196.3,70.2l89.97 235.08c-124.85,124.38 -132.11,268.38 -7.71,392.24 123.11,122.56 274.59,122.2 392.04,-6.53l232.4 95.05c17.34,82.9 23.98,279.35 273.52,280.63 133.09,0.69 134.01,-4.05 201.79,-71.56 94.65,-94.31 50.42,-61.7 76.64,-211.83l245.44 -94.79c97.56,125.06 259.97,120.68 362.96,15.29 93.14,-95.29 98.37,-60.01 98.48,-235.58 0.04,-102.61 -43.76,-96.5 -87.18,-162.73l97.25 -233.07c57.22,-10.96 277.44,2.33 277.86,-255.11 0.26,-162.95 -2.52,-135.51 -90.42,-224.39 -69.66,-70.43 -61.42,-64.02 -192.37,-63.91l-88.03 -237.78c64.07,-84.33 84.08,-45.16 85.17,-196.87 1.2,-164.29 -112.48,-282.54 -282.32,-281.15 -153.33,1.26 -109.13,24.84 -198.65,89.35l-233.33 -98.79c-2.33,-137.53 -1.43,-120.45 -75.62,-196.22 -71.31,-72.84 -48.89,-82.28 -197.41,-81.74 -258.58,0.94 -253.15,179.3 -271.58,278.94z"/>
   <path class="fil0" d="M1034.88 363.67c11.64,127.79 93.88,52.71 203.65,144.28 -818.69,322.08 -1286.34,1176.74 -1174.22,2060.79 12.21,96.42 1.75,139.58 88.86,142.17 45.57,-62.85 -6.69,-267.16 -9.23,-358.29 -14.92,-534.74 230.99,-1136.88 627.99,-1442.65 133.3,-102.68 319.82,-260.69 527.65,-317.84 -16.55,59.07 -30.05,90.34 -50.95,145.88 -29.05,77.08 -37.4,84.51 12.34,123.46 74.17,-15.87 78.59,-83.61 109.13,-166.92 28,-76.34 64.24,-142.54 64.88,-223.25 -76.95,-41.17 -326.94,-161.04 -400.1,-107.63z"/>
   <path class="fil0" d="M3800.6 2543.76c-42.75,-36.56 -52.34,-58.99 -85.95,-100.12 -32.46,-39.72 -85.19,-119.14 -128.74,-51.55 -31.15,48.37 229.15,320.85 237.69,322.85 19.67,4.66 311.47,-170.8 313.1,-297.4 -109.56,-21.14 -137.28,78.04 -229.83,118.91 58.02,-650.4 -144.6,-1199.71 -531.74,-1597.91 -148.63,-152.88 -676.37,-524.21 -812.02,-475.89 -210.72,75.09 453.76,133.41 897.79,733.74 199.12,269.21 466.15,883.25 339.7,1347.37z"/>
   <path class="fil0" d="M1496.12 2352.58c-26.83,-288.47 176.97,-516.16 428.9,-544.18 669.18,-74.45 734.53,922.64 106.76,975.27 -284.22,23.83 -512.13,-178.09 -535.66,-431.09zm400.95 -636.18c-807.61,138.57 -561.42,1306.17 203.8,1155.87 280.72,-55.12 527.14,-342.39 460.55,-685.34 -54.26,-279.46 -323.09,-529.09 -664.35,-470.53z"/>
   <path class="fil0" d="M697.67 3674.64c-16.21,83.76 4.98,146.29 18.24,229.42 14.46,90.55 -2.9,167.62 88.18,183.66 60.35,-64.56 7.94,-139.6 6.28,-245.57 77.52,44.57 154.25,103.79 247.3,155.43 94.84,52.64 189.63,95.05 301.6,132.28 247.58,82.28 488,117.22 765.07,98.57 339.55,-22.85 686.49,-148.16 949.77,-329.36 68.14,-46.9 214.6,-135.23 195.42,-211.85 -47.05,-27.23 -90.12,2.31 -133.17,39.53 -48.37,41.81 -59.73,49.69 -112.57,86.3 -262.2,181.63 -577.37,296.84 -917.67,318.79 -257.76,16.64 -499.57,-19.54 -723.89,-97.34 -143.83,-49.88 -288.28,-121.55 -412.44,-202.45 -18.9,-12.3 -56.06,-38.63 -64.16,-45.46 -46.72,-39.49 -30.66,-20.1 -36.96,-47.28 108.59,-15.87 257.08,-8.31 231.98,-108.19 -58.72,-31.95 -135.01,-6.04 -206.14,5.94 -68.38,11.51 -129.97,17.72 -196.84,37.58z"/>
   <path class="fil0" d="M1934.8 108.04c328.48,-77.62 398.71,422.44 113.06,488.81 -339.21,78.8 -448.17,-409.62 -113.06,-488.81zm-39.5 -90.76c-473.18,149.62 -242.84,780.42 176.33,674.84 461.9,-116.35 249.52,-809.5 -176.33,-674.84z"/>
   <path class="fil0" d="M283.31 2999.29c313.52,-89.93 444.09,382.05 146.5,479.65 -316.53,103.79 -492.12,-380.54 -146.5,-479.65zm-29 -96.7c-430.27,116.16 -278.07,789.58 183.72,676.08 430.79,-105.86 281.15,-801.56 -183.72,-676.08z"/>
   <path class="fil0" d="M3565.75 2993.93c145.44,-31.71 276.39,71.29 299.65,191.13 30.19,155.79 -73.98,278.4 -191.97,301.44 -331.5,64.68 -430.32,-422.22 -107.68,-492.57zm-38.65 -91.49c-440.99,115.2 -267.82,810.92 198.14,671.94 152.67,-45.53 290.14,-228.96 231.11,-431.98 -47.28,-162.63 -220.82,-294.39 -429.25,-239.96z"/>
   <path class="fil0" d="M1696.54 2284.97c-21.93,22.76 -24,-36.92 -18.05,46.06 3.34,46.77 68.09,78.16 97.36,98.43 221.46,153.33 143.51,160.62 400.23,-151.47 24.39,-29.65 112.25,-122.91 113.25,-163.5 5.7,-232.24 -317.47,239.61 -338.57,283.69 -67.68,-17.47 -88.42,-43.68 -134.88,-81.99 -41.24,-33.95 -71.8,-70.98 -119.34,-31.22z"/>
  </g>
 </g>
</svg>
