<?xml version="1.0" encoding="UTF-8"?>
<!DOCTYPE svg PUBLIC "-//W3C//DTD SVG 1.1//EN" "http://www.w3.org/Graphics/SVG/1.1/DTD/svg11.dtd">
<!-- Creator: CorelDRAW 2019 (64-Bit) -->
<svg xmlns="http://www.w3.org/2000/svg" xml:space="preserve" width="100%" height="100%" version="1.1" style="shape-rendering:geometricPrecision; text-rendering:geometricPrecision; image-rendering:optimizeQuality; fill-rule:evenodd; clip-rule:evenodd"
viewBox="0 0 3279.66 4233.34"
 xmlns:xlink="http://www.w3.org/1999/xlink">
 <defs>
  <style type="text/css">
   <![CDATA[
    .fil0 {fill:white}
   ]]>
  </style>
 </defs>
 <g id="Layer_x0020_1">
  <metadata id="CorelCorpID_0Corel-Layer"/>
  <g id="_2352748234672">
   <path class="fil0" d="M1721.22 1581.96c73.76,107.38 140.85,188.23 58.7,343.03 -173.76,327.46 -176.23,333.82 -397.08,323.77 -104.38,-4.75 -85.52,55.13 -111.48,134.94 -17.92,55.06 -74.66,89.3 -142.13,105.23 -63.57,15 -185.13,-24.09 -216.58,35.5 -27.46,52.89 128.32,274.11 175.51,355.82 212.61,368.1 239.15,442.12 176.16,881.79 -11.24,78.47 -24.64,155.37 -41.14,232.65 -54.72,256.29 -68.7,236.07 116.25,235.97 174.28,-0.09 1067.55,10.36 1094.69,-9.44 38.24,-41.44 17.78,-196.86 20.19,-261.05 137.34,2.69 256.38,9.23 394.86,3.25 280.72,-12.13 227.77,-149.86 189.93,-372.41 -19.41,-114.15 48.6,-96.17 46.93,-153.26 -0.99,-33.53 -23.16,-37.2 -13.33,-77.26 7.1,-28.9 27.23,-32.56 32.37,-75.42 16.44,-136.91 -69.03,-179.95 85.58,-216 169.01,-39.4 46.31,-153.09 41.39,-188.47 -27.16,-23.58 -117.74,-175.74 -136.34,-206.25 -97.74,-160.39 -37.93,-109.02 -6.47,-232.72 23,-90.37 -142.37,-426.78 -150.41,-503.12 367.14,-191.89 279.69,-615.11 -90.67,-755.9 -202.56,-77 -918.53,-204.48 -1111.5,-101.31 -18.47,99.39 69.71,141.18 79.17,253.99 11.07,132.2 -100.64,122.78 -94.6,246.67z"/>
   <path class="fil0" d="M625.46 1635.25c-76.83,-387.85 516.16,-503.87 587.23,-113.71 71.84,394.34 -511.89,494.12 -587.23,113.71zm-155.34 -544.56c-88.9,-2.5 -85.75,-89.73 -159.1,48.56 -33.96,64.02 -120.58,202.07 -123.46,248.59 36.87,38.36 104.74,78.71 147.7,104.83 1.85,232.25 31.15,168.41 -103.69,268.51 -59.38,44.08 -29.31,65.75 2.24,118.97 31.51,53.14 113.36,199.31 145.62,232.68 67.73,0.86 142.24,-67.84 178.57,-65.52 3.61,0.23 151.83,78.78 164.51,88.91 3.37,29.2 6.36,60.3 9.2,87.91 1.46,14.2 2.6,36.37 4.98,49.38l16.4 38c39.16,28.99 311.35,12.91 366.33,-0.66 18.66,-49.53 14.25,-122.66 21.28,-183.16 23.99,-20.37 50.64,-27.76 78.9,-44.3 31.09,-18.17 47.18,-32 75.46,-52.44 138.12,22.51 148.78,128.88 224.83,-2.54 23.64,-40.85 109.06,-207.99 128.55,-224.59 4.43,-75.66 -52.43,-63.32 -83.67,-111.7 -25.62,-3.65 -40.74,-12.08 -62.75,-39.17 7.75,-148.53 -21.08,-164.21 19.56,-199.32 38.76,-33.49 98.98,-56.03 120,-102.36 3.93,-30.79 -154.67,-252.6 -165.82,-299.77 -83.45,-30.15 -133.55,54.8 -190.96,56.8 -19.83,0.7 -60.17,-32.33 -83.36,-45.04 -28,-15.35 -59.49,-27.25 -83.84,-38.17 -11.08,-92.06 -2.13,-169.75 -44.36,-188.8 -37.03,-14.53 -313.78,-2.73 -355.37,9.24 -16.39,46.8 -15.61,127.24 -19.81,185.25 -38.39,21.32 -76.42,38.42 -111.75,64.38 -19.02,13.97 -31.08,29.27 -61.69,25.79 -23.11,-2.63 -46.11,-21.68 -54.5,-30.26z"/>
   <path class="fil0" d="M1281.02 525.94c-58.2,-291.77 384.62,-370.75 436.52,-85.85 52.82,289.95 -379.66,370.92 -436.52,85.85zm-214.43 -270.94l-15.1 48.7c19.42,23.01 51.43,42.05 73.55,60.52 -8.26,52.33 6.2,47.94 -104.39,65.37l-1.49 124.24 97.07 14.31c28.82,67.66 0.53,47.63 -57.5,109.76 14.66,33.55 42.93,64.32 47.02,95.38 55.28,16.91 83.13,-39.16 118.74,-16.47 42.03,26.77 -4.79,67.17 -6.39,120.5 31.2,21.76 60.91,43.84 103.58,50.46l61.03 -70.92 45.14 8.46 21.17 98.33 125.82 -2.25 9.56 -97.62 47.35 -11.85c30.49,29.31 38.32,47.3 62.24,71.11 41.32,-11.81 78.03,-38.95 103.7,-60.76 -9.15,-33.23 -39.33,-82.26 -23.81,-106.11 24.27,-37.25 73.04,1.71 115.77,7.6 23.39,-27.88 48.22,-67.94 54.72,-104.7l-71.85 -59.92 10.23 -46.7 97.21 -17.58 0.54 -123.19 -102.48 -14.86c-14.64,-84.2 18.38,-56.48 58.91,-110.48 -8.66,-38.52 -32.84,-74.96 -56.16,-99.27 -49.66,3.9 -84.67,42.89 -112.58,16.16 -30.47,-29.17 7.69,-63.68 11.58,-112.12l-101.01 -58.4c-24.87,25.78 -40.23,52.94 -64.22,74.04 -59.73,-6.39 -42.3,0.3 -63.45,-104.31l-105.12 -2.43c-48.76,17.58 -4,86.26 -48.7,106.05 -43.8,19.38 -66.86,-38.93 -93.34,-61.47 -40.27,8.59 -78.27,37.66 -104.27,56.6 4.01,18.07 78.41,151.9 -37.89,115.18 -21.7,-6.85 -27.91,-11.88 -53.08,-15.81l-42.1 54.45z"/>
   <path class="fil0" d="M307.42 512.7c181.32,-58.19 259.6,215.73 86.19,273.54 -178.78,59.61 -274.28,-213.15 -86.19,-273.54zm123.78 409.3l64.37 44.89c29.21,-12.56 44.65,-28.74 72.24,-40.01 -4.28,-59.53 -26.82,-74.62 0.15,-115.97 37.39,-57.31 53.12,-20.92 107.82,-43.32l21.69 -80.17c-35.64,-29.41 -70.01,-28.5 -80.16,-79.7 -11.62,-58.62 29.01,-62.09 47.24,-108.4l-42.36 -68.37c-52.13,3.26 -68.51,25.8 -111.09,0.77 -44.92,-26.4 -35.53,-52.73 -39.02,-112.52l-97.02 -17.08c-5.21,36.42 -27.5,72.01 -69.26,79.53 -52.52,9.47 -69.64,-22.31 -102.29,-47.12l-72 37.79c3.58,54.71 25.16,79.89 -4.77,121.1 -29.44,40.51 -54.9,27.55 -107.23,35.74l-19.51 85.02c63.64,48.3 84.69,25.44 81.46,127.58 -26.31,20.02 -34.4,25.07 -48.56,59.29l37.46 64.33c98.98,-2.65 67.66,-33.75 147.54,26.4 10.52,89.79 -8.01,105.01 101.07,105.24 18.96,-41.99 64.65,-104.6 112.23,-75.02z"/>
  </g>
 </g>
</svg>
