<svg width="23" height="37" viewBox="0 0 23 37" fill="none" xmlns="http://www.w3.org/2000/svg">
<g clip-path="url(#clip0_316_5656)">
<path fill-rule="evenodd" clip-rule="evenodd" d="M13.0001 20.1054C14.2623 19.8339 13.7106 21.4169 13.509 21.7166L12.9598 21.6138L12.8567 20.8442L13.0001 20.1054ZM9.24451 21.0164C10.3858 20.6323 10.1663 22.1048 9.2685 21.6143C9.10006 21.2817 9.13426 21.4097 9.24451 21.0164ZM11.377 17.5646C11.377 16.8335 11.4505 16.5394 12.1753 16.762L12.2329 19.9727C12.2319 20.8735 12.3141 21.3644 11.4331 21.0776L11.377 17.5646ZM9.15314 16.9075C9.15314 16.3461 9.0235 15.8201 9.51094 15.7605C10.1362 15.6839 9.99123 16.2885 9.99123 16.798C9.99123 18.9326 10.2643 19.8231 9.27564 19.5408C9.04188 18.9655 9.15314 17.5861 9.15314 16.9075ZM12.8842 17.5646C12.8842 16.7954 12.7388 15.6613 12.9955 15.0541C13.6029 14.9327 13.7167 14.9929 13.7535 15.5862C13.8035 16.4031 13.8494 18.7188 13.5034 19.1856L12.9919 19.0915C12.849 18.7198 12.8842 18.0483 12.8842 17.5646ZM8.57383 15.3631C8.28392 15.7764 6.13306 16.9677 5.57365 17.3229C4.99026 17.6941 2.90167 18.8679 2.59542 19.328L11.453 24.8353C11.9941 24.6482 18.5845 20.4056 19.8952 19.5897C20.2918 19.3429 20.277 19.4257 20.3403 19.0607C20.0483 19.0303 20.0223 18.9666 19.6563 18.7296C18.9366 18.2632 15.6215 16.2602 15.4863 16.0381C13.9056 15.3867 13.1042 14.1425 11.9471 14.3261C11.9017 14.7744 12.139 15.8535 11.4765 15.7996C10.9135 15.7538 11.1029 14.8896 11.0774 14.3446C10.1107 14.1184 9.45735 15.0469 8.57383 15.3631ZM2.33001 31.7343C2.66178 31.7806 2.6041 31.7899 2.90626 31.9806C3.07112 32.0845 3.22731 32.1852 3.37482 32.2803C3.74282 32.5168 4.05315 32.6988 4.37675 32.9107C5.04998 33.3502 5.77833 33.8207 6.37908 34.1852L9.39355 36.07C9.66406 36.2427 10.1888 36.4926 10.2709 36.6987C10.6762 36.837 10.618 36.8967 11.0779 37L11.0651 27.1771C10.6757 27.3962 10.421 28.0568 10.1551 28.502C9.8279 29.0501 9.64977 29.3689 9.25165 29.865C8.1262 29.6979 3.21251 25.897 2.18404 25.7263C2.21364 26.9951 1.98191 30.9277 2.33001 31.7343ZM12.262 36.9959C12.3912 36.7357 14.567 35.4818 15.0371 35.18C15.6124 34.8098 17.4514 33.5543 17.8821 33.487C18.1649 33.0808 18.8647 32.7775 19.321 32.4798C19.8508 32.1343 20.3403 31.851 20.7813 31.5508L20.8083 25.6949C19.884 25.8743 14.3746 30.0238 13.7478 29.8203C13.166 29.4413 12.4611 27.4589 11.9451 27.1278L11.9211 36.9393L12.262 36.9959ZM0.648728 21.8133C0.556345 22.3181 0.171497 22.5865 0 23.1875L1.03409 23.915C2.32389 24.4533 8.06547 28.5118 9.01533 28.7612L10.8702 25.5705C10.717 25.3957 2.5745 20.1141 1.83236 19.9162L1.02184 21.3737C0.841152 21.659 0.866673 21.6426 0.648728 21.8133ZM20.6337 24.751L23 23.1999C22.7831 22.3942 21.7587 21.3866 21.6331 20.6051C21.3687 20.3928 21.3162 20.2591 21.185 19.9275C20.6577 20.0401 12.406 25.2466 12.1513 25.5551L14.0321 28.7745L20.6337 24.751ZM9.82535 7.16535C9.17918 4.76542 12.604 4.022 13.1721 6.10369C13.8412 8.55658 10.3562 9.13496 9.82535 7.16535ZM8.61109 4.6482C8.33394 6.82449 8.26708 7.34735 8.89233 9.42853C9.18581 10.4049 9.85955 12.6994 10.2515 13.4007L11.0309 13.394C11.1417 12.5266 10.934 11.1365 11.1703 10.4743L11.8134 10.4028C12.0778 11.156 11.8695 12.4855 11.9441 13.3626L12.7684 13.4053C13.1001 12.6989 13.4681 10.8604 13.905 10.3576C13.9122 9.33856 14.6686 8.14887 14.6196 6.6173C14.5839 5.47646 14.3093 3.92071 13.8566 3.02254C13.1277 2.85853 10.0208 2.92588 9.12303 2.97267L8.61109 4.6482ZM14.7421 10.1735L13.6452 13.6001C14.2123 13.8562 15.3469 14.4582 15.9309 14.5153L15.9099 13.7338C15.7757 12.3277 15.7512 10.846 15.0519 9.78276C14.8335 9.93237 15.0381 9.74575 14.8355 10.0069C14.8207 10.0265 14.7625 10.1437 14.7421 10.1735ZM7.71686 9.99355C7.7041 10.3663 7.33711 11.4871 7.23554 12.0639C7.1156 12.7462 7.0717 13.8264 7.08497 14.5436L7.66326 14.4366L8.4595 13.9991C8.77748 13.8623 9.00411 13.7631 9.28636 13.6238C9.28585 12.8613 8.32373 10.7899 8.116 9.76425C7.8659 9.86502 7.91438 9.846 7.71686 9.99355ZM9.69775 2.05701L13.2742 2.06884C13.1195 1.3979 12.0063 0.183542 11.4658 0C10.9355 0.31413 9.95806 1.26732 9.69775 2.05701ZM11.0539 5.85177C10.1061 6.46255 10.8926 7.90775 11.9196 7.41676C12.9358 6.93091 12.0763 5.19317 11.0539 5.85177Z" fill="white"/>
</g>
<defs>
<clipPath id="clip0_316_5656">
<rect width="23" height="37" fill="white"/>
</clipPath>
</defs>
</svg>
