<?xml version="1.0" encoding="UTF-8"?>
<!DOCTYPE svg PUBLIC "-//W3C//DTD SVG 1.1//EN" "http://www.w3.org/Graphics/SVG/1.1/DTD/svg11.dtd">
<!-- Creator: CorelDRAW 2019 (64-Bit) -->
<svg xmlns="http://www.w3.org/2000/svg" xml:space="preserve" width="100%" height="100%" version="1.1" style="shape-rendering:geometricPrecision; text-rendering:geometricPrecision; image-rendering:optimizeQuality; fill-rule:evenodd; clip-rule:evenodd"
viewBox="0 0 812.11 719.67"
 xmlns:xlink="http://www.w3.org/1999/xlink">
 <defs>
  <style type="text/css">
   <![CDATA[
    .fil0 {fill:white}
   ]]>
  </style>
 </defs>
 <g id="Layer_x0020_1">
  <metadata id="CorelCorpID_0Corel-Layer"/>
  <path class="fil0" d="M632.02 407.52c-2.98,4.41 -39.34,31.28 -46.51,37.11 -11.11,9.04 -21.37,13.64 -15.86,22.86 2.42,4.04 6.62,7.55 9.72,11.68 19.56,26.06 23.15,46.28 4.83,73.87 -34.98,52.65 -67.67,34.91 -117.44,22.48 -7.74,-1.94 -126.72,-32.15 -131.6,-35.09 -9.47,-5.7 -6.45,-25 6.02,-23.35l164.9 43.45c26.05,7.11 50.15,0.46 59.22,-18.25 11.03,-22.76 0.29,-48.47 -13.98,-59.47 -8.62,-6.65 -18.97,-7.67 -30.95,-10.68l-198.08 -51.94c-6.86,-1.81 -28.36,-5.99 -32.3,-9.54 -6.65,0.4 -17.82,-4.07 -24.49,-5.82 -9.32,-2.45 -17.08,-2.87 -27.59,-2.82 -50.68,0.24 -87.63,34.52 -116.94,63.8l-120.97 120.67c2.74,5.36 26.56,28.37 32.39,34.19 11.13,11.11 21.59,21.71 32.99,33.07l32.66 33.38c5.23,5.25 29.15,30.09 33.07,32.55 15.22,-15.44 29.67,-28.44 45.26,-44l22.83 -21.88c4.35,-4.35 5.31,-7.25 12.24,-10.1 14.59,-6 41.77,1.84 58.78,4.47 12.9,2 26.24,3.9 38.97,5.72 25.97,3.7 51.55,7.35 77.77,10.75 25.67,3.32 52.43,7.07 78.66,10.49 38.59,5.03 56.64,-5.64 80.86,-25.63l55.11 -56.7c14.08,-14.08 194.57,-193.04 200.23,-200.14 4.53,-5.68 9.97,-25.28 10.26,-34.46 0.51,-15.65 -7.5,-22.49 -15.58,-29.11 -22.88,-18.74 -40.91,-11.86 -62.5,2.87 -18.49,12.62 -34.27,24.97 -51.53,37.88 -3.41,2.55 -46.19,36.77 -50.45,37.69zm-146.3 -233.64l13.79 0.03 0.02 21.42c11.61,2.67 18.89,1.68 29.35,8.58l-5.03 14.39c-5.01,-1.32 -8.03,-3.77 -13.7,-5.27 -12.93,-3.44 -32.75,-3.31 -37.82,10.71 -13.26,36.63 65.85,24.18 61.5,77.6 -2.21,27.13 -26.6,30.61 -35.31,34.91l-0.2 23.25 -14.18 -0.4 -0.05 -22.61c-15.46,-0.38 -22.76,-4.41 -34.55,-9.46l5.87 -15.19c9.23,4.13 14.79,7.87 27.4,8.96 30.7,2.67 38.43,-23.56 25.99,-36.3 -6.3,-6.45 -12.33,-9.12 -22.26,-13.31 -16.41,-6.93 -34.19,-16.1 -34.78,-37.08 -0.64,-22.65 14.99,-32.47 33.92,-37.52l0.04 -22.71zm-13.03 -22.82c-26.83,7.1 -44.32,11.66 -65.89,33.55 -60.14,61.03 -35.77,164.27 41.16,192.22 62.85,22.83 115.58,-7.36 140.56,-45.06 27.05,-40.84 25.87,-92.49 -3.31,-133.85l-10.52 -13.23c-3.29,-1.57 -2.92,-1.72 -5.47,-4.34 -1.97,-2.02 -2.34,-2.29 -4.3,-3.79 -29.35,-22.52 -53.03,-28.7 -92.23,-25.5zm164.9 -133.43l10.22 -0.13 0.17 16.03c10.34,1.7 12.79,2.88 21.61,5.58l-3.81 11.34c-2.9,-0.62 -30.88,-13.84 -38.46,4.12 -11.14,26.38 49.21,17.93 45.74,57.75 -1.51,17.33 -14.1,22.02 -26.18,25.92l-0.11 17.12 -10.69 -0.04 -0.05 -16.51c-13.23,-1.83 -14.91,-3.11 -25.71,-7.16l3.71 -11.26c3.54,0.7 6.55,2.9 10.05,4.08 30.9,10.42 40.41,-12.22 31.05,-23.91 -10.39,-12.99 -42.5,-12.65 -43.24,-38.08 -0.66,-22.75 19.54,-25.28 25.63,-28.43l0.07 -16.42zm-64.92 125.5c6.18,3.45 13.48,15.63 33.25,23.95 14.5,6.1 30.83,8.81 48.38,6.01 63.37,-10.11 95.34,-83.47 56.74,-137.58 -14.8,-20.73 -42.52,-38.13 -80.84,-35.18 -65.29,9.82 -92.32,75.57 -68.57,123.6l11.04 19.2z"/>
 </g>
</svg>
