<?xml version="1.0" encoding="UTF-8"?>
<!DOCTYPE svg PUBLIC "-//W3C//DTD SVG 1.1//EN" "http://www.w3.org/Graphics/SVG/1.1/DTD/svg11.dtd">
<!-- Creator: CorelDRAW 2019 (64-Bit) -->
<svg xmlns="http://www.w3.org/2000/svg" xml:space="preserve" width="100%" height="100%" version="1.1" style="shape-rendering:geometricPrecision; text-rendering:geometricPrecision; image-rendering:optimizeQuality; fill-rule:evenodd; clip-rule:evenodd"
viewBox="0 0 404.16 719.67"
 xmlns:xlink="http://www.w3.org/1999/xlink">
 <defs>
  <style type="text/css">
   <![CDATA[
    .fil0 {fill:white}
   ]]>
  </style>
 </defs>
 <g id="Layer_x0020_1">
  <metadata id="CorelCorpID_0Corel-Layer"/>
  <path class="fil0" d="M119.96 561.44c5.49,37.31 51.56,28.23 81.7,28.23 14.23,0 40.68,2.14 51.85,-2.97 11.41,-5.21 21.56,-17.96 19.42,-35.19 -4.73,-38.27 -51.98,-29.08 -81.51,-29.08 -14.42,0 -40.89,-2.15 -52.34,3.06 -11.73,5.34 -21.69,18.51 -19.12,35.95zm123.51 -192.14l2.06 -6.35 -3.64 -4.01c-0.26,0.12 -0.74,0.34 -1.61,0.74l-10.37 3.58 -5.98 -9.67c3.72,-6.12 7,-3.88 3.99,-12.45l-10.54 -0.48 -2.3 -11.88 9 -3.92 0.11 -6.3 -8.18 -3.87c-0.35,-4.44 0.92,-7.94 2.46,-11.91l10.36 -0.85 1.84 -4.65c-1.57,-2.87 -3.45,-4.2 -5.36,-7.17 1.34,-3.95 4.73,-7.61 8.16,-9.46l8.11 3.94c2.16,-1.67 1.62,-1.44 4.57,-2.53l-1.72 -10.68 10.46 -4.46c7.18,4.76 1.45,8.27 12.05,6.48l2.56 -9.82 11.57 0.36c3.59,8.76 -1.13,9.81 9.06,11.07 1.57,-3.55 2.76,-4.94 5.84,-7.51l10.49 5.01 -2.31 10.43 4.15 3.45 9.05 -3.83c3.12,2.34 4.07,5.36 7.24,8.1 -2.04,5.76 -2.94,4.73 -6.06,8.6l1.88 5.58 9.84 0.04c1.58,3.06 2.62,7.62 2.56,11.85 -3.83,2.59 -5.52,2.22 -8.66,5.12l0.23 5.3 8.74 3.78 -3.03 12.05 -10.34 0.37 -2.55 4.11 6.05 9.14c-2.32,3.15 -4.54,5.41 -6.59,8.56 -8.01,-1.88 -9.18,-7.19 -14.5,-0.29l1.97 9.57 -10.33 4.43c-3.82,-2.19 -3.93,-4.98 -7.18,-7.49l-5.43 1.32 -2.17 9.4 -11.93 -0.15 -2.97 -10.01 -5.13 -1.03c-3.24,3.13 -2.63,4.18 -6.28,7.3l-10.59 -4.75 0.55 -4.07 0.8 -0.09zm0.81 -25.78l2.61 3.49c3.23,3.46 7.03,5.45 9.89,7.38 15.62,4.28 10.3,7.17 34.2,0.43 -1.91,-3.7 -3.65,-5.33 -6.16,-8.6 -2.2,-2.88 -4.25,-5.35 -6.15,-7.94 -8.71,-1.2 -10.02,-1.97 -14.59,3.04l-8.34 8.45c-2.89,-3.53 0.39,-4.33 -6.91,-5.45 2.9,-5.93 11.63,-12.82 9.58,-19.63 -2.73,-4.29 -14.43,-8.63 -19.69,-10.67 -3.42,11.9 0.76,21.48 5.56,29.5zm-97.67 103.24c-6.64,-51.12 68.93,-60.59 76.22,-11.07 3.33,22.65 -13.29,40.99 -32.56,43.71 -22.85,3.22 -41.17,-13.42 -43.66,-32.64zm15.93 -56.27c-2.81,-3.03 -7.13,-7.28 -11.05,-9.38 -4.59,0.45 -10.72,5.45 -13.49,8.32 -2.3,5.18 8.12,15.05 2.3,19.27l-1.5 0.57c-1.18,0.21 -0.23,0.31 -2.42,0.28 -3.65,-0.03 -7.81,-2.19 -13.9,-0.83 -2,4.69 -5.19,9.84 -4.94,15.87 7.82,4.81 12.57,7.8 12.34,14.3 -2.09,1.15 -4.76,2.25 -7.47,3.39 -7.42,3.14 -9.82,1.68 -4.87,20l17.55 2.5c5.5,10.74 -14.23,13.08 -2.04,23.96 9.38,8.39 3.27,7.28 18.87,0.31 8.91,-3.99 6.96,5.06 6.96,14.03 0,5.98 11.08,7.59 16.16,7.3 5.72,-5.43 5.47,-13.98 13.31,-14.17 3.2,2.62 5.8,9.09 9.21,12.96 4.92,0.69 12.3,-2.28 16.14,-4.16 0.36,-3.45 0.28,-5.68 0.15,-9.12 -0.72,-19.12 7.84,-5.97 16.91,-4.61 5.22,0.78 12.08,-11.75 12.08,-11.75 -1.51,-7.21 -10.5,-11.24 -7.18,-18.43l16.53 -2.66c1.41,-5.06 2.54,-12.89 1.84,-17.1 -3.9,-1.66 -13,-4.3 -15.47,-7.89 -2.51,-6.76 10.47,-9.18 11.53,-14.33 -0.64,-4.34 -3.68,-11.4 -6.46,-14.32 -6.39,-0.98 -10.89,1.71 -17.4,1.23 -3.05,-3.86 -3.13,-2.82 -1.09,-8.39 1.67,-4.58 2.73,-6.44 2.41,-11.75l-12.38 -7.47c-9.8,4.4 -16.29,20.35 -20.37,2.54 -1.76,-7.66 -0.46,-11.17 -18.87,-8.83 -6.36,14.44 -1.54,17.57 -13.39,18.36zm59.81 226.02c-0.97,-15.7 14.81,-15.13 18.79,-8.47 3.44,5.76 0.59,24 2.04,32.38 -7.99,-0.26 -6.5,-1.08 -8.44,-1.42l-1.09 -0.06c-3,0.4 -1.02,2.85 -8.36,0.99 -3.95,-4.27 -4.37,-11.72 -0.64,-16.59 3.18,-4.17 12.22,-5.42 8.74,-11.4 -5.06,0.53 -1.14,0.3 -4.09,4.55l-6.95 0.02zm-32.81 0.04c-0.31,-5.38 0.45,-9.97 5.33,-11.79 21.39,-8 13.66,24.72 15.55,35.66 -13.22,-0.44 -4.4,-2.92 -11.37,-0.74 -11.9,3.71 -10.85,-11.55 -7.18,-16.35 3.2,-4.17 12.24,-5.4 8.76,-11.39 -5.06,0.53 -1.14,0.3 -4.09,4.55l-7 0.06zm77.88 -3.88c-1.21,0.2 -2.29,-1.49 -2.36,5.98l0.04 21.62 -8.13 0.07c-0.16,-5.13 -0.02,-10.29 -0.02,-15.43 0.01,-10.9 1.32,-11.57 -2.06,-13.06 -2.46,4.37 -0.86,21.97 -1.09,28.46l-8.12 0.02 0.09 -35.97 7.53 -0.1 0.83 2.51 3.88 -2.69c-10.96,-7.77 -21.1,-5.51 -36.6,-5.78l-0.28 41.96 -8.18 0.07 -0.33 -42.03c-15.59,0.13 -31.21,0.03 -46.8,0.03 -17.62,0 -25.66,-0.73 -36.29,9.74 -20.01,19.74 -8.28,51.48 15.93,56.66 8.38,1.8 76.9,0.86 91.03,0.83 23.04,-0.04 36.46,-17.29 34.21,-25.47 -3.13,-11.36 1.94,-17.57 -3.28,-27.42zm31.5 -264.41c-2.78,-2.4 -12.16,-16.51 -10.99,-20.91 1.36,-5.15 20.02,-10.82 22.06,-10.95 1,15.38 -2.76,24.43 -11.07,31.86zm-15.95 -22.31c-4.28,12.51 -22.81,6.39 -19.01,-6.19 3.75,-12.38 23.46,-6.86 19.01,6.19zm-4.08 -39.57c12.98,1.61 23.89,10.48 27.62,20.11 -3.48,2.12 -17.94,7.28 -22.3,5.57 -7.36,-2.91 -5.02,-17.13 -5.32,-25.68zm-36.6 18.07c4.41,-8.52 14.72,-16.59 27.19,-18.27 0.56,31.8 -5.81,26.39 -21.52,21.14 -0.48,-0.16 -2.71,-0.93 -3.04,-1.1 -2.41,-1.2 -1.39,-0.59 -2.63,-1.77zm-32.1 -235.49c-8.98,43.62 -76.35,30.7 -66.88,-14.26 9.04,-42.96 76.13,-30.64 66.88,14.26zm-84.81 -36.41c-5.85,0.17 -8.23,9.08 -8.47,14 8.29,7.79 11.34,5.82 11.12,13.58 -3.69,1.12 -10.01,3.67 -12.88,6.45 -0.68,3.52 0.37,10.86 2.7,13.58 3.61,2.35 11.14,1.63 15.07,2.89 1.39,3.88 0.42,4.76 -1.54,7.73 -1.88,2.86 -3.26,4.73 -4.32,7.87l7.85 10.35c9.57,0.1 19.06,-13.25 18.98,2.98 -0.04,7.5 -0.89,8.14 6.84,10.25 3.67,0.99 4.08,1.36 8.13,0.91 5.19,-7.84 7.91,-19.57 14.81,-7.52 1.58,2.76 2.64,4.31 4.68,6.68 4.63,0.31 10.9,-1.79 13.63,-3.85 1.5,-3.96 0.34,-10.63 0.72,-15.65 8.27,-3.29 8.19,3.17 17.24,3.64 2.15,-2.13 8.52,-7.85 7.99,-11.59 -0.92,-6.45 -15.46,-14.86 0.52,-16.58 1.1,-0.12 3.76,-0.32 4.69,-0.59 5.44,-1.55 5.65,-8.44 5.28,-14.86 -5.41,-4.76 -13.77,-4.17 -14.08,-9.22 -0.15,-2.45 0.14,-2 4.43,-5.64 2.07,-1.76 3.65,-2.77 5.84,-4.19 -0.01,-5.02 -3.04,-11.27 -5.55,-14.33l-16.56 1.58c-2.28,-6.46 2.27,-10.29 2.56,-17.78 -2.6,-1.72 -8.61,-6.02 -12.38,-6.71 -6.11,0.78 -13.23,18.82 -17.02,1.69 -0.69,-3.12 -1.71,-5.92 -2.68,-8.22l-13.97 0.29c-2.79,5.52 -2.73,14.46 -7.88,15.97 -6.01,1.78 -8.62,-5.68 -14.76,-7.86 -3.71,1.28 -8.51,5.1 -11.29,6.94 0.09,7.71 7.96,17.55 -0.1,18.31 -1.44,0.13 -1.95,0.03 -3.38,-0.14 -1.49,-0.18 -4.56,-0.65 -6.22,-0.96zm-98.11 120.37c-6.67,-43.74 59.85,-53.5 65.99,-10.23 6.33,44.64 -59.5,52.73 -65.99,10.23zm22.46 -59.66c0.22,4.98 -1.26,11.27 -7.57,10.23 -2.89,-0.48 -6.36,-5.84 -11.49,-7.98 -3.5,1.36 -8.66,5.29 -11.05,7.14 0.03,5.58 5.27,12.1 2.84,16.48 -3.99,2.7 -10.65,-0.09 -15.52,0.11 -8.86,12.97 -3.63,14.93 1.07,18.49 11.47,8.67 0.58,9.26 -7.96,13.94 -0.27,4.85 0.58,10.22 2.21,14.25l14.81 2.19c2.95,6.05 -2.93,9.07 -5.31,15.52 1.62,4.42 5.47,7.32 8.67,10.19 7,-0.41 15.59,-10.11 17.26,-1.86 1.61,7.93 -4.72,15.61 14.18,15.9 5.87,-5.91 7.7,-20.54 15.68,-6.8 1.22,2.11 2.53,4.26 3.81,5.96 19.41,-0.66 13.05,-8.41 14.2,-16.2 1.04,-7.03 -1.36,4.52 0.43,-1.78 2.02,-7.07 12.07,3.43 16.35,2.01 2.39,-1.87 7.09,-7.04 8.33,-10.49 -0.15,-3.99 -9.18,-9.09 -6.33,-15.36l14.61 -2.69 1.36 -13.97c-3.79,-3.45 -10.5,-3.55 -13.34,-7.69 -0.8,-5.14 5.92,-7.11 9.56,-11.48 0.27,-4.71 -2.85,-9.81 -4.65,-13.39 -8.29,-0.37 -20.75,5.59 -16.42,-6.65 1.52,-4.27 2.04,-3.92 1.91,-8.63 -2.84,-2.42 -7.37,-6.16 -11.41,-6.98 -5.58,0.68 -13.32,18.48 -17.02,1.49 -0.66,-3.02 -1.52,-5.51 -2.9,-7.32 -17.75,-2.01 -13.04,1.69 -16.31,5.37zm229.14 6.42c-3.38,-37.97 53.32,-41.44 55.94,-5.11 2.73,37.78 -52.79,40.49 -55.94,5.11zm2.02 -47.35c-2.72,3.13 -7.76,5.41 -8.29,7.42 -0.79,2.94 7.14,13.09 -0.32,13.83 -3.35,0.33 -5.02,-1.14 -10.22,-0.4 -8.03,11.21 -2.19,12.77 0.98,15.29 9.8,7.8 -1.91,7.95 -6.82,12.23l1.31 11.61c3.79,0.68 10.24,0.28 13.42,2.72 1,6.43 -4.3,5.94 -4.87,13.72 3.01,2.52 4.79,4.85 7.24,6.84 6.17,-0.66 9.21,-5.52 13.31,-3.98 4.98,3.7 -6.03,15.36 13.15,15.79 2.6,-2.85 4.77,-9.19 8.35,-10.48 7.25,2.35 2.63,9.69 11.93,9.68 1.62,-1.12 5.09,-1.49 7.96,-3.55l0.97 -12.15c1.29,-3.53 8.29,1.78 12.93,2.56 2.4,-1.95 5.59,-5.24 7.18,-8.19 1.03,-6.52 -13.34,-12.82 -0.68,-14.88 4.16,-0.68 6.49,0.21 7.96,-3.37 6.05,-14.7 -9.37,-11.16 -10.41,-16.56 -0.8,-4.19 4.95,-4.17 8.53,-10.24 -1.11,-3.76 -2.86,-7.37 -4.46,-10.09 -3.42,-0.12 -12.05,1.8 -13.63,0.14l0.32 -6.49c0.7,-2.29 1.22,-3.5 1.67,-5.87 -1.93,-2.55 -6.56,-5.59 -9.79,-6.59 -5.28,0.49 -4.54,7.77 -12.49,7.2l-3.81 -12.01 -12.09 -0.19c-3.47,8.45 -0.55,12.47 -9.84,13.57 -3.15,-3.9 -4.54,-5.28 -9.49,-7.56zm-132.34 648.35c3.72,22.71 30.77,18.71 53.11,18.71 10.81,0 24.17,1.77 32.48,-3.64 6.55,-4.26 12.23,-12.63 10.06,-23.92 -4.37,-22.72 -30.06,-18.39 -52.78,-18.39 -10.6,0 -23.56,-1.75 -32.15,3.24 -6.58,3.82 -12.64,12.31 -10.72,24zm-65.18 -403.53c32.21,-10.24 48.76,40.01 15.25,50.72 -33.35,10.66 -50.25,-39.59 -15.25,-50.72zm-15.84 -16.26c-3.72,0.85 -7.22,3.58 -9.3,6.15 -1.33,4.31 9.18,14.38 -3.86,13.22 -3.08,-0.27 -2.52,-0.69 -5.97,-0.51 -2.28,2.73 -3.93,6.69 -4.27,11.14 16.93,11.58 5.13,9.16 -1.72,15.44l1.62 10.65c4.78,1.25 1.96,0.58 6.24,1.01 14.64,1.47 1.35,8.77 1.71,13.55 1.34,2.73 5.31,6.35 7.36,7.73 3.89,-0.99 8.61,-5.2 12.29,-3.78 2.15,3.64 0.59,7.11 1.51,12 3.25,1.57 6.79,2.63 10.77,2.65 1.52,-1.94 2,-2.44 3.42,-4.93 5.52,-9.7 6.62,-2.69 12.24,4.43l10.83 -2.71 0.59 -13.28c4.46,-1.23 7.61,2.16 12.71,3.72 1.62,-1.08 5.88,-5.51 6.94,-8.9 -1.81,-4.37 -6.37,-7.62 -5.06,-11.44 2.27,-2.48 8.06,-2.15 11.53,-2.79 0.8,-3.15 1.68,-7.48 1.09,-11.36 -2.01,-1.36 -3.07,-1.78 -5.41,-2.81l-5.11 -3.34c2.1,-11.37 12.71,-0.69 4.15,-19.28 -5.21,-0.74 -11.12,1.68 -13.07,-0.29 -2.2,-3.27 1.1,-7.02 1.55,-11.85 -12.51,-13.51 -10.89,0.89 -21.53,0.84l-2.79 -10.98c-4.08,-1.08 -7.86,-1.04 -11.72,-0.01 -3.26,7.32 -1.27,10.44 -5.77,11.72 -4.79,1.36 -7.13,-3.87 -10.97,-5.99zm161.82 -98.28c1.07,4.01 3.72,7.15 5.24,12.11 2.76,8.98 1.88,4.39 10.35,6.93 1.53,3.51 1.01,7.22 0.71,11.85 -13.56,2.11 -5.22,-3.43 -16.2,18.25 1.45,3.32 3.16,3.73 4.99,8.19 -2.63,3.44 -4.66,5.81 -8.21,7.71 -1.93,-1.43 -4.82,-3.53 -7.17,-5 -6.6,2.58 -8.99,4.89 -17.12,6.81l-1.6 9.51 -11.59 0.19 -1.69 -9.67c-7.57,-1.58 -11.21,-4.1 -17.14,-6.72 -3.32,1.95 -4.36,3.83 -8.32,5.34 -3.06,-3.03 -5.05,-4.02 -7.33,-8.17 2.1,-3.54 3.04,-4.3 5.12,-7.1 -0.9,-3.01 -2.58,-5.06 -3.9,-8.13 -1.41,-3.27 -1.99,-6.47 -3.58,-9.76l-8.41 -0.97c-1.2,-4.51 -1.14,-7.42 -0.13,-11.92l8.8 -1.5c2.37,-7.84 4.78,-11.74 7.1,-17.65 -1.75,-2.26 -3.97,-4.06 -5.16,-7.47 1.74,-2.45 5.57,-6.51 7.68,-7.93 2.54,0.9 5.25,3.44 8.13,5.28 3.88,-2.25 7.46,-4.17 12.26,-5.58 8.15,-2.39 3.64,-2.41 6.33,-10.91 4.27,-0.23 7.95,-0.74 11.28,0.57 3.37,8.03 -2.59,7.53 6.97,10.39 5.11,1.53 8.03,3.92 12.3,5.23 2.74,-1.82 3.79,-3.08 6.18,-4.95 4.36,1.09 6.75,4.54 9.07,7.9 -0.95,2.59 -3.21,5.09 -4.96,7.17zm-79.56 -16.72c-1,2.79 -4.12,6.43 -6.16,9.55 1.41,3.45 2.89,4.93 5.13,8.19 -2.59,11.93 -3.19,8.06 -12.63,11.07 -3.58,6.5 -2.46,18.65 -0.4,26.19l9.9 2.2c5.56,9.8 2.33,8.76 -1.72,16.85 3.28,7.56 11.38,14.06 17.82,18.33 4.31,-1.59 5.57,-3.56 9.21,-5.18l8.38 3.26 1.94 10.12c11.07,1.99 16.09,1.5 26.95,-0.12l1.21 -9.5c7.91,-5.12 10.49,-3.83 16.54,1.37 6.49,-2.1 15.78,-12.52 18.99,-18.28 -5.4,-11.68 -6.63,-3.45 -2.01,-17.18l10.29 -1.64c2.64,-28.46 2.24,-26.36 -10.15,-28.75 -5.09,-11.26 -3.37,-7.86 1.65,-16.93 -2.53,-6.04 -12.53,-15.91 -18.5,-18.38 -10.61,5.43 -3.82,6.99 -17.09,1.73l-1.75 -9.53c-7.67,-2.53 -19.26,-2.94 -26.58,0.23l-1.82 9.63c-14.8,4.51 -5.18,3.38 -17.26,-1.86 -4.81,2.56 -7.88,6.15 -11.94,8.63zm137.3 264.49c19.13,-7.84 28.32,21.21 11.08,27.94 -13.87,5.42 -25.96,-8.48 -19.31,-21.38 2.17,-4.2 3.61,-4.67 8.23,-6.56zm-1.59 -6.55c-4.24,-0.16 -3.72,-1.95 -7.77,-3.29l-4.37 3.54 1.94 7.16 -7.89 0.36 -2.18 5.83c3.92,3.83 3.08,1.3 5.21,5.24 -2.24,2.43 -2.88,1.75 -5.75,4.09 0.53,8.96 1.04,5.24 8.17,7.58 -0.27,4.01 -1.99,2.78 -2.51,7.72l2.85 3.24c5.66,-0.39 3.4,-1.89 8.32,-1.86 2.4,6.8 -3.18,6.98 6.75,8.43 2.38,-2.52 1.87,-3.29 4.51,-5.66 3.91,1.88 1.74,2.16 5.12,5.11 8.13,-1.46 5.7,-1.15 6.21,-9.16l7.11 1.79c1.87,-1.7 2.87,-2.31 4.07,-4.9 -1.68,-3.07 -2.19,-2.47 -3.12,-6.14 2.72,-1.96 3.95,-1.39 6.91,-2.31l0.77 -5.86 -6.6 -3.74c1.77,-4.17 1.81,-1.95 4.58,-5.5 -1.66,-8.29 -2.66,-5.61 -9.65,-5.33l0.94 -7.96 -5.02 -2.81 -6.1 4.18 -1.84 -2.78c-0.57,-1.16 -0.67,-2.16 -1.34,-3.58l-6.13 -0.4c-1.92,3.49 -1.13,4.57 -3.19,7.01zm-96.98 -232.17c10.49,-3.88 19.59,2.56 22.19,10.6 3.17,9.83 -2.88,18.67 -9.89,21.43 -21.73,8.57 -34.1,-23.97 -12.3,-32.03zm31.05 21.66c3.71,-15.3 -7.25,-28.31 -19.73,-30.91 -34.39,-7.16 -43.53,44.08 -10.85,50.57 15.84,3.15 27.51,-7.02 30.58,-19.66zm145.22 -54.26c-5.25,-19.67 24.09,-23.99 27.44,-7.06 3.71,18.79 -23.18,22.99 -27.44,7.06zm7.35 -23.1c-3.41,-0.14 -3.01,-1.82 -6.67,-3.04l-4.4 2.32 1.34 7.94 -6.98 -0.31 -2.32 5.95c2.62,1.6 3.88,1.51 5,5.26 -3.37,1.88 -6.05,1.11 -5.32,5.96 0.68,4.54 3.5,3.3 7.51,3.89 -0.59,4.73 -1.51,3 -2.6,7.07l2.66 3.43 7.85 -1.93c1.39,6.91 -1.46,7.4 6.47,8.19l3.83 -5.32c4.02,1.82 1.62,2.3 5.39,5.07l4.85 -1.27 0.77 -7.26 7.58 1.83 2.81 -4.43c-1.38,-3.32 -2.05,-2.5 -2.78,-6.16l6.53 -1.75 0.5 -5.41 -5.99 -3.79c1.66,-4.36 1.81,-1.87 4.36,-5.43 -2.27,-7.85 -1.66,-4.74 -9.51,-4.85l1.49 -7.66c-2.31,-0.79 -3.07,-1.44 -4.8,-2.34 -3.62,1.5 -2.56,1.77 -5.81,3.7l-2.74 -6.15 -5.45 -0.04c-2.28,2.99 -1.23,3.91 -3.57,6.53zm-183.86 170.53c-5.42,16.74 -32.93,10.5 -27.08,-8.69 5.04,-16.51 33.06,-9.73 27.08,8.69zm-19.14 -23.63c-6.3,0.25 -2.68,-1.28 -7.41,-2.84l-3.82 2.27 0.97 8c-4.21,0.02 -7.76,-1.92 -8.57,3 -0.71,4.33 2.08,3.93 4.06,7.06 -4.65,5.86 -6.24,-1.3 -4.79,9.48l6.98 1.42c-0.86,5.41 -1.81,1.65 -2.28,7.92 6.02,4.11 4.05,1.63 10.75,0.45l0.3 6.68 5.53 1.75c3.13,-3.32 1.25,-3.78 5.2,-5.28 1.19,1.34 0.85,1.3 1.81,2.41l1.67 1.74c0.13,0.13 0.39,0.4 0.61,0.56 8.26,-1.73 4.47,-0.9 5.71,-7.87 2.38,-0.87 4.54,0.74 7.99,1.07l2.44 -3.83 -3.1 -6.2c2.13,-1.63 3.75,-1.24 5.24,-2.16 2.23,-1.38 1.9,-1.33 2.06,-6.19l-5.94 -2.68c2.61,-7.78 6.07,-0.44 2.73,-10.45l-7.58 -0.18 0.72 -7.58 -5.13 -2.49c-2.33,1.72 -2.52,2.61 -5.14,3.91 -3.88,-4.62 0.67,-6.47 -8.19,-6.25l-2.82 6.28zm-155.49 -27.56c-2.73,-19.88 26.27,-22.54 28.09,-3.91 0.82,8.35 -5.17,14.85 -12.44,15.68 -8.02,0.92 -14.72,-4.97 -15.65,-11.77zm7.81 -21.53c-4.72,-0.6 -2.44,-1.81 -7.17,-2.91l-3.63 2.39 1.15 7.18 -7.45 0.59 -1.68 5.03c2.81,3.62 2.71,1.17 4.66,5.16l-2.41 1.87c-1.89,1.34 -0.96,0.11 -3.06,2.22 0.96,9.7 2.33,3.54 7.91,7.37 -0.94,3.06 -1.62,2.55 -2.74,5.94l3.01 4.04 7.19 -2.26 1.27 7.14 4.97 1.19 4.76 -5.61c0.58,0.48 0.84,0.53 0.92,0.88l4.58 4.24 4.14 -1.36 0.84 -7.3 7.24 2.18 3.07 -3.86c-1.11,-4.48 -2.23,-3.49 -2.78,-7.4l6.78 -1.67 0.37 -5.55c-3.59,-2.37 -3.52,-0.9 -5.78,-4.11 2.51,-3.26 2.8,-1.61 4.29,-5.33l-1.89 -4.21 -7.45 -0.59 1.17 -6.14 -4.78 -3.17c-4.13,1.9 -2.32,2.61 -6.55,4 -0.32,-0.84 -0.5,-1.91 -0.87,-2.83l-1.89 -3.57c-8.67,-0.38 -4.2,1.29 -8.19,6.45zm240.71 -222.44c7.57,-2.28 13.75,2.5 15.68,8.08 2.53,7.31 -2.28,14.81 -7.88,16.63 -16.71,5.42 -25.17,-19.47 -7.8,-24.71zm-5.23 -6.89c-8.43,-3.39 -6.75,3.02 -5.86,8.51 -4.87,-0.31 -6.59,-2 -7.97,2.34 -1.28,4.02 1.55,3.71 3.79,6.57l-2.27 2.03c-1.21,0.96 -0.96,0.19 -2.67,2.07 0.71,7.28 1.09,3.96 6.7,6.14 -0.14,3.11 -3.67,6.82 0.49,8.94 4.06,0.52 2.54,-0.26 6.77,-1.14 1.71,3.92 -0.65,6.65 4.44,7.16 3.18,0.32 3.68,-2.61 5.8,-4.64 2.19,1.61 2.28,2.31 4.09,4.36l5.66 -1.12 -0.45 -6.3c4.91,-0.05 5.4,2.98 8.67,-0.55 2.25,-2.43 -0.35,-4.12 -1.4,-7.73l6.12 -1.69c0.54,-6.4 1.23,-4.47 -5.11,-8.28 1.87,-4.25 1.98,-1.25 4.04,-5.39l-1.6 -3.76 -7.18 -0.32 1.18 -6.6 -3.6 -2.45c-3.59,1.46 -2.35,2 -6.33,3.05 -3.22,-5.54 0.99,-5.87 -7.16,-5.39 -1.93,2.69 -1.13,3.4 -3.12,5.93 -4.28,-0.32 -2.6,0.14 -3.03,-1.74zm-180.12 46.88c16.55,-7.35 25.47,17.09 10.05,23.68 -14.82,6.34 -26.41,-16.42 -10.05,-23.68zm-18.84 17.7c3.56,2.03 4.67,0.9 7.35,3.01 -1.13,2.64 -1.8,2.97 -2.25,6.63 7.36,3.56 1.5,2.14 9.93,0.25 0.1,3.21 -0.99,6.55 3.04,7.33 4.28,0.82 3.63,-1.17 5.95,-4.69 4.79,2.27 2.13,5.99 9.22,3.58l0.8 -6.93c6.98,0.84 3.96,3.7 9.31,-0.89l-2.35 -7.22c3.33,-1.28 3.65,-0.39 6.18,-2.03 0.7,-8.14 -0.29,-3.54 -5.01,-8.31 1.44,-2.23 2.82,-2.03 4.02,-5.28 -3.65,-6.35 -0.83,-3.2 -8.9,-3.78l1 -6.86 -3.74 -1.8 -5.43 3.25 -2.97 -5.82 -5.33 -0.1 -1.94 5.88c-5.45,-0.01 -2.67,-1.28 -7.28,-2.47l-3.03 1.98 0.83 7.03c-3.63,0.33 -7.21,-1.48 -7.95,3.07 -0.97,6.03 2.04,0.77 3.97,7.35l-5.14 2.38 -0.28 4.44zm298.04 229.92c15.32,-6.87 24.83,16.22 10.23,22.69 -14.98,6.64 -25.56,-15.81 -10.23,-22.69zm-0.79 -5.46c-4.3,-1.19 -4,-3.94 -7.47,-1.76 -3.21,2.01 -1.17,4.4 -0.58,8.06 -6.62,-0.22 -6.47,-1.56 -8.06,4.78 2.51,2.35 2.12,0.98 4.04,3.98 -0.17,0.2 -0.52,0.15 -0.62,0.49 -0.38,1.33 -1.63,0.43 -2.98,2.46 -1.74,2.63 -1.08,1.49 -0.58,5.37 3.55,0.92 3.36,0.19 6.21,1.92 -4.93,12.34 2.64,7.48 6.97,7.24 1.13,3.96 -1,5.36 3.57,6.49 3.24,0.8 4.04,-2.62 5.22,-4.55 4.52,2.23 1.63,4.63 6.5,4.18 4.42,-0.41 3.12,-3.14 3.23,-7.16 4.65,0.4 5.12,2.92 7.99,-0.1 2.47,-2.59 -0.32,-4.37 -1.32,-8.38 6.56,-0.56 5.97,0.68 6.41,-6.16l-5.11 -2.55c2.01,-4.71 4.52,-2.68 3.05,-7.09 -1.34,-4.02 -3.22,-1.81 -7.74,-2.51 0.61,-4.55 2.85,-5.24 -1,-7.44 -3.35,-1.91 -4.52,1.01 -7.88,2.47 -0.78,-2.9 -0.17,-6.03 -4.69,-5.61 -6.12,0.58 -0.25,0.87 -5.16,5.87zm-75.84 -82.57c15.51,-6.6 23.77,16.94 9.34,22.97 -14.85,6.21 -25.34,-16.16 -9.34,-22.97zm-15.96 7.88l2.62 1.59c-0.22,0.3 -0.51,0.3 -0.59,0.59 -0.08,0.3 -0.41,0.39 -0.52,0.48 -0.11,0.08 -1.63,1.22 -1.73,1.3 -1.89,1.72 -2.34,-0.26 -1.91,3.65 0.47,4.36 3.37,3 6.94,3.86 -1.23,3.7 -1.71,2.64 -2.42,7.03 5.73,3.23 1.39,2.86 8.53,0.47l0.55 1.62c2.41,7.74 2.94,7.48 9.69,0.94 5.04,3.77 -0.5,5.46 7.87,3.32l1.29 -6.83 6.02 1.98c1.42,-1.78 2,-2.62 3.61,-4.86l-3.13 -4.22c4.05,-3.07 5.15,0.63 6.02,-4.18 0.84,-4.68 -1.87,-3.38 -4.82,-6.06 2.61,-4.07 3.9,-2.59 2.55,-8.48l-7.37 -0.27c1.34,-7.09 2.56,-4.15 -1.71,-8.51 -3.43,0.33 -1.06,-0.25 -4.37,1.72 -6.33,3.77 2.95,-0.93 -1.87,1.23 -3,-3.81 -0.17,-5.47 -5.11,-5.43 -5.03,0.04 -2.2,2.4 -5.37,5.95 -4,-1.07 -2.04,-2.24 -7.14,-2.57 -5.03,5.81 -0.11,3.42 -1.76,8.22 -3.76,1.81 -9.62,-0.6 -5.87,7.46zm-73.83 -42.67c18.39,-2.8 32.98,10.16 36.03,25.38 3.8,18.96 -10,34.69 -25.05,37.53 -19.44,3.67 -35.28,-9.97 -37.81,-25.81 -3.15,-19.77 10.47,-34.61 26.83,-37.1zm-3.75 -3.33c-46.57,11.73 -28.49,81.4 17.32,69.68 16.62,-4.26 30.77,-21.26 26.19,-42.55 -3.65,-16.98 -21.44,-32.68 -43.51,-27.13zm89.67 333.36c-6.68,12.88 -27.11,3.15 -19.86,-10.45 6.68,-12.54 27.01,-3.36 19.86,10.45zm2.14 -15.65c-0.55,-3.28 2.04,-5.98 -1.76,-7.37 -3.03,-1.11 -3.5,0.9 -6.5,2.33 -2.59,-7.85 -5.53,-7.43 -8.19,0.17 -4,-0.57 -4.54,-3.5 -7.3,-1.85 -3.53,2.1 -1.1,3.65 -1.37,7.64 -3.74,-0.11 -5.57,-1.43 -6.46,2.71 -0.63,2.93 0.85,2.67 3.27,4.85 -1.94,3.08 -5.05,1.86 -4.15,5.65 1.02,4.37 2.1,1.83 6.07,3.97 -2.84,6.03 -2.8,9.08 5.67,6.29l1.5 4.26c3.05,5.12 4.67,0.88 7.72,-1.98l1.03 1.21c3.59,3.42 3.41,2.36 6.53,1.8l0.41 -6.1c3.63,0.81 5.64,3.21 7.66,-0.4 1.48,-2.66 -0.37,-3.03 -1.18,-6.51 3.78,-1.82 5.12,0.47 5.21,-4.03 0.09,-3.98 -1.69,-2.16 -4.37,-5.18 1.86,-1.98 4.79,-2.57 2.44,-6.27 -1.74,-2.74 -2.95,-1.47 -6.23,-1.19zm-88.12 126.05l7 -0.06c2.95,-4.25 -0.97,-4.02 4.09,-4.55 3.48,5.99 -5.56,7.22 -8.76,11.39 -3.67,4.8 -4.72,20.06 7.18,16.35 6.97,-2.18 -1.85,0.3 11.37,0.74 -1.89,-10.94 5.84,-43.66 -15.55,-35.66 -4.88,1.82 -5.64,6.41 -5.33,11.79zm32.81 -0.04l6.95 -0.02c2.95,-4.25 -0.97,-4.02 4.09,-4.55 3.48,5.98 -5.56,7.23 -8.74,11.4 -3.73,4.87 -3.31,12.32 0.64,16.59 7.34,1.86 5.36,-0.59 8.36,-0.99l1.09 0.06c1.94,0.34 0.45,1.16 8.44,1.42 -1.45,-8.38 1.4,-26.62 -2.04,-32.38 -3.98,-6.66 -19.76,-7.23 -18.79,8.47zm-140.56 -190.48c12.43,-5.61 19.07,12.9 8.55,18.02 -12.5,6.07 -21.15,-12.34 -8.55,-18.02zm-0.95 -4.56c-4.5,-1.56 -8.9,-4.85 -6.37,4.8l-5.75 0.57c-0.92,5.53 -0.51,4.24 2.59,6.59 -2.61,3.08 -3.42,1.23 -3.65,4.35 -0.3,4.13 1.37,2.82 4.84,3.86 -0.33,4.09 -2.51,3.7 0.06,6.25 2.21,2.18 2.97,0.55 6.46,-0.36 0.03,3.99 -1.08,4.48 2.04,5.44 3.92,1.2 2.6,-0.08 4.9,-3.08 1.18,0.57 7.64,8.86 7.73,-3.22 4.09,1.25 3.28,1.95 6.75,0.45 1.06,-4.08 0.14,-2.23 -1.09,-6.5 4.28,-1.98 3.98,0.77 4.7,-3.28 0.59,-3.33 -1.51,-2.62 -3.96,-4.91l1.04 -1.2c1.3,-1.79 0.63,-0.24 1.17,-1.7 0.56,-1.55 0.56,-0.71 -0.15,-3.52l-6.12 -0.57c2.03,-10.26 -2.57,-6.32 -7.21,-4.27 -0.77,-3.44 0.13,-4.78 -3.66,-4.28 -3.58,0.47 -1.69,1.69 -4.32,4.58zm186.58 191.2l-1.08 -1.19c-0.14,-0.15 -0.37,-0.41 -0.52,-0.57l-7.81 -6.83 -3.88 2.69 -0.83 -2.51 -7.53 0.1 -0.09 35.97 8.12 -0.02c0.23,-6.49 -1.37,-24.09 1.09,-28.46 3.38,1.49 2.07,2.16 2.06,13.06 0,5.14 -0.14,10.3 0.02,15.43l8.13 -0.07 -0.04 -21.62c0.07,-7.47 1.15,-5.78 2.36,-5.98zm55.53 -433.13c-7.58,12.27 -22.53,2.14 -17.4,-8.63 5.3,-11.13 23.72,-1.62 17.4,8.63zm5.79 4.1l-1.78 -2.05c2.55,-2.48 10.34,-3.56 0.78,-7.9 1.76,-2.87 3.36,-2.22 2.59,-5.15 -0.83,-3.19 0.62,-1.11 -5.23,-3.05 -0.21,-0.07 -0.59,-0.13 -0.84,-0.29l1 -4.4c-5.38,-1.42 -3.76,-0.6 -8.09,1.39 -1.29,-6.78 -5.04,-6.41 -6.56,0.2 -5.87,-1.06 -2.81,-2.82 -7.53,-1.08 -1.13,2.59 -0.42,2.07 0.2,6.06 -3.15,-0.17 -5.19,-1.22 -5.84,2.2 -0.65,3.4 -0.51,0.12 0.83,2.35l1.83 2.5c-3.77,2.78 -3.65,0.21 -3.23,4.12 0.38,3.42 1.2,2.33 4.9,3.04 -1.15,3.69 -2.01,2.67 -1,6.35 3.39,1.29 2.74,0.37 6.78,-0.56 0.08,2.93 -0.39,4.36 1.99,5.16 3.33,1.11 2.25,-0.02 4.74,-2.88 0.24,0.11 0.52,0.14 0.62,0.48l1.22 0.95c2.88,2.01 -1.01,2.07 3.09,1.39 3.57,-0.59 2.33,-1.62 2.53,-5.44l5.57 0.87 1.43 -4.26zm-148.38 156.44c11.79,-5.68 18.51,12.12 8.32,16.97 -11.21,5.34 -20.33,-11.17 -8.32,-16.97zm-0.21 -4.68c-5.25,-0.97 -2.09,-2.17 -6.52,-1.41 -1.42,3.21 -0.77,2.15 -0.09,6.62 -4.29,-0.38 -2.79,-1.09 -5.39,0.64 -0.51,5.07 -0.45,1.94 2.21,6.2 -4.48,3.56 -6.01,6.13 1.82,6.92 -1.85,6.5 -2.47,7.82 4.9,6.16 0.24,0.56 0.31,10.98 7.89,1.69 2.93,3.29 6.72,6.69 6.78,-2.19 6.81,0.45 8.51,0.75 5.2,-6.22 2.98,-0.96 4.46,-0.44 4.59,-3.37 0.15,-3.34 -0.51,-1.92 -3.74,-3.96 1.83,-2.28 3.36,-1.9 2.55,-4.86 -0.98,-3.55 -2.83,-2.24 -6.18,-1.93 1.53,-7.17 -0.26,-7.88 -5.82,-4.46 -0.18,-0.19 -0.33,-0.83 -0.4,-0.67l-1.31 -1.93c-1.71,-1.75 1.37,-1.28 -2.44,-1.42 -3.37,-0.13 -1.97,0.75 -4.05,4.19zm131.3 56.07c-2.07,-11.1 13.64,-13.04 15.93,-3.74 2.85,11.56 -14.04,13.85 -15.93,3.74zm-0.87 -13.93c-2.7,3.91 0.63,1.56 -1.46,4.23 -1.78,2.27 -0.77,-0.69 -3.82,2.54 0.37,3.84 -1.09,0.79 2.07,4.09 -0.16,0.2 -0.47,0.21 -0.54,0.56 -0.18,0.83 -2.58,1.76 -2.34,3.54 2.24,3.83 0.63,0.71 4.26,3.07 -1.54,4.28 -1.53,6.12 4.5,4.58 1.93,4.36 -1.43,2.68 2.5,4.14 2.88,1.07 2.45,-0.31 3.25,-2.6 3.5,1.73 1.28,2.89 4.5,2.55 4.06,-0.42 1.4,-0.76 3.06,-4.59 5.07,1.38 5.96,-0.54 4,-5.1 3.71,-1.89 7.04,-3.94 0.63,-5.89 0.12,-0.28 0.38,-0.98 0.44,-0.81l0.8 -1.56c1.12,-2.56 0.46,1.1 0.97,-2.75 -2.12,-2.14 -1.8,1.3 -5.34,-5.06 -0.4,-0.73 0.64,-2.75 -3.47,-1.43 -0.5,0.16 0.39,0.15 -2.12,1.02 -1.91,-3.55 0.04,-1.73 -3.07,-3.39 -2.32,0.97 -0.81,0.71 -1.93,1.58 -6.02,4.67 -0.53,0.24 -6.89,1.28zm-269.32 -2.37c9.84,-6.27 17.32,9.49 7.54,14.04 -4.54,2.11 -8.98,-0.42 -10.63,-3.26 -1.19,-2.05 -1.45,-3.85 -0.85,-6.22 1.01,-3.9 2.32,-3.52 3.94,-4.56zm0.41 -4.57c-4.9,-1.88 -6.57,-4.02 -5.89,4.26 -4.97,-0.15 -2.04,-0.9 -4.8,1.35 0.42,3.59 -0.04,2.18 2.43,4.07 -2.42,2.56 -1.73,0.6 -3.08,4.03 2.16,4 -0.34,0.82 4.17,3.07 -0.66,1.84 -3.06,3.95 1.96,5.27 6.9,1.82 0.08,0.94 5.48,3.94 2.97,-1.07 2.14,-1.27 4.39,-3.08 1.64,3.4 -0.31,2.32 3.98,2.86 2.31,-2.96 0.62,-1.28 1.86,-4.68 2.39,0.49 3.67,0.54 5.09,0.29 0.68,-3.24 0.2,-2.33 -0.82,-5.62 4.14,-1.8 2.34,0.39 3.88,-3.08 -1.26,-2.8 0.37,-1.53 -3.39,-2.69 1.85,-3.77 1.85,-1.58 2.1,-5.35 -4.11,-3.48 4.61,2.87 -2.12,-0.89 -1.35,-0.76 -0.91,-0.27 -1.82,-1.21 -1.62,-1.67 0.21,0.4 -1.16,-1.88 -1.77,-2.97 2.33,0.32 -1.64,-2.69 -0.84,-0.26 -2.09,1.55 -4.28,0.44 -10.45,-5.28 3.57,0.62 -3,-2.36 -3.38,1.78 -1.5,0.58 -3.34,3.95zm94.45 -237.48c10.75,-3.43 14.97,13.05 4.79,15.53 -10.57,2.57 -15.34,-12.16 -4.79,-15.53zm-9.6 14.77c0.27,5.06 1.42,4.66 5.51,3.31 2.64,4.59 -1.18,3.15 5.02,4.78l1 -3.12c4.72,2.05 -0.11,1.54 5.25,2.37 0.19,-0.24 0.34,-1 0.42,-0.82 0.46,1.03 -1.05,-1.92 4.09,-3.26 0.69,-0.18 4.07,0.94 1.7,-5.4 3.64,-2.2 2.11,0.46 3.9,-3.07 -0.7,-2.02 -0.2,-0.75 -1.1,-1.92 -0.11,-0.15 -0.33,-0.43 -0.46,-0.58l-1.58 -1.6c3.56,-3.63 3.33,-5.87 -2.9,-5.4 0.04,-5.12 1.13,-2.69 -1.35,-5.48 -3.73,0.07 -1.63,0.11 -5.08,1.76 -0.99,-5.68 0.4,-2.25 -2.76,-3.68 -2.81,1.56 -1.57,-1.59 -2.61,3.96 -2.91,-0.64 -3.32,-1.52 -6.22,-0.99 -1.99,3.45 0.69,1.67 -1.33,4.11 -1.88,2.28 -0.78,-0.76 -3.96,2.55 0.69,3.24 -0.09,1.26 2.36,4.2 -3.53,3.61 -1.73,-0.61 -2.87,4.09 1.77,2.55 -0.41,1.56 4.2,2.24 0.01,3.96 0.22,0.37 -1.23,1.95zm214.28 210.82c-2.63,-11.74 14.46,-13.93 16.07,-3.71 1.72,10.99 -14.02,12.92 -16.07,3.71zm4.19 -13.48c-4.02,-1.81 -7.18,-3.56 -5.53,3.89 -3.08,0.46 -7.39,-0.27 -3.7,5.32l0.88 1.2c-3.36,2.11 -2.43,-0.02 -2.72,4.1 1.42,1.45 2.5,1.53 3.09,2.6 2.25,4.13 -2.24,-0.74 0.77,4.56 2.69,2.47 2.18,-1.6 5.43,1.87 2.27,2.42 -1.79,-0.14 1.78,2.39l3.01 -1.36c0.16,-0.13 0.43,-0.47 0.56,-0.59 0.14,-0.13 0.34,-0.45 0.53,-0.66l5.33 2.31 1.01 -4.66c4.58,1.25 7.34,0.02 4.19,-4.34 3.53,-3.19 -4.27,3.43 1.79,-1.2 1.72,-1.32 0.84,-0.08 2.24,-1.95 -0.55,-3.63 1.47,-2.13 -3.26,-3.66l1.35 -2.16c1.52,-4.53 0.88,1.25 0.55,-3.77l-5 -0.52c0.9,-4.02 1.19,-2.4 -0.4,-4.88 -3.34,-0.58 -2.78,-0.43 -4.73,1.27 -3.89,-4.52 -2.3,-6.93 -7.17,0.24zm-331.31 -32.66c11.6,-4.51 15,12.04 6.2,15 -6.86,2.3 -13.36,-3.81 -10.84,-10.93 1.42,-3.98 1.78,-2.96 4.64,-4.07zm-0.06 -3.72c-4.9,-1.39 -8.17,-4.66 -6.1,4.21 -8.13,-0.5 -5.19,2 -2.87,5.72 -3.72,3.1 -1.98,-0.17 -2.88,4.1 1.54,2.31 2.2,1.52 4.25,3.07 -2.56,5.45 -0.5,5.84 4.18,4.28 2.46,4.45 -1.13,1.78 3.07,4.43 2.5,-0.97 1.28,-1.88 3.96,-1.91 2.32,-0.02 -0.27,0.7 4.23,1.52 2.43,-2.47 0.89,-0.6 2.3,-4.78 4.47,1.7 6.09,0.6 3.9,-4.57 4.94,-3.3 6.46,-2.12 0.83,-7.16 3.2,-3.98 2.44,-3.43 -0.79,-5.88 -3.84,-2.92 -0.13,-1.24 -3.22,-5.12 -4.37,0.08 -1.48,-0.06 -5.12,1.7 -1.68,-5.97 -4.27,-4.89 -5.74,0.39zm70.34 73.1c10.98,-3.05 13.72,12.88 4.79,15.55 -11.38,3.41 -15.74,-12.51 -4.79,-15.55zm-2.09 -3.39c-3.23,-1.64 -1.02,-1.44 -4.94,-1.19 -1.67,2.88 -1.28,1.16 -0.29,5.23 -3.92,0.18 -2.27,-0.34 -4.69,0.9 -0.39,3.48 -0.06,3.1 1.84,4.9l-1.08 1c-2.2,3.07 -1.58,0.18 -1.68,4.54 0.32,0.1 2.43,0.7 4.22,1.06 -1.38,4.53 -2.36,7.23 4.61,4.94 0.7,3.64 -0.22,2.29 1.77,4.62 4.28,-0.45 2.46,0.63 3.96,-2.91 0.25,0.15 0.57,0.17 0.68,0.54 0.13,0.43 1.1,0.86 1.32,1 5.07,3.11 3.67,0.72 4.96,-2.05 0.1,-0.2 0.23,-0.6 0.3,-0.77 0.07,-0.18 0.15,-0.55 0.28,-0.79l4.52 0.88c0.72,-3.14 -0.09,-4.32 0.04,-4.9 0.65,-3.02 -0.82,0.53 0.83,-1.73 0.17,-0.23 0.9,-0.92 1.09,-1.13 4.94,-5.22 -1.99,4.34 1.28,-1.23l-3.34 -4.09c3.35,-3.4 4.44,-4.91 -2.91,-5.66 0.49,-6.95 -1.49,-5.03 -5.61,-3.63 -2.52,-4.06 0.06,-1.57 -3.07,-3.39 -2.37,0.9 -2.55,1.93 -4.09,3.86zm139.54 219.74l-8.79 0 0.33 42.03 8.18 -0.07 0.28 -41.96zm-119.13 -370.36c-1.42,3.9 -0.32,2.59 0.19,3.49 3.98,-0.9 8.03,-1.51 10.82,1.72 2.17,2.51 2.96,6.9 0.79,10.32 -4.15,6.51 -16.81,3.72 -14.6,-7.38l-3.28 -1.38c-1.65,1.04 -1.84,-2.85 -1.1,2.38 -2.28,4.78 -0.84,-1.11 -2.9,3.88 1.39,3.05 0.83,1.93 4.56,3.43 -4.18,6.53 1.27,4.14 3.91,5.73 2.36,1.43 -0.87,0.58 2.7,3.26 7.2,-1.14 -5.11,1.76 2.31,-1.03 5.82,-2.19 1.03,0.8 7.06,0.64 1.11,-2.1 0.68,-1.49 1.16,-4.56 4.59,1.07 7.38,-0.14 4.11,-4.4 2.87,-2.59 1.49,0.02 4.07,-3.07 -0.97,-4.24 0.62,-1.36 -3.05,-4.1 2.7,-4.26 2.17,0.96 1.59,-5.12l-4.85 -1c0.64,-3.65 1.09,-2.29 -0.35,-4.9 -3.85,-0.51 -2.8,-0.49 -4.89,1.34 -2.88,-3.72 0.95,-2.62 -4.09,-3.57 -3.41,2.45 -0.29,1.66 -4.16,4.32zm168.87 87.37c-9.7,3.04 -6.04,18.14 4.62,15.11 10.05,-2.85 4.9,-18.1 -4.62,-15.11zm0 0c9.52,-2.99 14.67,12.26 4.62,15.11 -10.66,3.03 -14.32,-12.07 -4.62,-15.11zm11.82 10.64c4.45,-13.05 -15.26,-18.57 -19.01,-6.19 -3.8,12.58 14.73,18.7 19.01,6.19zm56.59 -92.58c-2.33,-26.11 36.66,-28.49 38.46,-3.51 1.88,25.98 -36.3,27.84 -38.46,3.51zm1.39 -32.55c-1.88,2.15 -5.34,3.72 -5.71,5.09 -0.54,2.03 4.92,9.01 -0.21,9.52 -2.31,0.22 -3.46,-0.79 -7.03,-0.28 -5.53,7.71 -1.51,8.78 0.67,10.52 6.74,5.36 -1.31,5.46 -4.69,8.4l0.9 7.99c2.61,0.47 7.04,0.19 9.23,1.87 0.69,4.42 -2.96,4.08 -3.35,9.43 2.07,1.73 3.29,3.34 4.98,4.71 4.24,-0.46 6.33,-3.8 9.15,-2.74 3.43,2.54 -4.14,10.56 9.05,10.85 1.78,-1.95 3.27,-6.31 5.74,-7.2 4.98,1.61 1.8,6.66 8.2,6.66 1.12,-0.77 3.5,-1.03 5.47,-2.44l0.67 -8.36c0.89,-2.43 5.7,1.22 8.89,1.76 1.65,-1.34 3.84,-3.6 4.94,-5.63 0.7,-4.48 -9.17,-8.81 -0.47,-10.23 2.86,-0.47 4.46,0.14 5.48,-2.32 4.16,-10.11 -6.45,-7.67 -7.16,-11.39 -0.55,-2.88 3.4,-2.86 5.86,-7.04 -0.76,-2.58 -1.96,-5.06 -3.07,-6.93 -2.35,-0.09 -8.28,1.23 -9.37,0.09l0.22 -4.47c0.49,-1.57 0.84,-2.4 1.15,-4.03 -1.33,-1.75 -4.51,-3.84 -6.73,-4.53 -3.63,0.33 -3.12,5.34 -8.59,4.95l-2.62 -8.26 -8.31 -0.13c-2.39,5.81 -0.38,8.58 -6.77,9.33 -2.17,-2.68 -3.12,-3.63 -6.52,-5.19z"/>
 </g>
</svg>
