<?xml version="1.0" encoding="UTF-8"?>
<!DOCTYPE svg PUBLIC "-//W3C//DTD SVG 1.1//EN" "http://www.w3.org/Graphics/SVG/1.1/DTD/svg11.dtd">
<!-- Creator: CorelDRAW 2019 (64-Bit) -->
<svg xmlns="http://www.w3.org/2000/svg" xml:space="preserve" width="100%" height="100%" version="1.1" style="shape-rendering:geometricPrecision; text-rendering:geometricPrecision; image-rendering:optimizeQuality; fill-rule:evenodd; clip-rule:evenodd"
viewBox="0 0 720.54 719.67"
 xmlns:xlink="http://www.w3.org/1999/xlink">
 <defs>
  <style type="text/css">
   <![CDATA[
    .fil0 {fill:white}
   ]]>
  </style>
 </defs>
 <g id="Layer_x0020_1">
  <metadata id="CorelCorpID_0Corel-Layer"/>
  <path class="fil0" d="M452.67 707.99c-14.04,-14.94 -26.03,-38.6 -38.04,-57.32 -32.55,-50.73 -84.07,-47.31 -117.54,-1.18 -54.66,75.34 -8.53,63.82 -118.11,24.83 0.48,-56.41 42.04,-92.27 -2.61,-138.56 -38.01,-39.4 -82.16,-4.03 -134.49,-3.14l-29.25 -80.57c35.42,-34.23 91.95,-37.58 92.61,-96.27 0.61,-53.89 -56.64,-72.17 -90.24,-94.54 2.82,-24.57 23.19,-58.15 31.15,-82.61 56.08,-0.53 95.15,41.7 138.46,-2.68 39.46,-40.42 3.75,-84.63 3.45,-134.55l80.1 -29.69c39.28,39 33.61,91.62 96.26,92.8 49.51,0.94 66.06,-44.37 94.78,-90.04 22.56,2.31 60.33,23.55 82.9,30.9 0.23,57.83 -42.16,90.82 2.46,138.34 37.37,39.81 81.74,5.21 134.63,3.29l29.62 80.54c-34.04,37.88 -91.66,32.41 -92.81,96.25 -0.94,52.24 56.24,73.72 90.11,94.41 -2.19,23.41 -23.08,61 -30.91,83.34 -54.82,-0.51 -92.35,-40.03 -136.27,0.79 -43.59,40.51 -7.71,78.57 -5.64,136.15 -14.28,6.72 -64.14,28.04 -80.62,29.51zm103.6 -164.39c35.38,-24.2 110.22,33.69 131.59,-0.77 9.47,-15.28 32.61,-68.88 29.91,-86.77 -10.55,-17.52 -34.71,-25.75 -53.66,-39.08 -20.06,-14.11 -35.47,-20.59 -34.79,-53.19 1.14,-55.09 74.83,-59.8 89.75,-87.29 8.63,-20.34 -23.05,-87.97 -34.16,-100.26 -48.6,-10.52 -90.38,37.03 -129.33,-3.59 -20.61,-21.49 -21.59,-24.02 -12.98,-63.82 15.76,-72.83 29.29,-63.72 -33.18,-90.67 -68.11,-29.39 -49.5,-21.18 -91.52,38.23 -14.21,20.1 -20.88,35.3 -53.54,34.99 -55.82,-0.53 -57.17,-74.05 -87.95,-89.76 -17.05,-8.06 -70.74,15.99 -88.02,25.59 -28.12,15.63 -2.32,61.95 0.57,95.95 2.4,28.31 -3.46,30.67 -17.25,43.84 -48.03,45.84 -111.32,-30.27 -138.26,10.22 -9.25,13.91 -35.27,73.74 -29,88.41 12.69,29.66 89.96,31.42 87.48,94.29 -1.91,48.36 -82.25,62.27 -91.68,84.09 -3.16,23.97 24.58,86.45 35.48,99.45 31.71,19.5 92.35,-47.51 139.74,13.55 30.09,38.77 -39.62,109.1 7.55,132.7 21.93,10.97 61.62,31.69 85.74,26.68 19.83,-11.2 33.95,-88.58 87.65,-87.81 54.63,0.8 62.05,76.27 87.76,89.56 18.79,8.73 87.92,-22.35 100.05,-33.2 16.02,-27.69 -44.05,-102.98 12.05,-141.34zm-106.45 -98.74l-6.1 -0.87 0.9 -8.2c-14.98,9.32 -22.54,20.67 -43.61,19.88 -24.15,-0.9 -23.81,-7.44 -44.73,8.05 -15.99,11.84 -53.05,51.01 -69.39,50.42 -12.13,-22.67 43.16,-38.88 10.48,-59.98 -27.48,-17.74 -57.42,51.05 -81.47,33.98 -17.96,-12.74 4.66,-29.04 12.27,-35.9 11.11,-10.02 24.45,-21.11 37.01,-31.22 7.19,-5.79 32.1,-25.79 34.43,-31.02 8.52,-19.1 -5.91,-37.26 -25.43,-32.47 -11.87,2.91 -27.31,20.3 -36.68,27.68 -14.28,11.23 -20.62,23.77 -39.74,24.5 -5.61,-5.94 -2.85,-2.68 -7.85,-9.8 3.95,-18.85 46.54,-44.05 68.33,-66.13 52.34,-53.04 -17.39,-124.27 82.22,-120.71 32.66,1.17 28.24,4.08 42.58,23.83 8.38,11.54 21.19,25.26 31.42,36.65 8.26,9.21 27.46,29.86 31.36,42.97 -31.38,12.46 -39.61,19.22 -74.27,-28.1 -7.26,-9.92 -7.28,-16.15 -20.09,-14.54 -0.31,0.88 -0.46,1.45 -0.43,2.75 0.42,23.03 19.58,21.71 14.95,63.19 -3.45,30.83 -20.27,38.85 -27.98,54.77 23.24,14.02 41.49,-38.14 41.77,-72.47 9.91,6.26 19.48,18.29 43.9,16.14 18.07,-1.59 29.98,-12.29 36.4,-22.59 2.93,-13.18 -86.59,-109.53 -86.6,-109.54 -16.73,-10.74 -71.5,-8.37 -85.42,1.05 -19.24,13.01 -18.48,49.58 -22.19,78.57 -7.42,57.97 -82.54,73.59 -88.71,107.43 -2.59,14.21 5.07,25.68 16.76,28.99 31.45,8.89 74.73,-60.62 88.87,-50.1 0.46,0.33 20.65,2.51 -9.24,25.07l-73 63.68c-15.2,25.06 6.99,52.81 36.78,41.08 20.1,-7.91 30.69,-34.2 54.12,-36.74 3.03,31.35 -38,12.56 -16.44,59.68 27.97,7.29 50.8,-15.69 79.34,-42.65 38.79,-36.65 47.46,12.52 95.48,-37.33zm16.6 -26.15l18.31 -18.45c-33.07,-0.58 -37.02,-25.15 -16.28,-40.55 18.39,-13.65 32.29,-28.65 48.39,-33.96 34.13,25.44 20.65,25.52 2.76,44.82 3.36,7.53 0.13,4.58 5.48,10.55 54.42,-32.06 5.71,-51.84 2.06,-72.77 -1.23,-7.1 2.22,-5.92 -1.52,-17.48 -5.39,-16.69 -19.82,-19.1 -22.79,-33.94 -0.3,-1.49 0.2,-3.7 -0.64,-8.15 -4.64,-24.8 -20.56,-33.51 -36.58,-39.34 -23.89,-8.69 -5.99,-5.06 -25.83,-25.33 -9.94,-10.15 -20.03,-12.79 -34.76,-4.6 -9.86,5.48 -22.53,15.53 -22.7,25.99 15.51,10.04 18.15,-14.83 42.97,-17.34 8.78,7.27 14.55,13.65 18,27.24 -7.45,12.06 -19.24,18.28 -22.41,24.07l-1.4 8.9c0.75,0.28 2.09,-0.46 2.39,0.31l7.2 -0.84c12.8,-5.09 12.63,-17.17 35.63,-25.37 14.15,8.66 19.75,13.81 25.36,29.03 -9.08,18.45 -30.52,25.25 -36.5,39.43 20.06,13.95 4.09,0.69 39.22,-15.52 42.07,25.14 13.36,35.39 -17.95,62.5 -8.75,7.58 -9.07,13.5 -21.96,13.26 -19.87,-0.38 -1.73,-3.45 -17.52,-5.35l-11.71 1.94c6.78,13.34 4.51,11.28 21.4,16.62 -6.24,39.82 8.89,30.46 21.38,54.33zm-178.61 149.66c5.31,7.56 -2.31,2.92 11.72,8.84 24.25,10.22 79.71,9.05 105.75,3.83 35.48,-7.12 73.09,-26.18 93.6,-42.6 26,-20.81 44.04,-41.01 61.74,-74.83 8.58,-16.42 13.91,-30.48 18.66,-49.21l6.41 -46.46c-0.16,-1.41 -0.43,-2.51 -0.66,-3.76 -0.22,-1.22 -0.83,-2.61 -1.06,-3.59l-2.95 -6.83c-12.44,8 -4.07,-3.28 -8.47,14.09 -4.47,17.61 3.03,37.48 -23.02,88.88 -15.92,31.41 -35.34,53.54 -58.07,70.22 -97.98,71.92 -172.3,36.51 -191.33,37.28l-12.32 4.14zm-148.09 -201.74c12.97,-5.65 6.82,3.5 9.48,-18.27 1.1,-9 0.7,-15.08 2.33,-24.79 2.59,-15.48 7.36,-30.17 12.73,-43.68 30.41,-76.49 98.53,-124.05 180.93,-131.05 22.1,-1.88 16.67,3.21 22.25,-10.13 -33.61,-22.53 -125.91,22.62 -165.99,62.13 -40.52,39.95 -84.5,133.82 -61.73,165.79zm345.01 33.63l-18.31 18.45c-6.11,2.23 -5.78,1.52 -12.89,6.31 -11.08,7.47 -7.66,4.09 -8.91,10.77l-0.9 8.2 6.1 0.87c12.64,-8.26 24.41,-20.64 36.67,-31.02 11.68,-9.88 29.54,-21.13 38.59,-32.72 -5.35,-5.97 -2.12,-3.02 -5.48,-10.55 -9.53,6.21 -28.19,20.58 -34.87,29.69z"/>
 </g>
</svg>
