<?xml version="1.0" encoding="UTF-8"?>
<!DOCTYPE svg PUBLIC "-//W3C//DTD SVG 1.1//EN" "http://www.w3.org/Graphics/SVG/1.1/DTD/svg11.dtd">
<!-- Creator: CorelDRAW 2019 (64-Bit) -->
<svg xmlns="http://www.w3.org/2000/svg" xml:space="preserve" width="100%" height="100%" version="1.1" style="shape-rendering:geometricPrecision; text-rendering:geometricPrecision; image-rendering:optimizeQuality; fill-rule:evenodd; clip-rule:evenodd"
viewBox="0 0 838.26 465.68"
 xmlns:xlink="http://www.w3.org/1999/xlink">
 <defs>
  <style type="text/css">
   <![CDATA[
    .fil0 {fill:#A6A182}
   ]]>
  </style>
 </defs>
 <g id="Layer_x0020_1">
  <metadata id="CorelCorpID_0Corel-Layer"/>
  <path class="fil0" d="M169.25 374.08l28.06 0.14 467.66 -0.41 32.32 2.57 0.25 66.19c-31.57,10.5 -457.37,2.73 -528.51,2.94l-0.25 -43.71 0.47 -27.72zm480.48 -197.35c-12.07,-9.06 -5.97,-41.93 -5.95,-56.27 0.02,-19.04 1.05,-38.39 -1.37,-57.17 -15.49,0.17 -38.89,-2.5 -49.29,3.94l0.24 11.4c10.22,5.77 17.22,2.13 31.83,5.45l-0.35 205.76c-14.31,3.23 -20.95,-0.55 -31.65,5.51l-0.12 11.41c10.63,7.03 35.32,3.96 51.39,4l-0.28 -113.84 53.12 1.33 -0.78 156.98 -527.66 -1.39 -0.1 -156.89 53.53 0.88 0.37 112.72 42.25 -0.6c8.28,-1.69 3.57,-0.15 8.19,-3.19l-0.47 -14.5 -31.6 -0.35 0.25 -209.8c13.79,-0.04 21.84,2.21 31.66,-3.47l-0.07 -11.41c-10.82,-6.63 -34.16,-3.9 -50.5,-3.81l0 113.99 -53.76 -1.53 0.32 -157.04 528.3 1.37 0.25 157 -47.75 -0.48zm-649.73 278.31c6.38,10.49 -17.28,9.89 45.22,9.39 262.1,-2.08 533.1,3.93 793.04,-0.31 -0.46,-24.29 0.67,-18.65 -51.64,-18.58 -23.41,0.03 -46.84,-0.19 -70.35,-0.05l-0.49 -445.49 -565.15 1.18c-7.59,80.7 7.61,408.59 -3.55,444.53l-117.26 -0.36c-1.65,-0.04 -18.41,0.16 -18.87,0.28 -11.62,2.97 -7.32,-1.85 -10.95,9.41zm514.37 -308.59l-0.03 90.21c-14.55,6.02 -57.2,27.04 -71.96,26.77l0.24 -88.38 71.75 -28.6zm-161.93 -4.23l71.19 33.34 -0.56 89.59 -71.4 -34.43 0.77 -88.5zm19.13 -14.16c10.85,-7.39 48.6,-23.94 64.55,-22.44 5.93,0.56 48.82,16.31 58.73,27.52 -14.2,3.93 -52.04,24.32 -64.22,22.91 -11.64,-1.34 -50.46,-21.19 -59.06,-27.99zm145.59 130.75l16.37 -11.82 -0.59 -122.74c-22.9,-10.92 -89.46,-41.22 -111.3,-38.12l-2.79 -0.93c-13.92,13.07 -59.91,22.08 -84.48,35.26l-1.49 125.34c31.1,11.83 60.46,29.98 90.08,40.95 24.28,8.99 65.97,-27.56 94.2,-27.94zm12.91 53.55l32.98 -1.62 -1.16 -18.7 -29.44 0.71 -2.38 19.61zm32.77 -116.49c15.85,1.29 20.08,2.69 31.32,-3.18l0.19 -11.4c-11.92,-5.89 -13.67,-5.06 -31.64,-2.93l0.13 17.51zm-259.55 114.96l30.98 -0.16 -0.28 -18.69 -29.78 -0.05 -0.92 18.9zm259.33 -170.14c42.21,4.46 29.78,0.79 31.66,-12.63 -10.84,-7.03 -9.1,-5.58 -31.44,-4.12l-0.22 16.75zm-259.22 -58.6l30.43 -0.16 0.4 -18.39 -30.5 -0.2 -0.33 18.75zm-31.34 45.97c1.65,13.22 -10.09,16.4 31.15,12.65l0.06 -16.92c-3.97,-0.28 -11.29,-1.35 -14.94,-1.15 -14.29,0.78 -11.74,2.18 -16.27,5.42zm0.18 53.23l-0.24 15.18 31.07 -0.24 0.02 -18.06c-14.35,-0.72 -19.91,-2.47 -30.85,3.12zm-0.5 60.83c4.72,10.15 -10.66,10.81 31.76,8.44l-0.42 -17.2c-2.73,-0.19 -17.14,-1.41 -18.78,-1.14 -21.24,3.53 -4.1,-0.88 -12.56,9.9zm260.15 -160.15l30.29 -0.04 0.49 -18.07 -30.61 -0.13 -0.17 18.24zm30.61 168.1l31.56 1.37 -0.53 -16.97 -29.27 -2.12 -1.76 17.72z"/>
 </g>
</svg>
