<?xml version="1.0" encoding="UTF-8"?>
<!DOCTYPE svg PUBLIC "-//W3C//DTD SVG 1.1//EN" "http://www.w3.org/Graphics/SVG/1.1/DTD/svg11.dtd">
<!-- Creator: CorelDRAW 2019 (64-Bit) -->
<svg xmlns="http://www.w3.org/2000/svg" xml:space="preserve" width="100%" height="100%" version="1.1" style="shape-rendering:geometricPrecision; text-rendering:geometricPrecision; image-rendering:optimizeQuality; fill-rule:evenodd; clip-rule:evenodd"
viewBox="0 0 389.32 465.66"
 xmlns:xlink="http://www.w3.org/1999/xlink">
 <defs>
  <style type="text/css">
   <![CDATA[
    .fil0 {fill:#A6A182}
   ]]>
  </style>
 </defs>
 <g id="Layer_x0020_1">
  <metadata id="CorelCorpID_0Corel-Layer"/>
  <path class="fil0" d="M173.57 1.51l-5.66 16.5c-8.17,29.54 -3.63,26.05 -16.46,30.26 -34.83,11.42 -34.38,24.52 -48.45,18.45 -44.97,-19.41 -27.72,-23.39 -73.09,31.97 -8.44,10.29 -0.23,15.85 14.12,35.21 6.49,8.76 8.56,7.15 4.35,18.96 -5.92,16.59 -6.98,28.56 -9.69,46.59 -7.13,3.23 -12.93,6.48 -20.03,10.35 -6.82,3.72 -14.99,6.16 -18.54,11.89 -1.52,7.97 11.47,59.81 14.49,66.68 11.41,2.89 33.16,1.9 46.92,2.87l15.25 21.72c4.89,6.13 12.9,14.74 18.21,18.65 -1.36,10.85 -4.63,23.25 -7,34.14 -1.63,7.52 -1.73,11.33 3.69,14.86 3.66,2.38 10.56,5.13 14.74,7.28 45.14,23.21 40.49,24.13 53.44,8.49l19.87 -21.33c3.16,-2.33 23.96,0.85 37.8,0.13 23.1,-1.21 16.04,-4.25 31.65,14.34 2.04,2.44 3.24,3.12 5.3,5.65 10.21,12.52 10.32,13.76 24.07,7.19 6.01,-2.88 8.6,-2.65 10.95,-7.42 2.66,-5.93 0.49,-8.34 -3.16,-11.28 -8.33,-2.98 -8.65,2.03 -16.51,3.06l-15.26 -17.75c-10.66,-14.27 -11.39,-11.69 -19.8,-14.09 -0.36,0.22 -0.92,0.06 -1.14,0.56 -0.21,0.5 -0.84,0.42 -1.14,0.52 -16.38,5.78 -52.93,-0.64 -55.71,-0.14 -7.06,1.26 -26.16,26.98 -31.61,32.13l-39.82 -19.7c0.88,-11.7 7.16,-27.79 7.45,-38.17 0.22,-8.09 -12.28,-14.77 -21.36,-26.27l-19.01 -27.77c-8.41,-6.61 -36.81,1.83 -43.76,-4.34 -4.06,-3.65 -9.97,-34.59 -10.57,-41.76 7.83,-6.41 22.01,-11.5 31.93,-17.57 8.02,-4.91 5.51,-8.81 6.43,-18.29 3.64,-37.64 18.61,-46.85 9.75,-58.96 -5.5,-7.52 -17.36,-21.45 -20.78,-29.63 6.07,-3.77 20.91,-27.42 27.73,-32.97 36.75,12.15 28.89,22.92 51.33,7.99 17.51,-11.65 47.44,-19.97 50.22,-24.1 3.63,-5.39 7.68,-29.56 11.23,-38.28l44.01 -0.6c3.29,8.82 7.83,34.62 11.01,39.08 2.96,4.14 30.63,10.63 50.42,23.88 22.86,15.31 16.39,2.76 51.35,-8.08 4.26,3.36 25.52,30.78 27.65,35.69 -3.44,2.43 -14.26,18.07 -17.36,22.13 -8.54,11.18 -9.5,13.66 -1.32,27.19 9.96,2.28 14.38,0.14 13.59,-10.62 -0.55,-7.51 14.47,-23.33 21.21,-32.65 7.79,-10.8 -1.53,-16.59 -15.64,-34.75 -4.51,-5.81 -8.15,-9.83 -12.95,-15.9 -12.86,-16.25 -15.36,-10.27 -35.54,-1.11 -28.12,12.76 -11,2.89 -55.88,-13.46 -13.78,-5.02 -10.57,1.93 -20.04,-36.39 -2.7,-10.94 -4.38,-12.2 -16.44,-12.13 -14.19,0.08 -44.62,-1.53 -56.44,1.1zm190.24 231.18c-1.51,13.01 -13.72,121.31 -18.11,128.13 -3.53,5.5 -13.74,10.06 -21.53,4.55 -9.61,-6.81 -9.92,-33.37 -11.61,-47.39 -2.47,-20.64 -15.28,-88.66 -9.04,-103.91 12.78,-31.17 65.1,-22.73 60.29,18.62zm-64.1 114.1c-0.64,23.95 19.61,46.1 45.31,35.37 22.63,-9.44 20.78,-34.28 24.43,-62.38 3.24,-24.97 6.51,-50.07 9.74,-75.34 1.82,-14.18 3.39,-23.62 -1.92,-36.63 -6.49,-15.88 -16.74,-18.71 -19.42,-23.18 -19.58,-6.58 -34.34,-10.86 -52.75,2.17 -11.52,8.17 -22.41,23.44 -20.68,44.57l15.29 115.42zm-10.07 -179.5c3.73,-13.28 -6.86,-22.15 -16.99,-32.31 -2.15,-2.15 -6.2,-5.07 -9.32,-7.23 -13.61,-9.41 -31.74,-16.85 -52.6,-17.5 -41.87,-1.32 -74.27,24.53 -87.92,51.08 -39.13,76.1 31.41,162.36 113.57,137.01 42.29,-13.05 23.18,-29.87 9.42,-22.38 -16.7,9.1 -38.21,12.39 -59.01,6.75 -83.07,-22.52 -73.16,-143.73 9.82,-154.64 21.26,-2.8 40.63,3.29 55.24,12.57 27.62,17.53 17.76,33.61 37.79,26.65zm27.31 268.95c-3.97,-21.89 27.65,-26.76 31.34,-6.67 3.98,21.69 -27.91,25.53 -31.34,6.67zm-16.26 4.13c3.38,14.96 19.14,28.67 38.96,24.55 15.86,-3.29 29.48,-19.28 24.98,-39.47 -9.34,-41.92 -73.61,-27.94 -63.94,14.92z"/>
 </g>
</svg>
