<?xml version="1.0" encoding="UTF-8"?>
<!DOCTYPE svg PUBLIC "-//W3C//DTD SVG 1.1//EN" "http://www.w3.org/Graphics/SVG/1.1/DTD/svg11.dtd">
<!-- Creator: CorelDRAW 2019 (64-Bit) -->
<svg xmlns="http://www.w3.org/2000/svg" xml:space="preserve" width="100%" height="100%" version="1.1" style="shape-rendering:geometricPrecision; text-rendering:geometricPrecision; image-rendering:optimizeQuality; fill-rule:evenodd; clip-rule:evenodd"
viewBox="0 0 623.49 465.68"
 xmlns:xlink="http://www.w3.org/1999/xlink">
 <defs>
  <style type="text/css">
   <![CDATA[
    .fil0 {fill:#A6A182}
   ]]>
  </style>
 </defs>
 <g id="Layer_x0020_1">
  <metadata id="CorelCorpID_0Corel-Layer"/>
  <path class="fil0" d="M157.75 271.83c13.03,1.47 18.24,4.06 26.74,-5.1 9.4,-10.12 36.8,-39.62 44.36,-44.84 5.53,3.24 46.98,44 50.34,51.03 4.27,0.68 1.05,1.35 3.85,-1.07 -16.53,-48.2 -0.98,-94.45 27.34,-120.53 4.61,-4.25 5.31,-5.94 10.73,-9.93 39.49,-29.1 98.42,-28.49 109.83,-15.95 57.83,15.78 103.41,102.14 53.55,173.78 -9.41,13.51 -29.82,33.35 -50.26,39.3l0.08 76.98 8.68 -2.5c13.69,-1.54 35.13,-13.45 45.95,-19.69 8.62,3.58 27.82,23.46 38.87,31.12l54.86 -55.28c-2.51,-5.74 -25.95,-29.96 -30.95,-37.43 2.94,-8.07 8.84,-16.88 12.6,-25.71 3.84,-9.03 5.99,-19.31 9.51,-26.69 -11.9,0 -2.89,0.84 -4.43,-3.73 -2.65,-1.11 9.43,-9.71 -2.13,-0.52l0.26 -25.69 29.94 0 -0.01 -33.66 -29.99 0c0.52,-23.52 -2.95,-20.58 -3.67,-29.94 5.49,9.1 4.39,4.22 5.6,3.73 2.29,-6.79 -3.36,-0.76 4.43,-3.73 -3.53,-7.39 -5.65,-17.65 -9.51,-26.69 -3.72,-8.71 -9.8,-17.79 -12.57,-25.71 4.15,-6.21 10.33,-12.68 15.93,-18.61l14.99 -18.82c-7.98,-10.09 -38.49,-36.37 -40.5,-42.93 -6.09,-2.98 -9.84,-7.66 -14.34,-12.37 -10.74,7.52 -30.53,27.82 -38.89,31.16 -16.03,-9.21 -33.92,-18.74 -54.79,-22l-3.25 -49.81 -80.42 0.55 -2.42 48.32c-9.58,3.32 -20.66,6.33 -30.35,10.47 -9.72,4.15 -18.36,11.15 -27.95,12.72l-34.72 -31.07c-4.39,2.52 -0.58,-0.03 -4.72,3.44l-50.99 51.09c4.86,8.57 24.71,29.17 31.17,37.86 -6.55,17.38 -14.9,23.12 -22.46,56.02l-47.56 4.46c-2.52,3.25 -0.26,-1.97 -1.52,3.67 -2.12,9.48 2.22,61.89 -1.21,74.3zm229.46 -81.83c-1.81,5.48 -10.21,12.13 -14.36,16.27 -9.68,9.65 -43.93,42.33 -47.48,48.68l38.49 0.09 -0.12 209.99 56.25 0.65 0.04 -210.7 39.03 -0.68 -65.5 -66.55c-1.56,0.6 -5.21,1.71 -6.35,2.25zm-196.98 90.64l-27.93 28.63 39.04 0.16 -0.14 155.55 56.15 0.1 0.16 -155.56 38.64 -0.22c-5.52,-9.06 -26.2,-23.63 -28.88,-31.93 -8.07,-3.75 -12.97,-10.95 -19.27,-17.22 -6.3,-6.26 -12.39,-11.2 -17.93,-18.74l-39.84 39.23zm-124.82 15.47c-8.7,7.52 -62.33,60.56 -65.41,67.61l38.7 -0.02 -0.2 101.27 56.31 0.14 0.04 -101.26 38.85 -0.2c-3.95,-6.26 -60.68,-63.97 -68.29,-67.54zm508.42 -16.79c3.13,-5.83 3.09,-4.13 12.08,-4.74l37.58 -2.69 0 -78.68c-8.61,-1.12 -17.27,-1.48 -25.92,-2.08 -6.99,-0.49 -21.69,1.33 -23.74,-5.35 -7.79,2.97 -2.14,-3.06 -4.43,3.73 -1.21,0.49 -0.11,5.37 -5.6,-3.73 0.72,9.36 4.19,6.42 3.67,29.94l29.99 0 0.01 33.66 -29.94 0 -0.26 25.69c11.56,-9.19 -0.52,-0.59 2.13,0.52 1.54,4.57 -7.47,3.73 4.43,3.73z"/>
 </g>
</svg>
