<?xml version="1.0" encoding="UTF-8"?>
<!DOCTYPE svg PUBLIC "-//W3C//DTD SVG 1.1//EN" "http://www.w3.org/Graphics/SVG/1.1/DTD/svg11.dtd">
<!-- Creator: CorelDRAW 2019 (64-Bit) -->
<svg xmlns="http://www.w3.org/2000/svg" xml:space="preserve" width="100%" height="100%" version="1.1" style="shape-rendering:geometricPrecision; text-rendering:geometricPrecision; image-rendering:optimizeQuality; fill-rule:evenodd; clip-rule:evenodd"
viewBox="0 0 470.92 465.66"
 xmlns:xlink="http://www.w3.org/1999/xlink">
 <defs>
  <style type="text/css">
   <![CDATA[
    .fil0 {fill:#A6A182}
   ]]>
  </style>
 </defs>
 <g id="Layer_x0020_1">
  <metadata id="CorelCorpID_0Corel-Layer"/>
  <path class="fil0" d="M193.39 259.44c19.03,-5.99 26.36,21.66 10.05,27.53 -19.24,6.92 -29.76,-21.33 -10.05,-27.53zm126.06 -28.37c18.24,-8.34 29.39,18.21 12.24,26.65 -17.43,8.58 -30.49,-18.31 -12.24,-26.65zm-85.59 -22.41c18.63,-7.73 28.87,21.79 10.27,27.55 -18.45,5.71 -27.72,-20.31 -10.27,-27.55zm-95.35 -2.63c19.03,-8.72 27.46,21.86 10.09,27.58 -16.36,5.38 -29,-18.93 -10.09,-27.58zm140.1 -52.38c19.54,-7.2 28.49,21.75 10.35,27.56 -18.67,5.98 -27.99,-21.05 -10.35,-27.56zm-1.8 35.74l2.79 1.78c-0.09,16.7 0.36,33.68 0.04,50.33 -0.17,8.86 -3.09,12.92 -7.67,16.92 -4.49,3.92 -9.13,7.9 -14.53,11.81 -0.73,2.52 -10.5,10.39 -15.65,15.66 -6.81,6.99 -10.5,7.05 -10.97,21.62 -0.66,20.72 0.15,42.32 -0.03,63.18 -12.1,0.06 -22.76,-2.51 -33.64,-4.96l-0.04 -30.26c-4.43,-12.04 -9.21,-14.62 -16.5,-22.39 -6.14,-6.55 -14.27,-10.42 -19.46,-18.99 -17.06,-4.94 -12.92,-29.79 -12.95,-51.42 31.02,-8.18 21.02,-48.23 -5.71,-46.58 -12.31,0.76 -21.72,10.59 -22,22.91 -0.34,14.5 8.1,19.91 19.03,23.7 0.06,35.81 -5.59,42.65 20.58,64.14l22.38 19.84c8.19,7.92 6.11,21.46 5.95,35.47 -9.8,-2.1 -24.25,-11.28 -30.92,-16.15 -28.03,-20.48 -48.81,-50.25 -54.69,-88.67 -8.28,-54.02 14.59,-100.49 56.2,-130.48 1.81,9.6 0.4,28.06 0.52,38.75 0.28,24.94 28.35,30.07 33.03,45.5 1.81,5.97 1.36,32.2 0.29,38.82 -15.02,6.71 -22.37,14.17 -16.19,34.15 8.55,13.33 16.76,14.95 34.73,9.18 0.5,-2.49 0.86,-1.43 3.68,-4.38 1.72,-1.8 3.09,-3.33 4.22,-5.87 2.27,-5.05 2.21,-9.6 1.14,-15.22 -3.05,-11.18 -8.57,-13.5 -18.33,-18.09 0.25,-55.99 1.33,-39.52 -19.6,-62.31 -8.9,-9.7 -14.35,-7.68 -14.32,-26.01 0.02,-13.47 0.24,-26.94 0.16,-40.41 6.45,-4.5 23.56,-12.28 32.98,-13.33 -0.23,17.64 -3.7,44.61 5.69,56.67 7.9,10.17 26.84,17.34 27.97,33.58 -7.62,7.05 -19.69,6.85 -19.07,25.24 0.41,12.36 10.06,21.93 22.27,22.48 29.01,1.31 33.86,-40.22 5.55,-46.3 -0.44,-9.67 -3.37,-14.13 -6.32,-20.09 -5.2,-4.44 -23.34,-18.55 -26.22,-24.67 -2.67,-5.66 -1.55,-40.79 -1.24,-49.52 36.28,-4.39 58.35,-1.85 87.94,13.42 63.35,32.7 89.76,112.04 57.84,177.37l-21.95 30.73c-2.82,5.99 -5.76,7.12 -10.52,11.34 -4.4,3.9 -5.78,4.99 -10.9,8.76 -5.82,4.29 -18.52,11.93 -26.26,14.12 -1.12,-20.03 4.13,-19.44 16.17,-28.39l25.15 -18.87c1.85,-23.15 2.79,-16.04 2.39,-45.66 5.16,-2.18 10.19,-3.87 13.18,-7.29 12.05,-13.83 5.02,-38.42 -16.23,-39.55 -19.77,-1.06 -32.48,22.06 -19.31,38.37 4.97,6.17 5.92,4.41 13.43,8.83 4.88,58.91 -9.35,39.45 -36.98,66.87 -7.61,7.56 -6.91,16.14 -6.63,29.05 -10.61,4.22 -24.87,6.13 -37.74,6.79 -0.19,-18.76 0.05,-37.55 -0.06,-56.31 -0.07,-11.04 0.81,-15.95 6.76,-21.4 10.89,-9.97 39.64,-32.19 41.72,-45.34 2.58,-16.29 -1.4,-39.8 0.83,-57.01 10.74,-5.07 18.81,-9.66 18.64,-23.9 -0.16,-12.98 -9.11,-22.14 -21.48,-23.01 -28.47,-2.01 -33.6,38.2 -9.14,45.45zm100.12 66.16c11.02,-84.08 -51.49,-151.8 -123.47,-160.27 -83.85,-9.87 -149.14,49.35 -159.41,121.39 -9.04,63.42 21.76,114.75 70,143.93 14.78,8.94 32.87,15.32 52.31,17.74 84.56,10.55 151.03,-50.06 160.57,-122.79zm-223.18 -172.28c8.47,-3.12 15.35,-6.74 24.52,-9.95 6.31,-2.21 21.59,-3.76 24,-9.8 4.22,-10.6 8.23,-41.39 11.47,-54.19l44.55 0.06 11.78 58.2c54.37,14.86 41.07,23.87 60.51,7.56l32.7 -26.02c4.11,1.2 14.39,10.09 18.29,13.78 5.04,4.75 11.63,9.66 16.57,13.85 -1.09,4.9 -9.87,20.1 -12.73,25.1 -19.57,34.36 -15.81,22.37 -0.77,47.94 3.62,6.14 9.81,20.16 13.03,23.77l57.23 2.04 7.37 43.99 -51.94 21.06c-2.12,6.31 -2.15,19.83 -3.51,27.56 -1.59,8.99 -4.58,17.45 -5.4,25.81l20.21 18.49c4.78,4.1 5.19,3.95 10.4,9.32 3.32,3.42 6.58,5.51 10.05,8.09 -1.2,5.58 -17.64,32.93 -21.69,38.92 -11.86,-0.84 -47.56,-19.7 -54.78,-14.08 -2.09,1.62 -6.14,6.99 -8.84,9.57 -10.28,9.81 -28.52,22.2 -31.06,24.89l7.08 51.97c-4.6,3.7 -35.65,15.15 -42.21,15.09 -38.28,-56.92 -11.92,-41.93 -56.7,-41.98 -8.69,-0.01 -20.24,-2.48 -28.1,-1.15 -3.12,1.64 -22.9,37.47 -27.8,43.61l-41.08 -15.57c-1.02,-14.08 7.88,-39.71 5.85,-52.04l-21.09 -15.75c-7.07,-5.51 -12.32,-13.65 -18.42,-18.21 -8.83,-6.61 -34.4,9.55 -53.96,12.78l-21.27 -37.89c4.11,-6.09 4.95,-5.74 9.61,-9.26 4.13,-3.11 5.43,-5.59 9.47,-8.77l19.76 -16.49c0.08,-7.9 -4,-19.2 -5.4,-27.77 -1.65,-10.17 -1.67,-20.53 -2.94,-29.68 -8.38,-2.87 -43.96,-16.1 -50.34,-20.63l8.2 -43.3 55.39 -2.1c4.86,-7.52 8.48,-16.92 13.29,-24.65 3.85,-6.17 13.94,-17.5 13.34,-22.25 -1.11,-8.74 -22.06,-37.1 -25.02,-50.12 8.43,-4.56 21.94,-19.38 33.96,-26.69 10.07,7.2 39.81,32.4 46.42,34.89zm52.62 -79.85c-0.93,6.53 -3.84,19.99 -6.4,27.1l-5.8 29.23c-16.2,3.86 -27.2,9.72 -40.58,13.91l-22.3 -17.91c-7.44,-6.02 -18.2,-16.49 -25.31,-15.97 -5.89,0.43 -29.12,21.47 -34.66,26.43 -4.17,3.73 -6.97,6 -6.15,14.93l24.27 44.79c-7.54,11.11 -18.05,23.37 -22.68,38.28 -11.01,0.22 -51.09,-1.06 -56.56,4.03 -4.12,3.86 -10.93,44.89 -10.14,52.14 5.39,9.76 38.03,17.92 50.33,24.46 0.63,10.36 1.58,20.45 3.58,30.27 4.14,20.34 8.42,11.14 -12.01,30.35 -3.57,3.36 -5.34,3.79 -9.15,7.77 -4.63,4.85 -15.16,9.57 -13.3,18.94 1.09,5.42 21.89,40.85 24.83,42.68 9.29,5.78 41.28,-11.12 53.15,-12.47 6.22,7.67 26.22,25.88 36.91,30.45 -2.08,19.28 -11.36,49.85 -2.35,56.06 5.33,3.67 40.77,15.64 48.71,16.77 9.5,-10.94 23.26,-31.59 28.96,-44.25 18.1,1.99 31.92,1.74 49.93,-0.11 2.64,6.19 7.32,11.28 9.43,18.02 4.2,2.85 9.68,14.76 12.85,19.97 7.64,12.56 24.67,1.28 48.75,-7.09 15.95,-5.54 7.99,-9.83 10.49,-23.51 -3.91,-6.42 -5.12,-26.22 -5.99,-35.31 11.11,-9.63 24.27,-17.4 34.62,-31.11 7.28,1.34 13.89,4.11 20.93,6.5 5.2,1.77 16.72,4.7 20.64,8.14 10.45,-0.37 12.33,3.98 18.17,-5.94 3.36,-5.71 6.2,-11.28 9.69,-17.02 22.47,-36.98 5.8,-24.09 4.24,-35.19 -13.41,-9.07 -24.09,-21.44 -32.36,-28.05 0.41,-3.43 6.74,-41.73 7.13,-42.91 2.23,-3.81 31.52,-13.91 35.69,-15.53 20.61,-8 18.2,-7.2 14.52,-29.71 -2.15,-13.12 -1.43,-33.86 -15.11,-35.75 -12.66,-1.74 -37.21,-1.5 -50.78,-1.62 -3.03,-5.29 -6.03,-11.99 -9.47,-18.15 -13.89,-24.82 -18.98,-7.13 8.59,-57.1 4.76,-8.63 8.33,-12.7 1.19,-20.23 -2.48,-2.61 -4.8,-4.63 -7.47,-6.59 -35.33,-25.95 -19.62,-33.97 -60.83,-2.28 -6.38,4.91 -10.84,9.53 -17.68,13.74l-39.21 -14.53c-3.37,-11.48 -8.07,-47.06 -12.11,-54.14 -5.41,-9.49 -51.09,-5.4 -59.2,-2.49z"/>
 </g>
</svg>
