<?xml version="1.0" encoding="UTF-8"?>
<!DOCTYPE svg PUBLIC "-//W3C//DTD SVG 1.1//EN" "http://www.w3.org/Graphics/SVG/1.1/DTD/svg11.dtd">
<!-- Creator: CorelDRAW 2019 (64-Bit) -->
<svg xmlns="http://www.w3.org/2000/svg" xml:space="preserve" width="100%" height="100%" version="1.1" style="shape-rendering:geometricPrecision; text-rendering:geometricPrecision; image-rendering:optimizeQuality; fill-rule:evenodd; clip-rule:evenodd"
viewBox="0 0 414.42 465.66"
 xmlns:xlink="http://www.w3.org/1999/xlink">
 <defs>
  <style type="text/css">
   <![CDATA[
    .fil0 {fill:#A6A182}
   ]]>
  </style>
 </defs>
 <g id="Layer_x0020_1">
  <metadata id="CorelCorpID_0Corel-Layer"/>
  <path class="fil0" d="M124.44 208.31c8.41,-1.08 5.06,-15.66 5.05,-22.82l0 -142.55c0,-24.1 -4.58,-35.32 22.42,-35.2 38.11,0.17 76.26,0.06 114.37,0.05 77.65,-0.02 71.56,-8.34 71.56,42.98 0,76.24 0,152.47 0,228.71 0,17.04 2.76,103.49 -2.63,111.23 -10.47,15.02 -83.85,-0.05 -105.12,7.13 1.17,7.75 1.54,6.43 11,6.35 112.54,-1.01 104.03,12.46 104.03,-62.05l0 -297.64c0,-19.5 2.23,-39.41 -16.58,-43.42 -9,-1.91 -161.72,-0.72 -178.22,-0.69 -23.06,0.03 -28.29,9.13 -28.17,31.57 0.15,28.82 -2.94,169.34 2.29,176.35zm-11.68 58.64c8.36,-6.74 16.24,-10.35 28.98,-11.55l-0.1 47.6 -47.65 -0.12c1.3,-11.01 5.5,-24.05 12.51,-29.12 4.92,4.11 6.01,8.78 13.57,8.3 2.49,-9.69 -3.9,-6.85 -7.31,-15.11zm-111.21 -29.73c13.9,1.53 31.13,0.64 45.42,0.64 20.35,-0.01 22.89,-3.37 32.21,8.72 -16.63,17.57 -19.92,36.16 -25.38,54.84 -1.32,17.24 -1.05,29.89 4.05,45.46l11.54 24.6c2.76,4.5 2.41,2.51 3.36,7.06 8.1,5.45 9.95,11.32 18.5,16.33 -4.06,7.18 -27.31,28.47 -34.36,35.55 -13.99,14.05 -26.79,32.46 -37.9,25.94 -11.55,-6.78 -2.58,-17.89 2.15,-22.55 5.93,-5.85 10.63,-10.55 16.46,-16.45 9.6,-9.71 30.87,-27.15 30.08,-35.45 -7.82,0.74 -15.44,11.13 -20.84,16.49l-37.41 37.79c-11.86,16.85 10.28,42.35 31.26,21.86l56.41 -56.54c12.37,3.24 21.17,12.21 40.97,15.62 28.51,4.92 38.69,-3.02 50.22,-2.31 4.09,-4.35 3.66,-0.52 5.31,-6.88 -5.7,-4.74 -20.85,2.5 -30.66,3.17 -88.01,5.99 -134.65,-98.17 -77.85,-159.08l15.34 16.49c-3.93,5.43 -7.56,10.13 -10.37,18.03 -10.69,30.03 3.04,23.75 27.4,23.75 30.44,0 31.9,5.08 31.64,-15.12 -0.07,-5.23 -0.05,-10.46 -0.05,-15.7 0,-9.52 1.49,-22.66 -1.06,-30.51 -15.44,-5.34 -32.19,7.79 -41.72,13.07l-29.02 -30.53c-8.11,-1.13 -67.77,-2.21 -75.47,0.2l-0.23 5.51zm103.52 91.28l101.57 0.03c1.08,18.51 -15.13,37.93 -28.55,42.01 -3.28,-4.53 -7.17,-7.66 -11.34,-11.88 -3.63,-3.66 -7.79,-10.48 -13.19,-8.68 -3,6.66 13.22,16.63 17.24,23.49 -14.08,7.84 -34.41,0.14 -45.04,-6.72 -9.01,-5.81 -21.35,-20.76 -20.69,-38.25zm106.55 86.41c3.81,1.25 3.2,2.08 6.58,5.05 6.97,6.11 19.15,3.46 33.98,3.46 11.44,0 38.58,3.89 44.99,-2.95 -2.77,-6.86 -12.65,-4.33 -21.49,-4.31 -48.87,0.1 -46.18,5.53 -64.02,-12.73 9.52,-10.59 17.06,-13.35 26.89,-26.34 24.16,-31.98 26.92,-75.22 7.08,-111.39l-3.6 -8.62c-18.47,-10.5 -0.8,13.12 4.04,26.96 16.5,47.26 -9.36,100.4 -41.23,112.91l-19.55 -19.89c1.61,-1.7 1.32,-1.38 3.19,-2.94 14.56,-12.24 30.26,-29.73 25.39,-51.63 -9.11,-2.86 -109.53,-2.5 -115.91,0.18 -5.47,19.53 13.03,41.71 21.82,48.52 20.38,15.8 32.2,13.22 58.92,8.64 7.79,10.46 27.92,24.85 32.92,35.08zm21.93 -293.67l-0.54 26.29c-6.04,1.67 -8.88,1.94 -14.58,-0.46 -1.23,-13.94 1.89,-38.71 -1.34,-50.46 -10.76,-8.13 -2.78,32.19 -6.23,50.72l-12.72 -0.23c-1.64,-11.5 3.4,-33.11 -2.98,-40.77 -7.2,0.69 -2.53,0.53 -3.97,2.25l-0.5 38.77c-5.8,1.78 -8.93,2.02 -14.92,-0.2l-0.54 -55.71c-3.52,-2.06 -0.89,-1.97 -4.99,-0.34 -4.51,11.48 0.54,41.07 -1.73,56.19l-12.82 -0.04c-3.13,-21.85 3.18,-80.23 -1.56,-95.04 -6.45,0.83 -6.23,0.86 -6.42,7.83l0.2 40.86c0,9.71 -4.19,49.27 3.12,52.55 6.84,3.05 132.31,1.08 149.72,1.21 20.44,0.15 16.35,1.2 18.56,-3.63 -2.23,-5.08 2.19,-2.43 -5.89,-3.74 -1.62,-0.26 -7.03,0.02 -9.46,0.03l-1.17 -35.67c-6.49,0.51 -5.36,-1.43 -6.57,4.9 -0.15,0.82 0.07,9.41 0.09,10.95 0.09,6.57 0.52,13.42 -0.67,19.84l-12.81 -0.33c-1.67,-15.31 2.64,-58.4 -1.76,-68 -8.39,1.05 -6.16,3.29 -5.95,14.01l-0.31 54.15 -12.84 0.17c-1.74,-9.54 2.41,-15.1 -5.09,-17.83 -5.28,4.86 -2.02,9 -3.64,17.84l-12.75 -0.29c-1.18,-8.87 1.77,-22.54 -2.65,-28.44 -7.19,0.96 -2.97,0.67 -4.29,2.62zm-41.77 160.73c9.04,1 7.36,-4.84 14.53,-8.37 5.7,7.61 10.17,17.19 11.47,29.4l-47.71 -0.01 -0.03 -47.62c13.83,1.27 21.71,5.31 29.65,12.3 -4.34,3.69 -9.93,7.22 -7.91,14.3zm-97.83 -49.48c-0.43,7.04 -1.82,2.59 1.58,6.75 5.73,-0.91 19.23,-10.47 29.04,-13.76 36.47,-12.24 82.55,0.63 96.21,21.1l-15.36 15.41c-8.11,-5.45 -27.6,-18.75 -41.63,-12.84l-1.03 53.89c1.5,11.13 5.57,7.19 31.46,7.19 24.51,0 38.14,6.7 27.42,-23.7 -3.15,-8.96 -7.91,-13.04 -10.15,-19.58 7.34,-5.91 11.77,-13.8 19.87,-18.08 6.55,-13.76 15.27,-11.01 34.92,-11.01 8.54,0 40.36,3.04 44.13,-3.81 -3.96,-6.04 -33.29,-3.53 -45.69,-3.53 -45.36,0 -21.67,2.17 -39.7,10.18 -11.17,-14.48 -36.94,-25.86 -62.08,-27.57 -40.74,-2.78 -59.42,17.07 -68.99,19.36zm-93.94 -145.73l18.38 1.21 -0.05 61.51c-0.14,9.67 -2.51,14.11 5.43,15.4 3.33,-5.17 3.49,-74.25 0.77,-83.84l-13.84 -0.94c1.91,-4.89 25.46,-39.35 28.44,-41.41 4.98,5.03 25.04,35.07 28.1,41.49 -19.1,0.36 -14.94,-8.36 -15,56.75 -0.02,7.72 -0.54,7.27 6.35,8.05l1.09 -57.39 18.28 -0.51c0.27,-8.7 -20.34,-34.48 -27.67,-45.89 -14.41,-22.45 -11.26,-16.18 -31.97,13.84 -4.66,6.76 -18.69,23.52 -18.31,31.73zm312.37 260.72c-2.62,6.57 0.24,0.28 -2.21,3.82 -0.29,0.43 -1.29,1.57 -1.58,1.97 -4.35,5.87 -2.04,4.23 -1.86,13.46 -13.42,-6.4 -6.67,-4.18 -19.47,-0.23 1.97,-16.9 1.02,-8.2 -5.08,-18.09 5.1,-2.31 6.06,-0.05 10.07,-3.79l4.97 -6.77c0.14,-0.61 0.59,-0.66 0.92,-0.95 3.42,8.67 3.46,9.59 14.24,10.58zm1.49 29.68c4.94,-9.3 -3.39,-13.43 1.38,-20.48 3.34,-4.94 8.45,-4.85 9.78,-12.32 -4.3,-4.17 -9.38,-3.41 -17.09,-4.71 -5.15,-5.96 -4.16,-11.01 -10.33,-15.47 -5.14,2.16 -3.63,1.23 -6.31,7.02 -7.5,16.22 -10.13,4.92 -21.55,12.51 0.49,6.25 7.07,10.57 11.09,13.38 -0.34,4.35 -1.13,7.13 -1.59,11.02 -2.2,18.47 12.04,2.67 18.06,3 5.34,0.3 8.82,6.46 16.56,6.05zm-31.68 -99.25c5.01,-2.39 6.08,-0.11 10.04,-3.79l6.03 -7.78c3.3,8.99 3.58,9.45 14.12,10.69 -5.93,13.34 -5.48,-1.23 -5.7,19.1 -13.4,-6.21 -5.78,-4.29 -19.31,-0.44 2.01,-16 0.71,-8.77 -5.18,-17.78zm33.13 28.68c0.52,-8.6 -3.34,-15.58 -0.09,-20.39 3.44,-5.08 8.36,-4.98 9.87,-12.41 -4.84,-4.09 -8.74,-3.3 -17.14,-4.63 -4.68,-5.97 -4.58,-11.3 -10.35,-15.53 -4.92,2.16 -3.65,1.42 -6.33,7.05 -7.86,16.53 -10.77,4.74 -21.57,12.54 0.67,5.9 7.38,10.57 11.18,13.37 -0.36,4.12 -1.17,7.46 -1.57,10.86 -2.17,18.26 11.08,3.62 16.98,3.13 6.07,-0.5 8.04,6 19.02,6.01zm55.06 -86.73c-0.63,2.69 -3.53,7.47 -5.53,11.07 -0.99,10.71 -0.16,4.68 1.69,7.1 8.1,-1.14 3.1,2.13 6.7,-6.69 6.15,-15.04 21.35,-11.47 26.92,-7.44 4.52,3.28 8.32,11.14 5.68,19.66 -2.56,8.23 -7.2,10.77 -17.02,12.07l0.32 7.3c17.94,-1.77 26.82,-14.04 24.68,-28.81 -0.95,-6.59 -3.29,-6.99 -4.28,-12.56 -6.3,-3.12 -8.86,-8.06 -19.52,-8.44 -10.94,-0.39 -12.63,3.86 -19.64,6.74zm35.49 -93.1c-0.38,-5.7 0.75,-2.04 -1.02,-6.17 -7.67,-1.52 -9.51,6.42 -21.52,2.68 -14.04,-4.38 -16.89,-26.95 -0.7,-33.02 11.36,-4.26 13.75,2.89 20.95,2.25 2.52,-3.76 2.78,-2.07 1.84,-6.3 -6.21,-0.97 -13.88,-8.69 -27.31,-1.96 -18.8,9.42 -17.56,35.47 -1.49,44.13 14.21,7.66 24.25,-0.47 29.25,-1.61zm-33.54 157.43c1.89,5.81 1.87,6.9 7.85,4.5 27.82,-11.19 33.73,21.92 17.98,30.31 -9.32,4.97 -16.16,-0.15 -23.78,-1.93 -0.71,4.85 -5.04,4.68 3.43,8.93 28.3,14.23 51.88,-27.59 23.83,-44.03 -13.37,-7.84 -20.04,-0.72 -29.31,2.22zm39.64 -243.4c-12.28,1.56 -0.74,7.11 -13.69,15.12 -14.2,8.78 -32.69,-6.78 -24.75,-23.15 6.16,-12.71 14.19,-3.92 15.72,-14.89 -14.55,-7.86 -37.15,23.65 -17.15,41.45 9.7,8.63 28.4,9.67 37.84,-4.32 3.16,-4.69 5.09,-9.7 2.03,-14.21zm-43.11 148.06c4.65,0.34 3.42,-0.44 6.95,-3.36 -2.51,-6.84 -6.56,-10.59 -2.86,-20.14 5.42,-14.01 25.85,-14.4 32.03,-0.98 4.18,9.07 -0.72,15.45 -2.4,22.68 4.76,0.68 4.7,5.14 8.95,-3.41 13.82,-27.78 -25.6,-51.47 -43.35,-24.78 -7.7,11.57 -1.27,20.59 0.68,29.99zm20.95 163.01c17.79,1.96 22.03,21.26 11.18,30.98 -4.65,4.16 -12.66,5.46 -19.52,2.42 -6.59,-2.92 -8.16,-6.9 -10.63,-16.05l-6.33 0.9c-0.61,19.32 23.89,32.35 40.47,18.34 14.7,-12.41 9.85,-40.79 -10.77,-42.8l-4.5 -0.47 0.1 6.68zm-178.36 -318.23c9.93,0.01 52.51,2.58 57.94,-3.33 4.02,-4.37 4.55,-10.91 -1.54,-13.56 -5.38,4.65 -1.09,2.55 -4.7,8.88l-59.94 0.5c-1.58,-8.09 1.5,-8.19 -5.95,-9.46 -3.93,5.44 -4.81,16.97 14.19,16.97zm70.54 410.27c8.6,0.11 13.11,2.09 15.15,-4.63 -5.74,-6.71 -30.73,-2.74 -40.26,-2.74 -20.45,0 -36.13,-3.52 -37.09,5.51 6.98,3.88 47.39,1.68 62.2,1.86zm12.51 -245.17c7.38,0.1 12.73,1.95 15.89,-3.84 -4.8,-7.58 -30.29,-3.52 -39.41,-3.52 -21.49,0 -34.21,-3.53 -35.76,5.37 6.93,4.62 43.45,1.77 59.28,1.99zm-21.95 12.22c-21.08,0 -36.22,-3.61 -37.12,5.54 6.22,3.36 66.44,3.16 74.86,0.74 -1.04,-9.08 -5.25,-6.44 -15.78,-6.3 -7.3,0.09 -14.65,0.02 -21.96,0.02zm-271.03 6.16c8.08,2.58 68.33,2.75 74.85,-0.48 -1.02,-8.11 -6.14,-5.83 -15.26,-5.71l-54.79 0.03c-5.38,1.22 -4.08,0.28 -4.8,6.16zm75.03 -20.19c-1.22,-7.92 -2.5,-5.55 -12.55,-5.55 -24.42,-0.06 -38.39,-1 -62.56,1.18 1.39,8.57 4.54,6.4 14.15,6.22l51.81 0.31 9.15 -2.16zm289.79 52.79c5.9,4.83 4.47,8.31 14.82,11.67l3.23 -6.69c-7.52,-2.56 -5.97,-2.12 -10.33,-7.87 -2.09,-2.75 -0.34,-3.61 -3.89,-2.84 -4.6,1 -4.14,0.8 -3.83,5.73zm-0.05 108.11c0.82,4.25 -2.96,4.08 3.94,5.61 3.08,0.68 2.88,-1.82 4.32,-3.8 4.15,-5.72 5.29,-4.39 8.68,-8.09l-0.9 -4.69c-8.77,-1.14 -11.28,6.74 -16.04,10.97zm32.38 -161.8c1.19,-2.71 0.34,1.53 1.2,-5.18 -8.41,-4.75 -1.1,1.49 -19.33,-2.44l-2.19 5.92c7.46,4.32 11.63,3.04 20.32,1.7zm15.38 -81.13c-0.43,-4.95 -1.05,-15.02 -1.19,-19.19 -8.33,1.68 -7.19,0.56 -6.58,7.43 0.54,6.04 -0.09,6.7 -0.95,12.18 4.79,1.57 4.95,2.38 8.72,-0.42zm-18.91 -92.33c3.4,4.63 4.11,2.34 7.83,7.47 4.33,5.97 0.55,5.58 9.66,3.68 -2.3,-8.5 -7.33,-13.17 -14.76,-16l-2.73 4.85zm-22.09 290.64c-1.53,-9.48 -1.88,-8.63 -0.05,-18.24l-5.9 -2.29c-1.79,5.56 -4.06,12.83 -1.01,19.64 2.81,1.73 -0.67,0.62 3.13,1.23 0.38,0.06 3.31,-0.3 3.83,-0.34zm-264.07 -251.47c-2.4,-4.62 -7.04,-5.81 -7.06,0.03 -0.01,3.33 0.45,2.9 2.93,3.19 5.04,0.58 2.81,-0.55 4.13,-3.22zm-61.46 218.43c1.91,-3.6 0.39,0.08 1.65,-5.38 -1.87,-2.19 -0.24,-1 -2.96,-2.67 -4.98,1.55 -3.43,0.49 -3.87,6.03l5.18 2.02zm2.2 -20.65c4.36,0.74 3.98,1.55 8.04,-0.16 -0.73,-7.16 0.95,-2.59 -2.96,-5.7 -5.23,2.32 -2.02,-1.91 -5.08,5.86zm-15.73 55l1.64 4.57 5.97 0 -0.52 -5.44c-1,-0.41 -0.88,-0.86 -3.25,-0.7 -2.76,0.19 -0.38,-0.2 -3.84,1.57zm2.99 -23.08c0.23,6.48 0.93,5.56 2.16,7.27 6.35,-1.43 3.77,1.04 4.77,-5.75l-6.93 -1.52zm72.05 -144.72c-6.17,-5.71 -6.46,-1.14 -6.92,-1.12l0.66 4.34c5.48,2.03 4.78,2.63 6.26,-3.22zm-6.42 -52.75c-1.58,7.99 3.21,8.14 6.35,2.24 -1.96,-4.07 -1.62,-3.84 -6.35,-2.24zm-0.03 34.45l-0.31 4.34c6.06,2.07 5.37,2.66 6.71,-3.28 -5.24,-4.72 -6.01,-1.2 -6.4,-1.06zm-65.07 210.76c6.62,0 7.17,0.77 5.4,-5.43 -6.28,-1.86 -5.64,-1.36 -5.4,5.43zm65.07 -262.37l-0.41 4.38c0.2,0.05 3,5.27 6.79,-2.21 -2.55,-4.97 -1.53,-2.77 -3.87,-2.87l-2.51 0.7zm6.38 87.09c-2.83,-2.73 0.41,-3.11 -6.71,-1.16l0.57 4.38c0.06,0.02 -1.42,3.29 4.41,0.39 1.72,-0.86 1.43,-2.19 1.73,-3.61zm-65.64 194.49c6.16,1.75 5.37,1.12 5.38,-5.42 -6.72,-0.1 -7.37,-0.76 -5.38,5.42zm59.37 -247.15l-0.47 4.33c1.55,0.36 -1.74,2.48 4,0.63 3.35,-1.07 0.77,0.85 2.76,-2.76 -2.08,-4.17 -1.58,-3.92 -6.29,-2.2z"/>
 </g>
</svg>
