<?xml version="1.0" encoding="UTF-8"?>
<!DOCTYPE svg PUBLIC "-//W3C//DTD SVG 1.1//EN" "http://www.w3.org/Graphics/SVG/1.1/DTD/svg11.dtd">
<!-- Creator: CorelDRAW 2019 (64-Bit) -->
<svg xmlns="http://www.w3.org/2000/svg" xml:space="preserve" width="100%" height="100%" version="1.1" style="shape-rendering:geometricPrecision; text-rendering:geometricPrecision; image-rendering:optimizeQuality; fill-rule:evenodd; clip-rule:evenodd"
viewBox="0 0 554.08 465.66"
 xmlns:xlink="http://www.w3.org/1999/xlink">
 <defs>
  <style type="text/css">
   <![CDATA[
    .fil0 {fill:#A6A182}
   ]]>
  </style>
 </defs>
 <g id="Layer_x0020_1">
  <metadata id="CorelCorpID_0Corel-Layer"/>
  <g id="_2167655561296">
   <path class="fil0" d="M288.83 279.99l0 176.83c22.5,-11.9 46.65,-23.67 69.03,-37.07 16.89,-10.11 66.54,-30.04 66.54,-42.5l0 -159.16c0,-16.14 -11.56,-2.93 -29.47,5.9 -12.59,6.21 -20.85,11.93 -34.41,18.64 -13.1,6.48 -20.78,11.79 -34.4,18.65 -13.33,6.71 -22.55,15.27 -37.29,18.71z"/>
   <path class="fil0" d="M135.57 386.09c13.28,3.09 22.41,9.7 33.66,16.44 26.3,15.74 77.87,40.17 98.97,54.29l0 -176.83c-44.43,-23.52 -88.25,-47.25 -132.63,-70.74l0 176.84z"/>
   <path class="fil0" d="M150.31 191.57l0 5.89c20.68,4.82 119.73,64.84 129.68,64.84 13.11,0 110.89,-60.46 129.68,-64.84l-97.13 -53.18c-8.27,-4.81 -23.23,-16.28 -31.98,-15.65 -8.36,0.61 -111.12,58.48 -130.25,62.94z"/>
   <path class="fil0" d="M521.67 445.04c-2.55,10.92 -4.87,8.24 -5.9,20.62 12.83,-2.99 22.95,-8.5 38.31,-8.84 -3.26,-14.03 -11.72,-25.39 -14.73,-38.31 -7.22,5.28 -6.34,4.01 -8.84,14.74 -20.36,-1.7 -51.76,-27.32 -73.69,-32.42 -3.55,15.26 -6.61,10 24.57,25.54 11.66,5.81 28.62,15.95 40.28,18.67z"/>
   <path class="fil0" d="M256.41 32.41l17.68 0 0 79.58 11.79 0 0 -79.58 20.63 0c-3.88,-5.79 -6.12,-9.83 -11.12,-15.4 -8.03,-8.97 -6.6,-5.96 -12.46,-17.01 -8.5,5.69 -23.64,21.62 -26.52,32.41z"/>
   <path class="fil0" d="M23.57 424.4c-2.5,-10.72 -1.62,-9.45 -8.84,-14.73 -5.26,10.97 -9.47,24.39 -14.73,35.37 10.29,4.94 28.01,6.84 38.31,11.78 -1.03,-12.39 -3.35,-9.71 -5.9,-20.63l53.16 -26.41c0.42,-0.2 7.6,-3.75 7.87,-3.93 5.7,-4.02 4.23,-0.97 6.76,-7.97l-3.39 -5.75c-21.48,4.96 -52.88,30.58 -73.24,32.27z"/>
  </g>
 </g>
</svg>
