<?xml version="1.0" encoding="UTF-8"?>
<!DOCTYPE svg PUBLIC "-//W3C//DTD SVG 1.1//EN" "http://www.w3.org/Graphics/SVG/1.1/DTD/svg11.dtd">
<!-- Creator: CorelDRAW 2019 (64-Bit) -->
<svg xmlns="http://www.w3.org/2000/svg" xml:space="preserve" width="100%" height="100%" version="1.1" style="shape-rendering:geometricPrecision; text-rendering:geometricPrecision; image-rendering:optimizeQuality; fill-rule:evenodd; clip-rule:evenodd"
viewBox="0 0 554.51 719.68"
 xmlns:xlink="http://www.w3.org/1999/xlink">
 <defs>
  <style type="text/css">
   <![CDATA[
    .fil0 {fill:white}
   ]]>
  </style>
 </defs>
 <g id="Layer_x0020_1">
  <metadata id="CorelCorpID_0Corel-Layer"/>
  <path class="fil0" d="M371.93 673.5l98.71 -0.19 0.03 27.91 -98.48 -0.04 -0.26 -27.68zm-288.64 -0.18l98.74 0 0.03 27.82 -98.38 0.04 -0.39 -27.86zm-65.11 -69.56c-1.99,-25.49 11.96,-42.73 25.94,-51.89 18.48,-12.12 45.5,-8.78 70.49,-8.78l316.18 0c21.58,0 56.53,-2.9 73.79,5.46 40.83,19.78 42.88,74.41 5.7,98.29 -18.49,11.88 -45.49,8.55 -70.19,8.55l-316.18 0c-22.25,0 -55.75,2.93 -73.49,-5.25 -15.65,-7.22 -30.49,-23.89 -32.24,-46.38zm344.69 -170.39c0.86,-3.12 1.66,-3.24 8.22,-3.22 4.01,0.02 8.19,-0.3 12.13,0.31 -0.04,8.81 -1.11,43.96 0.43,49.94 4.09,15.91 23.64,-2.35 31.64,-7.02 3.12,1.01 12.8,7.74 15.91,9.86 5.77,3.94 13.59,6.02 16.65,-1.9 1.92,-4.96 0.06,-41.84 0.82,-51.11 25.76,-0.64 20.96,-4.16 20.96,36.37 0,19.25 -0.29,38.71 0.03,57.93 -1.03,1.34 -0.28,1.05 -5.54,0.99 -18.37,-0.21 -93.99,0.68 -102.06,-0.23 -1.26,-8.32 -0.14,-67.8 -0.3,-86.6 0,-0.49 -0.04,-2.8 0.02,-3.12 0.63,-3.59 0.01,-1.16 1.09,-2.2zm-279.19 0.48c1.27,-4.02 3.58,-3.73 8.43,-3.71 4.07,0.02 8.19,-0.15 12.24,0.21l0.34 50.64c1.75,2.07 2.27,4.97 6.93,5.76 7.93,1.33 17.78,-11.01 25.47,-13.35 13.46,7.28 26.12,22.5 32.51,6.37l0.09 -49.48c4.19,-0.25 8.3,-0.15 12.37,-0.15 4.98,-0.01 7.21,-0.17 8.35,3.83 1.69,2.95 0.76,41.79 0.76,45.03 0,11.54 1.36,36.14 -0.25,46.12 -3.09,1.05 -102.67,1.34 -107.81,0.15 -1.22,-10 -0.02,-66.07 -0.25,-85.8 -0.01,-0.55 -0.07,-2.74 -0.03,-3.13l0.85 -2.49zm317.69 -3.69l29.2 0.27 -0.05 30.49c-4.29,-1.54 -9.44,-7.29 -14.49,-7.52 -5.97,-0.27 -9.79,5.44 -14.82,7.19l0.16 -30.43zm-278.91 0.01l29.29 0.15 -0.14 30.65c-3.96,-1.71 -10.05,-7.45 -14.56,-7.57 -6.15,-0.16 -9.44,5.39 -14.72,7.22l0.13 -30.45zm430.15 149.14c-0.15,-0.17 -0.33,-0.68 -0.38,-0.56 -0.09,0.18 -5.06,-12.82 -9.41,-19.6 -13.44,-20.97 -29.9,-28.69 -55.22,-33.84 -0.63,-22.35 -0.06,-45.56 -0.06,-68.01 0,-16.9 4.71,-44.68 -24.18,-45.06 -9.45,-0.13 -95.81,-0.81 -101.8,0.66 -8.14,2 -15.75,9.06 -16.79,17.78l-0.31 94.47c-3.28,0.87 -130.43,1.17 -135.83,0.12 -1.34,-6.59 -0.23,-79.35 -0.61,-94.06 -0.13,-8.77 -8.75,-16.35 -16.53,-18.29 -6.4,-1.59 -27.03,-0.67 -35.03,-0.67 -23.44,0 -47.99,-0.71 -71.29,0.12 -23.02,4.83 -19.79,22.88 -19.79,46.48 0,10.3 0.68,60.89 -0.36,66.65 -4.44,1.5 -9.5,1.81 -14.34,3.49 -14.14,4.9 -21.68,10.67 -31.33,20.58 -38.8,39.84 -16.02,111.52 39.69,122.18 2.15,0.41 5.74,0.29 6.34,2.54 0.01,9.56 -0.06,19.14 -0.02,28.7 0.04,8.47 4.17,14.55 11.62,15.9 6.04,1.09 21.31,0.28 28.33,0.28 15.29,0 77.74,1.04 83.97,-0.47 14.9,-3.62 10.34,-24.67 10.79,-45.37l153.92 0.2c0.08,9.55 -0.04,19.12 0,28.67 0.09,22.05 19.47,16.97 40.38,16.97 14.52,0 78.59,0.91 83.81,-0.57 16.19,-4.57 9.02,-28.34 10.69,-45.79 24.26,-2.55 41.54,-16.4 51.55,-29.94 22.09,-29.87 11.37,-58.16 12.19,-63.56zm-281.46 -216.28c-8.78,0 -9.14,-1.11 -13.64,-5.83l39.49 0c-2.32,4.34 -6,5.83 -11.9,5.83l-13.95 0zm-26.81 -31.98l66.15 0.16 -0.16 8.08 -66.09 -0.11 0.1 -8.13zm0.08 -26.11l66.02 0.09 -0.02 8.05 -66.21 -0.14 0.21 -8zm19.03 -28.15l27.92 0.06 -0.02 10.09 -28.09 -0.04 0.19 -10.11zm-27.93 -80.04c8.02,-4.81 14.13,8.41 6.37,12.01 -8.01,3.71 -14.58,-7.07 -6.37,-12.01zm78.87 -0.99c8.82,-2.31 11.91,10.89 3.62,13.15 -9.15,2.49 -12.59,-10.81 -3.62,-13.15zm-69.59 91.03c-3.23,-0.21 -1.96,0.84 -3.32,-2.92 -8.82,-24.32 -20.36,-32.7 -37.01,-53.6 -15.47,-19.42 -25.42,-38.19 -24.66,-71.34 1.23,-52.8 44.29,-95.06 97.54,-95.1 53.38,-0.04 96.29,42.43 97.53,95.09 1.16,49.32 -21.86,66.74 -46.82,98.02 -4.78,5.99 -10.66,15.28 -13.52,22.88 -3.29,8.71 -0.84,6.73 -4.64,6.99 -4.35,-9.87 7.6,-27.94 -12.92,-27.99l7.42 -34.08c9.51,2.35 14.64,4.55 24,-0.79 23.17,-13.2 11.54,-49.99 -15.87,-46.19 -20.36,2.81 -20.97,22.08 -23.75,34.52 -1.78,7.98 -3.5,15.96 -5.3,24.1 -0.82,3.73 -3.47,21.12 -6.13,22.47 -2.3,-1.1 -1.93,-2.59 -2.45,-5.26 -0.35,-1.75 -0.8,-3.78 -1.23,-5.77 -2.59,-11.88 -10,-52.4 -14.44,-59.14 -3.28,-4.96 -9.8,-9.91 -17.71,-10.74 -27.2,-2.84 -38.36,33.12 -14.88,46.4 10.17,5.75 14.28,2.32 23.68,0.8l7.08 33.75c-20.04,-0.13 -8.32,18.15 -12.6,27.9zm-36.8 -218.45l-1.72 1.23 -0.8 1.03c-0.12,0.13 -0.28,0.33 -0.41,0.47l-9.84 8.85c-3.13,3.2 -6.44,7 -9.38,10.79 -22.6,29.12 -26.24,57.88 -22.26,95.87 1.23,3.01 2.59,11.04 4.08,15.38 1.39,4.02 5.15,11.58 5.46,14.55 1.48,1.19 10.15,15.64 12.08,18.3 3.5,4.82 11.28,13.12 12.89,16.85 3.62,1.55 15.67,17.98 18.59,22.2 6.64,9.57 9.59,17.18 9.57,31.55 -0.02,13.62 -0.26,27.52 -0.02,41.11 0.07,3.69 0.31,5.51 2.27,7.73 1.6,1.8 3.46,3.56 4.96,5.11 14.6,15.12 18.99,21.63 40.01,21.59 15.27,-0.02 23.4,0.99 33.23,-7.44 2.57,-2.2 18.74,-17.65 20.5,-20.62 2.55,-4.29 1.25,-31.55 1.25,-38.96 0,-16.39 -0.99,-21.65 6.32,-34.67 13.01,-23.18 36.92,-38.71 50.11,-71.65 12.44,-31.06 10.66,-70.7 -5.64,-100.95 -5.55,-10.3 -15.76,-21.96 -16.25,-23.77 -3.04,-1.66 -4.83,-4.37 -7.53,-6.71 -40.16,-34.82 -94.61,-40.7 -139.05,-13.01 -2.82,1.76 -5.28,3.98 -8.42,5.17zm65.81 512.09c11.19,-2.51 20.31,5.36 22.43,14.48 2.68,11.51 -5.67,21.35 -14.57,23.18 -24.84,5.09 -34.18,-31.76 -7.86,-37.66zm-33.33 24.88c3,18.27 20.48,34.22 42.82,30.74 18.46,-2.87 34.51,-20.64 30.91,-42.91 -2.91,-17.99 -20.23,-34.24 -42.61,-30.7 -18.44,2.92 -34.82,20.32 -31.12,42.87zm-65.66 -24.43c24.79,-7.59 35.46,29.66 11.18,36.84 -24.76,7.32 -35.14,-29.51 -11.18,-36.84zm-31.22 24.43c2.73,17.96 20.58,34.22 42.86,30.71 18.23,-2.87 34.51,-20.42 30.87,-42.88 -2.93,-18.07 -20.22,-34.12 -42.45,-30.73 -18.82,2.87 -34.74,20.18 -31.28,42.9zm-62.95 -25.06c11.12,-2.01 20.21,5.93 21.96,15.36 2.09,11.22 -5.71,20.86 -15.39,22.59 -25.34,4.54 -32.59,-33.26 -6.57,-37.95zm-34.13 23.51c2.29,18.89 19.55,35.1 41.67,32.46 18.99,-2.26 35.12,-19.92 32.44,-41.61 -2.34,-19 -19.58,-34.82 -41.52,-32.36 -18.81,2.11 -35.28,19.3 -32.59,41.51zm405.36 -2.32c-1.23,-11.59 7.15,-20.32 17.11,-21.36 11.17,-1.16 20.32,6.94 21.4,16.83 2.81,26 -35.92,28.98 -38.51,4.53zm14.52 -39.09c-18.99,2.64 -35.37,19.56 -32.27,41.94 2.62,18.83 20.13,34.86 42.24,31.86 18.6,-2.52 34.87,-20.28 31.73,-42.24 -2.63,-18.41 -19.87,-34.59 -41.7,-31.56zm-111.5 38.32c-1.66,-25.86 36.82,-27.58 38.65,-3.03 1.94,26.09 -37.07,27.79 -38.65,3.03zm14.02 -38.2c-18.82,2.98 -35.22,19.76 -31.57,42.61 2.94,18.42 20.42,34.47 42.87,30.96 18.16,-2.85 34.5,-20.54 30.89,-42.79 -2.94,-18.09 -20.21,-34.26 -42.19,-30.78zm74.52 -393.45c1.66,-4.36 -0.76,-8.49 -3.19,-10.23 -3.5,-2.5 -8.89,-1.74 -13.34,-1.73 -8.74,0.01 -20.61,-2.08 -23.12,5.98 -4.22,13.52 12.97,12.02 16.93,12.02 9.32,-0.01 19.54,2.23 22.72,-6.04zm-58.09 65.87c1,6.06 13.54,11.35 19.19,14.63 3.5,2.02 7.39,5.08 12.48,3.41 3.54,-1.16 6.5,-4.86 5.66,-10.01 -1,-6.15 -13.34,-11.34 -19.23,-14.8 -3.54,-2.07 -7.21,-5.01 -12.26,-3.41 -3.67,1.16 -6.72,4.85 -5.84,10.18zm-248.29 -138.41c2.54,0.32 9.12,4.05 10.45,5.81 6.49,2.14 13.91,10.12 20.16,1.97 6.58,-8.57 -3.58,-13.68 -8.84,-16.69 -4.26,-2.43 -14.39,-9.82 -20.13,-8.66 -3.79,0.76 -6.54,3.97 -6.77,8.09 -0.31,5.38 2.98,6.51 5.13,9.48zm203.74 -37.95c10.61,-0.62 9.37,0.02 14.6,-9.09 1.24,-2.16 8.4,-14.88 9.15,-15.27 1.19,-6.94 -1,-12.35 -7.48,-12.88 -7.16,-0.59 -8.74,4.57 -11.41,9.1 -2.7,4.6 -5.02,8.51 -7.72,13.22 -5.39,9.37 1.06,12.43 2.86,14.92zm-189.98 191.3c0.77,-0.93 0.28,-0.46 1.32,-1.33 0.97,-0.81 -0.1,0.01 0.94,-0.71l5.91 -3.44c2.05,-1.17 5.84,-3 7.66,-4.69 3.9,-3.63 3.63,-9.76 0.28,-12.9l-3.87 -2.87c-3.06,0.7 -5.59,0.7 -8.37,2.26l-19.91 11.85c-4.28,4.03 -3.58,10.97 0.8,13.9 6.97,4.64 10.88,-1.77 15.24,-2.07zm40.06 -214.11c2.64,0.61 7.13,16.55 16.41,22.91 7.23,0.25 13.11,-3.03 11.23,-11.16 -0.61,-2.64 -6.53,-12.04 -8.32,-15.09 -3.01,-5.12 -4.66,-11.28 -11.92,-11.13 -7.88,0.16 -9.66,7.27 -7.4,14.47zm231.4 55.03c1.8,-4.82 -1.31,-17.91 -17.08,-8.57 -5.01,2.96 -17.93,8.98 -19.51,13.81 -1.71,5.21 1.88,17.52 16.92,8.44 5.41,-3.26 17.8,-8.7 19.67,-13.68zm-153.91 -77.5c0,7.01 -1.17,20.58 2.32,24.48 2.06,2.32 6.23,3.95 10.16,2.34 6.88,-2.8 5.47,-11.74 5.48,-19.84 0,-8.59 1.1,-17.01 -5.78,-19.47 -8.3,-2.98 -12.18,3.25 -12.18,12.49zm-154.14 145.11c-0.35,0.72 0.2,-0.21 -0.75,1.13 -5.87,8.29 -1.75,15.24 7.31,15.57l27.92 -1.81c1.38,-2.9 4.09,-6.61 1.73,-11.39 -1.65,-3.36 -4.9,-4.68 -9.44,-4.81 -8.76,-0.25 -18.77,-0.77 -26.77,1.31zm230.54 272.32c-1.14,2.07 -1.02,1.98 -1.1,4.9 -0.81,27.86 0.89,60.68 -0.05,89.14l-134.53 0.12 -0.04 -82.26c0,-3.25 0.92,-9.42 -1.03,-11.37 0.38,14.71 -0.73,87.47 0.61,94.06 5.4,1.05 132.55,0.75 135.83,-0.12l0.31 -94.47zm-154.36 3.29l0.04 90.93 -106.78 -0.06 0.01 -90.99 -0.85 2.49c-0.04,0.39 0.02,2.58 0.03,3.13 0.23,19.73 -0.97,75.8 0.25,85.8 5.14,1.19 104.72,0.9 107.81,-0.15 1.61,-9.98 0.25,-34.58 0.25,-46.12 0,-3.24 0.93,-42.08 -0.76,-45.03zm279.25 90.56l-107.1 0.18 0.31 -91.34c-1.08,1.04 -0.46,-1.39 -1.09,2.2 -0.06,0.32 -0.02,2.63 -0.02,3.12 0.16,18.8 -0.96,78.28 0.3,86.6 8.07,0.91 83.69,0.02 102.06,0.23 5.26,0.06 4.51,0.35 5.54,-0.99z"/>
 </g>
</svg>
