<?xml version="1.0" encoding="UTF-8"?>
<!DOCTYPE svg PUBLIC "-//W3C//DTD SVG 1.1//EN" "http://www.w3.org/Graphics/SVG/1.1/DTD/svg11.dtd">
<!-- Creator: CorelDRAW 2019 (64-Bit) -->
<svg xmlns="http://www.w3.org/2000/svg" xml:space="preserve" width="100%" height="100%" version="1.1" style="shape-rendering:geometricPrecision; text-rendering:geometricPrecision; image-rendering:optimizeQuality; fill-rule:evenodd; clip-rule:evenodd"
viewBox="0 0 888.68 719.67"
 xmlns:xlink="http://www.w3.org/1999/xlink">
 <defs>
  <style type="text/css">
   <![CDATA[
    .fil0 {fill:white}
   ]]>
  </style>
 </defs>
 <g id="Layer_x0020_1">
  <metadata id="CorelCorpID_0Corel-Layer"/>
  <path class="fil0" d="M297.39 80.93c7.38,-24.36 36.94,-31.67 67.93,-35.49 8.9,19.12 18.04,12.11 21.6,30.67 -16.91,-9.75 -11.22,-24.21 -42.59,-10.14 -4.78,10.9 -0.94,5.95 -2.44,13.02 -2.01,9.52 -6.31,9.09 -17.09,33.12 -0.57,-0.84 -1.06,-2.1 -1.31,-2.74 -0.26,-0.66 -0.93,-2 -1.23,-2.82 -0.31,-0.84 -0.76,-2.02 -1.08,-2.96l-4.03 -15.6 -19.76 -7.06zm382.84 -50.97c23.14,-6.45 70.17,-36.02 61.5,17.95 -3.06,19 -18.08,64.29 -34.49,76.78 -4.3,-6.64 -24.56,-28.94 -32.97,-36 8.02,-22.11 12.28,-29.59 5.96,-58.73zm-446.2 40.91c-5.74,24.11 28.88,48.47 -5.22,88.63 -23.75,27.97 -48.62,21.24 -82.49,11.49 -25.47,28.62 -39.9,83.52 -51.37,126.07 -49.93,-58.09 -100.75,-163.6 35.85,-171.5 12.73,15.18 7.84,29.05 34.06,37.93 63.11,21.36 98.1,-75.31 23.37,-92.92 -32.67,-0.91 -45.89,13.19 -54.32,40.23 -81.31,4.87 -123.5,41.09 -98.23,115.57 10.81,31.86 21.55,37.24 23.54,52.84 1.87,1.21 72.74,86.8 94.4,104.75 26.9,22.29 83.63,72.41 114.18,86.87 18.34,-5.95 0.82,4.28 9.26,-13.51 -5.27,-3.71 -5.18,-2.7 -6.6,-3.12 -24.22,-9.89 -158.41,-118.71 -161.34,-144.72 -0.97,-8.64 9.01,-60.01 23.59,-75.22 10.88,48.76 43.85,64.84 70.3,84.84 14.26,10.77 18.72,28.75 42,35.59 29.39,8.64 32.89,11.94 26.35,44.39 8.69,-4.75 12.15,-14.67 24.56,-26.08l3.86 -15.47c-26.23,-8.3 -0.19,-4.67 -62.15,-20.74l3.4 -31.33 -20.26 -7.24c2.98,-6.7 0.03,-0.62 4.46,-6.7l9.25 -12.7c-11.36,-18.52 -37.07,-30.01 -32.72,-52.89 22.61,-7.11 14.66,0.35 34.16,3.33 31.72,4.84 29.4,-8.98 46.04,14.85 11.11,15.89 13.43,28.7 34.53,27.27 -21.45,-46.41 -31.92,-53.72 9.1,-88.77l37.44 -32.73c21.12,-13.73 35.14,7.43 46.38,-18.78l-27.31 -10.86c62.2,-6.65 30.21,29.38 84.57,13.3 -3.37,-13.14 -2.07,-3.77 -11.61,-11.96 -26.15,-22.46 11.05,-13.77 -44.62,-37.85 -1.8,-45.4 -8.57,-46.65 -55.17,-49.66 54.97,-29.3 167.7,-11.92 231.89,17.36 24.5,11.17 39.75,23.25 59.17,33.87 -10.57,29.11 0.08,17.4 8.26,38.31 -6.8,14.37 -16.33,19.05 -32.5,26.51l5.11 27.82c-15.13,5.96 -29.4,1.08 -24.88,27.03 3.09,17.77 20.02,21.52 29.14,8.25 9.16,-13.32 0.87,-21.24 20.01,-30.92l29.94 -4.36c-9.75,16.4 -14.13,27.67 -25.55,32.54l-22.85 7.8c-15.81,8.27 -30.77,30.21 -38.17,47.4 -15.33,35.62 7.45,31.07 -19.94,65.35l-38.67 49.04c0.3,0.78 0.6,1.13 0.84,2.35l8.7 12.78 123.95 -171.18c0.23,-0.34 9.48,-13.41 9.71,-13.64 6.72,-6.44 0.15,-0.87 6.87,-4.85 31.91,-18.87 13.53,-15.47 18.75,-36.02 19.61,4 7.57,4.57 15.23,27.35 10.55,-8.9 5.03,-7.71 11.93,-17.8 9.06,14.38 17.27,25.27 21.1,43.17l9.44 -10.51c0.18,-0.25 0.7,-1.25 0.82,-1.44 0.11,-0.17 0.29,-0.97 0.63,-1.32l-1.12 -6.81 -5.13 -10.03 30.66 3.46 2.35 23.8c10.99,44.18 69.57,42.17 82.59,15.12 3.76,37.26 -51.61,80.26 -77.55,91.77 0.94,0.59 2.58,0.14 2.93,1.57 0.4,1.66 4.04,2.87 4.54,3.49 8.09,9.98 1.66,-6.66 2.48,6 33.1,-15.18 87.16,-63.79 82.44,-104.83 -2.12,-18.48 -10.51,-53.43 -26.56,-63.91 -38.05,-24.84 -67.53,12.25 -67.54,12.25l-42.15 -1.52c-5.47,-5.39 -25.42,-33.07 -30.09,-40.39 2.29,-6.92 91.36,-182.4 -29.54,-128.75 -24.7,10.96 -13.14,11.84 -34.98,1.93 -13.63,-6.18 -28.14,-5.66 -40.79,-0.18 -17.12,7.41 -14.17,10.65 -25.39,24.56 -232.46,-82.41 -307.71,26.46 -357.32,34.38zm519.28 151.36c-20.83,-6.79 -24.04,-7.53 -34.42,0.66 -0.86,0.68 -2.53,7.48 -4.1,4.33 -0.34,-0.68 -1.19,1.66 -1.98,2.28 -18.76,-8.82 -30.94,-8.2 -43.33,9.95l-76.1 110.17c45.27,78.04 80.5,8.27 111.39,34.12 -39.44,16.07 -80.31,37.44 -123.88,54.67l-6.34 -5.76c-19.95,-16.47 -30.78,-10.44 -46.9,-18.03 7.89,-11.11 9.57,-18.42 18.12,-19.42l-8.7 -12.78c-0.24,-1.22 -0.54,-1.57 -0.84,-2.35 -8.52,12.52 -12.69,11.25 -20.58,27.69 -49.41,-17.39 -37.83,-22 -52.17,-30.9 -10.03,-6.22 -19.96,-4.78 -30.7,-8.2 -16.41,-5.21 -10.73,-7.21 -23.32,-15.5 -18.78,-12.36 -40.39,-7.57 -61.45,-16.3 -26.55,-11.01 -45.7,-0.58 -48.23,20.67l-3.86 15.47c-12.41,11.41 -15.87,21.33 -24.56,26.08 -9.34,17.02 -3.11,42.51 -0.9,55.12 1.42,0.42 1.33,-0.59 6.6,3.12 -8.44,17.79 9.08,7.56 -9.26,13.51l12.69 11.17c7.47,5.16 10.19,6.72 16.6,10.76l32.74 22.87 -109.77 18.09c0.92,1.27 3.01,0.55 3.95,2.54 8.81,18.69 -0.92,1.1 7.67,4 19.98,6.75 -8.27,-2.53 13.9,1.98 40.26,11.29 260.37,-60.15 304.72,-76.66 48.96,-18.23 90.79,-36.07 136.48,-57.47l93.13 -50.53c7.1,-4.2 23.41,-12.39 26.04,-20.25 -0.82,-12.66 5.61,3.98 -2.48,-6 -0.5,-0.62 -4.14,-1.83 -4.54,-3.49 -0.35,-1.43 -1.99,-0.98 -2.93,-1.57 2.41,-24.88 -17.39,-108.72 -31.8,-117.31 -0.34,0.35 -0.52,1.15 -0.63,1.32 -0.12,0.19 -0.64,1.19 -0.82,1.44l-9.44 10.51zm-504.47 417.11c-10.55,4.87 -4.11,-4.5 -7.19,12.42l10.96 9.21c-18.9,18.04 -124.18,89.11 -101.66,2.66 4.1,-15.74 9.45,-24.35 11.54,-41.01l-13.5 -0.89c-7.21,30.77 -39.17,103.45 19.37,97.6 36.21,-3.62 74.12,-33.63 98.24,-49.63 18.68,5.43 34.71,18.99 84.18,33.23 96.18,27.7 245.36,1.11 283.45,-43.86 -25.28,-12.81 -66.8,36.14 -173.47,41.65 -59.89,3.1 -134.72,-13 -177.78,-41.65 15.49,-16.97 47.52,-39.85 55.89,-48 10.53,-10.26 3.6,-8.01 17.19,-14.88 0.98,42.46 -3.04,90.35 34.7,91.25 9.18,-14.6 0.81,-20.92 13.11,-34.41 7.74,-8.49 16.71,-8.15 26,-16.89 7.39,-6.95 6.11,-8.5 10.63,-12.69 11.27,-10.46 23.91,-7.56 34.81,-31.58 48.76,9.95 192.26,90.23 309.85,62.21 40.67,-9.68 37.47,-20.34 58.52,-38.78 17.19,-15.06 41.23,-13.21 39.02,-52.84 -2.3,-41.07 -41.12,-43.77 -46.86,-46.41 -19.45,-8.92 -21.14,-50.19 -42.16,-43.91 -5.31,14.06 15.13,28.94 21.97,47.24 -35.18,25.89 -37.29,60.69 -13.82,81.66l24.03 16.78c-41,33.64 -91.91,29.8 -155.08,20.2 3.43,-9.07 38.12,-39.51 49.41,-53.07 51.73,-62.06 77.9,-140.53 80.03,-225.86l-82.67 47.77c9,18.41 21.29,16.36 20.09,48.91 -1.19,32.47 14.53,40.39 12.46,54.75 -3.35,23.28 -79.21,115.13 -100.83,120.24 -21.96,5.19 -147.18,-42.47 -161.48,-53.17 16.07,-40.84 55.5,-5.02 64.13,-99.08 -21.52,3.26 -130.02,44.47 -198.98,57.83 -1.37,24.94 15.6,33.68 -28.82,67.69 -19.34,14.8 -36.64,34.04 -57.84,46.39l-17.44 -11.08zm-172.36 -104.35c-67.07,0.6 -81.12,-48.11 -21.68,-99.24 6.46,-5.56 31.28,-24.52 38.34,-26.21 3.62,15.91 17.57,60.8 14.46,73.41l-19.04 21.52c-6.96,10.67 -7.41,17.5 -12.08,30.52zm9.3 -144.49c-3.86,8.42 -160.11,114.11 -41.23,153.24 66.55,21.9 14.16,-4.65 47.13,41.95 11.01,15.56 15.54,10.09 23.62,20.39 25.99,7.03 45.36,9.81 68.72,-3.2 10.09,7.85 18,15.87 27.99,25.52 11.7,11.32 17.2,15.05 29.64,23.36 3.08,-16.92 -3.36,-7.55 7.19,-12.42 -17.9,-11.6 -40.27,-32.89 -50.89,-46.23 30.73,-38.92 4.65,-36.43 33.71,-46.11l13.92 -4.76c-22.17,-4.51 6.08,4.77 -13.9,-1.98 -8.59,-2.9 1.14,14.69 -7.67,-4 -0.94,-1.99 -3.03,-1.27 -3.95,-2.54 -16.43,-20.38 -10.5,-71.35 -97.53,-59.15 -4.51,-23.17 -11.41,-41.84 -14.94,-67.5 -3.92,-28.43 0.27,-48.05 -9.28,-69.31 -8.51,8.71 -4.47,0.91 -8.19,14.66 -3.97,14.74 4.89,27.38 -4.34,38.08zm318.16 -352.25c6.24,3.64 1.16,3.45 12.7,2.98 1.72,-0.07 10.07,-2.72 12.19,-3.36 4.28,29.94 20.04,8.01 25.19,29.66l4.84 11.16c6.67,7.67 10.42,3.64 17.75,17.24 8.2,15.21 7.51,35.75 18.92,49.21 22.3,-13.01 21.77,-57.05 27.83,-75.41 3.11,-9.39 4.1,2.66 4.6,-17.49 -62.63,-22.42 -25.9,-17.93 -90.99,-19.35 -7.07,-0.15 -31.12,-5.21 -33.03,5.36zm199.06 104.23c11.92,-6.83 4.41,1.83 10.98,-11.42 7.56,8.3 0.96,-1.84 4.87,6.97 0.27,0.6 0.45,3.13 0.84,4.36 13.54,-3.23 7.48,0.78 14.39,-11.02 -5.19,-17.46 -11.54,-27.86 -29.44,-30.56l-1.64 41.67zm-225.99 161.75c-10.95,-21.75 -45.33,-23.68 -55.35,-17.93 14.88,11.26 -12,-1.72 10.2,8.49 3.77,1.73 9.16,3.52 14.07,5.8 15.55,7.21 13.81,6.29 31.08,3.64zm211.64 -180.71c9.97,-15.78 3.41,-16.06 -11.65,-18.47 0.81,14.42 0.38,14.34 11.65,18.47zm-31.04 -26.59c0.44,-0.76 1.31,-2.77 1.36,-2.25l0.46 -10.84c-2.56,2.76 -15.26,-6.94 -1.82,13.09z"/>
 </g>
</svg>
