<?xml version="1.0" encoding="UTF-8"?>
<!DOCTYPE svg PUBLIC "-//W3C//DTD SVG 1.1//EN" "http://www.w3.org/Graphics/SVG/1.1/DTD/svg11.dtd">
<!-- Creator: CorelDRAW 2019 (64-Bit) -->
<svg xmlns="http://www.w3.org/2000/svg" xml:space="preserve" width="100%" height="100%" version="1.1" style="shape-rendering:geometricPrecision; text-rendering:geometricPrecision; image-rendering:optimizeQuality; fill-rule:evenodd; clip-rule:evenodd"
viewBox="0 0 1101.86 719.67"
 xmlns:xlink="http://www.w3.org/1999/xlink">
 <defs>
  <style type="text/css">
   <![CDATA[
    .fil0 {fill:white}
   ]]>
  </style>
 </defs>
 <g id="Layer_x0020_1">
  <metadata id="CorelCorpID_0Corel-Layer"/>
  <path class="fil0" d="M1057.75 195.51c-19.38,13.02 -16.77,19.11 -31.21,34.88 -53.78,58.73 1.02,42.03 -9.32,154.92 -6.96,76.04 -49.42,145.49 -87.67,178.03 -112.6,95.78 -274.74,93.99 -379.48,-6.23 -94.07,-90 -115.01,-271.25 -12.52,-379.43 40.59,-42.85 90.28,-83.7 177.03,-92.56 94.57,-9.65 145.27,23.23 206.01,60.34 16.89,-15.59 37.13,-39.46 49.59,-58.64 -27.52,-32.48 -86.58,-61.46 -143.39,-75.41 -284.1,-69.78 -413.57,203.23 -417.43,205.27 -31.08,5.99 -73.17,-1.64 -96.51,4.87 -30.05,8.39 -34.55,49.49 -9,64.18 40.63,23.36 144.89,-33.23 119.92,65.5 -51.71,24.42 -119.22,-4.38 -170.78,21.31 -22.21,81.81 65.5,60.99 131.78,60.49 96.97,-0.73 86.88,69.65 12.56,70.22 -77.5,0.6 -336.5,-10 -388.21,6.67 -12.52,23.61 -11.74,34.34 -0.16,58.09 49.31,14.04 233.81,6.62 300.64,6.63 149.26,0.02 242.89,-22.37 214.54,63.35 -117.95,35.71 -306.07,-47.51 -270.73,66.94 47.98,24.26 273.24,11.25 349.22,11.26 115.6,0.02 218.12,9.85 311.41,-43.49 75.11,-42.95 128.77,-98.33 164.67,-191.01 28.33,-73.15 30.77,-233.35 -20.96,-286.18zm-324.2 342.73c21.4,-13.29 32,-30.13 53.11,-55.37 14.47,-17.31 30.57,-37.32 45.04,-54.83l91.16 -108.28c27.65,-36.74 171.76,-187.92 179,-229.49 -10.8,-10.11 -42.92,-38 -62.82,-43.77 -23.31,15.94 -132.71,150.24 -157.53,182.11 -12.41,15.95 -27.26,33.38 -39.53,47.85l-77.64 90.49c-16.58,18.96 -13.63,25.87 -37.02,42.64 -29.82,-21.77 -79.47,-89.31 -113.67,-97.17 -11.46,13.34 -14.41,17.62 -25.33,27.97 -14.37,13.61 -15.05,9.58 -25.55,26.99 8.99,27.51 148.14,161.37 170.78,170.86zm-652.06 113.02c-18.76,54.5 0.22,65.41 59.79,65.37 59,-0.03 78.76,-11.31 59.48,-65.3 -34.7,-9.3 -84.56,-9.22 -119.27,-0.07zm105.59 -221.57c36.17,-51.94 -0.28,-87.72 -51.98,-51.97 -5.52,43.98 7.73,57.94 51.98,51.97z"/>
 </g>
</svg>
