<?xml version="1.0" encoding="UTF-8"?>
<!DOCTYPE svg PUBLIC "-//W3C//DTD SVG 1.1//EN" "http://www.w3.org/Graphics/SVG/1.1/DTD/svg11.dtd">
<!-- Creator: CorelDRAW 2019 (64-Bit) -->
<svg xmlns="http://www.w3.org/2000/svg" xml:space="preserve" width="100%" height="100%" version="1.1" style="shape-rendering:geometricPrecision; text-rendering:geometricPrecision; image-rendering:optimizeQuality; fill-rule:evenodd; clip-rule:evenodd"
viewBox="0 0 905.5 719.67"
 xmlns:xlink="http://www.w3.org/1999/xlink">
 <defs>
  <style type="text/css">
   <![CDATA[
    .fil0 {fill:white}
   ]]>
  </style>
 </defs>
 <g id="Layer_x0020_1">
  <metadata id="CorelCorpID_0Corel-Layer"/>
  <path class="fil0" d="M679.33 0.87l-17.12 3.19 -17.79 6.36c-8.17,3.44 -13.71,5.28 -20.81,8.96 -6.12,3.16 -13.39,7.05 -19.27,10.45l-5.16 2.26c-2.42,3.3 -10.89,7.69 -14.33,9.29 -3.02,3.08 -15.16,11.14 -19.66,14.12 -7.19,4.76 -12.18,9.43 -19.02,14.67l-1.42 -0.17c-2.92,4.35 -1.97,2.75 -5.17,5.17 -2.34,1.77 -1.7,1.41 -4.11,3.5 -2.66,2.31 -5.51,4.44 -8.69,6.83 -2.9,4.05 -0.4,1.98 -4.7,3.15 -5.01,7.14 -8.18,8.16 -14.68,13.52 -0.47,1.73 -0.61,1.75 -2.77,3.71 -2.2,1.99 -1.48,1.39 -3.91,2.81 -2.88,4.04 -3.22,2.88 -6.77,6.05 -2.91,2.59 -3.81,4 -7.24,6.83 -0.36,3.75 1.52,0.16 -2.64,3.8 -1.49,1.31 -2.3,1.77 -3.83,2.79 -2.38,4.19 -6.33,7.77 -10.34,10.34l-9.46 9.06 -11.21 11.49c-0.57,3.14 -4.28,6.11 -6.48,7.89 -2.34,4.12 -4.3,4.51 -7.61,7.89 -3.23,3.3 -3.2,4.84 -6.71,7.88l-10.05 -35.16 -5.19 -19.8 -3.4 0.1c0.33,4.93 -2.37,20.07 -5.25,22.76 0.55,6.79 -1.92,12.18 -3.34,18.92l-3.69 15.2 -9.24 41.68c-1.27,5.25 -1.93,16.76 -5.71,19.86l-0.6 8.44 9.5 -2.28 18.98 -6.44c12.53,-2.86 26.38,-8.11 38.78,-11.74l20.68 -6.05 37.49 -12.05c2.12,-1.42 2.12,-0.04 0,-1.46 -10.47,-1.02 -29.5,-6.58 -40.07,-9.07l-16.81 -3.77c6.26,-4.6 12.79,-11.98 19.01,-17.27 7.23,-6.15 11.68,-10.66 19.77,-15.93 0.01,-3.2 -0.33,-0.72 1.3,-1.71 3.87,-4.17 10.99,-9.93 16.79,-12.51 1.24,-3.02 7.04,-6.89 10.35,-8.17 3.51,-2.76 4.49,-3.98 9.05,-6.46 3.26,-3.7 21.94,-14.87 28.1,-18.32l10.21 -4.22c4.93,-5.98 28.7,-13.74 37.96,-17.35 5.87,-1.34 11.82,-4.11 18.72,-3.42 3.95,-3.46 21.76,-4.38 25.91,-1.29 5.61,-0.72 10.47,-0.35 13.55,3.73 6.36,2.51 8.71,4.49 12.79,9.83 5.21,0.95 10.21,10.91 13.68,16.2 3.91,5.94 8.11,14.6 7.78,21.92 3.69,4.15 3.52,14.8 4.03,21.35l-0.11 12.94c-0.37,7.01 0.14,20.58 -3.92,25.23 0.45,6.31 -1.38,12.76 -3.33,18.72 -2.26,11.1 -8.54,30.09 -12.91,38.78 -2.65,8.49 -12.8,30.82 -17.22,37.49l-7.26 14.22c-4.85,3.31 -154.78,1.39 -158.77,1.39 6.06,2.36 138.63,0.73 157.54,0.73 -2.09,9.62 -43.94,77.24 -49.92,83.11l-0.38 1.38c-4.14,4.75 -9.13,12.48 -12.85,18.29 -3.98,6.22 -8.65,12.25 -13.18,17.9l-11.64 15.52 -3.31 3.05c-1.09,4.88 -0.67,3.06 -5.46,8.9 -2.14,2.62 -4.17,5.29 -6.33,7.92 -4.71,5.75 -8.83,10.03 -13.05,15.38 -13.53,17.14 -53,56.91 -71.1,70.98 -5.67,4.41 -10.49,10.28 -16.62,11.86l-1.76 2.13c-4.11,4.47 -12.85,10.01 -18.2,12.75 -6.61,6.05 -29.92,19.3 -39.97,21.65 -3.04,3.98 -31.33,11.57 -38.79,12.14 -15.88,0.54 -31.67,-5.51 -38.64,-15.51 -4.11,-0.31 -2.51,-0.48 -5.03,-4.04 -1.82,-2.56 -2.55,-3.63 -4.07,-6.51 -4.28,-4.66 -6.89,-13.23 -10.24,-20.48 -0.93,-6.66 -3.53,-13.43 -4.75,-21.1 -1.41,-8.81 -1.6,-15.16 -1.9,-24.15l0 -11.63 1.29 -21.98c0.1,-5.7 0.14,-16.53 3.23,-20.06 -2.94,-2.28 0.95,-2.31 -4.07,-0.35l-45.42 34.63c-2.72,19.59 -2.9,41.05 -3.97,61.28 -1.17,21.93 2.04,57.4 1.76,60.86 3.61,4.01 4.54,13.49 7,18.77 2.86,6.78 7.04,14.61 9.15,20.68l1.19 1.29c2.04,3.18 3.96,6.29 6.18,9.38 2.61,3.64 4.62,5.73 6.47,9.13 2.36,2.65 4.3,4.12 6.64,6.25 3.51,2.46 4.78,3.87 8.96,6.68 2.7,1.82 6.46,4.33 8.33,5.78l19.12 7.34c11.06,1.78 20.45,3.32 32.3,2.48l9.37 -0.5 17.79 -3.77 19.39 -5.28c4.47,-3.9 13.82,-6.5 19.84,-8.63 7.95,-2.82 13.19,-6.06 20.22,-9.05l5.18 -3c2.26,-1.9 9.47,-5.88 12.93,-7.93 5.8,-4.15 12.9,-7.62 19,-11.81 3.54,-2.44 6.25,-4.08 9.3,-6.2 5.12,-3.58 4.17,-4.61 10.01,-5.65 1.93,-3.61 3.48,-3.92 6.93,-6.01l11.84 -8.85 20.58 -16.89c12.47,-9.23 58.16,-51.7 58.18,-51.71l1.19 -1.19 18.09 -18.07 0.14 -0.14c6.15,-7.47 10.84,-12.48 17.6,-19.71l32.74 -38.32c4.94,-7.08 9.68,-12.09 15.62,-19.11 1.57,-3.2 7.17,-11.95 10.59,-13.35 1.89,-4.45 2.06,-4.5 4.84,-7.54 2.3,-4.71 9.43,-14.46 13.19,-19.33 4.6,-5.96 7.84,-12.33 12.58,-18.26 2.61,-5.09 5.98,-10.26 9.05,-14.33l2.58 -3.87 22.41 -40.94c6.31,-12.56 15.18,-28.24 20.25,-42.26l139.57 0c-6.71,-2.45 -119.21,-0.73 -136.98,-0.73 -2.94,-0.93 -2.52,1.31 -1.11,-2.69 3.02,-6.21 9.11,-28.04 13.47,-31.49 -0.3,-5.72 2.03,-12.97 4.94,-17.64 1.31,-5.58 3.25,-18.07 6.61,-21.35 -0.34,-4.7 4.97,-31.34 6.42,-36.82l2.07 -19.38 1.21 -20.69 -0.69 -23.26 0.04 -10.97c-2.16,-2.47 -6.82,-34.46 -9.59,-42.04 -2.35,-7.01 -5.64,-13.72 -5.84,-20.21 -1.59,-1.17 -9.44,-17.24 -11.42,-20.81 -2.15,-3.9 -3.36,-6.01 -5.82,-9.77 -2.44,-3.71 -4.52,-5.66 -6.55,-8.86 -4.5,-3.13 -2.56,-0.7 -4.08,-4.98 -3.76,-2.51 -5.05,-5.13 -8.82,-7.91 -2.87,-2.11 -6.2,-3.66 -8.87,-7.06 -4.64,-0.87 -5.19,-2.31 -10.5,-4.59 -3.35,-1.45 -7.8,-2.35 -9.77,-4.44 -6.23,0.34 -11.53,-1.84 -18.92,-2.04l-21.97 0.87zm-416.26 379.37c-1.45,5.89 -2.81,14.07 -7.11,17.47 -0.06,3.69 -0.63,6.16 -3.34,8.39 -2.37,6.47 -6.57,12.27 -10.21,16.87 -5.16,6.54 -7.28,7.39 -12.53,12.02 -8.7,7.68 -17.33,14.71 -31.44,18.62 -3.86,4.04 -21.67,6.55 -28.4,6.78 -13.21,0.47 -20.37,-0.68 -32.36,-2.59l-18.1 -6.45c-7.56,-4.4 -13.83,-6.27 -19.69,-12.64 -6.19,-2.75 -16.26,-13.28 -19.39,-19.39 -4.04,-3.74 -10.25,-13.91 -12.64,-20.98l-5.05 -15.51c-4.19,-12.03 -2.76,-24.23 -2.7,-37.49 0.77,-5.77 0.32,-3.01 1.94,-4.54 -0.73,-6.11 1.11,-16.46 4.84,-20.03 5.99,-21.78 30.64,-48.07 51.39,-55.26 2.67,-3.39 16.71,-7.32 22.78,-8.6 9.32,-1.98 18.34,-2.52 28.94,-1.95 2.44,0.18 5.82,-0.7 5.82,1.82 10.71,-1.68 39,9.44 42.01,14.98 5.65,2.05 9.37,5.23 12.9,10.23 2.67,0.17 0.5,-1.43 3.55,1.56 4.54,4.44 1.22,0.28 2.23,4.25 4.97,3.21 9.73,8.14 12.02,14.87 6.25,2.96 13.85,28.84 15.84,38.79 0.51,7.25 3.85,22.89 -0.65,27.81 0.98,6.55 0.33,5.37 -0.65,10.97zm-117.64 -174.69l-3.87 0.07c-15.78,0.97 -29.92,6.03 -42.67,10.45l-16.8 8.05 -7.69 3.58c-0.23,0.23 -0.54,0.54 -0.69,0.68 -0.82,0.72 -6.74,6 -12.3,8.05 -1.3,2.97 -7.77,7.58 -10.35,9.31l-7.82 7.82c-1.51,2.26 -7.99,10.49 -10.59,11.64 -2.89,6.72 -7.53,11.74 -8.73,12.99l-2.91 5.1 -10.66 21.34c-0.34,8.44 -7.31,26.02 -8.52,39.42 -0.3,4.16 0.3,7.78 -1.83,9.7 1.02,6.23 2.23,23.92 1.3,29.71 2.85,2.8 1.79,3.5 2.67,7.82 0.58,2.86 1.04,4.76 1.64,7.32 1.19,5.01 2.28,9.18 4.09,13.96 1.8,5.07 3.62,8.96 5.59,13.77 2.13,5.18 4.66,8.56 6.34,13.08l11.99 19.03c5.65,3.55 8.54,8.41 13,12.85 4.39,4.36 8.24,7.8 13.18,12.49 2.57,1.4 15.44,9.61 17.12,11.83l3.88 2.27c3.91,1.09 16.64,7.25 20.69,9.36 5.67,1.57 10.83,3.61 16.5,5 4.65,1.14 13.59,1.2 16.47,4.38 5.1,-0.81 25.17,0.35 31,1.29 1.49,-1.3 0.36,-0.77 3.38,-1.42 1.85,-0.4 3.2,-0.36 5.03,-0.51 15.94,-0.36 33.94,-9.59 43.29,-9.7 3.42,-4.19 12.43,-7.13 17.47,-9.99l2.8 -0.35c2.49,-3.5 12.33,-9.4 15.29,-10.67 1.3,-2.72 11.19,-10.58 14.04,-13.43 4.48,-4.48 9.78,-12.1 14.34,-15.33 1.91,-4.15 8.93,-15.31 12.34,-17.46l-0.32 -0.64c1.28,-3.7 6.29,-15.1 9.37,-17.88 -0.35,-5.15 0.89,-5.91 2.59,-11.24 3.34,-10.49 -0.33,-8.36 25.21,-8.36 0,4.37 -1.21,22.27 1.3,24.73l21.96 0c3.25,-0.45 0.75,0.13 2.59,-1.47l0 -19.39 0.18 -3.87 0 -104.72c-3.13,-5.45 0.99,-1.28 -4.09,-3.06 -0.03,-0.01 -4.77,-0.34 -5.03,-0.34 -3.66,0.03 -7.38,0.19 -11.09,0.19l0.64 24.53 -28.44 -0.65c-3.62,-3.22 -2.12,-1.21 -3.89,-6.55 -0.81,-2.43 -1.54,-5.08 -2.25,-7.65 -3.21,-5.38 -6.77,-13.84 -10.16,-19.84 -3.29,-5.83 -10.16,-13.97 -12.14,-18.94 -2.72,-2.03 -4.15,-4.55 -6.14,-7.75l-11.96 -11.96c-3.04,-1.9 -2.31,-1.41 -4.85,-3.69 -3.69,-1.99 -7.1,-4.84 -10.76,-7.53 -3.81,-2.81 -7.63,-4.42 -10.53,-7.56l-20.4 -9.66c-3.37,-0.98 -5.98,-2.09 -9.35,-3.12 -4.55,-1.39 -5.51,-0.68 -8.11,-3.67 -6.14,0.67 -18.42,-2.67 -26.43,-3.34 -7.81,-0.65 -18.3,-1.12 -25.91,-0.07zm350.33 216.06l0 -20.68 107.85 -0.09c5.98,-5.87 47.83,-73.49 49.92,-83.11 -18.91,0 -151.48,1.63 -157.54,-0.73l-0.23 -17.03 -6.47 -0.05 -21.97 0 -16.81 0 -21.97 0 -16.82 0 -21.96 0 -16.82 0 -4.51 -0.05 0.65 121.74 126.68 0zm227.51 -20.68l7.76 0 -0.64 84.65 57.52 0c0.28,-0.29 0.84,-1 0.88,-0.85 0.74,2.76 0.51,-3.23 0.58,-3.65l0.02 -80.03 43.76 -0.13 0.3 85.03 57.29 -0.31 0.61 -84.71 13.9 -0.3 0.25 -82.9 -139.57 0c-5.07,14.02 -13.94,29.7 -20.25,42.26l-22.41 40.94z"/>
 </g>
</svg>
