<?xml version="1.0" encoding="UTF-8"?>
<!DOCTYPE svg PUBLIC "-//W3C//DTD SVG 1.1//EN" "http://www.w3.org/Graphics/SVG/1.1/DTD/svg11.dtd">
<!-- Creator: CorelDRAW 2019 (64-Bit) -->
<svg xmlns="http://www.w3.org/2000/svg" xml:space="preserve" width="100%" height="100%" version="1.1" style="shape-rendering:geometricPrecision; text-rendering:geometricPrecision; image-rendering:optimizeQuality; fill-rule:evenodd; clip-rule:evenodd"
viewBox="0 0 569.36 465.67"
 xmlns:xlink="http://www.w3.org/1999/xlink">
 <defs>
  <style type="text/css">
   <![CDATA[
    .fil0 {fill:#A6A182}
   ]]>
  </style>
 </defs>
 <g id="Layer_x0020_1">
  <metadata id="CorelCorpID_0Corel-Layer"/>
  <path class="fil0" d="M69.06 55.16c12.96,-6.05 292.46,-2.7 332.35,-2.7 112.25,0 115.06,-10.86 115.02,52.65l0 250.9c0.01,30.05 4.34,55.37 -28.38,57.07 -28.04,1.46 -148.29,-4.05 -163.2,2.56 -21.23,9.42 -18.64,44.85 7.4,48.61 19.16,2.77 60.62,0.37 82.13,0.37 61.48,0 104.52,9.69 137.08,-29.93 24.95,-30.35 16.53,-106.53 16.53,-152.22 0,-55.51 -0.03,-111.03 -0.03,-166.54 0,-28.61 3.13,-51.34 -9.62,-74.72 -9.09,-16.68 -23.62,-30.18 -45.37,-36.88 -23.45,-7.22 -353.07,-3.22 -416.54,-3.31 -28.82,-0.04 -46.78,0.64 -65.67,16.71 -13.91,11.82 -27.77,27.12 -29.35,54.89 -1.16,20.41 -4.71,63.11 7.14,74.96 8.02,8.02 21.03,11.1 32.26,3.56 29.6,-19.86 -8.27,-78.94 28.25,-95.98zm59.13 248.41l10.78 7.8c7.6,6.67 20.8,19.15 24.65,28.57 9.76,4.32 25.61,38.66 31.2,53.97 6.81,18.67 8.73,56.07 21.22,65.33 9.54,7.07 24.06,6.11 32.53,-0.87 9.41,-7.76 9.77,-19.27 7.17,-34.67 -3.05,-18.06 -17.58,-57.07 -17.88,-65.82 -8.39,-8.13 -19,-36.17 -38.97,-59.01 -2.76,-3.16 -4.85,-4.68 -7.57,-7.53 -1.25,-1.3 -2.73,-3.02 -3.71,-4.58 -2.64,-4.16 -0.64,0.33 -1.68,-3.81 -5.38,-2.54 -6.49,-3.38 -10.88,-7.78 -1.45,-1.45 -2.46,-2.54 -4.07,-4.64 -3.33,-4.34 -0.18,0 -2.88,-4.36 -7.07,-1.51 -8.28,-4.67 -15.22,-9.82 -16.13,-11.98 -30.25,-20.29 -49.32,-28.49 -22,-9.47 -58.31,-20.72 -84.98,-18.79 -11.63,7.4 -24.58,18.76 -14.12,37.72 10.45,18.96 40.36,9.28 88.01,33.13l35.72 23.65zm-26.2 41.61c-5.99,-2 -2.86,0.36 -8.1,-4.02 -3.57,-2.97 -3.13,-3.77 -4.28,-5.32 -6.49,-0.97 -35.48,-17.09 -51.26,-21.34 -21.28,-5.73 -42.84,7.64 -36.03,31.71 5.38,19.04 27.8,17.31 46.47,27.18 53.53,28.31 47.59,73.96 61.77,85.29 17.64,14.09 42.67,1.63 42.44,-20.44 -0.24,-23.14 -24.38,-66.97 -43.27,-84.79l-7 -7.21c-0.11,-0.56 -0.53,-0.68 -0.74,-1.06zm-100.64 97.35c3.36,30.92 53.61,27.69 51.34,-6.18 -2.15,-32.09 -55.19,-29.23 -51.34,6.18z"/>
 </g>
</svg>
