<?xml version="1.0" encoding="UTF-8"?>
<!DOCTYPE svg PUBLIC "-//W3C//DTD SVG 1.1//EN" "http://www.w3.org/Graphics/SVG/1.1/DTD/svg11.dtd">
<!-- Creator: CorelDRAW 2019 (64-Bit) -->
<svg xmlns="http://www.w3.org/2000/svg" xml:space="preserve" width="100%" height="100%" version="1.1" style="shape-rendering:geometricPrecision; text-rendering:geometricPrecision; image-rendering:optimizeQuality; fill-rule:evenodd; clip-rule:evenodd"
viewBox="0 0 464.34 465.68"
 xmlns:xlink="http://www.w3.org/1999/xlink">
 <defs>
  <style type="text/css">
   <![CDATA[
    .fil0 {fill:#A6A182}
   ]]>
  </style>
 </defs>
 <g id="Layer_x0020_1">
  <metadata id="CorelCorpID_0Corel-Layer"/>
  <path class="fil0" d="M129.13 99.91c8.61,2.87 23.83,23.64 54.4,10.36 22.45,-9.75 20.68,-20.54 28.31,-44.99l41.64 -1.02c7.3,24.54 5.46,36.06 28.33,46.02 32.44,14.11 49.24,-10.69 54.4,-10.4 7.25,3.47 25.77,22.08 29.24,29.26 0.36,5.13 -24.45,22.09 -10.38,54.45 9.93,22.83 20.8,20.44 44.99,28.31 2.37,9.9 2.35,31.68 0.04,41.62 -24.1,7.63 -35.54,6.39 -45.04,28.26 -14.08,32.43 10.61,49.04 10.38,54.45 -3.11,7.29 -22.04,25.82 -29.23,29.25 -5.29,0.34 -21.88,-24.52 -54.39,-10.32 -22.71,9.91 -20.71,20.51 -28.32,44.99l-41.63 0.95c-7.58,-25.48 -6.03,-36.42 -28.3,-46 -32.38,-13.95 -49.25,10.77 -54.44,10.38 -7.13,-3.59 -25.89,-22.03 -29.22,-29.25 -0.27,-5.03 24.42,-22.22 10.39,-54.46 -9.72,-22.34 -20.88,-20.6 -45.09,-28.31l-0.98 -41.48c11.01,-3.53 56.39,-7.8 49.6,-54.52 -3.39,-23.29 -19.7,-21.8 -11.34,-33.1 3.71,-5.02 21.61,-21.83 26.64,-24.45zm242.66 82.68c-22.81,-17.28 8.1,-41.1 7.02,-55.23 -0.77,-10.17 -33.52,-38.63 -35.87,-39.54 -20.36,-7.91 -25.57,23.49 -55.58,10.36 -26.24,-11.48 -11.43,-30.8 -28.03,-45.8 -10.92,-2.14 -35.02,-2.88 -46.06,-1.28 -16.75,2.41 -13.65,10.47 -17.44,25.85 -6.08,24.72 -32.55,30.22 -53.4,15.09 -18.43,-13.36 -24.89,-1.58 -50.12,24.08 -21.68,22.05 20.04,28.79 5.78,61.83 -14.05,32.57 -46.1,3.69 -47.48,41.67 -0.35,9.79 -1.01,34.19 3.07,41.08 7.78,13.12 46.16,1.78 47.3,38.94 0.93,30.21 -33.62,25.01 -0.96,57.07 4.4,4.32 16.88,18.68 22.39,20.85 19.42,7.68 34.41,-30.01 63.67,-5.51 24.29,20.33 -8.52,42.77 44.43,42.65 59.35,-0.14 23.62,-16.44 46.55,-40.53 25.02,-26.27 46.3,5.73 60.92,4.51 7.89,-0.65 42.03,-30.6 40.68,-44.19 -1.21,-12.22 -31.2,-36.5 -2.29,-59.47 26.64,-21.15 38.21,15.08 38.35,-48.84 0.04,-16.77 -0.02,-25.48 -15,-28.61 -10.47,-2.18 -25.88,-3.24 -27.93,-14.98zm-85.19 -4.91c20.36,15.47 29.65,53.17 18.01,83.86 -9.75,25.68 -32.58,44.47 -66.06,48.37 8.1,-19.53 70.31,-86.22 63.93,-94.92 -3.59,-4.89 -24.37,-2.29 -30.12,-2.58 2.4,-8.61 8.73,-29.23 14.24,-34.73zm-109.9 70.03l41.51 1.77c-2.53,15.16 -6.63,43.37 -13.58,55.04 -55.81,-16.29 -70.05,-107.54 -10.86,-138.23 -2.78,18.82 -20.3,68.26 -17.07,81.42zm79.01 -22.66l26.81 1.08 -31.96 43.9c-10.07,13.61 -21.2,30.15 -32.12,41.95 2.32,-15.93 17.21,-61.67 13.18,-73.98 -10.26,-4.32 -28.67,-2.13 -40.65,-1.91l21.96 -89.09 69.02 0.11c-3.39,20.21 -27.92,60.48 -26.24,77.94zm-53.11 92.97c-1.44,10.36 -6.63,21.81 -2.9,29.58 10.42,5.07 15.9,-8.24 21.67,-16.23 14.08,-19.52 44.7,6.03 84.32,-45.13 30.77,-39.73 18.02,-99.96 -14.54,-122.4 3.09,-10.4 8.55,-18.5 7.09,-29.05 -22.7,-2.5 -60.4,-1 -84.98,-0.99 -21.12,0.01 -4.13,7.79 -20.77,17.67 -83.78,49.71 -52.54,147.1 10.11,166.55zm9.41 -302.38c18.11,-11 98.15,7.11 112.56,18.59 -11.4,4.14 -14.69,-0.85 -12.45,13.54 11.26,2.69 30.98,-1.16 41.76,-4.33 1.37,-9.03 -2.22,-14.06 -5.8,-23.21 -4.79,-12.27 -2.98,-17.86 -15.85,-15.75 -3.31,8.62 0.23,9.36 1.69,18.16 -38.59,-15.22 -60.14,-22.72 -107.71,-22.63 -99.56,4.58 -159.64,57.42 -195.51,117.01 -20.85,34.64 -32.43,79.93 -30.49,126.55 1,23.96 5.49,45.14 12.85,66.35 6.59,19 14.76,46.16 30.44,44.07 3.83,-16.59 -26.75,-39.24 -29.93,-110.48 -3.53,-78.95 33.05,-148.64 93.41,-190.43 20.67,-14.31 71.24,-41.53 105.03,-37.44zm235 171.74c5.76,10.47 5.25,53.53 3.98,67.62 -8.85,98.55 -87.83,180.19 -185.03,194.69 -33.3,4.96 -101.7,0.15 -125.12,-18.55 11.26,-4.25 14.76,1.23 12.38,-13.47 -11.27,-2.76 -30.81,1.18 -41.72,4.24 -1.45,9.07 2.11,14.02 5.75,23.24 4.86,12.3 2.99,17.96 15.8,15.72 3.15,-7.65 -0.06,-9.88 -1.65,-18.15 43.87,17.71 81.27,28.25 135.36,20.22 43.88,-6.51 87.08,-26.96 112.36,-49.27 59.87,-52.83 98.46,-116.65 81,-232.74 -0.23,-0.32 -10.98,-34.38 -13.82,-41.01 -9.09,-21.21 -11.7,-30.3 -24.38,-28.44 -2.79,11.03 7.91,23.55 12.84,35.52 5.39,13.07 9.6,25.61 12.25,40.38z"/>
 </g>
</svg>
