<?xml version="1.0" encoding="UTF-8"?>
<!DOCTYPE svg PUBLIC "-//W3C//DTD SVG 1.1//EN" "http://www.w3.org/Graphics/SVG/1.1/DTD/svg11.dtd">
<!-- Creator: CorelDRAW 2019 (64-Bit) -->
<svg xmlns="http://www.w3.org/2000/svg" xml:space="preserve" width="100%" height="100%" version="1.1" style="shape-rendering:geometricPrecision; text-rendering:geometricPrecision; image-rendering:optimizeQuality; fill-rule:evenodd; clip-rule:evenodd"
viewBox="0 0 475.86 465.68"
 xmlns:xlink="http://www.w3.org/1999/xlink">
 <defs>
  <style type="text/css">
   <![CDATA[
    .fil0 {fill:#A6A182}
   ]]>
  </style>
 </defs>
 <g id="Layer_x0020_1">
  <metadata id="CorelCorpID_0Corel-Layer"/>
  <path class="fil0" d="M110.61 412.84l223.95 -0.25 -0.23 44.56 -223.58 0 -0.14 -44.31zm14.8 -8.22c0.98,-3.5 4.83,-9.09 6.73,-12.99 7.52,-15.49 9.18,-29.78 10.59,-47.17l160.05 -0.07c0.62,11.74 2.02,22.56 5.19,33.25 4.65,15.74 9.83,20.22 12.06,26.54 -15.14,0.22 -186.48,-1.23 -194.62,0.44zm217.34 -148.83c7.08,-0.4 40.05,-0.87 45.25,0.39 0.15,18.66 0.17,37.34 0.05,56 -0.09,12.29 3.47,9.58 -17.49,9.7 -9.19,0.05 -18.38,0.14 -27.74,0l-0.07 -66.09zm-336.91 -8.71c0.59,3.62 0.25,0.41 0.49,0.73 0.08,0.1 0.36,0.38 0.45,0.51l1.25 3.49c3.9,-0.55 2.48,-1.08 4.78,-0.34 2.4,0.77 -0.99,-0.91 0.85,0.54l88.48 0.35 0.03 72.96c-20.94,-2.02 -47.48,-10.41 -64.44,-21.78 -6.64,-4.45 -13.58,-12.43 -15.26,-12.98 -4.19,0.83 2.29,2.79 -5.05,1.58 -0.52,-0.09 -0.85,-0.48 -1.39,0.31l-0.96 2.05c0.45,2.23 10.12,11.12 11.94,12.61l14.24 9.98c2.75,0.88 4.92,2.05 7.51,3.31 2.44,1.18 5.09,1.81 6.68,3.5 2.7,-0.04 27.89,9.02 46.79,10.39 0.02,14.61 7.06,8.84 31.72,10.2 -0.99,24.69 -8.78,43.28 -20.09,59.58 -9.71,0.9 -11.57,-1.49 -11.66,12.4 -0.05,8.1 -0.1,16.19 -0.08,24.29 0.06,20.88 -2.43,24.87 11.27,24.78l205.02 0.01c27.18,-0.02 24.38,3.39 24.41,-24.08 0.01,-8.11 -0.04,-16.2 -0.07,-24.29 -0.01,-5.12 0.89,-7.47 -1.79,-10.4 -2.86,-3.13 -3.59,-2.3 -8.97,-2.65 -4.3,-3.98 -11.79,-19.4 -14.2,-26.34 -3.39,-9.75 -5.8,-22 -6.27,-33.23 6.66,-0.69 15.74,-0.13 22.66,-0.13 10.79,0.01 8.11,-9.55 8.82,-14.07 54.67,-0.92 53.41,6.65 53.49,-18.18l-0.02 -47.86c-0.04,-5.88 1.9,-16.33 -6.58,-17.02 -14.63,-1.18 -32.07,0.53 -47.17,-0.13 0.02,-5.46 1.7,-13.91 -4.56,-16.21 -2.35,-0.85 -16.31,-0.34 -19.94,-0.37l-2.97 4.13c-2.01,2.02 -6.47,2.45 -4.51,-4.19l-1.66 0.16c-0.92,7.27 1.98,7.04 8.92,7.23 4.76,0.13 13.95,-0.86 16.51,1.29l-0.25 96.79 -223.62 -0.23 -0.02 -74.31 -0.09 -22.02c1.27,-1.44 2.94,-1.49 4.68,-1.49 -1.44,-2.02 -1.25,-4.77 -0.83,-7.39 -12.48,0.48 -12,0.88 -12.16,13.36l-75.26 0c-7.62,0 -19.56,-1.65 -21.12,3.16zm301.6 -160.79l160.25 43.63 -9.18 34.37 -160.28 -43.65 9.21 -34.35zm-109.04 6.88l-5.47 -1.24c-0.04,-2.73 7.75,-30.91 9.19,-34.55l5.86 1.58c-0.68,5.17 -7.72,30.9 -9.58,34.21zm-7.09 57.56c0.54,-2.78 1.25,-5.29 1.96,-7.96 0.34,-1.28 0.52,-2.05 0.93,-3.39 0.63,-2.12 0.43,-2.13 1.59,-3.59 -0.26,-5.11 14.76,-56.13 17.04,-64.28l16.89 -61.67c0.64,-1.54 0.46,-0.99 0.83,-1.56 13.5,2.7 29.15,7.96 42.4,11.45 6.46,1.7 38.03,9.71 41.46,11.77l-39.84 145.58 -84.22 -22.93 0.96 -3.42zm-1.13 -26.68c-1.23,7.54 -4.26,16.28 -6.26,23.63 -3.57,13.12 -1.59,12.18 10.58,15.54 15.77,4.35 31.37,8.48 47.14,12.83 4.7,1.29 32.38,9.81 35.82,8.88 4.3,-1.16 4.47,-5.14 5.65,-9.52 1.73,-6.42 11.64,-44.13 13.16,-47 8.04,1.02 109.4,29.52 110.4,30.48 4.52,-0.09 26.4,6.61 32.43,8.29 5.46,1.53 10.65,2.84 16.28,4.46 7.92,2.29 9.12,-0.01 11.06,-7.15 3.07,-11.28 5.83,-21.51 8.97,-32.54 3.65,-12.78 -16.26,-9.86 -24.13,-14.74l-141.35 -38.45c0.16,-5.68 7.66,-29.48 9.68,-36.86 5.21,-19.04 5.59,-15.9 -17.94,-22.31 -10.07,-2.74 -69.56,-19.77 -74.69,-19.58 -2.67,4.54 -1.26,-4.59 -5.59,10.82 -1.28,4.54 -2.47,9.01 -3.71,13.46 -1.38,4.94 -5.72,24.25 -7.85,26.99 -16.11,-3.27 -12.45,-5.92 -19.97,20.93 -6.27,22.39 -9.89,25.6 6.76,28.42l-6.44 23.42zm-42.02 54.32l0.92 0.79c2.87,2.77 4.16,5.85 7.91,6.12 4.52,0.33 7.83,-3.27 6.96,-7.89 -0.53,-2.81 -10.92,-14.71 -13.24,-17.54 -2.65,-3.24 -25.91,-31.33 -27.2,-34.59 -11.88,-6.17 -13.87,3.86 -10.91,8.41l24.27 30.02c2.09,2.55 3.92,4.8 6.08,7.49 1.43,1.77 4.71,4.94 5.21,7.19zm-15.79 26.25c6.45,1.16 6.09,-1.44 9.13,-4.49l-0.56 -3.23c-1.93,-4.75 -3.46,-4.55 -9.1,-6.05 -3.99,-1.06 -7.32,-1.99 -11.21,-3.09 -6,-1.7 -18.39,-5.96 -24.37,-5.5 -1.72,1.79 -2.61,1.21 -3.68,4.12 -3.12,8.48 8.95,9.81 13.39,11.04 6.9,1.92 20.13,6.45 26.4,7.2zm74.87 26.91c0.05,-0.4 0.3,-0.41 0.45,-0.62 0.04,0.06 1.64,1.17 1.24,4.92 -0.32,3.07 0.27,1.82 -2.53,2.06l0.84 -6.36zm45.98 6.04c3.91,-1.6 -0.31,-3.48 4.13,-4.58 0.48,2.98 0.58,2.32 -0.47,4.93l-3.66 -0.35zm-142.69 1.87l34.3 -0.27 5.72 -0.05 20.51 -0.04 0.99 0 13.18 -0.04 0.41 0.03 15.26 -0.03 1.47 -0.01 8.26 -0.02 4.92 0.01 2.8 -0.03 44.28 0.1 7.73 -0.03 0.91 0.05 8.57 0.01 1.88 0 6.62 -0.02 4.57 0.02 4.37 -0.09 6.85 0.1 14.68 0.02 3.38 0.03 8.79 0.03 3.53 0c-2.56,-2.15 -11.75,-1.16 -16.51,-1.29 -6.94,-0.19 -9.84,0.04 -8.92,-7.23l-1.7 -0.07c-0.3,3.79 0.05,5.29 2.16,7.31l-4.2 -0.12 -0.31 -7.22 -1.51 -0.05c-0.4,3.46 -0.6,4.38 0.83,7.37l-5.38 -0.02 -0.15 -7.35 -1.16 0.05 -0.15 7.3 -2.46 0 -0.05 -7.29 -1.4 -0.07 0.1 7.36 -4.57 0 -0.02 -7.31 -1.51 -0.02 0.29 7.33 -4.48 0 -5 0 0.08 -7.33 -1.15 -0.05 0 7.38 -4.64 0 -3.58 0 -4.39 0 0.39 -7.35 -1.6 -0.05 0.04 7.4 -5.26 0c1.33,-2.05 0.95,-3.97 -0.27,-6.15l-2.72 -0.33c-3.45,5.61 -0.01,5.93 -4.05,6.01 -3.47,0.06 -2.62,-4.23 -2.58,-6.88l-1.6 0.06c-0.06,1.83 -0.24,3.44 0.22,5.23 0.93,3.64 1.4,2.04 1.51,2.06l-15.31 0c1.55,-1.41 0.95,-5 0.88,-7.35l-1.42 -0.07 -0.49 7.4 -3.23 0.32c1.93,-2.6 1.39,-3.53 1.12,-7.7l-1.05 0 -0.65 6.19c-2.06,1.34 -5.39,1.22 -8.4,1.2l-0.33 -7.38 -1.22 -0.05 -0.05 7.44 -2.23 0 -0.24 -7.4 -1.42 0.03 0.2 7.37 -4.78 0 -0.15 -7.34 -5.04 -0.07 0.02 7.41 -5.35 0 0 -7.4 -0.99 -0.02c-0.33,2.74 -0.76,5.1 0.44,7.42l-5 0 -4.12 0 -0.35 -7.4 -1.38 0.05 -0.06 7.35 -1.98 0 -0.31 -7.35 -1.66 0.05 0.36 7.3c-6.11,0.02 -8.66,-0.83 -7.6,-7.33l-1.65 -0.03c-0.29,3.74 -0.43,6.09 2.56,7.36l-4.08 0c-1.18,-2.99 -1.13,-4.02 -0.78,-7.38l-1.45 -0.03c-0.22,3.01 -0.43,5.34 1.05,7.41 -3.91,0 -8.19,0 -12.09,-0.2 -4.43,-0.22 -5.36,-2.5 -4.88,-7.13l-1.23 -0.06c-0.71,3.61 -0.2,5.32 1.59,7.37l-3.36 0.3c-0.75,-2.12 -1.09,-4.73 -1.08,-7.65l-1.28 0.06c-0.29,3.17 -0.28,5.11 1.17,7.3l-9.75 0 0.27 -7.3 -0.99 -0.06 -0.41 7.37 -4.37 0 -4.85 0c1.33,-1.62 1.3,-4.85 1.16,-7.31l-1.18 -0.01c-0.21,3.13 -0.05,5.02 -1.42,7.38l-4 -0.06c2.72,0.05 2.92,-3.87 2.91,-7.24l-1.32 -0.03c-0.56,5.09 -0.33,7.33 -6.43,6.55 -1.47,-2.1 -1.96,-3.09 -1.48,-6.55l-1.53 0.01c-0.46,4.26 -0.2,5.17 2.52,7.3 -5.67,0.22 -5.03,-1.44 -5.1,-7.3l-1.16 -0.07c-0.42,2.62 -0.61,5.37 0.83,7.39 -1.74,0 -3.41,0.05 -4.68,1.49zm177.78 -41.56c6.27,8.91 10.8,2.75 18.61,-2.92 2.88,-2.08 5.93,-4.16 8.78,-6.25l6.53 -4.84c0.6,-0.52 0.54,-0.51 0.99,-0.97 0.05,-0.05 0.24,-0.14 0.28,-0.32 0.03,-0.17 0.17,-0.21 0.26,-0.32 -0.17,-2.74 0.73,-4 0.73,-7.6 -4.39,-0.17 -1.03,1.61 -4.56,-3.33 -2.32,-3.24 2.66,2.32 -0.68,-0.96 -2.81,0.62 -14.36,9.79 -17.18,11.87 -8.5,6.28 -14.14,8.05 -13.76,15.64zm-273.24 96.62l0.96 -2.05c0.54,-0.79 0.87,-0.4 1.39,-0.31 7.34,1.21 0.86,-0.75 5.05,-1.58 -0.95,-2.69 -20.5,-29.83 -10.71,-37.2 0.13,-0.1 0.34,-0.23 0.46,-0.32l0.95 -0.68c0.09,-0.26 0.34,-0.22 0.49,-0.35 -1.84,-1.45 1.55,0.23 -0.85,-0.54 -2.3,-0.74 -0.88,-0.21 -4.78,0.34l-1.25 -3.49c-0.09,-0.13 -0.37,-0.41 -0.45,-0.51 -0.24,-0.32 0.1,2.89 -0.49,-0.73 -8.4,4.04 -6.18,16.82 -2.88,26.25 2.25,6.44 4.58,11.23 8.21,16.76l3.9 4.41zm304.18 -124.13c3.34,3.28 -1.64,-2.28 0.68,0.96 3.53,4.94 0.17,3.16 4.56,3.33 0,3.6 -0.9,4.86 -0.73,7.6 2.37,-0.93 1.14,-0.57 3.11,-1.69 1.65,-0.94 0.7,-0.6 2.12,-0.99 3.36,-4.8 13.4,-7.61 14.31,-13.29 0.76,-4.66 -2.41,-12.46 -14.45,-3.68 -2.43,1.77 -8.44,5.66 -9.6,7.76zm-72.17 60.23l-2.21 -0.08c0.02,1.11 0.25,3.7 0.22,4.56 -0.21,5.33 0.38,1.45 -1.57,3.5l0.05 -8.11 -9.19 0.07c0.07,2.35 0.67,5.94 -0.88,7.35l15.31 0c-0.11,-0.02 -0.58,1.58 -1.51,-2.06 -0.46,-1.79 -0.28,-3.4 -0.22,-5.23zm-75.46 -0.12l-6.44 0.11c-0.76,1.05 -4.32,4.93 -4.89,5.15 -1.43,0.54 -2.91,0.05 -3.39,-1.46 -0.55,-1.75 0.17,-2.09 0.82,-3.74l-2.02 0.02c-0.48,4.63 0.45,6.91 4.88,7.13 3.9,0.2 8.18,0.2 12.09,0.2 -1.48,-2.07 -1.27,-4.4 -1.05,-7.41zm91.9 0.01l-14.84 0.05c-0.04,2.65 -0.89,6.94 2.58,6.88 4.04,-0.08 0.6,-0.4 4.05,-6.01l2.72 0.33c1.22,2.18 1.6,4.1 0.27,6.15l5.26 0 -0.04 -7.4zm-34.21 0l-9.38 0.01 0.33 7.38c3.01,0.02 6.34,0.14 8.4,-1.2l0.65 -6.19zm-78.97 0.09l-8.31 0 -0.27 7.3 9.75 0c-1.45,-2.19 -1.46,-4.13 -1.17,-7.3zm33.92 0.01l-7.24 -0.03c-1.06,6.5 1.49,7.35 7.6,7.33l-0.36 -7.3zm-56.7 0.03l-7.91 0c-0.48,3.46 0.01,4.45 1.48,6.55 6.1,0.78 5.87,-1.46 6.43,-6.55zm77.44 -0.14l-5.33 0.01 0 7.4 5.35 0 -0.02 -7.41zm78.41 7.41l0 -7.23 -4.92 -0.1 -0.08 7.33 5 0zm-68.64 -7.37l-4.73 0.03 0.15 7.34 4.78 0 -0.2 -7.37zm57.93 7.37l4.64 0 0 -7.38 -4.64 0.1 0 7.28zm30.82 -7.35l-4.7 0 0.15 7.35 5.38 0.02c-1.43,-2.99 -1.23,-3.91 -0.83,-7.37zm-167.26 7.35l4.37 0 0.41 -7.37 -4.78 0.13 0 7.24zm157.34 -7.36l-4.49 0.05 0.02 7.31 4.57 0 -0.1 -7.36zm-99.48 7.36l5 0c-1.2,-2.32 -0.77,-4.68 -0.44,-7.42l-4.56 0.15 0 7.27zm89.29 0l4.48 0 -0.29 -7.33 -4.19 0.1 0 7.23zm-89.29 0l0 -7.27 -4.47 -0.13 0.35 7.4 4.12 0zm75 0l0 -7.25 -4 -0.1 -0.39 7.35 4.39 0zm-132.86 0l0 -7.24 -3.69 -0.07c0.14,2.46 0.17,5.69 -1.16,7.31l4.85 0zm132.86 0l3.58 0 0 -7.28 -3.58 0.03 0 7.25zm-103.94 -7.3l-2.17 -0.07c-2.62,3.97 -2.84,3.52 -4.36,3.51 0.02,-2.34 0.18,-1.51 0.92,-3.49l-1.85 0c-0.65,1.65 -1.37,1.99 -0.82,3.74 0.48,1.51 1.96,2 3.39,1.46 0.57,-0.22 4.13,-4.1 4.89,-5.15zm-10.71 -0.09l-2.85 0.02c-0.01,2.92 0.33,5.53 1.08,7.65l3.36 -0.3c-1.79,-2.05 -2.3,-3.76 -1.59,-7.37zm163.75 0.09l-1.85 -0.01c-0.67,1 -0.93,1.58 -2.08,2.6 -2.98,2.65 -2.12,0.72 -2.47,0.59 -0.27,-2.03 -0.28,-1 1.24,-3.11l-2.32 -0.13c-1.96,6.64 2.5,6.21 4.51,4.19l2.97 -4.13zm-200.1 0.04l-2.58 0c0.07,5.86 -0.57,7.52 5.1,7.3 -2.72,-2.13 -2.98,-3.04 -2.52,-7.3zm57.25 -0.1l-2.3 -0.02c-0.35,3.36 -0.4,4.39 0.78,7.38l4.08 0c-2.99,-1.27 -2.85,-3.62 -2.56,-7.36zm122.29 0.06l-2.66 0.01 0.05 7.29 2.46 0 0.15 -7.3zm9.72 0.03l-2.35 -0.03 0.31 7.22 4.2 0.12c-2.11,-2.02 -2.46,-3.52 -2.16,-7.31zm-175.99 -0.05l-2.51 0.08c0.01,3.37 -0.19,7.29 -2.91,7.24l4 0.06c1.37,-2.36 1.21,-4.25 1.42,-7.38zm87.32 -0.12l-2.52 0.04 0.24 7.4 2.23 0 0.05 -7.44zm14.25 0.02l-2.6 0.02c0.27,4.17 0.81,5.1 -1.12,7.7l3.23 -0.32 0.49 -7.4zm-44.69 0.07l-2.35 0 0.31 7.35 1.98 0 0.06 -7.35zm18.13 7.35c2.8,-0.24 2.21,1.01 2.53,-2.06 0.4,-3.75 -1.2,-4.86 -1.24,-4.92 -0.15,0.21 -0.4,0.22 -0.45,0.62l-0.84 6.36zm46.82 -0.32l3.66 0.35c1.05,-2.61 0.95,-1.95 0.47,-4.93 -4.44,1.1 -0.22,2.98 -4.13,4.58zm-8.35 -7.05l-1.3 -0.05 -0.05 8.11c1.95,-2.05 1.36,1.83 1.57,-3.5 0.03,-0.86 -0.2,-3.45 -0.22,-4.56z"/>
 </g>
</svg>
