<?xml version="1.0" encoding="UTF-8"?>
<!DOCTYPE svg PUBLIC "-//W3C//DTD SVG 1.1//EN" "http://www.w3.org/Graphics/SVG/1.1/DTD/svg11.dtd">
<!-- Creator: CorelDRAW 2019 (64-Bit) -->
<svg xmlns="http://www.w3.org/2000/svg" xml:space="preserve" width="100%" height="100%" version="1.1" style="shape-rendering:geometricPrecision; text-rendering:geometricPrecision; image-rendering:optimizeQuality; fill-rule:evenodd; clip-rule:evenodd"
viewBox="0 0 467.51 465.67"
 xmlns:xlink="http://www.w3.org/1999/xlink">
 <defs>
  <style type="text/css">
   <![CDATA[
    .fil0 {fill:#A6A182}
   ]]>
  </style>
 </defs>
 <g id="Layer_x0020_1">
  <metadata id="CorelCorpID_0Corel-Layer"/>
  <path class="fil0" d="M422.92 296.41l-15.63 -14.08 23.44 -25.86c6.69,5.49 12.7,9.64 16.12,17.07l-23.93 22.87zm-41.45 -87.82c8.99,9.44 30.75,24.72 36.68,37.18l-22.1 23.8 -38.61 -35.2c3.65,-9.63 17.05,-18.68 24.03,-25.78zm-214.05 -63.69c-9.17,-67.01 39.11,-119.67 95.93,-127.56 66.25,-9.18 119.78,39.39 127.35,96.51 8.82,66.67 -39.49,119.08 -96.71,126.85 -66.41,9.03 -118.88,-39.64 -126.57,-95.8zm223.37 49.32c33.1,-73.47 14.11,-129.32 -33.89,-167.72 -21.54,-17.24 -55.56,-29.64 -91.51,-25.8 -47.08,5.02 -83.44,34.12 -101.88,71.43 -29.39,59.46 -8.88,127.22 42.97,163.21 46.99,32.61 89.47,25.45 135.21,6.9 12.79,12.88 26.69,24.42 40.5,37.03 45.18,41.25 33.18,50.9 64.95,15.9 21.44,-23.61 31.02,-18.27 3.13,-43.62l-39.85 -38.63c-6.33,-7.1 -13.17,-11.45 -19.63,-18.7zm-271.32 -137.24l-0.88 127.04c-14.76,5.25 -37.94,0.12 -54.73,2.86 -2.02,0.72 -3.93,-1.87 -4.27,11.57 -0.15,5.76 0.17,12.3 0.18,18.18 0.05,20.4 1.6,88.78 -1.36,99.7 -9.43,0.02 -18.88,0.07 -28.31,-0.01 -19.43,-0.16 -20.86,-2.4 -26.44,4.25 -6.3,7.99 -2.57,116.22 -2.54,135.91 3.22,9.94 1.35,3.98 5.57,5.5 12.03,-2.66 289.85,-1.73 335.09,-0.93 23.49,0.42 17.08,0.88 17.1,-3.81 13.98,-0.47 2.11,1.43 2.81,-1.3 2.88,-11.22 1.35,0.83 -2.26,-6.08l-3.4 -6.43c-6.04,-13.08 -3.71,-93.9 -2.98,-109.34l-0.02 5.84 0.34 96.51c-1.43,16.65 1.03,7.15 -4.94,11.95l-96.61 0.06 -1 -115.75c1.86,-2.73 0.51,-3.84 14.55,-4.14 3.1,-0.06 5.96,0.37 9.22,0.02l8.81 -2.1c-25.63,0 -33.99,-3.86 -38.1,7.27 -2.2,-1.5 -2.23,-1.03 -2.59,-1.25l-3.29 -2.22c-0.78,-0.44 -3.23,-3.04 -11.79,-3.93 -8.07,-0.83 -23.61,0.7 -31.63,1.25 18.84,-8.88 12.03,-5.62 47.06,-5.62 9.7,0 19.45,-0.09 29.15,0.04 6.37,0.09 14.99,1.63 20.06,-1.45 9.27,-5.61 7.07,0.14 1.25,-4.46 -21.89,1.02 -83.44,-3.53 -98.91,1.96 -7.11,3.43 -7.09,-0.27 -0.88,5.41 -15.28,4.58 -3.05,-1.11 -0.36,0.98l3.36 2.02c-10.71,0 -21.42,0.05 -32.12,0l-22.51 0.27c-9.17,3.01 -2.72,-2.26 -7.69,5.23l100.77 0.05c3.79,9.5 3.78,106.92 0.14,116.74l-100.62 -0.21c-5.81,-6.59 -3.77,-17.91 -3.71,-27.94l-8.99 -82.94 0.01 82.94c0.06,11.23 1.88,21.23 -3.6,28.49l-101.17 -0.75c0.21,-22.95 2.72,-98.89 -1.37,-115.09 2.47,-4.89 -3.47,-5.07 23.2,-4.59l80.69 0.05c-9.29,-3.87 -38.56,-2.25 -49.29,-2.25 4.23,-0.7 4.16,-0.89 0,-8.96 14.47,7.39 31.43,4.46 53.79,4.46 10.05,0 42.4,-4.05 47.08,2.24 11.55,-6.43 1.82,2.55 6.7,-7.35l-102.16 0.25 0.25 -115.2c0.11,-0.4 0.51,-1.05 0.76,-1.57l69.22 -0.27c7.96,-1.95 16.73,-15.71 -11.64,-15.65l0.17 -116c5.46,0.13 15.24,1.59 19.12,-2.09 15.01,-14.22 -27.84,-19.69 -34.29,-9.36zm174.05 259.13c5.82,4.6 8.02,-1.15 -1.25,4.46 -5.07,3.08 -13.69,1.54 -20.06,1.45 -9.7,-0.13 -19.45,-0.04 -29.15,-0.04 -35.03,0 -28.22,-3.26 -47.06,5.62 8.02,-0.55 23.56,-2.08 31.63,-1.25 8.56,0.89 11.01,3.49 11.79,3.93l3.29 2.22c0.36,0.22 0.39,-0.25 2.59,1.25 4.11,-11.13 12.47,-7.27 38.1,-7.27l-8.81 2.1c-3.26,0.35 -6.12,-0.08 -9.22,-0.02 -14.04,0.3 -12.69,1.41 -14.55,4.14 20.54,-0.43 86.47,-2.7 102.23,1.39 -0.73,15.44 -3.06,96.26 2.98,109.34l3.4 6.43c3.61,6.91 5.14,-5.14 2.26,6.08 -0.7,2.73 11.17,0.83 -2.81,1.3 -0.02,4.69 6.39,4.23 -17.1,3.81 -45.24,-0.8 -323.06,-1.73 -335.09,0.93 6.42,6.35 32.57,2.57 43.59,2.57 32.83,0 302.95,2.51 313.93,-1.57 0.32,-0.11 1.16,-0.18 1.38,-0.8 7.33,-20.9 4.51,-138.53 0.97,-142.43 -6.2,-4.96 -3.78,-3.3 -13.51,-3.64 -4.01,-0.13 -9.4,0.16 -13.6,0.19 -9.32,0.06 -18.69,0.2 -28,-0.16 -3,-15.56 1.34,-34.39 -3.01,-48.79l-12.15 0.55c-4.24,13.82 -0.39,32.54 -2.77,48.21zm-57.94 -246.86l-0.07 114.61c-12.85,1.12 -22.82,-1.51 -32.79,3.11 -2.06,17.75 7.47,13.53 22.41,13.54l69.16 0.23 0.77 26.12 14.1 0.36c11.12,-57.41 -14.32,-42.59 -56.41,-42.97 -3.91,-21.75 -1.19,-83.39 -0.88,-108.9 0.32,-26.41 -4.39,-25.92 -33.72,-23.11 -8.23,0.79 -17.21,5.98 -8.95,13.92 5.22,5 18.83,2.11 26.38,3.09zm-56.89 170.78l-0.65 76.84c-4.88,9.9 4.85,0.92 -6.7,7.35 -4.68,-6.29 -37.03,-2.24 -47.08,-2.24 -22.36,0 -39.32,2.93 -53.79,-4.46 4.16,8.07 4.23,8.26 0,8.96 10.73,0 40,-1.62 49.29,2.25l-80.69 -0.05c-26.67,-0.48 -20.73,-0.3 -23.2,4.59l102.52 -0.8 0.02 116.64c5.48,-7.26 3.66,-17.26 3.6,-28.49l-0.01 -82.94 8.99 82.94c-0.06,10.03 -2.1,21.35 3.71,27.94l0.35 -114.73 -0.64 -1.85c4.97,-7.49 -1.48,-2.22 7.69,-5.23l22.51 -0.27c10.7,0.05 21.41,0 32.12,0l-3.36 -2.02c-2.69,-2.09 -14.92,3.6 0.36,-0.98 -6.21,-5.68 -6.23,-1.98 0.88,-5.41 -3.38,-15.61 -1.51,-35.8 -1.47,-52.13 0.01,-6.13 1.12,-20.81 -1.02,-25.69 -2.59,-5.92 -8.78,-8.69 -13.43,-0.22zm-67.84 56.83c10.02,0.05 21.25,2.41 20.46,-8.24 -0.93,-12.53 -46.94,-12.89 -44.74,1.99 1.25,8.43 14.75,6.21 24.28,6.25zm109.64 0.07c8.83,-0.01 18.86,1.21 27.16,-2.22l0.36 -11.79c-10.3,-4.06 -33.34,-3.96 -43.54,0.08 -1.46,13.01 4.16,13.94 16.02,13.93zm-170.21 115.54c-15.03,0.02 -22.68,-3.23 -22.07,12.66 8.42,5.83 35.91,5.79 44.07,-0.09 0.34,-15.8 -7.02,-12.58 -22,-12.57zm109.84 16.34c11.65,0 27.94,3.04 29.67,-6.22 2.57,-13.78 -15.11,-10 -31.87,-10 -16.07,0 -19.64,16.22 2.2,16.22zm114.33 0.07c14.04,-0.1 25.36,2.98 33.11,-5.53 -1.85,-15.44 -17.57,-10.6 -33.11,-10.62l-11.55 2.12 -0.38 11.2 11.93 2.83z"/>
 </g>
</svg>
