<?xml version="1.0" encoding="UTF-8"?>
<!DOCTYPE svg PUBLIC "-//W3C//DTD SVG 1.1//EN" "http://www.w3.org/Graphics/SVG/1.1/DTD/svg11.dtd">
<!-- Creator: CorelDRAW 2019 (64-Bit) -->
<svg xmlns="http://www.w3.org/2000/svg" xml:space="preserve" width="100%" height="100%" version="1.1" style="shape-rendering:geometricPrecision; text-rendering:geometricPrecision; image-rendering:optimizeQuality; fill-rule:evenodd; clip-rule:evenodd"
viewBox="0 0 465.68 465.68"
 xmlns:xlink="http://www.w3.org/1999/xlink">
 <defs>
  <style type="text/css">
   <![CDATA[
    .fil0 {fill:#A6A182}
   ]]>
  </style>
 </defs>
 <g id="Layer_x0020_1">
  <metadata id="CorelCorpID_0Corel-Layer"/>
  <g id="_2149874937248">
   <path class="fil0" d="M413.7 432.41l-359.64 0c-8.45,0 -19.75,-2.23 -19.75,-10.39l0 -262.98c0,-4.61 9.28,-8.32 14.55,-8.32l118.5 0c31.53,0 -2.69,48.48 30.24,51.87 10.37,1.08 181.57,0.11 204.67,0.11 6.98,0 30.14,-3.1 30.14,11.43l0 206.85c0,8.02 -10.49,11.43 -18.71,11.43zm-347.17 -348.21l282.73 0 0 84.19 -134.09 0c0,-16.11 0.28,-27.41 -16.46,-40.71 -8.09,-6.44 -20.21,-11.26 -34.47,-11.26l-97.71 0 0 -32.22zm50.93 -50.93l281.69 0 0 135.12 -15.59 0 0 -93.55c0,-13.41 -9.85,-24.94 -22.87,-24.94l-243.23 0 0 -16.63zm-34.3 -10.4l0 27.03c-18.68,0 -49.84,-4.61 -49.95,22.81 -0.06,15.59 0.06,31.23 0.06,46.83 -4.06,0.34 -9.39,3.48 -12.45,5.23 -11.15,6.37 -20.82,19.78 -20.82,35.31l0 264.02c0,22.63 23.8,41.58 46.78,41.58l372.12 0c12.98,0 24.14,-5.9 31.8,-11.86 6.73,-5.23 14.98,-17.19 14.98,-28.68l0 -215.17c0,-17.97 -17.52,-35.03 -32.23,-38.46 0,-32.22 0,-64.44 0,-96.67 0,-18.37 3.46,-55.28 -5.47,-66.25 -3.54,-4.35 -8.89,-8.59 -16.36,-8.59l-306.63 0c-11.48,0 -21.83,11.31 -21.83,22.87z"/>
   <path class="fil0" d="M296.25 350.3c18.13,0 14.55,4.14 14.55,-21.83 0,-6.89 -0.31,-11.4 -0.89,-16.79l1.05 -11.44c0.67,1.96 1.26,3.96 2.04,6.28l8.93 24.33c1.58,4.02 2.82,8.75 4.46,12.17l9.35 0c0.7,-3.01 2.94,-8.53 4.03,-11.56l13.65 -36.25 -1.2 16.47c-1.21,11.04 -0.88,23.78 -0.88,35.5 0,4.34 3.6,3.12 12.47,3.12 2.4,0 3.12,-0.73 3.12,-3.12l0 -71.72c0,-5.02 -9.15,-3.12 -18.71,-3.12 -0.42,4.97 -10.3,30.36 -12.61,37.29 -0.65,1.96 -1.36,3.93 -2.04,6.27 -1.21,4.11 -0.01,4.12 -3.02,6.33 -0.43,-5.16 -5.97,-20.08 -8.01,-25.25 -1.68,-4.25 -2.89,-8.21 -4.47,-12.17 -1.56,-3.93 -3.13,-8.07 -4.15,-12.47l-17.67 0 0 77.96z"/>
   <path class="fil0" d="M120.58 337.82l-5.2 0 0 -21.82c14.02,0 25.99,-2.63 25.99,11.43 0,9.15 -11.42,10.39 -20.79,10.39zm5.2 -34.3l-10.4 0 0 -18.71c17.18,0 21.83,-1.29 21.83,11.44 0,4.42 -6.43,7.27 -11.43,7.27zm-25.99 46.78c13.53,0 34.97,1.36 45.71,-4.19 16.9,-8.72 14.78,-33.47 -2.05,-37.39l6.44 -6.03c4.11,-5.58 10.2,-30.35 -24.11,-30.35l-25.99 0 0 77.96z"/>
   <path class="fil0" d="M205.81 316c0,-11.93 -0.11,-31.19 18.71,-31.19 23.04,0 24.17,48.62 1.51,52.48 -11.62,1.98 -20.22,-10.56 -20.22,-21.29zm-16.63 -7.28c0,59.07 69.65,54.87 69.65,2.08 0,-20.82 -11.73,-39.5 -32.23,-39.5 -13.44,0 -18.35,0.44 -28.87,11.66 -4.79,5.11 -8.55,16.07 -8.55,25.76z"/>
  </g>
 </g>
</svg>
