<?xml version="1.0" encoding="UTF-8"?>
<!DOCTYPE svg PUBLIC "-//W3C//DTD SVG 1.1//EN" "http://www.w3.org/Graphics/SVG/1.1/DTD/svg11.dtd">
<!-- Creator: CorelDRAW 2019 (64-Bit) -->
<svg xmlns="http://www.w3.org/2000/svg" xml:space="preserve" width="100%" height="100%" version="1.1" style="shape-rendering:geometricPrecision; text-rendering:geometricPrecision; image-rendering:optimizeQuality; fill-rule:evenodd; clip-rule:evenodd"
viewBox="0 0 464.76 465.67"
 xmlns:xlink="http://www.w3.org/1999/xlink">
 <defs>
  <style type="text/css">
   <![CDATA[
    .fil0 {fill:#A6A182}
   ]]>
  </style>
 </defs>
 <g id="Layer_x0020_1">
  <metadata id="CorelCorpID_0Corel-Layer"/>
  <path class="fil0" d="M435.18 449.83c-0.77,1.35 0.45,0.58 -2.18,0.88l-55.27 -0.22c-1.3,-3.81 -0.91,-10.77 -0.32,-14.91 6.13,-0.74 54.67,-0.91 58.34,0.39 0.07,4.53 0.91,9.54 -0.57,13.86zm-231.8 -13.95l57.64 -0.04 0.34 14.46 -58.08 0.06 0.1 -14.48zm-174.02 14.03c-0.08,-0.15 -0.23,-0.55 -0.25,-0.46l-0.25 -13.5c3.81,-1.31 52.2,-1.1 58.28,-0.31 0.93,4.34 0.85,11.14 -0.25,15.42l-55.29 -0.36c-4.31,-0.49 -0.81,0.16 -2.24,-0.79zm-14.92 -42.77l435.62 -0.33 0.24 14.12c-11.37,1.45 -200.9,0.36 -217.99,0.36 -21.82,0 -213.83,0.87 -217.92,-0.66l0.05 -13.49zm384.96 -261.46l14.47 -0.43 -0.01 246.96 -14.48 -0.1 0.02 -246.43zm-319.55 232.35l304.68 -0.29 0.42 14.46 -305.19 0 0.09 -14.17zm-29.12 -232.74l14.52 0.09 -0.01 246.97 -13.97 -0.14c-1.67,-7.55 -0.53,-106.9 -0.53,-123.49 0,-41.15 -0.01,-82.29 -0.01,-123.43zm246.89 155.08l87.18 55.13 0.05 8.02c-5.9,-0.86 -12.05,-0.12 -18.02,-0.26 -5.74,-0.14 -8.72,-3.5 -12.75,-6l-45.12 -28.99c-4.59,-3.09 -18.86,-12.74 -22.84,-14.21 1.37,-2.81 7.01,-7.47 11.5,-13.69zm-111.71 25.33c11.34,-5.56 4.05,-0.39 23.7,5.19 36.83,10.45 59.59,-7.22 63.29,-7.55 1.64,-0.15 40.54,25.18 47.04,29.39 4.07,2.64 13.23,7.74 15.53,10.28l-206.27 0.19c1.62,-2 10.39,-7.29 13.5,-9.22 2.6,-1.63 4.57,-3.01 6.83,-4.44 3.12,-1.98 4.57,-3.35 7.34,-3.84l-0.31 -1.13c0.95,-4.89 1.21,-5.43 1.21,-11.79 -5.04,-0.21 -0.97,0.89 -3.96,-2.6 -2.71,0.35 -10.85,6.34 -14.32,8.49 -2.43,1.51 -4.37,2.74 -6.9,4.41 -1.43,0.94 -2.15,1.46 -3.38,2.25 -2.22,1.43 -2.05,1.55 -4.4,1.93 -1.55,2.6 -14.46,10.14 -17.77,12.17 -5.3,3.24 -3.91,3.84 -11.71,3.77 -5.19,-0.04 -10.39,-0.05 -15.58,0.01l0.04 -7.77c7.03,-2.54 33.62,-22.67 41.31,-25.47 1.45,-2.22 27.8,-18.06 34.07,-22.35 2.8,-1.91 9.13,-6.25 11.82,-7.26l5.69 7.05c1.25,1.26 2.12,1.96 3.31,3.16 2.06,2.07 2.49,1.65 1.98,4.03 -0.55,2.56 -0.86,5.38 -0.86,8.51 4.32,0 6.74,-0.89 8.8,2.59zm182.58 -171.43l-0.4 6.87c1.58,0 5.55,-0.21 6.86,0.02 5.23,0.93 -0.2,-0.15 4.1,2.47 2.2,-0.36 3.65,-1.59 5.44,-2.59l0.35 20.95c-8.19,3.82 -71.88,45.98 -72.21,46.5 0.13,2.94 0.07,2.03 -0.55,4.14 1.98,0.97 3.48,1.16 4.67,2.44 1.11,1.2 1.43,3.39 2.71,5.14 2.47,-0.33 -0.24,0.13 1.63,-0.43 2.14,-0.63 -0.61,-0.15 2.03,-0.64 2.53,-2.9 10.93,-7.9 13.95,-9.08 0.91,-1.31 44.07,-29.14 47.71,-30.66l0.04 138.74c-4.39,-1.66 -33.24,-20.91 -39.78,-25.03 -6.13,-3.85 -36.8,-23.04 -39.7,-25.86 3.03,-10.41 5,-14.41 6.69,-26.6 0.1,-2.97 0.23,-5.93 0.12,-8.9 -0.15,-3.93 -0.9,-4.6 0.85,-6.95 0.09,-6.82 -4.51,-7.4 -5.02,-2.79 -0.49,4.48 0.51,7.82 -0.67,12.91l-4.7 0.08c-2.02,-5.13 0.2,-10.69 -1.64,-15.33l-3.38 -0.32 -0.54 2.78 0.56 10.47c0.3,58.34 -65.85,87.11 -107.62,51.2 -10.57,-9.08 -24.42,-30.2 -21.95,-42.14 -0.12,-0.2 -0.28,-0.72 -0.31,-0.61l-0.72 -4.64c-3.88,-1.76 -4.82,-0.15 -8.78,-1.25 -3.41,-0.94 -3.46,-2.58 -5.77,-4.61 -0.41,17.55 2.54,22.23 6.83,36.7 -3.5,3.4 -32.49,21.25 -39.21,25.58 -7.53,4.85 -34.69,22.7 -40.3,25.34l0.01 -138.76c6.41,2.55 40.41,26.73 45.21,27.92l1.5 -3.53c3.45,-0.73 0.38,-0.89 4.17,0.13 1.36,2.6 0.93,4.52 1.07,7.92l1.19 1.12c2.3,1.36 2.23,1.75 4.67,2.2 3.24,-0.61 10.45,-7.48 10.08,2.47l-3.65 2.09 -0.08 1.03c2.3,0.27 5.16,2.67 7.3,3.92 0.01,-7.48 3.49,-13.31 12.42,-11.98 3.23,0.49 3.45,1.87 6.13,3.14 0.65,-2.72 1.33,-4.49 2.41,-7.07 1.25,-2.97 1.73,-4.89 4.06,-6.66 0.26,-2.66 -0.71,0.15 0.94,-2.86 0.44,-0.81 1.51,-2.08 2.01,-2.78 1.7,-2.36 2.09,-3.09 4.28,-5.41 24.35,-25.82 60.18,-29.54 87.56,-9.31 1.16,0.86 1.76,1.42 2.7,2.18l2.71 1.63c2.07,-1.11 0.71,-0.24 2.38,-0.97l2.19 -0.98c2.45,-0.84 2.88,-0.57 5.67,-0.57 0.01,-0.94 -0.11,-1.98 0.05,-2.88 0.08,-0.46 -1.26,1.36 0.44,-1.28l0.96 -0.77c-2.77,-5.67 -16.62,-14.22 -24.85,-17.59 -10.92,-4.47 -22.62,-6.82 -35.86,-6.08 -23.07,1.29 -41.1,11.96 -55.76,27.6l-12.17 -7.8c-0.19,0.13 -0.49,0.2 -0.64,0.23 -0.15,0.03 -0.46,0.16 -0.63,0.19l-2.34 -0.2c-6.19,-1.67 -4.04,0.01 -3.79,6.16 -0.29,-0.01 -2.19,-0.08 -2.55,-0.05 -2.35,0.19 -0.34,-1.97 -1.65,3.23 1.26,1.8 11.28,7.38 15.14,10.4l-7.26 15.79 -75.92 -48.03 -0.04 -20.93c5.79,3.36 38.04,24.85 41.01,25.26 2.89,-0.95 1.05,-0.87 3.2,-1.91 0.18,-0.09 0.37,-0.21 0.56,-0.28 1.65,-0.63 2.32,-0.4 4.15,-0.4 0,-7.19 0.76,-4.74 1.21,-7.77 -0.53,-1.41 -9.31,-6.49 -10.9,-7.5l-29.47 -18.88c-0.9,-0.58 -2.15,-1.28 -3,-1.84 -0.34,-0.24 -1.13,-0.8 -1.46,-1.06 -0.76,-0.61 -0.88,-0.76 -1.42,-1.35l297.21 0.06c-3.77,3.66 -11.06,6.66 -12.44,8.91zm-267.89 -62.61l1.46 -2.3c1.55,-2.13 3.74,-3.89 4.25,-5.81l-0.12 -11.87c-2.6,-0.65 -3.24,-0.91 -5.46,-2.52l-43.65 50.1c-11.57,13.18 -6.41,11.48 -20.94,11.5 0.07,12.8 -1,255.86 0.58,261.02l-36.6 0.47 -0.12 43.15 14.44 0.12 0.33 28.99c12.26,0.17 80.92,1.29 86.77,-0.53l0.09 -28.15 86.75 0.02 0.3 29.02 87.2 0.05 0.04 -29.04 86.72 -0.04 0.45 28.86 86.81 0.2 0.07 -29.08 14.71 -0.4 0.08 -43.23 -36.34 -0.04 0.06 -261.41c-12.16,0.01 -10.04,2.34 -23.64,-14.39 -1.94,-2.4 -4.31,-4.96 -5.89,-6.96l-71.55 -82.92c-3.17,2.31 -7.55,6.78 -10.74,8.29 1.44,3.99 37.37,44.6 40.27,48.11 7.32,8.86 38.07,43.47 40.54,47.83l-330.36 0.02c2.57,-3.81 5.04,-6.32 7.78,-9.75l21.25 -24.69c1.32,-1.41 2.75,-3.95 4.46,-4.62zm88.12 -77.11c7.94,0.05 30.25,-1.1 36.32,0.61l0.03 13.97 14.32 0.01 0.22 -14.01c5.37,-1.43 29.21,-0.78 36.17,-0.48l0.04 86.99 -86.8 0.01 -0.3 -87.1zm-14.58 98.64l0.12 3.08 8.09 0 108 0.01 0.14 -3.9 -0.03 -112.38 -116.17 0 -0.15 113.19zm120 88.75c0.46,4.36 -0.86,1.81 -4.21,2.31 0.28,3.08 0.88,5.43 2.89,7.15 2.74,2.35 4.63,0.79 8.74,2 3.2,-0.64 24.74,-15.36 30.05,-18.65 5.18,-3.22 10.4,-6.49 15.25,-9.72 2.9,-1.93 13.31,-7.92 14.39,-9.79 1.37,-5.01 -1.55,-0.41 -0.21,-14.49l-1.58 -0.53c-2.65,0.45 -28.17,17.31 -33.09,20.45 -4.34,2.76 -31.08,19.56 -32.23,21.27zm-91.94 61.69c-1.87,5.47 -1.45,-2.37 -1.72,4.68 3.31,0.2 2.94,1.08 3.22,5.65l6.45 0c0.03,3.12 0.22,1.98 1.62,4.1 0.11,0.15 0.27,0.32 0.37,0.48 0.97,1.61 1.17,3.03 1.23,5.09l4.83 0c0.07,7.25 1.32,-0.98 1.62,6.44 5.27,0.32 11.58,2.23 16.52,-0.4 0.08,0.25 0.12,0.63 0.13,0.77l-0.04 1.06c0,-0.07 -0.11,-0.14 -0.09,-0.27l2.05 0.35c3.73,-0.97 6.6,-5.29 9.45,-8.14 2.88,-2.87 25.07,-24.07 25.95,-26.82 -3.79,-1.5 -0.5,-0.18 -2.4,-2.69 -3.66,0.69 -0.57,0.65 -3.63,1.3 -1.31,0.27 -2.74,0.27 -4.08,0.08 -2.99,-0.43 -3.31,-1.41 -5.42,-2.17l-1.22 -0.25c-0.6,2.26 -4.35,5.32 -6.1,7.05l-19.34 19.35c-11.62,11.42 -19.64,-11.4 -29.4,-15.66zm-18.72 -17.52l-0.49 2.25c4.92,1.05 6.76,1 4.75,6.45 -2.99,1.14 -2.31,0.68 -5.69,0.3l0.59 3.08c-0.27,6.35 6.67,12.21 9.57,15.17 4.31,4.41 8.15,8.13 12.51,12.47 3.67,3.63 7.53,8.54 14.49,10.45 6.75,1.85 16.41,0.3 19.18,-4.7l-2.05 -0.35c-0.02,0.13 0.09,0.2 0.09,0.27l0.04 -1.06c-0.01,-0.14 -0.05,-0.52 -0.13,-0.77 -4.94,2.63 -11.25,0.72 -16.52,0.4 -0.3,-7.42 -1.55,0.81 -1.62,-6.44l-4.83 0c-0.06,-2.06 -0.26,-3.48 -1.23,-5.09 -0.1,-0.16 -0.26,-0.33 -0.37,-0.48 -1.4,-2.12 -1.59,-0.98 -1.62,-4.1l-6.45 0c-0.28,-4.57 0.09,-5.45 -3.22,-5.65 0.27,-7.05 -0.15,0.79 1.72,-4.68 -2.17,-3.96 -4.96,-3.83 -6.05,-9.27 -2.54,1.71 -1.97,1.5 -5.29,0.88 -1.48,-6.7 1.62,-12.67 -3.41,-15.78l-0.8 -0.8c-1.49,2.89 -3.17,4.21 -3.17,7.45zm-50.34 -214.7c2.17,1.88 -3.52,-0.33 1.73,0.47l4.36 0.32 0 10.47 -12.62 0.07 -1.19 -2.28 -9.49 10.9c1.52,1.1 -1.58,0.26 1.34,0.54 0.18,0.01 0.46,0.1 0.64,0.09 0.16,-0.01 0.43,-0.03 0.58,-0.09 3.45,-1.09 0.07,0.41 1.58,-1.78 1.89,-2.74 -1.79,-1.75 3.85,-2.61 -1.16,2.84 -0.68,2.32 -3.22,4.03l2.41 0 0 10.47 -10.75 -0.07 1.48 -5.22 -3.47 0.34c-1.85,2.25 -2.89,3.4 -4.96,5.76l-4.68 6.34c2.22,1.61 2.86,1.87 5.46,2.52l0.12 11.87c2.3,-1.32 2.17,-1.76 4.36,-4.19l4.29 -4.21c0.49,-1.85 1.51,-2.55 3.47,-4.93l21.21 -24.71c2.43,-2.55 7.19,-7.87 8.29,-10.73l-10.71 -8.34c-2.59,2.15 -2.65,1.78 -4.08,4.97zm97.84 206.44c-0.66,1.78 -0.18,0.78 -0.54,2.2 -0.52,3.61 1.11,13.94 -1.77,15.48 -5.89,3.15 -4.03,-7.97 -4.98,-11.49 -0.74,-1.65 0.05,-0.6 -1.56,-2.21 -1.16,-1.17 -1.15,-1.01 -2.17,-1.56 -3.17,1.31 2.52,9.84 -3.68,15.77l8.58 8.86 9.18 -8.88c-0.29,-3.67 -1.12,-2.62 -0.22,-6.36l6.23 -1.28c0.25,-11.32 -0.17,-15.79 11.9,-15.83 2.49,3.34 -0.45,1.38 2.23,2.99l0.74 0.55c0.65,-1.27 0.85,-1.82 1.24,-2.79 0.39,-4.03 -0.32,-3.27 1.94,-5.83 3.7,-0.13 4.12,0.6 4.19,4.34l1.12 0.03c0.16,-1.97 0.02,-0.05 1.04,-1.82 0.09,-0.17 0.35,-0.33 0.42,-0.75 0.09,-0.48 0.35,-0.55 0.47,-0.84 -2.33,-1.57 -2.17,-2.6 -5.2,-2.71 0,0 -1.5,0.27 -1.53,0.27l-0.91 -5.62 6.93 -2.2c-0.91,-0.55 0.6,-0.17 -1.87,-0.69 -1.72,-0.37 0.57,-0.05 -1.43,-0.2 -0.58,-0.04 -2.32,0.08 -2.94,0.16 -1.94,0.25 -4.06,0.9 -5.69,1.56 -4.04,1.66 -5.43,3.49 -7.82,5.87 -1.9,1.9 -11.46,12.45 -13.9,12.98zm-110.13 -51.56c2.76,3.24 25.13,16.82 27.07,17.51 1.31,-5.2 -0.7,-3.04 1.65,-3.23 0.36,-0.03 2.26,0.04 2.55,0.05 -0.25,-6.15 -2.4,-7.83 3.79,-6.16l2.34 0.2c0.17,-0.03 0.48,-0.16 0.63,-0.19 0.15,-0.03 0.45,-0.1 0.64,-0.23 -5.02,-2.93 -9.27,-6 -14.45,-9.13 -5.15,-3.11 -9.48,-6.77 -15.1,-9.18 -0.45,3.03 -1.21,0.58 -1.21,7.77 -1.83,0 -2.5,-0.23 -4.15,0.4 -0.19,0.07 -0.38,0.19 -0.56,0.28 -2.15,1.04 -0.31,0.96 -3.2,1.91zm155.62 19.27c1,1.67 0.94,1.22 1.88,2.61 1.08,1.6 0.56,0.46 1.07,1.86l1.84 0.78c2.6,-0.16 4.06,-0.25 6.48,0.81 3,1.31 2.36,1.08 3.67,3.66 3.05,5.98 1.2,6.31 0.54,11.73l-0.07 1.41c1.66,1.8 1.34,2.11 1.33,4.27l1.21 0.57c4.09,-1.56 6.94,-0.29 10.42,1.13 2.84,-2.16 3.55,-2.12 7.24,-1.76 0.62,-2.11 0.68,-1.2 0.55,-4.14 -1.91,0.62 -2.11,0.81 -3.77,1.44 -0.92,-1.35 -6.85,-15.04 -7.3,-16.53 -4.11,-1.21 -6,0.35 -8.74,-2 -2.01,-1.72 -2.61,-4.07 -2.89,-7.15 3.35,-0.5 4.67,2.05 4.21,-2.31 -3.03,-1.3 -3.7,-2.46 -5.98,-3.83l-0.96 0.77c-1.7,2.64 -0.36,0.82 -0.44,1.28 -0.16,0.9 -0.04,1.94 -0.05,2.88 -2.79,0 -3.22,-0.27 -5.67,0.57l-2.19 0.98c-1.67,0.73 -0.31,-0.14 -2.38,0.97zm-122.66 124.62c2.99,3.49 -1.08,2.39 3.96,2.6 0,6.36 -0.26,6.9 -1.21,11.79l13.32 -7.49c1.64,-2.74 12.64,-7.45 16.03,-11.38 -2.06,-3.48 -4.48,-2.59 -8.8,-2.59 0,-3.13 0.31,-5.95 0.86,-8.51l-24.16 15.58zm107.58 -246.01l-14.98 0 0 -8.86 14.98 0c-0.86,-3.37 0.49,-1.77 -2.46,-2.72l-26.6 0.06 0.01 14.55 28.79 0 0.26 -3.03zm98.07 76.05l1.58 0.53c-1.34,14.08 1.58,9.48 0.21,14.49 3.88,-1.48 5.81,-3.27 9.14,-5.35 5.99,-3.74 6.17,-3.48 8.66,-6.26 -4.3,-2.62 1.13,-1.54 -4.1,-2.47 -1.31,-0.23 -5.28,-0.02 -6.86,-0.02l0.4 -6.87 -7.66 4.53c-0.85,0.77 -0.69,0.63 -1.37,1.42zm-96.05 71.62l1.68 0.64 7.52 0.25c0.16,0.32 0.44,0.31 0.5,0.65l1.11 2.3 2.14 0c-0.61,-7.54 1.82,-3.27 0.28,-6.35 -0.81,-1.34 -1.7,-1.76 -2.63,-3.23 -1,-1.58 -1.57,-3.94 -2.21,-5.73 -1.35,-1.87 -4.61,-2.51 -7.17,-2.2l-6.93 2.2 0.91 5.62c0.03,0 1.53,-0.27 1.53,-0.27 3.03,0.11 2.87,1.14 5.2,2.71 -0.12,0.29 -0.38,0.36 -0.47,0.84 -0.07,0.42 -0.33,0.58 -0.42,0.75 -1.02,1.77 -0.88,-0.15 -1.04,1.82zm10.81 3.84l-0.4 2.81 -5.24 0.96c-0.87,5.17 -2.73,4.87 -4.32,7.68 -0.28,2.39 -1.06,0.45 0.42,2.01 5.23,-1.68 2.13,-2.3 4.8,-6.76 9.19,-0.7 3.22,7.4 1.91,11.55 1.9,2.51 -1.39,1.19 2.4,2.69 2.26,-1.06 1.88,-1.32 3.61,-1.96 0.74,-1.85 0.9,-1.83 1.49,-3.49 0.15,-3.76 0.16,-7.66 0.13,-11.49 -0.04,-4.9 0.08,-4.5 2.15,-8.08l-0.06 -1.65 -4.47 -0.62c1.54,3.08 -0.89,-1.19 -0.28,6.35l-2.14 0zm-12.83 -151.51l0 -8.86 -14.98 0 0 8.86 14.98 0zm-232.03 365.74l0.27 -13.77 57.15 -0.04 -0.12 13.77 -57.3 0.04zm0 0c1.43,0.95 -2.07,0.3 2.24,0.79l55.29 0.36c1.1,-4.28 1.18,-11.08 0.25,-15.42 -6.08,-0.79 -54.47,-1 -58.28,0.31l0.25 13.5c0.02,-0.09 0.17,0.31 0.25,0.46zm405.82 -0.08l-57.31 0.02 0.07 -13.71 57 0.05 0.24 13.64zm0 0c1.48,-4.32 0.64,-9.33 0.57,-13.86 -3.67,-1.3 -52.21,-1.13 -58.34,-0.39 -0.59,4.14 -0.98,11.1 0.32,14.91l55.27 0.22c2.63,-0.3 1.41,0.47 2.18,-0.88zm-309.76 -409.37l1.19 2.28 12.62 -0.07 0 -10.47 -4.36 -0.32c-5.25,-0.8 0.44,1.41 -1.73,-0.47l-1.96 1.57c-1.49,1.38 -1.21,1.17 -2.31,2.53l-3.45 4.95zm41.59 212.65l0.01 -2.12 0.08 0.39c-3.15,-0.75 -5.97,-0.14 -8,-1.3 -6.8,-3.89 -3.03,-16.19 5.52,-11.99 -1.49,3.64 -5.05,3.46 -3.23,7.38 2.22,-1.04 4.44,-3.8 7.21,-6.57l0.44 -1.39c-19.09,-13 -22.71,20.76 -2.03,15.6zm-51.08 -201.75c-1.22,0.43 0.14,-0.47 -1.2,0.75 -1.26,1.14 -0.42,0.39 -1.45,1.67 -1.1,1.35 -1.76,2 -2.91,3.28l3.47 -0.34 -1.48 5.22 10.75 0.07 0 -10.47 -2.41 0c2.54,-1.71 2.06,-1.19 3.22,-4.03 -5.64,0.86 -1.96,-0.13 -3.85,2.61 -1.51,2.19 1.87,0.69 -1.58,1.78 -0.15,0.06 -0.42,0.08 -0.58,0.09 -0.18,0.01 -0.46,-0.08 -0.64,-0.09 -2.92,-0.28 0.18,0.56 -1.34,-0.54zm77.22 182.83l-0.4 0.31c1.12,2.41 2.71,3.96 3.22,6.91 0.32,1.91 -0.68,7.73 0.98,8.25 2.75,-2.58 0.12,-0.83 2.57,-1.48l0.56 -1.41c2.28,-4.78 -0.3,-8.24 4.41,-12.31l2.98 -2.32c-6.19,-0.75 -8.94,-0.21 -14.32,2.05zm101.73 0.96l0.45 1.34c0.97,1.07 1.32,-0.25 1.79,1.9 2.03,-1.68 2.25,-1.19 4.88,-0.5 1.63,2.85 1.72,3.93 1.7,8.27 -0.04,10.16 -0.69,6.59 1.94,7.27 1.35,-4.67 -0.54,-9.93 1.17,-15.01 3.96,-1.35 5.87,-1.87 7.55,1.49l1.36 3.17 1.3 -0.77c0.36,-3.93 -1.36,-6.23 -4.15,-7.31 -3.93,-1.52 -5.48,-0.08 -8.03,1.08 -5.75,-1.42 -2.97,-2.29 -9.96,-0.93zm2.17 6.98l0.54 -2.78 3.38 0.32c1.84,4.64 -0.38,10.2 1.64,15.33l4.7 -0.08c1.18,-5.09 0.18,-8.43 0.67,-12.91 0.51,-4.61 5.11,-4.03 5.02,2.79l2.72 -1.72 -1.36 -3.17c-1.68,-3.36 -3.59,-2.84 -7.55,-1.49 -1.71,5.08 0.18,10.34 -1.17,15.01 -2.63,-0.68 -1.98,2.89 -1.94,-7.27 0.02,-4.34 -0.07,-5.42 -1.7,-8.27 -2.63,-0.69 -2.85,-1.18 -4.88,0.5 -0.47,-2.15 -0.82,-0.83 -1.79,-1.9 0.15,0.88 0.35,2.5 0.6,3.29l0.8 1.83c0.06,0.13 0.2,0.36 0.32,0.52zm-93.76 4.13l1.53 -0.36c0.01,-0.03 1.09,-13.08 7.99,-7.76 4.27,3.29 -0.31,12.43 3.38,15.76 0.14,-0.17 0.34,-0.65 0.38,-0.53 0.04,0.12 0.29,-0.41 0.34,-0.55 0.33,-0.97 0.28,0.27 0.46,-1.91l-0.37 -13.67c-0.28,-1.13 0.47,-0.33 -1.07,-1.32 -1.4,-0.91 -0.85,-0.46 -2.15,-0.69 -8.85,-2.6 -11.7,1.92 -10.49,11.03zm-101.75 217.72c-5.85,1.82 -74.51,0.7 -86.77,0.53l-0.33 -28.99 -14.44 -0.12c2.37,1.25 2.72,0.82 6.67,0.78 2.43,-0.02 4.83,0 7.26,0.08l0.06 28.78c6.81,1.1 66.06,0.42 82.97,0.38 0.22,0 2.34,-0.02 2.41,-0.03 3.61,-0.79 0.91,0.43 2.17,-1.41zm132.5 -207.96l0.94 0.3c0.62,-1.43 0.73,-1.75 1.49,-2.94l-1.61 -0.16c1.43,-2.69 1.12,-2.4 4.81,-2.75l2.64 -2.59c-0.56,-3.73 -0.87,-8.35 1.08,-10.85 1.42,-1.81 -0.37,0.35 0.79,-0.82 2.09,-2.1 1.33,-2.05 7.13,-2.03 0.47,4.65 -1.89,1.92 -6.36,4.69l-0.52 6.56 1.87 -1.69 0.48 -4.07 4.21 -0.47c1.96,-1.65 2,-1.41 3.19,-3.66 -2.68,-1.61 0.26,0.35 -2.23,-2.99 -12.07,0.04 -11.65,4.51 -11.9,15.83l-6.23 1.28c-0.9,3.74 -0.07,2.69 0.22,6.36zm-29.22 -10.12l2.24 1.51 0.7 -8.18 4.63 0.27c0.54,3.13 1.82,9.65 -0.39,12.48 0.95,1.43 0.49,0.92 1.84,2.17 0.17,0.17 0.71,0.62 0.89,0.77 0.91,0.73 0.51,0.43 1.55,1.12 6.2,-5.93 0.51,-14.46 3.68,-15.77 -1.46,-2.37 -0.54,-1.36 -2.96,-3.03l0.37 13.67c-0.18,2.18 -0.13,0.94 -0.46,1.91 -0.05,0.14 -0.3,0.67 -0.34,0.55 -0.04,-0.12 -0.24,0.36 -0.38,0.53 -3.69,-3.33 0.89,-12.47 -3.38,-15.76 -6.9,-5.32 -7.98,7.73 -7.99,7.76zm-53.57 -1.22c2.24,1.98 1.42,2.06 1.21,5.87 2.31,2.03 2.36,3.67 5.77,4.61 3.96,1.1 4.9,-0.51 8.78,1.25l0 -3.3c-20.68,5.16 -17.06,-28.6 2.03,-15.6l0.76 -1.67c-2.68,-1.27 -2.9,-2.65 -6.13,-3.14 -8.93,-1.33 -12.41,4.5 -12.42,11.98zm15.85 6.7l0.07 -2.14c-6.2,-0.25 -5.7,1.19 -9.61,-2.8 -0.43,-4.48 -0.1,-6.58 4.04,-7.24l-2.89 5.45 2.3 2.69c3.54,-0.25 5.09,-2.28 7.02,-5.12l0.57 -3.32c-2.77,2.77 -4.99,5.53 -7.21,6.57 -1.82,-3.92 1.74,-3.74 3.23,-7.38 -8.55,-4.2 -12.32,8.1 -5.52,11.99 2.03,1.16 4.85,0.55 8,1.3zm22.26 -13.92c-1.76,0.79 -1.07,-0.31 -1.91,2 5.03,3.11 1.93,9.08 3.41,15.78 3.32,0.62 2.75,0.83 5.29,-0.88l0.8 -4.7c-1.66,-0.52 -0.66,-6.34 -0.98,-8.25 -0.51,-2.95 -2.1,-4.5 -3.22,-6.91l-1.58 1.16c1.4,3.75 2.95,2.59 3.29,8.03 0.21,3.33 0.32,7.97 -0.78,10.35 -4.43,-2.49 1.2,-8.22 -4.32,-16.58zm74.9 9.67c-1.09,0.71 -0.72,0.29 -1.62,1.17 -0.96,0.93 -0.36,0.4 -1.1,1.63 7.57,1.85 7.07,-0.5 8.18,-3.57 1.43,-3.92 0.07,-1.83 2.08,-2.22 3.31,6.94 -6.66,12.59 -10.46,8.34 -1.19,-1.34 -0.73,-0.1 -0.28,-2.12 -1.23,0.78 -0.65,0.23 -1.64,1.15 -0.9,0.85 -0.45,0.55 -1.16,1.63 2.11,0.76 2.43,1.74 5.42,2.17 1.34,0.19 2.77,0.19 4.08,-0.08 3.06,-0.65 -0.03,-0.61 3.63,-1.3 1.31,-4.15 7.28,-12.25 -1.91,-11.55 -2.67,4.46 0.43,5.08 -4.8,6.76 -1.48,-1.56 -0.7,0.38 -0.42,-2.01zm-57.2 0.28c2.09,1.61 0.92,0.71 1.87,2.42l3.07 2.15c2.21,-2.83 0.93,-9.35 0.39,-12.48l-4.63 -0.27 -0.7 8.18zm87.36 -14.15l0.46 1.89c6.99,-1.36 4.21,-0.49 9.96,0.93 2.55,-1.16 4.1,-2.6 8.03,-1.08 2.79,1.08 4.51,3.38 4.15,7.31l2.32 -0.89 0.12 -1.21c-1.28,-1.75 -1.6,-3.94 -2.71,-5.14 -1.19,-1.28 -2.69,-1.47 -4.67,-2.44 -3.69,-0.36 -4.4,-0.4 -7.24,1.76 -3.48,-1.42 -6.33,-2.69 -10.42,-1.13zm-66.79 9.41c1.99,1.6 1.14,9.43 -0.16,11.44 -2.4,-1.45 -1.42,-0.38 -1.29,-4.7 0.06,-2 0.01,-3.31 0.25,-5.32l-2.74 -0.05c0.95,3.52 -0.91,14.64 4.98,11.49 2.88,-1.54 1.25,-11.87 1.77,-15.48 -1.79,0.98 0.07,-0.49 -1.63,0.99 -1.18,1.04 -0.29,0.21 -1.18,1.63zm56.17 -28.82l2.72 0c1.17,1.22 2.8,2.31 3.7,4.2 0.84,1.74 1.84,4.88 -0.83,4.99l2.56 3.97c0.66,-5.42 2.51,-5.75 -0.54,-11.73 -1.31,-2.58 -0.67,-2.35 -3.67,-3.66 -2.42,-1.06 -3.88,-0.97 -6.48,-0.81 1,1.57 1.4,1.85 2.54,3.04zm-41.49 34.03l2.12 -2.45 0.52 -6.56c4.47,-2.77 6.83,-0.04 6.36,-4.69 -5.8,-0.02 -5.04,-0.07 -7.13,2.03 -1.16,1.17 0.63,-0.99 -0.79,0.82 -1.95,2.5 -1.64,7.12 -1.08,10.85zm19.23 2.05l-0.48 0.43c-0.45,2.02 -0.91,0.78 0.28,2.12 3.8,4.25 13.77,-1.4 10.46,-8.34 -2.01,0.39 -0.65,-1.7 -2.08,2.22 -1.11,3.07 -0.61,5.42 -8.18,3.57zm-72.18 -12.47c5.52,8.36 -0.11,14.09 4.32,16.58 1.1,-2.38 0.99,-7.02 0.78,-10.35 -0.34,-5.44 -1.89,-4.28 -3.29,-8.03l-1.81 1.8zm-22.19 11.78l0.74 -4.7 0.12 -2.32c-1.93,2.84 -3.48,4.87 -7.02,5.12l-2.3 -2.69 2.89 -5.45c-4.14,0.66 -4.47,2.76 -4.04,7.24 3.91,3.99 3.41,2.55 9.61,2.8zm32.91 -2.47l3.21 -0.51c-1.21,-9.11 1.64,-13.63 10.49,-11.03 -1.33,-1.74 1.6,-0.06 -2.06,-1.74l-4.25 -1.35 -2.98 2.32c-4.71,4.07 -2.13,7.53 -4.41,12.31zm76.56 -17.44l4.47 0.62 -0.14 -1.22c-2.1,-2.55 -4.43,-5.08 -5.66,-7.22 -1.39,-0.35 -1.61,-0.36 -3.51,-1.14 0.64,1.79 1.21,4.15 2.21,5.73 0.93,1.47 1.82,1.89 2.63,3.23zm2.25 21.84l0.91 -0.95c3.31,-4.11 -2.27,3.45 0.74,-0.99 0.32,-0.47 0.78,-1.44 1.12,-2.09 -1.48,-2.81 -1.06,-10.04 -0.19,-12.74 0,0.22 0.08,0.55 0.11,0.64l1.31 1.44c-0.17,-1.04 -0.29,-2.37 -0.61,-3.27 -0.58,-1.63 -0.31,-0.65 -1.11,-1.61 -2.07,3.58 -2.19,3.18 -2.15,8.08 0.03,3.83 0.02,7.73 -0.13,11.49zm-141.29 -16l-0.38 1.17 3.18 1.01 0.04 -1.67c2.14,-1.07 2.83,-1.6 5.02,-1.13 0.17,0.62 1.34,-1.19 0.21,1.74 -0.21,0.54 -0.63,0.77 -1.12,0.99 -0.02,0.01 -2.82,0.34 -3.08,0.37 1.28,2.18 0,1.04 2.56,2.08l3.65 -2.09c0.37,-9.95 -6.84,-3.08 -10.08,-2.47zm44.58 14.6c3.34,2.54 4.03,-1.09 4.65,3.54 -3.24,0.95 -2.08,0.84 -5.17,-0.71l-0.17 3.22c0.71,3.93 0.23,1.21 1.15,2.37l-0.59 -3.08c3.38,0.38 2.7,0.84 5.69,-0.3 2.01,-5.45 0.17,-5.4 -4.75,-6.45l0.49 -2.25c-1.75,1.14 -1.25,0.6 -1.3,3.66zm267.72 215.13c0.1,-0.2 0.28,-0.72 0.31,-0.61l0.52 -6.2c-0.02,-2.41 0.01,-4.83 0.03,-7.25 0.05,-4.85 0.16,-9.74 -0.07,-14.58 2.43,-0.07 4.83,-0.08 7.26,-0.06l4.82 -0.05c3,-0.54 0.6,-0.06 1.91,-0.73l-14.71 0.4 -0.07 29.08zm-165.41 -248.81l1.4 0.69 0.08 1.23c2.59,1.62 2.24,1.91 3.42,5.03 2.67,-0.11 1.67,-3.25 0.83,-4.99 -0.9,-1.89 -2.53,-2.98 -3.7,-4.2l-2.72 0 0.69 2.24zm-16.87 19.12c0.25,-0.16 -0.15,-1.6 3.26,-0.9 2.31,0.48 1.38,1.01 1.19,2.45l-3.71 0.39 0.22 2.3 5.24 -0.96 0.4 -2.81 -1.11 -2.3c-0.06,-0.34 -0.34,-0.33 -0.5,-0.65l-7.52 -0.25c0.02,0.02 1.18,1.36 1.23,1.42 0.11,0.11 0.32,0.33 0.43,0.45l0.87 0.86zm-142.62 -7.88l1.18 2 1.52 0c-0.25,-3 -0.38,-2.57 0.65,-4.11 1.08,0.64 1.06,-0.91 1.46,1.7 0.64,4.1 -0.84,3.05 -1.05,3.36l2.98 1.57c-0.14,-3.4 0.29,-5.32 -1.07,-7.92 -3.79,-1.02 -0.72,-0.86 -4.17,-0.13l-1.5 3.53zm101.43 16.76c-0.24,2.01 -0.19,3.32 -0.25,5.32 -0.13,4.32 -1.11,3.25 1.29,4.7 1.3,-2.01 2.15,-9.84 0.16,-11.44 -1.14,0.43 -0.81,0.13 -1.2,1.42zm55.23 3.05c1.19,-3.82 1.8,-6.2 1.23,-10.66l-1.31 -1.44c-0.03,-0.09 -0.11,-0.42 -0.11,-0.64 -0.87,2.7 -1.29,9.93 0.19,12.74zm-25.5 -13.84c2.41,-0.7 1.66,-0.06 3.56,-1.92 -2.05,-0.62 -1.49,1.54 -1.35,-1.24 0.12,-2.28 -0.14,-0.35 1.34,-1.18 1.06,1.55 1.31,-2.23 0.74,2.89l1.84 -0.04c-0.07,-3.74 -0.49,-4.47 -4.19,-4.34 -2.26,2.56 -1.55,1.8 -1.94,5.83zm-115.76 4.05l1.07 0.3c0.26,-0.03 3.06,-0.36 3.08,-0.37 0.49,-0.22 0.91,-0.45 1.12,-0.99 1.13,-2.93 -0.04,-1.12 -0.21,-1.74 -2.19,-0.47 -2.88,0.06 -5.02,1.13l-0.04 1.67zm41.26 15.25c3.09,1.55 1.93,1.66 5.17,0.71 -0.62,-4.63 -1.31,-1 -4.65,-3.54l-0.52 2.83zm86.7 -15.45l3.71 -0.39c0.19,-1.44 1.12,-1.97 -1.19,-2.45 -3.41,-0.7 -3.01,0.74 -3.26,0.9l0.74 1.94zm-22.06 6.59l0.95 0 3.74 -4.54 -4.21 0.47 -0.48 4.07zm-118.6 -14.41l1.06 0.95c0.21,-0.31 1.69,0.74 1.05,-3.36 -0.4,-2.61 -0.38,-1.06 -1.46,-1.7 -1.03,1.54 -0.9,1.11 -0.65,4.11zm108.77 24.05l3.2 -2.91c-3.69,0.35 -3.38,0.06 -4.81,2.75l1.61 0.16zm23.25 -22l0.73 0.47c0.57,-5.12 0.32,-1.34 -0.74,-2.89 -1.48,0.83 -1.22,-1.1 -1.34,1.18 -0.14,2.78 -0.7,0.62 1.35,1.24z"/>
 </g>
</svg>
