<?xml version="1.0" encoding="UTF-8"?>
<!DOCTYPE svg PUBLIC "-//W3C//DTD SVG 1.1//EN" "http://www.w3.org/Graphics/SVG/1.1/DTD/svg11.dtd">
<!-- Creator: CorelDRAW 2019 (64-Bit) -->
<svg xmlns="http://www.w3.org/2000/svg" xml:space="preserve" width="100%" height="100%" version="1.1" style="shape-rendering:geometricPrecision; text-rendering:geometricPrecision; image-rendering:optimizeQuality; fill-rule:evenodd; clip-rule:evenodd"
viewBox="0 0 464.62 465.66"
 xmlns:xlink="http://www.w3.org/1999/xlink">
 <defs>
  <style type="text/css">
   <![CDATA[
    .fil0 {fill:#A6A182}
   ]]>
  </style>
 </defs>
 <g id="Layer_x0020_1">
  <metadata id="CorelCorpID_0Corel-Layer"/>
  <path class="fil0" d="M288.8 449.84l-270.35 0.85 58.72 -134.56 116.11 -0.46c-0.08,13.91 -0.04,27.83 -0.04,41.73 0,8.6 -4.69,35.98 6.93,36.16 11.7,0.18 7.12,-25.89 7.12,-34.37 -0.01,-14.45 0.08,-28.93 -0.03,-43.36l181.14 -0.09 17 40.6c-34.74,1.01 -69.4,-0.45 -103.55,0.16 -17.33,0.31 -13.06,7.09 -13.06,40.21 0,17.71 0,35.42 0.01,53.13zm-134.92 -294.4l13.47 0.08c0.05,12.01 -1.78,32.25 2.42,40.83l9.36 0.7c4.39,-10.02 2.35,-28.73 2.34,-41.89l11.75 0.09c0.03,11.38 0.03,22.78 0.01,34.17 -0.01,7.44 -3.41,25.85 6.93,25.82 12.38,-0.04 7.04,-48.39 7.2,-59.84l11.67 0.26c-0.05,12.92 -2.46,31.08 2.33,40.85l9.36 0.36c4.87,-10.09 2.37,-28.42 2.37,-40.8l13.5 -0.99c0.12,20.04 0.82,41.63 0.1,61.26 -0.81,22.02 -15.86,16.86 -46.55,16.86 -9.52,0 -21.25,0.62 -30.5,-0.01 -11.35,-0.77 -14.93,-4.34 -15.73,-15.15 -1.39,-18.61 -0.03,-43.31 -0.03,-62.6zm-21.13 -140.98l134.97 -0.03 0.08 108.97c-0.24,11.97 -5.32,17.65 -17.62,17.66l-98.29 0c-13.9,0 -19.14,-3.3 -19.13,-17.76l-0.01 -101.86 0 -6.98zm-132.75 -10.19l0 5.95c11.17,7.76 40.12,3.86 57.18,3.86 20.47,0 41,0.14 61.46,-0.06 -0.02,14.02 -1.42,112.28 1.38,121.55 4.99,16.56 18.04,14.28 19.73,21.68 0.02,13.78 -1.65,60.05 1.14,69.88 6.35,22.38 26.06,20.2 51.52,20.22l0.8 54.26 -123.52 0.08c-7.81,9.66 -28.42,60.61 -35.04,76.07 -6.1,14.24 -28.2,68.23 -34.65,76.47l0 6.69c8.06,6.6 57.85,3.69 71.48,3.69 30.5,0 214.09,1.6 228.06,-0.72 10.55,-16.82 -2.56,-69.98 4.67,-93.13l88.93 0.04c15.22,0.02 22.5,2.56 27.92,-3.55 6.06,-6.09 -5.99,-24.57 -9.26,-32.1 -4.07,-9.37 -10.66,-25.99 -15.47,-32.62l-188.6 -0.96 -0.35 -54.16c16.51,-0.31 45.17,5.09 52.1,-19.99 3.4,-12.28 0.85,-55.86 1.39,-71.95 7.86,-6.26 15.92,-7.85 19.63,-19.73 2.75,-8.8 1.32,-108.08 1.31,-121.7 22.84,0.18 173.57,3.23 182.81,-3.19l0 -7.19 -3.87 -3.66 -456.75 0 -4 4.27zm331.45 394.7l92.74 -0.07 22.28 51.8 -115.35 -0.65 0.33 -51.08zm133.17 62.53l0 -7.88 -25.08 -55.04c-3.39,-8.39 -4.1,-13.21 -14.16,-13.84 -15.27,-0.96 -99.72,-1.69 -106.32,2.22 -2.84,2.89 -3.54,57.59 -2.09,68.64 0.74,5.63 0.12,3.83 3.44,6.94 5.77,4.49 60.48,2.07 72.73,2.07 15.92,0 62.79,3.83 71.48,-3.11zm-240.4 -72.71c13.77,9.82 17,-9.64 23.05,-23.56 8.73,-20.06 19.94,-35.24 0.94,-34.37 -4.68,5.26 -25.17,49.15 -23.99,57.93zm-47.99 0.19c1.19,-9.19 -20.68,-54.54 -23.95,-58.23 -20.3,-0.65 -4.67,21.52 0.34,33.04 5.62,12.89 10.24,35.43 23.61,25.19zm-22.32 -342.52l-0.03 33.95c0,14.13 20.38,31.76 13.08,-43.65 -10.48,-3.01 -13.05,-1.72 -13.05,9.7zm12.75 72.02l0.58 -13.42c-18.5,-5.57 -18.78,18.78 -0.58,13.42zm12.24 299.8c-8.18,7.94 3.71,15.24 9.39,9.46 5.43,-5.54 -1.72,-16.9 -9.39,-9.46zm-84.47 -1.84c-3.27,5.76 -4.33,16.99 7.02,12.56 6.54,-2.55 7.17,-13.72 -7.02,-12.56zm177.53 0l-8.61 0.16c-10.3,17.12 19.77,18.4 8.61,-0.16zm-219.76 2.07c-7.85,7.89 3.99,14.65 9.35,9.35 5.32,-5.27 -1.29,-17.46 -9.35,-9.35zm84.03 9.86l8.48 1c13.14,-15.56 -17.98,-19.91 -8.48,-1zm93.92 0.02c2.22,-4.44 2.12,-7.14 -0.4,-11.26 -15.28,-4.44 -16.7,15.71 0.4,11.26zm234.47 -424.73l0 -3.66 -3.87 0 3.87 3.66z"/>
 </g>
</svg>
