<?xml version="1.0" encoding="UTF-8"?>
<!DOCTYPE svg PUBLIC "-//W3C//DTD SVG 1.1//EN" "http://www.w3.org/Graphics/SVG/1.1/DTD/svg11.dtd">
<!-- Creator: CorelDRAW 2019 (64-Bit) -->
<svg xmlns="http://www.w3.org/2000/svg" xml:space="preserve" width="100%" height="100%" version="1.1" style="shape-rendering:geometricPrecision; text-rendering:geometricPrecision; image-rendering:optimizeQuality; fill-rule:evenodd; clip-rule:evenodd"
viewBox="0 0 473.2 465.68"
 xmlns:xlink="http://www.w3.org/1999/xlink">
 <defs>
  <style type="text/css">
   <![CDATA[
    .fil0 {fill:#A6A182}
   ]]>
  </style>
 </defs>
 <g id="Layer_x0020_1">
  <metadata id="CorelCorpID_0Corel-Layer"/>
  <path class="fil0" d="M215.88 413.41c-30.51,-1.53 -169.92,3.56 -184.68,-1.5 -2.55,-8.21 -2.2,-373.86 0.02,-380.49 5.07,-2.06 297.9,-3.13 306.95,-0.28 5.28,15.03 -1.89,181.72 1.41,211.41 2.02,18.19 24.57,16.7 28.4,3.49 1.82,-6.26 0.69,-145.94 0.69,-159.25 0,-34.82 7.66,-71.89 -21.87,-83.68 -11.1,-4.42 -185.09,-2.27 -211.56,-2.27 -33.3,0 -74.54,-2.15 -106.89,0.45 -31.17,10.53 -27.55,28.12 -27.55,63.26l0 276.72c0,21.28 -3.9,71.13 5.51,85.81 13.71,21.39 48.53,15.3 77.48,15.3 12.81,0 128.64,1.83 135.41,-1.76 11.43,-6.06 9.89,-22.15 -3.32,-27.21zm8.78 -77.71c-3.39,-27.32 21.63,-13.57 33.02,-7.02 12.64,7.27 23.86,18.04 32.55,27.25 14.52,15.39 40.2,45.08 44.41,75.17 1.53,10.98 0.26,17.54 -11.56,16.13 -19.57,-2.35 -40.52,-23.56 -54.31,-36.43 -13.37,-12.49 -40.77,-48.23 -44.11,-75.1zm31.29 -30.59c0.87,-6.37 11.12,-11.86 20.2,-17.58 30.89,-19.44 121.77,90.46 97.54,116.98 -8.17,8.95 -13.97,16.62 -22.1,15.98 -11.94,-25.52 -15.06,-41.48 -38.43,-66.66 -15.26,-16.45 -8.61,-10.43 -26.36,-26.47 -4.61,-4.17 -9.45,-7.53 -15.08,-11.35 -7.05,-4.77 -9.62,-4.9 -15.77,-10.9zm197.83 -38.93c-7.48,21.57 -51.67,26.12 -69.24,51.83 -10.06,14.72 -6.62,21.03 -23.69,0.68 -18.11,-21.58 -2.67,-8.77 24.13,-35.02 12.94,-12.68 28.11,-49.99 50.42,-46.75 11.67,1.7 23.08,15.7 18.38,29.26zm-216.48 136.8l15.11 17.19c6.17,7.2 10.86,10.85 17.78,17 11.14,9.91 24.67,20.35 42.05,26.1 25.8,8.54 36,-7.62 46.39,-18.22 7.04,-7.19 28.94,-27.35 33.41,-34.75 11.34,-18.78 -3.34,-37.02 -1.6,-55.88 5.11,-55.12 73.66,-42.22 82.01,-87.46 2.86,-15.46 -3.32,-18.89 -4.4,-28.43l-1.72 -1.51c-0.21,-0.21 -0.55,-0.53 -0.77,-0.76l-8.59 -8.61c-2.49,-2.03 -14.28,-7.99 -14.43,-8.15 -42.35,-5.46 -52.71,31.93 -71.63,52.88 -6.52,7.21 -28.79,20.78 -44.16,12.28 -11.97,-6.62 -23.71,-18.26 -42.73,-18.17 -13.78,0.07 -30.02,14.23 -39.99,20.87 -10.43,6.95 -29.95,18.16 -34.41,26.77 -15.61,30.1 17.44,70.19 27.68,88.85zm-88.62 -160.39c1.95,-2.95 3.4,-2.57 7.41,-2.84l-2.54 -2.21c-0.27,-0.25 -0.77,-0.64 -1.05,-0.92 -0.23,-0.22 -0.62,-0.53 -0.83,-0.76 -0.15,-0.17 -0.46,-0.46 -0.58,-0.62l-0.12 -2.16c0.03,-0.12 0.24,-0.49 0.28,-0.61 0.04,-0.13 0.24,-0.53 0.27,-0.66 0.99,-3.67 -1.25,-4.85 -0.42,-6.82 0.73,-1.75 -5.3,-0.48 1.74,-1.23 -4.48,-5.78 -32.1,-15.79 -41.14,-53.61 -18.78,-78.6 80.33,-130.42 134.51,-71.92 3.27,3.53 6.79,9.65 10.62,12.07 1.51,-11.45 -1.75,0.1 0.77,-9.59 1.15,12.89 5.51,1.63 5.57,9.73 19.89,0 1.22,4.08 15.91,1.38 -15.81,-50.07 -102.18,-87.6 -160.51,-30.57 -20.14,19.69 -35.73,53.07 -27.29,92.61 3.98,18.62 11.62,29.89 20.89,41.67 6.73,8.55 21.89,22.71 36.51,27.06zm108.15 -132.29c0.48,5.92 5.55,10.67 8.55,23 6.59,27.15 -1.94,54.02 -19.09,72.89 -37.37,41.15 -84.47,18.38 -93.45,17.57 -7.04,0.75 -1.01,-0.52 -1.74,1.23 -0.83,1.97 1.41,3.15 0.42,6.82 -0.03,0.13 -0.23,0.53 -0.27,0.66 -0.04,0.12 -0.25,0.49 -0.28,0.61l0.12 2.16c0.12,0.16 0.43,0.45 0.58,0.62 0.21,0.23 0.6,0.54 0.83,0.76 0.28,0.28 0.78,0.67 1.05,0.92l2.54 2.21c-4.01,0.27 -5.46,-0.11 -7.41,2.84 11.61,9.63 45.34,10.45 62.58,6.52 20.09,-4.57 38.32,-16.45 48.45,-26.73 20.2,-20.48 31.79,-51.79 27.71,-83.38 -0.67,-5.15 -1.75,-10.08 -3.15,-14.93 -0.56,-1.93 -3.21,-11.26 -5.19,-12.25 -14.69,2.7 3.98,-1.38 -15.91,-1.38 -0.06,-8.1 -4.42,3.16 -5.57,-9.73 -2.52,9.69 0.74,-1.86 -0.77,9.59zm-85.99 69.71c-0.36,-0.58 -45.83,-55.89 -50.24,-27.07 -1.25,8.17 7.32,13.77 11.5,17.66 23.81,22.17 34.15,41.87 56.01,23.31l33.99 -28.57c6.25,-5.15 30.67,-23.55 31.97,-29.2 1.94,-8.44 -6.25,-14.94 -14.24,-11.62 -6.15,2.56 -59.25,51.35 -68.99,55.49zm-71.75 119.82l82.04 0c11.44,0 31.94,3.91 28.01,-12.57 -2.54,-10.7 -24.01,-6.76 -34.97,-6.76l-82.04 0c-11.26,0 -30.69,-3.61 -27.84,12.1 2.01,11.14 23.81,7.23 34.8,7.23zm81.15 52.56c4.81,-13 -10.42,-12.94 -19.97,-12.89l-68.14 0.01c-10.74,0 -25.25,-2.81 -27.55,6.36 -3.72,14.76 10.39,12.98 20.59,12.95l68.15 -0.01c11.25,0 23.51,2.78 26.92,-6.42z"/>
 </g>
</svg>
