<?xml version="1.0" encoding="UTF-8"?>
<!DOCTYPE svg PUBLIC "-//W3C//DTD SVG 1.1//EN" "http://www.w3.org/Graphics/SVG/1.1/DTD/svg11.dtd">
<!-- Creator: CorelDRAW 2019 (64-Bit) -->
<svg xmlns="http://www.w3.org/2000/svg" xml:space="preserve" width="100%" height="100%" version="1.1" style="shape-rendering:geometricPrecision; text-rendering:geometricPrecision; image-rendering:optimizeQuality; fill-rule:evenodd; clip-rule:evenodd"
viewBox="0 0 702.73 465.66"
 xmlns:xlink="http://www.w3.org/1999/xlink">
 <defs>
  <style type="text/css">
   <![CDATA[
    .fil0 {fill:#A6A182}
   ]]>
  </style>
 </defs>
 <g id="Layer_x0020_1">
  <metadata id="CorelCorpID_0Corel-Layer"/>
  <path class="fil0" d="M450.46 97.7l-228.4 -4.81c4.96,-5.27 -10.03,-5.11 13.46,-7.33l245.11 4.08c-3.68,9.43 11.04,8.75 -30.17,8.06zm166.75 -4.85c3.25,-3.79 -2.98,-4.43 5.73,-6.4 11.57,-2.63 2.94,0.41 6.84,3.19 -3.31,6.95 1.13,4.96 -6.77,6.48 -9.76,1.87 -0.49,1.31 -5.8,-3.27zm-22.3 1.3c-2.46,-12.08 4.43,-9.76 11.28,-4.51 -2.97,6.44 2.2,2.28 -4.23,5.68 -11.65,6.15 -4.78,-0.34 -7.05,-1.17zm-12.87 -0.43c-6.59,2.98 7.78,5.13 -6.94,1.63 -9.56,-2.28 -1.74,-0.2 -4.41,-5.71 8.99,-6.75 11.17,-6.88 11.35,4.08zm108.21 2.3c-2.74,-4.84 -4.92,-9.95 -9.36,-15.81 -5.64,-7.45 -6.86,-6.06 -13.31,-13.95 19.69,2.99 22.61,7.45 22.67,29.76zm-687.07 24.7l696.48 0.45c21.14,-83.33 -71.68,-63.69 -138.69,-63.69l-416.1 0c-70.69,0 -163.26,-18.99 -141.69,63.24zm48.9 328.14c11.64,-14.34 32.59,-29.76 45.86,-48.58 13.57,-19.23 24.66,-39.27 31.34,-66.35 15.9,-64.53 -1.97,-112.17 -15.4,-170.57l471.46 -0.07c-19.08,60.27 -36.93,94.14 -16.15,165.24 20.53,70.28 58.37,96.52 72.21,120.53l-589.32 -0.2zm-22.41 12.44c121.58,5.97 520.88,5.66 643.29,0.03 0.82,-11.88 -30.85,-49.63 -40.1,-63.24 -37.9,-55.76 -56.88,-95.6 -42.15,-167.94 5.89,-28.95 24.36,-59.93 27.81,-80.84l-534.22 -0.18c5.93,29.95 46.49,104.01 26.35,179.25 -16.86,63.01 -83.21,113.56 -80.98,132.92zm612.53 -255.32c23.18,-11.06 30.99,-21.8 45.35,-41.18 -2.83,25.61 -19.17,39.82 -45.35,41.18zm-586.92 12.33c8.97,40.69 -5.1,136.74 5.2,169.85 25.6,-3.15 17.95,-27.75 17.44,-74.21 -0.33,-29.75 -2.2,-65.22 -0.14,-94.28 5.42,-1.94 5.71,-0.67 9.02,-1.72l8.22 -3.33c0.77,-0.33 2,-0.8 2.85,-1.45 -5.85,-18.2 -27.66,-60.8 -26.01,-72.74 12.16,-4.47 533.17,-6.8 559.16,-0.49 1.18,14.33 -21.85,56.61 -26.55,78.2l22.78 0.1 0.03 134.75c-0.46,22.57 -4.49,32.16 15.35,35.48l3.71 -169.24c26.32,-3.52 42.03,-1.51 51.19,-22.25 6.06,-13.75 5.53,-54.41 2.68,-70.82l-697.43 -0.3c-3.03,15.46 -3.69,54.59 1.63,68.51 7.65,19.99 24.3,23.19 50.87,23.94zm543.9 -202.05c16.27,-2.3 18.46,4.21 20.24,18.8l-20.24 -18.8zm-524.44 32.94l553.22 0.36c7.43,-50.25 -26.37,-38.15 -77,-39.1 -42.68,-0.81 0.49,-7.79 -35.27,-10.44l-325.58 -0.02c-13.83,0.43 -7.91,-0.42 -16.5,4.01 -14.52,7.47 13.91,2.77 -15.47,6.31 -43.34,5.21 -90.38,-18.23 -83.4,38.88z"/>
 </g>
</svg>
