<?xml version="1.0" encoding="UTF-8"?>
<!DOCTYPE svg PUBLIC "-//W3C//DTD SVG 1.1//EN" "http://www.w3.org/Graphics/SVG/1.1/DTD/svg11.dtd">
<!-- Creator: CorelDRAW 2019 (64-Bit) -->
<svg xmlns="http://www.w3.org/2000/svg" xml:space="preserve" width="100%" height="100%" version="1.1" style="shape-rendering:geometricPrecision; text-rendering:geometricPrecision; image-rendering:optimizeQuality; fill-rule:evenodd; clip-rule:evenodd"
viewBox="0 0 515.7 465.67"
 xmlns:xlink="http://www.w3.org/1999/xlink">
 <defs>
  <style type="text/css">
   <![CDATA[
    .fil0 {fill:#A6A182}
   ]]>
  </style>
 </defs>
 <g id="Layer_x0020_1">
  <metadata id="CorelCorpID_0Corel-Layer"/>
  <path class="fil0" d="M505.58 447.61c-4.11,9.7 -12.88,8.49 -24.65,8.48l-423.91 0c-10.85,0 -21.79,0.15 -32.62,0.03 -13.87,-0.16 -17.16,-11.31 -14.23,-18.34 3.95,-9.46 13.21,-8.26 24.62,-8.26l423.91 0c10.86,0 21.78,-0.12 32.62,-0.02 9.59,0.09 18.81,7.36 14.26,18.11zm-355.26 -105.89c1.26,10.99 -0.05,26.21 0.18,37.75 0.16,8.01 6.24,6.19 13.24,6.19l94.12 -0.02c31.35,-0.46 57.73,-18.24 69.97,-43.7 5.65,-11.76 5.14,-16.85 8.11,-29.59l107.75 0 0.05 107.89 -371.82 -0.16 0.14 -78.37 78.26 0.01zm-140.68 120.26l3.66 1.78c11.77,2.97 60.06,1.58 75.59,1.58l381.67 0c11.37,0 25.59,1.75 34.47,-3.26 17.02,-9.62 14.52,-41.63 -13.71,-41.81 -11.45,-0.07 -27.46,1 -38.32,-0.19l0.02 -105.13c0.02,-5.56 1.17,-10.74 -4.04,-11.74 -6.35,-1.21 -119.01,-0.07 -120.13,0.5 -3.21,1.66 -2.3,7.58 -2.8,11.96 -2.21,19.43 -12.75,36.53 -28.01,47.61 -5.46,3.96 -12.47,7.91 -20.26,10.17 -19.27,5.59 -91.97,2.02 -117.93,2.97 -0.58,-11.39 -0.21,-24.07 -0.12,-35.56 0.07,-8.11 -1.1,-8.54 -9.32,-8.47l-71.16 0.01c-4.81,0 -12.82,-1.6 -15.85,2.33 -1.85,4.53 -0.61,73.76 -0.76,85.31 -15.25,2.04 -41.31,-3.55 -52.85,4.07 -12.34,8.15 -12.23,26.22 -3.99,33.94l3.46 3.47c0.09,0.1 0.26,0.3 0.38,0.46zm225.26 -150.73l-0.02 -7.41 0 -15.57 0.02 -6.1 5.92 0.03 0.01 32.04 -5.93 -0.04 0 -2.95zm8.46 -41.38l-0.05 -39.45c2.14,0.56 26.69,15.12 28.91,17.09l0.11 38.14 -28.97 -15.78zm-0.04 -53.49l0.02 -5.71 2.66 -0.38 20.01 0.06 6.37 0.18 -0.06 25.62c-2.4,-0.56 -25.19,-14.56 -28.99,-16.94l-0.01 -2.83zm-42.2 -67.15c5.44,-1.31 100.3,-0.61 113.34,-0.38 -0.84,4.92 -9.24,21.08 -11.72,26.46 -2.1,4.56 -4.05,8.68 -6.07,13.22 -1,2.25 -5.03,12.07 -6.94,12.56l-61.6 0.08c-4.2,-0.21 -3.62,-0.3 -5.15,-4 -6.59,-15.88 -15.65,-31.86 -21.86,-47.94zm-60.88 -139.7l0.98 -4.74c5.07,-1.93 9.12,-2.18 9.56,4.76l211.74 -0.02c0.71,-4.14 1.03,-6.04 5.78,-5.9 4.3,0.12 4.3,2.31 5.01,5.86l70.18 0.43c0.9,7.4 0.2,66.06 0.21,78.99 0.02,22.26 -7.4,40.63 -30.12,48.27 -12.72,4.28 -60.26,2.34 -77.16,2.34 -52.62,0 -105.24,0 -157.86,0 -17.83,0 -62.17,2.06 -76.43,-2.38 -9.51,-2.96 -12.99,-6.76 -18.46,-11.87 -9.13,-8.54 -11.76,-23.36 -11.75,-37.1 0,-12.23 -0.75,-71.73 0.27,-78.53l68.05 -0.11zm141.38 304.79l-6 -0.09 0.08 -16.41c-0.07,-3.13 0.55,-3.27 -1.54,-4.19 -1.99,0.94 -1.06,-0.23 -1.58,3.05 -0.42,7.29 1.05,21.3 -1.48,27.08 -2.62,5.97 -10.72,11.6 -19.6,7.19 -11.99,-5.96 -7.67,-23.18 -8.57,-35.27 -0.31,-4.12 0.41,-10.05 0.39,-14.66 3.67,0.36 9.93,5.8 14.15,6.88l6.32 0.43 1.12 2.02c2.07,-2.64 3.37,-3.32 6.21,-1.37l1.2 1.14c0.08,0.08 0.22,0.28 0.36,0.39 2.17,-2.75 3.83,-3.25 6.92,-1.82l2.31 1.44 -0.35 -79.7c10.34,-0.5 14.68,1.32 18.81,-7.86 1.96,-4.34 5.97,-15.32 8.93,-17.86 0.16,-2.96 11.25,-24.76 14.79,-34.77 0.06,-0.17 0.18,-0.43 0.23,-0.57 0.05,-0.13 0.14,-0.38 0.24,-0.55 22.4,-0.8 61.36,1.24 79.71,-0.29 16.59,-1.38 29.26,-9.9 38.33,-21.65 3.33,-4.32 4.45,-8.9 7.2,-12.77 4.63,-20.92 3.21,-23.6 3.21,-45.95 0,-16.3 -0.01,-32.61 0,-48.91 0.01,-8.75 0.66,-15.54 -6.56,-18.15 -5.37,-1.94 -260.6,-0.73 -268.63,-0.73 -32.36,0 -64.72,0.04 -97.08,0 -21.54,-0.02 -18.08,4.68 -18.08,31.48 0,16.3 0,32.61 0,48.91 0,16.4 -0.6,28.72 7.52,41.67 18.45,29.43 41.73,26.33 71.33,26.33 16.3,0 32.61,0 48.91,0 2.43,1.33 0.91,0.42 2.02,4.11l14.66 31.99c2.85,5.86 5.55,11.63 8.2,17.74 4.02,9.27 8.53,7.15 18.7,7.89 0.45,34.16 0.12,68.79 0,102.98 -0.03,8.49 1.18,14.5 5.69,19.65 3.83,4.37 8.75,8.35 17.42,8.54 9.15,0.21 13.76,-3.53 18.27,-7.74 5.05,-4.72 6.08,-11.15 6.24,-19.6zm24.03 -263.95c3.73,-0.98 65.24,-0.37 74.49,-0.37 23.72,0 20.86,-4.95 20.98,35.21 0.02,6.39 1.03,12.17 -5.03,13.66 -3.87,0.94 -65.73,0.29 -75.24,0.29 -19.36,0 -20.66,3.02 -20.66,-16.92 0,-6.17 0.02,-12.35 0,-18.53 -0.02,-7.67 -1.15,-11.59 5.46,-13.34zm-1.9 -9.26c-15.36,3.39 -12.81,18.58 -12.81,34.46 0,15.73 -2.14,30.77 14.34,32.74 7.97,0.95 87.83,0.88 93.08,-0.43 14.65,-3.65 12.01,-19.48 12.01,-34.53 0,-14.23 2.14,-30.45 -13.99,-32.43 -7.91,-0.97 -87.17,-1.01 -92.63,0.19zm-98.88 10.05c20.31,-7.62 31.19,23.85 10.74,31.02 -20.1,7.04 -32.19,-22.98 -10.74,-31.02zm0.09 -9.71c-33.84,6.71 -22.88,57.35 10.56,50.38 32.24,-6.71 23.76,-57.17 -10.56,-50.38zm-95.2 28.93c-2.27,-9.9 4.42,-18.45 12.56,-20.02 10.2,-1.97 18.17,4.86 19.74,12.78 4.29,21.59 -27.62,27.7 -32.3,7.24zm12.85 -29.45c-13.43,1.63 -23.9,13.62 -22.39,28.61 1.33,13.23 13.6,24.27 28.5,22.68 34.24,-3.65 27.9,-55.4 -6.11,-51.29zm-19.55 131.4l35.46 46.3c1.98,2.74 3.86,5.28 5.98,8.1 2.38,3.16 5.28,6.15 5.55,8.22 2.44,1.48 6.5,7.75 8.46,10.38 2.98,4.01 4.91,9.02 11.44,5.54 1.71,-6.48 -2.86,-9.32 -5.82,-13.37l-17.16 -22.91c-4.98,-5.41 -28.11,-37.86 -34.89,-46.59 -2.43,-3.13 -6.23,-10.99 -11.14,-7.99 -1.14,0.68 -3.79,1.72 -1.88,6.08 0.94,2.14 2.45,2.36 4,6.24zm16.22 113.66c12.94,3.24 27.13,12.42 29.06,4.51 0.1,-6.02 -5.29,-6.42 -10.52,-8.18 -17.2,-5.8 -89.02,-31.94 -94.88,-31.76 -7.65,8.23 3.33,9.91 10.6,12.33 7.46,2.49 14.72,5.06 21.99,7.61 4.9,1.71 42.62,14.51 43.75,15.49zm244.18 -82.2c-0.59,-7.18 -1.38,-6.02 7.07,-7.83 1.95,-1.03 18.36,-20.51 21.09,-22.94 3.52,-3.12 4.76,-4.51 2.98,-9.63 -7.62,-2.85 -8.33,2.38 -12.29,6.29 -4.41,4.36 -6.32,7.48 -10.31,11.14l-9.89 10.84c-7.26,8.73 -16.96,18.28 -24.96,27.67l-15.23 16.67c-2.33,2.6 -10.49,8.04 -3.51,12.63 6.47,1.65 8.67,-5.58 12.42,-8.94l21.91 -24.04c1.74,-1.69 10.16,-10.72 10.72,-11.86zm-90.88 92.89c0.52,-3.28 -0.41,-2.11 1.58,-3.05 2.09,0.92 1.47,1.06 1.54,4.19l-0.08 16.41 6 0.09 0.29 -24.19 -2.31 -1.44c-3.09,-1.43 -4.75,-0.93 -6.92,1.82 -0.14,-0.11 -0.28,-0.31 -0.36,-0.39l-1.2 -1.14c-2.84,-1.95 -4.14,-1.27 -6.21,1.37l-1.12 -2.02 -6.32 -0.43c1.26,1.81 12.25,7.28 15.11,8.78zm-37.68 17.52l5.93 0.04 -0.01 -32.04 -5.92 -0.03 -0.02 6.1 0 15.57 0.02 7.41 0 2.95zm127.62 -304.67c1.38,0.08 3.86,0.43 5.04,0.43 1.72,0 3.79,-0.4 5.75,-0.47 -0.71,-3.55 -0.71,-5.74 -5.01,-5.86 -4.75,-0.14 -5.07,1.76 -5.78,5.9zm-222.28 0c1.47,0.07 3.84,0.43 4.99,0.45 1.63,0.02 3.65,-0.38 5.55,-0.43 -0.44,-6.94 -4.49,-6.69 -9.56,-4.76l-0.98 4.74zm223.22 194.26c1.4,-0.98 5.85,-5.92 7.07,-7.83 -8.45,1.81 -7.66,0.65 -7.07,7.83z"/>
 </g>
</svg>
