<?xml version="1.0" encoding="UTF-8"?>
<!DOCTYPE svg PUBLIC "-//W3C//DTD SVG 1.1//EN" "http://www.w3.org/Graphics/SVG/1.1/DTD/svg11.dtd">
<!-- Creator: CorelDRAW 2019 (64-Bit) -->
<svg xmlns="http://www.w3.org/2000/svg" xml:space="preserve" width="100%" height="100%" version="1.1" style="shape-rendering:geometricPrecision; text-rendering:geometricPrecision; image-rendering:optimizeQuality; fill-rule:evenodd; clip-rule:evenodd"
viewBox="0 0 465.68 465.68"
 xmlns:xlink="http://www.w3.org/1999/xlink">
 <defs>
  <style type="text/css">
   <![CDATA[
    .fil0 {fill:#A6A182}
   ]]>
  </style>
 </defs>
 <g id="Layer_x0020_1">
  <metadata id="CorelCorpID_0Corel-Layer"/>
  <g id="_2167655561200">
   <path class="fil0" d="M-0 328.18l0 130.47c0,4.69 2.34,7.03 7.03,7.03l451.62 0c4.69,0 7.03,-2.34 7.03,-7.03l0 -130.47c0,-4.68 -2.34,-7.02 -7.03,-7.02l-109.39 0c-4.82,0 -12,6.86 -15.49,9.6l-100.93 79.72 -28.67 -22.52c-5.07,-3.97 -8.95,-7.04 -14.06,-11.03l-43.16 -34.12c-5.54,-4.32 -24.77,-21.65 -30.53,-21.65l-109.39 0c-4.69,0 -7.03,2.34 -7.03,7.02z"/>
   <path class="fil0" d="M54.2 221.8c0,6.57 12.19,13.89 19.5,19.64l67.52 52.91c22.98,17.04 49.83,39.84 73.12,57.35 2.24,1.69 3.63,2.65 5.69,4.35 15.43,12.71 10.86,11.5 36.32,-8.38l90.04 -70.53c7.82,-5.83 14.56,-11.67 22.5,-17.64l33.79 -26.43c14.76,-12.11 10.73,-11.87 -10.03,-37.6 -7.49,-9.28 -10.2,-9.09 -20.44,-0.9l-64.97 51.45c-6.07,4.83 -69.21,55.33 -74.4,58.08l-37.36 -28.88c-6.29,-5.17 -12.14,-9.41 -18.53,-14.6 -27.96,-22.69 -60.33,-46.55 -87.34,-69.21 -10.06,-8.43 -15.96,3.19 -22.8,11.89 -4.25,5.42 -12.61,13.78 -12.61,18.5z"/>
   <path class="fil0" d="M160.58 6.03l0 114.41c0,3.66 2.77,8.03 6.02,8.03l132.48 0c3.25,0 6.02,-4.37 6.02,-8.03l0 -112.41c0,-3.66 -2.77,-8.03 -6.02,-8.03l-132.48 0c-2.41,0 -6.02,3.61 -6.02,6.03z"/>
   <path class="fil0" d="M192.7 231.84c0,3.34 6.41,7.09 8.78,9.28l15.07 13.03c2.26,2.02 3.16,2.29 5.5,4.53 10.97,10.47 12.61,8.36 27.08,-4.53 2.35,-2.1 2.66,-2.56 5.36,-4.68 4.86,-3.8 18.49,-13.58 18.49,-19.64l0 -85.31 -80.28 0 0 87.32z"/>
  </g>
 </g>
</svg>
