<?xml version="1.0" encoding="UTF-8"?>
<!DOCTYPE svg PUBLIC "-//W3C//DTD SVG 1.1//EN" "http://www.w3.org/Graphics/SVG/1.1/DTD/svg11.dtd">
<!-- Creator: CorelDRAW 2019 (64-Bit) -->
<svg xmlns="http://www.w3.org/2000/svg" xml:space="preserve" width="100%" height="100%" version="1.1" style="shape-rendering:geometricPrecision; text-rendering:geometricPrecision; image-rendering:optimizeQuality; fill-rule:evenodd; clip-rule:evenodd"
viewBox="0 0 465.88 465.68"
 xmlns:xlink="http://www.w3.org/1999/xlink">
 <defs>
  <style type="text/css">
   <![CDATA[
    .fil0 {fill:#A6A182}
   ]]>
  </style>
 </defs>
 <g id="Layer_x0020_1">
  <metadata id="CorelCorpID_0Corel-Layer"/>
  <path class="fil0" d="M218.46 336.26c4.78,-1.29 10.69,-0.58 15.65,-1.48 4.16,-0.75 10.65,-3.28 13.44,-3.28 0.01,4.33 1.19,10.34 -1.66,13.4 -4.72,5.07 -17.15,5.69 -23.56,1.78 -4.15,-2.54 -3.87,-4.92 -3.87,-10.42zm0 -29.66c14.16,-0.11 16.69,-1.18 29.1,-4.68l0.01 12.56c-12.73,6.1 -12.87,5.51 -29.02,6.7l-0.09 -14.58zm0.35 -30.4l28.76 -0.31 0 9.54c-10.07,4.45 -15.1,7.51 -29.15,6.32l0.39 -15.55zm41.97 -18.62c-0.6,0.45 -0.59,0.55 -1.74,1.06 -2.39,1.07 2.1,-0.56 -1.29,0.48 -1.27,0.39 -1.75,0.33 -2.95,0.5 0.54,-21.68 0,-43.87 0,-65.61l-0.04 -57.31c-0.15,-7.8 -0.12,-6.41 1.63,-7.18l12.98 -4.49 0.01 85.34 -0.01 13.22 -0.23 30.84c-2.7,1.67 -4.82,3.37 -8.36,3.15zm-20.42 -140.22l-0.16 144.37c-16.42,0.63 -30.62,-0.48 -43.55,-7.31l-0.06 -45.07 0.04 -121.37c6.7,0.68 13.12,6.56 36.37,6.55 20.13,-0.01 21.42,-2.75 36.32,-6.82l-0.01 20.21c-4.58,2.24 -7.01,4.75 -13.45,6.48 -4.33,1.16 -11.24,2.77 -15.5,2.96zm-43.56 -49.29c2.75,-2.78 6.42,-4.41 10.47,-6.06 6.69,5.84 11.99,10.66 25.72,10.67 14.88,0.01 18.41,-5.26 25.83,-10.53 10.73,3.69 14.4,7.39 4.01,12.31 -20.77,9.83 -64.07,5.6 -66.03,-6.39zm47.9 -13.24c-6.03,4.5 -17.56,4.33 -23.43,0.03 -4.06,-2.97 -2.76,-6.17 -2.84,-12.18 11.6,0.8 17.61,0.97 29.14,-0.04 -0.06,5.84 1.15,9.18 -2.87,12.19zm-40.38 -32.95c11.1,-10.22 46.75,-9.83 57.41,0.08 -6.86,5.84 -18.21,7.09 -28.73,7.09 -9.76,-0.01 -22.83,-1.91 -28.68,-7.17zm-7.51 -13.76c-1.93,2.68 -10.53,8.57 -6.47,18.75 3.51,8.81 11.87,9.08 13.5,13.03l-0.02 7.94c-9.94,3.66 -22.56,9.61 -21.67,22.72l-0.01 186.38c4.08,10.74 9.93,12.05 21.63,16.22l-0.02 9.19 -9.28 2.01c1.38,9.12 2.59,13.48 9.37,17.64l-0.05 9.01 -9.33 2.51 2.57 11.25c-1.16,1.04 -123.82,45.24 -131.87,47.06 -3.99,-3.36 -11.99,-15.01 -15.37,-20.43 -4.42,-7.11 -8.85,-14.5 -12.84,-22.68 -4.32,-8.88 -18.8,-44.03 -17.55,-53.99 -0.13,-0.18 -0.25,-0.44 -0.31,-0.58 -0.01,0 -2.29,-3.89 -1.34,-8.92 -0.42,-0.71 -0.19,0.19 -0.86,-1.84 -0.13,-0.37 -0.3,-1.73 -0.37,-2.21l-1.38 -15.52 0.17 -28.85c-2.25,1.92 -2.17,2.04 -6.88,2.67 -7.52,1.01 -6.3,-1.39 -7.01,-2.07 0.78,-1.21 2.73,-1.51 3.37,-1.83 0.08,-0.04 1.07,-0.68 1.25,-0.79 3.5,-2.1 3.71,-2.22 6.67,-2.22l0 -5.64c-3.8,0 -9.3,1.48 -11.39,2.41 -2.09,15.08 -1.51,35.94 0.46,51.21l2.76 18.18c2.94,9.84 4.55,19.42 8.04,29.21 7.41,20.73 13.74,33.53 25.09,51.55l15.26 20.96c1.07,1.85 0.07,-0.99 0.63,1.4l6.7 7.86c3.61,1.65 12.45,13.8 16.05,14.58l1.11 -1.3c0.38,-0.74 0.18,0.63 0.62,-1.71l-0.03 -9.6c0.34,-3.94 -0.09,-1.99 1.29,-3.26l-0.47 -0.91c-0.48,-0.72 -0.06,-0.2 -0.95,-1.28 -1.07,-1.31 -1.03,-0.88 -2.03,-2.46l127.84 -45.35c0.93,19.16 9.64,18.96 18.82,24.26 9.15,1.2 11.74,1.24 20.97,0.02 7.96,-4.63 18.32,-5.06 18.75,-24.09 14.08,3.43 83.99,31.35 90.09,31.06 4.1,-3.86 3.2,-0.74 3.48,-5.39l-0.56 -4.25c-0.1,-0.24 -0.2,-0.39 -0.31,-0.64 -0.13,-0.27 -0.23,-0.41 -0.37,-0.69l-1.33 -2.5c1.07,-0.9 0.55,-0.16 2.08,-0.45 -6.37,-1.48 -16.57,-5.77 -23.37,-8.12 -10.7,-3.71 -67.59,-23.55 -69.72,-25.32 0.25,-2.04 8.54,-12.41 3.81,-21.82 -1.31,-2.61 -2.28,-1.45 -3.83,-2.39 0.04,-10.81 0.97,-5.16 4.05,-12.79 2.33,-5.79 0.42,-7.97 0.17,-13.45 7.72,-2.97 14.95,-6.27 17,-13.68 1.42,-5.17 0.81,-162.07 0.56,-183.54 -0.21,-19.02 -5.1,-14.35 -9.03,-21.14l-12.77 -5.65 0.08 -8.76c0.8,-0.74 11.54,-7.65 11.62,-7.69 1.21,-6.12 5.21,-8.61 0.65,-16.87 -2.47,-4.5 -6.04,-6.59 -11.76,-9.26 -10.93,-5.1 -25.33,-5.74 -38.65,-5.02 -4.9,0.9 -9.46,1.3 -14.35,2.68 -4.52,1.27 -10.4,4.77 -12.96,5.19zm232.62 127.6c0.26,2.9 5.39,13.43 6.87,17.18 2.39,6.03 4.46,11.92 6.36,18.67 2.24,7.97 8.94,33.6 7.15,41.77 2.69,4.7 1.22,40.23 -0.18,45.69 -1.82,20.68 -9.52,46.15 -17.48,63.15 -5.83,12.45 -22.34,42.3 -31.32,49.63l-27.07 -9.38 -1.44 2.68c-0.84,2.02 -0.83,7.98 -0.37,8.83 1.84,3.39 -0.46,-0.83 3.05,1.62 -1.44,1.34 0.34,1.18 -2.42,1.64l2.78 2c4.4,0.11 10.58,3.06 14.74,4.59l-14.06 13.78c-2.01,1.47 -3.38,2.37 -4.64,4.59l3.77 -0.79c0.13,-0.01 0.44,-0.06 0.64,0.01 1.37,3.27 -3.16,5.33 -3.44,5.64 -1.88,2.02 -1.23,-0.26 -0.59,1.62 0.51,3.84 -1.2,2.29 3.86,2.48 5.79,0.21 2.29,-1.9 7.57,-1.15 1.52,-0.29 0.6,0.02 1.9,-0.93 0.52,-0.38 1.13,-1.04 1.65,-1.51l11.86 -10.54c0.25,-1.2 -0.32,-0.58 0.89,-1.81 1.17,-1.19 1.17,-0.91 2.42,-1.28 1.74,-3.3 7.3,-9.12 10.27,-12.62 2.21,-2.59 3.05,-3.75 5.07,-6.22 2.45,-3 3.23,-4.83 5.71,-6.66 0.43,-2.57 14.62,-23.83 14.76,-23.94 0.95,-3.02 2.24,-5 3.54,-7.52 0.69,-1.34 1.14,-2.39 1.81,-3.8l2.42 -3.57c0.04,-2.49 9.44,-25.9 11.23,-32.04 18.68,-64.33 2.71,-108.79 3.98,-116.92 -1.84,-2.64 -10.81,-40.02 -17.76,-48.26l-0.18 1.95c-0.32,-0.15 -0.62,-0.45 -0.87,-0.62l-12.03 -1c0.2,-0.16 0.86,-2.68 0.48,0.97 -0.24,2.32 0.25,1.18 -0.93,2.07zm-342.49 277.75c0.35,1.05 -0.03,0.33 1.09,1.39 0.5,0.47 1.51,1.2 2.22,1.76 1.54,1.2 2.2,1.75 4.07,3.2 7.89,6.1 18.71,12.57 27.59,17.62 6.58,3.74 13.07,6.69 20.15,9.71 4.67,2 18.72,6.54 21.09,8.08 1.64,0.3 1.56,0.12 3.19,0.74 3.33,1.25 1.19,0.45 2.32,1.29 4.11,-0.31 19.89,4.18 25.78,5.2 9.03,1.57 18.96,2.68 28.14,3.04 17.06,0.66 42.53,-0.44 58.03,-4.82 4.65,-0.79 9.47,-2.86 14.11,-2.55 0.54,-0.66 0.18,-0.52 1.82,-1.28 0.74,-0.34 1.47,-0.51 2.38,-0.77 2.31,-0.67 3.64,-1.03 5.88,-1.49l13.27 -5.42c0.53,-2.84 -0.17,-0.87 1.02,-2.09 2.48,-2.53 3.41,0.57 5.08,-2.93 -1.47,-3.21 2.15,-2.14 -4.75,-2.57 -1.28,-0.08 -4.19,0.15 -5.74,0.15 -3.23,-1.01 2.05,1.62 -1.08,-1.06 -3.36,-2.89 -1.78,1.23 -3.17,-2.76 -2.73,-0.05 -20.27,5.88 -25.49,7.15 -45.86,11.15 -95.95,6.88 -139.28,-12.65 -9.5,-4.28 -34.33,-17.41 -41.06,-24.06 -1.11,2 2.12,1.93 -3.61,2.34l-12.23 -1.64c-0.08,0.19 -0.14,0.48 -0.17,0.6l-0.65 3.82zm153.42 8.05l-0.06 -4 0.01 -4.04 0.04 -5.49c8.06,0.39 16.41,2.57 21.31,6.83 -4.38,4.42 -14.54,6.58 -21.3,6.7zm-40.77 -21.02l0.41 3.75c-0.15,6.39 8.96,3.05 12.82,1.98l1.2 3.04c2.83,0.43 9.5,-2.5 11.69,-0.62 2.11,1.73 0.49,-0.23 1.31,2.36l0.35 7.39c-0.4,5.42 -1.41,3.96 -1.64,7.19l-24.19 0.99 -0.82 3.1c2.98,4.76 25.77,6.95 33.08,6.9 12.13,-0.08 24.31,-2.18 33.33,-7.51 4.26,-2.52 7.89,-5.58 9.14,-11.03 4.34,-19 -23.34,-22.49 -34.4,-24.86 -2.44,-1.56 -0.94,0.79 -1.61,-3.07 -0.27,-1.55 0.58,-7.81 -0.35,-11.73l-12.57 -0.01c-1.81,0.86 -1.23,-1.53 -1.64,2.03l-0.04 12.73c-7.7,0.91 -22.24,2.74 -26.07,7.37zm11.22 -153.18l14.96 0.11 -0.04 -131.04 -14.95 0.07 0.03 130.86zm178.2 -168.45l-0.31 -1.85c3.63,0.66 5.95,0.92 9.75,0.85 1.94,-0.03 2.72,-0.16 4.44,-0.4l3.92 -0.22c-5.42,-3.78 -18.01,-21.58 -47.98,-40.55 -8.88,-5.62 -18.33,-11.08 -28.7,-15.67 -8.8,-3.9 -23.97,-10.43 -33.66,-12.24l-4.03 13.93c16.96,3.73 40.55,15.42 53.36,22.99 10.39,6.14 24.11,16.25 32.86,24.4 2.66,2.48 7.66,7.43 10.35,8.76zm-328.37 -2.08c-0.57,1.62 -0.45,0.3 1.3,1.03 2.07,-1.14 1.88,-1.08 3.22,-2.42l4.03 3.23 0 6.45c-2.63,-0.08 -7.47,1.05 -4.03,-2.42l-4.66 5.02c0.47,-1.5 -1.54,-0.72 2.24,-0.98 -0.71,4.04 -0.46,5.87 -3.22,8.07 0,6.51 -0.35,0.75 1.81,2.86 1.49,-2 10.98,-13.94 13.21,-14.7 1.13,-2.52 0.6,-1.7 2.57,-3.69 1.07,-1.07 1.72,-1.64 2.85,-2.76 2.19,-2.15 3.78,-3.91 6.61,-5.12l1.62 -1.98c5.55,-6.03 21.37,-16.88 28.53,-21.49l11.61 -7.42c-2.72,-1.17 -7.34,-0.58 -10.72,-0.58l-1.96 -2.14c-0.09,-0.09 -0.26,-0.27 -0.34,-0.35 -0.07,-0.06 -0.24,-0.21 -0.3,-0.26l0.48 -2.68c0.07,-0.12 0.22,-0.31 0.3,-0.43 2.11,-3.16 1.16,2.31 1.59,-2.99 -6.81,1.95 -25.81,16.2 -30.94,20.45 -6.6,5.49 -22.49,19.03 -25.8,25.3zm328.37 2.08c2.03,3.57 19.5,21.47 31.33,41.56 2.44,4.15 6.07,12.66 9.09,15.29 1.18,-0.89 0.69,0.25 0.93,-2.07 0.38,-3.65 -0.28,-1.13 -0.48,-0.97l12.03 1c0.25,0.17 0.55,0.47 0.87,0.62l0.18 -1.95c-4.55,-14.29 -24.63,-42.4 -36.15,-55.1l-3.92 0.22c-1.72,0.24 -2.5,0.37 -4.44,0.4 -3.8,0.07 -6.12,-0.19 -9.75,-0.85l0.31 1.85zm-371.49 65.92c-4.21,4.17 -16.2,50.49 -15.01,59.08l0.58 2.24c-0.33,-0.32 0.69,-2.85 6.11,-1.16 0.26,0.08 0.44,0.16 0.69,0.25l2.02 0.91c0.24,-0.19 1.51,-1.33 1.62,-1.4l2.46 -1.19c0.1,-0.08 0.42,-0.44 0.61,-0.63 0.88,-3.72 0.75,-9.92 2.85,-12.73 -0.91,-10.87 9.28,-32.42 12.34,-42.72 -3.32,-0.34 -1.1,0.7 -2.93,-1.04 2.33,-3.35 1.34,-0.09 1.6,-4.83 -15,0 -7.01,1.51 -12.94,3.22zm14.1 -28.17c3.63,2.22 -1.94,6.27 7.11,6.87l4.16 0.85c0.62,-0.6 2.55,-3.62 3.64,-5.45 0.47,-0.8 1.39,-2.38 1.81,-2.99l2.55 -2.84c0.51,-3.08 8.27,-12.51 10.44,-15.43 -2.16,-2.11 -1.81,3.65 -1.81,-2.86 2.76,-2.2 2.51,-4.03 3.22,-8.07 -3.78,0.26 -1.77,-0.52 -2.24,0.98l4.66 -5.02c-3.44,3.47 1.4,2.34 4.03,2.42l0 -6.45 -4.03 -3.23c-1.34,1.34 -1.15,1.28 -3.22,2.42 -1.75,-0.73 -1.87,0.59 -1.3,-1.03 -2.93,0.9 -2.4,1.47 -4.11,3.69l-11.77 14.87c-2.58,3.47 -12.66,17.42 -13.14,21.27zm169.1 313.06l0.82 -3.1 24.19 -0.99c0.23,-3.23 1.24,-1.77 1.64,-7.19l-0.35 -7.39c-0.82,-2.59 0.8,-0.63 -1.31,-2.36l-0.01 12.93c-7.97,-0.65 -16.53,-2.3 -21.37,-6.75 6.05,-4.84 6,-2.85 9.69,-5.56l-1.2 -3.04c-3.86,1.07 -12.97,4.41 -12.82,-1.98l-0.41 -3.75c-5.06,1.69 -10.46,7.01 -10.25,14.58 0.2,7.42 5.86,12.5 11.38,14.6zm-83.34 -398.64c-0.43,5.3 0.52,-0.17 -1.59,2.99 -0.08,0.12 -0.23,0.31 -0.3,0.43l-0.48 2.68c0.06,0.05 0.23,0.2 0.3,0.26 0.08,0.08 0.25,0.26 0.34,0.35l1.96 2.14c3.38,0 8,-0.59 10.72,0.58 0.92,-0.08 25.54,-10.99 26.4,-11.8 -7.46,-1.26 1.59,-2.49 -7.26,-2.49 0,-5.15 -1.82,-5.56 -0.81,-8.87 0.22,0.27 0.44,0.57 0.63,0.84l4.11 3.16 0.91 -3.2c-0.77,-0.94 -1.25,-1.19 -2.57,-2.19 -4.55,-0.08 -30.38,12.49 -32.36,15.12zm254.02 371.12l-24.25 16.54c-0.49,0.31 -1.62,1.02 -1.97,1.29l-1.89 1.79c1.87,1.71 0.91,0.65 2.67,1.38 0.25,-0.12 0.55,-0.65 0.7,-0.45 0.35,0.47 4.42,-4.24 6.22,1.19l1.15 7.31c8.45,-3.41 20.89,-14.86 24.24,-15.73 0.69,-1.01 0.41,-0.7 1.14,-1.55l3.8 -3.96c-5.28,-0.75 -1.78,1.36 -7.57,1.15 -5.06,-0.19 -3.35,1.36 -3.86,-2.48 -0.64,-1.88 -1.29,0.4 0.59,-1.62 0.28,-0.31 4.81,-2.37 3.44,-5.64 -0.2,-0.07 -0.51,-0.02 -0.64,-0.01l-3.77 0.79zm-353.88 -257.37c5.93,-1.71 -2.06,-3.22 12.94,-3.22 -0.26,4.74 0.73,1.48 -1.6,4.83 1.83,1.74 -0.39,0.7 2.93,1.04l4.04 -7.97c1.65,-6.02 5.39,-9.78 7.06,-15.13l-4.16 -0.85c-9.05,-0.6 -3.48,-4.65 -7.11,-6.87 -2.4,1.85 -2.52,3.15 -3.98,5.99 -1.21,2.35 -2.48,4.56 -3.61,6.88 -2.34,4.83 -5.11,9.81 -6.51,15.3zm132.22 -128.87c1.32,1 1.8,1.25 2.57,2.19l-0.91 3.2 -4.11 -3.16c-0.19,-0.27 -0.41,-0.57 -0.63,-0.84 -1.01,3.31 0.81,3.72 0.81,8.87 8.85,0 -0.2,1.23 7.26,2.49l19.5 -6.31c-0.41,-2.88 -1.08,-4.78 -1.84,-7.34 -1.11,-3.69 -0.78,-5.82 -3.94,-6.34 -1.51,1.34 -13.33,4.16 -16.57,5.8l-2.14 1.44zm-73.43 388.37c1.27,2.18 0.32,0.83 2.07,2.46 1.01,0.93 1.47,1.18 2.58,2.24 2.49,2.38 3.17,2.72 5.98,4.48l0.65 -3.82c0.03,-0.12 0.09,-0.41 0.17,-0.6l12.23 1.64c5.73,-0.41 2.5,-0.34 3.61,-2.34 -4.74,-2.79 -8.27,-6.19 -12.29,-9.71 -2.42,-2.12 -3.04,-2.15 -5.59,-4.91 -1.97,-2.14 -3.68,-4.08 -6.42,-5.31 -1.38,1.27 -0.95,-0.68 -1.29,3.26l0.03 9.6c-0.44,2.34 -0.24,0.97 -0.62,1.71l-1.11 1.3zm233.12 33.62c1.39,3.99 -0.19,-0.13 3.17,2.76 3.13,2.68 -2.15,0.05 1.08,1.06 1.55,0 4.46,-0.23 5.74,-0.15 6.9,0.43 3.28,-0.64 4.75,2.57 -1.67,3.5 -2.6,0.4 -5.08,2.93 -1.19,1.22 -0.49,-0.75 -1.02,2.09 4.19,-0.78 9.33,-3.51 13.17,-5.23 3.16,-1.42 9.54,-4.09 11.63,-6.51 -1.87,-1.83 1.98,-0.64 -3.36,-1.35 -0.14,1.92 -7.53,0.98 -9.68,-0.81 0.81,-2.55 0.41,-2.15 5.64,-5.65 -2.33,-3.23 2.69,-2.16 -2.42,-2.46l-23.62 10.75zm42.89 -68.24c3.22,2.8 8.94,2.99 11.4,4.96l8.86 2.57c2.76,-0.46 0.98,-0.3 2.42,-1.64 -3.51,-2.45 -1.21,1.77 -3.05,-1.62 -0.46,-0.85 -0.47,-6.81 0.37,-8.83l1.44 -2.68 -18.45 -6.68c-1.53,0.29 -1.01,-0.45 -2.08,0.45l1.33 2.5c0.14,0.28 0.24,0.42 0.37,0.69 0.11,0.25 0.21,0.4 0.31,0.64l0.56 4.25c-0.28,4.65 0.62,1.53 -3.48,5.39zm-19.27 57.49c5.11,0.3 0.09,-0.77 2.42,2.46 -5.23,3.5 -4.83,3.1 -5.64,5.65 2.15,1.79 9.54,2.73 9.68,0.81 5.34,0.71 1.49,-0.48 3.36,1.35 2.21,-0.25 10.23,-4.53 11.16,-6.22l-1.15 -7.31c-1.8,-5.43 -5.87,-0.72 -6.22,-1.19 -0.15,-0.2 -0.45,0.33 -0.7,0.45 -1.76,-0.73 -0.8,0.33 -2.67,-1.38 -1.75,0.16 -9.38,4.11 -10.24,5.38zm-331.53 -221.04l-0.2 3.22c2.09,-0.93 7.59,-2.41 11.39,-2.41l0 5.64c-2.96,0 -3.17,0.12 -6.67,2.22 -0.18,0.11 -1.17,0.75 -1.25,0.79 -0.64,0.32 -2.59,0.62 -3.37,1.83 0.71,0.68 -0.51,3.08 7.01,2.07 4.71,-0.63 4.63,-0.75 6.88,-2.67l0.33 -4.64 0.79 -7.25 0.17 -2.03c-0.19,0.19 -0.51,0.55 -0.61,0.63l-2.46 1.19c-0.11,0.07 -1.38,1.21 -1.62,1.4l-2.02 -0.91c-0.25,-0.09 -0.43,-0.17 -0.69,-0.25 -5.42,-1.69 -6.44,0.84 -6.11,1.16l-0.58 -2.24 -0.99 2.25z"/>
 </g>
</svg>
