<?xml version="1.0" encoding="UTF-8"?>
<!DOCTYPE svg PUBLIC "-//W3C//DTD SVG 1.1//EN" "http://www.w3.org/Graphics/SVG/1.1/DTD/svg11.dtd">
<!-- Creator: CorelDRAW 2019 (64-Bit) -->
<svg xmlns="http://www.w3.org/2000/svg" xml:space="preserve" width="100%" height="100%" version="1.1" style="shape-rendering:geometricPrecision; text-rendering:geometricPrecision; image-rendering:optimizeQuality; fill-rule:evenodd; clip-rule:evenodd"
viewBox="0 0 465.9 465.66"
 xmlns:xlink="http://www.w3.org/1999/xlink">
 <defs>
  <style type="text/css">
   <![CDATA[
    .fil0 {fill:#A6A182}
   ]]>
  </style>
 </defs>
 <g id="Layer_x0020_1">
  <metadata id="CorelCorpID_0Corel-Layer"/>
  <path class="fil0" d="M224.41 232.88l0.06 12.47 -0.13 26.27 0.07 11.42 -190.74 -0.09 0 -125.72c0.01,-14.72 1.58,-28.51 -15.54,-21.02 -2.48,17.87 -1.14,120.07 -1.14,146.43l-10.32 0.84c-5.42,1.74 -1.34,0.08 -2.48,1.74 -0.36,3.37 1.13,1.99 -0.49,3.94 3.73,-0.53 7.21,-2.59 8.59,0.73 1.59,3.83 1.51,7.56 1.37,11.72 0.19,-0.47 0.68,-1.53 0.96,-1.17l3.09 -1.66c11.78,3.11 89.33,0.75 107.96,0.75l322.65 0.01 -0.29 16.67c-71.7,-0.54 -143.6,-0.04 -215.32,-0.04 -25.56,0 -206.1,-1.63 -215.17,0.8 -2.07,2.23 -4.47,0.62 -0.77,2.07 0.32,4.21 1.15,4.77 1.24,9.33l419.45 0 0 -9.34c6.9,0 1.22,-0.88 5.24,2.83 2.94,2.71 3.43,0.96 3.48,6.51l9.34 0c1.78,3.09 -0.08,2.76 4.71,0.62l4.48 -3.03 1.19 0.69c-1.99,-9.36 -0.74,-20.36 -0.68,-30.08 0.08,-15.28 -3.83,-12.1 -16.75,-14.05 0.03,-27.67 1.22,-127 -1.09,-146.39 -18.4,-6.44 -15.41,6.03 -15.41,22.34l0.02 124.55 -190.83 -0.01 -0.04 -11.55 -0.13 -12.16c0.52,-12.57 0.81,-124.93 -0.54,-128.56 -3.06,-8.18 -15.65,-7.67 -16.09,5.31l0.05 96.83zm17.28 166.26l190.15 -0.02 -0.27 16.65 -190.4 -0.06 0.52 -16.57zm207.21 -33.06l-0.03 16.46c-3.36,3.2 -1.11,2.46 -12.03,2.46l0.18 1.3c-0.06,0.19 -0.56,1.37 -0.63,1.11 -0.09,-0.31 -0.5,0.9 -0.79,1.34l-412.61 -0.01c0.32,4.13 0.5,3.38 1.25,6.84 11.24,-1.19 -4.56,-2.49 26.13,-2.49 -0.07,4.79 -0.03,3.36 -6.7,3.1 -12.1,-0.46 -9.64,0.98 -10.47,3.1l191.04 -0.14 -0.28 16.63 -190.8 -0.15c-1.26,5.76 -0.33,6.51 -0.21,12.32l4.98 0 0 4.46 410.52 -0.01 0.41 16.47c-3.69,3.01 -8.21,2.2 -13.27,2.12 -4.55,-0.07 -9.13,-0.02 -13.69,-0.02l-407 0c0,-8.85 -2.1,-21.51 0.1,-27.52l2.3 -5.04c0.07,-0.19 0.22,-0.45 0.27,-0.92 0.06,-0.46 0.17,-0.61 0.27,-0.92l-10.62 -0.43c-6.38,1.58 -6.8,4.66 -6.9,11.12 -0.54,36 -2.51,38.51 17.04,38.4l440.4 -0.15c10.68,-1.73 7.41,-18.02 7.4,-29.47 0,-15.71 2.55,-19.91 -14.63,-20.37 -2.89,-1.6 -1.6,0.27 -2.52,-3.25l0.41 -13.5 10.72 -0.32c8.54,-3.05 6.06,-13.76 6.04,-23.55 -0.01,-4.85 0.23,-10.23 0.05,-15 -0.29,-7.75 -1.73,-5.62 -3.5,-9.79l-2.01 -0.24c-4.33,-0.16 -9.82,1.08 -11.38,-2.35 -0.09,0.1 -5.03,-0.86 -2.39,7.52 1.47,4.64 -2.14,2.76 5.21,3.05 -0.44,3.6 -2.63,2.95 -5.6,5.61 2.14,0 3.34,2.23 3.34,2.23zm-364.38 -361.23c0.73,0.39 5.05,-1.19 5.05,8 1.53,-0.06 5.16,-0.97 6.23,-1.24 0.32,3.27 -0.18,3.69 -2.48,6.21 6.43,-3.29 2.59,-2.37 9.94,-2.48 0,10.04 0.43,1.07 -2.29,4.97 -2.11,1.36 -3.63,4.91 -5.18,7.46 -2.21,3.64 -3.78,5.08 -4.31,9.24 0.82,2.76 -0.11,1.97 3.07,1.97 -1.11,3.55 -0.71,1.84 -3.72,6.22 7.13,-2.91 7.07,-5.86 7.47,2.49l5.37 -0.5 18.27 -29.49 6.91 0.14 -26.45 66.42c-3.93,10.02 -3.22,17.51 10.09,15.65 5.8,-7.81 30.88,-70.3 34.2,-82.3l15.35 -0.09c-3.61,12.99 -11.65,30.1 -16.98,43.36 -2.88,7.14 -5.63,14.18 -8.57,21.28 -4.21,10.17 -5.54,17.87 7.85,18.18 6.67,-5.98 7.01,-9.98 10.35,-18.64 2.9,-7.54 5.54,-13.98 8.51,-21.38 3.3,-8.25 15.71,-36.28 16.38,-42.83 4.12,-3.38 9.84,-2.15 15.79,-2.15 0.14,-0.15 0.23,-0.7 0.27,-0.56 0.97,3.14 0.56,-0.97 0.74,-1.22 1.78,-2.42 0.45,-1.3 2.73,-3.2 4.77,0.67 -2.67,-1.01 2.31,0.75l21.33 2.98 2.06 3.52c-1.45,12.84 -0.39,31.52 -0.39,45.02 0,10.21 -4.85,37.66 8.31,37.71 13.15,0.05 8.4,-26.24 8.4,-36.46 0,-15.38 -0.23,-30.95 0.05,-46.3l10.61 -0.04 16.92 56.3c4.53,3.83 0.72,1.28 5.07,1.86 -0.78,-0.7 -4.59,0.29 -1.09,-5.19 1.25,-1.96 1,-0.83 2.14,-1.85l3.5 -5.82c0.28,-4.75 -3.16,-0.81 1.2,-6.25 0.44,-8.14 -8.07,-29.18 -10.38,-38.75l15.84 -0.29 4.79 10.24c1.62,-2.61 7.09,-4.38 11.39,-4.98 0.07,0.42 0.12,0.58 0.17,1.27l2.32 8.69 4.53 -0.03c-0.15,-5.01 -3.03,-9.88 -4.62,-15.09l15.19 -0.11 20.46 52.09c4.56,-4.06 3.48,-1.03 2.41,-7.62 1.84,0.63 2.72,0.73 2.95,0.72 4.46,-0.33 -0.38,0.35 3.32,-1.67l4.84 -1.67 -16.2 -41.71 7.52 -0.01c3.45,-14.19 7.4,-5.91 11.27,-5.06 5.44,1.19 9.42,-0.03 15.18,4.96 1,3.54 14.73,23.47 17.9,25.15 2.68,5.35 0.5,-1.01 5.11,-3.93 1.49,-0.94 1.74,-1.53 4.3,-1.1 6.92,1.16 -1.76,-1.08 2.51,0.92l4.14 2.86 -1.93 -4.54c-0.6,-3.58 -1.53,-4.22 -3.65,-7.25l-14.13 -19.53c-9.09,-12.02 -4.7,-9.35 -35.05,-9.35l-224.04 0c-11.57,0 -35.5,-3.48 -41.15,4.05zm140.25 344.92l-191.16 -0.45 0.19 -16.48 190.57 -0.11 0.4 17.04zm-207.89 -17.46l6.73 0.42c0.52,4.72 -0.7,3.65 4.98,4.98l0 24.89 4.98 0 -0.01 -9.11 21.17 0.39c0.1,-0.33 -0.03,-0.85 -0.08,-1.04l-0.35 -1.63c-1.79,-3.29 -2.05,0.13 -2.06,0.18l172.53 -1.62c0.55,-0.84 0.73,-0.82 1.37,-3.4l0.34 -7.84c-0.72,0.96 -3.58,-1.24 0.42,2.63 1.67,1.62 5.77,2.1 8.3,2.77 -5.57,5.29 2.64,0.17 -6.82,7.18 -0.34,0.26 -0.72,0.59 -1.01,0.81 -0.32,0.24 -0.82,1.23 -1.05,0.95 -0.25,-0.3 -0.77,0.62 -1.07,1.01 4.89,-0.37 4.83,-1.23 11.2,-1.23 0.25,-1.51 0.78,-4.56 1.01,-6.62l1.49 -8.31c0,6.63 -0.78,8.51 2.21,12.07l0.02 -16.95 190.74 0 0.01 16.91c3.21,-3.44 2.41,-1.25 2.42,-12.04l2.48 0.01c-0.25,7.83 -2,9.82 -2.48,14.93 3.11,1.25 2.49,0.13 2.49,9.95l8.71 0c-8.64,0.03 -16.68,1.26 -26.13,1.25l-351 0c-8.93,0 -47.71,-1.67 -54.76,1.24 2.87,-3.05 4.86,-2.46 4.97,-7.47l-8.71 0 -0.01 -6.23c0.85,0 3.12,0.08 3.85,-0.12 4.44,-1.26 1.97,0.01 4.09,-2.37 -17,1.67 -17.65,0.32 -17.54,18.67 0.03,6.25 -0.08,12.52 -0.05,18.76 0.04,7.24 -0.01,9.35 5.63,12.36l11.27 0.84 11.43 2.9 0 19.92 -9.96 0c0.22,-6.57 0.77,-3.28 -0.79,-5.78 -0.1,0.31 -0.21,0.46 -0.27,0.92 -0.05,0.47 -0.2,0.73 -0.27,0.92l-2.3 5.04c-2.2,6.01 -0.1,18.67 -0.1,27.52l407 0c4.56,0 9.14,-0.05 13.69,0.02 5.06,0.08 9.58,0.89 13.27,-2.12l-431.7 0.02 -0.01 -16.52 20.78 0.04 0 -4.46 -4.98 0c-0.12,-5.81 -1.05,-6.56 0.21,-12.32l0.04 -16.34c0.83,-2.12 -1.63,-3.56 10.47,-3.1 6.67,0.26 6.63,1.69 6.7,-3.1 -30.69,0 -14.89,1.3 -26.13,2.49 -0.75,-3.46 -0.93,-2.71 -1.25,-6.84l412.61 0.01c0.29,-0.44 0.7,-1.65 0.79,-1.34 0.07,0.26 0.57,-0.92 0.63,-1.11l-0.18 -1.3c10.92,0 8.67,0.74 12.03,-2.46l-431.74 0.05 -0.03 -16.5 431.8 -0.01c0,0 -1.2,-2.23 -3.34,-2.23 2.97,-2.66 5.16,-2.01 5.6,-5.61 -7.35,-0.29 -3.74,1.59 -5.21,-3.05 -2.64,-8.38 2.3,-7.42 2.39,-7.52 -0.8,-2.47 -0.76,-4.17 -0.72,-7.47 0.01,-1.5 0,-3.48 0.3,-4.92 0.54,-2.55 -0.04,-1.45 1.33,-2.6 6.65,0.26 9.44,-0.23 14.26,-1.82l1.2 -4.9 -4.48 3.03c-4.79,2.14 -2.93,2.47 -4.71,-0.62l-9.34 0c-0.05,-5.55 -0.54,-3.8 -3.48,-6.51 -4.02,-3.71 1.66,-2.83 -5.24,-2.83l0 9.34 -419.45 0c-0.09,-4.56 -0.92,-5.12 -1.24,-9.33 -3.7,-1.45 -1.3,0.16 0.77,-2.07l0.17 -18.19 -3.09 1.66c-0.28,-0.36 -0.77,0.7 -0.96,1.17 0.14,-4.16 0.22,-7.89 -1.37,-11.72 -1.38,-3.32 -4.86,-1.26 -8.59,-0.73 1.62,-1.95 0.13,-0.57 0.49,-3.94 -2.88,1.98 -2.24,-0.16 -3.55,4.45 -0.51,1.78 -0.34,6.11 -0.33,8.16 0.21,26.22 -3.79,38.61 16.57,34.48zm0.97 16.59c-2.12,2.38 0.35,1.11 -4.09,2.37 -0.73,0.2 -3,0.12 -3.85,0.12l0.01 6.23 8.71 0c-0.11,5.01 -2.1,4.42 -4.97,7.47 7.05,-2.91 45.83,-1.24 54.76,-1.24l351 0c9.45,0.01 17.49,-1.22 26.13,-1.25l-8.71 0c0,-9.82 0.62,-8.7 -2.49,-9.95 0.48,-5.11 2.23,-7.1 2.48,-14.93l-2.48 -0.01c-0.01,10.79 0.79,8.6 -2.42,12.04l-190.77 0.04c-2.99,-3.56 -2.21,-5.44 -2.21,-12.07l-1.49 8.31c-0.23,2.06 -0.76,5.11 -1.01,6.62 -6.37,0 -6.31,0.86 -11.2,1.23 0.3,-0.39 0.82,-1.31 1.07,-1.01 0.23,0.28 0.73,-0.71 1.05,-0.95 0.29,-0.22 0.67,-0.55 1.01,-0.81 9.46,-7.01 1.25,-1.89 6.82,-7.18 -2.53,-0.67 -6.63,-1.15 -8.3,-2.77 -4,-3.87 -1.14,-1.67 -0.42,-2.63l-0.34 7.84c-0.64,2.58 -0.82,2.56 -1.37,3.4l-172.53 1.62c0.01,-0.05 0.27,-3.47 2.06,-0.18l0.35 1.63c0.05,0.19 0.18,0.71 0.08,1.04l-21.17 -0.39 0.01 9.11 -4.98 0 0 -24.89c-5.68,-1.33 -4.46,-0.26 -4.98,-4.98l-6.73 -0.42 0.97 16.59zm-1.72 -217.23c17.87,-22.47 38.37,5.46 65.61,-4.67 13.68,-5.09 16.39,-9.71 32.49,-1.86 33.19,16.18 37.13,-13.75 66.82,0.33 10.42,4.95 23.15,5.75 34.6,1.05 14.51,-5.95 16.58,-7.49 32.42,-0.78 7.7,3.26 26.62,6.53 33.19,0.62 2.56,-6.08 0.32,-7.84 2.48,-13.95 -9.61,2.52 -0.34,-2.81 -10.18,0.41 -7.53,-0.98 -12.62,0.33 -19.79,-2.83 -6.07,-2.67 -10.28,-4.72 -17.27,-5.35 -18.63,-1.68 -23.79,8.52 -37.28,8.23 -13.85,-0.31 -18.44,-10.14 -37.49,-8.14 -11.93,1.26 -25.6,12.29 -35.5,6.87 -8.89,-2.31 -11.92,-6.27 -22.91,-6.98 -9.23,-0.61 -15.9,1.21 -23,4.74 -19,9.47 -25.73,-3.59 -46.44,-3.61 1.67,-5.11 6.63,-9.76 9.52,-15.73l-3.61 2.48 -0.01 -9.95c-4.47,0.08 -4.98,0.29 -8.69,1.24 3.06,-4.76 1.49,-3.16 1.72,-5.02 -0.25,0.21 -0.64,0.21 -0.75,0.65 -0.11,0.43 -0.58,0.5 -0.73,0.65 -1.12,1.12 -0.79,0.7 -1.94,2.03 -0.51,0.59 -1.83,2.39 -2.67,3.58 -4.45,6.34 -25.98,34.78 -26.21,39.29 -0.57,10.92 9.12,8.03 15.62,6.7zm372.28 -88.95c5.53,11.82 40.71,55.21 43.37,63.13 -17.26,-0.37 -24.26,9.21 -38.35,6.51 -11.72,-2.25 -18.1,-11.07 -35.01,-7.1 -1.54,9.96 -1.28,0.75 -1.98,6.27 -0.42,3.4 0.55,0.74 0.74,5.87 -4.8,0.88 -2.09,0.14 -4.97,1.25l3.42 3.54c0.22,0.18 0.64,0.41 0.97,0.6 16.37,-5.03 20.44,3.48 33.95,6.04 19.07,3.63 22.85,-4.82 37.57,-6.29 -11.79,-0.64 -2.07,0.96 -6.21,-3.89 5.01,-1.65 3.43,-0.62 7.45,-0.62 7.71,0.01 2.73,-2.43 8.72,3.1l-4.92 -11.15c-0.21,-0.24 -0.96,-1.05 -1.29,-1.3 5.64,-0.82 1.77,-0.28 5.61,-0.22 1.62,0.02 3.94,0.28 5.73,0.31l6.51 -0.65c0.23,-0.08 0.57,-0.25 0.77,-0.34l1.87 -1.25c-0.69,-3.78 0.14,-1.25 -2.16,-4.93 -1.18,-1.87 -1.57,-2.23 -3.1,-4.41 -5.99,-8.48 -40.12,-57.95 -44.56,-60.26l1.93 4.54 -4.14 -2.86c-4.27,-2 4.41,0.24 -2.51,-0.92 -2.56,-0.43 -2.81,0.16 -4.3,1.1 -4.61,2.92 -2.43,9.28 -5.11,3.93zm-44.35 -25.05c15.01,22.73 31.75,53.24 46.6,77.46 2.95,4.82 4.62,6.05 12.31,4.5 7.49,-7.8 1.83,-13.72 -2.82,-21.49l-35.85 -60.66 6.21 0.09c-5.76,-4.99 -9.74,-3.77 -15.18,-4.96 -3.87,-0.85 -7.82,-9.13 -11.27,5.06zm-164.48 -0.18l16.84 0.16c-3.03,13.68 -8.55,29.53 -12.77,43.2 -2.84,9.23 -16.58,39.42 -0.72,39.48 8.89,0.03 9.06,-9.18 11.25,-16.52 2.26,-7.56 4.36,-14.44 6.63,-21.96 4.37,-14.42 9.89,-30.21 12.99,-44.2l11.01 -0.04 -2.06 -3.52 -21.33 -2.98c-4.98,-1.76 2.46,-0.08 -2.31,-0.75 -2.28,1.9 -0.95,0.78 -2.73,3.2 -0.18,0.25 0.23,4.36 -0.74,1.22 -0.04,-0.14 -0.13,0.41 -0.27,0.56 -5.95,0 -11.67,-1.23 -15.79,2.15zm93.98 95.33c9.84,-3.22 0.57,2.11 10.18,-0.41 -2.16,6.11 0.08,7.87 -2.48,13.95 6.74,-2.02 11.41,-5.57 19.82,-5.09 7.76,0.44 11.18,4.01 17.47,6.18 15.55,5.36 25.23,0.75 38.05,-4.66 -0.33,-0.19 -0.75,-0.42 -0.97,-0.6l-3.42 -3.54c2.88,-1.11 0.17,-0.37 4.97,-1.25 -0.19,-5.13 -1.16,-2.47 -0.74,-5.87 0.7,-5.52 0.44,3.69 1.98,-6.27l-6.21 0.93c-16.66,10.78 -22.16,6.77 -38.3,0.91 -12.93,-4.69 -30.86,-2.4 -40.35,5.72zm16.22 -85.03c2.94,11.38 11.51,30.56 16.03,41.36 2.85,6.83 5.3,12.75 7.84,19.61 3.81,10.26 5.01,12.13 16.15,10.55 4.48,-10.79 -0.91,-17.76 -7.52,-34.09l-14.09 -32.48 -4.53 0.03 -2.32 -8.69c-0.05,-0.69 -0.1,-0.85 -0.17,-1.27 -4.3,0.6 -9.77,2.37 -11.39,4.98zm-244.25 32.72c0.61,0.14 1.57,-0.14 1.84,0.41l2.37 -0.78c-0.27,-4.05 2.11,-2.37 3.71,-1.85 0.34,0.11 0.88,0.35 1.27,0.61 -0.98,2.2 -1.68,2.13 -1.17,5.98 0.56,4.2 1.49,2.48 3.05,6.09 3.84,-2.22 17.65,-22.89 21.51,-28.52l15.46 -22.01c5.66,-7.12 7.4,-0.14 7.4,-0.13 2.72,-3.9 2.29,5.07 2.29,-4.97 -7.35,0.11 -3.51,-0.81 -9.94,2.48 2.3,-2.52 2.8,-2.94 2.48,-6.21 -1.07,0.27 -4.7,1.18 -6.23,1.24 0,-9.19 -4.32,-7.61 -5.05,-8 -7.02,9.18 -13.03,18.09 -19.41,27.07 -3.41,4.8 -6.65,9.44 -9.76,13.9 -3.57,5.11 -7.17,8.89 -9.82,14.69zm58.14 -13.32l-5.37 0.5c-0.4,-8.35 -0.34,-5.4 -7.47,-2.49 3.01,-4.38 2.61,-2.67 3.72,-6.22 -3.18,0 -2.25,0.79 -3.07,-1.97 -3.38,2.06 -24.91,39.36 -29.79,47.53 -4.26,7.13 -5.24,11.6 2.99,15.64 8.49,0.44 9.98,-4.84 13.38,-10.54l25.61 -42.45zm235.55 22.44c2.47,6.53 4.98,12.23 7.41,18.51 3.35,8.67 3.19,13.33 14.76,11.71 6.79,-8.38 3.95,-9.65 -0.11,-20.12 -1.96,-5.04 -6.89,-17.97 -8.54,-20.34l-4.84 1.67c-3.7,2.02 1.14,1.34 -3.32,1.67 -0.23,0.01 -1.11,-0.09 -2.95,-0.72 1.07,6.59 2.15,3.56 -2.41,7.62zm88.9 52.91c17.21,-0.54 30.67,21.87 36.96,4.25 -0.13,-5.53 -1.93,-7.1 -4.57,-10.63 -2.69,-3.59 -4.51,-7.66 -8.15,-9.63l-1.87 1.25c-0.2,0.09 -0.54,0.26 -0.77,0.34l-6.51 0.65c-1.79,-0.03 -4.11,-0.29 -5.73,-0.31 -3.84,-0.06 0.03,-0.6 -5.61,0.22 0.33,0.25 1.08,1.06 1.29,1.3l4.92 11.15c-5.99,-5.53 -1.01,-3.09 -8.72,-3.1 -4.02,0 -2.44,-1.03 -7.45,0.62 4.14,4.85 -5.58,3.25 6.21,3.89zm-159.41 -48.7c1.13,5.27 3.74,15.79 5.72,20.48 3.24,7.65 12.91,8.72 15.75,0.86 1.68,-4.63 -4.36,-21.08 -6.54,-28.68 -1.49,-5.2 -1.4,-6.96 -4.11,-9.91 -4.36,5.44 -0.92,1.5 -1.2,6.25l-3.5 5.82c-1.14,1.02 -0.89,-0.11 -2.14,1.85 -3.5,5.48 0.31,4.49 1.09,5.19 -4.35,-0.58 -0.54,1.97 -5.07,-1.86zm-223.18 -13.33c-2.56,1.54 -11.98,14.86 -12.72,18.26 -0.23,1.86 1.34,0.26 -1.72,5.02 3.71,-0.95 4.22,-1.16 8.69,-1.24l0.01 9.95 3.61 -2.48c2.21,-1.3 12.34,-15.11 13.2,-19.05 -1.56,-3.61 -2.49,-1.89 -3.05,-6.09 -0.51,-3.85 0.19,-3.78 1.17,-5.98 -0.39,-0.26 -0.93,-0.5 -1.27,-0.61 -1.6,-0.52 -3.98,-2.2 -3.71,1.85l-2.37 0.78c-0.27,-0.55 -1.23,-0.27 -1.84,-0.41zm-27.69 356.06c1.56,2.5 1.01,-0.79 0.79,5.78l9.96 0 0 -19.92 -11.43 -2.9 0.68 17.04z"/>
 </g>
</svg>
