<?xml version="1.0" encoding="UTF-8"?>
<!DOCTYPE svg PUBLIC "-//W3C//DTD SVG 1.1//EN" "http://www.w3.org/Graphics/SVG/1.1/DTD/svg11.dtd">
<!-- Creator: CorelDRAW 2019 (64-Bit) -->
<svg xmlns="http://www.w3.org/2000/svg" xml:space="preserve" width="100%" height="100%" version="1.1" style="shape-rendering:geometricPrecision; text-rendering:geometricPrecision; image-rendering:optimizeQuality; fill-rule:evenodd; clip-rule:evenodd"
viewBox="0 0 698.27 465.67"
 xmlns:xlink="http://www.w3.org/1999/xlink">
 <defs>
  <style type="text/css">
   <![CDATA[
    .fil0 {fill:#A6A182}
   ]]>
  </style>
 </defs>
 <g id="Layer_x0020_1">
  <metadata id="CorelCorpID_0Corel-Layer"/>
  <path class="fil0" d="M148.54 407.65l94.85 -0.1 0.82 23.31 -95.42 -0.09 -0.25 -23.12zm-126.49 -26.8l348.39 -0.17c-8.9,12.6 -19.21,9.37 -36.3,9.31l-274.62 0.02c-17.6,0.03 -28.02,3.5 -37.47,-9.16zm-1.63 -190.96c1.01,-23.37 58.37,-14.56 78.97,-14.56 63.48,0 126.97,0 190.46,0 23.6,0 75.52,-7.62 81.32,11.89 2.17,2.71 2.1,-4.14 2.85,7.08l0 168.31 -355.69 0.1 -0.04 -168.25c0.86,-4.08 0.8,-2.5 2.13,-4.57zm500.56 108.88c-8.3,-4.13 -57.16,-53.91 -64.2,-63.02l123.87 0.12c-5.79,13.66 -45.55,45.01 -59.67,62.9zm-35.52 -137.78c3.04,-4.51 -0.24,-2.48 5.88,-3.75l61.76 0.84 -0.46 60.86 -61.25 0.24c-11.95,-0.76 -3.49,0.14 -6.47,-3.34l0.54 -54.85zm89.76 -38.64l0.18 16.11c-2.49,2.41 3,2.86 -13.06,2.79 -21.26,-0.09 -90.15,1.29 -101.07,-1.3l0.36 -19.71 103 -1.41c8.86,0.22 7.92,-1.79 10.59,3.52zm24.88 -47.19l-0.09 25.79c-9.59,6.25 -161.07,1.67 -162.77,1.31 -3.14,-8.22 -3.11,-20.36 0,-28.54 13.94,-2.78 99.21,-1.01 125.02,-1.01 6.64,0 13.3,0.05 19.94,-0.01 11.2,-0.11 12.14,-1.32 17.9,2.46zm-570.92 331.35l100.91 0.65 0.52 24.12 -33.72 -0.09 -6.7 3.53c0.22,13.75 -0.23,7.85 4.78,13.63l200.79 -0.37c10.6,-4.01 7.07,-12.28 -0.39,-16.06l-33.7 -0.8c-0.22,-4.08 -0.72,-9.72 -0.59,-13.27 0.45,-12.76 -0.59,-7.26 4.4,-10.25 20.51,-0.33 41.41,-0.06 62.02,-0.06 32.97,0 28.92,1.6 54.56,-9.01 2.92,-8.37 8.77,-12.52 9.57,-27.07 1.48,-26.78 1.69,-180.01 -3.03,-191.62 -9.6,-23.66 -27.23,-21.97 -56.67,-21.95 -77.41,0.05 -244.09,-2.91 -311.02,2.09l-2.55 -141.94c20.49,-3.68 485.1,-1.47 491.42,0.59 0.7,6.61 3.23,35.36 -2.88,37.24 -29.76,3.2 -82.07,-8.61 -86.62,8.11 -0.96,3.5 -0.9,4.69 -1.02,8.38 -0.17,5.52 0.23,12.13 0.21,17.86 -0.09,22.96 -2.86,24.09 6.02,28.4l19.04 1.14 0.2 32.88c3.05,7.49 11.82,5.18 22.46,5.48l-0.11 59.84c-13.54,0.08 -30.35,-1.5 -40.87,1.93 -4.15,14.11 7.17,20.18 14.41,27.39l64.97 66.99c5.07,3.29 2.22,0.22 4.07,6.42l0.35 117.25c-0.05,11.21 -2.87,24.87 6.08,27.18 13.62,3.51 11.69,-10.45 11.55,-20.49 -0.29,-20.68 -0.1,-41.39 -0.11,-62.08 -0.02,-76.73 -9.47,-58.01 29.02,-96.5 10.87,-10.88 20.05,-20.18 30.98,-31.02 9.95,-9.87 23.66,-17.07 24.73,-34.55 -11.34,-3.02 -26.29,-2.42 -39.73,-2.35 -3.94,-3.27 -2.87,5.12 -3.67,-6.11 0.02,-13.87 -2.15,-42.35 1.42,-54.34l18.07 -1.53 5.02 -2.96 0.83 -33.02 22.82 -2.35c2.15,-13.17 1.46,-41.28 0.71,-57.28l-5.47 -2.87 -85.23 -1.35 -0.44 -49.95c-3.71,-6.95 2.08,-4.44 -9.08,-5.94 -2.09,-0.28 -8.13,0.05 -10.63,0.04l-473.94 -0.01c-41.02,-0.07 -32.12,-13.25 -32.12,107.47l0 217.04c0,38.87 -8.23,70.97 28.36,81.54zm668.09 25.82l-2.15 -1.03c-23.18,-1.96 -143.51,-3.85 -157.17,2.14 -2.97,18.28 1.49,14.88 30.95,14.84 26.03,-0.04 117.9,2.72 129.37,-2.72l-1 -13.23zm-194.27 -0.25c-3.25,-0.4 -1.56,1.69 -2.77,-1.22 -29.88,-0.98 -60.79,-0.26 -90.79,-0.26 -14.76,0 -29.58,0.12 -44.33,-0.03 -7.47,-0.08 -16.11,-1.37 -20.19,2.97 -5.85,6.21 -2.16,12.22 3.43,14.2l132.03 0.57c18.29,0.19 25.43,3.04 22.62,-16.23zm35.46 -43.37c8.33,4.16 10.2,3.73 16.45,-2.54 3.75,-3.76 6.5,-7.18 10.69,-11.33l44.34 -44.26c15.45,-15.34 18.09,-13.38 15.25,-26.67 -10.24,-3.48 -10.24,-3.31 -16.6,3.13l-54.65 56.12c-7.01,6.97 -18.76,12.94 -15.48,25.55zm-48.51 2.7c27.75,-0.43 8.42,-18.21 1.8,-24.73 -8.84,-8.7 -19.36,-16.3 -25.14,-27.04l-13.61 1.35c-2.2,16.24 6.35,19.39 14.64,27.66 7.7,7.67 16.83,15.36 22.31,22.76zm-8.25 15.51c-3.46,5.25 -52.48,5.24 -56.7,0l3 -1.44c9.24,-2.67 -8.24,0.85 3.6,-0.85 0.84,-0.12 5.4,-0.18 6.48,-0.19 11.12,-0.09 38.34,-1.44 43.62,2.48zm2.7 9.68c16.56,-26.82 -37.67,-18.1 -57.23,-18.07 -9.89,2.85 -8.24,6.1 -7.13,15.6 15.65,4.69 45.81,1.55 64.36,2.47zm115.61 -315.65l-162.34 0.23 0.04 -26.44 162.39 0.42c-5.76,-3.78 -6.7,-2.57 -17.9,-2.46 -6.64,0.06 -13.3,0.01 -19.94,0.01 -25.81,0 -111.08,-1.77 -125.02,1.01 -3.11,8.18 -3.14,20.32 0,28.54 1.7,0.36 153.18,4.94 162.77,-1.31zm8.74 314.82l-0.21 -3.18c-2.37,-3.39 -2.89,-2.53 -15.16,-2.29 -11.65,0.22 -39.79,2.6 -43.31,-3.38 2.18,-1.88 0.88,-1.5 5.66,-2.29l55.14 0.06 -3.2 -5.92c-13.68,-0.45 -27.34,-0.15 -41.03,-0.28 -14.81,-0.13 -25.45,-3.18 -22.11,15.29 13.71,5.22 47.24,3.27 64.22,1.99zm-0.21 -3.18l2.99 0.96 -0.66 -8.86 -55.14 -0.06c-4.78,0.79 -3.48,0.41 -5.66,2.29 3.52,5.98 31.66,3.6 43.31,3.38 12.27,-0.24 12.79,-1.1 15.16,2.29zm-183.54 -5.67c4.22,5.24 53.24,5.25 56.7,0 -5.28,-3.92 -32.5,-2.57 -43.62,-2.48 -1.08,0.01 -5.64,0.07 -6.48,0.19 -11.84,1.7 5.64,-1.82 -3.6,0.85l-3 1.44z"/>
 </g>
</svg>
