<?xml version="1.0" encoding="UTF-8"?>
<!DOCTYPE svg PUBLIC "-//W3C//DTD SVG 1.1//EN" "http://www.w3.org/Graphics/SVG/1.1/DTD/svg11.dtd">
<!-- Creator: CorelDRAW 2019 (64-Bit) -->
<svg xmlns="http://www.w3.org/2000/svg" xml:space="preserve" width="100%" height="100%" version="1.1" style="shape-rendering:geometricPrecision; text-rendering:geometricPrecision; image-rendering:optimizeQuality; fill-rule:evenodd; clip-rule:evenodd"
viewBox="0 0 465.72 465.66"
 xmlns:xlink="http://www.w3.org/1999/xlink">
 <defs>
  <style type="text/css">
   <![CDATA[
    .fil0 {fill:#A6A182}
   ]]>
  </style>
 </defs>
 <g id="Layer_x0020_1">
  <metadata id="CorelCorpID_0Corel-Layer"/>
  <path class="fil0" d="M271.56 308.85c2.74,-9.11 3.09,-10.86 7.29,-16.34l10.56 0.85c6.96,14.91 -3.06,15.75 -17.85,15.49zm-79.32 0.05l-19.58 -1.81c-1.62,-24.16 15.87,-17.43 19.58,1.81zm71.29 -17.66c-4.58,5.95 -7.94,6.68 -24,3.02 -2.65,-11.07 -2.5,-13.34 1.2,-20.47 17.2,-3.19 21.53,-7.8 31.03,-17.66 9.29,-9.65 25.96,-6.03 41.99,-6.02 33.3,0.02 67.8,0.86 100.93,-0.09 6.48,13.24 31.03,116.23 34.5,136.7l-432.58 0.06 34.57 -136.72c18.78,0.25 130.83,-4.8 141.37,4.88 11.96,10.99 13.17,14.53 32.4,18.9 3.65,6.93 3.92,9.04 1.26,20.38l-19.35 1.05c-4.51,-0.95 -4.03,-1.46 -6.06,-2.63 -21.88,-32.32 -42.63,1.39 -43.57,1.7 -14.78,0 -29.57,0.01 -44.35,0 -26.03,-0.03 -33.77,-4.32 -40.82,6.42 3.57,6.16 0.14,3.24 7.06,5.79 6.85,2.52 74.81,-0.24 78.11,0.83 9.11,6.59 5.17,10.19 16.51,13.55 9.32,2.76 22.43,0.19 32.35,-0.34 9.72,-12.74 -7.62,-13.51 19.75,-12.99 1.85,18.26 -4.35,34.33 7.05,34.33 11.43,0 5.17,-16.19 7.06,-34.14l14.77 -0.4c0.06,15.23 2.96,14.44 22.55,14.79 19.71,0.36 18.56,-3.07 28.67,-14.71 17.95,-0.31 42.59,-1.42 59.95,-0.25 19.38,1.3 24.4,22.05 -7.6,21.93l-91.61 -0.29c-16.62,-0.3 -20.58,-3.42 -21.16,12.15 17.14,2.85 126.97,4.59 137.53,-2.27 14.13,-9.17 15.9,-36.69 -4.8,-42.81 -12.46,-3.68 -56.01,-1.3 -72.31,-1.8 -14.87,-14.78 -20.81,-25.8 -42.4,-2.89zm7.7 -86.39c1.82,31.74 -6.24,55.46 -38.28,55.74 -32.18,0.28 -40.26,-24.45 -38.41,-55.82l76.69 0.08zm-76.6 -26.19l76.72 0.15 0.14 12.86 -77.44 -0.19 0.58 -12.82zm-20.19 -129.27l118.1 0.52 1.35 115.69 -120.76 -0.49 1.31 -115.72zm131.93 48.26l145.09 0.29 -0.64 19.31 -144.76 -0.17 0.31 -19.43zm-145.29 -13.48c-4.67,5.75 0.45,2.46 -8.97,5l-135.82 1.55c7.1,1.29 -1.47,0.22 5.18,0.85 4.42,0.42 5.72,0.19 9.8,-0.25 42.25,-4.59 75.91,-1.25 115.52,0.04l14.11 4.94c4.64,5.22 6.24,22.45 6.74,32.26 -26.84,-9.89 -126.37,-5.19 -156.5,-5.19 0.81,0.34 1.78,0.61 2.53,0.79 19.04,4.66 105.04,0.78 130.65,1.44 18.23,0.48 15.47,3.15 16.86,5.38 -9.85,57.69 7.94,47.74 19.08,47.68l1.88 57.69 -139.21 1.44 -8.04 18.91c-37.41,164.4 -59.05,143.36 25.8,143.36l289.59 -0.06c136.32,-0.48 123.5,21.39 95.87,-82.56l-18.43 -73.07c-4.19,-9.19 -0.58,-2.82 -4.84,-7.89l-138.51 -0.07 1.38 -57.74c25.35,0.12 19.68,5.04 19.97,-48.03l146 0.37c-0.2,16.85 -5.1,50.57 3.88,61.46 14.34,-1.13 9.22,-21.97 9.2,-37.81l0 -96.53c0.04,-16.06 5.26,-34.34 -9.61,-35.52 -8.58,12.2 -3.22,44.06 -3.66,61.81l-145.42 -0.23c-1.65,-34.26 6.06,-44.87 -10.67,-47.72l-26.27 0c-13.28,-1.03 -8.84,-6.09 -8.8,-21.56 31.55,-4.13 115.45,4.65 137.06,-2.83 -1.2,-14.09 -2.29,-11.21 -31.49,-11.04 -25.13,0.15 -107.11,-3.92 -116.74,3.06l-3.28 33.09c-8.9,1.4 -17.95,2.22 -27.83,-1.1l0.19 -31.68c-2.18,-1.87 -2.19,-3.62 -9.29,-2.61l-3.54 20.07c0.1,10.49 2.24,11.87 -4.58,14.12 -21.9,7.21 -51.23,-21.85 -39.79,48.18zm-0.18 12.13l-1.66 20.94 -144.77 -0.23 0.36 -19.24 146.07 -1.47zm0.28 34.68c-1.39,-2.23 1.37,-4.9 -16.86,-5.38 -25.61,-0.66 -111.61,3.22 -130.65,-1.44 -0.75,-0.18 -1.72,-0.45 -2.53,-0.79 30.13,0 129.66,-4.7 156.5,5.19 -0.5,-9.81 -2.1,-27.04 -6.74,-32.26l-14.11 -4.94c-39.61,-1.29 -73.27,-4.63 -115.52,-0.04 -4.08,0.44 -5.38,0.67 -9.8,0.25 -6.65,-0.63 1.92,0.44 -5.18,-0.85l135.82 -1.55c9.42,-2.54 4.3,0.75 8.97,-5l-146.76 0.23c-0.47,-17.81 4.82,-49.49 -3.56,-61.9 -15.17,1.24 -9.87,19.16 -9.83,35.63l0 96.53c-0.02,16.01 -5.24,36.87 9.33,37.81 8.97,-10.72 3.99,-44.8 3.81,-61.49l147.11 0zm207.18 300.92c37.28,8.41 -5.43,43.03 0,0zm-11.26 -16.91c-2.17,11.86 -5.47,31.53 1.25,42.13 5.61,8.85 21.29,12.08 31.67,3.35 23.6,-19.84 -8.8,-45.85 -32.92,-45.48zm-259.69 16.93c5.57,42.73 -37.4,9.01 0,0zm11.18 -16.91c-23.66,-0.77 -56.29,25.75 -32.8,45.37 11.55,9.66 27.68,4.93 32.61,-4.97 5.39,-10.82 2.22,-30.12 0.19,-40.4zm73.5 -65.83c10,-4.91 6.65,-3.74 18.93,-3.11 -2.53,11.2 -4.18,16.22 -18.64,15.25l-0.29 -12.14zm-3.2 25.55c34.83,3.01 39.85,-30.84 38.27,-39.73 -13.27,-2.66 -34.85,-5.6 -44.53,4.58 -15.47,16.26 5.14,33.77 6.26,35.15zm53.99 55.72c22.77,23.76 -10.06,29.58 -7.79,11.71 0.41,-3.28 1.5,-4.49 3.54,-7.39 2.05,-2.92 3.3,-3.34 4.25,-4.32zm18.85 24.24c7.38,-12.99 -2.68,-26.93 -9.25,-35.83 -10.98,-14.87 -14.63,-7.15 -23.46,6.4 -24.48,37.55 19.83,52.11 32.71,29.43zm57.74 -3.97c-17.7,2.71 -15.09,-4.79 -11.27,-19.54 9,4.39 12.41,8.34 11.27,19.54zm-17.74 -38.03c-3.77,6.7 -11.3,25.19 -9.32,36.36 2.08,11.75 15.08,19.9 29.18,14.28 29.42,-11.71 1.46,-48.08 -19.86,-50.64zm-123.99 18.42c3.21,15.07 6.88,22.17 -11.55,19.72 -1.02,-11.21 2.44,-15.58 11.55,-19.72zm6.23 -18.67c-20.46,3.11 -49.54,37.85 -19.74,50.67 13.82,5.95 26.87,-1.87 29.1,-14.04 2.23,-12.2 -5.5,-29.2 -9.36,-36.63zm58.91 18.01c-0.95,0.98 -2.2,1.4 -4.25,4.32 -2.04,2.9 -3.13,4.11 -3.54,7.39 -2.27,17.87 30.56,12.05 7.79,-11.71zm135.48 1.45c-5.43,43.03 37.28,8.41 0,0zm-270.95 0.02c-37.4,9.01 5.57,42.73 0,0zm70.33 -0.81c-9.11,4.14 -12.57,8.51 -11.55,19.72 18.43,2.45 14.76,-4.65 11.55,-19.72zm141.73 19.61c1.14,-11.2 -2.27,-15.15 -11.27,-19.54 -3.82,14.75 -6.43,22.25 11.27,19.54z"/>
 </g>
</svg>
