<svg width="166" height="61" viewBox="0 0 166 61" fill="none" xmlns="http://www.w3.org/2000/svg">
<path d="M19.9389 8.67879C19.9389 3.88563 16.0565 0 11.2673 0C6.47812 0 2.5957 3.88563 2.5957 8.67879C2.5957 13.472 6.47812 17.3576 11.2673 17.3576C16.0565 17.3576 19.9389 13.472 19.9389 8.67879Z" fill="#FF4612"/>
<path fill-rule="evenodd" clip-rule="evenodd" d="M2.837 24.5756L2.84002 24.573L2.88934 24.5247L2.83739 24.576C5.03873 22.3721 8.1588 21.6166 10.9909 22.3045C8.19598 21.6253 5.12138 22.3531 2.92767 24.4875C4.48713 22.9757 6.67821 22.1101 9.14546 22.2483C14.174 22.53 18.5182 26.8778 18.7993 31.9102L19.3114 41.0606L10.1685 40.5484C5.14039 40.2667 0.796131 35.9189 0.514291 30.8859C0.377379 28.4299 1.2324 26.2472 2.72777 24.6876L2.837 24.5756ZM35.7858 57.5456L35.7828 57.5486C35.4683 57.8634 35.1356 58.1481 34.7874 58.4033C35.1356 58.1477 35.4683 57.863 35.7824 57.5483C34.218 59.1128 31.9909 60.0138 29.477 59.8729C24.4488 59.5912 20.1046 55.2434 19.8232 50.211L19.3114 41.0606L28.4543 41.5731C33.4825 41.8545 37.8267 46.2023 38.1085 51.2353C38.2451 53.6811 37.3977 55.8565 35.9164 57.4119L35.7858 57.5456Z" fill="#FF4612"/>
<path d="M45.4609 7.93973C45.4609 6.90696 45.824 6.01765 46.5501 5.27174C47.2763 4.52588 48.1744 4.15295 49.2445 4.15295C50.3147 4.15295 51.2128 4.52588 51.9389 5.27174C52.6651 6.01765 53.0282 6.90696 53.0282 7.93973C53.0282 9.04895 52.6651 9.96696 51.9389 10.6937C51.2128 11.4205 50.3147 11.7838 49.2445 11.7838C48.1744 11.7838 47.2763 11.4205 46.5501 10.6937C45.824 9.96696 45.4609 9.04895 45.4609 7.93973ZM45.8049 16.2591H52.6842V44.9466H45.8049V16.2591ZM69.0226 15.7427C71.545 15.7427 73.5802 16.1826 75.128 17.0623C76.6759 17.9421 77.8893 19.0322 78.7683 20.3327C79.6473 19.0322 80.8608 17.9421 82.4086 17.0623C83.9564 16.1826 85.9916 15.7427 88.514 15.7427C90.8836 15.7427 92.8995 16.1348 94.5621 16.9189C96.2246 17.703 97.5909 18.6976 98.661 19.9024C99.7311 21.1073 100.505 22.4173 100.983 23.8326C101.46 25.2478 101.699 26.5866 101.699 27.8488V44.9466H94.82V28.021C94.82 26.9882 94.6481 26.1085 94.3041 25.3817C93.9601 24.655 93.5015 24.043 92.9282 23.5457C92.355 23.0485 91.6861 22.6851 90.9218 22.4556C90.1574 22.2261 89.3548 22.1113 88.514 22.1113C87.6732 22.1113 86.8706 22.2261 86.1063 22.4556C85.3419 22.6851 84.6731 23.0485 84.0998 23.5457C83.5265 24.043 83.0679 24.655 82.7239 25.3817C82.38 26.1085 82.208 26.9882 82.208 28.021V44.9466H75.3287V28.021C75.3287 26.9882 75.1567 26.1085 74.8127 25.3817C74.4688 24.655 74.0101 24.043 73.4368 23.5457C72.8636 23.0485 72.1948 22.6851 71.4304 22.4556C70.666 22.2261 69.8634 22.1113 69.0226 22.1113C68.1818 22.1113 67.3792 22.2261 66.6148 22.4556C65.8505 22.6851 65.1816 23.0485 64.6084 23.5457C64.0351 24.043 63.5765 24.655 63.2325 25.3817C62.8885 26.1085 62.7166 26.9882 62.7166 28.021V44.9466H55.8372V27.8488C55.8372 26.5866 56.0761 25.2478 56.5539 23.8326C57.0316 22.4173 57.8055 21.1073 58.8756 19.9024C59.9457 18.6976 61.312 17.703 62.9745 16.9189C64.6371 16.1348 66.6531 15.7427 69.0226 15.7427ZM119.07 15.8575C122.318 15.8575 125.127 16.6033 127.497 18.0951C129.866 19.5869 131.605 21.6332 132.714 24.2342C132.026 25.1905 131.194 26.3953 130.22 27.8488C129.245 29.3024 128.185 30.7941 127.038 32.3241V30.6602C127.038 27.9827 126.322 25.8981 124.888 24.4064C123.455 22.9146 121.535 22.1687 119.127 22.1687C116.719 22.1687 114.789 22.9146 113.337 24.4064C111.885 25.8981 111.158 27.9827 111.158 30.6602C111.158 33.3377 111.885 35.4223 113.337 36.9141C114.789 38.4059 116.719 39.1517 119.127 39.1517C121 39.1517 122.634 38.578 124.028 37.4305C125.423 36.283 126.752 34.8486 128.013 33.1273C129.274 31.4061 130.554 29.5318 131.854 27.5046C133.153 25.4773 134.663 23.6031 136.383 21.8818C138.102 20.1606 140.118 18.7262 142.431 17.5787C144.743 16.4312 147.523 15.8575 150.772 15.8575C154.517 15.8575 157.651 16.8233 160.174 18.7549C162.696 20.6865 164.339 23.2971 165.104 26.5866H157.938C157.326 25.1713 156.39 24.0812 155.129 23.3162C153.867 22.5512 152.377 22.1687 150.657 22.1687C148.364 22.1687 146.415 22.6086 144.81 23.4883C143.205 24.3681 141.781 25.506 140.539 26.9021C139.297 28.2983 138.16 29.8474 137.128 31.5495C136.096 33.2517 135.026 34.9251 133.918 36.5699V44.9466H127.038V43.4548C125.701 44.2199 124.344 44.7458 122.968 45.0327C121.592 45.3195 120.121 45.463 118.554 45.463C116.49 45.463 114.579 45.1092 112.821 44.4015C111.063 43.6939 109.553 42.6899 108.292 41.3894C107.031 40.0889 106.047 38.5206 105.34 36.6846C104.633 34.8486 104.279 32.8213 104.279 30.6028C104.279 28.3843 104.633 26.3666 105.34 24.5498C106.047 22.7329 107.05 21.1838 108.349 19.9024C109.649 18.621 111.206 17.6265 113.022 16.9189C114.837 16.2113 116.853 15.8575 119.07 15.8575ZM150.772 45.463C147.065 45.463 143.94 44.5067 141.399 42.5942C138.857 40.6818 137.185 38.0998 136.383 34.8486C136.879 33.9688 137.472 32.9935 138.16 31.9225C138.848 30.8514 139.564 29.8283 140.31 28.8529C141.055 27.8775 141.781 27.036 142.488 26.3284C143.195 25.6208 143.816 25.2096 144.351 25.0948C143.281 26.5101 142.746 28.3652 142.746 30.6602C142.746 33.3377 143.463 35.4223 144.896 36.9141C146.329 38.4059 148.249 39.1517 150.657 39.1517C152.415 39.1517 153.925 38.7501 155.186 37.9469C156.447 37.1436 157.384 36.0152 157.995 34.5617H165.161C164.397 37.9277 162.753 40.5861 160.231 42.5368C157.708 44.4876 154.555 45.463 150.772 45.463Z" fill="#24282B"/>
<path d="M45.4609 51.588V55.8958H47.6131C48.2034 55.8958 48.7383 55.6558 49.1257 55.262C49.1687 55.2189 49.2118 55.1758 49.2487 55.1327C49.5684 54.7573 49.7591 54.2712 49.7591 53.7419C49.7591 52.5481 48.7937 51.588 47.6069 51.588H45.4609ZM46.2234 52.3573H47.6069C48.3694 52.3573 48.9904 52.9799 48.9904 53.745C48.9904 54.5102 48.3694 55.1327 47.6069 55.1327H46.2234V52.3573ZM51.5423 52.3573H54.6843V51.588H51.5423C50.9027 51.588 50.3862 52.1112 50.3862 52.7512V54.7328C50.3862 55.3728 50.9027 55.8958 51.5423 55.8958H54.6843V55.1266H51.5423C51.327 55.1266 51.1487 54.9481 51.1487 54.7328V53.9204H53.9157V53.1512H51.1487V52.7512C51.1487 52.5358 51.327 52.3573 51.5423 52.3573ZM59.3698 52.7758V52.7512C59.3698 52.1112 58.8472 51.588 58.2077 51.588H56.4614C55.8219 51.588 55.3054 52.1112 55.3054 52.7512V52.7758C55.3054 53.0219 55.3792 53.2496 55.5083 53.4342C55.5513 53.502 55.6006 53.5635 55.6559 53.6189C55.8649 53.822 56.1478 53.945 56.4614 53.945H58.0109C58.3368 53.945 58.6073 54.2097 58.6073 54.5358C58.6073 54.862 58.3368 55.1266 58.0109 55.1266H56.6643C56.3384 55.1266 56.074 54.862 56.074 54.5358H55.3054C55.3054 55.2866 55.9141 55.8958 56.6643 55.8958H58.0109C58.7611 55.8958 59.3698 55.2866 59.3698 54.5358C59.3698 54.2097 59.253 53.9081 59.0624 53.6743C59.0439 53.6558 59.0316 53.6373 59.0132 53.6189C58.7672 53.3481 58.4106 53.1757 58.0109 53.1757H56.4614C56.2462 53.1757 56.0678 52.9973 56.0678 52.7819V52.7573C56.0678 52.5419 56.2462 52.3634 56.4614 52.3634H58.2077C58.4229 52.3634 58.6012 52.5419 58.6012 52.7573V52.7819L59.3698 52.7758ZM60.7533 55.8958V51.588H59.9847V55.8958H60.7533ZM63.5203 52.3573H65.6725V51.588H63.5203C62.3336 51.588 61.3682 52.5542 61.3682 53.7419C61.3682 54.9296 62.3336 55.8958 63.5203 55.8958H65.6725V53.5327H63.5203V54.302H64.9038V55.1266H63.5203C62.7578 55.1266 62.1368 54.505 62.1368 53.7419C62.1368 52.9789 62.7578 52.3573 63.5203 52.3573ZM69.823 51.588V54.3286L67.056 52.1962L66.2873 51.6065V55.8958H67.056V53.1737L69.823 55.3061L70.5916 55.8958V51.5942L69.823 51.588ZM75.4677 53.3542C75.1971 53.3542 74.9696 53.1266 74.9696 52.8496C74.9696 52.5788 75.1971 52.3511 75.4677 52.3511H77.6874V51.5819H75.4677C74.7728 51.5819 74.2071 52.148 74.2071 52.8434C74.2071 53.1881 74.3424 53.502 74.5638 53.7296C74.3424 53.9573 74.2071 54.2712 74.2071 54.6158C74.2071 55.3112 74.7728 55.8774 75.4677 55.8774H77.6874V54.1112H78.4561V53.3358L75.4677 53.3542ZM76.925 55.1081H75.4738C75.2033 55.1081 74.9758 54.8804 74.9758 54.6096C74.9758 54.3327 75.2033 54.105 75.4738 54.105H76.925V55.1081ZM83.2215 52.3573H86.3636V51.588H83.2215C82.5819 51.588 82.0654 52.1112 82.0654 52.7512V54.7328C82.0654 55.3728 82.5819 55.8958 83.2215 55.8958H86.3636V55.1266H83.2215C83.0062 55.1266 82.8279 54.9481 82.8279 54.7328V53.9204H85.5949V53.1512H82.8279V52.7512C82.8279 52.5358 83.0062 52.3573 83.2215 52.3573ZM90.5141 51.588V54.3286L87.7471 52.1962L86.9784 51.6065V55.8958H87.7471V53.1737L90.5141 55.3061L91.2827 55.8958V51.5942L90.5141 51.588ZM94.0497 52.3573H96.2019V51.588H94.0497C92.863 51.588 91.8976 52.5542 91.8976 53.7419C91.8976 54.9296 92.863 55.8958 94.0497 55.8958H96.2019V53.5327H94.0497V54.302H95.4332V55.1266H94.0497C93.2872 55.1266 92.6662 54.505 92.6662 53.7419C92.6662 52.9789 93.2872 52.3573 94.0497 52.3573ZM97.5854 55.8958V51.588H96.8167V55.8958H97.5854ZM101.736 51.588V54.3286L98.9688 52.1962L98.2002 51.6065V55.8958H98.9688V53.1737L101.736 55.3061L102.504 55.8958V51.5942L101.736 51.588ZM104.282 52.3573H107.424V51.588H104.282C103.642 51.588 103.125 52.1112 103.125 52.7512V54.7328C103.125 55.3728 103.642 55.8958 104.282 55.8958H107.424V55.1266H104.282C104.066 55.1266 103.888 54.9481 103.888 54.7328V53.9204H106.655V53.1512H103.888V52.7512C103.888 52.5358 104.066 52.3573 104.282 52.3573ZM109.201 52.3573H112.343V51.588H109.201C108.561 51.588 108.045 52.1112 108.045 52.7512V54.7328C108.045 55.3728 108.561 55.8958 109.201 55.8958H112.343V55.1266H109.201C108.985 55.1266 108.807 54.9481 108.807 54.7328V53.9204H111.574V53.1512H108.807V52.7512C108.807 52.5358 108.985 52.3573 109.201 52.3573ZM115.817 53.9081C115.934 53.8958 116.044 53.865 116.149 53.8158C116.549 53.6312 116.825 53.225 116.825 52.7573C116.825 52.4373 116.696 52.148 116.487 51.9388C116.278 51.7296 115.989 51.6003 115.669 51.6003H112.951V55.9082H113.72V53.9266H114.489C114.765 53.9266 115.005 54.0742 115.141 54.2958L115.159 54.3327L115.571 55.1389L115.964 55.9082H116.825L116.432 55.1389L115.817 53.9081ZM113.72 53.1635V52.3696H115.669C115.805 52.3696 115.897 52.4312 115.946 52.4803C115.989 52.5234 116.063 52.6219 116.063 52.7635C116.063 52.9173 115.971 53.0588 115.829 53.1204C115.78 53.145 115.725 53.1573 115.669 53.1573L113.72 53.1635ZM118.215 55.8958V51.588H117.446V55.8958H118.215ZM122.365 51.588V54.3286L119.598 52.1962L118.83 51.6065V55.8958H119.598V53.1737L122.365 55.3061L123.134 55.8958V51.5942L122.365 51.588ZM125.901 52.3573H128.053V51.588H125.901C124.714 51.588 123.749 52.5542 123.749 53.7419C123.749 54.9296 124.714 55.8958 125.901 55.8958H128.053V53.5327H125.901V54.302H127.285V55.1266H125.901C125.139 55.1266 124.518 54.505 124.518 53.7419C124.518 52.9789 125.139 52.3573 125.901 52.3573ZM135.733 52.7758V52.7512C135.733 52.1112 135.211 51.588 134.571 51.588H132.825C132.185 51.588 131.669 52.1112 131.669 52.7512V52.7758C131.669 53.0219 131.743 53.2496 131.872 53.4342C131.915 53.502 131.964 53.5635 132.019 53.6189C132.228 53.822 132.511 53.945 132.825 53.945H134.374C134.7 53.945 134.971 54.2097 134.971 54.5358C134.971 54.862 134.7 55.1266 134.374 55.1266H133.028C132.702 55.1266 132.437 54.862 132.437 54.5358H131.669C131.669 55.2866 132.278 55.8958 133.028 55.8958H134.374C135.125 55.8958 135.733 55.2866 135.733 54.5358C135.733 54.2097 135.616 53.9081 135.426 53.6743C135.407 53.6558 135.395 53.6373 135.377 53.6189C135.131 53.3481 134.774 53.1757 134.374 53.1757H132.825C132.61 53.1757 132.431 52.9973 132.431 52.7819V52.7573C132.431 52.5419 132.61 52.3634 132.825 52.3634H134.571C134.786 52.3634 134.965 52.5419 134.965 52.7573V52.7819L135.733 52.7758ZM137.51 52.3573H140.652V51.588H137.51C136.871 51.588 136.354 52.1112 136.354 52.7512V54.7328C136.354 55.3728 136.871 55.8958 137.51 55.8958H140.652V55.1266H137.51C137.295 55.1266 137.117 54.9481 137.117 54.7328V53.9204H139.884V53.1512H137.117V52.7512C137.117 52.5358 137.295 52.3573 137.51 52.3573ZM144.126 53.9081C144.243 53.8958 144.354 53.865 144.459 53.8158C144.858 53.6312 145.135 53.225 145.135 52.7573C145.135 52.4373 145.006 52.148 144.797 51.9388C144.588 51.7296 144.299 51.6003 143.979 51.6003H141.261V55.9082H142.03V53.9266H142.798C143.075 53.9266 143.315 54.0742 143.45 54.2958L143.469 54.3327L143.881 55.1389L144.274 55.9082H145.135L144.741 55.1389L144.126 53.9081ZM142.03 53.1635V52.3696H143.979C144.114 52.3696 144.206 52.4312 144.256 52.4803C144.299 52.5234 144.372 52.6219 144.372 52.7635C144.372 52.9173 144.28 53.0588 144.139 53.1204C144.09 53.145 144.034 53.1573 143.979 53.1573L142.03 53.1635ZM149.033 51.588L148.64 52.3573L147.699 54.2035L146.758 52.3573L146.365 51.588H145.504L145.897 52.3573L147.699 55.8958L149.501 52.3573L149.894 51.588H149.033ZM151.038 55.8958V51.588H150.269V55.8958H151.038ZM153.743 52.3573H155.895V51.588H153.743C152.557 51.588 151.591 52.5542 151.591 53.7419C151.591 54.9296 152.557 55.8958 153.743 55.8958H155.895V55.1266H153.743C152.981 55.1266 152.36 54.505 152.36 53.7419C152.36 52.9789 152.981 52.3573 153.743 52.3573ZM157.673 52.3573H160.815V51.588H157.673C157.033 51.588 156.516 52.1112 156.516 52.7512V54.7328C156.516 55.3728 157.033 55.8958 157.673 55.8958H160.815V55.1266H157.673C157.457 55.1266 157.279 54.9481 157.279 54.7328V53.9204H160.046V53.1512H157.279V52.7512C157.279 52.5358 157.457 52.3573 157.673 52.3573ZM165.5 52.7758V52.7512C165.5 52.1112 164.977 51.588 164.338 51.588H162.592C161.952 51.588 161.436 52.1112 161.436 52.7512V52.7758C161.436 53.0219 161.509 53.2496 161.639 53.4342C161.682 53.502 161.731 53.5635 161.786 53.6189C161.995 53.822 162.278 53.945 162.592 53.945H164.141C164.467 53.945 164.738 54.2097 164.738 54.5358C164.738 54.862 164.467 55.1266 164.141 55.1266H162.795C162.469 55.1266 162.204 54.862 162.204 54.5358H161.436C161.436 55.2866 162.044 55.8958 162.795 55.8958H164.141C164.891 55.8958 165.5 55.2866 165.5 54.5358C165.5 54.2097 165.383 53.9081 165.193 53.6743C165.174 53.6558 165.162 53.6373 165.143 53.6189C164.898 53.3481 164.541 53.1757 164.141 53.1757H162.592C162.376 53.1757 162.198 52.9973 162.198 52.7819V52.7573C162.198 52.5419 162.376 52.3634 162.592 52.3634H164.338C164.553 52.3634 164.731 52.5419 164.731 52.7573V52.7819L165.5 52.7758Z" fill="#24282B"/>
</svg>
