<svg width="115" height="121" viewBox="0 0 115 121" fill="none" xmlns="http://www.w3.org/2000/svg">
<path fill-rule="evenodd" clip-rule="evenodd" d="M45.4995 92.3474C43.188 93.0588 40.4738 93.8588 38.023 94.2831C36.7009 91.1874 34.9052 83.0473 34.5237 79.3445L39.0023 82.1495C42.3273 84.3352 49.2559 88.2181 52.6652 89.6688L45.4995 92.3474ZM62.3188 89.6588C65.4766 88.0102 68.6816 86.4845 71.7259 84.7331C73.3723 83.7852 74.6545 82.9802 76.2531 81.9616C77.1295 81.4038 79.8059 79.5452 80.478 79.3245C79.9966 82.5695 78.2716 91.7838 76.9538 94.1624C75.2788 94.0616 63.7759 90.8809 62.3188 89.6588ZM57.0109 33.4288C58.7445 32.8195 71.8723 40.5759 73.9059 41.8888L79.7495 45.7823C80.5266 46.3166 81.0209 46.4681 81.2323 47.4659C82.3631 52.8109 81.8373 66.4766 81.3659 72.2095C81.138 74.9795 80.4166 74.7245 78.5802 76.0109C75.2638 78.3324 61.7473 86.5902 58.0402 87.6181C56.1402 88.1452 34.2245 75.9152 33.7352 73.6009C32.6059 68.2523 33.0866 54.5366 33.5816 48.8081C33.823 46.0102 34.393 46.3523 36.3652 44.9895C41.7373 41.2788 50.923 35.5709 57.0109 33.4288ZM85.1823 70.9838C85.2823 67.4702 85.5738 64.0738 85.5766 60.5052C85.5795 56.9438 85.343 53.5523 85.1952 50.0252C86.8031 50.7188 95.7609 59.2123 96.4273 60.5052C95.5659 61.9338 86.8238 70.2966 85.1823 70.9838ZM29.7773 50.0038C29.4609 57.4866 29.5087 63.5052 29.7487 70.9709C28.8016 70.5416 27.5095 69.1802 26.6073 68.4888L18.528 60.5052L29.7773 50.0038ZM62.2709 31.3702C62.4545 31.2088 62.4588 31.1973 62.7652 31.0123C62.818 30.9809 62.8795 30.9452 62.9352 30.9152C62.9895 30.8852 63.0509 30.8566 63.1066 30.8295C63.3809 30.6945 63.6902 30.5959 63.9845 30.4923C64.558 30.2909 65.1845 30.0845 65.7859 29.8623C68.7488 28.7673 73.9766 27.238 76.9288 26.7273C78.263 29.8638 80.0252 37.908 80.4252 41.6609C79.5088 41.2716 78.8473 40.6866 78.0616 40.168C77.3988 39.7309 76.6381 39.2895 75.9488 38.8623C72.0131 36.423 66.5395 33.0459 62.2709 31.3702ZM34.5066 41.6609C35.0052 36.7409 36.6095 31.0623 37.9466 26.6995C40.6352 27.0438 46.5559 28.9038 49.353 29.9238C50.5395 30.3566 51.9459 30.6866 52.6702 31.373C45.4752 34.3309 36.1945 40.9366 34.5066 41.6609ZM48.6788 3.06517C49.083 3.47374 49.648 3.98588 50.0502 4.3916C50.6995 5.04588 50.7173 5.3316 51.1502 5.95874C52.1588 4.0316 57.5545 3.33231 60.3266 4.09945C63.5602 4.99517 65.5373 6.89588 67.2145 8.65517C70.4695 12.0702 74.608 19.0345 75.683 23.2038C72.313 24.0359 69.4088 24.8052 66.1723 25.8645C64.9145 26.2759 57.8073 29.0245 57.4759 29.023C57.173 29.0216 49.8152 26.2202 48.5923 25.8116C45.6452 24.8273 42.3552 23.8152 39.2245 23.2338C39.6716 21.283 42.1516 16.2873 43.1773 14.8252C42.8209 14.4466 41.968 14.1137 41.5852 13.8373C40.9066 13.3466 40.8288 13.1095 40.2002 12.7295C38.7387 14.2102 36.5623 19.9995 35.5159 22.4659C25.7609 21.1859 11.7245 20.2745 5.64088 29.3588C3.55445 32.4752 3.2523 35.2209 3.20659 39.6223C4.31159 39.0388 5.52945 38.7345 7.08231 38.7416C6.01588 36.0495 8.05731 32.303 9.21588 30.7466C13.8295 24.5502 27.0759 24.5045 34.2823 26.003C33.3766 29.3509 32.5109 32.4659 31.7573 35.9852L30.4237 44.168C30.1816 45.2788 29.9959 45.0252 29.0723 45.7345C25.1737 48.7259 23.9766 50.0095 20.7066 52.9438L16.0909 57.5331L15.2245 56.7531C14.0795 55.2995 11.3859 51.4002 10.7523 49.9638C9.76088 50.5381 8.86159 51.2273 7.38016 51.4595C8.11516 53.0509 9.25659 54.7502 10.2416 56.1288L13.4687 60.5052C12.9702 61.3409 12.4694 61.8259 11.8659 62.6081L7.67445 68.8909C5.99802 71.6495 4.4523 75.1731 3.66587 78.7488C1.93516 86.6174 5.14587 94.3209 12.2702 96.9281C12.2794 95.3188 12.7509 94.3959 13.4145 93.3224C11.1509 92.8988 8.57945 89.8681 7.68016 87.6602C3.6323 77.7216 14.9673 65.2402 15.8152 63.3759C17.3052 64.2695 18.0252 65.4359 19.1202 66.4852C22.3259 69.5581 25.458 72.6052 29.1116 75.2402C29.9837 75.8695 30.2323 75.8245 30.4237 77.0695L31.7052 85.0495C32.3366 88.3166 33.9366 93.4995 34.2102 95.1438L24.9573 95.7809C25.1066 97.2874 25.1102 98.1374 24.5773 99.4545C26.563 99.4052 28.4709 99.3616 30.433 99.1874C32.0495 99.0438 33.9452 98.6367 35.468 98.5824C39.0816 107.159 44.7795 119.267 55.3323 120.83C59.0202 121.377 64.4173 120.027 66.2745 117.942C65.878 117.527 65.308 117.015 64.9095 116.614C64.2616 115.965 64.2366 115.678 63.8038 115.053C62.7802 116.935 57.5466 117.667 54.8159 116.958C51.5366 116.107 49.453 114.142 47.7459 112.349C44.3395 108.77 40.3595 101.987 39.2645 97.7938C42.2566 97.1888 45.8288 96.1638 48.5988 95.2052C49.7702 94.7995 57.218 91.9888 57.483 91.9924C57.878 91.9967 64.9788 94.7974 66.3138 95.2488C67.6816 95.7109 75.2552 97.7095 75.6681 97.9959C74.6602 101.435 72.4152 104.688 71.8702 106.3C72.3845 106.61 72.9873 106.887 73.3723 107.169C74.0502 107.664 74.138 107.9 74.7459 108.261C75.8966 107.107 78.8895 100.579 79.2945 98.6009C87.4245 99.4031 94.6316 100.499 102.057 97.2981C106.733 95.2831 109.991 92.0759 111.26 87.2752C111.877 84.9431 111.563 83.6516 111.822 81.4416C110.659 81.8338 109.48 82.2638 107.91 82.2531C108.867 85.1552 107.006 88.5831 105.74 90.2638C101.129 96.3888 87.7259 96.4552 80.7438 94.9359C80.8638 93.7409 81.6716 91.5752 82.0295 90.1531L84.1473 79.6259C84.733 75.8581 84.1009 76.5731 85.8602 75.2552C88.2309 73.4802 90.6545 71.3959 92.7916 69.5209C94.2781 68.2173 97.8895 64.1473 99.1531 63.3731C99.8345 64.8166 103.157 68.3852 104.202 71.0295C105.204 70.4431 106.097 69.7781 107.6 69.5323C106.877 67.9881 105.636 66.1866 104.732 64.8595C103.785 63.4702 102.184 61.7652 101.488 60.5052C101.941 59.6588 102.467 59.1631 103.072 58.3816C108.738 51.058 114.868 39.6759 110.029 30.6023C108.622 27.9652 105.803 25.1073 102.685 24.0738C102.679 25.7102 102.202 26.5938 101.524 27.6595C103.874 28.1438 106.353 31.0759 107.273 33.3516C108.494 36.373 108.206 39.9988 107.263 43.0952C106.359 46.0645 105.097 48.6195 103.699 50.9802C103.033 52.1066 100.194 56.4388 99.1331 57.3438L98.8638 57.5395C97.5252 56.4538 96.8752 55.4723 95.7366 54.3809C92.3323 51.1181 89.8952 48.8059 85.8645 45.7516C84.0995 44.4138 84.7373 44.8459 84.1645 41.1666C83.8859 39.3752 83.6123 37.713 83.2566 35.9702L80.7395 25.9373C83.968 25.6502 86.6266 25.2645 89.9966 25.2152C89.8373 23.6716 89.8566 22.8973 90.3666 21.5395C86.3845 21.648 83.1888 22.1637 79.4895 22.4252C77.9352 18.8159 76.8216 15.9895 74.9645 12.8316C70.4909 5.2266 62.8938 -2.36198 53.183 0.693024C51.7266 1.15088 49.4452 2.19802 48.6788 3.06517Z" fill="#FEFEFE"/>
<path fill-rule="evenodd" clip-rule="evenodd" d="M67.7077 61.265C68.2463 62.3714 68.0649 65.9564 67.547 66.7957L67.8163 67.3592C67.8327 67.4271 67.8535 67.495 67.8677 67.5728C67.9942 68.2628 67.9184 70.0493 67.4992 70.7714C65.087 74.9307 55.4877 75.995 49.8827 72.97C47.367 71.6128 46.9577 70.1685 47.097 66.6243C47.0056 65.1414 46.6734 62.3985 47.2513 61.2535L47.0227 57.7821C50.8206 59.2792 51.7699 60.5442 57.4777 60.5442C63.372 60.5442 64.2456 59.1757 67.8813 57.8007L67.7077 61.265ZM65.1092 54.8492C63.0327 57.4892 51.9392 57.435 49.8449 54.8578C48.7134 54.7685 47.447 53.42 47.1949 52.205C46.0706 46.8007 59.8142 43.9614 65.9756 48.5978C69.8827 51.5378 66.627 54.7578 65.1092 54.8492ZM43.4592 70.2428C44.3799 77.5978 57.2006 80.4021 65.717 76.7721C71.347 74.3721 71.557 70.8614 71.5556 66.5907C71.5542 63.905 71.5777 61.2407 71.5542 58.5571C71.5349 56.4207 71.7927 52.7507 71.5063 50.8228C70.3506 43.0428 57.0684 40.6599 49.2399 44.2357C43.547 46.8364 43.392 49.8514 43.397 54.4185C43.402 58.8542 42.9456 66.1414 43.4592 70.2428Z" fill="#FEFEFE"/>
<path fill-rule="evenodd" clip-rule="evenodd" d="M21.2789 97.7527C20.4825 101.001 14.9103 99.9292 16.0474 96.2599C16.9946 93.2042 22.1603 94.1556 21.2789 97.7527ZM13.4146 93.322C12.751 94.3956 12.2796 95.3185 12.2703 96.9277C12.1432 104.026 21.6703 106.044 24.5775 99.4542C25.1103 98.137 25.1067 97.287 24.9575 95.7806C24.1253 93.252 22.971 91.5827 20.3032 90.872C16.8146 89.9435 14.8582 91.7963 13.4146 93.322Z" fill="#FEFEFE"/>
<path fill-rule="evenodd" clip-rule="evenodd" d="M98.9098 24.7179C97.9527 27.8364 92.7741 26.8271 93.6841 23.2029C94.4841 20.0136 100.025 21.0843 98.9098 24.7179ZM90.367 21.5393C89.857 22.8971 89.8377 23.6714 89.997 25.215C91.7427 30.8922 97.8041 32.1786 101.525 27.6593C102.202 26.5936 102.679 25.71 102.686 24.0736C102.713 20.6407 100.509 18.2629 97.6163 17.6686C93.7334 16.8707 91.4748 19.1814 90.367 21.5393Z" fill="#FEFEFE"/>
<path fill-rule="evenodd" clip-rule="evenodd" d="M5.41491 42.672C8.90419 41.2313 10.4892 46.5163 7.40848 47.6899C4.13991 48.9349 1.95419 44.102 5.41491 42.672ZM3.20705 39.622C-2.6501 43.0792 -0.0286675 52.4213 7.38062 51.4592C8.86205 51.2271 9.76134 50.5378 10.7528 49.9635C11.3285 49.0092 11.9713 48.7835 12.4835 47.167C12.9442 45.7113 12.8671 44.1428 12.3656 42.8028C11.5192 40.5356 9.73205 39.3399 7.08276 38.7413C5.52991 38.7342 4.31205 39.0385 3.20705 39.622Z" fill="#FEFEFE"/>
<path fill-rule="evenodd" clip-rule="evenodd" d="M107.647 73.3493C111.066 72.0322 112.724 77.1493 109.64 78.3493C106.175 79.6965 104.102 74.7157 107.647 73.3493ZM104.202 71.0293C103.596 72.0022 102.981 72.2136 102.468 73.8386C102.008 75.2972 102.086 76.8636 102.589 78.2079C103.39 80.3493 105.26 81.7722 107.91 82.2529C109.48 82.2636 110.66 81.8336 111.822 81.4415C112.976 80.4736 113.735 80.0729 114.415 78.4936C115.023 77.0829 115.107 75.2729 114.603 73.7343C113.747 71.1236 111.195 69.0993 107.6 69.5322C106.097 69.7779 105.205 70.4429 104.202 71.0293Z" fill="#FEFEFE"/>
<path fill-rule="evenodd" clip-rule="evenodd" d="M44.114 6.16803C47.4747 4.4316 49.3612 9.5966 46.464 11.0266C43.2204 12.628 40.7454 7.90803 44.114 6.16803ZM40.2004 12.7295C40.829 13.1095 40.9069 13.3466 41.5854 13.8373C41.9683 14.1137 42.8212 14.4466 43.1776 14.8252C46.339 14.8902 48.3397 14.8652 50.019 12.8737C51.6497 10.9387 51.8647 8.83374 51.1504 5.95874C50.7176 5.3316 50.6997 5.04588 50.0504 4.3916C49.6483 3.98588 49.0833 3.47374 48.679 3.06517C45.0704 1.91874 42.4869 1.79088 40.3404 4.41588C37.9612 7.32588 38.6919 9.71731 40.2004 12.7295Z" fill="#FEFEFE"/>
<path fill-rule="evenodd" clip-rule="evenodd" d="M68.8214 109.937C72.2757 108.515 73.8886 113.731 70.7478 114.94C68.1814 115.929 66.2386 113.27 67.2578 111.197C67.6693 110.36 68.1164 110.227 68.8214 109.937ZM63.8043 115.053C64.2371 115.678 64.2621 115.965 64.91 116.614C65.3086 117.015 65.8786 117.527 66.275 117.942C68.045 118.495 68.95 119.216 71.2886 118.63C72.77 118.258 74.0486 117.326 74.7186 116.452C76.9971 113.481 76.2286 111.216 74.7464 108.261C74.1386 107.9 74.0507 107.664 73.3728 107.169C72.9878 106.887 72.385 106.61 71.8707 106.3C65.8207 105.267 62.2864 109.1 63.8043 115.053Z" fill="#FEFEFE"/>
<path fill-rule="evenodd" clip-rule="evenodd" d="M47.0969 66.6246C53.1841 70.1225 61.2512 70.7603 67.5469 66.7961C68.0648 65.9568 68.2462 62.3718 67.7076 61.2653C66.7769 64.286 61.5662 65.8046 57.4776 65.8053C53.3076 65.8053 48.2598 64.2896 47.2512 61.2539C46.6734 62.3989 47.0055 65.1418 47.0969 66.6246Z" fill="#FEFEFE"/>
</svg>
