<svg width="110" height="100" viewBox="0 0 110 100" fill="none" xmlns="http://www.w3.org/2000/svg">
<path fill-rule="evenodd" clip-rule="evenodd" d="M87.7396 82.7668C94.6315 83.5301 91.8936 78.727 97.2383 77.7367L101.236 92.9259C98.6872 92.3784 97.3518 91.2723 94.6979 91.334C93.6765 93.1481 92.6951 94.2707 91.0774 95.6391L87.7396 82.7668ZM65.8003 93.0188C66.416 90.078 68.8446 79.806 70.0554 77.8114C74.1194 78.3736 73.3043 83.8106 79.2253 82.7598C79.1195 84.4616 78.1727 87.5141 77.6941 89.2377C77.3612 90.4373 77.0984 91.3634 76.7961 92.5725C76.3757 94.2549 76.4051 94.6506 75.5695 95.6185C74.3322 94.1766 73.4255 92.466 71.4361 91.1418L65.8003 93.0188ZM54.1206 85.3425C58.1069 80.2924 59.7099 80.073 62.9377 72.185C63.0136 72.2897 63.0777 72.4455 63.1147 72.529L63.4364 73.237C64.5354 76.0055 63.4646 75.321 67.2686 77.3962C66.7288 81.272 65.1711 81.1897 61.861 82.7709C59.6635 83.8206 56.6545 84.925 54.1206 85.3425ZM45.7239 67.8399C48.5665 67.3936 59.1683 66.9496 61.0795 68.0505C61.4088 68.3404 62.4855 67.5565 60.7584 71.367C57.9046 77.6656 53.409 85.3742 45.6339 86.4462L45.7239 67.8399ZM43.24 67.7653L43.2518 86.271C35.9994 86.3815 28.3737 75.0064 26.9006 67.6418L43.24 67.7653ZM34.7516 85.2419C30.3589 85.0449 22.9107 80.7381 20.0452 78.7523C17.1997 76.7805 10.7341 70.7378 9.53452 67.6429L24.208 67.6476C25.3876 71.23 26.7907 74.4237 28.6518 77.6203C29.4245 78.9469 30.583 80.7469 31.4727 81.8342C32.6535 83.2773 33.629 83.7159 34.7516 85.2419ZM60.2786 63.9488C60.1363 60.0925 62.6207 59.161 61.3811 55.2076C60.1745 51.3553 59.6541 50.8208 62.5808 48.4133C66.3636 45.3014 64.4172 46.0623 65.8826 41.4097C66.8394 38.3695 70.3441 39.8632 72.9409 38.1867C74.6945 37.0553 75.6959 33.497 78.7114 34.0574C83.0694 34.8666 81.4587 36.5343 87.0422 34.4714C91.3749 32.8707 90.818 35.1159 93.2178 37.3951C95.1772 39.2563 97.7405 39.2745 100.643 39.8579C102.338 44.2935 100.641 45.773 104.752 48.7779C109.276 52.0851 105.235 52.6537 105.309 57.2651C105.392 62.3535 109.141 61.5949 104.701 65.7247C99.4511 70.6073 102.723 71.9268 100.513 74.1655C98.3309 76.3736 96.9319 73.0177 91.8383 78.5929C87.8725 82.9333 88.0037 78.714 83.2252 78.9857C78.5961 79.2486 78.1345 82.9138 74.885 78.1789C72.3405 74.4719 70.5252 75.8773 66.1672 74.3149C63.9691 63.5437 64.4066 68.4744 60.2786 63.9488ZM23.203 46.0229C23.5635 45.8118 23.4065 45.746 24.2238 45.5895L43.2741 45.7019L43.3694 61.0227C43.3888 63.9153 43.8039 64.501 42.8107 65.2472L25.9433 65.2619C24.3209 58.4201 23.5641 53.4946 23.203 46.0229ZM7.72099 65.2449C5.51112 59.6991 1.87878 53.1865 2.53974 45.6842L20.7415 45.773C21.4406 53.4711 22.1363 58.0137 23.4318 65.2408L7.72099 65.2449ZM45.7645 45.6895L61.8786 45.7954C57.6753 49.0167 57.1008 50.622 58.4991 54.3326C60.692 60.1513 56.738 59.6279 58.2416 65.2284L45.6345 65.2508L45.7645 45.6895ZM23.2171 43.2838C23.3565 36.977 24.1797 29.1014 26.0832 23.6967L43.2394 23.8102L43.2441 43.1709L23.2171 43.2838ZM45.7792 23.6973L62.8548 23.7731C63.9509 27.0397 64.4837 30.4121 64.9888 33.8475C66.0055 40.7735 64.0121 36.2779 63.1435 43.3144L45.6298 43.295L45.7792 23.6973ZM2.3939 43.3009C2.65735 35.4617 4.8484 29.5024 7.85742 23.7049L23.3365 23.679C22.4656 31.4347 21.1078 31.577 20.8138 43.2738L2.3939 43.3009ZM67.9496 37.0194L65.5421 23.7049L81.0841 23.7913C82.3232 25.9489 84.3995 30.0769 84.7047 32.936C80.8048 33.1653 77.9169 29.7329 74.8597 32.6079C72.3164 35 72.7698 36.5425 67.9496 37.0194ZM45.6469 2.473C53.6795 3.8696 60.011 13.0019 62.0368 21.2763L60.2309 21.3416L47.1311 21.341L45.638 21.3357L45.6469 2.473ZM26.8565 21.338C28.7353 13.8563 35.8171 2.62413 43.2482 2.61825L43.2447 21.3104L26.8565 21.338ZM65.3769 21.338C64.055 20.6171 64.4402 20.7247 63.8245 19.0576C63.4675 18.0926 63.2523 17.4311 62.7878 16.3602C61.5746 13.567 59.3847 9.4178 57.433 7.2091C56.3563 5.99068 54.8245 4.67934 54.0988 3.57264C59.7252 4.61642 65.0135 7.50783 68.914 10.2299C72.4505 12.6985 77.7117 17.4105 79.3853 21.298L65.3769 21.338ZM9.51452 21.3468C12.6235 14.9531 24.8595 4.99571 34.8192 3.61322C31.1339 6.75866 25.9098 14.2156 24.325 21.3316L9.51452 21.3468ZM86.9552 31.6988C84.2743 19.5327 73.5431 8.86504 62.3144 3.73083C58.4156 1.94788 53.2697 0.57362 48.613 0.174927C26.9659 -1.67918 10.713 11.5124 4.30857 25.2062C-1.90823 38.4995 -1.46543 54.058 6.07976 66.982C15.1986 82.6022 33.5931 91.6892 52.3917 88.2427C58.201 87.1772 60.8119 85.4807 65.6133 83.8188C65.1323 86.2598 62.2944 94.0232 63.0877 95.4598C63.9727 96.3312 62.6678 96.3712 65.1182 95.9396L71.0839 93.865C73.4425 96.2501 74.4504 98.9286 76.6056 99.5755C78.8137 98.0348 79.1677 92.9923 79.8504 90.4443L81.7951 83.052C82.6589 80.8451 81.6787 82.2441 83.1552 81.3579C86.8652 80.6411 86.8334 95.9419 90.1729 99.5126C92.4904 99.0545 93.4078 96.4483 96.2551 93.9191C98.3126 94.5653 101.782 96.4865 103.974 95.8755C104.693 92.9412 100.298 81.3414 99.7486 77.3962C103.336 75.2499 102.847 76.426 103.885 71.4229C104.785 67.0808 106.665 68.0046 108.373 65.6371C110.213 63.0874 108.311 60.5035 107.835 57.9143C107.329 55.1552 110.018 53.13 109.048 50.1022C108.171 47.3678 105.088 46.9509 104.24 44.6175C103.194 41.7402 103.717 38.8247 100.996 37.578C97.0736 35.7816 96.7067 38.2719 93.857 34.4049C91.7266 31.5147 91.1844 31.3989 86.9552 31.6988Z" fill="#FEFEFE"/>
<path fill-rule="evenodd" clip-rule="evenodd" d="M98.3919 59.618C94.6643 79.5615 65.3162 74.1033 68.688 54.5232C72.0751 34.8549 101.946 40.6054 98.3919 59.618ZM79.4604 40.2755C57.0171 45.7143 65.1474 79.9332 87.8282 74.1339C95.7745 72.1022 103.199 63.6367 100.488 53.0566C98.3966 44.894 90.2116 37.6705 79.4604 40.2755Z" fill="#FEFEFE"/>
<path fill-rule="evenodd" clip-rule="evenodd" d="M80.6602 60.1746C79.961 59.2349 75.3736 54.1342 75.4507 57.2803C75.483 58.6086 80.1191 62.6756 81.2841 63.1689C82.3549 62.4703 91.7554 53.8143 91.8171 51.8867C88.6246 49.7004 85.2251 57.7472 80.6602 60.1746Z" fill="#FEFEFE"/>
</svg>
