<svg width="122" height="121" viewBox="0 0 122 121" fill="none" xmlns="http://www.w3.org/2000/svg">
<g clip-path="url(#clip0_538_1333)">
<path fill-rule="evenodd" clip-rule="evenodd" d="M39.5547 110.197C42.2043 109.575 75.6575 109.956 81.2541 109.956C81.8975 109.956 81.9111 110.071 82.4453 110.197V117.159C79.7957 117.781 46.3425 117.399 40.7462 117.399C40.1025 117.399 40.0889 117.284 39.5547 117.159V110.197ZM50.7538 98.4328H71.2462V106.355H50.7538V98.4328ZM52.8985 83.0675H69.1015V86.4286H52.8985V83.0675ZM96.9805 29.7698C97.6628 29.5863 102.344 25.8608 103.123 25.1546C103.905 24.4451 104.367 23.9955 104.367 22.5672V14.4046H115.328C117.398 14.4046 118.426 14.9422 118.426 17.0456V79.4664H96.9805V29.7698ZM22.3985 48.256H79.1094V69.8631H22.3985V48.256ZM45.9882 22.5672L48.9047 19.7441C49.8863 20.3872 51.5356 22.8076 52.8985 22.8076C52.9203 22.8076 58.8556 21.5125 58.8556 18.9661V15.605H63.1447C63.1447 19.067 62.6037 20.4918 65.4335 21.4617C66.5529 21.8455 68.0791 22.8076 69.1015 22.8076C70.2556 22.8076 72.3852 20.4824 72.914 19.6864L76.0692 22.7496L74.1588 24.5417C71.8031 27.0562 73.4564 27.7307 74.2842 30.3097C75.2079 33.1866 76.367 32.6507 80.0626 32.6507V36.9721C76.5341 36.9721 75.2933 36.5082 74.3653 39.1547C72.4555 44.6014 72.6938 41.4013 73.3906 44.4148H48.6094C49.3371 41.2675 49.3635 44.0855 47.6347 39.1547C46.7067 36.5082 45.4659 36.9721 41.9374 36.9721V32.6507C47.8599 32.6507 46.4023 32.9251 48.4188 28.6176C50.1093 25.0068 47.962 25.537 45.9882 22.5672ZM96.9805 25.2083V10.0831H100.793V21.8472C100.793 22.5847 99.6078 23.2264 99.0231 23.6651C98.2858 24.2188 97.6634 24.7475 96.9805 25.2083ZM55.0429 18.006C54.5938 18.2229 53.6537 18.6048 53.1368 18.726C52.6542 18.0003 52.0494 17.5167 51.4097 16.865C48.713 14.1173 48.113 15.2649 44.8562 18.5459C43.8985 19.5112 41.6991 21.1758 41.6991 22.8076C41.6991 24.4068 44.2441 25.9389 45.0353 27.129C44.7365 27.6976 44.4826 28.1077 44.3204 28.8094C37.2296 28.8094 38.1249 28.7471 38.1249 38.1726C38.1249 39.2856 38.9368 40.3977 39.9221 40.6833C41.1848 41.0494 42.9368 40.8133 44.3204 40.8133C44.4826 41.515 44.7365 41.9252 45.0353 42.494C44.7144 42.9765 43.574 44.4148 42.8906 44.4148H28.5936V4.56152C28.5936 3.9993 28.9891 3.60114 29.5468 3.60114H92.4532C93.0109 3.60114 93.4064 3.9993 93.4064 4.56152V79.4664H28.5936V73.7044H78.6328C81.1196 73.7044 82.9219 72.6157 82.9219 70.1032V48.0159C82.9219 43.4881 79.3696 46.112 76.965 42.494C77.2635 41.9252 77.5174 41.515 77.6796 40.8133C78.8745 40.8133 80.7999 40.9711 81.887 40.731C84.6702 40.1156 83.8751 35.8739 83.8751 31.9307C83.8751 28.3833 81.1157 28.8094 77.6796 28.8094C77.5174 28.1077 77.2635 27.6976 76.965 27.129C77.756 25.9389 80.3009 24.4068 80.3009 22.8076C80.3009 21.1758 78.1015 19.5112 77.1438 18.5459C74.135 15.5147 73.3338 14.053 70.7089 16.7441C70.0326 17.4375 69.3756 17.9554 68.8632 18.726C68.3463 18.6048 67.4062 18.2229 66.9571 18.006C66.9571 10.9572 66.8916 11.7638 58.1407 11.7638C54.5481 11.7638 55.0429 14.5052 55.0429 18.006ZM25.0195 3.60114V10.8034H18.5857C16.4028 10.8034 15.9523 14.0773 18.3608 14.3914C20.8938 14.7216 25.0195 13.6731 25.0195 15.1249V44.4148C22.4268 44.4148 18.5857 44.0941 18.5857 48.0159V70.1032C18.5857 74.0251 22.4268 73.7044 25.0195 73.7044V79.4664H3.57417V17.0456C3.57417 11.6672 12.1523 16.7704 12.1523 12.7242C12.1523 10.0992 8.86861 10.8034 5.24196 10.8034C2.56368 10.8034 0 13.3379 0 16.0852V93.151C0 94.9022 1.31035 96.4963 2.33815 97.2772C3.51261 98.1692 5.60763 98.4328 7.62493 98.4328H47.1796V106.355H39.5547C37.033 106.355 35.7422 109.043 35.7422 111.877C35.7422 114.235 35.4648 117.427 36.5839 119.192C37.0977 120.001 38.4208 121 39.5547 121H82.4453C84.8793 121 86.2578 118.389 86.2578 115.478C86.2578 113.121 86.5352 109.928 85.4161 108.164C84.9023 107.354 83.5792 106.355 82.4453 106.355H74.8204V98.4328H99.8401C101.398 98.4328 102.938 97.9883 102.938 96.512C102.938 94.1839 100.673 94.5898 98.4103 94.5912L7.62408 94.5921C2.54836 94.6147 3.57417 94.0639 3.57417 83.0675H48.6094C49.5737 83.0675 49.3544 83.9547 49.3382 84.974C49.3039 87.1086 48.6908 90.2698 52.4219 90.2698H69.5781C75.0604 90.2698 71.1795 83.0675 73.3906 83.0675H118.426C118.426 96.3111 119.897 94.5775 110.069 94.5744C108.818 94.5738 107.703 94.7342 107.703 96.512C107.703 99.0064 111.574 98.4328 114.375 98.4328C116.392 98.4328 118.487 98.1692 119.662 97.2772C120.69 96.4963 122 94.9022 122 93.151V16.0852C122 13.3842 119.439 10.8034 116.758 10.8034H104.367C104.367 9.28425 104.571 8.17724 103.319 7.05851C101.981 5.86375 99.3249 6.24191 96.9805 6.24191V3.60114C96.9805 1.75498 94.9301 0 92.9298 0H29.0702C27.0699 0 25.0195 1.75498 25.0195 3.60114Z" fill="white"/>
<path fill-rule="evenodd" clip-rule="evenodd" d="M66.4805 63.3808H64.8125V54.7379H66.7188C70.4329 54.7379 70.4649 63.3808 66.4805 63.3808ZM61 52.8174V65.5416C61 68.3979 73.1523 68.7343 73.1523 59.7796C73.1523 54.7782 71.2519 50.8967 65.7657 50.8967C63.5606 50.8967 61 50.4722 61 52.8174Z" fill="white"/>
<path fill-rule="evenodd" clip-rule="evenodd" d="M57.1874 34.8115C57.1874 29.8372 64.8124 29.8372 64.8124 34.8115C64.8124 39.8244 57.1874 39.8244 57.1874 34.8115ZM53.6133 34.3313C53.6133 36.7603 53.996 38.3606 55.5699 40.0422C59.3301 44.06 68.3868 43.0116 68.3868 34.3313C68.3868 32.4806 67.5704 30.8734 66.4146 29.596C63.7659 26.6697 58.5798 26.5714 55.7006 29.4722C55.2921 29.8841 54.5798 30.9214 54.3154 31.4376C53.906 32.2356 53.6133 33.088 53.6133 34.3313Z" fill="white"/>
<path fill-rule="evenodd" clip-rule="evenodd" d="M51.4686 57.6191H51.9452C52.0161 58.4768 52.5815 59.8348 52.8984 60.4999H50.5154C50.8323 59.8348 51.3977 58.4768 51.4686 57.6191ZM44.7969 65.5416C44.7969 66.9093 47.8323 69.5227 49.0859 64.1011H54.3279C54.6161 65.347 54.9804 66.7524 56.0263 67.2152C57.1764 67.7239 58.6172 66.7184 58.6172 65.5416L54.2587 53.6075C53.6853 52.1223 53.4734 50.7609 51.7066 50.7564C49.5424 50.7512 48.853 54.5444 47.7271 57.4504C47.2607 58.6543 44.7969 64.7436 44.7969 65.5416Z" fill="white"/>
<path fill-rule="evenodd" clip-rule="evenodd" d="M28.3555 58.5792C28.3555 62.6889 30.299 65.6415 33.7364 66.8422C38.7072 68.5789 42.4141 65.3311 42.4141 63.861C42.4141 62.427 41.0414 61.3941 39.8283 61.9523C38.6309 62.5031 38.7217 63.621 36.4573 63.621C29.6309 63.621 31.2377 52.4142 38.0848 54.7789C39.0377 55.1079 39.7151 56.11 41.0541 55.3065C42.4825 54.4493 42.5721 52.0461 38.6916 51.0462C36.7231 50.5389 35.2048 50.7376 33.5606 51.3395C30.9898 52.2805 28.3555 55.1642 28.3555 58.5792Z" fill="white"/>
</g>
<defs>
<clipPath id="clip0_538_1333">
<rect width="122" height="121" fill="white"/>
</clipPath>
</defs>
</svg>
