<svg width="151" height="85" viewBox="0 0 151 85" fill="none" xmlns="http://www.w3.org/2000/svg">
<path fill-rule="evenodd" clip-rule="evenodd" d="M61.3751 79.949C58.2982 79.949 56.7714 77.0865 59.9128 72.8341C61.3914 70.833 61.6673 70.5779 63.7975 69.4506C66.6039 70.9357 69.8932 71.7435 64.7973 77.7072C63.7444 78.9398 63.1986 79.949 61.3751 79.949ZM49.2615 72.6808C49.2615 67.0058 60.5678 58.0357 60.5678 66.2204C60.5678 70.2842 49.2615 81.2426 49.2615 72.6808ZM45.224 69.4506C39.9911 69.4506 41.1195 59.7599 47.6464 59.7599C52.7358 59.7599 49.203 69.4506 45.224 69.4506ZM33.9177 55.7219C38.7765 55.7219 40.8099 56.0459 41.186 60.5677C39.2776 61.8454 35.7889 63.9051 33.7143 59.9341C32.7874 58.1602 33.4677 57.603 33.9177 55.7219ZM79.949 12.9214C87.2584 12.9214 98.1787 18.574 100.946 18.574C105.977 18.574 108.173 16.2602 113.059 16.1516L122.402 40.7265C123.622 43.7374 124.892 45.8904 125.173 49.2615C122.209 49.3275 120.697 49.9244 118.712 50.8766C116.657 47.8077 113.933 46.5622 110.03 42.6001C101.902 34.3504 81.5646 23.3627 76.9396 23.7885C70.9521 24.3397 71.3456 28.6879 68.4528 32.1344C65.1044 36.1243 59.3352 34.8977 60.0458 28.5589C60.9746 20.2675 70.8121 12.9214 79.949 12.9214ZM57.3375 29.8802C57.3375 33.8716 60.6139 37.148 64.6053 37.148C72.7924 37.148 72.0387 26.65 76.7188 26.65C79.3764 26.65 88.3635 31.2671 90.9873 32.5706C99.96 37.0274 107.416 43.2675 114.488 50.2559C116.253 52 118.576 53.5511 118.51 56.428C118.458 58.6981 116.86 62.1824 113.059 62.1824C106.427 62.1824 98.8282 50.5918 96.8424 48.5197C94.7048 46.2893 97.6626 47.2747 93.6777 46.8391C93.9551 50.169 94.5599 50.3313 96.2609 52.331C100.694 57.541 102.153 60.1629 109.021 63.798C100.637 79.6439 89.993 58.6624 85.6022 55.7219C84.1215 58.8073 84.322 58.0253 89.1594 64.2783C91.1496 66.851 93.6365 69.3846 96.9079 70.2584C94.0057 81.127 80.6427 74.0587 78.3339 65.4131H75.911C76.173 68.5594 77.6204 70.4211 79.3581 72.4645C81.3165 74.7658 83.4174 75.6465 84.7944 77.5266C81.1374 84.4381 75.2655 80.6124 69.4506 76.7188C71.6765 67.4221 68.4527 70.1701 64.3472 66.4784C61.6703 64.0709 61.9268 56.8101 53.2995 61.3751C49.6679 54.5122 46.781 57.0061 42.8011 57.337C42.1143 54.7658 39.5183 52.4917 36.3407 52.4917C33.0608 52.4917 34.5772 55.0595 30.4255 52.8455C27.825 51.4581 27.1412 50.0395 24.2271 49.2615L39.8785 17.92C48.5123 22.5743 46.5612 21.6449 55.9963 16.4255C59.8572 14.2894 61.191 12.9214 67.0282 12.9214C66.0284 16.6656 57.3375 18.9496 57.3375 29.8802ZM19.3818 52.4917L3.23617 44.4048L24.2271 3.23021L39.4255 10.7907C39.2617 14.0681 22.1461 47.2673 19.3818 52.4917ZM113.059 9.69114C115.394 8.57073 118.65 7.43743 121.127 6.45249C123.41 5.54495 127.691 3.77255 130.018 3.23021C131.499 6.31752 132.812 10.2116 134.171 13.6135C135.577 17.1296 136.983 20.6401 138.556 24.5724L146.977 46.0313L130.018 52.4917C125.93 43.9716 117.558 18.1939 113.059 9.69114ZM0 46.0313L20.0402 56.0216C22.1659 54.2735 21.9272 54.6229 22.612 51.6844C26.6103 52.6158 29.8594 54.7439 30.697 58.1354C31.2219 60.2626 31.143 64.7789 38.7631 65.4131C39.1541 70.109 40.9463 71.8735 46.0313 71.8735C46.65 74.5281 46.9324 76.4563 49.2154 77.5728C52.385 79.1224 53.1636 76.8984 56.4211 80.0627C61.8122 85.2995 65.9599 82.3342 67.0282 78.3339C71.1481 81.0928 84.2034 89.6213 87.2173 78.3339C95.4377 78.3339 96.4018 77.4085 99.3308 71.8735C101.138 72.3062 104.541 74.2319 108.795 69.2238C112.164 65.2573 108.65 66.7974 114.448 65.1868C119.995 63.6466 121.135 59.8825 121.135 52.4917C124.454 52.2158 122.939 51.6844 125.98 51.6844C128.403 51.6844 126.788 55.7219 129.211 55.7219C131.519 55.7219 147.862 48.8874 150.207 47.6464C149.895 43.8882 143.096 28.2567 141.209 23.5349L131.633 0C128.67 0.246608 112.634 6.59142 109.829 8.07603L111.557 13.6914C103.587 13.9038 105.147 17.3146 97.6214 14.6699C86.538 10.7753 87.8995 10.4984 77.5266 10.4984C73.5958 10.4984 74.4468 11.466 71.6274 11.6863C67.308 12.0237 66.2755 7.19082 54.5732 14.1951C51.5867 15.9829 49.5503 16.7584 46.8386 18.574L41.2018 15.3135C42.1982 13.4304 43.0591 12.051 43.6084 9.69114C39.7937 7.67213 26.5329 0.326495 22.612 0C18.767 7.26624 15.3497 15.5561 11.27 22.5763C8.993 26.4947 0.367183 41.6201 0 46.0313Z" fill="#FEFEFE"/>
<path fill-rule="evenodd" clip-rule="evenodd" d="M13.728 41.1859C16.3737 42.4095 16.0735 42.8844 16.9582 39.5708C15.0593 39.7286 14.0188 39.485 13.728 41.1859Z" fill="#FEFEFE"/>
<path fill-rule="evenodd" clip-rule="evenodd" d="M134.863 41.9932C137.296 41.3437 136.636 42.0036 137.286 39.5708H134.863V41.9932Z" fill="#FEFEFE"/>
</svg>
