<?xml version="1.0" encoding="UTF-8"?>
<!DOCTYPE svg PUBLIC "-//W3C//DTD SVG 1.1//EN" "http://www.w3.org/Graphics/SVG/1.1/DTD/svg11.dtd">
<!-- Creator: CorelDRAW 2019 (64-Bit) -->
<svg xmlns="http://www.w3.org/2000/svg" xml:space="preserve" width="100%" height="100%" version="1.1" style="shape-rendering:geometricPrecision; text-rendering:geometricPrecision; image-rendering:optimizeQuality; fill-rule:evenodd; clip-rule:evenodd"
viewBox="0 0 763.3 719.68"
 xmlns:xlink="http://www.w3.org/1999/xlink">
 <defs>
  <style type="text/css">
   <![CDATA[
    .fil0 {fill:white}
   ]]>
  </style>
 </defs>
 <g id="Layer_x0020_1">
  <metadata id="CorelCorpID_0Corel-Layer"/>
  <path class="fil0" d="M268.25 417.24c-6.43,-5.04 -1.97,-2.8 -1.54,-3.4 -0.48,0.17 -4.35,1.35 -3.04,3.13l-15.32 -19.69c-0.33,-0.93 -0.01,-1.27 0.02,-1.78 2.09,-2.12 -6.83,-2.92 5.82,-2.11 4,0.25 5.38,3.55 7.14,6.06 2.4,3.42 1.12,2.93 6.17,5.39 1.98,0.97 1.9,-1.89 3.77,3.89 0.16,0.51 0.54,2.68 0.48,3.04 -0.85,4.84 -0.05,2.17 -3.5,5.47zm3.06 -163.95c9.82,1.04 15.66,7.43 16.38,16.35 -10.45,-1.57 -3.93,-0.58 -11.4,-7.85l-4.98 -8.5zm-24.47 -160.58c1.07,-4.68 -0.57,-3.17 3.78,-7.87l1.36 -1.32c6.31,-15.18 0.5,-11.44 9.59,-14.71l0.74 7.79c-0.03,0.19 -0.11,0.59 -0.15,0.77 -1.6,7.2 -3.44,6.73 -5.11,7.7 4.38,6.3 -5.97,7.53 -10.21,7.64zm37.15 -46.59c0.42,7.91 -0.56,11.1 -8.74,12.34 -0.31,-6.88 -0.95,-6.57 1.85,-11.39l6.89 -0.95zm10.94 -19.54l-6.41 2.93 -8.26 7.94c-16.42,13.42 -12.11,13.06 -20.5,21.04 -3.84,3.89 -5.53,9.42 -9.8,12.01 -3.06,6.81 -5.93,11.68 -9.54,18.85l-6.43 15.14c-2.02,3.52 -0.76,1.69 -2.93,3.73 -6.08,-7.13 -14.65,-10.12 -19.13,-15.1 -27.04,-10.52 -35.82,-16.33 -70.6,-14.3 -19.65,3.32 -26.28,5.51 -42.99,12.86 1,6.71 2.1,0.6 -1.35,6.98 11.48,1.8 -0.56,-1.33 -1.53,3.23 2.52,3.67 -5.25,-1.08 3.02,2.62 0.38,0.17 0.87,0.3 1.26,0.43 0.05,0.01 4.15,0.02 4.54,0 -0.5,0.12 -2.65,0.85 -3.63,1.13l5.5 2.95c-7.75,2.72 -18.98,3.8 -20.76,11.29 -1.97,8.25 -2.69,-0.21 0.42,3.65l6.94 -4.96c1.88,-1.41 3.64,-2.65 6.22,-4.41 4.55,-3.13 8.06,-5.3 13.97,-7.05 11.45,-10.06 47.33,-10.97 65.68,-6.07 13.12,3.51 28.13,11.3 38.37,19.59 4.14,3.35 5.51,6.36 9.69,9.89 0.88,38.3 -4.72,56.33 16.64,98.23 4.51,8.86 13.09,18.28 15.39,25.19 3.85,1.43 13.66,12.44 14.46,17.28l-0.06 100.05c-17.51,-0.31 -61.09,-6.63 -41.48,19.07 2.14,2.82 1.2,1.07 2.13,3.21 7.81,4.08 14.19,13.5 20.63,19.98 3.56,3.57 6.15,6.68 9.78,10.09 5.03,4.74 5.4,3.76 10.54,10.49 2.85,3.71 8.86,8.51 13.01,10.74l0.4 -2.37c1.37,-0.78 4.56,1.9 -0.83,-3.93l-3.84 -3.17c-0.17,-0.2 -0.51,-0.56 -0.71,-0.78 -11.7,-12.41 -8.53,-15.31 -3.62,-23.17 0.13,-0.22 0.47,-0.65 0.58,-1.03 -5.43,-5.88 -10.78,-9.47 -14.32,-16.21 -3.45,-1.6 -1.57,-0.68 -4.01,-2.78 31.03,-3.69 31.52,11.1 31.52,-37.63 0,-22.73 0.81,-46.23 0.02,-68.83 17.27,7.22 26.04,18.98 63.59,24.77 29.18,4.49 52.95,1.39 78.95,-7.63 -1.69,-3.65 2.22,-4.05 -11.93,-1.84 0.2,-0.5 0.54,-1.75 0.64,-1.5 0.09,0.24 0.44,-1.08 0.56,-1.46l1.74 -7.57c1.24,-2.39 7.43,-6.95 13.43,-2.38 4.41,3.36 -0.08,3.51 7.2,4.03l2.09 -9.38 16.03 -1.62c-2.85,-6.53 -0.02,-1.28 -6.14,-4.58l1.89 -4.21c0.91,-2.36 0.56,2.01 0.98,-4.83 -5,1.85 -4.7,2.63 -10.19,4.55 -5.94,10.93 -53.55,20.83 -71.88,20.62 -20.36,-0.23 -40.11,-5.06 -57.59,-13.61 -3.77,-1.85 -11.53,-5.33 -13.52,-8.57 -14.56,-6.11 -42.25,-34.85 -47.7,-52.05 -8.26,5.99 1.04,12.65 2.16,22.46 -9.28,-0.97 -5.58,0.78 -8.68,-5.62 -1.1,-2.28 0.45,-0.49 -1.84,-4.03 -12.43,-19.12 -2.75,-3.64 -6.3,-13.29 -0.44,-1.18 -5.57,-8.73 -1.03,-11.53l2.91 -0.69c6.7,3.61 -0.65,7.18 5.79,1.98 -0.06,-5.38 -5.05,-17.86 -6.42,-25.22 -1.91,-10.34 -2.85,-20.85 -2.37,-31.41 0.69,-15.5 5,-44.42 14.48,-52.98 0.43,-3.97 1.22,-6.75 3.62,-8.14 4.36,-11.16 19.54,-29.83 27.16,-33.44 0.15,-0.28 0.43,-0.65 0.54,-0.78l10.23 -10.51c-2.59,-3.19 2.56,-2.73 -3.65,-2.54 -2.1,3.49 -3.17,4.93 -12.59,1.4 1.43,-5.11 -1.99,-4.56 1.53,-4.58l2.08 -1.83c0.32,-0.16 0.75,-0.45 1.11,-0.57 0.34,-0.12 0.79,-0.19 1.16,-0.26l2.43 0.15c2.67,0.02 5.15,0.6 8.45,-2.12 8.3,-6.86 -0.87,-9.45 10.75,-9.14 -10.68,0.7 -3.66,1.27 -10.07,-2.31 -5.43,0.45 -2.17,-0.67 -7.58,3.46zm283.03 54.74c-3.48,3.21 -19.73,8.31 -25.25,11.35 -8.74,4.82 -15.33,8.74 -22.03,15.39 0.89,4.61 -3.11,3.18 3.69,5.09 8.02,2.25 2.15,-6.76 18.29,-8.19 -1.58,9.51 -1.8,3.96 -3.02,7.85 -0.99,3.17 -0.42,-0.79 -0.5,3.31l0.79 2.08c4.03,-3.43 6.99,-5.94 11.87,-6.49 2.01,-2.42 0.01,-0.83 3.57,-3.16 0.21,-0.14 2.87,-1.47 3.12,-1.58l24.62 -7.46c16.6,-2.61 26.09,0.96 39.51,0.28 0.1,-0.05 2.82,-0.88 3.04,-1.5 0.22,-0.6 0.69,-0.72 1.11,-0.98 -4.09,-0.8 -3.99,-0.84 -8.8,-1.53 5.15,-1.66 2.36,-1.82 8.04,-0.01 -6.78,-3.69 -1.91,4.25 -2.79,-2.82 -0.34,-2.72 1.82,-1.68 3.15,-2.19 -3.91,1.28 -2.52,1.41 -5.79,1.36 -4.91,-0.07 -2.03,-0.37 -4.5,-2.13 22.42,-2.38 -0.59,-7.02 13.22,-4.03 6.21,1.34 -0.04,4.95 -0.53,5.41 -2.48,2.33 -0.78,-1.34 -2.83,2.88l2.32 0.82c5.18,0.8 5.18,-1.17 10.02,-2.6 0.29,-0.08 0.76,-0.16 1.04,-0.23 5.94,-1.48 5.4,-1.49 13.82,4.7l6.8 4.4c5.27,2.82 4.04,2.18 8.02,6.87l4.35 6.51c0.96,1.84 3.24,1.37 2.98,3.49 -1.03,8.4 -3.29,2.43 -3.33,2.43l-5.43 -0.62c0.42,-0.19 1.35,0.16 1.99,-6.11 -0.46,0.22 -2.04,0.77 -2.42,0.95l-3.22 1.7c-0.16,-0.29 -1.19,0.9 -0.67,0.89l1.26 -1.79c-1.54,2.12 -3.14,0.39 1.53,1.52 -2.64,-3.74 -9.73,-12.76 -13.79,-13.02 -0.41,-0.02 -1.82,-0.06 -2.28,-0.1 -2.54,-0.26 -1.5,-0.33 -4.49,-0.86 -4.77,-0.85 3.85,-2.26 -5.36,-0.33l-3.08 1.44c-0.38,-0.48 -1.2,0.49 -1.57,0.98 9.84,2.6 17.32,7.54 24.83,13.09 4.7,3.49 5.37,4.65 9.44,8.85 4.19,4.33 6.55,4.87 8.72,10.58 18.84,14.97 30.78,69.46 7.3,109.18 -3.71,6.28 -14.87,23.71 -22.84,25.44 -2.51,3.71 -2.5,3.73 -6.4,6.48 -3.07,2.16 -4.28,2.7 -7.94,4.69 2.06,4.1 -5.87,3.32 5.22,3.32 3.22,-5.31 11.71,-2.64 19.25,-11.55 13.65,-16.14 13.86,-10.34 11.35,-9.86l1.31 -9.68c1.06,-1.82 -1.17,-1.72 5.03,-3.34l3.77 -0.54c0.73,-0.11 1.4,-0.15 2.11,-0.19 1.4,3.73 0.39,1.55 1.16,6.16l1.12 5.53c10.85,-14.41 16.14,-33.23 19.73,-53.74 0.44,-8.91 0.82,-17 -0.19,-25.93 -0.8,-6.99 -3.96,-15.45 -3.15,-21.45 -0.8,-1.01 -1.08,-1.36 -2.14,-3.27l-3.72 -8.8c-7.29,-17.7 -14.53,-23.38 -17.94,-30.54l-0.32 -0.84c-3.47,-1.91 -1.79,-0.31 -4.89,-3.61 -2.71,-2.89 -1.63,-1.82 -3.25,-5.01 -3.4,-1.09 -2.86,-0.82 -6.29,-3.76l-15.92 -11.64c-8.26,-4.82 -15.97,-8.28 -25.47,-11.15 -35.94,-10.85 -46.99,-1.9 -66.35,-2.39zm14.46 379.93c-2.87,1.67 -0.93,0 0.02,1.52l3.3 -1.63c2.28,-1.2 0.79,-1.48 4.34,-2.06l3.05 11.35c-0.41,0.1 -0.95,0.02 -1.13,0.55l-2.05 1.28c-7.35,4.75 1.42,1.07 -4.46,2.75 -4.14,-5.11 -2.22,-8.36 -2.37,-10.93 -0.02,-0.28 -0.1,-0.76 -0.13,-1 -0.04,-0.36 -0.37,-1.36 -0.57,-1.83zm-33.64 -157.07c1.98,3.43 19.75,8.18 26.75,9.56 13.47,2.65 22.35,1.46 35.51,2.2 3.02,27.99 -0.01,57.55 -6.55,83.19 -3.68,14.44 -18.55,55.06 -26.45,61.27 -2.79,8.32 -11.64,20.98 -17.7,25.11 -0.51,3.9 1.2,0.19 -1.84,5.16l7.14 0.92c-0.06,-0.27 -0.14,-2.5 -0.06,-2.9l1.39 -4.49c1.02,5.53 0.57,5.75 1.69,10.7l7.65 -6.12c-4.78,13.69 -1.21,3.52 0,7.63l1.77 -2.92 0.41 0.77c2.48,-1.24 0.59,-0.1 3.05,-1.78l2.03 -1.48c0.25,-0.17 0.67,-0.55 1.02,-0.8 0.55,-3.47 -0.31,-0.7 1.41,-4.08 2.19,-4.3 10.63,-15.7 18.16,-30.7 24.08,-47.93 29.57,-87.55 26.71,-142.5l24.95 -10.3c-3.52,-3.18 -0.67,-1.59 -5.58,-2.78 -1.35,-0.32 -3.91,0.21 -5.11,0.23l1.27 -5.09c0.54,-2.72 -0.31,-2.38 -2.81,-6.52 -3.01,-0.3 4.11,-3.63 -4.2,0.61 -11.46,0.24 -24.37,7.87 -43.24,7.14 -13.82,-0.54 -28.15,-4.2 -39.2,-9.46 -1.12,3.32 -3.37,1.99 -5.49,5.82l-1.43 5.52c-1.26,9.01 1.46,3.87 -1.25,6.09zm-346.8 -28.16c-2.18,3.74 -12.64,10.32 -18.55,10.41 -11.86,11.37 -54.62,12.9 -76.55,2.45 -13,6.24 -12,-5 -24.48,-0.42 0.3,1.15 -1.33,8.47 4.59,3.04l-0.01 4.42c2.85,0.99 6.71,2.12 9.17,2.97 2.86,5.88 -1.53,-6.32 -0.45,1.77 0.01,0.06 0.02,0.42 0.04,0.49l4.25 3.25c0.33,0.16 0.83,0.32 1.14,0.48 5.69,2.92 8.32,-1.21 2.38,3.06l8.64 4.31c-1.23,22.28 -1.93,38.48 0.78,60.16 1.28,10.19 7.58,43.5 11.88,49.09l4.92 2.87c0.2,0.14 0.63,0.39 0.85,0.48 4.29,1.87 0.68,-2.63 8.04,-0.31l-1.49 -12.18c0.76,0.23 3.26,1.65 3.46,1.76 4.12,2.21 -2.38,1.71 1.2,0.57 1.13,-11.4 -14.06,-37.04 -10.24,-98.84 15.92,-0.38 30.77,-0.07 45.42,-4.49 10.32,-3.11 28.39,-10.14 33.16,-16.78 -2.65,-2.44 -5,-4.5 -5.3,-7.96 -0.06,-0.58 -0.17,-0.82 -0.1,-1.22 3.67,-2.08 6.75,0.05 16.81,-1.54 -0.39,-12.74 1.46,-6.5 -5.97,-9.41 -0.33,-0.13 -1.86,-0.78 -3.2,-1.28 -0.93,0.93 -2.4,3.78 -5,4.35 -5.53,1.23 -2.24,2.97 -5.39,-1.5zm52.77 295.66c33.76,16.33 70.65,26.7 113.58,27.31 37.83,0.54 87.32,-9.56 116.09,-25.81l6.5 -14.38c-7.23,3.08 -2.06,-0.93 -10.08,4.52 -5.5,3.75 2.23,1.47 -2.83,0.08 -0.31,-0.08 -2.74,-0.71 -4.22,-0.77 -7.76,-0.31 -1.73,2.85 -11.12,-0.93 -6.47,1.37 -14.98,5.15 -21.78,7.2 -57.91,17.46 -115.52,12.31 -169.76,-11.65l-2 2.45c-4.72,6.32 -3.16,4.69 -1.73,8.7l-12.19 -1.63 -0.46 4.91zm198.77 -305.69l-1.58 1.19c-0.42,6.84 -0.07,2.47 -0.98,4.83l-1.89 4.21c6.12,3.3 3.29,-1.95 6.14,4.58l-16.03 1.62 -2.09 9.38c-7.28,-0.52 -2.79,-0.67 -7.2,-4.03 -6,-4.57 -12.19,-0.01 -13.43,2.38l-1.74 7.57c-0.12,0.38 -0.47,1.7 -0.56,1.46 -0.1,-0.25 -0.44,1 -0.64,1.5 14.15,-2.21 10.24,-1.81 11.93,1.84 6.32,-2.81 12.16,-4.9 17.88,-7.9 4.99,-2.62 11.84,-7.45 16.22,-9l0.09 96.12c1.93,7.81 -0.31,1.28 0.98,3.52 1.75,3.01 0.64,1.37 1.99,2.15 5.45,-2.34 10.3,-1.06 14.31,0.43l12.97 -6.07c4.77,0.26 6.85,-2.98 12.61,-0.04 -2.59,3.26 0.17,0.69 -4.93,2.6 -0.93,0.35 -3.27,1.15 -3.95,1.54l-2.95 2.19c-0.55,0.39 -1.09,0.8 -1.51,1.31 12.36,2.42 9.29,0.5 11.53,5.38 -7.76,-3.45 -5.02,2.22 -6.01,3.04 -17.88,14.68 -4.83,7.32 -13.48,14.04l-4.2 3.12c-3.12,6.11 -2.06,1.05 -0.08,5.01 0.14,0.28 -0.34,8.74 8.52,-0.82l3.59 -5.45c0.13,-0.15 0.46,-0.46 0.59,-0.58l3.06 -2.37c0.13,-0.12 0.48,-0.43 0.61,-0.56 2.57,-2.46 4.82,-6.58 8.05,-8.17 7.85,-3.85 5.65,0.05 9.07,-9.05 -11.14,-16.25 2.06,-5.82 6.96,-6.15l7.29 -2.01c1.57,-1.53 1.58,-4.55 0.07,-7.95 -2.36,-5.32 -0.68,-2.67 -6.36,-4.96l-39.07 -0.15c-0.01,-9.94 -1.29,-97.14 0.85,-102.67 1.61,-4.18 11.67,-12.76 15.08,-18.27 -5.55,-2.97 -3.31,-7.26 -0.35,-10.3 4.78,-4.89 7.01,-4.86 4.97,-11.68 -0.49,-0.09 -1.11,-0.16 -1.48,-0.15l-2.75 0.02c-6.51,1.42 -3.15,5.42 -9.5,10.59 -9.51,7.76 2.64,-4.55 -3.11,2.18l-2.94 5.33c-6.12,8.96 -3.17,-6.89 -4.85,7.18 -0.53,4.42 4.06,6.46 -0.01,0.14 -3.19,3.73 -7.92,4.91 -7.92,4.91 -0.17,-0.31 -0.75,0.18 -1.07,0.39 -0.65,4.56 -2.99,4.18 -0.01,4.58 2.18,5.04 -1.28,0.01 4.42,3.32l-0.77 8.91c-0.21,0.1 -0.61,0.06 -0.7,0.06l-2.61 0.22c-3.42,0.03 1.53,2.05 -2.55,-0.32 -3.26,-1.88 -1.46,-3.42 -5.71,-6.92l-2.85 -1.88c-5.3,-3.59 1.03,2.23 -1.92,-1.39zm285.57 29.12c11.7,3.84 3.55,50.57 8.48,78.97 -12.79,-0.39 -10.18,4.22 -10.17,-38.22 0,-8.21 0.42,-15.27 0.68,-23.02 0.23,-6.96 -8.66,-20.9 1.01,-17.73zm-14.45 5.84l8.13 2.8 0.02 70.34c-18.16,4.39 -47.11,4.27 -51.44,13.27 -5.61,11.66 -5.97,38.64 -13.68,50.96 4.63,0 3.44,-1.14 3.44,3.54 3.17,-1.23 4.48,1.14 5.23,2.32l4.43 9.28c0.08,0.23 0.18,0.68 0.25,0.89 0.06,0.18 0.14,0.62 0.19,0.79 0.05,0.15 0.12,0.55 0.17,0.69l4.27 5.33c3.72,2.68 -4.38,-1.77 2.84,1.61l-2.32 -2.47c-0.73,-0.75 -7.44,-5.61 -2.81,-7.25l6.12 8.19c0.42,0.01 1.12,-0.5 1.26,-0.1l2.75 -0.76c0.03,-2.54 2.85,3.55 -0.95,-0.65 4.95,7.21 -2.6,1.79 5.36,2.69 0.85,-2.09 -0.49,-2.89 1.32,-2.51l-12.65 -10.89c1.51,-14.21 10.08,-32.17 11.96,-49.08 12.55,-1.15 26.66,-4.4 39.38,-6.33 19.29,-2.92 14.71,-12.51 14.69,-31.76 -0.01,-15.29 0,-30.58 0,-45.87 0,-20.11 5.18,-27.02 -12.67,-32.69 -3.59,3.92 0.08,2.69 -6,3.02 -0.01,0 -5.42,-1.52 -6.2,-1.7 -4.95,-1.15 -8.7,-0.7 -13.78,-0.65 -0.9,4.31 -2.81,5.93 -2.7,9.77 9.84,6.63 10.89,-2.41 13.39,7.22zm-571.91 344.13c-6.2,-0.55 -5.22,-1.37 -9.16,-4.92 0,-0.03 0.88,-4.37 1.2,-5.02 2.26,-4.67 -0.21,-0.42 3.2,-3.84l6.29 10.54c-0.43,12.05 4.78,-5.61 -1.53,3.24zm-25.77 -82.26c5.81,12.02 21.94,19.86 25.59,26.96 2.19,4.26 -8.68,32.41 -12.64,36.46l-3.12 14.45c5.27,6.1 1.3,3.74 10.19,8.31 4,2.05 8.93,5.02 12.68,7.21 8.6,5.02 15.79,9.49 24.18,14.06 27.59,15.05 36.66,27.73 49.54,16.6l0.32 0.69c3.54,-6.41 3.65,-6.15 8.73,-11.7 -0.38,-0.15 -0.95,-0.14 -1.22,-0.16 -0.26,-0.02 -0.87,-0.12 -1.18,-0.14 -14.28,-0.99 -7.32,-0.37 -10.83,-3.28 1.85,-4.75 0.6,-2.23 3.4,-7.49 2.27,-4.25 3.31,-6.54 7.36,-9.67 2.26,-1.75 -2.39,4.74 2.44,-1.75 2.42,-3.25 2.63,-5.55 -2.36,-6.16 -2.59,3.34 -1.15,2.6 -4.98,4.16 -1.63,4.21 -9.16,13.63 -12.73,17.26 -5.78,-1.26 -30.55,-15.5 -33.87,-20.15 -8.62,-0.96 -19.29,-11.09 -28.28,-14.2 1.21,-9.28 7.37,-21.88 10.75,-31.02 4.64,-12.6 8.89,-22.19 -5.25,-27.39 -0.55,5.97 -2.55,2.23 1.34,7.33 4.3,5.65 3.48,0.85 4.07,0.39 -3.26,1.41 -0.4,1.25 -3.21,0.01 -9.92,-4.37 2.9,-6.99 -5.98,-5.07l3.78 6.01c0.28,0.35 0.64,0.68 0.91,1.02 0.31,0.38 0.7,0.88 0.97,1.22l-8.49 -1.67c4.79,0.41 3.34,3.07 2.83,7.64 -3.94,-2.21 -5.48,-1.43 -6.11,-8.37 -8.3,0.64 1.92,0.85 -6.86,-4.07 -3.1,-1.74 -4.94,-2.69 -5.32,-8.96 -0.05,-0.78 -0.11,-1.02 -0.04,-1.52 4.45,0.85 2.69,1.68 8.61,0 -1.35,-2.8 0.16,0.12 -2.31,-2.91l-5.64 -7.07c-0.18,-0.48 -1.63,-2.01 1.31,-4.75 -2.97,-3.98 -4.05,-3.74 -7.52,-7.26 -2.15,-2.19 -4.03,-5.15 -5.72,-7.46l-7.32 0.53c-3,1.62 -3.37,-2.52 -2.63,7.44 0.5,6.8 4.47,7.24 7.44,7.72l-2.83 6.75zm124.15 69.54c-2.5,5.67 -7.41,9.28 -11.07,14.85 4.99,0.61 4.78,2.91 2.36,6.16 -4.83,6.49 -0.18,0 -2.44,1.75 -4.05,3.13 -5.09,5.42 -7.36,9.67 -2.8,5.26 -1.55,2.74 -3.4,7.49 3.51,2.91 -3.45,2.29 10.83,3.28 0.31,0.02 0.92,0.12 1.18,0.14 0.27,0.02 0.84,0.01 1.22,0.16 2.73,-4.13 2.9,-3.85 6.52,-8.27 4.07,-4.96 2.15,-5.46 8.68,-8.61 0.81,-3.23 0.02,-1.79 2.3,-5.94l44.2 11.84c0.12,-0.13 -2.18,-6.96 7.15,-2.15 3.08,1.59 3.76,13.25 5.63,22.08l1.92 11.83c1.39,6.93 2.07,1.68 3.64,16.92 4.91,-1.75 0.53,-0.74 4.52,0.23l85.95 1.43c6.43,-1.35 4.62,2.83 2.82,-3.18 9.52,-3.92 2.92,2.7 -0.85,-2.78l-3.75 -6.14c-8.15,3.03 -4.83,2.94 -16.76,2.83l-48.7 0.13c-2.9,0.67 -1.93,0.7 -3.35,1.44 -0.44,0.23 -1.73,1.12 -2.11,1.35l-2.49 -9.33c-4.89,-4.35 -5.39,-18.73 -6.5,-25.41 -1.25,-7.57 -1.29,-19.77 -6.33,-24.25 -4.98,-4.42 -37.11,-7.47 -46.8,-13.02 -12.45,-2.9 -13.67,-6.81 -27.01,-4.5zm86.64 67.18l2.49 9.33c0.38,-0.23 1.67,-1.12 2.11,-1.35 1.42,-0.74 0.45,-0.77 3.35,-1.44l48.7 -0.13c11.93,0.11 8.61,0.2 16.76,-2.83l3.75 6.14c3.77,5.48 10.37,-1.14 0.85,2.78 1.8,6.01 3.61,1.83 -2.82,3.18l-85.95 -1.43c-3.99,-0.97 0.39,-1.98 -4.52,-0.23 -1.57,-15.24 -2.25,-9.99 -3.64,-16.92l-1.92 -11.83c-1.87,-8.83 -2.55,-20.49 -5.63,-22.08 -9.33,-4.81 -7.03,2.02 -7.15,2.15l3.06 0.75c3.45,3.22 3.03,0.76 4.81,12.75 6.76,45.6 3.86,41.16 30.35,41.11l58.11 0c27.78,0.06 23.15,5.89 32.37,-52.66l-6.2 -0.95c-1.97,-0.22 -4.74,-0.39 -6.85,-0.69 -0.37,-5.78 -1.51,-12.23 2.96,-14.43l29.8 -4.47c1.79,-0.11 5.93,-0.21 7.5,0.42 5.44,2.17 2.98,1.17 6.17,5.68 -3.2,1.95 -5.57,3.71 -11.99,2.94 -6.64,-0.79 3.5,-1.65 -6.13,-0.72 -5.37,0.52 -0.83,0.01 -7.87,2.43 3.28,1.75 0.03,0.98 4.54,1.27 0.58,0.04 5.65,-0.85 6.15,-0.91 -12.5,3.88 -6.65,0.04 -3.73,4.01 10.13,1.86 23.64,-5.93 34.32,-8.23l16.55 19.45c2.76,3.77 0.58,3.81 4.78,4.24 8.95,-5.06 6.33,-8.22 5.16,-11.01 -9.35,-3.23 0.36,0.36 -7.67,2.14 -3.58,-2.97 -6.1,-10.2 -1.99,-15.59 7.6,2.22 4.45,3.77 10.71,3.94 -2.32,-6.54 -11.65,-15.34 -16.4,-21.67 -7.89,7.33 0.09,8.44 -6.77,11.66 -6.79,3.2 -4.79,-0.65 -4.79,-0.65 -0.45,-0.23 -2.64,-0.59 -3.19,-2.77 -1.72,-6.85 1.5,-3.22 2.69,-10.74 -67.93,19.55 -63.72,8.67 -68.36,38.05 -1.58,10.01 -3.3,19.06 -4.88,29.58l-69.59 -0.27zm22.55 -646.18l0.8 21.46c-16.84,2.07 -29.36,10.72 -36.65,21.44 -12.78,18.78 -3.22,29.92 -1.13,45.67l3.06 2.12 0.76 3.08c7.39,5.78 13.27,13.09 28.86,16.28 18.68,3.83 21.67,0.2 40.57,7.59 0.11,-5.97 1.1,-2.14 -0.71,-6.4 -7.76,-2.92 -15.46,-4.71 -26.01,-4.62 -16.64,0.13 -12.93,-2.75 -24.44,-4.56 0.98,1.64 -7.38,-4.22 -8.74,-12.39 -0.5,-3.02 -0.43,-2.4 -0.43,-5.96 11.99,1.86 5.94,2.61 12.22,8.93 2.68,-3.01 6.42,-0.82 9.17,0.25l-1.92 5.1c-0.04,0.1 -0.2,0.43 -0.18,0.65 20.34,2.79 23.09,-4.63 38.97,2.71 0.4,0.18 0.77,0.38 1.18,0.55 0.83,0.37 3.07,1.14 3.54,1.32 7.32,2.8 5.9,4.9 13.26,4.3 -2.57,-4.06 -1.83,-3.74 -6.41,-6.52 -3.89,-2.37 -4.96,-1.77 -8.17,-5.76l-12.73 -2.13c-11.76,-3.49 -21.53,0.95 -34,-6.03 -5.93,-3.32 -19.02,-17.51 -11.27,-27.53 0.11,-11.88 12.15,-15.24 23.87,-18.93 2.73,-2.31 0.3,-1.06 4.69,-2.26 8.37,-2.29 7.4,0.67 7.53,0.74 8.52,-6.17 0.17,-6.88 12.24,-6.28l-0.07 -1.04c0,-0.06 -0.04,-0.48 -0.04,-0.55 -0.2,-7.09 -2.57,3.89 0.11,-1.72 3.62,1.76 3.78,0.72 5.95,0.68 5.26,-0.1 4.58,2.65 4.76,3.04 11.09,0 3.14,0.8 5.27,-3.36 -8.21,-4.84 -13.8,-6.74 -23.38,-8.83 -0.28,-15.56 3.91,-29.1 -14.63,-27.07 -2.11,2.85 -2.76,3.38 -5.9,6.03zm132.35 41.18c13.33,26.76 18.89,56.1 12.18,88.82 -3.24,15.79 -7.81,26.15 -14.48,39.07 -6.56,12.7 -14.41,20.62 -21.99,28.95l-14.84 14.61c2.95,3.62 -3.38,-2.2 1.92,1.39l2.85 1.88c4.25,3.5 2.45,5.04 5.71,6.92 4.08,2.37 -0.87,0.35 2.55,0.32l2.61 -0.22c0.09,0 0.49,0.04 0.7,-0.06l0.77 -8.91c-5.7,-3.31 -2.24,1.72 -4.42,-3.32 -2.98,-0.4 -0.64,-0.02 0.01,-4.58 0.32,-0.21 0.9,-0.7 1.07,-0.39 0,0 4.73,-1.18 7.92,-4.91 4.07,6.32 -0.52,4.28 0.01,-0.14 1.68,-14.07 -1.27,1.78 4.85,-7.18l2.94 -5.33c5.75,-6.73 -6.4,5.58 3.11,-2.18 6.35,-5.17 2.99,-9.17 9.5,-10.59l2.75 -0.02c0.37,-0.01 0.99,0.06 1.48,0.15 2.04,6.82 -0.19,6.79 -4.97,11.68 -2.96,3.04 -5.2,7.33 0.35,10.3 5.9,-8.9 10.16,-14.35 15.62,-24.74 6.35,-12.12 7.67,-20.49 11.59,-27.4 0.16,-0.28 0.44,-0.76 0.7,-1.11 -1.21,-8.88 3.56,-21.41 4,-31.64 0.56,-13.03 -0.48,-23.16 -1.52,-35.66 5.81,-3.01 6.6,-5.2 11.42,-10.2 -0.07,-0.61 0.39,-1.49 0.36,-1.8 -0.19,-2 -2.36,-2.57 -2.37,-2.59l-7.64 6.12c-3.54,-3.53 -7.82,-0.05 -14.53,1.3 -1.32,-6.85 -2.56,-3.54 -4.68,-13.08l8.74 -0.47c1.86,-3.09 4.79,4.15 0.75,-4.26l-0.1 -4.05c-4.09,-10.28 -8.77,-20.37 -14.68,-28.92l-3.84 6.66c6.73,7.04 4.74,1.31 6.91,10.69l0.37 -0.7c1.98,6.52 -5.26,-6.08 3.08,3.4 0.22,0.25 0.57,0.55 0.77,0.87 2.96,4.78 1.56,2.09 1.9,8.67 -10.91,-1.3 -7.16,1.48 -7.49,-6.33l-2.12 6.77c-0.28,-0.41 -0.67,-0.87 -0.91,-1.2l-4.77 -8.4c-3.42,-1.37 -3.64,1.32 -4.14,1.81zm85.63 490.13c1.78,-8.21 9.9,-14.33 20.63,-14.5 -1.53,6.62 -2.04,6.83 -6.77,9.49 -7.7,4.32 -0.65,5.06 -13.86,5.01zm28.62 -24.03c0.57,-8.93 -1.27,-3.3 3.61,-10.55 5.94,-8.82 5.32,-12.41 14.36,-12.38 0.04,0.51 0.05,1.11 0.06,1.54l0 7.32c-4.1,2.65 -1.76,-1.48 -5.41,4.69l-4.7 6.79c-5.04,3.84 1.75,1.34 -7.92,2.59zm72.31 -33.72c-2.77,7.34 -8.78,16.3 -12.32,23.03l-11.07 -4.3c-6.29,3.72 -2.05,0.79 -1.66,5.14 -3.69,-1.46 1.03,-1.8 1.85,5.45 -10.98,2.76 -8.49,0.91 -18.22,-2.17 -0.47,-0.15 -1.91,-0.54 -2.38,-0.68l-6.24 -2.44c-2.57,-1.68 -1.05,-0.67 -2.82,-2.54 12.67,-8.86 16.24,4.9 23.36,-5.12l-24.47 -9.09c-12.34,-0.55 -12.48,3.16 -17.77,10.22 -3.41,4.55 -8.11,8.1 -12.11,12.33 -8.12,8.6 -16.2,17.32 -26.69,23.71 -1.24,10.65 -3.29,6.1 1.63,18.33 1.8,4.48 5.56,13.87 6.51,18.42 0.85,-5.63 -0.4,-7.03 -0.13,-13.74 0.09,-0.04 3.69,0.42 4.08,-4.14 0.21,-2.51 -1.2,-4.73 0.15,-11.01 4.94,2.09 6.5,-0.02 4.59,15.05l6.92 -0.8 -3.52 -11.31c9.17,-8.88 27.38,-25.89 34.82,-35.21 7.47,1.43 19.43,4.9 24.38,9.72l0.09 -0.65c23.31,5.66 23.46,15.97 36.82,-7.47l8.66 -13.43c0.14,-0.6 0.56,-0.66 0.86,-0.97l4.29 -7.5 -0.85 -2.93 -2.05 -0.71c-7.27,-2.9 -1.88,1.93 -3.4,-2.05 0.14,0.07 2.6,-6.24 -0.12,1.62l-0.57 1.15c-0.06,0.11 -0.33,0.48 -0.39,0.59 -4.89,8.71 -2.22,14.74 -12.49,22.19 -0.43,0.32 -1.23,1.36 -1.56,0.97 -0.36,-0.4 -1.11,0.69 -1.67,1 0.87,-5 0.54,-1.62 -4.59,-4.59 3.04,-9.51 2.21,-0.17 9.98,-16.26l3.75 -9.2c2.7,-6.72 4.31,-10.3 10.74,-6.63 3.91,-9.44 3,-0.47 3.39,-11.02 0.15,-4.07 0.46,-9.52 -2.07,-12.47 -6.12,10.3 -11.61,21.33 -17.71,29.51zm-571.67 -339.63l4.71 9.2c8.48,3.53 15.97,8.7 28.25,9.54 13.26,0.92 21.99,1.81 25.82,13.6l2.02 0.54 1.81 0.29c6.87,0.45 2.32,-4.1 8.59,-2.36 0.25,9.25 -0.39,6.29 -1.57,12.25l0.67 9c-0.37,5.67 1.16,4.6 -3.48,5.06 -3,0.3 -3.15,-1.18 -5.55,-2.74l-2.31 -1.38c-1.23,11.63 5.31,8.8 -8.47,12.79 -4.33,1.26 -6.04,1.54 -10.37,4.6 -0.3,0.21 -0.66,0.5 -0.93,0.71l-2.09 1.98c-1.53,1.72 -1.11,-1.03 -1.08,2.1 1.22,0.55 7.09,1.85 4.1,9.13 -3.35,8.15 4.63,-1.61 -2.86,3.11 -2.86,1.81 -1.46,0.7 -5.83,1.5l-1.49 -9.65c0.03,-10.89 1.33,-5.69 -4.62,-7.17l0.53 15.14c3.88,5.35 8.56,10.27 15.93,4.47 4.67,-3.67 3.64,-12.62 3.61,-19.62 9.69,-2.14 12.72,-5.12 20.06,-7.75 5.62,-6.01 14.75,-13.92 14.52,-28.85 -0.6,-37.46 -45.88,-35.76 -52.63,-37.38 -12.84,-3.07 -17.25,-16.84 -8.74,-26.64 -1.93,-4.21 3.98,-3.58 -4.51,-2.46 -2.03,0.27 -3.45,1.65 -4.6,3.39 -6.45,9.74 4.65,18.67 -1.19,25.05 -3.41,3.73 -3.38,-3.55 -8.3,2.55zm18.37 -41.76c2.01,5.36 2.54,1.99 -0.08,7.68l-6.89 0.59c-1.01,-4.95 -1.84,-3.18 0.15,-7.75 8.42,-3.78 4.88,-1.19 6.82,-0.52zm6.4 -25.34l0.89 14.3c-13.21,2.49 -22.59,8.74 -27.74,18.01 -5.63,10.13 -6.33,28.04 2.08,34.79 4.92,-6.1 4.89,1.18 8.3,-2.55 5.84,-6.38 -5.26,-15.31 1.19,-25.05 1.15,-1.74 2.57,-3.12 4.6,-3.39 8.49,-1.12 2.58,-1.75 4.51,2.46 10.54,-6.99 16.35,-6.03 29.64,-3.42l1.54 -2.2c2.6,1.39 3.6,1.29 5.1,2.93 4.25,4.64 0.61,-4.79 2.06,5.45 0.39,-0.48 0.83,-1.12 1.06,-1.53 0.72,-1.31 1.9,-2.34 0.96,-3.69 1.33,3.51 1.48,5.08 1.74,7.05 0.01,0.08 3.96,4.31 -2.04,8.07 9.98,11.86 31.3,-1.32 6.38,-29.13 -0.11,-0.12 -0.41,-0.45 -0.6,-0.69 -4,-1.34 -13.6,-5.36 -18.65,-7.59 -1.15,-12.52 1.19,-11.77 -4.62,-20.62 -12.33,-0.29 -9.81,0.32 -16.4,6.8zm-32.67 102.89l1.84 15.5c5.7,4.34 12.45,18.15 31.66,20.54l0.25 15.41 -0.53 -15.14c5.95,1.48 4.65,-3.72 4.62,7.17l1.49 9.65c4.37,-0.8 2.97,0.31 5.83,-1.5 7.49,-4.72 -0.49,5.04 2.86,-3.11 2.99,-7.28 -2.88,-8.58 -4.1,-9.13 -0.03,-3.13 -0.45,-0.38 1.08,-2.1l2.09 -1.98c0.27,-0.21 0.63,-0.5 0.93,-0.71 4.33,-3.06 6.04,-3.34 10.37,-4.6 13.78,-3.99 7.24,-1.16 8.47,-12.79l2.31 1.38c2.4,1.56 2.55,3.04 5.55,2.74 4.64,-0.46 3.11,0.61 3.48,-5.06l-0.67 -9c-2.33,-2.28 -2.76,-2.16 -3.92,-6.84 -3.41,4.99 -2.35,10.98 -4.84,3.34 -5.74,5.38 -6.87,10.08 -17.19,12.56 -6.36,1.53 -18.39,1.45 -21.43,-2.82 -13.02,-4.64 -7.44,-9.37 -12.98,-15.01l-1 3.39c-0.99,-4.09 0.22,-4.29 -5.24,-6.8l1.67 -0.73c-5.19,-4.89 -10.19,0.31 -12.6,5.64zm-49.02 206.05l5.78 19.89c-6.81,6.72 -13.89,12.14 -21.41,16.53 -1.6,5.93 0.36,1.64 -3.47,2.48 -5.29,8.12 -13.5,8.92 -13.42,17.63 0.07,5.89 8.18,16.51 10.56,22.99 0.5,-0.39 0.78,-1.92 0.9,-1.68l1.26 -3.25c0.08,-0.48 0.14,-0.99 0.18,-1.48 0.22,-3.03 -1.5,-3.23 -1.38,-5.24l0.78 -5.16c2.5,0 2.4,-0.28 4.85,0.62 7.37,2.69 6.3,11.85 9.99,15.38 0.21,0.2 0.55,0.52 0.8,0.68 0.35,0.23 1.54,0.79 1.99,0.88 3.55,0.69 -4.21,4 5.37,-0.74 -2.81,-1.55 -11.15,-17.29 -12.44,-21.72l7.78 -4.34c0.53,-4.79 0.87,-2.17 5.13,-5.44 37.57,-28.84 22.68,-20.36 15.85,-55.75 -5.46,9.09 -1.48,7.41 -1.27,14.52 0.26,8.6 0.59,3.38 -1.75,6.25 -5.97,7.29 -7.34,-1.46 -7.37,-1.52l-4.47 -13.05c-3.18,-0.69 -2.6,-1.8 -4.24,1.52zm310.79 -170.18l3.17 5.38c9.37,1.78 10.03,-0.29 15.86,-3.91l0.4 -22.43 3.73 -2.65c0.22,-0.15 0.7,-0.47 1.05,-0.71l-5.03 -1.51c12.69,-2.01 3.48,1.35 10.08,-3.07l2.49 -1.75c0.26,-0.15 0.67,-0.41 0.94,-0.54 2.46,-1.22 2.1,-0.82 3.87,-1.24 13.29,-3.18 6.12,-6.28 4.01,-9.93 -5.87,0.85 -5.78,1.42 -10.9,2.06 -3.83,0.48 1.07,0.32 -2.14,-0.03 -8.9,-0.98 11.54,-2.83 -5.17,1.57 -3.02,0.8 -5.92,0.76 -7.78,0.73 -2.54,4.21 -0.51,-0.28 -0.55,6.64 -0.03,4.96 0.26,3.67 -1.09,7.26 -3.44,-1.11 -4.43,-1.07 -5.17,-6.49 -1.13,-8.33 -1.12,-5.16 3.75,-5.64l-10.69 -3.06c2.63,0 8.54,0.39 10.86,0.22 6.96,-0.53 7.16,-1.03 9,-3.14 -9.53,0.87 -15.92,1.44 -24.91,-1.25 -7.52,-2.26 -10.1,-5.6 -15.71,-7.86 -5.6,8.58 -6.99,-0.41 -7.22,-6.3 -6.01,1.79 -2.88,2.79 -5.55,0.31 -6.47,-6 7.9,-2.47 -7.76,-4.9 -0.9,18.54 2.41,5.6 9.17,22.92 4.53,0.81 3.52,-1.74 9.37,0.49 6.44,2.46 2.41,4.28 5.18,6.17l2.45 1.7c4.81,2.86 10.24,3.89 16.63,3.89 -5.24,14.22 1.76,9.76 -2.34,27.07zm-354.49 122.79c-0.39,0.56 -0.82,1.26 -1.23,1.63 -0.35,0.31 -0.8,0.96 -1.18,1.27l-3.17 0.45c-6.74,-2.05 -4.16,0.93 -0.2,1.98 4.44,1.16 4.6,0.62 9.37,0.27l-10.69 3.56c13.13,-2.08 19.75,2.22 29.04,1.55l-6.64 2.78c4.35,2.6 17.24,4.28 22.04,4.66l6.36 29.24c1.64,-3.32 1.06,-2.21 4.24,-1.52l4.47 13.05c0.03,0.06 1.4,8.81 7.37,1.52 2.34,-2.87 2.01,2.35 1.75,-6.25 -0.21,-7.11 -4.19,-5.43 1.27,-14.52l-6.83 -28.37c-6.3,-3.82 0.29,-0.92 -8.29,-7.05 -5.55,-3.96 -2.64,5.88 -4.31,-4.7l-20.59 -3.99c-5.15,2.17 -13.53,3.87 -18.23,2.03l-3.87 1c-0.8,5.79 1.16,1.51 1.4,1.41l-2.08 0zm389.65 -210.74c0.17,0.23 0.49,0.53 0.59,0.63 8.68,9.13 10.6,13.22 9.82,25.07 1.7,-2.37 1.39,-0.18 2.14,-4.51 0.72,-4.18 0.34,-3.21 -0.16,-7.71 1.56,3.26 -1.5,4.48 4.17,1.9l2.7 -2.06c0.49,-0.36 0.95,-0.92 1.44,-1.37 -0.25,3.16 -0.64,5.44 -0.57,6.26 0.05,0.57 2.63,5 -0.94,13.62 2.93,-6.06 -1.8,-5.06 -1.99,-5.28 0.6,6.9 -0.47,5.21 -5.04,7.94 1.72,-6.06 3.77,-9.16 2.43,-16.37 -0.06,4.5 0.23,3.07 -1.15,7.25 -2.3,6.96 -3.81,0.81 -2.41,12.54 0.31,2.6 0.53,-3.68 -0.13,1.94 -0.48,4.17 -0.2,-1.71 -0.78,5.72 15.5,-2.52 6.08,-2.42 17.07,-10.68 5.11,-4.95 3.59,-18.1 1.96,-25.94 -1.11,-2.82 -3.35,-8.17 -5.08,-11.1 -1.61,-2.74 -1.42,-2.85 -3.95,-5.22 -3.21,-3 -0.8,-1.42 -4.21,-2.75 -7.36,0.6 -5.94,-1.5 -13.26,-4.3 -0.47,-0.18 -2.71,-0.95 -3.54,-1.32 -0.41,-0.17 -0.78,-0.37 -1.18,-0.55 -15.88,-7.34 -18.63,0.08 -38.97,-2.71 -0.02,-0.22 0.14,-0.55 0.18,-0.65l1.92 -5.1c-2.75,-1.07 -6.49,-3.26 -9.17,-0.25 -6.28,-6.32 -0.23,-7.07 -12.22,-8.93 0,3.56 -0.07,2.94 0.43,5.96 1.36,8.17 9.72,14.03 8.74,12.39 11.51,1.81 7.8,4.69 24.44,4.56 10.55,-0.09 18.25,1.7 26.01,4.62 1.81,4.26 0.82,0.43 0.71,6.4zm62.35 266.96c0.66,-10.49 3.69,-12.78 14.93,-13.4 -0.09,0.67 -0.17,1.34 -0.35,2l-4.52 8.62c-3.63,2.8 -5.59,2.48 -10.06,2.78zm3.69 -50.55c4.05,6.21 16.29,4.04 28.22,4.01 -2.14,5.06 -46.04,48.82 -53.46,56.28l-19.3 20.04c4.49,1.07 4.2,1.13 7.23,-1.31l3.78 -4.17c8.64,-9.84 14.37,-12.08 17.92,-17.99 2.29,-3.79 -0.68,-0.61 1.87,-2.99 3.81,-3.55 -2.61,-0.85 3.15,-1.76 0.48,-0.07 3.44,0.42 3.97,0.63 0.52,0.21 0.86,0.51 1.35,0.76l2.72 1.99c-1.6,9.68 -5.54,6.42 -11.54,12.92 -0.22,0.23 -0.49,0.61 -0.71,0.85 -0.21,0.24 -0.5,0.61 -0.72,0.85 -4.44,4.75 -7.75,5.61 -1.18,7.76 3.44,-2.16 3.36,-2.64 6.44,-5.73 1.24,-1.25 1.67,-1.76 3.09,-2.85 2.24,-1.71 0.27,-0.54 2.58,-1.52l7.29 -8.36c6.7,-4.52 2.97,-6.64 10.77,-8.91 3.15,-5.15 11.84,-14.47 17.19,-17.3 4.03,-9.86 25.52,-23.26 31.39,-35.81l-7.29 2.01c-4.9,0.33 -18.1,-10.1 -6.96,6.15 -3.42,9.1 -1.22,5.2 -9.07,9.05 -3.23,1.59 -5.48,5.71 -8.05,8.17 -0.13,0.13 -0.48,0.44 -0.61,0.56l-3.06 2.37c-0.13,0.12 -0.46,0.43 -0.59,0.58l-3.59 5.45c-8.86,9.56 -8.38,1.1 -8.52,0.82 -1.98,-3.96 -3.04,1.1 0.08,-5.01l4.2 -3.12c8.65,-6.72 -4.4,0.64 13.48,-14.04 0.99,-0.82 -1.75,-6.49 6.01,-3.04 -2.24,-4.88 0.83,-2.96 -11.53,-5.38 0.42,-0.51 0.96,-0.92 1.51,-1.31l2.95 -2.19c0.68,-0.39 3.02,-1.19 3.95,-1.54 5.1,-1.91 2.34,0.66 4.93,-2.6 -5.76,-2.94 -7.84,0.3 -12.61,0.04l-12.97 6.07c-4.01,-1.49 -8.86,-2.77 -14.31,-0.43zm97.41 -228.64c-6.43,7.03 -2.1,23.28 2.75,29.92 2.39,3.28 6.65,7.41 9.17,9.5 4.5,3.76 7.08,3.67 12.03,6.41 0.29,-0.39 0.92,-1.26 1.16,-0.89 0.24,0.38 1.92,-1.27 2.34,-1.43 0.18,-0.06 4.46,-0.7 5,-0.7 7.2,-0.01 19.89,2.62 27.46,5.85l4.94 1.73c0.08,0.25 0.15,0.91 0.38,1.3l8.27 -8.53c0.21,-0.21 0.6,-0.63 0.86,-0.98 -14.12,-19.98 -42.26,-8.96 -52.29,-20.45l-2.72 4.1c-0.34,-0.23 -0.68,-0.69 -0.86,-0.9 -0.18,-0.2 -0.62,-0.64 -0.84,-0.9 -3.71,-4.29 -5.69,-8.73 -10.31,-10.56 2.61,-4.33 2.63,-2.32 3.46,-8.33l2.44 6.19c0.89,-7.59 3.55,-16.88 -4.59,-20.79 -4.74,3.76 -4.33,4.33 -4.44,10.69l-1.14 0.62c-0.35,0.64 0.16,-4.9 -0.55,2.43 -4.03,-3.11 -6.58,4.25 -2.52,-4.28zm-245.67 -149.28c-3.23,3.54 -8.29,4.96 -13.28,6.52 0.62,0.54 1.17,0.94 1.52,1.94 0.23,0.61 1.94,1.37 3.05,1.37 -0.24,0.48 -0.76,0.55 -0.87,1.36 -0.15,1.14 -1.55,1.16 -1.48,4.87l0.74 2.06c3.67,-1.46 3.83,-8.03 7.74,-8.12 5.26,2.04 2.49,1.42 7.05,3.19 -3.48,8.02 -0.04,1.67 -4.42,5.22l-11.41 5.74c-5.14,4.8 -0.71,-7.05 -1.02,2.6 -0.01,0.29 0.29,0.93 0.32,1.18 0.03,0.28 0.21,0.91 0.48,1.27 10.39,-6.79 18.15,-8.12 28.88,-13.31 1.44,-5.49 2.12,-3.05 -3.43,-5.12 -0.32,-0.13 -0.78,-0.2 -1.13,-0.32l-3.68 -1.04 20.47 -15.65c7.36,3.47 5.86,2.54 13.75,0.84 0.57,5.61 2.08,2.63 8.11,2.85 10.32,0.38 14.68,-0.68 14.83,5.06 0.12,4.32 -18.92,3.24 -20.89,3.54 -2.8,0.43 -13.56,1.67 -14.62,5.42 -0.06,0.18 0.48,1.28 0.68,1.43 13.46,-2.55 58.19,-3.85 66.96,4.41 2.62,-4.17 3.79,-4.9 4.35,-9.01l-2.09 -0.34c-15.49,-1.79 -9.22,-1.12 -12.96,-5.77 2.48,2.57 2.09,0.3 -1.13,2.51l-6.53 3.59c-0.29,-0.43 -0.58,-1.01 -0.75,-1.37l-1.21 -2.49c-0.13,-0.31 -0.28,-0.8 -0.38,-1.08 -0.13,-0.38 -0.02,-1.44 -0.48,-2.7 0.41,-0.18 0.98,-0.29 1.31,-0.35 0.32,-0.07 0.9,-0.24 1.3,-0.3l6.41 -0.41c16.43,-1.08 7.88,1.28 15.84,2.18 10.6,1.19 4.7,0.09 7.01,-2.9 -19.98,-4.96 -34.11,-8.87 -56.58,-8.3 -9.59,0.24 -19.03,1.49 -28.01,3.36 -8.41,1.75 -16.79,5.57 -24.45,6.07zm-322.73 277.81c-2.45,20.11 -1.39,43.83 -1.39,65.38 0,6.63 -0.83,28.38 0.7,33.25 2.62,8.32 13.04,6.83 22.66,9.29l8.63 0.01 6.64 -2.78c-9.29,0.67 -15.91,-3.63 -29.04,-1.55l10.69 -3.56c-4.77,0.35 -4.93,0.89 -9.37,-0.27 -3.96,-1.05 -6.54,-4.03 0.2,-1.98l-4.74 -4.89c0.02,-2.63 -0.64,-3.06 0.36,-5.72 2.15,-5.66 -0.54,-1.81 4.38,-4.05 6.03,4.13 3.17,4.96 5.58,11.31l2.08 0c-0.24,0.1 -2.2,4.38 -1.4,-1.41l3.87 -1c4.7,1.84 13.08,0.14 18.23,-2.03 -5.99,-0.51 -13.87,-3.42 -19.04,-1.69 -7,-7.23 -1.5,-51.23 -3.19,-68.81 -1.19,-6.13 -0.95,-1.42 -1.97,-3.28 -0.13,-0.24 -0.35,-0.65 -0.48,-0.89l-0.9 -1.89c-2.86,-5 3.96,-1.59 -5.6,-4.11 -0.35,7.22 0.81,13.46 0.59,19.56 -0.3,8.36 -2.39,3.96 -2.43,14.95 -0.05,13.3 -0.43,26.58 -0.16,39.88l-1.44 -2.97c-0.19,-0.55 -0.37,-0.88 -0.55,-1.5 -0.17,-0.62 -0.25,-0.89 -0.38,-1.54l0.28 -71.73c0.12,-0.22 0.41,-0.6 0.56,-0.81 4.74,-6.68 9.66,-1.83 3.03,-6.73 -3.2,0.2 -2.96,0.12 -6.4,1.56zm286.5 155.61c5.44,0.23 3.7,-2.89 3.92,-3.15 1.25,-1.38 -7.11,-0.62 4.33,-1.4 0.13,-0.01 0.57,-0.07 0.85,-0.05l-4.46 8.58c6.57,1.86 8.32,6.59 12.67,10.83l21.81 23.49c0.16,0.08 0.59,0.25 0.77,0.34 4.68,2.26 8.61,4.93 10.58,3.8 -0.01,0.06 -3.43,2.52 2.28,8.61l14.54 14.39c2.8,-4 3.39,-2.38 4.58,-10.39l-5.41 -3.77c-5.08,-3.84 -4.99,-9.82 -15.25,-16.85 -3.66,-2.5 -2.53,0.95 -3.58,-2.54 -0.05,-0.17 -0.17,-0.61 -0.17,-0.8l2.28 -4.68c-6.55,-8.43 -21.74,-17.55 -25.8,-26.92 -3.55,-1.09 1.07,2.79 -4.15,-2.46 -5.11,-5.12 -1.42,-0.48 -2.43,-4.25 -4.89,-2.45 -2.85,-1.34 -6.97,-5.55l-5.38 -0.47c0,0.31 -1.93,-3.18 -8.61,-4.22 0.3,-6.39 -2.32,-4.24 -1.82,-11.29l-3 -3.33c-0.11,0.38 -0.45,0.81 -0.58,1.03 -4.91,7.86 -8.08,10.76 3.62,23.17 0.2,0.22 0.54,0.58 0.71,0.78l3.84 3.17c5.39,5.83 2.2,3.15 0.83,3.93zm-227.87 101.39c2.21,5.04 6.39,11.2 9.21,16.33 4.61,8.4 4.62,12.11 16.81,11.3 4.72,-2.71 8.8,-4.48 14.69,-4.46 1.46,-2.06 -1.95,-0.15 4.16,-3.18 1.94,-0.97 3.87,-1.44 5.6,-2.02 4.81,-1.61 7.23,-1.87 10.31,-5.28 -3.84,-3.21 -3.91,-0.82 1.94,-2.45 1.99,-3.79 -1.52,-1.79 4.58,-1.55 0,-18.65 -3.29,-11.27 -9.58,-14.95 -5.58,2.45 -6.49,3.44 -12.3,3.56 -4.04,4.02 -13.69,6.78 -19.82,8.22l-9.88 -16.04c-0.13,-0.57 -0.56,-0.61 -0.85,-0.9 -3.12,2.22 -0.2,-1.13 -2.43,2.5 -1.72,2.8 0.23,-1.07 -1.39,3.51 -1.82,5.15 1.69,0.83 -1.84,4.94 -0.15,-0.48 -0.88,-1.77 -1.11,-2.01 -3.26,-3.24 2.37,0.39 -3.48,-2.57l-2.76 2.76c-0.23,0.25 -0.75,1.4 -0.93,1.11 -0.18,-0.3 -0.63,0.78 -0.93,1.18zm526.56 72.91l5.45 13.86c0.44,-3.14 -0.45,0.09 2.56,-1.52 0.37,6.97 0.66,7.08 -3.64,13.94 -6.89,0.33 -4.82,-0.22 -11.33,4.1l-15.82 9.77c-10.71,6.94 4.3,-4.69 -10.62,5.38l-2.75 1.37c-11.68,5.15 -1.82,2.38 -12.15,5.07 -4.88,1.27 -4.4,0.8 -8.73,5.65 0.93,1.02 2.12,2.01 3.09,3.58 1.38,2.24 0.45,0.52 1.54,3.11l5.8 5.26c5.43,-3.08 7.12,-2.7 10.8,-7.45 -3.67,0.34 -2.16,-1.31 -4.45,0.59l2.68 -4.88c3.13,-4.4 6.57,-8.03 12.57,-8.35 14.53,-0.79 -0.74,-2.79 9.13,-3.07 10.74,-0.3 2.82,-1.61 6.19,2.91l2.74 -1.79c-1.48,-3.53 -1.88,-0.22 -1.2,-4.69 -3.09,4.32 -2.32,0.33 -2.57,0 1.92,-1.24 4.03,-2.64 5.63,-4.13 0.05,0.04 -4.07,5.05 4.05,-0.96l21.95 -13.55 0.3 -4.67c0.02,-0.15 0.13,-0.51 0.17,-0.66l0.81 -2.59c1.92,-13.43 -6.39,-3.08 -8.07,-12.99 -1.26,-7.42 1.52,-8.12 5.74,-9.38l-4.26 -8.55 -6.92 0.8c1.91,-15.07 0.35,-12.96 -4.59,-15.05 -1.35,6.28 0.06,8.5 -0.15,11.01 -0.39,4.56 -3.99,4.1 -4.08,4.14 -0.27,6.71 0.98,8.11 0.13,13.74zm-9.02 -368.09c5.41,5.33 12.51,8.59 21.36,9.93 0,4.01 -0.62,10.63 1.35,14.07l2.63 0.04c4.28,2.28 5.41,7.92 10.45,0.66 0.26,-0.38 0.91,-1.62 1.1,-2.06l1.2 -4.77c0.3,-2.99 -0.27,-5.15 0.21,-9.12 -0.34,-0.24 -0.94,-0.38 -1.15,-0.47l-2.34 -0.97c-3,-2.11 1.97,3.36 -1.13,-2.52 -0.09,-0.17 -0.36,-0.63 -0.46,-0.8 -2.11,-3.65 -2.42,0.94 -1.76,-3.45 2.19,2.64 -2.79,0.88 4.45,3.02 7.42,2.19 14.29,-0.32 20.01,-2.67l1.02 -1.7c0.13,-1.14 0.27,-1.8 0.51,-2.67 -6.7,1.19 -4.63,1.37 -11.32,-0.89l-11.41 -0.8c-7.06,0.45 -4.37,0.66 -10.65,2.64 -4.85,1.53 -4.84,0.66 -6.37,-3.79 -0.38,0.37 -0.74,0.85 -1.13,1.12 -0.38,0.26 -0.72,0.71 -1.21,1.01 -4.39,2.61 -4.17,2.11 -8.36,2.23l9.09 -3.64c-7.25,-3.46 -4.54,0.02 -4.52,-5.52 0.74,3.06 -1.18,1.96 1.8,2.97 6.27,2.13 0.66,0.56 4.18,-1.96 -2.96,-0.4 -5.86,-1.19 -6.34,-1.03 -3.58,-4.45 -3.74,-2.2 0.06,-3.68 -4.16,-10.25 -8.13,-26.53 -22.52,-14.84 -4.15,15.11 4.68,23.23 11.25,29.66zm132.73 235.81c2.08,6.99 -0.57,5.7 -3.6,12.48 2.53,2.95 2.22,8.4 2.07,12.47 -0.39,10.55 0.52,1.58 -3.39,11.02 -6.43,-3.67 -8.04,-0.09 -10.74,6.63l-3.75 9.2c-7.77,16.09 -6.94,6.75 -9.98,16.26 5.13,2.97 5.46,-0.41 4.59,4.59 0.56,-0.31 1.31,-1.4 1.67,-1 0.33,0.39 1.13,-0.65 1.56,-0.97 10.27,-7.45 7.6,-13.48 12.49,-22.19 0.06,-0.11 0.33,-0.48 0.39,-0.59l0.57 -1.15c2.72,-7.86 0.26,-1.55 0.12,-1.62 1.52,3.98 -3.87,-0.85 3.4,2.05l2.05 0.71c5.52,-4.17 18.59,-30.01 22.89,-36.96l3.31 -5.35 0.34 -9.37c-3.82,-4 -2.4,-2.69 -7.22,-6.39 -3.35,-2.57 -4.43,-4.11 -7.9,-6.66 -3.89,0.73 -6.14,4.21 -8.38,6.43 -1,0.99 -0.71,0.49 -2.36,2.03 0.15,0.32 0.29,0.79 0.37,0.98 2.27,5.3 -0.31,2.86 4.21,6.66l-2.71 0.74zm-546.13 -0.75c1.92,0.54 0.55,-0.51 2.43,2.28 0.1,0.14 1.81,3.79 1.83,3.84 3.43,1.82 4.8,4.17 5.43,7.94 1.63,1.14 2.45,1.39 4.59,3.69 1.76,1.89 1.61,2.32 3.2,4.4 4.13,5.38 4.54,2.69 7.13,9.11 2.17,0.51 1.5,-1.34 2.06,2.32 4.28,2.33 2.13,0.94 5.68,4.34 1.9,1.8 2.64,2.75 4.64,4.53 4.33,3.87 7.21,4.27 9.43,10.58 8.54,2.17 11.74,11 19.65,11.92 7.93,4.55 1.19,1.58 4.14,-2.24l-8 -6.1c-8.58,-10.74 -5.55,-0.59 -10,-10.72 3.95,1.17 -1.5,3.61 2.95,-2.45 0.21,-0.29 0.96,-1.76 1.3,-2.14l2.9 1.36c4.4,2.42 4.05,3.55 5.85,5.05l26.42 18.54c5.48,1 1.18,1.49 4.37,0.55 5.02,-1.47 1.53,0.19 4.79,-2.67l-5.07 -3.14c-9.26,-2.46 -31.04,-20.16 -36.76,-25.53 -3.9,-2.24 -5.93,-5.13 -7.58,-8.43 -7.4,-3.94 -23.41,-22.85 -29.25,-31.57l-2.06 3.79c0.11,0.24 0.39,0.57 0.44,0.65l3.54 7.67c3.07,4.8 4.18,6.13 10.99,9.27 -0.44,8.48 0.19,5.66 -3.06,10.69 -5.26,0.06 -2.99,-0.33 -5.6,-2.32l-12.13 -15.58c-4.8,-7.07 -4.04,-2.05 -4.29,-10.82l-4.82 -0.81c-4.68,0.58 1.15,-2.86 -5.14,2zm225.25 19.65c-0.78,2.17 0.5,0.52 -1.29,2.61 -1.71,2.01 -0.75,0.66 -2.5,1.38 -2.15,4.09 -0.4,3.18 -5.23,5.61 4.72,0.26 2.49,0.13 5.36,1.35l0.83 8.52c0.02,0.22 0.13,0.62 0.16,0.84l0.35 1.98c0.04,0.33 0.09,0.86 0.12,1.18l0.07 2.76c-9.2,5.41 -11,0.88 -14.8,3.64 12.81,11.45 23.89,-6.41 30.92,-13.54 7.06,-7.15 19.57,-22.74 27.39,-26.87 0.21,-2.19 -0.91,-0.89 0.78,-2.27 -8.75,-6.54 -0.33,0.23 -8.03,-1.72 -0.01,-0.01 -6.08,0.21 -4.02,-5.53l5.75 -5.89c7.33,-10.5 -0.46,-8.56 -0.48,-8.59 -10.47,8.52 -25.4,29.36 -35.38,34.54zm-341.72 -253.6c3.01,8.45 8.77,16.16 13.23,22.05 5.27,6.95 11.74,8.89 15.46,17.11 3.8,0.98 3.82,1.41 8.13,3.65 1.94,-3.24 -2.81,-4.59 7.56,0.72l-9.08 -5.78c3.84,1.25 8.02,4.13 11.85,-0.23l-7.93 -11.53c0.43,-5.07 -1.32,-2.36 1.89,-2.3 -4.36,-6.58 -8.67,-6.79 -11.91,-15.35 -0.91,-0.65 0.17,0.47 -2.13,-1.78 -1.08,-1.06 -1.1,-1.29 -2.05,-2.29 -2.75,-2.9 0.07,-1.26 -4.22,-3.8 -2.82,4.12 -2.37,1.55 -4.04,0.23 -4.15,-3.29 -0.68,-7.12 -8.87,-17.52 -2.9,-3.68 0.07,-4.11 -6.24,-9.17 -2.72,3.29 -1.54,-0.32 -3.55,6.66 -0.77,2.66 -0.78,3.97 -1.03,8.56 2,1.3 5.1,3.53 5.72,5.12 1.73,4.45 0.88,0.39 -0.17,2.65l-2.62 3zm-39.9 35.51c6.63,4.9 1.71,0.05 -3.03,6.73 -0.15,0.21 -0.44,0.59 -0.56,0.81l-0.28 71.73c0.13,0.65 0.21,0.92 0.38,1.54 0.18,0.62 0.36,0.95 0.55,1.5l1.44 2.97c-0.27,-13.3 0.11,-26.58 0.16,-39.88 0.04,-10.99 2.13,-6.59 2.43,-14.95 0.22,-6.1 -0.94,-12.34 -0.59,-19.56 9.56,2.52 2.74,-0.89 5.6,4.11l0.9 1.89c0.13,0.24 0.35,0.65 0.48,0.89 1.02,1.86 0.78,-2.85 1.97,3.28 1.69,17.58 -3.81,61.58 3.19,68.81l1.68 -72.86c0.93,-0.32 2.58,-0.84 3.57,-1.09 1.57,-0.39 6.03,-1.26 6.51,-1.42 3.15,-9.41 1.96,0.34 8.04,-5.6 7.02,-6.86 -1.31,-10.51 6.47,-8.22l0.14 -2.39c-12.83,-8.03 -37.01,0.38 -39.05,1.71zm428.44 -253.4c7.87,2.31 14.03,5.87 20.63,10.69 2.79,2.05 6.38,4.37 8.95,6.36 1.59,1.24 2.19,1.71 4.1,3.58l3.75 4.68c5.01,2.72 7.23,4.83 9.62,10.2 5.61,1.88 14.27,16.58 16.7,23.33 8.65,-5.14 1.42,3.72 3.82,-1.99 0.27,-0.64 0.86,-0.57 1.11,-1 -2.7,-4.39 -4.15,-5.35 -6.31,-9.1l-4.88 -7.78c4.94,-5.51 -3.38,-0.16 1.81,0.03 4.81,0.17 -4.06,5.61 1.44,-0.03 -1.8,-1.77 -5.37,-6.25 -6.07,-6.61l2.74 -2.79c5.35,-1.82 -4.11,-1.7 0.7,0.22 -8.84,-9.73 -0.61,1.86 -6.52,-6.48l-1.13 -2.32c1.64,0.46 4.63,1.96 5.09,2.17l4.07 2.04 0.97 -6.43c-8.78,-10.38 -9.33,-8.91 -17.05,-15.65l-5.62 -5.96c-6.82,-1.98 -10.66,-7.17 -19.57,-10.36 1.35,6.51 -0.17,3.5 6.1,7.76 -0.27,0.17 -0.74,0.38 -0.85,0.45l-1.25 0.85c-1.74,2.35 -0.98,-1.19 -0.23,0.77 0.88,2.3 5.37,0.3 7.23,4.89 0.16,0.4 1.73,7.11 -5,5.04 -8.36,-2.59 -5.24,-5.04 -11.81,-7.39l-7.89 -1c-5.87,0.89 -0.01,-5.16 -4.65,1.83zm-397.99 134.81c-3.45,16.37 -4.99,29.41 -2.62,46.42 1.24,8.85 6.78,32.9 12.07,36.66l2.62 -3c1.05,-2.26 1.9,1.8 0.17,-2.65 -0.62,-1.59 -3.72,-3.82 -5.72,-5.12 0.25,-4.59 0.26,-5.9 1.03,-8.56 2.01,-6.98 0.83,-3.37 3.55,-6.66 6.31,5.06 3.34,5.49 6.24,9.17 8.19,10.4 4.72,14.23 8.87,17.52 1.67,1.32 1.22,3.89 4.04,-0.23 -0.87,-7.96 -10.64,-15.93 -13.54,-42.32 -3.18,-28.87 5.69,-38.9 5.99,-50.3 -2.54,-1.97 0.31,-4.3 -3.79,3.39 -0.51,0.95 -0.25,-0.06 -1.82,3.68 -0.43,1.01 -1.04,2.93 -1.39,4.01 -2.21,-2.07 -1.14,-2.53 -2.96,-0.7 -0.13,0.13 -0.48,0.73 -0.6,0.88 -0.13,0.17 -0.54,1.39 -0.64,1.11 -0.11,-0.31 -0.42,0.84 -0.41,1.14l-2.56 -6.71c1.29,17.32 4.45,-4.3 5.62,22.64l-4.7 -2c-0.33,-0.13 -0.78,-0.33 -1.06,-0.43 -2.04,-0.72 0.12,-1.75 -1.53,-0.09l1.18 30.05c-3.95,-1.67 -6.83,-1.28 -8.21,-10.61 -2.12,-14.4 5.34,-22.61 2.83,-32.85 -1.34,-5.47 3.17,-1.86 -2.66,-4.44zm118.7 301.83c0.84,5.59 4.5,8.94 7.22,15.2 6.29,-4.86 0.46,-1.42 5.14,-2l4.82 0.81c0.25,8.77 -0.51,3.75 4.29,10.82l12.13 15.58c2.61,1.99 0.34,2.38 5.6,2.32 3.25,-5.03 2.62,-2.21 3.06,-10.69 -6.81,-3.14 -7.92,-4.47 -10.99,-9.27l-3.54 -7.67c-0.05,-0.08 -0.33,-0.41 -0.44,-0.65l2.06 -3.79c-4.55,-6.64 -14.17,-19.8 -16.52,-26.61 -4.36,4.32 6.61,3.63 -5.73,3.63 -3.06,-7.45 -6.5,-17.46 -9.19,-24.46 -1.55,1.25 -5.41,1.6 -4.8,10.83 0.31,4.74 2.45,6.9 4.45,10.97 3.24,6.56 3.51,9.59 2.44,14.98zm-118.7 -301.83c5.83,2.58 1.32,-1.03 2.66,4.44 2.51,10.24 -4.95,18.45 -2.83,32.85 1.38,9.33 4.26,8.94 8.21,10.61l-1.18 -30.05c1.65,-1.66 -0.51,-0.63 1.53,0.09 0.28,0.1 0.73,0.3 1.06,0.43l4.7 2c-1.17,-26.94 -4.33,-5.32 -5.62,-22.64l2.56 6.71c-0.01,-0.3 0.3,-1.45 0.41,-1.14 0.1,0.28 0.51,-0.94 0.64,-1.11 0.12,-0.15 0.47,-0.75 0.6,-0.88 1.82,-1.83 0.75,-1.37 2.96,0.7 0.35,-1.08 0.96,-3 1.39,-4.01 1.57,-3.74 1.31,-2.73 1.82,-3.68 4.1,-7.69 1.25,-5.36 3.79,-3.39l2.58 -1.14c-4.35,-4.36 -0.98,0.94 -2.14,-4.66 -2.15,-10.43 -0.52,6.5 -0.04,-2.61 0.36,-6.86 5.35,-8.46 6.35,-15.66 -0.46,-0.34 -1.09,-0.63 -1.54,-0.76 -1.56,-0.48 -2.52,-1.52 -5.13,-0.59l-7.1 5.68 0.15 -4.79c-6.7,4.11 -13.01,23.84 -15.83,33.6zm536.37 -21.08c-1.46,6.91 -0.39,1 -2.86,5.69 -2.95,5.62 -1.95,0.89 -1.96,7.01 -4.06,8.53 -1.51,1.17 2.52,4.28 0.71,-7.33 0.2,-1.79 0.55,-2.43l1.14 -0.62c0.11,-6.36 -0.3,-6.93 4.44,-10.69 8.14,3.91 5.48,13.2 4.59,20.79l-2.44 -6.19c-0.83,6.01 -0.85,4 -3.46,8.33 4.62,1.83 6.6,6.27 10.31,10.56 0.22,0.26 0.66,0.7 0.84,0.9 0.18,0.21 0.52,0.67 0.86,0.9l2.72 -4.1c-9.06,-8.22 -5.35,-19.95 3.94,-24.48 12.29,-5.99 24.24,0.49 32.02,2.99 7.1,-5.88 -1.26,5.7 0.89,-6.51l5.75 -0.58c3.43,0.15 -2.25,1.49 5.96,0.44l1.34 3.53c3.3,7.23 3.59,5.15 2.94,15.81 -5.76,-1.69 -7.71,-2.27 -7.63,-10.52 -2.1,2.48 -2.07,-1.09 -6.09,3.03 -0.6,6.74 0.05,4.66 2,9.74 12.8,4.4 10.85,1.06 17.97,-5.62l-4.62 -17.5c-2.74,-2.35 -8.18,-7.87 -11.26,-9.23l-1.71 3.08c-0.93,2.31 0.03,0.92 0.12,1.36 -7.48,-0.14 -2.75,-0.09 -3.88,-0.92l-4.94 0.33c-1.07,0.53 -2.46,0.79 -3.73,1.01l-13.53 2.88c-4.34,0.43 -3.71,-0.22 -8.55,1.03 -0.54,0.14 -2.06,0.64 -2.53,0.82l-2.07 1.02c-8.68,4.25 -11.02,-4.69 -11,-4.98 0.19,-3.63 0.31,-2.02 4.35,-2.53 -3.06,-5.5 4.59,-5.05 -5.09,-4.14l-7.9 5.51zm-6.34 344.6l-36.73 37.3 1.5 4.82c1.45,2.5 1.83,1.11 4.12,4.91 4.5,-1.06 7.05,-1.34 9.16,-4.58l5.29 1.23c2.33,-1.16 3.21,-2.26 5.51,-4.15 2.19,-1.79 0.51,-0.66 2.55,-2.04 3.29,-2.22 1.07,-1.03 3.59,-1.87l0 -1.58c-1.49,-1.91 -3.06,-0.47 -1.64,-3.81 -2.08,-0.89 1.43,1.32 -2.25,-2.6 5.12,-0.78 4.65,-2.31 6.83,-8.11 -5.15,0.2 -1.19,1.39 0.54,-0.32l0.82 -1.72c0.06,-0.44 0.16,-0.69 0.07,-1.02 0.42,0.29 0.3,0.29 0.46,0.39l10.27 -7.41c4.31,-3.36 -0.46,0.33 2.37,-1.15 4.15,-2.16 0.82,-2.86 5.35,-2.55 -1.21,-4.11 -4.78,6.06 0,-7.63l-7.65 6.12c-1.12,-4.95 -0.67,-5.17 -1.69,-10.7l-1.39 4.49c-0.08,0.4 0,2.63 0.06,2.9l-7.14 -0.92zm89.04 -207.07l-8.15 5.47c8.31,-4.24 1.19,-0.91 4.2,-0.61 2.5,4.14 3.35,3.8 2.81,6.52l-1.27 5.09c1.2,-0.02 3.76,-0.55 5.11,-0.23 4.91,1.19 2.06,-0.4 5.58,2.78l23.98 -16.76c2.17,-4.38 1.5,-3.12 4.95,-6.79 1.71,-1.81 2.84,-2.67 4.61,-4.5 3.01,-3.11 5.55,-6.65 8.5,-11.12l-1.12 -5.53c-0.77,-4.61 0.24,-2.43 -1.16,-6.16 -0.71,0.04 -1.38,0.08 -2.11,0.19l-3.77 0.54c-6.2,1.62 -3.97,1.52 -5.03,3.34l-1.31 9.68c2.51,-0.48 2.3,-6.28 -11.35,9.86 -7.54,8.91 -16.03,6.24 -19.25,11.55 -11.09,0 -3.16,0.78 -5.22,-3.32zm-156.62 275.2c-3.24,-7.18 12.62,-11.5 16.92,-14.71 3.47,-2.58 1.82,-2.05 2.66,-3.03 2.45,-2.85 -1.14,-6.66 9.23,-3.34 2.64,4.03 1.25,-0.83 1.19,4.43 -0.02,2.36 -1.13,2.46 -3.09,3.83 -1.31,0.92 -3.71,3.28 -5.57,5.33 -2.38,2.63 -4.53,6.77 -14.1,6.91 -4.06,0.06 -2.13,0.89 -4.42,-1.32l0 5.27c-3.07,-2.3 -1.97,2.95 -2.82,-3.37zm-28.25 2.9c9.39,3.78 3.36,0.62 11.12,0.93 1.48,0.06 3.91,0.69 4.22,0.77 5.06,1.39 -2.67,3.67 2.83,-0.08 8.02,-5.45 2.85,-1.44 10.08,-4.52l-6.5 14.38c6.97,-3.04 13.53,-6.79 19.31,-10.15 5.43,-3.16 14.61,-10.07 18.74,-11.02l16.47 -12.78 2.21 -3.61c0.15,-0.27 0.45,-0.85 0.69,-1.27l-5.29 -1.23c-2.11,3.24 -4.66,3.52 -9.16,4.58 -2.29,-3.8 -2.67,-2.41 -4.12,-4.91l-1.5 -4.82c-5.2,1.13 -9.67,6.03 -14.61,9.37 -4.5,3.04 -9.44,6.01 -14.21,8.76 -9.28,5.35 -23.01,10.88 -30.28,15.6zm121.3 -426.61l-11.23 5.47c9.68,-0.91 2.03,-1.36 5.09,4.14 -4.04,0.51 -4.16,-1.1 -4.35,2.53 -0.02,0.29 2.32,9.23 11,4.98l2.07 -1.02c0.47,-0.18 1.99,-0.68 2.53,-0.82 4.84,-1.25 4.21,-0.6 8.55,-1.03l13.53 -2.88c1.27,-0.22 2.66,-0.48 3.73,-1.01l4.94 -0.33c1.13,0.83 -3.6,0.78 3.88,0.92 -0.09,-0.44 -1.05,0.95 -0.12,-1.36l1.71 -3.08c-5.22,-5.54 -8.68,-4.39 -16.06,-7.59 -0.69,-9.99 2.18,-13.45 -5.39,-18.51 1.04,7.81 5.33,-0.56 -1.53,4.74 -2.31,-5.07 2.89,-2.38 -4.59,-3.18 -7.69,1.98 -3.14,12.69 -4.08,18.48 -1.73,0.58 1.54,-0.56 -0.93,0.5 -10.58,4.52 -6.76,1.78 -8.75,-0.95zm-171.27 -108.29l13.76 5.54c4.64,-6.99 -1.22,-0.94 4.65,-1.83l7.89 1c6.57,2.35 3.45,4.8 11.81,7.39 6.73,2.07 5.16,-4.64 5,-5.04 -1.86,-4.59 -6.35,-2.59 -7.23,-4.89 -0.75,-1.96 -1.51,1.58 0.23,-0.77l1.25 -0.85c0.11,-0.07 0.58,-0.28 0.85,-0.45 -6.27,-4.26 -4.75,-1.25 -6.1,-7.76 -3.36,-5.58 -15.85,-6.47 -21.42,-10.78 -2.31,2.99 3.59,4.09 -7.01,2.9 -7.96,-0.9 0.59,-3.26 -15.84,-2.18l-6.41 0.41c-0.4,0.06 -0.98,0.23 -1.3,0.3 -0.33,0.06 -0.9,0.17 -1.31,0.35 0.46,1.26 0.35,2.32 0.48,2.7 0.1,0.28 0.25,0.77 0.38,1.08l1.21 2.49c0.17,0.36 0.46,0.94 0.75,1.37l6.53 -3.59c3.22,-2.21 3.61,0.06 1.13,-2.51 3.74,4.65 -2.53,3.98 12.96,5.77l2.09 0.34c-0.56,4.11 -1.73,4.84 -4.35,9.01zm5.37 440.94c-2.9,0.14 0.19,-2.78 -3.05,1.55 0.02,0.03 7.81,-1.91 0.48,8.59l-5.75 5.89c-2.06,5.74 4.01,5.52 4.02,5.53 7.7,1.95 -0.72,-4.82 8.03,1.72l24.11 -25.74c-6.57,-2.15 -3.26,-3.01 1.18,-7.76 0.22,-0.24 0.51,-0.61 0.72,-0.85 0.22,-0.24 0.49,-0.62 0.71,-0.85 6,-6.5 9.94,-3.24 11.54,-12.92l-2.72 -1.99c-0.49,-0.25 -0.83,-0.55 -1.35,-0.76 -0.53,-0.21 -3.49,-0.7 -3.97,-0.63 -5.76,0.91 0.66,-1.79 -3.15,1.76 -2.55,2.38 0.42,-0.8 -1.87,2.99 -3.55,5.91 -9.28,8.15 -17.92,17.99l-3.78 4.17c-3.03,2.44 -2.74,2.38 -7.23,1.31zm-139.95 -24.83l-0.4 2.37c0.15,0.52 68.66,74.17 75.94,77.45 1.95,-3.22 -0.09,-4.11 -0.07,-5.78l0.77 -2.8c0.04,-0.14 0.29,-0.54 0.32,-0.67 1.07,-4.3 -3.46,-3.48 -3.63,-3.53l-4.1 -1.29c1.46,-1.73 1.09,-2.13 1.14,-2.39l0.32 -2.32c0.04,-0.31 0.01,-0.94 0.06,-1.4l9.38 -0.9 -8.95 -12.29 -1.06 -0.93c-8.05,-4.49 -12.92,-12.84 -19.98,-19.11l-2.28 4.68c0,0.19 0.12,0.63 0.17,0.8 1.05,3.49 -0.08,0.04 3.58,2.54 10.26,7.03 10.17,13.01 15.25,16.85l5.41 3.77c-1.19,8.01 -1.78,6.39 -4.58,10.39l-14.54 -14.39c-5.71,-6.09 -2.29,-8.55 -2.28,-8.61 -1.97,1.13 -5.9,-1.54 -10.58,-3.8 -0.18,-0.09 -0.61,-0.26 -0.77,-0.34l-21.81 -23.49c-4.35,-4.24 -6.1,-8.97 -12.67,-10.83l4.46 -8.58c-0.28,-0.02 -0.72,0.04 -0.85,0.05 -11.44,0.78 -3.08,0.02 -4.33,1.4 -0.22,0.26 1.52,3.38 -3.92,3.15zm344.62 -212.64l-6.32 5.07c-6.36,4.33 -19.25,7.42 -23.68,3.3 -8.8,-0.11 -7.49,-2.67 -13.68,-4.34 -3.8,1.48 -3.64,-0.77 -0.06,3.68 0.48,-0.16 3.38,0.63 6.34,1.03 -3.52,2.52 2.09,4.09 -4.18,1.96 -2.98,-1.01 -1.06,0.09 -1.8,-2.97 -0.02,5.54 -2.73,2.06 4.52,5.52l-9.09 3.64c4.19,-0.12 3.97,0.38 8.36,-2.23 0.49,-0.3 0.83,-0.75 1.21,-1.01 0.39,-0.27 0.75,-0.75 1.13,-1.12 1.53,4.45 1.52,5.32 6.37,3.79 6.28,-1.98 3.59,-2.19 10.65,-2.64l11.41 0.8c6.69,2.26 4.62,2.08 11.32,0.89 -0.24,0.87 -0.38,1.53 -0.51,2.67l-1.02 1.7c-1.21,0.54 1.61,1.91 -5.69,1.75 7.12,0 1.12,-0.6 3.61,3.19 8.32,-4 13.65,-8.84 18.07,-16.95 -3.49,-7.12 -0.87,-7.87 -0.45,-16.67 0.52,-10.64 -0.48,-8.78 -9.41,-9.33 -0.93,2.48 -2.75,16.38 -3.6,21.49l-3.5 -3.22zm-594.08 278.38c3.56,2.48 3.45,5.95 6.11,7.66l6.93 4.03c0.12,0.15 0.33,0.53 0.42,0.68l1.28 3.37c0.49,0.8 1.2,1.37 1.42,1.6 0.11,0.12 0.46,0.38 0.58,0.5 7.78,8.31 1.61,13.02 11.01,12.58l2.82 -0.76c5.3,-3.31 1.3,-0.38 2.38,-7.98 0.86,-6.08 -2.08,-0.01 0.99,-3.89 -2.93,-6.53 -6.25,-10.17 -9.2,-17.78 -9.58,4.74 -1.82,1.43 -5.37,0.74 -0.45,-0.09 -1.64,-0.65 -1.99,-0.88 -0.25,-0.16 -0.59,-0.48 -0.8,-0.68 -3.69,-3.53 -2.62,-12.69 -9.99,-15.38 -2.45,-0.9 -2.35,-0.62 -4.85,-0.62l-0.78 5.16c-0.12,2.01 1.6,2.21 1.38,5.24 -0.04,0.49 -0.1,1 -0.18,1.48l-1.26 3.25c-0.12,-0.24 -0.4,1.29 -0.9,1.68zm553.6 122.42c-0.61,4.09 0.15,2.13 -2.79,4.53l-58.21 33.12 -8.11 -7.63c-0.52,12.45 2.07,12.34 3.19,21.89 -4.41,-0.37 -7.08,-1.29 -10.34,-2.43 4.17,12.24 12.83,13.42 24.21,6.23l-5.8 -5.26c-1.09,-2.59 -0.16,-0.87 -1.54,-3.11 -0.97,-1.57 -2.16,-2.56 -3.09,-3.58 4.33,-4.85 3.85,-4.38 8.73,-5.65 10.33,-2.69 0.47,0.08 12.15,-5.07l2.75 -1.37c14.92,-10.07 -0.09,1.56 10.62,-5.38l15.82 -9.77c6.51,-4.32 4.44,-3.77 11.33,-4.1 4.3,-6.86 4.01,-6.97 3.64,-13.94 -3.01,1.61 -2.12,-1.62 -2.56,1.52zm-175.28 -434.37l-1.55 1.54c-5,13.05 -11.78,11.88 -23.33,18.47 -1.84,2.11 -2.04,2.61 -9,3.14 -2.32,0.17 -8.23,-0.22 -10.86,-0.22l10.69 3.06c-4.87,0.48 -4.88,-2.69 -3.75,5.64 0.74,5.42 1.73,5.38 5.17,6.49 1.35,-3.59 1.06,-2.3 1.09,-7.26 0.04,-6.92 -1.99,-2.43 0.55,-6.64 1.86,0.03 4.76,0.07 7.78,-0.73 16.71,-4.4 -3.73,-2.55 5.17,-1.57 3.21,0.35 -1.69,0.51 2.14,0.03 5.12,-0.64 5.03,-1.21 10.9,-2.06 2.11,3.65 9.28,6.75 -4.01,9.93 -1.77,0.42 -1.41,0.02 -3.87,1.24 -0.27,0.13 -0.68,0.39 -0.94,0.54l-2.49 1.75c-6.6,4.42 2.61,1.06 -10.08,3.07l5.03 1.51c7.27,0.67 15.42,-3.65 20.84,-7.45 3.34,-2.34 6.51,-4.79 8.45,-6.84 3.8,-3.99 2.46,-4.81 7.63,-8.2l1.22 -6.25c-10.99,8.26 -1.57,8.16 -17.07,10.68 0.58,-7.43 0.3,-1.55 0.78,-5.72 0.66,-5.62 0.44,0.66 0.13,-1.94 -1.4,-11.73 0.11,-5.58 2.41,-12.54 1.38,-4.18 1.09,-2.75 1.15,-7.25 1.34,7.21 -0.71,10.31 -2.43,16.37 4.57,-2.73 5.64,-1.04 5.04,-7.94 0.19,0.22 4.92,-0.78 1.99,5.28 3.57,-8.62 0.99,-13.05 0.94,-13.62 -0.07,-0.82 0.32,-3.1 0.57,-6.26 -0.49,0.45 -0.95,1.01 -1.44,1.37l-2.7 2.06c-5.67,2.58 -2.61,1.36 -4.17,-1.9 0.5,4.5 0.88,3.53 0.16,7.71 -0.75,4.33 -0.44,2.14 -2.14,4.51zm340.59 177.38c-4.93,-28.4 3.22,-75.13 -8.48,-78.97 -9.67,-3.17 -0.78,10.77 -1.01,17.73 -0.26,7.75 -0.68,14.81 -0.68,23.02 -0.01,42.44 -2.62,37.83 10.17,38.22zm-622.76 47.42c2.29,8.28 12.02,28.45 12.07,33.36l10.29 14.12c1.07,-5.39 0.8,-8.42 -2.44,-14.98 -2,-4.07 -4.14,-6.23 -4.45,-10.97 -0.61,-9.23 3.25,-9.58 4.8,-10.83 2.69,7 6.13,17.01 9.19,24.46 12.34,0 1.37,0.69 5.73,-3.63l-5.92 -12.46c-4.92,-5.51 -7.61,-20.11 -12.29,-25.88 -3.58,1.14 2.92,1.64 -1.2,-0.57 -0.2,-0.11 -2.7,-1.53 -3.46,-1.76l1.49 12.18c-7.36,-2.32 -3.75,2.18 -8.04,0.31 -0.22,-0.09 -0.65,-0.34 -0.85,-0.48l-4.92 -2.87zm236.6 -162.55c4.1,-17.31 -2.9,-12.85 2.34,-27.07 -6.39,0 -11.82,-1.03 -16.63,-3.89l-2.45 -1.7c-2.77,-1.89 1.26,-3.71 -5.18,-6.17 -5.85,-2.23 -4.84,0.32 -9.37,-0.49 -6.76,-17.32 -10.07,-4.38 -9.17,-22.92 15.66,2.43 1.29,-1.1 7.76,4.9 2.67,2.48 -0.46,1.48 5.55,-0.31 0.23,5.89 1.62,14.88 7.22,6.3 -1.67,-5.3 -4.57,-8.41 -7.11,-18.38 -8.64,-13.41 -29.35,-1.61 -11.59,25.5 7.15,10.92 21.21,19.11 38.12,21.76l0.51 22.47zm-291.96 -156.47c-2.75,6.4 -9.9,8.65 -14.4,16.13l2.57 5.24c0.14,0.3 0.31,0.72 0.46,1.02l2.91 4.54c1.2,0.12 0.06,2.43 7.2,-2.73 0.56,-0.4 0.72,-1.14 1.78,-1.25 0.17,-0.02 0.64,-0.02 0.83,0l3.39 1.4c3.64,-3.11 1.22,-0.72 1.62,-2.87 -3.11,-3.86 -2.39,4.6 -0.42,-3.65 1.78,-7.49 13.01,-8.57 20.76,-11.29l-5.5 -2.95c0.98,-0.28 3.13,-1.01 3.63,-1.13 -0.39,0.02 -4.49,0.01 -4.54,0 -0.39,-0.13 -0.88,-0.26 -1.26,-0.43 -8.27,-3.7 -0.5,1.05 -3.02,-2.62 0.97,-4.56 13.01,-1.43 1.53,-3.23 3.45,-6.38 2.35,-0.27 1.35,-6.98 -6.73,4 -12.87,9.38 -18.89,10.8zm420.76 -11.3l2.44 3.36c0.5,-0.49 0.72,-3.18 4.14,-1.81l4.77 8.4c0.24,0.33 0.63,0.79 0.91,1.2l2.12 -6.77c0.33,7.81 -3.42,5.03 7.49,6.33 -0.34,-6.58 1.06,-3.89 -1.9,-8.67 -0.2,-0.32 -0.55,-0.62 -0.77,-0.87 -8.34,-9.48 -1.1,3.12 -3.08,-3.4l-0.37 0.7c-2.17,-9.38 -0.18,-3.65 -6.91,-10.69l3.84 -6.66c-2.88,-4.98 -6.06,-7.28 -6.83,-11.96 -4.9,-3.62 -5.64,-4.87 -9.01,-9.23l-0.97 6.43 -4.07 -2.04c-0.46,-0.21 -3.45,-1.71 -5.09,-2.17l1.13 2.32c5.91,8.34 -2.32,-3.25 6.52,6.48 -4.81,-1.92 4.65,-2.04 -0.7,-0.22l-2.74 2.79c0.7,0.36 4.27,4.84 6.07,6.61 -5.5,5.64 3.37,0.2 -1.44,0.03 -5.19,-0.19 3.13,-5.54 -1.81,-0.03l4.88 7.78c2.16,3.75 3.61,4.71 6.31,9.1 -0.25,0.43 -0.84,0.36 -1.11,1 -2.4,5.71 4.83,-3.15 -3.82,1.99zm-126.44 2.8c8.41,-0.41 14.62,-0.54 22.37,2.32 7.95,2.95 9.31,6.19 14.41,9.16l4.35 2.78c5.82,-2.42 3.32,2.84 10.72,-3.29 -1.26,-12.57 -2.85,-7.46 1.59,-7.72 -2.26,-4.9 -2.43,-2.61 -4.54,-8.35l-8.46 -5.65c-2.13,4.16 5.82,3.36 -5.27,3.36 -0.18,-0.39 0.5,-3.14 -4.76,-3.04 -2.17,0.04 -2.33,1.08 -5.95,-0.68 -2.68,5.61 -0.31,-5.37 -0.11,1.72 0,0.07 0.04,0.49 0.04,0.55l0.07 1.04c-12.07,-0.6 -3.72,0.11 -12.24,6.28 -0.13,-0.07 0.84,-3.03 -7.53,-0.74 -4.39,1.2 -1.96,-0.05 -4.69,2.26zm152.34 186.31c2.55,5.33 8.73,9.53 13.8,13.27 5.43,3.99 11.28,8.21 18.87,10.62 2.71,-2.22 -0.01,2.92 1.25,-6.09l1.43 -5.52c2.12,-3.83 4.37,-2.5 5.49,-5.82 -11.58,-5.41 -23.86,-14.72 -30.11,-21.69 -6.92,-0.54 -0.54,-0.24 -7.71,2.6l2.44 1.71c8.38,5.34 -4.12,3.64 4.32,6.18 8.25,2.48 3.28,-4.1 8.03,5.16 0.18,0.36 1.02,2.5 1.11,2.85l0 3.36c-17.26,-0.93 -10.23,1.39 -15.3,-9.16 -3.93,0 -2.83,-1 -3.62,2.53zm-314.13 -4.27c3.15,4.47 -0.14,2.73 5.39,1.5 2.6,-0.57 4.07,-3.42 5,-4.35 1.34,0.5 2.87,1.15 3.2,1.28 7.43,2.91 5.58,-3.33 5.97,9.41 -10.06,1.59 -13.14,-0.54 -16.81,1.54 -0.07,0.4 0.04,0.64 0.1,1.22 0.3,3.46 2.65,5.52 5.3,7.96 5.8,-2.39 11.22,-6.84 15.21,-11.49 2.67,-3.1 2.92,-2.88 6.27,-6.02 3.42,-3.22 2.71,-3.49 5.43,-6.97 -0.22,-13.3 -9.48,-17.63 -17.59,-9.77 -7.99,7.74 -6.46,8.66 -17.47,15.69zm129.67 -250.64c5.13,-0.55 7.81,-1.7 14.09,-2.99 -0.2,-0.15 -0.74,-1.25 -0.68,-1.43 1.06,-3.75 11.82,-4.99 14.62,-5.42 1.97,-0.3 21.01,0.78 20.89,-3.54 -0.15,-5.74 -4.51,-4.68 -14.83,-5.06 -6.03,-0.22 -7.54,2.76 -8.11,-2.85 -7.89,1.7 -6.39,2.63 -13.75,-0.84l-20.47 15.65 3.68 1.04c0.35,0.12 0.81,0.19 1.13,0.32 5.55,2.07 4.87,-0.37 3.43,5.12zm22.01 497.35c0.58,2.26 -0.03,1.24 1.78,3.53 1.21,1.54 0.94,1.03 2.92,2.66l4.35 4.78c3.8,-2.76 5.6,1.77 14.8,-3.64l-0.07 -2.76c-0.03,-0.32 -0.08,-0.85 -0.12,-1.18l-0.35 -1.98c-0.03,-0.22 -0.14,-0.62 -0.16,-0.84l-0.83 -8.52c-2.87,-1.22 -0.64,-1.09 -5.36,-1.35 -2.55,-2.98 -3.73,-4.36 -6.24,-7.03 -1.17,-1.25 -1.77,-1.98 -3.07,-2.95 -3.55,-2.67 -1.23,-1.12 -3.46,-1.8l-9.38 0.9c-0.05,0.46 -0.02,1.09 -0.06,1.4l-0.32 2.32c-0.05,0.26 0.32,0.66 -1.14,2.39l4.1 1.29c0.17,0.05 4.7,-0.77 3.63,3.53 -0.03,0.13 -0.28,0.53 -0.32,0.67l-0.77 2.8c-0.02,1.67 2.02,2.56 0.07,5.78zm79.17 144.1c4.41,-2.75 1.71,-0.99 6.98,-2.51 2.88,-0.82 0.76,0.06 3.77,-1.1 3.51,-1.36 2.09,-0.81 3.6,-1.81 -2.92,-3.97 -8.77,-0.13 3.73,-4.01 -0.5,0.06 -5.57,0.95 -6.15,0.91 -4.51,-0.29 -1.26,0.48 -4.54,-1.27 7.04,-2.42 2.5,-1.91 7.87,-2.43 9.63,-0.93 -0.51,-0.07 6.13,0.72 6.42,0.77 8.79,-0.99 11.99,-2.94 -3.19,-4.51 -0.73,-3.51 -6.17,-5.68 -1.57,-0.63 -5.71,-0.53 -7.5,-0.42l-29.8 4.47c-4.47,2.2 -3.33,8.65 -2.96,14.43 2.11,0.3 4.88,0.47 6.85,0.69l6.2 0.95zm189.79 -567.04l11.81 5.5c0.37,-0.49 1.19,-1.46 1.57,-0.98l3.08 -1.44c9.21,-1.93 0.59,-0.52 5.36,0.33 2.99,0.53 1.95,0.6 4.49,0.86 0.46,0.04 1.87,0.08 2.28,0.1 4.06,0.26 11.15,9.28 13.79,13.02 -4.67,-1.13 -3.07,0.6 -1.53,-1.52l-1.26 1.79c-0.52,0.01 0.51,-1.18 0.67,-0.89l3.22 -1.7c0.38,-0.18 1.96,-0.73 2.42,-0.95 -0.64,6.27 -1.57,5.92 -1.99,6.11l5.43 0.62c0.04,0 2.3,5.97 3.33,-2.43 0.26,-2.12 -2.02,-1.65 -2.98,-3.49l-4.35 -6.51c-3.98,-4.69 -2.75,-4.05 -8.02,-6.87l-6.8 -4.4c-8.42,-6.19 -7.88,-6.18 -13.82,-4.7 -0.28,0.07 -0.75,0.15 -1.04,0.23 -4.84,1.43 -4.84,3.4 -10.02,2.6l-2.32 -0.82c2.05,-4.22 0.35,-0.55 2.83,-2.88 0.49,-0.46 6.74,-4.07 0.53,-5.41 -13.81,-2.99 9.2,1.65 -13.22,4.03 2.47,1.76 -0.41,2.06 4.5,2.13 3.27,0.05 1.88,-0.08 5.79,-1.36 -1.33,0.51 -3.49,-0.53 -3.15,2.19 0.88,7.07 -3.99,-0.87 2.79,2.82 -5.68,-1.81 -2.89,-1.65 -8.04,0.01 4.81,0.69 4.71,0.73 8.8,1.53 -0.42,0.26 -0.89,0.38 -1.11,0.98 -0.22,0.62 -2.94,1.45 -3.04,1.5zm-376.6 450.64c-0.79,3.69 -2.8,-2.78 0.95,1.99 2.81,3.58 3.06,0.81 4.67,5.17 -2.7,2.2 0.42,1.26 -4.01,2.11 -8.41,1.62 -3.56,-3.31 -15.72,-7.36 -1.83,-0.6 -0.16,2.09 -2.75,-2.39 -11.04,0 -3.13,-0.73 -5.25,3.16 9.31,7.19 19.85,12.46 30.84,18.57l0.46 -4.91 12.19 1.63c-1.43,-4.01 -2.99,-2.38 1.73,-8.7l2 -2.45c-5.24,-2.23 -13.33,-4.76 -15.95,-8.94 -3.26,2.86 0.23,1.2 -4.79,2.67 -3.19,0.94 1.11,0.45 -4.37,-0.55zm46.49 -527.31c6.41,3.58 -0.61,3.01 10.07,2.31 -11.62,-0.31 -2.45,2.28 -10.75,9.14 -3.3,2.72 -5.78,2.14 -8.45,2.12l-2.43 -0.15c-0.37,0.07 -0.82,0.14 -1.16,0.26 -0.36,0.12 -0.79,0.41 -1.11,0.57l-2.08 1.83c-3.52,0.02 -0.1,-0.53 -1.53,4.58 9.42,3.53 10.49,2.09 12.59,-1.4 6.21,-0.19 1.06,-0.65 3.65,2.54 4.79,-1.52 6.84,-3.47 11.46,-6.23 -0.27,-0.36 -0.45,-0.99 -0.48,-1.27 -0.03,-0.25 -0.33,-0.89 -0.32,-1.18 0.31,-9.65 -4.12,2.2 1.02,-2.6l11.41 -5.74c4.38,-3.55 0.94,2.8 4.42,-5.22 -4.56,-1.77 -1.79,-1.15 -7.05,-3.19 -3.91,0.09 -4.07,6.66 -7.74,8.12l-0.74 -2.06c-0.07,-3.71 1.33,-3.73 1.48,-4.87 0.11,-0.81 0.63,-0.88 0.87,-1.36 -1.11,0 -2.82,-0.76 -3.05,-1.37 -0.35,-1 -0.9,-1.4 -1.52,-1.94 -4,4.13 -5.12,1.63 -8.56,7.11zm291.46 181.48c8.53,1.32 23.46,1.07 28.98,4.31 5.17,3.03 1.44,0.45 2.7,2.5 9.71,5.62 7.56,8.96 7.09,18.86l3.5 3.22c0.85,-5.11 2.67,-19.01 3.6,-21.49 8.93,0.55 9.93,-1.31 9.41,9.33 -0.42,8.8 -3.04,9.55 0.45,16.67 3.18,-5.79 3.04,-12.96 4.43,-20.15 -2.95,-3.94 -5.11,-10.77 -9.75,-16.9 -0.26,0.35 -0.65,0.77 -0.86,0.98l-8.27 8.53c-0.23,-0.39 -0.3,-1.05 -0.38,-1.3l-4.94 -1.73c-7.57,-3.23 -20.26,-5.86 -27.46,-5.85 -0.54,0 -4.82,0.64 -5,0.7 -0.42,0.16 -2.1,1.81 -2.34,1.43 -0.24,-0.37 -0.87,0.5 -1.16,0.89zm-363.51 344.53l3.45 3.98c2.12,-3.89 -5.79,-3.16 5.25,-3.16 2.59,4.48 0.92,1.79 2.75,2.39 12.16,4.05 7.31,8.98 15.72,7.36 4.43,-0.85 1.31,0.09 4.01,-2.11 -1.61,-4.36 -1.86,-1.59 -4.67,-5.17 -3.75,-4.77 -1.74,1.7 -0.95,-1.99l-26.42 -18.54c-1.8,-1.5 -1.45,-2.63 -5.85,-5.05l-2.9 -1.36c-0.34,0.38 -1.09,1.85 -1.3,2.14 -4.45,6.06 1,3.62 -2.95,2.45 4.45,10.13 1.42,-0.02 10,10.72l8 6.1c-2.95,3.82 3.79,6.79 -4.14,2.24zm286.4 -289.63c-2.06,12.89 -0.33,15.2 9.25,20.79 0.79,-3.53 -0.31,-2.53 3.62,-2.53 5.07,10.55 -1.96,8.23 15.3,9.16l0 -3.36c-0.09,-0.35 -0.93,-2.49 -1.11,-2.85 -4.75,-9.26 0.22,-2.68 -8.03,-5.16 -8.44,-2.54 4.06,-0.84 -4.32,-6.18l-2.44 -1.71c7.17,-2.84 0.79,-3.14 7.71,-2.6 -7.29,-8.72 -6.64,-10.11 -19.98,-5.56zm167.87 205.97c4.28,2.96 8.44,6.61 12.57,10.19 2.22,1.91 3.69,2.91 5.95,4.78 4.77,3.94 1.85,3.4 7.27,4.49l2.71 -0.74c-4.52,-3.8 -1.94,-1.36 -4.21,-6.66 -0.08,-0.19 -0.22,-0.66 -0.37,-0.98 1.65,-1.54 1.36,-1.04 2.36,-2.03 2.24,-2.22 4.49,-5.7 8.38,-6.43 -2.92,-1.82 -7.38,-5.96 -10.17,-8.18 -1.81,-0.38 -0.47,0.42 -1.32,2.51 -0.31,4.18 0.72,5.33 -2.87,7.75l-5.2 0.92c-7.56,-1.13 -5.55,-3.85 -6.54,-5.25 -6.84,-9.6 -19.66,-13.34 -12.18,-23.98 0,-4.68 1.19,-3.54 -3.44,-3.54 -1.6,7.07 -3.87,8.97 -3.12,16.81 3.57,5 6.14,6.82 10.18,10.34zm-104.86 199.27l1.01 -0.56c2.12,-2.91 0.53,-1.46 4.31,-1.84 7.04,-8.83 18.95,-9.07 26.99,-17.75 7,-7.55 -3.25,-23.53 -5.5,-33.47 -4.22,1.26 -7,1.96 -5.74,9.38 1.68,9.91 9.99,-0.44 8.07,12.99l-0.81 2.59c-0.04,0.15 -0.15,0.51 -0.17,0.66l-0.3 4.67 -21.95 13.55c-8.12,6.01 -4,1 -4.05,0.96 -1.6,1.49 -3.71,2.89 -5.63,4.13 0.25,0.33 -0.52,4.32 2.57,0 -0.68,4.47 -0.28,1.16 1.2,4.69zm-525.57 -531.19l-0.15 4.79 7.1 -5.68c2.61,-0.93 3.57,0.11 5.13,0.59 0.45,0.13 1.08,0.42 1.54,0.76 -1,7.2 -5.99,8.8 -6.35,15.66 -0.48,9.11 -2.11,-7.82 0.04,2.61 1.16,5.6 -2.21,0.3 2.14,4.66 1.52,-4.11 2.36,-8.76 5.85,-10.71 3.8,-9.09 8.94,-13 14.59,-19.4l-3.39 -1.4c-0.19,-0.02 -0.66,-0.02 -0.83,0 -1.06,0.11 -1.22,0.85 -1.78,1.25 -7.14,5.16 -6,2.85 -7.2,2.73l-2.91 -4.54c-0.15,-0.3 -0.32,-0.72 -0.46,-1.02l-2.57 -5.24c-4.84,4.71 -8.8,8.11 -10.75,14.94zm30.44 159.49c1.1,2.53 -1.59,-0.93 1.47,1.94 0.94,0.88 2.13,1.7 3.27,2.44 2.16,1.41 5.09,3.04 7.81,4.5 5.07,2.73 10.49,6.02 16.22,6.02 5.94,-4.27 3.31,-0.14 -2.38,-3.06 -0.31,-0.16 -0.81,-0.32 -1.14,-0.48l-4.25 -3.25c-0.02,-0.07 -0.03,-0.43 -0.04,-0.49 -1.08,-8.09 3.31,4.11 0.45,-1.77 -2.46,-0.85 -6.32,-1.98 -9.17,-2.97l0.01 -4.42c-5.92,5.43 -4.29,-1.89 -4.59,-3.04 12.48,-4.58 11.48,6.66 24.48,0.42 -4.91,-1.37 -10.13,-4.17 -13.79,-6.53 -2.16,-1.4 -4.71,-3.09 -6.46,-4.3 -5.08,-3.49 -2.13,-3.11 -7.6,-4.13 -3.21,-0.06 -1.46,-2.77 -1.89,2.3l7.93 11.53c-3.83,4.36 -8.01,1.48 -11.85,0.23l9.08 5.78c-10.37,-5.31 -5.62,-3.96 -7.56,-0.72zm176.32 -74.92c-2.1,-2.23 -1.65,-2.24 -3.16,-4.81 -0.78,-1.34 -0.93,-1.71 -1.74,-3 -2.36,-3.72 -0.56,-1.12 -2.09,-2.91 -6.44,5.2 0.91,1.63 -5.79,-1.98l-2.91 0.69c-4.54,2.8 0.59,10.35 1.03,11.53 3.55,9.65 -6.13,-5.83 6.3,13.29 2.29,3.54 0.74,1.75 1.84,4.03 3.1,6.4 -0.6,4.65 8.68,5.62 -1.12,-9.81 -10.42,-16.47 -2.16,-22.46zm285.98 -98.07l2.89 -1.85 -0.79 -2.08c0.08,-4.1 -0.49,-0.14 0.5,-3.31 1.22,-3.89 1.44,1.66 3.02,-7.85 -16.14,1.43 -10.27,10.44 -18.29,8.19 -6.8,-1.91 -2.8,-0.48 -3.69,-5.09l-3.01 -2.79c4.04,8.41 1.11,1.17 -0.75,4.26l-8.74 0.47c2.12,9.54 3.36,6.23 4.68,13.08 6.71,-1.35 10.99,-4.83 14.53,-1.3l7.64 -6.12c0.01,0.02 2.18,0.59 2.37,2.59 0.03,0.31 -0.43,1.19 -0.36,1.8zm160.86 342.37c-7.96,-0.9 -0.41,4.52 -5.36,-2.69 3.8,4.2 0.98,-1.89 0.95,0.65l-2.75 0.76c-0.14,-0.4 -0.84,0.11 -1.26,0.1l-6.12 -8.19c-4.63,1.64 2.08,6.5 2.81,7.25l2.32 2.47c-7.22,-3.38 0.88,1.07 -2.84,-1.61l-4.27 -5.33c-0.05,-0.14 -0.12,-0.54 -0.17,-0.69 -0.05,-0.17 -0.13,-0.61 -0.19,-0.79 -0.07,-0.21 -0.17,-0.66 -0.25,-0.89l-4.43 -9.28c-0.75,-1.18 -2.06,-3.55 -5.23,-2.32 -7.48,10.64 5.34,14.38 12.18,23.98 0.99,1.4 -1.02,4.12 6.54,5.25l5.2 -0.92c3.59,-2.42 2.56,-3.57 2.87,-7.75zm-206.98 96.38c0.85,6.32 -0.25,1.07 2.82,3.37l0 -5.27c2.29,2.21 0.36,1.38 4.42,1.32 9.57,-0.14 11.72,-4.28 14.1,-6.91 1.86,-2.05 4.26,-4.41 5.57,-5.33 1.96,-1.37 3.07,-1.47 3.09,-3.83 0.06,-5.26 1.45,-0.4 -1.19,-4.43 -10.37,-3.32 -6.78,0.49 -9.23,3.34 -0.84,0.98 0.81,0.45 -2.66,3.03 -4.3,3.21 -20.16,7.53 -16.92,14.71zm11.91 118.07l3.17 3.68c3.26,1.14 5.93,2.06 10.34,2.43 -1.12,-9.55 -3.71,-9.44 -3.19,-21.89 -0.75,-3.39 0.89,-0.36 -1.75,-3.3 -3.03,-3.37 0.11,-0.16 -2.36,-1.44 -6.26,-0.17 -3.11,-1.72 -10.71,-3.94 -4.11,5.39 -1.59,12.62 1.99,15.59 8.03,-1.78 -1.68,-5.37 7.67,-2.14 1.17,2.79 3.79,5.95 -5.16,11.01zm-337.15 -101c-0.58,-1.66 1.45,-0.92 -3.21,-2.69l-10.29 -3.35c-5.92,1.68 -4.16,0.85 -8.61,0 -0.07,0.5 -0.01,0.74 0.04,1.52 0.38,6.27 2.22,7.22 5.32,8.96 8.78,4.92 -1.44,4.71 6.86,4.07 0.63,6.94 2.17,6.16 6.11,8.37 0.51,-4.57 1.96,-7.23 -2.83,-7.64l8.49 1.67c-0.27,-0.34 -0.66,-0.84 -0.97,-1.22 -0.27,-0.34 -0.63,-0.67 -0.91,-1.02l-3.78 -6.01c8.88,-1.92 -3.94,0.7 5.98,5.07 2.81,1.24 -0.05,1.4 3.21,-0.01 -0.59,0.46 0.23,5.26 -4.07,-0.39 -3.89,-5.1 -1.89,-1.36 -1.34,-7.33zm92.57 -158.63c3.45,-3.3 2.65,-0.63 3.5,-5.47 0.06,-0.36 -0.32,-2.53 -0.48,-3.04 -1.87,-5.78 -1.79,-2.92 -3.77,-3.89 -5.05,-2.46 -3.77,-1.97 -6.17,-5.39 -1.76,-2.51 -3.14,-5.81 -7.14,-6.06 -12.65,-0.81 -3.73,-0.01 -5.82,2.11 -0.03,0.51 -0.35,0.85 -0.02,1.78l15.32 19.69c-1.31,-1.78 2.56,-2.96 3.04,-3.13 -0.43,0.6 -4.89,-1.64 1.54,3.4zm-150.28 120.8c6.29,3.68 9.58,-3.7 9.58,14.95 -6.1,-0.24 -2.59,-2.24 -4.58,1.55 -5.85,1.63 -5.78,-0.76 -1.94,2.45 5.84,-0.17 5.11,-2.08 9.63,0.48l6.3 5.35 2.83 -6.75c-2.97,-0.48 -6.94,-0.92 -7.44,-7.72 -0.74,-9.96 -0.37,-5.82 2.63,-7.44l7.32 -0.53c-2.29,-3.36 -3.01,-3.75 -5.03,-6.53 -10.18,0.2 -11.12,2.03 -19.3,4.19zm547.85 7.61l-6.11 -2.36c-7.12,10.02 -10.69,-3.74 -23.36,5.12 1.77,1.87 0.25,0.86 2.82,2.54l6.24 2.44c0.47,0.14 1.91,0.53 2.38,0.68 9.73,3.08 7.24,4.93 18.22,2.17 -0.82,-7.25 -5.54,-6.91 -1.85,-5.45 -0.39,-4.35 -4.63,-1.42 1.66,-5.14zm50.16 -251.09c4.23,5.57 9.54,5.47 18.66,6.39 -2.5,-9.63 -3.55,-0.59 -13.39,-7.22 -0.11,-3.84 1.8,-5.46 2.7,-9.77 5.08,-0.05 8.83,-0.5 13.78,0.65 0.78,0.18 6.19,1.7 6.2,1.7 6.08,-0.33 2.41,0.9 6,-3.02l-28.22 -4.31 -4.89 5.54c-2.41,4.63 -1.46,5 -0.84,10.04zm-115.48 -21.44c-0.09,2.91 -0.71,5.58 4.64,7.37 15.87,5.31 13.75,-15.52 13.71,-20.99l4.76 -0.82 8.02 -3.73c-2.49,-3.79 3.51,-3.19 -3.61,-3.19 7.3,0.16 4.48,-1.21 5.69,-1.75 -5.72,2.35 -12.59,4.86 -20.01,2.67 -7.24,-2.14 -2.26,-0.38 -4.45,-3.02 -0.66,4.39 -0.35,-0.2 1.76,3.45 0.1,0.17 0.37,0.63 0.46,0.8 3.1,5.88 -1.87,0.41 1.13,2.52l2.34 0.97c0.21,0.09 0.81,0.23 1.15,0.47 -0.48,3.97 0.09,6.13 -0.21,9.12l-1.2 4.77c-0.19,0.44 -0.84,1.68 -1.1,2.06 -5.04,7.26 -6.17,1.62 -10.45,-0.66l-2.63 -0.04zm-37.01 251.59c2.27,-1.98 2.2,-2.03 4.19,-4.13 3.53,-3.7 1.07,-1.98 5.6,-4.37 0.67,-2.76 -0.65,-0.17 0.97,-2.85 0.55,-0.92 1.36,-1.66 1.83,-2.16 3.77,-3.84 4.4,-4.87 7.43,-8.45 4.31,-5.09 3.95,-2.26 4.98,-8.49l-0.41 -0.77 -1.77 2.92c-4.53,-0.31 -1.2,0.39 -5.35,2.55 -2.83,1.48 1.94,-2.21 -2.37,1.15l-10.27 7.41c-0.16,-0.1 -0.04,-0.1 -0.46,-0.39 0.09,0.33 -0.01,0.58 -0.07,1.02l-0.82 1.72c-1.73,1.71 -5.69,0.52 -0.54,0.32 -2.18,5.8 -1.71,7.33 -6.83,8.11 3.68,3.92 0.17,1.71 2.25,2.6 -1.42,3.34 0.15,1.9 1.64,3.81zm53.41 35.93c9.67,-1.25 2.88,1.25 7.92,-2.59l4.7 -6.79c3.65,-6.17 1.31,-2.04 5.41,-4.69l0 -7.32c-0.01,-0.43 -0.02,-1.03 -0.06,-1.54 -9.04,-0.03 -8.42,3.56 -14.36,12.38 -4.88,7.25 -3.04,1.62 -3.61,10.55zm11.15 -401.63c1.43,4.59 -0.09,2.33 3.16,5.2 4.02,-4.12 3.99,-0.55 6.09,-3.03 -0.08,8.25 1.87,8.83 7.63,10.52 0.65,-10.66 0.36,-8.58 -2.94,-15.81l-1.34 -3.53c-8.21,1.05 -2.53,-0.29 -5.96,-0.44l-5.75 0.58c-2.15,12.21 6.21,0.63 -0.89,6.51zm-77.04 520.32l10.83 -4.02c-0.59,-2.55 -0.52,-0.76 2.18,-0.67 3.34,-4.68 7.91,-6.23 13.11,-8.11 -3.37,-4.52 4.55,-3.21 -6.19,-2.91 -9.87,0.28 5.4,2.28 -9.13,3.07 -6,0.32 -9.44,3.95 -12.57,8.35l-2.68 4.88c2.29,-1.9 0.78,-0.25 4.45,-0.59zm-135.07 -557.92c2.02,2.04 3.84,3.03 8.24,2.64 6.19,-0.56 6.03,-3.12 7.21,-6.61 -5.37,-0.54 -2.36,-3.68 -4.67,-7.21 -0.03,-0.05 2.46,-2.23 -5.18,-2.95 -0.9,-0.09 -5.28,0.68 -6.08,0.74 1.07,12.05 1.68,8.37 4.17,9.95 0,5.02 1.26,3.92 -3.69,3.44zm-169.1 -28.7c4.24,-0.11 14.59,-1.34 10.21,-7.64 1.67,-0.97 3.51,-0.5 5.11,-7.7 0.04,-0.18 0.12,-0.58 0.15,-0.77l-0.74 -7.79c-9.09,3.27 -3.28,-0.47 -9.59,14.71l-1.36 1.32c-4.35,4.7 -2.71,3.19 -3.78,7.87zm243.74 539.47c-1.19,7.52 -4.41,3.89 -2.69,10.74 0.55,2.18 2.74,2.54 3.19,2.77 0,0 -2,3.85 4.79,0.65 6.86,-3.22 -1.12,-4.33 6.77,-11.66 -3.11,-3.21 -6.26,-4.88 -12.06,-2.5zm-430.33 -87.88c0.3,-0.4 0.75,-1.48 0.93,-1.18 0.18,0.29 0.7,-0.86 0.93,-1.11l2.76 -2.76c5.85,2.96 0.22,-0.67 3.48,2.57 0.23,0.24 0.96,1.53 1.11,2.01 3.53,-4.11 0.02,0.21 1.84,-4.94 1.62,-4.58 -0.33,-0.71 1.39,-3.51 2.23,-3.63 -0.69,-0.28 2.43,-2.5l-2.52 -6.44c-3.07,3.88 -0.13,-2.19 -0.99,3.89 -1.08,7.6 2.92,4.67 -2.38,7.98l-2.82 0.76c-9.4,0.44 -3.23,-4.27 -11.01,-12.58 -0.12,-0.12 -0.47,-0.38 -0.58,-0.5 -0.22,-0.23 -0.93,-0.8 -1.42,-1.6l-1.28 -3.37c-0.09,-0.15 -0.3,-0.53 -0.42,-0.68l-6.93 -4.03 15.48 27.99zm528.03 40.37c13.21,0.05 6.16,-0.69 13.86,-5.01 4.73,-2.66 5.24,-2.87 6.77,-9.49 -10.73,0.17 -18.85,6.29 -20.63,14.5zm-177.73 -479.21l5.39 15.95c4.95,0.48 3.69,1.58 3.69,-3.44 -2.49,-1.58 -3.1,2.1 -4.17,-9.95 0.8,-0.06 5.18,-0.83 6.08,-0.74 7.64,0.72 5.15,2.9 5.18,2.95 2.31,3.53 -0.7,6.67 4.67,7.21l1.54 -1.79c-0.46,-7.32 -2.02,-13.06 -5.72,-18.42 -4.44,0.26 -2.85,-4.85 -1.59,7.72 -7.4,6.13 -4.9,0.87 -10.72,3.29l-4.35 -2.78zm183.42 29.63c1.99,2.73 -1.83,5.47 8.75,0.95 2.47,-1.06 -0.8,0.08 0.93,-0.5 0.94,-5.79 -3.61,-16.5 4.08,-18.48 7.48,0.8 2.28,-1.89 4.59,3.18 6.86,-5.3 2.57,3.07 1.53,-4.74 -0.02,-0.03 2.42,-2.87 -5.65,-2.19 -11.37,0.97 -8.48,13.66 -9.71,20.95l-4.52 0.83zm-125.05 302.87c4.47,-0.3 6.43,0.02 10.06,-2.78l4.52 -8.62c0.18,-0.66 0.26,-1.33 0.35,-2 -11.24,0.62 -14.27,2.91 -14.93,13.4zm-197.61 -184.67l4.98 8.5c7.47,7.27 0.95,6.28 11.4,7.85 -0.72,-8.92 -6.56,-15.31 -16.38,-16.35zm321.11 207.96c0.2,0.47 0.53,1.47 0.57,1.83 0.03,0.24 0.11,0.72 0.13,1 0.15,2.57 -1.77,5.82 2.37,10.93 5.88,-1.68 -2.89,2 4.46,-2.75l2.05 -1.28c0.18,-0.53 0.72,-0.45 1.13,-0.55l-3.05 -11.35c-3.55,0.58 -2.06,0.86 -4.34,2.06l-3.3 1.63c-0.95,-1.52 -2.89,0.15 -0.02,-1.52zm-581.08 -76.16l3.17 -0.45c0.38,-0.31 0.83,-0.96 1.18,-1.27 0.41,-0.37 0.84,-1.07 1.23,-1.63 -2.41,-6.35 0.45,-7.18 -5.58,-11.31 -4.92,2.24 -2.23,-1.61 -4.38,4.05 -1,2.66 -0.34,3.09 -0.36,5.72l4.74 4.89zm150.84 184.74l10.29 3.35c-0.16,-0.27 -0.43,-1 -0.5,-0.79l-9.93 -10.98c-1.51,-1.96 -0.69,-0.9 -1.43,-2.58 -3.18,-1.82 -2.08,-0.68 -5.07,-3.73 -2.94,2.74 -1.49,4.27 -1.31,4.75l5.64 7.07c2.47,3.03 0.96,0.11 2.31,2.91zm16.16 -349.66l0.07 6.68c2.49,7.64 1.43,1.65 4.84,-3.34 1.16,4.68 1.59,4.56 3.92,6.84 1.18,-5.96 1.82,-3 1.57,-12.25 -6.27,-1.74 -1.72,2.81 -8.59,2.36l-1.81 -0.29zm98.76 -173.1c-2.8,4.82 -2.16,4.51 -1.85,11.39 8.18,-1.24 9.16,-4.43 8.74,-12.34l-6.89 0.95zm21.41 383.07c-4.27,-4.42 -7.54,-6.5 -10.51,-12.39 -2.77,-0.48 -1.8,0.72 -2.24,-2.23 -3.16,-1.08 -1.71,0.36 -3.06,-1.36 -0.5,7.05 2.12,4.9 1.82,11.29 6.68,1.04 8.61,4.53 8.61,4.22l5.38 0.47zm-144.94 210.02c3.94,3.55 2.96,4.37 9.16,4.92 6.31,-8.85 1.1,8.81 1.53,-3.24l-6.29 -10.54c-3.41,3.42 -0.94,-0.83 -3.2,3.84 -0.32,0.65 -1.2,4.99 -1.2,5.02zm22.63 -468.74c6,-3.76 2.05,-7.99 2.04,-8.07 -0.26,-1.97 -0.41,-3.54 -1.74,-7.05 0.94,1.35 -0.24,2.38 -0.96,3.69 -0.23,0.41 -0.67,1.05 -1.06,1.53 -1.45,-10.24 2.19,-0.81 -2.06,-5.45 -1.5,-1.64 -2.5,-1.54 -5.1,-2.93l-1.54 2.2c3.45,3.51 3.96,1.97 6.55,5.74 2.13,3.11 2.19,6.43 3.87,10.34zm-143.78 128.82c7.92,-0.87 10.66,-2.04 14.86,-5.13l-0.35 -8.69c-7.78,-2.29 0.55,1.36 -6.47,8.22 -6.08,5.94 -4.89,-3.81 -8.04,5.6zm96.67 -154.19c-1.99,4.57 -1.16,2.8 -0.15,7.75l6.89 -0.59c2.62,-5.69 2.09,-2.32 0.08,-7.68 -1.94,-0.67 1.6,-3.26 -6.82,0.52zm-56.2 246.99l-1.35 -8.02c-3.5,-1.7 -6,-3.01 -11.25,-3.73 1.67,10.58 -1.24,0.74 4.31,4.7 8.58,6.13 1.99,3.23 8.29,7.05zm53.92 -171.46c-0.48,-5.02 1.14,-3.74 -4.57,-4.14l-1.67 0.73c5.46,2.51 4.25,2.71 5.24,6.8l1 -3.39z"/>
 </g>
</svg>
