<?xml version="1.0" encoding="UTF-8"?>
<!DOCTYPE svg PUBLIC "-//W3C//DTD SVG 1.1//EN" "http://www.w3.org/Graphics/SVG/1.1/DTD/svg11.dtd">
<!-- Creator: CorelDRAW 2019 (64-Bit) -->
<svg xmlns="http://www.w3.org/2000/svg" xml:space="preserve" width="100%" height="100%" version="1.1" style="shape-rendering:geometricPrecision; text-rendering:geometricPrecision; image-rendering:optimizeQuality; fill-rule:evenodd; clip-rule:evenodd"
viewBox="0 0 722.28 719.68"
 xmlns:xlink="http://www.w3.org/1999/xlink">
 <defs>
  <style type="text/css">
   <![CDATA[
    .fil0 {fill:white}
   ]]>
  </style>
 </defs>
 <g id="Layer_x0020_1">
  <metadata id="CorelCorpID_0Corel-Layer"/>
  <g id="_1390365822048">
   <path class="fil0" d="M209.3 294.18c0,-36.61 0.57,-28.11 70.94,-56.27 97.2,-38.91 64.6,-38.91 161.8,0 14,5.6 25.24,10.22 38.14,15.2 33.21,12.84 32.8,9.76 32.8,41.07 0,81.84 -41.8,152.73 -93.28,202.19 -43.06,41.4 -58.16,54.21 -90.39,22.52 -28.18,-27.69 -35.73,-22.92 -71.64,-76.09 -26.12,-38.67 -48.37,-85.68 -48.37,-148.62zm143.63 -164.15c-23.19,5.58 -37.28,-6.02 -93.08,21.82 -139.48,69.61 -182.98,249.57 -55.74,377.33 33.37,33.52 100.96,69.9 166.89,62.39 74.82,-8.51 109.29,-24.72 159.48,-74.69 110.09,-109.64 71.95,-306.13 -81.9,-371.7 -25.79,-10.99 -69.46,-21.46 -95.65,-15.15z"/>
   <path class="fil0" d="M0.01 80.78c0,36.87 33.64,73.87 77.97,73.87 32.22,0 26.52,-13.73 48.4,8.99 12.02,12.5 24.38,22.28 33.67,36.15l42.02 -40.06c-14.19,-9.83 -22.84,-21.1 -34.98,-32.67 -25.58,-24.38 -11.14,-13.09 -11.14,-54.49 0,-95.8 -155.94,-100.45 -155.94,8.21z"/>
   <path class="fil0" d="M522.06 557.71l47.39 49.34 -3.12 40.06c0,95.8 155.94,100.45 155.94,-8.21 0,-41.07 -34.37,-73.87 -86.18,-73.87 -14.14,0 -15.88,3.04 -28.72,4.1l-46.05 -48.35 -39.26 36.93z"/>
   <path class="fil0" d="M357.04 368.05c-12.95,-8.67 -23.24,-24.85 -34.84,-31.23 -9.68,-5.33 -39.03,-7.57 -39.03,27.12 0,10.51 63.36,73.87 73.87,73.87 26.15,0 39,-28.76 60.96,-58.04 24.89,-33.18 45.73,-50.8 45.73,-77.38 0,-13.27 -14.89,-20.52 -28.72,-20.52 -20.43,0 -57.94,72.76 -77.97,86.18z"/>
  </g>
 </g>
</svg>
