<?xml version="1.0" encoding="UTF-8"?>
<!DOCTYPE svg PUBLIC "-//W3C//DTD SVG 1.1//EN" "http://www.w3.org/Graphics/SVG/1.1/DTD/svg11.dtd">
<!-- Creator: CorelDRAW 2019 (64-Bit) -->
<svg xmlns="http://www.w3.org/2000/svg" xml:space="preserve" width="100%" height="100%" version="1.1" style="shape-rendering:geometricPrecision; text-rendering:geometricPrecision; image-rendering:optimizeQuality; fill-rule:evenodd; clip-rule:evenodd"
viewBox="0 0 843.02 719.68"
 xmlns:xlink="http://www.w3.org/1999/xlink">
 <defs>
  <style type="text/css">
   <![CDATA[
    .fil0 {fill:white}
   ]]>
  </style>
 </defs>
 <g id="Layer_x0020_1">
  <metadata id="CorelCorpID_0Corel-Layer"/>
  <path class="fil0" d="M119.73 310.36c25.15,4.47 73.64,1.97 101.6,2.33 17.69,0.23 35.43,-0.01 53.13,0.08 16.44,0.08 35.37,1.86 50.87,0.34 11.77,-0.89 74.37,-0.39 87.69,1.7 -16.45,2.43 -44.2,0.67 -63.59,1.9 -14.51,0.91 -3.39,7.81 -0.14,18 2.84,8.92 -0.03,4.9 -0.72,5.98 -4.28,6.75 -2.24,-7.86 -3.43,7.71l1.2 44.3c-0.01,0.18 -0.66,5.35 -0.67,5.36 -1.99,11 1.48,-5.76 -0.72,3.13l-0.88 2.8c-1.77,-3.41 -3.71,-9.75 -2.5,-13.75 -1.05,6.17 -0.18,11.9 -0.94,16.9 -1.26,8.25 -0.8,1.67 -2.73,6.08l-1.3 4.81c-1.03,3.64 -5.28,8.13 -10.68,24.18l10.49 1.53c-0.86,7.86 -2.56,4.44 1.93,6.69 18.35,-1.29 71.81,-44.47 78.74,-2.62l0.06 177.43c-0.23,57.99 6.64,57.17 -125.05,54.01l9.74 2.9c19.03,1.96 63.35,-3.03 75.37,1.4l-63 3.15c-1.9,1.09 -3.59,1.51 -5.87,3.05 -7.26,4.88 -10.68,10.17 -12.57,19.75 3.24,1.97 2.43,1.11 5.45,2.64 0.53,0.27 2.3,1.17 2.79,1.43l2.82 1.58c-31.22,0.76 -69.23,-0.68 -98.83,0.99 -2.19,0.12 -4.5,0.13 -6.86,0.1 2.36,0.03 4.67,0.02 6.86,-0.1 29.6,-1.67 67.61,-0.23 98.83,-0.99l-2.82 -1.58c-0.49,-0.26 -2.26,-1.16 -2.79,-1.43 -3.02,-1.53 -2.21,-0.67 -5.45,-2.64 1.89,-9.58 5.31,-14.87 12.57,-19.75 2.28,-1.54 3.97,-1.96 5.87,-3.05l63 -3.15c-12.02,-4.43 -56.34,0.56 -75.37,-1.4l-9.74 -2.9c-35.17,0.26 -70.38,0.21 -105.56,0.24 -57.07,0.04 -48.2,-9.67 -47.46,-109.21 0.15,-20.61 -1.59,-28.65 14.54,-36.59 14.81,-7.28 64.96,-23.01 72.61,-32.07 -14.54,-7.13 -4.73,-2.43 -20.11,-3.91 -0.63,-9.33 -1.27,-30.25 1.41,-36.5 0.68,7.2 -1.75,7.12 2.4,14.09l1.54 -72.67c0.06,-0.28 0.31,-0.6 0.35,-1.21 0.04,-0.59 0.2,-0.79 0.36,-1.16 4.05,9.83 0.43,24.29 3.25,32.91l1.78 -5.84c1.57,-9.34 0.18,-33.29 -0.35,-42.56l-6.23 9.08c0.78,-12.39 -0.55,-28.37 0.09,-41.56 0.51,-10.36 6.26,-18.94 8.09,-31.57 16.74,-3.15 33.77,-4.89 51.99,-4.99 9.31,-0.05 49.2,1.85 54.54,-2.62 -15.5,1.52 -34.43,-0.26 -50.87,-0.34 -17.7,-0.09 -35.44,0.15 -53.13,-0.08 -27.96,-0.36 -76.45,2.14 -101.6,-2.33l-9.75 0.51c-9.93,-0.01 -17.87,7.48 -17.9,16.65 1.1,4.16 1.66,91.91 1.66,179.66 0,-87.75 -0.56,-175.5 -1.66,-179.66 -2.57,3.55 -1.58,2.34 -1.71,8.35l-0.37 55.28 -0.32 52.74 0.08 57.92 0.31 53.36 0.03 71.9c-0.03,3.52 0.15,7.68 0.04,11.06 -0.46,14.97 0.64,3.39 -2.12,10.48 -0.18,0.46 -0.48,1.1 -0.81,1.59 -0.16,-13.32 1.51,-44.73 -2.9,-54.64 -5.6,-12.61 -14.1,-25.95 -16.94,-41.11 -7.85,-11.26 -22.78,-83.11 -19.51,-99.65 -4.24,-7.2 -4.3,-60.05 0.08,-67.3 -2.41,-14.08 2.48,-30.64 4.44,-44.38l1.67 -8.01c1.95,-7.81 7.64,-30.82 12.52,-43.81 0.95,-1.21 1.68,-2.88 2.14,-5.11 0.79,-1.64 1.54,-2.87 2.22,-3.53l6.13 -18.3 -0.41 0.19c1.22,-2.64 2.52,-5.3 3.85,-7.92 1.05,-0.91 -0.77,1.33 2.05,-2.64l1.52 -2.37c1.18,-1.99 1.3,-2.63 2.47,-4.96 1.7,-3.39 2.67,-5.83 5.01,-7.97 0.81,-2.4 1.56,-4.54 2.47,-6.59 2.49,-4.2 4.11,-6.8 4.11,-6.8 1.45,-1.83 1.59,-1.64 3.13,-3.05 0.55,-4.34 -0.66,-2.2 2.87,-7.45 2.63,-3.91 1.76,-2.59 3.47,-3.58 4.01,-9.34 25.03,-36.26 30.59,-40.98 5.61,-7.35 18.62,-20.73 25.33,-23.64 3.53,-7.89 30.83,-28.34 39.86,-32.77 3.66,-3.63 8.98,-7.28 14.03,-8.12l6.53 -5.53c11.69,-7.31 40.87,-21.61 52.34,-24.6 9.25,-8.35 86.14,-26.7 103.41,-24.78 6.84,-4.74 59.91,-4.41 66.9,-0.22 13.19,-2.49 35.05,2.63 47.86,5.87 8.26,1.55 23.93,4.09 25.75,-5.53 3.06,-16.16 -1.77,-18.19 29.02,-25.37 1.27,-1.47 1,-0.81 1.85,-3.17 -25.2,-6.42 -45.73,-13.47 -73.5,-17.66 -28.02,-4.24 -54.18,-4.53 -82.97,-3.56l-6.58 -1.15c-5.41,3.09 -49.13,7.98 -60.36,10.01 -19.17,3.47 -35.4,10.11 -53.56,14.78 -8.14,4.42 -19.08,7.58 -27.94,11.59 -9.33,4.22 -17.29,8.8 -26.29,12.46 -7.52,5.18 -17.14,10.73 -26.01,14.29l-13.54 9.98c-6.11,4.29 -9.07,6.67 -15.27,10.62 -6.29,5.55 -14.24,11.11 -21.35,16.89 -7.09,5.76 -12.27,12.87 -20.47,17.2l-11.61 12.17 -35.82 42.92c-0.63,3.33 0.22,1.05 -1.72,4.65 0,0 -1.92,2.87 -2.17,3.23l-15.09 22.9c-3.28,6.66 -8.69,19.24 -14.15,23.36 -0.64,8.51 -6.98,18.3 -10.68,27.44 -3.11,7.68 -6.68,19.47 -9.97,25.83 -2.22,9.59 -5.26,18.31 -7.83,27.99 -2.32,8.72 -3.22,22.65 -7.85,29.04l-4.36 40.95 -1.46 12.59 -0.45 12.83c-0.76,63.29 4.33,94.48 18.73,151.77l6.64 16.96 0 0 0.01 0.02 9.17 23.45c0.13,-0.1 0.25,-0.2 0.37,-0.3 4.73,11.29 10.27,24.27 14.31,32.97 1.02,2.82 2.51,5.51 4.1,8.18l0.02 0.04 0 0.01c1.24,2.08 2.54,4.17 3.71,6.3l12.92 21.96c4.67,6.04 13.87,18.33 17.55,25.5 3.9,-6.97 -0.59,0.18 4.47,-3.79 0.88,-3.45 1.41,-57.79 1.59,-123.21 -0.18,65.42 -0.71,119.76 -1.59,123.21 -0.87,9.84 3.17,14.32 8.25,19.16 5.37,5.12 8.72,10.45 16.8,12.35l57.58 0.7c5.37,-3.79 16.32,-2.9 26.42,-2.77l0.01 0 -0.01 0c-10.1,-0.13 -21.05,-1.02 -26.42,2.77 26.97,-0.32 294.81,2.77 306.87,-2.16 3.68,-1.5 5.48,-2.94 7.84,-4.95 19.45,-16.55 8.84,-33.3 11.35,-76.7l0.08 -24.79 -0.09 -54.71 0.42 -11.08 11.74 -2.88c3.48,-9.99 1.43,-27.62 1.49,-39.25l-0.27 -58.6 -0.35 -53.14 0.48 -56.78c-0.78,-16.31 -5.37,-21.07 -19.73,-25.06l-22.22 -0.11c-0.25,-0.42 -0.63,-0.94 -0.75,-1.28 -0.12,-0.35 -0.51,-0.93 -0.64,-1.37l-0.44 -87.87 -52.23 0.41 0.02 91.39 -298.54 0.28zm610.41 -138.29c18.94,8.2 1.39,23.47 -0.35,26.64l16.23 26.76c17.86,27.17 36.99,72.45 43.67,110.77 3.69,11.23 7.45,32.32 6.07,44.27 5.03,7.2 3.37,42.12 3.05,54.22 -0.14,5.66 -0.01,12.59 -2.58,17.39 3.03,9.59 -2.06,36.85 -5.45,46.72 -3.99,27.56 -28.15,101.35 -44.64,113.18 -0.84,5.7 -3,7.79 -6.53,13.06 -3,4.47 -4.62,6.9 -7.4,10.92 -4.91,7.07 -10.96,17.03 -15.81,22.18 -1.59,3.68 -1.54,4.04 -1.94,9.18l-0.91 -0.35c7.21,7.03 13.22,29.59 20.72,38.53 16.3,-14.04 40.08,-48.86 52.51,-69.93 4.76,-8.07 9.38,-20.58 16.08,-26.6l19.11 -48.97 1.44 -4.53 12.86 -54.37c10.83,-63.33 7.41,-104.53 -1.65,-166.79 -6.11,-17.54 -8.85,-38.19 -15.43,-55.91 -3.84,-10.36 -19.33,-45.34 -20,-50.9l-24.11 -38.81c-6.75,-10.36 -19.81,-28.26 -24.13,-38.33 -5.08,2.64 -9.1,8.22 -22.49,16.91l1.68 4.76zm-404.81 141.04c-5.34,4.47 -45.23,2.57 -54.54,2.62 -18.22,0.1 -35.25,1.84 -51.99,4.99 -1.83,12.63 -7.58,21.21 -8.09,31.57 -0.64,13.19 0.69,29.17 -0.09,41.56l6.23 -9.08c0.53,9.27 1.92,33.22 0.35,42.56l-1.78 5.84c-2.82,-8.62 0.8,-23.08 -3.25,-32.91 -0.16,0.37 -0.32,0.57 -0.36,1.16 -0.04,0.61 -0.29,0.93 -0.35,1.21l-1.54 72.67c-4.15,-6.97 -1.72,-6.89 -2.4,-14.09 -2.68,6.25 -2.04,27.17 -1.41,36.5 15.38,1.48 5.57,-3.22 20.11,3.91 8.71,-0.67 46.13,-18.94 56.45,-23.89 9.86,-4.72 17.69,-8.02 27.53,-12.78 9.06,-4.37 21.64,-7.67 28.14,-14.52 -4.49,-2.25 -2.79,1.17 -1.93,-6.69l-10.49 -1.53c5.4,-16.05 9.65,-20.54 10.68,-24.18l1.3 -4.81c1.93,-4.41 1.47,2.17 2.73,-6.08 0.76,-5 -0.11,-10.73 0.94,-16.9 -1.21,4 0.73,10.34 2.5,13.75l0.88 -2.8c2.2,-8.89 -1.27,7.87 0.72,-3.13 0.01,-0.01 0.66,-5.18 0.67,-5.36l-1.2 -44.3c1.19,-15.57 -0.85,-0.96 3.43,-7.71 0.69,-1.08 3.56,2.94 0.72,-5.98 -3.25,-10.19 -14.37,-17.09 0.14,-18 19.39,-1.23 47.14,0.53 63.59,-1.9 -13.32,-2.09 -75.92,-2.59 -87.69,-1.7zm276.12 232.93l-0.85 6.06 -90.88 0.76 -0.42 1.4 0.06 57.4c0.34,11.37 -0.59,8.7 5.48,14.5 4.7,4.33 19.41,27.61 19.79,32.19 0.51,5.97 -11.85,30.67 -15.37,37.75 6.3,-2.56 -0.36,0.13 4.09,-0.81 0.46,-0.1 1.67,-0.35 2.12,-0.46 0.24,-0.06 0.73,-0.19 0.97,-0.26l4.71 -1.22c6.39,-0.67 8.63,1.27 12.59,3.34 0.01,8.78 0.73,11.71 -1.83,18.3 1.41,-1.88 1.44,-3.15 9.17,0.02l-42.05 0c2.89,6.2 -1.48,0.69 3.96,2.76 6.64,2.53 207.97,1.3 213.94,1.26 0.01,-7.78 -1.22,-4.17 -2.61,-5.54 -2.86,3.09 -137.43,2.02 -152.42,1.3l67.09 -1.37c-6.69,-0.68 -4.69,0.47 -10.31,-2.58 -2.64,-10.19 0.09,-12.35 4.49,-20.11 5.94,-10.49 1.41,-34.47 1.77,-53.24 -0.36,18.77 4.17,42.75 -1.77,53.24 -4.4,7.76 -7.13,9.92 -4.49,20.11 5.62,3.05 3.62,1.9 10.31,2.58l-67.09 1.37c14.99,0.72 149.56,1.79 152.42,-1.3 -0.47,-8.64 -8.81,-23.1 -12.57,-32.02l-7.46 -15.7c-2.17,-4.85 -0.19,-5.96 2.99,-10.7 3.74,-5.57 2.78,-5.93 7.68,-9.44 0.56,-5.52 0.36,-3.86 4.14,-9.88 1.92,-3.04 3.58,-5.37 5.87,-8.82 3.35,-5.06 6.63,-12.48 10.87,-14.53l-0.19 -57.69 -1.06 -0.16c-14.59,3.08 -39.38,1.06 -55.29,1.06 1.44,-0.62 -2.41,-4.84 3.27,0.55 2.12,2.02 2.77,2.48 2.94,2.79 -0.17,-0.31 -0.82,-0.77 -2.94,-2.79 -5.68,-5.39 -1.83,-1.17 -3.27,-0.55 15.91,0 40.7,2.02 55.29,-1.06 -2.26,-1.5 -0.36,-0.78 -4.33,-1.71 -2.19,-0.52 -2.93,-0.49 -5.16,-0.63 -2.52,-0.17 -6.41,0.04 -9.16,-0.04l-75.06 0.41c-3.86,-3.69 -3.74,-7.65 -3.74,-7.65 -3.3,-11.68 -3.58,-42.65 -4.61,-56.53 -0.03,1.27 -0.02,3.5 -0.7,5.18 -0.21,0.52 -0.68,1.17 -0.9,1.62l-5.73 26.75c-3.25,-0.48 -6.46,-2.26 -9.31,-4.38 0.28,15.6 -1.29,19.75 -8.45,30.3 -1.65,-0.54 -4.55,-1.25 -5.99,-1.83zm37.79 12.72c-0.12,-1.72 -0.25,-3.59 -0.4,-5.63 10.76,5.02 15.25,0.53 23.71,3.33l0.05 2.4 -0.05 -2.4c-8.46,-2.8 -12.95,1.69 -23.71,-3.33 0.15,2.04 0.28,3.91 0.4,5.63zm45.72 5.11c0.28,-0.25 0.61,-0.55 1.01,-0.92 -0.91,-3.4 -0.24,-3.57 -0.46,-3.99 0.22,0.42 -0.45,0.59 0.46,3.99 -0.4,0.37 -0.73,0.67 -1.01,0.92zm-52.24 -341.96l2.18 17.35c16.43,4.87 18.09,4.71 16.27,-13.47l-1.49 -9.31 8.97 -4.19 7.77 -1.93 11.55 16.08 3.29 0.15c3.77,-5.39 8.85,-8.28 14.12,-11.97 -7.98,-16.47 -12.67,-11.17 2.25,-25.48 9.93,3.64 7.49,8.24 18.31,10.66 0.66,-7.19 7.45,-8.62 10.77,-16.05 -5.55,-5.64 -9.03,-5.57 -11.27,-11.65 -3.43,-1.83 -6.35,-2.15 -2.31,-9.04 3.11,-5.29 4,-3.53 11.02,-4.38 10.83,-1.31 12.3,-2.34 12.89,-14.41l-15.89 -4.04 -0.87 -15.1 14.68 -3.52c9.38,-3.28 -0.37,0.74 3.89,-1.98l-0.66 -9.15 -2.09 -5.53 -21.45 -0.69 -0.84 -12.11c6.41,-4.48 10.29,-5.05 14.09,-10.99 -2.13,-7.5 -2.93,-7.03 -7.03,-12.78l-5.92 0.57 -12.86 3.59c1.69,-9.59 7.58,-12 13.95,-14.7 -1.39,-3.16 -2.76,-4.73 -4.61,-7.13l-8.15 -5.83c-3.83,5.14 -9.32,15.48 -18.47,8.77 -6.06,-8.99 1.05,-8.18 3.8,-16.46 -6.65,-6.12 -5.27,-6.9 -14.8,-10.29 -6.29,5.53 -6.7,14.1 -12.83,13.61l-10.92 -3.81 0.96 -8.44 -10.9 -3.02c-3.85,8.95 -2.93,8.42 -6.07,9.98 -3.18,1.58 0.53,-0.98 -3.73,1.23 -18.94,9.82 -15.3,41.48 -14.29,65.98l1.81 90.52c-1.04,10.46 -1.21,2.69 -4.23,10.95 3.02,13.34 5.26,-1.31 0.92,14.82 6.81,-1.05 13.4,-2.8 18.19,3.19zm-82.5 -177.4c-5.62,-2.5 -4.47,-2.66 -10.54,-6.75l-8.83 8.59c1.89,9.03 5.98,8.45 10.65,15.73 1.67,0.79 4.92,-0.41 3.6,5.95 -1.74,8.44 -7.72,0.41 -22.32,-2.36l-5.23 14.04 15.54 8.89 -3.41 15.81 -19.2 0.79 -1.94 16.19c3.72,0 7.87,-0.09 11.54,0.12 6.3,0.36 6.45,-0.92 8.95,2.64l-0.72 14.91 -20.53 4.05 5.45 16.15c12.29,-0.87 18.36,-3.51 21.5,8 -3.09,5.42 -0.54,2.7 -5.67,6l-10.29 10.99c2.36,4.81 5.56,9.74 10.32,13.29 5.56,-2.87 13.79,-12.71 18.92,-8.23l5.25 1.41c3.04,7.79 3.24,13 -5.12,17.94 -0.37,3.24 -0.39,5.93 0.04,8.01 7.66,2.88 7.84,5.84 16.25,7.71 3.04,-5.01 7.63,-9.67 10.05,-15.41 27.46,4.71 13.15,13.56 17.23,32.11l10.67 -0.78 6.35 -0.48c1.18,-4.37 1.14,-5.79 1.78,-9.15 1.96,-10.21 -1.4,-5.86 4.68,-9.53l17.53 0.77c-4.79,-5.99 -11.38,-4.24 -18.19,-3.19 4.34,-16.13 2.1,-1.48 -0.92,-14.82 3.02,-8.26 3.19,-0.49 4.23,-10.95l-1.81 -90.52c-1.01,-24.5 -4.65,-56.16 14.29,-65.98 4.26,-2.21 0.55,0.35 3.73,-1.23 3.14,-1.56 2.22,-1.03 6.07,-9.98l10.9 3.02 2.95 -11.59 -20.47 -3.48 -2.19 18.18 -19.3 -0.31 -2.5 -17.85 -7.13 0.15 -13.16 3.7 2.92 20.88 -8.09 1.15c-5.11,-3.99 -6.83,-9.49 -12.82,-14.43 -5.9,2.47 -9.17,4.37 -14.66,8.87 2.74,9.52 9.12,8.11 6.64,19.51 -4.77,-0.15 -5.18,-0.31 -8.56,-2.91l-4.43 -5.62zm51.23 501.53c1.44,0.58 4.34,1.29 5.99,1.83 7.16,-10.55 8.73,-14.7 8.45,-30.3 2.85,2.12 6.06,3.9 9.31,4.38l5.73 -26.75c0.22,-0.45 0.69,-1.1 0.9,-1.62 0.68,-1.68 0.67,-3.91 0.7,-5.18 1.03,13.88 1.31,44.85 4.61,56.53 0,0 -0.12,3.96 3.74,7.65 -3,-53.64 -0.22,-179.42 -0.55,-242.43 -0.34,-63.56 5.33,-54.4 -14.15,-64.49 -9.68,3.61 -8.69,8.71 -24.46,7.11l-0.27 293.27zm-220.06 -100.51c-9.18,3.63 -10.67,6.99 -10.86,18.45l-0.25 91.64c0.11,20.15 0.04,40.3 0.14,60.46 0.08,14.87 -5.69,51.25 13.36,47.2 14.01,-2.98 9.18,-35.74 9.18,-50.87l-0.14 -120.9c0,-12.8 5.72,-52.77 -11.43,-45.98zm-24.09 210.85c3.47,-7.84 2.1,-95.44 2.2,-111.75 0.07,-10.27 2.76,-76.06 -3.19,-82 -6.42,-6.41 -15.8,-0.87 -18.2,4.55 -3.5,7.91 -1.48,141.8 -1.58,169.05 -0.02,7.02 -0.88,20.61 2.92,24.9 6.19,6.99 14.83,2.05 17.85,-4.75zm-91.81 -97.09l0.2 56.79c0.07,17.86 -2.99,34.43 6.33,47.66 23.6,3.03 18.19,-19.98 18.19,-51.33 0,-23.2 0,-46.41 0,-69.61 0,-14.55 6.57,-64.14 -17.61,-47.82 -11.29,7.62 -7.11,47.81 -7.11,64.31zm57.39 3.66c0,-15.38 2.84,-67.19 0.44,-78.27 -3.31,-15.36 -18.7,-7.17 -21.4,3.05l-0.99 119.19c0.3,20.26 -7.76,68.21 19.46,53.48 4.33,-14.75 2.49,-76.67 2.49,-97.45zm-91.3 16.49l0.34 60.49c0.08,14.06 0.49,20.96 11.4,24.94 14.64,-5.74 10.56,-21.07 10.77,-37.8 0.18,-15.06 3.92,-102.32 -2.99,-115.7 -17.52,-5.34 -18.97,6.36 -19.16,22.23 -0.18,15.21 -0.36,30.64 -0.36,45.84zm-25.02 -53.66c-10.83,6.19 -7.96,19.24 -8.3,32.88 -0.44,17.37 -8.61,118.15 15.5,105.01 10.73,-5.85 8.41,-19.09 8.64,-31.1 0.27,-14.04 0.32,-28.09 0.31,-42.14 -0.01,-15.22 6.57,-77.64 -16.15,-64.65z"/>
 </g>
</svg>
