<?xml version="1.0" encoding="UTF-8"?>
<!DOCTYPE svg PUBLIC "-//W3C//DTD SVG 1.1//EN" "http://www.w3.org/Graphics/SVG/1.1/DTD/svg11.dtd">
<!-- Creator: CorelDRAW 2019 (64-Bit) -->
<svg xmlns="http://www.w3.org/2000/svg" xml:space="preserve" width="100%" height="100%" version="1.1" style="shape-rendering:geometricPrecision; text-rendering:geometricPrecision; image-rendering:optimizeQuality; fill-rule:evenodd; clip-rule:evenodd"
viewBox="0 0 635.47 719.68"
 xmlns:xlink="http://www.w3.org/1999/xlink">
 <defs>
  <style type="text/css">
   <![CDATA[
    .fil0 {fill:white}
   ]]>
  </style>
 </defs>
 <g id="Layer_x0020_1">
  <metadata id="CorelCorpID_0Corel-Layer"/>
  <path class="fil0" d="M19.13 587.61c2.62,3.92 11.61,30.92 14.77,38.04 7.14,16.05 18.57,37.48 28.13,52.19 4.69,7.21 11.81,5.82 22.57,5.55 24.99,-0.63 31.33,1.52 30.67,-24.82 12.82,2.21 92.94,27.11 114.22,33.12 35.12,9.9 82.26,26.92 120.13,27.94 45.68,1.22 74.91,-22.59 107.31,-39.61 13.13,-6.9 89.42,-50.78 96.1,-51.7 3.11,-4.03 41.45,-23.89 49,-28.07 11.31,-6.27 42.86,-18.42 30.69,-39.8 -10.44,-18.33 -40.47,-4.34 -56.03,1.82 -18.17,7.19 -35.79,14.15 -54.1,21.61l-55.07 21.78c-4.08,2.06 -6.5,5.9 -10.51,9.03 -3.58,2.78 -6.31,5.02 -11.26,7.08 -10.22,4.25 -21.08,4.8 -33.02,4.98 -24.79,0.38 -49.5,1.28 -74.31,1.76 -12.29,0.23 -24.66,0.59 -36.98,0.88 -12.28,0.28 -26.64,1.78 -23.82,-14.24 4.02,-7.33 128.49,-4.79 153.1,-7.51 22.88,-2.52 35.32,-30.43 19.21,-48.03 -8.38,-9.16 -14.43,-10.17 -30.31,-10.21 -12.22,-0.02 -24.6,-0.77 -36.71,-1.86 -91.54,-8.28 -71.99,-20.65 -123.6,-37.15 -61.03,-19.5 -125.94,-5.86 -147.78,-9.32 -1.02,-29.12 -2.64,-26.02 -44.14,-24.82 -22.41,0.65 -45.06,1.33 -67.39,1.72 1.65,19.03 3.43,39.48 6.78,57.88 4.22,23.21 9.25,36.41 12.35,51.76zm294.2 -168.2c-3.27,-18.85 -9.33,-39.36 -13.25,-58.76 -3.97,-19.68 -6.17,-41.27 -10.44,-60.7l-75.13 74.55c-6.89,8.28 -2.9,20.71 5.26,24.04 5.47,2.23 23.17,6 30.12,7.81 19.66,5.14 42.89,10.4 63.44,13.06zm165.21 -218.44c-4.89,27.6 -31.49,52.06 -65.13,46.25 -27.98,-4.83 -51.97,-31.54 -46.17,-65.39 4.69,-27.34 31.78,-52.06 65.64,-45.74 27.3,5.11 51.52,31.81 45.66,64.88zm-108.67 -147.73c-1.97,6.69 -32.77,31.22 -50.94,78.08 -15.12,39.01 -15.82,70.83 -12.68,115.36 3.77,53.4 15.23,115.79 28.62,167.44 2.45,9.44 11.55,43.9 15.19,49.59 4.35,18.84 12.53,23.78 33.98,23.71 19.12,-0.07 38.25,-0.01 57.38,-0.01 48.44,0 47.46,3.9 63.56,-52 17.57,-61.03 30.4,-129.73 35.04,-196.54 4.31,-62.12 -5.32,-109.57 -41.69,-157.9 -10.85,-14.42 -28.89,-32.97 -40.27,-46.91l-27.1 -31.46c-7.54,-5.37 -15.2,-1.57 -20,3.82 -5.21,5.83 -36.07,43.79 -41.09,46.82zm162.52 366.1c22.22,-2.86 69.02,-13.65 92.11,-20.35 9.36,-2.71 13.97,-15.28 7.33,-23.56l-37.3 -37.3c-6.49,-6.44 -34.02,-34.98 -38.85,-38.11 -3.13,40.43 -16.37,81.89 -23.29,119.32z"/>
 </g>
</svg>
