<?xml version="1.0" encoding="UTF-8"?>
<!DOCTYPE svg PUBLIC "-//W3C//DTD SVG 1.1//EN" "http://www.w3.org/Graphics/SVG/1.1/DTD/svg11.dtd">
<!-- Creator: CorelDRAW 2019 (64-Bit) -->
<svg xmlns="http://www.w3.org/2000/svg" xml:space="preserve" width="100%" height="100%" version="1.1" style="shape-rendering:geometricPrecision; text-rendering:geometricPrecision; image-rendering:optimizeQuality; fill-rule:evenodd; clip-rule:evenodd"
viewBox="0 0 576.68 475.67"
 xmlns:xlink="http://www.w3.org/1999/xlink">
 <defs>
  <style type="text/css">
   <![CDATA[
    .str0 {stroke:#A6A182;stroke-width:20;stroke-miterlimit:22.9256}
    .fil2 {fill:none}
    .fil0 {fill:#918C6E}
    .fil1 {fill:#A6A182}
   ]]>
  </style>
 </defs>
 <g id="Layer_x0020_1">
  <metadata id="CorelCorpID_0Corel-Layer"/>
  <g id="_2167665056752">
   <polygon class="fil0" points="44.1,263.82 48.94,264.07 179.97,264.03 185.16,263.61 185.14,123.61 44.1,123.01 "/>
   <path class="fil0" d="M87.56 474.9l401.56 0.77 -20.1 0c0,-8.33 0.48,-18.21 -0.07,-26.36 -0.56,-8.37 -4.01,-11.91 -7.13,-16.51l-346.75 0c-10,14.93 -7.24,20.19 -7.24,42.06l-20.27 0.04z"/>
   <path class="fil1" d="M526.55 237.45c-4.4,3.28 -62.8,36.81 -64,36.86 -3.26,0.14 -56.95,-32.49 -65.07,-36.58 3.83,-4.62 24.74,-14.99 31.45,-19.02 4.22,-2.54 30.54,-18.13 32.85,-18.37 3.63,-0.36 40.48,22.34 48.64,26.97 2.64,1.5 5.74,3.2 8.06,4.52l6.12 3.86c1.24,0.98 1.49,1.27 1.95,1.76zm-59.24 -121.82l65.17 36.98 0.28 75.19 -65.03 -36.95 -0.42 -75.22zm-75.39 112.35c-1.19,-14.37 -0.12,-48.77 -0.3,-67.11 -0.1,-10.63 1.57,-9.06 8.91,-13.17 18.84,-10.53 38.98,-22.2 56.58,-32.27l0.04 75.2 -65.23 37.35zm-10.42 4.46c-0.33,8.12 0.36,7.95 6.1,11.19l72.37 41.67c5.1,1.51 35.84,-17.8 41.85,-21.3l40.9 -24.12 0.2 -62.61c-0.05,-31.45 3,-28.61 -10.22,-36.17l-58.78 -33.99c-4.9,-2.95 -9.5,-7.8 -15.67,-4.62l-73.17 42.32c-5.73,3.96 -3.56,13.29 -3.56,19.91l-0.02 67.72z"/>
   <path class="fil1" d="M44.1 123.01l141.04 0.6 0.02 140 -5.19 0.42 -131.03 0.04 -4.84 -0.25 0 -140.81zm151.08 -7.18l-1.84 -2.98 -156.93 0.24c-5.48,5.86 -2.5,26.68 -2.5,36.59 0,23.79 -1.61,112.35 0.86,123.37 5.62,1.83 154.9,2.76 158.48,-0.29 3.62,-3.07 2.09,-11.66 2.08,-16.5 -0.13,-44.63 1.18,-98.14 -0.15,-140.43z"/>
   <path class="fil0" d="M526.55 237.45c-0.46,-0.49 -0.71,-0.78 -1.95,-1.76l-6.12 -3.86c-2.32,-1.32 -5.42,-3.02 -8.06,-4.52 -8.16,-4.63 -45.01,-27.33 -48.64,-26.97 -2.31,0.24 -28.63,15.83 -32.85,18.37 -6.71,4.03 -27.62,14.4 -31.45,19.02 8.12,4.09 61.81,36.72 65.07,36.58 1.2,-0.05 59.6,-33.58 64,-36.86z"/>
   <path class="fil0" d="M391.92 227.98l65.23 -37.35 -0.04 -75.2c-17.6,10.07 -37.74,21.74 -56.58,32.27 -7.34,4.11 -9.01,2.54 -8.91,13.17 0.18,18.34 -0.89,52.74 0.3,67.11z"/>
   <polygon class="fil0" points="467.73,190.85 532.76,227.8 532.48,152.61 467.31,115.63 "/>
   <polygon class="fil1" points="172.5,422.32 404.4,422.32 404.28,401.78 172.44,401.78 "/>
   <path class="fil1" d="M310.06 200.5c-10.11,-3.9 -62.32,-0.41 -79.15,-1.65l0 -10.57c17.25,-1.27 68.44,2.34 79.12,-1.7 1.32,-8.23 -8.13,-16.99 -12.37,-22.24 2.68,-3.17 4.66,-4.75 8.31,-6.67 3.08,2.37 25.6,31.96 27.71,35.89 -2.37,4.19 -24.55,33.39 -27.71,35.85 -3.66,-2 -5.53,-3.53 -8.32,-6.65 4.32,-5.51 13.66,-14.1 12.41,-22.26zm27.67 -20.35l-27.43 -33.83c-5.87,-0.6 -8.32,0.99 -11.71,3.51 -2.9,2.15 -6.48,4.59 -9.13,7.19 -8.24,8.09 1.91,13.69 4.94,20.52 -16.82,1.65 -62.94,-3.18 -72.61,2.99 -0.95,4.31 -2.03,19.03 -0.47,23.77 2.25,6.83 12.29,4.98 20.71,4.97 17.44,-0.02 34.88,0 52.33,0 -5.68,13.5 -16.21,12.11 0.74,25.25 17.1,13.26 13.7,7.78 41.68,-27.7 15.47,-19.62 4.8,-14.16 0.95,-26.67z"/>
   <path class="fil0" d="M297.66 164.34c4.24,5.25 13.69,14.01 12.37,22.24 -10.68,4.04 -61.87,0.43 -79.12,1.7l0 10.57c16.83,1.24 69.04,-2.25 79.15,1.65 1.25,8.16 -8.09,16.75 -12.41,22.26 2.79,3.12 4.66,4.65 8.32,6.65 3.16,-2.46 25.34,-31.66 27.71,-35.85 -2.11,-3.93 -24.63,-33.52 -27.71,-35.89 -3.65,1.92 -5.63,3.5 -8.31,6.67z"/>
   <path class="fil1" d="M489.12 475.67c1.93,-29.72 3.82,-42.89 -27.3,-42.87 3.12,4.6 6.57,8.14 7.13,16.51 0.55,8.15 0.07,18.03 0.07,26.36l20.1 0z"/>
   <path class="fil1" d="M87.56 474.9l20.27 -0.04c0,-21.87 -2.76,-27.13 7.24,-42.06 -31.44,-0.15 -28.68,12.74 -27.51,42.1z"/>
   <rect class="fil2 str0" x="9.99" y="10" width="556.69" height="338.16" rx="32.05" ry="34.38"/>
  </g>
 </g>
</svg>
