<?xml version="1.0" encoding="UTF-8"?>
<!DOCTYPE svg PUBLIC "-//W3C//DTD SVG 1.1//EN" "http://www.w3.org/Graphics/SVG/1.1/DTD/svg11.dtd">
<!-- Creator: CorelDRAW 2019 (64-Bit) -->
<svg xmlns="http://www.w3.org/2000/svg" xml:space="preserve" width="100%" height="100%" version="1.1" style="shape-rendering:geometricPrecision; text-rendering:geometricPrecision; image-rendering:optimizeQuality; fill-rule:evenodd; clip-rule:evenodd"
viewBox="0 0 318.62 465.68"
 xmlns:xlink="http://www.w3.org/1999/xlink">
 <defs>
  <style type="text/css">
   <![CDATA[
    .fil0 {fill:#A6A182}
   ]]>
  </style>
 </defs>
 <g id="Layer_x0020_1">
  <metadata id="CorelCorpID_0Corel-Layer"/>
  <path class="fil0" d="M52.04 95.41l0 3.67 -5.33 0c-0.1,-0.26 -0.38,-1.2 -0.46,-1.38 -0.62,-1.3 -0.67,-1.23 -1.21,-1.96l-5 0c-0.64,-1.77 -0.52,-2.57 -3.45,-4.55l-1.55 -0.9c-1.07,-0.56 -0.85,-0.25 -1.67,-0.72 0,-7.12 0.14,-5.99 -1.65,-7.49 -0.01,5.88 -0.91,13.23 0.78,18.37 1.64,4.99 4.6,8.56 9.7,8.71l2.08 0.92c4.27,1.56 8.23,0.99 11.99,-0.28 4.01,-1.36 49.02,-0.85 57.98,-0.71 2.49,0.03 3.1,-0.37 4.96,1.22 0.14,0.13 0.29,0.34 0.41,0.48l1.24 2.11 0.13 -1.92c3.67,-1.47 46.34,-0.61 54.03,-0.6 4.63,0.07 0.96,-0.33 2.48,1.69 8.82,-2.98 7.95,0.48 8.14,1.04l2.71 0 0.83 -3.44c0.29,2.31 1.15,3.04 1.82,4.73l0.28 26.56 0.02 1.27 0.52 -30.04c0.45,-1.92 0.19,-1.06 0.71,-1.94l80.82 -0.26c3.12,1.07 6.34,0.55 8.76,1.52 0.2,0.08 0.41,0.17 0.59,0.27 0.17,0.09 0.38,0.21 0.53,0.32 0.15,0.1 0.34,0.25 0.48,0.37 1.59,1.49 -0.08,-0.83 1.07,1.53 0.59,1.19 0.74,3.24 1.26,4.53 1.43,-4.59 -0.09,-0.73 1.94,-2.48l1.17 -0.33 0.02 -5.32c16.01,-0.01 24.89,2.32 28.95,-11.66l-3.38 -7.21c-0.98,-0.43 -0.2,0.21 -1.15,-0.53 -1.7,-1.32 -1.07,3.08 -1.26,-3.11l-8.17 1.54c-0.98,-10.22 -0.17,-23.27 -0.41,-34.02 -0.05,-2.04 -0.16,-3.99 -0.18,-5.92 -0.03,-3.78 1.73,-3.24 -0.27,-3.25l0.01 49.14 -251.27 0.03zm132.59 -94.11l-0.75 0.7c-0.48,0.39 -1,0.77 -1.3,1.02 -7.51,6.08 -5.04,13.89 -5.06,26.56l-18.34 0.02 -2.93 3.47c-3.47,1.37 -0.05,0.81 -1.23,-0.15 8.78,-1.82 27.08,-0.83 36.66,-0.83l0.01 -2.51 0.03 -13.92 81.65 -1.1 0 15.03 -34.2 0 0.83 12.49c-14.48,0.03 -68.45,-0.98 -78.31,0.84 2.16,2 -2.66,1.62 2.5,1.67 23.33,0.04 46.66,0 69.98,0.01l65.86 -0.06c4.83,0.8 2.08,-1.24 3.27,1.7 2,0.01 0.24,-0.53 0.27,3.25 0.02,1.93 0.13,3.88 0.18,5.92 0.24,10.75 -0.57,23.8 0.41,34.02l8.17 -1.54c0.19,6.19 -0.44,1.79 1.26,3.11 0.95,0.74 0.17,0.1 1.15,0.53l3.38 7.21c0.38,-2.7 0.9,-53.71 -0.02,-58.13 -1.18,-5.65 -4.49,-7.99 -8.94,-10.18 -2.11,1.94 2.63,1.65 -2.5,1.65 -1.89,3.32 3.97,5.05 -4.05,5.51 -4.7,0.27 -7.49,0.69 -11.75,0.78 -1.63,0.04 -5.19,0.09 -6.67,-0.2 -1.91,-0.37 -1.63,-0.41 -2.58,-0.9 -0.23,-0.12 -1.33,-0.82 -1.57,-1.03l-5.66 -7.49c0.41,-5.07 -0.4,-6 1.45,-10.83 0.3,-0.49 3.16,-1.96 6.26,-2.08l-1.67 -5.84c0.17,-6.13 -0.49,-2.16 1.73,-3.97l2.37 -1.31c-1.86,-3.04 -4.79,-4.17 -8.65,-4.34 -15.86,-0.71 -84.07,-0.42 -91.24,0.92zm-59.18 38.2c0.67,0.79 0.86,1.3 0.93,1.11 0.12,-0.34 0.17,0.99 0.31,1.47 -1.8,0.68 -0.69,0.57 -3.74,0.84 1.63,1.97 -3.08,1.66 2.08,1.66 0.01,1.34 -0.15,3.64 -0.01,4.87 0.57,5.2 0.85,-0.11 1.67,5.13 -4.16,-3.65 -3.91,-2.42 -5.73,-2.51 -2.37,-0.12 -5.18,0.01 -7.6,0.01 -0.03,-0.76 -0.6,-3.99 -0.79,-4.54l-1.43 -2.23c-2.13,-3.21 -0.87,3.15 -0.28,-0.71 -14.09,4.39 -29.55,10.67 -43.38,15.73 -7.37,2.7 -14.11,5.22 -21.36,7.83 -9.17,3.3 -11.89,4.45 -14.4,13.92 1.79,1.5 1.65,0.37 1.65,7.49 0.82,0.47 0.6,0.16 1.67,0.72l1.55 0.9c2.93,1.98 2.81,2.78 3.45,4.55l5 0c0.54,0.73 0.59,0.66 1.21,1.96 0.08,0.18 0.36,1.12 0.46,1.38l5.33 0 0 -3.67c-4.21,0.01 -6.08,2.4 -5.2,-10.83 2.97,-2.15 49.72,-18.57 57.5,-21.48l43.24 -15.93c7.1,-2.71 7.54,-2.62 16.61,-2.58 -5.16,-0.05 -0.34,0.33 -2.5,-1.67 9.86,-1.82 63.83,-0.81 78.31,-0.84l-0.83 -12.49 -47.48 -0.01 -0.01 2.51c-9.58,0 -27.88,-0.99 -36.66,0.83 1.18,0.96 -2.24,1.52 1.23,0.15l2.93 -3.47c-12.21,0.03 -18.1,3.64 -30.25,8.09l-3.48 1.81zm143.72 216.72l0 3.33c-6.47,0 -60.66,-1.41 -65.6,1.05l-3.86 1.98c-3.06,0.86 -14.14,0.93 -17.3,-0.43 -2.55,-1.08 -2.83,-1.63 -3.23,-2.6l-43.32 0c-0.08,3.31 -0.69,2.28 -1.67,4.99 -2.22,0 -4.52,-0.07 -6.73,-0.04 -1.06,0.01 -2.06,0.01 -3.1,0.19 -7.74,1.31 -16.88,1.63 -25.19,1.14 -4.47,-0.27 -2,-1.37 -9.94,-1.31l-34.02 -0.98c-0.17,-0.08 -0.39,-0.19 -0.55,-0.28 -0.16,-0.09 -0.38,-0.21 -0.53,-0.3 -1.47,-0.91 -0.71,-0.25 -1.85,-1.5 -0.9,-0.99 -0.19,-0.31 -1.05,-1.46 -4.74,-6.34 -5.6,-0.45 -9.63,5.31 -1.53,2.18 -0.52,0.05 -1.56,2.36 -2.93,-1.57 -0.45,-1.17 -4.44,-1.46 1.04,9.75 2.51,3.36 4.44,9.45l0.31 -3.06 5.53 0.28c0,-4.55 -0.38,-1.34 1.48,-2.08l255.95 0.22 0.03 11.65c1.13,-2.22 0.72,-6.07 0.72,-9.17 1.56,0.67 1.94,-0.25 1.98,5.83l2.91 0c1.03,-2.12 0.09,-1.18 2.67,-1.67 0.54,-0.1 3.44,0.01 4.21,0.01l0.49 6.66c1.26,-8.25 0.49,-6.02 0.92,-11.51l1.1 -4.01c-0.83,-4.72 -2.29,-7.28 -5.84,-9.27l0.5 1.64c0.03,0.15 0.11,0.39 0.14,0.54 0.33,2 -0.14,1.56 -0.65,4.49l-22.49 -0.3c-4.39,-0.39 -3.4,0.1 -7.5,0.3 -0.08,3.52 0.93,2.5 -3.33,2.5 -0.46,-5.69 -1.02,-4.3 -2.1,-5.3 -4.26,-3.94 -1.53,-2.91 -3.73,-4.7 0.93,-2.34 -0.69,-0.5 1.66,-3.75l0 -10.77c0,-9 0.52,-8.4 -0.76,-12.18 -0.08,-0.26 -0.31,-0.33 -0.38,-0.81 -0.07,-0.49 -0.26,-0.56 -0.42,-0.81l0.06 25.79 -4.33 0.04zm-126.65 77.52c3.15,1.14 4.64,2.51 8.34,2.16 5.73,-1.42 15.43,-0.67 21.69,-0.53 1.5,0.03 3.49,0.18 4.86,0.17l2.77 0.05c0.11,0.02 0.34,0.1 0.46,0.13 4.39,0.96 7.26,1.55 8.54,-1.05l0.34 1.11c0.7,4.1 1.57,11.99 0.88,15.58 -0.6,2.9 -0.67,3.45 0.29,5.82l0.5 -21.25c13.66,-0.68 28.6,-0.09 42.15,-0.1 6.96,0 13.89,0.19 20.83,0.04 2.89,-0.06 17.65,-0.64 20.15,1.2l-0.32 5.91 0.72 -1.12c3.42,-4.24 3.42,-1.41 8.43,-2.25l2.51 -0.75c0.3,-0.12 1.59,-0.75 1.84,-0.87 -0.08,2.81 -0.94,5.12 0.99,6.07 -0.01,-0.82 -0.14,-3.02 -0.05,-3.7 0.47,-3.79 -0.61,-1.2 1.16,-3.29 9.26,-0.91 17.85,1.81 21.77,-3.01l-9.76 -2.52c-0.1,0 -0.35,0.03 -0.45,0.03l-1.96 0.05c-4.11,-1.21 -3.11,-1.67 -3.37,-4.59l-119.98 0c-1.23,1.4 -1.35,0.82 -4.06,0.88 -1.64,0.03 -3.56,-0.16 -5.18,-0.08 -6.57,0.32 -3.19,4.65 -18.26,3.1 -3.28,-0.34 -6.67,-2.68 -5.83,2.81zm-12.19 -19.97c1.41,2.27 2.24,2.09 3.86,3.26 -2.67,-0.48 -1.13,-0.16 -2.85,-0.88 -0.4,-0.16 -0.61,-0.31 -0.94,-0.46l-1.86 -1.16 0.65 6.67c-3.69,0 -3.8,-0.43 -6.57,0.85l-3.5 2.22c-0.06,-0.14 -0.3,0.19 -0.44,0.29l23.84 9.18c-0.84,-5.49 2.55,-3.15 5.83,-2.81 15.07,1.55 11.69,-2.78 18.26,-3.1 1.62,-0.08 3.54,0.11 5.18,0.08 2.71,-0.06 2.83,0.52 4.06,-0.88l119.98 0c0.26,2.92 -0.74,3.38 3.37,4.59l1.96 -0.05c0.1,0 0.35,-0.03 0.45,-0.03l9.76 2.52c2.76,-0.67 2.87,-0.95 4.54,-3.63 1.5,-2.4 2.06,-4.18 2.4,-7.32 -2.57,-0.53 -0.75,-1.88 -2.68,1.39l0.79 -4.73c-4.28,-0.49 -3.78,0.43 -7.94,-1.25 -4.56,-1.83 -3.49,-1.16 -3.49,-6.2 0,-2.01 0.44,-6.84 -1.57,-8.61l0.06 18.23c-40.23,1.41 -93.31,0.08 -135.96,0.1 -10.03,0.01 -11.57,0.66 -19.93,-2.6 -3.92,-1.53 -13.35,-5.35 -17.26,-5.67zm60.16 -66.1c-2.26,2.29 -2.21,5.33 -1.93,8.34 -5.97,0 -3.82,0.2 -8.3,-1.9 -0.24,-0.12 -1.14,-0.52 -1.33,-0.6l-1.4 -0.63 -0.01 3.33 -59.12 -0.05c-2.2,-0.32 -1.67,-0.32 -2.24,-0.83l-1.41 -3.28 -2.6 4.37c-0.03,-0.12 -0.06,0.44 -0.17,0.62l-15.81 -1.26c-2.62,-1.34 -0.54,-0.82 -3.64,-1.38 -0.87,-0.15 -4.17,-0.25 -5.07,-0.18 -3.94,0.3 -3.54,0.81 -6.27,2.14 -4.88,2.38 -12.7,0.96 -18.65,0.97 -7.13,0.01 -8.92,0.98 -12.76,-1.81l-2.52 -2.64c0,1.42 -0.81,1.21 -1.62,2.07l2.18 0.9c-6.21,0.31 -11.19,2.3 -12.71,6.23l-1.02 2.42c0.36,0.33 0.57,0.58 0.65,1.02 0.07,0.33 0.63,0.53 0.86,0.69 3.99,0.29 1.51,-0.11 4.44,1.46 1.04,-2.31 0.03,-0.18 1.56,-2.36 4.03,-5.76 4.89,-11.65 9.63,-5.31 0.86,1.15 0.15,0.47 1.05,1.46 1.14,1.25 0.38,0.59 1.85,1.5 0.15,0.09 0.37,0.21 0.53,0.3 0.16,0.09 0.38,0.2 0.55,0.28l34.02 0.98c7.94,-0.06 5.47,1.04 9.94,1.31 8.31,0.49 17.45,0.17 25.19,-1.14 1.04,-0.18 2.04,-0.18 3.1,-0.19 2.21,-0.03 4.51,0.04 6.73,0.04 0.98,-2.71 1.59,-1.68 1.67,-4.99l43.32 0c0.4,0.97 0.68,1.52 3.23,2.6 3.16,1.36 14.24,1.29 17.3,0.43l3.86 -1.98c4.94,-2.46 59.13,-1.05 65.6,-1.05l0 -3.33 -76.87 -0.01 0.1 -27.49 -1.55 0.38 0.02 21.28 -0.38 -2.71zm-156.86 -130.9c0.2,2.26 1.45,-0.2 -0.5,2.8 0.12,0.05 0.35,-0.09 0.4,0.06 1.14,3.84 -0.75,-1.4 2.26,0.77l0.67 5.33c1.02,0.1 1.57,0.5 1.59,0.51l1.57 0.01c0.11,-0.02 0.36,-0.09 0.47,-0.11 0.11,-0.01 0.36,-0.11 0.46,-0.12l1.21 -0.01c1.47,0.63 0.09,-0.31 1.37,1.45 5.73,-1.53 23.44,-17.01 53.8,-9.78 7.05,1.68 10.27,3.77 16.07,6.04 1.78,-1.96 -3.67,-1.65 2.86,-1.65 1.15,1.06 -2.16,1.73 3.08,1.33 1.66,-0.13 -1.91,-0.7 3.2,-0.91l-0.24 -6.25c0.27,0.09 1.39,0.09 1.54,0.05 3.75,-1.14 -1.43,-2.29 -1.49,-2.32l-1.09 -1.07 -1.24 -2.11c-0.12,-0.14 -0.27,-0.35 -0.41,-0.48 -1.86,-1.59 -2.47,-1.19 -4.96,-1.22 -8.96,-0.14 -53.97,-0.65 -57.98,0.71 -3.76,1.27 -7.72,1.84 -11.99,0.28l-2.08 -0.92c-1.97,4.32 -6.66,4.59 -8.57,7.61zm5.91 133.99c1.42,1.92 3.52,2.97 6.1,4.19 0.81,-0.86 1.62,-0.65 1.62,-2.07l2.52 2.64c3.84,2.79 5.63,1.82 12.76,1.81 5.95,-0.01 13.77,1.41 18.65,-0.97 2.73,-1.33 2.33,-1.84 6.27,-2.14 0.9,-0.07 4.2,0.03 5.07,0.18 3.1,0.56 1.02,0.04 3.64,1.38l15.81 1.26c0.11,-0.18 0.14,-0.74 0.17,-0.62l2.6 -4.37 1.41 3.28c2.28,-0.86 3.77,-1.71 5.91,-2.89 1.01,-0.55 1.46,-0.68 2.65,-1.49 2.34,-1.59 1.28,-0.39 2.68,-2.66 -3.13,-1.91 -4.14,-2.08 -8.21,-2.08l0 -5c-3.5,0.88 -0.54,0.44 -4.17,1.67 -0.59,2.32 0.34,-1.25 0.84,3.33 -4.75,0.11 -2.42,-0.49 -3.33,1.46l-1.67 0c-1.14,-3.61 -2.31,-2.87 -5.83,-1.46 -0.98,-1.4 -3.3,2.05 0,-2.27 -9.29,2.62 -17.25,4.84 -29.16,3.96 -11.21,-0.83 -17.52,-4.69 -25.83,-7.49 1.42,3.69 0.95,1.64 0.83,5.8 -4.19,0.35 -1.18,-0.77 -3.31,1.45l-1.7 2.01c-2.86,1.87 -5.76,0.65 -6.32,1.09zm165.66 -63.7c1.56,9.09 15.45,6.65 27.31,6.65 9.89,0 25.71,2.69 24.09,-8.99 -1.34,-9.61 -17.43,-6.74 -27.42,-6.74 -4.6,0 -12.22,-0.45 -16.44,0.19 -4.62,0.71 -8.41,3.83 -7.54,8.89zm-152.17 38.32c18.98,14.85 53.78,7.58 62.3,-4.44 -2.99,-3.22 -8.86,-1.22 -19.96,-1.33l-1.26 -1.55c0.18,-1.39 0.21,-0.6 0.92,-1.71 -5.91,1.61 -11.21,3.31 -18.79,2 -7.77,-1.35 -9.22,-3.25 -15.22,-5.77 -0.1,1.71 -0.35,3.49 -0.03,5.19l1.55 3.45c-10.04,0 -3.28,2.42 -9.16,1.67 -0.75,1.25 -1.35,-2.04 -0.35,2.49zm152.1 -67.48c0,4.77 3.75,7.46 9.05,7.46l34.06 0c5.67,0 9.26,-2.97 8.39,-9.02 -0.94,-6.47 -6.17,-5.97 -12.46,-5.97l-25.83 0c-7,-0.02 -13.21,-0.23 -13.21,7.53zm104.03 -127.47c-5.01,-1.5 -13.65,-0.84 -20.02,-0.84l-0.03 -8.33c-0.01,-3.32 0.21,-6.51 -0.4,-9.55 -0.72,-3.61 -1.37,-5.49 -4.19,-6.99l-2.37 1.31c-2.22,1.81 -1.56,-2.16 -1.73,3.97l1.67 5.84c-3.1,0.12 -5.96,1.59 -6.26,2.08 -1.85,4.83 -1.04,5.76 -1.45,10.83l5.66 7.49c0.24,0.21 1.34,0.91 1.57,1.03 0.95,0.49 0.67,0.53 2.58,0.9 1.48,0.29 5.04,0.24 6.67,0.2 4.26,-0.09 7.05,-0.51 11.75,-0.78 8.02,-0.46 2.16,-2.19 4.05,-5.51 5.13,0 0.39,0.29 2.5,-1.65zm-118.76 320.93l-1.79 -3.33 -0.1 5.83c-11.3,0 -1.68,-2.36 -9.38,-2.5l-1.36 6.04c-0.03,-0.11 -0.15,0.43 -0.26,0.63l-0.01 16.12 1.3 6.66c8.07,0.32 10.15,-1.48 10.61,1.67l0.43 -10.07c1.7,1.5 0.81,-0.72 1.41,1.74l1.22 -13.37 0 -23.79 80.86 0.04 0.99 0.04c-2.5,-1.84 -17.26,-1.26 -20.15,-1.2 -6.94,0.15 -13.87,-0.04 -20.83,-0.04 -13.55,0.01 -28.49,-0.58 -42.15,0.1l-0.5 21.25c-0.96,-2.37 -0.89,-2.92 -0.29,-5.82zm0.9 -209.13l-0.93 25.66 0 -17.01 -0.43 0 -0.28 17.01c-2.12,-0.79 -1.38,2.28 -1.55,-3.02l-10.61 -0.55 0.03 33.36 1.21 0.53 0.63 -7.19 9.19 0 0.14 3.35 1.35 -12.52 1.17 16.75 -0.3 8.73c-0.09,-1.82 -0.15,-4.09 -0.16,-6.08 -0.01,-0.36 0.11,-3.19 0.17,-3.41 0.92,-3.89 -0.15,-1.4 1.49,-3.28l0.11 -84.31c-0.52,0.88 -0.26,0.02 -0.71,1.94l-0.52 30.04zm-100.66 172.32l28.04 10.01c0.14,-0.1 0.38,-0.43 0.44,-0.29l3.5 -2.22c2.77,-1.28 2.88,-0.85 6.57,-0.85l-0.65 -6.67 1.86 1.16c0.33,0.15 0.54,0.3 0.94,0.46 1.72,0.72 0.18,0.4 2.85,0.88 -1.62,-1.17 -2.45,-0.99 -3.86,-3.26 -1.71,-1.91 -19,-7.35 -20.3,-7.62 -0.77,2.92 -2.71,-1.59 -2.78,6.44l-4.44 0c-0.1,-3.73 -0.75,-2.71 -0.84,-6.39 0.37,-3.06 1.63,-0.3 2.25,-2.17 0.12,-0.37 0.55,-0.18 0.81,-0.31 -3.28,-0.88 -5.34,-2.13 -8.88,-2.47 1.15,6.17 1.28,1.08 -0.14,6.01l-0.42 4.5c-2.84,1.05 -3.38,-0.01 -4.95,2.79zm116.9 -180.39c1.46,2.85 1.47,2.86 5.73,2.97 6.93,0.19 37.13,1.1 40.46,-1.35 4.37,-3.22 3.53,-7.68 0.86,-11.85 -2.51,1.8 -1.81,-3.16 -2.29,3.69l-35.07 0c-1.24,4.06 0.49,-0.96 -2.06,2.07 -1.11,1.32 -1.09,-2.43 -1.27,2.93 -2.65,0 -4.08,-0.18 -5.79,-0.82l-0.57 2.36zm81.82 325.12c-1.19,-3.75 -0.91,-113.25 0.24,-122.21 -1.77,2.09 -0.69,-0.5 -1.16,3.29 -0.09,0.68 0.04,2.88 0.05,3.7l-0.03 7.14 -0.11 13.21 -0.14 19.84 -0.08 6.11 -0.08 7.77 -0.39 18.69 -0.16 14.7 0 2.58 -1.25 19.33c-8.22,-0.26 -0.01,-1.67 -9.67,-1.67l-1.58 -7.25 0 -10.2 0 -5.29 -0.33 -12.83 -0.3 -19.03 -0.18 -22.54 -0.06 -13.07 -0.05 -3.55 -0.08 -15.02 0.32 -5.91 -0.99 -0.04c-0.97,12.05 0.29,58.59 0.27,74.99 -0.01,12.49 0.17,25 0.17,37.49 0,6.04 -0.7,12.53 3.71,15.04 5,2.83 8.76,-0.1 11.16,-4.08l0.72 -1.19zm-243.58 -161.73c7.42,-1.84 0.31,-3.18 10.26,-3.18l8.01 1.67c0.64,-2.4 0.56,-1.55 1.32,-3.17 0.2,-0.06 0.51,-0.43 0.6,-0.2l2.4 0.87c1.12,-1.4 0.56,-0.14 0.7,-2.33l-21.81 -8.13 0.1 -12.28c-1.86,0.74 -1.48,-2.47 -1.48,2.08l0.55 11.52c-1.44,-1.72 -1.42,-2.68 -3.61,-2.92 -1.11,2.18 0.32,0.75 -2.04,1.55 -0.02,0.01 -3.26,0.31 -3.28,0.31 -8.4,-0.38 -2.09,-5.24 -4.67,-15.46 -0.82,1.08 -0.38,-0.04 -0.83,1.83 -1.65,6.98 -1.03,28.44 13.78,27.84zm227.58 -137.63l0.68 3.53c1.87,2.63 1.51,7.61 1.52,10.83l0 -5 3.88 0 0 5 2.78 0 0 -3.33 3.06 0c0,3.82 -0.52,7.45 0.83,10l1.57 -13.33c-0.19,-3.17 -0.81,-3.77 1.47,-5.2l0 -46.7 -1.17 0.33 -0.14 12.02 -2.72 33.04c-0.15,-6.4 -2.19,-4.01 -3.63,-7.18l-5.54 -0.32c0,-4.44 -0.03,-1.2 -0.83,-2.5l-0.79 -16.38c0.07,-3.67 -0.08,-7.33 -0.2,-11 -0.09,-2.52 0.19,-8.22 -0.78,-10.41l0.01 46.6zm1.64 95.04c-2.35,3.25 -0.73,1.41 -1.66,3.75 2.2,1.79 -0.53,0.76 3.73,4.7 1.08,1 1.64,-0.39 2.1,5.3 4.26,0 3.25,1.02 3.33,-2.5 4.1,-0.2 3.11,-0.69 7.5,-0.3l22.49 0.3c0.51,-2.93 0.98,-2.49 0.65,-4.49 -0.03,-0.15 -0.11,-0.39 -0.14,-0.54l-0.5 -1.64c-2.35,-5.23 -16.55,-3.33 -23.5,-3.33l0.07 -15.82c-2.22,0 -1.57,-0.51 -1.57,1.9 0,3.44 0.19,7.33 0.08,10.7 -0.21,6.22 0.29,2.04 -1.3,3.91 -2.12,2.51 -1,-0.35 -1.98,2.78l-5.27 0c-0.92,-2.54 0.37,0.05 -1.09,-1.43 -3.28,-3.35 -3.4,0.09 -2.94,-3.29zm-83.75 119.19c-0.33,10.33 -0.11,12.06 -1.51,22.13 -3.05,-2.4 -2.91,-2.01 -5.54,-0.96l-1.19 0.63c-0.09,-0.18 -0.37,0.26 -0.59,0.33l0.01 -5 -2.93 0 -0.28 4.26 -1.71 -0.93 0 23.48 10 -0.85 1.91 3.71c0.15,-2.22 0.15,-4.28 0.24,-6.45l1.22 -4.38 0.62 -11.49c0.91,-3.83 0.11,-0.97 0.91,-2.44l0.06 -35.41 -1.22 13.37zm82.11 -175.13l1.61 10.53 0.29 8.33 0.22 -3.33 0.16 -5.5 6.36 0.01c0,-5.58 -0.81,-3.6 2.17,-4.92 0.72,1.02 0.48,0.22 0.93,2.15 0.28,1.17 0.27,2.11 0.33,3.34 0.15,3.28 -0.95,4.12 1.32,4.43 -0.8,-4.36 0.52,-3.08 1.49,-3.9 -0.29,-0.73 -0.67,0.36 -0.39,-2.39 0.09,-0.87 0.03,-0.56 0.28,-1.45 0.51,-1.81 0.33,-1.22 1.02,-2.22l0 -41.68c-2.28,1.43 -1.66,2.03 -1.47,5.2l-1.63 35.09 -0.95 -17.53c-0.14,0.18 -0.33,0.41 -0.42,0.53l-4.83 6.2c-6.03,5.93 -1.87,-1.51 -4.53,4.11l-1.28 -32.57 -0.68 -3.53 0 39.1zm-169.99 -47.37c1.87,3.02 3.46,3.44 6.22,6.7 2.56,3.01 3.37,4.74 5.42,8.22 5.21,-1.12 4.71,-0.02 5.22,0.91 1.13,0 5.69,0.21 6.37,0.1 1.99,-0.33 0.93,0.39 2.64,-2.81l0.78 -1.41c-1.16,-6.43 -10.32,-18.44 -14.66,-20.33 1.52,3.19 -2.88,-0.26 2.16,2.09 -4.27,1.18 -2.33,0.21 -1.94,4.17 -3.99,0 -7.1,0.24 -9.99,-0.84 -0.83,4.25 1.98,1.55 -2.22,3.2zm-68.73 9.62c1.43,0.69 0.51,2.29 0.19,3.08 9.75,-1.08 7.37,0.53 7.92,1.67 6.4,-0.27 0.96,0.04 3.65,-1.83l1.28 -0.58c0.14,-0.07 0.38,-0.16 0.53,-0.23l1.77 -1.05c2.01,-1.41 3.79,-4.45 5.67,-6.31 2.08,-2.07 4.82,-3.6 6.63,-6.04 -5.05,-1.51 -2.24,-0.83 -9.33,-0.83 -0.12,-4.7 -0.72,-6.9 -2.92,-7.99 -4.8,2.39 -15.3,13.86 -15.39,20.11zm85.39 -33.05c3.4,3.17 6.2,5.01 9.53,8.46 1.95,2.02 6.26,8.33 8.01,9.56 2.13,-0.63 1.37,1.58 1.62,-2.5l1.67 3.05c0.09,-0.07 2.16,-1.7 2.21,-1.73 2.77,-1.21 4.45,-0.29 6.18,0.31 0.61,0.21 2.73,1.23 4.68,0.59 -0.04,-3.08 -4.25,-8.39 -5.96,-11 -1.88,-2.87 -5.48,-7.95 -8.47,-9.36 -0.51,3.14 0.3,3.48 -2.87,4 -1.91,0.31 -4.56,0.08 -6.3,-0.39 -8.34,-2.23 -6.98,-0.48 -7.81,-3.8l-1.99 1.52c-0.45,0.42 -0.5,1.02 -0.5,1.29zm153.41 102.17c0.16,0.25 0.35,0.32 0.42,0.81 0.07,0.48 0.3,0.55 0.38,0.81 1.28,3.78 0.76,3.18 0.76,12.18l4.52 0 0.96 3.34 1.84 -1.62c1.85,-1.7 0.61,1.33 1.49,-1.6l2.14 0 0.94 -10.03c-0.76,1.84 1.11,4.85 0.61,8.01 0,-2.41 -0.65,-1.9 1.57,-1.9l0.08 -36.29c-0.69,1 -0.51,0.41 -1.02,2.22 -0.25,0.89 -0.19,0.58 -0.28,1.45 -0.28,2.75 0.1,1.66 0.39,2.39 -0.35,3.71 -1.56,7.4 -1.08,11.06 0.79,6.03 1.36,3.97 0.2,10.55 -0.12,-0.24 -0.21,-0.58 -0.29,-0.76 -2.05,-4.56 -1.59,-2.42 -2,-2.48 -5.45,-0.88 -3.13,-2.18 -6.5,-4.2 -0.16,-0.1 -0.38,-0.19 -0.55,-0.28 -2.95,-1.48 -1.85,0.64 -2.45,-0.89 -0.1,-0.26 -0.43,-0.11 -0.58,-0.23l-0.02 -13.38 -1.61 -10.53 0.08 31.37zm-212.68 -95.82c-1.46,4.81 -0.86,0.88 1.77,2.49 -0.29,-2.42 -2.43,-0.2 0.33,-2.28 3.67,-2.76 1.41,-0.35 2.17,-0.21 0.04,0.25 0.09,0.36 0.11,0.75l0.73 4.25 6.66 0 1.63 4.46c0.09,0.15 0.53,0.72 0.7,0.94l11.84 0.43c-1.97,-5.76 0.17,-1.62 0.95,-3.18 0.07,-0.14 0.24,-0.31 0.31,-0.45l1.82 -5.63c0.61,-2.08 0.63,-1.78 -0.58,-4.9 6.74,3.36 0.8,0.67 2.84,0 -7.6,-3.52 -25.89,-0.4 -31.28,3.33zm116.76 6.83l0 20.94c2.65,-2.5 0.86,-8.07 0.83,-11.39l9.74 0 1.5 -7.5c1.5,-3.44 0.19,-0.95 1.69,-2.49l-0.28 -26.56c-2.48,3.01 -1.77,13.75 -1.82,18.67l-3.5 0c-0.08,-4.96 0.68,-2.24 -2,-3.81l-1.14 -0.5c-0.18,-0.07 -0.41,-0.15 -0.59,-0.21l-2.6 -0.48c0,-3.66 0.31,-13.4 -1,-15.83 -0.51,7.05 1.43,24.22 -0.83,29.16zm-113 163.5c1.78,1.04 9.33,3.51 12.81,4.87 4.52,1.77 8.72,3.51 13.31,4.78 1.57,-2.8 2.11,-1.74 4.95,-2.79l0.42 -4.5c1.42,-4.93 1.29,0.16 0.14,-6.01 -1.83,-2.02 -9.82,-4.25 -13.34,-5.17l1.94 2.07 -1.51 1.97c-3.62,3.1 -6.69,0.02 -10.76,2.44 -2.8,1.67 -0.93,1.2 -4.39,1.98 -2.94,-2.57 0.11,-1.45 -3.89,-2.5 -0.13,0.43 -1.18,0.95 0.32,2.86zm52.16 -134.22c0.73,3.94 1.81,6.82 1.77,11.38 -0.04,4.71 -1.68,8.14 -1.34,11.82l0.03 2.34c2.7,-2.78 1.9,4.07 1.92,-2.35l-1 -2.17c-0.42,-1.83 -0.25,-0.34 -0.53,-2.97 2.82,0.96 4.61,0.88 6.68,2.5 3.36,2.64 1.38,0.96 2.48,4.44l4.88 0.56c2.11,-9.09 2.88,-19.55 0.69,-22.69l-3.07 2.69 -0.49 -2.84c-0.03,-0.3 -0.23,-0.33 -0.34,-0.5l-8.96 0c-1.06,-1.21 0.42,-2.26 -1.04,-3.95 -0.01,6.42 0.73,-0.22 -1.68,1.74zm90.86 -36.52l0.57 -2.36c1.71,0.64 3.14,0.82 5.79,0.82 0.18,-5.36 0.16,-1.61 1.27,-2.93 2.55,-3.03 0.82,1.99 2.06,-2.07l35.07 0c0.48,-6.85 -0.22,-1.89 2.29,-3.69 -6.68,-3.23 -22.72,-1.86 -31.25,-1.86 -7.25,0 -17.07,-1.89 -18.12,6.9 -0.46,3.84 0.98,4.61 2.32,5.19zm-16.32 64.44c-0.15,0.19 -0.27,0.46 -0.33,0.62 -3.44,9.25 4.69,8.67 -11.71,8.67l-0.95 -3.45c0,5.72 1.46,9.6 -0.71,13.33l0.01 29.02 0.15 -2.8c-0.47,-4.72 -0.7,-12.42 0.49,-16.94 1.68,-0.6 0.63,0.43 4.32,0.74 1.89,0.16 4.49,0.01 6.46,0.01l1.29 -15.81c0.12,4.33 1.84,14.83 0.61,17.11l1.55 -0.38 0.02 -34.16c-1.64,1.88 -0.57,-0.61 -1.49,3.28 -0.06,0.22 -0.18,3.05 -0.17,3.41 0.01,1.99 0.07,4.26 0.16,6.08l0.3 -8.73zm83.11 -63.87l0.79 16.38c0.8,1.3 0.83,-1.94 0.83,2.5l5.54 0.32c1.44,3.17 3.48,0.78 3.63,7.18l2.72 -33.04 -0.53 1.09c-0.06,0.17 -0.17,0.41 -0.22,0.62 -0.06,0.22 -0.12,0.44 -0.17,0.68 -0.23,1.11 -0.23,2.09 -0.27,3.21 -0.07,2.23 0.02,4.64 0.02,6.89l-1.84 0 0 -9.16c-6.22,-0.79 1.41,-1.55 -5.83,-1.67 0,-9.51 -2.45,-0.86 -3.45,-8.33l-1.22 13.33zm-228.55 162.82c2.09,1.99 16.47,6.81 18.74,7.35 -1.5,-1.91 -0.45,-2.43 -0.32,-2.86 4,1.05 0.95,-0.07 3.89,2.5 3.46,-0.78 1.59,-0.31 4.39,-1.98 4.07,-2.42 7.14,0.66 10.76,-2.44l1.51 -1.97 -1.94 -2.07 -13.74 -4.87c-0.14,2.19 0.42,0.93 -0.7,2.33l-2.4 -0.87c-0.09,-0.23 -0.4,0.14 -0.6,0.2 -0.76,1.62 -0.68,0.77 -1.32,3.17l-8.01 -1.67c-9.95,0 -2.84,1.34 -10.26,3.18zm49.25 -81.2c-0.71,1.11 -0.74,0.32 -0.92,1.71l1.26 1.55c11.1,0.11 16.97,-1.89 19.96,1.33 1.41,-0.38 -0.18,0.43 1.38,-0.65 3.01,-2.08 6.97,-7.03 8.26,-10.5l-5.61 -0.4 0 -3.39 -7.66 0.47c-1.17,-0.97 -2.87,2.93 -0.42,-1.87 -3.1,1.76 -4.87,4.56 -7.85,6.72 -3.29,2.38 -5.31,3.32 -8.4,5.03zm-51.33 -28.97c-2.33,1.76 -0.59,1.27 -0.79,1.74 -0.04,0.1 -0.13,0.33 -0.17,0.44 -0.04,0.1 -0.12,0.33 -0.17,0.43 -0.04,0.11 -0.14,0.34 -0.19,0.45l-1.35 5.95 -5.32 0c-1.08,-3.14 0.11,-0.64 -4.8,-2.66 0.97,3.25 1.69,8.59 4.2,10.83 2.55,-0.39 3.27,0.47 4.04,0.79 5.22,2.14 6.86,3.01 7,7.26l4.45 0 1.94 -3.86c3.54,-3.13 0.44,2.55 1.95,-1.72 -2.77,-4.4 -4.72,-6.05 -7.04,-11.53 -2.32,-5.5 -2.54,-8.63 -2.42,-16.03 -3.12,0.21 -0.27,-1.39 -1.92,0.9l0.59 7.01zm100.32 -26.98c0.7,2.75 1.44,4.57 2.06,7.25 0.52,2.26 0.82,5.49 1.41,8.36 2.06,0.44 1.38,0.54 2.63,1.3 5.09,3.13 4,2.25 12.41,2.25 -0.05,-5.77 -0.51,-11.23 -1.7,-15.83l-1.24 0.96c-2.92,1.94 -0.04,1.45 -3.6,1.52l-0.69 -4.43c-4.09,-0.18 -2.77,-0.41 -5.09,-1.58 -3.62,-1.84 -2.71,0.04 -3.52,-3.13l-2.67 3.33zm-108.91 44.16c2.67,7.67 11.49,17.28 17.92,20.82 -1,-4.53 -0.4,-1.24 0.35,-2.49 5.88,0.75 -0.88,-1.67 9.16,-1.67l-1.55 -3.45c-0.32,-1.7 -0.07,-3.48 0.03,-5.19l-6.53 -5.55c-1.51,4.27 1.59,-1.41 -1.95,1.72l-1.94 3.86 -4.45 0c-0.14,-4.25 -1.78,-5.12 -7,-7.26 -0.77,-0.32 -1.49,-1.18 -4.04,-0.79zm115.75 131.34c1.1,0.84 -0.03,0.34 1.83,0.82 2,0.52 -0.75,0 1.47,0.25 0.57,0.07 2.64,0.02 3.33,0.02 2.24,-0.02 4.46,-0.03 6.7,-0.03 4.46,0.01 8.93,0 13.32,-0.04l0 21.11c0.11,-0.2 0.23,-0.74 0.26,-0.63l1.36 -6.04c7.7,0.14 -1.92,2.5 9.38,2.5l0.1 -5.83 1.79 3.33c0.69,-3.59 -0.18,-11.48 -0.88,-15.58l-0.34 -1.11c-1.28,2.6 -4.15,2.01 -8.54,1.05 -0.12,-0.03 -0.35,-0.11 -0.46,-0.13l-2.77 -0.05c-1.37,0.01 -3.36,-0.14 -4.86,-0.17 -6.26,-0.14 -15.96,-0.89 -21.69,0.53zm-45.83 -91.96c-3.3,4.32 -0.98,0.87 0,2.27 3.52,-1.41 4.69,-2.15 5.83,1.46l1.67 0c0.91,-1.95 -1.42,-1.35 3.33,-1.46 -0.5,-4.58 -1.43,-1.01 -0.84,-3.33 3.63,-1.23 0.67,-0.79 4.17,-1.67l0 5c4.07,0 5.08,0.17 8.21,2.08 2.26,-0.41 0.12,0.49 2.76,-1.1 0.79,-0.48 1.79,-1.33 2.82,-2.18 2.25,-1.88 3.22,-2.46 4.51,-5.03 -3.25,0.27 -2.14,-0.48 -4.76,-0.64 -0.18,-6.16 -0.01,-1.75 -1.71,-3.36l-3.55 -3.01c-2.3,-1.51 -1.78,0.5 -1.61,-1.74 -3.21,2.07 -6.03,4.62 -9.71,6.94 -3.43,2.15 -7.73,4.09 -11.12,5.77zm31.14 -23.78c0.12,0.11 0.4,0 0.44,0.19 0.18,0.71 0.24,-0.66 1.37,0.89 1.97,2.72 0.7,-0.94 0.09,0.68 -0.93,2.48 -0.32,0.51 -0.55,0.34 4.1,0 7.64,0.73 11.7,0.18l3.15 -1.22c2.38,-1.89 5.48,-10.87 6.71,-14.99 -0.26,-0.09 1.57,-0.84 -0.86,0.03 -0.07,0.02 -0.31,0.09 -0.39,0.13 -0.09,0.04 -0.3,0.18 -0.39,0.24 -3.33,2.31 0.12,2.92 -8.25,2.92 -0.08,-3.64 1.93,-2.41 -5.83,-4.99 -1.37,4.24 -6.95,13.8 -7.19,15.6zm-136.01 -33.93c0.99,5.83 1.25,13.71 3.4,18.33 2.94,0.1 8.31,0.26 9.82,2.71 0.28,-1.02 0.11,-1.79 0.6,-3.13 0.52,-1.47 0.33,-1.08 0.88,-1.86 1.94,-2.73 -0.31,-0.37 2.68,-2.72l0.87 1.45c-1.36,-3.53 -2.31,-7.78 -2.53,-11.87 -1.79,-0.65 -0.67,-0.15 -1.75,-1.8l-2 -3.2c-1.29,4.78 -3.47,2.36 -8.44,5.14 -0.15,0.08 -0.48,0.56 -0.58,0.39 -0.1,-0.17 -0.36,0.29 -0.56,0.41l-0.46 -1.17c-0.09,-0.18 -0.23,-0.45 -0.34,-0.62 -0.12,-0.22 -0.65,-1.15 -1.59,-2.06zm273.19 -72.91c0.97,2.19 0.69,7.89 0.78,10.41 0.12,3.67 0.27,7.33 0.2,11l1.22 -13.33c1,7.47 3.45,-1.18 3.45,8.33 7.24,0.12 -0.39,0.88 5.83,1.67l0 9.16 1.84 0c0,-2.25 -0.09,-4.66 -0.02,-6.89 0.04,-1.12 0.04,-2.1 0.27,-3.21 0.05,-0.24 0.11,-0.46 0.17,-0.68 0.05,-0.21 0.16,-0.45 0.22,-0.62l0.53 -1.09 0.14 -12.02c-2.03,1.75 -0.51,-2.11 -1.94,2.48 -0.52,-1.29 -0.67,-3.34 -1.26,-4.53 -1.15,-2.36 0.52,-0.04 -1.07,-1.53 -0.14,-0.12 -0.33,-0.27 -0.48,-0.37 -0.15,-0.11 -0.36,-0.23 -0.53,-0.32 -0.18,-0.1 -0.39,-0.19 -0.59,-0.27 -2.42,-0.97 -5.64,-0.45 -8.76,-1.52l0 3.33zm14.33 54.3l-1.57 13.33c-1.35,-2.55 -0.83,-6.18 -0.83,-10l-3.06 0 0 3.33 -2.78 0 0 -5 -3.88 0 0 5c-0.01,-3.22 0.35,-8.2 -1.52,-10.83l1.28 32.57c2.66,-5.62 -1.5,1.82 4.53,-4.11l4.83 -6.2c0.09,-0.12 0.28,-0.35 0.42,-0.53l0.95 17.53 1.63 -35.09zm-272.21 -33.07l1.62 1.22c2.97,0.91 -2.53,2.7 1.36,-0.02 2.07,-1.45 0.1,-2.23 1.59,-4.51 0.6,2.02 -1.45,2.52 7.53,2.05l6.98 0.99c0.11,0.06 0.32,0.27 0.52,0.31 1.93,-1.1 6.91,-5 8.06,-7.13 -1.28,-1.76 0.1,-0.82 -1.37,-1.45l-1.21 0.01c-0.1,0.01 -0.35,0.11 -0.46,0.12 -0.11,0.02 -0.36,0.09 -0.47,0.11l-1.57 -0.01c-0.02,-0.01 -0.57,-0.41 -1.59,-0.51l-0.67 -5.33c-3.01,-2.17 -1.12,3.07 -2.26,-0.77 -0.05,-0.15 -0.28,-0.01 -0.4,-0.06 1.95,-3 0.7,-0.54 0.5,-2.8 -5.18,2.15 -14.72,12.63 -18.16,17.78zm162.21 109.44l12.75 -0.05 0.06 3.73 0.38 2.71 -0.02 -21.28c1.23,-2.28 -0.49,-12.78 -0.61,-17.11l-1.29 15.81c-1.97,0 -4.57,0.15 -6.46,-0.01 -3.69,-0.31 -2.64,-1.34 -4.32,-0.74 -1.19,4.52 -0.96,12.22 -0.49,16.94zm-127.65 -102.83c2.2,1.09 2.8,3.29 2.92,7.99 7.09,0 4.28,-0.68 9.33,0.83l12.58 -5.01c-0.17,-0.22 -0.61,-0.79 -0.7,-0.94l-1.63 -4.46 -6.66 0 -0.73 -4.25c-0.02,-0.39 -0.07,-0.5 -0.11,-0.75 -0.76,-0.14 1.5,-2.55 -2.17,0.21 -2.76,2.08 -0.62,-0.14 -0.33,2.28 -2.63,-1.61 -3.23,2.32 -1.77,-2.49 -3.3,0.58 -9.85,4.53 -10.73,6.59zm36.67 4.24c2.52,0.81 7.49,2.03 9.53,2.06l2.5 -1.8c1.23,-1.05 -0.51,-1.51 6.72,-1.51 0.08,-0.18 0.27,-0.63 0.31,-0.5 0,0 2.33,-3.21 2.61,-5.92 -0.47,-1.06 -1.15,-1.16 -2.77,-2.01 -1.42,-0.74 -2.69,-1.37 -4,-1.93 -2.59,-1.12 -6.43,-2.55 -9.56,-2.55 -2.04,0.67 3.9,3.36 -2.84,0 1.21,3.12 1.19,2.82 0.58,4.9l-1.82 5.63c-0.07,0.14 -0.24,0.31 -0.31,0.45 -0.78,1.56 -2.92,-2.58 -0.95,3.18zm-82.51 62.07c1.38,3.36 5.16,14.42 8.41,16.59 0.21,-0.17 1.35,-0.8 1.52,-0.86l1 -0.24c0.21,-0.03 0.83,-0.06 1.04,-0.06 4.98,-0.02 2.08,-1.01 3.26,1.44l2.92 0c0.91,-1.9 -1.92,1.11 0.88,-0.88l3.04 -1.84c3.1,-2.62 -0.25,1.55 0.86,-1.16 -0.31,-2.54 -1.55,-3.56 -2.96,-5.86 -1.64,-2.67 -2.34,-4.24 -3.28,-7.33 -2.88,0.8 -0.78,-0.5 -2.5,1.45 0.95,5.28 0.86,4.17 -5.83,4.17 -0.12,-5.19 -0.09,-1.99 -1,-3.18 -0.15,-0.2 -0.69,-0.63 -0.88,-0.79l-1.5 -1.04c-1.23,-0.79 -3.83,-2.03 -4.98,-0.41zm186.69 202.65l-0.52 14.4c-0.32,3.23 0.12,7.69 -1.44,10.03l-0.71 -6.7c-1.1,0 -2.88,0.12 -3.88,-0.14l-3.09 -1.91c-0.13,-0.11 -0.34,-0.25 -0.47,-0.37l-1.24 -1.3c-0.6,-0.96 -0.6,-1.88 -0.84,-2.95l-1.18 16.81 -0.02 3.19 1.21 4.79 0.84 -8.11 3.09 -0.01 0 3.21 5.82 0 1.02 6.68c0.07,-4.03 -0.74,-9.49 1.86,-11.8l1.02 -0.59 0.06 -39.16c-0.8,1.47 0,-1.39 -0.91,2.44l-0.62 11.49zm-77.88 -286.4c2.58,1.7 4.35,2.95 7.03,4.5 0,-0.27 0.05,-0.87 0.5,-1.29l1.99 -1.52c0.83,3.32 -0.53,1.57 7.81,3.8 1.74,0.47 4.39,0.7 6.3,0.39 3.17,-0.52 2.36,-0.86 2.87,-4 -1.26,-3.32 -5.12,-5.61 -8.24,-8.1 -2.91,-2.32 -6.38,-4.87 -10.27,-6.52l-0.13 1.92 1.09 1.07c0.06,0.03 5.24,1.18 1.49,2.32 -0.15,0.04 -1.27,0.04 -1.54,-0.05l0.24 6.25c-5.11,0.21 -1.54,0.78 -3.2,0.91 -5.24,0.4 -1.93,-0.27 -3.08,-1.33 -6.53,0 -1.08,-0.31 -2.86,1.65zm-83.56 60.01l14.26 3.65 -0.59 -7.01c1.65,-2.29 -1.2,-0.69 1.92,-0.9l0.01 -2.69 -4.82 -4.86c-2.18,-1.69 -3.39,-3.7 -3.51,-6.53 -4.24,0.14 -2.27,3.59 -3.75,0.18 -1.97,1.85 -2.39,5.3 -2.76,8.32 -0.4,3.31 -0.99,6.79 -0.76,9.84zm116.84 15.13l-1.69 2.87c-0.9,2.05 0.19,1.06 -1.23,2.83 7.76,2.58 5.75,1.35 5.83,4.99 8.37,0 4.92,-0.61 8.25,-2.92 0.09,-0.06 0.3,-0.2 0.39,-0.24 0.08,-0.04 0.32,-0.11 0.39,-0.13 2.43,-0.87 0.6,-0.12 0.86,-0.03 1.48,-3.8 3.41,-11.9 3.43,-16.88 -8.56,2.08 -0.32,6.54 -6.45,6.67 -0.2,-6.59 0.48,-0.9 -1.23,-2.96 -2.41,-2.91 -0.77,1.98 -2.1,-2.04 -5.84,0.15 -2.13,-0.17 -3.94,4.81 -0.53,1.46 -2.17,2.96 -2.51,3.03zm31.25 -1.18l-0.01 20.09c2.17,-3.73 0.71,-7.61 0.71,-13.33l0.95 3.45c16.4,0 8.27,0.58 11.71,-8.67 0.06,-0.16 0.18,-0.43 0.33,-0.62l-1.17 -16.75 -1.35 12.52 -0.14 -3.35 -9.19 0 -0.63 7.19 -1.21 -0.53zm-0.03 -85.61l0.02 29.33c2.26,-4.94 0.32,-22.11 0.83,-29.16 1.31,2.43 1,12.17 1,15.83l2.6 0.48c0.18,0.06 0.41,0.14 0.59,0.21l1.14 0.5c2.68,1.57 1.92,-1.15 2,3.81l3.5 0c0.05,-4.92 -0.66,-15.66 1.82,-18.67 -0.67,-1.69 -1.53,-2.42 -1.82,-4.73l-0.83 3.44 -2.71 0c-0.19,-0.56 0.68,-4.02 -8.14,-1.04zm96.69 262.55l1.2 16.58 0.19 -5.84 0.38 -5.28c4.42,0 6.23,0.73 9.18,0.83 0.02,-0.78 -0.11,-1.6 0.23,-2.34 1.01,-2.18 0.41,-0.96 1.71,-2.37l1.13 8.05 0.14 -19.84c-1.22,-1.27 -0.72,0.01 -1.21,-2.38l-1.5 0.91c-0.24,0.14 -0.45,0.25 -0.72,0.4 -8.02,4.33 -2.05,3.57 -9.1,3.57l-1.69 -5.36 0.06 13.07zm-127.91 -175.76c0.34,-0.07 1.98,-1.57 2.51,-3.03 1.81,-4.98 -1.9,-4.66 3.94,-4.81 1.33,4.02 -0.31,-0.87 2.1,2.04 1.71,2.06 1.03,-3.63 1.23,2.96 6.13,-0.13 -2.11,-4.59 6.45,-6.67 -0.01,-4.4 0.55,-6.74 0.02,-9.79 -8.41,0 -7.32,0.88 -12.41,-2.25 -1.25,-0.76 -0.57,-0.86 -2.63,-1.3 0.09,3.58 0.26,8.32 -0.04,11.81 -0.33,3.9 -1.75,7.23 -1.17,11.04zm31.21 242.32l0 9.88c6.02,8.6 4.9,-1.91 5.14,6.55l5.96 0c0.48,3.66 0.48,1.84 1.66,2.73 -0.22,-3.16 -0.58,-3.6 0.72,-5.83l0.36 -18.57c-2.6,2.31 -1.79,7.77 -1.86,11.8l-1.02 -6.68 -5.82 0 0 -3.21 -3.09 0.01 -0.84 8.11 -1.21 -4.79zm125.85 -158.51l0.03 9.37c1.13,1.4 0.83,0.78 1.57,3.11 0.03,0.07 0.29,2.22 0.33,2.45l1.1 -6.58 9.46 -0.11 0.44 6.72c0.77,-1.49 0.75,-3.06 0.91,-4.73l0.88 -4.65c0.05,-0.17 0.15,-0.44 0.26,-0.65l0.02 -18.79 -1.1 4.01c-0.43,5.49 0.34,3.26 -0.92,11.51l-0.49 -6.66c-0.77,0 -3.67,-0.11 -4.21,-0.01 -2.58,0.49 -1.64,-0.45 -2.67,1.67l-2.91 0c-0.04,-6.08 -0.42,-5.16 -1.98,-5.83 0,3.1 0.41,6.95 -0.72,9.17zm1.65 29.65c0,5.04 -1.07,4.37 3.49,6.2 4.16,1.68 3.66,0.76 7.94,1.25l-0.79 4.73c1.93,-3.27 0.11,-1.92 2.68,-1.39l0.01 -16.63c-1.05,-2.94 -1.19,-2.26 -1.24,-5.69 -0.2,0.19 -0.37,0.48 -0.51,0.63 -1.87,1.93 -1.69,1.94 -4.67,2.41 -1.43,0.22 -3.52,0.55 -5.71,0.7l-1.2 7.79zm-127.49 61.83l0.01 20.46 1.71 0.93 0.28 -4.26 2.93 0 -0.01 5c0.22,-0.07 0.5,-0.51 0.59,-0.33l1.19 -0.63c2.63,-1.05 2.49,-1.44 5.54,0.96 1.4,-10.07 1.18,-11.8 1.51,-22.13 -0.6,-2.46 0.29,-0.24 -1.41,-1.74l-0.43 10.07c-0.46,-3.15 -2.54,-1.35 -10.61,-1.67l-1.3 -6.66zm-164.9 -150.09c0.77,2.82 0.89,2.87 2.75,5.22l3.91 4.02c-0.1,-2.41 -0.38,-0.41 1.62,-1.25l1.7 1.6c0.17,0.1 0.38,0.27 0.58,0.36 2.09,1 6.71,0.4 9.24,0.4 0,-2.6 -0.24,-2.57 1.12,-4.7l1.03 -1.28c-1.3,-1.53 -2.24,-2.5 -3.48,-4.05 -0.51,-0.64 -0.98,-1.33 -1.48,-1.87 -1.76,-1.87 -0.76,-0.98 -2.47,-2.05 -1.11,2.71 2.24,-1.46 -0.86,1.16l-3.04 1.84c-2.8,1.99 0.03,-1.02 -0.88,0.88l-2.92 0c-1.18,-2.45 1.72,-1.46 -3.26,-1.44 -0.21,0 -0.83,0.03 -1.04,0.06l-1 0.24c-0.17,0.06 -1.31,0.69 -1.52,0.86zm-3.83 -76.89l0.72 10.17c1.93,-2.73 8.28,-1.52 10.52,-0.78l6.72 -11.77c-2,-1.73 -1.68,2.72 -1.69,-2.31l-9.58 0c-0.33,1.26 1.03,2.2 -2.34,1.71 -1.74,-0.25 -0.81,1.22 -1.81,-1.79 -2.26,1.61 -2.46,1.99 -2.54,4.77zm168.75 15.17l-0.02 1.98 10.61 0.55c0.17,5.3 -0.57,2.23 1.55,3.02l0.28 -17.01 0.43 0 0 17.01 0.93 -25.66 -0.02 -1.27c-1.5,1.54 -0.19,-0.95 -1.69,2.49l-1.5 7.5 -9.74 0c0.03,3.32 1.82,8.89 -0.83,11.39zm125.85 129.7l0.05 11.67c2.01,1.77 1.57,6.6 1.57,8.61l1.2 -7.79c2.19,-0.15 4.28,-0.48 5.71,-0.7 2.98,-0.47 2.8,-0.48 4.67,-2.41 0.14,-0.15 0.31,-0.44 0.51,-0.63 0.05,3.43 0.19,2.75 1.24,5.69l0 -18.88c-0.11,0.21 -0.21,0.48 -0.26,0.65l-0.88 4.65c-0.16,1.67 -0.14,3.24 -0.91,4.73l-0.44 -6.72 -9.46 0.11 -1.1 6.58c-0.04,-0.23 -0.3,-2.38 -0.33,-2.45 -0.74,-2.33 -0.44,-1.71 -1.57,-3.11zm-276.38 -49.74c1.74,1.77 3.37,2.8 5.7,4.6 0.92,0.72 1.71,1.42 2.84,2.16 2,1.31 1.99,1.24 4.01,1.7 0.56,-0.44 3.46,0.78 6.32,-1.09l1.7 -2.01c2.13,-2.22 -0.88,-1.1 3.31,-1.45 0.12,-4.16 0.59,-2.11 -0.83,-5.8 -1.04,-1.51 -2.13,-1.67 -3.76,-2.56 -3.55,1.37 -2.97,0 -4.57,4.48 -15.63,0 -3.37,-1.27 -13.33,-3.2 -1.18,1.67 -1.06,-2.64 -1.39,3.17zm-7.73 -9c1.76,4.2 4.61,5.53 7.73,9 0.33,-5.81 0.21,-1.5 1.39,-3.17 9.96,1.93 -2.3,3.2 13.33,3.2 1.6,-4.48 1.02,-3.11 4.57,-4.48 -4.8,-3.22 -7.86,-6.7 -11.73,-9.42l-1.03 1.28c-1.36,2.13 -1.12,2.1 -1.12,4.7 -2.53,0 -7.15,0.6 -9.24,-0.4 -0.2,-0.09 -0.41,-0.26 -0.58,-0.36l-1.7 -1.6c-2,0.84 -1.72,-1.16 -1.62,1.25zm254.82 124.7l0.05 3.55 1.69 5.36c7.05,0 1.08,0.76 9.1,-3.57 0.27,-0.15 0.48,-0.26 0.72,-0.4l1.5 -0.91c0.49,2.39 -0.01,1.11 1.21,2.38l0.11 -13.21c-1.61,-0.9 -1.63,-1.13 -4.01,-0.7 -0.26,0.04 -1.65,0.56 -1.88,0.68l-3.65 2.27c-3,1.13 -2.41,-0.69 -4.55,3.9 -0.08,0.15 -0.15,0.46 -0.29,0.65zm-0.08 -15.02l0.08 15.02c0.14,-0.19 0.21,-0.5 0.29,-0.65 2.14,-4.59 1.55,-2.77 4.55,-3.9l3.65 -2.27c0.23,-0.12 1.62,-0.64 1.88,-0.68 2.38,-0.43 2.4,-0.2 4.01,0.7l0.03 -7.14c-1.93,-0.95 -1.07,-3.26 -0.99,-6.07 -0.25,0.12 -1.54,0.75 -1.84,0.87l-2.51 0.75c-5.01,0.84 -5.01,-1.99 -8.43,2.25l-0.72 1.12zm1 -98.79l0 10.77c-0.46,3.38 -0.34,-0.06 2.94,3.29 1.46,1.48 0.17,-1.11 1.09,1.43l5.27 0c0.98,-3.13 -0.14,-0.27 1.98,-2.78 1.59,-1.87 1.09,2.31 1.3,-3.91 0.11,-3.37 -0.08,-7.26 -0.08,-10.7 0.5,-3.16 -1.37,-6.17 -0.61,-8.01l-0.94 10.03 -2.14 0c-0.88,2.93 0.36,-0.1 -1.49,1.6l-1.84 1.62 -0.96 -3.34 -4.52 0zm-259.53 -109.64c-0.61,0.84 -1.53,2.16 -2.22,3.22 -1.81,2.74 -1.67,1.85 -1.94,4.63 1,3.01 0.07,1.54 1.81,1.79 3.37,0.49 2.01,-0.45 2.34,-1.71l9.58 0c0.01,5.03 -0.31,0.58 1.69,2.31 1.85,-1.93 2.62,-3.37 4.21,-5.2 2.07,-2.39 2.65,-2.86 4.13,-5 -0.2,-0.04 -0.41,-0.25 -0.52,-0.31l-6.98 -0.99c-8.98,0.47 -6.93,-0.03 -7.53,-2.05 -1.49,2.28 0.48,3.06 -1.59,4.51 -3.89,2.72 1.61,0.93 -1.36,0.02l-1.62 -1.22zm113.64 93.35c0.92,4.13 -2.43,-0.68 1.88,1.46 0.11,0.05 0.36,0.12 0.47,0.17 0.11,0.05 0.35,0.14 0.47,0.19 6.7,3.12 5.18,0.69 9.66,1.7l1.57 0.82c0.16,0.05 -1.17,1.04 1.88,-0.19 2.41,-1.08 6.18,-7.5 7.33,-10.83l-3.15 1.22c-4.06,0.55 -7.6,-0.18 -11.7,-0.18 0.23,0.17 -0.38,2.14 0.55,-0.34 0.61,-1.62 1.88,2.04 -0.09,-0.68 -1.13,-1.55 -1.19,-0.18 -1.37,-0.89 -0.04,-0.19 -0.32,-0.08 -0.44,-0.19l-7.06 7.74zm156.6 179.51l-0.22 7.01 -6.22 0 0 -3.33 -3.26 -0.01 -0.42 -5.34 -0.92 10.45 0.33 12.83 1.37 -4.97c5.83,0.21 2.09,-0.94 3.63,3.3 0.77,-2.11 -0.34,-0.84 1.23,-2.41 3.79,-3.79 1.88,1.24 4.78,-6.09l1.49 12.67 0.16 -14.7 -0.99 -13.61c-0.51,0.88 -0.19,-0.69 -0.92,2.08 -0.29,1.1 -0.08,1.2 -0.04,2.12zm-252.88 -139.53c2.58,10.22 -3.73,15.08 4.67,15.46 0.02,0 3.26,-0.3 3.28,-0.31 2.36,-0.8 0.93,0.63 2.04,-1.55 2.19,0.24 2.17,1.2 3.61,2.92l-0.55 -11.52 -5.53 -0.28 -0.31 3.06c-1.93,-6.09 -3.4,0.3 -4.44,-9.45 -0.23,-0.16 -0.79,-0.36 -0.86,-0.69 -0.08,-0.44 -0.29,-0.69 -0.65,-1.02l1.02 -2.42c-2.3,1.81 -2.57,2.5 -2.28,5.8zm104.74 -121.64c0.8,2.09 1.71,4.57 3.3,5.83l2.36 -0.81 1.17 4.14c4.86,-0.5 -2.42,-1.47 3.81,-1.5 2.77,-0.01 3.74,0.92 4.31,2.33l2.5 0c0.79,-2.56 0.49,-1.88 2.51,-3.33 -0.51,-1.37 -0.8,-2.35 -1.38,-3.56 -0.66,-1.37 -0.31,-0.73 -0.96,-1.73 -0.73,-1.13 -0.64,-0.94 -1.26,-1.65 -1.95,0.64 -4.07,-0.38 -4.68,-0.59 -1.73,-0.6 -3.41,-1.52 -6.18,-0.31 -0.05,0.03 -2.12,1.66 -2.21,1.73l-1.67 -3.05c-0.25,4.08 0.51,1.87 -1.62,2.5zm136.8 250.92c5.29,1.38 4.05,0.28 4.94,2.22l3.05 0c1.01,-2.21 -1.99,-1.49 2.92,-1.66l0.67 -7.78c1.5,3.3 0.57,5.36 2.1,8.19l0.08 -7.77 -0.63 -1.67c-0.22,-0.07 -0.54,0 -0.68,0l-2.53 0.07c-4.74,-0.76 -3.23,-1.3 -3.46,-3.4l-5.25 0 -0.19 5.84 -1.2 -16.58 0.18 22.54zm-163.09 -192.56c-2.45,4.8 -0.75,0.9 0.42,1.87l7.66 -0.47 0 3.39 5.61 0.4c2.11,-1.5 3.44,-4.53 4.22,-7.73 -6.47,-0.19 -2.76,-6.34 -13.32,-2.51 0.83,-2.08 1.09,-2.71 1.27,-3.33l-0.03 -2.34 -5.83 10.72zm176.96 5.56c-0.97,0.82 -2.29,-0.46 -1.49,3.9 -0.44,3.13 0.68,1.05 -0.92,2.71 -1.89,-0.44 -1.06,-0.76 -3.19,-0.36 -2.38,0.45 -0.94,-0.67 -1.81,1.48l-1.67 -3.34 -3.68 0 -0.22 3.33 -0.29 -8.33 0.02 13.38c0.15,0.12 0.48,-0.03 0.58,0.23 0.6,1.53 -0.5,-0.59 2.45,0.89 0.17,0.09 0.39,0.18 0.55,0.28 3.37,2.02 1.05,3.32 6.5,4.2 0.41,0.06 -0.05,-2.08 2,2.48 0.08,0.18 0.17,0.52 0.29,0.76 1.16,-6.58 0.59,-4.52 -0.2,-10.55 -0.48,-3.66 0.73,-7.35 1.08,-11.06zm-192.01 -62.7c1.35,1.9 1.35,1.49 3.32,2.61 2.49,1.42 1.6,1.25 3.82,1.58 4.2,-1.65 1.39,1.05 2.22,-3.2 2.89,1.08 6,0.84 9.99,0.84 -0.39,-3.96 -2.33,-2.99 1.94,-4.17 -5.04,-2.35 -0.64,1.1 -2.16,-2.09 -0.82,-1.95 -0.47,-1.27 -2.51,-2.83 -2.28,-1.73 -2,-1.43 -4.48,-2.47 -0.28,2.71 -2.61,5.92 -2.61,5.92 -0.04,-0.13 -0.23,0.32 -0.31,0.5 -7.23,0 -5.49,0.46 -6.72,1.51l-2.5 1.8zm81.26 303.6c-0.06,8.47 -1.23,14.56 8.36,14.18 6.09,-1.61 6.51,-4.31 6.51,-11.53 0,-6.12 0.06,-12.24 -0.01,-18.36l-1.02 0.59 -0.36 18.57c-1.3,2.23 -0.94,2.67 -0.72,5.83 -1.18,-0.89 -1.18,0.93 -1.66,-2.73l-5.96 0c-0.24,-8.46 0.88,2.05 -5.14,-6.55zm-177.33 -264.83c0.94,0.91 1.47,1.84 1.59,2.06 0.11,0.17 0.25,0.44 0.34,0.62l0.46 1.17c0.2,-0.12 0.46,-0.58 0.56,-0.41 0.1,0.17 0.43,-0.31 0.58,-0.39 4.97,-2.78 7.15,-0.36 8.44,-5.14l2 3.2c1.08,1.65 -0.04,1.15 1.75,1.8l-0.09 -12.08c-0.65,0.83 -1.47,0.1 -1.58,5.28l-0.56 -3.06c-2.77,0.29 -5.93,0.87 -8.39,-0.74 -2.45,-1.6 -0.67,0.61 -2.16,-2.31 -0.12,0.27 -0.13,0.61 -0.18,0.86l-0.32 1.66c-0.55,2.55 1.01,2.22 -1.22,3.32l-0.06 -6.49c-1.75,1.76 -0.17,-1.04 -0.94,1.7 -0.28,1.01 -0.33,2.01 -0.36,3.09 -0.06,1.83 0.11,4.03 0.14,5.86zm2.38 -23.75l-0.85 2.92c3.22,1.58 1.52,1.45 4.47,2.22 -1.05,2.83 -0.76,0.68 -2.9,2.7 -3.7,3.48 7.72,2.3 9.56,2.3l-0.4 5.54c1.28,-3.6 3,-1.99 3.4,-1.93 0.13,-3.93 0.93,-7.26 1.69,-10.83 -0.08,-0.12 -0.2,-0.34 -0.25,-0.36 -4.57,-1.61 -0.91,-0.83 -2.21,0.98l-2.3 0c-0.17,-5.78 0.4,-1.83 -1.68,-3.4l-8.53 -0.14zm271.83 234.68l0.3 19.03 0.92 -10.45c6.64,0.72 0.36,0.63 4.69,1.62 1.71,0.39 3.62,0.07 5.43,0.05 -0.04,-0.92 -0.25,-1.02 0.04,-2.12 0.73,-2.77 0.41,-1.2 0.92,-2.08l0.99 13.61 0.39 -18.69c-1.53,-2.83 -0.6,-4.89 -2.1,-8.19l-0.67 7.78c-4.91,0.17 -1.91,-0.55 -2.92,1.66l-3.05 0c-0.89,-1.94 0.35,-0.84 -4.94,-2.22zm-271.83 -234.68l8.53 0.14c2.08,1.57 1.51,-2.38 1.68,3.4l2.3 0c1.3,-1.81 -2.36,-2.59 2.21,-0.98 0.05,0.02 0.17,0.24 0.25,0.36l2.5 -8.84c-2.24,-0.74 -8.59,-1.95 -10.52,0.78l-0.72 -10.17 -6.23 15.31zm174.97 255.61l0 19.9 1.18 -16.81c0.24,1.07 0.24,1.99 0.84,2.95l1.24 1.3c0.13,0.12 0.34,0.26 0.47,0.37l3.09 1.91c1,0.26 2.78,0.14 3.88,0.14l0.71 6.7c1.56,-2.34 1.12,-6.8 1.44,-10.03l0.52 -14.4 -1.22 4.38c-0.09,2.17 -0.09,4.23 -0.24,6.45l-1.91 -3.71 -10 0.85zm-66.65 -373.49c-0.59,3.86 -1.85,-2.5 0.28,0.71l1.43 2.23c0.19,0.55 0.76,3.78 0.79,4.54 2.42,0 5.23,-0.13 7.6,-0.01 1.82,0.09 1.57,-1.14 5.73,2.51 -0.82,-5.24 -1.1,0.07 -1.67,-5.13 -0.14,-1.23 0.02,-3.53 0.01,-4.87 -5.16,0 -0.45,0.31 -2.08,-1.66 3.05,-0.27 1.94,-0.16 3.74,-0.84 -0.14,-0.48 -0.19,-1.81 -0.31,-1.47 -0.07,0.19 -0.26,-0.32 -0.93,-1.11l-14.59 5.1zm66.67 202.19l0 6.09 1.4 0.63c0.19,0.08 1.09,0.48 1.33,0.6 4.48,2.1 2.33,1.9 8.3,1.9 -0.28,-3.01 -0.33,-6.05 1.93,-8.34l-0.06 -3.73 -12.75 0.05 -0.15 2.8zm97.47 182.23l0 5.29c2.92,-1.52 7.51,-0.39 8.43,0.14 2.5,1.43 1.17,-1.53 1.57,2.56 0.27,-0.29 0.66,-1.08 0.81,-0.86l1.69 -2.05 0 -2.58 -1.49 -12.67c-2.9,7.33 -0.99,2.3 -4.78,6.09 -1.57,1.57 -0.46,0.3 -1.23,2.41 -1.54,-4.24 2.2,-3.09 -3.63,-3.3l-1.37 4.97zm-134.13 -276.95c0.87,2.64 1.95,5.61 3.15,8.33l2.67 -3.33c0.81,3.17 -0.1,1.29 3.52,3.13 2.32,1.17 1,1.4 5.09,1.58l0.69 4.43c3.56,-0.07 0.68,0.42 3.6,-1.52l1.24 -0.96c-0.22,-2.6 -2.49,-9.07 -3.3,-10.83 -2.02,1.45 -1.72,0.77 -2.51,3.33l-2.5 0c-0.57,-1.41 -1.54,-2.34 -4.31,-2.33 -6.23,0.03 1.05,1 -3.81,1.5l-1.17 -4.14 -2.36 0.81zm134.13 292.44l1.58 7.25c9.66,0 1.45,1.41 9.67,1.67 0,-3.08 0.55,-6.75 -0.64,-9.57 -1.51,-3.58 -3.77,-1.49 -4.78,-1.22 -1.76,-4.23 -1.07,1.41 -1.66,-3.96l-2.99 0.02 -1.18 5.81zm-245.56 -260.78l1.47 10c4.91,2.02 3.72,-0.48 4.8,2.66l5.32 0 1.35 -5.95c0.05,-0.11 0.15,-0.34 0.19,-0.45 0.05,-0.1 0.13,-0.33 0.17,-0.43 0.04,-0.11 0.13,-0.34 0.17,-0.44 0.2,-0.47 -1.54,0.02 0.79,-1.74l-14.26 -3.65zm96.42 47.5c-0.17,2.24 -0.69,0.23 1.61,1.74l3.55 3.01c1.7,1.61 1.53,-2.8 1.71,3.36 2.62,0.16 1.51,0.91 4.76,0.64 2.71,-0.35 1.72,-0.42 4.02,-3.06 1.82,-2.1 2.1,-2.17 3.53,-4.87 -3.05,1.23 -1.72,0.24 -1.88,0.19l-1.57 -0.82c-4.48,-1.01 -2.96,1.42 -9.66,-1.7 -0.12,-0.05 -0.36,-0.14 -0.47,-0.19 -0.11,-0.05 -0.36,-0.12 -0.47,-0.17 -4.31,-2.14 -0.96,2.67 -1.88,-1.46l-3.25 3.33zm-124.54 -55.65l0.06 6.49c2.23,-1.1 0.67,-0.77 1.22,-3.32l0.32 -1.66c0.05,-0.25 0.06,-0.59 0.18,-0.86 1.49,2.92 -0.29,0.71 2.16,2.31 2.46,1.61 5.62,1.03 8.39,0.74l0.56 3.06c0.11,-5.18 0.93,-4.45 1.58,-5.28l0.03 -0.83c-0.4,-0.06 -2.12,-1.67 -3.4,1.93l0.4 -5.54c-1.84,0 -13.26,1.18 -9.56,-2.3 2.14,-2.02 1.85,0.13 2.9,-2.7 -2.95,-0.77 -1.25,-0.64 -4.47,-2.22 -0.17,3.66 -1.13,6.1 -0.37,10.18zm31.64 -10.01c1.48,3.41 -0.49,-0.04 3.75,-0.18 0.12,2.83 1.33,4.84 3.51,6.53l4.82 4.86c0.71,-2.34 1.12,-5.2 2.04,-7.7 1.07,-2.89 1.89,-4.08 2.9,-6.75l-1.77 1.05c-0.15,0.07 -0.39,0.16 -0.53,0.23l-1.28 0.58c-2.69,1.87 2.75,1.56 -3.65,1.83 -0.55,-1.14 1.83,-2.75 -7.92,-1.67 0.32,-0.79 1.24,-2.39 -0.19,-3.08 -1.96,1.05 -0.52,-0.42 -1.32,1.52 -0.87,2.12 -0.59,-0.45 -0.36,2.78zm82.05 1l1.67 4.11c2.41,-1.96 1.67,4.68 1.68,-1.74 1.46,1.69 -0.02,2.74 1.04,3.95l8.96 0c0.11,0.17 0.31,0.2 0.34,0.5l0.49 2.84 3.07 -2.69c0.53,-3.8 -0.73,-7.2 -2.24,-10.18l-0.78 1.41c-1.71,3.2 -0.65,2.48 -2.64,2.81 -0.68,0.11 -5.24,-0.1 -6.37,-0.1 -0.51,-0.93 -0.01,-2.03 -5.22,-0.91zm2.13 29.65c-0.18,0.62 -0.44,1.25 -1.27,3.33 10.56,-3.83 6.85,2.32 13.32,2.51l2.38 -5.83 -4.88 -0.56c-1.1,-3.48 0.88,-1.8 -2.48,-4.44 -2.07,-1.62 -3.86,-1.54 -6.68,-2.5 0.28,2.63 0.11,1.14 0.53,2.97l1 2.17c-0.02,6.42 0.78,-0.43 -1.92,2.35zm-113.58 8.34l0.63 2.91c1.15,-1.62 3.75,-0.38 4.98,0.41l1.5 1.04c0.19,0.16 0.73,0.59 0.88,0.79 0.91,1.19 0.88,-2.01 1,3.18 6.69,0 6.78,1.11 5.83,-4.17 1.72,-1.95 -0.38,-0.65 2.5,-1.45l-2.47 -6.26 -0.87 -1.45c-2.99,2.35 -0.74,-0.01 -2.68,2.72 -0.55,0.78 -0.36,0.39 -0.88,1.86 -0.49,1.34 -0.32,2.11 -0.6,3.13 -1.51,-2.45 -6.88,-2.61 -9.82,-2.71zm272.02 180.8l5.25 0c0.23,2.1 -1.28,2.64 3.46,3.4l2.53 -0.07c0.14,0 0.46,-0.07 0.68,0l0.63 1.67 0.08 -6.11 -1.13 -8.05c-1.3,1.41 -0.7,0.19 -1.71,2.37 -0.34,0.74 -0.21,1.56 -0.23,2.34 -2.95,-0.1 -4.76,-0.83 -9.18,-0.83l-0.38 5.28zm-0.58 48.95l0 10.2 1.18 -5.81 2.99 -0.02c0.59,5.37 -0.1,-0.27 1.66,3.96 1.01,-0.27 3.27,-2.36 4.78,1.22 1.19,2.82 0.64,6.49 0.64,9.57l1.25 -19.33 -1.69 2.05c-0.15,-0.22 -0.54,0.57 -0.81,0.86 -0.4,-4.09 0.93,-1.13 -1.57,-2.56 -0.92,-0.53 -5.51,-1.66 -8.43,-0.14zm0.48 -219.76l3.68 0 1.67 3.34c0.87,-2.15 -0.57,-1.03 1.81,-1.48 2.13,-0.4 1.3,-0.08 3.19,0.36 1.6,-1.66 0.48,0.42 0.92,-2.71 -2.27,-0.31 -1.17,-1.15 -1.32,-4.43 -0.06,-1.23 -0.05,-2.17 -0.33,-3.34 -0.45,-1.93 -0.21,-1.13 -0.93,-2.15 -2.98,1.32 -2.17,-0.66 -2.17,4.92l-6.36 -0.01 -0.16 5.5zm10.23 192.86c-1.81,0.02 -3.72,0.34 -5.43,-0.05 -4.33,-0.99 1.95,-0.9 -4.69,-1.62l0.42 5.34 3.26 0.01 0 3.33 6.22 0 0.22 -7.01zm-175.68 -101.26c-1.27,-1.52 -3.13,-1.12 -5,-2.43 -0.26,0.13 -0.69,-0.06 -0.81,0.31 -0.62,1.87 -1.88,-0.89 -2.25,2.17 0.09,3.68 0.74,2.66 0.84,6.39l4.44 0c0.07,-8.03 2.01,-3.52 2.78,-6.44z"/>
 </g>
</svg>
