<?xml version="1.0" encoding="UTF-8"?>
<!DOCTYPE svg PUBLIC "-//W3C//DTD SVG 1.1//EN" "http://www.w3.org/Graphics/SVG/1.1/DTD/svg11.dtd">
<!-- Creator: CorelDRAW 2019 (64-Bit) -->
<svg xmlns="http://www.w3.org/2000/svg" xml:space="preserve" width="100%" height="100%" version="1.1" style="shape-rendering:geometricPrecision; text-rendering:geometricPrecision; image-rendering:optimizeQuality; fill-rule:evenodd; clip-rule:evenodd"
viewBox="0 0 656.14 465.67"
 xmlns:xlink="http://www.w3.org/1999/xlink">
 <defs>
  <style type="text/css">
   <![CDATA[
    .fil0 {fill:#A6A182}
   ]]>
  </style>
 </defs>
 <g id="Layer_x0020_1">
  <metadata id="CorelCorpID_0Corel-Layer"/>
  <path class="fil0" d="M481.31 242.53c0.88,-4.07 3.87,-2.09 9.74,-2.09l0 15.98c-9.52,10.44 -7.09,11.2 -27.18,11.2l0 -8.01 14.4 -1.11c0.34,-0.62 1.07,-0.28 1.58,-0.49l1.46 -15.48zm-22.48 -32.83c4.14,6.55 4.92,25.72 1.54,32.71 5.91,36.34 -35.54,81.71 -36.83,84.63l75.21 -0.52c4.73,-9.63 8.5,-17.24 12.27,-27.76 2.71,-7.56 6.07,-23.88 8.3,-28.65l2.29 -12.28c0.05,-0.49 0.29,-0.63 0.49,-0.9l0.34 -32.12 -0.72 -11.08c-9.6,-63.01 -33.13,-105.21 -81.23,-140.08 -58.26,-42.25 -115.15,-35.67 -185.94,-35.67 -49.14,0 -98.28,0 -147.38,0.01l0.04 -37.99c-8.61,0.98 -93.89,61.66 -107.21,67.05 2.38,3.42 -0.04,0.86 3.58,4.09l103.46 66.4 0.92 -38.62c38.69,0.37 77.53,0.06 116.23,0.06 72.72,0 146.13,-12.95 194.74,36.19 17.54,17.73 41.47,48.23 39.9,74.53zm-324.36 4.07l-0.49 10.13c-3.64,44.7 13.86,91.26 34.6,120.07 16,22.23 14.49,16.54 27.64,31.53 10.46,11.94 41.28,30.31 58.59,37.3 45.65,18.45 89.03,14.15 140.36,14.15 51.25,0 102.52,-0.13 153.78,0.02l-0.03 38.7c9.46,-3.29 93.24,-61.98 107.22,-67.81 -4.99,-6.98 -46.01,-31.43 -53.97,-36.86 -8.73,-5.96 -18.68,-11.44 -27.37,-17.41 -7.5,-5.15 -19.69,-13.71 -25.73,-16.23l-0.93 38.63c-74.23,-0.66 -149.27,1.43 -223.35,-0.08 -32.97,-0.67 -62,-14.08 -81.25,-29.8 -13.22,-10.8 -40.78,-41.18 -43.16,-66.46l-1.49 -3.63c-6.18,1.37 -14.39,2.83 -21.78,1.25 -17.21,-3.69 -12.05,-25.63 -12.05,-50.8l8 0c0,35.07 -5.2,44.38 12.74,44.9 5.65,0.16 7.37,-0.44 11.1,-1.76 -1.76,-14.02 -7.35,-37.81 0.31,-49.96 -0.71,-17.53 17.16,-51.3 29.52,-64.13 4.64,-4.82 3.31,-1.75 5.88,-7.6l-73.94 0.22c-12.96,13.85 -21.33,55.11 -24.2,75.63zm241.4 -3.68l0.11 2.82 2.39 5.96c0.25,0.85 1.01,4.05 1.2,5.03 0.88,4.48 0.88,7.76 0.98,12.75 4.17,0.72 6.79,1.39 10.54,2.45 10.16,2.86 14.76,11.03 10.68,19.65 -6.16,13.04 -23.26,8.19 -32.68,8.01 -0.99,0.51 -3.92,1.87 -4.69,2.26 -5.12,5.07 -6.79,7.07 -14.62,10.71 -6.55,3.04 -13.81,4.84 -21.73,4.84 -16.58,-0.01 -28.23,-7.04 -36.2,-15.5 -4.79,-2.99 -9.31,-8.37 -11.82,-15.78 -3.64,-12.88 -4.56,-15.61 -3.56,-30.41l-15.52 0c0,27.79 -3.79,36.26 12.78,36.73l0 8.01 -7.91 -1.17c-17.79,-6.34 -12.9,-15.25 -12.87,-43.57l-23.96 0 0 28.71 4.02 -0.09c16,1.53 13.01,3.26 19.74,19.61 5.81,14.08 -10.04,12.01 -11.12,25.26 1.87,4.02 18.51,20.74 22.51,22.51 12.13,-0.83 10.37,-12.53 20.67,-12.36 3.88,0.06 7.85,3.2 12.24,4.92 13.5,5.26 10.41,1.04 13.27,26.71 8.01,2.91 27.6,2.98 36.09,0.04l2.25 -20.72c1.42,-3.94 20.08,-11.03 24.14,-12.25 19.05,12.41 10.69,23.2 31.81,2.2 3.59,-3.57 8.52,-6.35 10.07,-12.65 -2.58,-10.08 -13.74,-10.09 -12.42,-20.24 0.34,-2.63 3.44,-8.09 4.71,-11.15 2.58,-6.27 1.48,-6.97 5.54,-10.08 1.34,-2.18 -1.95,-1.55 5.02,-1.96l0 -23.68c-4.5,-3.82 6.17,-3.19 -6.39,-3.19l0 -8c12.53,0 1.92,0.56 6.39,-3 -8.21,0.16 -3.88,0.35 -5.39,-1.61 -5.34,-5.23 -3.12,-12.27 -9.76,-17.28 -0.26,0.23 -0.83,0.32 -0.97,0.39 -0.13,0.07 -0.74,0.3 -0.88,0.38 -2.2,1.22 -1.9,-2.55 -1.37,1.95 1.84,15.73 -7.54,12.8 -8.55,12.9 -8.62,0.86 -6.91,-2.77 -14.74,-0.11zm-145.49 3.14c0.42,1.07 -3.35,3.13 9.54,3.48 3.85,0.1 8.97,-0.24 13.02,-0.24l0 -14.38c2.34,-1.21 6.35,-2.8 8.01,-4.8l0 19.18 14.37 0 0.76 3.72c3.54,-3.7 10.59,-36.01 46.34,-39.48 13.83,-1.34 23.23,1.75 33.53,7.87 14.21,8.44 15.61,18.37 19.92,21.51 7.83,-2.66 6.12,0.97 14.74,0.11 1.01,-0.1 10.39,2.83 8.55,-12.9 -0.53,-4.5 -0.83,-0.73 1.37,-1.95 0.14,-0.08 0.75,-0.31 0.88,-0.38 0.14,-0.07 0.71,-0.16 0.97,-0.39 -0.99,-26.51 27.48,-11.9 1.4,-37.86 -3.68,-3.66 -7.02,-9.36 -13.41,-10.84 -9.62,2.39 -9.94,12.69 -19.05,12.54 -3.77,-0.06 -7.25,-2.8 -11.17,-4.41 -22.56,-9.3 -7.09,-4.73 -14.4,-27.19 -9.27,-3.48 -26.64,-2.86 -35.38,0.02 -2.42,21.39 -0.31,20.82 -7.43,24.58 -1.15,0.62 -4.36,1.55 -5.83,2.12 -4.33,1.67 -8.64,4.82 -12.33,4.9 -10.13,0.2 -8.61,-11.51 -20.64,-12.38 -4.12,1.96 -20.58,18.38 -22.48,22.48 0.84,13.64 16.78,10.5 11.16,25.32 -6.27,16.55 -4.55,19.95 -22.44,19.37zm0 0l-8.02 1.49c-2.16,6.21 -2.01,14.87 -1.98,22.62 0.04,9 -0.17,13.83 8.61,14.25l0 -28.71 23.96 0c-0.03,28.32 -4.92,37.23 12.87,43.57l7.91 1.17 0 -8.01c-16.57,-0.47 -12.78,-8.94 -12.78,-36.73l15.52 0 -0.39 -2.69 -0.76 -3.72 -14.37 0 0 -19.18c-1.66,2 -5.67,3.59 -8.01,4.8l0 14.38c-4.05,0 -9.17,0.34 -13.02,0.24 -12.89,-0.35 -9.12,-2.41 -9.54,-3.48zm187.15 38.11l11.73 0.03c7.16,-2.3 6.42,-5.11 6.43,-14.03 0.01,-6.9 0.46,-14.65 -0.29,-21.41l-6.81 -2.75 -11.06 0.29c-4.47,3.56 6.14,3 -6.39,3l0 8c12.56,0 1.89,-0.63 6.39,3.19l0 23.68zm-218.64 14.68l-1.99 -6.41c-3.73,1.32 -5.45,1.92 -11.1,1.76 -17.94,-0.52 -12.74,-9.83 -12.74,-44.9l-8 0c0,25.17 -5.16,47.11 12.05,50.8 7.39,1.58 15.6,0.12 21.78,-1.25zm180 -21.05c9.15,0.88 8.54,-0.13 15.8,3.8 -0.24,7.69 -0.59,9.98 -7.6,11.51 -3.1,0.67 -12.09,1.75 -12.91,-1.53l-1.07 -0.97 -4.02 8.98c9.42,0.18 26.52,5.03 32.68,-8.01 4.08,-8.62 -0.52,-16.79 -10.68,-19.65 -3.75,-1.06 -6.37,-1.73 -10.54,-2.45l-1.66 8.32zm100.96 13.04c-0.51,0.21 -1.24,-0.13 -1.58,0.49l-14.4 1.11 0 8.01c20.09,0 17.66,-0.76 27.18,-11.2l0 -15.98c-5.87,0 -8.86,-1.98 -9.74,2.09l-1.46 15.48zm-102.31 -10.86l-3.36 11.6c0.82,3.28 9.81,2.2 12.91,1.53 7.01,-1.53 7.36,-3.82 7.6,-11.51 -7.26,-3.93 -6.65,-2.92 -15.8,-3.8l-1.35 2.18z"/>
 </g>
</svg>
