<?xml version="1.0" encoding="UTF-8"?>
<!DOCTYPE svg PUBLIC "-//W3C//DTD SVG 1.1//EN" "http://www.w3.org/Graphics/SVG/1.1/DTD/svg11.dtd">
<!-- Creator: CorelDRAW 2019 (64-Bit) -->
<svg xmlns="http://www.w3.org/2000/svg" xml:space="preserve" width="100%" height="100%" version="1.1" style="shape-rendering:geometricPrecision; text-rendering:geometricPrecision; image-rendering:optimizeQuality; fill-rule:evenodd; clip-rule:evenodd"
viewBox="0 0 430.86 465.66"
 xmlns:xlink="http://www.w3.org/1999/xlink">
 <defs>
  <style type="text/css">
   <![CDATA[
    .fil0 {fill:#A6A182}
   ]]>
  </style>
 </defs>
 <g id="Layer_x0020_1">
  <metadata id="CorelCorpID_0Corel-Layer"/>
  <path class="fil0" d="M111.3 303.82l3.92 1.11 12.31 0.97c1.19,1.91 0.83,1.73 1.99,3.56 1.05,1.65 1.05,1.25 2.64,4.03 1.28,1.25 1.46,1.56 2.4,2.7l4.04 0.95c1.34,-10.97 8.34,-12.36 19.2,-11.8 7.56,1.88 14.34,-2.89 20.03,1.95 6.24,-3.24 7.72,-1.54 14.11,-0.72 5.01,0.65 7.28,-3.69 13.7,-0.52l4.79 4.01c3.86,5.36 2.22,19.52 2.12,25.93 -14.08,3.07 -4.5,-12.06 -8.41,-19.75 -1.61,-3.18 -6.09,-4.33 -6.51,1.74 -0.36,5.25 0.21,10.84 -0.29,16.5 -13.06,4.82 -5.83,-6.4 -8.8,-18.93 -2.95,-1.52 -2.3,-1.59 -5.87,-0.96 -2.9,8.44 -0.45,11.88 -1.73,19.9l-3.75 2.29 -0.17 1.46c6.29,0.43 13.53,8.25 19.68,7.22 5.62,-0.94 12.53,-8.04 18.47,-8.61 0.22,-0.23 0.55,-0.92 0.65,-0.71 0.09,0.2 0.48,-0.51 0.6,-0.63 0.14,-0.15 0.71,-0.75 0.98,-0.99l-0.43 -2.86 -2.37 -0.98c-0.06,-2.57 0.01,-3.41 -0.5,-6.07 -0.93,-4.96 -1.96,-1.47 -1.08,-7.61 0.88,-6.09 2.98,-2.37 2.98,-11.81 6.92,0 11.82,-1.02 14.35,1.59 5.9,-1.24 16.61,-4.74 13.35,5.24 -3.42,2.16 -4.19,1.94 -8.3,1.43l-0.93 12.52 2.03 -0.25 8.5 -4.86 2.5 -2.04c3.24,-10.13 -2.91,-22.38 5.32,-20.95 3.96,0.69 0.74,-1.1 3.82,3.54 0.11,0.18 0.34,0.52 0.43,0.67 0.09,0.14 0.26,0.46 0.44,0.66 1.94,-2.26 3.75,-3.29 5.05,-4.81 2.15,-2.52 1.8,-4.31 3.4,-7.59 2.26,-4.66 6.19,-10.15 10.85,-10.41 4.97,-5.8 -4.84,1.76 1.4,-1.46 2.8,-1.45 -1.39,-0.05 3.33,-1.21 3.46,-1.86 3.17,-1.91 6.09,-4.73 3.24,-3.14 3.62,-2.8 3.75,-8.25 0.21,-8.23 -1.23,-17.36 0.53,-25.26 -9.6,1.23 -22.67,12.32 -33.43,15.46l0.78 0.31c-2.1,0.92 -3.98,1.66 -6.21,2.9 -3.01,1.67 -2.7,1.42 -4.54,3.59 3.12,1.26 0.2,4.11 -1.02,7.67 -5.85,-0.51 4.57,-1.64 -13.6,-1.33 -4.36,0.07 -4.58,0.1 -7.94,-1.27l-3.71 -1.69c-6.75,-1.89 -6.33,1.37 -6.72,1.84 -2.12,2.5 0.33,3.05 -8.58,2.86 -5.03,-0.11 -10.07,-0.05 -15.1,-0.05l0 -15.37c-7.07,-0.52 -1.79,-3.1 -6.88,-4.65 -7.98,5.12 -26.05,18.03 -35.24,14.97l-33.45 -17.68 -17.3 -8.33 -0.04 58.72 12.37 6.85zm-99.96 -194.75c-4.06,5.98 -10.88,6.93 -10.88,25.48l0.03 187.85c-0.01,21.26 -4.78,56.99 15.52,60.09l25.95 -1.18c17.36,0.36 27.79,2.77 46.27,0.74 4.38,-0.48 13.93,0.44 18.67,0.84l22.78 -1.04c4.03,-0.68 1.22,-1.14 5.62,-2.72 6.45,-2.31 8.29,1.75 9.79,2.35 1.45,0.58 6.99,1.07 9.04,1.45 2.42,-2.62 0.81,-1.05 2.2,-4.67 9.13,-0.95 13.21,1.77 18.4,-2.04 -1.69,-5.66 -3.83,-4.62 -13.99,-4.43l-134.02 -0.47c-0.25,-0.34 -0.8,-1.22 -0.83,-0.94 -0.02,0.1 -0.91,-0.07 -0.27,-1.78l-5.74 -2.65 -2.48 -3.01c-4.65,-7.15 -2.45,-74.68 -2.45,-87.77l-0.03 -137.33c0.31,-19.22 13.16,-15.69 30.47,-15.69 30.61,-0.01 61.27,-0.16 91.87,-0.01 -2.3,-5.78 -7.44,-9.39 -10.56,-16.13l-87.9 -0.06c-13.81,0.02 -15.84,-0.47 -27.46,3.12zm121.93 -41.49l12.7 -1.1c-0.04,2.8 -0.39,5.68 0.31,8.2 0.16,0.57 4.12,4.35 0.63,15.11l-1.06 4.9c-2.95,-1.13 -3.2,-2.68 -7.11,-5.17 -0.18,-0.12 -0.45,-0.28 -0.63,-0.39 -0.19,-0.11 -0.47,-0.27 -0.65,-0.38 -0.06,-0.03 -3.18,-1.45 -3.69,-1.71 -0.65,-4.87 -1.72,-5.05 -1.17,-10.64l0.67 -8.82zm30.74 -59.41c-1.21,4.09 -1.54,1.02 0.01,2.54 0.27,-0.17 1.74,-2.65 5.6,-0.5 1.95,1.09 1.2,2.04 4.01,3.75 4.61,2.81 9.15,0.57 7.95,7.48 -0.35,2.04 -3.47,3.75 -5.7,4.4 -2.29,0.67 -5.04,0.79 -7.53,0.67l-9.84 -2.71c-8.54,-3.18 4.72,4.06 -2.98,-1.26 1.54,-8.94 1.99,1.36 2.68,-5.63 0.83,-8.34 -0.32,-2.5 -3.11,-2.74 -3.01,0.73 0.48,-0.64 -1.96,0.88l-6.89 6.22c-3.23,3.6 -5.38,5.6 -7.45,10.48 6.23,3.43 -0.7,-1.34 1.91,1.48 0.25,0.27 0.7,1 0.87,1.23 1.95,2.55 -0.2,1.44 3.83,3.25l-1.16 6.8 -7.49 -1.18c-1.53,-0.12 0.43,0.38 -2.15,0.05l0.15 -3.16c-3.42,3.18 -1.77,3.71 -4.07,7.59 -3.44,18.03 -3.43,30.36 3.48,46.34 2.9,6.68 6.36,11.17 10.28,16.05 2.8,3.5 10.83,9.88 11.59,14.03l4.43 7.33c1.29,3.38 1.7,5.42 2.15,8.94l20.44 -0.03c-1.54,-12.61 -5.04,-26.72 -7.62,-39.35 -1.52,-7.49 -11.51,-39.99 3.29,-28.78l0.71 -3.57c1.64,-0.26 2.91,-0.09 4.52,-1.14 2.86,-1.88 0.2,-4.41 8.18,-2.55l1.83 0.68c5.97,1 7.21,7.47 10.69,11.89 2.85,-1.77 4.08,-2.67 6.44,-4.73 3.03,-2.65 2.76,-3.41 8.14,-2.64 1.75,-9.22 0.57,-45.81 -0.03,-58.72l10.06 3.18c4.79,0.97 3.56,-0.75 3.95,-2.16 -2.43,-6.04 -25.17,-11.81 -32,-12.45 -8.83,-0.83 -34.02,2.2 -37.21,8.04zm246.72 357.28c-0.36,0.91 0.74,0.57 -1,1.27 7.61,-0.91 2,-0.76 4.17,2.5 -4.9,2.26 -6.1,1.28 -10.41,1.56 -2.63,0.17 -5.59,-1.87 -5.28,4.4 0.34,6.92 2.03,1.76 5.26,8.45l11.88 -0.44 7.45 -3.54c3.38,-8.12 7.98,-7.97 8.02,-23.2 -0.05,-69.93 -0.01,-139.86 0,-209.79 0.01,-14.24 1.52,-31.86 -13.92,-38.72 -9.13,-4.05 -137.78,-2.01 -153.42,-1.96 -2.39,4.95 -9.47,12.74 -10.32,16.06 33.62,1.15 69.23,0.09 103.08,0.08 65.37,-0.01 60.1,-8.08 60.12,43.21l0 154.88c0,8.42 -0.03,16.84 0,25.26 0.02,4.12 0.44,8.66 -0.4,12.58 -1.11,5.26 -2.78,6.12 -5.23,7.4zm-347.49 -174.12c1.12,6.55 0.34,2.09 2.02,5.99 1.01,2.36 0.63,2.61 0.56,5.36 11.93,7.13 65.9,32.51 70.15,37.15 5.91,1.66 10.57,5.89 15.5,7.4 6.4,1.96 28.91,-13.61 35.98,-17.79l7.58 -5.33c-2.81,-0.52 -2.84,-0.68 -6.08,-2.42 -2.34,-1.26 -3.97,-2.2 -6.39,-3.45 -2.45,-1.26 -11.22,-5 -11.96,-6.6l-39.65 -19.87c-3.71,-2.04 -9.22,-3.99 -11.9,-7.15 -10.56,-0.89 -13.26,-12.61 -28.41,-5.9 -6.44,2.86 -23.24,9.67 -27.4,12.61zm209.72 -6.84l3.33 1.89c0.38,-0.14 0.68,-0.26 1.06,-0.4 9.04,-3.19 4.32,-0.69 5.5,0.19 3.85,2.86 -1.18,-1.77 1.98,2.23 -1.89,4.27 -3.09,3.23 -6.59,5.48 0,6.16 1.78,4.6 -1.25,7.45l-7.9 3.54c0,4.96 0.98,9.22 -1.83,12.81l-4.39 0 -1.65 -4.06c-0.38,-1.41 -0.17,-2 -0.63,-3.7 -0.06,-0.25 -0.16,-0.55 -0.24,-0.78 -0.07,-0.24 -0.21,-0.53 -0.29,-0.75l-1.58 -3.89 -6.59 0c-2.17,6.81 2.04,2.6 -4.77,4.77l0 8.41c-5.49,0 -10.82,1.1 -14.82,-1.82 0.89,-5.77 -2.56,-3.82 4.4,-4.21 -3.26,0.43 -1.55,0.39 -2.38,-3.85l9.24 -4.03c-0.14,-0.4 -0.11,-0.98 -0.24,-1.23 -1.21,-2.31 -2.3,-1.91 -2.41,-1.95l0.15 0.29 -14.6 7.39 -11.18 6.21 2.56 2.47c-0.59,-0.29 1.14,-3.26 -1.98,0.57 -1.66,2.04 -1.76,4.82 -0.75,8.26 0.76,2.61 0.67,1.87 1.63,3.25 2.45,0 2.08,0.19 4.38,-0.54 5.47,-1.73 -0.28,3.67 2.21,-1.65 0,0.67 0.16,2.86 -0.09,3.31l-4.3 3.28c1.29,1.1 3.18,3.01 5.86,3.21l3.29 -1.38c0.71,7.3 0.91,2.95 2.96,3.92 9.58,4.5 -2.46,-4.02 3.35,1.22 6.95,6.26 3.38,2.38 8.69,5.1l18.68 -9.69 6.11 -3.65 45.89 -23.26 -1.1 -0.75c-0.98,-2.3 0.29,-4.6 1.02,-6.81l0.77 -2.22c0.67,-2.52 0.62,-1.74 0.6,-4.96l6.95 -0.44c-3.25,-8.23 -1.24,-2.39 0.25,-4.7 -7.92,-3.84 -16.55,-7.52 -24.83,-11.04 -9.79,-4.17 -16.09,2.8 -24.47,6.51zm14.63 148.89c-2.62,3.59 0.43,2.66 -6.05,2.17 -3.77,-6.6 -2.04,-17.82 -2.11,-26.09 -3.66,3.27 -2.83,7.78 -2.83,12.4l-3.86 0c-0.27,8.88 -3.88,12.76 -11.84,14.82l-0.3 5.49c1.1,1.98 1.09,2.47 2.34,4.22l3.62 4.57c-1.69,4.43 -3.01,5.96 -1.41,10.99 5.31,0.89 -0.54,0.26 2.8,-0.59l17.14 0.1c0,-9.11 -0.13,-2.21 1.95,-5 0.25,0.3 0.55,0.37 0.68,0.95 0.12,0.55 0.49,0.66 0.65,0.91 0.02,0.04 1.48,2.45 1.49,2.47 4.26,7.92 0.35,2.57 5.96,7.71 2.22,2.04 6.89,6.37 7.69,9 1.13,3.74 0.39,8.68 0.37,12.76 8.66,0.39 7.38,-0.64 8.78,2.44 -0.68,1.77 -0.93,4.18 -8.12,2.89 -6.92,-1.24 -1.45,-0.1 -7.13,-3.56l-1.15 4.27 6.67 4.59 11.96 -2.37c4.58,6.12 6.76,5.21 16.4,5.61l6.28 -5.89c11,2.91 19.26,2.35 21.56,-9.35 10.43,0.44 14.66,-2.67 16.8,-11.56 0.78,-6.36 -1.71,-4.86 2.51,-5.06l5.32 -4.28c-2.54,-2.02 -0.73,2.17 -2,-2.74l-1.27 2.05c-0.24,0.29 -0.41,0.56 -0.69,0.85 -1.95,2 -4.6,2.56 -8.22,2.58 -1.68,4.34 -1.07,9.85 -2.48,13.96 -0.68,0.31 -7.2,1.1 -9.15,1.42 0.14,-3.85 0.09,-7.28 0.07,-11.09 -0.02,-2.01 -0.05,-3.52 0.33,-5.33l0.52 -1.66c0.08,-0.24 0.22,-0.51 0.29,-0.75 1.63,-5.57 -0.58,-7.54 1.02,-12.5 0.18,-0.57 1.44,-3.13 1.89,-3.9l-2.04 -4.37c-3.21,18.43 -24.03,34.58 -47.32,27.28 -9.75,-3.06 -17.28,-10.06 -21.04,-17.38 -3.95,-7.69 -7.26,-22.66 -1.97,-30.72l2.49 -7.88c-0.01,-4.12 0.99,-10.08 6.02,-10.67l-1.1 -3.4c-0.34,-0.11 -0.79,-0.13 -1.06,-0.16 -0.26,-0.03 -0.7,-0.11 -1.01,-0.14l-3.45 -0.12c-2.45,0.04 -2.57,-0.33 -5.45,0.42 0.11,6.6 3.2,23.58 -0.55,29.64zm92.08 3.36c-2.73,0.76 -0.97,0.8 -3.85,0.77 -11.26,-0.14 -3.44,-19.96 4.87,-9.6 2.76,3.45 1.7,3 1.75,6.57 -3.36,-2.71 -2.19,-0.41 -3.54,-6.52 -0.57,5.47 0.65,3.82 0.77,8.78zm-84.09 -54.31l2.85 2.63c0.23,0.22 0.57,0.47 0.74,0.58l1.44 0.92c0.17,0.08 0.48,0.21 0.66,0.27l13.69 0.32c0.34,-4.52 0.93,-1.07 -0.46,-5.96l9.34 -0.94c2.12,-1.87 2.37,-1.21 4.83,-1.34l2.09 11.64c2.29,1.21 0.45,-0.11 2.59,0.58 0.25,0.09 0.61,0.21 0.86,0.29l2.88 1.33c-1.17,3.72 -0.85,4.53 -3.95,5.91 -3.61,1.62 -19.98,1.14 -23.03,1.78 2.65,3.09 -4.08,5.03 4.68,1.89l3 0.32c6.44,-2.09 15.23,-1.17 21.77,1.37l4.6 2.87 2.02 -0.08c5.03,-1.65 7.42,-2.96 13.64,-1.26 6.31,1.73 5.38,2.69 6.92,8.07 -3.64,4.13 -3.43,5.26 -7.54,7.67 2.17,7.91 3.16,6.99 3.87,16.39l-1.04 8.83c5.57,8.12 5.52,5.47 5.71,10.37 1.59,0 9.03,0.18 9.97,-0.15 3.36,-1.18 0.82,-4.8 3.79,-8.64 0.09,0.24 0.24,0.36 0.31,0.72l0.81 1.39c0.15,0.19 0.35,0.48 0.52,0.68l3 2.52 -0.82 -3.07c10.09,-10.54 6.96,-13.71 -0.04,-23.53 6.59,-14.58 -2.68,-18.25 -9.06,-21.97 -0.38,-13.45 -4.91,-11.74 -7.91,-15.61l-8.78 -0.87c-5.59,-10.51 -8.97,-13.56 -22.3,-8.89 -8.82,-9.17 -17.95,-7.46 -22.43,0.3 -7.19,-2.77 -14.07,-4.26 -19.22,2.67zm-43.94 88.78l2.58 6.51c-1.68,1.57 -2.74,2.49 -4.53,4.66 -8.12,0.67 -20.32,0.55 -28.56,0.15 -24.65,-1.21 -12.2,-6.29 -20.87,-0.81 -1.79,-1.13 -1.66,-2.3 -4.39,-2.3 -6.55,0 -1.14,-0.23 -4,1.5 -7.7,4.64 -14.53,1.5 -16.77,-6.79 14.99,-0.93 17.34,-0.18 33,-2.59l30.6 -0.09 12.94 -0.24zm-235.63 11.28c2.41,2.12 2.78,1.72 6.32,2.27l241.96 0.02c-0.76,-6.94 -1.4,-3.97 -5.28,-7.99 -1.84,-1.91 -3.82,-5.1 -4.95,-8.16l-228.44 -0.03c-0.64,1.71 0.25,1.88 0.27,1.78 0.03,-0.28 0.58,0.6 0.83,0.94l134.02 0.47c10.16,-0.19 12.3,-1.23 13.99,4.43 -5.19,3.81 -9.27,1.09 -18.4,2.04 -1.39,3.62 0.22,2.05 -2.2,4.67 -2.05,-0.38 -7.59,-0.87 -9.04,-1.45 -1.5,-0.6 -3.34,-4.66 -9.79,-2.35 -4.4,1.58 -1.59,2.04 -5.62,2.72l-22.78 1.04c-4.74,-0.4 -14.29,-1.32 -18.67,-0.84 -18.48,2.03 -28.91,-0.38 -46.27,-0.74l-25.95 1.18zm323.75 32.02l-1.83 1.8c0.14,6.35 0.59,1.92 1.61,3.85 8.35,-2.24 1.06,-4.12 6.82,-1.1 0.33,4.16 -0.17,9.28 1.26,12.83l2.95 3.98c2.23,1.66 2.54,0.53 4.7,1.87 0.06,2.17 0.35,5.71 0.22,7.74 -0.49,7.19 -0.39,0.72 -2.85,5.01 -1.28,2.25 -0.93,3.26 1.06,6.14 2.75,3.96 2.03,-1.91 3.2,6.24 3.8,-7.11 1.72,-3.99 4.04,-4.85 2.85,-4.08 3.38,-14.19 7.38,-19.06 5.76,-0.64 10.55,3.23 15.25,6.11 3.16,-2.52 1.04,-2.57 5.2,-3.39 2.71,-0.53 1.29,0.16 4.48,1.18 -1.34,-7.72 -0.52,-1.09 1.59,-4.02l0.13 -0.6 -1.14 -1.49c-0.17,-0.26 -0.78,-1.21 -0.96,-1.52 -0.19,-0.34 -0.94,-1.99 -1.08,-2.32 -0.92,-2.05 -1.42,-3.38 -2.25,-5.41 -1.59,-3.88 -3.17,-7.53 -4.49,-11.51 -4.63,1.73 -1.69,1.47 -4.64,0.87 -1.31,-4.01 -0.53,-3.23 -1.29,-7.3l-0.96 4.6 -8.59 0.19c-4.35,-1.21 -2.37,-0.27 -3.71,-2.98 0.41,-1.93 -0.28,-0.62 1.41,-3.07 0.15,-0.22 1.19,-1.13 1.5,-1.32l0.28 -2.81c-4.69,1.98 -2.56,1.62 -5.76,4.35 -1.5,1.28 -3.73,2.53 -6.26,3.66 -5.15,2.3 -10.84,2.48 -17.27,2.33zm-120.52 -344.23c0.05,0.24 0.18,0.35 0.2,0.69 0.03,0.51 0.29,1.22 0.33,1.5 0.56,4.54 -2.07,16.09 -3.31,20.37 0.66,0.3 5.62,-1.48 0.28,6.58 7.95,-1.24 1.48,-0.28 7.66,1.01l0.13 15.38c7.82,0.19 2.96,0.35 4.29,6.02l4.39 -3.73c-0.47,-0.65 -2.23,-1.62 -2.56,-3.37 -1.27,-6.69 -0.75,3.41 -0.04,-1.81 0.04,-0.3 0.16,-0.6 0.24,-0.89 2.83,-10.27 1.81,1.01 2.55,-14.8l-0.55 -19.04c4.48,-0.34 4.11,-2.19 5.92,-4.59l0.16 -3.71c4.23,0.68 5.22,2.73 8.56,-1.16 -10.87,0.43 -13.12,-10.68 -15,-19.84 -1.32,-0.54 -4.6,-0.12 -3.78,-5.44 0.03,-0.17 0.06,-0.51 0.11,-0.72l1.13 -3.39c0.11,-0.81 0.42,-0.91 0.56,-1.31l-3.18 -0.48c1.05,-0.58 1.35,-0.81 1.87,-1.16l3.51 -2.87c-0.15,-0.18 -0.5,-0.3 -0.61,-0.38l-1.72 -1.29c-1.29,-1.39 -1.69,-2.03 -2.01,-7.12 2.29,-1.1 3.1,-0.34 4.58,-3.64 2.52,-5.62 -0.76,0.8 0.35,-4.81l4.58 0.08c-1.28,-1.98 0.09,-0.85 -1.78,-2.26 -2.31,-1.74 0.32,0 -2.88,-1.52 -0.39,1.41 0.84,3.13 -3.95,2.16l-10.06 -3.18c0.6,12.91 1.78,49.5 0.03,58.72zm48.47 346.73l-2.11 7.51c-0.85,3.36 -0.75,5.18 -1.63,7.72 0.92,-0.29 2.71,0.43 3.29,2.39l3.3 -7.55 25.26 -0.32c-0.18,14.75 1.84,23.43 0.27,31.8 -1.12,6.02 -0.4,2.64 -3.09,4.18 0.78,2.88 -1.11,0.05 1.24,1.89 0.32,0.24 2.65,0.94 3.01,1.03 4.2,-7.79 7.25,-15.75 10.58,-23.65 2.97,-7.07 8.08,-16.95 9.89,-24.05 -7.65,-5.57 -17,-1.65 -20.8,-5.21 -5.72,-1.73 -6.85,-2.54 -10.34,-6.41 -4.21,-4.67 -6.21,-3.12 -9.19,-6.47l-2.86 -0.35c-2.28,3.43 -6.61,13.35 -6.82,17.49zm-42.74 -253.75l1.31 -14.89 -62.4 0.11 1.53 14.52 59.56 0.26zm22.43 -94.15c3.09,0.56 0.7,0.02 2.62,1.83 0.22,0.21 0.8,0.92 1,1.12 1.13,1.14 -1.22,0.35 1.52,1.45l0 2.4c-3.38,1.79 -1.64,2.01 -2.85,8.91 -9.38,-0.34 4.68,-4.26 -9.69,-4.26l-1.23 -6.96c-1.81,2.4 -1.44,4.25 -5.92,4.59l0.55 19.04c15.27,0 9.4,-1.02 16.28,4.39l2.26 -1.09c8.95,-5.7 13.47,-43.19 6.25,-53.07l-1.6 0.3c-0.07,-0.01 -0.35,-0.17 -0.43,-0.19 -5.38,-1.86 2.33,0.48 -4.28,-0.16 -1.83,-4.29 0.53,-1.78 -3.92,-1.97 2.08,9.74 3.12,15.41 -0.56,23.67zm17.75 292.84c1.84,6.73 3.43,7.97 10.11,10.42l2.16 9.85c3.11,5.27 7.15,7.11 15.45,6.67 1.04,4.27 1.35,4.46 3.39,7.41l1.15 -4.27c5.68,3.46 0.21,2.32 7.13,3.56 7.19,1.29 7.44,-1.12 8.12,-2.89 -1.4,-3.08 -0.12,-2.05 -8.78,-2.44 0.02,-4.08 0.76,-9.02 -0.37,-12.76 -0.8,-2.63 -5.47,-6.96 -7.69,-9 -5.61,-5.14 -1.7,0.21 -5.96,-7.71 -0.01,-0.02 -1.47,-2.43 -1.49,-2.47 -0.16,-0.25 -0.53,-0.36 -0.65,-0.91 -0.13,-0.58 -0.43,-0.65 -0.68,-0.95 -2.08,2.79 -1.95,-4.11 -1.95,5l-17.14 -0.1c-3.34,0.85 2.51,1.48 -2.8,0.59zm33.28 -76.89c0.41,8.66 -0.05,9.41 -4.58,13.98 -0.28,-4.04 4.19,-11.37 -0.18,-12.89l0.39 0.05c-2.12,8.47 0.7,14.73 -11.42,14.87l4.88 1.04 -1.66 2.36 0.15 2.71c1.56,1.25 0.59,-3.74 1.79,3.14l-0.21 23.06c3.75,-6.06 0.66,-23.04 0.55,-29.64 2.88,-0.75 3,-0.38 5.45,-0.42l3.45 0.12c0.31,0.03 0.75,0.11 1.01,0.14 0.27,0.03 0.72,0.05 1.06,0.16l1.1 3.4 0.01 -1.93 9.4 -0.92c2.15,-0.08 1.31,0.34 2.94,-0.36 1.7,-0.73 1.36,-0.85 2.23,-1.6 -8.76,3.14 -2.03,1.2 -4.68,-1.89 3.05,-0.64 19.42,-0.16 23.03,-1.78 3.1,-1.38 2.78,-2.19 3.95,-5.91l-2.88 -1.33c-0.25,-0.08 -0.61,-0.2 -0.86,-0.29 -2.14,-0.69 -0.3,0.63 -2.59,-0.58l-2.09 -11.64c-2.46,0.13 -2.71,-0.53 -4.83,1.34l-9.34 0.94c1.39,4.89 0.8,1.44 0.46,5.96l-13.69 -0.32c-0.18,-0.06 -0.49,-0.19 -0.66,-0.27l-1.44 -0.92c-0.17,-0.11 -0.51,-0.36 -0.74,-0.58zm-59.73 86.39l-30.6 0.09c-15.66,2.41 -18.01,1.66 -33,2.59 2.24,8.29 9.07,11.43 16.77,6.79 2.86,-1.73 -2.55,-1.5 4,-1.5 2.73,0 2.6,1.17 4.39,2.3 8.67,-5.48 -3.78,-0.4 20.87,0.81 8.24,0.4 20.44,0.52 28.56,-0.15 1.79,-2.17 2.85,-3.09 4.53,-4.66l-2.58 -6.51 -12.94 0.24zm21.16 60.8l-2.36 7.68c0.2,0.3 1.02,1.36 1.18,1.53l1.99 1.76c0.92,-3.34 0.39,-2.99 4.31,-3.28l-3.19 6.41c-5.24,1.43 -1.05,-0.38 -1.27,-0.52l0.15 3.31c4.64,-3.06 17.62,-10.49 23.68,-10.52l4.97 16.69c2.19,3.38 0.11,3.97 3.68,7.43 2.69,-1.54 1.97,1.84 3.09,-4.18 1.57,-8.37 -0.45,-17.05 -0.27,-31.8l-25.26 0.32 -3.3 7.55c-0.58,-1.96 -2.37,-2.68 -3.29,-2.39 0.88,-2.54 0.78,-4.36 1.63,-7.72l2.11 -7.51c-2.8,2.57 -2.84,4.45 -4.36,8.08 -1.04,2.47 -2.37,6.2 -3.49,7.16zm-82.05 -235.28c4.03,2.28 30.57,1.25 34.75,1.03 2.8,-0.97 2.92,-1.03 5.71,-2.5 -1.9,-1.49 -8.95,-1.58 -11.39,-1.72 -0.57,-6.91 -1.34,-5.62 5.28,-5.65l-3.3 -1.74 0 -4.69c3.26,-1.15 2.02,0.98 1.76,-2.55 -0.01,-0.21 -1.23,-2.31 -1.65,-3.91 6.45,-1.33 1.69,-2.37 9.96,-1.19 -2.7,-2.22 3.25,-1.54 -5.57,-2.16 -8.92,-0.63 -7.61,7.18 -7.59,9.36l-15.18 0.37 -0.21 -7.5c-3.17,-1.16 -14.53,-0.78 -19.77,-1.1 0.13,0.35 0.79,2.07 0.9,2.47 0.12,0.44 0.23,0.71 0.33,1.16 0.1,0.42 0.14,0.7 0.21,1.08 0.24,1.33 0.17,1.51 0.02,2.98l2.04 0.87c0.28,0.16 0.6,0.31 0.89,0.48l3.25 2.98c2.23,3.01 1.3,1.95 1.69,8.66 1.85,-0.28 11.07,-1.29 9.13,1.38 -0.99,1.37 -8.1,1.05 -11.26,1.89zm7.15 52.32c5.09,1.55 -0.19,4.13 6.88,4.65l0 15.37c5.03,0 10.07,-0.06 15.1,0.05 8.91,0.19 6.46,-0.36 8.58,-2.86 0.39,-0.47 -0.03,-3.73 6.72,-1.84l3.71 1.69c3.36,1.37 3.58,1.34 7.94,1.27 18.17,-0.31 7.75,0.82 13.6,1.33 1.22,-3.56 4.14,-6.41 1.02,-7.67 -14.66,0.67 -2.33,12.11 -33.61,-6.24 -23.91,-14.03 -17.92,-12.62 -29.94,-5.75zm83.08 -62.04l-0.77 3.34 6.58 -2.14c-1.5,8.44 -3.34,6.79 -4.91,10.88l-8.27 0.26 -1.19 -5.69c-1.18,-4.08 2.26,2.7 -1,-2.35l-17.57 9.04c0.11,0.04 1.2,-0.36 2.41,1.95 0.13,0.25 0.1,0.83 0.24,1.23l-9.24 4.03c0.83,4.24 -0.88,4.28 2.38,3.85 -6.96,0.39 -3.51,-1.56 -4.4,4.21 4,2.92 9.33,1.82 14.82,1.82l0 -8.41c6.81,-2.17 2.6,2.04 4.77,-4.77l6.59 0 1.58 3.89c0.08,0.22 0.22,0.51 0.29,0.75 0.08,0.23 0.18,0.53 0.24,0.78 0.46,1.7 0.25,2.29 0.63,3.7l1.65 4.06 4.39 0c2.81,-3.59 1.83,-7.85 1.83,-12.81l7.9 -3.54c3.03,-2.85 1.25,-1.29 1.25,-7.45 3.5,-2.25 4.7,-1.21 6.59,-5.48 -3.16,-4 1.87,0.63 -1.98,-2.23 -1.18,-0.88 3.54,-3.38 -5.5,-0.19 -0.38,0.14 -0.68,0.26 -1.06,0.4l-3.33 -1.89 -4.92 2.76zm-54.47 -64.63c0.35,0.21 0.83,0.11 1.02,0.68l2.96 2.82c2.35,2.61 -1.62,2.72 7.36,2.72 0.09,4.23 5.33,9.49 -12.36,8.75 0.26,-2.14 0.07,-3.04 0.13,-4.07l0.89 -10.9zm15.94 8.49c1.32,-4.25 1.67,-4.23 3.84,-7.37 0.96,-1.39 1.28,-2.24 2.18,-3.28 2.28,-2.69 0.94,-1.35 3.52,-2.72l1.24 -3.01c-0.86,-2.78 -0.02,-1.09 -2.68,-2.12 -0.95,1.89 -2.07,4.06 -4.4,5.49l-4.39 3.73c-1.33,-5.67 3.53,-5.83 -4.29,-6.02l-0.13 -15.38c-6.18,-1.29 0.29,-2.25 -7.66,-1.01 5.34,-8.06 0.38,-6.28 -0.28,-6.58l-9.25 47.63 19.81 0.02 2.49 -9.38zm154.25 236.88c3.57,-5.52 3.94,-5.62 3.36,-13.73l-0.98 -0.86 -3 -2.52c-0.17,-0.2 -0.37,-0.49 -0.52,-0.68l-0.81 -1.39c-0.07,-0.36 -0.22,-0.48 -0.31,-0.72 -2.97,3.84 -0.43,7.46 -3.79,8.64 -0.94,0.33 -8.38,0.15 -9.97,0.15 -0.19,-4.9 -0.14,-2.25 -5.71,-10.37l2.04 4.37c-0.45,0.77 -1.71,3.33 -1.89,3.9 -1.6,4.96 0.61,6.93 -1.02,12.5 -0.07,0.24 -0.21,0.51 -0.29,0.75l-0.52 1.66c-0.38,1.81 -0.35,3.32 -0.33,5.33 0.02,3.81 0.07,7.24 -0.07,11.09 1.95,-0.32 8.47,-1.11 9.15,-1.42 1.41,-4.11 0.8,-9.62 2.48,-13.96 3.62,-0.02 6.27,-0.58 8.22,-2.58 0.28,-0.29 0.45,-0.56 0.69,-0.85l1.27 -2.05c1.27,4.91 -0.54,0.72 2,2.74zm-209.22 -170.26l3.27 -0.76c3.16,-0.84 10.27,-0.52 11.26,-1.89 1.94,-2.67 -7.28,-1.66 -9.13,-1.38 -0.39,-6.71 0.54,-5.65 -1.69,-8.66l-3.25 -2.98c-0.29,-0.17 -0.61,-0.32 -0.89,-0.48l-2.04 -0.87c0.15,-1.47 0.22,-1.65 -0.02,-2.98 -0.07,-0.38 -0.11,-0.66 -0.21,-1.08 -0.1,-0.45 -0.21,-0.72 -0.33,-1.16 -0.11,-0.4 -0.77,-2.12 -0.9,-2.47 5.24,0.32 16.6,-0.06 19.77,1.1l0.21 7.5 15.18 -0.37c-0.02,-2.18 -1.33,-9.99 7.59,-9.36 8.82,0.62 2.87,-0.06 5.57,2.16 0.04,7.67 0.93,10.73 -2.19,17.64l1.53 3.81c1.35,-2.59 2.79,-4.02 3.42,-7.55 0.78,-4.41 -0.04,-7.23 1.97,-10.51l-0.28 -5.72 -1.16 -0.6 -54.94 0.04c-0.27,4.99 0.6,9.96 1.33,14.88 1.27,8.58 2.8,6.27 5.93,11.69zm57.95 -148.84c-0.2,-6.79 -0.68,-9.48 3.71,-14.02 8.17,0.37 8.79,7.08 11.76,10.57 4.45,0.19 2.09,-2.32 3.92,1.97 6.61,0.64 -1.1,-1.7 4.28,0.16 0.08,0.02 0.36,0.18 0.43,0.19l1.6 -0.3c0.4,-5.29 -3.26,-10.77 -5.95,-15.39 -1.73,-2.95 -2.22,-3.73 -4.42,-6.58 -2.05,-2.65 -3.28,-3.45 -5.19,-5.8 -1.49,-0.96 -1.88,-1.59 -2.39,-1.96 -2.11,-1.5 -0.32,-0.83 -2.36,-1.37l-4.58 -0.08c-1.11,5.61 2.17,-0.81 -0.35,4.81 -1.48,3.3 -2.29,2.54 -4.58,3.64 0.32,5.09 0.72,5.73 2.01,7.12l1.72 1.29c0.11,0.08 0.46,0.2 0.61,0.38l-3.51 2.87c-0.52,0.35 -0.82,0.58 -1.87,1.16l3.18 0.48c-0.14,0.4 -0.45,0.5 -0.56,1.31l-1.13 3.39c-0.05,0.21 -0.08,0.55 -0.11,0.72 -0.82,5.32 2.46,4.9 3.78,5.44zm-43.04 81.3c4.62,-0.01 -0.43,1.67 0.38,-13.18l2.88 1.41c2.47,1.11 -0.89,0.56 2.07,0.78 0,-1.92 0.16,-3.98 -0.2,-5.81l-1.45 -6.82c4.7,-0.05 3.08,-1.14 5.57,-1.39 5.47,-0.55 1.37,4.44 6.2,7.42l5.32 -28.25c-2.89,1.41 -4.02,3.21 -8.22,3.72l0.83 6.94c-4.65,2.9 -4.25,2.31 -4.25,8.17 -6.56,-0.05 -5.15,0.75 -6.04,1.01 -8.71,2.55 -7.87,-5.75 -5.11,-11l8.14 -2.05c7.26,-0.89 4.16,-0.76 5.3,-4.02l-5.76 -9.07c-1.52,2.86 -3.75,8.08 -5.88,9.35 -3.41,2.04 -6.08,-1.66 -8.73,-3.19l8.95 45.98zm6.44 93.36c2.84,5.39 16.45,11.33 21.68,14.55 16.3,10.02 15.56,10.91 25.52,7.4 -5.31,-2.72 -1.74,1.16 -8.69,-5.1 -5.81,-5.24 6.23,3.28 -3.35,-1.22 -2.05,-0.97 -2.25,3.38 -2.96,-3.92l-3.29 1.38c-2.68,-0.2 -4.57,-2.11 -5.86,-3.21l4.3 -3.28c0.25,-0.45 0.09,-2.64 0.09,-3.31 -2.49,5.32 3.26,-0.08 -2.21,1.65 -2.3,0.73 -1.93,0.54 -4.38,0.54 -0.96,-1.38 -0.87,-0.64 -1.63,-3.25 -1.01,-3.44 -0.91,-6.22 0.75,-8.26 3.12,-3.83 1.39,-0.86 1.98,-0.57l-2.56 -2.47c-5.26,2.27 -14.54,8.91 -19.39,9.07zm155.67 237.25l1.04 2.95c5.74,2.27 7.26,1.07 8.34,-5.73 -2.32,0.86 -0.24,-2.26 -4.04,4.85 -1.17,-8.15 -0.45,-2.28 -3.2,-6.24 -1.99,-2.88 -2.34,-3.89 -1.06,-6.14 2.46,-4.29 2.36,2.18 2.85,-5.01 0.13,-2.03 -0.16,-5.57 -0.22,-7.74 -2.16,-1.34 -2.47,-0.21 -4.7,-1.87l-2.95 -3.98c-1.43,-3.55 -0.93,-8.67 -1.26,-12.83 -5.76,-3.02 1.53,-1.14 -6.82,1.1 -1.02,-1.93 -1.47,2.5 -1.61,-3.85l-4.01 1.79 17.64 42.7zm-162.11 -330.61l1.72 10.3 8.23 -0.02 5.5 -27.87c-4.83,-2.98 -0.73,-7.97 -6.2,-7.42 -2.49,0.25 -0.87,1.34 -5.57,1.39l1.45 6.82c0.36,1.83 0.2,3.89 0.2,5.81 -2.96,-0.22 0.4,0.33 -2.07,-0.78l-2.88 -1.41c-0.81,14.85 4.24,13.17 -0.38,13.18zm-13.72 202.25c5.95,4.24 1.18,-11.95 3.54,-16.92 2.4,-5.05 1.47,-0.74 4.58,-4.6 15.58,4.01 3.2,18.08 9.82,22.51 3.54,-3.01 0.63,-9.13 1.53,-15.3 0.49,-3.41 0.18,-1.4 0.73,-2.55 0.03,-3.04 0.22,-4.36 5.26,-3.96 9.99,0.81 3.46,16.34 6.53,22.61 2.86,-0.88 1.97,1.6 2.84,-4.02 0.3,-1.92 -0.14,-15.16 -1.37,-17.91 -1.13,-2.53 -3.62,-4.28 -6.98,-4.61 -5.34,-0.52 -6.43,1.68 -8.85,1.89 -4.33,0.38 -20.64,-13.19 -17.63,22.86zm-29.45 -257.76c-0.7,-2.52 -0.35,-5.4 -0.31,-8.2l-12.7 1.1 -0.67 8.82c-0.55,5.59 0.52,5.77 1.17,10.64 0.51,0.26 3.63,1.68 3.69,1.71 0.18,0.11 0.46,0.27 0.65,0.38 0.18,0.11 0.45,0.27 0.63,0.39 3.91,2.49 4.16,4.04 7.11,5.17l1.06 -4.9c3.49,-10.76 -0.47,-14.54 -0.63,-15.11zm8.82 -60.51c2.79,0.24 3.94,-5.6 3.11,2.74 -0.69,6.99 -1.14,-3.31 -2.68,5.63 7.7,5.32 -5.56,-1.92 2.98,1.26l9.84 2.71c2.49,0.12 5.24,0 7.53,-0.67 2.23,-0.65 5.35,-2.36 5.7,-4.4 1.2,-6.91 -3.34,-4.67 -7.95,-7.48 -2.81,-1.71 -2.06,-2.66 -4.01,-3.75 -3.86,-2.15 -5.33,0.33 -5.6,0.5 -1.55,-1.52 -1.22,1.55 -0.01,-2.54 -2.41,0.87 -3.34,1.11 -5.36,2.44 -0.05,0.03 -1.74,1.43 -1.87,1.55 -1.2,1.19 -0.67,0.65 -1.68,2.01zm22.73 293.12c-3.65,3.37 -7.41,17.14 -3.93,25.1l1.83 0.05c-3.01,-36.05 13.3,-22.48 17.63,-22.86 2.42,-0.21 3.51,-2.41 8.85,-1.89 3.36,0.33 5.85,2.08 6.98,4.61 1.23,2.75 1.67,15.99 1.37,17.91 -0.87,5.62 0.02,3.14 -2.84,4.02 -3.07,-6.27 3.46,-21.8 -6.53,-22.61 -5.04,-0.4 -5.23,0.92 -5.26,3.96 -1.46,4.38 -1.45,4.27 -0.87,9.02 0.08,0.71 0.55,4.08 0.61,4.45l0.71 3.31c0.12,0.4 0.33,0.74 0.45,1.06 0.11,0.33 0.28,0.74 0.51,1.06 0.5,-5.66 -0.07,-11.25 0.29,-16.5 0.42,-6.07 4.9,-4.92 6.51,-1.74 3.91,7.69 -5.67,22.82 8.41,19.75 0.1,-6.41 1.74,-20.57 -2.12,-25.93l-4.79 -4.01c-6.42,-3.17 -8.69,1.17 -13.7,0.52 -6.39,-0.82 -7.87,-2.52 -14.11,0.72zm39.14 24.37l1.14 -3.3 7.74 -1.59c1.2,-5.53 0.33,-7.31 0.88,-12.02 0.4,-3.43 1.67,-5 3.23,-7.4 0.07,-0.11 0.26,-0.37 0.39,-0.57 -2.53,-2.61 -7.43,-1.59 -14.35,-1.59 0,9.44 -2.1,5.72 -2.98,11.81 -0.88,6.14 0.15,2.65 1.08,7.61 0.51,2.66 0.44,3.5 0.5,6.07l2.37 0.98zm16.24 -213.56c2.33,-1.43 3.45,-3.6 4.4,-5.49 2.66,1.03 1.82,-0.66 2.68,2.12 4.42,-2.36 9.51,-8.38 11.65,-14.2l-2.26 1.09c-6.88,-5.41 -1.01,-4.39 -16.28,-4.39 -0.74,15.81 0.28,4.53 -2.55,14.8 -0.08,0.29 -0.2,0.59 -0.24,0.89 -0.71,5.22 -1.23,-4.88 0.04,1.81 0.33,1.75 2.09,2.72 2.56,3.37zm-75.41 187.24c2.78,3.19 6.32,5.15 7.9,9.84 1.53,4.54 0.8,11.27 0.56,16.2l0.19 1.33 6.07 2.04c2.76,0.02 2,0.57 1.38,-2.36 -3.48,-7.96 0.28,-21.73 3.93,-25.1 -5.69,-4.84 -12.47,-0.07 -20.03,-1.95zm154.87 -97.19l10.22 -4.43c4.53,-2.59 8.33,-3 9.97,-7.63 -2.19,-5.68 -4.39,-2.64 -8.24,-7.04l-2.36 -0.03c-1.49,2.31 -3.5,-3.53 -0.25,4.7l-6.95 0.44c0.02,3.22 0.07,2.44 -0.6,4.96l-0.77 2.22c-0.73,2.21 -2,4.51 -1.02,6.81zm-94.4 -12.65l-1.53 -3.81c3.12,-6.91 2.23,-9.97 2.19,-17.64 -8.27,-1.18 -3.51,-0.14 -9.96,1.19 0.42,1.6 1.64,3.7 1.65,3.91 0.26,3.53 1.5,1.4 -1.76,2.55l0 4.69 3.3 1.74c-6.62,0.03 -5.85,-1.26 -5.28,5.65 2.44,0.14 9.49,0.23 11.39,1.72zm-16.27 -107.43l-1.13 -0.95c-1.14,3.26 1.96,3.13 -5.3,4.02l-8.14 2.05c-2.76,5.25 -3.6,13.55 5.11,11 0.89,-0.26 -0.52,-1.06 6.04,-1.01 0,-5.86 -0.4,-5.27 4.25,-8.17l-0.83 -6.94zm193.17 284.52c-3.34,6.61 -6.7,4.69 -7.91,12.15l17.07 0.03 11.02 -1.58 -11.88 0.44c-3.23,-6.69 -4.92,-1.53 -5.26,-8.45 -0.31,-6.27 2.65,-4.23 5.28,-4.4 4.31,-0.28 5.51,0.7 10.41,-1.56 -2.17,-3.26 3.44,-3.41 -4.17,-2.5 -4.73,2.5 -6.22,1.89 -11.74,2.09l-2.82 3.78zm-122.47 -67.05l0.05 1.5 -0.03 6.49 -6.82 0.08 -1.35 -0.04 0.85 3.24 0.87 2.98c0.46,-0.21 -0.17,-2.81 3.9,-1.37 1.89,0.67 1.88,1.72 2.57,3.44l3.86 0c0,-4.62 -0.83,-9.13 2.83,-12.4l1.56 -3.99 4.87 -1 1.66 -2.36 -4.88 -1.04c-3.61,-0.06 -4.49,-0.23 -6.95,-1.14l0.02 3.8c-0.99,2.85 0.21,1.83 -3.01,1.81zm-96.97 26.9l-1.83 -0.05c0.62,2.93 1.38,2.38 -1.38,2.36l4.67 2.03 3.75 -2.29c1.28,-8.02 -1.17,-11.46 1.73,-19.9 3.57,-0.63 2.92,-0.56 5.87,0.96 2.97,12.53 -4.26,23.75 8.8,18.93 -0.23,-0.32 -0.4,-0.73 -0.51,-1.06 -0.12,-0.32 -0.33,-0.66 -0.45,-1.06l-0.71 -3.31c-0.06,-0.37 -0.53,-3.74 -0.61,-4.45 -0.58,-4.75 -0.59,-4.64 0.87,-9.02 -0.55,1.15 -0.24,-0.86 -0.73,2.55 -0.9,6.17 2.01,12.29 -1.53,15.3 -6.62,-4.43 5.76,-18.5 -9.82,-22.51 -3.11,3.86 -2.18,-0.45 -4.58,4.6 -2.36,4.97 2.41,21.16 -3.54,16.92zm-35.37 -13.85l2.84 0.91c2.04,-3.64 0.83,-4.09 3.87,-6.35 2.68,-2 5.57,-2.37 8.51,-1.08 5.53,2.41 5.19,9.13 4.9,16.4l3.67 1.83c-0.18,-9.98 1.11,-18.27 -6.91,-21.92 -5.05,-2.29 -10.92,-0.68 -14.56,3.63 -2.19,2.61 -1.93,3.42 -2.32,6.58zm145.65 -11.41c-1.67,6.16 1.34,22.91 -2.27,26.63 -3.01,-2.01 -2.05,1.38 -2,-12.5 0.02,-4.82 -0.17,-8.78 0.51,-13.49l3.76 -0.64zm-6.58 2.28c0.07,8.27 -1.66,19.49 2.11,26.09 6.48,0.49 3.43,1.42 6.05,-2.17l0.21 -23.06c-1.2,-6.88 -0.23,-1.89 -1.79,-3.14l-0.15 -2.71 -4.87 1 -1.56 3.99zm-40.66 -235.86l1.23 6.96c14.37,0 0.31,3.92 9.69,4.26 1.21,-6.9 -0.53,-7.12 2.85,-8.91l0 -2.4c-2.74,-1.1 -0.39,-0.31 -1.52,-1.45 -0.2,-0.2 -0.78,-0.91 -1,-1.12 -1.92,-1.81 0.47,-1.27 -2.62,-1.83l0.09 -0.38c-3.34,3.89 -4.33,1.84 -8.56,1.16l-0.16 3.71zm129.92 328.64l0.36 1.93 -0.28 2.81c3.44,-0.44 7.47,-1.55 6.21,3.01 -0.85,3.1 -3.11,2.51 -5.41,4.36l8.59 -0.19 0.96 -4.6c0.76,4.07 -0.02,3.29 1.29,7.3 2.95,0.6 0.01,0.86 4.64,-0.87 -1.6,-2.19 -2.82,-5.5 -4.06,-8.49 -0.63,-1.49 -1.05,-3.09 -1.9,-4.73 -2.55,-4.9 -0.26,-2.24 -2.81,-2.7l-7.59 2.17zm-143.78 -273.4c-8.98,0 -5.01,-0.11 -7.36,-2.72l-2.96 -2.82c-0.19,-0.57 -0.67,-0.47 -1.02,-0.68l-0.89 10.9c-0.06,1.03 0.13,1.93 -0.13,4.07 17.69,0.74 12.45,-4.52 12.36,-8.75zm5.44 177.94c-0.13,0.2 -0.32,0.46 -0.39,0.57 -1.56,2.4 -2.83,3.97 -3.23,7.4 -0.55,4.71 0.32,6.49 -0.88,12.02l-7.74 1.59 -1.14 3.3 0.43 2.86 2.28 -0.82c0.16,-10.68 8.46,4.76 9.07,-15.74 0.24,-8.31 4.72,-10.62 12.85,-10.6 0.6,4.39 1.22,2.41 -1.86,3.9 -1.48,0.71 -1.31,0.15 -2.58,0.72 -2.63,1.15 -0.74,0.11 -1.76,1.47 4.11,0.51 4.88,0.73 8.3,-1.43 3.26,-9.98 -7.45,-6.48 -13.35,-5.24zm-10.67 26.92l12.57 -6.62 0.26 -12.37c2.22,-2.84 -0.47,-0.9 2.89,-1.26 1.02,-1.36 -0.87,-0.32 1.76,-1.47 1.27,-0.57 1.1,-0.01 2.58,-0.72 3.08,-1.49 2.46,0.49 1.86,-3.9 -8.13,-0.02 -12.61,2.29 -12.85,10.6 -0.61,20.5 -8.91,5.06 -9.07,15.74zm38.8 -142.15c3.26,5.05 -0.18,-1.73 1,2.35l1.19 5.69 8.27 -0.26c1.57,-4.09 3.41,-2.44 4.91,-10.88l-6.58 2.14 0.77 -3.34 -9.56 4.3zm-119.88 125.59l0.16 1.03 1.6 0.42c0.39,-3.16 0.13,-3.97 2.32,-6.58 3.64,-4.31 9.51,-5.92 14.56,-3.63 8.02,3.65 6.73,11.94 6.91,21.92l2.11 1.08c0.24,-4.93 0.97,-11.66 -0.56,-16.2 -1.58,-4.69 -5.12,-6.65 -7.9,-9.84 -10.86,-0.56 -17.86,0.83 -19.2,11.8zm7.29 4.42c4.53,1.76 7.33,4.12 11.94,4.63 4.63,-11.52 -10.16,-19.81 -11.94,-4.63zm233.78 15.18c-0.12,-4.96 -1.34,-3.31 -0.77,-8.78 1.35,6.11 0.18,3.81 3.54,6.52 -0.05,-3.57 1.01,-3.12 -1.75,-6.57 -8.31,-10.36 -16.13,9.46 -4.87,9.6 2.88,0.03 1.12,-0.01 3.85,-0.77zm-200.94 -264.4l7.25 5.17c3.79,-4.48 3.95,-9.27 7.99,-11.75l-1.83 -0.68c-7.98,-1.86 -5.32,0.67 -8.18,2.55 -1.61,1.05 -2.88,0.88 -4.52,1.14l-0.71 3.57zm107.28 234.84l-3.76 0.64c-0.68,4.71 -0.49,8.67 -0.51,13.49 -0.05,13.88 -1.01,10.49 2,12.5 3.61,-3.72 0.6,-20.47 2.27,-26.63zm-151.25 -266.96l-0.15 3.16c2.58,0.33 0.62,-0.17 2.15,-0.05l7.49 1.18 1.16 -6.8c-4.03,-1.81 -1.88,-0.7 -3.83,-3.25 -0.17,-0.23 -0.62,-0.96 -0.87,-1.23 -2.61,-2.82 4.32,1.95 -1.91,-1.48 -2.47,2.23 -3.96,4.9 -4.04,8.47zm112.74 278.6l4.51 -1.6 0.8 -5.8c-2.05,0.78 -1.75,4.68 -1.65,-11 5.3,0.47 2.47,-1.57 3.39,2.15 0.47,1.95 -0.51,3.7 -1.02,5.25 0.23,-0.18 0.59,-0.74 0.7,-0.53l2.78 -2.02 0.5 -2.53c-0.18,-0.2 -0.35,-0.52 -0.44,-0.66 -0.09,-0.15 -0.32,-0.49 -0.43,-0.67 -3.08,-4.64 0.14,-2.85 -3.82,-3.54 -8.23,-1.43 -2.08,10.82 -5.32,20.95zm41.74 -30.28c2.93,8.81 -3.74,9.21 -10.65,9.01l-0.56 -2.94 -2.34 5.32c2.46,0.91 3.34,1.08 6.95,1.14 12.12,-0.14 9.3,-6.4 11.42,-14.87l-1.23 0.52 -0.28 1.98 -3.31 -0.16zm56.94 18.27c0.22,0.24 0.5,0.27 0.67,0.7l1.73 1.17c0.27,0.15 0.7,0.32 1.06,0.47 3.78,-3.69 11.73,-1.52 14.37,3.37 -0.54,1.81 0.57,1.57 -2.41,4.23 -3.03,2.7 -1.43,1.66 -4.03,1.26l1.63 3.28c4.11,-2.41 3.9,-3.54 7.54,-7.67 -1.54,-5.38 -0.61,-6.34 -6.92,-8.07 -6.22,-1.7 -8.61,-0.39 -13.64,1.26zm3.46 2.34c0.57,1.89 -0.26,0.81 2.07,2.22 4.2,0.15 3.66,-0.65 6.7,1.15 -0.59,4.22 0.64,1.83 -2.44,3.54l1.6 1.95c2.6,0.4 1,1.44 4.03,-1.26 2.98,-2.66 1.87,-2.42 2.41,-4.23 -2.64,-4.89 -10.59,-7.06 -14.37,-3.37zm33.93 135.92c5.9,2.42 12.57,9.18 13.04,-1.84l-1.77 -4.39c-2.11,2.93 -2.93,-3.7 -1.59,4.02 -3.19,-1.02 -1.77,-1.71 -4.48,-1.18 -4.16,0.82 -2.04,0.87 -5.2,3.39zm-83.36 -137.93c-5.03,0.59 -6.03,6.55 -6.02,10.67 1.62,-1.1 2.71,-1.74 4.42,-3.51 3.2,-3.32 0.43,-1.81 4.66,-3.64l0.85 -1.91 1.77 -0.08c1.65,-2.84 -0.02,-0.34 2.07,-2.67 1.54,-1.71 -0.17,0.53 1.66,-1.71l-9.4 0.92 -0.01 1.93zm-157.01 12.36l2.69 2.06c1.78,-15.18 16.57,-6.89 11.94,4.63 1.12,2.1 -1.87,0.68 2.65,2.28 0.29,-7.27 0.63,-13.99 -4.9,-16.4 -2.94,-1.29 -5.83,-0.92 -8.51,1.08 -3.04,2.26 -1.83,2.71 -3.87,6.35zm120.39 1.91l2.98 3.26 1 -4.24 1.89 0.6c1.81,2.81 -0.27,5.98 -0.19,10.03 -4.78,1.12 -1.94,1.91 -7.56,2.7l-0.81 2.92c7.96,-2.06 11.57,-5.94 11.84,-14.82 -0.69,-1.72 -0.68,-2.77 -2.57,-3.44 -4.07,-1.44 -3.44,1.16 -3.9,1.37l-0.87 -2.98c-0.76,1.13 -0.3,0.07 -1.27,2.38 -0.1,0.24 -0.46,1.86 -0.54,2.22zm-197.77 -118.73c0.07,-2.75 0.45,-3 -0.56,-5.36 -1.68,-3.9 -0.9,0.56 -2.02,-5.99l-5.67 2.35 -0.11 4.74 8.36 4.26zm194.85 246.46l-0.15 -3.31c0.22,0.14 -3.97,1.95 1.27,0.52l3.19 -6.41c-3.92,0.29 -3.39,-0.06 -4.31,3.28l-1.99 -1.76c-0.16,-0.17 -0.98,-1.23 -1.18,-1.53 -1.15,1.14 -2.08,2.6 -2.24,4.54 -0.34,4.36 1.61,4.12 5.41,4.67zm108.9 -34.79c2.3,-1.85 4.56,-1.26 5.41,-4.36 1.26,-4.56 -2.77,-3.45 -6.21,-3.01 -0.31,0.19 -1.35,1.1 -1.5,1.32 -1.69,2.45 -1,1.14 -1.41,3.07 1.34,2.71 -0.64,1.77 3.71,2.98zm-103 -89.68c-0.94,4.57 0.07,1.63 -2.24,4.63 -2.28,2.98 -1.34,1.08 -2.62,4.46 5.62,-0.79 2.78,-1.58 7.56,-2.7 -0.08,-4.05 2,-7.22 0.19,-10.03l-1.89 -0.6 -1 4.24zm27.1 -38.52c4.37,1.52 -0.1,8.85 0.18,12.89 4.53,-4.57 4.99,-5.32 4.58,-13.98l-2.85 -2.63 -0.83 -0.25 -1.08 3.97zm-161.51 27.34c-1.59,-2.78 -1.59,-2.38 -2.64,-4.03 -1.16,-1.83 -0.8,-1.65 -1.99,-3.56l-12.31 -0.97 16.94 8.56zm146.19 -18.55l-0.32 -0.33 0.56 2.94c6.91,0.2 13.58,-0.2 10.65,-9.01l-1.11 0.01c-1.78,9.9 -4.09,4.57 -9.78,6.39zm-12.45 18.67l6.82 -0.08 0.03 -6.49c-4.89,1.15 -5.49,1.75 -6.85,6.57zm-33.65 13.47l2.22 -1.11 0.93 -12.52c-3.36,0.36 -0.67,-1.58 -2.89,1.26l-0.26 12.37zm20.56 -15.66l0.72 -3.6c0.51,-1.55 1.49,-3.3 1.02,-5.25 -0.92,-3.72 1.91,-1.68 -3.39,-2.15 -0.1,15.68 -0.4,11.78 1.65,11zm31.95 -22.33c-0.25,6.17 0.47,1.51 -1.25,4.16l-1.86 -1.88 -2.98 2.15 -0.32 1.42c5.69,-1.82 8,3.51 9.78,-6.39l-3.37 0.54zm71.21 26.97c3.08,-1.71 1.85,0.68 2.44,-3.54 -3.04,-1.8 -2.5,-1 -6.7,-1.15 1.78,2.81 1.38,3 4.26,4.69zm-74.32 -24.69l1.86 1.88c1.72,-2.65 1,2.01 1.25,-4.16l-3.11 2.28z"/>
 </g>
</svg>
