<?xml version="1.0" encoding="UTF-8"?>
<!DOCTYPE svg PUBLIC "-//W3C//DTD SVG 1.1//EN" "http://www.w3.org/Graphics/SVG/1.1/DTD/svg11.dtd">
<!-- Creator: CorelDRAW 2019 (64-Bit) -->
<svg xmlns="http://www.w3.org/2000/svg" xml:space="preserve" width="100%" height="100%" version="1.1" style="shape-rendering:geometricPrecision; text-rendering:geometricPrecision; image-rendering:optimizeQuality; fill-rule:evenodd; clip-rule:evenodd"
viewBox="0 0 568.94 465.68"
 xmlns:xlink="http://www.w3.org/1999/xlink">
 <defs>
  <style type="text/css">
   <![CDATA[
    .fil0 {fill:#A6A182}
   ]]>
  </style>
 </defs>
 <g id="Layer_x0020_1">
  <metadata id="CorelCorpID_0Corel-Layer"/>
  <path class="fil0" d="M71.21 439.4l4.8 -21.39c0.19,-0.54 0.35,-0.99 0.53,-1.5l26.54 -1.52 0.02 27.66c-11.61,0 -7.92,-1.56 -16.72,1.24 -6.47,2.06 -7.87,0.8 -13.82,-3.47 -0.38,-0.28 -0.92,-0.65 -1.35,-1.02zm69.18 -104.33c0,-4.54 -0.29,-17.77 0.73,-21.32 1.1,-3.76 0.46,-2.3 3.08,-3.54 0.19,-0.09 0.67,-0.17 0.87,-0.25l7.63 -3.14c0.14,0.16 2.35,2.46 2.67,2.78 0.52,0.49 1.65,2.45 2.03,1.79 0.17,-0.31 0.73,0.57 1.1,0.86l0 22.82 -9.06 5.79 -7.79 -5.04c-0.22,-0.62 -0.87,-0.45 -1.26,-0.75zm-7.24 -25.79c-1.44,2.78 -2.56,2.46 -5.9,2.52l-30.39 17.53c-0.11,0.26 -0.24,0.43 -0.31,0.79 -0.07,0.39 -0.34,0.67 -0.45,0.79 -0.52,0.56 -1.76,1.72 -2.67,2.4 0.41,0.28 0.96,0.49 1.31,0.69l7.42 4.33c-1.99,2.99 -1.99,6.79 -0.06,9.85 -0.88,-0.79 -3.56,1.48 -0.19,-3.48 2.79,-4.11 -2.16,-0.55 4.42,-3.04l0 19.49c-0.4,0.32 -0.94,0.65 -1.26,0.86 -5.41,3.47 -8.77,6.01 -19.08,-0.86 0,-6.49 1.21,-12.34 -1.73,-16.97 -7.33,3.42 -14.98,24.99 -17.47,37.1 -3.52,17.15 -3.64,35.06 -1.58,52.7 2.69,23.1 -1.43,30.91 51.6,31.06 8.87,0.02 19.29,-2.38 27.14,-0.84 7.96,-5.1 38.88,-6.21 58.16,-37.39 13.04,-21.08 44.75,-86.03 48.39,-105.26 -9.99,-2.6 -23.2,-11.51 -27.25,-16.68 -3.64,2.87 -2.77,-2.67 -0.62,5.68 0.11,0.44 0.7,1.91 0.81,1.63 0.13,-0.29 0.67,1.12 0.98,1.69 -12.58,-4.38 -8.57,-0.1 -22.74,0.99 -6.75,0.52 -15.37,0.07 -22.17,0.06l-0.72 -13.03c-3.4,-1.79 -3.41,-1.12 -5.66,-2.69l0.3 -2.09c0.19,-5.51 2.85,2.12 -0.6,-3.72 -8.98,0.51 -29.53,12.32 -39.68,15.89zm199.99 -190.45l2.69 -0.01c-0.78,1.62 -0.95,0.98 -1.23,4.18l0.69 9.94 -13.75 -1.3c-4.37,2.62 -1.96,1.14 -5.79,4.67 -1.94,1.79 -2.65,2.47 -4.04,4.01 -3.02,3.36 -4.51,5.78 -7.75,9.74l-1.54 13.13c-1.96,3.74 -1.37,2.07 -3.01,1.15 -5.05,4.01 7.08,5.2 -9.49,2.34l-1.21 0c-5.72,10.22 -15.15,21.06 -22.56,30.66 1.7,3.44 2.28,10.63 0.38,13.84 -2.69,4.54 -4.06,0.17 -12.8,4.19 -3.13,2.42 -9.78,12.35 -10.86,16.42 12.44,9 17.53,-5.4 30.2,3.96 7.68,5.68 10.16,26.06 6.89,37.39l2.7 0.25 -0.68 -13.59 13.78 -0.63 0 -12.51c4.07,-2.15 1.65,0.26 3.65,-3.26l2.44 1.19c2.1,-8.05 3.19,-8.57 10.96,-10.82 3.99,-2.98 5.83,-1.93 11.06,-1.46 11.63,5.55 -3.6,18.28 -3.8,13.91l-5.98 0.6 1.62 0.71 -0.47 1.15 1.56 2.05c0.26,0.33 0.77,0.98 1.02,1.3 0.28,0.38 0.77,1.02 1.16,1.53l11.43 -0.58 0.75 8.88 2.27 -1.3c0.29,-7.69 -0.1,-15.56 -0.07,-23.34 0.05,-10.48 -2.05,-15.65 10.3,-14.56l2.79 9.62 21.07 0.85c2.93,-0.33 0.69,0.55 4.27,-0.81 0.75,-1.12 2.23,-3.11 3.13,-5.16 -1.49,-7.75 -12.09,-9.04 -7.8,-23.17 2.67,-8.77 8.42,-13.88 18.09,-15.58 -0.87,-3.72 -0.72,-3.72 -1.92,-6.56 6.97,0 5.01,1.46 5.79,-1.69 -4.48,0.35 -7.56,0.24 -12.19,-0.87 -2.72,-0.66 -4.17,-1.43 -6.03,-2.01 -4.1,-1.29 -0.25,-0.74 -5.02,-1.24 -3.8,3.84 -2.36,3.6 -7.8,5.37 -1.64,0.54 -3.5,0.72 -5.13,1.18 -10.93,3.08 -17.62,2.1 -17.62,-13.79 3.32,-2.75 2.32,-3.25 9.77,-3.25l0.01 -4.9c-6.53,-3.82 0.07,-4.69 -14.82,-8.15 -4.51,-1.05 -1.14,-0.11 -4.72,-1.45l-3.29 -1.81c3.08,-5.23 1.28,-1.11 4.42,-4.27 0.27,-0.26 1.19,-1.68 2.09,-2.46 3.66,-3.16 1.66,-3.04 13.05,-3.04 1.65,15.29 -0.93,7.58 4.64,16.91 0.14,-0.39 0.38,-0.9 0.45,-1.17l0.87 -5.71c1.6,-8.56 0.24,-13.25 3.7,-21.59 3.38,-8.13 7.83,-9.75 9.32,-14l0.57 -7.05c-8.41,1.71 -5,-2.89 -7.69,8.79l-9.84 -0.07c3.16,-5.05 3.8,-4.49 7.75,-7.1 -3.3,-5.93 5.04,-5.35 -5.73,-4.44 -5.44,7.76 -9.51,6.55 -12.7,14.79zm114.57 156.81c-1.34,5.92 -0.08,5.03 -4.15,8.3 -1.5,3.3 0.47,0.38 -2.7,3.48 -0.23,0.23 -2.61,1.77 -2.89,2 1.27,5.19 -2.68,2.46 4.32,3.39 7.58,0.99 11.44,-9.47 11.71,4.6 10.57,-0.01 9.57,-2.96 16.16,2.23 8.55,6.75 -2.08,1.64 2.69,2.01l5.98 -0.54 -1.56 12.77c-2.27,1.33 -0.14,0.36 -3.74,1.19l-9.6 1.64c-7.04,1.96 -4.83,3.13 -11.79,4.82 8.76,1.43 -1.1,-1.14 3.76,3.51 6.28,-4.29 19.4,-0.3 25.47,2.57 6.8,3.21 12.9,9.13 16.59,17.53 8.74,19.86 -2.43,38.98 -14.78,46.52 2.4,9.57 -6.37,-5.84 2.08,3.52 0.23,0.26 0.58,0.68 0.86,0.94l7.15 4.16 0.51 13.8 11.28 -0.85c0.91,-5.8 0.8,-2.79 4.54,-6.62 0.22,-0.23 0.58,-0.51 0.8,-0.73 9.9,-9.84 8.76,-4.48 9.21,-17.39l-17.05 0.64 -0.37 -13.42 23.69 0.02 -0.09 -24.36c-0.16,-11.17 -0.33,-3.44 1.84,-6.36l13.8 -3.78c-4.48,-2.8 -7.97,-9.95 -8.95,-16.34 -1.24,-8.1 4.06,-10.94 6.62,-17.81 -2.49,-1.13 -1.4,2.41 -2.38,-4.6l-5.22 4.46c-0.04,-4.23 3.33,-3.33 -12.34,-3.02l0.02 6.38 -11.11 0c-2.5,-3.75 2.09,-6.39 -7.64,-6.71l0 -2.56c6.4,-0.19 10.02,-3.04 12.09,-10.71 -6.74,0.95 0.08,0.04 -4.15,1.09 -5.56,1.38 -5.43,2.21 -11.97,-0.06 -6.83,-2.38 -9.17,-3.89 -10.51,-6.58 -2.77,-2.46 -0.17,1.01 -3.11,-3.94 -0.06,-0.09 -0.92,-2.55 -1.02,-2.82l-2.42 -2.02c-0.29,-0.29 -0.68,-0.65 -0.98,-0.96l-4.7 -6.77c-2.8,-5.02 -2.68,-7.44 -4.39,-13.05l-1.94 -0.05 -1.53 0.1 -5.28 -0.12c-0.3,4.22 0.23,17.78 -0.75,20.28 -3.07,7.82 -7.47,3.27 -12.06,0.22zm-37.45 154.79c-5.77,-3.67 -1.04,-0.55 -7.72,-2.92 -2.15,-0.76 -5.02,-1.98 -6.59,-2.78l2.76 -7.92c0.16,-0.32 0.41,-0.72 0.57,-1.05 0.16,-0.35 0.4,-0.75 0.56,-1.11l1.45 -3.66c2.65,-7.37 2.2,-9.32 12.23,-9.98 6.43,9.08 -3.87,13.05 7.7,13.22l0 -6.79c3.55,1.57 3.56,1.37 6.62,8.3 1.13,2.56 0.47,-1.12 1.53,4.1 -0.47,0.22 -1.22,-0.26 -1.53,0.31 -0.56,1.06 -6.38,-0.63 -10.97,2.93l-6.61 7.35zm-22.03 -125.15c3.68,5.75 9.74,11.99 8.49,19.38 -0.77,4.55 -5.14,14.29 -9.67,16.52 -14.41,7.12 -32.41,-0.38 -27.3,24.68 3.29,16.17 25.45,4.06 32.99,19.36 6.6,13.42 2.62,25.51 -9.17,34.65l1.74 10.86c7.22,3.47 5.73,5.84 13.54,9.61 10.39,-1.2 13.95,-7.13 21.16,-10.84 7.13,-3.67 18.47,0.17 23.16,4.78 10.31,10.13 -3.01,38.3 29.63,29.83 2.17,-9.69 1.29,-2.2 -2.22,-5.14 -5.22,1.94 -9.68,1.41 -15.46,-2.48l-2.03 -17.14c1.5,-5.3 -0.96,-3.92 4.18,-5.73l-0.82 -5.96c-4.08,-2.4 1.45,-7.98 -15.03,-7.98l-0.35 -11.09 -10.52 -0.01 0.74 -13.35c5.67,0.45 6.49,1.54 13.2,2.76 -2.56,-6.81 -1.36,-3.88 -8.8,-7.49l2.89 -4.53c-16.86,-18.4 -10.96,-51.69 12.48,-59.61 -6.92,-5.08 -3.96,-2.04 -10.59,-2.58 -5.67,-0.46 -4.6,-1.86 -10.65,-1.11l-7.36 1.87 0.88 12.41 -7.52 1.13 -0.8 17.9 -12.28 0.91 -0.03 6.15 -15.27 1.24c-3.44,5.69 2.99,3.58 -5.08,5.14 -7.19,1.38 -4.97,0.05 -7.88,-3.66 -12.23,-15.6 -0.42,-17.73 12.9,-17.74 7.51,0 13.32,0.77 20.77,1.46l-0.89 -11.15c-9.57,-0.05 -5.94,0.3 -8.03,-5.77 -1.89,-5.47 1.5,-31.18 2.5,-35.47l9.53 -0.13 1.63 -3.18c13.3,-0.09 14.53,3.71 17.94,1.86 3.44,-1.86 5.88,1.09 0.21,-2.47l-8.63 -0.94c-24.7,-0.12 -30.01,-8.47 -25.2,15.12l-6.18 -2.39c-1.66,-0.43 1.71,-2.12 -2.8,0.32zm-102.7 84.07l-2.17 -20.91 21.97 -0.04c-4.43,14.6 -6.2,11.94 -10.26,14.71l-2.26 2.08c-4.07,3.91 5.65,3.15 -7.28,4.16zm0.84 7.53l3.12 -1.98c13.38,-10.7 27.33,-19.5 35.92,-33.74 8.57,-1.43 17.74,-28.05 24.18,-32.62 -2.54,-2.01 2.4,0.25 -2.87,-4.62 -0.24,-0.22 1.3,0.14 -3.19,-1.04 -12.07,-3.19 -6.5,3.48 -8.24,-7.38l-22.84 0c0,3.72 0.3,7.91 0.26,11.45 -0.12,12.14 -2.85,10.32 -5.14,11.38 -5.99,-2.76 -2.01,0.81 -4.44,-4.77l-0.45 -19.68c2.8,-5.19 0.46,3.64 -0.87,-4.48 -0.62,-3.77 2.81,-4.2 1.03,-6.14 -5.63,0.95 -18.26,10.01 -22.33,13.88 0.17,19.52 -3.6,35.72 -12.84,48.16 -5.49,7.39 -9.78,12.47 -2.48,21.94 4.71,6.11 10.18,10.27 21.18,9.64zm-171.15 -237.85l-27.77 0c0.67,2.59 -0.11,1.25 2.75,1.49 -0.3,-0.35 -0.9,-1.15 -1.04,-0.88 -0.02,0.03 -3.53,-2.27 -3.54,-7.39 1.48,-0.41 20.22,-2.03 24.7,-2.35l1.12 -9.54c7.22,0.6 6.98,-1.09 6.6,6.52 -0.09,1.99 -1.6,9.6 -2.82,12.15zm-42.97 -20.16c2.45,5.16 3.3,5.36 4.46,11.45 1.16,6.08 -0.52,7.44 3.24,11.4 2.88,2.65 36.17,7.63 40.28,-2.76 1.44,-3.65 0.14,0.03 0.78,-2.57 0.52,-2.06 0.46,-4.36 1,-6.88 2.03,-9.55 11.41,-16.18 17.56,-31.36 5.6,-13.82 6.43,-24.99 0,-38.83l-6.99 -8.82c-7.36,7.87 -8.46,2.66 -8.46,15.16l2.61 0.6c0.19,-0.01 0.8,0.03 0.96,0 6.22,-1.18 0.94,-1.84 0.57,-2.23 4.13,6.16 5.44,4.34 11.41,8.15 0,7.2 -9.27,31.37 -10.45,33.09 -2.78,4.02 4.42,-1.43 -2.6,2.33 -3.16,-3.71 -2.85,5.87 -2.96,-7.8 -0.05,-6.51 3.1,-1.47 3.09,-17.18l-23.96 0.22c0,6.41 0.32,5.03 -1.63,9.53l-14.67 0 0 21.57 6.52 0 0 4.51 -6.52 0 0 6.15c-14.74,-3.11 -0.1,-3.67 -14.24,-5.73zm410.93 252.79l-15.85 4.79 2.75 2.27c6.46,4.53 9.39,3.02 17.59,2.56l-1.66 12.8c-9.3,0.81 -15.26,2.26 -20.92,13.42l16.62 -0.72c0.24,0.02 0.73,0.05 0.97,0.1 4.68,0.79 3.7,1.07 4.62,5.78 14.35,-4.36 13.41,-8.29 26.79,0.71 13.96,9.39 13.23,8.83 26,1.58l1.04 -1.02c5.33,-12.53 3.04,-14.35 -4.18,-25.04 -8.39,-12.41 -3.95,-11.97 -0.56,-25.63 -7.48,3.08 -0.78,1.18 -8.75,2.34l0 -11.4c1.27,-1.06 1.44,-3.21 9.78,-3.26 -12.03,-0.08 -4.42,-0.68 -7.1,-11.89l-0.72 -2.29c-2.35,-6.15 -2.08,-5 -3.81,-5.39l0.09 24.36 -23.69 -0.02 0.37 13.42 17.05 -0.64c-0.45,12.91 0.69,7.55 -9.21,17.39 -0.22,0.22 -0.58,0.5 -0.8,0.73 -3.74,3.83 -3.63,0.82 -4.54,6.62l-11.28 0.85 -0.51 -13.8 -7.15 -4.16c-0.28,-0.26 -0.63,-0.68 -0.86,-0.94 -8.45,-9.36 0.32,6.05 -2.08,-3.52zm-295.04 -205.96c-0.22,0.21 -0.56,0.53 -0.68,0.64 -0.13,0.1 -0.55,0.51 -0.71,0.64 -9.33,7.78 -42.26,30.2 -44.5,42.48l-0.31 3.72c7.5,-0.05 13.77,3.5 17.12,8.98 7.66,-0.02 -0.01,-7.13 -0.87,-8.92l-5.03 -12.91 16.8 -12.68c3.46,-4.64 2.31,-2.63 2.31,-9.5 6.94,2.34 6.29,1 7.6,1.19 10.89,1.65 -0.7,-0.42 6.72,3.15 4.18,-7.38 -4.25,6.54 2.22,-2.86l1.32 -1.98c8.81,-14.31 2.05,-4.91 18.98,-10.98 0.39,-0.14 0.96,-0.45 1.46,-0.59l0 19.4 13.2 0 1.39 12.42c-2.83,10.6 -11,6.64 -19.27,11.43 -2.55,1.48 -3.25,1.73 -6.66,2.85 2.98,6.81 1.47,1.69 6.53,7.3 4.27,4.73 1.36,4.7 7.44,6.25 3.01,-1.38 16.75,-23.54 19.52,-27.91l8.62 -10.16c-1.52,-13.1 -7.6,-8.66 1.87,-21.75 5.12,-7.08 11.63,-11.83 9.1,-21.99 -24.52,-1.63 -44.89,13.9 -64.17,21.78zm-84.13 -114.13l-0.03 9.91 -11.57 3.15c5.56,1.28 1.47,-1.4 4.86,2.66 -3.84,2.23 -2.06,0.49 -2.32,7.46 -5.54,-2.88 2.59,-2.38 -7.45,-2.91 0.29,3.24 -0.71,12.09 -2.95,16.47 -2.91,5.68 -3.68,4.6 -5.79,5.71l-7.32 2.86 1.04 17.64c-0.51,6.73 3.62,0.58 -1.32,3.98l1.09 0.37c14.14,2.06 -0.5,2.62 14.24,5.73l0 -6.15 6.52 0 0 -4.51 -6.52 0 0 -21.57 14.67 0c1.95,-4.5 1.63,-3.12 1.63,-9.53l23.96 -0.22c0.01,15.71 -3.14,10.67 -3.09,17.18 0.11,13.67 -0.2,4.09 2.96,7.8 7.02,-3.76 -0.18,1.69 2.6,-2.33 1.18,-1.72 10.45,-25.89 10.45,-33.09 -5.97,-3.81 -7.28,-1.99 -11.41,-8.15 0.37,0.39 5.65,1.05 -0.57,2.23 -0.16,0.03 -0.77,-0.01 -0.96,0l-2.61 -0.6c0,-12.5 1.1,-7.29 8.46,-15.16 -0.62,-3.05 1.23,-0.73 -2.49,-4.56 -1.14,-1.18 -4.41,-3.24 -5.79,-4.09 -3.92,-2.4 -7.83,-3.77 -10.73,-5.72 -2.44,2.4 -0.32,1.79 -5.52,2.59 -7.91,1.23 -13.06,-5.03 -20.54,4.12 4.42,5.28 4.38,4.1 11.21,3.81 3.28,-0.14 10.03,-1.38 14.85,-1.82 -1.07,3.71 -0.14,5.99 -5.12,7.85l-4.44 -1.11zm294.72 35.59c21.43,10.15 22.01,18.03 25.22,44.33 1.65,6.05 1.38,17.45 -3.9,20.58 -3.29,4.42 -1.7,0.15 -6.61,1.77 -6.51,2.16 -3.53,-1.85 -7.91,7.99 2.86,2.06 -0.5,4.88 13.87,3.69 0.34,-0.03 0.86,-0.11 1.15,-0.14l2.03 -0.25c4.36,-4.88 9.69,-10.83 14.54,-15.59 6.79,-6.66 8.5,-9.22 14.41,-15.99l-2.49 -5.8c0.31,0.3 0.07,0.59 0.01,1.12 -0.05,0.44 -0.31,0.93 -0.38,1.01l-0.74 0.81c-2.61,-0.35 -1.82,-3.63 -0.47,-5.6 0.1,-0.15 0.45,-0.49 0.57,-0.63l3.16 -2.64c9.38,-7.09 4.7,3.43 7.97,-8.87 -1.04,-9.73 0.16,-0.79 -2.8,-6.68l-5.99 -11.76 7.16 -1.58 2.67 -1.87 -4.68 -3.7 -12.66 0.93c-6.86,-1.23 -8.35,-3.14 -13.16,-3.87 -3.69,-0.34 -3.12,1.07 -3.14,-0.28 3.01,7 -0.5,4.3 1.63,12.49l-13.38 -5.3c-5.93,-2.98 2.88,-0.03 -2.92,-1.21 -0.08,-6.82 2.67,-0.59 -0.01,-9.78 -9.61,1.36 -6.26,1.68 -13.15,6.82zm-13.78 -39.38l-5.17 7.42 3.58 30.18 15.37 1.78c6.89,-5.14 3.54,-5.46 13.15,-6.82 2.68,9.19 -0.07,2.96 0.01,9.78 5.8,1.18 -3.01,-1.77 2.92,1.21l13.38 5.3c-2.13,-8.19 1.38,-5.49 -1.63,-12.49 0.02,1.35 -0.55,-0.06 3.14,0.28 -5.62,-9.88 -12.55,-15.85 -7.82,-32.88l-4.88 -2.18c-1.04,-17.37 -11.22,-2.35 -0.22,-16.3 -9.09,-1.07 -1.78,0.84 -5.21,-2.72 -8.57,1.66 -17.6,13.89 -26.62,17.44zm44.2 -29.47c13.1,6.88 -8.84,-7.9 2.3,3.34 -6.89,1.74 0.64,-0.44 -5.29,2.54 -4.7,2.36 0.39,1.79 -6.11,2.36l13.03 8.13c2.63,-2.3 -0.19,-3.13 13.04,-1.63l-13.05 -11.58c-0.27,-0.29 -1.1,-1.27 -1.61,-1.46 8.9,-4.51 5.17,-6.37 19.31,5.11l3.5 3.05 -4.36 5.26c-0.3,0.27 -0.84,0.59 -1.1,0.81 -0.23,0.2 -0.74,0.41 -1.05,0.7 18.15,2.08 27.3,13.26 25.72,33.13 0.74,-0.48 4.33,-2 5.24,-2.41 0.03,-0.55 0.21,-3.38 0.21,-3.71 -0.04,-4.47 0.28,0.55 -0.2,-2.81 -2.22,-7.97 -1.15,-7.7 -1.85,-15.29 -1.05,-11.22 -1.83,-3.95 -3.85,-12.42 6.91,-3.25 11.98,-4.16 20.37,-1.63l7.96 1.2 -1.19 -12.6c-8.13,0 -15.46,-9.38 -18.19,-3.26l0 -16.3c-4.01,1.21 -3.64,2.9 -7.6,1.93 -8.17,-2 -7.06,2.52 -7.07,-3.74 -8.65,2.62 -35.09,16.29 -38.16,21.28zm0.67 284.36l-0.36 -19.83 -12.68 0c-2.21,-8.05 1.62,-3.35 -5.52,-5.88l-9.53 0.13c-1,4.29 -4.39,30 -2.5,35.47 2.09,6.07 -1.54,5.72 8.03,5.77l0.89 11.15c-7.45,-0.69 -13.26,-1.46 -20.77,-1.46 -13.32,0.01 -25.13,2.14 -12.9,17.74 2.91,3.71 0.69,5.04 7.88,3.66 8.07,-1.56 1.64,0.55 5.08,-5.14l15.27 -1.24 0.03 -6.15 12.28 -0.91 0.8 -17.9 7.52 -1.13 -0.88 -12.41 7.36 -1.87zm70.35 -284.27l1.19 12.6 -7.96 -1.2c0,6.21 -0.36,13.54 0.06,19.61 0.7,10.34 1.25,8.85 -1.05,18.58 5.04,0.26 0.53,0.99 6.4,-1.43l4.85 -4.74c0.49,-5.84 9.58,-21.16 12.69,-28.64 4.24,-10.15 7.1,-20.42 10.97,-31.9 -2.5,-6.81 -3.6,-14.6 -9.47,-18.61 -13.5,1.61 -2.82,9.65 -21.18,3.4 0.32,0.43 1.8,2.92 1.95,3.38 2.71,8.47 -2.47,18.26 1.55,28.95zm-269.84 239.45c3.01,16.62 8.57,5.84 13.13,15.33l3.76 5.73c8.88,7.43 16.54,3.86 23.78,2.39 -0.36,-7.52 0.7,-4.87 -4.89,-9.78 6.61,0 8.53,-0.62 14.11,-1.9 8.16,-1.88 9.44,-1.23 10.8,-4.38 -0.52,-0.29 -1.26,-1.25 -1.63,-0.74l-6.46 -1.23c-5.45,0.8 -2.98,-1.6 -4.71,3.6l-3.31 -6.94c-2.7,0.75 -4.77,1.92 -5.22,2.1 -2.13,0.85 -1.15,1.25 -4.16,1.58l1.65 -16.81c0.59,-3.49 0.12,-2.8 1.38,-4.62l-1.02 -15.47 -8.91 0.07c-1.45,10.58 3.79,35.69 -9.75,31.24 -7,-9.24 2.1,-30.79 -8.43,-32.23 -13.65,-1.86 -0.91,23.37 -10.12,32.06zm-175.48 -187.29c-1.5,21.94 5.88,34.44 16.31,47.94 4.94,-3.4 0.81,2.75 1.32,-3.98l-1.04 -17.64 7.32 -2.86c2.11,-1.11 2.88,-0.03 5.79,-5.71 2.24,-4.38 3.24,-13.23 2.95,-16.47 10.04,0.53 1.91,0.03 7.45,2.91 0.26,-6.97 -1.52,-5.23 2.32,-7.46 -3.39,-4.06 0.7,-1.38 -4.86,-2.66 -6.72,6.08 -6.33,5.22 -10.21,13.73 -3.29,7.25 -5.25,7.13 -13.04,5.48 -7.35,-17.09 20.33,-45.43 34.85,-32.27l4.44 1.11c4.98,-1.86 4.05,-4.14 5.12,-7.85 -4.82,0.44 -11.57,1.68 -14.85,1.82 -6.83,0.29 -6.79,1.47 -11.21,-3.81 7.48,-9.15 12.63,-2.89 20.54,-4.12 5.2,-0.8 3.08,-0.19 5.52,-2.59l-21.17 -1.59c-22.02,7.46 -30.82,13.28 -37.55,36.02zm260.86 203.55c-5.69,2.26 -9.66,4.4 -12.87,9.15 1.78,1.94 -1.65,2.37 -1.03,6.14 1.33,8.12 3.67,-0.71 0.87,4.48l0.45 19.68c2.43,5.58 -1.55,2.01 4.44,4.77 2.29,-1.06 5.02,0.76 5.14,-11.38 0.04,-3.54 -0.26,-7.73 -0.26,-11.45l22.84 0c1.74,10.86 -3.83,4.19 8.24,7.38 4.49,1.18 2.95,0.82 3.19,1.04 5.27,4.87 0.33,2.61 2.87,4.62l5.31 -14.65c-5.03,9.26 0.67,1.99 -6.57,6.5 2.25,-7.69 -0.1,-1.92 3.6,-8.25 0.27,-0.45 0.55,-0.73 0.81,-1.15 2.75,-4.43 4.79,-5.66 0.43,-16.49 -5.87,-2.27 -11.88,-3.98 -18.99,-1.85 -13.72,4.12 0.21,3.61 -13.57,0.79 -1.2,2.69 -1.16,9.2 -3.88,5.39 -2.35,-3.3 -2.65,2.44 -1.02,-4.72zm210.08 57.26c1.73,0.39 1.46,-0.76 3.81,5.39l0.72 2.29c2.68,11.21 -4.93,11.81 7.1,11.89 -8.34,0.05 -8.51,2.2 -9.78,3.26l0 11.4c7.97,-1.16 1.27,0.74 8.75,-2.34 9.17,-9.05 14.56,-3.28 31.32,-11.76 0.29,-0.15 0.81,-0.44 1.23,-0.63 -0.43,-30.17 2.35,-21.62 -27.51,-29.64l-13.8 3.78c-2.17,2.92 -2,-4.81 -1.84,6.36zm-94.75 -58.2c5.67,3.56 3.23,0.61 -0.21,2.47 -3.41,1.85 -4.64,-1.95 -17.94,-1.86l-1.63 3.18c7.14,2.53 3.31,-2.17 5.52,5.88l12.68 0 0.36 19.83c6.05,-0.75 4.98,0.65 10.65,1.11 6.63,0.54 3.67,-2.5 10.59,2.58l4.84 -1.32c-4.86,-4.65 5,-2.08 -3.76,-3.51 6.96,-1.69 4.75,-2.86 11.79,-4.82l9.6 -1.64c3.6,-0.83 1.47,0.14 3.74,-1.19l1.56 -12.77 -5.98 0.54c-4.77,-0.37 5.86,4.74 -2.69,-2.01 -6.59,-5.19 -5.59,-2.24 -16.16,-2.23 -0.27,-14.07 -4.13,-3.61 -11.71,-4.6 -7,-0.93 -3.05,1.8 -4.32,-3.39 -6.13,1.71 -1.01,-0.11 -4.86,1.82 -0.33,0.17 -0.87,1.26 -1.11,0.91 -0.23,-0.33 -0.63,0.68 -0.96,1.02zm-231.67 -12.92l-5.9 2.39c-5.4,4.65 -15.8,5.03 -20.64,10.75 3.45,5.84 0.79,-1.79 0.6,3.72l-0.3 2.09c2.25,1.57 2.26,0.9 5.66,2.69l0.72 13.03c6.8,0.01 15.42,0.46 22.17,-0.06 14.17,-1.09 10.16,-5.37 22.74,-0.99 -0.31,-0.57 -0.85,-1.98 -0.98,-1.69 -0.11,0.28 -0.7,-1.19 -0.81,-1.63 -2.15,-8.35 -3.02,-2.81 0.62,-5.68 -4.69,-4.78 -13.94,-16.03 -14.33,-24.55 -5.37,-2.49 -2.54,-1.94 -9.55,-0.07zm257.08 147.41l8.64 -0.16c5.66,-11.16 11.62,-12.61 20.92,-13.42l1.66 -12.8c-8.2,0.46 -11.13,1.97 -17.59,-2.56l-2.75 -2.27c-12.94,1.01 -22.39,-4.37 -28.75,-10.48l-2.89 4.53c7.44,3.61 6.24,0.68 8.8,7.49 -6.71,-1.22 -7.53,-2.31 -13.2,-2.76l-0.74 13.35 10.52 0.01 0.35 11.09c16.48,0 10.95,5.58 15.03,7.98zm-176.49 -154.52l-2.41 5.79c-12.07,1.08 -8.58,-6.2 -8.99,-16.75 -1.26,1.82 -0.79,1.13 -1.38,4.62l-1.65 16.81c3.01,-0.33 2.03,-0.73 4.16,-1.58 0.45,-0.18 2.52,-1.35 5.22,-2.1l3.31 6.94c1.73,-5.2 -0.74,-2.8 4.71,-3.6l6.46 1.23c0.37,-0.51 1.11,0.45 1.63,0.74 -1.36,3.15 -2.64,2.5 -10.8,4.38 -5.58,1.28 -7.5,1.9 -14.11,1.9 5.59,4.91 4.53,2.26 4.89,9.78 -7.24,1.47 -14.9,5.04 -23.78,-2.39l-3.76 -5.73c-4.56,-9.49 -10.12,1.29 -13.13,-15.33l-5.73 1.9c2.22,6.13 7.35,12.48 11.38,16.04 4.71,4.15 11.57,7.25 16.34,12.11 9.19,-1.07 13.55,-0.12 21.32,-5.1 5.73,-3.67 11.45,-7.36 16.79,-10.97 5.57,-3.76 28.13,-18.04 30.18,-22.17 3.03,-0.76 2.46,0.26 2.46,-2.43l-7.27 1 -0.56 -19.55 0.47 -1.15c-7.59,5.21 5.99,37.1 -27.5,30.36 -3.16,-14.73 3.62,-9.19 12.21,-14.08l1.43 -19.22 -2.44 -1.19c-2,3.52 0.42,1.11 -3.65,3.26l0 12.51 -13.78 0.63 0.68 13.59 -2.7 -0.25zm-120.9 -30.98c-0.61,9.73 -2.11,6.62 -8.02,12.96 -3.92,4.21 -2.46,4.39 -8.12,8.28 2.92,6.51 13.12,2.38 17.16,-0.4l5.12 -3.18 3.76 -2.55c0.56,-6.65 3.02,-21.25 11.26,-19.68 1.7,-3.99 -1.11,-2.64 3.62,-4.42l-0.57 -18.73c-5.54,-3.06 5.85,0.5 -2.5,0.41 -3.18,-0.03 -0.13,0.79 -3.08,-0.76l-7.73 -6.44 -16.8 12.68 5.03 12.91c0.86,1.79 8.53,8.9 0.87,8.92zm314.42 -154.09c-3.84,10.75 -7.52,15.83 -17.96,19.29l4.68 3.7 -2.67 1.87c4.29,-3.41 5.98,-3.12 16.01,-4.15 -0.88,7.61 -3.01,16.14 -7.85,17.65 -0.48,-0.27 -1.72,-0.8 -2.13,-0.85 -6.2,-0.73 -2.96,-0.16 -6.02,0.85 0,7.67 -0.7,4.91 1.62,6.52 -3.27,12.3 1.41,1.78 -7.97,8.87l-3.16 2.64c-0.12,0.14 -0.47,0.48 -0.57,0.63 -1.35,1.97 -2.14,5.25 0.47,5.6l0.74 -0.81c0.07,-0.08 0.33,-0.57 0.38,-1.01 0.06,-0.53 0.3,-0.82 -0.01,-1.12l2.49 5.8c2.42,-2.1 9.89,-11.2 11.71,-13.88 10.34,-14.89 28.89,-34.99 35.57,-53.11 -5.87,2.42 -1.36,1.69 -6.4,1.43 -10.67,-1.28 -4.75,-0.95 -5.46,-3.88 -1.64,-6.75 -1.43,-0.62 1.57,-3.57 -5.51,-0.15 -5.28,-1.01 -9.79,-1.4 0.48,3.36 0.16,-1.66 0.2,2.81 0,0.33 -0.18,3.16 -0.21,3.71 -0.91,0.41 -4.5,1.93 -5.24,2.41zm-234.37 149.19c11.28,-3.28 4.9,5.28 15.8,1.36 15.81,-5.69 21.8,1.47 22.13,18.14 0.17,8.27 2.52,16.89 -4.31,19.13 -2.21,-10.65 4.23,-31.59 -9.44,-33.26 -17.83,-2.17 -3.37,21.42 -11.15,32.73 -4.43,-3.4 -2.88,-2.91 -2.78,-10.25 0.4,-30.61 -5.64,-17.39 -13.48,-23.62 -1.39,1.26 -1.35,0.9 -2.7,2.6 -0.32,0.39 -1.23,1.66 -1.5,2.11 -2.26,3.75 -0.84,1.02 -2.4,5.73 2.29,2.49 3.04,19.9 -1.59,23.63 -4.67,-3.74 -1.87,-8.22 -2.86,-15.93 -1.68,1.68 -1.27,-0.36 -3.06,4.35 -0.78,2.05 -0.87,3.63 -0.85,5.9 0.05,5.75 0.76,6.83 3.68,9.87l5.73 -1.9c9.21,-8.69 -3.53,-33.92 10.12,-32.06 10.53,1.44 1.43,22.99 8.43,32.23 13.54,4.45 8.3,-20.66 9.75,-31.24l8.91 -0.07 1.02 15.47c0.41,10.55 -3.08,17.83 8.99,16.75l2.41 -5.79c3.27,-11.33 0.79,-31.71 -6.89,-37.39 -12.67,-9.36 -17.76,5.04 -30.2,-3.96 -2.41,1.89 -1.68,-0.35 -3.76,5.47zm-52.52 -34.77c1.77,4.9 -0.47,2.64 5.13,3.86 0.53,0.12 7.14,-0.06 8.26,-0.06l-0.75 25.89c3.41,-1.12 4.11,-1.37 6.66,-2.85 8.27,-4.79 16.44,-0.83 19.27,-11.43l-1.39 -12.42 -13.2 0 0 -19.4c-0.5,0.14 -1.07,0.45 -1.46,0.59 -16.93,6.07 -10.17,-3.33 -18.98,10.98l-1.32 1.98c-6.47,9.4 1.96,-4.52 -2.22,2.86zm-115.38 236.91c0.43,0.37 0.97,0.74 1.35,1.02 5.95,4.27 7.35,5.53 13.82,3.47 8.8,-2.8 5.11,-1.24 16.72,-1.24l-0.02 -27.66 -26.54 1.52c-0.18,0.51 -0.34,0.96 -0.53,1.5l-4.8 21.39zm294.63 -263.36c-3.19,-5.24 -6.48,-5.93 -10.33,-11.18 -4.16,-5.67 -4.38,-11.16 -7.75,-15.36l-0.87 5.71c-0.07,0.27 -0.31,0.78 -0.45,1.17 -5.57,-9.33 -2.99,-1.62 -4.64,-16.91 -11.39,0 -9.39,-0.12 -13.05,3.04 -0.9,0.78 -1.82,2.2 -2.09,2.46 -3.14,3.16 -1.34,-0.96 -4.42,4.27l3.29 1.81c3.58,1.34 0.21,0.4 4.72,1.45 14.89,3.46 8.29,4.33 14.82,8.15l-0.01 4.9c-7.45,0 -6.45,0.5 -9.77,3.25 0,15.89 6.69,16.87 17.62,13.79 1.63,-0.46 3.49,-0.64 5.13,-1.18 5.44,-1.77 4,-1.53 7.8,-5.37zm101.47 -159.01c0.01,6.26 -1.1,1.74 7.07,3.74 3.96,0.97 3.59,-0.72 7.6,-1.93l0 16.3c2.73,-6.12 10.06,3.26 18.19,3.26 -4.02,-10.69 1.16,-20.48 -1.55,-28.95 -0.15,-0.46 -1.63,-2.95 -1.95,-3.38 18.36,6.25 7.68,-1.79 21.18,-3.4 5.87,4.01 6.97,11.8 9.47,18.61 1.42,-8.65 2.77,-10.91 0.63,-17.89 -9.02,-6.48 -19.59,-2.21 -31.93,1.74 -6.57,2.11 -25.3,8.25 -28.71,11.9zm-121.47 87.01c10.77,-0.91 2.43,-1.49 5.73,4.44 -3.95,2.61 -4.59,2.05 -7.75,7.1l9.84 0.07c2.69,-11.68 -0.72,-7.08 7.69,-8.79l-0.57 7.05c7,-3.05 12.88,-7.28 22.58,-8.53l-3.58 -30.18c-5.16,0.98 -5.14,1.98 -9.38,6.46 -2.92,3.09 -5.19,4.82 -8.61,7.7 -5.96,5.01 -11.14,9.19 -15.95,14.68zm-175.88 103.61l7.73 6.44c2.95,1.55 -0.1,0.73 3.08,0.76 8.35,0.09 -3.04,-3.47 2.5,-0.41l0.57 18.73 15.39 -0.99 0.75 -25.89c-1.12,0 -7.73,0.18 -8.26,0.06 -5.6,-1.22 -3.36,1.04 -5.13,-3.86 -7.42,-3.57 4.17,-1.5 -6.72,-3.15 -1.31,-0.19 -0.66,1.15 -7.6,-1.19 0,6.87 1.15,4.86 -2.31,9.5zm248.69 -164.96c-0.28,0.34 -0.71,0.73 -0.92,0.95l-2.71 2.8c-0.27,0.29 -0.64,0.67 -0.89,0.94l-1.71 1.96c-0.14,-0.28 -0.59,0.65 -0.85,1 3.43,3.56 -3.88,1.65 5.21,2.72 -11,13.95 -0.82,-1.07 0.22,16.3l4.88 2.18c4.83,-10.16 11.64,-15.03 24.24,-16.47l1.64 -0.13c0.31,-0.29 0.82,-0.5 1.05,-0.7 0.26,-0.22 0.8,-0.54 1.1,-0.81l4.36 -5.26 -3.5 -3.05c-14.14,-11.48 -10.41,-9.62 -19.31,-5.11 0.51,0.19 1.34,1.17 1.61,1.46l13.05 11.58c-13.23,-1.5 -10.41,-0.67 -13.04,1.63l-13.03 -8.13c6.5,-0.57 1.41,0 6.11,-2.36 5.93,-2.98 -1.6,-0.8 5.29,-2.54 -11.14,-11.24 10.8,3.54 -2.3,-3.34 -5.63,1.77 -5.62,3.18 -10.5,4.38zm60.08 36.45c4.51,0.39 4.28,1.25 9.79,1.4 -3,2.95 -3.21,-3.18 -1.57,3.57 0.71,2.93 -5.21,2.6 5.46,3.88 2.3,-9.73 1.75,-8.24 1.05,-18.58 -0.42,-6.07 -0.06,-13.4 -0.06,-19.61 -8.39,-2.53 -13.46,-1.62 -20.37,1.63 2.02,8.47 2.8,1.2 3.85,12.42 0.7,7.59 -0.37,7.32 1.85,15.29zm-127.14 198.96c-1.96,2.94 -7.91,7.03 -11.75,9.45 -7.29,4.59 -8.26,3.01 -15.97,0.17 -2.04,0.6 -1.46,0.22 -4.39,2.25 -4.77,3.3 -3.22,1.17 -3.77,4.14 -1.63,7.16 -1.33,1.42 1.02,4.72 2.72,3.81 2.68,-2.7 3.88,-5.39 13.78,2.82 -0.15,3.33 13.57,-0.79 7.11,-2.13 13.12,-0.42 18.99,1.85 4.36,10.83 2.32,12.06 -0.43,16.49 -0.26,0.42 -0.54,0.7 -0.81,1.15 -3.7,6.33 -1.35,0.56 -3.6,8.25 7.24,-4.51 1.54,2.76 6.57,-6.5 4.86,-5.32 10.52,-28.61 10.27,-37 -6.51,-1.82 -7.37,-0.99 -13.58,1.21zm-260.01 -273.93c-0.25,6.3 -0.94,20 -0.15,25.8 0.92,6.81 7.42,11.67 13.18,6.2 4.49,-4.27 2.57,-15.78 2.57,-22.34 -0.01,-11.1 -0.28,-14.4 -11.97,-13.75 -0.17,0.28 -0.46,0.41 -0.52,0.81 -0.09,0.6 -0.88,1.3 -1.04,1.48 -1.24,1.42 -2.02,1.77 -2.07,1.8zm297.5 175.99c-0.78,3.15 1.18,1.69 -5.79,1.69 1.2,2.84 1.05,2.84 1.92,6.56 20.42,1.37 11.18,5.12 21.63,10.55l2.44 0.54c1.32,-4.28 9.73,-10.75 13.3,-14.37l-2.03 0.25c-0.29,0.03 -0.81,0.11 -1.15,0.14 -14.37,1.19 -11.01,-1.63 -13.87,-3.69 4.38,-9.84 1.4,-5.83 7.91,-7.99 4.91,-1.62 3.32,2.65 6.61,-1.77 5.28,-3.13 5.55,-14.53 3.9,-20.58 -5.24,5.72 -6.28,13.83 -11.97,19.01 -5.17,4.72 -13.26,8.48 -22.9,9.66zm-191.88 -92.3c-8.94,-1.8 -22.85,-0.9 -33.79,-1.4 -3.05,4.86 -3.74,7.65 -1.38,14.24 7.9,2.6 26.96,2.7 34.83,-0.08 1.55,-4.34 1.53,-8.12 0.34,-12.76zm-152.08 -31.51c16.46,4.58 17.15,-7.16 7.9,-16.11 -6.39,-6.18 -10.5,-14.07 -21.47,-14.14 -13.72,13.34 11.73,19.95 13.57,30.25zm12.96 99.41c4.13,-7.24 -3.9,-17.01 -14.22,-7.86 -32.27,28.63 -9.2,31.12 -1.1,23.46 1.88,-1.78 14.68,-14.47 15.32,-15.6zm-42.31 -53.47c7.47,0 14.48,0.65 21.08,-2.19 5.14,-14.88 -4.8,-13.5 -17.82,-13.5 -7.46,0.02 -16.92,-1.56 -18.72,6.31 -2.3,10.01 8.75,9.38 15.46,9.38zm68.49 241.89c2.94,4.63 1.73,10.48 1.73,16.97 10.31,6.87 13.67,4.33 19.08,0.86 0.32,-0.21 0.86,-0.54 1.26,-0.86l0 -19.49c-6.58,2.49 -1.63,-1.07 -4.42,3.04 -3.37,4.96 -0.69,2.69 0.19,3.48 -1.93,-3.06 -1.93,-6.86 0.06,-9.85l-7.42 -4.33c-0.35,-0.2 -0.9,-0.41 -1.31,-0.69 -4.54,3.21 -6.72,5.51 -9.17,10.87zm151.62 -102.69c7.84,6.23 13.88,-6.99 13.48,23.62 -0.1,7.34 -1.65,6.85 2.78,10.25 7.78,-11.31 -6.68,-34.9 11.15,-32.73 13.67,1.67 7.23,22.61 9.44,33.26 6.83,-2.24 4.48,-10.86 4.31,-19.13 -0.33,-16.67 -6.32,-23.83 -22.13,-18.14 -10.9,3.92 -4.52,-4.64 -15.8,-1.36 -2.06,0.94 -1.63,0.03 -3.23,4.23zm229.21 186.01l-8.64 0.16 0.82 5.96 0.96 6.85c3.56,0.02 3.72,-0.59 6.83,1.03l9.39 8.8c3.12,4.82 0.18,3.77 0.17,3.78 -1.57,13.18 -0.95,1.49 3.25,5.88 2.63,-9.41 3.02,-22.61 9.43,-27.3 -0.92,-4.71 0.06,-4.99 -4.62,-5.78 -0.24,-0.05 -0.73,-0.08 -0.97,-0.1l-16.62 0.72zm-48.22 -4.42c4.59,-3.56 10.41,-1.87 10.97,-2.93 0.31,-0.57 1.06,-0.09 1.53,-0.31 -1.06,-5.22 -0.4,-1.54 -1.53,-4.1 -3.06,-6.93 -3.07,-6.73 -6.62,-8.3l0 6.79c-11.57,-0.17 -1.27,-4.14 -7.7,-13.22 -10.03,0.66 -9.58,2.61 -12.23,9.98l-1.45 3.66c-0.16,0.36 -0.4,0.76 -0.56,1.11 -0.16,0.33 -0.41,0.73 -0.57,1.05l-2.76 7.92c1.57,0.8 4.44,2.02 6.59,2.78 6.68,2.37 1.95,-0.75 7.72,2.92l6.61 -7.35zm-276.48 -88.01c0.39,0.3 1.04,0.13 1.26,0.75l7.79 5.04 9.06 -5.79 0 -22.82c-0.37,-0.29 -0.93,-1.17 -1.1,-0.86 -0.38,0.66 -1.51,-1.3 -2.03,-1.79 -0.32,-0.32 -2.53,-2.62 -2.67,-2.78l-7.63 3.14c-0.2,0.08 -0.68,0.16 -0.87,0.25 -2.62,1.24 -1.98,-0.22 -3.08,3.54 -1.02,3.55 -0.73,16.78 -0.73,21.32zm-59.32 -140.2c1.3,8.1 6.07,5.8 9.69,12.54 2.58,-2.75 1.47,-1.78 11.13,-2.04 5.35,-13.15 4.59,0.54 10.83,-12.12 -5.22,-7.41 -14.92,-9.91 -24.47,-9.03 -2.28,3.73 -3.31,7.18 -7.18,10.65zm0 0c3.87,-3.47 4.9,-6.92 7.18,-10.65 9.55,-0.88 19.25,1.62 24.47,9.03 -6.24,12.66 -5.48,-1.03 -10.83,12.12 -9.66,0.26 -8.55,-0.71 -11.13,2.04 2.4,1.86 5.69,3.71 12.86,2.06 4.7,-1.08 4.52,-2.44 8.45,-6.33 7.21,-7.12 6.11,-12.5 4.82,-23.88l-35.47 -0.32 -0.35 15.93zm431.45 95.45c-2.07,7.67 -5.69,10.52 -12.09,10.71l0 2.56c9.73,0.32 5.14,2.96 7.64,6.71l11.11 0 -0.02 -6.38c15.67,-0.31 12.3,-1.21 12.34,3.02l5.22 -4.46 -3.28 -15.6c-5.58,1.78 -2.85,2.73 -9.19,3.66 -4.12,0.61 -8.31,0.17 -11.73,-0.22zm-124.29 14.96c4.51,-2.44 1.14,-0.75 2.8,-0.32l6.18 2.39c-4.81,-23.59 0.5,-15.24 25.2,-15.12l-7.26 -6.07c-6.01,-2.44 -7.01,-4.3 -13.04,-6.42l-4.25 0.25c-9.57,4.97 -17.37,13.35 -9.63,25.29zm-86.38 -60.69l-1.43 19.22c-8.59,4.89 -15.37,-0.65 -12.21,14.08 33.49,6.74 19.91,-25.15 27.5,-30.36l-1.62 -0.71 4.83 -4.84c-15.32,4.27 -6.64,10.47 -10.38,24.03 -2.42,8.81 -12.79,11.52 -18.24,7.12 7.21,-10.9 12.63,6.89 13.91,-21.26 0.53,-11.62 6.4,-15.31 17.79,-15.95 1.29,-1.38 8.98,-1.07 -2.5,-2.45 -3.23,-0.39 -3.81,0.06 -6.69,0.3 -7.77,2.25 -8.86,2.77 -10.96,10.82zm73.07 -17.43l2.35 0 6.12 -5.77c-14.18,-1.42 -13.31,-18.06 -5.3,-24.62 8.76,-7.17 20.78,-0.8 22.86,7.23 5.22,-2.73 2.73,-0.53 5.89,-5.04 -10.45,-5.43 -1.21,-9.18 -21.63,-10.55 -9.67,1.7 -15.42,6.81 -18.09,15.58 -4.29,14.13 6.31,15.42 7.8,23.17zm97.88 236.95l5.07 -4.15c-4.2,-4.39 -4.82,7.3 -3.25,-5.88 0.01,-0.01 2.95,1.04 -0.17,-3.78l-9.39 -8.8c-3.11,-1.62 -3.27,-1.01 -6.83,-1.03l-0.96 -6.85c-5.14,1.81 -2.68,0.43 -4.18,5.73l2.03 17.14c5.78,3.89 10.24,4.42 15.46,2.48 3.51,2.94 4.39,-4.55 2.22,5.14zm46.69 -181.34c-2.91,5.51 -4.03,1.06 -6.97,7.55 3.42,0.39 7.61,0.83 11.73,0.22 6.34,-0.93 3.61,-1.88 9.19,-3.66l3.28 15.6c0.98,7.01 -0.11,3.47 2.38,4.6 3.49,-2.83 6.85,-7.38 5.47,-13.5 -2.11,-9.27 -6.54,-3.77 -9.23,-13.21 -7.39,0.08 -9.38,-0.19 -15.85,2.4zm-381.66 -51.55l-1.54 6.04c5.28,-1.6 8.96,-1.5 12.88,0.42 14.87,7.28 -4.72,19.95 -9.85,20.48 2.31,-10.02 7.15,-7.94 8.03,-15.65 -10.5,-0.31 -10.11,-0.31 -16.03,5.37 0.82,7.2 -0.2,2.85 2.32,4.31 2.28,-4.79 1.09,-4.61 7.16,-5.72 -1.15,3.38 -3.19,6.87 -6.14,8.74 3.2,6.26 1.96,5.12 8.26,8.19 5.66,-3.89 4.2,-4.07 8.12,-8.28 5.91,-6.34 7.41,-3.23 8.02,-12.96 -3.35,-5.48 -9.62,-9.03 -17.12,-8.98l0.31 -3.72 -4.42 1.76zm-22.61 -72.19c1.22,-2.55 2.73,-10.16 2.82,-12.15 0.38,-7.61 0.62,-5.92 -6.6,-6.52l-1.12 9.54c-4.48,0.32 -23.22,1.94 -24.7,2.35 0.01,5.12 3.52,7.42 3.54,7.39 0.14,-0.27 0.74,0.53 1.04,0.88 -2.86,-0.24 -2.08,1.1 -2.75,-1.49l27.77 0zm28.73 -115.31c-0.72,7.23 -0.45,1.05 1.77,3.74l2.32 -9c0.25,0.46 0.94,0.5 1.22,1.48l4.06 4.08c0.09,0.12 0.3,0.45 0.4,0.57l1.35 1.82c0.18,0.23 0.57,0.79 0.89,1.16 2.97,-3.72 1.3,-3.03 6.46,-3.53l2.46 0.76 3.63 -5.34c6.22,-9.33 -1.92,-14.41 -6.83,-13.19 -3.62,0.89 -7.19,5.84 -9.6,8.23 -2.02,2.02 -3.21,2.82 -5.02,4.79 -1.15,1.26 -1.15,1.36 -2.06,2.59 -0.12,0.16 -0.46,1.15 -0.54,0.91 -0.08,-0.23 -0.35,0.61 -0.51,0.93zm174.97 198.26l5.11 -1.53c-1.13,-3.15 -0.3,-2.23 -2.03,-4.53 -11.39,0.64 -17.26,4.33 -17.79,15.95 -1.28,28.15 -6.7,10.36 -13.91,21.26 5.45,4.4 15.82,1.69 18.24,-7.12 3.74,-13.56 -4.94,-19.76 10.38,-24.03zm-33.39 147.37c12.93,-1.01 3.21,-0.25 7.28,-4.16l2.26 -2.08c4.06,-2.77 5.83,-0.11 10.26,-14.71l-21.97 0.04 2.17 20.91zm-105.31 -151.76c12.13,-0.1 20.55,-2.66 26.54,7.83 -16.33,0 -5.72,-8.36 -27.6,0.57l-0.51 6.41 5.11 -0.83 9.71 -2.68 15.48 -0.89c6.86,1.27 1.97,0.83 4.25,-2.27 -6.08,-1.55 -3.17,-1.52 -7.44,-6.25 -5.06,-5.61 -3.55,-0.49 -6.53,-7.3l-15.39 0.99c-4.73,1.78 -1.92,0.43 -3.62,4.42zm153.21 22.97l5.27 -3.59 -1.72 -8.18c0.02,-2.8 0.34,-5.13 0.35,-8.29 0.02,-5.53 -0.71,-9.11 1.21,-14.29 3.45,0.94 1.23,-4.17 3.62,4.31 0.21,0.74 0.19,4.67 0.21,5.79l17.36 0.04c5.43,-0.52 2.14,-0.61 3.27,0.94 3.91,-2.09 2.79,-1.1 4.52,-4.16l-21.07 -0.85 -2.79 -9.62c-12.35,-1.09 -10.25,4.08 -10.3,14.56 -0.03,7.78 0.36,15.65 0.07,23.34zm124.1 -147.63l-7.16 1.58 5.99 11.76c2.96,5.89 1.76,-3.05 2.8,6.68 -2.32,-1.61 -1.62,1.15 -1.62,-6.52 3.06,-1.01 -0.18,-1.58 6.02,-0.85 0.41,0.05 1.65,0.58 2.13,0.85 4.84,-1.51 6.97,-10.04 7.85,-17.65 -10.03,1.03 -11.72,0.74 -16.01,4.15zm-118.83 144.04c2.23,-0.82 2.42,1 1.48,-1.83 4.31,-7.49 2.13,-3.77 2.63,-12.17 6.52,-1.75 8.95,-0.26 14.56,-1.81 3.53,-0.55 0.75,0.76 3.58,-1.12 2.57,-1.7 1.5,-0.81 2.05,-2.75 -1.13,-1.55 2.16,-1.46 -3.27,-0.94l-17.36 -0.04c-0.02,-1.12 0,-5.05 -0.21,-5.79 -2.39,-8.48 -0.17,-3.37 -3.62,-4.31 -1.92,5.18 -1.19,8.76 -1.21,14.29 -0.01,3.16 -0.33,5.49 -0.35,8.29l1.72 8.18zm-207.38 -9.09c5.92,-5.68 5.53,-5.68 16.03,-5.37 -0.88,7.71 -5.72,5.63 -8.03,15.65 5.13,-0.53 24.72,-13.2 9.85,-20.48 -3.92,-1.92 -7.6,-2.02 -12.88,-0.42 -2.92,0.68 -0.57,-2.62 -3.44,2.89 -1.75,3.36 -1.35,3.65 -1.53,7.73zm20.68 -80.24c3.83,6.23 5.06,8.31 15.37,7.88l3.55 -2.98 -0.86 -10.78c-3.51,-1.81 -1.29,-0.95 -4.36,-2.6 -2.94,-1.58 0.01,-0.39 -2.83,-1.19 -0.44,0.38 -3.15,2.64 -3.33,2.78l-7.54 6.89zm232.19 51.79l10.48 -7.34c-3.53,-1.23 -3.54,-0.79 -5.6,-2.59 -4.48,5.39 -0.23,3.79 -6.83,4.61l0.8 -9.4c8.65,-1.89 8.9,-1.38 12.15,5.18 2.95,-1.27 2.54,-0.7 4.01,-3.01 -2.93,-7.58 -11.17,-12.26 -18.5,-5.73 -11.46,10.21 3.46,18.24 3.49,18.28zm-240.24 -175.71c-2.01,1.21 -2.08,0.96 -4.36,2.83 0.09,7.87 3.19,14.51 11.61,10.04 1.11,-0.59 4.79,-4.33 5.99,-5.54 3.79,-3.85 2.89,-2.25 5.23,-7.01 -5.16,0.5 -3.49,-0.19 -6.46,3.53 -0.32,-0.37 -0.71,-0.93 -0.89,-1.16l-1.35 -1.82c-0.1,-0.12 -0.31,-0.45 -0.4,-0.57l-4.06 -4.08c-0.28,-0.98 -0.97,-1.02 -1.22,-1.48l-2.32 9c-2.22,-2.69 -2.49,3.49 -1.77,-3.74zm239.44 177.67l0.8 -1.96c-0.03,-0.04 -14.95,-8.07 -3.49,-18.28 7.33,-6.53 15.57,-1.85 18.5,5.73l1.75 -2.88c-2.08,-8.03 -14.1,-14.4 -22.86,-7.23 -8.01,6.56 -8.88,23.2 5.3,24.62zm-60.32 45.84c5.07,-0.97 1.87,0.76 6.62,-3.2l1.47 -2.17 -0.75 -8.88 -11.43 0.58c-0.39,-0.51 -0.88,-1.15 -1.16,-1.53 -0.25,-0.32 -0.76,-0.97 -1.02,-1.3l-1.56 -2.05 0.56 19.55 7.27 -1zm-142.85 -29.64c-3.65,8.03 -5.95,5.33 -7.67,14.35 1.65,1.8 -1.63,2.88 2.59,0.94l3.51 -0.48 0.51 -6.41c21.88,-8.93 11.27,-0.57 27.6,-0.57 -5.99,-10.49 -14.41,-7.93 -26.54,-7.83zm-28.68 -71.23c-0.25,-4.25 -2.13,-6.1 -2.62,-7.23 -4.16,-9.41 -1.34,-4.87 -0.98,-6.53l10.31 -0.5 -7.19 -8.42 -7.17 1.2c-7.06,5.95 -5.84,11.38 1.78,17.81 1.9,1.59 1.27,1.05 3.13,2.26l2.74 1.41zm0 0l0.46 1.28 7.54 -6.89c0.18,-0.14 2.89,-2.4 3.33,-2.78 -2.51,-5.58 0.26,-2.48 -4.62,-5.87l-10.31 0.5c-0.36,1.66 -3.18,-2.88 0.98,6.53 0.49,1.13 2.37,2.98 2.62,7.23zm299.67 97.8l-1.46 2.48c-0.2,0.46 -0.83,2.09 -0.99,2.64 -0.62,2.05 -0.7,4.02 -1.05,6.36 4.59,3.05 8.99,7.6 12.06,-0.22 0.98,-2.5 0.45,-16.06 0.75,-20.28 -8.55,0.48 -2.59,-0.18 -4.87,2.16 2.14,4.32 4.61,18.04 -3.76,18.67l-0.68 -11.81zm-129.67 -132.52l13.75 1.3 -0.69 -9.94c0.28,-3.2 0.45,-2.56 1.23,-4.18l-2.69 0.01c-4.73,1.22 -10.09,8.47 -11.6,12.81zm-67.3 80.58l-0.51 3.15c8.74,-4.02 10.11,0.35 12.8,-4.19 1.9,-3.21 1.32,-10.4 -0.38,-13.84l-11.91 14.88zm-29.41 47.41c0.99,7.71 -1.81,12.19 2.86,15.93 4.63,-3.73 3.88,-21.14 1.59,-23.63 -1.22,0.68 -1.51,0.63 -2.61,2.33 -2.34,3.62 -1.38,1.89 -1.84,5.37zm65.09 -92.95c16.57,2.86 4.44,1.67 9.49,-2.34 1.64,0.92 1.05,2.59 3.01,-1.15l1.54 -13.13c-2.51,2.07 -1.94,1.52 -4.25,4.4 -1.76,2.17 -1.61,2.18 -3.61,4.49 -2.74,3.17 -3.88,4.97 -6.18,7.73zm161.29 97.48l0.68 11.81c8.37,-0.63 5.9,-14.35 3.76,-18.67 -4.69,1.49 -4.83,1.67 -4.44,6.86zm-129.21 -28.24c1.73,2.3 0.9,1.38 2.03,4.53l-5.11 1.53 -4.83 4.84 5.98 -0.6c0.2,4.37 15.43,-8.36 3.8,-13.91 -5.23,-0.47 -7.07,-1.52 -11.06,1.46 2.88,-0.24 3.46,-0.69 6.69,-0.3 11.48,1.38 3.79,1.07 2.5,2.45zm72.67 -23.83l0.52 -2.2c-3.25,-6.56 -3.5,-7.07 -12.15,-5.18l-0.8 9.4c6.6,-0.82 2.35,0.78 6.83,-4.61 2.06,1.8 2.07,1.36 5.6,2.59zm87.09 65.92c-1.16,-8.13 0.17,-6.71 -3.26,-12.13 -0.45,0.42 -1.63,6.45 -3.83,-1.7 -2.69,-9.96 -0.72,-4.79 1.31,-6.32l-6.71 -2.65c1.71,5.61 1.59,8.03 4.39,13.05l4.7 6.77c0.3,0.31 0.69,0.67 0.98,0.96l2.42 2.02zm-141.58 -22.87l5.31 -2.99 0.04 -6.21c8.43,-1.19 4.05,0.09 5.61,1.21l2.53 0.76c1.24,-2.18 2.36,-3.81 3.7,-6.75 -5.61,1.55 -8.04,0.06 -14.56,1.81 -0.5,8.4 1.68,4.68 -2.63,12.17zm-171.22 2.13c4.29,-2 3.24,-0.8 6.18,-4.39 -4.22,1.94 -0.94,0.86 -2.59,-0.94 1.72,-9.02 4.02,-6.32 7.67,-14.35 -8.24,-1.57 -10.7,13.03 -11.26,19.68zm309.54 8.61c0.51,-5.83 0.61,-4.27 -2.52,-8.02 -2.03,1.53 -4,-3.64 -1.31,6.32 2.2,8.15 3.38,2.12 3.83,1.7zm-344.86 -13.69l1.02 3.02c2.95,-1.87 4.99,-5.36 6.14,-8.74 -6.07,1.11 -4.88,0.93 -7.16,5.72zm211.85 -0.04l2.21 0c1.39,-3.8 0.75,-2.47 3.44,-5 -1.56,-1.12 2.82,-2.4 -5.61,-1.21l-0.04 6.21z"/>
 </g>
</svg>
