<?xml version="1.0" encoding="UTF-8"?>
<!DOCTYPE svg PUBLIC "-//W3C//DTD SVG 1.1//EN" "http://www.w3.org/Graphics/SVG/1.1/DTD/svg11.dtd">
<!-- Creator: CorelDRAW 2019 (64-Bit) -->
<svg xmlns="http://www.w3.org/2000/svg" xml:space="preserve" width="100%" height="100%" version="1.1" style="shape-rendering:geometricPrecision; text-rendering:geometricPrecision; image-rendering:optimizeQuality; fill-rule:evenodd; clip-rule:evenodd"
viewBox="0 0 362.28 465.68"
 xmlns:xlink="http://www.w3.org/1999/xlink">
 <defs>
  <style type="text/css">
   <![CDATA[
    .fil0 {fill:#A6A182}
   ]]>
  </style>
 </defs>
 <g id="Layer_x0020_1">
  <metadata id="CorelCorpID_0Corel-Layer"/>
  <path class="fil0" d="M319.84 415.71c2.36,-10.68 1.89,-351 -0.05,-358.27 -6.02,-1.85 -22.11,-2.04 -29.22,-0.29 -1.84,3.12 -2.46,3.99 -1.44,8.43 5.71,2.66 12.82,1.7 20.76,1.74l-0.01 338.25 -242.38 -0.03 0.01 -338.25c17.25,-0.03 34.5,-0.01 51.75,-0.01 13.35,0 48.02,3.55 40.22,-8.46 -2.97,-4.58 -89.89,-2.84 -100.06,-2.28 -5.6,6.83 -2.87,31.15 -2.87,41.03l0 227.43c0,18.05 -2.16,77.8 0.98,90.47 7.11,1.98 249.67,2.45 262.31,0.24zm-105.11 -386.95c23.92,-6.55 43.07,10.35 47.28,28.95 2.66,11.71 -11.11,117.83 -13.41,138.1 -2.4,21.19 -2.24,53.96 -15.49,61.08 -10.99,5.91 -22.41,-1.13 -25.98,-8.94 -3.3,-7.22 -18.16,-151.79 -20.39,-171.05 -1.49,-12.87 -0.65,-22.9 5.4,-32.16 4.31,-6.61 12.64,-13.25 22.59,-15.98zm-38.66 25.22c-2.82,20.8 2.63,49.95 5.06,71.29 2.6,22.71 5.1,45.26 7.72,68.01 1.92,16.66 2.91,53.65 11.64,64.82 13.11,16.77 37.74,15.47 49.39,-2.42 7.51,-11.53 15.56,-112.26 18.15,-134.12 2.01,-16.97 8.32,-53.88 4,-69.01 -5.2,-18.17 -19.98,-32.61 -41.44,-35.56 -13.72,-2.49 -27.39,3.23 -36.24,9.62 -3.28,2.36 -8.82,8.04 -11.16,11.61 -3.1,4.75 -5.46,12.31 -7.12,15.76zm154.53 338.75c9.52,-0.59 23.09,1.72 30.07,-2.21 2.94,-3.63 0.93,-243.57 1.03,-290.55 0.01,-3.16 0.13,-6.51 0.06,-9.64 -0.05,-1.81 -0.07,-2.88 -0.34,-4.68l-0.87 -3.69c-0.04,-0.17 -0.18,-0.52 -0.25,-0.78 -8.02,-1.88 -24.16,-1.74 -30.87,0.21 -3.07,13.56 9.92,9.76 21.37,9.7l0 290.68c-11.78,-0.13 -27.72,-2.68 -20.2,10.96zm-113.24 -87.36c38.89,-9.38 53.08,49.58 14.39,59.09 -18.08,4.44 -33.42,-8.19 -36.86,-21.76 -4.9,-19.41 8.03,-33.85 22.47,-37.33zm-34.03 35.2c6.8,52.63 88.61,44.39 82.21,-10.79 -6.12,-52.87 -89.46,-45.37 -82.21,10.79zm10.02 123.43c8.35,2.8 107.64,1.25 124.61,1.25l-1.19 0c12.03,0 13.03,-10.95 1.19,-10.95l-117.3 -0.02c-8.04,0 -9.86,2.75 -7.31,9.72zm-95.1 -8.98c-1.4,4.23 -2.6,5.51 1.6,9.42 5.28,1.73 72.95,1.36 79.94,-0.01 1.59,-4.8 1.69,-4.8 -0.09,-9.45 -6.58,-1.17 -78.22,-1.57 -81.45,0.04zm37.77 -194.11c-7.98,0 -15.97,0.05 -23.94,0 -5.45,-0.04 -19.23,-1.74 -15.32,7.84 1.89,4.63 14.52,3.05 20.11,3.05l46.69 0c5.97,0.03 16.91,1.73 15.62,-6.49 -1.29,-8.26 -35.49,-4.4 -43.16,-4.4zm30.21 -60.09c3.08,-10.32 -2.92,-9.85 -12.23,-9.75l-45.56 -0.03c-8.94,-0.1 -14.17,0.31 -11.1,9.83 7.42,2.15 61.67,2.2 68.89,-0.05zm-69.01 -78.61c-3.57,13.16 7.92,9.8 31.62,9.8 22.05,0 33.98,3.34 30.28,-9.65 -6.94,-2.33 -54.47,-2.25 -61.9,-0.15zm23.24 219.56c6.96,0 21.66,2.74 19.35,-6.96 -1.55,-6.5 -17.09,-3.96 -24.14,-3.97 -6.92,-0.01 -21.92,-2.68 -19.13,7.33 1.65,5.92 17.27,3.6 23.92,3.6zm-63.83 -332.77c0,13.54 -2.83,33.98 5.28,34.46 8.68,0.51 5.68,-17.37 5.68,-33.27 0,-13.5 -10.96,-13.25 -10.96,-1.19zm-12.36 36.12c3.49,-8.86 -4.84,-13.11 -10.54,-18.82 -2.84,-2.83 -13.45,-16.77 -19.1,-13.15 -8.1,5.19 7.99,17.47 10.19,19.67 5.46,5.45 10.16,13.83 19.45,12.3zm-35.13 22.43l32.91 -0.65c5.61,-14.05 -11.83,-10.27 -23.33,-10.3 -4.41,-0.01 -13.93,-1.14 -16.72,1.67 -5.18,5.2 0.62,9.28 7.14,9.28zm45.15 387.28c-6.76,3.51 -2.95,10.25 6.22,10.48 4.39,0.12 19.05,0.67 22.17,-0.99 5.87,-3.12 4.1,-10.05 -6.41,-10.13 -4.37,-0.03 -19.24,-0.78 -21.98,0.64z"/>
 </g>
</svg>
