<?xml version="1.0" encoding="UTF-8"?>
<!DOCTYPE svg PUBLIC "-//W3C//DTD SVG 1.1//EN" "http://www.w3.org/Graphics/SVG/1.1/DTD/svg11.dtd">
<!-- Creator: CorelDRAW 2019 (64-Bit) -->
<svg xmlns="http://www.w3.org/2000/svg" xml:space="preserve" width="100%" height="100%" version="1.1" style="shape-rendering:geometricPrecision; text-rendering:geometricPrecision; image-rendering:optimizeQuality; fill-rule:evenodd; clip-rule:evenodd"
viewBox="0 0 818.8 465.67"
 xmlns:xlink="http://www.w3.org/1999/xlink">
 <defs>
  <style type="text/css">
   <![CDATA[
    .fil0 {fill:#A6A182}
   ]]>
  </style>
 </defs>
 <g id="Layer_x0020_1">
  <metadata id="CorelCorpID_0Corel-Layer"/>
  <path class="fil0" d="M175.05 2.47c-0.18,8.39 -6.77,26.99 -6.77,36.14 -9.57,0.21 -19.12,6.04 -27.11,7.9l-25.71 -25.11c-5.52,1.55 -19.8,9.62 -24.9,12.9 -6.15,3.96 -18.05,11.33 -21.67,16.73 1.37,5.87 3.84,12.08 5.79,17.93 10.09,30.15 5.02,14.52 -10.31,37.41l-39.52 -10.16c-7.1,13.42 -20.81,31.21 -24.85,48.56l22.59 21.46 -17.8 30.45 0 88.14c5.19,-8.74 9.75,-16.63 13.23,-22.65 38.29,-66.33 90.91,-184.03 180.75,-184.03 38.97,0 56,5.53 86.16,27.9 4.26,3.17 5.34,4.79 9.04,7.9 10.93,9.19 14.88,14.55 24.17,25.53 8.71,10.31 38.02,52.7 39.87,60.64 3.73,-2.73 14.11,-23.28 17.42,-28.88l29.41 -51.95c2.21,-3.54 3.51,-4.35 1.87,-8.39 -4.38,-10.85 -14.12,-17.63 -20.46,-27.11l-38.4 12.43c-5.59,-3.75 -11.77,-11.59 -18.07,-15.82l10.16 -39.52c-27.98,-18.74 -27.49,-14.83 -48.56,-25.98 -3.9,5.82 -23.73,26.01 -25.98,29.36 -5.33,-1.24 -10.04,-3.14 -15.81,-4.51 -11.95,-2.82 -8.28,0.91 -16.2,-26.72 -4.51,-15.72 0.95,-12.81 -31.23,-12.81 -10.55,0 -18.29,2.26 -27.11,2.26zm107.29 315.09c3.46,-2.31 21.46,-23.42 21.46,-27.1l0 -116.33c0,-2.36 -7.92,-11.58 -9.8,-13.91l-11.66 -13.19 0 170.53zm217.98 -143.43l0 116.33c0,4.02 17.8,24.66 21.45,27.1l0 -170.53c-3.1,2.08 -21.45,24.1 -21.45,27.1zm173.92 143.43c4.9,-1.3 14.46,-15.62 18.08,-20.32 2.14,-2.77 4.51,-4.38 4.51,-9.04l0 -112.94c0,-3.12 -16.81,-24.36 -22.59,-28.23l0 170.53zm-566.95 -142.3l0 112.94c0,4.7 16.96,27.86 22.59,29.36l0 -170.53c-5.81,3.89 -22.59,25.14 -22.59,28.23zm479.99 -65.5l0 242.82c0,5.39 7.56,3.38 21.46,3.38l0 -246.2c-5.43,0 -5.23,-1.13 -9.04,-1.13 -5.73,0 -6.15,1.13 -12.42,1.13zm-393.03 0l0 242.82c0,5.2 6.35,3.38 19.2,3.38 2.6,0 3.39,-0.78 3.39,-3.38l0 -242.82c-5.99,0 -6.51,-1.13 -11.29,-1.13 -4.79,0 -5.3,1.13 -11.3,1.13zm403.19 277.83c-38.84,0 -69.68,-18.3 -94.58,-43.2l-16.11 -17.78c-16.02,-20.68 -24.94,-33.95 -38.26,-56.61 -2.3,-3.91 -0.11,-3.18 -4.64,-4.39 -0.98,4.18 -6.95,13.36 -9.39,17.72l-33.53 51.18c2.35,10.09 22.16,41.48 29.36,46.3 8.85,-2.06 29.89,-10.68 37.27,-11.29 1.57,5.88 12.11,13.7 16.94,16.94 -0.12,5.44 -7.34,31.15 -9.03,38.4 13.42,7.1 31.22,20.8 48.56,24.84 5.62,-8.38 17.73,-16.78 22.59,-25.97 8.87,0.74 19.04,5.41 29.36,5.64 0.17,7.66 8.39,27.18 9.04,35.02 18.71,0 17.47,3.15 45.87,-0.44 9.85,-1.25 8.5,2.87 12.38,-16.98 0.93,-4.75 3.84,-21.44 5.99,-23.38 1.68,-1.52 19.32,-6.98 22.72,-7.77 5.95,8.88 25.22,23.73 28.24,28.24l24.2 -13.07c8.34,-4.98 14.49,-10.07 22.1,-15.17 -0.43,-5.16 -4.29,-14.49 -6.08,-19.89 -2.23,-6.7 -3.64,-14 -6.34,-19.64 7.12,-4.76 13.04,-14.33 16.94,-16.94 6.52,1.52 30.89,11.8 38.4,12.43 3.61,-6.83 8.44,-13.12 12.89,-19.86 16.55,-25.05 11.36,-23.39 -2.37,-40.36 -17.38,-21.46 -16.75,-15.03 -6.06,-33.58l16.99 -30.44c2.64,-5.13 6.47,-9.61 7.91,-15.81l-18.99 -31.83c-2.66,-4.4 -2.98,-7.27 -6.99,-9.96 -0.95,4.11 -39.22,71.27 -43.55,78.43l-29.4 45.13 -27.88 33.11c-18.22,15.05 -27.4,24.48 -52.09,33.74 -10.9,4.09 -28.02,7.24 -42.46,7.24zm-391.89 0c-21.89,0 -39.66,-5.7 -54.59,-13.18 -8.09,-4.05 -14.33,-7.91 -21.09,-12.79 -2.6,-1.88 -6.89,-5.24 -9.33,-7.61l-9.61 -8.46c-3.31,-3.08 -4.38,-5.65 -7.86,-9.08 -11.41,-11.25 -46.45,-60.51 -48.86,-70.86 -3.79,1.01 -3.48,1.77 -7.53,9.41l-18.45 32.38c6.89,13.01 20.32,31.12 29.36,42.93l16.66 19.47c20.27,20.04 36.57,35.03 63.55,47.14 44.38,19.92 106.63,18.53 148.41,-6.28 11.37,-6.76 15.88,-9.24 26.98,-18.2 16.74,-13.51 31.2,-29.15 44.02,-46.33 32.03,-42.93 43.95,-70.27 69.22,-112.62l16.29 -28.88c5.2,-9.63 11.39,-18.81 16.99,-28.18 26.5,-44.39 74.07,-98.31 129.83,-98.31 27.35,0 44.2,0.9 67.83,14.61 59.35,34.44 85.73,100.71 94.8,107.36 0.92,-3.96 5.84,-11.25 7.85,-14.73 2.89,-5.01 5.15,-9.35 8.18,-14.41 9.98,-16.63 9.29,-11.94 -1.58,-28.23 -7.31,-10.98 -20.07,-28.99 -28.86,-38.9 -33.89,-38.24 -75.16,-69.75 -140.32,-69.75 -210.91,0 -213.5,353.5 -391.89,353.5z"/>
 </g>
</svg>
