<?xml version="1.0" encoding="UTF-8"?>
<!DOCTYPE svg PUBLIC "-//W3C//DTD SVG 1.1//EN" "http://www.w3.org/Graphics/SVG/1.1/DTD/svg11.dtd">
<!-- Creator: CorelDRAW 2019 (64-Bit) -->
<svg xmlns="http://www.w3.org/2000/svg" xml:space="preserve" width="100%" height="100%" version="1.1" style="shape-rendering:geometricPrecision; text-rendering:geometricPrecision; image-rendering:optimizeQuality; fill-rule:evenodd; clip-rule:evenodd"
viewBox="0 0 392.16 465.67"
 xmlns:xlink="http://www.w3.org/1999/xlink">
 <defs>
  <style type="text/css">
   <![CDATA[
    .fil0 {fill:#A6A182}
   ]]>
  </style>
 </defs>
 <g id="Layer_x0020_1">
  <metadata id="CorelCorpID_0Corel-Layer"/>
  <path class="fil0" d="M151.72 436.22l88.73 -0.06c-3.97,8.02 -0.08,3.29 -7.25,8.84 -1.4,1.08 -8.48,5.02 -10.86,6.07 -7.93,3.52 -16.75,4.61 -26.42,4.6 -21.51,-0.02 -37.05,-6.09 -44.2,-19.45zm-11.33 -24.88l110.66 -0.28 -3.05 16.4 -103.81 -0.12 -3.8 -16zm0.42 -24.45l111.04 -0.05 -0.29 15.03 -111.64 -0.13 0.89 -14.85zm-1.01 -23.42l112.63 -0.02 -0.02 10.07 -0.9 4.07 -111.43 0.04 -0.28 -14.16zm0.08 -9.1c-4.3,-66.23 -81.5,-72.8 -68.23,-168.28 8.35,-60.09 59.26,-109.74 126.72,-108.6 107.81,1.82 158.83,126.94 95.77,204.44 -10.79,13.27 -12.54,11.35 -26.02,32.39 -4.43,6.92 -6.92,11.4 -9.64,19.52 -8.84,26.33 3.92,20.74 -57.92,20.62l0.47 -63.29c26.94,-0.1 19.12,0.81 21.36,-5.28 -3.84,-6.14 -49.14,-6.44 -52.51,0 2.23,6.54 -3.49,3.9 8.75,5.4 2.28,0.28 9.9,-0.25 12.98,-0.3l0.08 63.59 -51.81 -0.21zm-77.61 -136.63c5.93,61.84 43.98,78.69 59.67,105.59 25.7,44.08 -10.45,103.23 34.61,130.96 42.81,26.35 99.73,4.72 104.33,-42.33 6.41,-65.55 -13.48,-61.46 40.76,-125.04 53.2,-62.36 32.83,-180.27 -63.08,-211.61 -97.25,-31.79 -185.43,47.16 -176.29,142.43zm93.02 -50.37c1.34,-17.78 -2.45,-28.87 7.69,-43.42 6.09,-8.73 16.34,-17.58 33.01,-17.52 44.97,0.16 39.96,46.26 40.89,60.87l15.78 3.18c2.33,13.7 2.41,66.37 -0.26,79.63 -11.24,3.76 -101.7,4.78 -110.04,-0.53 -7.88,-6.69 -3.99,-71.34 -2.75,-79.22l15.68 -2.99zm-8.79 -8.63c-18.28,5.79 -17.52,9.48 -17.41,32.19 0.38,80.48 -10.84,70.28 71.7,70.28 53.35,0 62.47,6.77 62.23,-31.2 -0.1,-15.95 0.6,-33.05 0.02,-48.82 -0.85,-22.73 -13.55,-14.86 -17.23,-26.74 -0.17,-33.48 -18.11,-59.07 -52.38,-57.18 -36.64,2.02 -46.33,30.76 -46.93,61.47zm29.06 0.54c-0.48,-17.04 1.4,-34.57 22.4,-32.85 16.53,1.36 18.96,15.33 18.62,32.51l-41.02 0.34zm-8.28 8.96l57.59 -0.04c12.69,-67.42 -69.3,-70.68 -57.59,0.04zm31.02 39.62c-0.12,3.7 0.06,3.18 -0.69,6.74l-3.34 -7.37c-6.18,-5.74 -3.73,-0.42 -3.31,-8.97 12.24,-7.13 12.99,2.55 7.34,9.6zm-7.58 -20.48c-9.61,3.98 -11.14,11.98 -7.16,23.06 15.47,42.95 27.86,-5.03 27.71,-9.74 -0.3,-10.19 -9.89,-17.74 -20.55,-13.32zm-75.89 -170.41c-5.03,3.74 -6.5,-3.33 -2.36,8.7l10.73 23.82c5.92,13.74 -0.13,7.45 9.44,7.11 4.23,-6.88 -5.51,-21.41 -10.86,-32.47 -4.42,-9.15 -2.86,-6.7 -6.95,-7.16zm233.76 220.21c2.22,1.7 0.6,1.64 4.8,3.14l18.65 3.45c11.89,2.18 18.26,6.93 20.12,-4.13 -7.92,-5.06 -31.32,-7.76 -41.72,-8.56l-1.85 6.1zm-80.85 -176.57c6.71,-2.19 17.59,-30.21 19.87,-37.59l-6.33 -4.06c-5.4,6.1 -7.48,13.36 -10.65,20.4 -10.56,23.43 -9.36,16.09 -2.89,21.25zm53.45 233.9c-2.94,10.17 -6.82,0.81 14.94,16.69 19.68,14.37 16.15,13.41 21.71,6.9 -2.01,-5.95 -29.61,-23.58 -29.73,-23.62 -13.33,-5.13 -2.32,-1.37 -6.92,0.03zm-321.19 -52.43c3.78,5.13 -5.71,6.82 21.38,0.81 9.47,-2.1 17.47,-1.58 21.94,-8.12 -3.54,-6.09 6.25,-7.31 -21.37,-1.38 -29.94,6.42 -17.93,2.26 -21.95,8.69zm348.71 -77.89c4.36,6.43 -3.01,5.9 20.12,0.09 18.46,-4.64 18.39,-2.48 22.73,-9.83 -4.58,-6.44 3.56,-6.7 -20.53,0.04 -21.31,5.97 -18.16,1.06 -22.32,9.7zm-276.14 131.1c-7.58,3.01 -4.49,1.92 -11.2,6.97 -4.26,3.22 -32.09,23.01 -18.95,24.56 5.08,0.59 14.9,-10.33 19.85,-13.88 10.14,-7.25 15.24,-6.51 10.3,-17.65zm1.65 -194.22l3.12 -4.22c-2.29,-7.05 -25.84,-25.18 -32.33,-28.04 -2.86,6.05 -6.58,3.12 -1.61,9.15 2.45,2.97 6.62,4.48 10.04,7.31 3.9,3.23 4.31,4.83 8.66,8.22 3.71,2.89 7.42,5.32 12.12,7.58zm244.02 -0.17l4.02 5.38c13.43,-7.11 20.97,-18.57 32.84,-24.19 -1.57,-4.98 -2.21,-6.15 -4.54,-9.17l-16.05 13.15c-7.5,5.8 -10.58,7.92 -16.27,14.83zm-316.99 51.12c3.19,6.81 -3.99,2.56 22.01,9.82 24.73,6.9 18.81,5.3 20.78,-2.52l-32.84 -10.49c-12,-2.88 -5.95,-0.33 -9.95,3.19zm194.16 -108.59l8.28 0c-0.66,-14.46 1.75,-35.29 -2.9,-43.43 -6.35,2.99 -3.25,-2.16 -5.15,5.71 -0.01,0.04 0.01,11.43 0.02,12.43 0.14,8.45 0.06,16.84 -0.25,25.29z"/>
 </g>
</svg>
