<?xml version="1.0" encoding="UTF-8"?>
<!DOCTYPE svg PUBLIC "-//W3C//DTD SVG 1.1//EN" "http://www.w3.org/Graphics/SVG/1.1/DTD/svg11.dtd">
<!-- Creator: CorelDRAW 2019 (64-Bit) -->
<svg xmlns="http://www.w3.org/2000/svg" xml:space="preserve" width="100%" height="100%" version="1.1" style="shape-rendering:geometricPrecision; text-rendering:geometricPrecision; image-rendering:optimizeQuality; fill-rule:evenodd; clip-rule:evenodd"
viewBox="0 0 527.13 465.67"
 xmlns:xlink="http://www.w3.org/1999/xlink">
 <defs>
  <style type="text/css">
   <![CDATA[
    .fil0 {fill:#A6A182}
   ]]>
  </style>
 </defs>
 <g id="Layer_x0020_1">
  <metadata id="CorelCorpID_0Corel-Layer"/>
  <g id="_1390547472912">
   <path class="fil0" d="M247.05 434c4.86,-9.19 10.33,-18.82 13.79,-29.28l10.28 -32.8c3.86,1.85 8.54,2.92 13.05,4.69l38.9 18.12c-2.51,3.74 -11.13,9.54 -15.46,12.41 -14.99,9.94 -21.1,13.36 -38.11,20.18 -7.53,3.01 -14.25,4.77 -22.45,6.68zm-158.37 -39.27l53.21 -22.81c0.35,15.62 15.29,47.88 22.81,62.08 -23.9,-5.57 -39.73,-12.89 -59.81,-26.34 -3.81,-2.55 -14.03,-9.96 -16.21,-12.93zm78.55 -29.14c10.61,0 25.29,-2.54 44.35,-2.54 12.82,0 21.22,2.54 32.94,2.54 -0.19,8.52 -10.07,35.13 -13.5,42.24 -14.04,29.15 -23.78,43.11 -40.43,18.01 -9.6,-14.47 -21.17,-43.21 -23.36,-60.25zm-139.36 -92.49l101.35 0c0,30.84 6.34,66.28 6.34,73.48 -29.3,6.83 -62.08,28.72 -67.15,29.14l-14.46 -21.01c-5.09,-7.72 -8.41,-14.74 -12.18,-23.29 -6.55,-14.84 -13.9,-37.02 -13.9,-58.32zm222.98 67.15c-6.79,-0.15 -22.82,-3.8 -39.27,-3.8 -27.11,0 -38.8,3.53 -50.68,3.8 0,-11.09 -5.07,-35.7 -5.07,-67.15l101.36 0 -4.15 50.33c-0.64,5.02 -2.19,10.27 -2.19,16.82zm-95.02 -103.89c0,-9.96 0.48,-19.16 1.8,-28.61l3.27 -28.4c23.15,0 23.66,6.07 68.3,2.42 6.88,-0.56 14.09,-2.42 21.65,-2.42l6.34 67.14 -101.36 0 0 -10.13zm-26.61 2.53l0 7.6 -102.62 0c1.67,-3.47 1.69,-11.58 2.34,-15.4 4.16,-24.73 11.65,-44.95 24.8,-66.41 3.3,-5.4 11.64,-17.93 15.94,-20.81l30.82 16.06c12.85,5.99 28.92,10.13 35.06,13.08l-4.03 31.45c-1.23,10.81 -2.31,21.82 -2.31,34.43zm76.02 -158.37c17.44,0 38.09,58 39.28,72.22 -21.09,4.91 -57.53,4.6 -77.29,0 1.11,-13.3 22.69,-72.22 38.01,-72.22zm-63.35 65.89c-9.94,-0.23 -30.14,-10.82 -39.43,-15.05 -4.39,-1.99 -8.43,-5.4 -12.51,-6.49 1.87,-7.02 27.25,-21.27 32.93,-24.08 7.87,-3.91 31.59,-14.97 41.82,-15.2 -2.54,4.8 -4.71,7.46 -7.07,13.2 -5.25,12.76 -14.63,34.37 -15.74,47.62zm-141.89 110.22c0,43.79 14,90.01 37.45,120.91 16.53,21.78 16.81,22.15 37,40.29 34.75,31.24 87.12,47.84 134.59,47.84 71.38,0 146.24,-45.31 176.97,-106.83 3.94,-7.89 11.14,-20.45 13.07,-28.73 -21.85,0 -16.08,-6.39 -25.34,-8.87 -1.99,8.57 -8.87,22.82 -13.4,29.67 -3.87,5.84 -12.98,20.93 -18.27,24.81 -4.12,-1.1 -10.52,-5.65 -14.65,-8.15 -5.39,-3.27 -10.41,-5.89 -15.93,-8.14 -10.93,-4.47 -23.18,-10.02 -35.3,-12.85 0.91,-10.9 3.7,-24.33 4.87,-35.67 1.14,-11.12 0.57,-28.52 2.73,-37.81l43.08 0c-3.72,-5.56 -11.63,-12.25 -16.79,-17.42 -11.04,-11.05 -5.72,-9.19 -26.29,-9.19 -1.29,-5.52 -0.02,-17.57 -2.71,-22.63 -9.17,-17.28 -14.71,-16.13 -25.32,-51.96 -1.82,-6.15 -3.28,-13.25 -4.42,-20.92 -6.59,-44.39 9.44,-44.89 -4.29,-65.39 5.57,0.13 3.95,0.86 8.87,1.27 3.86,-7.3 6.08,-16.41 10.13,-24.07 -4.11,-0.96 -7.15,-2.12 -11.89,-3.32 -56.97,-14.39 -122.33,-1.1 -167.67,32.8 -32.27,24.14 -50.86,46.36 -67.92,82.85 -9.97,21.34 -18.57,50.85 -18.57,81.51z"/>
   <path class="fil0" d="M392.75 295.9c-3.81,-5.68 -52.09,-52.72 -61.13,-61.76 -23.14,-23.14 -38.7,-38.62 -47.3,-76.86 -7.04,-31.28 -0.63,-60.27 15.2,-86.37 15.3,-25.22 51.79,-49.93 90.69,-49.93 48.75,0 83.89,22.52 103.48,58.69 12.01,22.17 15.66,52.56 10.02,77.61 -10.95,48.66 -42.81,72.38 -78.34,107.9 -5.58,5.59 -10.27,10.22 -15.83,15.84l-16.79 14.88zm-131.76 -164.7c0,43.44 14.76,70.5 38.9,99.2 14.14,16.82 50.06,51.22 68.47,69.62 3.47,3.48 6.59,7.02 10.25,10.03 21.98,18.06 37.44,-6.41 60.07,-29.03 8.76,-8.77 42.27,-41.33 48.36,-49.2 3.44,-4.45 5.94,-6.14 9.43,-10.84 30.68,-41.36 41.15,-97.19 18.34,-144.7 -14.31,-29.83 -30.27,-43.75 -55.93,-59.35 -4.23,-2.57 -6.12,-3.29 -11.11,-5.37 -36.95,-15.41 -70.55,-15.41 -107.51,0 -8.57,3.58 -24,12.47 -30.81,18.61 -23.35,21.04 -36.4,38.29 -44.43,70.86 -2.2,8.96 -4.03,19.43 -4.03,30.17z"/>
   <path class="fil0" d="M354.74 132.47c0,-21.43 17.77,-39.28 39.28,-39.28 49.76,0 53.6,75.38 1.01,78.18 -21.12,1.12 -40.29,-17.66 -40.29,-38.9zm-20.27 0c0,32.18 27.56,59.54 59.55,59.54 52.2,0 79.32,-63.78 42.79,-101.07 -38.09,-38.88 -102.34,-11 -102.34,41.53z"/>
  </g>
 </g>
</svg>
