<?xml version="1.0" encoding="UTF-8"?>
<!DOCTYPE svg PUBLIC "-//W3C//DTD SVG 1.1//EN" "http://www.w3.org/Graphics/SVG/1.1/DTD/svg11.dtd">
<!-- Creator: CorelDRAW 2019 (64-Bit) -->
<svg xmlns="http://www.w3.org/2000/svg" xml:space="preserve" width="100%" height="100%" version="1.1" style="shape-rendering:geometricPrecision; text-rendering:geometricPrecision; image-rendering:optimizeQuality; fill-rule:evenodd; clip-rule:evenodd"
viewBox="0 0 539.63 465.67"
 xmlns:xlink="http://www.w3.org/1999/xlink">
 <defs>
  <style type="text/css">
   <![CDATA[
    .fil0 {fill:#A6A182}
   ]]>
  </style>
 </defs>
 <g id="Layer_x0020_1">
  <metadata id="CorelCorpID_0Corel-Layer"/>
  <path class="fil0" d="M156.8 384.23c-35.46,-14.09 -108.58,15.43 -122.02,-39.82 -3.65,-15 -1.71,-32.5 -1.68,-48.08 0.5,-294.65 -28.25,-263.23 158.01,-263.23 69.78,0 139.55,0 209.33,0 107.52,-0.01 105.2,0.88 105.2,108.16 -0.01,212.01 23.84,238.66 -81.94,238.32 -34.99,-0.11 -179.17,-6.46 -200.82,6.54 -21.67,13 -42.29,31.16 -62.98,40.77l-3.1 -42.66zm-29.37 27.02c0,26.71 -2.63,34.78 7.54,52.84 49.83,12.24 73.47,-50.84 121.79,-53.02 19.54,-0.89 42.34,0.18 62.27,0.18 75.39,0 176.23,15.87 205.92,-36.98 22.61,-40.26 12.35,-174.36 12.35,-229.13 0,-93.15 0.15,-144.26 -101.96,-143.8 -63.12,0.28 -312.29,-3.44 -360.56,0.42 -34.34,2.75 -60.85,25.2 -69.72,54.46 -8.68,28.62 -3.57,193.13 -3.6,236.22 -0.07,105.7 23.18,118.81 125.97,118.81zm1.04 -219.59c12.92,-7.29 31.29,-6.17 40.67,-14.21 8.27,-7.08 11.36,-23.02 21.97,-31.41 7.32,9.13 14.38,25.99 21.64,31.69 10.78,8.46 27.67,6.52 39.84,13.93 -25.98,38.07 -26.84,12.43 -22.29,73.73 -56.85,-19.38 -25.59,-15.94 -79.67,-0.07 5.12,-76.23 -3.07,-34.97 -22.16,-73.66zm-36.1 -25.06c-11.55,35.2 0.64,33.08 19,54.39 18.53,21.5 2.56,40.95 9,73.36 33.34,22.54 43.08,-9.18 70.52,-8.58 27.54,0.6 38.37,31.76 69.52,7.16 5.71,-24.73 -1.13,-38.86 -0.04,-63.29 15.23,-13.88 37.59,-26.69 30.68,-57.18 -13.87,-14.07 -44.73,-10.97 -58.48,-22.24 -14.72,-12.07 -14.27,-42.49 -37.77,-45.05 -41.09,-4.48 -15.92,41.55 -68.52,52.52 -12.84,2.68 -25.2,6.14 -33.91,8.91zm225.87 -12.29c21.53,9.33 86.64,4.91 113.21,4.91 16.55,0 37.24,-6.8 23.28,-25.28 -8.58,-11.35 -91.48,-6.85 -108.83,-6.8 -26.08,0.08 -31.27,2.5 -27.66,27.17zm27.93 67.73c40.67,0.05 67.68,1.38 108.23,-2.6l2.64 -24.9c-15.09,-5.07 -131.11,-13.25 -138.51,6.06 -8.43,21.98 14.14,21.43 27.64,21.44zm-20.79 33.63c-15.37,8.95 -10.66,27.51 12.71,29.78 11.23,1.09 56.19,1.36 64.35,-2.95 14.59,-7.71 11.53,-27.07 -13.3,-29.08 -13.04,-1.06 -55.41,-2.62 -63.76,2.25z"/>
 </g>
</svg>
