<?xml version="1.0" encoding="UTF-8"?>
<!DOCTYPE svg PUBLIC "-//W3C//DTD SVG 1.1//EN" "http://www.w3.org/Graphics/SVG/1.1/DTD/svg11.dtd">
<!-- Creator: CorelDRAW 2019 (64-Bit) -->
<svg xmlns="http://www.w3.org/2000/svg" xml:space="preserve" width="100%" height="100%" version="1.1" style="shape-rendering:geometricPrecision; text-rendering:geometricPrecision; image-rendering:optimizeQuality; fill-rule:evenodd; clip-rule:evenodd"
viewBox="0 0 476.17 465.68"
 xmlns:xlink="http://www.w3.org/1999/xlink">
 <defs>
  <style type="text/css">
   <![CDATA[
    .fil0 {fill:#A6A182}
   ]]>
  </style>
 </defs>
 <g id="Layer_x0020_1">
  <metadata id="CorelCorpID_0Corel-Layer"/>
  <path class="fil0" d="M12.13 83.69c8.48,-2.53 25.96,-1.49 36.34,-1.49 0,94.21 0.17,188.45 0,282.66 -0.02,12.62 -0.74,20.94 7.84,26.57 7.39,4.84 23.37,2.88 33.19,2.88l212 0c1.36,9.21 2.75,52.75 -1.66,57.68 -4.78,5.53 -68.24,2.9 -79.27,2.9 -18.6,0 -201.76,1 -205.81,-0.73 -7.83,-3.36 -4.04,-30.16 -4.04,-38.99 0,-35.12 -1.68,-322.98 1.41,-331.48zm297.95 -32.25c-3.01,-7.49 -2.36,-21.63 -1.57,-31.55l16.14 15.81c5.08,5.4 10.4,11.09 14.9,16.48 -7.93,0.56 -22.86,0.82 -29.47,-0.74zm50.57 291.6c-1.85,-2.71 -7.35,-6.14 -10.21,-8.72 -0.33,10.6 2.97,41.21 -2.78,47.8 -4,3.21 -215.64,1.62 -254.18,1.62 -9.16,0 -26.82,3.16 -33.23,-2.99 -2.72,-5.5 -2.72,-361.23 0,-366.72 5.78,-5.55 19.69,-2.99 27.93,-2.99 31.85,0.01 205.17,-1.92 208.85,1.83 0.99,1.52 0.35,-0.26 0.69,2.1 0.04,0.24 0.08,0.63 0.1,0.9 0.03,0.3 0.02,0.68 0.04,1.02 0.05,1.65 -0.14,4.49 -0.17,6.32 -0.06,4.43 0,8.9 -0.01,13.34 -0.17,40.81 26.66,22.25 50.48,25.96 7.13,16.79 -1.06,173.19 2.54,208.7 6.48,4.17 6.3,5.4 10.21,10.46 -0.34,-55.19 -0.01,-110.5 -0.01,-165.7 0,-75.95 1.29,-54.4 -32.53,-91.9 -5.99,-6.64 -13.13,-15.38 -22.52,-19.89 -13.54,-6.5 -60.44,-3.47 -78.66,-3.47 -20.64,0 -158.38,-1.34 -166.27,0.59 -22.73,5.56 -8.61,49.76 -13.11,70.32 -52.86,0 -47.67,-1.84 -47.67,54.94l0 309.79c-0.07,35.68 7.89,28.79 73.48,28.79l206.52 0c45.12,0.04 29.11,-11.31 32.6,-70.33 33.41,-5.85 52.13,17.99 47.91,-51.77zm94.24 55.17c-7.94,0.12 -20.65,-12.54 -30.56,-19.99l-56.75 -43.86c-18.37,-14.35 -25.62,-15.41 -16.62,-27.13 5,-6.52 8.65,-8.32 16.08,-2.81l98.14 76.37c2.62,5.9 -5.53,15.05 -10.29,17.42zm-130.04 -88.35c-2.14,-9.71 2.91,-12.2 7.74,-18.31 4.34,-5.48 7.23,-12.61 16.71,-9.21 2.64,9.27 -3.57,13.21 -7.96,19.27 -4.83,6.66 -6.89,11.66 -16.49,8.25zm-0.31 -29.11c0.04,2.98 -2.36,8.16 -5.62,6.82 -4.38,-1.8 0.75,-6.9 1.89,-8.78 3.17,1.33 0.42,-1.11 3.73,1.96zm-84.4 -127.08c44.78,-6.42 80.24,26.32 85.66,64.79 6.36,45.16 -26.79,79.78 -64.35,85.38 -46.08,6.87 -81.21,-26.48 -86.47,-65.73 -6.01,-44.92 27.17,-78.99 65.16,-84.44zm110.3 180.65c2.86,2.58 8.36,6.01 10.21,8.72 6.25,3.35 10.35,7.53 15.84,11.53 5.34,3.89 10.17,7.73 15.01,11.48 9.81,7.58 19.45,15.05 29.12,22.51 7.29,5.62 22.56,20.21 31.62,20.4 11.88,0.25 25.52,-15.83 23.77,-28.01 -1.41,-9.72 -19,-20.36 -25.99,-25.79l-58.26 -44.99c-5.31,-4.23 -9.86,-7.39 -15,-11.48 -14.04,-11.15 -6.98,-4.76 -15.5,-9.29l-0.35 -7.73c-3.91,-5.06 -3.73,-6.29 -10.21,-10.46 -15.63,-2.44 -28.18,10.84 -19.43,-11.42 27.89,-70.88 -45.21,-142.2 -117.49,-109.53 -8.47,3.83 -20.54,12.3 -25.13,17.18 -31.48,33.49 -34.19,85.09 -1.15,120.58 23.36,25.1 60.98,35.03 95.12,21.09 15.82,-6.45 20.59,-13.55 27.21,-15.85 2.55,3.97 0.96,2.23 4.69,4.03 -2.52,18.48 4.17,25.49 22.55,24.12 5.37,8.19 7.34,7.74 13.37,12.91zm-112.26 -156.41c32.12,-7.32 57.3,13.48 63.29,38.41 16.08,66.9 -84.26,93.02 -102.04,25.43 -8.52,-32.35 13.89,-58.18 38.75,-63.84zm-1.19 -10.56c-30.42,6.48 -56.78,36.58 -48.17,75.73 6.47,29.45 37.48,55.73 75.19,47.47 30.11,-6.59 56.2,-37.18 48.14,-75.49 -6.35,-30.2 -36.67,-55.91 -75.16,-47.71zm53.51 159.58c-1.97,-6.18 -17,-3.76 -23.6,-3.76l-156.21 -0.01c-6.28,-0.02 -21.43,-2.29 -18.24,7.28 1.82,5.46 41.95,3.3 50.01,3.3l129.74 0c5.8,0.03 21.12,2.02 18.3,-6.81zm-189.08 -191.78l179.72 0c13.54,0 12.65,-10.57 1.65,-10.57l-183.03 0c-10.69,0 -11.53,10.57 1.66,10.57zm0 -39.71l180.05 0c13.19,0 12.34,-10.57 1.32,-10.57l-182.53 0c-11.19,0 -12.03,10.57 1.16,10.57zm-8.64 190.85c-6.49,11.18 25.78,7.73 32.47,7.73 10.47,0 32,2.36 39.38,-2.23 1.71,-10.06 -4.24,-8.49 -12.88,-8.39 -12,0.15 -56.09,-2.07 -58.97,2.89zm8.64 -111.42c12.8,0 56.44,1.95 63.21,-2.23 1.18,-6.95 -0.54,-8.34 -7.61,-8.34l-56.92 0c-11,0 -11.89,10.57 1.32,10.57zm-4.95 69.2c-6.85,2.45 -5.79,8.58 0.9,10.04 2.86,0.62 52.49,0.75 55.36,-0.69 5.27,-2.65 3.96,-8.71 -2.63,-9.68l-53.63 0.33zm0 -39.72c-6.85,2.45 -5.79,8.58 0.9,10.04 2.86,0.63 52.49,0.75 55.36,-0.68 5.27,-2.66 3.96,-8.72 -2.63,-9.68l-53.63 0.32z"/>
 </g>
</svg>
