<?xml version="1.0" encoding="UTF-8"?>
<!DOCTYPE svg PUBLIC "-//W3C//DTD SVG 1.1//EN" "http://www.w3.org/Graphics/SVG/1.1/DTD/svg11.dtd">
<!-- Creator: CorelDRAW 2019 (64-Bit) -->
<svg xmlns="http://www.w3.org/2000/svg" xml:space="preserve" width="100%" height="100%" version="1.1" style="shape-rendering:geometricPrecision; text-rendering:geometricPrecision; image-rendering:optimizeQuality; fill-rule:evenodd; clip-rule:evenodd"
viewBox="0 0 467.16 465.68"
 xmlns:xlink="http://www.w3.org/1999/xlink">
 <defs>
  <style type="text/css">
   <![CDATA[
    .fil0 {fill:#A6A182}
   ]]>
  </style>
 </defs>
 <g id="Layer_x0020_1">
  <metadata id="CorelCorpID_0Corel-Layer"/>
  <path class="fil0" d="M219.17 44.69c56.02,-6.14 110.99,20.03 140.17,46.55 28.88,26.25 59.34,69.76 63.2,127.06 0.99,14.69 0.66,32.02 -1.55,45.06 -2.17,12.76 -5.81,25.95 -10.22,37.01 -26.32,66.09 -85.98,116.62 -161.13,121.49 -166.59,10.78 -272.65,-175 -157.4,-315.03 30.21,-36.71 78.16,-56.78 126.93,-62.14zm-86.86 399.3l12.85 5.48c7.44,1.76 29.56,8.49 36.45,11.15 46.64,7.14 60.24,6.47 106.29,-0.46l35.33 -11.18 9.54 -4.66c8.61,-5.03 15.33,-7.79 24.65,-13.46 8.8,-5.38 16.6,-12.61 24.68,-16.43 0.77,-3.91 1.39,-2.62 4.97,-5.32l17.82 -17.58c23.22,-21.78 43.2,-61.77 52.89,-92.86 17.04,-54.67 9.48,-114.86 -11.55,-161.89 -35.17,-78.64 -126.19,-151.85 -247.81,-134.09 -165.43,24.15 -249.07,212.07 -165.79,349.08 42.35,69.69 90.76,83.76 99.68,92.22zm114.12 -144.27l0.05 -108.71c2.9,7.81 5.19,19.71 8.23,28.38l28.6 82.02 25.21 -0.44 35.35 -103.05c1.7,-4.37 0.47,-1.56 1.58,-3.41l-0.26 106.79 30.13 0.21 -0.04 -136.67 -44.3 0.74c-8.8,33.25 -25.15,65.08 -32.63,98.97 -1.23,-1.78 -0.3,0.14 -1.61,-3.21l-2.47 -9.27c-1.13,-4.08 -2.77,-8.33 -4.05,-12.23l-24.83 -71.27c-0.33,-0.29 -0.79,-0.71 -0.99,-0.86 -5.37,-4.21 -35.71,-1.94 -44.35,-1.93l0.42 134.36 25.96 -0.42zm-85.28 0.14l0.02 -108.73c2.26,-2.65 1.3,-2.64 8.95,-2.65l29.76 0.15 -0.02 -23.01 -106.52 0.41 0.14 22.09c11.36,2.12 27,-2.42 37.94,1.8l0.27 110.39 29.46 -0.45zm85.28 -0.14l-25.96 0.42 -0.42 -134.36c8.64,-0.01 38.98,-2.28 44.35,1.93 0.2,0.15 0.66,0.57 0.99,0.86l-1.03 -4.48 -45.05 0.66c-1.7,9.18 -1.59,129.96 0.25,137.12l22.73 0.05c6.95,-0.05 1.96,0.49 4.14,-2.2z"/>
 </g>
</svg>
