<?xml version="1.0" encoding="UTF-8"?>
<!DOCTYPE svg PUBLIC "-//W3C//DTD SVG 1.1//EN" "http://www.w3.org/Graphics/SVG/1.1/DTD/svg11.dtd">
<!-- Creator: CorelDRAW 2019 (64-Bit) -->
<svg xmlns="http://www.w3.org/2000/svg" xml:space="preserve" width="100%" height="100%" version="1.1" style="shape-rendering:geometricPrecision; text-rendering:geometricPrecision; image-rendering:optimizeQuality; fill-rule:evenodd; clip-rule:evenodd"
viewBox="0 0 859.56 719.68"
 xmlns:xlink="http://www.w3.org/1999/xlink">
 <defs>
  <style type="text/css">
   <![CDATA[
    .fil0 {fill:white}
   ]]>
  </style>
 </defs>
 <g id="Layer_x0020_1">
  <metadata id="CorelCorpID_0Corel-Layer"/>
  <path class="fil0" d="M266.28 362.32c9.38,-7.45 22.38,-24.9 31.54,-29.96 5.15,2.93 4.34,3.11 8.9,7.92l27.09 22.71c12.44,-7.34 15.65,-10.9 31.76,-18 13.74,-6.05 25.99,-6.76 39.25,-11.75l2.48 -46.87 44.79 0.02 2.52 46.85c12.85,4.78 25.25,5.74 38.34,11.3 5.89,2.51 11.33,5.52 16.95,8.53 6.04,3.23 10.22,6.6 15.85,9.92 7.7,-2.76 29.6,-27 35.99,-30.63 9.16,5.06 22.16,22.51 31.54,29.96 -2.69,5.21 -10.86,14.52 -15.1,18.32 -6.54,5.85 -9.87,12.03 -15.82,18.04 6.1,14.04 16.65,22.9 24.67,51.19 1.86,6.57 2.35,15.52 5.89,21.07l45.65 2.26 0.47 44.59 -47.14 2.71c-7.82,30.89 -12.75,49.16 -29.73,71.45 4.53,8.35 9.38,10.42 15.21,17.48 5.67,6.87 9.07,11.02 15.89,16.94 -2.51,5.18 -26.41,28.04 -31.53,32.6 -3.58,-3.59 -31.41,-28.46 -36.68,-30.99 -13.38,16.35 -67.94,29.11 -69.3,30.58 -4.21,6.29 -3.02,36.16 -3.31,46.44l-45.26 0.03c-2.35,-64.83 6.26,-39.18 -40.97,-58.41 -8.06,-3.29 -27.63,-13.6 -31.71,-18.66 -5.79,2.86 -32.76,27.08 -36.69,31.01 -5.51,-4.93 -28.76,-26.87 -31.51,-32.63l31.08 -34.39c-16.99,-22.31 -21.92,-40.57 -29.73,-71.51l-47.04 -2.27 -0.01 -44.83 46.02 -2.44c1.78,-2.75 7.05,-25.66 12.25,-38.71 5.58,-13.99 13.82,-23.47 18.32,-33.51l-30.92 -36.36zm-8.15 80.59l-2.39 13.92 -49.32 2.35 -0.8 73.16 49.39 2.2c3.36,6.97 6.51,20.78 9.78,29.09 4.04,10.24 9.26,18.12 13.81,26.99 -4.75,8.33 -29.91,32.85 -32.44,37.49 2.98,6.39 19.04,20.74 24.24,25.93 6.85,6.82 20.29,18.74 25.1,25.64 9.03,-4.41 12.55,-10.09 19.43,-16.41l18.85 -16.71c8.81,4.24 16.13,9.11 26.61,13.49 10.47,4.37 19.84,5.95 30.06,10.04l2.87 49.59 72.82 -0.09 2.53 -49.52c10.67,-4.07 20.02,-5.67 30.49,-10.03 10.44,-4.33 17.82,-9.24 26.62,-13.48 5.55,4.09 29.45,28.78 38.28,33.12 4.7,-6.72 17.71,-18.32 24.35,-24.9 4.63,-4.59 8.14,-8.15 12.75,-12.74 2.34,-2.33 3.64,-3.7 5.99,-6 3.66,-3.6 4.14,-3.4 6.25,-7.93 -2.36,-4.33 -27.72,-29.25 -32.45,-37.49 4.38,-8.47 9.37,-15.93 13.4,-25.91 3.57,-8.88 6.66,-22.82 10.21,-30.11l49.31 -2.39 -0.04 -73.13 -27.62 -1.21 -22.23 -1.08c-8.31,-30.54 -22.23,-54.32 -23.09,-58.51 11.66,-9.37 22.23,-24.56 32.7,-35.24 -5.1,-6.49 -46.81,-48.57 -52.16,-51.19l-26.87 25.13c-3.5,2.82 -5.68,4.29 -8.81,7.54 -21.42,-8.72 -22.44,-15.02 -57,-22.79l-3.08 -48.39c-0.3,-0.22 -0.77,-0.42 -1.01,-0.51l-71.27 -1.23 -2.84 50.12c-34.83,8 -35.67,14.22 -56.74,22.8l-35.68 -32.67c-5.35,2.62 -47.06,44.7 -52.16,51.19 7.16,7.3 23.82,28.1 32.7,35.24 -0.21,1.01 -20.08,44.17 -20.54,44.63zm-18.2 -3.55l-8.78 -8.5c-3.17,-3.21 -4.44,-5.75 -7.5,-9.04l-82.62 -92.75c-7.04,-7.34 -17.35,-24.41 -24.08,-24.01l-5.76 8.99c-19.44,20.08 -40.77,47.5 -59.39,66.53l-51.8 59.7 56.65 0.4 0.06 165.16 14.58 0.45 -0.09 -180.06 -38.77 -0.16c3.59,-6.68 5.46,-6.74 10.39,-12.43 2.23,-2.57 3.05,-4.28 5.36,-6.75l71.19 -79.75 32.48 36.06c7.32,9.64 51.9,56.91 54.75,62.9l-38.49 0.07 -0.3 251.86 13.66 0.21c2.65,-9.5 0.73,-209.17 0.92,-237.44 12.2,-0.38 49.05,2.08 57.54,-1.44zm437.25 4.29c0.34,29.12 -1.87,224.63 0.91,234.54l13.08 -0.05 0.59 -251.74 -38.8 -0.33c3.15,-6.59 45.67,-51.34 54.1,-62.01 2.09,-2.63 3,-4.34 5.3,-6.74l16.58 -17.86c4.91,-5.98 5.16,-6.91 11.25,-12.34 6.07,4.27 6.19,6.97 10.39,11.71l65.48 73.99c4.8,5.84 7.32,6.28 11.07,13.2l-38.36 0.12 -0.44 179.88 14.6 0.16 -0.08 -165.54 56.71 -0.48c-16.12,-20.52 -44.8,-49.36 -59.62,-68.25l-57.86 -65.39 -18.24 15.81c-4.74,6.02 -9.49,10.97 -14.49,17.06l-88.8 101.03 44.72 0.13c13.98,-0.26 10.81,0.5 11.91,3.1zm-265 -427.74c64.36,-10.46 115.17,35.05 124.2,88.68 10.84,64.33 -35.72,115.85 -88.82,124.45 -63.98,10.38 -115.75,-35.37 -124.24,-88.25 -10.46,-65.21 34.86,-116.09 88.86,-124.88zm-3.39 -14.69c-29.89,8.37 -50.37,16.04 -71.23,39.83l-3.42 3.12c-2.53,5.79 -6.91,10.21 -10.34,16.12 -41.42,71.54 -1.67,165.15 80.78,182.29 94.15,19.58 173.74,-72.66 140.33,-162.94 -10.55,-28.52 -27.85,-46.66 -48.06,-59.98 -25.54,-16.84 -52.12,-22.38 -88.06,-18.44zm-217.08 134.56c48.38,-5.52 86.05,29.78 91.8,71.3 6.84,49.38 -29.34,88.09 -71.35,93.79 -49.12,6.65 -88.76,-29.96 -93.58,-72.34 -5.58,-48.96 29.87,-87.82 73.13,-92.75zm106.68 93.45c3.52,-29.69 -8.58,-57.05 -22.33,-74.24 -6.31,-7.9 -18.22,-16.98 -27.36,-22.15 -10.55,-5.96 -22.92,-10.06 -36.31,-11.66 -57.78,-6.92 -102.99,36.05 -108.41,86.39 -6.18,57.42 35.61,102.52 86.18,107.98 57.76,6.23 102.24,-35.78 108.23,-86.32zm350.63 -93.45c47.96,-5.51 86.65,30.04 91.87,71.71 6.2,49.36 -29.28,87.58 -71.39,93.36 -49.34,6.77 -88.44,-29.8 -93.58,-72.04 -5.97,-49.13 29.85,-88.06 73.1,-93.03zm-8.7 -13.36c-54.14,10.71 -87.44,59.98 -78.11,113.77 8.38,48.33 55.92,88.69 114.72,78.28 82.72,-14.64 107.62,-124.25 40.81,-173.8 -20.27,-15.03 -46.29,-24.41 -77.42,-18.25zm-282.11 382.72c-5.35,-42.75 25.72,-76.3 62.56,-81.1 42.63,-5.56 76.24,26.5 80.72,63.21 5.16,42.34 -26.84,75.86 -63.28,80.15 -41.72,4.91 -75.47,-26.13 -80,-62.26zm57.05 -94.84c-47.8,8.66 -79.15,52.68 -71.22,99.38 7.33,43.22 48.87,81.28 101.79,71.35 57.69,-10.83 90.68,-77.22 57.58,-131.51 -4.7,-7.73 -13.75,-17.73 -20.79,-22.73 -16.97,-12.06 -41,-21.26 -67.36,-16.49zm21.82 -223.06c10.82,-5.02 17.1,-4.71 25.62,-12.06 15.22,-13.11 15.44,-35.85 -1.33,-51.03 -16.94,-15.32 -43.53,-5.52 -54.58,-18.9 -14,-16.95 4.21,-39.4 31.39,-32.93 11.69,2.78 13.41,7.84 18.61,16.9l13.5 -1.12c-0.63,-9.86 -5.22,-16.43 -11.34,-21.51 -7.01,-5.82 -11.69,-6 -22.05,-9.8l-0.42 -14.53 -14.18 -0.15 -0.63 14.67c-12,4.58 -18.47,5.26 -25.47,12.91 -13.32,14.55 -11.45,38.02 6.71,51.52 17.65,13.11 42.35,0.05 54.05,20.87 5.8,10.32 -0.48,19.83 -7.2,24.6 -16.69,11.87 -46.39,5.24 -49.29,-14.87l-14.2 1.34c-1.73,24.26 28.45,30.22 35.79,34.09l-0.08 15.62 14.68 -0.97 0.42 -14.65zm228.4 79.72c36.31,-7.95 35.51,-48.46 2.69,-55.63 -7.82,-1.71 -15.87,0.35 -22.41,-4.65 -4.99,-3.82 -7.48,-10.66 -3.58,-16.89 6.23,-9.96 28.15,-9.64 33.81,4.52 4.86,-0.34 9.78,-0.3 14.03,-2.57 -2.78,-12.82 -10.79,-19.5 -23.31,-22.43 -4.79,-9.2 4.38,-9.97 -15.89,-8.59l-0.11 8.68c-34.23,4.91 -34.07,52.35 4.08,55.26 8.9,0.68 15.57,1.7 20.11,6.94 15.61,18.05 -28.49,33.06 -36.25,8.17l-14.57 1.13c2.57,14.96 11.47,23.63 26.64,25.63l0.41 9.96 13.92 0.15 0.43 -9.68zm-457.18 0.19c13.68,-3.96 25.81,-10.85 27.02,-25.93 2.71,-33.73 -39.76,-29.59 -46.22,-33.8 -12.33,-8.05 -5.47,-28.02 16.49,-23.96 8.68,1.61 9.53,5.97 14.25,10.78 1.87,-0.14 4.73,-0.18 6.51,-0.48 2.21,-0.38 1.92,-0.42 3.84,-0.98l2.59 -1.04c-2.96,-13.39 -10.87,-18.67 -23.43,-22.53 -1.6,-3.43 -0.59,-3.86 -1.48,-5.73 -1.77,-3.73 2.51,-3.68 -14.01,-3.06l-0.33 8.99c-33.08,4.34 -35.43,51.63 3.87,55.18 8.83,0.8 15.7,1.72 20.21,6.92 15.49,17.83 -28.23,33.66 -36.32,8.31l-14.41 1.07c2.42,15.41 11.37,22.9 26.61,25.65l0.37 9.91 13.93 0.19 0.51 -9.49z"/>
 </g>
</svg>
