<?xml version="1.0" encoding="UTF-8"?>
<!DOCTYPE svg PUBLIC "-//W3C//DTD SVG 1.1//EN" "http://www.w3.org/Graphics/SVG/1.1/DTD/svg11.dtd">
<!-- Creator: CorelDRAW 2019 (64-Bit) -->
<svg xmlns="http://www.w3.org/2000/svg" xml:space="preserve" width="100%" height="100%" version="1.1" style="shape-rendering:geometricPrecision; text-rendering:geometricPrecision; image-rendering:optimizeQuality; fill-rule:evenodd; clip-rule:evenodd"
viewBox="0 0 727.58 719.68"
 xmlns:xlink="http://www.w3.org/1999/xlink">
 <defs>
  <style type="text/css">
   <![CDATA[
    .fil0 {fill:white}
   ]]>
  </style>
 </defs>
 <g id="Layer_x0020_1">
  <metadata id="CorelCorpID_0Corel-Layer"/>
  <path class="fil0" d="M604.11 463.7c2.87,-1.14 2.08,-0.8 5.16,1.07 -1.58,4.31 -1.51,10.43 -1.51,16.77 0.2,-0.11 4.52,0.49 -0.28,-1.18 -5.12,-1.78 0.16,0.84 -8.82,8.92 -0.29,0.26 -0.64,0.56 -0.92,0.82 -0.27,0.26 -0.6,0.6 -0.86,0.85l-4.19 4.69c-5.69,6.22 -0.56,4.5 -9.4,5.72l-5.21 5.32c-21.63,29.63 -53.5,59.92 -86.9,75.95l6.76 -0.42c-3.07,5.48 0.76,4.13 -7.61,4.58l3.87 4.86c1.54,2.89 0.7,17.43 0.7,21.06 -12.36,0 -28.84,1.08 -38.14,1.08 -3.23,0 -11.94,-1.13 -18.37,-1.12 -8.38,0.01 -12.02,1.44 -19.75,1.55 0.42,-0.53 0.99,-1.02 1.43,-1.42l4.25 -2.77c-8.68,-1.54 -19.25,2.68 -29.04,3.76 -48.91,5.42 -84.88,-4.98 -92.16,-3.76l-6.5 1.14c1.03,-3.38 5.39,-0.34 10.67,0.02 -6.99,4.61 -9.48,2.73 -12.39,2.24l-40.99 -0.72 0 -9.15c0.27,0.43 1.7,0.57 1.97,0.41 6.96,-3.84 3.14,-2.61 3.63,-3.97 -6.86,-2.61 -11.91,-2.47 -12.25,-7.28l0.57 -2.96c-1.72,-1.87 -22.71,-13.17 -26.88,-15.81 -6.82,-4.33 -19.76,-15.79 -25.59,-16.73 -1.96,2.56 -3.5,-0.05 -6.55,-1.7 -3.58,-1.93 -8.56,-3.65 -9.42,-5.69 -2.44,-5.77 2.02,-6.89 2.02,-6.9 -4.81,-5.24 -8.54,-8.06 -14.48,-14.01 -3.22,-3.22 -9.02,-10.7 -12.37,-15.12 -8.02,-10.59 -15.09,-20.4 -22.13,-32.78 -30.86,-54.28 -42.73,-118.9 -30.33,-181.97 3.29,-16.75 19.6,-72.13 29.87,-78.84 3.61,-12.44 18.56,-29.9 26.38,-40.14 3.45,-4.52 5.67,-7.77 11.05,-10.93 1.24,-3.17 0.23,-1.25 2.65,-4.34 1.08,-1.38 1.63,-1.9 2.9,-3.2 3.13,-3.2 3.99,-4.18 7.58,-5.53 4.37,-7.78 16.77,-16.4 25.4,-22.51 8.1,-5.73 19.46,-14.31 29.21,-17.66 10.94,-12.55 71.46,-28.01 92.87,-30.82 72.08,-9.45 138.39,10.92 193.87,51.77 18.19,13.39 48.28,42.75 59.96,63.13 0.37,-0.32 1.01,-0.54 1.34,-0.64 0.3,-0.09 0.9,-0.44 1.25,-0.52 4.56,-1 2.99,1.5 7.64,2.2 0.4,0.07 2.87,0.07 3.38,0.06 6.47,-0.05 12.95,-0.17 19.46,-0.17l1.51 57.95c-4.97,-2.78 -3.37,0.66 -5.5,-3.34 11.87,31.17 19.42,71.18 16.84,108.49 -1.29,18.72 -4.26,37.29 -8.87,54.51 -4.69,17.52 -10.68,29.34 -16.78,45.18zm-576.53 -316.47c5.15,2.43 4.63,3.68 8.44,5.48 5.05,-2.61 5.95,-4.65 11.72,-6.14 9.96,-4.54 28.22,-30.71 40.38,-38.16l16.64 15.27 3.02 -0.75 6.61 5.67 -1.37 3.46 8.76 10.9c-2.82,4.84 -9.61,9.5 -10.57,15.51 2.37,2.24 3.62,4.24 1.43,8.25 -2.71,4.95 1.15,0.36 -2.59,1.49 -3.21,0.97 -8.55,9.97 -11.18,13.89 0.46,0.21 2.51,0.65 2.89,0.67 9.87,0.52 3.19,-0.75 2.7,-1.69l0 28.99c-4.07,0 -8.4,-0.14 -12.44,0.01 -8.72,0.31 -9.52,3.53 -7.42,0.08l-5.3 -1.22 -4.59 7.98c-32.8,79.32 -40.79,157.9 -9.54,241.35 5.06,13.51 25.76,60.85 33.35,64.46 0.3,-0.14 0.77,-0.25 0.96,-0.24l2.02 0.02c0.32,0.1 0.76,0.25 1.09,0.41 0.39,0.19 0.8,0.51 1.16,0.74l3.75 3.63 0 -9.15 21.36 0c0,6.1 0.05,12.21 0,18.3 -0.18,23.39 -0.48,15.94 3.05,18.31 -5.32,6.79 -3.86,5.16 -4.45,3.67 -0.1,-0.25 -0.54,0.29 -0.8,0.47 1.84,8.61 13.08,13.18 16.45,20.68 7.02,3.56 20.8,17.36 29.95,24.01l9.82 8c3.22,0.85 8.7,4.06 11.14,7.23 -3.14,3.52 -6.31,6.02 -9.78,9.64 -11.43,11.94 -12.97,14.58 -27.52,27.33 -27.85,24.4 -13.8,38.53 -13.04,51.02 0.31,0.29 0.73,0.35 0.88,0.92 0.14,0.57 0.67,0.71 0.86,0.91l6.55 6.07c9.99,6.19 29.2,3.89 42.47,3.89l306.55 -0.01c49.84,0 90.67,11.21 86.55,-38.14 -3.84,-8.63 -3.29,-10.86 -10.47,-18.72l-43.64 -42.91c2.53,-3.3 12.95,-9.62 16.5,-12.05 13.35,-9.14 40.72,-35.59 44.39,-37.31 3.96,-7.72 29.56,-31.67 51.56,-74.21 0.95,-1.84 2.11,-4.49 3.05,-6.1 2.2,-3.72 0.63,-1.91 3.59,-4.69 0.44,-10.26 68.97,-129.76 -5.57,-279.52 -2.67,6.99 3.88,0.67 -4.11,5.13 -1.64,-6.69 -5.46,-9.25 -8.83,-17.14 -3.04,-7.09 -8.7,-7.68 -14.08,-19.45l-24.38 0 0 -47.29c3.67,-1.78 4.53,-3.5 7.33,-6.4 5.67,-5.86 4.42,0.4 4.87,-10.38 -0.25,0.15 -5.32,-0.56 0.74,1.36 5.86,1.85 -0.61,0.96 3.83,0.16 0.24,-0.42 3.12,-5.04 3.13,-5.11 1.82,-9.12 2.49,-2.05 -2.1,-5.56 0.5,3.59 -11.37,10.96 -16.28,18.3 -5.14,-3.01 -5.5,4.39 -3.66,-4.78l-8.53 7.3 -61.02 -47.06 -19.74 1.87c-6.11,0.05 -12.27,-0.02 -18.38,-0.02l0 -13.73c-3.75,-1.44 -1.84,-4.51 -6.11,-0.01 0.03,-0.55 -0.01,-1.21 0.03,-1.63l1.51 -5.85c-8.37,-8.56 -73.54,-20.93 -91.37,-22.02 -80.15,-4.89 -154.17,14.85 -217.07,62.69 -5.88,4.47 -10.14,8.19 -15.95,12.99l-14.33 13.37 -33.67 -33.62c2.41,-4.76 3.54,-3.77 5.39,-7.93l-1.07 -3.68c6.52,-1.7 1.4,1.1 5.98,-4.25 2.3,-2.68 2.81,-2.99 4.65,-6.1l3.25 1.15c4.01,-1.65 6.49,-5.27 10.24,-8.96 3.73,-3.69 7.17,-6.21 8.97,-10.21l-1.35 -1.62c-0.16,-1 -0.27,-1.59 -0.47,-2.37 3.23,-2.12 3.45,-2.91 6.94,-5.6 -4.26,-3.36 -6.8,-6.81 -11.36,-10.43 -17.62,-14.01 -7.31,-9.96 -5.96,-11.22 -2.75,-1.87 -8.71,-5.97 -12.8,-8.03 -4.98,-2.51 -11.27,-3.66 -14.99,-6.73 -17.4,0.71 -33.24,-7.09 -60.98,6.91 -41.67,21.04 -59.18,74.93 -32.55,118.95l14.55 18.41c0.06,-0.21 0.28,0.58 0.36,0.89zm173.35 168.86c-8.98,19.14 -6.11,103.54 -6.28,136.47 -0.08,14.85 -3.32,32.7 8.08,39.01 6.67,3.69 81.73,3.88 93.75,2.09 17.17,-2.56 14.5,-17.73 14.49,-33.47 -0.01,-15.45 -0.19,-31.12 0.11,-46.55 3.16,0.05 48.67,18.51 59.56,21.33 11.96,3.09 21.92,5.19 34.69,6.69 26.68,3.14 26.74,-0.98 38.38,-1.92 3.85,-7.5 9.93,-8.16 11.53,-20.92 1.31,-10.46 -2.49,-18.42 -8.09,-23.76 -12.35,-11.77 -43.76,-6.67 -50.37,-13.49l-13.45 -0.16 -1.3 2.51c-9.46,-0.04 -21.47,-3.22 -28.17,-7.04l-2.2 -1.27c-16.29,-9.79 -25.27,-6.92 -48.94,-6.92l0 -21.36c13.71,-0.09 3.54,0.35 7.37,-3.05 -6.33,-14.04 -4.49,3.44 -2.69,-4.78 1.27,-5.81 -0.9,-6.86 -0.93,-6.94 -1.55,-3.73 -9.6,-18.52 -2.9,-16.67 -0.34,-3.89 0.22,-5.49 -3.75,-6.7 -5.93,2.43 -10.3,-5.34 -13.4,-7.82 -10.45,-8.34 -28.35,-6.26 -47.78,-6 -2.11,0.03 -4.1,0.09 -6.18,0.41 -4.62,0.73 -4.62,0.79 -5.35,4.19 -0.11,0.53 -0.23,0.9 -0.33,1.5l-0.31 18.41 -14.97 -0.51c-0.11,-0.11 -0.33,-0.56 -0.43,-0.68l-1.38 -3.19c-2.58,2.07 -2.72,0.69 -4.58,5.89 -5.55,-3.09 -4.97,4.69 -4.18,-5.3zm402.24 -304.57c3.18,0.7 0.01,-0.61 1.53,4.84 -12.92,0.81 -5.29,3.74 -14.7,9.85 -10.15,6.6 -7.11,7.21 -14.68,11.41 4.51,4.17 3.38,-0.85 2.82,7.55 1.52,3.64 0.33,1.52 3.49,4.9l15.33 15.23c3.49,3.49 15.74,17.01 20.19,18.81l11.97 0.89c-0.98,9.3 -7.35,-0.11 -7.63,18.29 23.01,0 14.17,-4.89 40.03,20.98l22.82 23.08c5.92,5.25 5.53,-1.12 10.87,2.75 3.36,-3.95 7.02,-7.32 10.87,-10.98 4.42,-4.2 6.3,-8.89 10.9,-12.22 0.73,-7.52 17.89,-31.32 6.97,-68.01 -1.87,-6.27 -6.87,-13.27 -7.52,-19.05 -1.54,-1.48 -0.54,-0.21 -2.63,-2.7 -20.44,-24.37 -41.23,-41.27 -81.62,-36.25 -5.45,0.68 -10.64,2.18 -16.06,3.99 -3.73,1.25 -11.52,3.31 -12.95,6.64zm-50.33 288.79c-0.91,6.07 2.43,4.76 -9.08,9.62 -4.09,1.73 -5.79,3.34 -10.74,3.84l2.03 2.82c0.15,0.17 0.51,0.5 0.64,0.66l1.92 4.15c-12.07,0.08 -1.69,-0.69 -6.1,3.05l0 19.83c-5.07,0.03 -6.1,1.53 -6.11,1.53l-0.01 -4.59c-5,2.48 -7.45,6.76 -13.37,5.54 -5.75,-1.18 -1.37,0.87 -3.99,-2.21l0.73 -22.92c-7.97,3.24 -20.33,13.45 -28.65,10.09 -9.7,-3.92 -20.34,-13.09 -29.09,-12.89 -0.62,3.96 -14.57,1.05 -29.33,1.05l0 27.44c31.63,0 21.35,-2.36 33.92,11.8 10.65,12 11.03,7.54 15.99,22.95 1.05,3.27 0.79,2.55 2.53,5.51 4.97,8.5 4.05,3.18 7.78,13.16 0.15,0.4 0.26,0.82 0.41,1.22 1.91,4.83 1.05,2.68 3.43,6.37 5.57,-1.12 7.09,-2.66 12.19,-4.56 -0.06,0.1 -0.35,-0.09 -0.36,0.03 -0.01,0.1 -0.32,-0.06 -0.33,-0.07 -2.19,-3.07 0.73,-2.47 0.84,-2.47 -3.31,-5.1 -2.48,-7.81 -1.51,-14.28l4.42 -3.25 -2.72 -2.25c-2.82,-4.19 -1.45,0.81 -2.22,-6.64 -0.17,-1.66 0.14,-6.24 0.26,-7.95l16.18 -7.63c3,-1.54 -3.82,-2.11 3.64,-1.15l-1.41 14.3 -3.9 2.12 2.32 2.73c3.62,5.04 2.75,7.6 1.78,14.3 -3.67,2.05 -5.61,2.07 -7.84,4.85 6.5,0.13 -0.53,2.7 7.06,-1.15 4.51,-2.29 7.27,-3.74 11.25,-5.73 4.68,-2.34 18.77,-8.52 21.36,-11.69 12.31,0 1.36,-0.72 5.67,3.71l6.8 -3.08 -0.09 -81.94 -6.3 3.78zm-309.84 -131.97l-8.92 4.98c0.07,0.27 0.06,1.82 0.01,2.2 -0.04,0.28 -0.07,0.8 -0.14,1.11 -2.26,10.12 -6.01,1.95 -11.14,12.02 -2.31,4.53 -2.44,16.72 -2.44,22.93 6.18,0.11 7.68,1.84 13.87,1.56 13.53,-0.62 2.82,-0.88 9,-3.08 7.4,2.63 -5.22,1.03 7.37,2.91 2.68,0.4 8.05,0.19 10.95,0.15 29.09,-0.42 17.75,6.59 33.76,11.11 0.94,0.26 2.65,0.71 3.58,0.96 4.5,1.16 3.2,1.31 8.39,1.66 -3.86,5.36 6.01,4.96 -7.04,4.29l0 -0.39c13.86,4.39 34.14,7.91 41.87,-4.02 -13.78,-7.01 -13.02,-3.66 -19.54,-9.61 -21.24,-0.79 -2.89,-12.53 -29.15,-37.4 -8.57,-8.13 -31.03,-13.7 -36.17,-13.28 -5.81,0.48 -5.47,2.52 -14.26,1.9zm162.66 137.8c-0.25,12.41 -2.43,49.91 0.63,58.3 16.41,6.76 43.79,-2.41 61.71,26.55 5.2,8.42 4.34,15.97 8.88,22.38 4.63,0.27 3.69,1.32 7.25,1.38 2.6,0.04 2.67,-0.76 6.96,-0.95 3.75,-4.69 14.72,-9.02 21.4,-12.23 7.36,-3.53 15.63,-8.07 23.58,-11.08l16.36 -8.94c-4.31,-4.43 6.64,-3.71 -5.67,-3.71 -2.59,3.17 -16.68,9.35 -21.36,11.69 -3.98,1.99 -6.74,3.44 -11.25,5.73 -7.59,3.85 -0.56,1.28 -7.06,1.15 -5.25,1.65 -5.6,1.22 -9,4.85 -0.11,0 -3.03,-0.6 -0.84,2.47 0.01,0.01 0.32,0.17 0.33,0.07 0.01,-0.12 0.3,0.07 0.36,-0.03 -5.1,1.9 -6.62,3.44 -12.19,4.56 -2.38,-3.69 -1.52,-1.54 -3.43,-6.37 -0.15,-0.4 -0.26,-0.82 -0.41,-1.22 -3.73,-9.98 -2.81,-4.66 -7.78,-13.16 -1.74,-2.96 -1.48,-2.24 -2.53,-5.51 -4.96,-15.41 -5.34,-10.95 -15.99,-22.95 -12.57,-14.16 -2.29,-11.8 -33.92,-11.8l0 -27.44c14.76,0 28.71,2.91 29.33,-1.05l-23.52 -12.47c-4.99,-2.52 -18.62,-10.56 -21.84,-9.36l0 9.14zm-111.95 -68.99c-22.15,-5.78 -0.5,-7.61 -38.27,-7.59 -16.23,0.01 -27.6,-0.94 -42.94,-3.67 -1.36,49.82 41.4,60.94 67.16,40.45 8.03,-6.39 11.74,-15.46 14.05,-29.19zm323.44 -153.04c1.49,4.09 0.55,0.67 0.71,4.72l-24.45 24.94c-1.84,9.17 -1.48,1.77 3.66,4.78 4.91,-7.34 16.78,-14.71 16.28,-18.3 4.59,3.51 3.92,-3.56 2.1,5.56 -0.01,0.07 -2.89,4.69 -3.13,5.11 -4.44,0.8 2.03,1.69 -3.83,-0.16 -6.06,-1.92 -0.99,-1.21 -0.74,-1.36 -0.45,10.78 0.8,4.52 -4.87,10.38 -2.8,2.9 -3.66,4.62 -7.33,6.4l0 47.29 24.38 0c5.38,11.77 11.04,12.36 14.08,19.45 3.37,7.89 7.19,10.45 8.83,17.14 7.99,-4.46 1.44,1.86 4.11,-5.13 -4.94,-10.24 -11.8,-21.28 -17.66,-30.12 -4.49,-6.8 -17.72,-23.12 -19.02,-27.86l-4.61 -1.84c1.39,-7.16 -0.77,-1.38 2.63,-6.21l31.49 -30.03c4.55,2.93 26.52,24.22 29.33,30.1 3.55,0.98 13.91,11.35 16.15,14.76 1.86,2.84 0.46,-0.25 1.23,2.58 5.42,-1.42 4.28,-2.12 8.72,-6.21 -5.34,-3.87 -4.95,2.5 -10.87,-2.75l-22.82 -23.08c-25.86,-25.87 -17.02,-20.98 -40.03,-20.98 0.28,-18.4 6.65,-8.99 7.63,-18.29l-11.97 -0.89zm-122.25 199.17l12.2 0 3.23 7.31c0.49,2.04 0.86,5.1 1.33,7.43 -6.78,1.16 -15.54,-1.85 -19.82,-7.11 0.28,-0.35 -5.34,-1.48 1.28,-0.4 0.09,0.01 0.6,-0.02 0.71,0.02 0.11,0.03 0.61,0.14 0.72,0.21 2.59,1.36 1.63,-1.55 1.88,3.2l-1.53 -10.66zm-47.67 -7.83c4.25,4.4 46.63,23.03 52.49,25.95 13.12,6.54 14.42,11.31 28.16,4.16 8.91,-4.63 17.57,-7.84 26.03,-13.48 -7.67,-5.95 -39.89,-18.28 -51.65,-23.89 -12.06,-5.76 -13.59,-9.54 -26.42,-4.06 -8.7,3.72 -20.25,9.24 -28.61,11.32zm-22.91 334.58l-4.25 2.77c-0.44,0.4 -1.01,0.89 -1.43,1.42 7.73,-0.11 11.37,-1.54 19.75,-1.55 6.43,-0.01 15.14,1.12 18.37,1.12 9.3,0 25.78,-1.08 38.14,-1.08 0,-3.63 0.84,-18.17 -0.7,-21.06l-3.87 -4.86c8.37,-0.45 4.54,0.9 7.61,-4.58l-6.76 0.42c-10.75,5.25 -19.64,10.62 -32.33,15.33l-34.53 12.07zm-40.99 -228.62c-6.58,-5.52 -18.51,-6.8 -26.81,-10.13 -48.72,-19.52 -43.11,-48.29 -52.95,-55.39 -6.7,-1.85 1.35,12.94 2.9,16.67 0.03,0.08 2.2,1.13 0.93,6.94 -1.8,8.22 -3.64,-9.26 2.69,4.78 -3.83,3.4 6.34,2.96 -7.37,3.05l0 21.36c23.67,0 32.65,-2.87 48.94,6.92l2.2 1.27c6.7,3.82 18.71,7 28.17,7.04l1.3 -2.51zm-182.4 -65.32c-0.79,9.99 -1.37,2.21 4.18,5.3 1.86,-5.2 2,-3.82 4.58,-5.89l1.38 3.19c0.1,0.12 0.32,0.57 0.43,0.68l14.97 0.51 0.31 -18.41c0.1,-0.6 0.22,-0.97 0.33,-1.5 0.73,-3.4 0.73,-3.46 5.35,-4.19 2.08,-0.32 4.07,-0.38 6.18,-0.41 19.43,-0.26 37.33,-2.34 47.78,6 3.1,2.48 7.47,10.25 13.4,7.82 -6.23,-14.71 -30.4,-25.14 -53.58,-23.28 -22.24,1.78 -37.5,16.9 -45.31,30.18zm411.99 -60.57c2.13,4 0.53,0.56 5.5,3.34l-1.51 -57.95c-6.51,0 -12.99,0.12 -19.46,0.17 -0.51,0.01 -2.98,0.01 -3.38,-0.06 -4.65,-0.7 -3.08,-3.2 -7.64,-2.2 -0.35,0.08 -0.95,0.43 -1.25,0.52 -0.33,0.1 -0.97,0.32 -1.34,0.64 11.85,15.77 20.92,35.69 29.08,55.54zm-157.69 56.56c2.96,2.82 20.28,11.07 24.36,12.65 7.52,2.89 21.28,-3.96 26.56,-10.09 -8.53,-3.45 -42.45,-21.71 -49.08,-21.76 -2.16,2.81 3.27,1.59 -4.77,1.68 -6.39,0.07 -3.09,-0.74 -6.2,-2.15 0.48,2.24 1.4,3.09 1.54,3.41l0.58 1.47c1.6,4.1 -1.86,0.82 4.77,7.08 0.18,0.18 0.56,0.45 0.74,0.63l1.77 2.03c1.63,2.82 0.17,4.47 0.17,4.47 -0.02,-0.18 -0.23,0.46 -0.44,0.58zm-238.84 -125.64c-0.9,9.78 -6.91,16.4 -5.39,29.72 17.72,9.92 58.06,0.07 71.25,6.86 6.74,3.47 10.71,5.06 18,8.12 13.05,0.67 3.18,1.07 7.04,-4.29 -5.19,-0.35 -3.89,-0.5 -8.39,-1.66 -0.93,-0.25 -2.64,-0.7 -3.58,-0.96 -16.01,-4.52 -4.67,-11.53 -33.76,-11.11 -2.9,0.04 -8.27,0.25 -10.95,-0.15 -12.59,-1.88 0.03,-0.28 -7.37,-2.91 -6.18,2.2 4.53,2.46 -9,3.08 -6.19,0.28 -7.69,-1.45 -13.87,-1.56 0,-6.21 0.13,-18.4 2.44,-22.93 5.13,-10.07 8.88,-1.9 11.14,-12.02 0.07,-0.31 0.1,-0.83 0.14,-1.11 0.05,-0.38 0.06,-1.93 -0.01,-2.2 -13.19,4.63 -10.18,8.63 -17.69,13.12zm-117.87 336.29c3.57,9.39 20.88,31.67 28.14,36.16 0.26,-0.18 0.7,-0.72 0.8,-0.47 0.59,1.49 -0.87,3.12 4.45,-3.67 -3.53,-2.37 -3.23,5.08 -3.05,-18.31 0.05,-6.09 0,-12.2 0,-18.3l-21.36 0 0 9.15 -3.75 -3.63c-0.36,-0.23 -0.77,-0.55 -1.16,-0.74 -0.33,-0.16 -0.77,-0.31 -1.09,-0.41l-2.02 -0.02c-0.19,-0.01 -0.66,0.1 -0.96,0.24zm-19.22 -313.79l5.3 1.22c-2.1,3.45 -1.3,0.23 7.42,-0.08 4.04,-0.15 8.37,-0.01 12.44,-0.01l0 -28.99c0.49,0.94 7.17,2.21 -2.7,1.69 -0.38,-0.02 -2.43,-0.46 -2.89,-0.67 2.63,-3.92 7.97,-12.92 11.18,-13.89 3.74,-1.13 -0.12,3.46 2.59,-1.49 2.19,-4.01 0.94,-6.01 -1.43,-8.25 -7.55,4.31 -29.06,39.55 -31.91,50.47zm375.93 103.14c0.21,-0.12 0.42,-0.76 0.44,-0.58 0,0 1.46,-1.65 -0.17,-4.47l-1.77 -2.03c-0.18,-0.18 -0.56,-0.45 -0.74,-0.63 -6.63,-6.26 -3.17,-2.98 -4.77,-7.08l-0.58 -1.47c-0.14,-0.32 -1.06,-1.17 -1.54,-3.41 3.11,1.41 -0.19,2.22 6.2,2.15 8.04,-0.09 2.61,1.13 4.77,-1.68l-10.04 -6.05c-13.19,-6.06 -12.01,-8.08 -35.8,4.17 6.29,4.99 35.01,18.19 44,21.08zm-152.11 297.95l-6.9 -3.14c-2.85,-0.93 -4.87,-1.39 -7.12,-2.01 -17.25,-4.81 -29.56,-11.72 -41.27,-15.12l-0.57 2.96c0.34,4.81 5.39,4.67 12.25,7.28 -0.49,1.36 3.33,0.13 -3.63,3.97 -0.27,0.16 -1.7,0.02 -1.97,-0.41l0 9.15 40.99 0.72c2.91,0.49 5.4,2.37 12.39,-2.24 -5.28,-0.36 -9.64,-3.4 -10.67,-0.02l6.5 -1.14zm204.91 -265.48c2.62,3.08 -1.76,1.03 3.99,2.21 5.92,1.22 8.37,-3.06 13.37,-5.54l0.01 4.59c0.01,0 1.04,-1.5 6.11,-1.53l0 -19.83c4.41,-3.74 -5.97,-2.97 6.1,-3.05l-1.92 -4.15c-0.13,-0.16 -0.49,-0.49 -0.64,-0.66l-2.03 -2.82c4.95,-0.5 6.65,-2.11 10.74,-3.84 11.51,-4.86 8.17,-3.55 9.08,-9.62l-32.31 15.15 -0.23 22.6c-4.06,2.66 -6.49,5.41 -12.27,6.49zm15.83 -270.54c-13.52,-5.08 -27.02,-15.3 -42.69,-19.37l-1.51 5.85c-0.04,0.42 0,1.08 -0.03,1.63 4.27,-4.5 2.36,-1.43 6.11,0.01l0 13.73c6.11,0 12.27,0.07 18.38,0.02l19.74 -1.87zm80.25 389.69c-3.77,6.72 -6.19,12.63 -10.24,19.21 -3.77,6.12 -7.98,11.4 -10.58,18.45 8.84,-1.22 3.71,0.5 9.4,-5.72l4.19 -4.69c0.26,-0.25 0.59,-0.59 0.86,-0.85 0.28,-0.26 0.63,-0.56 0.92,-0.82 8.98,-8.08 3.7,-10.7 8.82,-8.92 4.8,1.67 0.48,1.07 0.28,1.18 0,-6.34 -0.07,-12.46 1.51,-16.77 -3.08,-1.87 -2.29,-2.21 -5.16,-1.07zm-92.45 -165.68c-0.47,-2.33 -0.84,-5.39 -1.33,-7.43l-3.23 -7.31 -12.2 0 1.53 10.66c-0.25,-4.75 0.71,-1.84 -1.88,-3.2 -0.11,-0.07 -0.61,-0.18 -0.72,-0.21 -0.11,-0.04 -0.62,-0.01 -0.71,-0.02 -6.62,-1.08 -1,0.05 -1.28,0.4 4.28,5.26 13.04,8.27 19.82,7.11zm66.48 -252.85c0.56,-8.4 1.69,-3.38 -2.82,-7.55 7.57,-4.2 4.53,-4.81 14.68,-11.41 9.41,-6.11 1.78,-9.04 14.7,-9.85 -1.52,-5.45 1.65,-4.14 -1.53,-4.84 -9.46,3.64 -28.97,20.65 -32.14,27.73 3.31,3.83 2.68,3.64 7.11,5.92zm-431.95 2.9l10.42 -8.58 -22.62 -22.66c-1.35,1.26 -11.66,-2.79 5.96,11.22 4.56,3.62 7.1,7.07 11.36,10.43 -3.49,2.69 -3.71,3.48 -6.94,5.6 0.2,0.78 0.31,1.37 0.47,2.37l1.35 1.62zm49.17 509.15c-3.64,-8.33 -8.16,-6.52 -13.95,-14.29 0,0.01 -4.46,1.13 -2.02,6.9 0.86,2.04 5.84,3.76 9.42,5.69 3.05,1.65 4.59,4.26 6.55,1.7zm-81.19 -477.1c5.43,-2.72 10.12,-7.43 12.81,-12.88l-3.25 -1.15c-1.84,3.11 -2.35,3.42 -4.65,6.1 -4.58,5.35 0.54,2.55 -5.98,4.25l1.07 3.68zm-78.15 72.59c1.36,3.24 -1.73,1.05 2.85,3.67 3.85,-2.89 6.61,-5.38 8.87,-9.81 -5.77,1.49 -6.67,3.53 -11.72,6.14zm68.74 -29.03c1.44,3.01 0.46,0.99 1.87,3.31 2.28,3.74 0.58,0.25 2.64,4.41 2.48,0.1 0.56,-0.66 3.75,0.66l1.37 -3.46 -6.61 -5.67 -3.02 0.75zm409.97 248.73l1.41 -14.3c-7.46,-0.96 -0.64,-0.39 -3.64,1.15 2.66,2.71 2.07,-4.62 2.22,4.84l0.01 8.31z"/>
 </g>
</svg>
