<?xml version="1.0" encoding="UTF-8"?>
<!DOCTYPE svg PUBLIC "-//W3C//DTD SVG 1.1//EN" "http://www.w3.org/Graphics/SVG/1.1/DTD/svg11.dtd">
<!-- Creator: CorelDRAW 2019 (64-Bit) -->
<svg xmlns="http://www.w3.org/2000/svg" xml:space="preserve" width="100%" height="100%" version="1.1" style="shape-rendering:geometricPrecision; text-rendering:geometricPrecision; image-rendering:optimizeQuality; fill-rule:evenodd; clip-rule:evenodd"
viewBox="0 0 714.73 719.67"
 xmlns:xlink="http://www.w3.org/1999/xlink">
 <defs>
  <style type="text/css">
   <![CDATA[
    .fil0 {fill:white}
   ]]>
  </style>
 </defs>
 <g id="Layer_x0020_1">
  <metadata id="CorelCorpID_0Corel-Layer"/>
  <path class="fil0" d="M321.79 486.99c5.27,-20.55 13.47,-69.05 35.44,-69.31 16.21,-0.19 19.1,14.75 23.21,28.42 4.1,13.67 8.93,26.57 12.53,40.89l180.25 -0.91c4.47,-29.99 3.33,-121.21 -6.19,-147.38 -14.07,-38.69 -41.43,-57.2 -83.88,-69.01l-64.03 -0.5 -38.43 139.06 -3.87 5.42 -2.55 -7.64 -12.97 -70.96c4.86,-4.04 12.22,-9.69 18.54,-16.02l-22.64 -13.56c-3.58,1.68 -7.86,3.7 -11.43,5.94l-10.38 8.59c19.25,15.97 19.54,10.18 13.15,40.83 -3.23,15.56 -5.06,38.53 -12.19,50.49l-39.75 -142.88 -65.35 1.32c-44.26,13.96 -67.88,28.56 -83.68,69.23 -9.55,24.6 -10.06,118.37 -6.05,147.01l180.27 0.97zm19.46 -398.29c56.52,-22.91 83.2,59.71 33.31,81.65 -51.14,22.49 -93.34,-57.32 -33.31,-81.65zm-4.44 -51.51c-51.15,12.95 -8.4,18.78 -61.64,-7.15l-17.94 16.73c16.59,36.45 27.15,15.1 7.24,59.94l-36.14 10.17 -0.4 24.86c39.35,6.13 35.27,4.36 48.67,37.67l-19.2 31.78 17.55 17.39c50.38,-25.05 9.92,-22.53 60.46,-6.84l9.19 36.55 24.47 -0.15 8.3 -34.83c5.81,-3.84 26.98,-13.22 31.56,-12.49 3.03,0.49 24.45,14.99 30.29,17.5l17.61 -16.47c-11.84,-32.21 -28.44,-17.61 -5.89,-61.65l35.58 -8.63 -0.1 -23.69 -37.07 -9.77c-16.36,-42.3 -10.51,-26.59 7.4,-60.53l-16.59 -18.44 -30.27 18.95c-31.98,-12.04 -33.28,-4.6 -39.57,-48.09l-25.95 0.07 -7.56 37.12zm-3.67 465.78c2.3,19.91 -14.33,13.71 -34.52,13.61 -16.41,-0.08 -33.19,-0.38 -49.55,0.37 14.89,16.95 46.87,31.96 65.73,49.52l-24.55 78.37c22.8,-12.17 44.79,-35.29 66.95,-46.48 12.2,6.06 51.72,38.36 67.73,46.25l-23.7 -78.51c8.17,-8.02 22.36,-17.28 31.67,-23.85 8.51,-6 23.54,-19.38 32.77,-21.61 -5.12,-4.19 -4.19,-4.2 -20.42,-4.22l-62.08 0.07 -21.21 -66.46c-0.37,-0.83 -1.88,-3.59 -2.19,-4.18l-2.57 -4c-11.22,16.57 -12.11,47.06 -24.06,61.12zm-333.14 88.78c6.2,9.15 52.47,41.52 65.26,48l-25.12 79.72c12.43,-6.62 23.12,-15.28 33.87,-23.46 11.44,-8.71 21.61,-14.89 31.76,-23.63l69.21 47.29 -24.34 -77.41c5.34,-7.55 24.43,-19.68 31.98,-25.09 7.36,-5.28 9.62,-6.32 17.3,-11.96l14.78 -14.01 -81.01 -0.06 -24.05 -76.74 -16.46 39.77c-4.01,12.85 -7.35,24.07 -12.54,37.02l-80.64 0.56zm584.24 -6.98l-4.41 6.48 -79.87 0.22c7.68,9.31 47.28,38.67 56.63,40.65l15.43 0.01c1.92,14 0.29,5.69 -0.96,18.92 6.75,2.69 6.63,0.72 13.47,-2.83l-1.07 18.64 10.07 -4.64c15.2,-4.53 -2.69,0.42 15.38,5.76 9.29,2.75 4.85,2.53 11.94,0.1 8.36,3.05 -7.9,9.39 16.88,14.21 0.97,-11.57 3.31,-8.2 1.9,-19.24l-4.54 -13.52c-2.76,-10.23 -0.48,-28.7 -1.55,-42.13 18.4,0.31 44.97,3.99 54.67,-3.22 -5.04,-8.23 -6.72,-6.79 -29.32,-6.13 -37.62,1.09 -25.86,-0.66 -27.21,-6.86l-1.57 -7.53 -12.19 -8.69c-9.74,4.81 -7.93,-8.34 -8.79,11.79l-11.63 -1.37c-0.39,0.08 -1.19,0.48 -1.57,0.55l-11.69 -1.17zm-27.65 47.35c6.84,11.71 8.93,5.34 5.44,18.36 -1.85,6.9 -5.51,15.89 -7.57,22.26 -4.8,14.92 -11.02,30.77 -14.19,46.06 23.79,-10.1 45.01,-34.34 68.51,-46.43 14.67,12.51 47.99,37.4 66.19,46.56l-24.52 -76.67c14.26,-16.52 53.62,-35.4 64.28,-51.11l-83.05 0.04c1.35,6.2 -10.41,7.95 27.21,6.86 22.6,-0.66 24.28,-2.1 29.32,6.13 -9.7,7.21 -36.27,3.53 -54.67,3.22 1.07,13.43 -1.21,31.9 1.55,42.13l4.54 13.52c1.41,11.04 -0.93,7.67 -1.9,19.24 -24.78,-4.82 -8.52,-11.16 -16.88,-14.21 -7.09,2.43 -2.65,2.65 -11.94,-0.1 -18.07,-5.34 -0.18,-10.29 -15.38,-5.76l-10.07 4.64 1.07 -18.64c-6.84,3.55 -6.72,5.52 -13.47,2.83 1.25,-13.23 2.88,-4.92 0.96,-18.92l-15.43 -0.01zm27.65 -47.35l11.69 1.17c0.38,-0.07 1.18,-0.47 1.57,-0.55l11.63 1.37c0.86,-20.13 -0.95,-6.98 8.79,-11.79l12.19 8.69c-2.7,-13.09 -17.78,-61.74 -23.82,-70.03l-22.05 71.14zm-224.18 -295.62c3.3,12.01 20.86,21.15 32.29,25.02 12.71,-19.11 8.42,-54.68 24.93,-57.69l-7.35 -6.08c-18.3,10.26 -35.87,34.19 -49.87,38.75zm-62.78 -33.01c13.88,2.22 18,45.6 24.76,57.95 12.39,-4.41 28.79,-12.18 32.78,-25.08 -14.81,-4.69 -33.62,-29.97 -50.83,-39.23l-6.71 6.36zm38.62 109.79l7.81 -29.06c-8.53,-3.77 -11.15,-6.98 -18.97,-11.03l11.16 40.09zm35.72 -28.86l5.23 29.31 13.86 -40.3c-8.27,3.35 -12.38,7.34 -19.09,10.99z"/>
 </g>
</svg>
