<?xml version="1.0" encoding="UTF-8"?>
<!DOCTYPE svg PUBLIC "-//W3C//DTD SVG 1.1//EN" "http://www.w3.org/Graphics/SVG/1.1/DTD/svg11.dtd">
<!-- Creator: CorelDRAW 2019 (64-Bit) -->
<svg xmlns="http://www.w3.org/2000/svg" xml:space="preserve" width="100%" height="100%" version="1.1" style="shape-rendering:geometricPrecision; text-rendering:geometricPrecision; image-rendering:optimizeQuality; fill-rule:evenodd; clip-rule:evenodd"
viewBox="0 0 737.23 719.68"
 xmlns:xlink="http://www.w3.org/1999/xlink">
 <defs>
  <style type="text/css">
   <![CDATA[
    .fil0 {fill:white}
   ]]>
  </style>
 </defs>
 <g id="Layer_x0020_1">
  <metadata id="CorelCorpID_0Corel-Layer"/>
  <path class="fil0" d="M224.32 291.78l-0.23 -113.23c35.35,-15.52 65.84,-34.26 100.72,-49.84l0.82 112.8 -101.31 50.27zm-120.84 -163.43l101.52 50.41 -0.08 112.4c-20.95,-8.68 -89.93,-46.49 -101.3,-49.42l-0.14 -113.39zm12.96 -14.76c6.25,-7.36 97.47,-49.49 99.13,-49.44 4.89,0.16 93.39,45.12 97.11,49.34 -14.88,6.32 -89.58,48.19 -98.9,47.77 -6.67,-0.31 -83.72,-42.27 -97.34,-47.67zm-31.26 137.37c17.8,9.91 115.8,62.91 127.28,64.65 8.64,1.31 54.3,-24.31 65.49,-29.98 13.38,-6.77 58.53,-26.53 64.6,-33.32 3.46,-9.55 3.56,-130.84 0.35,-144.85 -3.83,-3.44 -2.09,-1.78 -7.36,-4.66 -2.66,-1.46 -6.98,-4.09 -7.48,-4.53 -17.72,-6.17 -43.76,-21.31 -61.31,-30.15 -66.31,-33.41 -38.03,-32.83 -121.51,8.59 -17.55,8.71 -45.73,20.23 -59.24,30.32 -4.5,25.55 -2.12,114.16 -0.82,143.93zm221.02 444.55l0.04 -193.18c2.33,1.6 21.68,26.44 26.33,32.21l82.59 103.05c-4.57,3.82 -103.06,56.33 -108.96,57.92zm-127.61 -57.92c8.49,-11.73 17.39,-22.22 26.81,-34.27l27.53 -34.22c9.78,-11.76 18.23,-22.08 27.75,-34.01 4.39,-5.49 8.6,-11.19 13.19,-16.7l13.58 -15.76 -0.1 193.06 -82.27 -43.64c-6.87,-3.74 -20.09,-8.8 -26.49,-14.46zm226.97 28.92c6.02,-7.35 27.73,-15.81 34.5,-19.99 -0.77,-10.35 -0.59,-10.47 -5.63,-16.46l-76.68 -94.63c-8.68,-11.09 -47.72,-57.09 -49.66,-64.72 -6.23,-3.89 -10.17,-13.77 -25.89,6.28l-112.47 140.62c-12.56,14.78 -22.84,23.98 -8.76,32.99l117.27 62.13c22.31,10.53 18.6,11.46 63.96,-14.14 12.01,-6.78 53.93,-30.37 63.36,-32.08zm120.68 -309.92c-7.73,-56.63 34.03,-101.63 82.2,-108.76 25.9,-3.83 54.84,4.47 74.33,20.39 80.97,66.16 12.19,200.44 -91.43,166.81 -22.71,-7.37 -30.75,-17.61 -42.51,-28.93 -11.6,-11.16 -20.33,-32.92 -22.59,-49.51zm43.43 -116.75c-0.17,0.17 -7.09,4.5 -9.89,6.29 -0.39,0.25 -4.59,3.02 -4.84,3.2 -42.85,30.28 -60.89,88.29 -39.56,138.1 36.49,85.21 140.79,89.3 190.28,36.69 5.81,-6.17 9.75,-12.8 14.96,-21.11 4.63,-7.39 8.62,-20.2 12.02,-24.51 3.7,-22.16 6.52,-31.87 2.93,-55.78 -2.4,-8.2 -3.93,-16.22 -7.2,-24.19 -3.54,-8.66 -9.46,-16.71 -11.79,-23.23l-7.37 -7.77c-16.82,-15.11 -24.21,-25.53 -53.32,-34.64 -35.95,-11.26 -54.22,-3.16 -86.22,6.95zm-500.54 163.99c2.31,-4.09 5.86,-7.52 3.03,-14.52 -0.56,-1.38 -3.31,-4.32 -5.02,-5.87l-5.39 -4.93 69.17 -22.75 -5.6 67.14c-6.12,-2.15 -15.53,-11.56 -24.13,-15.9 -13.92,-7.01 -22.9,3.7 -11.09,15.35 -3.71,5.03 -6.68,8.11 -11.33,11.08 -1.2,6.85 -0.29,2.49 -2.92,6.63l-5.02 6.98c-11.54,16.59 -18.63,37.2 -9.75,55.88 25.61,1.77 8.42,-15.77 20.54,-37.43l23.69 -31.25c10.18,4.79 27.54,22.61 35.91,11.46 3.31,-10.33 10.66,-100.11 7.83,-108.35 -12.79,-9.28 -41.25,6.14 -58.29,11.59 -19.63,6.28 -80.49,17.12 -55.14,36.32 5.01,3.79 7.59,4.41 12.94,9.19 -13.33,18.47 -20.92,18.62 -38.31,53.96 -36.9,74.98 32.93,108.17 97.9,115.56 18.93,2.16 30.07,6.16 25.91,-14.35 -12.25,-5.18 -43.89,-6.32 -63.13,-12.79 -21.07,-7.1 -38.41,-15.13 -46.62,-30.57 -20.1,-37.85 32.38,-96.72 44.82,-102.43zm301.33 -312.95c16.16,0.71 7.77,-1.06 16.65,-3.34 8.76,-18.72 25.34,-31.53 37.27,-44.4 12.41,-13.4 34.76,-27.66 54.71,-23.32 18.34,3.99 33.35,23.86 42.26,38.94 12.38,20.93 14.65,38.75 21.91,59.69 11.8,1.62 10.84,0.44 20.78,-3.7 -0.68,12.85 -11.05,62.07 -15.57,70.97l-54.4 -39.28c6.96,-1.7 14.28,-5.8 20.67,-8.67 11.89,-5.35 13.02,-5.94 10.58,-19.16 -4.7,-1.39 -8.83,-2.24 -14.01,-0.44 -9.33,-21.1 -13.08,-47.21 -39.63,-61.8 -13.24,-7.27 -21.04,-3.8 -19.11,11.89 17.36,12.15 26.52,11.76 34.57,39.21l6.94 20.42c-8.92,2 -30.53,8.89 -28.43,20.7 1.27,7.18 15.37,13.05 27.64,22.15l57.18 40.34c16.65,1.32 14.71,-6.33 17.8,-22.43 3.55,-18.48 22.44,-90.23 17.53,-96.84 -11.8,-7.63 -15.54,0.27 -28.74,4.58 -9.66,-20.45 -18.14,-63.62 -51.86,-85.28 -26.07,-16.74 -48.01,-13.2 -73.24,1.62 -12.18,7.16 -17.32,13.54 -26.25,21.72 -4.67,4.28 -6.13,7.11 -10.66,11.31 -12.11,11.22 -28.05,28.44 -24.59,45.12zm130.73 531.56c11.35,3.87 13.3,11.79 22.35,18.2 6.12,4.34 5.71,3.27 10.75,9.16 4.27,5.01 6.5,6.36 9.91,10.81 13.48,3.02 3.57,10.46 23.19,7.77l4.18 -25.58c39.86,5.09 85.11,16.5 117.72,-15.85 7.01,-6.95 10.75,-11.54 14.31,-23.97 10.9,-38.13 -11.74,-75.7 -12.74,-95.44 -5.5,-5.18 -8.93,-16.99 -11.8,-22.08 -21.55,-1.19 -16.4,9.21 -9.82,23.11 11.39,24.04 26.57,74.27 12.87,97.4 -16.53,27.91 -60.94,26.86 -91.72,21.07 -10.41,-1.95 -23.36,-8.24 -33.36,-4.63 -3.12,2.39 -2.74,12.7 -7.34,17.46 -14.36,-18.34 -42.64,-36.77 -51.89,-50.22 16.49,-3.6 44.96,-23.46 60.74,-26.93 -1.99,37.36 -7.35,40.64 13.41,39.93l4.42 -10.46c16.64,3.32 34.59,7.04 51.84,4 10.39,-1.84 40.84,-14.36 25.61,-26.49 -11.58,-9.21 -25.17,22.82 -75.99,2.74 -1.41,-8.67 1.48,-20.51 0.68,-26.35 -2.66,-19.45 -27.66,-1.24 -43.64,5.95 -12.43,5.58 -24.98,12.23 -37.84,17.97 -54.68,24.41 -9.94,27.16 4.16,52.43zm59.89 -296.51c19.57,5.41 13.72,-7.31 20.66,-19.89 6.88,-12.48 15.04,-8.95 28.39,-15.28 2.61,-10.74 3.57,-15.78 -9.65,-15.66 -25.7,0.24 -46.75,26.51 -39.4,50.83z"/>
 </g>
</svg>
