<?xml version="1.0" encoding="UTF-8"?>
<!DOCTYPE svg PUBLIC "-//W3C//DTD SVG 1.1//EN" "http://www.w3.org/Graphics/SVG/1.1/DTD/svg11.dtd">
<!-- Creator: CorelDRAW 2019 (64-Bit) -->
<svg xmlns="http://www.w3.org/2000/svg" xml:space="preserve" width="100%" height="100%" version="1.1" style="shape-rendering:geometricPrecision; text-rendering:geometricPrecision; image-rendering:optimizeQuality; fill-rule:evenodd; clip-rule:evenodd"
viewBox="0 0 645.8 719.68"
 xmlns:xlink="http://www.w3.org/1999/xlink">
 <defs>
  <style type="text/css">
   <![CDATA[
    .fil0 {fill:white}
   ]]>
  </style>
 </defs>
 <g id="Layer_x0020_1">
  <metadata id="CorelCorpID_0Corel-Layer"/>
  <path class="fil0" d="M378.58 428.05c25.52,-2.78 41.07,-11.94 61.65,-19.35l7.41 14.92c-17.91,7.12 -44.18,21.46 -67,20.61l-2.06 -16.18zm-114.19 -19.34c7.5,2.1 19.58,8.45 28.61,11.65 9.39,3.32 22.94,6.72 33.3,7.55l-2.17 16.78c-25.18,-2.38 -47.78,-11.61 -67.07,-21.41l7.33 -14.57zm217.7 -32.2c17.03,-13.7 24.78,-29.09 37.85,-50.71l15 7.39c-5.71,15.71 -31.78,50.66 -42.06,56.11 -3.74,-3.29 -8.7,-7.93 -10.79,-12.79zm-270.59 12.9c-3.99,-1.86 -1.38,-0.23 -4.73,-3.27 -0.95,-0.87 -1.93,-2.08 -2.87,-3.12 -2.33,-2.55 -3.29,-3.58 -5.59,-6.45 -3.91,-4.87 -6.54,-7.95 -10.7,-13.34 -6.87,-8.88 -12.48,-19.25 -17.72,-29.66l14.53 -7.17c3.72,3.88 5.81,9.66 8.26,13.68 11.98,19.66 25.27,31.32 29.96,38.58l-11.14 10.75zm74.44 -269.33l35.67 -0.06 0.2 32.34c13.94,3.83 25.31,6.04 34.06,13.99 7.21,6.56 15.56,17.83 14.48,32.42l-36.97 0.82c-3.39,-6.98 -4.1,-11 -11.38,-14.42 -10,-4.71 -50.67,-8.52 -50.53,14.19 0.14,22.89 39.12,20.24 66.97,31.05 56.31,21.86 49.81,97.33 -16.29,105.83l0.09 29.65c-6.8,1.69 -29.63,1.82 -36.25,-0.1 0.01,-31.22 1.88,-27.4 -4.84,-29.95 -2.59,-0.98 -7.52,-0.88 -17.46,-5.12 -19.27,-8.22 -36.4,-27.67 -35.9,-49.69 10.83,-0.52 27.99,-5.33 36.81,-1.91 5.99,15.73 7.95,22.45 25.42,26.79 48.39,12.04 60.64,-27.97 39.17,-40.64 -23.96,-14.13 -91.81,-8.87 -94.77,-59.95 -1.78,-30.76 23.32,-49.34 51.38,-52.27l0.14 -32.97zm129.52 133.41c-1.02,-24.69 -6.9,-40.12 -18.26,-56.21 -6.77,-9.59 -10.93,-10.18 -15.85,-21.71 -3.64,-8.53 -9.46,-16.45 -14.54,-20.82 28.45,-0.4 57.67,16.56 72.79,30.16 18.76,16.88 26.98,35.8 34.25,68.16l31.42 -0.26c-2.28,5.92 -10.53,15.76 -14.61,21.05 -4.86,6.31 -9.64,13.16 -14.72,19.91 -3.76,4.97 -24.91,35.07 -29.71,38.37l-59.86 -78.5 29.09 -0.15zm-263.99 25.74c-3.76,-37.09 -4.89,-65.97 6.91,-99.92 29.23,-84.07 104.23,-141.23 194.52,-140.85 33.81,0.14 64.58,8.64 91.12,21.71 27.86,13.71 43.04,28.43 62.2,49.09 17.15,18.5 30.62,41.78 40.42,70.97 11.89,35.38 10.38,61.58 6.61,99.41l-15.23 -2.99c-0.88,-1.93 -0.38,1.34 -0.91,-3.52l0.66 -7.67c7.36,-49.33 -10.97,-110.31 -43.47,-144.24 -8.04,-8.39 -15,-17.29 -25.82,-25.36 -33.28,-24.8 -68.48,-39.6 -114.03,-40.32 -82.35,-1.31 -153.18,51.7 -179.51,128.33 -15.73,45.77 -5.58,62.71 -7.23,92.65l-16.24 2.71zm169.88 -278c-20.11,6.15 -26.91,1.86 -62.38,16.9 -36.01,15.26 -67.37,38.2 -92.08,67.48 -71.49,84.75 -78.13,207.48 -13.22,297.95 21.9,30.53 47.95,55.53 85.73,75.36 36.71,19.27 82.45,31.17 131.09,27.37 61.21,-4.8 125.26,-35.89 160.84,-78.44 12.29,-14.7 26.92,-28.94 33.74,-47.47 6.54,-4.65 20.98,-47.81 23.77,-58.98 17.14,-68.61 1.67,-145.63 -38.02,-199.07 -55.52,-74.75 -130.99,-109.47 -229.47,-101.1zm194.08 506.61c-9.2,13.83 -48.95,28.2 -59.62,40.61 6.68,25.82 3.66,50.11 -26.13,50.81l-129.4 0.76c-10.24,0 -33.39,3.76 -33.83,-7.96 -0.46,-12.3 23.42,-8.62 33.83,-8.62 35.9,0 98.08,1.75 128,0 15.8,-0.93 18.29,-12.41 12.93,-26.9 -19.6,-52.98 -97.19,-20.39 -139.39,-32.2 -11.36,-3.18 -22.69,-6.3 -34.64,-8.33 -19.83,-6.68 -65.61,-9.39 -88.26,-7.67 -43.4,3.3 -74.75,16.86 -105.83,41.68l-73.09 70.21c4.69,6.79 95.54,96.83 100.32,99.45 21.12,-16.6 40.44,-50.66 79.6,-53.69 20.15,-1.55 106.4,-0.17 133.9,-0.17 30.72,0 105.16,4.53 127.74,-6.23 9.68,-4.62 28.85,-20.47 38.19,-27.97 12.24,-9.83 24.23,-20.02 36.83,-29.34 14.1,-10.43 63.21,-49.56 72.67,-61.28l51.51 -82.43c21.98,-49.04 -33.49,-51.25 -61.35,-17.7 -2.13,2.58 -59.36,66.37 -63.98,66.97z"/>
 </g>
</svg>
