<?xml version="1.0" encoding="UTF-8"?>
<!DOCTYPE svg PUBLIC "-//W3C//DTD SVG 1.1//EN" "http://www.w3.org/Graphics/SVG/1.1/DTD/svg11.dtd">
<!-- Creator: CorelDRAW 2019 (64-Bit) -->
<svg xmlns="http://www.w3.org/2000/svg" xml:space="preserve" width="100%" height="100%" version="1.1" style="shape-rendering:geometricPrecision; text-rendering:geometricPrecision; image-rendering:optimizeQuality; fill-rule:evenodd; clip-rule:evenodd"
viewBox="0 0 655.31 719.67"
 xmlns:xlink="http://www.w3.org/1999/xlink">
 <defs>
  <style type="text/css">
   <![CDATA[
    .fil0 {fill:white}
   ]]>
  </style>
 </defs>
 <g id="Layer_x0020_1">
  <metadata id="CorelCorpID_0Corel-Layer"/>
  <path class="fil0" d="M484.18 506.67c-0.69,-15.53 -1.59,-69.61 1.49,-81.29 12.93,-48.89 81.96,-47.13 93.4,0.59 2.8,11.7 2.37,66.8 1.32,81.1 -8.99,0.94 -91,1.04 -96.21,-0.4zm116.26 -272.94l-14.2 63.77 9.16 0.65 -0.02 0.22c-1.92,17.72 -4.55,36.99 -6.54,54.31 -0.52,7.5 -3.16,11.82 1.05,16.17 1.97,2.04 7.36,7.43 10.24,7.93l2.81 -16.78c-1.95,-5.92 5.71,-57.38 6.82,-67.07 1.39,-12 2.31,-22.86 3.75,-34.53 1.07,-8.66 3.81,-24.99 3.52,-33.28 0.05,-2.34 0.14,-4.3 0.23,-5.97 -0.09,1.67 -0.18,3.63 -0.23,5.97l0.87 -1.76c1.57,-4.49 0.68,-4.03 1.37,-7.51 0.1,-3.32 0.19,-5.41 0.35,-7.32l6.23 -27.98 -2.94 0.42 0.35 -2.44c-0.58,0.84 -0.94,1.68 -1.19,2.57 0.25,-0.89 0.61,-1.73 1.19,-2.57 -0.57,-8.87 1.19,-17.23 2.69,-26.58 0.95,-5.93 0.9,-24.38 4.37,-28.8 -4.08,-12.06 10.45,-47.79 1.66,-67.96 -9.02,-20.68 -26.23,-19.97 -51.31,-23.53 -31.74,-2.26 -66.48,-8.2 -97.36,-11.4 -32.46,-3.36 -65.36,-6.9 -97.36,-11.15 -16.1,-2.14 -86.34,-11.74 -97.55,-8.42 -12.21,3.62 -23.05,14.02 -25.38,28.86 -1.56,9.94 -5.87,40.5 -5.28,49.13l9.49 0.17c7.44,-1.24 5.3,-15.99 7.48,-33.63 1.44,-11.65 1.42,-20.63 9.68,-27.39 8.99,-7.36 18.94,-4.21 30.35,-3.15 11.65,1.1 22.75,2.59 34.18,3.79l199.82 23.16c82.87,9.36 75.34,2.82 68,72.68 -2.13,20.26 -7.16,47.32 -7.6,66.24 4.02,4.85 1.06,-1.3 5.69,1.6 -4.63,-2.9 -1.67,3.25 -5.69,-1.6l-3.42 23.86 1.66 -2.62 -1.66 2.62c0.11,1.61 0.17,2.96 0.19,4.12l-5.47 25.2zm-160.6 453.36l14.81 -0.01c37.98,0.19 181.57,1.64 188.85,-1.15 14.03,-5.39 11.46,-21.88 11.46,-37.54l0 -99.31c0,-17.1 3.39,-34.62 -10.98,-39.65l1.83 2.42c0.16,-0.24 0.65,0.65 1.06,0.82 -10.43,0.24 -0.87,0.88 -5.14,4.05l0 -4.41 -5.44 4.07c-0.19,0.13 -0.45,0.31 -0.65,0.45l-5.98 3.98c-1.67,1.47 -2.09,2.53 -3.02,3.68 -2.52,3.14 -4.28,3.12 -7.32,5.86 -6.19,5.55 -4.95,5.34 -3.7,7.34 -6.49,-2.02 -1.84,-1.39 -6.04,2.72 -0.54,0.52 -1.13,0.98 -1.79,1.54l-16.78 14.69c-0.21,0.09 -0.42,0.9 -3.72,1.28 -1.28,-9.7 -10.45,-7.3 -12.69,-8.5l-5.19 -4.48 -4.98 1.42c-2.33,1.77 3.68,1.21 -2.88,1.26 0.2,0.25 0.51,0.54 0.66,0.71l1.21 1.36c0.2,0.25 0.79,0.96 0.94,1.2 1.17,1.77 0.49,-0.23 0.87,2.24 -1.3,-1.05 -0.63,-1.12 -2.05,-2.56l-3.44 -2.89c-0.24,-0.65 -0.74,-0.55 -1.13,-0.8l3.72 6.81c1.46,3.38 2.28,7.34 2.01,11.58 0.27,-4.24 -0.55,-8.2 -2.01,-11.58l-3.72 -6.81c0.39,0.25 0.89,0.15 1.13,0.8l3.44 2.89c1.42,1.44 0.75,1.51 2.05,2.56 -0.38,-2.47 0.3,-0.47 -0.87,-2.24 -0.15,-0.24 -0.74,-0.95 -0.94,-1.2l-1.21 -1.36c-0.15,-0.17 -0.46,-0.46 -0.66,-0.71 6.56,-0.05 0.55,0.51 2.88,-1.26l4.98 -1.42 5.19 4.48c2.24,1.2 11.41,-1.2 12.69,8.5 3.3,-0.38 3.51,-1.19 3.72,-1.28l16.78 -14.69c0.66,-0.56 1.25,-1.02 1.79,-1.54 4.2,-4.11 -0.45,-4.74 6.04,-2.72 -1.25,-2 -2.49,-1.79 3.7,-7.34 3.04,-2.74 4.8,-2.72 7.32,-5.86 0.93,-1.15 1.35,-2.21 3.02,-3.68l5.98 -3.98c0.2,-0.14 0.46,-0.32 0.65,-0.45l5.44 -4.07 0 4.41c4.27,-3.17 -5.29,-3.81 5.14,-4.05 -0.41,-0.17 -0.9,-1.06 -1.06,-0.82l-1.83 -2.42 -2.24 -1.73 -32.43 -0.45c-3.45,-35.97 6.44,-74.04 -8.34,-104.17 -27.97,-57.01 -110.73,-56.14 -137.82,0.87 -14.42,30.35 -4.6,68.52 -8.14,103.34 -15.64,0.37 -36.51,-3.59 -43.32,9.7 -3.71,7.26 -2.25,145.08 -1.6,156.77 1.78,4.97 5.19,9.84 10.78,12.07 2.72,1.09 4.89,1.25 7.43,1.27l0.12 0 1.04 0 0.17 0 0.18 0 0.18 -0.01 0.19 0 0.18 0 0.19 0 0.19 0 0.19 0 0.19 0 0.19 0.01 0.4 0c3.65,0.04 6.16,0.51 8.13,-0.01zm79.86 -82.97l-3.98 16.49 -0.09 1.29 -0.74 2.17 -4.75 19.73c-0.85,4.37 -0.79,6.8 3.42,11.9 6.44,1.42 31.31,1.62 36.64,0 7.45,-4.67 3.93,-13.64 1.89,-21.74 -1.57,-6.25 -3.53,-15.65 -5.22,-21.43l-0.69 -3.59 -4.84 -17.36c1.14,0.19 4.3,-2.27 4.3,-2.27l0 0c0.04,-0.29 0.06,-0.84 -0.02,-1.95 0.73,0.11 1.4,0.28 2.02,0.49 4.34,-3.41 7.16,-7.36 8.96,-11.28 0.55,-1.89 1.15,-3.24 1.67,-4.57 2.41,-8.5 0.79,-15.82 0.79,-15.82 -3.8,-8.02 -6.38,-14.63 -16.72,-18.41 -30.99,-11.36 -57,33.23 -19.29,52.4l-2.45 13.34 -0.9 0.61zm-21.72 36.6c0.62,1.2 1.12,2.6 1.44,4.36 -3.08,2.05 -8.14,7.73 -11.37,4.41 -2.94,-7.07 0.07,-6.92 3.35,-9.93 -1.46,-1.16 -0.67,-0.62 -2.31,-1.87l-5.24 4.66 0.74 -6.09c-0.32,0.16 -0.67,0.43 -0.89,0.6l-3.5 3.39c1.61,5.49 4.58,10.13 4.88,16.35 -5.67,-0.04 -3.97,-0.7 -8.47,-3.1 0.93,3.7 1.87,4.54 1.1,7.99 -5.47,0.95 -8.44,-4.11 -13.35,-6.81l-3.26 0.89 2.01 2.75c-3.57,1.9 -3.21,-1.26 -4.86,3.53 6.93,-0.48 7.93,-3.5 11.31,3.09 -1.18,4.93 -2.97,5.87 -8.71,6.04 2.29,-2.91 -0.28,-0.33 2.28,-2.32 2.15,-1.67 1.44,0.37 3.28,-2.61 -4.95,-4.67 -10.98,5.74 -11.2,-6.62 -0.32,0.3 -0.66,0.68 -0.9,0.94l-2.75 2.88c2.45,5.08 5.73,7.11 8.16,11.62l-5.94 6.08c-0.26,0.02 -0.53,0.03 -0.8,0.02 0.27,0.01 0.54,0 0.8,-0.02l5.94 -6.08c-2.43,-4.51 -5.71,-6.54 -8.16,-11.62l-2.97 1.62 2.97 -1.62 2.75 -2.88c0.24,-0.26 0.58,-0.64 0.9,-0.94 1.37,-0.67 2.62,-2.34 5.89,-3.86l3.26 -0.89c-0.31,-4.29 -0.9,-1.15 0.99,-3.53l8.27 5.5 -2.8 -10.33c6.8,0.3 4.21,2.28 9.67,4.54l-2.6 -8.97 2.31 -1.64 3.5 -3.39c0.22,-0.17 0.57,-0.44 0.89,-0.6 0.75,-0.14 1.6,-0.43 2.51,-0.78 -0.91,0.35 -1.76,0.64 -2.51,0.78l-0.74 6.09 5.24 -4.66c1.64,1.25 0.85,0.71 2.31,1.87 -3.28,3.01 -6.29,2.86 -3.35,9.93 3.23,3.32 8.29,-2.36 11.37,-4.41 -0.32,-1.76 -0.82,-3.16 -1.44,-4.36zm-45.94 36.78c0.56,0.03 1.2,-0.1 1.94,-0.42 3.06,-2.81 -2.82,-6.34 -5.04,-10.9 2.22,4.56 8.1,8.09 5.04,10.9 -0.74,0.32 -1.38,0.45 -1.94,0.42zm107.02 -121.32l0.12 0.25 0.19 0.39 0.19 0.4c3.17,1.93 1.29,-0.02 2.2,3.7 -0.91,-3.72 0.97,-1.77 -2.2,-3.7l-0.5 -1.04zm-109.49 -435.05c2.96,1.23 24.37,31.73 27.94,36.81 2.57,3.66 25.82,34.29 26.51,37.5 -60.21,2.15 -55.77,-1.86 -54.45,-74.31zm-298.77 466.57c2.59,4.35 2.5,11.98 12.58,20.08 7.04,5.66 14.66,8.22 25.54,8.27 24.01,0.13 199.33,1.23 207.75,-0.46l0.15 -12.7c-12.68,-2.14 -176.24,1 -210.12,-0.38 -7.54,-0.31 -17.65,-4.14 -19.19,-11.94 -6.66,-5.54 -3.64,-43.88 -3.64,-55.83l0 -387.29c0,-8.41 -2.52,-22.99 3.02,-28.63 -0.24,-5.93 7.42,-11.55 13.52,-11.71 4.08,-3.13 112.69,-1.44 126.62,-1.48 20.72,-0.04 116.63,-1.08 128.7,0.29 2.92,23.22 -4.96,67.12 4.81,84.61 14.04,25.11 38.72,17.06 70.73,18.52l0.15 140.25 13.36 -1.58 0.01 -148.66 -68.31 -92.92c-14.69,-19.67 -2.26,-14.19 -58.97,-14.17l-197.51 0c-18.4,-0.01 -28.47,-0.4 -39.24,10.73 -10.92,11.29 -10.34,20.36 -10.33,39.23l0 345.36c0,31.98 -1.72,69.05 0.37,100.41zm416.02 -18.26c3.77,-2.43 12.65,4.11 13.87,11.64 -3.43,2.19 -4.1,3.26 -4.68,3.84 0.58,-0.58 1.25,-1.65 4.68,-3.84 -1.22,-7.53 -10.1,-14.07 -13.87,-11.64zm3.86 6.5c0.31,-0.36 0.52,-1.01 0.56,-2.54l-1.6 -1.12c-0.29,0.24 -0.54,0.45 -0.75,0.65 0.21,-0.2 0.46,-0.41 0.75,-0.65l1.6 1.12c-0.04,1.53 -0.25,2.18 -0.56,2.54zm4.51 -8.37c-3.44,-4.65 -1.18,-5.05 -1.13,-5.19 5.04,-2 6.73,4.71 6.89,5.04 3.19,6.85 3.7,3.19 8.11,5.94 -0.74,2.09 -1.59,3.47 -4.68,2.79l-9.19 -8.58zm-554.45 -175.9c3.05,3.59 3.05,6.82 5.27,10.38 4.42,7.11 5.34,1.77 7.4,6.09 -5.9,3.36 -6.83,0.01 -9.74,-3.46l1.33 12.69 34.24 240.95c1.36,4.99 2.69,16.73 3.24,22.11 0.89,8.86 3.8,15.08 4.5,21.02l12.07 0.75 -5.35 7.98c4.4,2.06 7.2,5.84 14.54,8.21 12.8,4.13 43.74,-2.89 62.13,-5.06 26.77,-3.15 54.95,-8.03 82.02,-11.69 54.42,-7.36 110.88,-14.61 165.05,-23.56l-0.86 -12.8c-10.02,-0.18 -58.7,7.68 -73.07,9.72 -70.12,9.95 -146.38,19.71 -216.05,30.74 -32.27,5.12 -29.97,-20.44 -34.04,-45.72 -4.83,-29.97 -31.08,-211.79 -29.87,-216.61l-0.82 -1.63c-1.59,-3.97 -2.97,-18.06 -4.4,-27.9 -2.65,-18.26 -8.18,-14.25 -9.49,-20.81 -1.15,-5.76 4.83,2.83 6.99,4.13 -2.06,-24.55 -7.68,-51.21 -10.76,-75.51 -3.22,-25.42 -7.02,-49.89 -10.54,-74.62 -5.08,-35.66 18.34,-32.87 47.6,-36.87 24.95,-3.41 48.96,-7.57 74.91,-10.42l0.04 -13.76c-12.36,0.81 -27.6,3.74 -40.58,5.61 -13.02,1.86 -26.79,3.85 -39.89,5.59 -21.73,2.89 -52.33,3.47 -56.46,34.16 -2.3,17.09 21.96,147.33 20.59,160.29zm445.65 -93.81l0.59 -13.14 -258.5 -0.24c-1.43,18.32 1.23,13.49 19.1,13.5l171.03 0c21.77,0 46.37,1.06 67.78,-0.12zm-258.14 57.02c0.14,8.09 -0.99,6 21.54,5.99l214.61 0.01 21.96 -0.05 0.62 -13.25 -258.5 -0.25 -0.23 7.55zm0.28 -120.11l257.93 0.38 0.48 -13.25 -259.21 0.02 0.8 12.85zm-0.32 251.48l234.23 -0.47 -0.16 -12.43c-9.98,-2.16 -46.39,-0.54 -59.12,-0.54l-44.88 0.35c-14.42,3.43 -2.52,1.33 -14.69,-0.45l-115.38 0.14 0 13.4zm-0.48 -63.08l235.51 0.47c1.1,-4.03 2.71,-9.55 2.79,-13.57l-238.5 0.57c1.08,3.2 1.32,9.3 0.2,12.53zm188.72 126.48l0 -13.93 -188.24 0.04 0.26 13.43 187.98 0.46zm-188 -377.37l194.75 -0.25 -0.02 -12.95 -194.72 0.08 -0.01 13.12zm400.78 20.99l-1 -0.51 1.13 -6.56c0.9,0.65 0.44,0.22 1.21,0.91 -0.77,-0.69 -0.31,-0.26 -1.21,-0.91l-1.13 6.56 1 0.51zm-144.87 461.41c4.91,2.7 7.88,7.76 13.35,6.81 0.77,-3.45 -0.17,-4.29 -1.1,-7.99 4.5,2.4 2.8,3.06 8.47,3.1 -0.3,-6.22 -3.27,-10.86 -4.88,-16.35l-2.31 1.64 2.6 8.97c-5.46,-2.26 -2.87,-4.24 -9.67,-4.54l2.8 10.33 -8.27 -5.5c-1.89,2.38 -1.3,-0.76 -0.99,3.53zm-9.15 4.75c0.22,12.36 6.25,1.95 11.2,6.62 -1.84,2.98 -1.13,0.94 -3.28,2.61 -2.56,1.99 0.01,-0.59 -2.28,2.32 5.74,-0.17 7.53,-1.11 8.71,-6.04 -3.38,-6.59 -4.38,-3.57 -11.31,-3.09 1.65,-4.79 1.29,-1.63 4.86,-3.53l-2.01 -2.75c-3.27,1.52 -4.52,3.19 -5.89,3.86zm118.85 -97.05c-0.05,0.14 -2.31,0.54 1.13,5.19l9.19 8.58c3.09,0.68 3.94,-0.7 4.68,-2.79 -4.41,-2.75 -4.92,0.91 -8.11,-5.94 -0.16,-0.33 -1.85,-7.04 -6.89,-5.04z"/>
 </g>
</svg>
