<?xml version="1.0" encoding="UTF-8"?>
<!DOCTYPE svg PUBLIC "-//W3C//DTD SVG 1.1//EN" "http://www.w3.org/Graphics/SVG/1.1/DTD/svg11.dtd">
<!-- Creator: CorelDRAW 2019 (64-Bit) -->
<svg xmlns="http://www.w3.org/2000/svg" xml:space="preserve" width="100%" height="100%" version="1.1" style="shape-rendering:geometricPrecision; text-rendering:geometricPrecision; image-rendering:optimizeQuality; fill-rule:evenodd; clip-rule:evenodd"
viewBox="0 0 758.23 719.67"
 xmlns:xlink="http://www.w3.org/1999/xlink">
 <defs>
  <style type="text/css">
   <![CDATA[
    .fil0 {fill:white}
   ]]>
  </style>
 </defs>
 <g id="Layer_x0020_1">
  <metadata id="CorelCorpID_0Corel-Layer"/>
  <path class="fil0" d="M376.32 82.09c-34.44,0 -68.28,7.1 -97.85,18.46 -22.05,8.46 -62.39,28.64 -73.71,42.31l55.37 55.26c4.28,-1.49 8.42,-4.77 12.69,-7.37 4.66,-2.83 7.93,-4.51 12.92,-7.13 9.21,-4.82 17.31,-8.01 27.09,-11.47 49.22,-17.42 107.35,-14.2 153.32,8.01 48.43,23.39 82.58,58.01 103.62,108.08 11.25,26.75 15.74,58.44 15.72,90.56l-99.2 -0.07c3.09,5.35 33.02,34.02 41.64,42.99 16.12,16.79 87.12,84.94 91.09,91.6 7.13,-2.89 13.21,-10.15 18.46,-16.55 7.9,-9.63 35.6,-32.53 44.01,-41.91 16.11,-17.97 26.25,-25.56 43.57,-42.3 5.96,-5.75 10.84,-11.77 16.79,-17.5 4.53,-4.37 13.66,-11.41 16.38,-16.24l-93.83 -0.39c-2.84,-88.15 -21.51,-147.1 -80.2,-210.5 -6.45,-6.95 -12.98,-11.46 -19.6,-17.63 -46.86,-43.69 -121.27,-68.21 -188.28,-68.21zm-238.94 125.17c-6.3,5.41 -10.77,9.63 -17.09,17 -11.55,13.45 -39.28,34.17 -51.73,49.86 -11.21,14.13 -33.6,30.5 -43.86,42.02l-24.7 25.51 93.73 0.44c2.52,47.99 4.32,81.16 22.41,122.11 17.08,38.65 31.19,58.76 57.75,86.83 77.62,82.02 200.72,109.59 306.22,68.89 16.64,-6.42 64.72,-29.68 73.36,-42.48 -9.4,-9.11 -18.15,-18.12 -27.73,-27.62 -9.2,-9.11 -18.84,-18.23 -27.63,-27.73 -4.21,1.37 -17.19,10.23 -23.35,13.68 -126.44,70.83 -310.47,-21.75 -301.83,-194.09l99.12 -0.01c-3.16,-6.2 -131.75,-133.07 -134.67,-134.41zm293.89 161.4c5.65,-31.98 -18.49,-59.36 -45.53,-63.67 -33.54,-5.35 -60.29,18.19 -64.65,45.49 -11.64,72.95 97.07,92.39 110.18,18.18zm-389.49 129.02c2.57,9.09 13.42,31.85 19.92,40.41l21.9 -11.36c-2.4,-10.65 -13.59,-24.38 -17.48,-39.09l-24.34 10.04zm-15.36 -42.49l25.03 -6.58 -7.8 -40.66c-6.97,-1.02 -18.59,1.3 -26.16,3.22l8.93 44.02zm453.32 -438.57c-9.95,-6.24 -30.45,-8.98 -43.49,-11.07l-4.22 25.12 40.75 9.68 6.96 -23.73zm42.51 673.1c2.83,-2.89 0.69,-1.07 4.53,-3.2 1.78,-0.99 3.69,-1.67 5.31,-2.65l-5.76 -14.12 -5.27 -8.83 -38.79 15.67 8.53 23.84c9.72,-1.09 23.57,-10.28 31.45,-10.71zm-119.98 29.23c15.14,0.02 29.78,-3.71 44.8,-5.78l-5.15 -25.15 -41.67 5.39 2.02 25.54zm146.97 -643.94c3.6,-6.52 11.13,-16.2 12.92,-22.4 -11,-6.01 -27.16,-16.82 -39.94,-20.25l-9.67 22.9 36.69 19.75zm-488.03 167.72c-4.83,-4.59 -18.07,-8.04 -23.73,-9.77 -4.53,10.7 -11.17,31.21 -13.02,43.24l24.74 5.02 12.01 -38.49zm206.35 461.08c3.86,-5.52 6.86,-16.95 7.84,-24.83 -13.36,-2.11 -27.36,-10.66 -39.2,-13.87l-9.8 22.67c5.3,4.27 33.33,14.74 41.16,16.03zm44.75 10.88c10.45,2.44 34.71,6.46 44.92,4.41l0.45 -24.74 -41.21 -4.76 -4.16 25.09zm78.19 -695.21l1.09 -19.48 -43.89 0.97c-3.59,3.53 -0.12,19.42 0.39,25.53l41.66 -0.32 0.75 -6.7zm-213.05 40.08c2.62,5.53 10.09,18.11 14.14,20.91l35.52 -21.01 -11.07 -22.15c-8.71,2.48 -32.33,16.65 -38.59,22.25zm388.65 595.13l6.27 5.97c6.65,-3.47 11.9,-9.08 18.16,-11.13 1.56,-3.2 13.68,-12.69 17.11,-15 -4.21,-5.76 -10.99,-14.6 -16.67,-19.32 -5.65,3.94 -10.66,8.16 -16.86,12.75l-12.47 8.95c-0.81,0.66 -1.51,1.32 -2.29,2.07l-1.39 1.58c1.93,2.76 2.9,4.4 4.55,7.01l3.59 7.12zm-300.24 -611.04l40.66 -11.36 -4.87 -24.28c-8.23,0.44 -36.66,8.09 -43.91,11.75l8.12 23.89zm-101.34 578.07c-4.69,5.11 -13.03,14.82 -15.19,20.94 9.5,4.67 25.5,20.24 36.99,23.93l12.85 -22.37c-10.45,-3.93 -28.64,-20.93 -34.65,-22.5zm528.3 -92.86c6.26,-13.65 12.42,-25.57 17.77,-39.99 -3.32,-3.61 -18.45,-8.83 -23.74,-9.41 -3.24,6 -5.67,13.84 -8.38,19.67 -2.86,6.16 -6.42,12.21 -8.42,18.18 6.32,3.1 14.54,9.2 22.77,11.55zm15.66 -174.06l26.35 -0.3 -3.76 -45.14 -25.34 3.51 2.75 41.93zm-68.85 247.16c5.43,-2.42 26.13,-28.34 28.4,-34.39 -3.02,-3.3 -15.8,-12 -19.82,-14.25l-19.35 23.51c-3.47,3.69 -3.99,4.23 -6.92,7.92 2.85,4.85 13.51,13.96 17.69,17.21zm43.99 -369.25c4.1,10.67 11.2,28.25 12.63,39.43l25.13 -6.57c-1.94,-13.53 -9.77,-30.65 -14.07,-43.3l-23.69 10.44zm-24.25 -46.97c0.83,1.37 1.52,2.86 2.64,4.5l3.51 4.11 21.06 -13.16c-6.91,-13.49 -16.17,-25.79 -24.15,-36.8 -4.38,2.14 -16.77,11.91 -20.2,15.34l17.14 26.01zm-558.58 408.34c5.62,6.47 7.77,10.46 15.08,15.82 3.32,-2.06 16.42,-15.94 17.52,-18 -4.48,-4.84 -10.03,-10.65 -14.37,-16.02 -3.7,-4.6 -8.77,-12.15 -12.97,-14.99 -5.28,4.05 -14.52,10.61 -19.21,15.27l13.95 17.92zm483.17 -494.46c3.72,4.07 5.08,3.89 8.5,7.13l23.6 20.77c2.85,-6.94 11.92,-12.01 16.22,-17.88 -3.68,-5.22 -26.21,-26.48 -32.72,-29.82 -3.26,2.32 -14.37,15.88 -15.6,19.8zm-426.9 5.5l-16.86 -18.2 -31.6 29.33c2.39,6.64 13.02,14.21 18.72,18.4l29.74 -29.53zm-56.61 63.19l-20.36 -14.76c-5.56,5.26 -20.37,29.67 -23.38,37.66l21.95 11.94 21.79 -34.84z"/>
 </g>
</svg>
