<?xml version="1.0" encoding="UTF-8"?>
<!DOCTYPE svg PUBLIC "-//W3C//DTD SVG 1.1//EN" "http://www.w3.org/Graphics/SVG/1.1/DTD/svg11.dtd">
<!-- Creator: CorelDRAW 2019 (64-Bit) -->
<svg xmlns="http://www.w3.org/2000/svg" xml:space="preserve" width="100%" height="100%" version="1.1" style="shape-rendering:geometricPrecision; text-rendering:geometricPrecision; image-rendering:optimizeQuality; fill-rule:evenodd; clip-rule:evenodd"
viewBox="0 0 940.21 719.68"
 xmlns:xlink="http://www.w3.org/1999/xlink">
 <defs>
  <style type="text/css">
   <![CDATA[
    .fil0 {fill:white}
   ]]>
  </style>
 </defs>
 <g id="Layer_x0020_1">
  <metadata id="CorelCorpID_0Corel-Layer"/>
  <path class="fil0" d="M393.64 69.86c-1.51,12.84 0.85,18.8 0.87,29.53 7.55,4.87 10.96,3.5 15.95,12.76 4.17,7.73 6.11,12.42 10.79,18.71 43.88,58.99 85.4,3.61 93.22,-24.99l6.62 -1.29c2.55,-3.01 3.07,-3.89 5.5,-6.76 3,-11.42 3.54,-18.33 1.01,-29.01 -4.3,-2.61 -0.93,2.81 -3.2,-4.1l-1.56 -14.66c-1.4,-9.48 -2.64,-8.5 -2.35,-17.95 -2.9,-2.42 -1.63,-0.85 -4.43,-4.22 -1.93,-2.31 -1.62,-2.48 -3.29,-4.84 -2.56,-3.63 -2.66,-4.36 -5.91,-7.47 -15.79,-15.1 -45.1,-18.72 -66.12,-12.97 -24.55,6.71 -37.24,22.78 -40.18,45.81 -2.84,22.24 1.64,18.36 -6.92,21.45zm-134.48 293c7.02,-2.9 2.74,0.09 9.08,-5.51 1.58,-1.4 3.41,-3.59 5.23,-5.42 6.15,-6.17 5.51,-6.13 13.21,-9.74l22.74 -23.64c37.14,20.53 30.59,31.17 104.9,49.9l33.18 5.09c3.98,12.23 2.65,56.3 1.21,70.79l28.19 0.03 -0.06 -64.57c0.95,-12.2 -0.51,-3.18 4.71,-7.24 14.26,-3.73 32.38,-4.83 48.2,-9.18 12.62,-3.46 35.09,-14.18 42.85,-14.84 6.15,-7.61 10.88,-7.95 22.51,-16.6 7.83,-5.83 13.11,-12.37 21.2,-16.28l16.63 18.26 31.52 28.64c8.91,-6.25 12.66,-9.78 17.32,-17.72l-18.19 -20.69c-4.3,-5.94 -1.77,-2.36 -3.05,-6.38l-19.19 -17.02c-6.16,-6.21 -10.84,-11.22 -14.68,-18.91 -11.25,-2.25 -13.89,6.24 -24.5,14.1 -6.89,5.11 -17.27,14.2 -25.32,16.39 -2.07,2.25 -1.86,2.23 -4.85,4.61 -2.69,2.14 -0.46,0.41 -3.84,1.95 -8.67,5.97 -27.53,16.38 -39.04,16.59 -3.11,3.4 2.55,1.42 -8.44,5.63 -2.69,1.03 -7.43,2.14 -10.53,2.92 -7.69,1.94 -15.11,3.15 -23.81,4.19 -24.41,2.67 -50.96,0.53 -72.53,-5.23 -22.58,-6.28 -42.86,-14.95 -60.38,-25.98 -7.67,-4.83 -19.01,-12.59 -25.32,-17.79 -9.3,-7.67 -12.85,-12.22 -21.04,-18.1 -13.31,10.05 -19.82,19.98 -32.25,31.78 -10.67,10.12 -25.52,19.8 -31.88,31.94 5.37,5 11.07,9.77 16.22,18.03zm489.62 35.57c14.52,3.79 16.22,5.92 21.14,19.61 10.69,32.32 -30.7,45.84 -36.46,37.25 -13.03,-3.83 -18.02,-7.79 -21.09,-22.26 -8.41,-30.02 31.58,-42.61 36.41,-34.6zm-76.14 32.24c1.43,16.58 1.72,13.52 17.16,15.91 -2.95,11 -3.96,6.32 -6.53,16.59 4.56,9.21 12.42,16.79 21.54,21.69 12.78,-2.38 3.68,-3.83 16.14,-5.51 5.46,13.55 -2.85,11.87 10.77,15.98l24.9 -1.14 7.36 -15.83 13 7.32c4.95,-3.35 6.75,-4.86 10.73,-7.37l4.98 -4.62c2.51,-4.23 3.92,-5.92 6.55,-10.52 -3.08,-11.8 -3.89,-3.89 -6.38,-16.78l16.7 -1.99c0.47,-7.81 2.42,-22.32 0.21,-29.52 -1.57,-5.09 -1.61,-4.6 -6.38,-6.81 -1.81,-0.84 -3.56,-0.95 -6.19,-1.97 -0.44,-0.17 -1.53,-0.16 -1.85,-0.99 -0.31,-0.82 -1.18,-0.71 -1.74,-1.11 2.48,-4.24 4.59,-6.55 6.45,-13.45 -6.29,-10.44 -9.02,-12.73 -18.09,-19.04l-4.54 -2.66c-8.77,2.29 -5.67,2.15 -13.45,6.32 -2.84,-4.01 -0.12,4.18 -4.03,-7.37 -0.78,-2.31 -0.86,-5.07 -1.26,-7.29l-5.68 -1.52c-5.21,-0.27 -18.91,-1.21 -23.41,0.22 -8.51,2.69 -6.35,7.34 -7.63,16.59 -13.29,-4.12 -19.52,-16.63 -39.33,15.24l7.87 15.13c-16.69,7.19 -17.36,-1.3 -17.87,24.5zm122 -77.92c-1.12,2.34 -0.23,1.11 -2.37,4.28 -0.02,0.02 -3.06,3.91 -3.45,4.43 -2.91,3.86 -4.66,6.52 -6.85,10.05 9.07,6.31 11.8,8.6 18.09,19.04 -1.86,6.9 -3.97,9.21 -6.45,13.45 0.56,0.4 1.43,0.29 1.74,1.11 0.32,0.83 1.41,0.82 1.85,0.99 2.63,1.02 4.38,1.13 6.19,1.97 4.77,2.21 4.81,1.72 6.38,6.81 2.21,7.2 0.26,21.71 -0.21,29.52l129.88 -0.11c0.3,-20.27 3.13,-51.84 -4.33,-68.96 -6.91,-15.89 -21.03,-30.37 -40.75,-33.25l-8.88 37.2c-1.47,7.29 -3.13,12.62 -4.98,20.13 -2.9,11.87 -0.36,9.92 -8.93,13.12 -2.84,-3.16 -2.65,-0.86 -4.28,-6.84l-1.19 -23.85 -4.57 -31.56c-10.59,1.89 -8.37,-0.5 -10.12,12.78 -2.21,16.89 -0.21,39.56 -6.74,49.23 -7.64,-2.49 -5.2,1.86 -8.56,-10.46 -3.41,-12.52 -10.05,-33.83 -9.34,-43.27 -2.51,-3.03 -1.78,0.07 -4.65,-7.43 -1.16,-3.05 -1.19,-5.47 -1.84,-9.17 -12.48,2.9 -15.45,7.47 -25.64,10.79zm-314.81 -152.51c1.97,-4.51 15.44,-32.39 21.69,-33.7l-27.01 97.54c-1.62,-12.35 -4.32,-28.02 -4.7,-40.29 -0.49,-15.73 1.98,-21.41 -1.34,-37.29 6.02,7.75 3.01,6.94 11.36,13.74zm-26.83 28.93c-1.06,12.48 -3.55,25.81 -5.02,36.53l-25.87 -99.42c2.02,1.93 2.38,1.92 4.55,4.67l16.32 29.3c3.1,-2.52 2.22,-1.28 5.1,-4.62l6.23 -9.06c-3.2,16.01 0.09,26.29 -1.31,42.6zm-49.3 -63.62c3.3,0.57 2.54,4.21 2.56,-0.92 -7.35,10.93 -5.16,6.32 -6.57,15.6 5.84,3.92 3.67,-0.19 0.66,16.66l14.97 13.52 -7.34 11.05 44.14 80.51 7.02 11.7c8.14,-4.21 0.77,1.17 5.89,-3.93l49.53 -88.94 -7.12 -10.46 14.92 -13.45c-3.95,-21.19 -8.61,-16.36 -1.9,-22.57 -0.98,-5.19 4.54,-4.29 -1.26,-4.33l-4.52 -5.64c-0.15,-0.46 0.03,-1.99 0.06,-2.88 -12.89,-3.7 -15.17,-7.11 -25.11,-10.61 -9.93,5.2 -16.95,13.83 -26.9,20.08 -12.28,-3.93 -18.26,-14.2 -29.59,-20.1l-27.81 13.52c-0.29,-0.52 -1.1,0.78 -1.63,1.19zm116.76 8.77c0.58,9.03 -0.73,4.6 4.48,14.12 3.97,7.27 3.69,6.01 5.16,14.62 -6.99,3.4 -11.71,6.68 -15.17,12.73l5.99 13.38c-16.74,27.23 -36.62,54.25 -55.89,80.57 -3.15,12.9 -1.94,2.98 3.08,6.84l24.5 -0.35c7.35,-5.78 24.79,-6.77 40.54,-14.07 14.2,-6.57 22.62,-14.61 35.47,-19.53l17.35 -16.17 -9.62 -66.87c-2.38,-9.61 -4.66,-13.63 -7.9,-18.44 -18.33,-6.69 -29.65,-14.17 -53.71,-19.68 -0.03,0.89 -0.21,2.42 -0.06,2.88l4.52 5.64c5.8,0.04 0.28,-0.86 1.26,4.33zm-176.96 41.55c1.79,13.54 -2.37,28.47 -4.41,41.69l-0.07 9.54c7.38,4.87 20.46,13.21 26.05,22.71 6.78,1.18 1.35,-0.98 9.38,3.37 3.72,2.01 6.68,3.96 10.49,5.79 24.36,11.65 45.04,16.29 73.33,17.51 -2.71,-9.26 -2.61,-6.3 -6.15,-14.51 -9.06,-8.01 -48.5,-67.79 -50.89,-72.8l6.34 -15.69 -15.2 -10.26c2.5,-12.1 6.6,-12.07 7.32,-22.99 1.41,-9.28 -0.78,-4.67 6.57,-15.6 -0.02,5.13 0.74,1.49 -2.56,0.92 -14.29,-0.65 -30.97,5.91 -42.92,12.84 -15.49,9 -8.93,17.29 -14.93,33.83l-2.35 3.65zm-184.97 208.78c-13.78,-20.54 17.37,-47.92 37.75,-33.88 6.48,4.46 2.93,3.56 3.96,5.59 6.91,3.6 11.94,7.63 9.24,23.26 -3.73,21.55 -37.28,35.11 -50.95,5.03zm-13.17 -61.37l-10.83 9.57 -3.88 9.63c2.73,7.3 3.86,5.62 6.37,13.87 -19.52,5.58 -16.24,1.62 -15.69,26.86 1.83,9.53 8.05,6.98 15.52,9.62l-7.01 13.82c7.33,9.1 10.86,13.61 20.88,19.75l13.93 -6.68c2.98,13.99 -0.21,16.55 18.37,16.4 19.34,-0.17 12.48,-3.45 18.81,-15.26 9.19,3.43 16.15,13.28 32.68,-13.83 -2.38,-9.2 -2.74,-5.27 -5.28,-13.44l14.6 -12.06 -0.9 -21.47 -14.26 -4.57 5.87 -13.01c-3.8,-6.69 -3.37,-5.14 -6.17,-11.73l-13.38 -8.85 -13.41 6.53c-4.67,-10.82 1.62,-9.03 -7.54,-14.86 -5.19,-0.45 -19.03,-1.82 -23.43,0.52 -5.53,2.95 -4.52,8.32 -6.95,15.2l-6.78 -6.26 -11.52 0.25zm22.13 166.1c1.74,2.37 3.65,3.71 4.61,9.35 0.81,4.79 0.36,10.51 -1.03,14.69 -2.74,8.19 -9.1,11.9 -16.1,15.33 -20.5,9.25 -42.94,-11.28 -35.29,-34.48 6.65,-20.19 36.86,-22.51 47.81,-4.89zm-82.67 2.79c-1.73,10.21 -2.28,16.41 1.19,25.14l13.01 4.7c-2.03,8.47 -2.67,5.69 -5.41,14.13 17.99,27.17 21.47,17.97 33.74,13.46 2.12,7.19 2.2,10.48 5.67,16.42 33.24,-3.75 23,6.35 30.64,-16.18 7.94,2.72 5.55,3.3 13.96,5.7 9.1,-5.46 14.04,-10.24 19.63,-19.4 -2.43,-7.94 -3.17,-6.45 -5.73,-13.8 9.89,-3.48 8.94,1.09 14.78,-7.92 1.99,-23.12 2.95,-23.89 -15.09,-28.9l4.17 -8.92 0.74 -10.38c-6.32,-1.98 -10.18,-9.42 -18.5,-14.38 -8.07,2.51 -6.47,3.19 -13.73,5.85 -5.24,-12.89 1.41,-15.56 -18.54,-15.68 -20.04,-0.13 -13.66,2.54 -18.7,15.63 -7.51,-2.77 -5.13,-3.27 -13.58,-5.87 -9.66,5.53 -14.28,10.09 -19.7,19.82 2.86,8.44 3.49,5.7 5.34,13.45 -10.64,5.28 -5.91,-1.74 -13.89,7.13zm431.71 43.12l2.41 30.62 -53.21 -0.19 0.21 -37.12c10.62,-1.02 20.79,-1.75 31.25,-3.87 18.18,-3.7 17.45,-8.97 19.34,10.56zm-44.56 -70.31c9.57,0.63 8.66,0.6 16.51,7.8 7.66,7.04 6.32,5.08 7.74,13.1 8.58,5.65 11.66,15.27 14.24,26.05 -11.16,6.92 -29.88,8.16 -44.97,7.66l0.83 -57.85c9.94,1.17 3.12,-0.04 5.65,3.24zm-46.96 21.58c5.17,-12.96 17.26,-22.5 32.25,-25.02l-0.32 58.23c-19.14,0.26 -14.64,-1.83 -16.76,-3.01 -8.92,2.02 -20.08,-0.07 -27.82,-4.83 1.82,-9.78 5.97,-20.65 12.65,-25.37zm93.87 23.14c-8.81,-27.87 -18.16,-32.14 -23.02,-42.51 17.73,5.14 38.53,19.86 44.91,31.3 -5.93,5.43 -11.51,8.49 -21.89,11.21zm-136.69 -11.21c6.81,-11.76 24.53,-25.1 43.15,-30.37 -3.52,8.53 -7.45,11.17 -12.77,20.52 -4.04,7.11 -6.67,13.31 -9.01,20.84 -9.02,-1.87 -16.36,-5.33 -21.37,-10.99zm34.04 -36.91c-6.93,4.78 -12.16,6.39 -20.93,12.45 -21,14.5 -33.75,31.63 -42.82,59.42l7.87 5.37c2.11,-8.13 3.37,-13.14 6.9,-20.15 3.65,-7.25 4.79,-8.25 9.52,-12.3l23.37 11.52c-1.12,8.31 -1.18,14.69 -5.79,20.04 1.93,8.64 0.34,5.55 3.78,10.87 13.99,-3.86 1.27,-8.97 11.73,-26.92l42.13 6.47c8.94,3.49 2.62,-1.98 5.06,5.31l0 31.97c-17.24,0.98 -18.85,-3.3 -25.93,7.82 32.13,1.04 25.82,-0.17 26.59,13.56l7.65 -0.37 0.57 -7.48c4.48,-5.8 -1.78,-5.19 18.32,-5.21 65.27,-0.04 37.51,-4.18 60.56,-6.62l-16.75 -2.17 -0.81 -19.34 -5.23 -26.59 24.09 -12.46c5.39,4.06 6.28,5.27 10.3,13.62 3.98,8.28 4.9,10.13 4.63,19.31 5,0 3.38,4.38 3.87,9.52l2.18 10.15c13.8,-2.78 6.26,-21.42 -1.66,-39.93 -7.76,-18.13 -20.32,-28.23 -25.69,-36.62 -7.74,-5.79 -16.23,-9.29 -22.14,-18.1 -10.85,-0.7 -29.15,-9.22 -43.63,-11.81 -27.61,-0.64 -33.6,1.16 -57.74,8.67zm-373.49 -77.1c29.36,-14.69 46.18,30.54 20.29,42.53 -27.78,12.87 -49.08,-28.13 -20.29,-42.53zm-10.83 63.2c4.64,-7.61 5.48,2.36 5.49,2.38l3.23 7.46 24.06 0.59 4.53 -12.61 11.34 5.11c20.09,-11.66 17.73,-17.66 11.87,-27.44l12.23 -5.38 0.52 -24.43 -12.95 -4.22 4.17 -7.21 0.76 -7.16 -16.66 -14.27 -11.29 5.47 -4.45 -12.95 -24.32 0.66 -5.37 12.07c-9.99,-6.49 -16.49,-6.95 -27.61,11.99l5.56 11.47 -13.02 4.17 0.45 24.43 12.29 5.34 -4.63 10.78c5.05,9.21 7.04,11.09 16.37,16.75l7.43 -3zm308.87 107.26c4.35,5.86 3.94,10.14 5.5,19.4 1.47,8.81 2.61,14.85 3.4,23.65l2 9.02 6.06 2.84c2.96,-3.72 -0.3,-1.7 6.03,-5.96l14.51 -7.34c53.86,52.95 89.69,23.99 114.13,24.02 2.33,-2.62 0.96,-1.94 4.53,-4.46 2.46,-1.74 4.31,-2.42 6.97,-3.87 5.55,-3.04 7.16,-4.09 13.01,-6.84l22.45 -18.93c2.39,-3.92 -2.65,-3.8 2.4,-3.68l-12.24 2.44c-13.13,5.05 -43.81,15.56 -57.24,12.32 -2,1.18 1.41,2.49 -12.09,3.95 -2.35,0.25 -8.36,0.16 -10.93,0.11 -16.46,-0.32 -41.11,-3.86 -50.7,-17.81 6.18,-5.78 10.32,-9.65 11.51,-16.81l-66.49 -17.25 -2.81 5.2zm476.49 -333.44c3.65,-7.89 -1.9,-2.46 5.88,-5.71l69.94 -0.09c9.32,5.91 3.42,1.23 6.87,12 4.3,13.45 -0.52,1.13 8.03,12.57 -3.64,17.8 -2.83,4.9 -19.95,29.82 -4.56,6.63 -3.19,4.62 -8.72,8.32 -11.62,14.46 -29.81,13.77 -43.89,0.72 -6.37,-5.91 -7.3,-11.86 -13.63,-18.72 -8.09,-8.78 -11.42,-4.99 -13.86,-20.14 9.21,-11.76 4.55,-0.28 9.33,-18.77zm-14.84 7.45c-8.75,35.41 9.93,25.3 14.93,42.96l22.59 23.11c17.88,0.09 35.75,8.38 55.12,-20.48 13.72,-20.43 11.83,-7.7 18.46,-22.02 6.12,-13.2 -1.7,-19.82 -3.36,-28.46l-14.35 -28.25c-5.1,-1.93 -3.83,-1.71 -9.4,-5.34 -4.75,-3.09 -5.33,-3.65 -10.5,-5.61 -10.65,-4.06 -17.72,-2.59 -27.89,-4.5 -2.39,1.82 0.07,0.73 -5.68,3.81 -30.98,16.62 -21.07,10.8 -34.19,38.35 -3.37,7.09 -0.72,2.43 -5.73,6.43zm-243.76 372.31c-0.03,10.18 -5.78,15.62 -9.39,25.98l-13.94 -8.07 -10.72 -0.83c-2.86,5.57 -2.65,0.59 -1.23,7.94l17.62 5.49c-5.57,12.72 -27.82,31.12 -45.09,33.11l21.44 -34.61c-3.02,-5.14 6.13,-8.36 -6.12,-3.01 -2.9,1.27 -3.67,3.73 -5.91,7.88 -7.44,13.74 -16.73,33.69 -39.64,35.63l-0.23 -28.1 -9.41 0.37 1.14 27.91c-32.05,-3.65 -26.83,-30.28 -48.25,-36.3 4.78,15.56 10.21,17.93 16.88,30.18 -17.93,-4.47 -36.94,-18.49 -43.85,-32.82l10.62 -7.11c-7.89,-4.95 -8.3,-2.34 -15.93,1.14l-10.74 -5.9c-6.82,20.73 47.62,48.51 53.79,53.16 23.13,4.21 29.68,7.46 56.46,6.02 27.33,-4.13 36.33,-11.9 55.51,-22.3 5.85,-7.62 1.35,-3.93 10.53,-7.87 1.22,-3.1 -0.26,-0.83 2.17,-4.55 12.97,-19.84 26.22,-26.9 30.51,-69.53 -3.39,3.24 -6.85,5.48 -9.09,10.27 -1.56,3.33 -1.14,4.95 -2.43,8.31 -3.06,7.98 -2,4.4 -4.7,7.61z"/>
 </g>
</svg>
