<?xml version="1.0" encoding="UTF-8"?>
<!DOCTYPE svg PUBLIC "-//W3C//DTD SVG 1.1//EN" "http://www.w3.org/Graphics/SVG/1.1/DTD/svg11.dtd">
<!-- Creator: CorelDRAW 2019 (64-Bit) -->
<svg xmlns="http://www.w3.org/2000/svg" xml:space="preserve" width="100%" height="100%" version="1.1" style="shape-rendering:geometricPrecision; text-rendering:geometricPrecision; image-rendering:optimizeQuality; fill-rule:evenodd; clip-rule:evenodd"
viewBox="0 0 718.56 719.67"
 xmlns:xlink="http://www.w3.org/1999/xlink">
 <defs>
  <style type="text/css">
   <![CDATA[
    .fil0 {fill:white}
   ]]>
  </style>
 </defs>
 <g id="Layer_x0020_1">
  <metadata id="CorelCorpID_0Corel-Layer"/>
  <path class="fil0" d="M418.55 495.7c-21.53,45.74 -89.85,13.53 -68.61,-31.56 20.61,-43.77 90.06,-14.03 68.61,31.56zm-138.71 11.32c-16.26,29.22 -11.34,36 -35.71,60.87 -67.6,69.02 -56.12,-20.51 -55.6,151.56l102.42 -0.04c0.8,-26.85 -3.33,-102.67 1.93,-122.75 9.61,-36.76 52.81,-30.75 91.52,-30.75 39.09,0 83.35,-5.9 91.44,33.44 5.27,25.58 0.18,89.26 1.53,120.12l102.43 -0.32 -0.57 -251.15c-37.69,-17.92 -72.61,-38.82 -110.41,-56.67 -15.52,-7.32 -133.92,-5.78 -158.1,-3.77 -13.1,3.56 -20.97,8.82 -33.15,15.24 6.42,38.72 8.49,43.18 2.27,84.22zm217.85 -168.28l-51.21 29.17 1.71 21.4c28.9,0.65 54.92,19.8 78.43,32.11 15.81,8.28 59.01,27.04 71.01,37.45l0.3 260.52 120.63 -0.27 -0.12 -349.54 -136.04 -81.17 -84.71 50.33zm-420.11 14.74c0.54,0.56 1.28,0.74 1.53,1.76 0.25,0.97 1.19,1.34 1.53,1.63 5.73,4.82 2.53,4.14 9.12,4.46l16.98 -0.02c5,-8.53 2.41,-47.76 2.2,-60.71 -23.42,-1.81 -35.21,-0.39 -46.29,-15.87 -22.22,-31.04 15.95,-71.09 49.35,-49.33 15.52,10.12 13.07,24.16 15.92,46.46l22.84 0.26c2.35,-21.59 1.52,-37.89 15.81,-46.78 34.38,-21.39 71.14,19.14 49.34,49.27 -10.97,15.17 -22.9,14.46 -46.3,15.91l0.05 60.63 24.91 0.18c7.9,-11.26 6.78,-15.96 16.79,-27.29 24.59,-27.79 41,-56.39 32.26,-100.09 -9,-44.96 -47.24,-82.02 -97.1,-85.27 -83.01,-5.42 -136.89,79.37 -104.09,150.7 14.37,31.23 35.28,37.25 35.15,54.1zm346.66 -210.07c0.36,0.69 0.96,0.88 1.07,2.06l1.84 21.93 39.64 -0.08c-0.12,-10.68 -1.53,-12.59 2.61,-20.51 11.04,-46.27 123.06,2.96 144.51,-30.82 7.09,-11.17 3.7,-25.28 -4.36,-32.49 -18.96,-16.98 -98.43,4.51 -122.48,-10.18l-0.15 -10.22c16.61,-9.65 55.42,-1.3 77.59,-4.86 -1.46,-12.42 -6.33,-21.62 -17.19,-26.06 -19.34,-7.9 -23.01,3.01 -38.26,3.98 -15.64,-15.74 -21.13,-41.24 -58.61,-35.27 -14.19,2.27 -23.25,10.3 -29.41,18.72 -12.89,17.6 -6.03,31.25 -14.32,37.22 -1.64,1.18 -64.42,1.34 -48.42,48.47 13.34,39.31 55.78,4.64 65.94,38.11zm-351.51 431.84c1.15,2.48 0.11,1.33 4.28,4.19 67.86,46.53 199.81,-7.19 188.84,-120.58 -2.46,-24.45 -8.08,-40.84 -18.75,-58.21 -7.41,-12.07 -23.8,-30 -34.06,-33.55l-0.51 20.45c0.44,22.89 51.39,51.83 21.29,121.85 -37.86,88.09 -167.46,80.15 -193.48,-12.42 -6.56,-23.35 -4.78,-48.14 4.31,-68.98 5.8,-13.31 9.19,-16.06 16.58,-25.99 6.77,-9.08 5.78,-19.42 3.96,-34.3 -12.94,1.94 -29.55,25.32 -37.77,40.18 -9.94,17.98 -16.15,40.98 -15.32,65.2 1.58,46.3 31.51,90.34 60.63,102.16zm303.21 -190.06l-0.8 2.39 52.62 0.02c-0.06,-8.26 -2.25,-21.77 3.1,-26.34 5.53,-12.09 41.2,-27.47 54.21,-36.04l11.92 -7.53 -13.09 -75.47 -83.02 -0.05 -24.94 143.02zm-309.74 40.97c-37.22,57.76 12.82,128.48 74.57,127.52 58.85,-0.92 109.64,-67.98 71.62,-127.57 -4.71,8.07 -12.75,18.77 -14.03,22.51 -8.43,24.69 11.88,50.61 -60.46,50.69 -71.65,0.07 -49.75,-33.31 -58.59,-52.64 -0.8,-1.74 -9.58,-14.39 -13.11,-20.51zm327.03 293.25l65.81 0.26c0.78,-33.47 0.73,-68.77 0.32,-102.27 -0.53,-42.2 -29.24,-34.57 -66.35,-33.41l0.22 135.42zm-18.31 -134.92c-37.68,-4.12 -65.73,-6.25 -66.07,32.86 -0.29,33.23 -0.55,67.95 0.26,101.96l66.02 -0.61 -0.21 -134.21zm-178.92 -206.43l-112.12 1.25c-0.03,20.78 -2.12,36.32 4.63,52.16 18.43,5.73 82.81,5.72 101.49,0.01 7.5,-18.77 2.69,-31.48 6,-53.42zm-194.9 292.71c8,23.17 38.42,31.12 55.14,-1.71 7.98,-15.67 26.84,-48.75 31.3,-65.05l-22.24 -10.61 -18.06 -11.66c-7.47,6.39 -21.67,31.25 -28.45,41.4 -9.98,14.94 -22.61,26.81 -17.69,47.63zm375.35 -447.04l10.78 0.79 104.84 -0.14 16.74 -0.28 -0.03 -37.2 -132.31 -0.39 -0.02 37.22zm-252.71 257.53c44.02,0 55.21,5.1 55.5,-27.19 -21.72,-3.45 -56.5,-1.27 -79.95,-0.8 0.16,21.17 3.04,27.99 24.45,27.99zm3.57 -120.18l23.29 0.21 0.94 -60.6 -24.31 -0.48 0.08 60.87zm274.12 128.96c14.36,-22.44 -22.82,-41.78 -34.55,-20.16 -13.04,24.03 20.43,42.21 34.55,20.16zm-232.03 -218.17l0.63 10.15 10.38 0.27c23.49,0.46 32.11,-19.64 17.87,-31.27 -13.59,-11.11 -30.61,-1.34 -28.88,20.85zm-61.11 10.06c1.69,-14.14 0.34,-21.1 -3.15,-31.13 -12.89,-4.15 -30.22,-5.55 -31.08,12.97 -0.88,18.94 17.23,19 34.23,18.16zm107.84 -164.62c14.98,2.98 15.23,-2.09 22.21,-14.15 4.58,-7.92 16.13,-21.77 7.43,-29.61 -10.13,-9.12 -16.44,9.25 -19.54,14.7 -6.5,11.43 -11.89,14.76 -10.1,29.06zm-153.79 -0.14c1.61,-11.47 -17.48,-54.57 -29.63,-43.73 -8.82,7.88 2.09,19.82 6.63,27.85 7.32,12.92 7.48,19.18 23,15.88zm67.99 -54.96c0,49.02 17.86,48.16 17.86,0 0,-12.09 0.42,-14.39 -10.28,-17.97 -8.54,6.29 -7.58,5.59 -7.58,17.97zm244.81 325.37c9.22,5.29 43.25,3.42 53.41,2.13l2.31 -28.45c-5.35,4.57 -3.16,18.08 -3.1,26.34l-52.62 -0.02zm94.26 -240.77c-4.14,7.92 -2.73,9.83 -2.61,20.51l-39.64 0.08 -1.84 -21.93c-0.11,-1.18 -0.71,-1.37 -1.07,-2.06l0.62 25.14 43.44 1.3 1.1 -23.04z"/>
 </g>
</svg>
