<?xml version="1.0" encoding="UTF-8"?>
<!DOCTYPE svg PUBLIC "-//W3C//DTD SVG 1.1//EN" "http://www.w3.org/Graphics/SVG/1.1/DTD/svg11.dtd">
<!-- Creator: CorelDRAW 2019 (64-Bit) -->
<svg xmlns="http://www.w3.org/2000/svg" xml:space="preserve" width="100%" height="100%" version="1.1" style="shape-rendering:geometricPrecision; text-rendering:geometricPrecision; image-rendering:optimizeQuality; fill-rule:evenodd; clip-rule:evenodd"
viewBox="0 0 805.97 719.68"
 xmlns:xlink="http://www.w3.org/1999/xlink">
 <defs>
  <style type="text/css">
   <![CDATA[
    .fil0 {fill:white}
   ]]>
  </style>
 </defs>
 <g id="Layer_x0020_1">
  <metadata id="CorelCorpID_0Corel-Layer"/>
  <path class="fil0" d="M663.49 566.81l124.39 0.12 -0.09 141.31 -124.4 0.1 0.1 -141.53zm-56.17 -34.98c-22.5,3.1 -19.85,-17.19 -10.96,-20.61 5.61,-2.15 12.1,-0.3 14.59,4.76 3.92,7.97 0.02,10.42 -3.63,15.85zm33.04 -31.5c16.32,20.26 -0.65,49.92 -14.39,59 -46.56,30.79 -96.84,-36.06 -53.87,-72.38 15.92,-13.45 47.69,-14.3 60.73,2.84 -2.07,3.84 -13.42,11.45 -17.64,13.61 -29.06,-14.22 -45.46,14.65 -32.04,31.83 5.57,7.13 18.27,12.27 29.45,5.71 10.88,-6.38 10.83,-13.7 10.37,-29.63 6.67,-2.58 11.19,-7.92 17.39,-10.98zm37.56 -27.32c3.49,-4.56 12.31,-10.7 18.39,-13.84 18.13,42.72 22.88,42.6 13.21,96.24l-23.89 -0.1c8.66,-38.64 9.48,-49.43 -7.71,-82.3zm-25.82 109.65c-26.38,15.58 -53.23,28.24 -89.21,8.11 -58.57,-32.76 -53.5,-120.2 11.24,-143.71 35.48,-12.89 70.49,2.48 86.2,22.59 -5.44,5.34 -11.25,10.13 -18.44,13.3 -26.45,-33.18 -88.9,-18.94 -96.56,29.11 -2.7,16.93 2.54,31.18 9.98,42.63 32.1,49.34 127.66,16.15 95.16,-61.54 4.99,-5.55 10.86,-10.47 18.41,-13.54 11.36,30.72 17.56,37.63 4.13,75.91l-20.92 0 0.01 27.14zm53.24 -129.79c4.26,-6.58 11.58,-10.95 17.25,-13.43 12.1,11.94 28.49,59.36 26.35,82.31l-4.57 33.69 -23.01 -0.4c8.51,-49.2 5.07,-60.85 -16.02,-102.17zm-53.48 144.23l0.15 25.58c-22.77,8.49 -37.26,14.82 -66.48,10.86 -62.06,-8.4 -111.24,-70.12 -94.08,-139.93 15.7,-63.88 84.51,-101.65 149.34,-78.04 12.97,4.72 28.7,14.29 37.41,23.01 4.49,4.49 7.36,6.35 9.5,10.93 -4.45,4.65 -11.94,10.14 -17.13,12.83 -12.5,-11.8 -21.49,-19.92 -38.72,-26.13 -17.38,-6.27 -38.86,-6.84 -56.7,-1.57 -31.11,9.2 -56.22,35.35 -62.92,69.53 -12.47,63.57 49.74,139.47 139.63,92.93zm101.46 -181.14c4.96,-4.13 13.38,-10.7 19.61,-13.79 5.47,2.23 6.87,1.94 9.93,5.39 -10.45,9.51 -18.8,17.25 -29.54,8.4zm-101.22 243.6c-45.55,11.69 -80.41,15.33 -126.01,-11.82 -56.13,-33.43 -88.65,-106.24 -64.26,-173.63 30.03,-82.97 119.33,-120.58 195.49,-88.54 23.43,9.86 46.95,27.58 57.57,43.81 -3.75,3.8 -12.43,10.74 -17.54,12.99 -8.2,-8.29 -10.99,-12.63 -22.08,-21.02 -28.4,-21.48 -68.1,-29.82 -103.94,-20.8 -72.03,18.14 -112.09,94.31 -87.64,161.99 3.96,10.96 8.49,20.39 14.54,29.11 11.48,16.55 27.21,31.03 46.49,40.8 43.67,22.13 70.43,13.25 107.23,3.15l0.15 23.96zm112.31 -279.28l0.55 12.18c-6.27,5.19 -12.64,10.96 -19.61,13.98l0.24 -12.3 18.82 -13.86zm-88.8 2.18c-6.82,-8.07 -42.27,-16.71 -55.49,-18.29 -23.61,-2.82 -47.4,-0.17 -68.47,6.66 -125.15,40.54 -144.98,206.63 -44.61,278.02 20.77,13.32 34.28,22.25 63.49,28.13 34.11,6.87 50.81,1.48 81.51,-5.03l0.13 47.73 147.13 -0.45 -0.06 -163.7 -42.96 -0.25c1.52,-10.86 3.24,-20.43 3.46,-31.92 0.2,-10.42 -3.17,-22.19 -1.46,-31.67 -0.26,-0.38 -0.53,-0.91 -0.67,-1.2 -3.91,-8.09 -0.38,-0.35 -5,-15.7 -6.92,-22.97 -16.33,-32.07 -20.41,-44.25 10.02,-4.32 5.79,-6.22 19.73,-1.96 9.06,2.77 11.93,5.21 20.51,2.86 1.81,-4.2 28.3,-23.51 33.53,-25.25 -2.44,-7.46 -11.41,-5.61 -22.14,-12.58 4.36,-4 8.01,-6.97 13.02,-9.53l-7.14 -8.9c-4.56,3.01 -9.35,6.94 -13.62,8.64l-2.39 -24.16c-8.8,2.07 -28.85,22.48 -39.74,27.09l-0.1 29.18c-2.12,1.78 -5.54,4.48 -8.09,6.17 -8.38,-5.99 -14.27,-14.74 -22.61,-21.93 -7.2,-6.19 -17.47,-13.65 -27.55,-17.71zm-578.33 314.57l168.51 0.03 0.44 11.27 -169.89 -0.11 0.94 -11.19zm15.67 -12.13c-1.03,-10 -4.08,-16.23 7.19,-16.24l120.83 -0.03c12.92,0 11.02,5.51 8.22,16.97l-136.24 -0.7zm7.71 -78.51l122.28 0 -4.64 50.8 -114.06 -0.51 -3.58 -50.29zm25.67 -107.52l70.07 0.39c4.54,14.37 24.43,85.03 24.44,95.72l-119.79 -0.57 25.28 -95.54zm-3.41 -45.3l77.26 0.42 -3.9 33.37 -70.07 -0.37 -3.29 -33.42zm-23.69 -28.27c19.46,-0.19 112.74,-2.31 124.63,1.12l-1.75 14.14c-6.98,2.72 -112.86,3.5 -122.14,0.06l-0.74 -15.32zm-4.91 -56.66l16.13 0 0.33 28.3 39.12 -0.28 0.23 -28 22.57 -0.03 0.4 28.28 39.12 -0.13 0.18 -28.19 16.33 -0.04 -4.84 45.31 -125.26 -0.17 -4.31 -45.05zm-8.77 30.52c1.92,13.26 1.19,23.95 2.27,37.03 1.27,15.42 8.3,15.77 22.97,17.79 2.13,12.54 8.14,43.41 0.38,51.89 0.3,8.97 -17.73,76.27 -21.87,86.29 -2.64,3.44 -0.39,0.6 -4.01,3.11 -10.91,7.54 3.04,-3.77 -3.11,1.92 -0.24,17.03 1.54,2.75 5.97,12.33 1.01,2.19 1.47,11.59 1.73,14.59 0.93,10.74 1.88,21.06 3.21,32.32l-7.39 5.72c-7.98,8.43 -4.12,11.12 -4.82,23.24l-15.7 0.64 0 33.61 192.41 -0.29 0.02 -28.19 -0.01 -5.08 -15.85 -0.64c-0.17,-6.49 1.95,-13.44 -1,-19.03 -9.61,-18.2 -12.48,11.52 -7.82,-42.3 2.8,-32.31 10.24,-7.97 7.77,-25.24 -0.62,-4.41 -2.09,-1.21 -6.19,-5.28 -3.16,-3.14 -26.48,-94.08 -26.8,-98.95 -0.53,-8.17 2.86,-31.58 4.27,-40.66 30.11,-3.61 21,-12.72 23.62,-39.96 1.81,-18.87 4.55,-37.93 5.43,-56.77l-39.96 0.24 -0.35 28.08 -16.47 -0.15 -0.35 -28.14 -45.23 0.1 -0.25 28.17 -16.54 -0.13 -0.31 -28.08 -40.71 -0.04 4.69 41.86zm299.61 -97.32c-1.81,-7.89 8.94,-9.49 10.65,-3.14 2.21,8.23 -9.29,9.07 -10.65,3.14zm-164.49 -84.84l0 -25.17 0.05 -157.69 338.71 -0.03 0.89 161.87 -0.01 20.73 0 43.82 -176.41 -0.01 -19.6 0.02 -57.56 -0.02 -60.97 0.01 -25.11 -0.09 0.01 -43.44zm147.48 -194.97c-0.91,-14.43 8.46,-10.61 22.31,-10.6 13.41,0 23.93,-3.84 22.22,11.16l-44.53 -0.56zm-5.78 -19.38c-1.76,4.77 -2.65,2.81 -4.57,8.09 -1.51,4.16 -1.24,7.11 -1.8,11.63l-146.72 0.31 -0.79 248.96 176.05 0.33 0.24 11.41c-8.18,6.15 -11.06,8.2 -11.1,20.13 2.6,6.9 6.66,12.84 15.24,13.5 10.61,0.81 13.94,-5.41 18.16,-11.82l-1.02 -13.41c-3.69,-2.93 -5.61,-5.27 -9.73,-8.4l-0.03 -10.93 175.44 -0.45 -0.07 -249.15 -145.97 -0.23 -1.3 -6.07c-2.14,-13.29 -9.74,-16.49 -23.8,-16.49 -15.3,0 -24.78,-0.66 -38.23,2.59zm119.68 208.7l41.27 0.01 0.24 15.26 -41.53 -0.18 0.02 -15.09zm-86.22 0.36l41.27 -0.22 0.1 14.65 -41.43 0.41 0.06 -14.84zm-132.51 -0.1l41.04 -0.12 0.38 14.69 -41.48 0.3 0.06 -14.87zm85.1 -60.3c9.27,-1.64 35.06,-2.3 42.65,0.57l0.55 14.64c-7.95,2.18 -34.02,1.74 -42.46,0.58l-0.74 -15.79zm87.42 0.25l40.85 0.06 0.43 13.98c-9.7,2.65 -30.97,1.26 -41.81,0.95l0.53 -14.99zm-172.39 0.11l40.6 -0.09 0.85 14.85 -41.71 0.24 0.26 -15zm93.45 -38.18c-10.67,0 -19.84,-1.73 -20.55,-13.09 -1.26,-20.34 27.36,-15.34 50.75,-15.34 21.22,0 25.65,28.43 -1.68,28.43l-28.52 0zm-104.6 86.64l-0.51 37.24 64.42 0.56 -0.07 -37.68 -26.58 -0.31 0.01 -6.25 0.32 -15.52 25.05 -0.11 1.68 -13.3 20.88 0.14 0.52 13.19 64.6 0.03 0.02 -13.07 20.92 -0.29c3.53,25.96 7.6,5.62 3.52,26.03 -2.35,11.77 0.32,9.15 -34.38,9.23l-8.01 0.23 -0.34 37.31 12.66 0.31 5.96 0 38.74 0.05 6.91 -0.29 0.09 -16.8 -0.15 -20.55 -11.59 -0.29c0.45,-3.27 -0.32,-1.2 0.61,-3.66 1.42,-3.8 0.92,-2.26 1.98,-3.84 -0.9,-6.26 0.23,-8.09 1.8,-14.27l29.68 -0.17 0.93 8.71c2.11,2.62 4.53,8.09 1.71,12.56 -2.92,4.61 -2.91,0.96 -3.4,8.36 -0.53,7.93 -0.01,23.14 0.71,31.17l3.99 -0.96 59.72 0 0.38 -30.17c-0.63,-7.98 1.04,-4.2 -2.82,-7.75l-45.06 0.03c-1.97,-10.95 -4.52,-16.8 -1.7,-20.96 0.18,-0.26 0.63,-0.74 0.83,-1.07 3.98,-6.65 2.18,-29.83 2.18,-37.94l-64.48 0.03 -0.28 13.32 -20.85 -0.04 -0.44 -12.55 -26.7 -0.46c-1.18,-6.15 -1.48,-9.73 0.52,-15.75l18.66 -0.37c15.48,-2.83 26.23,-20.38 17.54,-37.36 -8.58,-16.78 -28.06,-13.16 -50.56,-13.24 -20.36,-0.08 -37.95,4.4 -37.18,26.85 0.77,22.22 18.32,24.52 39.7,24.52l-0.52 15.13 -26.01 -0.04 -0.25 12.95 -20.55 0.41 -1.46 -13.18 -63.89 -0.17 0 38.13 26.02 -0.13 0.6 21.83 -26.08 0.22zm348.98 37.5c7.29,2.86 37.07,19.87 40.16,24.9l2.17 0.15c7.18,3.14 50.3,28.55 53.4,32.33l-7.97 8.96 -46.6 59.96c3.73,4.6 3.81,4.2 8.13,6.39 3.77,-2.81 16.65,-19.34 19.2,-23.26 4.79,-5.46 6.46,-8.17 10.05,-12.64 3.46,-4.3 24.45,-31.66 27.83,-32.59l6.38 -11.32c-6.63,-3.68 -15.06,-6.93 -19.33,-13 -5.7,-0.6 -3.48,-0.15 -9.32,-3.79 -3.19,-1.99 -5.1,-2.92 -7.66,-5.23 -4.21,-1.55 -35.38,-19.21 -39.34,-24.26l-6.26 -1.31c-1.53,-3.57 -45.57,-28.17 -48.4,-29.52l-5.02 9.95 22.58 14.28zm-450.78 2.37c-1.03,2.42 0.24,1.84 -4.85,2.5 -3.59,4.82 -2.21,2.93 -7.97,6.31 -3.62,2.12 -4.95,2.88 -8.46,4.92 -6.18,3.6 -11.12,6.8 -17.56,9.77 -1.94,1.9 -3.68,3.02 -5.48,4.08 -5.33,3.14 -3.47,2.54 -8.38,3.15 -3.09,4.7 -24.36,16.24 -31.09,19.99l8.13 12.79c3.41,1.26 6.58,6.58 9.72,10.55 3.29,4.16 6.83,8.34 9.84,11.97 6.26,7.58 13.45,18.47 20.24,24.38 3.78,-2.46 4.66,-3.9 7.68,-6.62l-28.72 -37.09c-2.87,-3.53 -7.18,-8.17 -9.67,-11.76 4.35,-5.17 15.09,-11.58 21.97,-12.3 3.32,-5.41 32.59,-21.96 39.54,-24.36 3.2,-5.17 1.58,-2.16 5.49,-2.63 4.06,-5.47 23.84,-16.26 31.43,-19.21 3.04,-5.56 15.05,-8.07 20.76,-14.81l-6.4 -7.83c-14.65,6.74 -30.55,20.32 -46.22,26.2zm283.64 60.15l20.93 39.67 46.3 -0.33 -28.53 -58.49 -10.53 5.95 20.07 41.33 -20.31 0.16c-3.2,-5.82 -21.55,-41.67 -22.06,-46.87l-11.52 4.08 5.65 14.5zm-133.16 -6.43c-0.66,10.88 -18.58,34.18 -20.73,46.11l45.9 -0.12 21.5 -43.46 4.78 -10.03 -8.96 -4.27c-5.87,5.07 -6.63,14.15 -12.49,19.54 -0.66,6.36 -8.36,21.48 -12.68,26.81l-20.04 -0.2 13.74 -26.27 6.47 -15.64 -10.61 -4.86c-0.79,2.64 -1.26,4.59 -2.79,7.28 -2.12,3.71 -1.43,2.62 -4.09,5.11zm11.57 121.88c21.92,-5.35 21.53,14.02 14.17,18.87 -11.05,7.29 -24.12,-4.4 -14.17,-18.87zm-15.38 12.1c-0.07,25.73 48.35,28.43 45.18,-5.01 -2.6,-27.53 -45.1,-26.49 -45.18,3.33l0 1.68zm-301.62 233.59c-17.57,-26.95 31.62,-27.61 14.76,0.09 -6.54,1.5 -8.26,1.5 -14.76,-0.09zm2.24 12.75c17.58,0.65 26.09,-6.44 27.79,-22.75 0.18,-9.12 2.13,-7 -5.41,-14.34 -27,-26.27 -61.91,20.16 -22.38,37.09zm319.22 -146.1c12.98,-4.51 20.4,15.91 6.69,21.02 -12.9,4.8 -22.98,-15.35 -6.69,-21.02zm-19.76 12.19c1.75,28.98 47.15,27.66 45.18,-3.34 -1.84,-28.82 -46.95,-26.04 -45.18,3.34zm-297.31 -12.07c12.38,-5.03 20.95,16.04 6.61,20.93 -12.48,4.25 -22.63,-14.43 -6.61,-20.93zm25.07 15.43c2.88,-12.37 -5.74,-24.45 -15.77,-26.81 -13.84,-3.27 -25.23,4.27 -28.09,15.46 -7.96,31.23 37.48,38.75 43.86,11.35zm283.98 110.76c-2.57,-15.93 19.55,-18.73 21.68,-4.96 2.68,17.35 -19.75,16.89 -21.68,4.96zm-12.93 -7.72c3.55,11.97 1.01,16.88 11.13,23.9 9.88,6.85 16.59,2.37 25.7,1.12 2.41,-3.52 -0.15,0.08 2.58,-3.27 19.95,-24.44 -6.77,-47.09 -26.32,-36.61 -7.53,4.03 -7.88,9.81 -13.09,14.86zm-303.24 -215.02c-4.12,-22.15 16.76,-20.68 20.47,-10.88 1.98,5.21 0.71,11.62 -4.94,14.38 -7.46,3.65 -10.42,0.15 -15.53,-3.5zm-0.07 -27.28c-4.33,5.62 -8.62,4.58 -11.35,13.92 -5.56,19.06 12.86,36.06 31.1,27.65l7.28 -3.76c3.87,-9.86 9.94,-15.97 2.25,-28.43 -6.13,-9.93 -14.37,-12.14 -29.28,-9.38zm379.42 267.64c1.53,0.79 0.38,-0.06 2.49,1.74 4.4,3.75 9.21,12.22 15.8,18.12 5.94,-4.83 15.38,-20.95 20.25,-22.39l4.14 -7.11c-3.59,-5.2 -3.76,-5.03 -9.99,-7.1 -2.17,4.25 -10.24,15.21 -14.4,18.49 -5.79,-4.43 -25.49,-32.27 -31.89,-37.61 -5.06,2.02 -4.33,1.38 -8.09,6.49 1.85,4.39 7.49,10.43 10.69,14.17 4.34,5.1 8.51,9.45 11,15.2zm288.18 -25.84l8.68 0.1 73.84 0.06 8.25 -0.47 -0.6 -11.01 -89.8 0.01 -0.37 11.31zm0.8 -22.61l89.58 -0.12 0.29 -11.35 -90.84 0.14 0.97 11.33zm-0.09 45.24l89.61 -0.16 0.35 -11.21 -90.83 0 0.87 11.37zm-202.57 -601.12l67.45 0.47 0.56 -11.33c-12.97,-0.11 -58.77,-1.59 -68.02,0.95l0.01 9.91zm201.94 623.81l62.37 -0.18 -0.38 -11.26 -61.78 0.01 -0.21 11.43zm-184.88 -601.24l50.9 0.67 -0.38 -11.37 -50.4 -0.04 -0.12 10.74zm-125.59 62.11l40.02 0.01 0.12 13.7 -40.05 0.02 -0.09 -13.73zm-0.8 14.88c8.44,1.16 34.51,1.6 42.46,-0.58l-0.55 -14.64c-7.59,-2.87 -33.38,-2.21 -42.65,-0.57l0.74 15.79zm-278.5 449.89l-10.84 -0.33 -0.46 12.42 11.39 -0.34 -0.09 -11.75zm23.67 -117.62l-0.85 -11.96 -11.41 0.48 0.04 10.59 12.22 0.89zm384.71 169.97l0.46 -12.08 -12.55 0.42 1.52 10.9 10.57 0.76zm-436.59 -125.08l11.5 -0.06 -0.09 -11.48 -11.43 0 0.02 11.54zm16.97 107.58l11.44 -0.13 -0.02 -11.49 -11.5 0.13 0.08 11.49zm595.24 -62.47l11.48 0.14 0.01 -11.47 -11.49 -0.03 0 11.36zm-209.41 101.95l11.52 0.23 -0.58 -11.75 -10.6 0.01 -0.34 11.51zm-380.2 -147.25l11.56 -0.03 -0.07 -11.17 -11.36 0.2 -0.13 11zm360.64 124.53l7.93 -0.08 1.29 -11.18 -12.08 0.33c-0.15,6.16 -2.06,9.5 2.86,10.93zm-151.27 -124.22l11.53 -0.86 0.1 -10.49 -11.48 -0.17 -0.15 11.52zm-237.4 104.84c1.62,4.35 4.42,2.54 10.37,2.54l1.03 -11.43 -12.64 0.62 1.24 8.27zm192.17 -150.23l11.49 -0.85 -0.02 -10.39 -11.52 -0.32 0.05 11.56zm493.43 90.38l11.44 -0.26 0.04 -10.56 -11.49 -0.53 0.01 11.35zm-447.88 68.93l11.18 -1.4 -0.62 -10.39 -10.82 -0.57 0.26 12.36zm402.45 -68.93l11.61 -0.3 -0.11 -10.33 -11.41 -0.71 -0.09 11.34zm-425.26 22.43l11.35 0.21 -0.18 -11.47 -11.18 0.69 0.01 10.57zm215.97 79.4l11.54 0.02 -0.69 -11.14 -6.07 -0.22 -4.49 0.28 -0.29 11.06zm-408.36 -107.21l11.35 -1 -0.14 -10.31 -11.2 -0.36 -0.01 11.67zm408.43 -209.78l11.54 0.05 -0.88 -11.31 -10.48 0.12 -0.18 11.14zm-215.97 282.86l11.29 0.36 -0.11 -11.48 -11.29 0.72 0.11 10.4zm-192.66 -226.09l11.42 -0.45 0.04 -10.39 -11.04 -0.74 -0.42 11.58zm215.36 -0.06l11.24 -0.44 -0.23 -10.68 -11.09 -0.31 0.08 11.43zm-208.96 33.99l-6.04 -1 0.05 12.34 11.07 -0.74 -0.06 -10.21 -5.02 -0.39zm186.27 10.93l11.28 0.33 -0.14 -11.41 -11.28 0.62 0.14 10.46zm261.8 238.08l10.45 0.04 0.26 -11.46 -11.45 0.39 0.74 11.03zm-261.83 -283.35l11.33 0.28 -0.25 -11.43 -11.11 0.69 0.03 10.46zm170.63 -56.42l11.74 0.14 -1.13 -11.31 -10.23 0.12 -0.38 11.05zm-385.75 56.31l11.22 0.46 0.04 -11.35 -11.05 0.2 -0.21 10.69zm453.72 261.16l11.5 -1.22 -0.31 -10.19 -10.85 -0.29 -0.34 11.7zm-67.45 -294.79l10.66 0.02 0.26 -11.27 -11.38 0.37 0.46 10.88zm45.5 317.04l10.37 0.1 0.17 -11.32 -11.4 0.21 0.86 11.01zm22.81 0.3l10.42 -0.75 -0.64 -10.76 -10.85 -0.2 1.07 11.71zm-431.95 -215.18l10.72 -1.04 0.04 -9.81 -10.87 -0.05 0.11 10.9zm651.69 89.87l-0.41 -10.36 -10.41 0.23 0.02 10.18 10.8 -0.05zm-651.5 -146.21l0.31 10.34 10.4 -0.1 0.08 -10 -10.79 -0.24zm203.4 0.1l-10.61 0.01 -0.14 10.31 10.32 -0.1 0.43 -10.22zm183.07 -68.6l9.83 0.29 0.02 -10.97 -10.02 0.02 0.17 10.66zm-182.95 123.9l0.04 -9.82 -10.87 -0.03 0.04 9.92 10.79 -0.07zm-0.02 135.92l0.15 -9.93 -10.98 0 0.17 9.82 10.66 0.11zm493.48 -45.36l0.02 -9.61 -10.88 -0.21 -0.01 10.01 10.87 -0.19zm-300.52 68.46l-9.84 0.34 -0.2 10.68 9.84 -0.01 0.2 -11.01zm-192.75 -113.64l-0.03 -9.9 -10.82 0.12 -0.05 9.71 10.9 0.07zm-0.23 45.22l0.09 -9.79 -10.75 -0.06 -0.06 9.84 10.72 0.01zm-203.87 17.07l10.95 0.06 -0.01 -9.88 -10.5 0.13 -0.44 9.69zm396.5 -220.17l-9.34 0.16 -0.24 10.89 9.62 -0.02 -0.04 -11.03z"/>
 </g>
</svg>
