<svg width="40" height="36" viewBox="0 0 40 36" fill="none" xmlns="http://www.w3.org/2000/svg">
<path d="M35.4667 12.9999C36.1385 12.9999 36.7829 12.7365 37.258 12.2677C37.7331 11.7989 38 11.163 38 10.4999V2.99998C38 2.33695 37.7331 1.70107 37.258 1.23223C36.7829 0.76339 36.1385 0.5 35.4667 0.5H21.5333C20.8615 0.5 20.2171 0.76339 19.742 1.23223C19.2669 1.70107 19 2.33695 19 2.99998V10.4999C19 11.163 19.2669 11.7989 19.742 12.2677C20.2171 12.7365 20.8615 12.9999 21.5333 12.9999H22.1667V14.8749C22.1666 14.9881 22.1978 15.0991 22.2567 15.1962C22.3156 15.2932 22.4001 15.3727 22.5012 15.4261C22.6023 15.4795 22.7162 15.5048 22.8307 15.4993C22.9453 15.4938 23.0561 15.4577 23.1515 15.3949L26.79 12.9999H35.4667ZM26.2485 11.8549L23.4333 13.7068V12.3749C23.4333 12.2092 23.3666 12.0502 23.2478 11.933C23.1291 11.8158 22.968 11.7499 22.8 11.7499H21.5333C21.1974 11.7499 20.8752 11.6182 20.6377 11.3838C20.4001 11.1494 20.2667 10.8315 20.2667 10.4999V2.99998C20.2667 2.66847 20.4001 2.35053 20.6377 2.11611C20.8752 1.88169 21.1974 1.74999 21.5333 1.74999H35.4667C35.8026 1.74999 36.1248 1.88169 36.3623 2.11611C36.5999 2.35053 36.7333 2.66847 36.7333 2.99998V10.4999C36.7333 10.8315 36.5999 11.1494 36.3623 11.3838C36.1248 11.6182 35.8026 11.7499 35.4667 11.7499H26.6C26.4749 11.7501 26.3527 11.7866 26.2485 11.8549Z" fill="#06120E"/>
<path d="M22 3.5H23V4.5H22V3.5Z" fill="#06120E"/>
<path d="M24 3.5H35V4.5H24V3.5Z" fill="#06120E"/>
<path d="M22 6H35V7H22V6Z" fill="#06120E"/>
<path d="M22 8.5H35V9.5H22V8.5Z" fill="#06120E"/>
<path d="M24.7957 18.5C24.9324 17.7139 25.001 16.908 25 16.0994C25 15.8985 24.9959 15.6987 24.9877 15.5L24.1708 15.5657C24.1781 15.7419 24.1818 15.9204 24.1818 16.0994C24.1829 16.8176 24.1218 17.5334 24 18.2314L24.7957 18.5Z" fill="#06120E"/>
<path d="M21.871 26.8991V32.5998C21.871 33.1037 22.0749 33.5871 22.4379 33.9434C22.8008 34.2998 23.2931 34.5 23.8065 34.5C24.3198 34.5 24.8121 34.2998 25.175 33.9434C25.538 33.5871 25.7419 33.1037 25.7419 32.5998V27.0891L34.2077 29.306C34.3322 29.7483 34.6158 30.1313 35.0059 30.384C35.3961 30.6366 35.8663 30.7417 36.3294 30.6798C36.7925 30.6179 37.2171 30.3933 37.5243 30.0474C37.8315 29.7016 38.0005 29.2582 38 28.7993V17.3979C38.0005 16.939 37.8315 16.4955 37.5243 16.1497C37.2171 15.8039 36.7925 15.5792 36.3294 15.5173C35.8663 15.4554 35.3961 15.5606 35.0059 15.8132C34.6158 16.0658 34.3322 16.4488 34.2077 16.8911L25.0123 19.2981H21.871C20.8443 19.2981 19.8597 19.6985 19.1338 20.4112C18.4078 21.124 18 22.0906 18 23.0986C18 24.1065 18.4078 25.0732 19.1338 25.7859C19.8597 26.4986 20.8443 26.8991 21.871 26.8991ZM24.4516 32.5998C24.4516 32.7678 24.3836 32.9289 24.2627 33.0477C24.1417 33.1664 23.9776 33.2332 23.8065 33.2332C23.6353 33.2332 23.4712 33.1664 23.3503 33.0477C23.2293 32.9289 23.1613 32.7678 23.1613 32.5998V26.8991H24.4516V32.5998ZM36.0645 16.7645C36.2356 16.7645 36.3997 16.8312 36.5207 16.95C36.6417 17.0688 36.7097 17.2299 36.7097 17.3979V28.7993C36.7097 28.9673 36.6417 29.1284 36.5207 29.2472C36.3997 29.366 36.2356 29.4327 36.0645 29.4327C35.8934 29.4327 35.7293 29.366 35.6083 29.2472C35.4873 29.1284 35.4194 28.9673 35.4194 28.7993V17.3979C35.4194 17.2299 35.4873 17.0688 35.6083 16.95C35.7293 16.8312 35.8934 16.7645 36.0645 16.7645ZM34.129 27.9759L25.7419 25.7792V20.418L34.129 18.2213V27.9759ZM21.871 20.5649H24.4516V25.6322H21.871C21.1865 25.6322 20.5301 25.3653 20.0462 24.8901C19.5622 24.415 19.2903 23.7705 19.2903 23.0986C19.2903 22.4266 19.5622 21.7822 20.0462 21.307C20.5301 20.8319 21.1865 20.5649 21.871 20.5649Z" fill="#06120E"/>
<path d="M17.8509 5.23655C15.1406 4.23965 12.1464 4.2552 9.44728 5.28019C6.74817 6.30518 4.53603 8.26676 3.23875 10.7855C1.94147 13.3043 1.65124 16.2012 2.42421 18.9159C3.19718 21.6306 4.97841 23.9702 7.42336 25.4822C7.9554 25.8081 8.39388 26.2596 8.6979 26.7947C9.00193 27.3298 9.1616 27.931 9.16203 28.5423V33.6024C9.16203 33.7702 9.23059 33.9311 9.35262 34.0497C9.47465 34.1683 9.64016 34.235 9.81274 34.235H10.4634V35.5H11.7648V34.235H13.0662V35.5H14.3677V34.235H15.6691V35.5H16.9705V34.235H17.6212C17.7937 34.235 17.9592 34.1683 18.0813 34.0497C18.2033 33.9311 18.2719 33.7702 18.2719 33.6024V28.5423C18.2733 27.7685 18.5284 27.0152 19 26.3917L17.9543 25.639C17.4484 26.3066 17.1247 27.0878 17.0134 27.9098H14.3677V22.1665C15.4508 22.0146 16.4415 21.4886 17.1584 20.6848C17.8753 19.8811 18.2706 18.8533 18.2719 17.7895H16.9705C16.9705 18.6283 16.6277 19.4327 16.0175 20.0258C15.4074 20.6189 14.5798 20.9521 13.7169 20.9521C12.8541 20.9521 12.0265 20.6189 11.4164 20.0258C10.8062 19.4327 10.4634 18.6283 10.4634 17.7895H9.16203C9.16332 18.8533 9.55858 19.8811 10.2755 20.6848C10.9924 21.4886 11.9831 22.0146 13.0662 22.1665V27.9098H10.4218C10.3256 27.1989 10.0696 26.5174 9.67194 25.9135C9.27429 25.3097 8.74474 24.7983 8.12091 24.4158C6.42261 23.3741 5.07288 21.8745 4.23634 20.0999C3.3998 18.3254 3.11262 16.3525 3.40983 14.422C3.63608 12.9251 4.20454 11.4966 5.07341 10.2414C5.94228 8.98619 7.08947 7.93619 8.43067 7.1686C9.77187 6.401 11.273 5.93531 12.8237 5.80577C14.3744 5.67622 15.9352 5.8861 17.3915 6.41999L17.8509 5.23655ZM10.4634 32.9699V31.7049H16.9705V32.9699H10.4634ZM10.4634 30.4399V29.1748H16.9705V30.4399H10.4634Z" fill="#06120E"/>
<path d="M13.425 8.67943C14.1742 8.6787 14.9188 8.79414 15.6318 9.02155L16 7.8989C14.1172 7.29946 12.0806 7.37767 10.2505 8.11969C8.42035 8.86172 6.91474 10.2197 6 11.9534L7.05977 12.5C7.66402 11.3472 8.5775 10.3809 9.7002 9.70704C10.8229 9.03316 12.1115 8.67765 13.425 8.67943Z" fill="#06120E"/>
<path d="M5 14.3756L5.81856 14.5C5.85866 14.2455 5.91933 13.9946 6 13.7496L5.21292 13.5C5.11853 13.7859 5.04733 14.0787 5 14.3756Z" fill="#06120E"/>
</svg>
