<svg width="27" height="33" viewBox="0 0 27 33" fill="none" xmlns="http://www.w3.org/2000/svg">
<path fill-rule="evenodd" clip-rule="evenodd" d="M8.26862 31.6114V0.954634C9.2971 0.954634 11.4725 1.17541 12.661 1.26849C13.6487 1.34618 14.9887 1.37618 15.9818 1.50926C16.2803 1.54926 16.8426 1.58695 17.1088 1.5908C18.3788 1.60849 20.1681 1.87388 21.4981 1.90773L25.9505 2.2262V29.6398C25.6313 29.6398 25.172 29.7313 24.8628 29.7606L21.5504 30.1367C20.0581 30.3029 18.625 30.429 17.1465 30.6306C16.3842 30.7344 15.7272 30.7698 14.9657 30.8667C14.2618 30.956 13.4956 31.0298 12.7318 31.1137L8.26862 31.6114ZM7.82553 0H8.21785C8.44093 0.0176926 8.59093 0.0592319 8.8394 0.0653859L25.4236 1.29002C26.1359 1.38541 26.8405 1.20925 26.8405 1.84465V30.0213C26.8405 30.6529 25.929 30.529 24.7597 30.676C21.5635 31.076 18.1134 31.3544 15.0464 31.7752C14.628 31.8321 14.1995 31.8629 13.8464 31.9098L10.1825 32.3168C9.79634 32.3537 9.40633 32.4029 8.9794 32.4491C7.18014 32.646 7.86553 32.6068 7.2886 32.2098C7.13167 32.1014 6.95936 32.0468 6.78551 31.9498L1.84465 29.1936C1.54849 29.0406 0 28.2798 0 27.9859V3.05313C0 2.56928 0.603858 2.50159 1.26387 2.28235C1.74234 2.12235 2.26543 1.9485 2.74313 1.78926C3.74392 1.45541 4.68701 1.14156 5.70011 0.803092C6.23781 0.623858 6.69551 0.484625 7.22937 0.296929C7.65553 0.147695 7.46245 0.0307698 7.82553 0ZM0.890017 3.3716L7.30552 1.24464L7.31398 31.166C7.08706 31.1129 6.01627 30.4637 5.70318 30.2967L2.50697 28.5313C2.2685 28.389 1.1431 27.7267 0.890017 27.6682V3.3716Z" fill="black"/>
<path fill-rule="evenodd" clip-rule="evenodd" d="M11.7035 23.5337H11.3212V19.7813C11.3212 19.449 11.7173 19.6728 12.0212 19.5267V23.4698C11.8789 23.5037 11.875 23.5337 11.7035 23.5337ZM14.1197 19.0813V18.4451C14.5012 18.4136 15.522 17.9274 16.0282 17.8097V19.0182L14.1197 19.0813ZM16.2828 19.0182V17.8097C16.6267 17.8897 16.9113 18.0212 17.2282 18.1359C17.4567 18.2174 17.9467 18.4251 18.1905 18.4451V18.9543H16.982C16.629 18.9543 16.6051 19.0182 16.2828 19.0182ZM16.2828 17.2366C16.7682 17.3505 17.3005 17.5974 17.8521 17.7659C18.1621 17.8612 18.1905 17.8089 18.1905 18.1912C17.9259 18.1689 16.9944 17.7751 16.6213 17.662C16.3113 17.5674 16.2828 17.6182 16.2828 17.2366ZM14.1197 18.1912V17.8728C14.4828 17.8428 15.5089 17.3582 16.0282 17.2366C16.0282 17.6082 16.0866 17.552 15.2251 17.8335C14.8889 17.9436 14.4451 18.1643 14.1197 18.1912ZM16.2828 16.6643C16.5367 16.6858 17.5221 17.0882 17.8521 17.1943C18.1621 17.2943 18.1905 17.2305 18.1905 17.6189C17.7259 17.5105 16.5928 17.0081 16.2828 16.9828V16.6643ZM14.1197 17.6189C14.1197 17.1443 14.1281 17.3405 14.9374 17.0366C15.2712 16.912 15.6459 16.7535 16.0282 16.6643C16.0282 17.0189 16.0359 16.9812 15.7397 17.0751C15.5143 17.1474 15.4228 17.1751 15.2197 17.2558C15.0135 17.3374 14.2989 17.6035 14.1197 17.6189ZM16.2828 16.092L17.8674 16.6066C18.1344 16.6989 18.1905 16.6735 18.1905 17.0466C17.6659 16.9235 16.672 16.4428 16.2828 16.4104V16.092ZM14.1197 17.0466C14.1197 16.6628 14.0458 16.7551 14.922 16.4489L16.0282 16.092V16.4104C15.7182 16.4358 14.5843 16.9381 14.1197 17.0466ZM14.1197 16.4735C14.1197 16.0874 14.0689 16.1658 14.9235 15.8781C15.252 15.7674 15.6836 15.5481 16.0282 15.5197V15.8381C15.6389 15.8704 14.6451 16.3512 14.1197 16.4735ZM16.2828 15.4558L18.1905 16.1558V16.4735L16.2828 15.7743V15.4558ZM16.2828 14.8835L18.1905 15.5835V15.9012L16.2828 15.202V14.8835ZM14.1197 15.9012V15.5835L16.0282 14.8835V15.202L14.1197 15.9012ZM16.2828 14.3112C16.5197 14.3666 16.9644 14.5473 17.2182 14.6481C17.5621 14.7843 17.8921 14.8527 18.1905 15.0112V15.3289L16.2828 14.6296V14.3112ZM14.1197 15.3289V15.0112C14.6289 14.7666 15.5212 14.5543 16.0282 14.3112V14.6296L14.1197 15.3289ZM16.2828 13.7389C16.789 13.8566 17.8098 14.3435 18.1905 14.375V14.7566C17.7805 14.5396 17.0744 14.3404 16.6059 14.1789C16.339 14.0858 16.2828 14.1112 16.2828 13.7389ZM14.1197 14.7566V14.4381L15.5112 13.9219C15.6789 13.8658 15.8551 13.7789 16.0282 13.7389V14.0566L14.1197 14.7566ZM16.2828 13.1665C16.802 13.2873 17.8282 13.7727 18.1905 13.8027V14.1204C17.9474 14.1004 16.9567 13.7219 16.6159 13.5965C16.3182 13.4873 16.2828 13.5573 16.2828 13.1665ZM14.1197 14.1842V13.8027C14.4397 13.7758 14.8051 13.5835 15.0812 13.4919C15.4028 13.385 15.7213 13.2381 16.0282 13.1665C16.0282 13.4981 16.0097 13.4942 15.752 13.5904C15.2859 13.765 14.5735 13.9442 14.1197 14.1842ZM16.2828 12.5942L17.8521 13.1227C18.1621 13.2181 18.1905 13.1665 18.1905 13.5481C17.9259 13.5258 16.9944 13.1319 16.6213 13.0188C16.3113 12.9242 16.2828 12.975 16.2828 12.5942ZM14.1197 13.5481V13.2296C14.4297 13.2042 15.5636 12.7019 16.0282 12.5942C16.0282 12.965 16.0866 12.9088 15.2251 13.1904C14.8889 13.3004 14.4451 13.5212 14.1197 13.5481ZM16.2828 12.0219C16.569 12.045 17.4667 12.4619 17.8205 12.5819C18.1521 12.695 18.1821 12.5958 18.1905 12.9758C17.8474 12.8958 17.5613 12.7642 17.2444 12.6496C17.0628 12.5834 16.462 12.3542 16.2828 12.3396V12.0219ZM14.1197 12.9758C14.1274 12.6511 14.2089 12.6881 14.4435 12.5996L16.0282 12.0219C16.0282 12.4881 16.0382 12.2888 15.2197 12.6127C15.0135 12.6942 14.2989 12.9611 14.1197 12.9758ZM18.1905 7.50566C18.5536 7.67951 19.5321 7.59335 19.9083 7.50566C20.0144 7.04719 19.9713 6.9718 19.9713 6.4241C21.1283 6.4241 22.1445 6.61564 23.2791 6.61564V22.7067L16.4828 23.1613C16.1436 23.199 15.4951 23.2721 15.1389 23.2806C14.7312 23.2906 14.1651 23.3052 13.7558 23.3606C13.4658 23.3998 12.7289 23.4698 12.4027 23.4698V19.5267C12.8789 19.5267 13.1512 19.4659 13.5451 19.4605C13.9451 19.4559 14.4282 19.492 14.8166 19.4597L17.2344 19.3336C18.919 19.3313 20.429 19.209 22.1344 19.209V22.5159C22.1344 22.7875 22.5791 22.7875 22.5791 22.5159C22.5791 18.0112 22.8229 18.7674 21.7529 18.8274C21.3875 18.8474 20.976 18.8197 20.6052 18.8243C20.2252 18.829 20.0367 18.8936 19.5906 18.8913C19.209 18.889 18.8267 18.8905 18.4451 18.8905V13.2935C18.4451 13.115 18.4598 12.8819 18.4505 12.7119C18.4436 12.5704 18.4759 12.5273 18.2575 12.4573C17.7313 12.2881 17.1351 11.9557 16.6005 11.8311C16.7359 11.6457 16.8144 11.7134 17.0851 11.6157C17.8421 11.3419 17.5528 10.5411 16.5374 10.3042C16.6867 10.0811 16.8867 9.95571 17.0567 9.74263C17.2759 9.46877 17.2551 9.32262 17.5451 9.08646C17.7544 8.91646 17.9044 8.75568 18.0221 8.48183C18.1382 8.21029 18.1905 7.87259 18.1905 7.50566ZM17.1097 11.195C16.5336 11.4711 16.4551 11.2165 15.882 11.685C15.6843 11.8465 14.1105 12.4734 13.8658 12.5304V19.0813C12.9874 19.0813 12.1627 19.209 11.3212 19.209V5.7887C11.9681 5.7887 12.6089 5.91563 13.2297 5.91563C13.2297 6.48641 13.182 6.77257 13.2935 7.25104C13.8104 7.37181 14.1105 7.37873 14.7558 7.37873C14.3258 8.27567 15.5297 9.26492 15.6505 9.47339C15.7651 9.67185 15.8605 9.74647 15.9759 9.91109C16.1259 10.1249 16.0651 10.2519 16.2405 10.4734C16.5382 10.8488 17.0667 10.6811 17.1097 11.195ZM10.4312 5.47024V23.8521C10.4312 24.0414 10.7081 24.2975 10.865 24.3752C11.2889 24.5837 15.3297 24.1329 16.3482 24.1075L18.6398 23.9191C19.5644 23.8467 23.2968 23.7152 23.7468 23.4921C23.9529 23.3898 24.1691 23.1798 24.1691 22.8975V6.4241C24.1691 5.69486 23.1822 5.73486 22.9245 5.69793C22.0152 5.56716 19.4352 5.47562 18.3082 5.35254C18.0051 5.31946 17.6113 5.30254 17.3605 5.28331C17.032 5.25716 16.7328 5.24023 16.4697 5.21946L13.612 5.02407C12.9958 5.01946 12.3681 4.90176 11.7666 4.89792C11.4042 4.89561 10.965 4.73638 10.6088 5.13946C10.5542 5.20177 10.4312 5.37793 10.4312 5.47024Z" fill="black"/>
<path fill-rule="evenodd" clip-rule="evenodd" d="M4.26146 23.0251V20.4805C4.53685 20.4805 5.36379 20.3712 5.53302 20.2897V23.5974C5.30917 23.5451 5.0884 23.4674 4.8607 23.3797C4.64224 23.2959 4.26146 23.2359 4.26146 23.0251ZM4.13377 23.0882L4.153 23.1074C4.15146 23.1059 4.12761 23.0951 4.13377 23.0882ZM3.87991 20.1628V23.0251L2.60758 22.5797V6.48788C2.86451 6.4825 5.38994 5.98403 5.53302 5.91557V19.9081C5.02071 19.9512 4.40377 20.1628 3.87991 20.1628ZM1.7168 6.48788V22.5797C1.7168 23.2628 2.12142 23.3644 2.61604 23.5251L5.32533 24.5067C6.09842 24.7944 6.42381 24.0936 6.42381 23.979V5.59787C6.42381 5.45094 6.19842 5.02478 5.66072 5.02478C5.2484 5.02478 3.8953 5.33402 3.39683 5.43325C3.04144 5.50479 2.58758 5.56633 2.28681 5.65864C1.94757 5.76326 1.7168 6.04865 1.7168 6.48788Z" fill="black"/>
<path fill-rule="evenodd" clip-rule="evenodd" d="M14.374 27.159C14.6671 27.159 14.8978 27.1159 15.0509 27.3098C15.254 27.5667 15.3779 28.4944 14.4378 28.4944C14.4378 27.9883 14.374 27.7021 14.374 27.159ZM14.0563 27.159V28.8129C14.6825 28.8129 15.3678 28.8498 15.5517 27.9498C15.5986 27.7183 15.534 27.3513 15.4325 27.1813C15.1432 26.6959 14.2463 26.8375 14.1201 26.9075C13.8455 27.0598 14.0563 26.9221 14.0563 27.159Z" fill="black"/>
<path fill-rule="evenodd" clip-rule="evenodd" d="M13.4838 27.3498V27.6682C13.3584 27.7282 13.19 27.7598 13.0384 27.7952V28.0498C13.9708 28.0498 13.5461 28.6221 13.293 28.6221C13.0738 28.6221 13.0461 28.5752 12.8477 28.5582C12.8477 28.8706 12.8523 28.9398 13.1654 28.9398C14.0508 28.9398 14.1177 28.0405 13.6746 27.9221C13.7523 27.6305 13.8654 27.7636 13.8654 27.3498C13.8654 26.8398 12.8053 26.8974 12.863 27.2805C12.9092 27.5875 12.9969 27.2367 13.4838 27.3498Z" fill="black"/>
<path fill-rule="evenodd" clip-rule="evenodd" d="M16.7913 27.6684V27.0953C16.9406 27.0637 17.2367 27.0122 17.2367 27.2861V27.3499C17.2367 27.5753 17.0098 27.6499 16.7913 27.6684ZM16.4736 26.8414V28.6222C16.9929 28.6222 16.7913 28.6815 16.7913 27.9222C17.8737 27.9222 17.6906 26.7776 17.046 26.7776C16.7267 26.7776 16.7613 26.8345 16.4736 26.8414Z" fill="black"/>
<path fill-rule="evenodd" clip-rule="evenodd" d="M21.6253 27.4138C21.6461 27.1599 21.6515 27.2061 21.8161 27.0953C22.0361 27.1546 22.0115 27.1299 22.0707 27.3499C21.9069 27.3499 21.7015 27.3276 21.6253 27.4138ZM21.3076 27.4769C21.3076 28.2223 21.6953 28.26 22.3246 28.113V27.8592C21.7845 27.9384 21.7207 28.0253 21.6253 27.6684C21.973 27.6392 21.7992 27.6046 22.3884 27.6046C22.3884 26.393 21.3076 26.8045 21.3076 27.4769Z" fill="black"/>
<path fill-rule="evenodd" clip-rule="evenodd" d="M19.209 27.0951V28.3674H19.5275C19.5275 27.7212 19.4436 27.5466 19.7182 27.2858C20.0559 27.4651 19.9721 27.5281 19.9721 28.3035H20.2905C20.2905 27.5728 20.4167 27.032 19.7813 27.032C19.569 27.032 19.6651 27.1451 19.519 27.1612C19.3351 27.182 19.5836 27.1789 19.4175 27.1428C19.3982 27.1381 19.3928 27.0997 19.209 27.0951Z" fill="black"/>
<path fill-rule="evenodd" clip-rule="evenodd" d="M20.417 26.9682C20.4247 27.2982 20.4516 27.1998 20.6078 27.2859C20.6078 28.3036 20.5862 28.2898 21.1801 28.2405V27.9859C20.8655 27.9598 20.9262 27.9898 20.9262 27.2228H21.1801V26.9044C21.1624 26.9059 21.0224 26.9244 21.0201 26.9236C20.9224 26.9221 21.0008 26.9398 20.9262 26.9044C20.8924 26.7598 20.8762 26.7582 20.8624 26.5867C20.1424 26.7544 20.9247 26.9236 20.417 26.9682Z" fill="black"/>
<path fill-rule="evenodd" clip-rule="evenodd" d="M17.9997 27.3498C17.932 27.1814 18.1304 27.2314 17.7458 27.2229C17.7458 28.6068 17.6412 28.4945 18.1266 28.4945C18.1266 28.0091 17.8904 27.5229 18.4451 27.4768V27.1591C18.0904 27.1668 18.2312 27.1891 17.9997 27.3498Z" fill="black"/>
<path fill-rule="evenodd" clip-rule="evenodd" d="M22.8981 26.9683C22.8388 26.8906 22.8565 27.0398 22.8342 26.7775H22.5796V28.1129C23.1365 28.1129 22.8565 28.0383 22.895 27.476C22.9358 26.8798 23.2796 27.2606 23.2796 26.9044C23.2796 26.6475 22.9827 26.6498 22.8981 26.9683Z" fill="black"/>
<path fill-rule="evenodd" clip-rule="evenodd" d="M18.6358 28.4313H18.9535L18.8904 27.0951C18.3119 27.1436 18.6358 27.4589 18.6358 28.4313Z" fill="black"/>
<path fill-rule="evenodd" clip-rule="evenodd" d="M18.5747 26.6582C18.5801 26.9721 18.5747 26.9682 18.827 26.9682C18.9878 26.6821 18.847 26.6267 18.827 26.5867L18.5747 26.6582Z" fill="black"/>
</svg>
