<svg width="33" height="32" viewBox="0 0 33 32" fill="none" xmlns="http://www.w3.org/2000/svg">
<path fill-rule="evenodd" clip-rule="evenodd" d="M16.1322 9.10821L18.2639 9.09496L17.4904 10.4873C17.4334 10.5847 17.4161 10.6224 17.3665 10.7031C17.2658 10.8668 17.3045 10.8297 17.177 10.9252L16.1322 9.10821ZM14.3865 7.41279C14.313 6.91467 14.3446 1.72261 14.4428 1.53944C14.6239 1.20152 15.2023 1.29643 15.6668 1.2965L18.5999 1.29643C19.0779 1.29598 19.6257 1.19128 19.716 1.70206C19.7949 2.14763 19.7476 7.41419 19.6623 7.57663C19.4794 7.92511 18.8786 7.82712 18.4306 7.82706L15.4975 7.82712C15.0366 7.82751 14.4604 7.91493 14.3865 7.41279ZM15.6423 10.8722C15.9663 11.1279 16.1886 11.879 16.5093 12.2296C16.9978 12.7634 17.4952 12.4056 18.2059 12.4228C18.9156 12.44 19.6317 12.4571 20.3484 12.4741C21.8127 12.5087 23.9268 12.1077 24.0175 13.2465C24.1002 14.2855 23.7178 14.4762 22.9431 14.4375C22.0235 14.3915 19.3537 14.3312 18.6597 14.6101C18.1449 14.8169 17.816 15.2011 17.7198 15.8763C17.5224 17.26 18.565 16.9577 18.7502 16.7952C19.2192 16.384 18.5565 15.6279 19.8402 15.6483C20.5909 15.6603 21.3393 15.6986 22.0969 15.7028C23.66 15.7113 24.8486 15.7944 25.1895 14.3128C25.3113 13.7839 25.3032 12.7871 25.1293 12.2964C24.9244 11.7182 24.4531 11.4113 23.7894 11.319C23.4024 11.2167 19.3628 11.1837 18.5857 11.1638C18.6935 10.8343 19.2007 10.0479 19.4073 9.69503C20.1822 8.37138 19.954 9.16274 20.5212 8.54879C21.2967 7.70936 20.9324 5.81906 20.9983 4.49842C21.5606 4.42335 30.5224 4.47282 32.0244 4.48056C32.5686 4.48338 33.0011 4.42872 32.9998 3.84542C32.9986 3.26078 32.564 3.21247 32.0245 3.21579C30.5681 3.22482 21.4974 3.27627 20.998 3.19551C20.9467 1.88965 21.182 1.04683 20.2958 0.386481C19.5749 -0.150671 18.1033 0.0337129 17.077 0.0337129C16.0642 0.0337129 14.5247 -0.156367 13.8362 0.364529C12.8674 1.09746 13.2168 1.85343 13.1062 3.20197C12.5072 3.26405 3.95691 3.22232 2.46776 3.21605C1.93186 3.21387 1.49234 3.2588 1.4917 3.84517C1.49074 4.7116 2.70458 4.47999 3.9346 4.47999C5.51828 4.47999 12.0915 4.41003 13.1041 4.4917C13.2504 6.08363 12.7962 7.59826 13.5598 8.50898C14.1849 9.25458 14.4677 8.7212 14.8502 9.42053C14.9843 9.66571 15.6219 10.6411 15.6423 10.8722Z" fill="#2B2A29"/>
<path fill-rule="evenodd" clip-rule="evenodd" d="M2.59626 16.4737C2.77124 16.2376 4.29321 14.6892 4.49872 14.588C4.78927 14.7687 4.92135 15.0929 5.28336 15.2324C5.77375 15.4212 6.08642 15.2167 6.46124 15.0469C6.88616 14.8546 7.17276 14.8189 7.38911 14.5061C7.68859 14.0727 7.52119 13.7954 7.6207 13.2714L10.2913 13.2683C10.3888 13.7466 10.2327 14.0433 10.5266 14.4429C10.776 14.7821 10.9917 14.777 11.4248 14.9538C11.8056 15.1092 12.0666 15.317 12.5498 15.2102C13.0048 15.1098 13.1256 14.7809 13.4107 14.5899L15.3147 16.472C15.1642 16.7565 14.8481 16.8623 14.7364 17.293C14.6096 17.7818 14.8247 18.0514 14.9735 18.4166C15.3684 19.3857 15.3861 19.5778 16.6094 19.61L16.6298 22.3366C15.3744 22.325 15.3533 22.6096 14.9724 23.533C14.8201 23.9024 14.6047 24.1809 14.7397 24.6572C14.8692 25.1138 15.1854 25.1638 15.3303 25.4868C15.0063 25.7918 13.7083 27.2193 13.4107 27.3506C13.1534 27.1554 13.0195 26.8616 12.5992 26.7457C12.1053 26.6097 11.8347 26.8206 11.4583 26.9714C10.4702 27.3676 10.3235 27.4123 10.3184 28.6696L7.59673 28.6759C7.59176 27.3271 7.51259 27.3624 6.46934 26.8954C5.15154 26.3054 5.21095 26.8446 4.49872 27.3523C4.17949 27.1834 2.95928 25.8338 2.58631 25.4804C2.93028 24.8189 3.72913 24.9257 3.11272 23.4746C2.65242 22.391 2.66491 22.351 1.31071 22.3332L1.28407 19.6125C2.676 19.5466 2.6368 19.6049 3.1103 18.4755C3.71651 17.0296 2.98969 17.162 2.59626 16.4737ZM6.54405 12.3708C6.26153 13.0786 6.40636 12.9671 6.32808 13.7309L5.67476 13.9739C5.52572 13.7823 5.11157 13.3412 4.78551 13.2465C4.23182 13.0856 3.91348 13.4287 3.62338 13.5831C3.55849 13.7522 3.34105 13.9191 3.21197 14.0492C3.04859 14.2139 2.92371 14.3383 2.76059 14.5021C2.05532 15.2102 1.14026 15.8689 1.23129 16.6303C1.28579 17.0859 1.8113 17.538 2.02574 17.7054L1.79798 18.335C1.01761 18.3482 0.49637 18.2964 0.162983 18.8603C-0.0753589 19.2635 0.0193023 20.3954 0.0193023 20.9475C0.0193023 21.4875 -0.0731279 22.6516 0.146537 23.0502C0.505103 23.7006 0.987397 23.5268 1.79128 23.6205L2.04448 24.233C0.325916 25.4826 1.65972 26.3399 2.6252 27.3023C2.90854 27.5847 3.63798 28.3952 3.94236 28.5843C4.86328 29.1564 5.36406 28.1635 5.73965 27.9682L6.33126 28.221C6.36358 28.989 6.29544 29.499 6.88814 29.8221C7.28202 30.0369 10.6432 29.9907 10.9445 29.8577C11.5641 29.5841 11.5893 29.0718 11.583 28.2717L12.288 28.0086C13.4539 29.4097 14.0442 28.5548 14.8936 27.7025C15.2644 27.3305 15.5937 26.9981 15.9635 26.6255C16.5179 26.0669 16.5922 26.2115 16.7028 25.1837C16.5794 25.0456 16.5108 24.8571 16.407 24.7356C16.2809 24.5878 16.1524 24.4694 16.0149 24.3487L16.3001 23.6186C18.0436 23.47 17.8949 23.2978 17.8949 21.0042C17.8949 20.5074 17.9718 19.353 17.8054 18.9706C17.5188 18.3119 17.105 18.4045 16.3047 18.3225L16.0106 17.6131C16.2166 17.3833 16.4729 17.2063 16.5922 16.9508C17.0275 16.0182 16.0022 15.3503 15.2934 14.6401C14.9741 14.3202 14.3358 13.6024 14.0071 13.3842C13.2161 12.8595 12.5888 13.582 12.2913 13.9179L11.5872 13.6651C11.5838 13.1643 11.6533 12.5969 11.1993 12.2384L10.797 11.9878C10.1852 12.1011 8.14079 11.9365 7.32142 12.0036C7.04183 12.0266 6.90389 12.1074 6.71941 12.2511L6.54405 12.3708Z" fill="#2B2A29"/>
<path fill-rule="evenodd" clip-rule="evenodd" d="M22.898 19.483C23.1992 19.3748 24.3465 19.0103 24.635 19.0191C24.9964 19.8223 24.9389 19.8559 25.9127 19.9584C27.2308 20.0972 26.9261 19.722 27.3988 19.3144L28.9325 20.1492C28.7995 20.8014 28.4415 20.8639 29.2001 21.7437C29.7634 22.3971 29.5756 22.4507 30.6703 22.3626L31.1769 24.0588C30.9198 24.2418 30.7354 24.1678 30.4975 24.4558C30.2608 24.7423 30.1069 25.9098 30.2605 26.2829C30.392 26.6026 30.5537 26.629 30.8378 26.8372C30.7872 27.1182 30.1675 28.1048 30.0046 28.4217C29.2317 28.1647 29.2306 27.9765 28.406 28.6413C28.1595 28.8399 27.9745 28.9069 27.8273 29.1989C27.6243 29.6021 27.7812 29.7799 27.8128 30.1857L26.1078 30.6617C25.947 30.3533 25.9794 30.1195 25.7073 29.8932C25.4033 29.6404 24.3011 29.4802 23.9109 29.6793C23.621 29.8271 23.5568 30.066 23.3377 30.3207L21.7738 29.4814C21.8625 29.2201 22.0625 29.0079 22.051 28.6495C22.0359 28.1752 21.3619 27.3885 21.0609 27.2534C20.644 27.0663 20.4378 27.2353 20.0662 27.2843C19.9262 27.0836 19.5819 25.8295 19.559 25.5362C20.3101 25.3569 20.5253 25.1624 20.6082 24.3407C20.7164 23.2692 20.591 23.2682 19.8921 22.8164C19.9206 22.5413 20.1424 22.2728 20.2806 22.0125C20.3943 21.7983 20.5954 21.3794 20.7431 21.2322C21.495 21.4804 21.4875 21.751 22.356 21.0383C23.02 20.4934 23.0779 20.5258 22.898 19.483ZM18.3354 26.0164C18.7282 26.6357 18.6265 28.3331 19.5438 28.6028C20.044 28.7499 20.3735 28.3924 20.6285 28.5928C20.8612 28.9458 20.0013 29.3659 20.5733 30.1794C20.7419 30.4191 21.5134 30.7878 21.8638 30.9794C22.1663 31.1449 22.9712 31.6456 23.2335 31.7055C23.9005 31.8578 24.3321 31.3767 24.4822 30.8747L24.8048 30.9048C25.0786 31.3241 24.9718 31.8802 25.7119 31.9933C26.0737 32.0486 26.949 31.7416 27.3228 31.6335C27.7219 31.5183 28.5613 31.3181 28.8055 31.1375C29.5165 30.6114 28.8637 29.7398 29.1858 29.6879C29.4379 29.2326 29.8852 30.268 30.7197 29.6058C30.9275 29.441 32.1307 27.2428 32.2006 27.0153C32.2858 26.738 32.236 26.4263 32.0958 26.197C31.9276 25.9222 31.7063 25.8893 31.4917 25.7046L31.5211 25.311C32.9581 24.9469 32.4966 24.0637 32.1595 22.9064C32.0563 22.5523 31.8501 21.6755 31.6997 21.4417C31.2738 20.7788 30.8711 21.0881 30.2542 21.084C29.996 20.55 30.0818 20.9302 30.2794 20.3837C30.6249 19.4283 29.5668 19.0478 28.9138 18.6904C28.597 18.5169 27.8686 18.0546 27.5497 17.9569C26.6948 17.6946 26.5168 18.3929 26.2144 18.7035L25.8735 18.6833C25.3886 17.2058 24.87 17.5917 23.2694 18.0492C22.5111 18.266 21.4751 18.3689 21.5604 19.3629C21.6004 19.8294 21.8151 19.7716 21.5394 20.1046C21.0629 20.1126 20.6348 19.448 19.9513 20.0969C19.7184 20.318 19.3341 21.1062 19.1524 21.4428C18.6119 22.4438 17.9539 23.1881 19.1459 23.8516C19.4518 24.0219 19.4551 24.2422 19.1141 24.3563C18.0116 24.7251 18.1861 25.0939 18.3354 26.0164Z" fill="#2B2A29"/>
<path fill-rule="evenodd" clip-rule="evenodd" d="M6.39102 21.2874C6.20902 19.7698 7.32979 18.565 8.62311 18.3987C10.1269 18.2054 11.3802 19.3307 11.5241 20.6695C11.6868 22.1834 10.5832 23.3836 9.28995 23.5445C7.76223 23.7344 6.54898 22.6048 6.39102 21.2874ZM8.47344 17.1491C6.51545 17.4431 4.83296 19.1431 5.1455 21.474C5.40871 23.4369 7.20262 25.1235 9.51331 24.7919C11.4289 24.5169 13.0941 22.7114 12.7632 20.4086C12.4875 18.4911 10.6674 16.8197 8.47344 17.1491Z" fill="#2B2A29"/>
<path fill-rule="evenodd" clip-rule="evenodd" d="M24.9075 23.0161C27.3224 22.4145 28.1473 26.0117 25.8337 26.6236C24.6824 26.9279 23.7703 26.1443 23.5555 25.2546C23.2874 24.1443 24.051 23.2295 24.9075 23.0161ZM24.9752 21.7177C23.3808 21.9411 22.0164 23.3368 22.2716 25.2485C22.4787 26.8001 23.9455 28.1956 25.7959 27.9245C27.3265 27.7002 28.6933 26.2849 28.4561 24.4193C28.2562 22.8481 26.7814 21.4645 24.9752 21.7177Z" fill="#2B2A29"/>
</svg>
