<svg width="35" height="37" viewBox="0 0 35 37" fill="none" xmlns="http://www.w3.org/2000/svg">
<path fill-rule="evenodd" clip-rule="evenodd" d="M16.5469 5.8799C16.3022 6.0133 15.679 6.18769 15.3433 6.33921C15.1153 6.44224 14.9632 6.5285 14.7676 6.65918C14.5455 6.80756 14.4731 6.89726 14.255 6.953C14.0705 7.33551 13.503 7.51218 13.3139 8.51428C13.1431 9.41944 13.3428 10.1448 14.3422 9.99532C14.5121 9.50563 14.2808 9.03958 14.9881 9.23445C15.1037 9.65286 14.9724 9.77774 14.9954 10.1852C17.1547 11.6169 19.984 10.3228 20.0698 10.3149C20.3104 9.90054 20.0162 9.73074 20.1778 9.23037C20.7824 9.07469 20.7351 9.50714 20.7955 10.0201C22.3827 10.0239 21.9196 8.72836 21.5623 7.71057C21.3932 7.60697 21.4358 7.65569 21.4051 7.46461C20.7344 6.98459 20.8047 6.69529 19.2823 6.11769C18.6686 5.88484 18.6123 5.79407 18.0316 6.00048C17.2512 6.27767 17.0926 5.80482 16.5469 5.8799Z" fill="#24282B"/>
<path fill-rule="evenodd" clip-rule="evenodd" d="M0.395735 30.5175L0.363578 30.5904C0.162648 31.2018 -0.628484 32.9924 1.04637 32.9325C1.28133 32.5509 1.08608 31.9181 1.72772 32.1758C1.86462 32.5162 1.72757 32.7407 1.7352 33.1297C1.87289 33.1917 1.99052 33.2696 2.14044 33.3391L2.52748 33.5547C2.84006 33.5165 3.26207 33.6817 3.63861 33.7195C4.06471 33.7621 4.47564 33.7612 4.90527 33.7271C5.67604 33.6658 6.33912 33.4798 6.87623 33.1432C6.9727 32.7554 6.674 32.1707 7.11831 32.1073C7.59067 32.0398 7.42621 32.6028 7.59045 32.9229C8.57014 33.0198 8.72633 32.434 8.60726 31.5562C8.48518 30.6575 8.07562 30.5142 7.80289 30.008L7.51686 29.8414C6.70918 29.1786 5.64129 28.9611 5.45468 28.8284C4.76585 28.7031 4.66556 29.2018 3.89371 28.9239C3.39322 28.7437 3.45681 28.7044 2.49806 29.0817C2.01764 29.2708 1.69319 29.4585 1.32442 29.7006C0.769971 30.0648 0.813567 30.212 0.395735 30.5175Z" fill="#24282B"/>
<path fill-rule="evenodd" clip-rule="evenodd" d="M26.377 32.5013C26.6831 32.7669 26.8387 32.9891 27.4297 32.9181C27.6166 32.4415 27.3745 31.983 28.0832 32.1441C28.2106 32.5316 28.0789 32.6956 28.0832 33.0953C28.3785 33.3153 28.6699 33.429 29.0198 33.5313L29.3949 33.6887C29.6733 33.6185 30.8352 33.7678 31.344 33.7202C31.6337 33.693 31.9316 33.641 32.2149 33.5715C32.4989 33.5018 32.6972 33.3787 32.9484 33.3608C33.0605 33.2491 33.0984 33.2289 33.2692 33.12C33.2748 32.7275 33.0518 32.198 33.4408 32.1118C33.8902 32.0123 33.8497 32.5967 33.8984 32.9294C35.4953 33.0163 34.978 31.5661 34.6595 30.6178C34.5548 30.5549 34.205 30.0642 33.7344 29.7301C33.5985 29.6336 32.6049 29.1053 32.5957 29.0945C32.0364 28.9434 31.736 28.6836 31.1744 28.8972C30.4829 29.1602 30.3004 28.821 29.7033 28.786C28.6804 29.2235 27.1679 29.5528 26.5646 30.9622C26.2764 31.6354 26.4684 31.8991 26.377 32.5013Z" fill="#24282B"/>
<path fill-rule="evenodd" clip-rule="evenodd" d="M24.4225 27.5915C24.6475 27.6055 24.5704 27.6526 24.8232 27.7144L25.513 26.622C25.75 26.222 25.9211 25.8617 26.0947 25.419C26.3607 24.7407 26.7726 23.2243 26.6746 22.4391L23.4264 22.4472L22.7675 22.4484C22.6685 23.1492 22.68 23.924 22.5781 24.6556C22.4832 25.3361 22.282 25.9956 22.1978 26.6111C22.5701 26.8211 23.6469 27.087 24.2049 27.4206L24.3804 27.5516C24.388 27.5383 24.4095 27.5772 24.4225 27.5915Z" fill="#24282B"/>
<path fill-rule="evenodd" clip-rule="evenodd" d="M8.50149 23.5681C8.61458 23.955 8.71091 24.5395 8.85918 25.0025C8.97112 25.3517 9.35413 26.0666 9.36219 26.3176C9.58571 26.542 9.94067 27.3269 10.3445 27.7072C10.945 27.4715 11.3357 27.1704 12.2418 26.8561C12.9402 26.6139 12.8128 26.7792 12.9138 26.474C12.455 25.5576 12.522 23.5253 12.3343 22.4482L8.40186 22.4433L8.50149 23.5681Z" fill="#24282B"/>
<path fill-rule="evenodd" clip-rule="evenodd" d="M8.41016 21.6722C8.45699 21.7923 8.32059 21.829 8.82446 21.8458C8.95791 21.8501 9.16503 21.8347 9.31143 21.8342L12.3675 21.8395L12.4659 20.0258L12.7999 18.1046L10.2992 16.9744C10.2092 16.8979 10.25 16.9331 10.1809 16.8512C9.77696 17.061 9.20409 18.3571 8.97705 18.9411C8.64037 19.8068 8.49699 20.6702 8.41016 21.6722Z" fill="#24282B"/>
<path fill-rule="evenodd" clip-rule="evenodd" d="M24.8257 16.9153L24.2185 17.3074C23.5292 17.6606 22.6056 17.9295 22.3086 18.1045C22.4881 19.4262 22.7223 20.4031 22.7482 21.8327L26.7241 21.845C26.5565 20.7184 26.5403 20.0754 26.1603 19.0278C25.8315 18.1214 25.4508 17.5498 25.0338 16.8723L24.8257 16.9153Z" fill="#24282B"/>
<path fill-rule="evenodd" clip-rule="evenodd" d="M20.0794 26.1658L21.5725 26.4643C21.8299 25.4813 22.2142 23.5025 22.1032 22.448L21.2201 22.4473L17.8793 22.4475C17.8288 22.9089 17.8058 25.6888 17.9044 26.0101L20.0794 26.1658Z" fill="#24282B"/>
<path fill-rule="evenodd" clip-rule="evenodd" d="M14.6614 26.2391L15.1639 26.2194C15.5598 25.9769 16.682 26.0463 17.2406 26.0005L17.2143 22.4474L13.0022 22.466C12.88 23.569 13.291 25.4062 13.5236 26.4697L14.6614 26.2391Z" fill="#24282B"/>
<path fill-rule="evenodd" clip-rule="evenodd" d="M17.2699 21.8341L17.236 18.7304C16.4418 18.6944 15.2527 18.657 14.5458 18.4659L13.4308 18.2536C13.1325 19.1183 13.0051 20.7952 12.9824 21.8317L17.2699 21.8341Z" fill="#24282B"/>
<path fill-rule="evenodd" clip-rule="evenodd" d="M18.13 18.7159L17.9017 18.74L17.8681 21.6712L17.8252 21.8153L22.1288 21.8281C22.0633 20.6094 22.0007 19.4038 21.6832 18.2628C21.2064 18.2994 20.5699 18.4815 20.0367 18.5556C19.3939 18.6451 18.782 18.6969 18.13 18.7159Z" fill="#24282B"/>
<path fill-rule="evenodd" clip-rule="evenodd" d="M16.3646 13.2842C15.9191 13.7664 15.6262 13.5498 14.6507 15.1193C14.3403 15.6187 13.6808 16.9909 13.6104 17.624L15.1397 17.9946L17.2698 18.1053L17.2423 13.0571C16.9094 13.0906 16.6321 13.2757 16.3646 13.2842Z" fill="#24282B"/>
<path fill-rule="evenodd" clip-rule="evenodd" d="M17.8267 18.0941C18.5796 18.1236 20.9092 17.9023 21.4934 17.6242C21.4287 16.7955 20.4456 14.8943 19.6801 14.094C19.4994 13.9051 19.5981 14.0658 19.4835 13.8276C19.253 13.7672 18.6809 13.0631 17.8634 13.0754C17.8623 14.1088 17.9977 17.3196 17.8267 18.0941Z" fill="#24282B"/>
<path fill-rule="evenodd" clip-rule="evenodd" d="M9.29878 34.1209C9.49115 34.1564 9.30159 34.0866 9.53439 34.2112L10.0362 34.5346C10.7607 34.9702 11.5522 35.3573 12.3482 35.6638C18.5176 38.0383 23.0041 35.4251 23.7291 35.3565C23.892 35.1824 26.2978 34.0006 26.6459 33.4747L26.0518 33.1409C25.7472 33.3823 25.3244 33.7305 24.9165 33.8892C24.9012 33.9121 24.9041 33.9184 24.8324 33.9783L24.0912 34.3983C23.8017 34.5498 23.5408 34.6817 23.2126 34.8268C19.802 36.3341 15.8085 36.394 12.3516 34.9724C11.5805 34.6552 9.3077 33.5011 9.09023 33.0378C8.80369 33.1514 8.75096 33.2609 8.47852 33.392C8.57528 33.5255 8.54118 33.4877 8.68722 33.6138C8.7757 33.6903 8.79074 33.6968 8.88246 33.762C9.11541 33.9275 9.17102 33.9066 9.29878 34.1209Z" fill="#24282B"/>
<path fill-rule="evenodd" clip-rule="evenodd" d="M6.86451 12.2629C6.78732 12.5012 6.5689 12.648 6.3915 12.8645C6.21193 13.0836 6.11949 13.1979 5.93676 13.4393C5.39692 14.1525 4.78089 15.1772 4.39529 16.0213C4.30083 16.2281 3.85271 17.3686 3.80969 17.4186C3.59049 18.3879 3.32208 19.1424 3.16661 20.2261C3.00719 21.3378 3.03662 22.3696 3.09208 23.4865L3.72243 23.2064C3.77595 19.6044 4.01566 17.5568 5.95611 14.556L6.2628 14.1555C6.34279 14.0003 6.37776 13.926 6.45999 13.8213C6.462 13.8186 6.5879 13.6811 6.5925 13.6766C6.67178 13.601 6.6353 13.6351 6.72329 13.5698L7.0781 13.1172C7.36284 12.6571 8.19397 11.8642 8.65159 11.5628C8.65677 11.5516 8.66993 11.5236 8.67281 11.5325L9.29358 11.0206C9.72875 10.6746 11.2621 9.66295 11.7332 9.62605C11.8546 9.49429 11.7942 9.54745 11.9853 9.45023C12.0639 9.41033 12.1473 9.3788 12.2285 9.34577C12.4053 9.27399 12.487 9.25385 12.65 9.15154L12.6757 8.50739C11.898 8.65218 10.0809 9.68207 9.50797 10.0657C8.26764 10.8962 7.02436 12.1575 6.86451 12.2629Z" fill="#24282B"/>
<path fill-rule="evenodd" clip-rule="evenodd" d="M23.0126 9.41777C23.7563 9.44291 25.923 11.0076 26.5035 11.481C29.9606 14.3005 31.7041 18.3555 31.4855 23.2494C31.6672 23.4177 31.9096 23.544 32.1422 23.5948C31.9702 22.6012 32.5846 20.5991 31.2495 17.0435C30.9236 16.1755 30.4534 15.2304 29.9996 14.5149L28.7908 12.8371C28.6897 12.7055 28.6657 12.6871 28.567 12.5764C28.5364 12.5423 28.5049 12.5087 28.4786 12.4709C28.3927 12.3475 28.4585 12.4862 28.422 12.3541L27.1215 11.1386C26.2479 10.3479 23.4516 8.58382 22.4805 8.49384L22.5131 9.14079C22.7379 9.24854 22.8618 9.26918 23.0126 9.41777Z" fill="#24282B"/>
<path fill-rule="evenodd" clip-rule="evenodd" d="M2.69734 25.9932C2.78346 26.3815 2.82993 26.751 2.96655 27.0946C3.10244 27.4361 3.41315 27.8192 3.47474 28.0198C3.88544 28.1677 4.03069 28.5079 4.61183 28.3241C4.97736 28.2085 5.23735 27.8981 5.42613 27.6111C5.84137 26.9799 6.01992 25.9672 5.95503 25.1021C5.81094 24.6383 5.66324 24.3283 5.30886 24.082C4.98139 23.8543 4.48198 23.655 3.99825 23.7819C2.9728 24.051 2.60893 24.7593 2.69734 25.9932Z" fill="#24282B"/>
<path fill-rule="evenodd" clip-rule="evenodd" d="M15.896 2.29676C15.9712 2.81403 15.9743 3.21331 16.078 3.74993C16.3449 4.4984 16.5548 5.0078 17.1184 5.32332C17.8552 5.73578 18.4704 5.05917 18.7204 4.61447C20.0585 2.26767 18.6159 0.259822 16.925 0.987591C16.6057 1.12501 16.4217 1.28055 16.2571 1.49469C16.0743 1.73255 16.0528 2.08189 15.896 2.29676Z" fill="#24282B"/>
<path fill-rule="evenodd" clip-rule="evenodd" d="M29.1316 26.6712C29.1432 26.686 29.1578 26.6915 29.1622 26.7183C29.1668 26.7449 29.1858 26.7545 29.1917 26.7657C29.3847 27.1357 29.1126 26.5754 29.2422 26.8631C29.349 27.1001 29.3533 27.254 29.5503 27.5825C29.7106 27.8495 29.9371 28.0736 30.2103 28.23C31.0874 28.7321 31.6103 27.7508 31.8655 27.572C31.9016 27.3197 32.1293 26.8705 32.2126 26.4967C32.3246 25.9944 32.2889 25.6272 32.3495 25.1394C32.0009 24.7045 32.2715 24.4414 31.5514 24.0158C30.5229 23.408 29.408 23.9435 29.1079 24.9213C28.9118 25.5603 29.1857 26.1088 29.1316 26.6712Z" fill="#24282B"/>
<path fill-rule="evenodd" clip-rule="evenodd" d="M15.184 26.7329C15.1674 26.7428 15.1442 26.7521 15.1311 26.7571L14.9686 26.8161C14.5384 26.9343 13.8947 26.894 13.6895 27.1819C14.0118 27.4987 14.3712 29.5974 16.1774 30.8163L16.4237 31.0232L17.2339 31.246L17.2415 26.6384L15.184 26.7329Z" fill="#24282B"/>
<path fill-rule="evenodd" clip-rule="evenodd" d="M18.6795 31.0272C18.8263 30.8468 18.9719 30.8109 19.1643 30.6607C20.1583 29.8846 21.1685 28.1676 21.3675 27.0913C20.8076 26.7926 18.5402 26.5812 17.8203 26.6556C17.9887 27.4463 17.8642 30.2129 17.8627 31.2077L18.6795 31.0272Z" fill="#24282B"/>
<path fill-rule="evenodd" clip-rule="evenodd" d="M24.4401 16.5264C24.4878 16.4585 24.4746 16.4878 24.5144 16.4331C24.5816 16.3409 24.5388 16.4123 24.61 16.2949L23.6505 15.3465C22.8584 14.6426 20.5901 13.1887 19.7568 13.3533C20.4106 13.6623 21.3852 15.4254 21.7127 16.2564C21.8602 16.6307 21.984 17.0982 22.1369 17.4619C23.2483 17.1842 23.975 16.6516 24.4401 16.5264Z" fill="#24282B"/>
<path fill-rule="evenodd" clip-rule="evenodd" d="M14.7552 13.4396C14.4798 13.5951 13.8585 13.7902 13.4968 13.9676C12.5404 14.4361 11.9682 14.8806 11.2364 15.5609C10.3414 16.3928 10.4973 16.279 10.6537 16.5158C11.4318 16.7886 12.0373 17.2611 13.0119 17.4684C13.1793 16.2772 14.0934 14.7021 14.9133 13.7342C15.064 13.5563 15.1756 13.4964 15.2961 13.3173L14.7552 13.4396Z" fill="#24282B"/>
<path fill-rule="evenodd" clip-rule="evenodd" d="M19.9892 30.9498C20.6269 30.5815 22.5225 30.298 24.1947 28.3902C24.3666 28.1941 24.3498 28.3247 24.2979 28.1294C23.9463 28.0189 23.538 27.7867 23.1664 27.6339C22.7744 27.4726 22.3842 27.3186 21.9895 27.241C21.571 28.4862 21.0157 29.673 20.1301 30.5961C19.8148 30.9246 19.9614 30.9435 19.9641 30.9148C19.9651 30.905 19.9764 30.9431 19.9892 30.9498Z" fill="#24282B"/>
<path fill-rule="evenodd" clip-rule="evenodd" d="M10.7642 28.294C11.3579 28.7457 11.6249 29.1868 12.6748 29.8497C13.8902 30.6171 14.6697 30.7014 15.0986 30.9397C15.3167 30.8346 15.2779 31.0179 15.1479 30.7559C15.1462 30.7527 14.982 30.5967 14.9696 30.5861C14.7567 30.4031 14.7476 30.3844 14.6029 30.1919C14.2101 29.6694 13.7838 28.9288 13.5237 28.3179C13.4028 28.0337 13.2409 27.5074 13.1005 27.2585C12.7771 27.2897 12.2041 27.5123 11.8766 27.6539L10.9032 28.1267C10.7387 28.2685 10.8599 28.1291 10.7642 28.294Z" fill="#24282B"/>
</svg>
