<svg width="36" height="21" viewBox="0 0 36 21" fill="none" xmlns="http://www.w3.org/2000/svg">
<path fill-rule="evenodd" clip-rule="evenodd" d="M28.4859 2.75786L29.4689 3.00277C29.7609 2.69582 30.2008 1.77513 30.3458 1.39228L31.3063 1.82912C31.1295 2.51126 30.5998 2.95052 30.5858 3.6474C32.0955 5.22371 31.7906 4.03426 33.1225 3.41412C33.4345 3.79175 33.5224 3.76238 33.732 4.20857C33.3917 4.60827 32.8044 5.04121 32.4503 5.29207C32.475 5.76896 32.8316 6.41303 33.1225 6.75594C33.746 6.75376 34.2994 6.4174 34.9348 6.31931L35.2043 7.34161L33.4812 7.90558C33.347 9.81183 33.8604 9.47904 35.4223 9.62845L35.3455 10.7208L33.4794 10.5815L33.0665 12.0553C33.4569 12.4557 34.1632 12.7386 34.6357 12.9946L34.1641 13.96C33.6901 13.7466 32.9056 13.2233 32.46 13.1968C32.2231 13.4413 31.7332 13.978 31.624 14.3099C31.77 14.6576 32.4329 15.4152 32.6853 15.6259C32.5097 16.0713 32.2362 16.2022 31.908 16.4061C30.9101 15.7847 31.1766 14.2801 29.3942 15.7689C29.3668 16.2933 29.6892 17.0531 29.8147 17.6076L29.1818 17.8091L29.1408 18.2375C29.6443 18.3385 30.2978 18.0753 30.397 17.9112C30.5052 17.4995 30.0598 16.5762 29.9946 15.9952L30.5764 15.7714C31.8093 16.857 31.3305 17.7068 32.6221 16.605C32.9292 16.343 33.1769 16.1674 33.3785 15.8811C33.2959 15.4376 33.1058 15.3342 32.8525 15.0349C32.3657 14.4595 32.3975 14.5931 32.3026 14.1413L32.6006 13.8792C33.268 13.9657 33.6583 14.5091 34.3369 14.6364C34.6942 14.329 35.2716 13.2862 35.3047 12.739L33.6995 11.8229L33.8853 11.1731C34.4946 11.1997 35.2415 11.4296 35.8141 11.2098C35.9513 10.6664 36.0614 9.7201 35.961 9.17999C35.6009 9.05318 35.3928 9.05035 35.0002 9.02022L34.3255 8.93156C34.1364 8.86559 34.2121 8.89827 34.0911 8.81026C34.0222 8.14031 34.0747 8.26623 34.7282 8.08892C35.1096 7.98536 35.4845 7.90408 35.7813 7.68793C35.8223 7.18788 35.4825 6.07692 35.2202 5.70096C34.5605 5.67411 34.043 6.05598 33.3451 6.12511L33.1016 5.55969C33.4738 5.1376 34.2596 4.67274 34.4506 4.20857C34.2997 3.87696 33.4771 2.80889 33.1225 2.67617C32.5643 2.86304 32.15 3.65575 31.5768 3.74517L31.2232 3.43555C31.4042 2.7803 31.9459 2.28826 31.9784 1.64776C31.7111 1.40301 30.577 0.768257 30.0989 0.723464L29.2697 2.32998L28.5854 2.17729C28.6617 0.471231 29.3621 -0.176405 26.5908 0.0402292C26.4821 0.565919 26.5554 1.53286 26.2773 1.96471L25.8358 2.00156C25.4736 1.5167 25.5469 0.865417 25.1499 0.209195C24.5363 0.224464 24.0178 0.325268 23.9692 0.841482C24.349 1.09295 24.3948 0.913288 24.8451 0.845572C24.992 1.41812 25.1565 2.13732 25.4124 2.59529C25.6816 2.60384 25.8285 2.58736 26.0926 2.56111C27.0499 2.46582 26.9371 2.45164 27.0571 0.609902L28.0801 0.684301L28.0056 2.52256L28.4859 2.75786Z" fill="#2B2A29"/>
<path fill-rule="evenodd" clip-rule="evenodd" d="M7.36482 0.115834C7.20682 0.726251 7.39195 1.4815 7.41263 2.1862L6.72945 2.32722L5.89827 0.723861C5.32716 0.777767 5.18274 1.02461 4.63813 1.20419L4.00857 1.58084C4.07973 2.45163 4.68952 2.74817 4.75729 3.52703C4.50936 3.64144 4.62012 3.54282 4.4167 3.74739C4.00431 3.66493 3.84822 3.40233 3.50002 3.11891C3.13484 2.82164 3.12249 2.63757 2.5815 2.73181C2.47744 3.08801 2.2039 3.36863 1.9008 3.63926C1.89239 3.64691 1.85574 3.69474 1.84972 3.67826C1.84374 3.66222 1.81705 3.70511 1.79865 3.71491L1.54411 4.20856C1.78677 4.74337 2.50796 5.11414 2.8972 5.56046L2.64935 6.13025C1.92988 6.0401 1.46232 5.70613 0.737146 5.67037C0.687625 5.79503 0.663123 5.90539 0.595515 6.04293L0.405557 6.34656C0.449541 6.94284 0.170541 7.04235 0.214484 7.68792C1.24232 8.42275 2.00868 7.68407 1.91127 8.81026C1.44303 9.13604 0.685115 8.92329 0.0381121 9.18703C-0.063759 9.73714 0.0529326 10.8453 0.218827 11.3184L2.12139 11.1746L2.28884 11.8286C1.81207 12.1158 1.05435 12.4312 0.700493 12.7599C0.719577 13.173 1.36527 14.3811 1.65654 14.6214C2.32198 14.5536 2.7674 13.943 3.40097 13.8722L3.64611 14.1976C3.52085 14.958 2.76246 15.092 2.62485 15.8811C2.80652 16.1438 3.8367 17.0298 4.19594 17.13C4.60717 16.8989 4.97657 16.1857 5.41664 15.769L5.98783 15.9925C5.95022 16.6762 5.51226 17.3976 5.59305 17.9407C6.14468 18.2997 6.51766 18.3939 6.86758 18.1259C6.78802 17.626 6.67523 17.768 6.19329 17.6025C6.31504 16.9164 6.5828 16.4112 6.65503 15.7031C6.27751 15.5551 5.97066 15.4524 5.79915 15.2285C4.92721 14.8999 5.0327 15.5654 4.08551 16.4123C3.7734 16.1946 3.6097 16.1205 3.32444 15.7689C3.84455 14.4478 5.1941 14.8371 3.53344 13.1904C3.06269 13.2369 2.32971 13.7387 1.87733 13.9295C1.63538 13.6821 1.46299 13.319 1.38507 12.9594L2.87947 12.186C2.91206 11.6888 2.66927 11.036 2.51828 10.5809L0.654996 10.7146L0.580495 9.63707C2.2445 9.40524 2.55859 9.92952 2.5313 7.9014L0.786906 7.38482L1.11419 6.32214L2.87102 6.7595C3.12337 6.47312 3.51392 5.72039 3.5593 5.28303C3.22086 5.06198 2.50999 4.51722 2.24509 4.20905C2.4517 3.87529 2.51393 3.73779 2.87102 3.41594C3.50775 3.67364 3.73583 4.27422 4.4167 4.46262C4.68813 4.31613 4.79366 4.16543 5.06191 3.96868C5.39075 3.72734 5.44433 3.7271 5.39401 3.19906C5.17928 3.08181 4.80721 2.21945 4.67534 1.87831L5.62341 1.39973L6.51448 2.97129C6.94276 2.95035 7.62354 2.76757 7.98673 2.52356L7.96418 1.41625C7.80318 1.11809 7.78828 1.05831 7.88717 0.656469L8.47919 0.597461L8.93122 0.600863L9.15611 2.46439L10.5688 2.59488C10.8111 2.20588 11.0126 1.38555 11.1594 0.837464C11.6013 0.932153 11.6599 1.08864 12.0313 0.841473C11.9899 0.288931 11.3615 0.195538 10.8629 0.21676C10.53 0.675099 10.5378 1.3007 10.2567 1.85345L9.71623 1.96247C9.43691 1.50733 9.61113 0.662706 9.38507 0.0848518C8.90899 -0.0347043 8.66445 0.0477538 8.17111 0.0846088L7.36482 0.115834Z" fill="#2B2A29"/>
<path fill-rule="evenodd" clip-rule="evenodd" d="M16.1201 17.0906C17.267 17.7932 16.5602 18.3493 16.0445 18.7247C15.6659 19.0004 14.8882 19.8531 14.2625 19.715C13.9652 19.6494 13.1059 19.0604 14.3585 18.1359C15.0161 17.6507 15.5429 17.0811 16.1201 17.0906ZM15.0169 15.0824C15.5961 14.7179 16.1837 15.1097 16.1205 15.7592C16.0729 16.2477 15.4849 16.5556 15.1495 16.8046L12.9276 18.4832C12.3068 18.8048 11.7485 18.4218 11.8047 17.7982C11.8469 17.3291 12.421 16.9979 12.7655 16.7376C13.4913 16.1892 14.2281 15.5787 15.0169 15.0824ZM10.6799 16.7183C10.4509 15.9037 10.6199 15.7464 11.1635 15.3332L13.4441 13.6072C14.5174 12.7657 15.6446 13.8396 14.3191 14.8339C13.9356 15.1215 13.5877 15.4144 13.1858 15.7036C11.5942 16.8486 11.6421 17.1993 10.6799 16.7183ZM11.9963 12.1285C12.4247 11.9179 12.7597 12.2395 12.9155 12.5237C13.2006 13.0436 12.9871 13.2539 12.6692 13.4948C12.3592 13.7298 11.309 14.562 11.0524 14.6633C10.1931 15.0023 9.61634 13.9118 10.3944 13.3159C10.7608 13.0352 11.6469 12.3004 11.9963 12.1285ZM10.0233 16.5539C10.3065 17.1291 10.4976 17.3601 11.2096 17.5089C11.3474 18.7427 11.681 19.4663 13.1116 19.0638C13.5588 20.404 13.8422 20.2818 15.1739 20.2104C15.8561 19.0235 18.7395 18.7226 16.4361 16.5545C16.8704 15.4346 16.6956 14.5922 15.4937 14.3676C15.3142 13.2157 15.0944 12.4863 13.6911 12.7705L13.561 12.5403C13.2831 12.0465 12.9952 11.5295 12.3589 11.4943C11.8175 11.4644 9.61969 12.863 9.49603 13.7642C9.36945 14.6864 9.85259 14.8757 10.342 15.2815C10.0447 15.7315 9.97709 15.8358 10.0233 16.5539Z" fill="#2B2A29"/>
<path fill-rule="evenodd" clip-rule="evenodd" d="M24.45 16.0224C26.0323 17.1099 24.2241 18.6371 23.3912 16.8372L21.7024 14.918C21.111 14.1758 20.8576 14.4272 21.0001 14.9358C21.0414 15.0832 21.1068 15.108 21.1945 15.2062C21.41 15.4472 21.4027 15.426 21.6023 15.694C21.8465 16.0217 22.1574 16.3758 22.4159 16.666C23.9226 18.3577 22.5564 18.6373 22.1456 18.5129C21.7437 18.3913 20.0543 16.1383 19.6513 15.6567C19.2524 15.1797 19.2372 14.9529 18.6727 14.9838C18.6696 16.1584 21.4796 17.668 20.7062 18.7424C20.0581 19.6426 19.2524 18.416 18.9565 18.0467L17.6485 16.4368L17.2245 16.441C17.1975 16.9879 17.2518 16.8978 17.9456 17.7306C18.2914 18.1457 18.5944 18.4594 18.9161 18.8749C20.215 20.5526 21.1468 18.9888 21.444 18.6964C21.7408 19.0274 22.2375 19.2286 22.7788 19.0699C23.3474 18.9031 23.4253 18.4952 23.738 18.1127C24.9322 18.4786 25.0777 18.0039 25.6149 17.3652C26.1838 17.8077 26.2402 17.7919 27.1807 17.838C27.5079 17.4572 27.8347 17.4149 27.9395 16.7657C28.0385 16.152 27.7388 15.7508 27.4882 15.437C27.1146 14.9692 26.103 13.9181 25.9457 13.4589C25.8522 13.4069 25.9132 13.4519 25.783 13.34L22.9034 9.88449C22.4181 9.32118 22.2632 8.83347 21.7507 8.83331C21.504 9.2614 21.633 9.23572 21.8538 9.48488L24.6757 12.908C25.2454 13.5772 25.7218 14.2313 26.3275 14.9314C26.8857 15.5766 27.9867 16.5827 27.0634 17.1416C26.3704 17.5253 26.0208 16.8918 25.7296 16.552L23.8503 14.31C23.6487 14.0585 23.2648 13.3044 22.8837 13.5367C22.7769 13.6765 22.6842 13.4617 22.828 13.8865C22.9739 14.3177 24.3144 15.4888 24.45 16.0224Z" fill="#2B2A29"/>
<path fill-rule="evenodd" clip-rule="evenodd" d="M20.8679 8.02457C20.7269 7.34405 19.5015 7.60722 19.217 7.69786C17.5805 8.2195 17.7437 11.4315 15.7512 10.7527C15.3712 9.53498 17.1265 5.94947 19.3242 5.33569C21.8319 4.63525 24.6391 6.1054 25.1009 6.20867C25.4948 6.29672 26.5188 5.99293 26.5549 5.47979C26.0623 5.11003 25.8637 5.66038 25.2886 5.63272C25.0933 5.62328 24.4027 5.25299 24.0389 5.13668C23.0792 4.82973 22.0392 4.68279 20.9803 4.6529C17.5374 4.55554 16.0466 6.94055 15.2028 9.6728C14.7894 11.0114 15.7245 11.8374 16.9357 11.3244C17.5606 11.0598 18.0916 9.91851 18.4513 9.27489C19.4852 7.42444 20.0265 8.72611 20.8679 8.02457Z" fill="#2B2A29"/>
<path fill-rule="evenodd" clip-rule="evenodd" d="M28.7024 13.4813C28.2585 13.9503 27.8442 13.6303 28.0079 14.2329C28.9047 14.6446 30.6058 12.9026 30.9405 12.4282C33.3069 9.07524 31.2446 4.00237 26.278 4.19232C25.7447 4.28057 25.3952 4.24614 25.125 4.6575C25.3449 5.09279 25.3563 4.97972 25.8017 4.86976C26.1641 4.78038 26.4264 4.73587 26.8293 4.73797C30.0711 4.7547 32.2951 8.13301 30.9671 11.2237C30.6046 12.0676 29.5939 13.3799 28.7024 13.4813Z" fill="#2B2A29"/>
<path fill-rule="evenodd" clip-rule="evenodd" d="M6.71221 4.71885C6.3929 5.17625 5.90836 5.17848 5.05674 6.31337C3.69357 8.13 3.80704 10.6935 5.14841 12.5554C5.45765 12.9843 5.68749 12.9499 5.93003 13.481C6.26585 13.573 7.45009 14.5375 7.7563 14.0917C8.13024 13.547 6.59859 13.7602 5.4192 11.9433C3.41377 8.85374 5.5139 5.13409 8.61565 4.77069C9.64731 4.64983 9.79894 4.83545 10.2935 4.88591C10.8141 4.93908 10.4903 5.04596 10.8503 4.76979C10.7646 4.31474 10.6356 4.33592 10.1179 4.25281C8.1663 3.93954 7.62029 4.62906 6.71221 4.71885Z" fill="#2B2A29"/>
<path fill-rule="evenodd" clip-rule="evenodd" d="M9.16994 5.55544C9.16798 6.08218 9.36961 6.08988 10.4831 6.23316C11.6452 6.38269 14.1499 6.39115 15.3549 6.30096C15.7873 6.26852 15.9057 6.23964 15.8843 5.78795C15.3545 5.62797 13.2736 5.80212 12.4762 5.7922C11.2894 5.77738 9.41993 5.41154 9.16994 5.55544Z" fill="#2B2A29"/>
<path fill-rule="evenodd" clip-rule="evenodd" d="M8.83334 13.8535C9.23732 12.9886 7.33623 11.8784 6.5768 12.3683C5.88533 12.8143 7.42515 12.8883 7.61889 12.9606C8.41486 13.2578 8.16076 13.8865 8.83334 13.8535Z" fill="#2B2A29"/>
<path fill-rule="evenodd" clip-rule="evenodd" d="M26.5454 13.4459C26.7838 13.6902 26.5434 13.4939 26.8292 13.6464C27.1533 13.4808 27.0793 13.4463 27.3091 13.1359L28.4282 12.9453C28.7551 12.6741 28.6955 12.8991 28.6758 12.4072C28.3487 12.3317 27.4209 12.5231 26.9897 12.5735C26.7689 12.8333 26.5826 13.1031 26.5454 13.4459Z" fill="#2B2A29"/>
</svg>
