<svg width="19" height="28" viewBox="0 0 19 28" fill="none" xmlns="http://www.w3.org/2000/svg">
<path fill-rule="evenodd" clip-rule="evenodd" d="M6.40084 24.6001C6.24284 24.5233 6.31381 23.7154 6.35672 23.519C6.65747 23.4135 7.51188 23.4827 7.87693 23.4897L9.44972 23.5494L12.6524 23.5588C12.9157 25.4749 12.1365 25.0692 10.0904 25.0692L6.98857 25.0714C6.56847 25.0697 6.41692 25.0295 6.40084 24.6001ZM6.39478 22.7854C6.34951 22.0275 6.33409 22.0114 6.3869 21.294C6.80099 21.0757 8.9158 21.1914 9.53698 21.1916C10.2597 21.1917 12.1664 21.0624 12.6368 21.3257C12.8358 23.2002 12.5891 22.7886 11.695 22.7885L6.39478 22.7854ZM18.274 10.705C18.2022 12.0652 17.4617 13.8442 16.7293 14.9313C15.8471 16.2405 15.8202 16.0356 14.8964 16.9637C13.9785 17.8859 13.123 19.139 12.6647 20.4583L6.35126 20.4613C6.15466 20.0071 6.01874 19.6751 5.81225 19.2595C4.6783 16.9777 3.17144 16.6656 1.93783 14.4422C1.67579 13.9699 0.983317 12.5471 0.988456 11.9633C0.903496 11.8859 0.953193 12.0727 0.880097 11.7749C0.858775 11.6882 0.86457 11.6332 0.85708 11.5521C0.460328 8.85683 0.808094 6.33733 2.52172 4.23067L3.64927 3.00746C5.07921 1.85319 6.30457 1.09428 8.36225 0.810191C10.3155 0.540495 12.3048 0.933335 13.9574 1.95981C14.2009 2.11113 14.4403 2.26104 14.6599 2.43005C15.7601 3.27677 16.6619 4.24669 17.3253 5.53424C17.7939 6.44396 18.3643 7.92079 18.3183 9.20263L18.3575 9.27812C18.4143 9.47289 18.378 9.78038 18.3683 9.99749C18.3566 10.2603 18.4012 10.485 18.274 10.705ZM7.81608 0.145527C7.07795 0.225775 6.2763 0.554103 5.58706 0.855103C5.47208 0.905279 5.39795 0.940391 5.28642 0.996167C1.18221 3.04784 -0.968572 7.98737 0.422823 12.6408C0.915032 14.2871 1.69378 15.59 2.86113 16.7272L3.04373 16.9529C3.52369 17.2727 4.64851 18.4337 4.89169 19.0685C4.99157 19.1085 5.03279 19.2345 5.10294 19.3564C5.38931 19.8539 5.49893 20.0116 5.71351 20.6018C5.88004 21.06 5.70143 21.0852 5.65764 21.5652C5.62046 21.9733 5.67874 22.3859 5.65195 22.7942C5.26898 22.7981 5.24847 22.8192 4.99928 23.022C4.95593 23.5379 5.21671 23.5632 5.66157 23.5909C5.66573 24.1216 5.61139 24.7215 5.81383 25.1458C6.04624 25.6329 6.28844 25.651 6.8521 25.8439L6.92433 26.2107C6.93395 26.2058 6.98578 26.1931 6.9966 26.1982L7.10195 26.2671C7.1048 26.2857 7.1189 26.3597 7.11819 26.3912L7.1025 26.4938C7.1903 26.6895 7.25394 26.6028 7.39325 26.7631C7.39937 26.7701 7.40899 26.7837 7.41462 26.7914C7.43572 26.8203 7.76622 27.3944 7.98731 27.0603C7.95614 26.9684 7.88354 26.9409 7.82111 26.839L7.60051 26.4938C7.69908 26.2528 7.55305 26.4692 7.69066 26.3879C7.6789 26.1227 7.5911 26.1641 7.57306 25.8096C8.24006 25.7782 10.9517 25.7063 11.4527 25.8329C11.4077 26.5587 10.9002 26.7365 10.8647 26.9468C10.9921 26.9486 10.8682 26.9269 10.9201 27.117C10.6322 27.2683 10.7698 27.0754 10.6993 27.4004C10.8473 27.5133 10.6624 27.3952 10.7973 27.5259C10.8054 27.5338 10.8182 27.5454 10.8272 27.5535L10.9717 27.6646C11.1972 27.6272 11.2329 27.5085 11.4569 27.4174C11.5563 27.2161 11.7502 27.0381 11.8975 26.7551C12.0843 26.3961 12.0661 26.2312 12.1609 25.8371C12.7501 25.6643 12.9819 25.5541 13.2383 25.0388C13.3099 24.4944 13.2701 24.0795 13.3122 23.5596L13.6305 23.5437C13.8702 23.4953 14.1168 23.3843 14.0096 23.059C13.9201 22.7873 13.5836 22.8478 13.3455 22.7529C13.3365 22.2954 13.3803 21.8152 13.3221 21.3762C13.229 20.6744 13.2035 20.8094 13.4705 20.2029C13.9331 19.152 14.4513 18.3895 15.1877 17.6581L16.2838 16.5704C16.3943 16.4556 16.5452 16.3347 16.6482 16.2073C16.8235 15.9904 17.0897 15.5614 17.2788 15.4148C17.3605 15.1754 17.5628 14.9213 17.6985 14.6734C18.4276 13.3412 18.246 13.3674 18.6106 12.4861L18.648 12.408C18.6521 12.3996 18.6662 12.3914 18.6692 12.3711C18.6722 12.351 18.6826 12.3461 18.6912 12.335C18.6662 11.627 19.5072 9.72388 18.514 6.64612C18.0328 5.15518 17.3914 4.15378 16.4268 3.05697L16.1198 2.74768C16.0082 2.61832 16.0736 2.70797 16.0401 2.63075C15.8733 2.56349 15.4999 2.20302 15.3041 2.05126C13.2304 0.444007 11.3817 -0.0900093 8.6519 0.0123027L8.55628 0.0159987C8.54326 0.0232787 8.52746 0.0338067 8.51713 0.0376147L7.81608 0.145527Z" fill="#2B2A29"/>
<path fill-rule="evenodd" clip-rule="evenodd" d="M13.314 7.70303C13.3943 7.89298 13.4528 8.06131 13.5536 8.26527C13.7669 8.69675 14.4258 8.60463 15.3463 8.81939L15.3515 9.61856C14.1099 9.88955 13.7185 9.65838 13.4965 10.3221C13.4252 10.5353 13.354 10.7351 13.2642 10.9301C12.9746 11.5581 12.9465 11.6144 13.3271 12.181C13.5465 12.5074 13.837 12.8658 14.0068 13.1832L13.5395 13.7492C13.3324 13.6905 12.7269 13.2334 12.4627 13.0667C11.7834 12.6381 11.9616 12.6716 11.2366 12.9874C10.1107 13.4779 10.3263 12.9733 9.94428 15.1706C9.7696 15.1771 9.59668 15.1739 9.42195 15.1681C9.36815 15.1663 9.25684 15.1629 9.20785 15.1535C9.19167 15.1505 9.17543 15.1459 9.16155 15.1425C8.88578 15.0737 8.96145 14.3956 8.73729 13.6591C8.60296 13.2178 8.13333 13.1704 7.71777 12.9945C6.99939 12.6907 7.14 12.5992 6.48733 13.0538C6.1704 13.2744 5.81553 13.5318 5.49734 13.7257L4.96587 13.2296L5.00655 13.061L4.88955 13.0441C4.87807 13.0456 4.85265 13.057 4.83362 13.061C4.83007 13.0792 4.83297 13.0877 4.83423 13.1168L4.91946 13.4391C5.09884 13.7678 4.77086 13.2616 5.0077 13.5645C5.18872 13.7959 5.26744 13.8697 5.46437 13.9662L5.55868 14.0108C5.58006 14.024 5.59023 14.0324 5.61029 14.0461L5.71838 14.1373C5.29828 14.303 5.36711 14.2635 5.09725 13.9815C4.93941 13.8167 4.74746 13.7379 4.61226 13.5705L4.58148 13.4594C4.57874 13.4437 4.57311 13.4234 4.57011 13.4041L4.5016 12.8909C4.76135 12.902 4.51997 12.9365 4.50127 12.947C4.41358 12.4907 4.54867 12.9239 4.40992 12.7678C4.21736 12.9015 4.10545 13.0495 4.16761 13.3304C4.21064 13.5244 4.39958 13.6931 4.51549 13.7845C4.7415 13.9625 5.10507 14.4481 5.35508 14.5188C5.68229 14.6115 6.46098 13.9624 6.83625 13.6938C7.02257 13.5604 7.03411 13.4939 7.28707 13.603C8.18063 13.9884 8.07073 13.7747 8.1546 14.2939C8.20922 14.632 8.30478 15.3593 8.40358 15.6313C8.49652 15.8872 8.60225 15.9011 8.92487 15.9101C9.97069 15.939 10.5169 16.0307 10.6512 15.3224C10.698 15.0753 10.8136 14.115 10.8834 13.9815C10.9571 13.8406 11.8158 13.5374 11.9126 13.5786C12.4617 13.8121 13.1963 14.9021 13.847 14.3591C15.1425 13.2778 14.9492 13.2542 14.4722 12.5969C13.492 11.2459 13.8645 11.6729 14.1803 10.5782C16.0158 10.2001 16.0942 10.6184 16.0554 9.20427C16.0385 8.58643 16.151 8.21828 15.5566 8.09094C13.7575 7.7056 14.4847 8.3183 13.8799 7.19287C13.694 6.84684 13.7566 6.83077 13.9613 6.54259C13.9023 6.32851 14.0305 6.50586 13.7978 6.3728C13.729 6.82383 13.8858 6.23213 13.7169 6.51717L13.6261 6.68114C13.5428 6.87787 13.6367 6.84483 13.5211 6.93963C13.5633 7.13407 13.5415 7.01283 13.5928 7.11643L13.8543 7.5922C13.9052 7.70398 13.8859 7.65957 13.9636 7.78955L13.879 7.81055C13.8774 7.81133 13.8684 7.81514 13.8668 7.81626L13.6892 7.97401C13.678 7.95917 13.6523 8.00425 13.6318 8.01595C13.593 7.82029 13.5346 7.67419 13.4652 7.50641C13.2642 7.62121 13.2845 7.33247 13.314 7.70303Z" fill="#2B2A29"/>
<path fill-rule="evenodd" clip-rule="evenodd" d="M9.02004 7.1157C9.15726 7.02128 9.5375 6.92771 9.77358 7.0625C10.7691 7.11626 11.69 8.23301 11.6611 9.32087C11.6314 10.4374 10.6605 11.348 9.59513 11.4374C8.41799 11.5362 7.48857 10.5794 7.3362 9.53047C7.17087 8.3925 8.05164 7.28 9.02004 7.1157ZM6.68829 9.82996C6.9693 11.2416 8.3233 12.4848 10.056 12.1261C11.4266 11.8425 12.6844 10.49 12.3089 8.68437C12.0186 7.28863 10.7004 6.04386 8.98045 6.36681C7.56068 6.63343 6.32811 8.02043 6.68829 9.82996Z" fill="#2B2A29"/>
<path fill-rule="evenodd" clip-rule="evenodd" d="M6.85244 4.63001C6.48969 4.60033 6.77202 4.5791 6.65989 4.78524C6.98617 4.86784 6.95746 5.08585 7.26505 5.09867C7.51774 5.10925 7.42578 4.97642 7.82133 4.89914C7.96807 5.0784 7.90449 4.82645 8.04292 5.06916C8.00875 5.14885 8.05259 5.13944 7.65589 5.2959C7.8169 5.59181 7.58941 5.34977 7.84828 5.45102C8.1106 5.33516 8.55071 5.2651 8.68629 5.04485C8.80373 4.85401 8.82784 4.25867 8.91837 4.08249L9.06249 3.38345L9.90799 3.39319C10.0388 3.74325 10.0792 4.28841 10.182 4.68808C10.3821 5.46631 10.6879 5.06339 11.0023 5.44122C11.3842 5.43613 11.5113 5.76065 11.9567 5.63022C12.2026 5.55821 12.5312 5.26997 12.6384 5.1064C12.4976 4.98264 12.8668 5.08165 12.5199 5.06098C12.2111 5.04261 12.1202 5.57394 11.6041 5.42302C11.4388 5.37469 11.328 5.34233 11.2526 5.23895C11.3056 5.12219 11.2377 4.92809 11.474 5.12527L11.2799 4.99569C11.0797 4.87943 11.349 4.92507 11.0313 4.89886C11.4797 4.89785 11.4394 5.19824 11.8894 5.00694L12.2085 4.81833C12.4113 4.69401 12.3963 4.71216 12.4141 4.44274C12.1139 4.54729 11.8014 4.91449 11.5745 4.84986C10.5347 4.55368 10.9135 4.44733 10.581 3.15872C10.4598 2.68871 10.222 2.66642 9.70357 2.66183C8.34137 2.64985 8.49002 2.57324 8.22607 3.85009C8.09688 4.47528 8.28232 4.48009 7.73987 4.69799C7.25264 4.89371 7.3066 5 6.85244 4.63001Z" fill="#2B2A29"/>
<path fill-rule="evenodd" clip-rule="evenodd" d="M12.4141 4.44275C12.3962 4.71217 12.4113 4.69402 12.2084 4.81834L11.8893 5.00695C11.4393 5.19825 11.4797 4.89786 11.0312 4.89887C11.3489 4.92508 11.0796 4.87944 11.2798 4.9957L11.4739 5.12528C11.2376 4.9281 11.3055 5.1222 11.2526 5.23896C11.328 5.34234 11.4388 5.3747 11.604 5.42303C12.1201 5.57395 12.211 5.04262 12.5198 5.06099C12.8667 5.08166 12.4975 4.98265 12.6383 5.10641C12.9139 5.04475 13.1099 4.80378 13.355 4.66121C13.4913 4.73899 13.8547 5.09907 13.9321 5.23896C12.8599 7.02228 12.8235 6.63347 13.3141 7.70302C13.2847 7.33246 13.2643 7.6212 13.4654 7.5064C13.5348 7.67418 13.5931 7.82028 13.6319 8.01594C13.6525 8.00424 13.6781 7.95916 13.6893 7.974L13.8669 7.81625C13.8685 7.81513 13.8775 7.81132 13.8792 7.81054L13.9637 7.78954C13.886 7.65956 13.9054 7.70397 13.8544 7.59219L13.5929 7.11642C13.5416 7.01282 13.5635 7.13406 13.5213 6.93962C13.6368 6.84482 13.543 6.87786 13.6262 6.68113L13.7171 6.51716C13.886 6.23212 13.7292 6.82382 13.798 6.37279C14.0306 6.50585 13.9024 6.3285 13.9615 6.54258C14.8538 5.15429 15.0423 5.2874 14.3313 4.52132C13.3992 3.5169 13.3366 3.78318 12.6209 4.26154L12.4141 4.44275Z" fill="#2B2A29"/>
<path fill-rule="evenodd" clip-rule="evenodd" d="M4.56233 12.5502L4.69038 12.5978C4.71443 12.6022 4.74893 12.603 4.77807 12.607C4.82591 12.3659 5.11151 12.044 5.28395 11.759L5.40324 11.4774C5.41051 11.4564 5.4168 11.437 5.42265 11.4196C5.42866 11.4019 5.43435 11.3797 5.44211 11.3606L5.43025 11.7449C5.42965 11.7525 5.42954 11.7649 5.44238 11.8043C5.47327 11.8993 5.44009 11.8517 5.49744 11.9273C5.4917 11.9201 5.4894 11.8944 5.48935 11.9007L5.52521 11.6773C5.59678 11.386 5.34977 11.5155 5.66402 11.4172C5.69606 11.4362 5.73083 11.2001 5.70902 11.6775C5.69683 11.9441 5.66949 11.8998 5.75177 11.9752C6.12119 11.7266 5.85964 11.2678 5.71837 10.9117C5.63849 10.7102 5.58453 10.5681 5.51608 10.3816C5.40903 10.0899 5.42576 10.0134 5.16596 9.94399L4.99998 9.94354L5.14273 10.1406C5.37869 10.4318 5.12791 9.97132 5.22129 10.2267L4.94433 10.4531C4.72034 10.2019 4.82875 10.5262 4.1699 10.17C4.236 10.1126 4.35272 9.98415 4.39105 10.1131C4.09642 10.0918 3.88774 10.0563 3.50591 10.0563C3.61509 9.2781 3.6714 10.2227 3.6714 8.63992C3.38345 8.76161 3.61066 8.59484 3.45015 8.8413C3.31232 9.05287 3.5093 8.90967 3.46289 9.31735C3.39395 9.92338 3.53155 9.45595 3.2846 9.65962C3.2846 9.26292 3.2623 9.06244 3.22927 8.75276L3.25437 8.82556C3.27099 8.93291 3.31374 9.06283 3.11862 9.09285C3.16093 8.9874 3.11922 9.21487 3.16247 8.92586L3.17335 8.41267C3.37525 8.2729 3.72947 8.1833 3.99052 8.2631C4.35726 8.37521 4.11818 8.26338 4.28006 8.46934L3.89354 8.45411C3.87905 8.45126 3.86374 8.44554 3.85188 8.44246C3.83668 8.43854 3.79759 8.42326 3.78233 8.41267C3.98041 8.4251 3.81956 8.41413 3.94804 8.4699C3.9399 8.48357 3.92005 8.47903 3.91256 8.50132L3.83176 8.5697C3.81355 8.58493 3.80387 8.59126 3.78354 8.60845L3.61662 8.75276L3.94864 8.76497C4.26246 8.72403 4.61241 8.66406 4.90611 8.60229C5.31773 8.51577 5.41106 8.4601 5.50624 8.07314L5.332 8.01653C5.27728 8.16202 5.298 8.29541 5.10276 8.36328C5.00162 8.39845 4.96466 8.39626 4.86959 8.3733C4.60716 8.30997 4.74122 8.35208 4.61263 8.24294L5.05531 8.07314C4.97789 8.11526 5.08631 8.13642 4.98872 8.08003C4.79808 7.97005 5.02765 8.13967 4.88927 7.95952C4.95974 7.88773 5.09402 7.67078 5.16542 7.61915C5.12201 7.28438 5.21418 7.48906 5.0722 7.38849C5.0289 7.43642 5.03721 7.42186 4.99435 7.49814C4.86571 7.72662 4.95231 7.69867 4.803 7.82366C4.47388 8.09874 3.38531 7.92155 3.07975 8.26147C2.86839 8.49656 2.90835 10.072 3.09112 10.2546C3.40964 10.4935 4.3759 10.4473 4.83367 10.6173C4.93323 10.8254 5.1968 11.4679 5.12157 11.6513C5.05668 11.8093 4.7269 12.1637 4.56233 12.5502Z" fill="#2B2A29"/>
<path fill-rule="evenodd" clip-rule="evenodd" d="M6.92432 26.2105C7.02027 26.6604 7.19292 26.9262 7.40308 27.2062C7.64057 27.5227 7.85401 27.5513 8.15388 27.817C8.78671 28.002 8.91163 28.0018 9.64877 27.9996C10.1267 27.9982 10.7192 27.979 10.9717 27.6644L10.8272 27.5533C10.8181 27.5453 10.8054 27.5337 10.7973 27.5257C10.6624 27.3951 10.8473 27.5132 10.6993 27.4002C10.7698 27.0753 10.6322 27.2681 10.9201 27.1168C10.8682 26.9268 10.9921 26.9485 10.8647 26.9467C10.2975 27.212 9.81946 27.5129 9.02912 27.3514C8.6953 27.2833 8.44905 27.1417 8.22638 26.9846C7.89058 26.7476 7.95597 26.6058 7.69065 26.3878C7.55304 26.469 7.69907 26.2526 7.6005 26.4937L7.8211 26.8389C7.88353 26.9408 7.95613 26.9683 7.9873 27.0602C7.76621 27.3942 7.43572 26.8201 7.41461 26.7912C7.40898 26.7836 7.39936 26.77 7.39324 26.763C7.25393 26.6027 7.19029 26.6893 7.10249 26.4937L7.11818 26.391C7.11889 26.3595 7.10479 26.2856 7.10194 26.2669L6.99659 26.1981C6.98577 26.193 6.93394 26.2056 6.92432 26.2105Z" fill="#2B2A29"/>
<path fill-rule="evenodd" clip-rule="evenodd" d="M4.32887 5.01195C4.23527 5.03883 4.30935 4.92801 4.23811 5.09897C4.15266 5.3041 4.2473 5.4632 4.35926 5.61098C5.67166 7.34228 5.06125 6.84169 5.07186 7.38853C5.21384 7.48911 5.12166 7.28443 5.16507 7.6192C5.09367 7.67083 4.9594 7.88777 4.88892 7.95957C5.0273 8.13972 4.79773 7.97009 4.98837 8.08008C5.08596 8.13647 4.97755 8.1153 5.05496 8.07319L4.61229 8.24298C4.74087 8.35213 4.60682 8.31001 4.86924 8.37335C4.96432 8.39631 5.00127 8.39849 5.10242 8.36333C5.29765 8.29545 5.27693 8.16206 5.33166 8.01657L5.50589 8.07319C5.63164 7.94081 5.70042 7.63689 5.78237 7.45484C5.88389 7.22955 6.01866 7.03512 5.9466 6.72561C5.9074 6.55682 5.36375 5.71257 5.22177 5.61417L5.05496 5.69213L4.92774 5.47972C4.59884 5.13689 4.8015 5.29704 4.76017 4.96844C4.7582 4.95248 4.73951 4.91048 4.73759 4.88253C4.73612 4.8612 4.73032 4.85409 4.72239 4.84221C4.59873 4.84557 4.83666 4.74265 4.654 4.88752C4.55559 4.96558 4.59714 4.99213 4.41142 5.02321L4.32887 5.01195Z" fill="#2B2A29"/>
<path fill-rule="evenodd" clip-rule="evenodd" d="M5.4977 4.69853C5.75777 4.7365 5.88817 4.8877 6.09329 5.02647C6.26053 5.13959 6.45035 5.26363 6.6247 5.3889C7.29175 5.86787 7.1776 5.71818 7.84815 5.451C7.58928 5.34975 7.81676 5.59179 7.65576 5.29588C8.05245 5.13942 8.00861 5.14883 8.04278 5.06914C7.90435 4.82643 7.96793 5.07838 7.82119 4.89912C7.42564 4.9764 7.5176 5.10923 7.26491 5.09865C6.95733 5.08583 6.98603 4.86782 6.65975 4.78522C6.77188 4.57908 6.48955 4.60031 6.8523 4.62999C6.71715 4.5489 6.6036 4.46988 6.46216 4.36303C6.43215 4.34035 6.32975 4.25529 6.27065 4.21732C6.077 4.09306 6.19843 4.14822 6.04786 4.12649L5.94016 4.16043C5.83913 4.16519 5.81966 4.10504 5.38677 4.10504C5.3596 4.1504 5.30646 4.20377 5.26518 4.25372C5.08799 4.46815 5.15092 4.21531 5.11035 4.61515C5.46173 4.61515 5.40684 4.58216 5.71846 4.50236C5.53849 4.71135 5.902 4.62461 5.4977 4.69853Z" fill="#2B2A29"/>
<path fill-rule="evenodd" clip-rule="evenodd" d="M5.166 9.94404C4.84989 9.76612 4.11794 9.76747 3.68686 9.63856L3.68784 8.81435L3.94868 8.76501L3.61666 8.7528L3.78357 8.60849C3.80391 8.5913 3.81358 8.58497 3.83179 8.56974L3.91259 8.50136C3.92008 8.47908 3.93993 8.48361 3.94808 8.46995C3.8196 8.41417 3.98044 8.42515 3.78237 8.41272C3.79762 8.4233 3.83671 8.43859 3.85191 8.44251C3.86377 8.44559 3.87908 8.4513 3.89357 8.45416L4.2801 8.46939C4.11821 8.26342 4.35729 8.37525 3.99056 8.26314C3.7295 8.18334 3.37528 8.27294 3.17338 8.41272L3.1625 8.9259C3.11925 9.21492 3.16097 8.98744 3.11865 9.09289C3.31378 9.06288 3.27102 8.93296 3.2544 8.8256L3.22931 8.7528C3.26233 9.06248 3.28464 9.26296 3.28464 9.65967C3.53159 9.456 3.39398 9.92343 3.46292 9.3174C3.50934 8.90972 3.31235 9.05291 3.45018 8.84134C3.6107 8.59488 3.38348 8.76165 3.67144 8.63996C3.67144 10.2227 3.61513 9.27814 3.50595 10.0564C3.88777 10.0564 4.09646 10.0918 4.39108 10.1131C4.35276 9.98419 4.23603 10.1126 4.16993 10.1701C4.82878 10.5262 4.72037 10.202 4.94436 10.4532L5.22133 10.2267C5.12795 9.97136 5.37873 10.4318 5.14276 10.1407L5.00001 9.94359L5.166 9.94404Z" fill="#2B2A29"/>
<path fill-rule="evenodd" clip-rule="evenodd" d="M4.5622 12.5503C4.51278 12.5799 4.51092 12.578 4.47057 12.6338C4.39343 12.7405 4.43547 12.6672 4.41016 12.7678C4.54891 12.9238 4.41382 12.4907 4.50151 12.947C4.52021 12.9365 4.76159 12.9019 4.50184 12.8909L4.57034 13.4041C4.57335 13.4234 4.57898 13.4437 4.58172 13.4594L4.6125 13.5705C4.7477 13.7379 4.93965 13.8166 5.09749 13.9815C5.36735 14.2635 5.29852 14.303 5.71861 14.1373L5.61053 14.0461C5.59046 14.0324 5.58029 14.024 5.55892 14.0107L5.46461 13.9662C5.26768 13.8697 5.18895 13.7959 5.00794 13.5645C4.7711 13.2616 5.09907 13.7678 4.9197 13.439L4.83446 13.1168C4.83321 13.0876 4.83031 13.0792 4.83386 13.061C4.85289 13.0569 4.87831 13.0456 4.88979 13.0441L5.00679 13.061L5.75164 11.9753C5.66936 11.8999 5.69669 11.9442 5.70888 11.6775C5.7307 11.2002 5.69593 11.4362 5.66389 11.4173C5.34963 11.5155 5.59664 11.3861 5.52508 11.6773L5.48921 11.9008C5.48927 11.8944 5.49156 11.9201 5.4973 11.9274C5.43995 11.8517 5.47314 11.8994 5.44225 11.8043C5.4294 11.7649 5.42951 11.7525 5.43011 11.7449L5.44198 11.3606C5.43421 11.3797 5.42853 11.4019 5.42251 11.4196C5.41666 11.437 5.41038 11.4565 5.4031 11.4774L5.28381 11.759C5.11138 12.0441 4.82577 12.3659 4.77793 12.607C4.74879 12.603 4.7143 12.6022 4.69024 12.5978L4.5622 12.5503Z" fill="#2B2A29"/>
<path fill-rule="evenodd" clip-rule="evenodd" d="M4.3291 5.01194L4.41166 5.02319C4.59738 4.99211 4.55582 4.96557 4.65423 4.88751C4.83689 4.74263 4.59896 4.84556 4.72263 4.8422C4.73056 4.85407 4.73635 4.86119 4.73783 4.88252C4.73974 4.91047 4.75844 4.95247 4.76041 4.96843C4.80174 5.29703 4.59907 5.13687 4.92798 5.47971L5.0552 5.69211L5.222 5.61416C5.15836 5.43334 5.11998 5.41939 5.04218 5.23896L5.49787 4.69856C5.90217 4.62464 5.53866 4.71139 5.71864 4.50239C5.40701 4.58219 5.4619 4.61518 5.11052 4.61518C5.15109 4.21534 5.08816 4.46818 5.26535 4.25375C5.30663 4.2038 5.35977 4.15043 5.38694 4.10507C5.81983 4.10507 5.8393 4.16522 5.94033 4.16046L6.04803 4.12652C5.75013 3.67443 5.32719 3.87049 5.0494 4.15799C4.81322 4.40238 4.44074 4.71592 4.3291 5.01194Z" fill="#2B2A29"/>
<path fill-rule="evenodd" clip-rule="evenodd" d="M6.40095 24.5999L6.39057 23.5563L9.44983 23.5493L7.87704 23.4896C7.51199 23.4826 6.65758 23.4133 6.35683 23.5188C6.31392 23.7152 6.24295 24.5231 6.40095 24.5999Z" fill="#2B2A29"/>
<path fill-rule="evenodd" clip-rule="evenodd" d="M18.2739 10.7048C18.4011 10.4848 18.3565 10.2601 18.3682 9.99732C18.378 9.78021 18.4143 9.47271 18.3574 9.27794L18.3183 9.20245L18.2739 10.7048Z" fill="#2B2A29"/>
<path fill-rule="evenodd" clip-rule="evenodd" d="M9.02002 7.11566L9.77356 7.06246C9.53749 6.92767 9.15725 7.02124 9.02002 7.11566Z" fill="#2B2A29"/>
<path fill-rule="evenodd" clip-rule="evenodd" d="M7.81592 0.145336L8.51697 0.0374241C8.52731 0.0336161 8.54311 0.0230881 8.55612 0.0158081C8.40566 0.0163681 8.32098 0.0256081 8.17079 0.0450961C7.98715 0.0688961 7.94773 0.0620641 7.81592 0.145336Z" fill="#2B2A29"/>
<path fill-rule="evenodd" clip-rule="evenodd" d="M0.98831 11.9631L0.856934 11.5519C0.864424 11.633 0.858628 11.688 0.87995 11.7747C0.953046 12.0725 0.90335 11.8858 0.98831 11.9631Z" fill="#2B2A29"/>
</svg>
