<svg width="32" height="32" viewBox="0 0 32 32" fill="none" xmlns="http://www.w3.org/2000/svg">
<path fill-rule="evenodd" clip-rule="evenodd" d="M9.60017 11.6364C10.1077 11.911 10.3935 12.2138 11.0224 12.3636C13.4525 10.6993 13.1557 11.6528 13.1557 9.63635C13.8959 9.63635 13.9464 9.50451 14.4167 9.49056C15.0173 9.47277 15.0084 9.63635 15.8224 9.63635C15.8224 11.3494 15.7011 11.0574 16.7687 11.5775C17.4672 11.9178 17.4365 12.0081 17.9557 12.3636C18.3877 12.2456 18.9646 11.86 19.3779 11.6364C19.5875 12.4391 20.3446 12.7715 20.4445 14C19.1972 14.6749 19.3779 14.0061 19.3779 16.9091C19.3779 17.537 19.9379 17.6975 20.4445 17.8182C20.4212 18.8892 19.8264 19.4968 19.3779 20.1818C18.6662 19.9875 18.7957 19.6364 17.9557 19.6364L15.8224 20.7273V22.1818C14.6818 22.4536 14.2962 22.4536 13.1557 22.1818V20.7273C11.7947 20.4029 11.5754 19.6364 11.0224 19.6364C10.1823 19.6364 10.3119 19.9875 9.60017 20.1818C9.15168 19.4968 8.55682 18.8892 8.53348 17.8182C9.87558 17.4984 9.60017 17.153 9.60017 14.9091C9.60017 14.3203 8.9784 14.2408 8.53348 14C8.62328 12.8966 9.17264 12.4627 9.60017 11.6364ZM12.0891 10.3636C11.5815 10.6383 11.3101 10.7721 10.8446 11.0909C10.3791 10.7721 10.1077 10.6383 9.60017 10.3636C8.79762 10.9133 7.28906 12.7623 7.28906 14.1818C7.28906 14.7188 8.14594 15.063 8.53348 15.2728C8.28955 16.3436 8.45081 15.7117 8.53348 16.7272C7.7373 16.917 7.96258 17.0888 7.28906 17.2727C7.28906 19.199 8.90819 21.4545 9.60017 21.4545C10.1494 21.4545 10.1893 20.9091 10.8446 20.9091C11.2604 20.9091 11.3723 21.2838 12.0891 21.4545C12.0891 23.1498 11.8131 23.4546 14.9335 23.4546C17.2985 23.4546 16.8891 22.5571 16.8891 21.4545C17.6057 21.2838 17.7178 20.9091 18.1335 20.9091C18.888 20.9091 19.343 22.7309 20.9223 19.7613C21.3809 18.8992 21.689 18.521 21.689 17.2727C21.0155 17.0888 21.2407 16.917 20.4445 16.7272V15.2728C20.6823 15.1099 21.689 14.5943 21.689 14.3636C21.689 12.7956 20.3122 11.0035 19.3779 10.3636C18.8704 10.6383 18.599 10.7721 18.1335 11.0909C17.6679 10.7721 17.3965 10.6383 16.8891 10.3636C16.8891 9.33306 17.4817 8.36365 14.4001 8.36365C13.9902 8.36365 12.8399 8.51981 12.552 8.6553C11.8601 8.98099 12.0891 9.41421 12.0891 10.3636Z" fill="#2B2A29"/>
<path fill-rule="evenodd" clip-rule="evenodd" d="M22.2227 15.8182C22.5359 16.2966 22.9077 16.623 23.3302 17.0491L27.0226 20.5455V17.8182H32.0004V14H27.0226V11.4545C25.4163 12.5546 23.8953 14.6726 22.2227 15.8182Z" fill="#2B2A29"/>
<path fill-rule="evenodd" clip-rule="evenodd" d="M4.26709 1.63635C4.39162 2.18278 4.49788 2.32288 4.76395 2.76461C5.02572 3.1991 5.1428 3.46157 5.4095 3.92262C5.77033 4.54656 6.51982 5.64602 6.57826 6.36365C6.14554 6.46669 4.74355 7.21946 4.44493 7.63635C5.38228 7.85971 6.49103 8.26618 7.44521 8.56787C8.24051 8.81933 9.80776 9.38138 10.6671 9.45453C10.868 9.0263 12.0893 3.75213 12.0893 3.09094C11.483 3.25651 10.3723 4.04218 9.77816 4.36365L7.46711 0C6.43947 0.244864 5.24931 1.40237 4.26709 1.63635Z" fill="#2B2A29"/>
<path fill-rule="evenodd" clip-rule="evenodd" d="M4.62261 24.3636C4.91741 24.7752 6.15738 25.4938 6.75587 25.6364C6.43247 27.0562 4.53713 29.2289 4.44482 30.3636C4.86572 30.4786 5.5358 30.9036 5.96909 31.1683C6.55218 31.5244 6.95293 31.8351 7.64479 32L9.9559 27.6364C10.413 27.9494 11.7174 28.7782 12.267 28.9091L10.8447 22.5455L4.62261 24.3636Z" fill="#2B2A29"/>
<path fill-rule="evenodd" clip-rule="evenodd" d="M16.7114 6C16.7114 9.52934 20.6486 10.4464 22.4534 8.41798C24.4152 6.21299 22.5731 2.72729 20.0892 2.72729C18.3428 2.72729 16.7114 4.20262 16.7114 6Z" fill="#2B2A29"/>
<path fill-rule="evenodd" clip-rule="evenodd" d="M16.8892 25.4545C16.8892 26.626 16.9403 27.1819 17.7272 28.052C18.9352 29.3879 21.0568 29.5361 22.4532 28.0542C24.7244 25.6437 22.6983 22.3636 20.0891 22.3636C18.4172 22.3636 16.8892 23.7423 16.8892 25.4545Z" fill="#2B2A29"/>
<path fill-rule="evenodd" clip-rule="evenodd" d="M6.95124e-05 15.4546C6.95124e-05 16.6761 -0.0242731 17.2802 0.838107 18.2339C2.05117 19.5753 4.17655 19.6612 5.50219 18.3545L6.16921 17.4003C7.77976 14.0699 3.79771 11.1047 1.13235 13.3399C0.699999 13.7024 6.95124e-05 14.7403 6.95124e-05 15.4546Z" fill="#2B2A29"/>
<path fill-rule="evenodd" clip-rule="evenodd" d="M14.5779 18C11.7441 18 11.8693 14.1555 14.2787 13.8835C17.0571 13.57 17.2745 18 14.5779 18ZM11.3779 15.6364C11.3779 20.3773 17.6001 20.1689 17.6001 15.6364C17.6001 13.7074 14.6635 11.4677 12.3915 13.5821C11.996 13.9502 11.3779 14.9518 11.3779 15.6364Z" fill="#2B2A29"/>
</svg>
