<?xml version="1.0" encoding="UTF-8"?>
<!DOCTYPE svg PUBLIC "-//W3C//DTD SVG 1.1//EN" "http://www.w3.org/Graphics/SVG/1.1/DTD/svg11.dtd">
<!-- Creator: CorelDRAW -->
<svg xmlns="http://www.w3.org/2000/svg" xml:space="preserve" width="100%" height="100%" version="1.1" style="shape-rendering:geometricPrecision; text-rendering:geometricPrecision; image-rendering:optimizeQuality; fill-rule:evenodd; clip-rule:evenodd"
viewBox="0 0 110.84 245.78"
 xmlns:xlink="http://www.w3.org/1999/xlink"
 xmlns:xodm="http://www.corel.com/coreldraw/odm/2003">
 <defs>
  <style type="text/css">
   <![CDATA[
    .fil0 {fill:#010101}
   ]]>
  </style>
 </defs>
 <g id="Layer_x0020_1">
  <metadata id="CorelCorpID_0Corel-Layer"/>
  <path class="fil0" d="M24.24 162.18l-0.01 60.36c-14.36,1.93 -23.73,-3.55 -23.8,14.96 -0.04,10.08 1.78,7.96 11.61,7.96 17.4,-0.01 92.9,1.14 97.91,-0.87 1.77,-6.65 0.99,-15.14 -3.25,-18.92 -4.74,-4.2 -12.86,-2.93 -19.97,-2.94l-0.03 -60.73c27.66,0.11 23.86,0.14 23.86,-37.02 0,-13.47 1.12,-114.67 -1.06,-119.1 -3.79,-7.68 -14.99,-5.63 -24.51,-5.63l-59.97 0c-30.4,0 -24.58,-3.82 -24.58,65.39 0,7.59 -0.68,85.87 0.56,89.52 3.14,9.18 13.79,5.91 23.24,7.02zm36.55 -60.6c2.96,1.28 10.19,1.23 13.23,0.06 2.13,-5.94 -0.98,-6.07 -6.33,-6.06 -5.3,0 -9.12,0.04 -6.9,6zm5.03 -38.88l8.04 0.01 4 -0.51c1.62,-3.84 1.1,-6.31 -4,-6.31l-9.27 0c-6.39,0 -6.82,6.77 1.23,6.81zm-0.61 -23.84l12.98 0c6.48,0 5.95,-6.84 0,-6.84l-13.6 0c-5.72,0 -7.2,6.84 0.62,6.84zm-0.62 51.66c11.89,0 19.83,1.94 17.53,-5.99 -3.61,-1.43 -12.53,-0.82 -17.53,-0.82 -6.78,0 -5.79,6.82 0,6.81zm-2.62 -18.34c-1.35,0.74 -5.45,6.49 4.44,6.43 5.68,-0.03 19.49,1.96 15.79,-5.12 -1.78,-3.43 -19.76,-1.57 -20.23,-1.31zm0.03 -27.8c-1.47,0.82 -5.38,6.48 4.41,6.44 5.43,-0.03 19.57,1.95 15.84,-5.21 -1.75,-3.35 -19.74,-1.51 -20.25,-1.23zm4.44 97.78c3.01,0 17.21,0.64 18.58,-1.03 1.23,-4.03 0.43,-5.83 -4.36,-5.83l-14.84 0c-6.77,0 -6.9,6.86 0.62,6.86zm-29.96 -109.68c-14.15,4.22 -8.38,25.81 6.25,21.81 13.98,-3.82 8.39,-26.19 -6.25,-21.81zm1.09 7.17c-5.53,3.05 -1.02,10.27 4.33,7.68 4.46,-2.16 1.64,-10.98 -4.33,-7.68zm-0.82 32.53c-14.25,3.93 -9.08,25.56 5.67,21.94 14.58,-3.59 8.73,-25.91 -5.67,-21.94zm5.16 15.08c1.18,-1.65 2.8,-2.99 1.87,-5.73 -0.73,-2.13 -3.22,-3.64 -5.97,-2.53 -3.71,1.5 -4.7,9.61 4.1,8.26zm-21.61 45.76c0,20.05 -3.02,17.1 17.7,17.1 6.78,0 5.02,-5.02 5.02,-17.72 0,-2.63 -0.17,-2.8 -1.01,-4.5 -6.68,-1.11 -9.87,-0.59 -16.99,-0.56 -4.25,0.01 -4.72,1.71 -4.72,5.68zm6.87 10.11l8.71 0.15 0.33 -9 -2.53 -0.07 -3.09 0.02 -3.47 0.13 0.05 8.77zm-14.82 -126.33c0,12.85 -1,99.63 0.71,104.73 4.78,1.66 64.84,0.69 79.38,0.79 4.74,0.03 6.18,-0.45 6.18,-5.37l0 -99.53c0,-4.08 -0.95,-5.26 -4.98,-5.26l-76.04 0c-3.89,-0.01 -5.25,0.39 -5.25,4.64zm6.83 98.44l72.34 0.22 0.27 -96.39 -72.33 -0.08 -0.28 96.25zm51.66 107.39l3.02 0.12 3.09 -0.02 2.91 -0.12 0.01 -60.42 -2.92 -0.23 -3.09 0.04 -3 0.07 -0.02 60.56zm-39.79 -57.46l0.01 55.02 0.03 2.54 9.02 0.01 0.01 -60.77 -9.04 0.03 -0.03 3.17zm-23.67 73.28l96.16 0.15c1.36,-11.35 -3.47,-9.02 -19.17,-9.02l-57.49 0c-16.14,-0.01 -20.36,-2.27 -19.5,8.87zm39.63 -15.7l2.74 -0.02 11.09 0 3.1 -0.04 0.03 -2.5 0 -38.33 0 -9.89 0 -9.92 -16.97 -0.05 0.01 60.75zm56.07 -68.49c1.5,-5.47 1.44,-141.22 -0.03,-146.28 -5.53,-2.09 -71.93,-0.87 -84.21,-0.87 -13.85,-0.01 -11.57,-4.46 -11.57,30.71l0 106.95c-0.02,11.43 -0.3,10.4 10.95,10.4 12.12,-0.01 79.7,1.24 84.86,-0.91z"/>
 </g>
</svg>
