<svg width="33" height="26" viewBox="0 0 33 26" fill="none" xmlns="http://www.w3.org/2000/svg">
<path fill-rule="evenodd" clip-rule="evenodd" d="M13.889 23.1717C13.7737 22.6356 14.5479 22.5417 14.6414 22.988C14.7523 23.5166 13.9849 23.6179 13.889 23.1717ZM16.3247 3.84885C16.4004 3.94651 16.3701 3.87017 16.3863 4.01681C16.3938 4.08467 16.3764 4.19918 16.3678 4.26605C16.3384 4.4962 16.3841 4.55912 16.3547 4.73212C16.1073 4.76431 15.6314 4.97153 15.5124 5.11516C15.2688 5.40906 15.4108 5.74264 15.5331 6.06946C15.6691 6.43325 15.7281 6.68394 16.1 6.74858C16.4167 6.80354 16.7334 6.56424 17.0393 6.52009L17.4547 6.98097C17.4961 7.02798 17.522 7.06604 17.5553 7.10457C17.1019 7.9803 17.0278 8.28024 17.8907 8.67071C18.1972 8.80934 18.5185 8.99051 18.8259 8.73113C18.9904 8.59219 19.1969 8.15716 19.2662 7.92222L20.0712 7.95524L20.2088 8.3833C20.3653 8.6159 20.344 8.86124 20.6778 8.96674C20.9611 9.05624 21.297 8.88718 21.5518 8.79317C22.4485 8.46245 22.0688 8.06896 21.8937 7.355C21.9895 7.25683 22.0943 7.19074 22.1989 7.10332C22.3228 6.99969 22.342 6.9363 22.4898 6.82372C22.7971 6.90125 23.0979 7.22532 23.4962 7.11076C23.9783 6.97218 23.902 6.4514 24.1014 6.35317C24.2867 5.79251 24.3305 5.40786 23.3616 5.12114L23.4129 4.26672C23.8515 3.96486 24.6406 4.1594 24.2228 2.98903C23.9059 2.10155 23.7727 2.09858 22.8227 2.42291C22.6852 2.33685 22.6322 2.19775 22.5308 2.09687C22.4336 2.0002 22.3267 1.88564 22.2285 1.81903C22.3362 1.18474 22.9999 0.860776 21.8471 0.320756C20.8314 -0.155044 20.8827 0.277544 20.4926 0.93186L19.5987 0.907004C19.4461 0.21114 19.1984 -0.199192 18.4194 0.0982998C17.3121 0.521268 17.5987 0.619964 17.7636 1.44515L17.8147 1.58191C17.6926 1.68602 17.7402 1.66797 17.6126 1.69803C17.4821 1.89568 17.3522 1.96843 17.2057 2.1355C16.9091 2.06515 16.648 1.79683 16.2974 1.85106C15.942 1.90613 15.8657 2.17294 15.7116 2.47626C15.2994 3.28845 15.5693 3.57674 16.3247 3.84885ZM0.0242303 10.3047C0.0251116 10.4581 -0.00278004 10.5655 0.000226874 10.6938C0.00333747 10.8277 0.0257856 10.9167 0.0198236 11.0761C0.0863904 12.8317 0.0226232 14.7234 0.0226232 16.4945C0.0226232 17.3986 0.0223639 18.3029 0.0223639 19.2071C0.0223639 19.8884 0.0946335 20.4934 0.66942 20.9352C0.720278 20.9743 0.712035 20.9612 0.765589 21.0064L0.859322 21.0994L0.998521 21.1571C1.91205 21.424 4.10637 21.3179 5.18129 21.3179L8.41522 21.317C8.71638 21.2877 8.91602 20.9886 8.71907 20.7089C8.55048 20.4696 8.15564 20.5409 7.80253 20.5409H2.39367C1.61774 20.5409 1.05508 20.5396 0.864506 19.875C0.725877 19.6467 0.79825 10.8725 0.798302 9.23293C0.798302 8.66639 0.678337 7.7072 1.02237 7.31637C1.45313 6.82694 1.95093 6.95923 2.76809 6.95923H11.2975C12.0443 6.95923 12.5953 6.8608 12.9518 7.40581C13.2125 7.80434 13.1051 8.85754 13.1051 9.3999C13.1051 10.4194 13.1606 15.4924 13.078 15.769C13.1898 15.9265 13.2415 16.0652 13.4635 16.0784C13.7204 16.0936 13.7696 15.9458 13.8922 15.8281C13.8324 15.3569 13.896 9.15036 13.8845 8.02242C13.8803 7.60377 13.811 7.30404 13.6164 6.9908C13.4747 6.76241 13.2149 6.49139 12.9475 6.38323C12.4188 6.07424 11.6091 6.17476 10.9647 6.17476H2.35204C1.49523 6.17476 1.17557 6.1549 0.612288 6.61172C0.225693 6.92517 0.02169 7.481 0.0223121 8.1896C0.0229861 8.89452 0.0195126 9.59995 0.0242303 10.3047ZM23.0808 17.2457C23.1818 17.0005 22.9078 16.6198 22.6342 16.6796C22.5106 16.7066 20.7168 17.9658 20.6738 18.0607C20.5577 18.3162 20.8505 18.7167 21.1319 18.6382C21.1847 18.6235 23.0278 17.3745 23.0808 17.2457ZM17.0849 14.618C16.942 14.6836 16.8591 14.7823 16.7071 14.8409C16.7702 14.8979 16.7898 14.8997 16.7956 15.1154C16.7979 15.2025 16.7893 15.3164 16.7897 15.4094C16.7917 15.9553 16.8684 15.953 16.6542 15.95C16.889 15.9807 16.8874 15.9851 17.0788 16.0835C17.5307 16.207 18.1659 16.7575 18.4026 17.005C18.7454 17.3634 19.0586 17.7945 19.3208 18.3383C19.573 18.8613 19.7546 19.4984 19.7345 20.1675C19.7144 20.837 19.4418 21.4897 19.0991 21.7816C19.3915 21.6623 22.7189 19.1997 22.9762 19.1334L23.9801 18.3646C25.5988 17.1064 25.6869 13.7776 23.2043 12.5618C22.7949 12.3614 22.2974 12.219 21.7836 12.2014C21.0616 12.1765 20.8544 12.3224 20.264 12.4577C20.2256 12.4891 19.932 12.6317 19.8278 12.695C19.5757 12.8483 17.2239 14.471 17.0849 14.618ZM17.5397 15.52L17.3873 15.4511C17.4388 15.4005 17.9118 15.1265 18.0763 14.9406L18.1206 14.9154C18.2151 14.869 18.2432 14.8377 18.3256 14.7811C18.3831 14.7418 18.3813 14.7498 18.4282 14.7179C18.4815 14.6819 18.4719 14.6866 18.5064 14.6542C19.4326 14.045 20.4313 13.1006 21.4068 13.0347C22.7477 12.944 23.7246 13.9133 24.0918 14.8447C24.4567 15.7704 24.3234 16.7324 23.678 17.4773C23.483 17.7023 23.3349 17.7927 23.0606 17.9848L20.4137 19.8255C20.3509 18.9096 20.3281 18.5492 19.9542 17.7857C19.7448 17.3583 19.1444 16.4939 18.8822 16.3668L18.5494 16.0867C18.4723 16.019 18.3715 15.9834 18.2802 15.9212C18.1968 15.8644 18.1376 15.8114 18.05 15.7395L17.714 15.5873L17.5397 15.52ZM15.4917 15.6793C15.3346 15.8928 15.3823 15.6013 15.2504 15.9517C15.5373 15.9008 15.589 15.8333 15.9574 15.8185C16.2072 15.8086 16.4521 15.8315 16.6542 15.95C16.8684 15.953 16.7917 15.9553 16.7897 15.4094C16.7893 15.3164 16.7979 15.2025 16.7956 15.1154C16.7898 14.8997 16.7702 14.8979 16.7071 14.8409L16.1222 15.2829C15.9973 15.3726 15.6104 15.6568 15.4917 15.6793ZM21.2849 24.6075C21.3743 24.6315 21.2955 24.5978 21.4125 24.6695L21.8181 24.9324C21.9899 25.032 22.2331 25.145 22.4378 25.2271C23.2622 25.5577 24.4652 25.8347 25.5616 25.9467C25.7011 25.9685 25.895 25.9841 26.1561 25.9912C26.4589 26.005 26.745 26.003 27.0026 25.9826C27.1937 25.974 27.3829 25.9612 27.5687 25.9453L27.714 25.95L27.7138 25.9322C27.8223 25.9219 27.9295 25.9105 28.035 25.8982L28.0349 25.9285L28.051 25.926L28.0557 25.8958C28.3458 25.8617 28.6238 25.8212 28.8837 25.7779L28.8856 25.8034L29.0149 25.7935L29.0158 25.7554C29.5351 25.665 29.974 25.5658 30.2812 25.4898C30.2909 25.4958 30.301 25.5013 30.3112 25.5058C30.459 25.4608 30.6069 25.414 30.7536 25.3641L30.7554 25.3636C31.5143 25.1052 32.2381 24.7608 32.7215 24.1269C32.7847 24.044 32.8724 23.8728 32.9199 23.8174C32.9445 23.6857 32.9917 23.5598 32.9989 23.4133C33.0066 23.255 32.9696 23.1587 32.9863 23.0152C32.8653 23.0616 32.8723 23.1225 32.802 23.2482C32.734 23.3699 32.7034 23.4065 32.6126 23.517C31.9554 24.3169 30.4594 24.7834 29.1943 25.0166C29.1159 25.0272 29.0347 25.0412 28.9503 25.0593C28.617 25.1144 28.3058 25.1529 28.0378 25.1768L28.0377 25.1999C27.9205 25.2112 27.8083 25.2199 27.7022 25.2261L27.7018 25.2008C27.3872 25.2189 27.0531 25.2274 26.7073 25.2242L26.7066 25.2242C25.0367 25.2091 23.0967 24.9253 21.791 24.1624C21.2637 23.8542 20.9107 23.5812 20.6559 23.0079C20.4777 23.2679 20.6119 23.7195 20.7472 23.9582C20.9281 24.2771 21.0012 24.2921 21.2206 24.5318C21.267 24.5826 21.2452 24.5497 21.2849 24.6075ZM3.87136 4.31898C3.89443 3.87532 4.29653 3.90538 4.40773 4.08306C4.51339 4.2518 4.45408 4.75339 4.45787 4.9824L4.18875 4.95437C4.04411 4.96035 4.15479 5.03326 3.95338 4.94813C3.81553 4.78657 3.85908 4.58101 3.9737 4.47337C4.06847 4.3845 4.27636 4.3649 4.18279 4.19574C3.96385 4.29408 4.29715 4.33256 3.87136 4.31898ZM2.80158 5.40781L11.1006 5.40677L11.0994 3.44195L2.81184 3.43961L2.80158 5.40781ZM3.87136 4.31898C4.29715 4.33256 3.96385 4.29408 4.18279 4.19574C4.27636 4.3649 4.06847 4.3845 3.9737 4.47337C3.85908 4.58101 3.81553 4.78657 3.95338 4.94813C4.15479 5.03326 4.04411 4.96035 4.18875 4.95437L4.45787 4.9824C4.45408 4.75339 4.51339 4.2518 4.40773 4.08306C4.29653 3.90538 3.89443 3.87532 3.87136 4.31898ZM22.5942 20.5996C22.623 20.0418 23.0652 20.2653 23.125 20.3611C23.2358 20.5822 23.1759 20.9847 23.1868 21.2644L22.9145 21.2188C22.8128 21.2276 22.8513 21.3301 22.6583 21.2103C22.3538 20.735 23.033 20.6959 22.9059 20.4751C22.6862 20.5492 23.0191 20.5988 22.5942 20.5996ZM23.4473 19.7788C23.2811 19.9073 22.7644 20.0188 22.5234 20.1144C21.7878 20.406 20.6157 21.0344 20.5704 21.9611C20.5077 23.2484 22.697 24.1455 23.3726 24.2137L27.4803 20.0808C27.6385 19.9213 27.9907 19.6309 28.0672 19.4389C27.5282 19.4788 26.7074 19.3512 25.5988 19.4483C25.0745 19.4942 23.4864 19.7806 23.4473 19.7788ZM22.5942 20.5996C23.0191 20.5988 22.6862 20.5492 22.9059 20.4751C23.033 20.6959 22.3538 20.735 22.6583 21.2103C22.8513 21.3301 22.8128 21.2276 22.9145 21.2188L23.1868 21.2644C23.1759 20.9847 23.2358 20.5822 23.125 20.3611C23.0652 20.2653 22.623 20.0418 22.5942 20.5996ZM27.4774 1.8676C28.5451 1.69902 29.3969 2.4735 29.5478 3.36166C29.7275 4.41877 29.0457 5.31083 28.0596 5.47214C25.662 5.86422 25.0812 2.24606 27.4774 1.8676ZM25.8658 5.49346C25.9321 5.51452 25.8657 5.48014 25.938 5.52871C25.9763 5.5545 25.9926 5.57364 26.0188 5.59699C25.9636 5.82298 25.7755 6.04008 25.774 6.2706C25.7718 6.597 25.9794 6.66034 26.2259 6.78202C26.8892 7.10951 27.1166 6.88763 27.2992 6.24475L27.8987 6.2812C28.2429 6.84041 27.9609 7.30269 29.0848 6.87546C29.3015 6.79309 29.3523 6.718 29.4477 6.52009C29.445 6.1848 29.334 6.07794 29.2743 5.795C29.3842 5.72137 29.3846 5.73713 29.4987 5.62366C29.579 5.54384 29.627 5.49034 29.7294 5.42622C30.366 5.63505 30.506 5.93899 30.8737 5.16294C30.9706 4.95822 31.1117 4.71356 30.9396 4.4727C30.8326 4.32294 30.5826 4.20656 30.3775 4.1504L30.4148 3.49348C30.9748 3.25974 31.2815 3.27358 31.014 2.52207C30.7786 1.8611 30.6257 1.88154 29.9791 2.11574L29.5329 1.63755C29.6648 1.15073 30.0623 0.942156 29.2378 0.542848C28.6389 0.252844 28.4128 0.444308 28.2339 1.00367L27.5552 0.980792C27.4101 0.361004 27.2488 0.17396 26.5878 0.404372C25.8506 0.661356 26.0435 0.830928 26.2091 1.47068C26.0887 1.61602 25.9197 1.69616 25.7957 1.90686C25.1678 1.74857 25.0096 1.35857 24.623 2.19291C24.2712 2.95216 24.6234 2.91977 25.1486 3.2236L25.1351 3.83299C24.523 4.03553 24.2354 4.10516 24.4978 4.84034C24.7544 5.55955 24.9598 5.41338 25.6104 5.19576C25.6884 5.24947 25.8172 5.38654 25.8658 5.49346ZM5.85675 10.8188L5.85696 12.2378C5.8568 12.5582 5.79345 12.6456 5.47555 12.65L3.89091 12.6501C3.59561 12.6894 3.64056 12.9231 3.64056 13.1976C3.64056 13.563 3.58928 14.5033 3.70754 14.7958C4.24624 14.9706 5.38513 14.7027 5.816 14.9318C5.92213 15.7528 5.78334 16.6629 5.91321 17.0086C6.22769 17.1321 6.78309 17.0668 7.17845 17.0668C7.33584 17.0668 7.69833 17.0855 7.83167 17.0588C8.09052 17.0072 8.04563 16.8164 8.04563 16.5779C8.04568 16.2089 7.99524 15.1977 8.11634 14.8949C8.65328 14.7422 9.86149 15.0036 10.2265 14.7566C10.2892 14.0766 10.2646 13.8426 10.2621 13.1559C10.2599 12.4914 10.1859 12.6476 8.42668 12.6477C7.90052 12.6477 8.04563 12.1728 8.04563 11.6952C8.04568 10.2066 8.26192 10.4242 6.72077 10.4239C6.23505 10.4238 5.85649 10.2862 5.85675 10.8188ZM28.1794 20.4753C28.0537 20.7357 24.4961 24.1091 24.3098 24.4237C24.7613 24.6373 26.4195 24.6681 27.0254 24.6579C28.6932 24.6299 33.3935 24.068 32.9325 21.6278C32.8108 21.4533 32.799 21.3519 32.6632 21.1893C32.326 20.7854 31.8912 20.5021 31.3799 20.263C30.8694 20.0243 29.7141 19.6348 29.1053 19.6043L28.3996 20.2955C28.3634 20.3318 28.3303 20.3687 28.2953 20.3987L28.1794 20.4753ZM2.00086 0.25716C0.921534 0.448 0.627323 1.77249 1.42452 2.40159C1.86197 2.74687 2.31995 2.66798 2.9345 2.66798C3.88215 2.66798 11.505 2.71291 11.8969 2.64885C12.8051 2.50028 13.352 1.29134 12.4376 0.49454C12.06 0.165432 11.4992 0.235684 10.9231 0.235684C9.98514 0.235684 2.38248 0.189716 2.00086 0.25716ZM19.504 2.08418C20.9331 1.85127 22.0736 2.9024 22.2634 4.11535C22.493 5.58316 21.4364 6.69809 20.2437 6.89465C18.8015 7.13234 17.6676 6.08776 17.466 4.88298C17.2194 3.40945 18.2748 2.28448 19.504 2.08418ZM1.5688 11.6952L1.5676 19.2494C1.56714 19.3198 1.56128 19.4366 1.56574 19.5014C1.57673 19.6652 1.55884 19.628 1.65014 19.7048C1.8375 19.8686 3.13068 19.7725 3.47544 19.7725L9.1756 19.771L9.79005 18.9053C9.94542 18.7138 10.3757 18.4372 10.6097 18.2673L12.3267 17.026L12.3299 11.6119C12.073 11.3629 12.0105 11.4463 11.5888 11.4466C11.2837 11.4468 10.9786 11.4466 10.6735 11.4466C10.198 11.4466 9.24248 11.499 8.8254 11.4237L8.81592 11.8808C9.46686 11.8759 10.2203 11.7724 10.6671 12.1182C11.1019 12.4547 11.0285 13.1163 11.0285 13.7818C11.0285 14.4641 11.1072 15.0372 10.6269 15.4055C10.1432 15.7764 9.44037 15.5262 8.81928 15.6385C8.81498 16.2455 8.91976 17.0291 8.59314 17.4558C8.23454 17.9244 7.58593 17.8424 6.92882 17.8424C6.2236 17.8424 5.59588 17.8896 5.28979 17.4297C4.98138 16.9665 5.09818 16.2552 5.0847 15.6322C4.51878 15.5609 2.89899 15.9914 2.87131 14.534C2.86156 14.0198 2.85088 13.4131 2.87234 12.9036C2.89541 12.3573 3.19315 12.1048 3.57959 11.9239C4.05997 11.8579 4.57825 11.8767 5.08958 11.8823L5.07719 11.4421L2.22715 11.4465C1.8908 11.4451 1.65201 11.37 1.5688 11.6952ZM17.4616 20.2873C17.8224 20.1326 18.0504 20.6351 17.9334 20.8513C17.8839 20.9428 16.768 21.7074 16.5811 21.8347C16.0622 22.1881 15.7662 22.54 15.4895 22.1381C15.4004 22.0085 15.335 21.8817 15.423 21.7186C15.4671 21.6369 17.2919 20.36 17.4616 20.2873ZM14.9176 16.3305L14.8694 16.3129C14.7148 16.426 14.3724 16.4864 14.1056 16.682C13.8867 16.8426 13.6455 16.9936 13.4156 17.1581C12.9185 17.5139 11.1225 18.7239 10.7348 19.0598C10.3424 19.3996 10.0185 19.7737 9.75106 20.41C8.65981 23.0062 10.9534 25.6876 13.5956 25.2304C14.6463 25.0485 15.6185 24.244 16.5369 23.5875C16.9874 23.2655 17.4409 22.9697 17.888 22.6454C18.3987 22.2749 18.7123 22.1207 18.9304 21.3557C19.3047 20.0428 18.6557 18.632 18.035 17.875L17.4967 17.2872C16.9148 16.6841 15.8912 16.2457 14.9176 16.3305Z" fill="#2B2A29"/>
</svg>
