<svg width="44" height="35" viewBox="0 0 44 35" fill="none" xmlns="http://www.w3.org/2000/svg">
<path fill-rule="evenodd" clip-rule="evenodd" d="M23.0259 6.9455C23.1634 6.67296 23.3359 6.39472 23.6426 6.36787C23.6508 6.36787 23.6589 6.36787 23.667 6.36787C23.8297 6.36787 23.9851 6.43621 24.0942 6.55662C24.5074 6.96909 24.4489 7.46699 24.5896 7.81845C24.5937 7.8331 24.6075 7.84367 24.623 7.84367C24.6417 7.84367 24.6571 7.82903 24.658 7.81032C24.6596 7.77534 24.6612 7.74035 24.6612 7.70537C24.6612 7.43283 24.6018 7.16354 24.4887 6.91621C24.3992 6.68923 24.2463 6.49235 24.0502 6.34753C23.5735 6.02211 23.1032 6.46143 22.9682 6.91865C22.9576 6.95364 23.0105 6.97723 23.0259 6.9455Z" fill="#191919"/>
<path fill-rule="evenodd" clip-rule="evenodd" d="M24.334 6.38758C24.7212 6.10446 25.067 6.90501 25.1443 7.37932C25.1703 7.54041 25.1492 7.71532 25.1915 7.87153C25.1972 7.88942 25.2142 7.90081 25.233 7.90081C25.2517 7.90081 25.2679 7.88942 25.2736 7.87153C25.4103 7.5282 25.1052 6.43396 24.6732 6.25009C24.6301 6.22975 24.5829 6.21918 24.5349 6.21918C24.443 6.21918 24.3543 6.25823 24.2925 6.32657C24.2656 6.36155 24.299 6.41281 24.334 6.38758Z" fill="#191919"/>
<path fill-rule="evenodd" clip-rule="evenodd" d="M25.0684 6.3988C25.1123 6.36789 25.1652 6.3508 25.2189 6.3508C25.3051 6.3508 25.3857 6.39392 25.4337 6.46552C25.5142 6.57291 25.576 6.69576 25.6135 6.82511C25.7754 7.27908 25.7249 7.39461 25.7981 7.53861C25.8055 7.55081 25.8193 7.55895 25.8331 7.55895C25.8518 7.55895 25.8681 7.54593 25.873 7.52803C25.8779 7.48654 25.8803 7.44342 25.8803 7.40112C25.8803 7.2685 25.8551 7.13589 25.8063 7.01305C25.7632 6.83976 25.6989 6.67298 25.6159 6.51596C25.5028 6.30931 25.2083 6.1108 25.0131 6.34348C24.9838 6.38253 25.0309 6.43216 25.0684 6.3988Z" fill="#191919"/>
<path fill-rule="evenodd" clip-rule="evenodd" d="M25.7374 6.44412C25.8155 6.21389 26.1336 6.70853 26.1646 6.77443C26.2231 6.9347 26.2695 7.10148 26.3029 7.26908C26.3086 7.28942 26.3273 7.30325 26.3484 7.30325C26.3696 7.30325 26.3883 7.28942 26.3948 7.26908C26.3972 7.23979 26.3989 7.20969 26.3989 7.1804C26.3989 6.92982 26.3078 6.68657 26.1434 6.49701C26.0751 6.4067 25.9742 6.28304 25.8497 6.27734C25.8465 6.27734 25.8432 6.27734 25.8391 6.27734C25.7537 6.27734 25.6805 6.33673 25.6626 6.42053C25.661 6.4246 25.6602 6.42785 25.6602 6.43192C25.6602 6.45389 25.6781 6.47179 25.7 6.47179C25.7171 6.47179 25.7326 6.4604 25.7374 6.44412Z" fill="#191919"/>
<path fill-rule="evenodd" clip-rule="evenodd" d="M31.6595 18.0665C31.7522 18.0136 31.8092 17.9151 31.8092 17.8086C31.8092 17.7695 31.8011 17.7296 31.7864 17.6938C31.6766 17.4286 31.1966 17.6035 31.3235 17.9412C31.3585 18.0339 31.4472 18.0949 31.5464 18.0949C31.5855 18.0949 31.6245 18.0852 31.6595 18.0665ZM31.3007 17.549C31.3446 17.5848 31.3707 17.6377 31.3707 17.6938C31.3707 17.7711 31.3235 17.8395 31.2519 17.8671C31.2373 17.872 31.2218 17.8745 31.2063 17.8745C31.1242 17.8745 31.0566 17.8069 31.0566 17.7248C31.0566 17.7142 31.0583 17.7036 31.0607 17.693C31.0599 17.6898 31.0599 17.6865 31.0599 17.6841C31.0599 17.5246 31.1893 17.3953 31.3487 17.3953C31.5041 17.3953 31.6318 17.5189 31.6367 17.6743L31.3007 17.549Z" fill="#191919"/>
<path fill-rule="evenodd" clip-rule="evenodd" d="M33.1831 17.4433C33.0683 16.7891 32.4997 16.3116 31.8358 16.3116C31.8081 16.3116 31.7797 16.3124 31.7528 16.314C31.3794 16.3441 31.0255 16.4889 30.7375 16.7281C30.591 16.851 30.67 16.9356 30.7318 16.9006C31.2264 16.6045 31.8822 16.4222 32.3605 16.8502C32.6502 17.1081 32.8161 17.4766 32.8161 17.8639C32.8161 18.0258 32.7877 18.186 32.7307 18.3374C32.5029 18.7791 32.0465 19.0574 31.5486 19.0574C31.4892 19.0574 31.4298 19.0533 31.3712 19.046C30.5349 18.9142 30.0159 17.8297 30.639 16.9559C30.6496 16.9405 30.626 16.9242 30.613 16.938C29.8906 17.6198 30.3453 18.9215 31.2647 19.1485C31.8862 19.3022 32.6982 18.9003 33.0195 18.3553C33.1391 18.1478 33.2026 17.9119 33.2026 17.6719C33.2026 17.5954 33.1961 17.5181 33.1831 17.4433Z" fill="#191919"/>
<path fill-rule="evenodd" clip-rule="evenodd" d="M22.4466 17.6693C23.4269 18.0118 24.4529 18.2266 25.4885 18.3023C25.652 18.3193 25.8196 18.3291 25.9848 18.3291C26.3053 18.3291 26.6251 18.2949 26.9375 18.2274C27.7478 18.0305 28.2001 17.4561 29.0373 17.2991C29.1788 17.2812 29.322 17.2723 29.4652 17.2723C29.6206 17.2723 29.7768 17.2837 29.9314 17.3048C29.9892 17.3105 29.994 17.2227 29.9444 17.2039C29.7687 17.1576 29.5864 17.134 29.4042 17.134C29.1081 17.134 28.816 17.1958 28.5459 17.3154C27.3508 17.7962 27.2263 18.9027 22.4726 17.5822C22.4686 17.5814 22.4637 17.5806 22.4596 17.5806C22.4344 17.5806 22.4141 17.601 22.4141 17.6262C22.4141 17.6465 22.4271 17.6644 22.4466 17.6693Z" fill="#191919"/>
<path fill-rule="evenodd" clip-rule="evenodd" d="M33.4122 17.3942C33.5465 17.4414 33.688 17.465 33.8304 17.465C33.8654 17.465 33.9004 17.4633 33.9354 17.4609C33.9468 17.4609 33.9582 17.4609 33.9695 17.4609C34.1257 17.4609 34.2795 17.4243 34.4194 17.3543C34.4308 17.347 34.4382 17.3348 34.4382 17.321C34.4382 17.2998 34.4219 17.2819 34.4007 17.2803C34.2372 17.2835 34.0786 17.3437 33.9142 17.3543C33.8963 17.3543 33.876 17.3551 33.8573 17.3551C33.7125 17.3551 33.566 17.347 33.4228 17.3299C33.383 17.3283 33.3797 17.382 33.4122 17.3942Z" fill="#191919"/>
<path fill-rule="evenodd" clip-rule="evenodd" d="M23.4944 12.1845C23.151 11.2391 22.5132 10.4272 21.6777 9.86744C21.4035 9.66486 21.0813 9.53469 20.7437 9.49157C20.7323 9.40452 20.6575 9.33862 20.5688 9.33862C20.472 9.33862 20.3931 9.41754 20.3931 9.51517C20.3931 9.53225 20.3955 9.54934 20.4004 9.56561C20.4224 9.6429 20.4931 9.69659 20.5737 9.69659C20.6371 9.69659 20.6957 9.66324 20.7283 9.60873C21.0626 9.66324 21.3815 9.79585 21.6565 9.99436C22.2911 10.4239 22.8061 11.0113 23.1478 11.6971C23.4765 12.3098 23.4927 12.5563 23.6262 12.7898C23.64 12.8134 23.6872 12.8052 23.6823 12.7735C23.6457 12.5701 23.5822 12.3716 23.4944 12.1845Z" fill="#191919"/>
<path fill-rule="evenodd" clip-rule="evenodd" d="M22.6188 12.4275C22.0477 12.3559 21.4896 12.194 20.9128 12.155C20.9104 12.1542 20.9087 12.1542 20.9063 12.1542C20.8819 12.1542 20.8607 12.1704 20.8542 12.194C19.9455 12.7505 19.0823 13.3981 18.2939 14.1165C18.2834 14.1287 18.2769 14.1433 18.2769 14.1596C18.2769 14.1865 18.2948 14.2101 18.3208 14.2174C18.7097 14.289 19.0961 14.3793 19.485 14.4525C19.9512 14.5444 19.9666 14.5444 20.0317 14.5086C20.1961 14.4134 22.6213 12.5658 22.6506 12.5439C22.6685 12.5317 22.6799 12.5121 22.6799 12.4902C22.6799 12.456 22.653 12.4283 22.6188 12.4275ZM21.0348 12.6749C20.8095 12.8302 20.5719 12.9653 20.3417 13.1109C20.4897 13.1109 20.6378 13.1109 20.7859 13.1028C20.8469 13.1004 20.8575 13.1801 20.8152 13.2086C20.5255 13.4323 20.2172 13.6438 19.9048 13.8358C19.8576 13.8594 19.8047 13.7984 19.847 13.7618C19.9634 13.6544 20.31 13.4282 20.5923 13.2248C20.4442 13.2273 20.2961 13.2273 20.1481 13.2224C20.1171 13.2208 20.0919 13.1947 20.0919 13.163C20.0919 13.1435 20.1025 13.1248 20.1196 13.1134C20.3954 12.923 20.6874 12.7489 20.9868 12.5976C20.9942 12.5935 21.0023 12.5911 21.0104 12.5911C21.0357 12.5911 21.056 12.6114 21.056 12.6366C21.056 12.6521 21.0479 12.6667 21.0348 12.6749Z" fill="#191919"/>
<path fill-rule="evenodd" clip-rule="evenodd" d="M20.951 17.1827C21.0551 17.1314 21.121 17.0249 21.121 16.9077C21.121 16.876 21.1161 16.8434 21.1064 16.8133C21.0747 16.7222 20.9892 16.662 20.8932 16.662C20.8753 16.662 20.8574 16.6636 20.8395 16.6685C20.702 16.6913 20.6012 16.8101 20.6012 16.95C20.6012 16.9728 20.6036 16.9948 20.6085 17.0167C20.6361 17.1274 20.7354 17.2047 20.8493 17.2047C20.8843 17.2047 20.9185 17.1973 20.951 17.1827ZM20.5825 16.5977C20.7362 16.6384 20.7037 16.8906 20.5507 16.9354C20.5361 16.9403 20.5206 16.9419 20.5052 16.9419C20.4197 16.9419 20.3506 16.8727 20.3506 16.7873C20.3506 16.7735 20.3522 16.7596 20.3555 16.7466C20.3603 16.5929 20.4865 16.4708 20.6402 16.4708C20.7972 16.4708 20.925 16.5977 20.925 16.7556C20.925 16.758 20.925 16.7613 20.925 16.7637L20.5825 16.5977Z" fill="#191919"/>
<path fill-rule="evenodd" clip-rule="evenodd" d="M22.5618 16.6381C22.4813 15.9474 21.911 15.4178 21.2162 15.3893C21.2097 15.3893 21.2023 15.3893 21.1958 15.3893C20.7948 15.3893 20.4034 15.5186 20.0821 15.7586C19.9405 15.8636 20.03 15.9441 20.087 15.9132C20.6207 15.6407 21.3089 15.5056 21.771 15.9873C22.0249 16.2492 22.1664 16.5991 22.1664 16.9635C22.1664 17.1539 22.1274 17.3426 22.0517 17.5184C21.8068 17.9398 21.3561 18.1993 20.8688 18.1993C20.7858 18.1993 20.702 18.192 20.6207 18.1774C19.7453 18.0033 19.2766 16.8203 19.9836 15.9685C19.9861 15.9653 19.9877 15.962 19.9877 15.958C19.9877 15.949 19.9796 15.9409 19.9706 15.9409C19.9665 15.9409 19.9625 15.9425 19.96 15.9449C19.1693 16.5974 19.55 17.9658 20.4783 18.2644C21.3008 18.5288 22.6944 17.8536 22.5618 16.6381Z" fill="#191919"/>
<path fill-rule="evenodd" clip-rule="evenodd" d="M17.6104 32.8868C17.7731 32.8071 17.8764 32.6419 17.8764 32.4613C17.8764 32.4044 17.8659 32.3474 17.8455 32.2945C17.7983 32.1636 17.6739 32.0773 17.5348 32.0773C17.5144 32.0773 17.4941 32.0789 17.4737 32.083C17.2468 32.1025 17.0726 32.2929 17.0726 32.5207C17.0726 32.5638 17.0792 32.607 17.0914 32.6484C17.1402 32.8095 17.2882 32.9194 17.4558 32.9194C17.5087 32.9194 17.5616 32.908 17.6104 32.8868ZM17.1865 32.1855C17.1898 32.201 17.1906 32.2173 17.1906 32.2335C17.1906 32.3637 17.1036 32.4768 16.9783 32.511C16.9644 32.5134 16.9506 32.5142 16.9368 32.5142C16.8099 32.5142 16.7065 32.4109 16.7065 32.284C16.7065 32.262 16.7098 32.24 16.7163 32.2181C16.722 32.092 16.827 31.9927 16.9531 31.9927C16.9848 31.9927 17.0157 31.9992 17.045 32.0114C17.1158 31.8975 17.2411 31.8284 17.3753 31.8284C17.5901 31.8284 17.7642 32.0025 17.7642 32.2173C17.7642 32.2905 17.7438 32.3621 17.7056 32.4239L17.1865 32.1855Z" fill="#191919"/>
<path fill-rule="evenodd" clip-rule="evenodd" d="M31.4265 33.2675C31.5933 33.1894 31.7007 33.021 31.7007 32.8363C31.7007 32.7818 31.6917 32.7281 31.6738 32.6777C31.6397 32.5662 31.5453 32.4832 31.4306 32.4629C31.4021 32.4572 31.372 32.4548 31.3427 32.4548C31.0962 32.4548 30.8969 32.6541 30.8969 32.9006C30.8969 32.9396 30.9018 32.9787 30.9123 33.0161C30.9571 33.1821 31.1076 33.2968 31.2792 33.2968C31.3297 33.2968 31.3793 33.287 31.4265 33.2675ZM30.8969 32.3832C30.9693 32.4092 31.0181 32.4767 31.0205 32.5532C31.0222 32.567 31.0238 32.5817 31.0238 32.5955C31.0238 32.7273 30.9343 32.842 30.8066 32.8729C30.7944 32.8754 30.7822 32.8762 30.7708 32.8762C30.643 32.8762 30.5405 32.7729 30.5405 32.6459C30.5405 32.6378 30.5405 32.6297 30.5413 32.6224C30.5446 32.384 30.739 32.1936 30.9766 32.1936C31.2166 32.1936 31.411 32.388 31.411 32.628C31.411 32.6305 31.411 32.6321 31.411 32.6346L30.8969 32.3832Z" fill="#191919"/>
<path fill-rule="evenodd" clip-rule="evenodd" d="M33.872 32.3312C33.7101 31.2801 32.8046 30.504 31.7413 30.504C31.7323 30.504 31.7234 30.504 31.7144 30.504C31.0896 30.5455 30.4908 30.7765 30.0002 31.1654C29.8562 31.2866 29.9588 31.442 30.0645 31.3842C30.8472 30.9449 31.8731 30.6968 32.6004 31.3818C33.2008 31.948 33.4774 32.9504 33.1178 33.7167C32.7655 34.4628 31.8088 34.8988 31.005 34.7736C29.6821 34.5685 28.8873 32.8169 29.9124 31.4632C29.9311 31.4363 29.8912 31.4103 29.8701 31.4314C28.7587 32.3914 29.2477 34.4677 30.7536 34.9273C31.5631 35.173 32.5361 34.7605 33.1471 34.2268C33.6198 33.829 33.8931 33.2416 33.8931 32.6233C33.8931 32.5257 33.8858 32.4272 33.872 32.3312Z" fill="#191919"/>
<path fill-rule="evenodd" clip-rule="evenodd" d="M36.5849 27.5548C36.3799 27.0447 35.9487 26.6575 35.4182 26.5078C34.7601 26.315 33.914 26.4573 33.4323 26.9731C33.403 27.0049 33.4405 27.061 33.4803 27.0342C33.7496 26.843 34.0515 26.7006 34.3712 26.6135C34.5193 26.5794 34.6722 26.5623 34.8243 26.5623C35.0058 26.5623 35.1856 26.5867 35.3605 26.6347C36.3823 26.9235 36.4946 27.8144 36.6484 28.0788C36.6573 28.0926 36.6728 28.1015 36.689 28.1015C36.7151 28.1015 36.7354 28.0804 36.7362 28.0552C36.7183 27.8803 36.6671 27.7102 36.5849 27.5548Z" fill="#191919"/>
<path fill-rule="evenodd" clip-rule="evenodd" d="M19.4253 25.6136C19.4741 25.8991 19.5449 26.1822 19.6319 26.458C19.6474 26.4922 19.7133 26.4922 19.7109 26.4499C19.6946 26.3108 19.6645 26.1725 19.6214 26.039C19.5839 25.8918 19.5416 25.7462 19.4944 25.6005C19.4896 25.5859 19.4765 25.5753 19.4603 25.5753C19.4416 25.5753 19.4253 25.5916 19.4253 25.6103C19.4253 25.6119 19.4253 25.6127 19.4253 25.6136Z" fill="#FF4612"/>
<path fill-rule="evenodd" clip-rule="evenodd" d="M15.8197 29.5765C15.7969 29.574 5.67295 29.5545 5.55498 29.5545C5.48908 29.5464 5.48908 29.6521 5.55742 29.6546C6.87296 29.7034 15.7465 29.7058 15.8034 29.6961C15.9385 29.6725 15.9019 29.5854 15.8197 29.5765Z" fill="#191919"/>
<path fill-rule="evenodd" clip-rule="evenodd" d="M43.3673 29.5974C43.0565 29.5836 38.8316 29.5974 38.2735 29.5673C38.2044 29.5624 38.2044 29.6698 38.2735 29.6731C39.4849 29.7382 43.2184 29.7162 43.2957 29.7129C43.3429 29.7105 43.4299 29.7211 43.4592 29.6731C43.4934 29.6047 43.4039 29.5746 43.3673 29.5974Z" fill="#191919"/>
<path fill-rule="evenodd" clip-rule="evenodd" d="M9.08572 10.1855C9.12314 10.1627 9.14592 10.1221 9.14592 10.0781C9.14592 10.0472 9.13534 10.0179 9.11501 9.99515C9.0906 9.96911 9.05643 9.95447 9.02145 9.95447C8.99704 9.95447 8.97345 9.96098 8.95311 9.97399C8.91406 9.99596 8.88965 10.0375 8.88965 10.0822C8.88965 10.1058 8.89616 10.1286 8.90836 10.1481C8.93195 10.1847 8.97263 10.2067 9.01575 10.2067C9.04016 10.2067 9.06456 10.1994 9.08572 10.1855Z" fill="#191919"/>
<path fill-rule="evenodd" clip-rule="evenodd" d="M11.0252 9.73877C11.0642 9.71924 11.0886 9.67938 11.0886 9.63626C11.0886 9.5728 11.0366 9.52155 10.9731 9.52155C10.9528 9.52155 10.9324 9.52643 10.9145 9.53782C10.8918 9.55978 10.869 9.56548 10.8592 9.60372C10.8551 9.61511 10.8535 9.62649 10.8535 9.6387C10.8535 9.70216 10.9048 9.75341 10.9682 9.75341C10.9886 9.75341 11.0081 9.74853 11.0252 9.73877Z" fill="#191919"/>
<path fill-rule="evenodd" clip-rule="evenodd" d="M9.82212 12.0841C10.3005 12.1809 10.4168 11.4569 10.425 11.1347C10.425 11.1331 10.425 11.1306 10.425 11.129C10.425 11.1062 10.4103 11.0859 10.3876 11.0794C10.3802 11.0672 10.3672 11.0598 10.3534 11.0582C10.0987 11.0354 9.90836 11.142 9.41453 10.9549C9.40965 10.9533 9.40395 10.9525 9.39826 10.9525C9.3649 10.9525 9.33805 10.9793 9.33805 11.0127C9.33724 11.0346 9.33643 11.0566 9.33643 11.0786C9.33643 11.2942 9.38036 11.5073 9.46497 11.7058C9.51134 11.8848 9.64639 12.0272 9.82212 12.0841ZM9.45521 11.0973C9.635 11.1567 9.82375 11.1868 10.0133 11.1868C10.1085 11.1868 10.2045 11.1786 10.2981 11.164C10.285 11.3291 10.2541 11.4927 10.2061 11.6505C10.1451 11.8303 9.97019 12.0556 9.76436 11.9149C9.55772 11.7742 9.45927 11.3511 9.45521 11.0973Z" fill="#191919"/>
<path fill-rule="evenodd" clip-rule="evenodd" d="M16.6279 11.8568C16.5482 11.83 16.4652 11.8169 16.3814 11.8169C16.3603 11.8169 16.3391 11.8178 16.318 11.8194C14.6388 11.7795 12.7895 11.7641 11.2641 12.5068C11.2299 12.5231 11.2535 12.5833 11.291 12.5703C12.8506 11.9658 14.267 11.9097 15.9372 11.9487C16.475 11.9618 16.5075 11.9862 16.6174 11.9487C16.6491 11.9333 16.6678 11.8747 16.6279 11.8568Z" fill="#191919"/>
<path fill-rule="evenodd" clip-rule="evenodd" d="M14.4723 18.8226C14.2624 18.8422 14.0574 18.8959 13.8646 18.9813C13.2593 19.1839 12.711 19.5361 12.2733 20.0023C12.2489 20.0365 12.2969 20.0812 12.331 20.0601C12.7948 19.6435 13.3358 19.3165 13.9207 19.1001C14.1078 19.0333 14.3194 19.0073 14.5024 18.9251C14.5545 18.9048 14.5252 18.8226 14.4723 18.8226Z" fill="#191919"/>
<path fill-rule="evenodd" clip-rule="evenodd" d="M14.8883 19.1636C14.3498 19.328 13.8315 19.5623 13.3523 19.856C13.1872 19.9398 13.0359 20.0488 12.9049 20.1789C12.8788 20.2082 12.9024 20.2668 12.9472 20.2505C13.2417 20.148 13.358 19.9121 14.9225 19.2433C14.9705 19.2246 14.9355 19.1498 14.8883 19.1636Z" fill="#191919"/>
<path fill-rule="evenodd" clip-rule="evenodd" d="M13.7398 20.5334C13.6064 20.6294 13.4917 20.7499 13.4022 20.8873C13.3989 20.8939 13.3965 20.9012 13.3965 20.9085C13.3965 20.9321 13.416 20.9516 13.4396 20.9516C13.4469 20.9516 13.4542 20.95 13.4608 20.9459C13.5812 20.8581 13.6942 20.7596 13.7992 20.6539C14.1791 20.3382 14.6014 20.0746 15.0529 19.8736C15.0895 19.8549 15.0635 19.7964 15.0261 19.8069C14.5517 19.9566 14.1132 20.2039 13.7398 20.5334Z" fill="#191919"/>
<path fill-rule="evenodd" clip-rule="evenodd" d="M7.10749 28.4486C7.0302 28.2216 6.9464 27.9963 6.85691 27.7717C6.85122 27.7555 6.83576 27.7441 6.81867 27.7441C6.79671 27.7441 6.77881 27.762 6.77881 27.7839C6.77881 27.7872 6.77962 27.7896 6.77962 27.7929C6.87074 28.1541 7.01149 28.6024 7.09773 28.853C7.11806 28.9555 7.16037 29.0515 7.22139 29.1361C7.23034 29.145 7.24173 29.1491 7.25393 29.1491C7.27915 29.1491 7.29949 29.1296 7.30112 29.1044C7.31169 28.997 7.27834 28.9457 7.10749 28.4486Z" fill="#191919"/>
<path fill-rule="evenodd" clip-rule="evenodd" d="M17.872 23.1647C17.8224 22.9694 17.7638 22.779 17.6946 22.5887C17.6906 22.5748 17.6776 22.5651 17.6629 22.5651C17.645 22.5651 17.6304 22.5797 17.6304 22.5984C17.6304 22.6009 17.6304 22.6041 17.6312 22.6066C17.6735 22.8051 17.7264 22.9954 17.7874 23.1883C17.7955 23.2029 17.8102 23.2127 17.8273 23.2127C17.8517 23.2127 17.872 23.1923 17.872 23.1671C17.872 23.1663 17.872 23.1655 17.872 23.1647Z" fill="#191919"/>
<path fill-rule="evenodd" clip-rule="evenodd" d="M35.7979 10.1977C35.5677 10.1025 35.4937 10.2742 34.4067 9.87226C34.3644 9.8568 34.3376 9.9227 34.3775 9.94385C34.7094 10.118 35.073 10.2286 35.4465 10.2693C35.5116 10.2855 35.5799 10.2937 35.6474 10.2937C35.6987 10.2937 35.7499 10.2888 35.8004 10.2799C35.8175 10.2733 35.828 10.2571 35.828 10.2392C35.828 10.2205 35.8158 10.2034 35.7979 10.1977Z" fill="#FF4612"/>
<path fill-rule="evenodd" clip-rule="evenodd" d="M35.3272 10.6298C34.9529 10.5948 34.5828 10.5175 34.2256 10.4004C34.1906 10.3898 34.167 10.4427 34.2012 10.4581C34.5388 10.6249 34.9074 10.7217 35.2833 10.7437C35.3426 10.7535 35.4037 10.7583 35.4647 10.7583C35.5363 10.7583 35.6071 10.751 35.677 10.738C35.6949 10.7315 35.7071 10.7152 35.7071 10.6957C35.7071 10.677 35.6949 10.6599 35.677 10.6534C35.5713 10.6379 35.4631 10.6298 35.3557 10.6298C35.3467 10.6298 35.337 10.6298 35.328 10.6298H35.3272Z" fill="#FF4612"/>
<path fill-rule="evenodd" clip-rule="evenodd" d="M35.5128 4.67916C35.5396 4.72391 35.5998 4.68486 35.5819 4.64011C35.4835 4.41476 35.3777 4.19265 35.2825 3.96485C35.2166 3.75496 35.1312 3.54912 35.0287 3.35387C35.01 3.32539 34.9547 3.33272 34.9571 3.37258C34.9994 3.59387 35.0759 3.80865 35.1825 4.00716C35.2777 4.2374 35.3891 4.46357 35.5128 4.67998V4.67916Z" fill="#FF4612"/>
<path fill-rule="evenodd" clip-rule="evenodd" d="M37.2568 4.58371C37.3919 4.05327 37.3764 4.12975 37.5236 3.45205C37.5611 3.3292 37.5814 3.20147 37.5847 3.07374C37.5839 3.05177 37.5651 3.03387 37.5432 3.03387C37.5293 3.03387 37.5155 3.0412 37.5082 3.05259C37.4447 3.17137 37.4464 3.24784 37.3308 3.77991C37.2755 4.03944 37.2308 4.29734 37.1885 4.56012C37.182 4.60731 37.2446 4.62846 37.2568 4.58371Z" fill="#FF4612"/>
<path fill-rule="evenodd" clip-rule="evenodd" d="M39.8804 4.61765C39.6388 4.70389 39.4045 4.81372 39.1832 4.94389C38.9424 5.06511 38.704 5.18958 38.4665 5.32138C38.429 5.34253 38.4608 5.39297 38.4982 5.37752C38.739 5.27419 38.9766 5.16518 39.215 5.05209C39.4566 4.95365 39.6917 4.83161 39.9122 4.69168C39.9463 4.66809 39.9276 4.60463 39.8804 4.61765Z" fill="#FF4612"/>
<path fill-rule="evenodd" clip-rule="evenodd" d="M35.5695 9.72195C35.585 8.7953 35.9673 7.74255 36.3993 6.93305C36.2594 6.91678 36.1227 6.87773 35.995 6.81915C36.0113 7.63109 35.4035 9.01578 34.9976 9.61212C35.1936 9.68208 35.3986 9.73415 35.6053 9.76263C35.585 9.761 35.5695 9.7431 35.5695 9.72276V9.72195Z" fill="#FF4612"/>
<path fill-rule="evenodd" clip-rule="evenodd" d="M37.8966 5.31961C37.1131 4.52557 35.2232 4.47269 34.5959 5.81182C34.063 6.94836 34.9734 8.19312 34.3811 9.26051C34.3787 9.26621 34.3771 9.27272 34.3763 9.27922C34.3405 9.26539 34.303 9.25807 34.2648 9.25807C34.0948 9.25807 33.9573 9.39556 33.9573 9.5656C33.9573 9.64614 33.989 9.72424 34.046 9.78119C33.9093 9.82269 33.8011 9.92682 33.7547 10.0619C33.7482 10.0863 33.7449 10.1115 33.7449 10.1375C33.7449 10.2091 33.7702 10.2783 33.8157 10.3344C33.727 10.3962 33.6733 10.4988 33.6733 10.607C33.6733 10.6989 33.7116 10.7868 33.7783 10.8502C34.0598 11.0739 34.3999 11.2123 34.757 11.2489C34.9173 11.2944 35.0832 11.318 35.25 11.318C35.438 11.318 35.6251 11.2879 35.8041 11.2302C35.992 11.1488 36.1775 10.9153 36.0742 10.7355C36.1856 10.6916 36.2588 10.5842 36.2588 10.4638C36.2588 10.393 36.2328 10.3238 36.1856 10.2701C36.2694 10.2173 36.3207 10.1245 36.3207 10.0253C36.3207 9.91462 36.258 9.81455 36.1588 9.76492C36.1506 9.76004 36.1409 9.7576 36.1311 9.7576C36.1002 9.7576 36.075 9.78282 36.075 9.81455C36.075 9.83408 36.0856 9.85279 36.1035 9.86336C36.1604 9.89509 36.1954 9.95611 36.1954 10.0212C36.1954 10.1074 36.1352 10.1815 36.0506 10.1994C36.0237 10.2075 36.005 10.2327 36.005 10.2612C36.005 10.2832 36.0164 10.3035 36.0343 10.3157C36.0961 10.3409 36.136 10.4011 36.136 10.467C36.136 10.5581 36.062 10.6322 35.9717 10.6322C35.9635 10.6322 35.9554 10.6314 35.9473 10.6306C35.8814 10.6273 35.8683 10.7152 35.9155 10.7493C36.0815 10.8592 35.9302 11.1472 35.477 11.1887C35.4339 11.1903 35.39 11.1919 35.346 11.1919C35.1467 11.1919 34.9458 11.1683 34.7521 11.1219C34.5227 11.0862 34.299 11.0154 34.0907 10.9129C33.9931 10.86 33.8426 10.7835 33.8076 10.6696C33.8035 10.6541 33.8019 10.6371 33.8019 10.62C33.8019 10.5199 33.8735 10.4337 33.9719 10.4158C33.9988 10.4076 34.0167 10.3832 34.0167 10.3556C34.0167 10.3279 33.9988 10.3027 33.9719 10.2946C33.8474 10.2547 33.858 10.0936 33.9272 10.0114C33.9971 9.94147 34.0866 9.89184 34.1834 9.86906C34.2087 9.86011 34.2258 9.83652 34.2258 9.80967C34.2258 9.78852 34.2152 9.76899 34.1965 9.7576C34.1297 9.71855 34.0883 9.64614 34.0883 9.56885C34.0883 9.44763 34.1867 9.34919 34.3079 9.34919C34.3258 9.34919 34.3429 9.35163 34.3608 9.3557C34.3632 9.35651 34.3657 9.35651 34.3681 9.35651C34.3836 9.35651 34.3974 9.34675 34.4031 9.33211C34.4121 9.34106 34.4218 9.34838 34.4316 9.3557C34.5902 9.44682 34.7562 9.52492 34.9262 9.59082C35.054 9.3199 35.9538 7.82783 35.9025 6.77914C35.7121 6.68152 35.4843 6.52287 35.5242 6.3325C35.5454 6.25521 35.6153 6.2007 35.6959 6.2007C35.7227 6.2007 35.7487 6.20721 35.7731 6.2186C35.9326 6.2845 35.9717 6.53182 35.9953 6.70267C36.1409 6.77914 36.3012 6.8247 36.4655 6.83528C36.8259 6.18524 37.2115 6.61399 36.9422 6.8247C36.83 6.90362 36.6949 6.94674 36.5566 6.94674C36.546 6.94674 36.5346 6.94592 36.5241 6.94592C36.5135 6.96708 36.5005 6.98823 36.4899 7.00938C35.9497 8.01983 35.813 8.77237 35.6617 9.73889C35.6592 9.75679 35.643 9.77062 35.6243 9.77062C35.6226 9.77062 35.621 9.77062 35.6194 9.77062C35.7097 9.78363 35.8 9.79177 35.8895 9.79665C35.9066 9.79909 35.9245 9.80072 35.9424 9.80072C36.0197 9.80072 36.0953 9.7755 36.1563 9.72831C36.3052 9.59489 36.1986 9.48424 36.8259 8.89197C37.5475 8.21508 38.3595 7.41616 38.3196 6.34551C38.3123 5.96314 38.161 5.59622 37.8966 5.31961Z" fill="#FF4612"/>
<path fill-rule="evenodd" clip-rule="evenodd" d="M36.9242 6.67328C36.9714 6.5309 36.8046 6.59924 36.7786 6.61551C36.6964 6.66921 36.6297 6.74324 36.5825 6.82948C36.6915 6.81565 36.8892 6.77823 36.9242 6.67328Z" fill="#FF4612"/>
<path fill-rule="evenodd" clip-rule="evenodd" d="M35.7954 6.36657C35.6937 6.23152 35.6831 6.3023 35.6367 6.42189C35.6424 6.49918 35.8141 6.59681 35.8849 6.64399C35.8727 6.54718 35.8417 6.45281 35.7954 6.36657Z" fill="#FF4612"/>
<path fill-rule="evenodd" clip-rule="evenodd" d="M21.4024 5.25812C21.3837 5.20768 21.3447 5.16701 21.2942 5.14748C21.3081 5.12063 21.3154 5.09053 21.3154 5.06043C21.3154 4.96524 21.2438 4.8847 21.1486 4.87494C21.1535 4.85785 21.1559 4.83995 21.1559 4.82205C21.1559 4.71955 21.073 4.63656 20.9704 4.63656C20.9517 4.63656 20.933 4.639 20.9151 4.6447C20.9111 4.6447 20.9062 4.64795 20.8997 4.65039C20.8972 4.591 20.8875 4.53243 20.8704 4.47548C20.8533 4.37459 20.8452 4.27209 20.8452 4.17039C20.8452 4.08578 20.8508 4.00117 20.8622 3.91737C20.9208 3.28523 20.9525 2.54733 20.4603 2.06082C20.0235 1.62963 19.432 1.72319 18.9504 2.09011C18.6192 2.31384 18.4199 2.68808 18.4199 3.08835C18.4199 3.2592 18.4565 3.42842 18.5265 3.58381C18.821 4.23222 19.6801 4.44863 19.8469 5.17596C19.8469 5.18002 19.8485 5.18409 19.8518 5.18653C19.7745 5.21501 19.7241 5.28904 19.7241 5.37121C19.7241 5.47616 19.8054 5.5624 19.9104 5.56809C19.8827 5.61121 19.8681 5.66165 19.8681 5.71291C19.8681 5.75765 19.8786 5.80077 19.8998 5.83982C19.9291 5.89026 19.9795 5.92362 20.0373 5.93013C20.0332 5.9464 20.0308 5.96348 20.0308 5.98138C20.0308 6.08796 20.1105 6.17827 20.2171 6.1921C20.4563 6.18884 20.689 6.1083 20.881 5.9643C21.0721 5.8683 21.2349 5.7243 21.3544 5.54613C21.3927 5.48674 21.413 5.41758 21.413 5.34599C21.413 5.3167 21.4098 5.2866 21.4024 5.25812ZM21.256 5.75277C21.2292 5.81298 21.1909 5.86748 21.1454 5.91386C20.9615 6.10749 20.3237 6.49311 20.1219 6.37678C20.0861 6.35155 20.0649 6.31088 20.0649 6.26694C20.0649 6.23684 20.0747 6.20755 20.0926 6.18396C20.1195 6.14654 20.0706 6.11318 20.0373 6.12864C19.9665 6.16199 19.9047 6.08308 19.8998 6.01962C19.8998 5.9521 19.9209 5.88538 19.9608 5.82925C19.9641 5.82355 19.9657 5.81704 19.9657 5.80972C19.9657 5.78776 19.9478 5.76986 19.9258 5.76986C19.9226 5.76986 19.9185 5.77067 19.9153 5.77148C19.9071 5.77311 19.899 5.77311 19.89 5.77311C19.8127 5.77311 19.7493 5.71047 19.7493 5.63236C19.7493 5.57948 19.7786 5.53067 19.8258 5.50708C19.8518 5.49324 19.8404 5.47941 19.8607 5.47372C19.9755 5.45094 20.0885 5.41921 20.1984 5.37772C20.1422 5.18979 20.1056 4.99128 20.0503 4.80334C19.9413 4.3689 19.7379 3.96049 19.4572 3.61147C19.3279 3.6432 19.1375 3.66923 19.0822 3.55045C19.0765 3.53744 19.0732 3.52279 19.0732 3.50815C19.0732 3.46259 19.1009 3.42191 19.1432 3.40483C19.2481 3.35601 19.3799 3.45608 19.471 3.53744C19.5736 3.51222 19.6704 3.46584 19.7542 3.39994C19.7403 3.35683 19.7338 3.31208 19.7338 3.26652C19.7338 3.20632 19.746 3.14611 19.7696 3.09079C19.8689 2.93052 20.1487 3.10869 19.8282 3.42761C19.8437 3.50652 19.8982 3.69039 19.9047 3.71317C20.0649 4.23141 20.309 4.72199 20.6239 5.16294C20.6946 5.12145 20.7597 5.07019 20.8167 5.0108C20.8354 5.00511 20.8549 5.00185 20.8744 5.00185C20.92 5.00185 20.9647 5.01812 20.9997 5.04741C21.0168 5.06694 21.0258 5.09297 21.0258 5.11901C21.0258 5.14423 21.0176 5.16945 21.0014 5.18897C20.9973 5.19548 20.9957 5.2028 20.9957 5.21012C20.9957 5.2329 21.0136 5.2508 21.0363 5.2508C21.0396 5.2508 21.0429 5.2508 21.0461 5.24999C21.0567 5.24674 21.0673 5.24511 21.0786 5.24511C21.1364 5.24511 21.1836 5.29229 21.1836 5.35006C21.1836 5.38667 21.1649 5.42084 21.1332 5.44036C21.1258 5.44769 21.1218 5.45826 21.1218 5.46884C21.1218 5.4908 21.1397 5.50952 21.1624 5.50952C21.3577 5.2028 21.3406 5.37691 21.304 5.46477L21.256 5.75277Z" fill="#FF4612"/>
<path fill-rule="evenodd" clip-rule="evenodd" d="M20.9348 5.00435C20.6883 5.18822 20.4158 5.33629 20.1278 5.44368C20.1172 5.44693 20.1099 5.4567 20.1099 5.46727C20.1099 5.4811 20.1213 5.49249 20.1351 5.49249C20.1375 5.49249 20.1392 5.49168 20.1416 5.49168C20.4516 5.41602 20.7379 5.26063 20.969 5.04178C20.9698 5.03852 20.9706 5.03608 20.9706 5.03283C20.9706 5.01656 20.9576 5.00354 20.9413 5.00354C20.9389 5.00354 20.9373 5.00435 20.9348 5.00435Z" fill="#FF4612"/>
<path fill-rule="evenodd" clip-rule="evenodd" d="M20.6828 5.55983C20.5494 5.64282 20.403 5.7079 20.263 5.77868C20.2419 5.78926 20.2573 5.82099 20.2785 5.8161C20.5152 5.74939 20.7357 5.63549 20.9269 5.4801C20.9944 5.43617 21.0546 5.38085 21.1034 5.31658C21.1059 5.3117 21.1075 5.30681 21.1075 5.30193C21.1075 5.28566 21.0945 5.27264 21.0782 5.27264C21.0733 5.27264 21.0685 5.27427 21.0644 5.27671C20.9895 5.31576 20.9057 5.4199 20.6828 5.55983Z" fill="#FF4612"/>
<path fill-rule="evenodd" clip-rule="evenodd" d="M18.4416 2.43057C18.3001 2.37037 18.1585 2.3061 18.0186 2.23776C17.8917 2.16291 17.7574 2.09864 17.6191 2.04738C17.6167 2.04657 17.6151 2.04657 17.6126 2.04657C17.5988 2.04657 17.5874 2.05796 17.5874 2.07179C17.5874 2.0783 17.5907 2.08481 17.5955 2.08969C17.7176 2.18081 17.8534 2.25403 17.9974 2.3061C18.1357 2.372 18.2781 2.42813 18.4229 2.47532C18.4498 2.48345 18.4677 2.44196 18.4416 2.43057Z" fill="#FF4612"/>
<path fill-rule="evenodd" clip-rule="evenodd" d="M18.7951 1.06106C18.852 1.16357 19.0172 1.45157 19.1815 1.70378C19.1856 1.7111 19.1929 1.71517 19.201 1.71517C19.214 1.71517 19.2246 1.70459 19.2246 1.69158C19.2246 1.68751 19.223 1.68344 19.2214 1.68019C19.1441 1.52724 19.0652 1.37835 18.9805 1.23028C18.913 1.08384 18.8292 0.945537 18.7316 0.817808C18.7267 0.812927 18.7202 0.810486 18.7137 0.810486C18.6982 0.810486 18.686 0.822689 18.686 0.838147C18.686 0.839774 18.686 0.842215 18.6868 0.843842C18.7129 0.921131 18.7495 0.994351 18.7951 1.06106Z" fill="#FF4612"/>
<path fill-rule="evenodd" clip-rule="evenodd" d="M20.1549 1.53434C20.2265 1.38465 20.29 1.23251 20.3535 1.07956C20.4316 0.924169 20.4942 0.760643 20.5414 0.593049C20.5422 0.590608 20.5422 0.588167 20.5422 0.585726C20.5422 0.571082 20.5308 0.559692 20.5162 0.559692C20.5072 0.559692 20.4983 0.56376 20.4934 0.571896C20.4153 0.717524 20.3494 0.871287 20.2981 1.02912C20.2347 1.19102 20.1737 1.3521 20.1159 1.51888C20.1078 1.54085 20.1452 1.55549 20.1549 1.53434Z" fill="#FF4612"/>
<path fill-rule="evenodd" clip-rule="evenodd" d="M39.5429 8.00516C39.5372 7.98644 39.5202 7.97343 39.5006 7.97343C39.4998 7.97343 39.499 7.97343 39.4974 7.97343C39.4258 7.97343 38.3389 7.91241 38.081 7.89939C38.0566 7.93682 38.0305 7.97099 38.0037 8.00841C38.1916 8.01573 39.1508 8.06617 39.4437 8.07431C39.3574 8.72679 38.2014 23.2278 38.2241 23.2278C38.2014 23.2261 16.5061 22.1823 16.1733 22.162C16.4817 18.7076 17.3302 7.74075 17.3969 6.96786C17.9518 6.99227 23.4523 7.28271 24.1999 7.31769C24.1918 7.27864 24.1812 7.24122 24.1706 7.20461C23.0821 7.15173 18.3195 6.92393 17.3823 6.88976C17.3562 6.87186 17.3107 6.87674 17.305 6.91335C17.1537 8.01899 16.1188 21.9358 16.083 22.1831C16.0749 22.1921 16.0708 22.2043 16.0708 22.2165C16.0708 22.2409 16.0887 22.2612 16.1123 22.2653C16.2888 22.2962 38.216 23.3685 38.2827 23.3571C38.3193 23.353 38.347 23.3213 38.347 23.2847C38.347 23.2692 38.3421 23.2538 38.3324 23.2408C38.5276 21.0832 39.5682 8.03119 39.5429 8.00516Z" fill="#FF4612"/>
<path fill-rule="evenodd" clip-rule="evenodd" d="M34.2673 7.71054C33.5139 7.67312 27.3862 7.36396 26.6564 7.32898C26.6466 7.36803 26.6296 7.40545 26.606 7.438C27.0949 7.46159 34.2592 7.82037 34.2803 7.82037C34.2803 7.78295 34.2754 7.74634 34.2673 7.71054Z" fill="#FF4612"/>
<path fill-rule="evenodd" clip-rule="evenodd" d="M35.9105 15.5832C35.812 15.1057 35.2539 14.908 34.7837 14.7843C34.4883 14.7095 34.1841 14.6468 33.8814 14.6037C33.2468 14.5061 32.6147 14.3922 31.9777 14.3027C31.6677 14.2571 31.3529 14.2522 31.0437 14.2018C30.7533 14.1213 30.4742 13.9976 30.2188 13.8373C29.6818 13.5859 29.0578 13.5493 28.4737 13.4997C27.9147 13.4541 27.3518 13.4281 26.7912 13.4281C26.4324 13.4281 26.0663 13.4379 25.71 13.4566C25.7499 13.5233 25.7897 13.5916 25.8263 13.6583C25.8312 13.6673 25.8337 13.6779 25.8337 13.6876C25.8337 13.7023 25.828 13.7169 25.8182 13.7275C24.7345 15.0438 24.7858 15.0137 24.689 15.0544C24.619 15.078 24.5458 15.0902 24.4717 15.0902C24.4571 15.0902 24.4416 15.0902 24.427 15.0894C23.7875 15.0975 23.2246 14.7274 22.7502 14.3092C22.6925 14.2587 22.5892 14.1977 22.5656 14.1213C22.5412 14.0497 22.5916 13.9911 22.6315 13.9358C22.6974 13.8438 22.7714 13.7552 22.8511 13.6746C22.0791 13.8463 20.8587 14.4459 20.8042 15.2342C20.9173 15.2098 21.0328 15.1968 21.1492 15.1968C21.9139 15.1968 22.5737 15.7378 22.7242 16.4879C23.611 16.6474 24.5165 16.7621 25.4179 16.815C27.4787 16.8841 28.1995 15.654 30.8688 15.7199C31.6897 15.7435 33.5072 16.0876 34.8723 16.2333C35.1555 16.2626 35.5069 16.3097 35.7429 16.1145C35.86 16.0169 35.9284 15.872 35.9284 15.7183C35.9284 15.6727 35.9218 15.6272 35.9105 15.5832Z" fill="#FF4612"/>
<path fill-rule="evenodd" clip-rule="evenodd" d="M32.9057 13.6524C33.629 13.3245 34.3807 13.4132 34.8046 14.0909C34.9128 14.287 34.995 14.4977 35.0479 14.7149C35.0511 14.7255 35.0601 14.7328 35.0706 14.7328C35.0837 14.7328 35.0942 14.7231 35.0951 14.71C35.0763 14.2138 34.7965 13.7647 34.3604 13.5279C34.1505 13.4197 33.9178 13.3636 33.6819 13.3636C33.3955 13.3636 33.1156 13.4466 32.8756 13.602C32.8667 13.6068 32.8618 13.6166 32.8618 13.6272C32.8618 13.6435 32.8748 13.6565 32.8903 13.6565C32.896 13.6565 32.9009 13.6548 32.9057 13.6524Z" fill="#191919"/>
<path fill-rule="evenodd" clip-rule="evenodd" d="M33.122 14.2951C34.069 14.4513 34.3847 14.4822 34.8321 14.6042C34.6849 13.8907 33.9673 13.5287 33.2978 13.5938C32.9211 13.6312 32.5867 13.8509 32.4028 14.1812C32.6436 14.2178 32.8845 14.2552 33.122 14.2951Z" fill="#191919"/>
<path fill-rule="evenodd" clip-rule="evenodd" d="M24.4489 12.8642C23.99 12.9455 23.4051 13.3409 23.0634 13.6289C22.9202 13.7274 22.7973 13.8527 22.7013 13.9967C22.6989 14.0024 22.6973 14.008 22.6973 14.0146C22.6973 14.039 22.7176 14.0593 22.7428 14.0593C22.7493 14.0593 22.7558 14.0577 22.7615 14.0544C22.9535 13.9438 22.9901 13.7737 23.558 13.3987C23.8493 13.2083 24.169 13.0814 24.4757 12.9203C24.5074 12.9065 24.483 12.8585 24.4489 12.8642Z" fill="#191919"/>
<path fill-rule="evenodd" clip-rule="evenodd" d="M27.6772 14.5278C27.5982 14.1836 27.2565 13.9876 26.9466 13.8924C26.757 13.8379 26.5618 13.7996 26.3649 13.7801C26.1379 13.7541 25.6856 13.68 25.6831 13.6719C25.5448 13.3091 24.859 12.624 24.5929 12.9763C24.4131 13.2139 24.3936 14.0388 24.4294 14.3887C24.4351 14.5701 24.4676 14.7507 24.5246 14.9224C24.5441 14.9598 24.5742 14.9899 24.6116 15.0102C25.0689 15.1087 25.5318 15.1843 25.9971 15.2323C26.1387 15.2551 26.2819 15.2665 26.4251 15.2665C26.6919 15.2665 26.9572 15.2266 27.2118 15.1477C27.4917 15.046 27.7512 14.8556 27.6772 14.5278ZM23.0911 13.6906C23.4735 13.5694 23.9307 14.4025 23.9527 14.3911C23.9372 14.3968 23.58 14.8117 23.4157 15.0102C23.2628 15.1949 23.0805 15.3828 22.9268 15.5683C23.3059 14.9045 23.851 14.348 24.5075 13.9567C24.5083 13.6833 24.5108 13.065 24.7703 12.9853L23.0911 13.6906Z" fill="#191919"/>
<path fill-rule="evenodd" clip-rule="evenodd" d="M37.7992 14.321C37.7959 14.2974 37.7699 14.2868 37.7512 14.2844C37.381 14.2445 37.0002 14.2364 36.6268 14.2283C36.5528 14.2258 36.4307 14.1965 36.399 14.2893C36.3941 14.3186 36.3917 14.3495 36.3917 14.3796C36.3917 14.4097 36.3941 14.4398 36.399 14.4691C36.4047 14.5675 36.4096 14.6619 36.4177 14.7603C36.2697 14.9296 36.1379 15.1167 36.0052 15.3022C36.0248 15.338 36.0427 15.3754 36.0581 15.4136C36.2078 15.22 36.3502 15.0142 36.4787 14.8059C36.4844 14.7961 36.4787 14.4715 36.4844 14.3959C36.4901 14.3454 36.4844 14.3348 36.5243 14.3218C36.5333 14.321 36.543 14.321 36.552 14.321C36.578 14.321 36.604 14.3235 36.6293 14.3275C36.652 14.3283 37.4827 14.3788 37.7137 14.3829C37.7324 14.4992 37.7406 14.6155 37.7487 14.7343C37.7023 14.7498 35.6505 18.288 35.6375 18.3107C35.6351 18.218 35.6245 18.1244 35.6058 18.0333C35.6001 18.013 35.5814 17.9983 35.5594 17.9983H35.5586C35.1404 17.9666 34.7174 17.9511 34.2968 17.943C34.2781 17.943 34.252 17.9406 34.2227 17.9381C34.4123 17.7144 34.5896 17.4768 34.7491 17.2319C34.9338 16.9749 35.1217 16.7186 35.3072 16.4599C35.2421 16.4599 35.2071 16.4599 35.1779 16.4566C35.0192 16.6738 34.863 16.8935 34.7068 17.1132C34.4985 17.3694 34.3073 17.6444 34.1414 17.93C34.0535 17.9243 33.9665 17.9324 33.9347 17.991C33.9242 18.0284 33.9185 18.0683 33.9185 18.1082C33.9185 18.1244 33.9193 18.1407 33.9217 18.157C33.9185 18.2603 33.9111 18.3661 33.916 18.4694C33.9144 18.4734 33.9136 18.4775 33.9136 18.4816C33.9136 18.497 33.9266 18.5109 33.9429 18.5117C34.0974 18.5206 35.4268 18.5882 35.6066 18.5564C35.6196 18.5532 35.6286 18.541 35.6286 18.528C35.6286 18.5231 35.6278 18.5182 35.6253 18.5141C35.7229 18.375 35.8132 18.2286 35.893 18.0781C37.8773 14.7262 37.826 14.7774 37.826 14.7433C37.826 14.7294 37.826 14.7148 37.826 14.701C37.826 14.574 37.8171 14.4463 37.7992 14.321ZM34.7776 18.4547C34.5075 18.4466 34.2382 18.436 33.9713 18.4442C34.0063 18.1952 33.977 18.0585 34.0315 18.0211C34.0714 17.9943 34.2195 18.0317 34.2675 18.0341C34.3399 18.0382 35.1754 18.0789 35.513 18.0846C35.5423 18.1887 35.557 18.2969 35.557 18.4051C35.557 18.4295 35.5562 18.4539 35.5553 18.4783C35.356 18.4612 35.1559 18.4523 34.9558 18.4523C34.8972 18.4523 34.8353 18.4539 34.7776 18.4547Z" fill="#FF4612"/>
<path fill-rule="evenodd" clip-rule="evenodd" d="M37.068 14.7949C37.1535 14.8071 37.2405 14.8136 37.3267 14.8136C37.4065 14.8136 37.487 14.8079 37.5659 14.7973C37.5749 14.7941 37.5814 14.7851 37.5814 14.7754C37.5814 14.7648 37.5749 14.7558 37.5651 14.7526C37.4301 14.7306 37.2918 14.7192 37.1535 14.7192C37.1258 14.7192 37.0965 14.72 37.068 14.7208C36.9794 14.7135 36.8882 14.7103 36.7987 14.7103C36.7084 14.7103 36.6181 14.7135 36.5286 14.7208C36.5116 14.7208 36.4985 14.7347 36.4985 14.7509C36.4985 14.768 36.5116 14.7819 36.5286 14.7819C36.7084 14.7867 36.8882 14.7859 37.068 14.7949Z" fill="#FF4612"/>
<path fill-rule="evenodd" clip-rule="evenodd" d="M33.6927 27.8965C35.2059 28.156 35.8145 28.1812 36.615 28.4147C36.5426 27.4165 35.6168 26.7656 34.6844 26.7404C33.949 26.7217 33.3966 27.1846 33.0923 27.7956C33.2965 27.8273 33.4942 27.8623 33.6927 27.8965Z" fill="#191919"/>
<path fill-rule="evenodd" clip-rule="evenodd" d="M37.9277 30.4211C37.9497 31.0508 37.4387 31.6456 36.9018 31.9181C36.6545 32.0182 36.3892 32.0702 36.1216 32.0702C36.0142 32.0702 35.9068 32.0613 35.801 32.045C35.1217 31.9986 34.4822 31.8807 33.8916 31.7887C33.9079 31.8311 33.9233 31.8701 33.9396 31.9124C34.4326 32.0043 35.269 32.1329 35.8222 32.1695C35.9247 32.1833 36.028 32.1907 36.1313 32.1907C36.4055 32.1907 36.6781 32.1394 36.9327 32.0393C37.5006 31.766 38.1181 31.037 38.0351 30.4236C38.0278 30.3536 37.9253 30.3504 37.9277 30.4211Z" fill="#FF4612"/>
<path fill-rule="evenodd" clip-rule="evenodd" d="M22.3777 29.3009C23.044 29.3562 23.7315 29.3774 24.3693 29.1341C24.8111 28.9649 25.2659 28.6557 25.1341 28.1188C24.9933 27.5607 24.4303 27.2621 23.9194 27.1189C23.6062 27.0359 23.2848 26.9822 22.9619 26.9603C22.5779 26.9025 22.1865 26.861 21.7985 26.8415C21.7497 26.8317 21.7732 26.8049 20.138 28.8778C20.1087 28.9153 20.1111 28.9861 20.1697 28.9966C20.897 29.1366 21.6398 29.2407 22.3777 29.3017V29.3009Z" fill="#FF4612"/>
<path fill-rule="evenodd" clip-rule="evenodd" d="M25.2913 32.1881C25.2864 32.1873 25.2815 32.1873 25.2767 32.1873C25.2213 32.1873 25.1758 32.2321 25.1758 32.2882C25.179 32.3264 25.2059 32.359 25.2433 32.3687C25.2514 32.3704 25.2596 32.372 25.2685 32.372C25.3027 32.372 25.3344 32.3533 25.3515 32.3232C25.3605 32.3094 25.3645 32.2931 25.3645 32.2768C25.3645 32.2329 25.3336 32.1963 25.2913 32.1881Z" fill="#FF4612"/>
<path fill-rule="evenodd" clip-rule="evenodd" d="M26.8265 28.549C26.8216 28.5482 26.8167 28.5482 26.8126 28.5482C26.7565 28.5482 26.7118 28.5929 26.7109 28.649C26.7142 28.6873 26.7419 28.7198 26.7785 28.7288C26.7866 28.7312 26.7955 28.732 26.8037 28.732C26.8387 28.732 26.8704 28.7141 26.8875 28.684C26.8956 28.6702 26.9005 28.6539 26.9005 28.6376C26.9005 28.5937 26.8696 28.5563 26.8265 28.549Z" fill="#FF4612"/>
<path fill-rule="evenodd" clip-rule="evenodd" d="M27.6616 27.3617C27.6567 27.3609 27.6518 27.3609 27.6469 27.3609C27.5916 27.3609 27.5469 27.4056 27.5469 27.4618C27.5493 27.5 27.577 27.5326 27.6136 27.5415C27.6225 27.544 27.6307 27.5448 27.6388 27.5448C27.6738 27.5448 27.7055 27.5269 27.7226 27.4968C27.7307 27.4829 27.7356 27.4667 27.7356 27.4504C27.7356 27.4065 27.7047 27.3699 27.6616 27.3617Z" fill="#FF4612"/>
<path fill-rule="evenodd" clip-rule="evenodd" d="M25.6878 29.8448C25.6829 29.844 25.678 29.8431 25.6731 29.8431C25.6178 29.8431 25.5723 29.8887 25.5723 29.944C25.5755 29.9831 25.6024 30.0148 25.6398 30.0246C25.6479 30.027 25.6569 30.0278 25.665 30.0278C25.6992 30.0278 25.7317 30.0091 25.7488 29.9798C25.7569 29.9652 25.7618 29.9497 25.7618 29.9326C25.7618 29.8895 25.7309 29.8521 25.6878 29.8448Z" fill="#FF4612"/>
<path fill-rule="evenodd" clip-rule="evenodd" d="M27.4547 32.1329C26.9389 32.399 26.1758 32.8725 25.6641 33.0531C25.6852 32.9489 25.6958 32.8423 25.6958 32.7358C25.6958 32.6918 25.6942 32.6471 25.6901 32.6032C25.6934 32.5186 25.695 32.4307 25.695 32.3444C25.695 31.9458 25.6608 31.5439 25.5949 31.151C25.59 31.1347 25.5746 31.1233 25.5575 31.1233C25.5363 31.1233 25.5184 31.1404 25.5184 31.1623C25.5258 31.6342 25.586 31.8791 25.5738 32.6032C25.5648 32.6821 25.5599 32.761 25.5599 32.8399C25.5599 32.9188 25.5648 32.9977 25.5738 33.0758C25.5738 33.0783 25.5762 33.0783 25.5762 33.0815C24.6243 33.4094 23.5984 33.3695 22.6043 33.2638C21.7769 33.1759 20.9543 33.0327 20.144 32.8423C20.1335 32.8822 20.1229 32.9221 20.1099 32.9587C20.7583 33.1125 21.4164 33.2288 22.0722 33.3191C23.1615 33.4639 24.3201 33.5803 25.394 33.2687C26.3873 32.9815 27.2155 32.2786 28.0437 32.0174C28.4847 31.8856 28.9395 31.7912 29.3983 31.7432C29.4244 31.6977 29.4536 31.6529 29.4854 31.6106C28.7833 31.6659 28.095 31.8441 27.4539 32.1337L27.4547 32.1329Z" fill="#FF4612"/>
<path fill-rule="evenodd" clip-rule="evenodd" d="M20.0363 31.9C19.8549 30.8676 18.9576 30.1142 17.9089 30.1142C17.8861 30.1142 17.8633 30.1142 17.8414 30.115C17.223 30.1687 16.634 30.4079 16.1524 30.7992C15.9897 30.94 16.1052 31.0864 16.2069 31.0278C16.979 30.5722 18.0024 30.3054 18.7428 30.9749C19.357 31.5274 19.6532 32.5248 19.309 33.2969C18.973 34.0502 18.0236 34.505 17.2198 34.3968C15.8888 34.217 15.0671 32.4784 16.0613 31.1092C16.08 31.0832 16.0401 31.0596 16.019 31.0775C14.9459 32.0432 15.4348 34.1226 16.9741 34.5554C17.9764 34.8386 19.2513 34.2146 19.7719 33.3473C19.9648 33.017 20.0664 32.6411 20.0664 32.2588C20.0664 32.1392 20.0567 32.0188 20.0363 31.9Z" fill="#191919"/>
<path fill-rule="evenodd" clip-rule="evenodd" d="M16.5182 29.9166C16.5573 30.0387 16.589 30.1761 16.637 30.3031C16.6663 30.2868 16.698 30.2762 16.7273 30.2632C16.6923 30.1387 16.6395 30.0159 16.6029 29.8979C16.1147 28.3497 16.1326 28.3082 16.0529 28.222C16.0488 28.2179 16.0431 28.2155 16.0382 28.2155C16.0293 28.2155 16.0212 28.2212 16.0179 28.2293C16.0179 28.2407 16.0171 28.2521 16.0171 28.2626C16.0171 28.3285 16.0301 28.3936 16.0553 28.4546C16.1676 28.8793 16.5109 29.893 16.5182 29.9166Z" fill="#FF4612"/>
<path fill-rule="evenodd" clip-rule="evenodd" d="M17.197 30.0895C17.2345 30.0789 17.2711 30.0683 17.3085 30.0602C17.2711 29.9471 17.2312 29.8348 17.197 29.7242C17.1336 29.5151 16.787 28.2394 16.6577 27.8172C16.6471 27.7773 16.5861 27.796 16.5934 27.8359C16.7057 28.4257 16.9652 29.3084 17.197 30.0895Z" fill="#FF4612"/>
<path fill-rule="evenodd" clip-rule="evenodd" d="M37.9854 29.528C37.6396 28.5908 35.7741 28.3768 34.7531 28.2296C33.8354 28.0978 32.9258 27.9098 32.0057 27.8065C31.5428 27.7536 31.0587 27.7723 30.6308 27.5632C29.7603 27.1378 29.7578 26.9815 28.2739 26.8042C25.5899 26.4869 22.561 25.8125 20.1732 26.3754C20.1504 26.2013 20.113 26.0281 20.0609 25.8605C20.0186 25.6831 19.9763 25.5057 19.9178 25.3341C19.9129 25.3202 19.8999 25.3105 19.8852 25.3105C19.8665 25.3105 19.851 25.3259 19.851 25.3447C19.851 25.3455 19.8519 25.3463 19.8519 25.3471C19.8852 25.5269 19.9235 25.7018 19.9658 25.8816C19.9967 26.0549 20.0447 26.2266 20.1065 26.3917C19.873 26.4487 19.6411 26.5203 19.4158 26.6057C19.0977 26.7342 18.7861 26.8847 18.4875 27.0531C17.9026 27.3558 17.3892 27.7853 16.9873 28.3068C17.0003 28.3548 17.0133 28.4045 17.0272 28.4525C17.5861 27.6251 18.6364 27.0287 19.5842 26.6675C21.7743 25.832 25.6241 26.6163 28.068 26.9148C28.2958 26.9433 28.5285 26.9693 28.7628 27.006C27.667 28.1262 26.6256 29.3271 25.6688 30.5677C25.594 30.6377 25.5379 30.7248 25.5029 30.8208C25.5004 30.85 25.524 30.8679 25.5452 30.8549C25.6233 30.802 25.6876 30.7313 25.7331 30.6491C27.3204 28.6184 27.8647 28.1441 28.8548 27.0206C29.2257 27.0751 29.5886 27.1825 29.9303 27.3379C30.2964 27.5128 30.5738 27.7439 30.9912 27.8325C31.3858 27.918 31.6542 27.8569 33.0064 28.0839C33.4481 28.1555 33.8899 28.2369 34.3309 28.3036C35.1818 28.3923 36.0304 28.5631 36.8521 28.8056C37.1979 28.9276 37.5867 29.0911 37.7877 29.4165C37.9732 29.7151 37.9732 30.1569 37.6396 30.3505C37.468 30.4294 37.2817 30.4701 37.0929 30.4701C37.0238 30.4701 36.9538 30.4644 36.8855 30.4538C35.5699 30.3603 33.0975 29.9022 31.6575 29.7452C31.3264 29.7135 30.9896 29.6972 30.6568 29.6972C29.3291 29.6972 28.0127 29.9478 26.7769 30.4319C25.9853 30.7313 25.1945 31.0697 24.3541 31.1942C23.4413 31.3292 22.5081 31.2202 21.5986 31.1145C20.9819 31.0429 20.3612 30.9582 19.7469 30.8525C19.7835 30.898 19.8169 30.946 19.8478 30.9957C25.0969 31.8727 25.0733 31.0388 27.7019 30.2496C28.6115 29.9698 29.5601 29.825 30.512 29.825C30.6617 29.825 30.813 29.8282 30.9619 29.8355C32.5223 29.9031 34.1267 30.2887 36.5519 30.5515C36.9692 30.5962 37.5143 30.6784 37.8446 30.3586C37.9756 30.2155 38.048 30.0283 38.048 29.8339C38.048 29.729 38.0269 29.6248 37.9854 29.528Z" fill="#FF4612"/>
<path fill-rule="evenodd" clip-rule="evenodd" d="M15.007 20.6948C14.7996 20.7924 14.6003 20.9038 14.4017 21.0177C14.2398 21.0999 14.0885 21.204 13.9518 21.3245C13.6956 21.5758 13.6744 21.9468 13.3278 22.3137C13.0317 22.6262 12.6347 22.7555 12.2596 22.9434C11.992 23.0785 11.6112 23.3169 11.5583 23.639C10.9758 23.098 10.5674 22.3943 10.3884 21.619C10.3941 21.6222 10.4006 21.6247 10.4071 21.6247C10.4112 21.6247 10.4161 21.623 10.4202 21.6214C10.9181 21.4253 11.0393 20.8599 11.2191 20.4133C11.3224 20.1497 11.4916 19.917 11.7113 19.738C11.8594 19.6111 12.0815 19.437 12.0733 19.2173C12.0725 19.1872 12.0481 19.1628 12.018 19.1628C11.9936 19.1628 11.9724 19.1783 11.9651 19.2011C11.8447 19.4785 11.8341 19.4622 11.5494 19.7087C10.9099 20.2571 11.058 21.1341 10.3884 21.5474C10.3827 21.5498 10.3787 21.5547 10.3754 21.5604C10.3689 21.5344 10.3461 21.5156 10.3193 21.5156C10.3006 21.5156 10.2835 21.5246 10.2721 21.5392C10.0687 21.5547 9.86612 21.5905 9.66924 21.645C8.00469 22.0168 6.90312 22.2657 5.83166 22.6473C5.72101 22.2251 5.66325 21.7882 5.66244 21.3513C5.66244 20.6386 5.73484 20.349 5.71044 20.0447C5.708 20.0024 5.64291 19.987 5.63152 20.0341C5.58677 20.2489 5.55911 20.4686 5.55179 20.6874C5.50298 21.2821 5.48589 22.1429 5.70474 22.6977C4.97335 22.9508 4.27043 23.2941 3.62283 23.718C3.60412 23.7302 3.59354 23.7505 3.59354 23.7717C3.59354 23.8075 3.62283 23.8367 3.65863 23.8367C3.6692 23.8367 3.67897 23.8343 3.68792 23.8294C4.09307 23.6146 4.4844 23.3795 4.90501 23.1891C6.28319 22.5594 7.54584 22.2975 8.92239 21.9672C10.0264 21.7044 10.0679 21.7158 10.2656 21.6344C10.4576 22.461 10.8977 23.2119 11.5258 23.7839C10.5365 25.4468 9.00049 26.72 7.18136 27.3806C6.43207 27.6776 5.63152 27.8305 4.82528 27.8305C4.6105 27.8305 4.3949 27.8191 4.18175 27.798C3.177 27.658 2.3911 27.0178 1.87042 26.1717C0.785934 24.4111 0.691561 21.6539 1.05848 19.629C1.42621 17.5796 2.4334 15.5799 4.17117 14.3652C4.69674 14.0138 5.25728 13.7119 5.84061 13.4662C5.92522 13.5199 6.01634 13.5639 6.11234 13.5956C6.11803 13.5972 6.12454 13.598 6.13105 13.598C6.16359 13.598 6.19288 13.5769 6.20264 13.5452C6.20346 13.5419 6.27424 13.3328 6.27424 13.3287C6.35641 13.3336 6.43695 13.3564 6.50936 13.3946C6.73959 13.5191 6.98122 13.6314 7.22611 13.7274C8.40008 14.1537 9.74978 14.0138 10.5454 12.9854C10.5821 12.9382 10.4999 12.8748 10.4633 12.922C9.73351 13.8242 8.27154 14.1814 6.69485 13.3458C6.57851 13.2751 6.45078 13.2254 6.31654 13.2002C6.38407 13.0407 6.47925 13.1237 6.64522 12.9195C6.72007 12.8276 6.76156 12.7121 6.76156 12.5925C6.76156 12.529 6.74936 12.4656 6.72658 12.407C6.812 12.3362 6.87871 12.2459 6.92265 12.145C6.96088 12.8544 6.8177 13.0416 6.8356 13.2531C6.8356 13.2807 6.85838 13.3035 6.88685 13.3035C6.90475 13.3035 6.92102 13.2946 6.93078 13.2791C6.98773 13.1538 7.02109 13.018 7.0276 12.8797C7.05282 12.7007 7.06583 12.5201 7.06583 12.3395C7.06583 12.0759 7.03817 11.8123 6.98529 11.5552C6.97634 11.5251 6.94868 11.5056 6.91777 11.5056C6.91207 11.5056 6.90638 11.5064 6.90068 11.5072C6.54109 11.6129 6.28156 11.2721 6.27098 10.945C6.26285 10.6847 6.37268 10.3796 6.62244 10.3129C6.65987 10.308 6.69729 10.3055 6.73553 10.3055C6.77865 10.3055 6.82258 10.3088 6.8657 10.3161C6.88929 10.3161 6.90719 10.2974 6.90719 10.2746C6.90719 10.2632 6.90312 10.2527 6.89499 10.2445C6.87221 10.2193 6.84292 10.1998 6.81037 10.1892C6.85431 10.1461 6.88929 10.0948 6.9137 10.0379C7.7777 10.2641 7.70204 10.2575 7.7834 10.26C7.80699 10.3112 7.84035 10.3576 7.88184 10.395C8.06245 10.6058 8.32604 10.727 8.60347 10.727C8.67994 10.727 8.75642 10.718 8.83127 10.6993C9.29093 10.6147 9.68226 10.1729 9.5529 9.69944C9.66436 9.60425 9.80592 9.55219 9.95236 9.55219C9.96944 9.55219 9.98653 9.553 10.0028 9.55463C10.0663 9.71164 10.124 9.87436 10.1745 10.0411C10.2363 10.1998 10.2745 10.3674 10.2867 10.5374C10.2786 10.7969 9.92144 10.7335 9.75222 10.7123C9.68632 10.7042 9.68063 10.8043 9.73676 10.823C9.8108 10.8498 9.8889 10.8637 9.96863 10.8637C10.0825 10.8637 10.1948 10.8352 10.2949 10.7807C10.4397 10.6782 10.4136 10.487 10.3762 10.3365C10.3396 10.1778 10.2973 10.0143 10.2469 9.84995C10.4055 10.0501 10.6463 10.1664 10.9018 10.1664C11.0132 10.1664 11.1231 10.1445 11.2256 10.1013C11.3403 10.9279 11.3753 11.979 10.6439 12.3598C10.3705 12.4826 10.0744 12.5469 9.775 12.5469C9.61798 12.5469 9.46097 12.5298 9.30802 12.4948C8.79303 12.3915 8.3114 12.1605 7.90869 11.8237C7.8558 11.7862 7.80292 11.8651 7.84279 11.9107C8.30733 12.4241 9.35927 12.7755 10.168 12.6429C10.1655 12.66 10.1647 12.6771 10.1647 12.6942C10.1647 12.743 10.1728 12.7918 10.1891 12.839C10.2103 12.9024 10.2444 12.996 10.3233 12.996C10.3429 12.9952 10.36 12.9822 10.3656 12.9643C10.3844 12.9065 10.3372 12.8561 10.316 12.8073C10.2924 12.7479 10.2762 12.6868 10.2656 12.6242C11.4485 12.3809 11.5079 11.2444 11.3362 10.0542C11.7617 9.83205 11.887 9.40168 11.8146 9.20642C11.7357 8.99327 11.4322 8.87286 11.1223 8.86066C11.0556 8.5694 10.9579 8.28384 10.8318 8.01211C10.8253 8.00153 10.8131 7.99502 10.8009 7.99502C10.7806 7.99502 10.7643 8.0113 10.7643 8.03163C10.7643 8.03489 10.7643 8.03814 10.7651 8.0414C10.8497 8.31394 10.927 8.58567 10.9953 8.86147C10.6179 8.87855 10.1859 9.04859 10.1411 9.42446C10.1411 9.42527 10.1411 9.42608 10.1411 9.4269C10.1411 9.43178 10.1403 9.43747 10.1379 9.44317C10.1273 9.43991 10.1143 9.43747 10.1037 9.43503C10.0435 9.2829 9.96619 9.13727 9.87588 9.0014C9.85473 8.96967 9.79697 8.98839 9.80999 9.03069C9.85473 9.16574 9.90517 9.29998 9.95805 9.43259C9.7986 9.44154 9.64565 9.50418 9.52442 9.60995C9.25758 8.98025 8.36347 9.32113 7.99492 9.67341C7.8558 9.79137 7.77038 9.96141 7.7598 10.1436C7.60767 10.0834 7.44984 10.0387 7.28875 10.0118C7.17485 9.985 7.06421 9.96141 6.95356 9.94026C6.96333 9.8768 6.96821 9.81334 6.96821 9.74907C6.96821 9.67503 6.9617 9.601 6.94787 9.52778C7.23424 9.33903 7.40672 9.0193 7.40672 8.67598C7.40672 8.66052 7.4059 8.64425 7.40509 8.62798C7.74191 8.57835 8.03967 8.37984 8.2154 8.08777C8.28455 8.10241 8.35533 8.10974 8.42693 8.10974C8.76374 8.10974 9.08022 7.94702 9.27629 7.67285C9.43005 7.83882 9.64565 7.93319 9.87182 7.93319C10.0231 7.93319 10.1712 7.89007 10.2998 7.81035C10.3787 7.90716 10.4974 7.96411 10.6227 7.96411C10.7139 7.96411 10.8017 7.93401 10.8741 7.87868C10.8863 7.87868 10.8985 7.87299 10.9059 7.86323C10.9783 7.78919 11.023 7.69319 11.0328 7.59068C11.0368 7.56384 11.0385 7.53699 11.0385 7.51014C11.0385 7.27827 10.8969 7.06919 10.6813 6.98376C10.6813 6.97807 10.6813 6.97156 10.6813 6.96587C10.6813 6.53468 10.3648 6.16939 9.93853 6.10593C9.79615 6.08803 9.7091 5.9424 9.59764 5.85779C9.50409 5.78132 9.39588 5.72355 9.28036 5.68857C9.22422 5.67149 9.16564 5.66254 9.10707 5.66254C8.959 5.66254 8.81581 5.71786 8.70598 5.81793C8.51642 5.74145 8.31303 5.70159 8.10882 5.70159C8.00225 5.70159 7.89567 5.71216 7.79153 5.73332C7.56699 5.77725 7.38882 5.94972 7.33675 6.17264C6.53864 6.07989 6.11234 6.58593 6.18312 7.07407C5.92684 7.24329 5.73159 7.49143 5.62827 7.78024C5.60223 7.8616 5.58922 7.94702 5.58922 8.03245C5.58922 8.21387 5.64861 8.39123 5.75925 8.53604C5.5103 8.75001 5.3606 9.05754 5.34596 9.38459C5.34921 9.6433 5.48996 9.88087 5.71369 10.0086C5.68766 10.0501 5.66976 10.0956 5.66081 10.1436C5.56155 10.2958 5.50867 10.474 5.50867 10.6554C5.50867 10.8254 5.55505 10.993 5.64291 11.1386C5.47613 11.2843 5.38094 11.495 5.38094 11.7163C5.38094 11.8212 5.40291 11.9254 5.4444 12.0214C5.45986 12.0555 5.48671 12.0905 5.50216 12.1247C5.52576 12.1824 5.52332 12.1881 5.47288 12.2353C5.30528 12.3777 5.10677 12.4818 4.89362 12.5396C4.86026 12.5485 4.83667 12.5795 4.83667 12.6153C4.83667 12.6283 4.83992 12.6413 4.84643 12.6535C5.10759 13.0204 5.09538 13.0204 5.14501 13.0554C5.25891 13.1294 5.41999 13.0416 5.52576 12.9895C5.78203 12.8764 5.948 12.6234 5.948 12.3435C5.948 12.3395 5.948 12.3362 5.948 12.3329C6.01146 12.3028 6.07085 12.2654 6.12535 12.2215C6.12779 12.2532 6.13268 12.2874 6.13837 12.3191C6.02529 12.4265 5.95695 12.5738 5.948 12.7292C5.9423 12.8195 5.9903 12.9252 5.93417 12.996C5.852 13.0839 5.7625 13.166 5.66732 13.2401C5.65349 13.2531 5.64535 13.2718 5.64535 13.2913C5.64535 13.3109 5.65349 13.3296 5.66732 13.3426C5.68115 13.3564 5.69661 13.3694 5.71288 13.38C5.28901 13.5631 4.87409 13.7762 4.47789 14.0121C2.20967 15.3822 0.496306 18.3509 0.756646 22.6335C0.794884 23.7383 1.05522 24.8285 1.51733 25.8332C1.93225 26.6655 2.57415 27.4278 3.46093 27.7711C5.60305 28.601 9.83927 27.1349 11.6649 23.8148C11.6698 23.805 11.6722 23.7936 11.6722 23.7822C11.6722 23.7643 11.6657 23.7481 11.6535 23.735C11.6104 23.6919 11.6283 23.731 11.6535 23.6879C11.8789 23.347 11.9277 23.238 12.4899 22.9817C13.0333 22.7327 13.4393 22.5415 13.7216 21.9769C13.794 21.7898 13.8916 21.6133 14.0104 21.453C14.1569 21.3139 14.3228 21.1959 14.5018 21.104C14.6824 20.9925 14.8671 20.8892 15.055 20.7891C15.0689 20.7786 15.077 20.7631 15.077 20.7452C15.077 20.7159 15.0534 20.6923 15.0241 20.6923C15.0184 20.6923 15.0127 20.6931 15.007 20.6948ZM10.2998 9.36832C10.3876 9.09822 10.7244 9.00303 11.0059 9.00303C11.2215 9.00303 11.5958 9.04208 11.6722 9.24384C11.7829 9.53917 11.3728 10.0265 10.8684 10.0135C10.5487 10.0005 10.1859 9.71978 10.2998 9.36832ZM7.94936 9.93375C8.17065 9.57415 8.94354 9.21456 9.27629 9.50256C9.69365 9.86297 9.25839 10.7034 8.43588 10.5553C8.17472 10.5049 7.7533 10.2519 7.94936 9.93375Z" fill="#191919"/>
<path fill-rule="evenodd" clip-rule="evenodd" d="M20.6818 24.3603C20.6777 24.331 20.6533 24.3091 20.624 24.3091C20.6175 24.3091 20.6118 24.3107 20.6053 24.3123C20.6322 24.2895 20.633 24.27 20.5785 24.2513C20.3881 24.1667 17.8929 23.9291 17.6025 23.8893C17.5781 23.886 17.5732 23.8893 17.5626 23.8958C17.2844 24.0756 14.1408 26.2031 13.3459 26.7799C13.1238 26.941 12.9066 27.1102 12.6796 27.2639C12.6527 27.2818 12.6405 27.3461 12.6894 27.3567C13.3166 27.4844 15.6288 28.0165 15.6703 27.988C16.265 27.5999 16.8288 27.1525 17.3999 26.7319C18.4372 25.9696 20.1017 24.7525 20.5508 24.3611C20.5492 24.3677 20.5484 24.3733 20.5484 24.379C20.5484 24.3856 20.5492 24.3912 20.5508 24.3969C20.5671 24.4685 20.5931 24.5369 20.5402 24.5979C20.5313 24.6077 15.9965 28.0149 15.9859 28.023C15.8566 28.1206 15.7671 28.2288 15.597 28.1947C15.4189 28.1597 13.0823 27.6252 12.8683 27.5812C12.7837 27.5625 12.7308 27.5438 12.7414 27.438C12.7414 27.3803 12.6487 27.3673 12.6405 27.4201C12.599 27.687 12.8659 27.6894 13.0636 27.7317L15.1585 28.2077C15.3164 28.2524 15.4774 28.2874 15.6402 28.311C15.645 28.311 15.6507 28.311 15.6556 28.311C15.7646 28.311 15.8696 28.2662 15.9436 28.1865C17.0598 27.3404 19.9293 25.2089 20.2441 24.9786C20.3865 24.8916 20.5199 24.7899 20.6436 24.6776C20.7298 24.5849 20.7021 24.4734 20.6818 24.3603Z" fill="#191919"/>
<path fill-rule="evenodd" clip-rule="evenodd" d="M18.237 14.3319C18.2232 14.4433 18.2956 14.4645 18.3908 14.4856C18.6023 14.5328 19.4403 14.7232 19.6502 14.7712C19.7714 14.7972 19.9309 14.8712 20.0472 14.7996C20.2132 14.6939 20.367 14.5596 20.5232 14.4401C20.6924 14.3131 22.387 13.0513 22.5701 12.9195C22.7019 12.8219 22.7922 12.782 22.7605 12.6103C22.7499 12.5518 22.6596 12.5754 22.6702 12.6339C22.697 12.7584 22.514 12.8536 22.4293 12.9171C22.3529 12.9748 20.3271 14.4954 20.1603 14.6223C20.079 14.6833 20.0098 14.7655 19.9016 14.7525C19.782 14.7321 19.6616 14.7061 19.5444 14.6727C19.3272 14.6231 18.6926 14.4799 18.5926 14.4563C18.5259 14.4401 18.3013 14.4319 18.307 14.3319C18.307 14.3123 18.2916 14.2969 18.272 14.2969C18.2525 14.2969 18.237 14.3123 18.237 14.3319Z" fill="#191919"/>
<path fill-rule="evenodd" clip-rule="evenodd" d="M18.7661 14.6786C18.7156 14.8869 18.9068 15.1171 19.0622 15.2343C19.3673 15.4588 19.6699 15.3799 19.8375 15.5963C19.8741 15.6468 19.9587 15.6045 19.9246 15.5459C19.7399 15.2351 19.3225 15.3946 19.0028 15.0464C18.9214 14.9333 18.8596 14.8072 18.8198 14.6729C18.8149 14.664 18.8051 14.6575 18.7945 14.6575C18.7815 14.6575 18.7701 14.6664 18.7661 14.6786Z" fill="#191919"/>
<path fill-rule="evenodd" clip-rule="evenodd" d="M20.1772 14.8897C20.3277 14.9548 20.4514 15.0703 20.5262 15.2159C20.5474 15.2582 20.553 15.2948 20.5929 15.3217C20.6377 15.351 20.7076 15.2477 20.4945 15.0255C20.4147 14.9377 20.3122 14.8742 20.1983 14.8401C20.1699 14.8262 20.1463 14.8759 20.1772 14.8897Z" fill="#191919"/>
<path fill-rule="evenodd" clip-rule="evenodd" d="M22.0775 13.4517C22.1345 13.4964 22.1849 13.5517 22.2248 13.6127C22.2565 13.6599 22.2703 13.7421 22.3232 13.7714C22.3273 13.7738 22.3322 13.7746 22.3371 13.7746C22.3476 13.7746 22.3574 13.7698 22.3623 13.7608C22.3997 13.6973 22.3387 13.6079 22.3021 13.5574C22.2549 13.4891 22.1914 13.4354 22.1166 13.4012C22.084 13.3849 22.0442 13.4272 22.0775 13.4517Z" fill="#191919"/>
<path fill-rule="evenodd" clip-rule="evenodd" d="M22.5884 13.0654C22.6575 13.1403 22.7137 13.2265 22.7552 13.3193C22.7812 13.3852 22.7836 13.473 22.8316 13.5259C22.8422 13.5365 22.8658 13.5365 22.8715 13.5202C22.9081 13.4437 22.8585 13.3429 22.8259 13.2745C22.7796 13.1777 22.7129 13.0923 22.6307 13.0231C22.625 13.0182 22.6177 13.0158 22.6112 13.0158C22.5941 13.0158 22.5811 13.0296 22.5811 13.0459C22.5811 13.0532 22.5835 13.0597 22.5884 13.0654Z" fill="#191919"/>
</svg>
