<?xml version="1.0" encoding="UTF-8"?>
<!DOCTYPE svg PUBLIC "-//W3C//DTD SVG 1.1//EN" "http://www.w3.org/Graphics/SVG/1.1/DTD/svg11.dtd">
<!-- Creator: CorelDRAW -->
<svg xmlns="http://www.w3.org/2000/svg" xml:space="preserve" width="6.2313mm" height="3.0481mm" version="1.1" style="shape-rendering:geometricPrecision; text-rendering:geometricPrecision; image-rendering:optimizeQuality; fill-rule:evenodd; clip-rule:evenodd"
viewBox="0 0 4.53 2.21"
 xmlns:xlink="http://www.w3.org/1999/xlink"
 xmlns:xodm="http://www.corel.com/coreldraw/odm/2003">
 <defs>
  <style type="text/css">
   <![CDATA[
    .fil0 {fill:black}
   ]]>
  </style>
 </defs>
 <g id="Layer_x0020_1">
  <metadata id="CorelCorpID_0Corel-Layer"/>
  <g id="_1931892288">
   <path class="fil0" d="M2.56 1.17l0.28 -0.01c0.01,0.33 0,0.28 0.69,0.28 1.02,0 0.5,0.04 0.88,0.11l0 0.54 -1.85 0 -0 -0.93zm0.39 -0.28l1.28 -0c0.05,-0.06 0.05,-0.11 0.17,-0.12l-0 0.66c-0.34,-0.06 0.17,-0.11 -0.66,-0.11 -0.26,-0 -0.53,-0 -0.79,-0l-0.01 -0.44zm-0.39 -0.77l1.85 0c0,0.77 0.02,0.44 -0.17,0.59 -0.09,0.08 -0.03,0.06 -0.19,0.06 -0.17,-0 -0.33,-0 -0.5,-0 -0.71,0 -0.69,-0.06 -0.71,0.28l-0.28 -0.01 0 -0.93zm-0.11 -0.1l-0 2.18c0.15,0.03 1.33,0.01 1.64,0.01 0.09,0 0.18,0 0.28,0 0.14,0 0.15,-0.01 0.15,-0.15l0 -1.91c0,-0.19 -0.02,-0.15 -0.41,-0.15 -0.24,0 -1.62,-0.01 -1.66,0.01z"/>
   <path class="fil0" d="M0.11 0.36l0.85 0c0.05,0.11 0.18,0.27 0.2,0.31 0.02,0.04 0.05,0.8 -0.03,0.93 -0.03,0.06 -0.07,0.11 -0.1,0.16 -0.02,0.03 -0.02,0.05 -0.05,0.08 -0.05,0.07 -0.01,0.03 -0.06,0.05l-0.81 -0 0 -1.53zm1.17 0.37l0.27 0.01 0 0.75 -0.27 0 0 -0.76zm0.39 0.05l0.47 0.32c-0.03,0.04 -0.42,0.3 -0.47,0.33l0 -0.65zm-1.68 -0.44l0 1.54c0,0.17 0.03,0.12 0.44,0.12 0.18,0 0.4,0.01 0.58,-0 0.03,-0.07 0.19,-0.34 0.25,-0.4 0.09,-0 0.29,0.01 0.36,-0.01l0.68 -0.47c0.02,-0.07 -0.1,-0.12 -0.19,-0.18 -0.08,-0.05 -0.15,-0.1 -0.23,-0.15 -0.28,-0.19 -0.19,-0.17 -0.6,-0.17 -0.07,-0.03 -0.23,-0.3 -0.27,-0.37l-0.91 -0c-0.1,0 -0.11,-0 -0.11,0.1z"/>
  </g>
 </g>
</svg>
