<svg width="33" height="33" viewBox="0 0 33 33" fill="none" xmlns="http://www.w3.org/2000/svg">
<path fill-rule="evenodd" clip-rule="evenodd" d="M30.0885 27.4509C30.0885 30.1767 26.4038 31.1712 25.106 28.5802C23.9964 26.365 26.4523 24.0785 28.4904 25.0579C28.7207 25.1686 28.912 25.2433 29.0923 25.4028C29.6725 25.9163 30.0885 26.5656 30.0885 27.4509ZM25.2878 23.5261C24.7571 23.5261 24.4718 23.0525 24.2059 23.0525C23.9899 23.0525 23.0565 24.1225 23.0565 24.1352C23.0565 24.4334 24.1635 25.516 23.0058 26.3175C22.7929 26.465 22.7497 26.4656 22.4496 26.5052C21.8253 26.5877 21.9746 26.7443 21.9746 28.0599C21.9746 28.2974 22.1588 28.36 22.377 28.4016C22.6439 28.4526 22.7161 28.4476 22.9464 28.5761C23.2329 28.736 23.5298 29.1481 23.5298 29.5486C23.5298 30.7639 22.4623 30.2805 23.5128 31.325C24.5015 32.308 24.1163 31.6981 25.0299 31.4505C25.6502 31.2823 26.3365 31.6677 26.4747 32.2178C26.681 33.0384 26.3542 32.9997 27.9248 32.9997C28.6853 32.9997 28.1413 32.1048 28.9075 31.6148C29.1778 31.4419 29.5364 31.3749 29.8258 31.4308C30.7949 31.6178 30.3691 32.3468 31.3563 31.3588C31.6854 31.0295 31.8465 31.0155 31.8465 30.6313C31.8465 30.4563 31.7354 30.435 31.6336 30.303C31.3391 29.9214 31.3456 29.3603 31.5861 28.9497C32.0708 28.1221 32.996 28.698 32.996 27.9246C32.996 26.5282 33.0949 26.646 32.2708 26.485C31.5788 26.3499 31.1127 25.4011 31.6148 24.6476C31.9752 24.1069 31.9784 24.1672 31.3563 23.5431C30.259 22.4421 30.7404 23.5261 29.6152 23.5261C29.1443 23.5261 28.7942 23.2713 28.5973 22.9885C27.9306 22.031 29.2096 21.9698 26.8429 21.9698C26.2587 21.9698 26.8353 23.5261 25.2878 23.5261Z" fill="#2B2A29"/>
<path fill-rule="evenodd" clip-rule="evenodd" d="M9.33154 20.6841C11.2078 21.6777 13.3297 23.0411 15.1697 24.0443C15.4696 24.2078 15.7661 24.3673 16.0255 24.5412V16.6917C15.7167 16.6197 13.0533 15.0194 12.6914 14.8179C12.3697 14.6387 9.57318 12.9668 9.33154 12.9022V20.6841Z" fill="#2B2A29"/>
<path fill-rule="evenodd" clip-rule="evenodd" d="M21.5696 14.0527C21.5696 14.4933 21.6395 17.0885 21.4997 17.4338C21.3711 17.7511 20.9427 17.9067 20.6462 18.0682C19.7789 18.5407 19.0309 19.268 18.7297 18.6541C18.5886 18.3662 18.6621 16.1366 18.6621 15.812C18.221 15.9148 17.4009 16.5916 16.9717 16.6917V24.5412L23.6656 20.6841V12.9022C23.2728 13.0072 21.9231 13.9582 21.5696 14.0527Z" fill="#2B2A29"/>
<path fill-rule="evenodd" clip-rule="evenodd" d="M1.42019 15.2706C1.70918 15.2706 2.21197 14.8337 2.56968 14.5939C2.56968 15.2892 2.43449 15.912 2.43449 16.8271C2.43449 19.778 3.50266 22.9036 5.168 25.1213L5.88289 26.0299C5.88289 26.3809 5.79432 26.4376 5.86139 26.7226C6.11793 27.8126 7.07894 27.5863 7.37037 27.5863C7.48321 27.5863 8.12582 28.1363 8.26866 28.2437C8.61634 28.505 8.84637 28.6688 9.23429 28.9013C12.7008 30.9781 16.7622 31.6449 20.7831 30.4532C21.1474 30.3452 21.705 30.2335 21.705 29.8193C21.705 29.3326 21.3251 29.2265 20.9192 29.3661C18.0592 30.3495 14.2126 30.2522 11.5176 28.9846C10.4296 28.4729 9.79676 28.1595 8.84736 27.4615C8.56609 27.2547 8.32419 27.0279 8.04661 26.8419C8.31614 25.684 7.22053 25.1357 6.6266 25.4208L5.46346 23.8106C5.06723 23.2215 4.80436 22.6258 4.48556 21.9471C3.72405 20.3255 3.23695 17.4234 3.49626 15.4536C3.52884 15.2059 3.57962 14.8548 3.58391 14.6617C3.78275 14.8075 4.06085 15.3265 4.24564 15.5562C4.47983 15.8473 5.13905 15.9434 5.13905 15.2706C5.13905 14.9335 4.20245 13.8226 3.96259 13.4707C3.29552 12.4914 3.08046 13.0622 1.74492 13.9716C1.56099 14.0968 1.14195 14.3768 1.03406 14.5524C0.843402 14.8628 1.0851 15.2706 1.42019 15.2706Z" fill="#2B2A29"/>
<path fill-rule="evenodd" clip-rule="evenodd" d="M11.7651 3.63171C11.7651 4.82301 13.3797 3.42876 16.2278 3.42876C18.3206 3.42876 20.1354 3.61171 21.9525 4.46641C22.9579 4.9393 23.739 5.33979 24.6228 5.9895C24.904 6.19627 25.1459 6.42305 25.4236 6.6091C25.0426 7.40355 26.0497 8.4113 26.8434 8.03015C27.0294 8.30794 27.256 8.5501 27.4626 8.83159C28.0628 9.64926 28.6116 10.6233 28.9976 11.5585C29.7269 13.3253 30.2563 15.8518 29.9738 17.9974C29.9412 18.2451 29.8905 18.5962 29.8862 18.7893C29.6874 18.6436 29.4093 18.1246 29.2245 17.8949C28.9903 17.6037 28.3311 17.5076 28.3311 18.1804C28.3311 18.489 28.8898 19.1216 29.0853 19.3879C29.9852 20.6138 29.8224 20.8112 30.9814 20.0208C31.2567 19.8331 31.4521 19.6654 31.7252 19.4794C31.9139 19.351 32.3251 19.082 32.4302 18.8918C32.5953 18.593 32.3813 18.1804 32.0499 18.1804C31.7471 18.1804 31.1396 18.6968 30.9004 18.8571C30.9004 18.1536 31.0357 17.5361 31.0357 16.7593C31.0357 14.7197 30.601 12.8931 30.0118 11.4231C29.4251 9.95959 28.8611 9.07434 27.9552 7.86495C27.8837 7.76938 27.5873 7.4508 27.5873 7.4211C27.5873 7.07011 27.6758 7.01335 27.6087 6.72837C27.3522 5.63844 26.3912 5.86482 26.0997 5.86482C25.9279 5.86482 25.7997 5.66128 25.6659 5.55449L24.2358 4.54977C23.5483 4.13839 22.9104 3.7882 22.1299 3.47688C19.1701 2.29647 15.8636 2.05636 12.6869 2.99785C12.3227 3.10576 11.7651 3.21756 11.7651 3.63171Z" fill="#2B2A29"/>
<path fill-rule="evenodd" clip-rule="evenodd" d="M2.70459 5.32339C2.70459 7.28742 3.61284 7.02652 3.71889 8.30078H4.86831V6.40605C4.86831 5.95838 3.78648 6.09361 3.78648 5.25567C3.78648 5.09067 3.94331 4.91736 4.19213 4.91736C4.59871 4.91736 5.06695 5.45876 5.34163 5.45876C5.52358 5.45876 6.18716 4.91736 6.42352 4.91736C6.92058 4.91736 6.89683 5.23693 6.89683 5.45876C6.89683 5.8805 5.81494 6.03104 5.81494 6.40605V8.30078C7.53087 8.30078 6.57982 8.42908 7.45048 7.09549C7.94872 6.33233 7.97866 6.24831 7.97866 5.32339C7.97866 4.11618 6.75076 2.88733 5.54448 2.88733H5.13877C3.91653 2.88733 2.70459 4.0946 2.70459 5.32339Z" fill="#2B2A29"/>
<path fill-rule="evenodd" clip-rule="evenodd" d="M14.4028 9.38355C14.594 9.64465 17.2512 11.0862 17.6614 11.3329L20.4438 12.9468C20.5842 13.0233 20.9084 13.2392 21.0065 13.2653C21.2278 13.3241 21.2319 13.2236 21.5701 13.0378L22.6808 12.3899C22.9529 12.2305 23.0278 12.2693 23.1929 12.0226L16.499 8.16559C16.1762 8.3818 15.8211 8.55116 15.4713 8.76111C15.1126 8.9764 14.7625 9.19308 14.4028 9.38355Z" fill="#2B2A29"/>
<path fill-rule="evenodd" clip-rule="evenodd" d="M9.80469 12.0225C9.9966 12.3092 15.4271 15.3315 15.97 15.6644C16.5145 15.9984 16.4829 15.9984 17.0274 15.6644C17.2634 15.5196 17.8804 15.1238 18.1214 15.0676C18.052 14.8074 18.0678 14.9059 17.8091 14.7712C16.5171 14.0985 14.5561 12.8803 13.1821 12.0936C10.9584 10.8203 11.8539 10.9374 9.80469 12.0225Z" fill="#2B2A29"/>
<path fill-rule="evenodd" clip-rule="evenodd" d="M3.5161 9.31585C3.39864 9.82029 3.4485 10.0673 3.4485 10.6692C3.4485 11.0738 4.02562 11.0751 4.32747 11.0751C4.32747 12.0411 4.28335 11.8871 6.01787 11.8871C6.40209 11.8871 6.35593 11.3189 6.35593 11.0751C7.40596 11.0751 7.23496 10.856 7.23496 9.58645C7.23496 9.3672 6.94109 9.18042 6.69405 9.18042C5.90497 9.18042 4.01038 9.07053 3.5161 9.31585Z" fill="#2B2A29"/>
<path fill-rule="evenodd" clip-rule="evenodd" d="M12.3735 10.5338C12.4994 10.7057 13.7323 11.3691 14.0086 11.5365C14.5705 11.8769 15.1276 12.165 15.6828 12.5001C16.2294 12.8299 16.7869 13.1228 17.3558 13.4649L19.0675 14.4585C19.3553 14.3061 19.9916 14.0177 20.1493 13.7818C19.9146 13.7271 18.7417 13.0029 18.4554 12.838C17.8925 12.5137 17.3451 12.2132 16.7815 11.8742C16.2116 11.5313 15.6887 11.2554 15.1069 10.911L13.4554 9.9248C13.121 10.1488 12.7395 10.34 12.3735 10.5338Z" fill="#2B2A29"/>
<path fill-rule="evenodd" clip-rule="evenodd" d="M19.541 15.203V17.6389C19.907 17.4452 20.2885 17.254 20.6229 17.03V14.6616C20.2566 14.7594 19.9443 15.1089 19.541 15.203Z" fill="#2B2A29"/>
<path fill-rule="evenodd" clip-rule="evenodd" d="M3.44813 1.93991C3.44813 1.73063 3.05329 1.06224 2.92041 0.910708C2.58249 0.5254 2.02238 0.874078 2.0477 1.25206C2.05641 1.38281 2.47881 2.13659 2.58499 2.26331C2.88328 2.61905 3.44813 2.47656 3.44813 1.93991Z" fill="#2B2A29"/>
<path fill-rule="evenodd" clip-rule="evenodd" d="M8.92529 3.69941C8.92529 3.92744 9.10428 4.17309 9.46621 4.17309C9.54818 4.17309 11.1976 3.58404 10.5019 2.93203C10.1953 2.6446 9.91413 2.8523 9.61406 3.03539C9.36636 3.18659 8.92529 3.33483 8.92529 3.69941Z" fill="#2B2A29"/>
<path fill-rule="evenodd" clip-rule="evenodd" d="M7.23535 1.93991C7.23535 2.60486 7.87004 2.52559 8.09948 2.26384C8.31685 2.01594 8.58763 1.48068 8.58763 1.12791C8.58763 0.993336 8.11056 0.242519 7.57565 1.1978C7.42166 1.47269 7.23535 1.71036 7.23535 1.93991Z" fill="#2B2A29"/>
<path fill-rule="evenodd" clip-rule="evenodd" d="M0 3.29334C0 3.64333 0.894334 4.17298 1.35228 4.17298C1.59728 4.17298 1.77258 3.83262 1.72127 3.60057C1.63382 3.20575 0.625658 2.7955 0.528251 2.79015C0.300925 2.77741 0 3.02082 0 3.29334Z" fill="#2B2A29"/>
<path fill-rule="evenodd" clip-rule="evenodd" d="M4.86826 0.383491C4.86826 1.20552 4.72344 1.80447 5.34158 1.80447C5.95972 1.80447 5.81489 1.20552 5.81489 0.383491C5.81489 -0.128075 4.86826 -0.128075 4.86826 0.383491Z" fill="#2B2A29"/>
</svg>
