<svg width="37" height="38" viewBox="0 0 37 38" fill="none" xmlns="http://www.w3.org/2000/svg">
<g clip-path="url(#clip0_318_1865)">
<path fill-rule="evenodd" clip-rule="evenodd" d="M0 14.9177V15.4598C0.786668 16.0012 2.98414 16.4165 4.12347 16.7293C5.03062 16.9782 5.55727 17.3517 5.75601 16.2445C6.89834 9.87954 12.7005 5.32152 19.3067 5.74894C28.4828 6.34258 34.2796 16.399 29.7113 24.5236C28.4407 26.7832 26.6508 28.5405 24.2535 29.7704C23.0723 30.3764 21.6698 30.8442 20.1668 31.0477C18.9057 31.2185 16.2106 31.2805 15.2443 30.685C15.3806 29.4008 16.3088 28.0554 15.1908 27.9137L9.4241 28.1222C8.44161 28.1686 3.45282 28.1339 2.99214 28.4992C2.57997 28.8377 2.80439 29.2355 3.18911 29.3948C3.38478 29.2035 3.23886 29.34 3.55538 29.1655L3.61973 29.4244C3.62219 29.4337 3.63027 29.4618 3.63242 29.4699L3.65241 29.5455C3.99 29.4656 3.96986 29.6014 4.03636 29.6395C4.15984 29.3995 4.26194 29.8846 4.03683 29.1655L4.4686 29.6395C4.37319 29.2504 4.45199 29.3191 4.22903 29.0223L4.54218 29.1724C4.72278 29.2066 5.63384 29.0917 6.1169 29.2241C6.93624 29.3792 9.32561 29.1636 10.2941 29.1275C11.7053 29.0746 13.1148 29.015 14.5178 28.9761C14.214 31.3161 13.0431 31.4338 15.9832 31.9814C23.4546 33.373 30.6853 28.3876 32.1023 20.9975C33.913 11.5543 25.498 3.15012 15.9092 4.89668C12.7754 5.46752 10.4006 6.90536 8.65412 8.64979C6.68076 10.6208 5.62546 12.3414 4.74907 15.7914L1.17969 14.8468C1.21952 13.6045 2.45565 10.8815 2.98176 9.97546C9.8149 -1.79337 26.1742 -1.74116 33.1548 9.02857C40.6197 20.5456 32.2417 35.717 18.5481 35.8532C15.2439 35.886 13.8316 35.1775 13.2509 35.1345C12.5579 35.083 12.7275 35.4319 12.7275 35.4323C12.7575 35.7132 12.6877 35.9071 12.6862 36.2895C13.4171 36.1559 13.3246 36.0399 12.8784 35.8145C12.9088 35.8219 12.9537 35.7867 12.972 35.819L13.6949 35.9979C13.7138 36.0082 13.7383 36.0208 13.7562 36.0316C13.7808 36.0464 13.8473 36.0842 13.8691 36.1017C14.1086 36.2945 14.0171 36.154 14.0944 36.3987C14.6864 36.73 17.6225 36.8931 18.5481 36.8864C27.3566 36.8234 34.8923 30.6059 36.6196 22.1376C36.7467 21.5144 36.7635 20.4319 37 19.9308V16.9251C36.6086 16.0697 36.9335 10.8786 31.5799 5.45368C30.3303 4.18745 28.65 2.87538 26.6205 1.90388C23.106 0.221464 20.6052 0.303088 19.9698 0H16.917C16.5788 0.144932 14.2458 0.439204 13.5193 0.631788C7.16774 2.3142 2.19817 7.1937 0.411786 13.4291C0.280316 13.8879 0.217733 14.533 0 14.9177Z" fill="#2B2A29"/>
<path fill-rule="evenodd" clip-rule="evenodd" d="M25.6805 17.3363L26.8734 17.4116L26.9111 19.82L25.6881 19.9094C25.1966 20.0954 25.4068 20.6983 24.7747 21.8282C24.0865 23.0586 24.4671 22.8336 25.1627 23.6551C25.007 23.9962 23.8011 25.1327 23.5455 25.2578C22.6663 24.5755 22.9851 24.1745 21.7101 24.8795C21.2268 25.1467 19.9495 25.3693 19.7059 25.7971L19.6864 26.945L17.2326 26.9789C17.1246 26.4387 17.2657 26.127 17.0809 25.6229C16.8108 25.4277 15.6467 25.1492 15.1241 24.8522C13.9805 24.2021 14.1262 24.6113 13.3585 25.266L11.6365 23.685C12.7975 22.4356 12.5776 23.0319 11.8218 21.2786C11.4646 20.4501 11.5884 20.0402 11.1187 19.9103L10.0235 19.8472L9.99962 17.4307L11.1541 17.3614C11.4546 17.2248 11.4194 17.1531 11.5463 16.7413C11.6393 16.4393 11.7148 16.2163 11.8171 15.957C12.0413 15.3886 12.4416 14.9123 12.4151 14.2926C12.1281 14.0399 11.8949 13.8643 11.6942 13.585L13.3412 11.8989C14.7246 12.9034 13.7686 12.9285 15.496 12.1871C17.0849 11.505 17.2079 12.1723 17.2638 10.3254L19.6378 10.321C19.7182 11.7193 19.4341 11.4914 20.7153 11.9157C22.9312 12.6497 22.1146 13.1746 23.5171 11.9062C23.9641 12.2325 25.0329 13.2913 25.1552 13.585C24.4465 14.4774 24.0844 13.9987 24.7575 15.3325C24.9225 15.6594 25.0852 15.9913 25.1935 16.3295C25.3511 16.8221 25.2896 17.173 25.6805 17.3363ZM16.1848 10.7878L14.4282 11.4987C13.2315 10.0201 13.1029 10.6497 11.7433 11.987C11.4198 12.3052 10.7856 12.8605 10.5401 13.1773C10.0237 13.8437 10.8536 14.2242 11.2227 14.63L10.5337 16.3976C9.94734 16.4196 9.49896 16.2907 9.11408 16.625C8.91934 16.9822 8.93287 20.1443 9.07318 20.5637C9.39978 21.0759 9.8866 20.7694 10.5715 20.9208L11.255 22.6159C9.74875 23.8077 10.3821 23.9644 11.752 25.2442C14.1044 27.4419 13.1802 26.4923 14.5117 25.7175C14.8057 25.8272 14.9873 25.9491 15.3156 26.0926C15.5867 26.2111 15.9286 26.2827 16.2036 26.4311C16.2481 28.3777 15.9624 27.9797 19.1248 27.9834C21.199 27.9856 20.4715 28.0348 20.7585 26.41L22.5302 25.6942C23.412 27.3349 24.2037 26.1512 24.6056 25.7474C24.9845 25.3668 26.3161 24.196 26.4795 23.75C26.4263 23.2594 25.9749 22.8475 25.6152 22.6684C25.6769 22.3808 26.2748 21.0042 26.3691 20.8543C28.2858 20.8631 27.9181 21.0626 27.9187 17.385C27.9188 16.3387 27.7889 16.412 26.3557 16.3981C26.2494 16.2027 25.6672 14.8069 25.631 14.63C26.5333 13.5165 27.0264 13.9614 25.6543 12.5458C23.7145 10.5442 23.6841 10.004 22.4834 11.4736L20.7221 10.7821C20.6702 10.184 20.8744 9.49226 20.3541 9.31829C20.0813 9.22717 18.827 9.27467 18.452 9.27467C18.0575 9.27467 16.9432 9.2261 16.631 9.29884C16.0123 9.44286 16.2403 10.1376 16.1848 10.7878Z" fill="#2B2A29"/>
<path fill-rule="evenodd" clip-rule="evenodd" d="M22.8288 19.285C22.4397 21.4323 20.4368 23.3943 17.7211 22.9443C15.4796 22.5728 13.6425 20.4167 14.1037 17.8425C14.4931 15.6689 16.5244 13.8057 19.1635 14.2341C21.2615 14.5747 23.2992 16.6898 22.8288 19.285ZM17.7232 13.1967C14.9032 13.6339 12.6141 16.0233 13.0281 19.3198C13.3742 22.0763 15.9894 24.4718 19.2688 23.9884C22.0036 23.5852 24.3608 20.9643 23.8793 17.8048C23.4712 15.1279 20.9342 12.6989 17.7232 13.1967Z" fill="#2B2A29"/>
<path fill-rule="evenodd" clip-rule="evenodd" d="M3.18896 29.3948C3.42184 29.8135 6.85698 33.1051 7.48988 33.7308C8.2348 34.4669 8.9073 35.1318 9.65161 35.8688C10.3377 36.5483 11.1572 37.2608 11.7918 38H12.2708C12.5583 37.5484 13.12 36.7997 13.3264 36.2734L14.0943 36.3987C14.017 36.154 14.1084 36.2945 13.869 36.1018C13.8471 36.0842 13.7807 36.0464 13.7561 36.0316C13.7382 36.0208 13.7136 36.0082 13.6947 35.9979L12.9718 35.819C12.9536 35.7867 12.9086 35.8219 12.8782 35.8145C13.3245 36.0399 13.417 36.1559 12.686 36.2895C12.6876 35.9071 12.7574 35.7132 12.7273 35.4323C12.4836 35.6195 12.4824 35.6818 12.2979 35.9992C12.1732 36.2139 12.0993 36.3602 11.9167 36.5704C11.4856 36.3693 8.90438 33.6697 8.22435 33.0055C7.58914 32.3852 4.82066 29.7537 4.62322 29.3608C5.06253 29.3191 5.81122 29.4046 6.11675 29.2241C5.63369 29.0917 4.72263 29.2067 4.54203 29.1725L4.22889 29.0223C4.45185 29.3191 4.37304 29.2504 4.46845 29.6395L4.03668 29.1655C4.26179 29.8846 4.15969 29.3995 4.03622 29.6395C3.96971 29.6014 3.98986 29.4656 3.65226 29.5455L3.63227 29.4699C3.63012 29.4618 3.62205 29.4337 3.61959 29.4244L3.55524 29.1655C3.23871 29.34 3.38463 29.2035 3.18896 29.3948Z" fill="#2B2A29"/>
<path fill-rule="evenodd" clip-rule="evenodd" d="M25.6883 19.9094L26.9113 19.82L26.8736 17.4116L25.6807 17.3363C25.8161 17.5942 26.48 17.4859 26.8078 17.5019L26.8178 19.7441L25.9483 19.7606C25.4758 19.8245 25.8251 19.7615 25.6883 19.9094Z" fill="#2B2A29"/>
<path fill-rule="evenodd" clip-rule="evenodd" d="M11.1186 19.9104C11.0018 19.6737 10.3892 19.7767 10.0915 19.7555L10.0922 17.5098C10.305 17.4976 10.4794 17.5084 10.6728 17.5008C11.0347 17.4866 11.0169 17.488 11.154 17.3614L9.99951 17.4307L10.0233 19.8472L11.1186 19.9104Z" fill="#2B2A29"/>
</g>
<defs>
<clipPath id="clip0_318_1865">
<rect width="37" height="38" fill="white"/>
</clipPath>
</defs>
</svg>
