<svg width="35" height="36" viewBox="0 0 35 36" fill="none" xmlns="http://www.w3.org/2000/svg">
<g clip-path="url(#clip0_318_1918)">
<path fill-rule="evenodd" clip-rule="evenodd" d="M16.7979 19.1439H18.2188C18.2138 20.2766 18.2163 21.4111 18.2167 22.5452C18.2171 24.0083 18.4999 24.7266 17.5 25.231C16.5194 24.6403 16.7993 24.0441 16.7998 22.5452C16.8002 21.4116 16.8025 20.2775 16.7979 19.1439ZM14.0192 12.0361L15.0321 12.0341C15.0275 12.9558 14.8962 14.5451 15.2137 15.197L15.9161 15.2534C16.2469 14.477 16.0938 13.0313 16.0943 12.0127L16.977 12.0166C16.9875 12.8993 16.9832 13.7806 16.9802 14.6614C16.9782 15.2451 16.7199 16.6514 17.502 16.6621C18.297 16.673 18.0397 15.2438 18.0382 14.6614C18.036 13.7824 18.0348 12.9025 18.0395 12.0234L18.9159 12.0507C18.9297 13.0553 18.7313 14.4468 19.0988 15.208L19.8008 15.2398C20.1729 14.4608 19.9716 13.0458 19.9855 12.0843L20.9928 12.006C21.026 13.5265 21.0594 15.256 21.0068 16.7449C20.9467 18.4492 19.7984 18.0482 17.5 18.0482C16.7819 18.0482 15.8995 18.0961 15.202 18.0487C14.3481 17.9908 14.0781 17.7111 14.0176 16.8767C13.9148 15.4606 14.0023 13.4993 14.0192 12.0361ZM22.5851 1.12018C22.6077 3.64939 22.5769 6.18437 22.5873 8.71459C22.5984 11.4124 22.3147 10.9202 17.5 10.9202C12.3558 10.9202 12.4171 11.398 12.4247 8.57592C12.4314 6.09739 12.404 3.61296 12.4293 1.09469L22.5851 1.12018ZM0 0.32292V0.797112C0.831224 1.41415 4.13552 1.09397 5.51928 1.09397C7.46518 1.09397 9.41115 1.09397 11.3571 1.09397C11.3758 3.21682 11.3614 5.3455 11.3614 7.46899C11.3614 9.12823 11.0777 10.602 12.1062 11.4874C12.3911 11.7328 12.339 11.6238 12.6014 11.8078C12.8768 12.0008 12.8085 11.8653 12.9513 12.1717C12.9513 13.6681 12.8375 15.6984 12.9599 17.1299C13.0943 18.7026 14.1918 19.0997 15.7284 19.155L15.7686 25.0698C17.4814 26.383 16.741 27.5163 18.7651 25.5047C19.9142 24.3626 18.8859 22.1865 19.3244 19.1633C20.8839 19.0521 21.9518 18.6754 22.0565 17.014C22.1572 15.4125 22.0006 13.6636 22.079 12.0334C22.6859 11.5365 23.339 11.3846 23.5818 10.4018C23.7406 9.75917 23.6492 2.15906 23.6577 1.09231C25.5987 1.09159 27.5397 1.09123 29.4807 1.09123C30.7928 1.09123 34.24 1.40638 35 0.82116V0.303408L34.7016 0H0.306086L0 0.32292Z" fill="#2B2A29"/>
<path fill-rule="evenodd" clip-rule="evenodd" d="M5.57416 25.7712L8.75015 25.7024C9.54578 25.7046 9.64031 26.0711 10.4794 26.9922C10.9905 27.5533 11.4087 27.9964 11.92 28.5554L14.1553 30.8224C14.5778 31.2982 14.5854 31.2433 15.3463 31.2432L19.9231 31.2423C20.7892 31.2411 20.99 30.6217 21.6184 30.0957L25.2482 26.2187C25.5661 25.859 25.6012 25.7014 26.2501 25.7014L29.4371 25.7445L29.4356 34.8279L5.57409 34.8816L5.57416 25.7712ZM30.2401 24.6784C29.7094 24.5717 26.1411 24.5394 25.5778 24.6215C24.8729 24.7242 23.6708 26.3149 23.1724 26.8514C19.5322 30.7703 20.9527 30.153 17.2309 30.153C14.1782 30.153 15.3753 30.6584 11.5742 26.5581C10.2761 25.158 10.1277 24.6025 8.89219 24.6021C8.05921 24.6017 4.90362 24.39 4.59921 24.9152C4.36425 25.3205 4.51645 33.1295 4.50826 34.3048C4.49445 36.28 4.35304 35.9611 7.40395 35.9611C9.2364 35.9611 29.9613 36.0807 30.2354 35.9005C30.8073 35.0663 30.4982 31.6724 30.4982 30.2909C30.4982 28.8854 30.8089 25.5553 30.2401 24.6784Z" fill="#2B2A29"/>
<path fill-rule="evenodd" clip-rule="evenodd" d="M22.4064 25.3728C25.2345 22.9101 23.6203 22.4246 22.7692 23.3952C21.5182 24.8216 19.614 26.6314 18.8973 27.7031L16.1093 27.6895C15.4667 26.6751 14.1333 25.5504 13.4487 24.7742C12.9999 24.2653 12.6408 23.8091 12.1804 23.307C11.3908 22.446 10.612 23.1077 11.2601 23.9657L15.2571 28.3099C15.9409 29.0193 16.4421 28.7916 17.5002 28.7923C18.9834 28.7935 19.0197 28.9984 19.8077 28.237C20.6024 27.4692 21.7258 25.9655 22.4064 25.3728Z" fill="#2B2A29"/>
<path fill-rule="evenodd" clip-rule="evenodd" d="M14.0121 3.73444L14.0107 6.22406C14.0106 7.47297 15.5731 8.51409 14.9958 2.85208C14.1184 2.57049 14.0134 2.81551 14.0121 3.73444Z" fill="#2B2A29"/>
<path fill-rule="evenodd" clip-rule="evenodd" d="M14.2712 8.14136C14.2459 8.15965 13.8241 8.3066 14.0474 8.93588C14.1621 9.25909 14.5133 9.42937 14.8588 9.19349C15.3177 8.88008 15.0278 7.59596 14.2712 8.14136Z" fill="#2B2A29"/>
<path fill-rule="evenodd" clip-rule="evenodd" d="M0 0.32292L0.306086 0H0V0.32292Z" fill="#2B2A29"/>
<path fill-rule="evenodd" clip-rule="evenodd" d="M35 0.303408V0H34.7017L35 0.303408Z" fill="#2B2A29"/>
</g>
<defs>
<clipPath id="clip0_318_1918">
<rect width="35" height="36" fill="white"/>
</clipPath>
</defs>
</svg>
