<svg width="32" height="32" viewBox="0 0 32 32" fill="none" xmlns="http://www.w3.org/2000/svg">
<path fill-rule="evenodd" clip-rule="evenodd" d="M20.9459 16.1742C21.2589 16.3838 21.0357 17.9452 20.9963 18.196L20.6345 18.166C20.4908 17.9578 20.2515 15.9399 20.7842 16.0248C21.1055 16.076 20.9061 15.9968 20.9459 16.1742ZM22.0871 17.8533C22.0461 18.063 22.1099 18.168 21.8612 18.2066C21.7062 18.2307 21.6037 18.071 21.5664 17.9891C21.4958 17.834 21.1901 15.5904 22.7115 16.1012C23.2047 16.2668 24.6245 15.1929 24.309 18.1857L24.0612 18.4285C24.0605 18.4462 24.1001 18.5215 24.1084 18.5458C23.5194 18.5458 23.2474 18.6228 22.6415 18.6228C22.4787 18.1744 22.8319 18.9972 22.5527 18.4742C22.3477 18.09 22.403 18.1514 22.4723 17.9451C22.5606 17.6828 22.5182 18.0614 22.6245 17.6188C22.6563 17.4864 22.6411 17.2974 22.6411 17.1605C22.4685 17.3372 22.4301 17.2493 22.4103 17.853L22.2554 17.2372C22.2684 17.4985 22.4637 18.0235 22.0871 17.8533ZM21.6552 12.29L21.5818 12.5447C21.5682 12.6388 21.5742 12.7503 21.5674 12.8501C21.5207 13.5382 21.2294 13.5419 20.9232 13.9052C21.3512 13.9883 21.6307 14.1777 21.7618 14.5809C21.9725 15.2287 21.6642 15.4226 21.4974 15.584C21.5241 15.0015 21.8143 14.8564 21.3358 14.3745C21.2125 14.4268 21.0496 14.2493 21.3288 14.5186C21.3493 14.7294 21.5402 14.9127 21.4468 15.2717C21.3856 15.5069 21.1666 15.6942 20.9165 15.7441C20.2191 15.8831 20.0725 15.4487 19.8785 15.1413C19.8002 15.0172 19.8605 15.0848 19.7684 14.9953C19.5204 15.219 19.2695 15.5274 18.9771 15.643L18.8377 15.8876L18.959 15.9639C19.2648 16.0878 19.5209 15.9576 19.7704 16.0246C20.1271 16.1204 20.0049 16.3401 19.9036 16.6159L18.8911 16.641C18.8913 17.042 18.8229 17.2342 19.0135 17.5441C19.8039 17.7366 19.026 16.883 19.9921 16.9784C20.0304 17.7151 19.7848 18.3881 18.8747 18.1565C18.2613 18.0004 18.3239 17.2772 18.3187 16.9253C18.3169 16.8081 18.3176 16.7459 18.2931 16.632C18.2599 16.4775 18.2674 16.5234 18.2198 16.4529L18.1694 16.4272C18.0469 16.6485 18.1271 16.5333 17.9426 16.7125C17.8749 16.7782 17.8138 16.8263 17.7382 16.8921C17.5513 17.055 17.4041 17.1163 17.3921 17.3207C17.1879 17.9536 17.1096 18.2303 16.4142 18.2224L16.3122 18.4684C16.3376 18.4733 16.3693 18.483 16.3889 18.4785C16.6205 18.4257 16.5538 18.4658 16.6974 18.2382L16.6976 18.6981L17.2637 18.7512C17.2241 19.1795 17.1606 19.103 17.1603 19.6231H16.775C16.7618 19.6477 16.7968 19.7424 16.6978 19.8544L16.0274 19.8169L15.4632 19.4695C15.6427 19.2388 15.8501 19.248 15.6393 18.9815C15.2935 19.1268 14.0175 20.445 13.5087 20.9072C13.0273 21.3444 13.0098 21.5518 12.0662 21.5796C6.99463 21.7295 6.91396 25.921 6.63812 26.3135C6.75204 26.963 6.59249 27.4127 7.81655 26.6245C8.27022 26.3323 8.72851 26.059 9.19097 25.7625C10.4706 24.9419 10.9903 24.7491 11.9265 26.3046C12.2168 26.787 12.4896 27.2023 12.7966 27.6692C13.9684 29.452 12.5726 29.7823 11.1599 30.7281C10.9704 30.8549 10.551 31.0749 10.441 31.1698C9.62006 31.8778 11.7343 32.2973 13.4955 31.7485C15.1448 31.2347 16.3581 29.8962 16.8445 28.3867C17.0565 27.7285 17.0046 26.9979 17.1734 26.4854C17.3174 26.0482 19.2641 24.2595 19.3227 24.2417C19.4807 23.9648 20.0025 23.5034 20.2575 23.2503C21.0174 22.4958 22.1712 21.1098 22.9289 20.5915L25.3005 18.1527C25.1509 17.9256 25.3236 18.186 25.1358 17.9824L24.8125 17.368C24.5443 16.0108 26.3048 15.4829 26.6108 16.6213C26.4464 16.8907 25.9596 17.5694 25.6455 17.3804C25.3442 16.9904 25.5744 16.9134 25.8262 16.6334C25.2395 16.7928 25.3671 17.1651 25.5362 17.5855C26.0735 17.5933 26.1554 17.4634 26.5005 17.8472L26.9662 17.8488L27.7815 17.7684C29.7444 17.2093 31.0222 16.3119 31.6412 14.5117C31.8363 13.9446 32.1455 13.0155 31.9227 12.4509C31.4096 12.2794 30.9201 12.7583 30.4816 13.0443C30.0321 13.3374 29.5973 13.5914 29.1041 13.9071C27.6948 14.8089 27.2658 13.9503 26.7192 13.0917C26.5487 12.8239 26.5681 12.9352 26.536 12.6838C26.2731 12.5047 25.8005 11.6504 25.5715 11.2861C25.3256 11.263 25.5536 11.3679 25.4049 11.2176C25.3659 11.3065 25.3319 11.4564 25.2582 11.5486C25.1412 11.6946 25.3662 11.6589 24.9264 11.6641V12.3021L22.9502 12.3106V11.8487C23.3196 11.8487 23.2205 11.8886 23.4757 11.757L24.0932 11.1412C24.2252 10.8866 24.1852 10.9855 24.1852 10.6171C24.8449 10.6171 24.7655 10.4954 25.1773 10.1477C25.1899 10.1371 25.2097 10.1252 25.222 10.114C25.7125 9.67376 25.3139 9.11785 25.2967 8.89296H24.633C24.6094 9.30531 24.6053 9.23152 24.1852 9.23152L24.035 9.69751L22.8695 10.837C22.8151 10.9066 22.8015 10.9392 22.7517 11.0327C22.5025 11.5002 22.5919 11.2446 22.3661 11.4958L22.1475 12.8958C21.7373 12.7401 22.373 12.762 21.8077 12.6185C21.8011 12.8665 21.7713 12.896 21.7148 13.08C21.7148 12.7415 21.7424 12.6102 21.6552 12.29ZM11.8352 0.130199C10.76 0.435993 11.1626 0.481946 10.9354 1.48266C10.796 2.09687 10.1188 2.11121 9.49613 2.35722C9.07571 2.52337 8.20469 3.01208 7.91358 3.09067C7.3012 3.25592 7.01985 2.45835 6.27757 2.38833C6.29041 2.42494 6.30992 2.55767 6.35471 2.61137L6.43192 2.61188C6.42929 2.63633 6.42955 2.6666 6.42685 2.68568L6.28572 3.17195C6.20371 3.77016 6.3895 3.04542 6.39919 3.66303L5.53754 3.66091C5.49339 3.23416 5.36439 3.49048 5.42767 2.98923C5.07091 3.17042 4.49684 3.70117 4.23051 3.95909C3.87009 4.30802 3.55677 4.66444 3.20669 5.09158C1.38572 7.31387 3.26156 6.50222 3.12306 7.99945C3.29493 7.80066 3.26637 8.28341 3.26637 7.69199C3.45107 7.8884 3.29532 7.68994 3.57583 7.69199C3.59374 8.12841 3.5888 8.25602 3.57583 8.69232C3.8045 8.67631 4.10607 8.60508 4.27242 8.69232C4.7275 7.55899 5.48915 7.29122 5.08298 6.57377C4.91695 6.28046 4.53002 5.96449 4.60704 5.5632C4.65581 5.30931 5.15319 4.8615 5.31318 4.72697C6.08581 4.07749 6.49931 5.64448 7.4526 5.01465C8.84435 4.09522 9.89859 3.46751 11.7074 3.10033C12.1636 3.00773 12.6331 3.00344 12.8322 2.68164C13.0319 2.35895 12.9505 1.75952 13.1686 1.47843C13.3822 1.2031 14.1485 1.23126 14.5385 1.29501C15.5494 1.46026 14.4982 2.7692 15.9121 3.00856C16.393 3.0899 16.855 3.24517 17.3149 3.31806L17.6605 3.16376C17.6808 3.15915 17.7268 3.13573 17.746 3.13169C17.852 3.10955 17.9847 3.14603 18.2413 3.14993C18.2365 2.84043 18.2028 2.8147 18.1734 2.63691C18.1651 2.58692 18.1569 2.529 18.1536 2.47735C18.153 2.46782 18.1578 2.45143 18.1577 2.42846C18.1575 2.40561 18.159 2.39562 18.164 2.38014C18.1389 2.37604 18.1084 2.37988 18.0877 2.38001L17.4697 2.3809C17.4482 2.11869 17.1966 1.9505 17.007 1.99524C17.007 1.29014 16.9686 1.80464 17.1779 1.65309C16.8954 0.0204381 17.0745 0.188695 15.2473 0.0377822C14.032 -0.0625066 13.0073 0.0608864 11.8352 0.130199ZM5.55397 15.865C5.68894 16.0349 5.66693 16.1052 5.74439 16.3138C5.76608 16.309 5.75504 15.4885 5.78662 15.382C5.91266 14.9565 6.32641 15.0801 6.36575 15.5372C6.4169 16.1321 6.27969 17.5054 6.3121 17.6877L6.30735 17.8383C6.59673 18.2956 6.7806 18.6904 7.09474 19.116C7.38983 19.5158 7.74576 19.9064 8.08179 20.2116C9.36598 21.378 9.03014 21.0536 9.9697 20.764C10.2242 20.6855 10.5131 20.6298 10.7518 20.563C10.4597 20.2626 8.25976 19.2345 7.45536 17.1275C7.25994 17.401 7.41011 17.5468 7.28824 18.1664C6.77617 18.2003 6.71706 18.1946 6.75736 17.0818C6.77976 16.464 6.91434 16.5942 7.01735 16.2606L7.05046 16.0829C6.35273 14.7533 6.84445 12.1882 7.39657 10.9659C7.84908 9.96394 8.59438 9.02269 9.40609 8.35164C9.51821 8.25903 9.71081 8.12386 9.85443 8.02658L10.3007 7.66453C10.1681 7.4388 10.2338 7.61679 10.1876 7.45218L10.1024 7.17896C10.0903 7.1636 10.0427 7.12443 10.0284 7.11182L9.87176 6.99918C9.89923 6.57691 9.76472 6.75438 10.059 6.63067C9.77197 6.64654 9.91431 6.66849 9.84385 6.51803C8.54445 7.03387 7.04911 8.75427 6.38661 10.0336C4.847 13.007 5.6487 14.8866 5.55397 15.865ZM0.474271 16.8237C0.851634 17.2142 1.53974 16.8834 1.91711 17.2742C2.10373 17.4676 2.31456 18.3005 2.43521 18.6046C2.63371 19.1053 2.82676 19.4229 3.0275 19.8619C3.57539 21.0596 1.62369 20.9245 2.82714 22.4471C3.45852 23.2459 4.90726 24.8512 5.78431 25.269L6.02253 24.5099C6.1885 23.7681 6.58627 23.3447 6.87936 22.8634C5.98711 23.0515 5.99275 24.128 4.7703 22.7409C4.47201 22.4024 4.572 22.1752 4.79873 21.8446C5.45828 20.8826 5.28225 20.9869 4.70831 20.1097C3.44183 18.1737 3.53893 17.4183 3.15477 16.567C3.14873 16.5538 3.12845 16.5427 3.1239 16.5123C3.11928 16.4819 3.10394 16.4754 3.09136 16.4585L2.8032 16.5448C2.79403 16.2654 2.73107 16.2284 2.72606 15.9289L1.94496 15.9324L1.87449 15.7027L1.2598 15.621L1.08331 15.8295C1.07189 15.8394 1.05604 15.8533 1.04423 15.8618C0.724242 16.091 0.642672 15.7776 0.642672 16.5443C0.545058 16.5771 0.598646 16.4893 0.489994 16.7595C0.488069 16.7641 0.481844 16.8012 0.480624 16.7929C0.479533 16.7854 0.480945 16.8156 0.474271 16.8237ZM3.12306 7.99945C2.88612 8.26332 2.34254 9.59735 2.18781 10.0797C2.02967 10.5725 2.05483 10.8127 1.4841 10.9211C0.491534 11.1095 -0.0373513 10.5329 0.00205361 14.1581C0.00622514 14.5402 0.0947899 16.24 0.261908 16.6186C0.433005 17.0062 0.299837 16.7745 0.474271 16.8237C0.480945 16.8156 0.479533 16.7854 0.480624 16.7929C0.481844 16.8012 0.488069 16.7641 0.489994 16.7595C0.598646 16.4893 0.545058 16.5771 0.642672 16.5443C0.642672 15.7776 0.724242 16.091 1.04423 15.8618C1.05604 15.8533 1.07189 15.8394 1.08331 15.8295L1.2598 15.621L1.87449 15.7027L1.94496 15.9324L2.72606 15.9289C2.73107 16.2284 2.79403 16.2654 2.8032 16.5448L3.09136 16.4585C3.1393 16.0633 3.01383 15.3885 2.7527 15.2076C2.30294 14.8961 0.794708 15.3205 1.27674 13.4831C1.39573 13.0299 1.82771 13.0493 2.29017 12.9519C2.896 12.8244 2.94613 12.6909 3.04753 12.0943C3.18442 11.2882 3.83607 8.99625 4.27242 8.69232C4.10607 8.60508 3.8045 8.67631 3.57583 8.69232C3.5888 8.25602 3.59374 8.12841 3.57583 7.69199C3.29532 7.68994 3.45107 7.8884 3.26637 7.69199C3.26637 8.28341 3.29493 7.80066 3.12306 7.99945ZM17.3149 3.31806C17.3459 3.34322 18.6231 3.83474 18.7922 3.9116C19.3011 4.14297 19.7757 4.42758 20.2191 4.72006C20.7862 5.09401 20.958 5.40691 21.6997 4.90419C21.9189 4.75558 22.1106 4.55903 22.4009 4.57145C22.8298 4.58982 22.7448 4.85996 23.0931 4.96563C23.4939 4.94829 23.1931 4.95443 23.6449 4.85011C23.8046 5.04032 23.7499 4.63891 23.7993 5.15801L24.2624 5.15603L24.5118 5.44C24.8049 5.68007 24.7796 5.57722 25.0134 5.95335C25.0217 5.96666 25.0322 5.98599 25.0406 5.99937C25.0489 6.01268 25.06 6.03105 25.0687 6.04449C25.2728 6.36078 25.2573 6.2242 25.2266 6.48916L25.6298 6.43137C25.716 6.02433 25.3687 5.71367 24.9735 5.21235C24.2159 4.25132 23.9321 4.04217 23.0678 3.26565C22.804 3.02853 22.1818 2.60913 21.9706 2.4131C21.3143 2.35364 21.1667 2.69112 20.7528 2.96107C20.1287 3.36805 19.7372 2.76625 18.2962 2.25002C17.7642 2.05943 17.4711 2.10749 17.1779 1.65309C16.9686 1.80464 17.007 1.29014 17.007 1.99524C17.1966 1.9505 17.4482 2.11869 17.4697 2.3809L18.0877 2.38001C18.1084 2.37988 18.1389 2.37604 18.164 2.38014C18.159 2.39562 18.1575 2.40561 18.1577 2.42846C18.1578 2.45143 18.153 2.46782 18.1536 2.47735C18.1569 2.529 18.1651 2.58692 18.1734 2.63691C18.2028 2.8147 18.2365 2.84043 18.2413 3.14993C17.9847 3.14603 17.852 3.10955 17.746 3.13169C17.7268 3.13573 17.6808 3.15915 17.6605 3.16376L17.3149 3.31806ZM11.1932 5.94247L11.156 5.96276C11.1966 5.99271 11.36 6.04385 11.4372 6.07162C11.7604 6.18791 11.3586 6.08282 11.6366 6.15239L11.632 6.69134C11.6466 6.70625 11.6844 6.69512 11.695 6.7259C11.7933 7.00949 11.7153 6.73908 11.8115 6.78145C11.9562 6.84507 11.9715 6.7234 11.8955 6.81236L11.9123 7.00315C13.3031 6.72494 14.2458 6.54964 15.7149 6.90472C16.3146 7.04981 16.7984 7.22523 17.2997 7.47791C17.7338 7.69659 18.3626 8.18754 18.6768 8.29654C18.6456 8.1357 18.6456 8.1597 18.6718 7.96706C19.0769 7.9798 19.0292 8.04732 19.1687 8.14703C19.3896 8.30473 19.3397 8.26268 19.6973 8.29685C19.7114 8.0084 19.7224 8.05916 19.7086 7.76936L20.0114 7.88188C19.5038 7.01115 17.4389 6.03444 16.3004 5.70387C15.0459 5.33971 13.7024 5.31757 12.3968 5.55891C11.7798 5.67296 11.4218 5.76052 11.1932 5.94247ZM24.3316 7.96757C24.1815 8.16898 24.0503 8.18933 23.7906 8.37494C23.6114 8.50294 23.4778 8.62006 23.3207 8.75286C22.4763 9.46678 21.389 11.2706 21.6552 12.29C21.7424 12.6102 21.7148 12.7415 21.7148 13.08C21.7713 12.896 21.8011 12.8665 21.8077 12.6185C22.373 12.762 21.7373 12.7401 22.1475 12.8958L22.3661 11.4958C22.5919 11.2446 22.5025 11.5002 22.7517 11.0327C22.8015 10.9392 22.8151 10.9066 22.8695 10.837L24.035 9.69751L24.1852 9.23152C24.6053 9.23152 24.6094 9.30531 24.633 8.89296H25.2967C25.3139 9.11785 25.7125 9.67376 25.222 10.114C25.2097 10.1252 25.1899 10.1371 25.1773 10.1477C24.7655 10.4954 24.8449 10.6171 24.1852 10.6171C24.1852 10.9855 24.2252 10.8866 24.0932 11.1412L23.4757 11.757C23.2205 11.8886 23.3196 11.8487 22.9502 11.8487V12.3106L24.9264 12.3021V11.6641C25.3662 11.6589 25.1412 11.6946 25.2582 11.5486C25.3319 11.4564 25.3659 11.3065 25.4049 11.2176C25.5536 11.3679 25.3256 11.263 25.5715 11.2861C25.2635 10.4441 25.5154 10.2153 25.8877 9.70525C25.7261 9.30051 25.8834 8.5318 25.8834 7.99989C25.5916 7.99336 25.2073 7.95272 25.0687 7.73653L24.3316 7.96757ZM25.0687 7.73653C25.2073 7.95272 25.5916 7.99336 25.8834 7.99989C25.8834 8.5318 25.7261 9.30051 25.8877 9.70525C26.2431 9.49398 26.5617 9.31446 26.8977 9.09053C27.2109 8.88163 27.6165 8.60406 27.9671 8.45634C28.1345 8.10543 28.4044 8.46883 28.3593 7.73551C27.627 7.29128 25.6873 7.32347 25.0687 7.73653ZM18.6768 8.29654C18.8706 8.65129 19.6009 9.13091 20.2469 10.157C20.4012 10.402 20.5163 10.7115 20.7073 10.9307C20.7808 10.6209 20.91 10.298 21.0361 10.0121C21.3394 9.3247 21.5899 9.55543 20.3721 8.18581L20.0114 7.88188L19.7086 7.76936C19.7224 8.05916 19.7114 8.0084 19.6973 8.29685C19.3397 8.26268 19.3896 8.30473 19.1687 8.14703C19.0292 8.04732 19.0769 7.9798 18.6718 7.96706C18.6456 8.1597 18.6456 8.1357 18.6768 8.29654ZM23.0931 4.96563C23.3067 5.44768 23.7228 5.55443 23.2404 6.21076C22.904 6.66843 22.6993 6.97614 23.1046 7.47022C23.6072 7.23041 23.9573 6.91272 24.6005 6.74337L25.2266 6.48916C25.2573 6.2242 25.2728 6.36078 25.0687 6.04449C25.06 6.03105 25.0489 6.01268 25.0406 5.99937C25.0322 5.98599 25.0217 5.96666 25.0134 5.95335C24.7796 5.57722 24.8049 5.68007 24.5118 5.44L24.2624 5.15603L23.7993 5.15801C23.7499 4.63891 23.8046 5.04032 23.6449 4.85011C23.1931 4.95443 23.4939 4.94829 23.0931 4.96563ZM22.1973 16.6199C21.9609 16.6476 22.0691 16.563 21.9721 16.8031C21.8801 17.0307 22.0626 17.6967 21.847 18.0429C21.585 17.8209 21.5687 16.4102 22.1542 16.2247C22.5134 16.1109 22.64 16.3173 22.8745 16.3338C23.1961 16.3565 23.7755 15.8931 24.0702 16.5771C24.1811 16.8345 24.2845 17.9211 24.0308 18.0568C23.5698 17.8128 24.4681 16.0384 23.12 16.6174C23.0609 17.0484 23.1893 17.65 23.0274 18.0177C22.5395 17.8441 23.1838 16.3946 22.4032 16.4743C22.0034 16.515 22.2127 16.4681 22.1973 16.6199ZM22.0871 17.8533C22.1531 17.4684 22.1137 17.0619 22.1973 16.6199C22.437 16.6438 22.3998 16.6198 22.5869 16.6881C22.7225 17.1289 22.5599 17.6877 22.7524 18.1652L23.1818 18.1269C23.3434 17.7476 23.1457 17.0786 23.3106 16.6677C23.5268 16.6451 23.5491 16.6952 23.7008 16.7753C23.9057 17.4382 23.3944 18.4009 24.309 18.1857C24.6245 15.1929 23.2047 16.2668 22.7115 16.1012C21.1901 15.5904 21.4958 17.834 21.5664 17.9891C21.6037 18.071 21.7062 18.2307 21.8612 18.2066C22.1099 18.168 22.0461 18.063 22.0871 17.8533ZM9.84385 6.51803C9.91431 6.66849 9.77197 6.64654 10.059 6.63067C9.76472 6.75438 9.89923 6.57691 9.87176 6.99918L10.0284 7.11182C10.0427 7.12443 10.0903 7.1636 10.1024 7.17896L10.1876 7.45218C10.2338 7.61679 10.1681 7.4388 10.3007 7.66453C10.3337 7.66075 11.8186 7.06075 11.9123 7.00315L11.8955 6.81236C11.9715 6.7234 11.9562 6.84507 11.8115 6.78145C11.7153 6.73908 11.7933 7.00949 11.695 6.7259C11.6844 6.69512 11.6466 6.70625 11.632 6.69134L11.6366 6.15239C11.3586 6.08282 11.7604 6.18791 11.4372 6.07162C11.36 6.04385 11.1966 5.99271 11.156 5.96276L11.1932 5.94247C10.7783 5.92461 10.0705 6.29345 9.84385 6.51803ZM22.0871 17.8533C22.4637 18.0235 22.2684 17.4985 22.2554 17.2372L22.4103 17.853C22.4301 17.2493 22.4685 17.3372 22.6411 17.1605C22.6411 17.2974 22.6563 17.4864 22.6245 17.6188C22.5182 18.0614 22.5606 17.6828 22.4723 17.9451C22.403 18.1514 22.3477 18.09 22.5527 18.4742C22.8319 18.9972 22.4787 18.1744 22.6415 18.6228C23.2474 18.6228 23.5194 18.5458 24.1084 18.5458C24.1001 18.5215 24.0605 18.4462 24.0612 18.4285L24.309 18.1857C23.3944 18.4009 23.9057 17.4382 23.7008 16.7753C23.5491 16.6952 23.5268 16.6451 23.3106 16.6677C23.1457 17.0786 23.3434 17.7476 23.1818 18.1269L22.7524 18.1652C22.5599 17.6877 22.7225 17.1289 22.5869 16.6881C22.3998 16.6198 22.437 16.6438 22.1973 16.6199C22.1137 17.0619 22.1531 17.4684 22.0871 17.8533ZM16.1862 18.2951C16.1029 18.454 15.8437 18.6238 15.6393 18.9815C15.8501 19.248 15.6427 19.2388 15.4632 19.4695L16.0274 19.8169L16.6978 19.8544C16.7968 19.7424 16.7618 19.6477 16.775 19.6231H17.1603C17.1606 19.103 17.2241 19.1795 17.2637 18.7512L16.6976 18.6981L16.6974 18.2382C16.5538 18.4658 16.6205 18.4257 16.3889 18.4785C16.3693 18.483 16.3376 18.4733 16.3122 18.4684L16.4142 18.2224L16.1862 18.2951ZM22.1973 16.6199C22.2127 16.4681 22.0034 16.515 22.4032 16.4743C23.1838 16.3946 22.5395 17.8441 23.0274 18.0177C23.1893 17.65 23.0609 17.0484 23.12 16.6174C24.4681 16.0384 23.5698 17.8128 24.0308 18.0568C24.2845 17.9211 24.1811 16.8345 24.0702 16.5771C23.7755 15.8931 23.1961 16.3565 22.8745 16.3338C22.64 16.3173 22.5134 16.1109 22.1542 16.2247C21.5687 16.4102 21.585 17.8209 21.847 18.0429C22.0626 17.6967 21.8801 17.0307 21.9721 16.8031C22.0691 16.563 21.9609 16.6476 22.1973 16.6199ZM25.3005 18.1527C25.465 18.0816 25.4125 18.1427 25.4913 17.9725C24.6467 17.6679 24.8105 16.221 25.8063 16.1951C26.3426 16.1811 26.2457 16.3377 26.4369 16.5781C26.3069 16.8651 25.9927 17.1724 25.7013 17.2478C25.717 16.7013 25.8952 17.0491 26.0609 16.5443C25.2952 16.1546 24.8378 17.2939 25.5649 17.7071L25.7846 17.8068C25.8012 17.8142 25.8291 17.8272 25.8427 17.8333C25.8564 17.8395 25.8829 17.8489 25.9012 17.8604L26.5005 17.8472C26.1554 17.4634 26.0735 17.5933 25.5362 17.5855C25.3671 17.1651 25.2395 16.7928 25.8262 16.6334C25.5744 16.9134 25.3442 16.9904 25.6455 17.3804C25.9596 17.5694 26.4464 16.8907 26.6108 16.6213C26.3048 15.4829 24.5443 16.0108 24.8125 17.368L25.1358 17.9824C25.3236 18.186 25.1509 17.9256 25.3005 18.1527ZM18.6507 16.1309C18.7812 16.1354 19.6341 16.1635 19.8284 16.2364C19.7872 16.7459 19.5647 16.3151 18.7368 16.5112C18.5781 18.2445 19.3897 17.7762 19.5254 17.5078C19.7358 17.0918 19.3129 17.1787 19.7854 17.1125C20.2938 18.0248 17.9573 18.9284 18.5253 16.2521C18.381 16.3166 18.355 16.3218 18.1922 16.3739L18.2198 16.4529C18.2674 16.5234 18.2599 16.4775 18.2931 16.632C18.3176 16.7459 18.3169 16.8081 18.3187 16.9253C18.3239 17.2772 18.2613 18.0004 18.8747 18.1565C19.7848 18.3881 20.0304 17.7151 19.9921 16.9784C19.026 16.883 19.8039 17.7366 19.0135 17.5441C18.8229 17.2342 18.8913 17.042 18.8911 16.641L19.9036 16.6159C20.0049 16.3401 20.1271 16.1204 19.7704 16.0246C19.5209 15.9576 19.2648 16.0878 18.959 15.9639L18.8377 15.8876C18.701 16.018 18.7218 16.0129 18.6507 16.1309ZM18.5253 16.2521C17.9573 18.9284 20.2938 18.0248 19.7854 17.1125C19.3129 17.1787 19.7358 17.0918 19.5254 17.5078C19.3897 17.7762 18.5781 18.2445 18.7368 16.5112C19.5647 16.3151 19.7872 16.7459 19.8284 16.2364C19.6341 16.1635 18.7812 16.1354 18.6507 16.1309L18.5253 16.2521ZM20.2258 14.6463C20.0383 14.7381 20.1309 14.6856 19.9732 14.8069L19.7684 14.9953C19.8605 15.0848 19.8002 15.0172 19.8785 15.1413C20.0725 15.4487 20.2191 15.8831 20.9165 15.7441C21.1666 15.6942 21.3856 15.5069 21.4468 15.2717C21.5402 14.9127 21.3493 14.7294 21.3288 14.5186C20.9318 14.3315 20.4255 14.3264 20.3727 14.8582C20.325 15.3399 21.0441 15.6418 21.0458 14.9129C20.7958 15.0336 20.9061 15.081 20.7116 15.1674C20.5372 14.9459 20.5777 15.0102 20.5934 14.7084C21.4248 14.561 21.3772 15.2337 21.0029 15.4485C20.4937 15.7406 19.998 15.251 20.2258 14.6463ZM25.4913 17.9725C25.7249 17.9503 25.6457 17.9348 25.9012 17.8604C25.8829 17.8489 25.8564 17.8395 25.8427 17.8333C25.8291 17.8272 25.8012 17.8142 25.7846 17.8068L25.5649 17.7071C24.8378 17.2939 25.2952 16.1546 26.0609 16.5443C25.8952 17.0491 25.717 16.7013 25.7013 17.2478C25.9927 17.1724 26.3069 16.8651 26.4369 16.5781C26.2457 16.3377 26.3426 16.1811 25.8063 16.1951C24.8105 16.221 24.6467 17.6679 25.4913 17.9725ZM5.42767 2.98923C5.36439 3.49048 5.49339 3.23416 5.53754 3.66091L6.39919 3.66303C6.3895 3.04542 6.20371 3.77016 6.28572 3.17195L6.42685 2.68568C6.42955 2.6666 6.42929 2.63633 6.43192 2.61188L6.35471 2.61137C6.30992 2.55767 6.29041 2.42494 6.27757 2.38833C6.05347 2.45924 6.00244 2.50052 5.82551 2.62276C5.72924 2.6892 5.70537 2.70104 5.59858 2.78846C5.40072 2.95051 5.46169 2.82865 5.42767 2.98923ZM20.2258 14.6463C19.998 15.251 20.4937 15.7406 21.0029 15.4485C21.3772 15.2337 21.4248 14.561 20.5934 14.7084C20.5777 15.0102 20.5372 14.9459 20.7116 15.1674C20.9061 15.081 20.7958 15.0336 21.0458 14.9129C21.0441 15.6418 20.325 15.3399 20.3727 14.8582C20.4255 14.3264 20.9318 14.3315 21.3288 14.5186C21.0496 14.2493 21.2125 14.4268 21.3358 14.3745C21.1236 14.1711 20.8832 14.1675 20.6001 14.2033C20.4064 14.3292 20.3067 14.4683 20.2258 14.6463ZM20.9459 16.1742C20.798 16.7115 20.8908 17.4821 20.9045 18.0291C20.581 17.9792 20.7048 18.1516 20.6326 17.7872C20.6252 17.75 20.6334 17.3115 20.6341 17.2373C20.6367 16.9113 20.6053 16.5418 20.6749 16.2364L20.9459 16.1742ZM20.9459 16.1742C20.9061 15.9968 21.1055 16.076 20.7842 16.0248C20.2515 15.9399 20.4908 17.9578 20.6345 18.166L20.9963 18.196C21.0357 17.9452 21.2589 16.3838 20.9459 16.1742ZM5.74439 16.3138L5.70595 16.5038L5.99198 16.9437C5.91889 16.6479 5.93172 16.412 5.93313 16.0824C5.93698 15.1861 5.98435 15.53 6.00732 15.3527C6.01162 15.3191 6.0319 15.3155 6.04557 15.2979C6.28739 15.4941 6.16481 15.9982 6.16764 16.3134C6.17053 16.6445 6.24593 17.1312 6.10705 17.3716C6.17868 17.5708 6.09621 17.4343 6.184 17.5602C6.26339 17.6741 6.22187 17.6131 6.3121 17.6877C6.27969 17.5054 6.4169 16.1321 6.36575 15.5372C6.32641 15.0801 5.91266 14.9565 5.78662 15.382C5.75504 15.4885 5.76608 16.309 5.74439 16.3138ZM7.45536 17.1275L7.42032 17.1111C7.38277 17.0236 7.3555 16.9421 7.32302 16.8851C7.15956 16.5979 7.29459 16.816 7.17413 16.7004C7.17644 17.2602 7.25923 17.8805 7.04905 18.0073C6.93648 17.8965 7.00502 18.048 6.93944 17.8468C6.90792 17.75 6.83714 16.6752 7.12279 16.467L7.01735 16.2606C6.91434 16.5942 6.77976 16.464 6.75736 17.0818C6.71706 18.1946 6.77617 18.2003 7.28824 18.1664C7.41011 17.5468 7.25994 17.401 7.45536 17.1275ZM20.6001 14.2033C20.8832 14.1675 21.1236 14.1711 21.3358 14.3745C21.8143 14.8564 21.5241 15.0015 21.4974 15.584C21.6642 15.4226 21.9725 15.2287 21.7618 14.5809C21.6307 14.1777 21.3512 13.9883 20.9232 13.9052L20.6001 14.2033ZM20.9459 16.1742L20.6749 16.2364C20.6053 16.5418 20.6367 16.9113 20.6341 17.2373C20.6334 17.3115 20.6252 17.75 20.6326 17.7872C20.7048 18.1516 20.581 17.9792 20.9045 18.0291C20.8908 17.4821 20.798 16.7115 20.9459 16.1742ZM5.99198 16.9437L6.10705 17.3716C6.24593 17.1312 6.17053 16.6445 6.16764 16.3134C6.16481 15.9982 6.28739 15.4941 6.04557 15.2979C6.0319 15.3155 6.01162 15.3191 6.00732 15.3527C5.98435 15.53 5.93698 15.1861 5.93313 16.0824C5.93172 16.412 5.91889 16.6479 5.99198 16.9437ZM7.17413 16.7004L7.12279 16.467C6.83714 16.6752 6.90792 17.75 6.93944 17.8468C7.00502 18.048 6.93648 17.8965 7.04905 18.0073C7.25923 17.8805 7.17644 17.2602 7.17413 16.7004ZM16.4142 18.2224C17.1096 18.2303 17.1879 17.9536 17.3921 17.3207C17.1513 17.4716 17.0251 17.5813 16.832 17.7545C16.733 17.8432 16.6764 17.8917 16.5893 17.9818L16.4142 18.2224Z" fill="#2B2A29"/>
</svg>
