<?xml version="1.0" encoding="UTF-8"?>
<!DOCTYPE svg PUBLIC "-//W3C//DTD SVG 1.1//EN" "http://www.w3.org/Graphics/SVG/1.1/DTD/svg11.dtd">
<!-- Creator: CorelDRAW 2019 (64-Bit) -->
<svg xmlns="http://www.w3.org/2000/svg" xml:space="preserve" width="100%" height="100%" version="1.1" style="shape-rendering:geometricPrecision; text-rendering:geometricPrecision; image-rendering:optimizeQuality; fill-rule:evenodd; clip-rule:evenodd"
viewBox="0 0 653.68 719.68"
 xmlns:xlink="http://www.w3.org/1999/xlink">
 <defs>
  <style type="text/css">
   <![CDATA[
    .fil0 {fill:white}
   ]]>
  </style>
 </defs>
 <g id="Layer_x0020_1">
  <metadata id="CorelCorpID_0Corel-Layer"/>
  <path class="fil0" d="M145.34 71.17c5.46,4.24 9.4,5.54 16.93,9.13l-0.12 42.62c-21.76,2 -51.2,0.2 -73.86,0.32 -22.86,0.11 -38.04,11.51 -42.77,30.49 -3.34,13.42 -1.27,330.85 -1.26,367.37 0.01,42.01 -12.69,43.2 -11.8,60.09 0.48,5.51 -1.94,2.53 2.15,9.77l1.72 3.21c1.62,0 4.93,0.18 6.37,-0.09l2.97 -1.01c0.4,-0.17 1.64,-1.11 3.26,-1.71l7.24 -19.68c-19.05,-8.36 -7.25,2.03 -11.4,-8.43 -6.16,-15.51 7.37,-18.37 13.73,-13.23 4.19,3.39 3.19,2.25 2,3.43l0.62 -0.03c7.58,-2.87 231.43,-0.79 260.42,-0.8 88.51,-0.01 177.02,0.04 265.53,-0.02 -3.94,-6.33 -2.31,-0.74 -2.8,-8.31 -0.15,-4.78 -1.31,-5.31 -1.41,-11.94l2.81 -0.06 -521.07 -0.14c-1.52,-80.81 0.04,-163.27 0.03,-244.27 -0.01,-40.39 -1.03,-82.07 -0.04,-122.3 0.55,-22.91 16.99,-22.1 37.77,-22.15 17.84,-0.04 42.8,-1.42 59.9,0.38l-0.09 28.43c-17.65,2.3 -69.31,-8.26 -67.63,22.18 2.12,7.87 0.79,124.19 0.79,142.63 0,29.33 1.07,79.05 0.01,106.76 -0.24,6.02 -1.03,9.79 -1.07,16.86 -0.03,5.79 -0.59,11.24 2.87,15.28 0,-16.59 0.8,-32.47 1.01,-48.98l-1.16 -36.65c-0.11,-10.28 0.76,-8.16 2.56,-9.21 4.93,2.19 3.37,-2.75 3.94,7.76l-0.15 24.96c1.15,5.91 -1.78,-0.04 1.13,2.3 0,-14.17 0.1,-28.38 -0.01,-42.55 -0.13,-17.39 1.5,-11.67 2.13,-18.53 1.4,-15.05 2.57,-92.46 -0.01,-100.38 -12.02,5.18 -3.3,9.45 -7.13,21.9l-1.3 2.57c-2.26,-10.52 -0.37,-27.71 -0.28,-39.09 0.09,-10.63 -0.2,-9.09 2.38,-10.87l1.81 17.66c0,-3.04 -0.34,-8.29 -0.07,-11.03 0.46,-4.81 0.19,-3.02 2.82,-7.41 3.8,-6.33 2.32,-9.87 2.27,-18.69 -1.11,0.32 -4.59,1.28 -5.35,1.68l-2.98 2.43c-0.09,-0.22 -0.37,0.5 -0.96,0.71l-0.05 -12.05c6.68,1.02 1.97,0.13 4.74,2.37l3.04 2.66 2.36 -12.35c2.7,3.3 3.61,4.96 1.61,5.61 1.84,-9.9 -1.63,-2.91 4.23,-5.61 2.06,-0.93 0.46,-0.2 2.97,-0.88 1.75,-1.52 -2.73,-1.04 3.94,-1.92l42.14 0.63 0.07 111.74c2.36,-4.58 1.74,-7 1.74,-12.93l5.52 0c0,4.54 0.12,25.42 1.86,29.38l2.05 3.24c0.59,-1.88 4.1,-5.48 6,-9.53 4.55,-9.73 2.59,-33.94 2.59,-45.27l0.01 -189.5 8.27 -4.09 1.41 -4.51 -4.92 -2.11c0.29,-0.35 0.77,-0.67 1.01,-0.91 0.22,-0.23 0.68,-0.6 0.94,-0.89 5.46,-6.16 0.39,3.11 2.3,-3.58 0.05,-0.19 0.58,-8.61 0.65,-9.27l-3.75 -0.57c-4.2,1.92 -1.96,1.13 -4.92,3.08 -12.91,8.49 -27.33,0.37 -30.36,-10.02 -5.24,-17.92 9.19,-28.99 26.84,-25.56 3.37,-3.69 1.78,3.32 2.23,-5.66l9.41 0c-0.16,-4.42 0.05,-3.95 2.12,-6.6 0.21,-0.27 0.87,-0.23 1.04,-0.87 0.18,-0.68 0.75,-0.59 1.16,-0.84 -5.23,-3.36 -10.03,-5.82 -17.56,-6.93 -0.65,0.3 -5.08,1.57 -6.43,2.85 -2.37,2.24 -2.09,4.21 -5.76,6.9 -3.09,-5.29 3.35,0.89 -1.36,-0.9l-7.08 -0.79c1.44,5.93 0.21,9.27 -1.82,15.18 -0.47,-0.01 -1.02,-0.11 -1.39,-0.15l-7.32 -0.98c0.08,3.56 0.15,2.84 0.81,5.99 2.1,10.04 -0.16,6.19 -0.69,17.27 -0.44,9.06 2.93,17.87 -2.1,25.01zm330.44 239.72c1.47,-1.61 2.98,-0.14 1.71,-3.33 -0.42,-0.12 -0.95,4.42 -1.06,-2.96 -0.1,-6.03 -0.16,-2.22 1.06,-5.47 7.82,0.24 4.69,-1.32 10.79,4.73 5.14,5.12 -0.13,8.24 6.07,10.72 2.51,-4.42 1.8,0.62 2.13,-5.61l0.04 -3.37c-1.94,-1.75 -0.96,2.8 -2.21,-3.67l0.6 -109.4 38.77 -0.08c6.58,0.53 2.45,0.26 4.06,1.69 2.61,1.19 0.96,-1.26 2.61,2.82 2.18,5.4 0.31,153.21 0.24,154.15 -7.86,-5.05 -28.57,-30.29 -34.96,-33.08 -2.14,1.25 -4.65,-0.26 -4.26,7.78l-5.62 0c-0.1,-4.67 1.63,-5.48 -5.54,-6.07l-1.49 7.46c0.76,3.27 24.21,25.2 26.88,27.95 5.22,5.39 8.36,8.67 13.85,14.23 11.39,11.53 11.41,8.61 11.48,16.34l-0.09 10.34c-0.05,15.4 0.05,30.92 0.04,46.37 0,7.95 -0.05,15.93 0.02,23.89 0.08,9.77 2.31,16.97 -6.4,15.02l-2.21 3.23c1.75,0 3.7,-0.19 5.42,0.29 3.24,0.92 1.05,0.52 2.67,1.5 9.45,5.68 1.81,-0.15 11.47,4.1l4.29 1.15c2.52,-1.3 -0.14,2.2 2.67,-3.02 1.07,-2.01 1,-2.16 1.48,-4.04 2.1,-8.2 0.94,-260.21 0.92,-281.03 -0.05,-42.87 -34.05,-26.97 -66.33,-31.34l0.18 -28.35c16.92,-1.81 41.89,-0.34 59.7,-0.36 22.23,-0.02 34.87,0.98 34.98,24.93l0.01 240.31c0,38.71 -1.25,79.67 0.06,118.02 2.78,-0.01 5.8,-0.43 6.03,-0.35 0.09,0.03 0.38,0.24 0.48,0.29 3.68,1.72 0.9,1.98 5.51,2.16l0 9.84c-16.96,0.67 8.9,5.62 -17.56,5.62 0.49,7.57 -1.14,1.98 2.8,8.31 4.61,0.01 4.87,0.94 7.68,3.11 1.93,-2.47 -0.14,0.65 0.7,-1.76 0.95,-2.75 0.41,-3.5 3.07,-3.45 10.99,0.22 8.23,4.3 8.23,4.32l4.61 -4.57c0.22,-0.24 0.58,-0.72 0.91,-1.05 -5.3,-27.16 -2.2,-83.89 -2.2,-115.2l0 -230.42c0,-42.82 5.38,-69.6 -34.24,-80.12l-38.49 -0.22 0.86 11.07 -7.33 0.71c-0.2,0.3 -0.27,0.81 -0.37,1.02 -3.48,7.48 -5.16,5.17 -23.4,5.16l0.45 -17.95 -12.64 -0.3 -0.14 -42.58 12.65 -5.18c0.37,-1.13 -3.22,-0.95 2.78,-1.5 2.56,-3.88 4.82,-5.09 7.71,-9.49 2.58,-3.92 3.36,-7.63 6.49,-10.68 -0.43,-10.78 1.35,-12.98 -0.99,-25.6 -0.33,0.21 -0.8,0.42 -1.03,0.56 -0.23,0.14 -0.72,0.4 -1,0.57 -4.55,2.83 -5.52,4.3 -5.99,8.66 -0.14,1.27 0.03,4.26 0.03,5.71 -2.35,1.13 -4.5,1.14 -6.29,2.17 -7.19,4.13 1.7,2.52 -5.64,3.89 -4.79,5.13 -11.91,16.56 -27.44,9.37 -3.83,-1.77 -7.98,-6.04 -9.69,-9.92 -2.45,-5.54 -0.7,-12.12 -0.8,-17.26 -3.21,-4.06 1.39,-2.71 -7.55,-10.38 -0.24,-0.21 -0.53,-0.53 -0.78,-0.73 -0.24,-0.2 -0.52,-0.54 -0.76,-0.72 -4.67,-3.53 1.5,-2.95 -4.32,-1.72 -2.13,1.07 -0.84,0.03 -2.62,2.92 -6.56,10.68 -6.48,25.22 -1.53,36.41 4.88,11.07 13.77,18.22 26.54,22.42 0.76,33.19 -2.37,216.68 1.24,231.02zm168.4 339.72l-3.15 9.66c-0.28,1.3 -0.54,8.11 -0.57,9.77 -7.28,-2.59 3.9,-1.15 -4.59,-2.1 -8.56,-0.96 -3.13,-1.46 -5.13,2.1 2.83,12.75 7.34,26 -8.52,28.25l-556.39 0.24c-41.84,0 -52.41,4.97 -40.03,-34.59l16.59 -50.94 6.54 -21.64c-1.62,0.6 -2.86,1.54 -3.26,1.71l-2.97 1.01c-1.44,0.27 -4.75,0.09 -6.37,0.09l-1.72 -3.21c-4.09,-7.24 -1.67,-4.26 -2.15,-9.77l-28.85 85.62c-5.79,17.24 -5.3,30.68 6.59,42.03 13.03,12.44 24.91,10.06 45.8,10.06l452.39 0c36.07,0 76.87,1.79 112.34,-0.08 46.09,-2.42 33.41,-57.45 23.45,-68.21zm-590.16 0.14l-0.74 1.54c-0.08,0.17 -0.29,0.6 -0.38,0.77l-1.6 3.01c-2.97,14.71 9.72,13.49 21.55,13.44l465.05 -0.04c12.31,0 60.97,3.22 65.98,-3.73 2.82,-3.91 2.76,-10.48 -1.24,-14.09 -3.71,-3.34 -9.95,-2.56 -15.54,-2.52l-248.71 0.02c-21.33,0 -269.92,-2.18 -284.37,1.6zm39.14 -436.35l0 14.9 0 52.53 0 14.91 0 119.97 0 14.9c-0.05,35.44 -9.18,71.47 30.25,71.6l407.49 -0.01c14.3,-0.05 19.54,-2.05 25.24,-11.59l-4.29 -1.15c-9.66,-4.25 -2.02,1.58 -11.47,-4.1 -1.62,-0.98 0.57,-0.58 -2.67,-1.5 -1.72,-0.48 -3.67,-0.29 -5.42,-0.29l2.21 -3.23c-2.86,-5.12 -7.86,-10.25 -13.04,-13.06 0.25,3.86 -2.4,9.62 -5.21,13.33 -6.04,7.98 6.38,2.93 -3.51,6.8 1.45,4.85 3.53,2.4 4.6,5.49 -11.53,1.2 7.94,8.47 -32.13,4.99l-46.2 -0.19 -43.88 0 -45.5 -0.07 -44.95 0 -23.02 0.07 -43.88 0 -114.82 -0.08c0.35,-5.44 6.06,-4.05 11.71,-3.68 12.41,0.84 9.67,-1.96 15.14,-2.25 -0.94,-3.39 -2.54,-4.61 -2.79,-8.08l1.78 -0.87 1.17 -2.68 1.39 -0.07c2.09,-4.36 1.74,-3.37 5.24,-6.84 4.92,-4.88 10.67,-12.33 16.65,-14.98l0.65 -0.64c4.74,-10.77 20.71,-18.73 26.64,-29.53 -1.24,0.2 -2.45,-0.54 -4.04,0.77 -2.46,-15.94 -5.75,-3.26 -6.78,-12.38 5.08,-1.06 1.87,-1.56 5.37,-4.71l7.54 0.75 1.47 11.97c7.98,-4.06 16.86,-16.42 24.6,-23.07 3.31,-3.61 1.54,-3.18 5.65,-4.17l-0.66 -2.19c-1.44,-4.52 -2.88,-3.59 -4.62,-8.61 -1.63,-4.69 0.2,-7.21 -2.63,-9.96l-10.66 10.73c5.57,1.94 7.11,2.8 6.46,9.29l-4.72 -6.03 -6.35 1.44c-2.58,1.26 -2.94,1.69 -5.45,3.96 -2.37,2.15 -2.22,1.99 -4.39,4.49 -12.28,10.91 -30.34,31.41 -42.6,42.72l-31.53 31.7c-4.16,4.37 -5.14,7.77 -12.57,6.35 -2.61,-8.92 -1.62,-79.7 -1.09,-94.42l1.52 -6.45c0.24,-6.78 2.72,-13.92 5.81,-17.21 3.8,-4.05 10.91,-3.3 16.65,-5.83 1.96,0.01 2.46,2.07 3.14,-3.53l1.56 -10.34 9.46 -0.18c2.66,-0.58 7.03,-5.91 10.19,-9.33 4.31,-4.68 6.22,-6.27 12.14,-10.34l-2.05 -3.24c-1.74,-3.96 -1.86,-24.84 -1.86,-29.38l-5.52 0c0,5.93 0.62,8.35 -1.74,12.93l-1.95 0.99c-1.81,5.7 -17.55,19.65 -22.87,24.84 -6.46,6.31 -18.01,19.4 -24.57,23.58l0.27 -158.98c-5.86,2.7 -2.39,-4.29 -4.23,5.61 2,-0.65 1.09,-2.31 -1.61,-5.61l-2.36 12.35 -3.04 -2.66c-2.77,-2.24 1.94,-1.35 -4.74,-2.37l0.05 12.05c0.59,-0.21 0.87,-0.93 0.96,-0.71l2.98 -2.43c0.76,-0.4 4.24,-1.36 5.35,-1.68 0.05,8.82 1.53,12.36 -2.27,18.69 -2.63,4.39 -2.36,2.6 -2.82,7.41 -0.27,2.74 0.07,7.99 0.07,11.03l-1.81 -17.66c-2.58,1.78 -2.29,0.24 -2.38,10.87 -0.09,11.38 -1.98,28.57 0.28,39.09l1.3 -2.57c3.83,-12.45 -4.89,-16.72 7.13,-21.9 2.58,7.92 1.41,85.33 0.01,100.38 -0.63,6.86 -2.26,1.14 -2.13,18.53 0.11,14.17 0.01,28.38 0.01,42.55 -2.91,-2.34 0.02,3.61 -1.13,-2.3l0.15 -24.96c-0.57,-10.51 0.99,-5.57 -3.94,-7.76 -1.8,1.05 -2.67,-1.07 -2.56,9.21l1.16 36.65c-0.21,16.51 -1.01,32.39 -1.01,48.98 -3.46,-4.04 -2.9,-9.49 -2.87,-15.28 0.04,-7.07 0.83,-10.84 1.07,-16.86 1.06,-27.71 -0.01,-77.43 -0.01,-106.76 0,-18.44 1.33,-134.76 -0.79,-142.63 -2.86,3.7 -1.39,14.22 -1.38,19.98zm222.07 56.39c3.94,5.12 1.78,87.58 1.97,94.11 3.55,1.47 0.21,-0.86 3,1.64 5.09,4.59 3.3,26.24 2.84,32.47l-6 0.84 0.05 81.92 -3.43 1.13 0 10.66 -8.96 1.37 -0.02 3.7 44.95 0 -0.55 -15.7 -11.79 -0.04 -0.11 -83.97 -7.43 0.43 0.04 -9.46c1.96,-0.6 -1.57,-0.4 3.81,-1.23 2.29,-0.35 1.37,-0.13 3.66,-0.03l-0.12 -103.57c-0.07,-4.96 -0.78,-10.56 1.88,-14.41 5.8,-4.19 17.6,-6.89 20.06,-15.93 -3.4,-5.07 -2.24,0.63 -4.16,-5.2 -0.78,-2.35 -0.36,-6.15 -0.37,-8.7l-7.73 -3.52c-3.9,5.68 -7.25,15.01 -21.01,14.16 -23.36,-1.45 -25,-35.2 -3.09,-39.73 14.06,-2.9 16.13,5.36 22.56,9.27l2.86 -2.87c0,-0.26 -0.02,-0.75 -0.01,-1.02l0.11 -7.91c-6.24,-0.21 -4.47,-1 -10.32,-2.71l-0.42 -8.53c8.21,-3.57 1.49,-0.8 5.1,-4.49 -55.71,-12.58 -70.96,46.06 -40.19,70.01 3.3,2.56 11.37,5.97 12.82,7.31zm89.2 -13.25c4.81,-0.87 5.3,-1.41 11.24,-1.41 2.23,6.46 1.28,13.5 0,19.94l-11.24 -2.24c0.88,-8.68 2.3,-6.52 0,-16.29zm-4.38 69.04c9.57,-1.42 6.01,-6.83 18.43,-4.78l0.11 -157.63c1.17,-5.7 0.55,-3.03 2.1,-5.1 10.56,-0.54 20.66,-9.42 22.94,-16.91 -5.86,1.9 -0.8,0.9 -4.63,-0.81 -6.05,-2.7 -4.45,-5.01 -12.09,0.41 -0.17,-0.49 -0.41,-1.75 -0.5,-1.48 -0.08,0.24 -0.37,-1.04 -0.47,-1.33 -0.09,-0.24 -0.31,-0.86 -0.41,-1.12l-0.66 -1.63c-4.47,1.76 -15.3,8.12 -24.1,2.24 -2.51,-1.68 -1.39,-0.56 -1.97,-2.29 -9.5,-6.76 -11.77,-18.08 -4.3,-28.21 4.65,-6.3 21.69,-11.98 27.76,-1.91 4.51,1.21 1.14,-1.14 4.83,3.32 1.91,2.33 0.86,1.97 2.69,4.32 3.24,4.38 2.74,-5.69 2.74,5.61l0.74 -2.68c0.07,-0.35 0.21,-0.83 0.26,-1.19l-0.43 -3.71c10.23,0.16 6.94,1.91 11.2,-1.52l3.29 -2.34c0.28,-18.48 -39.63,-42.48 -65.8,-15.41 -22.93,23.71 -10.53,59.58 18.33,67.38l-0.06 166.77zm-163.35 -123.86c12.56,0 9.51,-1.19 9.51,-14.05l9.52 0.34c0.97,10.57 -1.74,22.32 -1.74,35.11l-17.29 0 0 46.03c12.56,0 9.51,-1.18 9.51,-14.05l9.52 0.35c0.97,10.57 -1.74,22.32 -1.74,35.11l-17.29 0 0 46.03c12.56,0 9.51,-1.19 9.51,-14.05l9.52 0.34c0.92,10.06 -0.49,8.69 -1.49,17.39 -0.67,5.84 -0.59,12.84 0.78,18.26l-1.8 0.7 3.75 1.82 -0.08 -2.1 0.05 -200.12c10.59,-2.46 18.98,-9.06 22.57,-16.65 -3.38,-0.43 -1.32,-1.01 -4.22,-2.34 -4.94,-2.27 -6.29,-0.72 -6.72,-0.62l-2.45 0.92c4.09,-5.55 -1.35,-5.88 -4.57,-6.98 -15.08,15.74 -37.1,4.07 -34.11,-20.49 -2.42,0 -3.43,1.1 -1.21,-1.95 -2.58,-4.15 -0.76,-8.1 1.92,-11.45 0.18,-0.23 0.5,-0.49 0.68,-0.71 2.99,-3.61 2.9,-2.6 3.18,-9.08l11.53 0c0.25,-7.9 3.39,-6.64 9.96,-8.61 -8.43,-6.24 -39.91,1.89 -46.15,29.94 -2.74,12.32 0.65,23.41 5.8,31.59 5.99,9.53 11.54,11.8 23.64,16.93l-0.09 42.39zm183.51 190.59c0.68,1.18 0.79,2.21 1.25,3.36l9.27 8.91c5.62,2.94 9.16,7.73 13.75,12.24 4.63,4.56 8.02,8.16 12.63,12.79 5.89,5.91 22.24,20.42 24.91,26.42l4.56 2.94c4.83,4.38 8.5,10.05 14.23,13.07l1.14 -3.11c3.94,-9.95 1.45,-6.21 5.69,-9.52 0.14,-0.11 0.5,-0.38 0.63,-0.49l2.39 -2.43c-3.45,-6.53 -20.06,-21.36 -26.36,-27.51 -6.01,-5.87 -23.47,-21.81 -26.74,-27.68 -2.65,-1.65 -2.39,-0.35 -2.56,-3.33l-9.1 -8.02 -6.59 -5.21c-1.65,2.41 -0.41,6.47 -1.58,11.73 -13.97,10.52 -9.67,-15.24 -10.46,-23.12 -1.16,-2.57 -0.12,-1.36 -2.4,-3.99l-3.48 -3.78c-4.64,3.14 -1.43,-1.53 -2.27,5.52 0,0.01 0.04,6.35 0.03,7.08 -0.06,6.2 -0.48,8.01 1.06,14.13zm-182.43 105.39l0 -3.65 8.69 -0.89 -0.05 -11.26c-19.13,0.01 -83.8,-2.44 -97.62,0.84l-1.78 0.87c0.25,3.47 1.85,4.69 2.79,8.08 -5.47,0.29 -2.73,3.09 -15.14,2.25 -5.65,-0.37 -11.36,-1.76 -11.71,3.68l114.82 0.08zm-10.34 -385.03c3.81,-5.11 5.09,-8.7 11.08,-11.37 5.7,-2.53 13.47,-1.86 18.78,1.15 10.12,5.74 13.58,21.35 4.25,30.71 3.22,1.1 8.66,1.43 4.57,6.98l2.45 -0.92c0.43,-0.1 1.78,-1.65 6.72,0.62 2.9,1.33 0.84,1.91 4.22,2.34l4.54 -6.53c1.36,-3.24 2.32,-6.66 2.78,-10.3 2.91,-23.52 -14.98,-45.02 -33.33,-44.48 -6.57,1.97 -9.71,0.71 -9.96,8.61l-11.53 0c-0.28,6.48 -0.19,5.47 -3.18,9.08 -0.18,0.22 -0.5,0.48 -0.68,0.71 -2.68,3.35 -4.5,7.3 -1.92,11.45 -2.22,3.05 -1.21,1.95 1.21,1.95zm-47.36 -91.98c3.64,2.89 8.87,4.29 11.42,12.7 2.26,7.45 0.68,10.59 -1.75,16.27 -1.32,3.11 -0.8,0.76 -1.23,3.53l3.75 0.57c-0.07,0.66 -0.6,9.08 -0.65,9.27 -1.91,6.69 3.16,-2.58 -2.3,3.58 -0.26,0.29 -0.72,0.66 -0.94,0.89 -0.24,0.24 -0.72,0.56 -1.01,0.91l4.92 2.11 -1.41 4.51c11.14,-4.67 20.88,-16.55 21.87,-32.79 1.15,-18.84 -7.91,-26.97 -16.71,-35.52 -0.41,0.25 -0.98,0.16 -1.16,0.84 -0.17,0.64 -0.83,0.6 -1.04,0.87 -2.07,2.65 -2.28,2.18 -2.12,6.6l-9.41 0c-0.45,8.98 1.14,1.97 -2.23,5.66zm-34.74 49.48c5.03,-7.14 1.66,-15.95 2.1,-25.01 0.53,-11.08 2.79,-7.23 0.69,-17.27 -0.66,-3.15 -0.73,-2.43 -0.81,-5.99l7.32 0.98c0.37,0.04 0.92,0.14 1.39,0.15 2.03,-5.91 3.26,-9.25 1.82,-15.18l7.08 0.79c4.71,1.79 -1.73,-4.39 1.36,0.9 3.67,-2.69 3.39,-4.66 5.76,-6.9 1.35,-1.28 5.78,-2.55 6.43,-2.85 -41.06,-6.77 -61.96,46.33 -33.14,70.38zm273.14 277.94c-18.18,9.96 -22.7,-25.59 0,-22.55 -0.71,6.72 2.32,1.65 -4.87,4.37 -10.32,3.92 -8.16,13.36 -0.65,16.68 6.63,-2.83 6.4,0.02 5.73,-8.04 -2.92,1.29 -1.48,1.08 -3.47,2.7 -1.14,0.93 0.25,0.72 -2.36,1.94 -2.54,-4.11 -1.85,-3.08 -1.37,-8.65l6.99 -0.17 0 13.72zm-18.43 -22.53l0.06 24.41c7.52,2.83 9.05,6.5 18.37,2.77l0 10.57c-2.1,-5.07 -0.83,-4.83 -7.03,-4.17 -4.17,7.21 -1.63,9.83 -2.05,14.89 -0.54,6.42 1.47,2.61 -2.13,5.06l-0.71 2.03 6.88 4.08c-2.33,-4.84 -2.92,-17.75 -1.13,-23.69l3.9 0c1.32,6.12 2.22,20.63 -0.45,25.75 1.49,2.53 0.16,1.03 1.91,2.91 1.84,1.98 1.13,1 2.54,2.12 -1.54,-6.12 -1.12,-7.93 -1.06,-14.13 0.01,-0.73 -0.03,-7.07 -0.03,-7.08 0.84,-7.05 -2.37,-2.38 2.27,-5.52l-0.71 -11.27 0.07 -28.08 -0.1 -11.5 0.02 -24.19 0 -43.84 0 -23.6 -0.01 -43.84 0.03 -21.19c-1.55,2.07 -0.93,-0.6 -2.1,5.1l-0.11 157.63c-12.42,-2.05 -8.86,3.36 -18.43,4.78zm-54.77 -105.58c1.59,7.38 2.23,7.75 1.54,16.3l7.73 3.52c0.01,2.55 -0.41,6.35 0.37,8.7 1.92,5.83 0.76,0.13 4.16,5.2 9.72,-7.44 9.75,-27.32 6.13,-37.21 -6.28,-17.15 -11.47,-14.76 -22.61,-24.04 -3.61,3.69 3.11,0.92 -5.1,4.49l0.42 8.53c5.85,1.71 4.08,2.5 10.32,2.71l-0.11 7.91c-0.01,0.27 0.01,0.76 0.01,1.02l-2.86 2.87zm93.73 277.7l46.2 0.19 0 -3.98 8.11 -1.19 0.63 -10.77 -55.15 -0.02 0.21 15.77zm-89.38 -0.07l45.5 0.07 0 -3.65 8.7 -0.89 -0.05 -11.23 -54.7 0 0.55 15.7zm249.93 74.46l18.86 56.29 0.07 -6.08c-1.2,-10.65 3.42,-2.85 13.98,-7.98 0.33,-0.16 0.81,-0.52 1.27,-0.64l-2.28 -3.37c-2.84,1.1 -4.9,1.17 -9.01,0.86 -0.18,-6.35 -1.97,-9.56 -5.62,-11.24l0 -3.7c12.46,3.36 -0.32,-5.49 10.88,-0.27l-6.57 -21.59c-3.73,2.15 -3.15,-4.67 -3.15,2.64l-3.52 0 0 -5.62c-10.84,0 -9.35,1.91 -14.91,0.7zm-98.75 -100.05l6.35 8.03c0.84,2.65 3.13,1.41 -4.12,1.97 -2.38,0.18 -6.5,-0.09 -9.09,-0.09l-0.63 10.77 -8.11 1.19 0 3.98c40.07,3.48 20.6,-3.79 32.13,-4.99 -1.07,-3.09 -3.15,-0.64 -4.6,-5.49 9.89,-3.87 -2.53,1.18 3.51,-6.8 2.81,-3.71 5.46,-9.47 5.21,-13.33 -1.85,-3.85 -6.89,-8.96 -10.8,-10.79l-2.39 2.43c-0.13,0.11 -0.49,0.38 -0.63,0.49 -4.24,3.31 -1.75,-0.43 -5.69,9.52l-1.14 3.11zm117.61 156.34c-0.25,5.07 6.93,26.84 8.92,30.06 9.01,4.1 1.78,1.71 4.68,-2.05 -2.8,-2.24 -0.69,-1.76 -2.81,-6.56 4.05,0.44 4.35,-1.64 8.32,0.25l1.95 1.29c0.25,0.17 0.66,0.53 0.98,0.79 1.55,-7.05 0.27,-4.16 3.95,-4.21 -1.04,-4.58 -1.6,-6.88 -2.54,-9.76 -0.91,-2.77 -1.89,-5.49 -2.85,-8.46 -1.65,-5.07 -3.4,-10.55 -5.28,-16.05 -0.46,0.12 -0.94,0.48 -1.27,0.64 -10.56,5.13 -15.18,-2.67 -13.98,7.98l-0.07 6.08zm-132.5 -608.62c14.98,1.69 20.95,12.42 17.57,28.72 7.34,-1.37 -1.55,0.24 5.64,-3.89 1.79,-1.03 3.94,-1.04 6.29,-2.17 0,-1.45 -0.17,-4.44 -0.03,-5.71 0.47,-4.36 1.44,-5.83 5.99,-8.66 0.28,-0.17 0.77,-0.43 1,-0.57 0.23,-0.14 0.7,-0.35 1.03,-0.56 -5.77,-11.99 -10.55,-20.56 -23.44,-24.14 1.87,14.05 5.56,3.11 6.32,12.32l-8.51 0c-1.36,-5.46 -2.66,-3.78 -2.81,-10.62l-9.05 15.28zm-248.14 477.94l43.88 0 -0.22 -15.8 -35.02 0 0.05 11.26 -8.69 0.89 0 3.65zm157.35 0l43.88 0 -0.21 -15.77 -35.02 0 0.05 11.23 -8.7 0.89 0 3.65zm-158.43 -161.11l0.06 23.65c6.66,-0.89 9.99,-0.63 16.46,-1.01l1.8 -0.7c-1.37,-5.42 -1.45,-12.42 -0.78,-18.26 1,-8.7 2.41,-7.33 1.49,-17.39l-9.52 -0.34c0,12.86 3.05,14.05 -9.51,14.05zm0 -67.44l0 21.41 17.29 0c0,-12.79 2.71,-24.54 1.74,-35.11l-9.52 -0.35c0,12.87 3.05,14.05 -9.51,14.05zm0 -67.43l0 21.4 17.29 0c0,-12.79 2.71,-24.54 1.74,-35.11l-9.52 -0.34c0,12.86 3.05,14.05 -9.51,14.05zm300.64 -79.48l-29.79 0.01 -0.45 17.95c18.24,0.01 19.92,2.32 23.4,-5.16 0.1,-0.21 0.17,-0.72 0.37,-1.02l7.33 -0.71 -0.86 -11.07zm-85.19 -105.12c5.82,-1.23 -0.35,-1.81 4.32,1.72 0.24,0.18 0.52,0.52 0.76,0.72 0.25,0.2 0.54,0.52 0.78,0.73 8.94,7.67 4.34,6.32 7.55,10.38 1.98,-1.57 5.78,-5.62 7.25,-8.61 -4.4,1.04 -1.85,1.65 -1.75,-3.23 0.1,-4.64 0.47,-2.72 1.21,-4.22 2.87,-5.81 6.13,-3.04 10.64,-7.42 9.74,-9.45 4.45,-2.36 9.03,-6.25 -1.37,-4.55 -19.65,0.15 -23.31,1.71 -7.8,3.3 -13.39,8.33 -16.48,14.47zm-170.49 480.58l23.02 -0.07 0.02 -3.7 8.96 -1.37 0 -10.66 -32.22 0 0.22 15.8zm313.09 57.01c-0.04,4.31 2.44,14.28 4.81,17.38 5.56,1.21 4.07,-0.7 14.91,-0.7l0 5.62 3.52 0c0,-7.31 -0.58,-0.49 3.15,-2.64l-8.87 -26.17c-0.33,0.33 -0.69,0.81 -0.91,1.05l-4.61 4.57c0,-0.02 2.76,-4.1 -8.23,-4.32 -2.66,-0.05 -2.12,0.7 -3.07,3.45 -0.84,2.41 1.23,-0.71 -0.7,1.76zm-118.97 -244.82c2.6,8.85 6.63,11.73 12.94,16.31l1.49 -7.46c7.17,0.59 5.44,1.4 5.54,6.07l5.62 0c-0.39,-8.04 2.12,-6.53 4.26,-7.78 -2.16,-4.35 -4.87,-6.84 -9.15,-9.06 -0.33,6.23 0.38,1.19 -2.13,5.61 -6.2,-2.48 -0.93,-5.6 -6.07,-10.72 -6.1,-6.05 -2.97,-4.49 -10.79,-4.73 -1.22,3.25 -1.16,-0.56 -1.06,5.47 0.11,7.38 0.64,2.84 1.06,2.96 1.27,3.19 -0.24,1.72 -1.71,3.33zm-2.97 -287.83c5.39,-0.53 5.74,-2.5 13.11,-2.3l9.05 -15.28c0.15,6.84 1.45,5.16 2.81,10.62l8.51 0c-0.76,-9.21 -4.45,1.73 -6.32,-12.32 -1.34,-2.24 -4.72,-1.93 -8.03,-1.84 -4.58,3.89 0.71,-3.2 -9.03,6.25 -4.51,4.38 -7.77,1.61 -10.64,7.42 -0.74,1.5 -1.11,-0.42 -1.21,4.22 -0.1,4.88 -2.65,4.27 1.75,3.23zm-43.08 104.65c-2.25,2.81 -4.13,6.41 -4.86,8.49l0.66 1.63c0.1,0.26 0.32,0.88 0.41,1.12 0.1,0.29 0.39,1.57 0.47,1.33 0.09,-0.27 0.33,0.99 0.5,1.48 7.64,-5.42 6.04,-3.11 12.09,-0.41 3.83,1.71 -1.23,2.71 4.63,0.81 3.78,-2.45 5.63,-7.69 5.25,-13.24l-0.89 -4.02c-0.19,-0.01 -0.51,0.04 -0.58,0.05l-8.02 0.68c-6.94,-1.58 4.56,-0.8 -4.05,-1.23 -0.98,2.98 -4.58,3.18 -4.58,3.18 -0.14,-0.3 -0.69,0.21 -1.03,0.13zm-373.56 443.97l4.95 -18.26 -0.62 0.03c1.19,-1.18 2.19,-0.04 -2,-3.43 -6.36,-5.14 -19.89,-2.28 -13.73,13.23 4.15,10.46 -7.65,0.07 11.4,8.43zm373.61 -458.01l-0.05 14.04c0.34,0.08 0.89,-0.43 1.03,-0.13 0,0 3.6,-0.2 4.58,-3.18 8.61,0.43 -2.89,-0.35 4.05,1.23l8.02 -0.68c0.07,-0.01 0.39,-0.06 0.58,-0.05l0.89 4.02c1.94,-2.6 0.75,0.76 1.67,-4.13 0.33,-1.78 0.33,-5.03 0.23,-6.88 -0.23,-4.1 -0.71,-7.06 -3.2,-10.07l-3.29 2.34c-4.26,3.43 -0.97,1.68 -11.2,1.52l0.43 3.71c-0.05,0.36 -0.19,0.84 -0.26,1.19l-0.74 2.68c0,-11.3 0.5,-1.23 -2.74,-5.61zm-29.53 245.87l1.62 12.78c2.12,3.95 1.69,5.21 5.4,7.79 3.6,-2.45 1.59,1.36 2.13,-5.06 0.42,-5.06 -2.12,-7.68 2.05,-14.89 6.2,-0.66 4.93,-0.9 7.03,4.17l0 -10.57c-9.32,3.73 -10.85,0.06 -18.37,-2.77l0.14 8.55zm189.56 167.19c-0.59,8.79 1.58,4.14 -4.14,5.56l-2.81 0.06c0.1,6.63 1.26,7.16 1.41,11.94 26.46,0 0.6,-4.95 17.56,-5.62l0 -9.84c-4.61,-0.18 -1.83,-0.44 -5.51,-2.16 -0.1,-0.05 -0.39,-0.26 -0.48,-0.29 -0.23,-0.08 -3.25,0.34 -6.03,0.35zm-353.02 -161.74c-2.6,3.01 -6.02,4.94 -6.58,8.48 2.31,8.1 -1.28,14.47 7.22,19.36l2.38 -2.36c-2.79,-5.8 -8.66,-11.1 -1.8,-19.05 6.22,-7.22 11.28,-1.42 17.55,-0.28l0.28 1.03 -0.62 -2.5 -0.09 -4.5c-7.9,-2.5 -10.14,-3.53 -18.34,-0.18zm167.64 -107.45c2.3,9.77 0.88,7.61 0,16.29l11.24 2.24c1.28,-6.44 2.23,-13.48 0,-19.94 -5.94,0 -6.43,0.54 -11.24,1.41zm222.91 401.9l3.4 10.6c2,-3.56 -3.43,-3.06 5.13,-2.1 8.49,0.95 -2.69,-0.49 4.59,2.1 0.03,-1.66 0.29,-8.47 0.57,-9.77l3.15 -9.66 0.23 -1.66c-3.68,0.05 -2.4,-2.84 -3.95,4.21 -0.32,-0.26 -0.73,-0.62 -0.98,-0.79l-1.95 -1.29c-3.97,-1.89 -4.27,0.19 -8.32,-0.25 2.12,4.8 0.01,4.32 2.81,6.56 -2.9,3.76 4.33,6.15 -4.68,2.05zm-208.86 -310.33l0 -13.72 -6.99 0.17c-0.48,5.57 -1.17,4.54 1.37,8.65 2.61,-1.22 1.22,-1.01 2.36,-1.94 1.99,-1.62 0.55,-1.41 3.47,-2.7 0.67,8.06 0.9,5.21 -5.73,8.04 -7.51,-3.32 -9.67,-12.76 0.65,-16.68 7.19,-2.72 4.16,2.35 4.87,-4.37 -22.7,-3.04 -18.18,32.51 0,22.55zm-175.84 37.76c3.12,-1.31 2.37,-1.1 5.3,-3.98 0.47,-0.45 2.41,-2.44 2.72,-2.88 1.91,-2.69 0.88,-0.56 1.65,-3.5 -0.9,-3.5 -0.87,-5.03 -5.53,-5.61 -3.93,-0.49 -5.29,0.23 -7.22,3.63 -2.41,4.23 -3.12,11.26 3.08,12.34zm388.82 224.44c0.25,-4.69 -1.59,-10.66 -3.75,-14.35 -11.2,-5.22 1.58,3.63 -10.88,0.27l0 3.7c3.65,1.68 5.44,4.89 5.62,11.24 4.11,0.31 6.17,0.24 9.01,-0.86zm-430.92 -182.31c1.79,-0.78 0.6,0.57 2.3,-1.31 1.43,-1.6 0.66,-0.92 1.26,-2.29l-1.47 -11.97 -7.54 -0.75c-3.5,3.15 -0.29,3.65 -5.37,4.71 1.03,9.12 4.32,-3.56 6.78,12.38 1.59,-1.31 2.8,-0.57 4.04,-0.77zm238.77 -43.26l0.82 -2.07c-2.99,-1.04 -3.41,-1.12 -5.82,-2.48 1.82,7.2 2.46,12.37 -1.78,15.29 -1.78,-2.64 -0.52,2.35 -1.69,-3.27 -0.33,-1.57 -1.32,-12.56 1.24,-14.37 -2.46,-4.76 0.6,-2.04 -4.81,-4.49 0.79,7.88 -3.51,33.64 10.46,23.12 1.17,-5.26 -0.07,-9.32 1.58,-11.73zm-25.87 0.48c0.85,1.91 0.68,1.53 2.32,2.06 2.67,-5.12 1.77,-19.63 0.45,-25.75l-3.9 0c-1.79,5.94 -1.2,18.85 1.13,23.69zm-173.63 4.25c2.27,-1.45 1.59,-0.4 2.83,-3.6 -6.2,-1.08 -5.49,-8.11 -3.08,-12.34 1.93,-3.4 3.29,-4.12 7.22,-3.63 4.66,0.58 4.63,2.11 5.53,5.61l2.38 0 0.87 -5.37c-6.27,-1.14 -11.33,-6.94 -17.55,0.28 -6.86,7.95 -0.99,13.25 1.8,19.05zm77.24 -22.8c3.72,3.86 3.58,6.45 3.63,12.93 0.03,5.06 -0.11,10.4 -0.22,15.46 -1.85,2.11 2.18,1.78 -3.39,1.66l-0.03 2.13 6 -0.84c0.46,-6.23 2.25,-27.88 -2.84,-32.47 -2.79,-2.5 0.55,-0.17 -3,-1.64l-0.15 2.77zm0.02 30.05c5.57,0.12 1.54,0.45 3.39,-1.66 0.11,-5.06 0.25,-10.4 0.22,-15.46 -0.05,-6.48 0.09,-9.07 -3.63,-12.93l0.02 30.05zm-202.01 -16.54c3.98,-2.7 2.29,-1.54 3.68,-4.44 -1.61,-2.87 0.62,-7.06 3.58,-9.85 1.77,-1.67 2.8,-2.45 5.28,-3.36 6.59,-2.4 3.36,-1.37 4.27,0.42l2.96 -0.21 2.69 -5.6c-5.74,2.53 -12.85,1.78 -16.65,5.83 -3.09,3.29 -5.57,10.43 -5.81,17.21zm111.38 -3.78c2.83,2.75 1,5.27 2.63,9.96 1.74,5.02 3.18,4.09 4.62,8.61 3.47,-1.46 2.29,-0.8 3.74,-3.14 -8.5,-4.89 -4.91,-11.26 -7.22,-19.36 -3.54,1.86 -2.35,0.38 -3.77,3.93zm207.87 3.79l-2.23 -2.35c-2.56,1.81 -1.57,12.8 -1.24,14.37 1.17,5.62 -0.09,0.63 1.69,3.27 4.24,-2.92 3.6,-8.09 1.78,-15.29zm-197.55 -19.95l0.03 3.75c8.2,-3.35 10.44,-2.32 18.34,0.18l0.09 4.5c0.77,-1.23 0.96,-0.62 1.46,-3.18 0.18,-0.95 0.25,-3.46 0.29,-4.44l-3.75 -1.82c-6.47,0.38 -9.8,0.12 -16.46,1.01zm-118.02 15.5l13.13 -12.79c-0.91,-1.79 2.32,-2.82 -4.27,-0.42 -2.48,0.91 -3.51,1.69 -5.28,3.36 -2.96,2.79 -5.19,6.98 -3.58,9.85zm21.92 -22.13l2.83 -1.32 7.04 -5.57c-0.01,-1.96 -0.73,-0.73 1.15,-3.63l-9.46 0.18 -1.56 10.34zm196.52 44.31l0.14 -1.94c-6.28,-1.2 -2.58,-0.22 -5.09,-2.32 2,-4.7 -2.27,-1.25 4.98,-4.2l0.05 -1.83c-2.29,-0.1 -1.37,-0.32 -3.66,0.03 -5.38,0.83 -1.85,0.63 -3.81,1.23l-0.04 9.46 7.43 -0.43zm-126.01 -6.09l6.35 -1.44 4.72 6.03c0.65,-6.49 -0.89,-7.35 -6.46,-9.29l-2.02 -0.95 -2.59 5.65zm126.15 4.15l-0.11 -6.52c-7.25,2.95 -2.98,-0.5 -4.98,4.2 2.51,2.1 -1.19,1.12 5.09,2.32z"/>
 </g>
</svg>
