<?xml version="1.0" encoding="UTF-8"?>
<!DOCTYPE svg PUBLIC "-//W3C//DTD SVG 1.1//EN" "http://www.w3.org/Graphics/SVG/1.1/DTD/svg11.dtd">
<!-- Creator: CorelDRAW 2019 (64-Bit) -->
<svg xmlns="http://www.w3.org/2000/svg" xml:space="preserve" width="100%" height="100%" version="1.1" style="shape-rendering:geometricPrecision; text-rendering:geometricPrecision; image-rendering:optimizeQuality; fill-rule:evenodd; clip-rule:evenodd"
viewBox="0 0 832.02 719.68"
 xmlns:xlink="http://www.w3.org/1999/xlink">
 <defs>
  <style type="text/css">
   <![CDATA[
    .fil0 {fill:white}
   ]]>
  </style>
 </defs>
 <g id="Layer_x0020_1">
  <metadata id="CorelCorpID_0Corel-Layer"/>
  <path class="fil0" d="M194.71 0.03c1.66,8.01 -1.38,1.98 5.08,3.43 0.5,0.11 3.35,0.12 3.84,0.22 6.57,1.39 10.05,7.67 9.71,10.67 -0.99,8.64 -10.16,-1.5 -10.16,18.63l0 10.16 27.1 0c-3.58,10.7 5.26,3.49 -7.55,8.35 -0.81,0.3 -6.58,1.05 -10.43,1.16 -9.19,0.27 -12.21,1.9 -19.95,3.35 0.67,3.65 1.33,8.78 -1.09,11.53 0,0.01 0,-0.18 0,-0.27 -0.01,-0.14 0.02,-0.28 0.07,-0.41 -0.69,0.25 -1.5,0.35 -2.17,0.35 -0.62,0.01 -1.31,0.24 -2.01,0.19 -5.44,-0.43 -4.58,-2.06 -6.33,-5.86 -0.15,-0.33 -0.28,-0.83 -0.44,-1.14 -1.22,-2.38 -1.52,-2.34 -1.83,-2.68 -4.63,-4.99 -5.83,0.3 -5.83,-16.27 2.52,3.24 3.05,-2.87 -2.82,3.33 -3.68,3.89 -0.06,3.96 -7.35,5.13 -0.26,-0.47 -0.45,-1.14 -0.54,-1.52 -0.08,-0.37 -0.36,-1.03 -0.44,-1.47l0.16 -5.21c0.04,-0.19 1.04,-3.12 1.33,-3.9 0.75,-2.01 7.69,-11.49 0.27,-13.31 -2.55,3.39 -1.81,1.91 -3.07,5.62l-0.21 11.04c-0.58,0.51 -16.78,11.62 -15.28,6.36 2.58,5.58 1.12,6.68 -1.97,11.71 -5.07,8.27 -6.15,12.3 -14.37,16.05 -1.04,0.48 -5.75,2.33 -5.83,2.38 -4.23,2.48 -1.84,-1.08 -2.54,2.75 1.51,5.88 0.82,6.95 1.85,11.25l1.71 4.6c2.14,6.47 1.36,11.02 1.36,18.01l-11.41 6.11c-3.77,0.76 -10.98,0.35 -15.11,0.35l-0.12 -13.76c-6.16,0.07 -2.57,-1.07 -5.49,3.11 -3.49,8.5 -1.42,22.88 -1.42,32.98l-0.01 -1.68 -20.27 -0.01 -0.73 -11.09c-2.69,1.63 -3.23,1.87 -6.1,3.39 -3.58,-2.31 -2.55,-2 -3.39,-0.78 -10.97,0.92 -7.18,-2.08 -11.51,-7.51l-19.84 7.92c-3.43,3.12 -10.83,3.11 -16.66,7.48 -4.86,3.63 -9.1,8.41 -11.19,14.31 -5.26,14.92 3.6,33.56 -0.43,48.35 0.25,0.44 0.46,1.03 0.58,1.38l13.23 83.87 1.17 10.3c0.28,0.34 0.6,0.5 0.69,1.14l16.23 58.95c0.53,-0.28 0.87,-1.77 1.02,-1.48l5.04 -23.18c-1.9,-0.69 -0.93,-0.54 -2.57,0.03 -0.11,0.04 -2.1,1.35 -3.19,2 -1.01,-4.94 -1.54,-5.59 -2.7,-10.49 -1.58,-6.65 -0.12,-2.42 -2.12,-7.21 -0.12,-0.29 -0.34,-0.74 -0.47,-1.02l-2.47 -5.33c-1.67,-4.86 -0.74,-5.31 -1.37,-8.1l-1.12 -3.3c-0.1,-0.31 -0.34,-0.75 -0.44,-1.07 -0.1,-0.31 -0.31,-0.76 -0.39,-1.08l-0.99 -21.99c-1.11,-3.8 -0.75,-2.13 -2.02,-3.98 -0.34,-0.5 -1.65,-1.88 -2,-2.28 -0.33,-0.37 -0.81,-0.82 -1.09,-1.12 -0.27,-0.29 -0.8,-0.68 -1.1,-1.1l9.3 -3.03c10.08,-3.95 20.01,-2.04 33.02,-2.04 0,30.88 3.46,12.63 8.32,30.34 1.98,7.22 3.5,6.48 4.56,12.28 1.17,6.38 1.31,12.42 2.36,18.32 -8.41,-0.43 -6.72,2.49 -10.15,-3.38l-1.7 10.17c6.29,0 10.51,-1.32 14.89,2.06 1.58,1.21 3.46,6.77 4.67,9.3l4.85 13.06c3.7,19.98 -10.12,11.5 10.18,20.38 -8.1,-31.13 -18.51,-59.67 -25.67,-92.68 -6.48,-29.92 -13.26,-69.96 -14.18,-101.33 6.82,-2.16 27.92,-12.2 30.68,-16.99 9.93,-3.9 22.37,-14.22 30.38,-20.18 6.01,-4.47 8.82,-7.25 13.96,-11.39 5.67,-4.57 7.59,-8.26 14.02,-10.69 0.76,-1.61 -0.15,-0.38 1.73,-2.59 0.71,-0.84 23.94,-24.58 27.42,-25.5 3.31,-7.01 12.04,-13.05 17.32,-19.28 5.52,-6.49 10.74,-12.79 17.09,-18.96 8.38,-0.33 19.05,2.52 26.2,0.16 7.06,-1.91 3.85,0.05 6.85,-1.57 9.76,-5.29 3.86,-3.79 20.58,-3.79l0 -5.65 -6.77 0 0 -11.28 28.21 0c0,5.25 0.23,10.74 0.18,15.91 -0.08,8.87 1.26,3.76 -2.44,10.33 58.22,5.72 126.66,-0.34 185.86,-0.51l52.93 -3.59c4.82,5.26 3.81,6.23 10.42,9.47 0.56,0.05 -0.75,3.4 1.44,-1.15l1.07 -6.35c12.74,-0.92 2.8,2.99 17.42,3.18 7.24,0.09 14.69,-0.63 22.14,-0.63l-1.4 7.41c-0.18,0.55 -0.34,0.91 -0.54,1.41 -0.18,0.47 -0.4,0.84 -0.59,1.26 -6.77,14.8 -0.98,8.54 -6.28,16.32 -9.54,-1.07 3.01,-1.93 -5.5,-5.23 -3.94,-1.52 -7.15,-0.02 -10.62,2.57l12.38 13.73c3.82,-4.94 14.5,-23.63 20.29,-25.88l4.7 -6.07c-3.55,-3.46 -2.44,1.26 -1.03,-7.23 2.23,-13.47 0.01,-7.29 -10.29,-11.87 -18.01,-8.01 -6.69,-10.41 -18.59,-14.22 -0.66,-19.63 -11.37,-6.52 -8.03,-18.42 2.2,-7.82 -1.96,-3.06 5.52,-4.6 -2.19,-2.86 -1.89,-2.77 -5.81,-5.29 -1.56,-1 -1.78,-0.95 -3.35,-1.98 -3.52,-2.31 -1.07,-0.28 -3.19,-2.45 -56.05,1.97 -113.37,7.47 -172.57,7.44 -30.48,-0.01 -59.65,-0.6 -89.81,-1.9 -25.33,-1.1 -60.02,-6.18 -82.94,-5.74zm244.23 393.84c0.4,-11.6 1.49,-13.89 12.13,-12.67 4.04,24.49 -19.05,34.14 -30.5,21.97 -6.58,-6.98 -5.92,-14.21 -5.89,-24.72 0.04,-17.27 -2.51,-32 8.28,-28.58 4.93,1.56 3.13,5.32 5.46,10.22 14.79,-0.42 28.43,-4.05 21.18,13.01l-22.62 0.48c0.44,15.23 -3.02,21.44 11.96,20.29zm-6.3 -117.48l1.41 37.54c-2.54,3.59 7.04,4.03 -17.48,3.57l-88.06 -0.03c-6.21,0 -12.4,-0.04 -18.6,0.08 -10.21,0.19 -9.77,1.09 -18.65,-3.45l4.89 3.78c4.78,4.48 2.46,1.02 3.52,7.48l20.68 1.05c0.16,7.82 5.85,8.54 2.22,18.83 -1.33,3.76 -0.07,-2.12 -2.38,4.57l-2.29 -1.26c-0.32,-0.16 -0.8,-0.43 -1.17,-0.59 -5.44,-2.31 -10.61,-2.44 -15.87,-0.53 -0.49,0.18 -1.94,0.96 -2.26,1.12l-2.12 11.11c6.2,2.68 -4.1,-4.2 1.79,1.72 3.1,3.11 0.42,3.7 4.16,3.83 2.57,-1.41 0.47,-0.58 5.56,-2 0.07,-0.36 0.31,-0.85 0.43,-1.01 4.54,-6.23 7.35,-4.46 16.95,-1.71 10.47,3.01 5.45,-3.51 18.91,-1.5 4.08,-7.48 5.01,-15.29 18.22,-16.22 12.12,-0.86 16.98,5.5 20.61,13.67 1.83,2.52 1.94,1.3 2.66,6.03 0.85,5.61 0.44,1.08 -1.11,2.78 10.22,-6.24 7.57,-5.79 21.36,-4.93l2.38 9.32c-7.12,5.01 -4.77,1.96 -13.29,5.42 -2.67,8.43 -0.25,15.45 -3.21,22.43 -4.81,11.35 -6.63,1.32 -10.12,12.23 -1.15,17.4 3.13,13.79 -19.44,13.95 -17.95,0.13 -16.91,0.88 -14.75,-15.64 -1.52,-21.76 4.56,-34.2 -8.92,-34.75 -5.47,7.84 0.13,22.6 -2.67,29.9 -1.69,4.39 -12.43,12.73 -12.31,-9.4 0.17,-31.91 -11.5,-17.18 -11.79,-16.59 -3.64,7.43 1.35,20.36 -3.71,30.26 -5.99,0.67 -4.92,1.7 -9.13,-1.92 -4.42,-6.62 -2.45,-16.25 -2.92,-23.85 -0.99,-16.06 5.79,-11.55 -3.04,-11.55l0 9.24 -5.91 -3.39c1.3,13.8 6.3,34.71 -9.94,31.48l-1.3 -9.34c-0.54,-4.75 -2.48,-2.68 -2.98,-4.6 -0.32,-1.22 -1.36,-1.01 -2.03,-1.52 1.78,2.15 0.17,1.35 0.96,4.07l-0.23 10.97 -6.13 4.02c-7.14,4.17 -8.01,3.49 -16.72,3.52 0,10.19 -3.03,8.04 -5.27,12.18 -3.22,5.96 -2.13,11.23 -2.35,15.56 0.58,3.47 -2.5,2.29 3.89,6.02 3.34,1.95 3.66,1.43 7.12,1.77l199.92 0.08c36.64,-0.03 37.27,4.42 37.27,-32.81l-28.28 -6 1.4 -8.52c0.75,-12.58 -3.9,-30.59 2.62,-42.24l8.5 0.13 6.79 -2.88c-1.37,-4.42 1.16,-2.24 -2.08,-5.51 -11.95,1.19 -19.08,6.68 -26.62,-5.87 -5.45,-9.08 -1.49,-20.52 3.12,-26.45l-9.9 -10.63c-2.21,-2.93 4.19,-3.16 -4.68,-1.32l0 -13.19 0 -10.75c4.7,-0.06 3.25,1.23 3.39,-4.3l-7.66 0.36c1.93,-12.07 0.05,-1.77 3.38,-10.95 -7.96,2.59 -1.79,-4.26 -6.74,7.13zm-382.92 127.27c-0.14,8.52 11.05,31 14.95,40.06 4.95,12.64 15.24,32.2 21.53,43.25 4.05,7.12 7.82,13.76 11.82,20.36 4.2,6.95 9.32,13.6 12.26,21.04l6.84 8.34c5.57,8.55 12.32,16.07 17.13,23.59l0.7 -18.07 12.84 0 0 7.25 6.29 0c0.07,5.23 0.49,5.06 -0.84,9.27 -5.84,18.58 -5.1,9.53 -8.93,11.58 3.48,8.32 21.2,26.07 29.19,34.24 10.98,11.21 20.99,20.89 32.45,29.37 2.74,-11.71 -4.9,-5.14 12.9,-10.27 4.44,-1.28 2.06,-1.36 8.05,-1.36 2.62,3.16 1.98,1.26 3.2,6.65 0.35,1.55 0.18,5.15 0.18,6.89 8.82,0.06 6.72,-2.04 6.78,6.78l20.31 0 0 13.55 27.16 0 -0.06 20.31c-0.11,0.11 5.54,3.46 -8.45,0.01 1.94,6.63 -1.1,-0.18 3.37,6.95 1.56,3.34 -0.47,0.03 4.65,3.6l4.51 3.46 30.64 13.6c-1.22,-5.68 -2.07,-3.9 4.23,-3.9 -5.18,-4.22 -7.05,-8.66 -6.83,-15.31l20.49 0 -0.08 5.46 12.15 0c-0.01,-2.98 0.36,-9.27 0.02,-11.86 -0.67,-4.94 -1.16,-5.33 -5.42,-7.09 0.05,-2.05 -1.43,-5.59 7.1,-8.38l4.76 -2.08 -43.34 -20.73c-3.59,-1.92 -9.47,-4.24 -11.79,-7.39 -9.52,-3.29 -38.34,-21.29 -42.24,-28.57 -5.1,-1.26 -12.88,-7.21 -17.12,-11.94l-7.45 12.96 -33.55 -0.29 0 -27.34 -13.55 0.39 1.36 -22.89c-0.78,-1.8 0.43,-3.67 -5.35,-0.3 -0.59,-10.67 2.5,-5.36 -6.95,-7.07l0.74 -15.29c2.69,2 3.57,2.15 7.81,3.92l-31.52 -42.82 -5.35 -1.68c-0.25,0.4 -0.62,0.9 -0.85,1.12 -6,5.58 -15.21,3.64 -27.63,3.64 0,-11.79 -1.93,-23.52 3.07,-30.16 9.28,1.49 6.05,-4.24 6.77,6.78 1.79,-5.87 0.05,-1.55 5.09,-3.39l0.83 3.5c2.09,6.88 1.94,6.9 6.25,7.12 5.72,0.29 -2.33,2.34 3.82,-1.14 -7.5,-14.82 -15.4,-26.09 -24.28,-45.29l-20.97 -47.19c-2.48,10.65 -1.07,19.35 -11.38,10.32 -2.75,-2.4 4.09,-1.5 -5.02,-2.07 -5.72,-0.37 -12.75,0.54 -18.92,0.09 -9.49,-0.69 -11.51,-0.72 -13.31,0.14 -0.1,0.41 -0.39,0.91 -0.46,1.18l-0.6 7.1zm-16.52 -44.59l12.85 40.64 3.67 3.95 0.6 -7.1c0.07,-0.27 0.36,-0.77 0.46,-1.18 1.8,-0.86 3.82,-0.83 13.31,-0.14 6.17,0.45 13.2,-0.46 18.92,-0.09 9.11,0.57 2.27,-0.33 5.02,2.07 10.31,9.03 8.9,0.33 11.38,-10.32l-3.89 -11.07c-20.3,-8.88 -6.48,-0.4 -10.18,-20.38l-4.85 -13.06c-1.21,-2.53 -3.09,-8.09 -4.67,-9.3 -4.38,-3.38 -8.6,-2.06 -14.89,-2.06l1.7 -10.17c3.43,5.87 1.74,2.95 10.15,3.38 -1.05,-5.9 -1.19,-11.94 -2.36,-18.32 -1.06,-5.8 -2.58,-5.06 -4.56,-12.28 -4.86,-17.71 -8.32,0.54 -8.32,-30.34 -13.01,0 -22.94,-1.91 -33.02,2.04l-9.3 3.03c0.3,0.42 0.83,0.81 1.1,1.1 0.28,0.3 0.76,0.75 1.09,1.12 0.35,0.4 1.66,1.78 2,2.28 1.27,1.85 0.91,0.18 2.02,3.98l0.99 21.99c0.08,0.32 0.29,0.77 0.39,1.08 0.1,0.32 0.34,0.76 0.44,1.07l1.12 3.3c0.63,2.79 -0.3,3.24 1.37,8.1l2.47 5.33c0.13,0.28 0.35,0.73 0.47,1.02 2,4.79 0.54,0.56 2.12,7.21 1.16,4.9 1.69,5.55 2.7,10.49 1.09,-0.65 3.08,-1.96 3.19,-2 1.64,-0.57 0.67,-0.72 2.57,-0.03l-5.04 23.18c-0.15,-0.29 -0.49,1.2 -1.02,1.48zm275.19 -157.7c2.42,5.09 1.46,3.02 -5.61,8.69 -7,5.61 0.44,-2 -4.75,4.12 2.43,6.67 3.89,3.02 4.23,16.93l4.91 -3.45c5.81,-1.07 -4.35,-2.95 4.33,1.42l3.45 2.02c0,-6.71 -1.6,-3.82 5.04,-7.51 7.44,-4.14 1.31,-4.29 5.46,-3.31 5.82,1.37 3.05,0.54 8.61,3.54l2.91 -0.94c11.07,-10.41 43.25,-5.75 56.77,0.57 17.9,8.37 25.06,18.65 34.39,36.1 8.26,-4.35 -0.2,-2.18 5.37,-9.45 25.3,0.65 22.79,0.61 25.19,14.53l5.82 47.81c-0.12,0.49 -0.31,1.11 -0.52,1.64l0.92 -37.81c1.13,-11.2 -2.77,-22.61 -7.19,-32.11 -3.92,-8.44 -11.81,-17.84 -13.04,-23.67 -7.39,-3.44 -15.84,-15.4 -26.23,-21.73 -40.05,-24.42 -97.47,-15.4 -110.06,2.61zm472.75 -111.62c0.39,0.78 0.55,0.17 1.71,3.79l0.84 8.83c-5.96,-1.91 -5.14,-1.82 -13.28,-1.98l-0.39 -10.06 11.12 -0.58zm-93.61 -7.73c13.41,-1.51 29.18,-4.25 33.14,9.26 3.76,12.86 1.24,21.4 18.02,20.24l0.75 -0.1 5.78 -5.55c7.12,-5.06 13.4,-6.39 19.79,-1.44 7.7,5.95 15.42,11.93 13.95,26.05 4.5,0.46 8.03,1.07 11.58,3.25 7.28,4.48 5.37,5.93 5.37,5.93 -4.5,4.94 -3.73,9.1 -1.41,16.94 -0.39,0.4 -1.12,1.6 -1.28,1.81l-1.75 2.19c12.21,6.64 6.94,16.51 8.48,32.64 6.09,-2.01 2.44,-0.49 4.66,-4.49 4.18,-7.56 -0.14,-14.83 3.76,-24.65 11,-4.61 13.19,-0.52 19.06,-2.31 2.13,-0.66 0.79,1.02 2.79,-1.81 -1.36,-12.25 -4.9,-22.76 -9.41,-33.33 -2.1,-4.94 -9.58,-20.75 -14.85,-23.29l-6.66 -2.64c0.01,0.02 6.55,14.62 -3.98,10.01 -4.45,-1.95 -6.64,-14.39 -7.7,-17.89 -0.13,-0.41 -0.28,-0.85 -0.42,-1.25l-2.34 -7.69c-0.41,-4.9 0.32,-3.7 0.45,-4.25 -3.86,-3.92 -6.3,-6.06 -11.34,-7.05 -15.21,2.68 -5.02,-4.21 -14.12,-4.19 -11.41,0.02 -1.75,3.5 -7.3,8.3l-5.4 3.16c-2.49,0.83 -4.11,0.38 -7.04,0.91 -12.53,2.29 -6.34,8.1 -13.94,3l3.71 -4.97c0.28,-0.24 0.72,-0.49 1.01,-0.71l7.43 -4.49c-2.66,-20.3 -2.47,-15.54 -10.15,-16.94 3.33,-4.3 -4.42,-7.52 4.44,-2.65 -3.74,-3.57 -8.65,-3.13 -14.6,-3.8 -4.25,-1.02 -10.41,-0.21 -14.99,0.32 -16.14,1.87 -11.71,1.4 -15.49,5.57 1.94,-0.3 8.51,-1.51 10.33,-1.42l6.59 1.99c-7.04,3.33 -22.84,-1.63 -15.23,22.01l3.27 1.03c12.68,2.72 -7.19,-0.82 3.37,0.6 1.3,0.18 3.82,0.06 5.21,0.06 -0.57,-1.88 1.06,-2.58 -5.03,-1.86 -13.29,1.57 -4.13,-0.06 -8.51,3.5zm-54.52 293.03l-3.36 7.84c4.94,4.19 0.93,7.44 1.35,15.99 0.27,5.58 2.52,7.23 3.17,12.08 0.98,7.19 0.13,21.48 0.13,29.42l-16.93 0c-0.08,6.51 -2.69,9.28 -2.71,9.2 -0.09,-0.24 -0.52,0.6 -0.68,0.96 -2.56,-1.47 -0.94,-3.21 -7.01,-5.32 -1.97,4.93 -0.19,4.06 -6.37,5l-2.48 3.22c-2.62,4.34 -2.14,6.46 -5.38,7.99 1.37,1.3 7.52,-2.39 1.65,3.39l11.85 -1.71c0.19,9.91 2.85,12.96 1.71,25.41 -0.84,9.21 -1.19,20.34 -0.01,28.78 -0.65,2.94 -2.21,1.93 -3.58,5.09 -2.39,5.54 -1.5,7.12 -1.5,13.54l7.13 -1.87c0.54,-0.85 1.41,-0.13 2.11,-0.28 0.6,-0.44 -0.64,0.81 2.09,-2.07 0.27,-0.29 1.11,-1.26 1.38,-1.55 2.35,-2.51 0.43,-1.15 2.7,-2.7 4.88,-10.85 14.3,-24.63 21.06,-36.29 7.07,-12.19 11.68,-23.06 18.62,-35.75 2.01,-4.26 10.83,-24.65 12.45,-26.18l8.68 -22.02c-0.31,-0.5 -0.37,-1.4 -0.56,-1.68l-4.54 -3.38 -1.8 7.96c-0.13,0.42 -0.41,1.53 -0.61,1.86 -1.31,2.25 2.66,2.18 -10.25,3.09l0 -27.36 -13.55 0 0 -13.55c-7.34,-0.19 -7.9,-3.33 -14.76,0.89zm-51.48 -144.45c16.06,-14.22 10.23,-20.53 18.44,-20.97 10.14,-0.55 1.37,0.11 6.59,4.55l-6.4 10.75c-0.23,0.25 -0.6,0.6 -0.84,0.86l-9.32 8.71c1.25,7.39 2.56,9.52 1.5,15.57 1.26,7.44 15.12,21.08 20.14,25.75 1.21,0.99 3.42,3.02 3.99,3.42 3.17,2.22 0.91,1.21 3.95,1.98 5.08,-23.59 2.62,-12.88 13.21,-17.2 0.29,-0.12 0.71,-0.4 1,-0.54l4.04 -2.78c0.37,-0.15 0.84,-0.3 1.23,-0.42 0.41,-0.12 0.92,-0.15 1.34,-0.25 0.43,-0.09 0.95,-0.06 1.39,-0.14 2.73,-0.52 -0.35,5.09 5.74,-1.61 -9.88,0.31 -11.08,-3.96 -15.78,-8.66 -16.48,-16.41 -9.62,-13.95 -0.61,-31.06 3.8,-7.22 -0.61,-9.42 -1.99,-16.12 -10.94,-0.96 -23.31,-2.56 -25.96,-10.73 -1.22,-3.79 -1.29,-14.14 -0.89,-18.32 0.94,-9.71 3.3,-7.26 3.94,-11.52 -2.95,-3.92 -1.84,-2 -8.76,3.81 -1.4,1.17 1.73,0.64 -4.49,2.76 -0.15,-9.49 1.24,-22.63 0.06,-31.74 -0.52,-3.99 -1.6,-5.84 -2.75,-11.91 -1.82,-9.68 1.21,-6.1 -3.03,-8.84 -8.04,4.69 -16.28,39.82 -17.03,54.13 -0.88,16.63 0.7,51.36 11.29,60.52zm-322.45 83.23c-6.47,2.1 -2.86,1.4 -2.88,5.33l7.77 -1.2c12.78,-44.76 -3.3,-15.44 3.28,-37.97 0.15,-0.53 0.69,-2.01 0.83,-2.55 0.11,-0.43 0.16,-0.89 0.27,-1.33 1.74,-7.41 -6.18,-3.35 4.09,-8.43 -3.31,-1.57 3.17,-4.12 0.17,9.43 -0.11,0.52 -0.24,0.92 -0.34,1.47 -0.28,1.64 -0.45,3.33 -0.48,5 -0.14,8.91 4.02,14.89 3.18,27.02 -0.69,10.02 -4.5,3.06 -5.23,14.33l5.38 -4.63c-1.18,11.08 9.85,5.2 5.7,10.17l-4.13 3.08c-0.32,0.22 -0.96,0.5 -1.36,0.86l-0.98 23.72 -4.93 1.03c5.25,3.65 6.09,1.45 11.01,6.27 2.23,2.2 5.79,9.16 6.76,10.55l5.91 3.39 0 -9.24c8.83,0 2.05,-4.51 3.04,11.55 0.47,7.6 -1.5,17.23 2.92,23.85 -2.11,-18.03 -0.52,-25.11 3.37,-40.32 -3.74,-0.13 -1.06,-0.72 -4.16,-3.83 -5.89,-5.92 4.41,0.96 -1.79,-1.72l2.12 -11.11c0.32,-0.16 1.77,-0.94 2.26,-1.12 5.26,-1.91 10.43,-1.78 15.87,0.53 0.37,0.16 0.85,0.43 1.17,0.59l2.29 1.26c2.31,-6.69 1.05,-0.81 2.38,-4.57 3.63,-10.29 -2.06,-11.01 -2.22,-18.83l-20.68 -1.05c-1.06,-6.46 1.26,-3 -3.52,-7.48l-4.89 -3.78c8.88,4.54 8.44,3.64 18.65,3.45 6.2,-0.12 12.39,-0.08 18.6,-0.08l88.06 0.03c24.52,0.46 14.94,0.02 17.48,-3.57l-136.03 0.3c-3.26,-3.12 -2.86,4.43 -2.99,-6.91 -0.07,-26.09 -0.26,-29.72 6.52,-52.49l-4.36 0.43 0.74 -15.68c-4.9,-4.12 -12.85,-7.3 -16.43,-12.64l-3.07 2.99c-6.52,7.58 -12.59,25.4 -14.63,34.7 -3.95,17.99 -0.72,38.89 -2.67,45.63 -1.92,6.67 3.32,-1.81 -2.05,3.57zm173.27 318.05c0.56,13.57 -2.18,2.17 -2.21,10.19 -0.05,11.26 -1.81,6.12 6.75,7.32l0.01 6.78c-9.54,0.07 -7.7,0.92 -18.79,-7.02 -5.49,-3.93 -4.94,-6.61 -4.94,-6.61l-28.79 13.51c0.1,0.39 0.32,4.31 6.34,9.03 7.82,6.12 -4.16,0.11 4.38,2.37 3.1,0.82 19.09,0.27 23.47,0.27 -2.02,5.28 0.99,1.79 -3.9,3.68l-18.74 0.32 0 11.55c-0.43,0.35 -1,0.71 -1.35,0.95l-6.15 3.94c-0.92,0.4 -2.6,2.24 -8.77,0.81 -0.5,-0.12 -0.9,-0.34 -1.38,-0.49 -5.55,-1.71 0.23,-2.14 -12.84,-2.14l0.08 24.02c3.91,0.76 6.24,3.92 8.29,6.11 17.75,-0.24 63.86,-28.23 81.7,-34.98l-3.15 -1.9c-5.22,-5.1 1.42,3.61 -1.92,-4.78 5.01,-4.31 1.55,-5.07 11.85,-5.09 4.26,-12.02 -1.7,-10.12 -1.7,-23.72 9.27,0 17.02,-0.26 20.32,-10.14 -6.12,0 -12.73,-0.23 -18.8,0.01 -1.33,0.05 -7.33,0.7 -8.27,1 -8.64,2.71 0.6,-6.06 -3.4,2.38l-9.91 -9.17c-2.21,-1.17 -0.95,0.28 -3.8,-2.04 -1.26,0.84 -2.14,1.5 -3.19,2.38 -0.14,0.12 -0.56,0.98 -0.66,0.74 -0.09,-0.21 -0.34,0.49 -0.53,0.72zm114.83 -102.71c-4.05,8.13 -6.37,8.9 -11.71,15.58 -4.61,5.75 -5.89,9.24 -13.33,11.98l-1.62 6.17c17.8,8.11 13.32,-11.96 13.32,40.35 5,-1.15 1.4,1.05 2.96,-2.96 13.69,0 6.85,-2.35 12.48,7.96l1.79 1.68c5.19,-9.64 18.42,-18.53 25.18,-30.51 -4.96,-3.57 -3.88,1.97 -3.88,-4.53 7.59,-0.78 8.76,-6.4 7.14,-9.31 -6.54,-11.69 -1.17,4.8 -3.62,-6.67 -0.37,-1.73 -0.14,-5.78 -0.14,-7.74 13.61,0 11.31,-0.21 13.54,-5.07 -5.14,-11.2 -1.34,-0.05 -13.54,-6.78 10.23,-0.06 5.7,1.99 6.33,-5.05 0.94,-10.49 1.73,-5.5 -6.33,-6.79 -0.05,-7.64 0.4,-0.81 3.73,-4.48 10.09,-11.13 -3.19,-17.15 -12.1,-13.02 -6.61,3.06 0.87,4.14 -2.3,14.8 -2.83,9.49 1.1,5.48 -4.57,7.77l6.78 3.39c-0.55,6.52 -1.7,5.46 -1.7,13.54l-8.46 0 0 -20.32c-1.21,0.39 -3.55,1.38 -4.72,2.16l-5.33 4.62 0.1 -6.77zm116.24 -358.15c3.99,-1.34 0.45,4.65 3.43,-1.27l0.36 -2.98c5.33,-1.11 0.48,-1.47 4.65,-7.88 5.36,-8.24 -3.41,0.97 2.11,-2.28 0.97,1.22 4.36,-2.89 3.17,8.53 -1.26,12.03 -6.04,0.57 -7.57,10.41 -0.52,3.41 0.34,4.89 1.01,7.81 9.08,0.26 -4.59,-1.84 5.12,-0.05l20.56 7.82c0.39,0.27 0.97,0.65 1.42,1.03l0 18.62c-24.42,-0.42 -12.63,-0.61 -16.92,3.59 14.16,4.83 17.51,5.61 33.85,2.86 1.22,-1.33 4.55,-2.46 7.27,-4.22 2.87,-1.87 1.73,-1.46 3.9,-2.89 2.43,-1.61 1.32,-1.38 3.83,-2.01 3.54,-8.82 9.72,-12.23 10.3,-26.11 0.52,-12.46 -4.65,-19.69 -8.17,-28.11l-0.8 -1.27 -11.23 -6.22c0.84,4.82 1.55,4.97 1.67,10.2l-8.61 2.15c-0.47,0.05 -4.33,0.59 -4.97,1.12 -5.11,4.23 -0.21,0.32 -2.52,5.48l-3.05 4.14c-0.14,-0.29 -0.71,0.6 -1.15,0.65 -0.12,0.4 6.71,1.69 -10.16,1.69 0,-15.66 -2.55,-6.49 -3.39,-18.62l-0.49 0.89c-4.62,1.11 -6.64,-1.5 -7.98,-2.58 1.52,-3.64 -1.19,-2.89 3.37,-5.09 -9.64,3.87 -16.92,11.94 -19.01,24.59zm-70.68 290.41l-9.39 16.45c-1.49,3.76 -29.75,49.92 -36.17,51.29l-0.1 6.77 5.33 -4.62c1.17,-0.78 3.51,-1.77 4.72,-2.16l0 20.32 8.46 0c0,-8.08 1.15,-7.02 1.7,-13.54l-6.78 -3.39c5.67,-2.29 1.74,1.72 4.57,-7.77 3.17,-10.66 -4.31,-11.74 2.3,-14.8 8.91,-4.13 22.19,1.89 12.1,13.02 -3.33,3.67 -3.78,-3.16 -3.73,4.48 8.06,1.29 7.27,-3.7 6.33,6.79 -0.63,7.04 3.9,4.99 -6.33,5.05 12.2,6.73 8.4,-4.42 13.54,6.78 -2.23,4.86 0.07,5.07 -13.54,5.07 0,1.96 -0.23,6.01 0.14,7.74 2.45,11.47 -2.92,-5.02 3.62,6.67 1.62,2.91 0.45,8.53 -7.14,9.31 0,6.5 -1.08,0.96 3.88,4.53 3.48,-1.23 5.85,-5.7 8.41,-8.74 5.44,-4.72 23.94,-29.49 27.44,-36.9 -0.7,0.15 -1.57,-0.57 -2.11,0.28l-7.13 1.87c0,-6.42 -0.89,-8 1.5,-13.54 1.37,-3.16 2.93,-2.15 3.58,-5.09 -1.18,-8.44 -0.83,-19.57 0.01,-28.78 1.14,-12.45 -1.52,-15.5 -1.71,-25.41l-11.85 1.71c5.87,-5.78 -0.28,-2.09 -1.65,-3.39zm130.84 -200.02l-2.81 0 -1.32 8.66c-3.85,9.28 -6.16,8.56 -18.38,8.54 -11.44,-0.02 -12.34,-1.06 -19.28,-5.15 1.11,4.44 -3.86,-1.68 1.89,5.07l-15.08 9.87c-6.31,6.61 -2.56,0.95 -6.48,3.5 -0.97,5.22 2.03,-0.19 0.44,6.96l-9.13 1.53c-0.4,-0.59 -1.19,-0.26 -1.8,-0.36 0.37,0.32 0.91,0.72 1.15,0.91 0.23,0.18 0.8,0.66 1.07,0.86l3.2 2.32c17.47,3.9 29.12,7.46 49.17,6.8 20.66,-0.68 30.28,-5.94 47.34,-10.15 2.9,-2.42 11.86,-6.71 15.24,-8.72 4.8,-2.87 9.35,-6.58 13.64,-9.13 -2.42,-1.04 -5.62,-2.1 -6.04,-2.31 -18.69,-9.18 3.1,-21.91 -15.81,-15.1l0.71 -7.44c-10.67,0.65 -13.57,-3.82 -21.27,-6.77l1.59 10.78c0.03,2.71 -0.6,1.29 0.09,3.43 12.24,-0.12 6.11,-7.35 14.32,-3.8 4.28,1.86 1.25,4.71 1.19,17.08 -8.35,0 -22.82,-3.42 -25.94,2.26 -2.1,3.84 0.87,5.12 -4.96,10.98l-1.93 1.67c-3.88,2.9 1.19,2.41 -6.57,2.83 3.33,4.44 2.2,-2.08 3.39,8.46l-16.74 0.76c-0.03,-9.98 -0.94,-11.32 3.45,-15.43 5.54,-5.2 1.41,-0.62 5.55,-3.15l6.83 -5.7c13.34,-10.3 6.35,-9.19 3.28,-20.06zm76.37 -68.17c-22.05,12.51 0.77,1.91 -28.55,10.46 -0.16,5.78 -1.97,6.15 -1.83,10.48 0.14,4.03 1.52,2.69 2.12,7.93l2.09 -0.58 8.57 4.49c-2.67,-8.7 -3.52,-5.08 -1.52,-10.16 14.16,0.07 15.5,9.14 21.86,10.16l0 10.17c-18,0.11 9.4,3.4 -20.32,3.4l1.68 16.93c2.3,6.79 0.01,6.21 3.59,7.75 4.65,0.83 6.85,1.42 10.22,2.41 4.18,-0.5 8.52,-8.6 11.06,-12.44 11.28,-17.1 19.62,-35.3 21.67,-56.99l-5.01 -4.52c-2.39,-3.66 -0.8,-4.62 -2.58,-10.06 -26.99,-4.1 0.41,14.71 -21.94,16.25l-1.11 -5.68zm-444.34 467.71l-4.76 2.08c-8.53,2.79 -7.05,6.33 -7.1,8.38 4.26,1.76 4.75,2.15 5.42,7.09 0.34,2.59 -0.03,8.88 -0.02,11.86l-12.15 0c1.66,6.08 -4.12,4.52 6.75,4.76l0 6.78 -20.33 -1.69c-6.3,0 -5.45,-1.78 -4.23,3.9 7.59,2.62 18.54,7.27 26.58,10.95 8.05,2.06 20.53,8.41 28.04,1.41 -2.05,-2.19 -4.38,-5.35 -8.29,-6.11l-0.08 -24.02c13.07,0 7.29,0.43 12.84,2.14 0.48,0.15 0.88,0.37 1.38,0.49 6.17,1.43 7.85,-0.41 8.77,-0.81l6.15 -3.94c0.35,-0.24 0.92,-0.6 1.35,-0.95l0 -11.55 18.74 -0.32c4.89,-1.89 1.88,1.6 3.9,-3.68 -4.38,0 -20.37,0.55 -23.47,-0.27 -8.54,-2.26 3.44,3.75 -4.38,-2.37 -6.02,-4.72 -6.24,-8.64 -6.34,-9.03 -13.1,3.72 -14.57,8.93 -28.77,4.9zm280.52 -295.16l-3.12 9.26c6.86,-4.22 7.42,-1.08 14.76,-0.89l0 13.55 13.55 0 0 27.36c12.91,-0.91 8.94,-0.84 10.25,-3.09 0.2,-0.33 0.48,-1.44 0.61,-1.86l1.8 -7.96 4.54 3.38c0.19,0.28 0.25,1.18 0.56,1.68l11.65 -33.82 5.48 -16.98c-12.26,-6.79 1.66,-0.17 -8.85,-9.89l-3.22 -2.71c-2.75,4.32 3.69,3.12 -9.82,4.14 0.06,1.77 0.45,6.59 0.17,8.09 -0.87,4.63 2.71,4.17 -15.59,3.09 0,-10.55 2.93,-7.7 7.11,-12.36 -6.49,-0.5 -1.83,-0.45 -3.47,-1.22 -0.31,-0.15 -0.73,-0.41 -1.06,-0.57 -7.02,-3.51 -3.78,-2.98 -12.9,-3.79 -0.23,21.6 -0.92,14.08 -6.79,27.07 -5.83,-1.62 -4.52,1.75 -5.66,-2.48zm0.07 -298.76c0.12,1.63 0.46,2.77 0.72,3.92l1.48 5.87c-5.27,-0.37 -4.83,-0.94 -6.2,-1.13 -0.54,-0.08 -1.08,-0.18 -1.6,-0.24 -0.43,-0.05 -0.95,-0.1 -1.32,-0.13l-2.09 -0.01c1.27,6.73 0.62,6.63 0.35,12.84 -0.35,8.04 1.86,2.46 -0.09,7.99 25.46,0.71 21.2,-0.27 24.5,6.16 2.95,4.65 3.83,3.56 7.45,4.22 2.6,-8.79 3.21,1.17 2.35,-9.07 -0.55,-6.58 -1.31,-9.47 -1.31,-17.05 2.39,0 8.04,-0.29 10.29,0.36 4.75,1.37 3.29,0.93 6.63,4.7 3.57,-4.32 2.29,-6.15 8.46,-11.83l-0.56 10.74 2.27 -2.35c4.38,-3.56 -4.78,-1.93 8.51,-3.5 6.09,-0.72 4.46,-0.02 5.03,1.86 -1.39,0 -3.91,0.12 -5.21,-0.06 -10.56,-1.42 9.31,2.12 -3.37,-0.6l-3.27 -1.03c-7.61,-23.64 8.19,-18.68 15.23,-22.01l-6.59 -1.99c-1.82,-0.09 -8.39,1.12 -10.33,1.42 3.78,-4.17 -0.65,-3.7 15.49,-5.57 4.58,-0.53 10.74,-1.34 14.99,-0.32 -20.59,-5.19 -73.22,4.78 -81.81,16.81zm-175.59 546.31c1.91,7.71 -3.14,0.74 3.37,5.57 -1.26,-9.8 -5.75,-5.46 5.4,-6.6 4.32,-0.45 4.57,0.89 10.11,1.26l0 4.1c-7.45,0.61 -2.84,-1.73 -6.33,2.94 1.14,4.19 3.03,3.35 3.21,10.87 -7.39,1.81 0.43,2.02 -10.65,2.88 -10.25,0.8 -10.55,-0.45 -16.05,-3.03l-5.09 -1.48c-0.22,-0.05 -0.73,-0.09 -0.94,-0.15l-3.93 -1.87 -2.98 0.21c2.85,2.32 1.59,0.87 3.8,2.04l9.91 9.17c4,-8.44 -5.24,0.33 3.4,-2.38 0.94,-0.3 6.94,-0.95 8.27,-1 6.07,-0.24 12.68,-0.01 18.8,-0.01 -3.3,9.88 -11.05,10.14 -20.32,10.14 0,13.6 5.96,11.7 1.7,23.72 -10.3,0.02 -6.84,0.78 -11.85,5.09 3.34,8.39 -3.3,-0.32 1.92,4.78l3.15 1.9c2.13,-3.11 52.58,-31.79 61.25,-44.52 -5.07,-0.76 -22.73,-0.83 -29.36,-0.83 -0.29,-9.56 -5.62,-15.23 4.09,-19.64 4.31,-1.96 3.04,-1.26 8.62,-1.26l0 -5.35c-8.69,0 -7.42,-0.06 -11.88,-2.07 -9.44,-4.24 -7.78,-6.76 -10.16,-8.25 -6.34,5.09 -12.49,8.99 -17.46,13.77zm32.06 -24.14c-5.18,0.85 -1.56,-0.18 -7.25,3.2 -0.82,1.73 0.47,-0.08 -1.89,2.36 -0.29,0.29 -1.3,1.19 -1.62,1.48 -0.84,0.76 -2.38,1.84 -3.84,3.33 2.38,1.49 0.72,4.01 10.16,8.25 4.46,2.01 3.19,2.07 11.88,2.07l0 5.35c-5.58,0 -4.31,-0.7 -8.62,1.26 -9.71,4.41 -4.38,10.08 -4.09,19.64 6.63,0 24.29,0.07 29.36,0.83 5.28,-1.95 9.33,-6.05 13.97,-10.56 5.33,-5.18 10.6,-7.24 12.19,-12.31 -3.29,-1.83 -1.78,-1.38 -4.42,-1.97l-8.47 11.86 -6.95 -1.16c0.24,-9.33 2.31,-4.36 2.81,-15.01 -15.48,-0.58 1.59,-3.23 -13.55,-3.39 0,-4.72 1.96,-19.88 -2.51,-20.77l-4.02 5.83c-6.52,0 -8.61,-0.05 -13.14,-0.29zm-286.72 44.74c12.22,9.64 22.07,17.65 34.99,26.79 8.99,6.35 27.46,18.77 38.45,22.72 -4.47,-7.13 -1.43,-0.32 -3.37,-6.95 13.99,3.45 8.34,0.1 8.45,-0.01l0.06 -20.31 -27.16 0 0 -13.55 -20.31 0c-0.06,-8.82 2.04,-6.72 -6.78,-6.78 0,-1.74 0.17,-5.34 -0.18,-6.89 -1.22,-5.39 -0.58,-3.49 -3.2,-6.65 -5.99,0 -3.61,0.08 -8.05,1.36 -17.8,5.13 -10.16,-1.44 -12.9,10.27zm381.32 -517.99c4.24,2.74 1.21,-0.84 3.03,8.84 1.15,6.07 2.23,7.92 2.75,11.91 1.18,9.11 -0.21,22.25 -0.06,31.74 6.22,-2.12 3.09,-1.59 4.49,-2.76 6.92,-5.81 5.81,-7.73 8.76,-3.81l18.62 -3.93c5.53,-3.24 2.09,0.67 5.32,-4.47 1.74,-2.77 2.92,-6.24 2.13,-9.55 -1.36,-5.71 -7.3,-13 -11.27,-16.55 -3.15,4.77 1.35,4.27 -4.64,3.26 -1.95,-3.02 -1.23,-0.29 -1.67,-4.68 -0.27,-2.66 -0.03,-2.08 0.62,-3.86 3.32,-9.18 1.83,2.96 2.89,-4.44 -2.49,-1.59 2.1,-0.13 -3.85,-1.54 -13.36,-3.17 -8.64,3.77 -20.78,-5.25 -2.38,-1.76 0.37,0.3 -1.81,-1.19 -4.56,3 -2.21,0.69 -4.53,6.28zm-109.44 217.36c-5.31,-4.35 -3.79,-3.66 -10.46,-2.7 -3.18,5.62 -2.7,5.28 0,10.93 0.37,-0.19 0.78,-0.6 0.98,-0.77l6.24 -5c0.44,7.66 -1.47,5.97 -5.53,9.19 -10.17,-2.57 -9.9,-6.35 -7.88,-16.73 12.94,-4.65 8.69,-5.41 20.69,1.81 4.33,12.39 -0.08,15.12 -3.52,22.32 3.24,3.27 0.71,1.09 2.08,5.51l-6.79 2.88c2.59,10.48 3.77,37.21 -1.19,46.5l-7.16 -1.38c-0.32,-0.18 -0.77,-0.7 -1.01,-0.87l-1.76 -2.14 -1.4 8.52 28.28 6 0.02 -5.08 0.1 -64.95 -4.32 2.38c-0.07,-9.13 6.58,-17.6 -2.83,-25.18 -6.46,-5.2 -15.66,-7.99 -23.02,0.14 -21.07,23.27 27.95,35.6 18.48,8.62zm-314.5 -308.82c7.42,1.82 0.48,11.3 -0.27,13.31 -0.29,0.78 -1.29,3.71 -1.33,3.9l-0.16 5.21c0.08,0.44 0.36,1.1 0.44,1.47 0.09,0.38 0.28,1.05 0.54,1.52 7.29,-1.17 3.67,-1.24 7.35,-5.13 5.87,-6.2 5.34,-0.09 2.82,-3.33 0,16.57 1.2,11.28 5.83,16.27 0.31,0.34 0.61,0.3 1.83,2.68 0.16,0.31 0.29,0.81 0.44,1.14 1.75,3.8 0.89,5.43 6.33,5.86 0.7,0.05 1.39,-0.18 2.01,-0.19 0.67,0 1.48,-0.1 2.17,-0.35 -0.05,0.13 -0.08,0.27 -0.07,0.41 0,0.09 0,0.28 0,0.27 2.42,-2.75 1.76,-7.88 1.09,-11.53 7.74,-1.45 10.76,-3.08 19.95,-3.35 3.85,-0.11 9.62,-0.86 10.43,-1.16 12.81,-4.86 3.97,2.35 7.55,-8.35l-27.1 0 0 -10.16 -11.84 0 -3.4 -11.85c-3.66,-1.46 4.57,-1.74 -4.88,-1.14 -6.26,0.39 -1.36,-0.01 -5.27,2.39 -3.78,-2.68 -3.76,4.58 -3.1,-3.62l-0.52 -6.05c-2.41,1.91 -8.15,8.35 -10.84,11.78zm75.31 301.91l-0.04 113 2.6 2.92c0.22,-4.33 -0.87,-9.6 2.35,-15.56 2.24,-4.14 5.27,-1.99 5.27,-12.18 8.71,-0.03 9.58,0.65 16.72,-3.52l6.13 -4.02c-9.66,1.51 -16.78,1.51 -23.03,-7.94 -7.14,-10.78 -5.6,-32.38 6.84,-34.19l0.77 -2.46 0.28 -37.02c-5.6,-1.28 -5.63,-2.31 -9.44,-7.94 -2.39,8.22 0.98,7.05 -8.45,8.91zm423.47 -75.33l-8.63 4.34c0.32,0.36 0.74,0.79 0.98,1.05l5.96 6.83c-0.51,0.35 -1.16,0.59 -1.7,0.77 -0.52,0.17 -1.05,0.5 -1.7,0.68l-3.41 0.76c-0.66,0.08 -6.16,-0.49 -6.72,-0.51 0,6.96 -0.07,7.38 -1.18,13.29 -1.81,9.69 2.28,7.6 2.28,7.61 -0.69,6.81 1.12,2.15 -6.65,5.67 8.39,4.05 3.8,-0.62 5.53,7.16l4.76 1.31c0.61,0.1 1.4,-0.23 1.8,0.36l9.13 -1.53c1.59,-7.15 -1.41,-1.74 -0.44,-6.96 3.92,-2.55 0.17,3.11 6.48,-3.5l15.08 -9.87c-5.75,-6.75 -0.78,-0.63 -1.89,-5.07 -0.15,-3.69 -1.95,-14.73 -3.26,-17.99 -2.33,-5.79 -8.26,-7.16 -14.85,-7.4 -2.58,2.51 -0.99,0.62 -1.57,3zm-148.29 318.54c2.05,12.46 -8.59,9.62 -3.99,14.05 4.47,0.89 2.51,16.05 2.51,20.77 15.14,0.16 -1.93,2.81 13.55,3.39 -0.5,10.65 -2.57,5.68 -2.81,15.01l6.95 1.16 8.47 -11.86c2.64,0.59 1.13,0.14 4.42,1.97 6.34,-2.78 2.87,0.4 6.36,-5.85 -5.63,-10.31 1.21,-7.96 -12.48,-7.96 -1.56,4.01 2.04,1.81 -2.96,2.96 0,-52.31 4.48,-32.24 -13.32,-40.35 -4.79,2.05 -0.02,-1.69 -4.65,2.79 -2.37,2.3 -1.41,1.45 -2.05,3.92zm-254.74 -255.78c-14.73,3.51 -8.98,-3.12 -20.13,9.11l-0.31 3.46c9.43,-1.86 6.06,-0.69 8.45,-8.91 3.81,5.63 3.84,6.66 9.44,7.94l-0.28 37.02 13.17 -3.29 4.93 -1.03 0.98 -23.72c0.4,-0.36 1.04,-0.64 1.36,-0.86l4.13 -3.08c4.15,-4.97 -6.88,0.91 -5.7,-10.17l-5.38 4.63c0.73,-11.27 4.54,-4.31 5.23,-14.33 0.84,-12.13 -3.32,-18.11 -3.18,-27.02 0.03,-1.67 0.2,-3.36 0.48,-5 0.1,-0.55 0.23,-0.95 0.34,-1.47 3,-13.55 -3.48,-11 -0.17,-9.43 -10.27,5.08 -2.35,1.02 -4.09,8.43 -0.11,0.44 -0.16,0.9 -0.27,1.33 -0.14,0.54 -0.68,2.02 -0.83,2.55 -6.58,22.53 9.5,-6.79 -3.28,37.97l-7.77 1.2c0.02,-3.93 -3.59,-3.23 2.88,-5.33zm169.05 -54.28l4.51 16.84c4.95,-11.39 -1.22,-4.54 6.74,-7.13 -3.33,9.18 -1.45,-1.12 -3.38,10.95l7.66 -0.36c-0.14,5.53 1.31,4.24 -3.39,4.3l0 10.75c4.82,-0.13 -0.53,0.11 5.7,-1.99l13.78 -1.68 -3.37 20.38c-1.38,5.28 -1.68,0.35 -1.53,8.43 2.76,-2.01 8.72,-5.06 9.14,-5.96 0.21,-0.53 0.4,-1.15 0.52,-1.64l-5.82 -47.81c-2.4,-13.92 0.11,-13.88 -25.19,-14.53 -5.57,7.27 2.89,5.1 -5.37,9.45zm295.45 1.86c3.07,10.87 10.06,9.76 -3.28,20.06l-6.83 5.7c-4.14,2.53 -0.01,-2.05 -5.55,3.15 -4.39,4.11 -3.48,5.45 -3.45,15.43l16.74 -0.76c-1.19,-10.54 -0.06,-4.02 -3.39,-8.46 7.76,-0.42 2.69,0.07 6.57,-2.83l1.93 -1.67c5.83,-5.86 2.86,-7.14 4.96,-10.98 3.12,-5.68 17.59,-2.26 25.94,-2.26 0.06,-12.37 3.09,-15.22 -1.19,-17.08 -8.21,-3.55 -2.08,3.68 -14.32,3.8 -0.69,-2.14 -0.06,-0.72 -0.09,-3.43l-1.59 -10.78c-1.4,-2.69 -1.86,-2.83 -6.78,-3.61l1.68 0.52 -11.54 4.78 0.19 8.42zm-482.46 330.91l-6.11 -4.65 -3.4 1.94c-0.27,0.12 -0.73,0.37 -1.01,0.46l-2 0.45c-0.43,0.01 -2.38,-0.3 -3.24,-0.66 -10.42,-4.4 0.95,-6.11 -15.57,-8.03 -0.51,-11.68 -2.03,-1.81 -2.36,-12.36l-11.06 -0.81c-1.71,-14.85 -6.18,-12.85 -8.44,-13.51l-1.36 22.89 13.55 -0.39 0 27.34 33.55 0.29 7.45 -12.96zm383.61 -198.63c-1.1,4.67 -1.89,6.82 -3.7,11.43 -0.53,1.34 -1.47,3.76 -2.04,4.76 -2.55,4.42 -1.04,1.97 -3.28,4 -0.53,10.4 -12.04,24.51 -15.11,36.34 6.18,-0.94 4.4,-0.07 6.37,-5 6.07,2.11 4.45,3.85 7.01,5.32 0.16,-0.36 0.59,-1.2 0.68,-0.96 0.02,0.08 2.63,-2.69 2.71,-9.2l16.93 0c0,-7.94 0.85,-22.23 -0.13,-29.42 -0.65,-4.85 -2.9,-6.5 -3.17,-12.08 -0.42,-8.55 3.59,-11.8 -1.35,-15.99l-4.92 10.8zm38.69 -222.67l-1.28 16.05c1.6,4.49 3.58,9.74 4.66,13.99 1.39,1.05 13.3,12.19 13.96,13.31 4.29,-4.2 -7.5,-4.01 16.92,-3.59l0 -18.62c-0.45,-0.38 -1.03,-0.76 -1.42,-1.03l-20.56 -7.82c-9.71,-1.79 3.96,0.31 -5.12,0.05 -0.67,-2.92 -1.53,-4.4 -1.01,-7.81 1.53,-9.84 6.31,1.62 7.57,-10.41 1.19,-11.42 -2.2,-7.31 -3.17,-8.53 -5.52,3.25 3.25,-5.96 -2.11,2.28 -4.17,6.41 0.68,6.77 -4.65,7.88l-0.36 2.98c-2.98,5.92 0.56,-0.07 -3.43,1.27zm-381.92 55.92c3.58,5.34 11.53,8.52 16.43,12.64l-0.74 15.68 4.36 -0.43c2.13,-1.65 3.76,-5.43 5.39,-7.96 2.43,-3.76 4.95,-6.5 7.71,-9.28 5.77,-5.8 10.69,-10.01 19.41,-13.77 -5.56,-3 -2.79,-2.17 -8.61,-3.54 -4.15,-0.98 1.98,-0.83 -5.46,3.31 -6.64,3.69 -5.04,0.8 -5.04,7.51l-3.45 -2.02c-8.68,-4.37 1.48,-2.49 -4.33,-1.42l-4.91 3.45c-0.34,-13.91 -1.8,-10.26 -4.23,-16.93 5.19,-6.12 -2.25,1.49 4.75,-4.12 7.07,-5.67 8.03,-3.6 5.61,-8.69l-8.69 4.33c-2.7,2.16 -4.39,4.37 -6.73,6.8 -4.54,4.72 -9.55,8 -11.47,14.44zm26.49 136.27l-2.11 4.12c-5.96,11.12 -4.75,32.43 -2.33,37.08 4.79,-1.38 2.97,1.61 3.75,-5.67 1.14,-10.53 -4.01,-18.84 7.82,-28.76 9.74,1.47 12.13,1.8 12.26,13.38 0.09,8.51 -2.87,16.8 2.82,21.69l2.98 -7.9c0.11,-0.86 -0.11,-7.26 -0.16,-8.58 -0.21,-5.98 -0.38,-10.92 0.1,-16.31l12.66 -1.75 -1.5 -11.52c-13.46,-2.01 -8.44,4.51 -18.91,1.5 -9.6,-2.75 -12.41,-4.52 -16.95,1.71 -0.12,0.16 -0.36,0.65 -0.43,1.01zm339.54 -104.93c-6.09,6.7 -3.01,1.09 -5.74,1.61 -0.44,0.08 -0.96,0.05 -1.39,0.14 -0.42,0.1 -0.93,0.13 -1.34,0.25 -0.39,0.12 -0.86,0.27 -1.23,0.42l-4.04 2.78c-0.29,0.14 -0.71,0.42 -1,0.54 -10.59,4.32 -8.13,-6.39 -13.21,17.2l6.44 6.41c1.38,0.96 4.2,2.69 6.18,3.93 4.84,3.01 8.99,5.14 14.67,7.16 -1.73,-7.78 2.86,-3.11 -5.53,-7.16 7.77,-3.52 5.96,1.14 6.65,-5.67 0,-0.01 -4.09,2.08 -2.28,-7.61 1.11,-5.91 1.18,-6.33 1.18,-13.29 0.56,0.02 6.06,0.59 6.72,0.51l3.41 -0.76c0.65,-0.18 1.18,-0.51 1.7,-0.68 0.54,-0.18 1.19,-0.42 1.7,-0.77l-5.96 -6.83c-0.24,-0.26 -0.66,-0.69 -0.98,-1.05l-5.95 2.87zm-413.06 -201.88l0 2.69 8.24 -0.83 38.37 2.09c3.7,-6.57 2.36,-1.46 2.44,-10.33 0.05,-5.17 -0.18,-10.66 -0.18,-15.91l-28.21 0 0 11.28 6.77 0 0 5.65c-16.72,0 -10.82,-1.5 -20.58,3.79 -3,1.62 0.21,-0.34 -6.85,1.57zm447.96 90.03c-4.56,2.2 -1.85,1.45 -3.37,5.09 1.34,1.08 3.36,3.69 7.98,2.58l0.49 -0.89c0.84,12.13 3.39,2.96 3.39,18.62 16.87,0 10.04,-1.29 10.16,-1.69 0.44,-0.05 1.01,-0.94 1.15,-0.65l3.05 -4.14c2.31,-5.16 -2.59,-1.25 2.52,-5.48 0.64,-0.53 4.5,-1.07 4.97,-1.12l8.61 -2.15c-0.12,-5.23 -0.83,-5.38 -1.67,-10.2 -4.18,-6.01 -18.1,-5.77 -27.1,-5.05l-10.18 5.08zm-623.49 -27.23c3.11,2.45 5.2,4.57 10.44,5.08l1.04 5.99 0.73 11.09 20.27 0.01 0.01 1.68c0,-10.1 -2.07,-24.48 1.42,-32.98l-6.84 -1.65c-0.3,-0.16 -0.69,-0.49 -0.97,-0.66l-3.67 -2.87c-4.85,0.91 -1.52,-0.23 -6.42,2.99 -2.48,1.64 -2.38,1.78 -4.92,3.63 -3.65,2.64 -6.76,4.49 -11.09,7.69zm471.35 -53.48c2.31,4.93 3.83,6.16 7.4,10.43 4.09,4.88 4.03,5.75 9.74,8.36 3.47,-2.59 6.68,-4.09 10.62,-2.57 8.51,3.3 -4.04,4.16 5.5,5.23 5.3,-7.78 -0.49,-1.52 6.28,-16.32 0.19,-0.42 0.41,-0.79 0.59,-1.26 0.2,-0.5 0.36,-0.86 0.54,-1.41l1.4 -7.41c-7.45,0 -14.9,0.72 -22.14,0.63 -14.62,-0.19 -4.68,-4.1 -17.42,-3.18l-1.07 6.35c-2.19,4.55 -0.88,1.2 -1.44,1.15zm-66.3 248.36c-0.42,0.9 -6.38,3.95 -9.14,5.96 -4.61,5.93 -8.57,17.37 -3.12,26.45 7.54,12.55 14.67,7.06 26.62,5.87 3.44,-7.2 7.85,-9.93 3.52,-22.32 -5.59,-0.9 -4.44,-2.21 -4.04,3.27 9.47,26.98 -39.55,14.65 -18.48,-8.62 7.36,-8.13 16.56,-5.34 23.02,-0.14 9.41,7.58 2.76,16.05 2.83,25.18l4.32 -2.38 -0.02 -23.09c-2.85,-9.43 -11.13,-9.94 -22.25,-10.14 -0.93,-9.06 1.89,-32.2 -2.34,-37.85l-0.92 37.81zm172.14 51.71c1.14,4.23 -0.17,0.86 5.66,2.48 5.87,-12.99 6.56,-5.47 6.79,-27.07 9.12,0.81 5.88,0.28 12.9,3.79 0.33,0.16 0.75,0.42 1.06,0.57 1.64,0.77 -3.02,0.72 3.47,1.22 -4.18,4.66 -7.11,1.81 -7.11,12.36 18.3,1.08 14.72,1.54 15.59,-3.09 0.28,-1.5 -0.11,-6.32 -0.17,-8.09 13.51,-1.02 7.07,0.18 9.82,-4.14l3.22 2.71c10.51,9.72 -3.41,3.1 8.85,9.89l3.16 -13.84c-18.48,-0.53 -37.04,-3.35 -52.49,-9.07 -3.09,3.56 -9.16,25.32 -10.75,32.28zm-197.19 28.08c6.07,-2.92 2.39,-6.52 5.53,-10.15 11.17,5.67 -2.75,29.58 -20.51,17.43 -9.08,-6.21 -5.53,-29.04 -5.58,-48.66 9.27,1.99 4.34,0.87 5.94,11.02 10.97,0.19 27.85,-3.29 21.63,7.23l-21.6 -0.67c-2.28,13.43 -0.73,18.65 2.6,27.39 14.2,2.07 11.5,-2.68 11.99,-3.59zm0 0c-14.98,1.15 -11.52,-5.06 -11.96,-20.29l22.62 -0.48c7.25,-17.06 -6.39,-13.43 -21.18,-13.01 -2.33,-4.9 -0.53,-8.66 -5.46,-10.22 -10.79,-3.42 -8.24,11.31 -8.28,28.58 -0.03,10.51 -0.69,17.74 5.89,24.72 11.45,12.17 34.54,2.52 30.5,-21.97 -10.64,-1.22 -11.73,1.07 -12.13,12.67zm-136.51 -28.66c-3.89,15.21 -5.48,22.29 -3.37,40.32 4.21,3.62 3.14,2.59 9.13,1.92 5.06,-9.9 0.07,-22.83 3.71,-30.26 0.29,-0.59 11.96,-15.32 11.79,16.59 -0.12,22.13 10.62,13.79 12.31,9.4 2.8,-7.3 -2.8,-22.06 2.67,-29.9 13.48,0.55 7.4,12.99 8.92,34.75l6.99 -27.89c-2.22,-3.06 0.1,-0.03 -2.68,-3.07 -0.48,-0.52 -1.86,-1.93 -2.56,-2.67 -1.61,-1.7 -2.67,-3 -3.56,-3.89l-12.66 1.75c-0.48,5.39 -0.31,10.33 -0.1,16.31 0.05,1.32 0.27,7.72 0.16,8.58l-2.98 7.9c-5.69,-4.89 -2.73,-13.18 -2.82,-21.69 -0.13,-11.58 -2.52,-11.91 -12.26,-13.38 -11.83,9.92 -6.68,18.23 -7.82,28.76 -0.78,7.28 1.04,4.29 -3.75,5.67 -2.42,-4.65 -3.63,-25.96 2.33,-37.08l2.11 -4.12c-5.09,1.42 -2.99,0.59 -5.56,2zm-204.09 -258.25l0.12 13.76c4.13,0 11.34,0.41 15.11,-0.35l11.41 -6.11c0,-6.99 0.78,-11.54 -1.36,-18.01l-1.71 -4.6c-1.03,-4.3 -0.34,-5.37 -1.85,-11.25l-4.93 0.98c-3.26,-3.23 0.17,2.66 -3.06,-3.16 -3.21,0 -3.35,-0.92 -1.51,1.62l1.17 9.46c0.34,3.78 1.39,3.36 -1.66,6.18 -0.19,0.18 -0.62,0.49 -0.85,0.66 -12.21,8.88 -7.05,-1.82 -10.88,10.82zm157.14 257.95c6.11,-0.2 17.33,-5.05 26.36,7.6 4.56,6.4 5.32,26.12 0.94,32.29 -10.47,-3.27 5.27,-39.04 -19.7,-34.43 -10.98,2.02 -14.62,19.33 -3.04,25.84 7.09,3.99 6.45,0.24 8.78,5.94 -0.02,0.02 -1.87,6.87 -12.79,-0.38 -9.72,-6.45 -11.29,-20.34 -4.23,-30.64l3.68 -6.22zm0.77 -2.46l-0.77 2.46c-12.44,1.81 -13.98,23.41 -6.84,34.19 6.25,9.45 13.37,9.45 23.03,7.94l0.23 -10.97c-15.02,-1.71 -21.06,-12.21 -10.11,-22.04 8.07,-1.2 9.01,-0.91 13.31,5.46l0.85 18.63 1.3 9.34c16.24,3.23 11.24,-17.68 9.94,-31.48 -0.97,-1.39 -4.53,-8.35 -6.76,-10.55 -4.92,-4.82 -5.76,-2.62 -11.01,-6.27l-13.17 3.29zm-68.32 192.7c2.26,0.66 6.73,-1.34 8.44,13.51l11.06 0.81c0.33,10.55 1.85,0.68 2.36,12.36 16.52,1.92 5.15,3.63 15.57,8.03 0.86,0.36 2.81,0.67 3.24,0.66l2 -0.45c0.28,-0.09 0.74,-0.34 1.01,-0.46l3.4 -1.94c-6.11,-4.28 -21.1,-19.28 -26.42,-24.96 -4.62,-4.92 -7.27,-8.42 -12.14,-13.26 -4.73,-4.72 -6.79,-9.46 -12.27,-13.04 -4.24,-1.77 -5.12,-1.92 -7.81,-3.92l-0.74 15.29c9.45,1.71 6.36,-3.6 6.95,7.07 5.78,-3.37 4.57,-1.5 5.35,0.3zm432.89 -480.88c-4.39,8.61 -11.83,8.42 -16.65,18.66l7.16 -1.47c-0.02,9.13 -0.72,5.87 11.83,5.87 -1.16,9.29 0.65,10.96 0.69,18.34 11.74,-6.08 9.64,-16.72 28.1,-13.37 -3.3,-6.43 0.96,-5.45 -24.5,-6.16 1.95,-5.53 -0.26,0.05 0.09,-7.99 0.27,-6.21 0.92,-6.11 -0.35,-12.84l2.09 0.01c0.37,0.03 0.89,0.08 1.32,0.13 0.52,0.06 1.06,0.16 1.6,0.24 1.37,0.19 0.93,0.76 6.2,1.13l-1.48 -5.87c-0.26,-1.15 -0.6,-2.29 -0.72,-3.92 -8.03,2.62 -8.7,5.99 -15.38,7.24zm179.13 118.97l1.11 5.68c22.35,-1.54 -5.05,-20.35 21.94,-16.25 1.78,5.44 0.19,6.4 2.58,10.06l5.01 4.52c2.47,-2.07 1.31,-31.78 -0.37,-37.27 -2,2.83 -0.66,1.15 -2.79,1.81 -5.87,1.79 -8.06,-2.3 -19.06,2.31 -3.9,9.82 0.42,17.09 -3.76,24.65 -2.22,4 1.43,2.48 -4.66,4.49zm-647.29 300.35c-2.36,-5.97 -4.78,-9.51 -8,-14.21 -6.15,3.48 1.9,1.43 -3.82,1.14 -4.31,-0.22 -4.16,-0.24 -6.25,-7.12l-0.83 -3.5c-5.04,1.84 -3.3,-2.48 -5.09,3.39 -0.72,-11.02 2.51,-5.29 -6.77,-6.78 -5,6.64 -3.07,18.37 -3.07,30.16 12.42,0 21.63,1.94 27.63,-3.64 0.23,-0.22 0.6,-0.72 0.85,-1.12l5.35 1.68zm438.94 -388.6l0.2 4.68c2.18,1.49 -0.57,-0.57 1.81,1.19 12.14,9.02 7.42,2.08 20.78,5.25 5.95,1.41 1.36,-0.05 3.85,1.54 -1.06,7.4 0.43,-4.74 -2.89,4.44 -0.65,1.78 -0.89,1.2 -0.62,3.86 0.44,4.39 -0.28,1.66 1.67,4.68 5.99,1.01 1.49,1.51 4.64,-3.26l2.81 -11.7c-0.04,-7.38 -1.85,-9.05 -0.69,-18.34 -12.55,0 -11.85,3.26 -11.83,-5.87l-7.16 1.47c-2.01,0.98 -0.41,-0.25 -3.28,2.51 -1.19,1.15 -1.86,2.13 -3.06,3.56 -3.54,4.2 -1.43,3.24 -6.23,5.99zm-403.66 -102.59c-3.65,9.12 -1.27,3.05 -0.54,12.31 -6.17,1.85 -4.53,4.05 -12.71,4.05 -0.66,8.2 -0.68,0.94 3.1,3.62 3.91,-2.4 -0.99,-2 5.27,-2.39 9.45,-0.6 1.22,-0.32 4.88,1.14l3.4 11.85 11.84 0c0,-20.13 9.17,-9.99 10.16,-18.63 0.34,-3 -3.14,-9.28 -9.71,-10.67 -0.49,-0.1 -3.34,-0.11 -3.84,-0.22 -6.46,-1.45 -3.42,4.58 -5.08,-3.43l-6.77 2.37zm251 391.47c-0.49,0.91 2.21,5.66 -11.99,3.59 -3.33,-8.74 -4.88,-13.96 -2.6,-27.39l21.6 0.67c6.22,-10.52 -10.66,-7.04 -21.63,-7.23 -1.6,-10.15 3.33,-9.03 -5.94,-11.02 0.05,19.62 -3.5,42.45 5.58,48.66 17.76,12.15 31.68,-11.76 20.51,-17.43 -3.14,3.63 0.54,7.23 -5.53,10.15zm-183.46 -28.96l-3.68 6.22c-7.06,10.3 -5.49,24.19 4.23,30.64 10.92,7.25 12.77,0.4 12.79,0.38 -2.33,-5.7 -1.69,-1.95 -8.78,-5.94 -11.58,-6.51 -7.94,-23.82 3.04,-25.84 24.97,-4.61 9.23,31.16 19.7,34.43 4.38,-6.17 3.62,-25.89 -0.94,-32.29 -9.03,-12.65 -20.25,-7.8 -26.36,-7.6zm329.32 -298.62c3.65,-3.49 5.89,-4.75 9.03,-9.61 -12.03,-15.42 -28.11,-29.43 -41.45,-46.73 -7.48,1.54 -3.32,-3.22 -5.52,4.6 -3.34,11.9 7.37,-1.21 8.03,18.42 11.9,3.81 0.58,6.21 18.59,14.22 10.3,4.58 12.52,-1.6 10.29,11.87 -1.41,8.49 -2.52,3.77 1.03,7.23zm188.98 155.24c2.98,7.63 6.44,7.39 5.27,18.05 -2.77,5.11 -1.69,2.37 -4.62,5.57 -4.26,4.66 -1.82,0.13 -4.67,6.76 0.15,0.04 4.23,1.16 4.74,1.37 7.74,3.26 -6.4,-3.09 3.01,1.65 3.04,1.53 -3.33,1.76 6.54,1.59l-1.68 -16.93c29.72,0 2.32,-3.29 20.32,-3.4l0 -10.17c-6.36,-1.02 -7.7,-10.09 -21.86,-10.16 -2,5.08 -1.15,1.46 1.52,10.16l-8.57 -4.49zm-114.38 -115.01c11.01,16.45 21.75,-6.94 21.76,-6.96 -0.84,-7.75 0.01,-10.13 4.1,-15.19l0.56 -10.74c-6.17,5.68 -4.89,7.51 -8.46,11.83 -3.34,-3.77 -1.88,-3.33 -6.63,-4.7 -2.25,-0.65 -7.9,-0.36 -10.29,-0.36 0,7.58 0.76,10.47 1.31,17.05 0.86,10.24 0.25,0.28 -2.35,9.07zm114.57 -33.92c-1.57,-2.03 -0.72,-1.15 -2.7,-2.99 -3.35,-3.13 2.25,1.58 -1.93,-1.64 -7.54,-5.81 -28.16,-14.46 -36.73,-13.95 -8.86,-4.87 -1.11,-1.65 -4.44,2.65 7.68,1.4 7.49,-3.36 10.15,16.94l-7.43 4.49c-0.29,0.22 -0.73,0.47 -1.01,0.71l-3.71 4.97c7.6,5.1 1.41,-0.71 13.94,-3 2.93,-0.53 4.55,-0.08 7.04,-0.91l5.4 -3.16c5.55,-4.8 -4.11,-8.28 7.3,-8.3 9.1,-0.02 -1.09,6.87 14.12,4.19zm17.5 88l1.75 -2.19c0.16,-0.21 0.89,-1.41 1.28,-1.81 -2.32,-7.84 -3.09,-12 1.41,-16.94 0,0 1.91,-1.45 -5.37,-5.93 -3.55,-2.18 -7.08,-2.79 -11.58,-3.25 -1.92,1.38 -1.47,0.98 -3.66,3.8 -16.03,20.66 2.34,23.37 16.17,26.32zm-330.86 452.74c-5.19,2.36 -6.54,3.86 -10.77,6.66 -2.08,1.38 -3.8,2.31 -5.13,3.28l-4.02 3.52c-0.17,-0.32 -0.67,0.67 -0.98,1.03l3.93 1.87c0.21,0.06 0.72,0.1 0.94,0.15l5.09 1.48c5.5,2.58 5.8,3.83 16.05,3.03 11.08,-0.86 3.26,-1.07 10.65,-2.88 -0.18,-7.52 -2.07,-6.68 -3.21,-10.87 3.49,-4.67 -1.12,-2.33 6.33,-2.94l0 -4.1c-5.54,-0.37 -5.79,-1.71 -10.11,-1.26 -11.15,1.14 -6.66,-3.2 -5.4,6.6 -6.51,-4.83 -1.46,2.14 -3.37,-5.57zm300.69 -355.27l-0.71 7.44c18.91,-6.81 -2.88,5.92 15.81,15.1 0.42,0.21 3.62,1.27 6.04,2.31l6.68 -4.5c-3.12,-9.21 -0.7,-5.08 -4.94,-6.67 4.32,-5.32 2.15,-0.3 3.46,-7.48 -3.58,-1.54 -1.29,-0.96 -3.59,-7.75 -9.87,0.17 -3.5,-0.06 -6.54,-1.59 -9.41,-4.74 4.73,1.61 -3.01,-1.65 -0.51,-0.21 -4.59,-1.33 -4.74,-1.37 -3.89,0.81 0.82,-1.04 -2.76,1.38 -0.34,0.23 -1.35,1.08 -1.68,1.35 -1.91,1.55 -0.24,1.04 -4.02,3.43zm-381.99 117.47c1.72,3.66 3.28,15.75 -2.18,18.56 0.24,2.24 0.26,2.32 0.95,4.38 0.11,0.31 0.64,1.46 0.72,1.21 0.09,-0.24 0.57,0.75 0.85,1.13 0.66,-8.28 4.13,-2.57 4.71,-12.2 0.37,-6.19 -1.66,-8.23 0.78,-14.81 3.87,-10.41 13.59,-10.28 18.95,-10.28 0.71,9.78 -5.16,3.98 -14.15,11.53 -0.36,6.89 2.31,18.78 -3.66,25.15 -3.57,3.81 -0.24,2 -7.23,3.93 1.59,6.69 0.63,3.5 2.73,5.58 3.49,-10.91 5.31,-0.88 10.12,-12.23 2.96,-6.98 0.54,-14 3.21,-22.43 8.52,-3.46 6.17,-0.41 13.29,-5.42l-2.38 -9.32c-13.79,-0.86 -11.14,-1.31 -21.36,4.93 1.55,-1.7 1.96,2.83 1.11,-2.78 -0.72,-4.73 -0.83,-3.51 -2.66,-6.03 0.51,8.22 -1.76,13.14 -3.8,19.1zm-245.06 184.76l1.7 3.35 0.39 1.04 7.97 5.64c3.83,-2.05 3.09,7 8.93,-11.58 1.33,-4.21 0.91,-4.04 0.84,-9.27l-6.29 0 0 -7.25 -12.84 0 -0.7 18.07zm-52.88 -455.41l3.67 2.87c0.28,0.17 0.67,0.5 0.97,0.66l6.84 1.65c2.92,-4.18 -0.67,-3.04 5.49,-3.11 3.83,-12.64 -1.33,-1.94 10.88,-10.82 0.23,-0.17 0.66,-0.48 0.85,-0.66 3.05,-2.82 2,-2.4 1.66,-6.18l-1.17 -9.46c-5.67,2.43 -17.3,13.85 -23.05,18.6l-6.14 6.45zm30.7 -26.67c3.23,5.82 -0.2,-0.07 3.06,3.16l4.93 -0.98c0.7,-3.83 -1.69,-0.27 2.54,-2.75 0.08,-0.05 4.79,-1.9 5.83,-2.38 8.22,-3.75 9.3,-7.78 14.37,-16.05 3.09,-5.03 4.55,-6.13 1.97,-11.71 -5.81,1.68 -9.63,8.43 -16.86,15.15 -5.48,5.1 -12.76,9.9 -15.84,15.56zm469.46 152.38c0.07,6.21 2.78,10.89 7.17,16.47l1.82 2.01c0.15,-0.29 0.64,0.68 0.98,0.99 1.06,-6.05 -0.25,-8.18 -1.5,-15.57l9.32 -8.71c0.24,-0.26 0.61,-0.61 0.84,-0.86l6.4 -10.75c-5.22,-4.44 3.55,-5.1 -6.59,-4.55 -8.21,0.44 -2.38,6.75 -18.44,20.97zm-112.47 132.69c1.42,1.02 2.34,-1.55 2.58,8.21l0.06 24.02c-0.04,1.11 -0.13,3.57 -0.37,4.58 -1.17,4.88 -0.19,2.01 -2.27,4.09 -5.81,-4.75 -2.58,-37.22 -2.57,-37.23 1.26,-4.44 -0.98,-1.15 2.57,-3.67zm-6.54 39.57l1.76 2.14c0.24,0.17 0.69,0.69 1.01,0.87l7.16 1.38c4.96,-9.29 3.78,-36.02 1.19,-46.5l-8.5 -0.13c-6.52,11.65 -1.87,29.66 -2.62,42.24zm-22.25 -107.96l0 13.19c8.87,-1.84 2.47,-1.61 4.68,1.32l9.9 10.63c-0.15,-8.08 0.15,-3.15 1.53,-8.43l3.37 -20.38 -13.78 1.68c-6.23,2.1 -0.88,1.86 -5.7,1.99zm-168.37 101.17c-0.79,-2.72 0.82,-1.92 -0.96,-4.07 0.67,0.51 1.71,0.3 2.03,1.52 0.5,1.92 2.44,-0.15 2.98,4.6l-0.85 -18.63c-4.3,-6.37 -5.24,-6.66 -13.31,-5.46 -10.95,9.83 -4.91,20.33 10.11,22.04zm51.52 304.14l20.33 1.69 0 -6.78c-10.87,-0.24 -5.09,1.32 -6.75,-4.76l0.08 -5.46 -20.49 0c-0.22,6.65 1.65,11.09 6.83,15.31zm482.54 -596.85c-3.84,-10.25 -12.92,-17.04 -20.65,-23.71 -0.13,0.55 -0.86,-0.65 -0.45,4.25l2.34 7.69c0.14,0.4 0.29,0.84 0.42,1.25 1.06,3.5 3.25,15.94 7.7,17.89 10.53,4.61 3.99,-9.99 3.98,-10.01l6.66 2.64zm-426.31 297.46l-0.6 3.32c6.99,-1.93 3.66,-0.12 7.23,-3.93 5.97,-6.37 3.3,-18.26 3.66,-25.15 8.99,-7.55 14.86,-1.75 14.15,-11.53 -5.36,0 -15.08,-0.13 -18.95,10.28 -2.44,6.58 -0.41,8.62 -0.78,14.81 -0.58,9.63 -4.05,3.92 -4.71,12.2zm33.52 241.72c0,0 -0.55,2.68 4.94,6.61 11.09,7.94 9.25,7.09 18.79,7.02l-0.01 -6.78c-8.56,-1.2 -6.8,3.94 -6.75,-7.32 0.03,-8.02 2.77,3.38 2.21,-10.19l-19.18 10.66zm55.89 -279.25c-3.55,2.52 -1.31,-0.77 -2.57,3.67 -0.01,0.01 -3.24,32.48 2.57,37.23 2.08,-2.08 1.1,0.79 2.27,-4.09 0.24,-1.01 0.33,-3.47 0.37,-4.58l-0.06 -24.02c-0.24,-9.76 -1.16,-7.19 -2.58,-8.21zm-419.64 -237.92c4.33,5.43 0.54,8.43 11.51,7.51 0.84,-1.22 -0.19,-1.53 3.39,0.78 2.87,-1.52 3.41,-1.76 6.1,-3.39l-1.04 -5.99c-5.24,-0.51 -7.33,-2.63 -10.44,-5.08 -3.16,1.5 -8.66,5.37 -9.52,6.17zm428.41 207.94c-0.4,-5.48 -1.55,-4.17 4.04,-3.27 -12,-7.22 -7.75,-6.46 -20.69,-1.81 -2.02,10.38 -2.29,14.16 7.88,16.73 4.06,-3.22 5.97,-1.53 5.53,-9.19l-6.24 5c-0.2,0.17 -0.61,0.58 -0.98,0.77 -2.7,-5.65 -3.18,-5.31 0,-10.93 6.67,-0.96 5.15,-1.65 10.46,2.7zm14.84 255.89c4.53,0.24 6.62,0.29 13.14,0.29l4.02 -5.83c-4.6,-4.43 6.04,-1.59 3.99,-14.05 -7.01,2.6 -5.76,3.24 -11.7,9.51l-8.68 8.83c-0.15,-0.3 -0.53,0.82 -0.77,1.25zm-315.01 -583.31l-3.49 6.82 0.52 6.05c8.18,0 6.54,-2.2 12.71,-4.05 -0.73,-9.26 -3.11,-3.19 0.54,-12.31 -5.59,1.34 -7.18,2.93 -10.28,3.49zm-32.89 41.62c-1.5,5.26 14.7,-5.85 15.28,-6.36l0.21 -11.04c-4.3,2.6 -5.15,3.23 -8.72,7.06 -1.06,1.14 -3.32,3.47 -4.05,4.46 -4.34,5.94 -1.51,1.12 -2.72,5.88zm625.25 42.82l0.39 10.06c8.14,0.16 7.32,0.07 13.28,1.98l-0.84 -8.83c-1.16,-3.62 -1.32,-3.01 -1.71,-3.79l-11.12 0.58zm-392.89 303.77c5.46,-2.81 3.9,-14.9 2.18,-18.56l-5.69 2.8 3.51 15.76zm411.99 -115.68c0.44,-3.25 0.2,-2 3.11,-5 3.78,-3.91 2.33,-1.74 5.63,-6.74 -3.37,-0.99 -5.57,-1.58 -10.22,-2.41 -1.31,7.18 0.86,2.16 -3.46,7.48 4.24,1.59 1.82,-2.54 4.94,6.67z"/>
 </g>
</svg>
