<?xml version="1.0" encoding="UTF-8"?>
<!DOCTYPE svg PUBLIC "-//W3C//DTD SVG 1.1//EN" "http://www.w3.org/Graphics/SVG/1.1/DTD/svg11.dtd">
<!-- Creator: CorelDRAW 2019 (64-Bit) -->
<svg xmlns="http://www.w3.org/2000/svg" xml:space="preserve" width="100%" height="100%" version="1.1" style="shape-rendering:geometricPrecision; text-rendering:geometricPrecision; image-rendering:optimizeQuality; fill-rule:evenodd; clip-rule:evenodd"
viewBox="0 0 845.49 719.68"
 xmlns:xlink="http://www.w3.org/1999/xlink">
 <defs>
  <style type="text/css">
   <![CDATA[
    .fil0 {fill:white}
   ]]>
  </style>
 </defs>
 <g id="Layer_x0020_1">
  <metadata id="CorelCorpID_0Corel-Layer"/>
  <path class="fil0" d="M520.13 498.73c14.97,-17.5 7.17,-44.13 43.53,-54.32 76.77,-21.5 102.81,123.17 -41.85,141.47 -30.67,103.27 -50.46,34.82 -70.96,82.53 -4.63,10.77 0.66,0.77 -4.47,10.66 -3.28,6.33 -8.18,12.51 -13.15,16.36 -26.72,20.66 -74.94,8.03 -66.99,-41.24 3.99,-24.67 12.57,-22.16 28.94,-35.37 -9.61,-104.51 47.29,-71.62 66.21,-99.07 -21.45,-12.32 -46.33,15.14 -67.53,-41.75 96.32,-12.99 35.94,-105.56 64.92,-138.38l6.99 -0.95c0.72,0.04 2.61,-0.1 3.51,0 30.55,3.14 15.1,13.02 59.07,1.08 99.43,-27.01 45.53,96.49 184.72,87.25 -3.05,37.97 -28.48,58.13 -69.11,57.77 -8.49,-11.66 -18.47,-60.13 -74.21,-55.46 -27.79,2.33 -75.1,41.4 -49.62,69.42zm-104.18 -284.06c19.17,1.69 26.87,13.15 35.13,27.66 7.97,4.16 11.57,16.62 13.05,26.22 2.09,13.46 1.19,26.64 -2.86,38.68 -12.43,36.88 -24.42,8.63 -23.89,63.61 0.27,27.99 4.39,62.13 -11.89,79.13 -14.23,14.86 -42.74,19.71 -63.17,6.13 -17.29,-8.74 -21.72,-17.36 -22.42,-45.1 -0.56,-22.15 0.12,-46.63 0.68,-68.86l-0.61 -6.62c-14.96,-9.3 -12.45,-3.41 -15.3,-20.78 -24.3,-19.77 -10.14,-64.78 6.45,-83.08 11.08,-12.22 64.77,-46.01 84.83,-16.99zm-54.33 413.22c-29.77,-13.15 -194.65,-143.07 -217.5,-163.09 -40.84,-35.77 -58.59,-45.53 -90.91,-97.35 -99.44,-159.4 6.26,-324.44 150.43,-342.25 56.97,-7.03 111.9,10.03 149.75,37.24 67.8,48.74 38.27,39.48 37.14,128.68 -43.34,2.1 -71.05,23.48 -85.01,54.72 -23.79,53.27 13.66,90.82 17.31,99.3 15.27,35.47 -9.02,87.84 18.93,115.2 15.11,14.79 26.39,8.73 40.59,28.7 14.99,21.09 2.15,9.98 28.7,34.73 -17.94,29.28 -36.94,33.07 -30.97,89.14 -13.39,6.92 -8.62,3.13 -18.46,14.98zm99.06 -404.51c-20.99,-12.43 -20.38,-21.57 -53.43,-31.15 -11.36,-58.4 18.66,-174 104.77,-139.93 42.15,16.68 17.52,38.19 44.98,33.03 1.26,-22.75 -17.98,-29.45 -30.3,-44.7 67.93,-51.91 135.84,-19.29 156.39,33.67 40.36,104.03 -79.22,131.57 -86.49,138.34 12.77,12.06 34.04,3.02 47.91,-4.4 18.65,-9.98 21.99,-19.2 40.54,-26.45 79.08,124.17 -10.84,132.66 -23.87,176.77 45.35,-9.72 112.24,-90.95 27.91,-190.5 23.42,-67.07 17.2,-52.49 0.3,-117.24 71,10.66 76.74,56.99 88.42,72.58 7.25,9.68 18.52,13.24 27.6,21.92 39.82,38.09 31.34,121.93 -13.01,146.04 1.55,124.25 -88.54,140.04 -144.02,109.88 -41.66,-22.65 -31.81,-54.87 -65.86,-72.68 -45.92,-24.03 -116.64,34.89 -106.49,-25.42 8.1,-48.16 -3.42,-37.2 -5.64,-70.16l38.89 -15.39 -26.76 -4.45c-5.74,1.54 -16.37,7.68 -21.84,10.24zm-75.36 492.96c24.37,5.1 38.32,5.74 55.76,-8.12 20.28,-16.09 15.09,-27.31 26.87,-37.34 15.72,-13.37 52.99,-8.89 64.37,-70.01 49.72,-16.1 92.15,-24.86 107.98,-100.31 45.18,-3.67 70.51,-16.2 82.62,-50.46 13.84,-39.14 -3.86,-18.38 31.56,-37.74 31.17,-17.04 49.05,-49.65 52.15,-86.13 6.39,-75.18 58.15,-30.99 31.07,-163.1 -14.9,-13.48 -11.72,-20.07 -30.49,-34.56 -38.7,-29.88 -34.23,-76.35 -103.04,-89.42 -66.5,-12.64 -40.37,-31.87 -95.93,-38.26 -41.4,-4.76 -74.57,10.05 -91.72,34.65 -57.32,-3.35 -94.29,6.52 -109.93,53.08 -37.82,-26.1 -51.36,-53.21 -117.38,-71.42 -145.87,-40.21 -302.52,77.47 -288.31,244.71 14.5,170.79 227.49,277.76 351.59,381.67 -2.61,46.32 4.15,56.04 32.83,72.76z"/>
 </g>
</svg>
