<?xml version="1.0" encoding="UTF-8"?>
<!DOCTYPE svg PUBLIC "-//W3C//DTD SVG 1.1//EN" "http://www.w3.org/Graphics/SVG/1.1/DTD/svg11.dtd">
<!-- Creator: CorelDRAW 2019 (64-Bit) -->
<svg xmlns="http://www.w3.org/2000/svg" xml:space="preserve" width="100%" height="100%" version="1.1" style="shape-rendering:geometricPrecision; text-rendering:geometricPrecision; image-rendering:optimizeQuality; fill-rule:evenodd; clip-rule:evenodd"
viewBox="0 0 719.67 719.66"
 xmlns:xlink="http://www.w3.org/1999/xlink">
 <defs>
  <style type="text/css">
   <![CDATA[
    .fil0 {fill:white}
   ]]>
  </style>
 </defs>
 <g id="Layer_x0020_1">
  <metadata id="CorelCorpID_0Corel-Layer"/>
  <path class="fil0" d="M252.03 602.25c-0.7,-4.22 -0.68,-36.49 0.06,-40.65 2.35,-13.33 20.87,-12.87 23.61,-0.16 0.84,3.94 0.85,36.89 -0.03,40.74 -2.97,13.16 -21.58,12.41 -23.64,0.07zm108.03 -143.61c-2.87,-16.49 14.64,-15.14 27.43,-15.13 13.72,0.01 29.93,-2.99 32.26,10.44 2.65,15.28 -14.75,13.99 -26.99,13.98 -12.85,-0.02 -30.54,3.16 -32.7,-9.29zm-196.17 6.04c-6.76,5.63 -29.27,3.43 -39.97,3.27 -6.56,-0.1 -11.95,-0.69 -14.73,-6.4 -4.28,-8.79 2.27,-11.76 2.95,-16.02 -1.16,-4.42 0.03,-1.51 0.59,-6.99 0.02,-0.21 0.04,-0.62 0.06,-0.81 0.15,-2.1 -1.12,-1.82 2.62,-4.52 5.61,-4.06 37.27,-3.03 40.7,-2.14 8.36,2.17 -0.29,3.47 14.33,7.81 -1.29,13.39 5.55,13.56 1.02,24.12 -1.55,3.61 -4.53,4.1 -7.57,1.68zm147.18 -12.78c1.73,1.43 5.1,-5.24 0.01,5.09l4.29 0.11 -0.01 5.83 -10.54 0 0 10.54 -23.96 0c-1.95,-6.3 0.91,-2.53 -4.04,-5.27 -2.59,2.88 -3.17,6.31 -4.48,10.35l-9.66 29.91c-1.29,3.66 -1.37,2.23 -1.67,6.83 -2.37,-1.71 -3.65,-2.04 -3.83,-3.95l-2.18 3.28 -50.39 -117.64 117.87 49.85 -11.41 5.07zm-49.94 -151.74c5.67,-1.63 11.06,2.03 13.12,5.59 1.19,2.08 8.31,49.87 -7.12,53.65 -16.63,4.07 -15.38,-13.11 -15.38,-25.92 0.01,-13.8 -3.43,-29.65 9.38,-33.32zm-21.97 -22.32c-93.59,9.81 -167.53,101.53 -153.65,203.31 12.35,90.54 97.55,167.37 203.12,152.69 90.18,-12.54 167.5,-96.25 152.92,-202.84 -5.29,-38.69 -19.89,-65.14 -41.83,-92.58 -7.99,-10 -13.38,-13.67 -22.83,-22 -31.95,-28.2 -81.04,-44.52 -137.73,-38.58zm96.76 -65.57c1.08,-5.45 -0.33,-21.75 -0.09,-27.7 0.34,-8.6 2.74,-7.99 4.23,-9.19 -0.62,3.47 -1.76,28.18 -0.44,32.86 1.03,3.64 -0.08,1.19 1.76,3.36 0.28,-0.33 0.55,-0.77 0.71,-1.1 2.88,-5.88 1.77,-8.76 1.7,-16.69 -0.14,-15.76 -1.36,-13.19 3.06,-13.39l0.03 31.62c22.62,4.61 18.83,7.5 27.77,12.1 3.04,1.57 3.88,1.29 3.62,2.63 3.15,3.39 2.63,-4.83 2.63,5.2l2.55 2c19.35,-9.67 25.27,-40.79 44.4,-21.22l77.83 77.74c10.16,9.89 10.28,14.43 0.31,24.47 -5.82,5.87 -15.19,15.79 -20.21,19.27 1.31,9.06 16.28,32.05 18.87,49.62 7.76,0.21 33.38,-0.9 38.68,0.77 11.42,3.61 8.7,19.04 8.52,30.7 34.06,-16.61 65.14,-63.19 76.31,-100.81 7.11,-23.94 9.08,-52.63 4.8,-78.92 -2.34,-14.36 -15.94,-60.27 -24.21,-64.17l-3.86 1.31c-6.06,-13.4 -8.01,-8.96 -11.6,-11.02l-3.44 -3.53c-0.41,-1.7 -26.75,-0.92 -30.1,-0.92l0 -19.11c2.13,0 4.89,0.18 6.91,0.1l7.58 -1.42c0.03,0.07 -2.65,2.71 0.56,-0.11 0.08,-0.07 0.86,-1.16 1.1,-1.53 -3.72,-0.18 -1.73,-3.09 -7.9,-4.62 2.62,-4.69 -3.91,-4.45 4.32,-3.47 -57.74,-50.44 -147.65,-59.43 -220.2,-10.82 -4.43,2.97 -9.92,7.05 -13.4,10.36 -11.51,10.96 -28.57,26.68 -34.75,41.11 11.74,0.02 26.73,-2.7 30.79,7.66 2.31,5.92 0.19,28.47 1.16,36.86zm150.05 190.42l-6.58 1.93c2.14,2.24 -0.97,0.33 3.18,2.56 2.84,1.53 -2.38,-0.33 3.4,1.07 -0.39,0.21 -0.91,0.34 -1.26,0.46l-8.45 2.74c-0.21,0.07 -0.7,0.26 -0.87,0.32l-1.92 27.44c1.34,-2.71 0.45,-4.42 -1.36,-8.35l-1.29 -2.19c-0.4,3.92 2.14,38.1 0.8,41.92 -2.02,5.72 1.31,1.09 -3.75,5.17l0.41 -33.13c-2.16,9.3 -0.59,22.88 -1.66,33.16 -1.1,10.41 -2.67,19.88 -5.03,29.31 -4.53,18.15 -11.04,33.52 -18.98,48.22 -16.28,30.13 -38.89,53.78 -64.55,71.13 -58.64,39.64 -142.41,48.98 -210.2,11.64 -99.56,-54.85 -137.15,-172.11 -84.88,-275.09 7.61,-14.99 17.9,-29.19 27.24,-40.02 15.82,-18.34 22.7,-20.39 32.94,-30.05 1.63,-1.54 1.11,-1.1 1.51,-1.72 -0.82,-12.34 2.12,0.95 4.04,-11.02 0.35,-2.17 -0.02,-9.22 -0.04,-11.77l-9.51 -1.46 -0.67 -3.89c-10.36,-4.19 -19.17,-19.11 -27.65,-24.74l-66.45 66.84c4.38,6.61 22.67,20.9 24.3,26.63 2.11,7.4 -10.38,26.63 -13.96,34.57 -5.47,12.16 -11.78,35.12 -12.88,37.19 -5.88,11.14 -29.15,6.76 -41.85,6.76l0.06 95.19c53.85,-2.7 36.7,2.39 54.78,44.02 15.26,35.1 23.05,26.63 1.08,48.57 -4.23,4.23 -8.9,7.53 -11.53,12.74 3.09,5.23 61.2,63.34 66.43,66.4 5.49,-2.64 8.99,-7.74 13.39,-12.16 16.18,-16.28 14.65,-15.79 31.97,-6.09 54.46,30.5 62.6,1.33 60.04,62.67l95.13 0c0,-20.71 -3.62,-37.88 8.34,-42.91 5.33,-2.23 13.73,-3.94 19.14,-5.85 19.28,-6.81 44.35,-23.54 52.28,-19.6 6.31,3.13 18.13,19.53 25.59,24.17l66.62 -66.63c-17.21,-22.96 -33.82,-19.33 -19.38,-44.78 32.4,-57.07 1.43,-63.62 63.64,-60.55l0.06 -95.19c-8.08,0 -16.16,-0.03 -24.24,0.02 -11.4,0.08 -11.46,0.73 -17.43,-5.65zm153.61 -48.48l2.69 2.42c2.18,1.9 3.14,2.86 10.38,2.86l-1.32 10.54c4.03,-4.44 0.98,0.14 3.62,-6.24l3.91 1.31c5.15,-4.75 13.99,-32.21 16.14,-40.6 4.52,-17.61 16.81,-13.33 44.67,-13.15l-0.03 -95.18c-8.35,0.31 -16.79,0.11 -25.19,0.17 -27.59,0.16 -12.3,-13.83 -38.74,-61.49 -2.89,-5.19 -7.8,-10.56 -4.85,-17.81 2.53,-6.21 20.21,-18.19 24.37,-26.22 -3.31,-5.73 -60.87,-63.31 -66.4,-66.36 -8.2,4.12 -19.84,21.76 -26.28,24.28 -8.06,3.14 -32.42,-13.34 -52.49,-20.16 -5.35,-1.81 -14.49,-3.85 -19.15,-5.87 -11.37,-4.92 -8.15,-28.83 -7.38,-42.68l-94.41 -0.03c-3.52,15.45 5.22,35.77 -8.38,42.34 -2.69,1.3 -25.02,7.7 -37.15,12.94 -8.19,3.54 -26.85,16.13 -34.08,13.42 -5.6,-2.1 -19.73,-20.25 -26.51,-24.57l-66.68 66.71c5.19,7.69 17.72,15.83 22.51,23.25 6.65,10.29 -6.48,24.19 -9.79,33.68l26.83 -0.02c3.15,-8.48 14.31,-23.86 19.58,-30.39 2.1,-2.59 3.15,-4.14 5.21,-6.72 17.87,-22.38 52.82,-45.94 82.02,-57.54 101.09,-40.12 220.05,11.1 262.24,114.9 36.66,90.18 -5.46,157.98 -5.34,166.21zm-458.94 -110.17c5.29,-0.61 0.32,-0.35 2.63,3.79 -1.98,0.77 -4.74,1.13 -5.26,1.49 2.01,1.67 -2.88,0.26 1.68,0.65 6.54,0.56 0.4,-1.15 8.86,-1.15l1.79 4.1c0.19,0.31 0.54,0.8 0.84,1.17 6.29,0 15.18,0.59 21.11,-0.46 8.88,-1.57 15.65,-6.26 20.25,-0.79 5.87,1.5 26.32,-1.08 35.06,-0.97 54.71,0.7 93.48,20.95 133.06,52.68 3.92,3.14 5.18,6.07 9.05,9.34 8.98,7.63 22.78,28.78 25.33,30.13 1.15,-0.7 -2.24,-1.74 2.76,-0.23 3.49,1.05 4.49,3.59 5.03,7.48 2.21,-1.37 2.4,-0.81 2.97,-3.63 0.48,4.73 1.69,4.82 3.54,6.71l6.33 4.82c1.43,-2.13 0.68,0.11 0.67,-2.31 1.86,-0.1 4.86,4.54 2.3,-6.25l1.17 -2.86c-0.28,-8.68 -1.8,-1.63 1,-3.88 -1.44,-10.51 -8.94,-8.58 5.97,-23.33 5.69,-5.64 11.27,-11.91 17.04,-16.79 -3.45,-6.99 -10.86,-12.21 -16.12,-17.55l-33.6 -33.59c-5.5,-5.47 -11.34,-13.54 -18.18,-16.75 -28,32.5 -28.44,27.51 -43.07,20 -65.4,-33.58 -61.94,-3.71 -61.49,-63.8l-94.5 0.01c-1.72,11.97 3.39,32.52 -4.57,39.99 -5.84,5.49 -24.32,6.51 -31.65,11.98zm437.64 144.39c-4.3,1.81 -3.62,3.36 -6.83,6.95 -13.36,14.98 -22.38,23.86 -39.26,35.83 -3.71,2.63 -15.79,9.31 -17.38,11.66 0.9,1.29 0.29,-2.57 1.17,3.82l0.15 17.23c3.75,-2.51 2.33,-11.16 2.34,-16.12 0.98,0.68 -1.11,2.25 5.46,3.64 1.66,0.35 2.99,0.13 4.91,0.49 5.54,1.04 -0.8,0.22 4.13,1.43 4.58,1.11 4.67,-0.75 10.45,1.29 4.58,1.62 5.48,2.25 5.14,7.72l20.27 21.01 13.97 -12.49c2.57,-5.44 4.54,-6.04 9.57,-11.11l20.41 -20.43c4.82,-4.97 6.47,-7.81 11.79,-10.19 0.59,-2.78 2,-3.74 4.64,-6.31 2.36,-2.3 4.04,-4.15 6.28,-6.13 -10.26,-16 -21.71,-14.22 -26.2,-34.3l0.38 9.02 -4.49 -5.2c-0.17,-0.64 -0.49,-0.72 -0.77,-1.05 -0.27,0.3 -0.5,0.77 -0.68,0.98 -0.17,0.2 -0.47,0.68 -0.69,0.9 -7.27,7.5 4.84,-1.24 -2.2,1.82l-17.85 0.26c0.25,-0.01 1.05,1.07 3,-1.63l0.79 -2.27c0.7,-3.08 0.42,-0.53 -0.16,-1.71 -3.44,2.52 -0.99,4.67 -6.56,5.37l-1.78 -0.48zm-183.24 -44.41c5.91,16.38 18.52,24.97 28.29,70.28 1.63,7.57 1.68,23.01 4.95,28.33l-0.41 33.13c5.06,-4.08 1.73,0.55 3.75,-5.17 1.34,-3.82 -1.2,-38 -0.8,-41.92l1.29 2.19c1.81,3.93 2.7,5.64 1.36,8.35l1.92 -27.44c0.17,-0.06 0.66,-0.25 0.87,-0.32l8.45 -2.74c0.35,-0.12 0.87,-0.25 1.26,-0.46 -5.78,-1.4 -0.56,0.46 -3.4,-1.07 -4.15,-2.23 -1.04,-0.32 -3.18,-2.56l6.58 -1.93c-5.19,-10.61 -9.07,-31.15 -20.3,-52.51l-4.86 -6.31c-2.8,2.25 -1.28,-4.8 -1,3.88l-1.17 2.86c2.56,10.79 -0.44,6.15 -2.3,6.25 0.01,2.42 0.76,0.18 -0.67,2.31l-6.33 -4.82c-1.85,-1.89 -3.06,-1.98 -3.54,-6.71 -0.57,2.82 -0.76,2.26 -2.97,3.63 -0.54,-3.89 -1.54,-6.43 -5.03,-7.48 -5,-1.51 -1.61,-0.47 -2.76,0.23zm-296.55 -82.95l0.67 3.89 9.51 1.46c0.02,2.55 0.39,9.6 0.04,11.77 -1.92,11.97 -4.86,-1.32 -4.04,11.02 6.68,-2.91 20.77,-13.33 39.85,-21.62l34.96 -11.08c2.2,-0.48 4.51,-0.78 6.66,-1.28 0.8,-0.18 2.34,-0.56 3.27,-0.9 2.96,-1.08 1.51,-0.4 3.13,-1.49 -4.6,-5.47 -11.37,-0.78 -20.25,0.79 -5.93,1.05 -14.82,0.46 -21.11,0.46 -0.3,-0.37 -0.65,-0.86 -0.84,-1.17l-1.79 -4.1c-8.46,0 -2.32,1.71 -8.86,1.15 -4.56,-0.39 0.33,1.02 -1.68,-0.65 0.52,-0.36 3.28,-0.72 5.26,-1.49 -2.31,-4.14 2.66,-4.4 -2.63,-3.79 -13.46,3.71 -30.45,17.18 -42.15,17.03zm470.26 -89.65c-4.06,-11.89 -27.93,-37.7 -36.43,-44.32 -8.23,-0.98 -1.7,-1.22 -4.32,3.47 6.17,1.53 4.18,4.44 7.9,4.62 -0.24,0.37 -1.02,1.46 -1.1,1.53 -3.21,2.82 -0.53,0.18 -0.56,0.11l-7.58 1.42c-2.02,0.08 -4.78,-0.1 -6.91,-0.1l0 19.11c3.35,0 29.69,-0.78 30.1,0.92l3.44 3.53c3.59,2.06 5.54,-2.38 11.6,11.02l3.86 -1.31zm-496.61 274.11c11.76,-3.4 26.66,-2.3 39.58,-2.09 14.24,0.24 21.67,10.09 12.17,21.24 3.04,2.42 6.02,1.93 7.57,-1.68 4.53,-10.56 -2.31,-10.73 -1.02,-24.12 -14.62,-4.34 -5.97,-5.64 -14.33,-7.81 -3.43,-0.89 -35.09,-1.92 -40.7,2.14 -3.74,2.7 -2.47,2.42 -2.62,4.52 -0.02,0.19 -0.04,0.6 -0.06,0.81 -0.56,5.48 -1.75,2.57 -0.59,6.99zm506.14 -57.1l1.78 0.48c5.57,-0.7 3.12,-2.85 6.56,-5.37 0.58,1.18 0.86,-1.37 0.16,1.71l-0.79 2.27c-1.95,2.7 -2.75,1.62 -3,1.63l17.85 -0.26c7.04,-3.06 -5.07,5.68 2.2,-1.82 0.22,-0.22 0.52,-0.7 0.69,-0.9 0.18,-0.21 0.41,-0.68 0.68,-0.98 0.28,0.33 0.6,0.41 0.77,1.05l4.49 5.2 -0.38 -9.02c1.73,-1.7 0.76,-0.46 2.69,-3.13 1.39,-1.93 1.41,-2.14 2.48,-4.17 1.51,-2.89 3.18,-6.41 4.4,-10.02l-3.91 -1.31c-2.64,6.38 0.41,1.8 -3.62,6.24l1.32 -10.54c-7.24,0 -8.2,-0.96 -10.38,-2.86l-2.69 -2.42c-0.28,0.24 -0.68,0.26 -0.8,0.76l-4.86 7.6c-4.82,9.77 -13.78,20.13 -15.64,25.86zm-361.1 122.91c0.18,1.91 1.46,2.24 3.83,3.95 0.3,-4.6 0.38,-3.17 1.67,-6.83l9.66 -29.91c1.31,-4.04 1.89,-7.47 4.48,-10.35 4.95,2.74 2.09,-1.03 4.04,5.27l23.96 0 0 -10.54 10.54 0 0.01 -5.83 -4.29 -0.11c5.09,-10.33 1.72,-3.66 -0.01,-5.09l-33.05 10.51c-6.29,2.14 -4.78,0.24 -7.09,6.23 -4.7,12.14 -10.8,30.26 -13.75,42.7zm78.74 -299.07c3.17,3.93 1.68,2.83 10.49,5.56 14.34,4.44 23.55,10.54 34.49,14.14 0,-10.03 0.52,-1.81 -2.63,-5.2 0.26,-1.34 -0.58,-1.06 -3.62,-2.63 -8.94,-4.6 -5.15,-7.49 -27.77,-12.1l-0.03 -31.62c-4.42,0.2 -3.2,-2.37 -3.06,13.39 0.07,7.93 1.18,10.81 -1.7,16.69 -0.16,0.33 -0.43,0.77 -0.71,1.1 -1.84,-2.17 -0.73,0.28 -1.76,-3.36 -1.32,-4.68 -0.18,-29.39 0.44,-32.86 -1.49,1.2 -3.89,0.59 -4.23,9.19 -0.24,5.95 1.17,22.25 0.09,27.7zm252.64 250.1c0.34,-5.47 -0.56,-6.1 -5.14,-7.72 -5.78,-2.04 -5.87,-0.18 -10.45,-1.29 -4.93,-1.21 1.41,-0.39 -4.13,-1.43 -1.92,-0.36 -3.25,-0.14 -4.91,-0.49 -6.57,-1.39 -4.48,-2.96 -5.46,-3.64 -0.01,4.96 1.41,13.61 -2.34,16.12l-0.15 -17.23c-0.88,-6.39 -0.27,-2.53 -1.17,-3.82 -3.21,2.04 -2.19,-2.33 -2.95,3.91l0.18 23.08c6.33,-1.97 10.83,-4.74 16.37,-8.13 9.39,-5.75 13.03,-2.43 20.15,0.64z"/>
 </g>
</svg>
