<?xml version="1.0" encoding="UTF-8"?>
<svg version="1.1" xmlns="http://www.w3.org/2000/svg" width="75" height="71">
<path d="M0 0 C1.23556641 0.01740234 1.23556641 0.01740234 2.49609375 0.03515625 C3.32238281 0.04417969 4.14867188 0.05320313 5 0.0625 C5.63808594 0.07410156 6.27617187 0.08570313 6.93359375 0.09765625 C6.93359375 2.40765625 6.93359375 4.71765625 6.93359375 7.09765625 C15.84359375 7.09765625 24.75359375 7.09765625 33.93359375 7.09765625 C33.93359375 4.78765625 33.93359375 2.47765625 33.93359375 0.09765625 C37.23359375 0.09765625 40.53359375 0.09765625 43.93359375 0.09765625 C43.93359375 2.40765625 43.93359375 4.71765625 43.93359375 7.09765625 C45.29484375 6.97390625 45.29484375 6.97390625 46.68359375 6.84765625 C49.93359375 7.09765625 49.93359375 7.09765625 52.10437012 8.760849 C54.36304614 11.64627559 54.43954987 13.10405063 54.45117188 16.73657227 C54.46378052 17.86776993 54.47638916 18.99896759 54.48937988 20.16444397 C54.48128296 21.38119308 54.47318604 22.5979422 54.46484375 23.8515625 C54.47058411 25.73016212 54.47058411 25.73016212 54.47644043 27.64671326 C54.4791627 30.2942539 54.47379406 32.94031704 54.45507812 35.58764648 C54.43226396 38.97982756 54.44542877 42.37074444 54.46936798 45.76287937 C54.48729767 49.00081917 54.4747454 52.23860622 54.46484375 55.4765625 C54.47294067 56.69533585 54.4810376 57.91410919 54.48937988 59.16981506 C54.47677124 60.29786057 54.4641626 61.42590607 54.45117188 62.58813477 C54.4479895 63.58200699 54.44480713 64.57587921 54.44152832 65.59986877 C53.93359375 68.09765625 53.93359375 68.09765625 52.26416016 69.91674805 C49.37665263 71.37986075 47.36172175 71.48469407 44.12695312 71.50170898 C42.95894165 71.51439316 41.79093018 71.52707733 40.58752441 71.54014587 C39.33016479 71.53721024 38.07280518 71.5342746 36.77734375 71.53125 C34.8357135 71.53911278 34.8357135 71.53911278 32.8548584 71.5471344 C30.11782065 71.55605898 27.38107479 71.55364968 24.64404297 71.54370117 C21.1399173 71.53220423 17.6367983 71.55243542 14.13280487 71.58161831 C10.78509771 71.60439362 7.43762657 71.59751369 4.08984375 71.59375 C2.83248413 71.60498398 1.57512451 71.61621796 0.27966309 71.62779236 C-0.88834839 71.61841141 -2.05635986 71.60903046 -3.25976562 71.59936523 C-4.28694702 71.59919907 -5.31412842 71.5990329 -6.37243652 71.59886169 C-9.85163558 70.95156655 -11.01373381 69.95788021 -13.06640625 67.09765625 C-13.55415344 64.46615601 -13.55415344 64.46615601 -13.53637695 61.44287109 C-13.53930252 60.30844574 -13.54222809 59.17402039 -13.54524231 58.00521851 C-13.52773422 56.78533234 -13.51022614 55.56544617 -13.4921875 54.30859375 C-13.48889938 53.05382233 -13.48561127 51.7990509 -13.48222351 50.5062561 C-13.47179925 47.85453432 -13.45406887 45.204166 -13.4230957 42.55273438 C-13.38344058 39.15187458 -13.36547278 35.75136643 -13.35578632 32.35030174 C-13.34582214 29.10718453 -13.32558147 25.8641566 -13.3046875 22.62109375 C-13.29730057 21.39715912 -13.28991364 20.17322449 -13.28230286 18.91220093 C-13.26946762 17.7840799 -13.25663239 16.65595886 -13.2434082 15.49365234 C-13.233564 14.49755951 -13.22371979 13.50146667 -13.21357727 12.47518921 C-13.06640625 10.09765625 -13.06640625 10.09765625 -12.06640625 8.09765625 C-10 7.68359375 -10 7.68359375 -7.50390625 7.47265625 C-6.67761719 7.39789062 -5.85132813 7.323125 -5 7.24609375 C-4.04287109 7.17261719 -4.04287109 7.17261719 -3.06640625 7.09765625 C-3.08703125 6.12828125 -3.10765625 5.15890625 -3.12890625 4.16015625 C-3.04694378 0.14399545 -3.04694378 0.14399545 0 0 Z M-3.06640625 25.09765625 C-3.06640625 37.63765625 -3.06640625 50.17765625 -3.06640625 63.09765625 C12.44359375 63.09765625 27.95359375 63.09765625 43.93359375 63.09765625 C43.93359375 50.55765625 43.93359375 38.01765625 43.93359375 25.09765625 C28.42359375 25.09765625 12.91359375 25.09765625 -3.06640625 25.09765625 Z " fill="#FF4612" transform="translate(17.06640625,-0.09765625)"/>
<path d="M0 0 C3.63 0 7.26 0 11 0 C11 2.97 11 5.94 11 9 C7.37 9 3.74 9 0 9 C0 6.03 0 3.06 0 0 Z " fill="#FF4612" transform="translate(32,31)"/>
<path d="M0 0 C3.3 0 6.6 0 10 0 C10 2.97 10 5.94 10 9 C6.7 9 3.4 9 0 9 C0 6.03 0 3.06 0 0 Z " fill="#FF4612" transform="translate(47,31)"/>
<path d="M0 0 C2.97 0 5.94 0 9 0 C9 2.97 9 5.94 9 9 C6.03 9 3.06 9 0 9 C0 6.03 0 3.06 0 0 Z " fill="#FF4612" transform="translate(18,31)"/>
</svg>
