<?xml version="1.0" encoding="UTF-8"?>
<svg version="1.1" xmlns="http://www.w3.org/2000/svg" width="75" height="71">
<path d="M0 0 C1.21171875 -0.02900391 2.4234375 -0.05800781 3.671875 -0.08789062 C10.97477421 -0.13959961 15.65570207 0.44159748 21.875 4.3125 C23.20206354 4.99156155 24.53399582 5.66140092 25.875 6.3125 C25.875 6.9725 25.875 7.6325 25.875 8.3125 C26.47054687 8.54324219 27.06609375 8.77398437 27.6796875 9.01171875 C30.45107499 10.65383981 31.40650849 12.34264702 33 15.125 C33.49757813 15.97707031 33.99515625 16.82914063 34.5078125 17.70703125 C39.56595023 27.34639657 39.70482032 39.60547799 36.84765625 50.078125 C32.42304911 59.63821799 25.049847 65.74539434 15.71582031 70.28051758 C10.6525709 72.11983996 5.70725093 72.03445002 0.375 71.9375 C-1.22021484 71.96650391 -1.22021484 71.96650391 -2.84765625 71.99609375 C-13.62705006 71.9299625 -21.33423846 67.83157046 -29.14453125 60.57421875 C-32.36102746 56.90094201 -34.2614502 52.78834729 -36.125 48.3125 C-36.455 47.6525 -36.785 46.9925 -37.125 46.3125 C-38.20344932 35.23996529 -38.59120186 23.78823731 -32.125 14.3125 C-31.7021875 13.65378906 -31.279375 12.99507812 -30.84375 12.31640625 C-26.82456234 6.8834927 -21.08842471 4.21625909 -15.125 1.3125 C-10.72908888 -0.88545556 -4.82686695 0.03778862 0 0 Z M-21.91015625 17.84765625 C-23.44418277 19.3801911 -23.44418277 19.3801911 -23.125 22.3125 C-23.785 22.3125 -24.445 22.3125 -25.125 22.3125 C-28.49664609 29.75821844 -29.75845205 36.52582734 -27.05859375 44.4375 C-23.26802954 52.70031026 -18.43837473 58.8920702 -9.8125 62.25 C-1.50293062 64.55265176 7.11915968 64.1628193 14.875 60.3125 C23.64573788 55.26573116 26.76461071 48.64366786 29.875 39.3125 C30.70266901 31.03580986 26.97247475 23.68434343 21.875 17.3125 C14.00353976 10.26872549 7.05904948 8.83569315 -3.42578125 9 C-11.0561356 9.64459171 -16.19589263 12.96267352 -21.91015625 17.84765625 Z " fill="#FF4612" transform="translate(37.125,-0.3125)"/>
<path d="M0 0 C4.55555556 0.55555556 4.55555556 0.55555556 6 2 C6 3.82455102 5.9981274 5.64912824 5.98510742 7.47363281 C5.89461135 14.31762044 5.89461135 14.31762044 8.85546875 20.25390625 C11.17982956 21.7450791 13.46721091 22.90496577 16 24 C18.17076291 25.22160342 20.01572477 26.47363444 22 28 C22 29.32 22 30.64 22 32 C19 34 19 34 16.62109375 33.80078125 C13.77054269 32.92989754 11.58902417 31.76408301 9.0625 30.1875 C8.24910156 29.68605469 7.43570313 29.18460938 6.59765625 28.66796875 C5.74042969 28.11753906 4.88320313 27.56710938 4 27 C2.91589844 26.49339844 1.83179688 25.98679687 0.71484375 25.46484375 C-2.39764944 22.63896864 -2.43234457 22.09160194 -2.65625 18.0859375 C-2.63503284 16.1816975 -2.58183222 14.27759917 -2.5 12.375 C-2.4896875 11.40820312 -2.479375 10.44140625 -2.46875 9.4453125 C-2.30928571 2.30928571 -2.30928571 2.30928571 0 0 Z " fill="#FF4612" transform="translate(35,17)"/>
</svg>
