<svg width="11" height="17" viewBox="0 0 11 17" fill="none" xmlns="http://www.w3.org/2000/svg">
<path d="M5.48965 2.45095C5.48965 1.09733 4.39323 0 3.04072 0C1.68822 0 0.591797 1.09733 0.591797 2.45095C0.591797 3.80458 1.68822 4.90191 3.04072 4.90191C4.39323 4.90191 5.48965 3.80458 5.48965 2.45095Z" fill="#FF4612"/>
<path fill-rule="evenodd" clip-rule="evenodd" d="M0.659986 6.94031L0.660839 6.93957L0.674767 6.92594L0.660095 6.94042C1.28177 6.31803 2.1629 6.10466 2.96272 6.29894C2.1734 6.10713 1.30511 6.31266 0.685592 6.91544C1.12599 6.48849 1.74477 6.24405 2.44154 6.28307C3.86163 6.36262 5.08847 7.59047 5.16786 9.01165L5.31248 11.5958L2.73046 11.4512C1.31048 11.3716 0.0836295 10.1438 0.00403576 8.72238C-0.0346289 8.02879 0.206835 7.41239 0.629138 6.97195L0.659986 6.94031ZM9.96497 16.2513L9.96411 16.2521C9.87531 16.341 9.78135 16.4214 9.68301 16.4935C9.78135 16.4213 9.87531 16.3409 9.964 16.252C9.52221 16.6939 8.89326 16.9483 8.18332 16.9085C6.76332 16.829 5.53648 15.6011 5.457 14.1799L5.31248 11.5958L7.8945 11.7405C9.31449 11.82 10.5413 13.0478 10.6209 14.4692C10.6595 15.1599 10.4202 15.7743 10.0018 16.2135L9.96497 16.2513Z" fill="#FF4612"/>
</svg>
