<svg width="80" height="325" viewBox="0 0 80 325" fill="none" xmlns="http://www.w3.org/2000/svg">
<path d="M0.709997 295.92L79.67 314.82L79.67 324.41L0.709997 305.51L0.709997 295.92ZM33.26 252.497C35.8733 252.497 38.3233 253.127 40.61 254.387C42.8967 255.6 44.74 257.537 46.14 260.197C47.54 262.81 48.24 266.124 48.24 270.137L48.24 278.327L67 278.327L67 288.127L18.14 288.127L18.14 270.137C18.14 266.357 18.7933 263.137 20.1 260.477C21.4067 257.817 23.2033 255.834 25.49 254.527C27.7767 253.174 30.3667 252.497 33.26 252.497ZM40.33 270.557C40.33 267.85 39.7233 265.844 38.51 264.537C37.25 263.23 35.5 262.577 33.26 262.577C28.5 262.577 26.12 265.237 26.12 270.557L26.12 278.327L40.33 278.327L40.33 270.557ZM67.63 228.319C67.63 232.052 66.8133 235.412 65.18 238.399C63.5 241.386 61.1433 243.742 58.11 245.469C55.0767 247.149 51.5767 247.989 47.61 247.989C43.6433 247.989 40.1433 247.126 37.11 245.399C34.0767 243.626 31.7433 241.222 30.11 238.189C28.43 235.156 27.59 231.772 27.59 228.039C27.59 224.306 28.43 220.922 30.11 217.889C31.7433 214.856 34.0767 212.476 37.11 210.749C40.1433 208.976 43.6433 208.089 47.61 208.089C51.5767 208.089 55.0767 208.999 58.11 210.819C61.1433 212.592 63.5 215.019 65.18 218.099C66.8133 221.132 67.63 224.539 67.63 228.319ZM59.09 228.319C59.09 226.546 58.67 224.889 57.83 223.349C56.9433 221.762 55.6367 220.502 53.91 219.569C52.1833 218.636 50.0833 218.169 47.61 218.169C43.9233 218.169 41.1 219.149 39.14 221.109C37.1333 223.022 36.13 225.379 36.13 228.179C36.13 230.979 37.1333 233.336 39.14 235.249C41.1 237.116 43.9233 238.049 47.61 238.049C51.2967 238.049 54.1433 237.139 56.15 235.319C58.11 233.452 59.09 231.119 59.09 228.319ZM34.24 191.1C32.1867 189.84 30.5767 188.207 29.41 186.2C28.2433 184.147 27.66 181.814 27.66 179.2L37.95 179.2L37.95 181.79C37.95 184.87 38.6733 187.204 40.12 188.79C41.5667 190.33 44.0867 191.1 47.68 191.1L67 191.1L67 200.9L28.22 200.9L28.22 191.1L34.24 191.1ZM36.27 161.19L55.03 161.19C56.3367 161.19 57.2933 160.886 57.9 160.28C58.46 159.626 58.74 158.553 58.74 157.06L58.74 152.51L67 152.51L67 158.67C67 166.93 62.9867 171.06 54.96 171.06L36.27 171.06L36.27 175.68L28.22 175.68L28.22 171.06L18.63 171.06L18.63 161.19L28.22 161.19L28.22 152.51L36.27 152.51L36.27 161.19ZM36.27 127.681L36.27 134.471L67 134.471L67 144.411L36.27 144.411L36.27 148.821L28.22 148.821L28.22 144.411L26.26 144.411C21.5 144.411 18 143.058 15.76 140.351C13.52 137.644 12.47 133.561 12.61 128.101L20.87 128.101C20.8233 130.481 21.22 132.138 22.06 133.071C22.9 134.004 24.4167 134.471 26.61 134.471L28.22 134.471L28.22 127.681L36.27 127.681ZM67.63 104.11C67.63 107.843 66.8133 111.203 65.18 114.19C63.5 117.177 61.1433 119.533 58.11 121.26C55.0767 122.94 51.5767 123.78 47.61 123.78C43.6433 123.78 40.1433 122.917 37.11 121.19C34.0767 119.417 31.7433 117.013 30.11 113.98C28.43 110.947 27.59 107.563 27.59 103.83C27.59 100.097 28.43 96.7135 30.11 93.6802C31.7433 90.6468 34.0767 88.2668 37.11 86.5402C40.1433 84.7668 43.6433 83.8802 47.61 83.8802C51.5767 83.8802 55.0767 84.7902 58.11 86.6102C61.1433 88.3835 63.5 90.8102 65.18 93.8902C66.8133 96.9235 67.63 100.33 67.63 104.11ZM59.09 104.11C59.09 102.337 58.67 100.68 57.83 99.1402C56.9433 97.5535 55.6367 96.2935 53.91 95.3602C52.1833 94.4268 50.0833 93.9602 47.61 93.9602C43.9233 93.9602 41.1 94.9402 39.14 96.9002C37.1333 98.8135 36.13 101.17 36.13 103.97C36.13 106.77 37.1333 109.127 39.14 111.04C41.1 112.907 43.9233 113.84 47.61 113.84C51.2967 113.84 54.1433 112.93 56.15 111.11C58.11 109.243 59.09 106.91 59.09 104.11ZM15.2 66.8915L67 66.8915L67 76.6915L15.2 76.6915L15.2 66.8915ZM23.6 52.2391C23.6 53.9657 23.0633 55.4124 21.99 56.5791C20.87 57.6991 19.4933 58.2591 17.86 58.2591C16.2267 58.2591 14.8733 57.6991 13.8 56.5791C12.68 55.4124 12.12 53.9657 12.12 52.2391C12.12 50.5124 12.68 49.0891 13.8 47.9691C14.8733 46.8024 16.2267 46.2191 17.86 46.2191C19.4933 46.2191 20.87 46.8024 21.99 47.9691C23.0633 49.0891 23.6 50.5124 23.6 52.2391ZM28.22 47.4091L67 47.4091L67 57.2091L28.22 57.2091L28.22 47.4091ZM67.63 20.5066C67.63 24.24 66.8133 27.6 65.18 30.5866C63.5 33.5733 61.1433 35.93 58.11 37.6566C55.0767 39.3366 51.5767 40.1766 47.61 40.1766C43.6433 40.1766 40.1433 39.3133 37.11 37.5866C34.0767 35.8133 31.7433 33.41 30.11 30.3766C28.43 27.3433 27.59 23.96 27.59 20.2266C27.59 16.4933 28.43 13.11 30.11 10.0766C31.7433 7.0433 34.0767 4.6633 37.11 2.93664C40.1433 1.1633 43.6433 0.276637 47.61 0.276637C51.5767 0.276637 55.0767 1.18664 58.11 3.00664C61.1433 4.77997 63.5 7.20664 65.18 10.2866C66.8133 13.32 67.63 16.7266 67.63 20.5066ZM59.09 20.5066C59.09 18.7333 58.67 17.0766 57.83 15.5366C56.9433 13.95 55.6367 12.69 53.91 11.7566C52.1833 10.8233 50.0833 10.3566 47.61 10.3566C43.9233 10.3566 41.1 11.3366 39.14 13.2966C37.1333 15.21 36.13 17.5666 36.13 20.3666C36.13 23.1666 37.1333 25.5233 39.14 27.4366C41.1 29.3033 43.9233 30.2366 47.61 30.2366C51.2967 30.2366 54.1433 29.3266 56.15 27.5066C58.11 25.64 59.09 23.3066 59.09 20.5066Z" fill="#FF4612" fill-opacity="0.13"/>
</svg>
