<?xml version="1.0" encoding="UTF-8"?>
<svg version="1.1" xmlns="http://www.w3.org/2000/svg" width="75" height="71">
<path d="M0 0 C1.02480469 -0.020625 2.04960938 -0.04125 3.10546875 -0.0625 C13.5670803 -0.11635643 21.62669237 3.52076662 29.328125 10.7265625 C37.55564049 19.99490826 37.66576084 32.2094015 37.03271484 43.91503906 C36.14202645 51.27129447 32.10201159 57.3403926 26.75 62.25 C24.5 63.75 24.5 63.75 21.75 65.25 C20.65171875 65.930625 19.5534375 66.61125 18.421875 67.3125 C12.60382949 70.20164333 6.61606973 69.83312605 0.25 69.75 C-0.93464844 69.76546875 -2.11929688 69.7809375 -3.33984375 69.796875 C-10.47845867 69.76504171 -15.16573406 69.02053101 -21.25 65.25 C-22.1575 64.755 -23.065 64.26 -24 63.75 C-27.58800995 61.35799337 -29.87309425 59.38071725 -31.25 55.25 C-31.91 54.92 -32.57 54.59 -33.25 54.25 C-36.37395799 47.92506245 -36.82933582 41.3149649 -36.8125 34.375 C-36.8115332 33.40771973 -36.81056641 32.44043945 -36.80957031 31.44384766 C-36.59193582 22.59983775 -34.29792745 16.53604083 -28.19140625 10.0703125 C-26.01454542 8.02923173 -23.85566938 6.7043271 -21.25 5.25 C-20.66605469 4.90710938 -20.08210938 4.56421875 -19.48046875 4.2109375 C-12.66642517 0.22292884 -7.71742595 0.03825242 0 0 Z M-23.25 15.25 C-28.3942772 22.93794195 -32.04742024 30.88375546 -30.25 40.25 C-28.69396885 45.53900972 -26.68668349 49.92706576 -23.25 54.25 C-21.66375765 53.82316761 -20.0810902 53.38303842 -18.5 52.9375 C-17.61828125 52.69386719 -16.7365625 52.45023438 -15.828125 52.19921875 C-13.19227495 51.22874669 -11.39592674 50.03994356 -9.25 48.25 C-9.52714844 47.65832031 -9.80429687 47.06664062 -10.08984375 46.45703125 C-10.45207031 45.66683594 -10.81429688 44.87664063 -11.1875 44.0625 C-11.54714844 43.28519531 -11.90679688 42.50789063 -12.27734375 41.70703125 C-13.92605796 37.54220699 -14.37500251 33.62540872 -14.34765625 29.16796875 C-14.34443359 28.23662109 -14.34121094 27.30527344 -14.33789062 26.34570312 C-14.32951172 25.38599609 -14.32113281 24.42628906 -14.3125 23.4375 C-14.30798828 22.45845703 -14.30347656 21.47941406 -14.29882812 20.47070312 C-14.28708684 18.06373889 -14.27066419 15.65690143 -14.25 13.25 C-13.33734375 12.80140625 -13.33734375 12.80140625 -12.40625 12.34375 C-10.8217897 11.54003825 -9.27346041 10.66407625 -7.75 9.75 C-5.61932104 8.47159262 -3.48698864 7.3270686 -1.25 6.25 C-9.57400936 5.37378849 -17.52644043 9.372314 -23.25 15.25 Z M1.75 6.25 C2.554375 6.62125 2.554375 6.62125 3.375 7 C5.75 8.25 5.75 8.25 8.875 10.375 C11.45713977 12.43208926 11.45713977 12.43208926 13.75 12.25 C15.75297147 22.78175322 15.70365987 33.22120424 11.75 43.25 C11.358125 44.28125 10.96625 45.3125 10.5625 46.375 C10.294375 46.99375 10.02625 47.6125 9.75 48.25 C11.13782485 49.0966034 12.53569397 49.92675339 13.9375 50.75 C14.71480469 51.2140625 15.49210937 51.678125 16.29296875 52.15625 C19.07543002 53.39486551 20.74219013 53.73144811 23.75 53.25 C28.15350691 48.86925024 30.57512898 42.10388814 30.8515625 36.01171875 C30.51123043 27.80448001 27.33414551 19.99285306 21.6328125 14.0390625 C15.92250611 9.35621608 9.38625835 5.53410078 1.75 6.25 Z " fill="#FF4612" transform="translate(37.25,0.75)"/>
</svg>
