<?xml version="1.0" encoding="UTF-8"?>
<!DOCTYPE svg PUBLIC "-//W3C//DTD SVG 1.1//EN" "http://www.w3.org/Graphics/SVG/1.1/DTD/svg11.dtd">
<!-- Creator: CorelDRAW 2019 (64-Bit) -->
<svg xmlns="http://www.w3.org/2000/svg" xml:space="preserve" width="100%" height="100%" version="1.1" style="shape-rendering:geometricPrecision; text-rendering:geometricPrecision; image-rendering:optimizeQuality; fill-rule:evenodd; clip-rule:evenodd"
viewBox="0 0 1270 1270"
 xmlns:xlink="http://www.w3.org/1999/xlink">
 <defs>
  <style type="text/css">
   <![CDATA[
    .fil0 {fill:#FF4612}
    .fil1 {fill:white}
   ]]>
  </style>
 </defs>
 <g id="Layer_x0020_1">
  <metadata id="CorelCorpID_0Corel-Layer"/>
  <circle class="fil0" cx="635" cy="635" r="635"/>
  <path class="fil1" d="M483.99 447.36c-10.21,1.65 -15.68,4.51 -24.28,7.16 -1.12,1.43 -8.4,5.38 -10.3,6.07l-0.6 0.76c-2.98,3.57 -6.63,5.97 -9.59,10.28 -1.61,2.38 -6.03,10.15 -7.87,11.71 -0.1,2.99 -1.81,5.76 -2.76,8.98l-5.45 17.21 -1.08 10.51 -0.85 11.8c0.12,8.52 2.13,15.49 3.73,23.33l10.26 26.34c1.36,0.62 2.74,4.43 3.83,6.67 1.19,2.46 2.38,4.47 3.79,6.91 2.47,4.28 6.16,9.93 7.95,14.41 0.68,0.27 0.35,0.02 1.23,1.14 0.69,0.87 0.77,1.19 1.26,1.97 2.74,4.47 5.3,7.3 7.47,11.94 3.11,2.96 6.11,8.21 8.9,12.09 2.82,3.91 7.77,9.09 9.01,12.87 3,1.92 8.87,10.47 11.81,14.11 1.87,2.32 4.14,5.17 5.91,7.2 2.23,2.56 3.92,4.13 5.6,7 2.78,2.16 6.68,7.83 9.58,10.76 2.06,2.07 2.75,3.35 4.59,5.3 2.74,2.89 2.92,2 4.6,5.73 0.97,0.45 0.22,-0.17 1.66,1.2 0.74,0.7 0.84,0.98 1.51,1.75 2.89,3.32 6.37,5.1 8.15,9.5 2.43,0.96 0.69,-0.05 2.6,1.97l7.49 7.34c2.62,2.56 7.82,7.2 9.26,10.18 2.93,1.17 8.71,6.52 11.91,9l10.57 8.46c1.04,1.08 0.39,0.27 1.29,1.57l24.44 18.21c2.89,0.51 8.33,4.99 10.88,6.87l3.17 2.96c1.72,0.24 0.92,0 2.76,1.04l11.32 7.6c1.12,0.71 1.54,0.88 2.5,1.66 0.16,0.12 0.36,0.3 0.5,0.42l0.96 0.98c0.09,-0.16 0.33,0.34 0.48,0.52 2,0.31 18.44,10.46 19.87,12.56 2.71,0.33 1.21,-0.05 4.08,1.57 0.95,0.53 2.37,1.43 3.6,2.16 2.85,1.69 4.7,1.98 6.52,4.45 2.43,0.27 17.01,8.1 20.38,9.94 3.28,1.71 5.55,2.71 8.87,4.21l8.98 4.66c2.06,0.01 14.84,4.52 17.24,6.58 3.41,-0.21 14.68,3.76 19.51,4.76 7.3,1.51 14.69,2.41 22.55,2.42 9.46,0 22.08,-2.62 30.8,-5.15 4.64,-1.34 9.1,-2.78 13.58,-4.52 4.53,-1.76 9.08,-5.29 13.13,-5.58 2.47,-3.62 12.66,-7.52 19.46,-19.47 1.32,-2.31 2.55,-5.81 4.06,-7.76l4.39 -16.8c0.28,-3.74 0.78,-7.62 0.71,-11.54 -0.07,-3.93 -0.95,-7.26 -0.5,-10.79 -1.5,-1.93 -2.16,-5.91 -3.22,-8.51 -1.35,-3.34 -2.64,-4.31 -3.16,-7.44 -2.41,-1.35 -1.72,-1.46 -3.44,-3.26 -2.07,-2.15 -1.83,-1.18 -2.83,-3.43l-8.22 -6.07c-3.56,-1.41 -14.5,-8.17 -15.95,-10.71l-15.34 -9.78c-3.83,-1.43 -7.23,-3.6 -11.11,-5.48 -3.02,-1.48 -7.05,-2.8 -9.92,-4.44 -9.79,-2.04 -17.24,-4.72 -27.62,-1 -4.85,1.75 -10.93,5.96 -14.42,9.48 -0.81,0.82 -1.21,1.36 -2.02,2.11 -1.76,1.62 -0.27,0.51 -2.05,1.6l-2.7 3.51c-9.43,9.37 -14.35,17.25 -24.25,18.38 -12.46,1.42 -32.15,-10.08 -33.52,-13.61 -4.25,-2.42 -7.36,-5.28 -11.12,-8.57 -2.11,-1.84 -8.84,-6.6 -9.69,-8.91 -3.32,-1.36 -6.75,-4.72 -9.58,-7.24 -2.72,-2.41 -6.92,-5.08 -7.73,-7.48 -2.98,-1.28 -16.75,-13.49 -17.5,-15.39 -4.08,-1.73 -3.38,-2.55 -6.53,-5.45 -2.18,-2.01 -3.95,-2.68 -5.66,-5.07 -3.46,-3.09 -9.59,-7.62 -11.53,-10.83 -2.99,-2.07 -6.59,-6.1 -9.26,-8.7l-6.82 -6.38c-1.05,-1.25 -0.41,-0.51 -0.93,-1.32 -0.05,-0.08 -0.19,-0.24 -0.23,-0.47 -0.03,-0.23 -0.15,-0.31 -0.2,-0.47 -4.65,-2.14 -7.59,-6.32 -11.16,-9.89 -3.28,-3.29 -7.68,-6.89 -10.09,-10.51 -2.4,-1.7 -12.43,-14.39 -12.61,-19.12 -0.79,-0.92 -0.22,0.3 -1.49,-2.17 -0.11,-0.23 -0.66,-1.6 -0.71,-1.8 -0.67,-2.57 -0.54,-1.93 -0.22,-4.57 -1.18,-1.77 -1.04,-3.06 -0.58,-5.87 0.33,-2.05 0.82,-3.92 1.81,-4.64 1.83,-4.76 2.69,-4.69 5.92,-7.37 2.42,-2.01 3.58,-4.08 6.02,-5.23 1.67,-3 7.09,-8.57 9.88,-9.88 1.69,-3.05 4.13,-4.92 6.32,-7.94 2.14,-2.96 3.13,-6.04 4.7,-8.74l0.82 -12.16 -2.73 -13.09c-2.89,-2.36 -3.98,-6.71 -5.85,-9.97 -1.92,-3.35 -4.82,-6.31 -5.7,-9.54 -1.04,-0.73 -0.66,-0.38 -1.56,-1.22l-10.79 -14.36 -2.04 -1.71c-0.42,-0.4 -0.86,-0.9 -1.22,-1.28 -1.28,-1.42 -1.24,-1.42 -2.22,-2.69 -13.14,-17 -17.61,-24.23 -42.34,-27.16l-13.03 0.66z"/>
  <path class="fil0" d="M475.16 417.21c28.59,3.38 33.76,11.75 48.96,31.4 1.14,1.48 1.09,1.48 2.58,3.11 0.41,0.46 0.91,1.03 1.4,1.5l2.36 1.96 12.48 16.62c1.04,0.97 0.6,0.56 1.8,1.41 1.03,3.74 4.38,7.16 6.6,11.03 2.17,3.78 3.42,8.81 6.77,11.53l3.15 15.15 -0.95 14.06c-1.81,3.13 -2.96,6.69 -5.44,10.11 -2.53,3.49 -5.35,5.66 -7.3,9.18 -3.23,1.52 -9.5,7.96 -11.43,11.43 -2.83,1.33 -4.17,3.72 -6.97,6.05 -3.73,3.1 -4.73,3.02 -6.84,8.53 -1.14,0.82 -1.71,2.99 -2.09,5.36 -0.53,3.25 -0.7,4.74 0.67,6.79 -0.37,3.05 -0.53,2.31 0.25,5.29 0.06,0.23 0.69,1.82 0.83,2.08 1.46,2.86 0.8,1.45 1.72,2.5 0.21,5.47 11.8,20.16 14.59,22.12 2.78,4.19 7.87,8.36 11.66,12.15 4.13,4.14 7.53,8.97 12.91,11.44 0.06,0.19 0.2,0.28 0.24,0.55 0.04,0.27 0.2,0.45 0.26,0.54 0.59,0.94 -0.14,0.09 1.07,1.54l7.89 7.37c3.09,3.01 7.25,7.67 10.72,10.06 2.23,3.72 9.33,8.96 13.33,12.54 1.98,2.76 4.03,3.54 6.55,5.86 3.64,3.35 2.83,4.29 7.55,6.3 0.86,2.2 16.79,16.32 20.23,17.8 0.95,2.78 5.8,5.86 8.95,8.65 3.27,2.91 7.24,6.8 11.08,8.37 0.98,2.68 8.77,8.19 11.2,10.31 4.36,3.81 7.96,7.11 12.87,9.92 1.59,4.08 24.36,17.38 38.77,15.73 11.45,-1.3 17.14,-10.42 28.05,-21.26l3.12 -4.05c2.06,-1.27 0.33,0.02 2.37,-1.85 0.94,-0.87 1.4,-1.5 2.34,-2.44 4.04,-4.08 11.07,-8.95 16.68,-10.97 12.01,-4.31 20.62,-1.2 31.95,1.15 3.32,1.91 7.98,3.44 11.47,5.14 4.48,2.18 8.42,4.69 12.85,6.35l17.74 11.31c1.68,2.93 14.33,10.74 18.45,12.38l9.51 7.02c1.15,2.61 0.88,1.48 3.27,3.97 1.99,2.08 1.19,2.21 3.98,3.77 0.6,3.62 2.09,4.75 3.66,8.6 1.22,3.01 1.99,7.62 3.72,9.85 -0.52,4.08 0.5,7.94 0.58,12.47 0.08,4.55 -0.5,9.02 -0.82,13.35l-5.09 19.43c-1.74,2.27 -3.16,6.31 -4.68,8.99 -7.87,13.81 -19.66,18.33 -22.52,22.51 -4.68,0.33 -9.94,4.42 -15.19,6.45 -5.18,2.02 -10.33,3.68 -15.7,5.24 -10.09,2.92 -24.69,5.95 -35.63,5.95 -9.08,-0.01 -17.63,-1.05 -26.08,-2.8 -5.58,-1.15 -18.62,-5.74 -22.56,-5.5 -2.78,-2.39 -17.56,-7.6 -19.94,-7.62l-10.39 -5.39c-3.83,-1.73 -6.47,-2.89 -10.26,-4.86 -3.9,-2.13 -20.76,-11.18 -23.57,-11.5 -2.11,-2.86 -4.24,-3.19 -7.54,-5.15 -1.43,-0.85 -3.06,-1.88 -4.17,-2.5 -3.32,-1.87 -1.59,-1.43 -4.72,-1.82 -1.65,-2.42 -20.67,-14.17 -22.98,-14.51 -0.17,-0.22 -0.45,-0.79 -0.55,-0.61l-1.12 -1.13c-0.15,-0.14 -0.39,-0.35 -0.57,-0.49 -1.11,-0.9 -1.6,-1.1 -2.9,-1.92l-13.09 -8.79c-2.13,-1.21 -1.2,-0.93 -3.19,-1.2l-3.66 -3.43c-2.95,-2.17 -9.24,-7.36 -12.58,-7.94l-28.27 -21.07c-1.05,-1.5 -0.29,-0.56 -1.5,-1.82l-12.23 -9.78c-3.7,-2.87 -10.38,-9.05 -13.77,-10.41 -1.66,-3.44 -7.68,-8.81 -10.72,-11.77l-8.65 -8.49c-2.22,-2.34 -0.2,-1.17 -3.01,-2.28 -2.06,-5.08 -6.09,-7.14 -9.43,-10.99 -0.77,-0.89 -0.89,-1.22 -1.74,-2.02 -1.67,-1.58 -0.8,-0.87 -1.93,-1.39 -1.93,-4.31 -2.15,-3.29 -5.31,-6.63 -2.13,-2.25 -2.94,-3.73 -5.31,-6.13 -3.36,-3.38 -7.87,-9.95 -11.09,-12.45 -1.94,-3.31 -3.9,-5.13 -6.47,-8.08 -2.05,-2.36 -4.67,-5.66 -6.83,-8.33 -3.41,-4.21 -10.2,-14.1 -13.67,-16.32 -1.43,-4.38 -7.15,-10.37 -10.42,-14.9 -3.23,-4.48 -6.69,-10.56 -10.29,-13.97 -2.52,-5.37 -5.47,-8.64 -8.65,-13.81 -0.56,-0.92 -0.65,-1.28 -1.45,-2.28 -1.02,-1.3 -0.64,-1.01 -1.42,-1.32 -2.08,-5.19 -6.35,-11.72 -9.2,-16.68 -1.63,-2.82 -3.01,-5.13 -4.39,-7.98 -1.25,-2.6 -2.85,-7.01 -4.42,-7.72l-11.87 -30.47c-1.86,-9.06 -4.18,-17.12 -4.32,-26.98l0.99 -13.65 1.25 -12.15 6.31 -19.91c1.09,-3.72 3.06,-6.93 3.18,-10.39 2.13,-1.81 7.25,-10.78 9.1,-13.54 3.43,-4.98 7.65,-7.76 11.1,-11.89l0.69 -0.88c2.21,-0.79 10.62,-5.37 11.91,-7.02 9.95,-3.06 16.28,-6.38 28.09,-8.28l15.08 -0.76zm192.04 -146.89c-18.82,-1.76 -39.36,-1.29 -58.09,-0.09l-12.82 1.04 -19.27 2.42c-3.74,0.79 -8.94,0.84 -11.42,2.7 -3.61,-0.26 -6.28,0.29 -9.85,1.31l-11.75 3.31c-3.82,-0.49 -15.82,2.49 -18.39,4.93 -3.66,-0.1 -5.92,0.82 -9.15,2.06 -2.21,0.58 -3.77,1.07 -5.94,1.79l-4.72 2.25c-0.14,0.1 -0.42,0.3 -0.61,0.48 -2.51,-0.03 -2.67,0.16 -5.18,1 -2.9,0.97 -3.27,0.96 -5.24,2.81 -3.12,0.08 -13.29,3.92 -16.24,6.66 -2.93,0.07 -2.75,0.38 -5.47,1.65 -0.42,0.19 -2.31,1.11 -2.6,1.3 -2.42,1.5 -0.81,0.19 -2.35,1.84 -4.28,0.12 -11.52,4.51 -15.49,7.06 -1.93,0.85 -3.11,1.59 -4.97,2.54 -2.89,1.48 -3.16,1.11 -5.24,3.77 -2.72,0.28 -21.81,11.98 -24.4,14.36 -1.09,1.01 -0.75,0.68 -1.62,1.73 -3.08,0.56 -6.15,3.27 -8.21,5.87 -2.13,0.37 -0.44,-0.17 -2.48,0.93l-8.19 6.08c-3.75,2.98 -7.77,5.5 -10.34,9.17 -2.66,0.47 -0.48,-0.37 -2.83,1.44 -0.96,0.74 -1.83,1.68 -3.06,2.66 -2.92,2.32 -3.15,2.14 -5.12,5.6 -2.37,0.77 -1.69,0.54 -3.98,2.43 -1.38,1.15 -2.25,1.97 -3.57,3.13 -2.76,2.44 -4.77,4.27 -6.73,7.83 -4.32,2.04 -8.92,6.87 -10.95,11.19 -1.14,0.53 -0.29,-0.14 -1.92,1.4 -0.84,0.78 -0.98,1.1 -1.79,1.95 -2.77,2.94 -2.58,1.61 -3.91,5.23 -3.18,1.36 -10.89,12.21 -12.26,14.81 -1.57,0.51 -1.7,1.14 -3.33,3.26 -1.28,1.67 -2.52,3.31 -3.52,5.44 -2.74,2.48 -4.79,5.71 -6.78,9.6l-2.75 3.37c-1.41,2.09 -1.75,2.72 -3,4.69 -2.31,3.64 -3.9,5.43 -5.58,9.83 -2.47,0.93 -8.01,12.46 -9.5,16.54 -3.85,3.96 -7.31,12.76 -9.23,18.69l-5.02 11.43 -7.36 19.04 -7.73 24.76 -5.6 23.81 -2.08 11.43 -2.94 22.69c-0.86,6.97 -1.28,15.16 -1.49,22.17 -0.19,6.86 -1.92,19.63 0.92,24.88 -1.32,4.18 -0.99,14.51 1.04,17.7 -1.08,5.94 0.7,12.45 1.25,18.26l3.67 20.36c0.93,5.07 1.62,13.94 4.69,17.26 -0.2,6.02 3.09,14.52 5.24,20.6 1.02,3.29 1.97,6.18 3.03,9.28 0.46,1.35 0.98,2.9 1.48,4.2 1.11,2.88 0.61,2.5 2.54,4.49 -0.01,3.49 1.19,5.2 2.57,8.52 0.58,1.37 1.04,2.77 1.66,4.04 1.2,2.46 0.88,2.01 2.47,3.57 0.12,4.7 10.86,25.12 13.63,28.87 2.07,4.48 2.99,3.08 2.1,9.06 -0.54,3.61 -1.51,7.01 -2.04,10.97l-2.53 13.05 -3.33 16.51 -2.27 12.05 -2.02 10.48 -3.78 19.04 -1.87 9.53 -5.54 28.57 -4.17 20.95 -6.07 30.19 50.86 -9.36 40.95 -7.61 60.42 -11.17 21.48 -4.07c11.43,-1.32 6.3,-0.23 15.22,2.85 7.93,8.16 65.15,27.22 80.4,31.17 65.1,16.86 135.22,17.11 200.38,0.19 12.87,-3.34 77.07,-24.02 81.09,-31.18 9.08,-3.12 49.95,-28.01 52.38,-32.56 5.08,-2.62 23.37,-16.99 26.12,-20.46 4.96,-4.65 16.49,-13.61 18.93,-18.81 3.5,-1.95 25.64,-24.45 26.81,-30.36 3.2,-2.2 7.82,-8.77 10.59,-12.52 0.56,-0.75 1.01,-1.27 1.56,-2.26 1.64,-2.94 0.79,-0.8 1.24,-3.19 2.92,-1.8 7.45,-9.56 9.78,-13.41 2.6,-4.29 7.75,-10.58 8.29,-15.46 3.81,-2.84 16.62,-29.97 18.68,-36.55 2.33,-4.49 9.26,-21.47 9.08,-25.93 3.64,-4.06 4.86,-13.02 6.36,-18.64 1.83,-6.84 3.7,-13.75 4.97,-20.92l4.5 -26.42c0.37,-3.86 1.06,-6.32 0.36,-10.33 1.59,-2.46 1.65,-7.91 0.92,-11.49 1.28,-1.98 1.04,-4.11 1.16,-7.33 0.1,-2.87 0.12,-5.74 0.19,-8.62 0.15,-6.01 -0.05,-11.59 -0.04,-17.57l-1.49 -23.06 -2.98 -22.86 -5.2 -25.08 -5.77 -20.95 -7.06 -20.76 -4.31 -10.66 -5.45 -12.38 -8.45 -17.14c-1.4,-4.54 -7.78,-16.28 -10.53,-18.88 -1.65,-3.79 -7.86,-14.57 -10.75,-16.35 -1.48,-3.34 -3.66,-7.84 -6.72,-9.53 -1.55,-3.06 -4.58,-8.63 -7.59,-9.84 -0.97,-2.76 -3.83,-6.01 -5.66,-8.19l-6.18 -6.61c-2.33,-3.49 -6.77,-9.68 -10.3,-10.86 -2.01,-3.68 -12.69,-14.65 -16.37,-16.75 -1.65,-3.09 -2.52,-3.34 -5.4,-5.61 -2.33,-1.84 -3.71,-3.35 -6.01,-5.27l-10.01 -8.13c-2.03,-1.15 0.72,-0.13 -1.67,-0.75l-15.06 -12.07c-2.92,-2.35 -6.23,-4.71 -9.97,-6.61 -1.35,-1.23 -3.11,-2.46 -5.27,-3.91l-18.93 -11.44c-2.4,-1.61 -5.93,-3.86 -8.8,-4.12 -2.55,-3.01 -14.52,-8.6 -17.08,-8.6 -1.09,-1.14 0.43,-0.21 -2.4,-1.91 -0.5,-0.31 -2.15,-1.03 -2.67,-1.25 -1.81,-0.77 -3.29,-1.41 -5.32,-2.28 -4.17,-2.03 -11.68,-5.98 -16.33,-5.98 -1.18,-1.03 0.49,0.03 -1.94,-1.34 -0.7,-0.39 -2.47,-1.18 -2.68,-1.26 -3.43,-1.3 -2.22,-1.11 -5.5,-1.07 -2.24,-2.34 -7.69,-3.86 -11.3,-3.83 -2.1,-2.02 -6.78,-3.36 -9.83,-3.04l-4.34 -2.02c-3.3,-1.05 -10.99,-3.14 -13.7,-2.76 -1.02,-0.68 0.43,-0.11 -2.21,-1.15 -0.93,-0.36 -2.04,-0.66 -3.09,-0.91 -2.21,-0.53 -3.98,-0.83 -6.28,-1.37 -3.81,-0.78 -6.12,-1.54 -10.08,-1.16 -2.43,-1.85 -7.86,-2.34 -11.42,-1.9 -2.87,-2.11 -13.64,-3.36 -17.26,-2.15l-6.45 -1.52c-2.46,-0.22 -5.01,-0.38 -7.48,-0.5z"/>
  <path class="fil1" d="M308.83 606.14l2.54 -19.58 1.8 -9.86 4.82 -20.53 6.67 -21.36 6.35 -16.43 4.33 -9.86c1.65,-5.11 4.64,-12.7 7.96,-16.12 1.29,-3.52 6.07,-13.47 8.19,-14.27 1.45,-3.8 2.83,-5.34 4.82,-8.48 1.08,-1.7 1.37,-2.25 2.59,-4.04l2.37 -2.91c1.72,-3.36 3.49,-6.14 5.85,-8.28 0.86,-1.84 1.93,-3.25 3.03,-4.69 1.41,-1.84 1.52,-2.38 2.88,-2.82 1.18,-2.24 7.83,-11.6 10.57,-12.78 1.15,-3.12 0.99,-1.97 3.38,-4.51 0.69,-0.73 0.82,-1 1.54,-1.68 1.41,-1.33 0.68,-0.75 1.65,-1.2 1.76,-3.73 5.73,-7.9 9.45,-9.65 1.7,-3.08 3.43,-4.66 5.81,-6.76 1.14,-1.01 1.89,-1.71 3.08,-2.7 1.97,-1.63 1.39,-1.44 3.43,-2.09 1.7,-2.99 1.9,-2.84 4.42,-4.84 1.06,-0.84 1.81,-1.66 2.64,-2.3 2.03,-1.55 0.15,-0.83 2.44,-1.23 2.22,-3.17 5.69,-5.34 8.92,-7.91l7.06 -5.25c1.76,-0.95 0.3,-0.49 2.14,-0.81 1.78,-2.23 4.43,-4.58 7.08,-5.05 0.75,-0.91 0.46,-0.63 1.4,-1.5 2.24,-2.05 18.7,-12.15 21.05,-12.39 1.8,-2.29 2.03,-1.98 4.52,-3.25 1.6,-0.82 2.63,-1.45 4.29,-2.19 3.43,-2.2 9.67,-5.99 13.36,-6.09 1.33,-1.42 -0.06,-0.3 2.02,-1.59 0.26,-0.16 1.89,-0.95 2.25,-1.12 2.35,-1.09 2.19,-1.36 4.72,-1.42 2.55,-2.37 11.31,-5.67 14.01,-5.75 1.7,-1.59 2.01,-1.58 4.52,-2.42 2.16,-0.72 2.3,-0.89 4.47,-0.87 0.16,-0.15 0.4,-0.32 0.52,-0.4l4.08 -1.95c1.87,-0.62 3.21,-1.04 5.12,-1.54 2.79,-1.07 4.73,-1.86 7.89,-1.78 2.21,-2.1 12.57,-4.68 15.86,-4.26l10.14 -2.85c3.08,-0.88 5.38,-1.35 8.5,-1.13 2.13,-1.6 6.62,-1.65 9.85,-2.33l16.62 -2.08 11.06 -0.9c16.16,-1.04 33.87,-1.44 50.11,0.07 2.13,0.11 4.33,0.25 6.46,0.44l5.56 1.31c3.12,-1.04 12.41,0.03 14.88,1.85 3.07,-0.37 7.76,0.05 9.86,1.64 3.41,-0.33 5.4,0.33 8.69,1.01 1.98,0.46 3.51,0.72 5.42,1.18 0.91,0.21 1.86,0.47 2.66,0.78 2.28,0.89 1.03,0.4 1.92,0.99 2.33,-0.33 8.96,1.48 11.81,2.38l3.74 1.75c2.64,-0.28 6.67,0.88 8.48,2.61 3.12,-0.02 7.82,1.29 9.75,3.31 2.83,-0.03 1.79,-0.2 4.75,0.93 0.18,0.07 1.71,0.75 2.3,1.09 2.1,1.18 0.66,0.26 1.68,1.15 4.01,0 10.49,3.41 14.09,5.16 1.75,0.75 3.03,1.3 4.59,1.97 0.44,0.19 1.87,0.81 2.3,1.07 2.44,1.47 1.13,0.67 2.07,1.65 2.21,0 12.54,4.82 14.74,7.42 2.47,0.22 5.51,2.16 7.58,3.55l16.34 9.87c1.86,1.25 3.38,2.31 4.54,3.37 3.23,1.64 6.09,3.68 8.6,5.71l12.99 10.41c2.06,0.53 -0.31,-0.35 1.44,0.64l8.64 7.02c1.98,1.65 3.17,2.95 5.18,4.54 2.49,1.96 3.24,2.18 4.66,4.84 3.17,1.82 12.39,11.28 14.12,14.45 3.05,1.02 6.88,6.36 8.88,9.37l5.34 5.7c1.58,1.88 4.04,4.68 4.88,7.06 2.6,1.05 5.21,5.86 6.55,8.5 2.63,1.45 4.52,5.33 5.79,8.21 2.5,1.54 7.85,10.84 9.28,14.11 2.37,2.24 7.88,12.37 9.08,16.29l7.29 14.78 4.7 10.68 3.72 9.19 6.09 17.92 4.98 18.07 4.49 21.64 2.56 19.71 1.29 19.9c-0.01,5.15 0.16,9.96 0.03,15.15 -0.06,2.48 -0.08,4.96 -0.17,7.43 -0.09,2.78 0.11,4.62 -0.99,6.33 0.63,3.09 0.58,7.79 -0.8,9.91 0.61,3.46 0.01,5.58 -0.31,8.91l-3.88 22.79c-1.1,6.18 -2.71,12.15 -4.28,18.04 -1.3,4.86 -2.35,12.58 -5.49,16.08 0.15,3.86 -5.83,18.5 -7.84,22.37 -1.77,5.69 -12.83,29.09 -16.11,31.54 -0.47,4.2 -4.91,9.63 -7.15,13.33 -2.01,3.32 -5.91,10.02 -8.43,11.57 -0.39,2.06 0.34,0.22 -1.08,2.75 -0.47,0.85 -0.86,1.3 -1.34,1.95 -2.39,3.23 -6.38,8.9 -9.14,10.8 -1,5.1 -20.1,24.51 -23.12,26.19 -2.11,4.49 -12.05,12.21 -16.33,16.23 -2.37,2.99 -18.16,15.38 -22.54,17.65 -2.09,3.92 -37.35,25.39 -45.18,28.08 -3.47,6.18 -58.84,24.02 -69.95,26.9 -56.21,14.59 -116.69,14.38 -172.85,-0.17 -13.16,-3.4 -62.52,-19.84 -69.36,-26.88 -7.69,-2.66 -3.27,-3.6 -13.13,-2.46l-18.53 3.51 -52.12 9.63 -35.32 6.57 -43.87 8.08 5.24 -26.05 3.59 -18.08 4.77 -24.64 1.62 -8.21 3.26 -16.43 1.74 -9.04 1.96 -10.4 2.87 -14.24 2.18 -11.26c0.46,-3.41 1.3,-6.34 1.76,-9.46 0.77,-5.16 -0.02,-3.95 -1.8,-7.81 -2.4,-3.24 -11.66,-20.86 -11.76,-24.91 -1.38,-1.35 -1.09,-0.96 -2.13,-3.08 -0.54,-1.09 -0.94,-2.3 -1.43,-3.48 -1.2,-2.87 -2.23,-4.35 -2.22,-7.36 -1.66,-1.71 -1.24,-1.38 -2.19,-3.86 -0.43,-1.13 -0.88,-2.46 -1.28,-3.63 -0.91,-2.67 -1.73,-5.16 -2.61,-8 -1.86,-5.25 -4.7,-12.58 -4.52,-17.77 -2.65,-2.87 -3.25,-10.52 -4.05,-14.9l-3.16 -17.56c-0.48,-5.01 -2.02,-10.63 -1.08,-15.75 -1.76,-2.75 -2.04,-11.66 -0.9,-15.27 -2.45,-4.52 -0.96,-15.55 -0.79,-21.46 0.17,-6.05 0.54,-13.11 1.28,-19.12zm-53.27 30.53c0,32.4 5.39,67.23 14.19,96.69 4.27,14.29 9.08,27.88 14.81,41.07 10.83,24.96 10.87,11.6 5.24,41.04l-36.25 184.65c5.2,0.49 182.29,-33.46 192.89,-35.39 26.58,-4.83 13.1,-5.25 43.47,6.87 13.45,5.36 28.3,10.53 43.06,14.43 121.86,32.19 251.91,7.86 348.99,-70.43l42.31 -39c2,-2.23 3.24,-4.15 5.25,-6.28 54.75,-58.2 90.19,-149.28 90.19,-232 0,-59.63 -12.32,-109.34 -35.35,-157.03 -24.3,-50.33 -60.74,-93.97 -104.13,-128.39 -8.38,-6.65 -17.44,-12.73 -26.78,-19.23 -57.43,-40.04 -140.95,-63.8 -214.28,-63.8 -209.08,0 -383.61,158.77 -383.61,366.8z"/>
 </g>
</svg>
