<?xml version="1.0" encoding="UTF-8"?>
<!DOCTYPE svg PUBLIC "-//W3C//DTD SVG 1.1//EN" "http://www.w3.org/Graphics/SVG/1.1/DTD/svg11.dtd">
<!-- Creator: CorelDRAW 2019 (64-Bit) -->
<svg xmlns="http://www.w3.org/2000/svg" xml:space="preserve" width="100%" height="100%" version="1.1" style="shape-rendering:geometricPrecision; text-rendering:geometricPrecision; image-rendering:optimizeQuality; fill-rule:evenodd; clip-rule:evenodd"
viewBox="0 0 969.98 719.68"
 xmlns:xlink="http://www.w3.org/1999/xlink">
 <defs>
  <style type="text/css">
   <![CDATA[
    .fil0 {fill:white}
   ]]>
  </style>
 </defs>
 <g id="Layer_x0020_1">
  <metadata id="CorelCorpID_0Corel-Layer"/>
  <path class="fil0" d="M499.77 611.36c1.38,-41.45 7.08,-53.5 -36.93,-52.99 -81.75,0.96 -155.57,9.46 -221,-38.6 -62.95,-46.24 -109.03,-144.76 -60.82,-246.4 81.71,-172.23 290.85,-86.78 315.1,-119.51 5.93,-7.99 5,-29.79 3.7,-40.79 -3.95,-33.58 -46.81,-21.64 -72.27,-54.97 -17.82,-23.33 -14.97,-35.83 -19.38,-46.45 -2.98,-7.18 -0.21,-1.6 -3.88,-6.09l-5.39 -5.56c-19,2.28 -40.91,0 -60.78,0.2 -54.17,0.55 4.71,48 -90.09,86.24 -34.27,13.82 -57.89,20.19 -91.48,-1.66 -25.43,-16.54 -30.58,4.06 -67.29,38.26 -18.13,16.89 -9.53,22.52 -0.11,38.88 25.54,44.32 -6.25,108.8 -28.1,128.14 -9.65,8.54 -22,15.64 -39.11,19.73 -23.59,5.64 -21.38,11.59 -21.23,37.79 0.08,14.62 -3.35,45.1 4.23,54.84 13.97,17.93 57.55,-6.85 89.71,88.61 17.51,51.98 -19.03,74.69 -14.83,92.69 1.28,5.46 47.48,56.79 60.65,57.24 14.59,0.5 42.7,-34.22 91.95,-13.98 33.69,13.85 53.5,20.37 69.12,47.97 24.57,43.45 -12.9,44.09 73.36,44.72 54.48,0.4 17.64,-18.36 56.5,-61.55 26.2,-29.12 53.43,-16.61 68.37,-46.76zm389.53 -414.08c44.16,-15.7 59.26,51.34 20.7,62.63 -41.02,12.01 -61.49,-48.13 -20.7,-62.63zm-55.25 5.02c-137.65,3.17 -109.15,-18.71 -173.48,45.1 -56.95,56.49 -26.62,42.42 -178.22,42.42 -24.42,0 -48.85,0.01 -73.27,0 -25.71,-0.01 -47.58,-6.55 -48.2,23.65 -0.69,33.45 15.59,28.06 45.76,28.02 48.33,-0.07 191.81,3.16 219.88,-0.58 20.32,-2.71 33.5,-20.24 43.59,-30.27 54.63,-54.3 43.45,-56.6 90.67,-56.52 23.71,0.05 49.91,-1.06 73.27,0.47 11.76,15.18 12.86,22.49 28.44,32.8 41.93,27.79 105.93,-0.08 107.46,-57.26 0.95,-35.62 -25.15,-63.16 -53.57,-69.83 -20.2,-4.74 -39.61,0.08 -53.41,8.53 -18.11,11.08 -21.98,25.37 -28.92,33.47zm-131.16 211.24c-4.91,-44.71 62.78,-48.71 65.51,-7.22 2.94,44.64 -61.25,45.9 -65.51,7.22zm-32.78 -30.06l-290.49 0.08c-15.47,1.48 -18.72,9.52 -18.74,25.18 -0.04,34.87 25.05,26.36 55.53,26.36l254.84 0.02c9.24,25.14 37.16,49.81 76.27,43.1 31.04,-5.32 57.04,-32.24 57.99,-67.07 1.79,-65.71 -89.1,-109.9 -135.4,-27.67zm-34.27 -305.75c42.38,-8.86 52.36,55.47 14.36,64.16 -45.91,10.51 -56.49,-55.34 -14.36,-64.16zm-54.87 70.69c-7.76,3.93 -30.78,31.77 -39.76,40.68 -13.2,13.08 -51.83,7.13 -73.51,7.13 -26.88,0 -53.92,-0.31 -80.77,-0.11 -36.71,0.27 -28.84,40.37 -18.56,48.04 9.68,7.22 137.87,3.78 160.43,3.74 36.57,-0.07 36.83,-10.12 53.47,-27.53l41.74 -42.5c80.78,13.73 115.71,-77.1 60.72,-122.99 -39.07,-32.61 -100.79,-8.13 -111.11,39.49 -5.86,27.07 2.72,33.18 7.35,54.05zm45.13 422.73c43.47,-9.74 52.6,55.76 14.34,64.22 -42.15,9.32 -58.89,-54.23 -14.34,-64.22zm-77.33 -27.11l7.23 5.81c3.33,3.29 4.77,4.78 7.25,7.55 19.74,21.91 -7.83,18.53 1,60.21 18.07,85.3 145.7,66.23 137.98,-20.95 -1.83,-20.68 -11.02,-26.86 -13.97,-38.32 -23.62,-12.93 -18.97,-29.25 -77.11,-22.55 -4.56,-7.65 -9.63,-13.09 -16.31,-19.8 -23.64,-23.75 -23.5,-39.13 -66.04,-38.97 -47.25,0.17 -94.66,-0.45 -141.87,-0.07 -34.76,0.28 -27.5,32.89 -23.89,41.19 7.05,16.24 41.08,10.55 60.69,10.55 23.61,0 47.22,0.01 70.83,0 27.7,0 45.68,-5.42 54.21,15.35z"/>
 </g>
</svg>
