<?xml version="1.0" encoding="UTF-8"?>
<!DOCTYPE svg PUBLIC "-//W3C//DTD SVG 1.1//EN" "http://www.w3.org/Graphics/SVG/1.1/DTD/svg11.dtd">
<!-- Creator: CorelDRAW 2019 (64-Bit) -->
<svg xmlns="http://www.w3.org/2000/svg" xml:space="preserve" width="100%" height="100%" version="1.1" style="shape-rendering:geometricPrecision; text-rendering:geometricPrecision; image-rendering:optimizeQuality; fill-rule:evenodd; clip-rule:evenodd"
viewBox="0 0 527.58 719.68"
 xmlns:xlink="http://www.w3.org/1999/xlink">
 <defs>
  <style type="text/css">
   <![CDATA[
    .fil0 {fill:white}
   ]]>
  </style>
 </defs>
 <g id="Layer_x0020_1">
  <metadata id="CorelCorpID_0Corel-Layer"/>
  <path class="fil0" d="M78.71 231.86c0.01,-1.79 -0.03,-3.56 0.23,-5.33 0.55,-3.83 -0.11,-1.72 1.03,-3.12 -0.86,-5.47 0.06,-6.91 0.51,-11.88 0.64,-3.64 0.7,-9.85 3.03,-11.98 -0.46,-4.11 1.34,-11.15 3.35,-14.53 0.82,-3.58 0.22,-4.47 2.84,-6.68 -0.24,-4.17 0.62,-4.68 2.24,-8.34 1.59,-3.84 2.96,-8.77 5.74,-11.04 0.21,-3.45 0.87,-2.97 2.56,-6.27 1.31,-2.54 1.07,-2.98 3.1,-4.78 0.74,-2.59 0.13,-1.81 2.29,-3.09 1.07,-5.63 18.03,-25.65 19.67,-26.96l3.8 -3.47c3.94,-5.01 20.15,-19.3 27.1,-22.38 0.08,-0.07 0.55,-0.6 1.36,-1.23 2.74,-2.12 8.35,-5.83 11.68,-6.03 3.56,-4.56 20.59,-10.53 26.95,-12.81 3.92,-1.61 8.6,-3.37 12.82,-3.1 1.68,-1.73 0.51,-0.77 3.67,-1.65 1.24,-0.35 2.38,-0.56 3.63,-0.84 2.63,-0.6 4.8,-1.04 7.27,-1.45 6.24,-0.36 12.22,-2.45 18.95,-1.39 1.37,-1.42 0.76,-0.86 3.95,-0.92 1.77,-0.04 3.58,-0.02 5.38,-0.05 2.32,-0.04 8.53,-0.72 9.33,0.97 8.88,-1.81 21.01,1.69 29.55,3.16 3.58,1.17 8.84,1.34 11.11,3.91 4.61,-0.43 10.62,2.45 14.52,4.01 2.88,1.2 5.85,1.82 7.5,3.97 2.43,0.12 4.16,0.25 5.76,2.41 4.58,1.54 10.27,3.91 12.8,7.31 2.35,0.47 0.26,-0.19 2.19,0.51 0.43,0.16 1.43,0.65 1.81,0.89 2.08,1.33 1.01,0.59 1.76,1.92 2.72,1.05 5.95,2.95 7.5,5.57 1.97,0.51 1.5,0.14 3.61,1.66 1.24,0.88 1.81,1.57 2.89,2.43 2.31,1.84 3.9,2.95 5.44,5.11 1.98,1.37 4.75,4.02 6.65,5.69 2.17,1.89 3.83,4.08 5.03,6.25l1.63 1.32c3.37,2.36 9.17,9.55 11.27,13.48 2.25,2.21 1.48,1.4 2.59,4.19 1.76,0.91 2.11,2.07 3.44,3.85 2.04,2.7 1.98,2.84 2.45,5.44 3.09,2.33 5.06,6.84 6.48,11.03 2,1.45 1.64,1.59 1.55,3.93 2.44,2.06 3.7,5.85 4.6,9.33 2.22,1.82 5.32,11.9 5.12,15.41 2.33,2.17 2.77,7.68 3.92,11.1l-0.38 3.04c1.84,1.71 1.5,2.16 1.97,5.09 0.4,2.44 0.55,3.68 1.06,6.01 0.24,5.75 1.5,8.4 0.5,14.53 1.78,2.19 1.87,19.03 0,21.32l0.38 5.69c-0.41,2.33 -0.47,3.21 -0.71,5.36 -0.15,1.29 -0.12,1.96 -0.51,3.28 -0.76,2.61 0.34,0.11 -0.92,1.58 0.8,6.47 -4.3,23.75 -6.67,29.55l-4.38 10.6c-0.5,3.47 -2.36,6.26 -3.57,8.84l-3.5 6.18c-1.54,4.89 -5.42,10.03 -8.13,13.96 -2.95,4.26 -5.58,9.42 -9.49,12.56 -1.87,2.88 -2.88,4.76 -5.36,6.24 -1.47,2.7 -6.91,8.93 -10.17,10.03l-3.96 4.04c-0.28,1.05 0.05,0.36 -1.07,1.6 -0.38,0.42 -1.31,1.27 -1.8,1.69 -1.85,1.61 -2.28,1.85 -4.15,2.91l-5.36 4.6c-6.37,4.37 -18.94,13.5 -26.51,15.72l-13.25 5.93c-2.58,1.61 -0.36,0.62 -3.11,0.67 -1.6,1.89 -1.19,1.31 -4.02,2.24 -1.73,0.57 -3.43,1.08 -5.25,1.74 -4.52,1.65 -9.63,3.59 -14.53,3.12 -2.49,2.38 -8.9,2.34 -12.87,3.03 -5.08,0.46 -7.37,1.36 -12.75,0.51 -0.74,0.6 0.6,0.74 -4.83,1.07 -1.99,0.12 -4.21,0.17 -6.28,0.2 -2.73,0.04 -8.95,0.48 -11.1,-1.27l-5.69 0.38c-2.81,-0.37 -4.9,-0.68 -7.82,-1.04 -1.09,-0.14 -3.06,-0.36 -3.88,-0.52 -3.21,-0.63 -2.07,0.17 -3.82,-1.47 -3.73,0.35 -9.67,-0.75 -12.76,-2.47 -5.64,-0.94 -21.74,-5.63 -24.29,-9.05 -3.61,-0.14 -4.53,-1.24 -7.77,-2.82 -2.22,-1.09 -5.54,-2.29 -6.82,-4.01 -3.15,-1.14 -4.11,-1.2 -5.8,-3.75 -3.19,-0.22 -1.34,0.35 -4.52,-1.67 -1.65,-1.04 -2.64,-1.77 -3.82,-3.13 -2.27,-1.12 -3.58,-2.04 -5.45,-3.4 -0.82,-0.6 -1.45,-1.03 -2.52,-1.9 -1.97,-1.57 -1.34,-0.76 -2.69,-2.71l-1.71 -0.7c-2.53,-2.13 -4.05,-3.99 -6.42,-6.1 -4.83,-4.29 -15.7,-14.39 -18.38,-19.71 -2.36,-1.95 -1.26,-0.48 -2.08,-3.11 -2.71,-1.44 -6.18,-6.93 -7.64,-10.15 -1.32,-1.15 -1.85,-1.88 -2.75,-3.31 -1.5,-2.38 -1.58,-2.77 -2.03,-5.1 -2.21,-1.64 -2.8,-3.53 -4.19,-5.73 -2.17,-3.34 -5.4,-10.26 -5.53,-13.71 -3.72,-2.85 -7.64,-19 -9.05,-25.17 -1.54,-3.46 -3.01,-10.37 -2.47,-14.53 -1.81,-1.9 -1.1,-1.45 -1.53,-4.69 -0.21,-1.57 -0.39,-3.59 -0.61,-5.53l-0.89 -22.09zm184.19 -220.52c-1.43,1.85 0,0.94 -3.08,2.01 -1.19,2.18 -1.89,1.95 -4.1,3.09 -3.15,1.61 -2.73,1.82 -6.08,1.97 -2.72,3.47 -9.15,4.4 -13.68,5.52 -9.79,5.42 -31.35,2.9 -42.43,1.96 -3.61,-1.18 -9.66,-1.41 -11.98,-3.91 -4.12,0.3 -7.52,-1.38 -11.88,-2.28 -2.19,-0.7 -2.13,-0.44 -4.45,-0.83 -1,-0.16 -1.3,-0.14 -2.35,-0.45 -2.82,-0.81 -0.07,0.49 -1.65,-0.86 -4.05,0.69 -15.78,2.8 -18.44,2.65 -1.5,1.78 -10.89,6.44 -13.36,7.97 -2.25,1.4 -4.32,2.8 -6.22,4.35 -2.46,2.02 -3.07,3.26 -5.72,4.91l-2.54 2.65c-1.15,2.33 -5.01,9.69 -6.68,11.1 0.41,5.87 -5.3,23.04 -7.55,28.67 -1.6,3.44 -3.61,9.56 -6.62,11.92 -0.47,2.35 0.17,0.25 -0.51,2.18 -0.15,0.42 -0.65,1.49 -0.87,1.84 -1.82,2.97 0.01,0.83 -1.91,1.74 -1.11,3.17 -3.13,5.79 -5.08,7.95 -1.09,2.01 -2.64,4.08 -3.98,5.78 -0.78,1.01 -1.3,1.72 -2,2.47 -1.83,1.98 -0.66,1.13 -1.98,1.47 -1.72,3.29 -0.2,1.6 -2.67,3.47 -2.33,3.39 -7.46,8.57 -11.46,10.67 -1.49,1.35 -1.77,1.62 -3.7,2.67 -1.66,2.16 -6.97,4.68 -9.56,6.14 -3.85,1.98 -8.39,3.84 -12.37,6.18l-3.48 1.8c-0.63,0.78 -0.43,0.53 -1.4,1.37 -7.69,6.68 -5.21,7.44 -8.85,9.67 0.05,2.3 1.05,1.44 -0.67,2.22 -1.09,3.4 -2.29,8.94 -4.6,11.1 0.29,5.27 -2.91,13.65 -3.12,20.69 -0.23,8.09 2.99,14.29 3.09,19.91 2.38,1.86 14.79,23.08 16.12,26.94 2.24,1.65 2.57,3.74 2.47,6.58 1.96,1.78 2.08,3.83 3.03,6.68 1,4.85 2.15,7.51 1.39,12.76 1.85,2.28 2.29,14.08 0,16.9 0.7,4.83 -0.44,8.18 -1.39,12.76 -1.04,3.12 -0.96,5.68 -3.03,7.57l-0.51 4.8c-0.75,2.21 -1.25,3.76 -1.8,6.03 -0.67,2.77 -0.46,4.23 -2.11,5.96l0 15.79c1.75,1.84 0.71,0.71 1.62,3.76 0.56,1.86 0.83,3 1.44,4.7 1.23,3 1.24,2.79 1.33,5.75 2.34,1.83 3.54,5.49 4.63,8.38 1.06,0.77 4.96,7.22 6.18,9.03 2.88,4.27 4.46,5.23 7.52,8.45 5.86,6.17 10.82,8.76 21.02,10.87 3.34,1.07 8.97,0.74 11.11,3.02 3.95,-0.51 14.29,1.74 16.29,4.24 3,1.02 4.86,1.46 6.62,3.8 3.51,0.62 4.32,1.12 6.63,3.84 3.58,1.79 4.7,2.65 6.62,5.88 2.86,0.96 6.88,4.89 7.89,7.89 2.95,1.75 5.96,5.73 7.36,9.26 2.14,1.54 4.07,5.43 4.65,8.84l2.39 5.3c1.11,1.82 1.93,3.84 2.99,6.02 1.46,3.01 2.31,3.33 2.93,6.81 2.66,1.4 2.62,1.86 3.99,3.99 4.12,2.75 6.67,5.17 12.43,8.04 2.57,1.28 4.97,2.56 7.17,3.39 2.11,0.8 5.54,1.38 6.98,2.94 2.55,0.58 4.89,1.19 7.43,1.98 0.87,0.26 2.33,0.59 3.42,0.99 3.34,1.23 1.2,-0.2 2.9,1.63 5.61,-0.49 13.37,2.3 20.71,2.32 4.08,0.01 6.64,-0.15 10.43,-1.13 3.9,-1 5.22,-2.46 8.59,-2.93 0.94,-1.54 4.02,-3.85 5.6,-5.05 2.59,-1.97 3.71,-3.38 6.15,-5.33 3.94,-3.15 8.64,-6.52 14.3,-8.42 3.13,-4.12 25.32,-7.28 32.7,-7.3 7.37,-0.02 11.84,0.16 18.48,1.88 2.84,0.74 13.84,4.08 15.11,5.45 2.36,0.59 4.27,1.26 6.73,1.79 1.3,0.29 2.55,0.39 3.87,0.71 3.43,0.81 1.6,-0.12 3.15,1.22 4.18,-0.69 8.29,-1.4 12.26,-0.88 2.18,-2.34 9.33,-4.04 12.89,-5.83 4.83,-2.42 8.24,-5.13 12.34,-6.76l10.18 -7.66 4.05 -4.87c1.23,-2.01 2.64,-4.11 4.15,-6.25l5.93 -11.1c-0.44,-4.01 4.59,-26.55 6.89,-28.67 1.01,-3.88 2.69,-8.87 5.56,-11.04 0.46,-2.49 -0.01,-1.43 1.44,-3.78 0.82,-1.33 1.37,-2.08 2.53,-3.49 1.39,-2.46 4.99,-7.06 7,-8.26l7.3 -6.85c3.7,-4.11 19.2,-12.56 26.28,-14.96 0.76,-1.39 6.31,-4.92 7.9,-5.53l4.47 -4.47c0.87,-1.55 5.07,-7.83 6.42,-8.79 1.51,-4.5 3.64,-8.52 5.08,-13.15 1.17,-3.74 1.6,-10.49 3.97,-12.97l0.88 -18.45c-1.46,-1.68 -0.33,0.15 -1.27,-3.11 -0.47,-1.61 -0.3,-1.83 -0.9,-3.57l-0.92 -3.53 -5.08 -9.72c-1.87,-1.02 -7.17,-9.52 -8.61,-11.89 -2.21,-3.65 -6.44,-10.36 -6.2,-15.01 -2.7,-2.46 -3.38,-8.72 -3.91,-12.87 -0.68,-7.44 -1.09,-13.36 -0.98,-21.21 0.11,-8.03 1.24,-12.98 1.87,-20.33 1.01,-3.16 0.81,-8.2 3.02,-10.22 -0.69,-5.3 1.3,-9.62 1.39,-15.4l0 -8.84c-0.29,-6.82 -3.9,-12.59 -4.01,-18.13 -2.19,-1.72 -2.79,-4.06 -3.75,-6.61l-3.27 -5.76c-1.87,-1 -8.79,-7.92 -9.79,-9.79 -2.18,-0.44 -4.22,-1.16 -5.75,-3.27 -2.55,-0.87 -5.95,-1.91 -7.5,-3.75 -4.4,0.2 -8.55,-1.93 -12.83,-3.13 -6.63,-2.21 -22.52,-5.61 -26.06,-10.12 -4.5,-0.22 -8.76,-3.85 -12.28,-6.32 -4.14,-2.89 -6.96,-5.4 -10.05,-8.45 -3.65,-3.61 -13.37,-14.79 -15.2,-21.06l-3.31 -6.12c-1.56,-1.18 -4.54,-6.97 -5.4,-9.07 -4.25,-4.19 -5.02,-6.66 -9.65,-10.6 -2.57,-2.19 -9.86,-6.33 -11.33,-8.17 -11.36,-0.35 -29.77,-14.8 -58.72,2.19 -1.22,0.71 -1.71,1.24 -3.27,1.99 -2.9,1.38 -1.13,0.65 -3.36,1.09zm93.24 179.93l-7.9 7.89 -5.36 5.36 -7.89 7.9 -5.36 5.36 -7.9 7.89 -5.36 5.36 -7.89 7.9 -5.36 5.36 -7.9 7.9 -5.36 5.36 -7.9 7.89 -5.36 5.36 -7.89 7.9 -5.36 5.36 -7.9 7.89 -5.36 5.36 -7.89 7.9 -5.36 5.36 -5.4 5.26 -70.35 -70.52 29.61 -29.11 40.83 40.66 3.6 -2.83c1.09,-1.05 1.52,-1.31 2.75,-2.5 1.51,-2.37 3.03,-3.49 5.09,-5.59 1.06,-1.08 1.53,-1.77 2.58,-2.81 2.23,-2.2 0.64,-1.48 2.78,-1.55l4.41 -4.41c0.08,-2.27 6.67,-8.77 8.85,-8.85l4.4 -4.41c0.09,-2.27 6.67,-8.77 8.86,-8.85l4.4 -4.4c0.08,-2.28 6.67,-8.77 8.85,-8.85l4.41 -4.41c0.08,-2.38 0.61,-1.94 3.76,-5.09 2.3,-2.3 2.83,-3.68 5.09,-3.76l4.4 -4.4c0.07,-1.99 -0.3,-0.92 1.48,-2.89 1.63,-1.81 5.05,-5.88 7.37,-5.96l4.41 -4.41c0.08,-2.27 6.66,-8.77 8.85,-8.85l5.22 -5.23 8.97 9.65 5.24 5.25 7.13 7.13 7.01 6.18c0.8,3.25 0.51,0.86 -0.82,1.77l-4.48 4.48zm-123.22 -105.66c-1.86,1.76 -4.43,1.46 -7.57,2.14 -5.84,0.56 -12.08,3.64 -17.18,3.16 -2.36,2.68 -8.95,4.08 -12.43,5.34 -4.46,1.62 -8.31,3.89 -12.81,5.45 -0.91,1.24 -2.6,2 -3.73,2.6 -3.47,1.86 -1.21,1.39 -4.68,1.6 -1.69,2.77 -0.99,1.72 -3.96,2.9 -0.85,1.56 -11.55,8.9 -13.53,10.55 -2.79,2.33 -4.34,3.5 -6.7,5.69 -2.11,1.96 -3.88,4.31 -6.1,6.08l-2.03 1.7c-3.27,4.28 -6.98,8.34 -10.73,13.14 -1.42,1.81 -3.46,4.69 -4.79,6.69 -1.69,2.54 -2.4,4.76 -4.67,6.74 -0.7,2.45 -0.8,1.97 -2.01,4.14 -1.27,2.31 -1.02,2.17 -2.47,3.82 -0.41,2.47 -0.2,3.07 -2.02,4.42l-5.1 13.25c-2.63,8.49 -6.19,17.69 -7.08,27.4 -0.58,2.69 -0.54,3.39 -0.85,6.23 -0.12,1.06 -0.23,2.16 -0.51,3.2 -0.8,2.98 0.6,-0.01 -0.78,1.67l0.38 9.22 0 9.72 2.26 21.79c2.77,7.46 3.85,17.18 7.49,25.94 2.04,4.63 4.11,10.08 6.2,14.11 2.04,3.91 5.9,9.51 7.08,13.22 0.15,0.16 0.38,0.2 0.44,0.49l5.52 8.4 3.74 4.49c1.68,1.83 3.83,3.85 5.53,5.95l17.41 16.99c1.4,0.87 2.09,1.39 3.6,2.44 2.52,1.96 6.33,4.34 8.61,6.53 2.89,1.19 10.68,5.76 12.81,7.58 2.49,0.63 14.9,6.51 16.58,7.54 4.06,1.06 7.76,2.52 11.87,3.7 1.75,0.51 3.81,1.01 5.65,1.44 2.74,0.63 4.27,0.51 5.95,2.11 4.75,-0.54 9.43,1.18 14.53,1.39 0.85,0.1 1.73,0.09 2.57,0.3 1.95,0.48 1.36,0.16 2.34,0.96l21.98 0c1.07,-0.89 0.25,-0.5 2.38,-0.97 1.11,-0.25 2.24,-0.29 3.37,-0.39 2.61,-0.25 3.6,-0.34 6.24,-0.78 7.83,-0.81 21.7,-6.1 26.9,-5.81 2.42,-2.66 8.76,-4.15 11.98,-5.71 3.9,-1.72 6.28,-3.82 10.11,-4.01 1.7,-2.63 1.51,-1.68 4.03,-3.28 4.43,-2.68 9.35,-6.28 13.49,-8.49l1.53 -0.82c1.05,-2.04 10.52,-9.45 12.41,-10.66l2.78 -2.78 8.69 -8.88c1.81,-2.57 1.42,-2.87 3.52,-4.47 1.05,-2.73 6.76,-9.9 8.94,-13.13 1.68,-2.49 6.95,-12.47 8.11,-13.33 0.87,-2.51 1.93,-4.93 2.97,-7.32 0.64,-1.47 0.71,-1.63 1.35,-3.08 1.32,-2.99 0.01,-1.54 2.08,-3.28l-0.22 -0.46c0.96,-3.66 2.08,-9.79 4.61,-11.98 -0.41,-4.3 1.37,-9.27 2.27,-13.64 0.8,-3.69 1.35,-15.26 3.03,-17.29 -1.05,-6.44 -0.07,-13.28 -0.5,-19.86 -0.36,-5.35 -1.98,-12.22 -1.27,-17.15 -1.74,-1.82 -1.28,-2.43 -1.85,-5.24 -0.44,-2.17 -0.55,-3.07 -1.18,-4.97l-4.7 -16.58c-2.2,-2.7 -4.52,-8.74 -4.64,-12.09 -2.7,-2.28 -6.09,-9.81 -7.28,-12.86 -2.65,-1.89 -1.11,-0.96 -1.53,-3.11 -2.27,-1.39 -6.34,-7.72 -7.31,-10.15 -1.83,-0.93 -5.37,-5.38 -5.53,-7.08l-5.24 -5.38 -9.78 -9.58 -4.36 -3.67c-2.64,-1.29 -7.01,-4.72 -8.9,-6.93l-9.72 -6.25 -1.77 -1.14c-3.72,-1.4 -9.87,-4.33 -13.25,-6.81 -3.53,-0.51 -9.41,-3.63 -12.91,-4.85 -4.74,-1.64 -8.96,-2.36 -13.6,-4.02 -2.12,-0.5 -3.51,-0.81 -5.73,-1.25 -2.92,-0.58 -3.46,0.02 -5.38,-1.81 -5.78,0.76 -15.34,-1.35 -22.47,-1.39 -6.84,-0.04 -16.84,1.39 -22.48,0.51zm188.61 399.88c-2.43,2.2 -3.34,2.84 -7.06,4.19 -0.72,1.53 -0.5,1.3 -2.31,2.23 -2.76,1.43 -1.47,0.67 -3.45,1.06 -2.68,3.44 -8.39,5.72 -12.8,7.32 -1.5,2.01 -4.68,3.18 -7.46,3.32 -1.65,1.95 -3.98,2.81 -6.68,3.94 -3.41,1.62 -9.73,5.04 -13.71,4.86 -2.96,3.52 -20.07,7.68 -26.06,9.06 -3.13,1.73 -8.12,2.82 -11.88,2.46 -1.7,1.63 -2.53,1.37 -5.24,1.94 -2.19,0.46 -2.97,0.45 -4.97,1.09 -6.15,0.56 -11.84,3.05 -18.06,2.27 -1.14,1.12 0.6,0.81 -3.15,1.27l-6.19 0.84c1.59,3.42 3.85,6.92 3.98,11.09 2.83,2.39 4.91,9.31 6.56,12.87l-0.4 1.34c2.61,2.05 3.46,5.9 4.85,9.27 2.05,4.3 6.53,12.85 6.66,17.17 1.84,1.53 0.97,0.19 1.96,3.15 1.9,3.17 4.1,6.85 4.23,10.99 2.55,2.16 3.42,5.95 4.83,9.34 2.12,4.53 4.06,9.8 6.44,14.77 1.34,2.77 2.24,5.16 3.25,7.35 1.56,3.39 2.49,3.27 2.27,7.43 3.15,2.52 9.8,20.19 11.9,25.24 4.21,8.84 8,19.77 12.38,28.28l5.29 12.37 2.68 7.07 2.4 5.3 2.46 5.31 0.01 0 2.46 -6.2 7.7 -25.62 3.57 -13.25c2.05,-5.83 4.72,-21.85 8.36,-25.25 -0.28,-4.95 2.09,-8.82 3.15,-13.64 0.78,-2.28 1.46,-4.2 2.12,-6.57 0.81,-2.92 0.64,-4.45 2.68,-6.3 -0.42,-4.44 5.32,-23.47 7.51,-26.84 2.1,0.55 8.37,2.77 9.73,4.62 4.89,1.67 22.73,9.55 25.62,12.11 4.6,0.66 10.46,4.5 14.14,6.22 2.13,1.03 3.31,1.08 4.85,3.09 3.85,0.18 6.42,2.27 10.17,3.98 3.28,1.59 9.42,3.55 11.99,6.6 3.29,0.12 4.03,0.94 6.58,2.46 2.82,1.06 4.84,1.48 6.61,3.75 3.73,0.14 3.92,0.99 7.18,2.54 2.15,1.03 5.2,1.63 6.53,3.43 2.9,1 4.88,1.47 6.68,3.72 3.56,0.14 2.3,0.67 5.69,1.33l0 -0.93 -0.44 -2.11c-2.77,-2.22 -4.23,-7.52 -5.71,-11.1 -1.44,-3.02 -4.85,-9.87 -5.34,-13.25l-2.39 -5.3 -2.91 -7.08 -6.15 -13.25c-2.54,-5.41 -10.96,-23.1 -11.06,-27.85 -2.67,-2.1 -4.27,-8.01 -5.73,-11.04 -1.18,-2.65 -0.52,-0.03 -0.45,-3.1 -2.76,-2.12 -4.57,-8.25 -5.52,-11.92 -2.03,-1.66 -4.98,-9.96 -5.09,-12.82 -2.01,-1.55 -2.07,-2.73 -3.05,-4.85 -1.21,-2.92 -3.17,-6.75 -3.6,-9.72l-5.05 -11.49 -11.74 -27.4 -4.48 -9.72c-4,2.5 -8.83,6.44 -13.23,9.64 -2.96,2.15 -11.15,7.9 -14.11,8.92zm-346.45 -7.96c-1.56,3.25 -4.1,10.87 -6.62,12.81 -0.16,3.62 -0.47,2.7 -1.89,6.13 -0.93,2.23 -0.39,2.63 -2.31,4.05l-1.52 3.53c-0.68,2.44 -3.98,11.09 -5.55,12.37 -1.46,4.25 -3.18,10.18 -6.37,12.87l0.4 1.27c-1.56,3.24 -4.1,10.87 -6.62,12.8 -0.2,4.26 -3.56,9.86 -5.5,13.96 -1.23,2.59 -4.14,10.79 -5.77,12.13 -1.46,4.24 -3.18,10.17 -6.37,12.86 -0.08,2.45 -0.29,4.97 -2.47,6.58 -1.04,3.04 -1.52,5.78 -3.75,7.5 -0.2,4.26 -3.77,10.25 -5.75,14.59 -1.21,2.5 -1.75,4.83 -3.94,6.68l-1.14 4.81c-2.4,4.3 -3.38,9.97 -6.81,12.86 -0.13,4.21 -1.43,5.15 -2.88,9.22 1.66,1.65 0.62,0.97 -0.22,2.66 0.16,-0.04 1.86,-0.48 2.05,-0.47 1.75,0.1 0.34,-0.19 1.48,0.52 3.49,-1.58 2.96,-2.06 6.64,-2.23 2.41,-3.07 8.67,-5.07 12.8,-6.4 1.63,-2.2 5.48,-3.1 7.96,-3.79 2.2,-1.96 1.99,-1.53 5.3,-2.43 1.68,-2.21 11.59,-5.76 14.14,-7.27 4.75,-1.66 8.75,-4.47 13.24,-6.25 4.2,-1.66 8.86,-4.16 13.27,-6.11 4.04,-1.89 8.56,-3.99 13.14,-6.29 3.47,-1.75 9.69,-5.45 13.83,-5.65 1.96,-2.5 6.32,-4.3 9.56,-4.84l4.06 13.21 -0.38 2.15c2.37,2.09 2.94,6.81 3.72,10.22 1.48,2.48 3.6,10.7 4.62,14.14l3.56 12.37c1.87,5.11 7.77,23.81 7.52,27.85 2.21,1.91 2.82,7.08 3.94,10.15 1.66,7.48 8.05,22.14 7.58,28.67 2.1,1.91 1.46,1.35 1.75,4.48l3.57 -4.42c0.11,-2.36 0.72,-5.22 2.44,-6.64l2.4 -5.3c0.54,-3.79 4.54,-11.5 6.21,-15.02 1.28,-3.07 2.54,-7.45 4.86,-9.27 0.12,-3.24 -0.07,-1.93 1.33,-4.87 1.51,-3.64 3.01,-8.82 5.71,-11.1 0.12,-3.92 3.34,-10.19 5.24,-14.19 1.28,-2.7 4.41,-11.5 6.06,-12.71 1.11,-4.28 9.34,-24.25 11.71,-26.06 0.14,-3.24 1.42,-5.09 2.65,-8.02 0.87,-2.06 2.18,-5.64 3.32,-6.57 0.97,-3.04 1.58,-5.84 3.75,-7.5 0.12,-3.25 -0.07,-1.94 1.33,-4.87l5.29 -12.37c2.05,-3.98 4.12,-9.41 6.23,-14.12 2.01,-4.51 3.94,-9.16 6.15,-14.16 1.28,-2.64 2.44,-3.98 2.12,-6.64 -3.09,-0.62 -4.04,0.29 -6.18,-1.76 -7.73,1.13 -21.39,-3.2 -29.55,-4.04 -2.15,-0.69 -3.32,-0.69 -5.73,-1.24 -2.84,-0.64 -2.74,-0.11 -4.49,-1.79 -3.97,0.38 -11.25,-1.53 -14.53,-3.35 -6.27,-1.43 -24.16,-6.38 -27,-9.9 -3.73,-0.12 -9.45,-3.04 -12.76,-4.68l-7.96 -4.6 -5.3 -2.88 -13.31 -7.73c-2.04,-0.65 -3.28,-0.88 -4.37,-2.88 -3.08,-1.22 -7.62,-3.69 -9.26,-6.48 -3.22,-0.83 -9.11,-5.05 -10.9,-7.4l-3.69 -0.92 -0.04 1.77z"/>
 </g>
</svg>
