<?xml version="1.0" encoding="UTF-8"?>
<!DOCTYPE svg PUBLIC "-//W3C//DTD SVG 1.1//EN" "http://www.w3.org/Graphics/SVG/1.1/DTD/svg11.dtd">
<!-- Creator: CorelDRAW 2019 (64-Bit) -->
<svg xmlns="http://www.w3.org/2000/svg" xml:space="preserve" width="100%" height="100%" version="1.1" style="shape-rendering:geometricPrecision; text-rendering:geometricPrecision; image-rendering:optimizeQuality; fill-rule:evenodd; clip-rule:evenodd"
viewBox="0 0 508.67 719.68"
 xmlns:xlink="http://www.w3.org/1999/xlink">
 <defs>
  <style type="text/css">
   <![CDATA[
    .fil0 {fill:white}
   ]]>
  </style>
 </defs>
 <g id="Layer_x0020_1">
  <metadata id="CorelCorpID_0Corel-Layer"/>
  <path class="fil0" d="M58.91 380.57c-5.05,-2.32 -20.27,-20.83 -25,-27 -7.32,-9.54 -20.2,-31.83 -20.63,-32.36 -2.49,20.87 4.3,49.82 11.06,67.68 7.49,19.8 22.34,46.76 25.04,54.53 4.93,5.26 20.21,43.7 23.33,53.99 14.51,47.91 11.14,89.25 -0.64,137.3 -5.18,21.15 -12.91,39.43 -19.56,58.66 0.71,1.01 0.32,0.47 1.19,1.47 0.71,0.81 0.22,0.12 0.97,1.04 4.82,1.35 16.67,7.86 22.76,10.47 24.74,10.6 57.34,14.43 84.64,13.06 29.64,-1.5 79.42,-13.09 103.03,-27.66 0.03,-30.53 5.88,-60.91 33.34,-65.47 5.82,-2.82 25.34,-5.4 33.78,-5.41 11.08,-0.01 25.57,2.25 35.33,5.16 20.9,4.32 37.69,10.89 60.49,5.38 33.51,-8.1 34.36,-28.38 38.39,-31.72 0.27,-20.39 5.8,-19.52 -2.95,-51.34 -4.54,-16.5 29.76,-17.91 8.42,-34.23l1.39 -1.3c0.13,-0.09 0.36,-0.27 0.5,-0.37 3.65,-2.55 15.26,-6.88 10.77,-15.97 -2.98,-6.06 -12.99,-12.23 -13.07,-20.12 -0.16,-14.68 34.42,-9.68 37.05,-28.56 2.46,-17.64 -32.95,-64.03 -40.13,-91.27 -10.63,-40.33 3.08,-82.44 -1.05,-124.55 -4.99,-50.98 -35.32,-89.35 -36.24,-94.98 -1.38,1.75 -0.16,2.45 1.68,8.08 7.69,23.58 11.66,48.17 11.44,73.14 -1.45,166.97 -176.37,276.87 -328.67,202.9 -12.46,-6.05 -49.01,-28.25 -56.66,-40.55zm195.27 -56.25c-1.04,2.2 -0.24,-2.93 -0.47,1.94 0,0.19 0.18,0.97 0.18,0.84 0,-0.15 0.19,0.6 0.29,0.9 0.59,0.29 -0.37,0.39 2.79,0.97 1.92,0.34 3.24,-0.29 5.86,0.57 3.36,1.1 0.76,-0.31 3.06,1.6 -3.45,1.38 -3.65,2.44 -8,3.15 -5.05,-3.46 1.61,-2.24 -6.22,-2.9 -4.37,-0.37 -21.77,-1.79 -23.77,-0.45l-1.04 0.68c-5.97,3.98 -10.66,1.22 -7.86,6.59 1.38,-2.1 7.01,-3.81 10.72,-4.64 5.18,-1.15 10.41,-1.2 15.67,-0.27 26.63,4.74 40.16,35.84 25.42,59.38 -21.31,34.03 -76.44,13.92 -70.88,-25.23 -3.25,-1.15 -0.31,-1.43 -2.36,0l0 11.58c-0.5,-0.22 -1.88,1.63 -2.61,-3.8 -0.18,-1.33 0.07,-4.64 0.08,-6.17 0.03,-8.53 -4.59,-4.82 -0.54,-12.66 1.45,-2.82 1.05,-2.95 1.16,-6.03 0.44,-12.27 -0.15,-9.34 -3.16,-9.86 1.31,8.56 0,17.37 -7.89,21.69l-7.27 2.69 0.97 16.18c8.32,1.22 11.39,3.76 14.34,10.16 4.97,10.74 -0.6,15.01 -1.89,19.2 3.91,2.69 7.76,6.29 10.68,10.57 4.38,-0.81 0.93,0.12 4.17,-1.8 13.64,-8.11 22.3,4.41 24.62,5.72 0.4,1.46 0.54,2.39 1.04,3.94l1.46 3.44 15.44 -0.38c2.49,-4.25 2.54,-17.44 21.44,-16.83 3.58,1.38 5.39,2.82 7.72,3.75 3.29,-2.79 8.36,-7.65 10.63,-11.08 -11.11,-15.89 1.52,-29.15 11.34,-28.65l-0.4 -16.8c-7.91,-4.28 -9.8,-0.38 -14.56,-10.41 -5.42,-11.42 0.59,-15.49 1.69,-19.81 -2.41,-1.31 -2.34,-1.32 -3.67,-3.61l-2.41 -1.36c-2.29,-1.81 -3.56,-4.05 -6.05,-5.43 -9.27,5.68 -7.86,5.41 -19.72,2.63zm90.9 -233.41c40.17,-9.08 55.2,53.1 13.53,61.87 -40.86,8.6 -54.95,-52.51 -13.53,-61.87zm-34.18 25.25c-1.52,5.11 -3.88,7.89 -9.26,8.82l2.54 12.62c1.09,1.64 21.26,0.32 15.18,22.3l11.07 7.41c3.34,-2.3 2.56,-3.06 5.6,-4.46 5,-2.3 17.23,-1.82 19.56,8.98l13.6 -2.65c1.46,-22.36 19.38,-15.33 21.95,-15.41l6.22 -10.07c-2.74,-3.57 -5.25,-4.35 -5.53,-10.37 -0.28,-5.91 2.81,-9.41 4.34,-12.63 -0.01,0 -0.97,-1.63 -3.68,0.36l-1.1 3.68c-0.24,-0.05 -0.57,-0.08 -0.73,-0.14 -0.15,-0.05 -0.51,-0.1 -0.69,-0.18 -0.17,-0.07 -0.46,-0.14 -0.63,-0.25 -3.67,-2.22 0.16,-4.9 -2.82,-9.07 -2.07,-2.89 -1.12,0.69 -1.8,-1.69 -0.2,-0.7 -0.62,-3.84 -0.64,-4.97 3.4,-2.43 4.11,-2.34 8.18,-1.72 -1.74,0.56 -0.8,0.46 -1.52,2.02 1.95,0.64 1.44,0.56 2.82,1.08 6.29,2.36 -0.92,-2.52 3.6,1.62l-0.3 8.93 4.76 -1.89 -2.44 -13.66c-11.93,0.73 -18.79,-7.53 -14.77,-21.43 -2.29,-1.18 -5.75,-3.13 -7.29,-5.44 -3.15,-0.5 -1.2,-0.63 -4.96,-1.57l-2.71 2.66c-3.57,3.94 -9.45,3.38 -13.87,1.7 -3.92,-1.49 -6.56,-4.35 -7.55,-9.02l-13.55 2.95c-1.33,13.8 -8.32,19.02 -21.43,14.74l-6.58 10.45c2.16,3.67 8.33,8.6 4.43,16.3zm-145.49 42.02c-7.91,-40.03 53.15,-50.88 60.55,-11.11 7.45,40.04 -52.66,51.01 -60.55,11.11zm15.26 -51.73c-0.31,4.33 -0.87,8.89 -4.24,10.3 -1.38,1.99 0.57,-0.05 -1.9,2.04 -6.1,5.17 -11.91,1.76 -15.47,0.89 -1.91,3.76 -4.97,6.12 -6.45,10.2 3.14,4.07 6.33,7.07 4.01,14.79 -1.51,4.98 -4.46,8.09 -9.93,9.11l2.55 13.31c8.4,0.49 13.13,4.1 14.8,11.67 0.99,3.56 -0.45,6.73 -1.47,9.44 2.04,2.32 8.46,6.48 11.1,7.64 8.64,-9.71 21.84,-4.05 23.65,5.56l13.23 -2.23c0.32,-3.75 0.33,-7.6 3.64,-10.67 2.79,-2.58 0.94,-1.28 3.14,-1.65 4.19,-5.03 9.33,-2.97 14.54,-1.41l6.72 -8.97c-1.97,-4.47 -6.27,-6.24 -4.14,-14.91 2.17,-8.88 7.14,-7.33 9.86,-11.1 -0.39,-2.64 -0.73,-5.88 -1.27,-8.5 -1.59,-7.63 -1.42,-1.38 -5.62,-4.78 -4.93,-0.17 -7.44,-3.4 -9.42,-7.71 -2.68,-5.85 -0.45,-8 0.61,-12.87 -3.28,-2.18 -7.5,-5.62 -10.46,-7.01 -3.23,2.24 -0.97,1.73 -5.14,3.27 -1.95,2.7 -8.75,1.47 -12.2,0.02 -5.05,-2.1 -4.46,-4.36 -7.56,-8.93l-12.58 2.5zm-131.09 -21.51c2.16,7.79 -0.4,12.28 -4.73,16.59 -4.65,4.63 -6.98,5.31 -15.68,5.04l-3.93 14.73c3.39,2.58 4.55,1.84 7.44,5.35 5.66,6.88 5.83,21.37 -4.11,25.3l8.61 15.02c8.64,-2.38 12.65,-2.12 18.35,2.91 4.92,4.35 7.23,8.28 6.12,17l15.84 4.19c3.49,-4.96 3.77,-8.06 10.58,-10.33 5.91,-1.97 11.91,-1.49 16.26,1.84 1.5,-3.99 -2.17,-0.45 2.32,-2.95 -0.6,3.81 -0.81,0.83 1.09,2.06 2.21,1.44 14.9,0.68 8.72,-5.62 -1.92,-1.95 -0.7,-0.39 -3.97,-1.63 -3.1,-1.18 -9.38,-7.11 -5.84,-6.54 -7.82,-1.07 -8.89,5.96 -14.57,0.51 -21.69,5.23 -40.03,-12.96 -43.93,-29.79 -5.47,-23.57 11.08,-41.76 29.34,-45.7 -0.83,-4.02 -2.44,0.26 0.57,-2.49 -3.96,-1.88 -1.87,-0.55 -1.95,-1.41 -0.11,-1.19 2.55,-3.77 -3.81,-5.12 -0.21,-0.04 -0.45,-0.08 -0.67,-0.12 -13.28,-2.66 -4.02,-7.01 -10.55,-5.67l-2.46 0.31c0.18,0.23 0.28,0.82 0.3,0.98 0.36,4.13 1.03,-1 -0.31,1.74l-7.61 2.78c-0.1,0.09 -0.37,0.29 -0.46,0.37 -0.12,0.1 -0.73,0.47 -0.96,0.65zm3.64 185.96c14.87,-3.44 27.28,6.96 30.12,18.71 3.72,15.39 -7.25,27.55 -19.14,30.13 -14.79,3.2 -27.2,-6.83 -29.92,-18.82 -3.53,-15.52 6.85,-27.22 18.94,-30.02zm-24.2 8.3l-7.16 0.71 -2.31 9.5c4.03,3.08 6.23,2.85 6.99,9.56 0.82,7.22 -2.06,7.02 -4.74,11.13l5.09 8.59c5.47,-0.13 7.79,-1.16 12.23,2.21 3.83,2.91 3.72,5.13 4.22,11.11l10.03 2.58c2.13,-4.26 4.41,-6.99 10.43,-7.3 8.79,-0.45 6.35,5.22 11.9,4.14l4.54 -3.05 2.73 -0.9c-1.25,-6.11 -1.73,-8.75 1.8,-12.8 5.91,-6.78 8.43,-1.57 11.14,-5.54l2.21 -7.73c-2.41,-2.03 -4.83,-2.98 -6.14,-5.87 -1.48,-3.26 -1.7,-7.1 0.47,-9.32 0.42,-2.98 1.43,-3.59 3.36,-5.49l-4.29 -7.38 -1.16 -1.63c-10.09,2.72 -15.98,-3.24 -15.94,-13.29 -3.11,-0.53 -6.61,-1.08 -8.81,-2.84 -2.33,1.39 -10.82,15.5 -21.49,2.83l-9.54 5.03c2.44,8.82 0.1,11.39 -5.56,15.75zm19.71 -198.04l0.26 3.78 0.59 0c0.23,-0.18 0.84,-0.55 0.96,-0.65 0.09,-0.08 0.36,-0.28 0.46,-0.37l7.61 -2.78c1.34,-2.74 0.67,2.39 0.31,-1.74 -0.02,-0.16 -0.12,-0.75 -0.3,-0.98l2.46 -0.31c6.53,-1.34 -2.73,3.01 10.55,5.67 0.22,0.04 0.46,0.08 0.67,0.12 6.36,1.35 3.7,3.93 3.81,5.12 0.08,0.86 -2.01,-0.47 1.95,1.41 -3.01,2.75 -1.4,-1.53 -0.57,2.49 10.13,-4.08 23.13,0.88 30.39,5.72 6.84,4.55 13.54,12.49 16,23.37 5.38,23.81 -11.96,43.86 -31.8,46.4 5.68,5.45 6.75,-1.58 14.57,-0.51 -3.54,-0.57 2.74,5.36 5.84,6.54 3.27,1.24 2.05,-0.32 3.97,1.63 6.18,6.3 -6.51,7.06 -8.72,5.62 -1.9,-1.23 -1.69,1.75 -1.09,-2.06 -4.49,2.5 -0.82,-1.04 -2.32,2.95 1.95,1.72 2.76,3.23 4.9,4.41l14.23 -7.92c-1.6,-6.02 -2.98,-9.37 0.13,-15.14 2.08,-3.86 4.58,-7.42 8.89,-7.98 2.86,-2.76 6.26,-2.05 10.64,-1.51l3.85 -15.06c-10.86,-6.03 -3.89,-2.29 -9.66,-7.17 -0.97,2.8 0.09,3.53 0.31,4.19 0.57,1.66 2.48,4.84 5.32,4.99l-1.48 7.3c-1.1,2.38 1.16,1.15 -2.22,2.63 -0.5,-0.61 -2.15,-1.29 -1.32,-5.16 0.32,-1.52 1.46,-1.8 1.68,-2.91 -3.09,-1.53 -3.27,1.6 -5.45,2.87 -1.76,-2.11 -1.44,-1.7 -1.83,-5.14 -0.27,-2.39 -0.29,-4.86 -0.29,-7.32 -2.8,10.32 0.53,10.5 -4.8,12.16 -3.09,-7.34 3.1,-2.44 -0.49,-21.78 -0.76,-4.11 -1.16,-2.97 -0.56,-5.88l0.29 -1.22c0.3,-2.2 -0.17,-1.98 -0.09,-4.41l1.7 4.66c1.25,-2.25 0.97,-0.95 0.08,-2.75 -2.65,-5.39 -6.65,-3.38 -5.42,-11.12 0.04,-0.26 0.13,-0.59 0.21,-0.88 2.07,0.02 2.38,2.12 9.43,1.16 2.56,3.98 2.87,8.79 1.72,13.41l-4.45 1.43c1,2.83 0.51,2.11 1.19,4.55l1.89 4.77c0.96,-1.16 1.57,-2.06 3.05,-3.88 -1.09,-9.19 4.16,-11.13 7.17,-16.3l-7.82 -13.77c-8.76,1.71 -11.45,3.02 -18.21,-2.49 -5.04,-4.11 -7.61,-8.3 -6.49,-17.54l-15.73 -4.11c-4.43,5.74 -4.51,9.78 -13.9,11.18 -7.86,1.18 -11.74,-0.63 -16.47,-5.65l-1.42 -1.43 -14.18 7.39zm189.95 166.73c13.81,-3.54 25.66,5.94 28.33,16.74 3.46,14.01 -5.77,25.45 -16.42,28.09 -29.96,7.43 -41.79,-37.19 -11.91,-44.83zm-24.18 15.95c0.2,4.45 -2.78,5.63 -6.7,7.59l1.36 9.28c5.26,1.37 6.91,1.03 9.55,4.68 3.99,5.51 1.75,6.9 1.08,12.47 2.87,1.75 4.78,3.33 7.79,4.8 2.89,-1.9 5.65,-4.44 11.05,-3.07 4.04,1.02 6.5,3.27 6.55,7.18l10.39 -1.38c1.3,-7.52 1.58,-8.79 8.03,-11.04 2.08,-1.49 5.21,-0.35 7.72,0.29 2.21,-0.26 1.28,-0.34 3.04,-2.99 1.12,-1.7 1.44,-2.15 2.52,-3.96l-0.83 -1.13c-6.53,-9.19 -0.25,-13.64 5.16,-17.76l-1.48 -9.34c-9.34,-0.86 -13.8,-7.05 -10.28,-16.32 -3.26,-1.83 -4.77,-4.05 -8.81,-5.48 -2.11,2.99 -6.1,5.38 -10.76,2.88 -4.58,-1.46 -5.27,-2.4 -6.7,-6.95 -14.83,2.14 -6.74,0.46 -11.56,8.41 -2.94,4.84 -8.17,5.21 -14.33,3.59 -1.88,1.82 -3.64,4.76 -5.14,6.94 0.91,2 0.05,0.14 1.01,1.6 2.4,3.65 3.76,6.05 1.34,9.71zm153.74 -36.18l0.54 0.27 -3.62 2.2c1.32,7.78 1.09,12.03 -5.8,15.44 0.05,0.38 -0.2,0.91 -0.18,1.13 0.02,0.18 0.36,1.04 0.38,0.89 0.03,-0.19 0.67,0.4 0.96,0.64 5.66,-2.13 0.14,-3.22 4.31,-1.85 3.5,1.16 -0.37,-0.54 1.35,1.62 0.09,0.12 0.3,0.4 0.38,0.5l0.95 0.91c4.2,-9.56 15.55,-17.59 29.3,-12.63 9.57,3.46 18.44,14.99 14.2,28.57 -8.1,25.92 -47.98,20.82 -44.9,-11.96 -5.05,1.68 -3.85,-1.03 -3.88,5.99 -3.74,-1.12 -3.1,0.35 -3.27,-3 -0.14,-2.7 0.17,0.33 0.95,-3 -4.11,-2.64 -3.93,1.02 -4.54,-2.57 0.16,-0.71 0.76,-0.41 0.86,-3.43 6.73,0 1.03,0.31 3.43,-1.64l-5.14 0.4 -2.44 10.14c4.15,1.02 6.53,2.6 7.41,7.65 1.04,5.95 -1.36,7.57 -3.56,10.9l5.24 7.76c10.42,-2.97 14.26,1.27 15.92,10.83l9.31 1.91c5.49,-10.27 11.15,-8.74 18.72,-3.77l3.68 -1.71c0.26,-0.63 -2.12,-0.65 1.84,-0.79 4.29,-6.89 -1.52,-4.88 2.02,-11.84 3.15,-6.19 5.5,-4.43 10.5,-6.64l2.26 -8.6c-0.26,-0.18 -0.55,-0.63 -0.65,-0.46l-2.78 -1.84c-2.49,-2.07 -1.16,-0.01 -2.22,-3.47 -5.03,-4.96 0.59,-11 2.21,-13.84 -2.04,-3.25 -4.02,-4.77 -4.48,-7.77 -10.95,2.01 -14.84,0.62 -16.89,-10.87l-9.17 -1.78c-3.01,5.3 -7.43,9.26 -14.09,6.89l-2.66 -1.62c-0.16,-0.12 -0.36,-0.28 -0.51,-0.4 -1.79,-1.32 0.38,0 -1.65,-1.2l-4.29 2.04zm-91.17 -85.43c28.95,-5.45 36.58,38.42 8.46,43.91 -28.91,5.63 -37.78,-38.38 -8.46,-43.91zm-2.31 -6.34l-2.58 0.16c-4.81,-1.02 -3.95,-1.68 -6.86,-3.44 -3.44,1.47 -3.59,2.87 -7.2,3.91 1.86,10.52 0.62,13.99 -10.39,15.98 -2.03,10.78 -2.64,6.97 -0.18,10.59 2.84,0.58 3.65,1.18 4.78,4.59 0.71,2.14 1.19,4.77 0.08,6.8 -1.08,3.41 -1.2,3.09 -2.99,5.14 1.25,2.02 3.7,5.58 4.7,7.71 6.12,-2.1 9.89,-1.75 12.7,3.11 3.68,1.93 1.29,4.17 3.27,6.63 1.41,1.74 5.73,1.86 8.1,2.29 2.76,-2.58 2.78,-5.43 7.15,-6.59 5.87,-1.57 8.25,0.31 10.68,3.26l7.79 -4.44c-0.43,-3.38 -2.51,-7.63 0.83,-9.8 0.95,-2.38 1.27,-3.33 3.86,-4.48l5.35 -1.68c0.12,-0.29 0.47,-0.17 0.73,-0.29l1.62 -8.85c-4.08,-1.14 -6.19,-2.53 -6.97,-7.71 -0.98,-6.58 1.87,-6.51 3.57,-10.03 -1.44,-2.52 -3.16,-5.19 -4.75,-7.6 -9.03,2.25 -15.01,-0.84 -15.42,-10.33l-9.59 -1.99c-1.34,4.71 -2.75,6.14 -8.28,7.06zm-77.66 104.63c-5,-4.1 -2.74,2.05 -3.82,-4.29 0.21,-0.07 0.52,-0.07 0.65,-0.06 3.3,0.22 3.49,1.87 7.15,3.25l3.51 0.78c0.14,0.03 0.56,0.36 0.66,0.15 0.11,-0.21 0.47,0.08 0.68,0.17 -1.73,1.72 -1.32,0.68 -1.65,3.3 -0.45,3.64 2.35,7.54 -2.76,10.68 -0.15,0.09 -0.38,0.2 -0.54,0.3 -0.17,0.1 -0.38,0.23 -0.56,0.33 -4.76,2.73 -4.2,1.55 -5.42,0.83 1.19,-7.18 2.03,7.3 2.1,-15.44zm-13.42 -6c3.05,17.55 2.67,27.45 -7.28,38.86 -8.63,9.89 -19.77,14.19 -36.29,12.66l1.44 2.65 17.27 -0.7c2.84,0.25 2.83,0.76 4.42,2.27 -1.77,1.01 -3.41,1.82 -6.16,1.76 -3.96,-0.08 -2.65,0.74 -4.11,-1.76 -6.54,0 1.28,1.19 -7.75,3.4 3.35,1.8 2.66,0.15 6.19,0.48 4.25,0.4 2.78,0.03 3.8,3.37 2.01,6.57 1.95,4.38 -0.53,9.05 -1.18,0 -10.57,0.15 -10.84,0.08 -4.06,-1.12 2.04,-5.64 -4.95,-5.78l-0.68 2.34c2.1,1.23 1.77,3.9 2.75,5.59l16.08 -0.21c1.71,-3.62 1.18,-10.4 9.42,-14.31 2.99,-1.42 5.47,-2.77 9.66,-2.61 3.16,0.12 7.01,1.12 8.25,4.03 4.81,-1.53 9.42,-7.66 12.23,-11.43 -1.4,-3.3 -3.44,-4.35 -4.08,-8.65 -1.04,-6.94 2.33,-14.04 7.89,-17.66 9.16,-5.98 7.5,3.73 7.7,-20.27 -6.3,0.6 -10.9,-2.38 -13.41,-6.32 -3.85,-6.06 -2.87,-9.34 -3.51,-16.66l-0.48 -2.48 -3.49 0 0.21 7.71c0.18,-0.21 0.09,-0.53 0.01,-0.6 -1.16,-0.94 -2.46,0.59 -2.67,0.23 -0.17,-0.29 -0.65,0.19 -0.92,0.37 0.74,2.01 0.96,3.99 1.71,6 4.17,-1.31 1.63,1.23 3.45,-2.21 1.34,4.75 0,0.52 0.87,2.57 5.11,11.97 3.71,4.93 -0.03,11.14 -0.17,-0.22 -0.33,-0.51 -0.42,-0.71 -0.1,-0.2 -0.29,-0.47 -0.39,-0.72 -2.11,-4.96 0.67,-5.24 -2.62,-9.2 -1.46,3.16 -0.51,4.14 -0.51,4.14 0.07,0.4 0.84,1.89 0.94,2.17 0.63,1.83 -1.16,3.55 0.42,2.27 -1.97,-0.84 -0.6,-0.35 -3.59,-0.86zm142.08 63.46c2.44,-9.64 0.57,-6.7 4.74,-8.57 -0.33,4.91 -1.07,3.34 -1.43,6.69 4.12,-1.17 10.29,-5.43 12.87,2.05 -7.91,0.21 -4.55,0.35 -8.3,1.4 -3.5,0.99 -5.17,-0.25 -7.88,-1.57zm-23.08 4.74c-0.72,2.88 0.28,-0.18 -0.76,1.82 -0.01,0.02 -0.79,1.31 -0.96,1.63 -1.01,1.82 -1.03,1.73 -1.76,4.01 9.72,-2.06 1.37,1.2 5.57,-4.64l9.94 0.4c0.23,0 0.47,-0.02 0.69,-0.01l3.95 1.17c0.92,-6.11 -0.14,-5.25 15.44,-6.1 7.71,-0.42 5.77,0.28 6.62,1.27 -1.82,0.91 -1.63,0.34 -2.48,0.68 -3.8,1.52 -1.18,-0.87 -3.28,2.03 24.8,-1.53 39.17,18.64 34.49,37.71 -3.76,15.34 -17.16,24.41 -31.06,23.73 -6.79,-0.33 -10.51,-2.96 -15.16,-3.64 2.22,5.57 6.54,3.54 9.64,6.72 -1.62,0.83 -2.26,1.35 -4.61,0.82 -0.24,-0.05 -0.44,-0.18 -0.67,-0.26 -1.8,-0.58 -2.13,-3.59 -5.32,0.09 -0.02,0.02 -1.11,1.46 -1.5,1.94l-2.18 3.29 -4.77 0.37c0.53,1.7 0.9,2.99 3.53,2.34 3.18,-0.78 0.88,-1.93 5.25,-2.49 0.4,-1.88 0.44,-1.3 3.72,-1.5 1.61,-0.1 3.53,0.29 4.72,0.56 4.98,1.12 4.49,2.24 8.2,4.04l-0.92 -3.37c3.1,-1.34 10.31,-3.45 13.71,-2.3 2.13,0.73 0.68,-0.08 2.17,1.29 -1.31,2.28 -0.27,0.95 -1.77,1.92l-3.6 1.51c1.49,3.66 -1.38,3.36 -0.14,5.27l5.14 -0.49c3.11,-5.34 -0.29,-11.04 7.75,-12.91 1.03,-1.33 0.2,-0.95 2.09,-1.88 3.49,-1.71 8.71,-0.03 11.6,0.52 2.44,-1.92 5.61,-5.95 6.94,-9.38 0.17,-5.07 -6.43,0.19 -3.34,-17.59 -3.12,0.87 -3.59,0.33 -2.89,9.04 0.48,6.05 -0.81,4.8 3.42,8.55l-4.05 6.15c-1.99,1.38 -12.43,-0.62 -13.57,-6.15l1.44 -1.75c4.52,1.73 0.65,-0.41 3.38,2.84 3.86,4.59 6.65,2.04 7.2,0.2 0.97,-3.22 0.3,-2.6 -1.58,-2.2 -2.05,0.43 -4.3,2.29 -7.24,-1.67 3.09,-5.33 3.12,-3.36 6.86,-3.42 0.39,-3.31 0.77,-12.29 0.71,-15.45 -0.06,-2.95 -0.3,-5.24 -1.22,-8 -2.16,-6.47 -1.26,-5.49 0.51,-6.38 3.55,2.39 0.26,4.25 3,10.07l0.53 -8.54c-8.61,-7.1 -3.94,-5.28 -8.24,-3.46 -1.31,-7.48 -0.19,-0.02 0.42,-5.37 -4.25,-1.61 -2.91,-1.46 -5.23,-3.84 -2.91,-2.97 -4.53,-1.74 -2.98,-5.92l6.27 -0.97c0.61,1.94 0.28,2.53 0.69,4.02 1.53,5.55 0.68,-1.02 4.37,6.23l5.7 5.9c2.38,1.68 4.73,1.68 7.48,1.68l1.71 9.76c-2.19,1.5 2.37,-1.38 -1.4,0.6 -0.16,0.09 -0.42,0.21 -0.61,0.31 -0.21,0.12 -0.46,0.27 -0.67,0.39 -0.24,0.14 -0.53,0.34 -0.74,0.46 -0.21,0.13 -0.53,0.3 -0.76,0.49l0.15 2.38 6.83 -2.8 -0.69 -7.45c-0.14,-0.16 -0.28,-0.68 -0.33,-0.56l-0.84 -1.81c-0.19,-0.54 -0.65,-2.51 -0.86,-3.47 -19.16,-0.97 -14.02,-18.06 -13.78,-21.45 -2.2,-2.49 -6.69,-6.11 -10.31,-6.88 -3.71,1.92 -2.36,2.82 -7.27,3.7 -1.38,0.86 -4.64,0.79 -6.04,0.02 -7.56,-1.02 -8.27,-4.64 -10.67,-8.13l-13.22 0.74c-1.2,7.31 -0.86,8.91 -6.25,12.56 -6.72,4.54 -8.87,2.16 -16.11,1.01zm-16.77 -272.36c-0.21,1.07 0.4,1.18 -0.82,0.53 -0.06,-0.03 -0.26,-0.18 -0.32,-0.23 -0.08,-0.06 -0.29,-0.24 -0.37,-0.32l-3.41 -3.67c5.6,-1.25 8.99,0.81 14.35,0.99 11.39,0.37 8.15,-3.01 12,1.87l-5.99 1.72c1.1,1.67 0.69,1.46 4.65,2.34 -1.97,3.46 -3.58,3.4 -3.75,7.08 -0.19,4.21 1.41,3.64 2.42,7.13 1.31,4.52 -0.43,3.57 -0.59,7.76 -0.11,2.83 1.39,5.35 -1.02,8.27 -4.45,-5.9 1.27,-10.47 -0.7,-15.48 -1.41,-3.61 -0.81,-0.82 -2.33,-2.17 -3.9,-3.46 0.07,-3.94 -4.23,-6.36 2.56,-4.85 2.48,1.1 1.25,-5.72 -0.72,-4.01 -0.11,-0.88 0.01,-1.14 -4.58,-1.38 -4.98,-2.62 -11.15,-2.6zm-16.48 -6.84c6.43,4.66 17.77,7.5 23.6,23.78 6.65,18.55 -1.15,27.94 -6.35,37.98 1.42,2.06 1.87,-2.16 0.09,4.16 3.42,-0.67 2.52,0.06 4.53,-1.59 1.08,1.92 -0.58,-0.05 0.84,4.69 0.54,1.77 0.92,-2.32 -1.55,3.61 -1.98,4.75 -0.09,5.89 -2.72,8.86 2.77,1.77 3.05,3.7 3.93,5.53 5.77,-3.61 -4.59,-5.9 3.59,-18.35 4.22,-6.42 8.84,-8.56 17.98,-7.72 1.21,-3.34 3.41,-11.44 3.57,-15.65 -5.4,-2.6 -9.57,-5.8 -10.61,-13.6 -1.28,-9.53 3.6,-12.56 6.94,-17.11 -0.57,-3.45 -4.9,-11.02 -7.63,-12.89 0.75,-2.38 -3.58,-0.46 -5.29,-0.22 -3.03,0.42 -5.12,0.2 -6.24,-0.5 -10.05,-2.26 -13.28,-9.13 -13.56,-20.58l-10.81 -2.72c0.77,0.95 -1.28,3.04 1.59,1.26 -2.97,2.35 -2.96,1.87 -5.6,-0.38l0.2 4.3c1.83,-3.33 4.83,-0.56 6.39,-0.24l1.56 0.24c0.29,0.04 2.7,0.03 3.44,0.12 -0.03,3.06 0.4,4.2 -0.86,6.65l-1.11 1.62c-0.09,0.19 -0.24,0.39 -0.32,0.6 -0.7,1.81 -0.55,0.77 -0.37,2.97 0.46,5.54 2.26,3.58 0.23,5.74 -1.78,1.9 -3.08,0.33 -5.46,-0.56zm-113.19 0.27c5.17,0.85 4.61,-0.95 6.23,-4.55 4.4,0.67 2.7,1.09 6.16,1.68 0.55,3.47 -0.21,2.41 0.15,4.94 0.78,5.4 5.77,4.22 3.91,8.81 -0.19,-0.2 -0.94,-0.63 -1.15,-0.76l-2.62 -1.41c-3.97,-1.54 -0.47,-1.62 -4.98,-0.58 1.67,1.47 0.9,0.76 2.82,1.84 0.88,0.49 1.64,0.77 2.78,1.52 1.65,1.09 3.01,2.43 4.13,3.56 9.73,9.76 9.42,24.42 1.94,33.08 -2.69,3.1 -4.93,5.3 -9.13,7.15 -12.5,5.52 -25.2,0.8 -32.43,-10.35 -2.18,1.65 -0.71,-1.38 -1.05,2.11 -0.51,5.16 0.6,-0.98 2.81,5.02 -0.27,0.18 -0.65,0.31 -0.91,0.37l-3.65 -0.26c-2.27,-1.03 -5.41,1.21 -8.3,-5.26 1.95,-4.82 4.08,-2.74 3.74,-8.98 -0.66,-11.95 -3.87,-1.5 -2.93,-10.04l-3.06 1.08c1.77,2.42 3.36,4.78 3.12,9.33 -0.11,2.07 -0.59,3.62 -1.64,5.27 -1.63,2.57 -1.75,1.4 -2.95,4.2l4.74 8.35c10.2,-1.9 16.77,2.06 16.26,13l10.12 2.72c3.3,-4.54 2.44,-5.59 8.62,-6.92 2.86,-0.75 5.31,-0.93 7.14,0.91 3.28,1.17 2.63,1.35 4.93,3.37l8.78 -5.14c-1.77,-13.17 3.51,-15.44 13.15,-16.37l2.12 -9.36c-4.48,-2.73 -7.47,-5.09 -6.92,-11.94 0.76,-9.38 6.28,-3.34 3.21,-12.07 -1.26,-0.71 1.16,1.79 -0.88,-0.86 -0.33,-0.43 -0.64,-0.87 -0.89,-1.39 -1.3,-2.7 -0.69,-0.85 -0.95,-3.25 -9.74,1.43 -15.99,1.31 -17.29,-12.98l-9.83 -2.45c-1.01,1.28 -1.61,2.17 -2.76,3.59 -2.27,2.77 -1.4,3.91 -2.09,2.48 -0.08,-0.14 -0.31,0.36 -0.45,0.54zm42.17 299.93l-9.52 11.14 3.61 5.65c3.01,0.52 3.6,-2.41 3.16,9.86 -0.11,3.08 0.29,3.21 -1.16,6.03 -4.05,7.84 0.57,4.13 0.54,12.66 -0.01,1.53 -0.26,4.84 -0.08,6.17 0.73,5.43 2.11,3.58 2.61,3.8l0 -11.58c2.05,-1.43 -0.89,-1.15 2.36,0 1.61,-14.16 8.94,-24.85 19.07,-29.24 -2.8,-5.37 1.89,-2.61 7.86,-6.59l1.04 -0.68c2,-1.34 19.4,0.08 23.77,0.45 7.83,0.66 1.17,-0.56 6.22,2.9 4.35,-0.71 4.55,-1.77 8,-3.15 -2.3,-1.91 0.3,-0.5 -3.06,-1.6 -2.62,-0.86 -3.94,-0.23 -5.86,-0.57 -3.16,-0.58 -2.2,-0.68 -2.79,-0.97 -0.1,-0.3 -0.29,-1.05 -0.29,-0.9 0,0.13 -0.18,-0.65 -0.18,-0.84 0.23,-4.87 -0.57,0.26 0.47,-1.94 -1.05,-1.41 -4.6,-3.25 -6.36,-5.4 -2.53,-3.1 -2.08,-5.98 -3.94,-8.55l-14.58 0.4c-2.41,0.98 -1.46,5.36 -4.01,8.94 -3.97,5.57 -11.6,9.13 -18.62,7.62 -4.25,-0.91 -4.55,-2.71 -8.26,-3.61zm229.25 -135.16c4.01,0.72 7.75,4.12 3.67,7.68 -3.38,2.95 -3.65,-0.18 -7.68,3.76 -2.13,2.08 1.9,0.08 -2.95,2.47 0.13,-0.28 0.37,-0.95 0.46,-0.8l3.6 -8.72c2.34,0.39 0.38,1.3 5.23,2.11 -1.08,-6.93 -0.76,-0.87 -2.33,-6.5zm-24.36 -27.58c2.96,-5.85 6.95,-4.07 8.66,-1.08 -0.27,0.13 -0.56,0.29 -0.81,0.36l-7.85 0.72zm-23.89 12.22c2.05,-0.46 0.44,0.61 3.77,-3.25 0.13,-0.15 0.29,-0.46 0.5,-0.61 0.17,0.24 0.3,0.35 0.33,0.81 0.17,2.7 1.48,2.18 -1.38,6 -2.24,2.99 -2.07,2.79 -2.99,6.36 -1.1,4.23 -1.64,3.44 -0.25,8.82 0.71,2.74 1.8,3.67 2.57,7.16 5.29,1.81 0.5,0.46 2.21,-0.82 -13.11,-21.06 16.53,-43.72 33.71,-24.8 10.92,12.01 5.47,31.39 -10.92,35.11 -6.51,1.47 -11.2,-0.83 -16.18,-2.52 -0.49,4.6 3.24,2.91 6.22,4.18 -1.53,1.1 0.66,0.7 -3.34,1.62 -0.06,0.01 -3.6,0.1 -4.01,0.1 2.88,7.1 -0.3,8.82 10.32,9.15 2.88,-3.72 5.13,-8.01 11.8,-6.37 3.36,0.82 2.93,2.88 6.78,2.27 2.7,-0.42 0.88,-1.99 5.65,-2.28 -0.99,-5.87 -1.89,-10.27 2.84,-13.44 5.53,-3.7 8.53,0.36 8.12,-10.77 -2.7,-2.55 -5,-2.59 -5.89,-7.03 -1.21,-6.07 1.49,-6.57 3.02,-10.13l-4.08 -6.79c-9.24,-0.23 -14.07,0.11 -14.82,-10.15 -3.49,-0.92 -5.37,-1.82 -9.13,-1.64 -7.27,11.35 -11.56,5.11 -17.15,3.22l-5.89 3.38c-0.42,7.74 0.78,5.52 -1.81,12.42zm-80.21 136.98c-1.35,0.29 -0.78,-0.23 -1.95,0.78 0.13,5.37 5.78,5.6 4.01,15.08 -1.44,7.68 -5.01,7.4 -9.57,11.4 0.03,3.95 0.35,8.97 1.91,11.88 1.63,1.83 7.01,-0.79 12.64,7.2 5.09,7.23 1.21,8.33 1.2,15.22 4.65,3.81 3.45,3.74 7.07,4.01 -0.21,-1.99 -0.46,-1.3 -0.78,-1.8 -0.16,-0.24 -0.5,-0.18 -1.4,-1.69 -1.09,-1.84 -0.27,-0.31 -0.19,-3.83 0.21,-8.66 -2.44,-5.3 -1.36,-11.26l2.57 4.28c3.62,-0.69 1.74,1.17 3.43,-1.72 3.48,0.36 -0.13,-0.07 3.43,0.86 0.01,2.24 0.1,0.33 -1.5,3.27l-1.07 1.87c2.44,-0.2 5.7,-0.47 6.28,-2.95 -1.41,-2.27 -19.02,-13.18 -14.16,-34 3.36,-14.42 12.34,-20.64 25.89,-23.8 2.1,-2.9 -0.52,-0.51 3.28,-2.03 0.85,-0.34 0.66,0.23 2.48,-0.68 -0.85,-0.99 1.09,-1.69 -6.62,-1.27 -15.58,0.85 -14.52,-0.01 -15.44,6.1l-3.95 -1.17c-0.22,-0.01 -0.46,0.01 -0.69,0.01l-9.94 -0.4c-4.2,5.84 4.15,2.58 -5.57,4.64zm-197.33 -82.45c1,4.34 -1.83,8.81 -4.17,10.66 -2.44,1.93 -6.38,3.11 -9.92,3.84l0 12.01c2.71,0.59 1.01,0.78 6.88,2.78 5.44,1.86 -0.56,3.27 5.99,5.58 1.42,-1.54 0.89,-0.37 1.63,-3.2 0.16,-0.63 0.08,-2.69 0.08,-3.45 -3.1,3.14 -0.39,1.8 1.49,2.21 5.62,1.21 1.94,-0.45 1.95,-0.49l2.03 -1.74c1.94,-4.35 -0.92,1.61 0.21,-3.25 1.19,-7.01 -0.07,-10.19 2.47,-17.76 1.81,-5.37 6.13,-10.57 6.93,-13.13 2.58,-8.96 11.66,-10.08 13.79,-11.44 2.15,-1.38 1.49,-0.89 2.86,-2.42 -2.37,0 -4.65,0.03 -7.02,0.08 -9.81,0.22 0.92,-2.79 -9.26,-2.51l-4.9 0.54c-0.27,-0.39 -5.74,-1.59 -8.91,-1.12l-3.51 2.82c-5.54,5.86 -0.56,4.81 0.77,10.68 0.78,3.43 0.21,6 0.61,9.31zm138.06 -142.99c-14.62,-4.24 -22.05,-40.16 3.96,-51.7 5.26,-2.33 17.67,-4.45 22.29,-0.95 15.22,3.87 26.05,24.43 17.09,42 -3.64,7.13 -9.62,12.39 -17.74,14.95 -7.64,2.4 -21.5,2.02 -25.6,-4.3zm10.46 -58.35c-10.49,2.23 -16.48,6.49 -21.48,13.04 -19.34,25.31 3.61,60.87 33.7,55.07 16.85,-3.25 31.33,-18.44 28.06,-39.77 -2.69,-17.54 -20.46,-32.54 -40.28,-28.34zm-153.17 131.82c-4.05,3.63 -15.65,2.66 -20.7,1 -7.47,-2.46 -10.82,-6.26 -14.87,-10.69 -16.83,-24.74 5.74,-55.84 33.81,-46.88 10.24,3.27 19.92,13.59 20.8,26.49 1,14.58 -8.65,26.93 -19.04,30.08zm-16.08 -62c-46.22,7.23 -34.71,75.91 10.52,68.43 17.05,-2.81 32.01,-18.99 28.58,-39.83 -2.77,-16.85 -18.68,-31.79 -39.1,-28.6zm140.84 300.66c-4.23,-3.65 -5.03,-3.16 -8.17,-7.93 -2.67,-4.07 -4.2,-6.6 -5.16,-11.87 -3.52,-19.25 10.9,-36.53 30.93,-35.92 7.65,0.23 16.84,4.47 20.74,9.03 1.91,2.23 0.95,0.44 1.24,2.57 12.44,9.32 9.39,43.31 -17.45,48.34 -8.73,1.64 -15.74,-0.5 -22.13,-4.22zm10.42 -59.48c-17.53,3.08 -31.86,19.27 -28.09,40.49 2.92,16.49 20.01,31.69 40.6,27.55 44.73,-9 32.17,-75.9 -12.51,-68.04zm-145.64 -97.88c-0.04,0.24 -0.12,0.53 -0.14,0.7 -0.03,0.17 -0.1,0.49 -0.13,0.7l-0.08 16.44c4.07,1.79 8.25,0.23 9.58,4.95 4.19,0.84 6.51,6.89 7.05,11.01 1.04,7.93 -2.61,9.24 -3.7,13.52 3.84,3.22 7.38,7.89 11.6,10.24 2.2,0.3 6.12,-5.13 15.44,-3.43 1.42,0.26 1.62,0.26 2.78,0.85 1.72,0.88 1.03,0.44 1.74,1.44 2.15,0.27 2.54,-0.13 4.48,1.66 0.55,0.5 1.31,1.72 1.5,1.91 1.78,1.82 0.47,0.69 2.01,1.36 0.35,-2.99 -0.37,-2.2 -0.17,-5.81 -3.73,-0.14 -3.3,0.2 -6.6,-1.04l5.74 -2.29c2.36,-0.5 4.71,-0.67 6.75,-1.21 -1.3,-1.2 0.03,-0.55 -2.05,-1.32 -5.41,-2.01 -9.36,1.74 -11.47,2.65 -1.77,0.76 -2.53,1.23 -5.56,-0.04 0.44,-1.72 -1.44,-1.43 5.6,-3.96 4.94,-1.78 3.74,-0.55 7.91,-1.5 -3.8,-2.99 -12.31,-3.26 -20.38,-12.36 -3.12,-3.51 -4.5,-5.25 -6.56,-9.79 -1.59,-3.51 -2.08,-8.58 -4.06,-11.51 -1.13,4.86 1.73,-1.1 -0.21,3.25l-2.03 1.74c-0.01,0.04 3.67,1.7 -1.95,0.49 -1.88,-0.41 -4.59,0.93 -1.49,-2.21 0,0.76 0.08,2.82 -0.08,3.45 -0.74,2.83 -0.21,1.66 -1.63,3.2 -6.55,-2.31 -0.55,-3.72 -5.99,-5.58 -5.87,-2 -4.17,-2.19 -6.88,-2.78l0 -12.01c3.54,-0.73 7.48,-1.91 9.92,-3.84 2.34,-1.85 5.17,-6.32 4.17,-10.66l-2.72 4.43c-2.34,4.61 -6.39,8.41 -12.39,7.35zm29.53 -188.06l4.41 1.31 3.06 -1.08c-0.94,8.54 2.27,-1.91 2.93,10.04 0.34,6.24 -1.79,4.16 -3.74,8.98 2.89,6.47 6.03,4.23 8.3,5.26l3.65 0.26c0.26,-0.06 0.64,-0.19 0.91,-0.37 -2.21,-6 -3.32,0.14 -2.81,-5.02 0.34,-3.49 -1.13,-0.46 1.05,-2.11 -4.74,-11.65 -4.86,-18.55 2.36,-28.29 2.14,-2.89 6.34,-6.15 11.16,-7.74 6.7,-2.2 10.51,-0.45 16.37,-0.77 4.51,-1.04 1.01,-0.96 4.98,0.58l2.62 1.41c0.21,0.13 0.96,0.56 1.15,0.76 1.86,-4.59 -3.13,-3.41 -3.91,-8.81 -0.36,-2.53 0.4,-1.47 -0.15,-4.94 -3.46,-0.59 -1.76,-1.01 -6.16,-1.68 -1.62,3.6 -1.06,5.4 -6.23,4.55 -10.55,-0.55 -6.95,3.03 -15.28,-4.05 -2.75,1.18 -7.58,3.51 -9.04,5.5 2.46,6.77 -0.15,15.54 -12.88,15.79l-2.75 10.42zm45.26 325.44c0.92,0.32 -1.39,0.96 0.25,-3.92 1.9,-5.67 2.43,-8.65 2.47,-15.02 0.02,-4.32 -0.3,-4.24 1.71,-7.07 4.02,0.08 1.63,-0.04 3.61,0.9 2.15,1.01 1.12,1.96 3.81,0.98 3.14,-1.14 -1.9,-0.64 4.07,-1.42 2.04,6.92 -0.45,3.97 -4.26,7.07l-7.04 13.39c-0.22,0.9 -0.26,4.16 -2.7,5.05l-1.23 0.09c-0.14,0.02 -0.47,0.02 -0.69,-0.05zm1.79 -30.55c5.65,-1.68 -0.51,-2.27 5,-1.7 2.82,0.3 3.27,2.06 3.7,3.95 -2.49,1.71 -6.7,1.12 -9.75,1.45 -0.92,-4.8 -2.54,-7.59 1.83,-10.21 1.56,1.56 1.71,1.58 1.17,2.97 -1.29,3.33 -1.26,-2.54 -1.95,3.54zm-29.71 -27.02c1.34,2 1.45,3.04 4.4,3.14 2.01,0.06 -1.56,-1.45 2.91,-0.14 3.81,1.11 0.67,-1.2 3.45,2.25 -3.06,0.6 -3.83,0.85 -7.72,0.85 0,0 1.26,-1.33 1.19,0.93l-0.33 1.62c-6.1,-2.08 -5.58,-1.68 -12,-1.68 -1.05,1.26 -0.38,1.93 -0.51,2.77 17.74,-1.24 30.7,6.64 35.6,20.46 2.69,7.62 2.57,16.2 -0.43,23.33 -4.11,9.72 -8.1,9.56 -12.97,15.67 3.59,0.33 3.23,-0.21 6.17,-2.53 1.07,-0.85 1.47,-1.03 2.46,-1.88 1.31,-1.14 1.46,0.38 1.98,-2.68 0.02,-2.81 -0.89,-0.93 1.14,-3.33 5.7,1.02 0.05,0.94 4.29,2.48 4.69,-2.13 0.63,-6.66 6.37,-5.41l-1.45 5.32c3.06,-0.2 2.53,-0.47 5.51,-0.18 -1.94,-4.01 -3.78,-8.83 -1.82,-14.5 1.89,-5.44 4.01,-5.76 8.4,-8.65 0.43,-4.44 -1.29,-9.21 -1.94,-13.42 -7.77,-1.21 -9.17,-0.43 -13.63,-6.01 -5.15,-6.45 -2.03,-9.67 -1.67,-16.59l0.45 0.5c-4.71,-1.62 -6.87,-4.69 -11.37,-6.39 -8.66,5.82 -6.29,5.53 -18.48,4.07zm101.68 -226.21c1.09,4.38 0.78,0.59 0,4.86 2.82,0.12 7.03,1.22 6.79,2.43l-1.81 1.71 3.6 0.84c1.39,-2.01 2.26,1.7 -0.86,-4.8 10.58,4.76 15.9,2.6 19.02,3.36 -3.66,2.86 -3.26,1.97 -7.36,1.04 -3.42,-0.77 -7.01,-1.04 -9.19,0.74l4.29 2.3 -4.1 1.99c-0.69,3.91 -0.99,5.32 2.12,7.42 2.35,-2.59 5.44,-3.9 8.97,-4.33 4.49,0.24 12.47,-2.65 17.05,1.27 1.91,1.63 0.75,0.58 1.34,1.67 3.6,1.9 4.07,4.22 9.23,1.04 2.98,-1.84 4.07,-2.4 7.4,-4.11 -0.88,-1.83 -1.16,-3.76 -3.93,-5.53 2.63,-2.97 0.74,-4.11 2.72,-8.86 2.47,-5.93 2.09,-1.84 1.55,-3.61 -1.42,-4.74 0.24,-2.77 -0.84,-4.69 -2.01,1.65 -1.11,0.92 -4.53,1.59 1.78,-6.32 1.33,-2.1 -0.09,-4.16 -7.48,6.36 -11.35,10.33 -22.23,12.81 -13.17,3.01 -19.46,-1.15 -29.14,-4.98zm-37.87 -39.97c2.51,0.42 0.74,0.01 2.82,1.17 1.63,0.91 -0.1,0.09 1.49,0.92 1.88,0.98 -0.36,0.25 1.48,0.61 0.43,-0.09 1.09,-0.76 1.27,-0.27l1.64 0.55c0.05,0.28 0.43,2.08 0.48,2.33 0.95,5.08 0.26,3.93 2.95,5.06 3.17,-3.43 0.7,-5.12 1.72,-9.05 4.28,3.19 -1.87,10.52 -1.47,16.38 0.31,4.51 0.83,3.51 4.89,4.14 2.27,-6.02 -0.43,-5.7 0.45,-12.07 0.19,-1.42 0.31,-1.51 0.41,-3.41 0.1,-1.73 0.03,-2.47 0.27,-4.25 0.2,-1.53 1.94,-5.47 -1.13,-6.85 2.95,-0.84 2.49,-1.61 4.52,-1.83l0.59 0.12c1.53,-2.11 3.21,-6.12 5,-8.71 2.37,-3.41 4.48,-5 7.36,-7.84 -1.34,-1.02 0.8,-0.34 -2.1,-0.62 -3.7,-0.36 1.95,-0.21 -1.51,0.02 -0.07,0 -3.53,0.71 -3.56,0.71l0.31 -1.6c-0.49,-8.05 -4.75,-2.56 -2.54,-10.26 2.07,2.13 1.16,2.81 4.8,2.56 0.29,-0.72 0.52,0.74 0.62,-2.58 0.03,-1.06 1.1,0.01 -2.18,-5.13l2.52 -5.58c0.05,-0.43 0.14,-0.55 0.17,-0.83 -4.38,1.34 -5.91,2.6 -9.12,4.36 0.74,10.39 3.38,10.52 -3.27,19.07 -4.71,6.04 -7.66,5.95 -16.74,6.34 -1.8,7.91 -5.06,12.06 -2.14,16.54zm37.34 141.75c20.08,-4.94 25.02,24.57 7.59,28.69 -19.7,4.65 -26.46,-24.05 -7.59,-28.69zm-19.29 6.68l-0.37 5.5c2.41,2.14 4.05,2.11 4.41,5.99 0.72,7.82 -4.98,2.53 0.45,11.23l5.04 -0.15c5.15,1.74 4.52,2.7 6.12,7.44l5.02 0.96c4.31,-3.04 2.49,-7.44 12.87,-2.37 2.2,-1.26 2.01,-1.54 4.57,-2.34 -1.6,-8.83 0.77,-8.68 7.04,-11.04l1.08 -5.43c-5.77,-4.74 -5.92,-5.81 -2.4,-12.85l-2.41 -4.58c-9.58,1.26 -8.22,-0.39 -11.3,-7.13l-5.16 -1.06c-2.18,2.18 -1.81,3.64 -5.65,4.46 -3.88,0.83 -6.95,-1.94 -7.22,-2.05 -7.41,3.75 -2.7,2.49 -4.15,8.01 -0.94,3.6 -3.78,4.53 -7.94,5.41zm66.98 38.1c2.11,1.61 3.02,2.08 2.86,8.57 -0.26,10.82 2.53,3.26 1.32,8.58 -2.38,-0.76 1.19,0.98 -1.38,-1.16l-4.52 -4.39c-4.34,-0.5 3.24,3.44 -5.14,-0.17 0.45,-7.02 -0.43,-2.21 -0.86,-6.29l7.27 -4.79c0.05,-0.25 0.26,-0.33 0.45,-0.35zm18.87 -32.6c0.26,0.11 -1.48,0.76 0.47,-0.09 3.89,-1.71 1.85,-3.15 8.09,-3.34 -0.5,2.7 -1.81,7.27 -2.55,9.5 -3.97,0.13 -2.92,-0.14 -6.6,-1.26l0.59 -4.81zm-15.54 54.03c1.88,1.7 1.43,6.05 0.64,8.58 0.73,4.08 2.17,4.7 5.7,4.94 0.06,-6.46 -1.63,-1.86 -2.3,-6.86 -0.03,-0.26 -0.03,-1.43 0.09,-2.08 0.54,-2.88 0.12,0.17 0.75,-2.25l0.38 -4.04c0.36,0.15 3.51,1.17 4.03,1.42 -3.29,-6.37 -8.28,-9.07 -7.91,-20.34 0.28,-8.5 4.27,-14.38 8.73,-18.25 15.63,-13.58 37.44,-0.15 36.31,5.12l0.33 -2.25c1.06,-4.59 -5.13,-0.96 -3.85,-9.19 -2.88,0.63 -0.66,0.55 -3.35,-0.05l-10.56 -2.71c-4.03,-0.89 -2.6,0.84 -4.53,-2.64l4.79 -1.39 -5.13 -7.02c-11.79,-0.48 -10.65,3.35 -11.09,4.97 -0.66,2.41 0.16,1.03 -1.04,3.33 -4.44,8.48 -13.06,5.2 -16.2,5.3l-4.97 7.68c1.99,3.39 5.07,5.41 3.81,11.78 -1.12,5.72 -4.06,5.77 -7.55,8.8 0.45,18.52 6.85,4.47 12.92,17.15zm-138.58 127.42c-3.96,0.45 -8.89,3.34 -14.02,3.68 -4.04,0.28 -11.51,0.06 -13.69,-2.46 -1.54,3.14 -0.47,1.13 -2.84,2.58 -2.41,1.48 -7.34,1.79 -10.02,1.56 -2.63,-4.51 0.1,-3.76 -4.75,-6.32 -0.51,4.39 0.25,5.74 0.49,6.99 0.54,2.91 -0.72,3.03 -1.34,5.2 5.22,0.7 4.89,2.17 10.84,3.34 4.09,-0.64 4.48,-3.69 12.64,-2.12 5.04,0.98 6.9,3.52 9.17,6.83l0.99 2.04c6.34,0.4 8.46,-1.16 13.71,-2.37 0.44,-8.34 2.15,-11.26 7.5,-14.41 7.49,-3.78 7.69,-0.52 14.3,-0.87l3.9 -6.57c-1.71,-0.78 1.4,-0.73 -2.08,-0.43 -1.67,0.14 -1.24,-0.17 -2.12,1.65l-0.71 2.91c-4.65,-0.18 -3.45,-1.17 -7.74,-0.77 -2.05,0.19 -7.98,2.93 -6.76,-4.37l3.6 1.07c2.72,0.54 0.14,0.95 3.92,-0.03 -1.22,-2.54 -1.54,-2.17 -4.38,-4.22 -0.52,3.06 -0.67,1.54 -1.98,2.68 -0.99,0.85 -1.39,1.03 -2.46,1.88 -2.94,2.32 -2.58,2.86 -6.17,2.53zm-145.56 -184.54c-0.83,1.13 -1.27,3.31 -1.66,6.89 8.66,2.61 7.42,12.54 4.61,18.49 -3.31,1.26 -0.82,0.25 -2.01,1.72 0.69,2.91 3,6.27 4.29,8.8 4.11,-0.21 7.43,-2.11 9.95,0.92 1.84,0.68 0.53,0.33 2.18,0.23 6.68,0.46 3.16,-2.46 4.72,2.21 0.07,0.22 0.19,0.44 0.27,0.68 0.09,0.23 0.21,0.43 0.29,0.67 0.09,0.25 0.2,0.43 0.28,0.69 0.87,2.73 0.66,2.22 0.72,5.01 2.55,-0.26 1.3,-0.93 4.18,1.36 6.1,4.84 -3.55,-1.48 1.7,1.5 3.54,-1.79 3.34,-2.6 5.15,-6.21 3.38,-0.66 8.63,-1.43 11.98,-0.7 6.8,1.48 7.81,11.09 7.6,-5.28 -4.3,0.55 -16.05,3.18 -19.62,2.05 -3.38,-1.07 -1.16,0.61 -2.99,-1.93 -4.11,-2.14 -8.1,-2.64 -12.12,-6.9 -3.99,-4.23 -5.37,-8.07 -6.93,-12.85 -0.45,-0.5 -0.77,-0.65 -1.4,-2.29l-0.58 -5.22c0.01,-3.98 0.07,-1.49 -0.12,-1.35l-1 -5.84c2.51,4.36 -0.29,1.59 2.05,2.42 2.08,-4.43 1.6,-1.93 0.82,-6.26 -6.33,-2.38 -5.67,1.35 -12.36,1.19zm89.98 170.34c-2.67,1.77 -0.27,1.97 -4.44,0.43 -1.12,-0.42 -1.62,-1.1 -2.09,-1.84 -5.28,-8.43 2.17,-9.4 4.77,-11.71 3.4,-3.02 0.27,-2.12 4.23,-3.17 1.03,9.98 -2.18,0.9 -3.22,9.05l-4.64 -0.52 0.02 4.05c3.58,0.62 5.76,-3.81 5.37,3.71zm-6.01 -14.16c-0.87,1.87 0.41,0.55 -1.96,2.35 -0.87,0.66 -1.63,0.96 -2.73,1.41l2.19 13.47c7.89,0.98 9.89,0.68 13.63,5.98 4.64,6.57 2.48,8.98 1.73,16.18 3.94,2.02 7.64,5.38 11.48,6.22 1.86,-1.68 0.86,-0.7 1.92,-2.68 -5.95,-1.17 -5.62,-2.64 -10.84,-3.34 0.62,-2.17 1.88,-2.29 1.34,-5.2 -0.24,-1.25 -1,-2.6 -0.49,-6.99 4.85,2.56 2.12,1.81 4.75,6.32 2.68,0.23 7.61,-0.08 10.02,-1.56 2.37,-1.45 1.3,0.56 2.84,-2.58 -9.53,-3.19 -15.5,-10.07 -18.56,-18.32 -1.69,-4.56 -2.47,-10.24 -1.71,-15.57 0.97,-6.74 3.25,-8.89 4.74,-13.72l-4.93 -2.12c-0.24,4.59 -1.75,6.68 -3.45,12.3 -0.26,0.85 -0.86,2.97 -2.66,3.13 -1.78,-4.95 3.75,-6.56 -2.29,-13.03 -0.48,-0.52 -0.83,-0.76 -1.63,-1.32 -5.53,-3.94 3.9,0.71 -1.35,-0.64 1.23,3.19 3.59,6.23 2.92,11.56 -0.22,1.74 -1.12,4.29 -1.71,5.36 -2.04,3.67 -0.48,2.06 -3.25,2.79zm256.28 -95.77l-3.42 -3.58c-1.07,-1.49 -2.22,-3.19 -2.84,-6.4 2.66,0.14 2.11,-0.67 4.78,1.89 0.12,0.11 0.22,0.41 0.37,0.59 0.99,-1.2 0.69,-1.18 2.09,-1.47 0.25,2.43 -0.03,1.66 0.41,4.42 0.46,2.87 1.93,1.71 -1.39,4.55zm3.52 -31.15c-6.56,-0.03 -3.74,2.41 -4.63,-3.01 3.16,-1.65 9.38,1.71 9.08,6 -0.26,3.66 -0.12,1.91 -2.22,3.43 -3.1,-1.8 -2.19,-1.01 -2.23,-6.42zm-12.88 -8.15l-0.33 2.25c2.23,1.84 3.15,3.31 4.23,6.34 4.76,13.46 -2.76,34.53 -29.74,32.62l4.06 3.38c-11.19,2.46 -4.28,0.19 -10.25,1.2 -2.4,0.41 -5.23,2.56 -8.38,3.74 0.65,1.63 -0.67,1.13 1.71,1.84 4.24,1.25 5.72,-8.45 18.71,0.16 1.24,0.82 0.23,0.29 1.86,1.16l0.77 -3.71c-5.09,0.06 -4.44,1.34 -5.27,-4.16 0.29,-0.05 2.26,-0.32 2.61,-0.3 1.89,0.09 1.47,-0.02 2.54,0.6 0.95,-2.36 -1.67,-0.68 2.35,-1.86 7.51,-2.21 0.54,-2.95 7.06,-0.82 2.51,0.82 1.16,2.6 -0.02,5.75 -1.01,2.67 -0.49,2.82 -1.67,4.98 -3.54,0 -6.48,-0.09 -8.96,-0.86l0.85 3.59c3.49,-0.02 8.35,-0.4 10.49,-2.05 0.1,-0.17 0.17,-0.68 0.2,-0.57l0.36 -1.25c1.46,-5.99 4.6,-11.57 12.5,-10.31 5.79,0.93 1.99,-0.24 3.02,1.51 3.36,-1.41 6.61,-7.9 6.62,-8.07 -1.21,-4.95 -5.13,-4.38 -3.28,-12.61 1.14,-5.05 4.67,-5.78 7.38,-8.84l-1.75 -10.2c-5.08,-0.2 -6.58,-0.49 -9.33,-3.56 -0.84,-0.93 -0.45,-0.6 -1.27,-1.46 -1.21,-1.25 -0.35,-0.46 -1.6,-1.5l0.2 4.57c-5.01,-0.06 -1.44,0.88 -5.67,-1.56zm-196.72 -33.46c0.32,1 -0.96,1.56 2.5,1.71l3.02 -3.25c0.42,-2.05 11.41,-1.74 12.89,4.39l0.06 4.39c-0.31,2.77 -0.2,1.38 0.32,5.34 -5.54,-0.37 -5.45,-1.43 -11.94,-1.43l-0.86 1.89c-5.14,0.51 -9.56,0.99 -14.64,1.25 3.71,-5.31 8.27,-1.79 7.27,-9.33 -3.12,1.96 -3.65,4.86 -10.37,6.17 -5.45,4.39 -12.29,-1.6 -16.57,-2.31 -2.13,2.18 -2.2,1.68 -3.51,4.47 3.17,-0.47 8.64,0.73 8.91,1.12l4.9 -0.54c10.18,-0.28 -0.55,2.73 9.26,2.51 2.37,-0.05 4.65,-0.08 7.02,-0.08 -1.37,1.53 -0.71,1.04 -2.86,2.42 -2.13,1.36 -11.21,2.48 -13.79,11.44 4.03,-2.37 6.21,-5.55 12.44,-8.65 24.92,-12.44 41.06,5.96 47.1,9.35l-0.31 -2.71c2.39,-0.98 3.82,-0.43 5.62,-2.42l-3.68 -0.93c-0.37,-0.01 -3.26,0.17 -5.06,0.33 -0.07,-0.22 -0.17,-0.78 -0.23,-0.65 -0.05,0.14 -0.18,-0.5 -0.27,-0.62 -3.13,-4.41 -9.9,-3.59 -11.6,-6.59 -3.26,0.51 0.71,0.77 1.78,-1.83 -4.94,0.06 -4.76,1.02 -11.02,0.26 2.93,-1.07 1.63,-5.65 11.36,-2.19 5.64,2 7.25,-0.83 12.55,-1.49 2.36,2.89 0.15,3.09 2.58,3.75 -1.75,-2.48 2.76,-4.8 4.29,-5.47 0.22,0.14 0.49,0.16 0.59,0.52 0.09,0.35 0.43,0.39 0.56,0.52 5.54,5.61 7.53,4.95 6.57,9.25l0.48 2.48c4.92,-3.75 3.4,-6.08 -0.36,-9.47 -2.48,-2.22 -4.89,-5.07 -7.84,-6.78 -7.19,2.22 -7.94,7.06 -18.71,2.46 -9.83,-4.19 -6.87,-6.14 -11.32,-14.03l-17.34 0.89 0.21 3.86zm67.4 -135.79c1.91,4.54 4.3,8.96 3.47,15.58 -0.85,6.75 -4.98,7.4 -6.82,11.29 0.77,3.36 5.53,11.64 7.45,14.13 5.82,-0.41 5.39,-1.58 13.66,-0.78 -1.25,-5.07 0.47,0.11 -2.61,-3.77l-1.08 -1.37c4.52,0.43 2.12,0.6 6,1.21l3.43 -4.18c4.15,3.73 2.14,5.6 8.64,5.42l-4.22 -3.95c-12.59,-10.82 -15.83,-26.11 -11.33,-42.73l-0.59 -0.12c-2.03,0.22 -1.57,0.99 -4.52,1.83 3.07,1.38 1.33,5.32 1.13,6.85 -0.24,1.78 -0.17,2.52 -0.27,4.25 -0.1,1.9 -0.22,1.99 -0.41,3.41 -0.88,6.37 1.82,6.05 -0.45,12.07 -4.06,-0.63 -4.58,0.37 -4.89,-4.14 -0.4,-5.86 5.75,-13.19 1.47,-16.38 -1.02,3.93 1.45,5.62 -1.72,9.05 -2.69,-1.13 -2,0.02 -2.95,-5.06 -0.05,-0.25 -0.43,-2.05 -0.48,-2.33l-1.64 -0.55c-0.18,-0.49 -0.84,0.18 -1.27,0.27zm131.68 256.65c13.35,-4.34 25.98,7.32 28.41,17.78 7.13,30.77 -39.62,41 -46.55,10.71 -3.15,-13.8 4.24,-23.97 18.14,-28.49zm-0.32 -3.75c-8.9,2.09 -13.06,5.57 -16.86,10.77 -14.83,20.3 3.37,48.31 27.85,43.03 13.74,-2.96 24.63,-15.73 21.37,-32.58 -2.51,-12.99 -15.71,-25.13 -32.36,-21.22zm-145.99 -178.86c14.55,-4.96 26.61,4.56 30.09,15.75 4.58,14.75 -5.06,26.36 -15.75,29.96 -28.53,9.63 -46.31,-34.8 -14.34,-45.71zm34.08 28.3c2.95,-16.65 -7.77,-29.66 -20.99,-32.45 -36.86,-7.78 -46.9,47.08 -11.19,53.97 16.19,3.13 29.83,-8.22 32.18,-21.52zm-151.37 66.8c1.83,-2.59 0.5,-3.01 4.47,-2.48 0.13,7.63 -4.06,7.42 -7.25,7.5l2.78 -5.02zm-9.5 -20.1c2.9,12.37 4.83,17.89 -3.41,27.66 -5.78,6.86 -13.22,9.87 -25.1,8.54 1.83,2.54 -0.39,0.86 2.99,1.93 3.57,1.13 15.32,-1.5 19.62,-2.05 0.21,16.37 -0.8,6.76 -7.6,5.28 -3.35,-0.73 -8.6,0.04 -11.98,0.7 -1.81,3.61 -1.61,4.42 -5.15,6.21 -5.25,-2.98 4.4,3.34 -1.7,-1.5 -2.88,-2.29 -1.63,-1.62 -4.18,-1.36 -0.06,-2.79 0.15,-2.28 -0.72,-5.01 -0.08,-0.26 -0.19,-0.44 -0.28,-0.69 -0.08,-0.24 -0.2,-0.44 -0.29,-0.67 -0.08,-0.24 -0.2,-0.46 -0.27,-0.68 -1.56,-4.67 1.96,-1.75 -4.72,-2.21 1.19,2.48 0.52,1.04 1.95,2.88 0.99,1.29 1.11,1 1.75,2.56 0.86,2.14 0.68,4.65 0.95,7.31l4.94 1.12c10.51,1.25 3.82,-3.35 12.57,-5.97 6.53,-1.95 9.24,1.85 13.16,3.92 3.22,-0.95 6.06,-2.95 8.73,-4.43 -0.42,-5.41 -1.72,-9.43 2.88,-12.14 0.38,-1.65 -0.5,-0.5 0.63,-1.53 1.27,-1.15 0.15,-0.23 1.52,-0.71 1.14,-1.16 -0.04,-0.38 1.62,-1.2 3.31,-1.62 5.02,-0.36 5.5,-1.47 0.01,-0.01 3.59,-2.64 2.9,-9.72 -13.5,-8.72 -3.33,-16.89 -2.93,-19.77 0.42,-2.96 -1.61,-4.58 -2.73,-7.67 -2.22,2.53 -0.66,-0.56 -0.67,2.23 -0.02,4.16 5.04,1.55 -0.04,6.83 -1.54,1.6 -0.51,-0.49 -1.3,2.24 -3.52,12.28 5.89,16.37 -4.1,19.57 -1.65,-4.39 -0.14,-7.93 -0.89,-13.57 -0.89,-6.71 0.54,-4.52 0.89,-10.44 1.67,1.27 -1.36,2.07 -1.91,4.96 -1.72,-3.08 0.35,0.24 -2.63,-1.15zm-34.48 -20.28c1.74,1.42 0.66,0.11 1.27,1.8 0.38,1.08 0.13,1.54 0.21,2.66 1.19,0.8 -2.39,1.36 3.23,0.26 2.02,1.7 0.68,-0.42 1.08,2.67 7.49,-1.54 12.54,-0.11 18.33,2.57 5.85,2.7 7.43,6.8 10.36,10.32 2.98,1.39 0.91,-1.93 2.63,1.15 0.55,-2.89 3.58,-3.69 1.91,-4.96 -0.35,5.92 -1.78,3.73 -0.89,10.44 0.75,5.64 -0.76,9.18 0.89,13.57 9.99,-3.2 0.58,-7.29 4.1,-19.57 0.79,-2.73 -0.24,-0.64 1.3,-2.24 5.08,-5.28 0.02,-2.67 0.04,-6.83 0.01,-2.79 -1.55,0.3 0.67,-2.23 -3.76,-3.47 -4.75,1.03 -10.52,-1.56 -3.2,-1.43 -5.39,-4.05 -6.64,-7.03l-1.81 -4.41c-3.75,-1.72 -2.56,-0.37 -4.28,-3.15l-4.31 -0.07c-0.31,5.37 -0.64,6.32 -6.03,7.34 -3.58,0.67 -8.35,0.84 -11.54,-0.73zm141.11 90.67l-4.42 0.4 0.59 -3.33c-16.44,10.17 -36.07,5.44 -43.95,-9.83 -4.19,-8.12 -5.4,-16.35 -1.51,-25.86 4.22,-10.32 7.92,-10.11 15.31,-16.57 -2.29,-1.43 -0.83,0.28 -3,-2.61l-2.34 1.6c-6.21,0.66 -13.44,12.83 -15.48,19.76 -5.36,18.26 6.04,39.1 27.18,43.04 13.89,2.59 19.17,-2.32 27.62,-6.6zm163.36 -86.21c-2.67,-16.52 21.36,-18.4 23.55,-4.22 2.48,16.14 -21.15,19.09 -23.55,4.22zm-3.33 -14.47c0.15,1.25 1.15,1.53 -0.5,0.75 0.02,4.11 1.44,4.15 0.62,7.52 -0.89,3.7 -1.51,1.63 -3.84,4.48 0.83,8.77 4.77,1.53 5.92,8.97 0.54,3.51 -1.69,2.7 0.97,5.35 2.74,2.73 2.96,0.5 5.86,0.19 6.39,-0.66 5.81,7.57 10.79,2.47 1.35,-1.38 0.34,-2.95 3.49,-4.25 2.98,-1.23 3.05,0.14 5.64,-0.36 4.55,-4.8 0.36,-3.03 0.97,-7.81 0.57,-4.53 6.2,-3.79 3.53,-8.85 -2.12,-1.86 -3.29,-0.79 -4.8,-3.44 -1.85,-3.25 0.19,-4.59 -1.53,-7.78 -4.79,-1.46 -4.08,1.43 -8.54,-0.02 -5.71,-1.84 0.47,-4.2 -7.11,-3.35 -3.27,2.09 -0.51,3.23 -4.32,5.16 -3.42,1.74 -3.35,-0.57 -7.15,0.97zm51.09 166.7l2.66 -4.05 -0.15 -2.38c0.23,-0.19 0.55,-0.36 0.76,-0.49 0.21,-0.12 0.5,-0.32 0.74,-0.46 0.21,-0.12 0.46,-0.27 0.67,-0.39 0.19,-0.1 0.45,-0.22 0.61,-0.31 3.77,-1.98 -0.79,0.9 1.4,-0.6l-1.71 -9.76c-2.75,0 -5.1,0 -7.48,-1.68l-5.7 -5.9c-3.69,-7.25 -2.84,-0.68 -4.37,-6.23 -0.41,-1.49 -0.08,-2.08 -0.69,-4.02l-6.27 0.97c-1.55,4.18 0.07,2.95 2.98,5.92 2.32,2.38 0.98,2.23 5.23,3.84 -0.61,5.35 -1.73,-2.11 -0.42,5.37 4.3,-1.82 -0.37,-3.64 8.24,3.46l-0.53 8.54c-2.74,-5.82 0.55,-7.68 -3,-10.07 -1.77,0.89 -2.67,-0.09 -0.51,6.38 0.92,2.76 1.16,5.05 1.22,8 0.06,3.16 -0.32,12.14 -0.71,15.45 -3.74,0.06 -3.77,-1.91 -6.86,3.42 2.94,3.96 5.19,2.1 7.24,1.67 1.88,-0.4 2.55,-1.02 1.58,2.2 -0.55,1.84 -3.34,4.39 -7.2,-0.2 -2.73,-3.25 1.14,-1.11 -3.38,-2.84l-1.44 1.75c1.14,5.53 11.58,7.53 13.57,6.15l4.05 -6.15c-4.23,-3.75 -2.94,-2.5 -3.42,-8.55 -0.7,-8.71 -0.23,-8.17 2.89,-9.04zm-48.21 -103.35c2.17,9.77 -3.88,17.23 -9.55,20.45 -7.56,4.31 -19.25,2.43 -22.47,-3.43 -2.83,-1.58 -3.96,-3.1 -5.3,-7.07 -2.86,-8.47 0.81,-18.89 8.58,-23.24 12.9,-7.23 26.51,1.21 28.74,13.29zm3 9.44c9.58,-27.5 -35.65,-40.88 -43.69,-12.33 -7.82,27.77 33.03,42.9 43.69,12.33zm-157.37 -24.89c0.34,2.25 2.42,3.78 3.59,5.9 1.09,1.97 1.54,4.63 3.11,6.13 2.99,0.51 1.62,0.02 3.59,0.86 -1.58,1.28 0.21,-0.44 -0.42,-2.27 -0.1,-0.28 -0.87,-1.77 -0.94,-2.17 0,0 -0.95,-0.98 0.51,-4.14 3.29,3.96 0.51,4.24 2.62,9.2 0.1,0.25 0.29,0.52 0.39,0.72 0.09,0.2 0.25,0.49 0.42,0.71 3.74,-6.21 5.14,0.83 0.03,-11.14 -0.87,-2.05 0.47,2.18 -0.87,-2.57 -1.82,3.44 0.72,0.9 -3.45,2.21 -0.75,-2.01 -0.97,-3.99 -1.71,-6 0.27,-0.18 0.75,-0.66 0.92,-0.37 0.21,0.36 1.51,-1.17 2.67,-0.23 0.08,0.07 0.17,0.39 -0.01,0.6l-0.21 -7.71 3.49 0c0.96,-4.3 -1.03,-3.64 -6.57,-9.25 -0.13,-0.13 -0.47,-0.17 -0.56,-0.52 -0.1,-0.36 -0.37,-0.38 -0.59,-0.52 -1.53,0.67 -6.04,2.99 -4.29,5.47 -2.43,-0.66 -0.22,-0.86 -2.58,-3.75 -5.3,0.66 -6.91,3.49 -12.55,1.49 -9.73,-3.46 -8.43,1.12 -11.36,2.19 6.26,0.76 6.08,-0.2 11.02,-0.26 -1.07,2.6 -5.04,2.34 -1.78,1.83 1.7,3 8.47,2.18 11.6,6.59 0.09,0.12 0.22,0.76 0.27,0.62 0.06,-0.13 0.16,0.43 0.23,0.65 1.8,-0.16 4.69,-0.34 5.06,-0.33l3.68 0.93c-1.8,1.99 -3.23,1.44 -5.62,2.42l0.31 2.71zm-47.86 -3.42l2.34 -1.6c2.17,2.89 0.71,1.18 3,2.61 18.68,-3.68 29.76,-1.94 38.46,12.5 3.4,5.64 5.77,14.13 3.43,22.82 -2.09,7.77 -5.98,12.25 -11.74,16.94l-0.59 3.33 4.42 -0.4c25.34,-22.72 10.92,-54.93 -12.45,-60.85 -8.05,-2.04 -22.23,-1.23 -26.87,4.65zm103.06 -188.93c3.48,-2.72 7.68,-4.7 12.56,-6.84 -0.13,-0.26 -0.88,1.89 -0.08,-0.98 0.02,-0.09 0.05,-0.38 0.1,-0.47 0.05,-0.11 0.16,-0.36 0.24,-0.46 2.04,-2.54 1.89,-0.57 8.31,-1.97 0.12,-0.2 0.23,-0.49 0.29,-0.63l1.44 -3.84c1.03,-0.06 1.66,0.04 2.64,-0.41 2.44,-1.14 1.16,0.15 2.49,-2.16l-4.7 -0.67c-7.5,2 -6.69,3.63 -9.02,4.87l-0.44 -1.21c-0.09,-0.14 -0.2,-0.41 -0.3,-0.55l-3.27 -1.99c-2.25,-0.59 -3.69,-0.43 -5.31,-1.57l-3.01 -3.46c-2.07,-1.46 -3.17,-0.66 -5.75,-0.57l0.34 -0.4c-0.03,0.28 -0.12,0.4 -0.17,0.83l-2.52 5.58c3.28,5.14 2.21,4.07 2.18,5.13 -0.1,3.32 -0.33,1.86 -0.62,2.58 -3.64,0.25 -2.73,-0.43 -4.8,-2.56 -2.21,7.7 2.05,2.21 2.54,10.26l-0.31 1.6c0.03,0 3.49,-0.71 3.56,-0.71 3.46,-0.23 -2.19,-0.38 1.51,-0.02 2.9,0.28 0.76,-0.4 2.1,0.62zm-94.87 102.07l-1.53 -8.33c-1.48,1.82 -2.09,2.72 -3.05,3.88l-1.89 -4.77c-0.68,-2.44 -0.19,-1.72 -1.19,-4.55l4.45 -1.43c1.15,-4.62 0.84,-9.43 -1.72,-13.41 -7.05,0.96 -7.36,-1.14 -9.43,-1.16 -0.08,0.29 -0.17,0.62 -0.21,0.88 -1.23,7.74 2.77,5.73 5.42,11.12 0.89,1.8 1.17,0.5 -0.08,2.75l-1.7 -4.66c-0.08,2.43 0.39,2.21 0.09,4.41l-0.29 1.22c-0.6,2.91 -0.2,1.77 0.56,5.88 3.59,19.34 -2.6,14.44 0.49,21.78 5.33,-1.66 2,-1.84 4.8,-12.16 0,2.46 0.02,4.93 0.29,7.32 0.39,3.44 0.07,3.03 1.83,5.14 2.18,-1.27 2.36,-4.4 5.45,-2.87 -0.22,1.11 -1.36,1.39 -1.68,2.91 -0.83,3.87 0.82,4.55 1.32,5.16 3.38,-1.48 1.12,-0.25 2.22,-2.63l1.48 -7.3c-2.84,-0.15 -4.75,-3.33 -5.32,-4.99 -0.22,-0.66 -1.28,-1.39 -0.31,-4.19zm12.26 -94.34c24.58,-8.74 36.93,28.68 12.77,37 -11.45,3.94 -22.03,-3.52 -24.9,-11.79 -4.29,-12.33 3.51,-22.14 12.13,-25.21zm-15.71 22.54c1.89,10.8 12.14,20.32 25.9,18.09 28.48,-4.64 22.48,-49.46 -8.11,-44.2 -10.98,1.89 -20.1,12.93 -17.79,26.11zm-55.95 239.29c-7.21,26.29 -44.25,15.23 -38.12,-9.3 6.22,-24.89 44.79,-15.05 38.12,9.3zm-24.56 -26.13c-10.71,2.59 -19.76,13.22 -16.32,27.16 2.52,10.23 13.45,19.82 26.96,16.4 29.33,-7.43 17.96,-50.5 -10.64,-43.56zm326.06 -100.37l-3.72 1.85c-2.39,0.75 -6.62,-1.02 -6.34,9.72 3.23,2.31 5.24,2 6.19,7.22 1.1,6.06 -1.44,6.1 -3.06,9.93l4.24 6.77c2.72,-0.09 4.52,-1.07 7.33,-0.23 2.3,0.68 3.8,2.6 5.6,2.9 0.41,0 3.95,-0.09 4.01,-0.1 4,-0.92 1.81,-0.52 3.34,-1.62 -2.98,-1.27 -6.71,0.42 -6.22,-4.18 -2.27,-3.48 -5.14,-2.38 -6.61,-7.79 -1.71,1.28 3.08,2.63 -2.21,0.82 -0.77,-3.49 -1.86,-4.42 -2.57,-7.16 -1.39,-5.38 -0.85,-4.59 0.25,-8.82 0.92,-3.57 0.75,-3.37 2.99,-6.36 2.86,-3.82 1.55,-3.3 1.38,-6 -0.03,-0.46 -0.16,-0.57 -0.33,-0.81 -0.21,0.15 -0.37,0.46 -0.5,0.61 -3.33,3.86 -1.72,2.79 -3.77,3.25zm-238.53 164.55c5.72,4.22 8.42,4.93 12.18,12.39 2.28,4.52 2.84,10.84 1.68,15.73l-2.1 4.19c-0.21,5.75 -8.2,11.86 -14.7,13.97 -11.37,3.71 -14.61,-1.15 -22.37,-3.73 -3.62,-0.19 -0.65,-0.25 -2.92,0.19 -0.22,0.04 -0.57,0.59 -0.74,0.36 -0.16,-0.23 -0.43,0.31 -0.66,0.46 4.85,4.8 14.14,8.7 23.64,7.29 9.23,-1.36 15.18,-6.55 18.94,-11.69 11.81,-16.16 2.58,-34.85 -10.18,-41.81 -6.23,0.27 -2.28,-1.66 -2.77,2.65zm-25.33 -24.08c3.73,1.18 2.56,1.04 5.68,-1.1 0.19,0.28 0.24,0.65 0.36,0.93l0.71 1.7c1.24,2.32 1.48,1.85 2.89,2.68l1.13 0.69c-2.6,2.51 -2.19,3.39 -5,3.51 -3.26,0.15 -3.35,-2.91 -6.73,1.94 0.24,-3.86 1.1,-7.84 0.96,-10.35zm0 0c-3.61,-0.73 -1.86,1.6 -2.92,5.92 -0.87,3.52 -2.07,3.72 -3.36,6.28 3.61,-1.91 4.81,-0.87 8.22,1.27 0.28,2.89 -1.13,2.92 -2.13,3 -0.43,0.03 -0.7,-1.59 -3.89,-0.85 -4.43,1.04 -0.45,3.03 -6.54,3.86l2.46 3.43c-5.04,3.85 -3.08,2.29 -3.41,5.55l4.12 -4.11c5.12,-5.6 11.15,-6.87 16.92,-8.96 0.13,-0.84 -0.54,-1.51 0.51,-2.77 6.42,0 5.9,-0.4 12,1.68l0.33 -1.62c0.07,-2.26 -1.19,-0.93 -1.19,-0.93 3.89,0 4.66,-0.25 7.72,-0.85 -2.78,-3.45 0.36,-1.14 -3.45,-2.25 -4.47,-1.31 -0.9,0.2 -2.91,0.14 -2.95,-0.1 -3.06,-1.14 -4.4,-3.14l-3.34 -2.63c-3.83,-5.45 -1,-5.01 -8.16,-6.19 -0.17,0.15 -0.48,0.1 -0.58,0.38l-2.53 1.1c-3.52,1.28 -2.25,0.2 -3.47,1.69zm23.34 -12.81c6.99,0.14 0.89,4.66 4.95,5.78 0.27,0.07 9.66,-0.08 10.84,-0.08 2.48,-4.67 2.54,-2.48 0.53,-9.05 -1.02,-3.34 0.45,-2.97 -3.8,-3.37 -3.53,-0.33 -2.84,1.32 -6.19,-0.48 9.03,-2.21 1.21,-3.4 7.75,-3.4 1.46,2.5 0.15,1.68 4.11,1.76 2.75,0.06 4.39,-0.75 6.16,-1.76 -1.59,-1.51 -1.58,-2.02 -4.42,-2.27l-17.27 0.7 -1.44 -2.65 -1.07 0.3c-4.17,0.95 -2.97,-0.28 -7.91,1.5 -7.04,2.53 -5.16,2.24 -5.6,3.96 3.03,1.27 3.79,0.8 5.56,0.04 2.11,-0.91 6.06,-4.66 11.47,-2.65 2.08,0.77 0.75,0.12 2.05,1.32 -2.04,0.54 -4.39,0.71 -6.75,1.21l-5.74 2.29c3.3,1.24 2.87,0.9 6.6,1.04 -0.2,3.61 0.52,2.82 0.17,5.81zm-51.22 39.59c5.25,1.35 -4.18,-3.3 1.35,0.64 0.8,0.56 1.15,0.8 1.63,1.32 6.04,6.47 0.51,8.08 2.29,13.03 1.8,-0.16 2.4,-2.28 2.66,-3.13 1.7,-5.62 3.21,-7.71 3.45,-12.3l4.93 2.12c0.33,-3.26 -1.63,-1.7 3.41,-5.55l-2.46 -3.43c6.09,-0.83 2.11,-2.82 6.54,-3.86 3.19,-0.74 3.46,0.88 3.89,0.85 1,-0.08 2.41,-0.11 2.13,-3 -3.41,-2.14 -4.61,-3.18 -8.22,-1.27 -0.18,0.06 -0.41,0.18 -0.51,0.23l-1.53 0.78c-1.46,0.81 -0.17,0.15 -1.59,0.94 -7.48,4.2 -9.55,0.49 -14.1,0.57 -2.82,4.24 -8.45,11.17 -3.87,12.06zm283.58 -77.63c-5.53,-24.02 30.36,-31.11 35.28,-8.32 5.21,24.14 -30.11,30.74 -35.28,8.32zm-2.83 -0.86c3.59,25.95 45.08,21.35 40.91,-6.77 -3.82,-25.83 -44.83,-21.6 -40.91,6.77zm-106.37 12.87c-6.28,22.84 -41.15,14.42 -35.11,-9.19 5.81,-22.68 41.54,-14.2 35.11,9.19zm2.88 -0.86c2.37,-11.98 -6.54,-22.03 -16,-23.99 -13.25,-2.75 -22.86,6.04 -24.8,16.32 -5.09,26.97 35.42,34.89 40.8,7.67zm122.56 -93.42c2.98,-4.94 4.67,-7.15 10.66,-8.89 19.05,-5.52 27.39,21.63 12.98,28.63 -4.32,7.06 -30.13,3.06 -23.64,-19.74zm11.97 -11.97c-2.29,0.47 -4.69,1.43 -6.51,2.36 -3.34,1.71 -3.29,1.47 -5.26,4.11 -3.03,4.05 -4.79,9.14 -4.03,14.79 3.21,23.75 39.94,20.27 37.26,-5.13 -0.96,-9.05 -10.75,-18.35 -21.46,-16.13zm-135.65 -1.82c-3.17,-23.59 32.03,-26.9 34.52,-4.91 2.68,23.7 -31.62,26.43 -34.52,4.91zm-2.48 0c1.02,10.32 10.98,18.83 22.82,17.12 9.69,-1.39 17.9,-10.58 16.69,-21.95 -2.7,-25.13 -42.25,-22.78 -39.51,4.83zm-150.08 214.55c0.23,-0.15 0.5,-0.69 0.66,-0.46 0.17,0.23 0.52,-0.32 0.74,-0.36 2.27,-0.44 -0.7,-0.38 2.92,-0.19 -0.79,-1.1 -0.42,-0.53 -1.32,-1.53 -8.92,-9.94 -11.36,-21.54 -3.33,-32.84 2.32,-3.25 2.41,-2.57 3.45,-2.91 1.47,-2.99 -0.06,-0.97 2.56,-3.03 2.45,-1.92 6.1,-3.09 9.05,-3.72 6.18,-1.31 9.66,0.08 14.9,1.48 0.49,-4.31 -3.46,-2.38 2.77,-2.65 -7.5,-1.99 -11.86,-4.9 -21.39,-1.72 -21.84,7.29 -26.06,34.11 -11.01,47.93zm109.74 -285.25c0.24,0.41 -1.26,0.09 1.87,1.62 2.34,1.14 0.47,0.51 2.06,0.47 4.91,0.4 4.75,0.55 8.83,6.86 0.8,1.23 1.63,2.9 2.11,4.46 0.35,1.16 0.4,1.72 0.7,2.75l1.32 3.68 1 -4.32c0.23,-2.09 0.05,-4.38 0.13,-7.16l-3.35 -0.92c4.45,-0.92 0.33,1.2 7.66,1.51l0.23 10.32c1.08,4.59 -0.88,1.17 2.04,3.31 1.75,-1.18 1.51,1.65 2.22,-3.64 -3.11,-2.1 -2.81,-3.51 -2.12,-7.42l4.1 -1.99 -4.29 -2.3c2.18,-1.78 5.77,-1.51 9.19,-0.74 4.1,0.93 3.7,1.82 7.36,-1.04 -3.12,-0.76 -8.44,1.4 -19.02,-3.36 3.12,6.5 2.25,2.79 0.86,4.8l-3.6 -0.84 1.81 -1.71c0.24,-1.21 -3.97,-2.31 -6.79,-2.43 0.78,-4.27 1.09,-0.48 0,-4.86l0.06 0.26c-6.5,0.18 -4.49,-1.69 -8.64,-5.42l-3.43 4.18c-3.88,-0.61 -1.48,-0.78 -6,-1.21l1.08 1.37c3.08,3.88 1.36,-1.3 2.61,3.77zm-85.16 95.57l-1.38 4.96c1,7.54 -3.56,4.02 -7.27,9.33 5.08,-0.26 9.5,-0.74 14.64,-1.25l0.86 -1.89c6.49,0 6.4,1.06 11.94,1.43 -0.52,-3.96 -0.63,-2.57 -0.32,-5.34l-0.06 -4.39c-1.48,-6.13 -12.47,-6.44 -12.89,-4.39l-3.02 3.25c-3.46,-0.15 -2.18,-0.71 -2.5,-1.71zm191.25 15.67c-0.28,1.57 1.42,0.21 -1.54,1.64 -0.94,0.46 -2.27,0.74 -3.61,0.8 -3.46,0.16 -3.75,-0.75 -6.88,-0.63l-4.79 1.39c1.93,3.48 0.5,1.75 4.53,2.64l10.56 2.71c2.69,0.6 0.47,0.68 3.35,0.05 -1.28,8.23 4.91,4.6 3.85,9.19 4.23,2.44 0.66,1.5 5.67,1.56l-0.2 -4.57c0.22,-4.45 -1.01,-3.69 0.8,-9.86 -3.05,-4.01 -6.95,-6.94 -11.74,-4.92zm-63.48 -203.59c-0.54,5.78 -0.97,13.7 1.71,19.02l-3.22 -0.39 7.34 1.18c2.38,0.89 3.68,2.46 5.46,0.56 2.03,-2.16 0.23,-0.2 -0.23,-5.74 -0.18,-2.2 -0.33,-1.16 0.37,-2.97 0.08,-0.21 0.23,-0.41 0.32,-0.6l1.11 -1.62c1.26,-2.45 0.83,-3.59 0.86,-6.65 -0.74,-0.09 -3.15,-0.08 -3.44,-0.12l-1.56 -0.24c-1.56,-0.32 -4.56,-3.09 -6.39,0.24l-0.2 -4.3c2.64,2.25 2.63,2.73 5.6,0.38 -2.87,1.78 -0.82,-0.31 -1.59,-1.26 -3.26,-2.16 -6.44,-1.44 -6.14,2.51zm-261.94 200.27c6.69,0.16 6.03,-3.57 12.36,-1.19 0.78,4.33 1.26,1.83 -0.82,6.26 -2.34,-0.83 0.46,1.94 -2.05,-2.42l1 5.84c0.19,-0.14 0.13,-2.63 0.12,1.35l0.58 5.22c0.63,1.64 0.95,1.79 1.4,2.29 -1.38,-21.7 10.31,-23.94 14.29,-28.4 -3.68,-0.77 -3,-0.48 -4.85,0.32 -2.84,1.24 1.32,0.12 -3.66,2.36l-0.32 -0.96c-0.07,-0.09 -0.28,-0.33 -0.36,-0.41 -0.33,-0.34 -0.65,1.08 -1.15,-0.7 -0.1,-0.34 -0.5,-0.19 -0.74,-0.31 0.94,-9.05 0.4,-11.8 9.87,-8.63 3.19,1.57 7.96,1.4 11.54,0.73 5.39,-1.02 5.72,-1.97 6.03,-7.34 -4.72,3.19 -8.76,11.99 -20.58,1.82 -3.26,0.9 -6.38,2.98 -9.22,4.96 1.47,10.9 -1.89,15.56 -12.98,16.36l-0.46 2.85zm226.71 -196.75c2.58,-0.09 3.68,-0.89 5.75,0.57l3.01 3.46c1.62,1.14 3.06,0.98 5.31,1.57l3.27 1.99c0.1,0.14 0.21,0.41 0.3,0.55l0.44 1.21c2.33,-1.24 1.52,-2.87 9.02,-4.87l4.7 0.67c-1.33,2.31 -0.05,1.02 -2.49,2.16 -0.98,0.45 -1.61,0.35 -2.64,0.41l-1.44 3.84c-0.06,0.14 -0.17,0.43 -0.29,0.63 -6.42,1.4 -6.27,-0.57 -8.31,1.97 -0.08,0.1 -0.19,0.35 -0.24,0.46 -0.05,0.09 -0.08,0.38 -0.1,0.47 -0.8,2.87 -0.05,0.72 0.08,0.98 6.73,-0.97 9.66,-2.41 17.35,-0.96l3.22 0.39c-2.68,-5.32 -2.25,-13.24 -1.71,-19.02 -2.88,1.92 -2.13,2.02 -4.6,4.06 -1.75,1.44 -3.22,1.8 -5.68,2.19l-0.62 -0.41 -1.35 0.73c-4.54,1.69 3.53,-0.62 -1.49,0.49 -8.75,1.94 -13.2,-4.44 -16.27,-6.86 -1.23,0.34 -1.93,0.44 -3.06,1.19 -1.7,1.13 -0.91,0.48 -2.16,2.13zm57.54 23.13c6.17,-0.02 6.57,1.22 11.15,2.6 -0.12,0.26 -0.73,-2.87 -0.01,1.14 1.23,6.82 1.31,0.87 -1.25,5.72 4.3,2.42 0.33,2.9 4.23,6.36 1.52,1.35 0.92,-1.44 2.33,2.17 1.97,5.01 -3.75,9.58 0.7,15.48 2.41,-2.92 0.91,-5.44 1.02,-8.27 0.16,-4.19 1.9,-3.24 0.59,-7.76 -1.01,-3.49 -2.61,-2.92 -2.42,-7.13 0.17,-3.68 1.78,-3.62 3.75,-7.08 -3.96,-0.88 -3.55,-0.67 -4.65,-2.34l5.99 -1.72c-3.85,-4.88 -0.61,-1.5 -12,-1.87 -5.36,-0.18 -8.75,-2.24 -14.35,-0.99l3.41 3.67c0.08,0.08 0.29,0.26 0.37,0.32 0.06,0.05 0.26,0.2 0.32,0.23 1.22,0.65 0.61,0.54 0.82,-0.53zm-53.79 87.02c4.69,0.46 10.84,3.36 16.05,3.25 1.97,-2.32 1.6,-3.19 3.58,-5.19 1.99,-2.01 3.6,-1.91 5.03,-4.77 -3.53,0.43 -6.62,1.74 -8.97,4.33 -0.71,5.29 -0.47,2.46 -2.22,3.64 -2.92,-2.14 -0.96,1.28 -2.04,-3.31l-0.23 -10.32c-7.33,-0.31 -3.21,-2.43 -7.66,-1.51l3.35 0.92c-0.08,2.78 0.1,5.07 -0.13,7.16l-1 4.32 -1.32 -3.68c-0.3,-1.03 -0.35,-1.59 -0.7,-2.75 -0.48,-1.56 -1.31,-3.23 -2.11,-4.46 -4.08,-6.31 -3.92,-6.46 -8.83,-6.86 5.46,8.8 7.4,3.94 7.2,19.23zm-70.57 259.51c0.22,0.07 0.55,0.07 0.69,0.05l1.23 -0.09c2.44,-0.89 2.48,-4.15 2.7,-5.05l7.04 -13.39c3.81,-3.1 6.3,-0.15 4.26,-7.07 -5.97,0.78 -0.93,0.28 -4.07,1.42 -2.69,0.98 -1.66,0.03 -3.81,-0.98 -1.98,-0.94 0.41,-0.82 -3.61,-0.9 -2.01,2.83 -1.69,2.75 -1.71,7.07 -0.04,6.37 -0.57,9.35 -2.47,15.02 -1.64,4.88 0.67,4.24 -0.25,3.92zm152.96 -1.14l4.77 -0.37 2.18 -3.29c0.39,-0.48 1.48,-1.92 1.5,-1.94 3.19,-3.68 3.52,-0.67 5.32,-0.09 0.23,0.08 0.43,0.21 0.67,0.26 2.35,0.53 2.99,0.01 4.61,-0.82 -3.1,-3.18 -7.42,-1.15 -9.64,-6.72 -0.58,2.48 -3.84,2.75 -6.28,2.95l1.07 -1.87c1.6,-2.94 1.51,-1.03 1.5,-3.27 -3.56,-0.93 0.05,-0.5 -3.43,-0.86 -1.69,2.89 0.19,1.03 -3.43,1.72l-2.57 -4.28c-1.08,5.96 1.57,2.6 1.36,11.26 -0.08,3.52 -0.9,1.99 0.19,3.83 0.9,1.51 1.24,1.45 1.4,1.69 0.32,0.5 0.57,-0.19 0.78,1.8zm-156.68 5.68c2.84,2.05 3.16,1.68 4.38,4.22 -3.78,0.98 -1.2,0.57 -3.92,0.03l-3.6 -1.07c-1.22,7.3 4.71,4.56 6.76,4.37 4.29,-0.4 3.09,0.59 7.74,0.77l0.71 -2.91c0.88,-1.82 0.45,-1.51 2.12,-1.65 3.48,-0.3 0.37,-0.35 2.08,0.43l1.36 -4.7c-1.21,-0.78 -0.54,-0.4 -1.77,-0.61 -2.98,-0.29 -2.45,-0.02 -5.51,0.18l1.45 -5.32c-5.74,-1.25 -1.68,3.28 -6.37,5.41 -4.24,-1.54 1.41,-1.46 -4.29,-2.48 -2.03,2.4 -1.12,0.52 -1.14,3.33zm134.31 -106.81c3.15,-1.18 5.98,-3.33 8.38,-3.74 5.97,-1.01 -0.94,1.26 10.25,-1.2l-4.06 -3.38c-0.85,-0.54 -4.54,-1.57 -6.24,-2.49 -2.74,-1.49 -2.92,-2.22 -5.38,-3 -0.52,-0.25 -3.67,-1.27 -4.03,-1.42l-0.38 4.04c-0.63,2.42 -0.21,-0.63 -0.75,2.25 -0.12,0.65 -0.12,1.82 -0.09,2.08 0.67,5 2.36,0.4 2.3,6.86zm104.03 -153.92l0.69 -0.33 0.3 -8.93c-4.52,-4.14 2.69,0.74 -3.6,-1.62 -1.38,-0.52 -0.87,-0.44 -2.82,-1.08 0.72,-1.56 -0.22,-1.46 1.52,-2.02 -4.07,-0.62 -4.78,-0.71 -8.18,1.72 0.02,1.13 0.44,4.27 0.64,4.97 0.68,2.38 -0.27,-1.2 1.8,1.69 2.98,4.17 -0.85,6.85 2.82,9.07 0.17,0.11 0.46,0.18 0.63,0.25 0.18,0.08 0.54,0.13 0.69,0.18 0.16,0.06 0.49,0.09 0.73,0.14l1.1 -3.68c2.71,-1.99 3.67,-0.36 3.68,-0.36zm-202.89 115.53c1.08,6.34 -1.18,0.19 3.82,4.29 -0.07,22.74 -0.91,8.26 -2.1,15.44 1.22,0.72 0.66,1.9 5.42,-0.83 0.18,-0.1 0.39,-0.23 0.56,-0.33 0.16,-0.1 0.39,-0.21 0.54,-0.3 5.11,-3.14 2.31,-7.04 2.76,-10.68 0.33,-2.62 -0.08,-1.58 1.65,-3.3 -0.21,-0.09 -0.57,-0.38 -0.68,-0.17 -0.1,0.21 -0.52,-0.12 -0.66,-0.15l-3.51 -0.78c-3.66,-1.38 -3.85,-3.03 -7.15,-3.25 -0.13,-0.01 -0.44,-0.01 -0.65,0.06zm121.14 41.55l-0.59 -0.38c2.48,0.77 5.42,0.86 8.96,0.86 1.18,-2.16 0.66,-2.31 1.67,-4.98 1.18,-3.15 2.53,-4.93 0.02,-5.75 -6.52,-2.13 0.45,-1.39 -7.06,0.82 -4.02,1.18 -1.4,-0.5 -2.35,1.86 -1.07,-0.62 -0.65,-0.51 -2.54,-0.6 -0.35,-0.02 -2.32,0.25 -2.61,0.3 0.83,5.5 0.18,4.22 5.27,4.16l-0.77 3.71zm-285.88 -84.85l4.58 -0.94c-0.4,-3.09 0.94,-0.97 -1.08,-2.67 -5.62,1.1 -2.04,0.54 -3.23,-0.26 -0.08,-1.12 0.17,-1.58 -0.21,-2.66 -0.61,-1.69 0.47,-0.38 -1.27,-1.8 -9.47,-3.17 -8.93,-0.42 -9.87,8.63 0.24,0.12 0.64,-0.03 0.74,0.31 0.5,1.78 0.82,0.36 1.15,0.7 0.08,0.08 0.29,0.32 0.36,0.41l0.32 0.96c4.98,-2.24 0.82,-1.12 3.66,-2.36 1.85,-0.8 1.17,-1.09 4.85,-0.32zm311.39 185.77c0.26,2.04 1.09,3.55 2.58,5.2l6.87 -0.88c-1.24,-1.91 1.63,-1.61 0.14,-5.27l3.6 -1.51c1.5,-0.97 0.46,0.36 1.77,-1.92 -1.49,-1.37 -0.04,-0.56 -2.17,-1.29 -3.4,-1.15 -10.61,0.96 -13.71,2.3l0.92 3.37zm-65.18 -133.89c0.43,4.08 1.31,-0.73 0.86,6.29 8.38,3.61 0.8,-0.33 5.14,0.17l4.52 4.39c2.57,2.14 -1,0.4 1.38,1.16 1.21,-5.32 -1.58,2.24 -1.32,-8.58 0.16,-6.49 -0.75,-6.96 -2.86,-8.57 -0.19,0.02 -0.4,0.1 -0.45,0.35l-7.27 4.79zm65.58 -66.56c12.24,-4.64 17.38,14.33 6.26,17.47 -12.28,3.45 -17,-13.4 -6.26,-17.47zm0.47 -1.6c-14.54,4.62 -7.25,24.87 6.21,20.33 4.78,-1.62 8.49,-6.85 6.74,-13.11 -1.36,-4.85 -6.78,-9.18 -12.95,-7.22zm-249.16 197.67c0.39,-7.52 -1.79,-3.09 -5.37,-3.71l-0.02 -4.05 4.64 0.52c1.04,-8.15 4.25,0.93 3.22,-9.05 -3.96,1.05 -0.83,0.15 -4.23,3.17 -2.6,2.31 -10.05,3.28 -4.77,11.71 0.47,0.74 0.97,1.42 2.09,1.84 4.17,1.54 1.77,1.34 4.44,-0.43zm274.47 -120.93l1.4 -3.98 -0.95 -0.91c-0.08,-0.1 -0.29,-0.38 -0.38,-0.5 -1.72,-2.16 2.15,-0.46 -1.35,-1.62 -4.17,-1.37 1.35,-0.28 -4.31,1.85 -0.29,-0.24 -0.93,-0.83 -0.96,-0.64 -0.02,0.15 -0.36,-0.71 -0.38,-0.89 -0.02,-0.22 0.23,-0.75 0.18,-1.13l0.3 0.17c-2.4,1.95 3.3,1.64 -3.43,1.64 -0.1,3.02 -0.7,2.72 -0.86,3.43 0.61,3.59 0.43,-0.07 4.54,2.57 -0.78,3.33 -1.09,0.3 -0.95,3 0.17,3.35 -0.47,1.88 3.27,3 0.03,-7.02 -1.17,-4.31 3.88,-5.99zm-40.35 44.59c2.71,1.32 4.38,2.56 7.88,1.57 3.75,-1.05 0.39,-1.19 8.3,-1.4 -2.58,-7.48 -8.75,-3.22 -12.87,-2.05 0.36,-3.35 1.1,-1.78 1.43,-6.69 -4.17,1.87 -2.3,-1.07 -4.74,8.57zm-205.6 18.33c0.27,2.87 0.75,2.58 -2.36,3.11 -0.64,-1.14 -1.54,-1.63 -0.29,-3.05 1.69,-1.92 2.61,-0.07 2.65,-0.06zm-4.61 -2.64c0.14,2.51 -0.72,6.49 -0.96,10.35 3.38,-4.85 3.47,-1.79 6.73,-1.94 2.81,-0.12 2.4,-1 5,-3.51l-1.13 -0.69c-1.41,-0.83 -1.65,-0.36 -2.89,-2.68l-0.71 -1.7c-0.12,-0.28 -0.17,-0.65 -0.36,-0.93 -3.12,2.14 -1.95,2.28 -5.68,1.1zm47.79 32.67c0.69,-6.08 0.66,-0.21 1.95,-3.54 0.54,-1.39 0.39,-1.41 -1.17,-2.97 -4.37,2.62 -2.75,5.41 -1.83,10.21 3.05,-0.33 7.26,0.26 9.75,-1.45 -0.43,-1.89 -0.88,-3.65 -3.7,-3.95 -5.51,-0.57 0.65,0.02 -5,1.7zm138 -139.27l-0.59 4.81c3.68,1.12 2.63,1.39 6.6,1.26 0.74,-2.23 2.05,-6.8 2.55,-9.5 -6.24,0.19 -4.2,1.63 -8.09,3.34 -1.95,0.85 -0.21,0.2 -0.47,0.09zm129.99 -10.83c4.08,-3.56 0.34,-6.96 -3.67,-7.68 1.57,5.63 1.25,-0.43 2.33,6.5 -4.85,-0.81 -2.89,-1.72 -5.23,-2.11l-3.6 8.72c-0.09,-0.15 -0.33,0.52 -0.46,0.8 4.85,-2.39 0.82,-0.39 2.95,-2.47 4.03,-3.94 4.3,-0.81 7.68,-3.76zm-90.53 33.99c0.89,5.42 -1.93,2.98 4.63,3.01 0.04,5.41 -0.87,4.62 2.23,6.42 2.1,-1.52 1.96,0.23 2.22,-3.43 0.3,-4.29 -5.92,-7.65 -9.08,-6zm1.11 34.16c3.32,-2.84 1.85,-1.68 1.39,-4.55 -0.44,-2.76 -0.16,-1.99 -0.41,-4.42 -1.4,0.29 -1.1,0.27 -2.09,1.47 -0.15,-0.18 -0.25,-0.48 -0.37,-0.59 -2.67,-2.56 -2.12,-1.75 -4.78,-1.89 0.62,3.21 1.77,4.91 2.84,6.4l3.42 3.58zm-273.38 -34.39c3.19,-0.08 7.38,0.13 7.25,-7.5 -3.97,-0.53 -2.64,-0.11 -4.47,2.48l-2.78 5.02zm334.77 -69.02l7.85 -0.72c0.25,-0.07 0.54,-0.23 0.81,-0.36 -1.71,-2.99 -5.7,-4.77 -8.66,1.08zm-348 24.64l-0.29 -5.14c-1.97,-1.95 -2.45,-1.68 -5.8,-2.42 1.72,2.78 0.53,1.43 4.28,3.15l1.81 4.41zm62.5 133.8c3.11,-0.53 2.63,-0.24 2.36,-3.11 -0.04,-0.01 -0.96,-1.86 -2.65,0.06 -1.25,1.42 -0.35,1.91 0.29,3.05z"/>
 </g>
</svg>
