<?xml version="1.0" encoding="UTF-8"?>
<!DOCTYPE svg PUBLIC "-//W3C//DTD SVG 1.1//EN" "http://www.w3.org/Graphics/SVG/1.1/DTD/svg11.dtd">
<!-- Creator: CorelDRAW 2019 (64-Bit) -->
<svg xmlns="http://www.w3.org/2000/svg" xml:space="preserve" width="100%" height="100%" version="1.1" style="shape-rendering:geometricPrecision; text-rendering:geometricPrecision; image-rendering:optimizeQuality; fill-rule:evenodd; clip-rule:evenodd"
viewBox="0 0 643.57 719.68"
 xmlns:xlink="http://www.w3.org/1999/xlink">
 <defs>
  <style type="text/css">
   <![CDATA[
    .fil0 {fill:white}
   ]]>
  </style>
 </defs>
 <g id="Layer_x0020_1">
  <metadata id="CorelCorpID_0Corel-Layer"/>
  <path class="fil0" d="M215.33 640.65c-1.98,-10.14 -0.54,-38.47 -0.54,-50.46 0,-16.31 -1.49,-32.83 4.34,-47.35 4.49,-11.18 14.4,-22.57 23.52,-27.78 14.28,-8.16 24.95,-8.16 43.02,-8.16 21.22,0 84.33,-2.51 100.43,2.11 6.75,1.94 12.81,4.92 17.5,8.21 17.03,11.94 24.57,30.54 24.52,52.78 -0.03,16.82 0,33.64 0,50.46 0,21.53 1.17,27.79 -14.64,36.98 -21.76,12.66 -43.29,25.3 -65.13,37.6 -33.18,18.67 -42.76,5.88 -73.56,-11.41 -11.42,-6.41 -21.64,-12.36 -32.59,-18.79 -10.81,-6.35 -24.38,-11.4 -26.87,-24.19zm-14.94 4.58c5.34,12 5.83,17.02 21.27,25.5l61.64 35.62c28.6,16.38 43.56,18.36 72.82,2.01 11.24,-6.28 68.75,-38.14 75.82,-45.29 9.39,-9.48 5.81,-9.46 9.62,-14.17 3.73,-17.69 1.86,-49.15 1.86,-68.81 0,-23.92 -0.79,-39.9 -12.66,-56.98 -8.73,-12.56 -21.57,-23.73 -40.76,-28.95 -16.77,-4.57 -47.85,-2.66 -66.71,-2.66 -52.69,0 -82.23,-5.74 -109.51,29.54 -12.02,15.56 -14.29,31.7 -14.29,55.38 0,20.62 -1.6,49.53 0.9,68.81zm266.69 -219.88c-22.14,1.28 -41.72,13.53 -50.91,25.6 -2.82,3.7 -5.47,8.62 -0.26,12.7 9.92,7.79 11.48,-9.79 35.06,-19.15 16.05,-6.36 52.79,-4.07 72.33,-4.07 21.61,0 52.94,-2.85 71.05,5.32 14.42,6.51 30.78,23.38 32.81,43.48 2.56,25.5 -0.48,42.89 -21.45,54.88l-120.96 69.88c-15.95,8.93 -4.99,19.95 4.25,15.34l48.26 -27.92c15.98,-9.33 32.16,-18.77 48.33,-27.81 14.3,-7.99 35.75,-19.03 45.56,-30.63 19.83,-23.45 18.38,-83.12 -22.51,-106.94 -22.29,-12.98 -36.93,-10.87 -65.16,-10.87 -24.51,0 -52.32,-1.21 -76.4,0.19zm-443.8 128.92c5.44,2.29 13.2,7.07 18.39,10.21 5.75,3.46 11.78,6.89 17.42,10.1l88.37 51.06c5.18,2.95 15.4,9.6 18.28,-0.3 2.25,-7.75 -7.17,-11.07 -12.2,-14.04l-52.94 -30.55c-12.01,-7.11 -23.72,-13.83 -35.44,-20.54 -33.98,-19.45 -49.67,-21.38 -49.67,-60.89 0,-19.33 5.39,-29.65 15.13,-40.31 22.38,-24.46 54.91,-18.57 93.58,-18.57 25.03,0 56.05,-4.05 75.75,7.95 7.43,4.53 9.8,6.82 15.42,13 7.92,8.7 28.27,1.35 1.16,-20.45 -5.09,-4.09 -10.24,-7.09 -17.3,-10.25 -5.4,-2.41 -19.87,-4.41 -22.55,-5.96 -6.22,1.23 -69.92,0.42 -81.84,0.42 -30.44,0 -45.73,-0.83 -67.02,15.43 -13.95,10.66 -27.22,29.09 -27.75,55.11 -0.57,28.29 2.4,39.55 21.1,56.33l2.11 2.25zm485.82 -284.34c37.9,-7.11 67.21,18.51 73.27,49.28 7.31,37.08 -19.2,66.29 -48.47,72.46 -37.4,7.87 -67.79,-18.53 -73.85,-48.41 -7.57,-37.36 18.67,-67.64 49.05,-73.33zm1.37 -16c-39.17,5.37 -72.77,41.43 -66.33,87.73 5.46,39.2 41.86,71.97 87.47,65.97 39.53,-5.2 72.64,-41.46 66.52,-87.66 -5.21,-39.28 -42.39,-72.23 -87.66,-66.04zm-127.09 149.09c-3.64,32.36 -31.98,60.03 -68.31,55.9 -31.79,-3.61 -59.41,-32.04 -55.39,-68.3 3.57,-32.14 32.19,-58.92 68.16,-55.39 31.27,3.06 59.56,32.05 55.54,67.79zm-80.04 -81.59c-7.25,3.78 -12.61,2.49 -27.01,12.59 -21.61,15.17 -34.49,41.92 -32.21,69.04 0.5,5.99 2.83,12.17 2.68,17.55 4.94,5.69 13.84,44.53 61.13,52.87 31.61,5.58 61.88,-8.56 78.49,-33.98 25.48,-38.99 11.74,-92.07 -33.25,-113.2 -17.38,-8.16 -30.19,-7.22 -49.83,-4.87zm-192.78 -51.76c20.04,-3.66 36.52,2.46 49.13,11.63 4.94,3.59 11.34,11 14.8,16.36 24.47,38 -0.36,87.22 -41.2,94.23 -37.26,6.4 -66.76,-18.83 -72.62,-49.1 -7.27,-37.59 19.4,-67.55 49.89,-73.12zm86.18 82.89c5.72,-32.87 1.44,-50.29 -15.44,-71.76 -12.15,-15.45 -35.93,-28.78 -66.27,-27.36 -27.8,4.27 -51.62,17.77 -63.5,43.9 -27.65,60.8 26.64,124.89 90.12,108.5 20.78,-5.37 36.37,-18.56 46.74,-34.97 3.86,-6.1 5.5,-13.69 8.35,-18.31zm97.2 -287.92c-0.86,0.91 -9.21,5.11 -10.99,6.28 -10.77,7.06 -20.13,17.45 -25.93,30.06 -13.03,28.32 -4.99,63.87 18.02,82.42 18.8,15.15 2.21,38.57 18.86,37.39 7.16,-0.5 6.84,-6.14 6.82,-13.18 -0.09,-22.83 -6.49,-23.01 -8.17,-29.39 -1.95,-1.28 -0.5,-0.27 -2.25,-1.84 -1.04,-0.93 -0.37,-0.41 -1.42,-1.37 -1.21,-1.1 -1.73,-1.43 -3.04,-2.44 -6.05,-4.67 -11.91,-13 -15.16,-20.56 -5.43,-12.6 -6.14,-26.34 -1.51,-39.82 6.92,-20.13 27.98,-39.29 55.93,-37.28 52.89,3.8 66.21,67.53 34.53,95.62 -2.57,2.29 -4.27,2.81 -6.59,5.34 -2.35,2.57 -2.16,3.91 -5.4,5.93 -0.49,4.93 -3.93,5.33 -5.18,16.6 -3.69,33.19 14.11,23.2 15.09,14.75 1.72,-14.81 -4.19,-17.1 12.37,-31.39 14.17,-12.22 17.62,-26.36 21.87,-42.97 1.68,-30.76 -10.01,-50.95 -26.41,-64.1 -7.88,-6.32 -18.52,-11.77 -30.87,-14.08 -17.19,-3.22 -25.71,-0.03 -40.57,4.03zm-4.57 175.08c-2.77,15.46 11.67,11.69 24.75,11.69 6.57,0 32.93,1.28 36.86,-1.4 3.8,-2.6 4.4,-8.87 0.68,-12.07 -3.97,-3.43 -50.24,-1.94 -56.81,-1.79 -4.01,1.63 -3.11,1.83 -5.48,3.57zm134.8 -177.47c-5.13,1.94 -15.78,8.61 -20.78,11.66 -10.34,6.31 -4.79,17.84 4.7,14.91 3.43,-1.06 16.61,-9.37 20.58,-11.61 11.48,-6.51 4.74,-18.45 -4.5,-14.96zm-43.91 -44.88c-5.33,1.65 -8.92,11.34 -13.55,18.97 -1.99,3.28 -4.91,6.84 -4.19,11.54 0.69,4.52 5.34,7.48 10.76,5.21 2.32,-0.97 17.82,-24.06 16.54,-30.37 -0.86,-4.28 -4.77,-6.82 -9.56,-5.35zm-145.58 154.47c-7.42,2.87 -13.96,7.69 -20.93,11.5 -3.63,1.99 -6.74,4.14 -5.13,10.28 1.08,4.13 5.68,6.46 11.18,4.17l20.4 -11.78c9.64,-5.57 3.76,-17.77 -5.52,-14.17zm-37.53 -48.67c-2.17,0.86 -2.78,0.83 -4.1,2.93 -1.07,1.7 -1.4,3.85 -0.89,6.02 2.52,10.64 35.68,4.89 35.71,4.88 6.55,-3.13 5.64,-13.82 -3.69,-14.42 -4.58,-0.3 -24.06,-0.58 -27.03,0.59zm61.08 -105.8c-11.85,3.74 0.65,20.01 6.67,30.25 2.24,3.81 3.97,7.36 10.46,5.79 12.33,-2.99 -2.05,-21.84 -7.21,-31.01 -1.82,-3.23 -4.13,-6.86 -9.92,-5.03zm-45.18 44.81c-3.86,1.51 -6.44,5.55 -3.96,10.91 1,2.15 25.26,18.15 31.79,15.49 3.42,-1.38 5.48,-5.83 3.46,-10.24 -1.49,-3.22 -25.46,-18.44 -31.29,-16.16zm190.16 109.36c-3.8,1.27 -6.64,4.27 -4.94,9.64 1.7,5.4 26.6,18.31 31.19,17.19 3.97,-0.97 6.58,-5.16 4.58,-10.57 -1.26,-3.41 -25.64,-18 -30.83,-16.26zm12.99 -48.54c-8.31,3.22 -7.23,14.35 3.38,14.89 4.57,0.23 23.59,0.55 26.81,-0.82 7.12,-3.03 6.38,-14.02 -3.8,-14.51 -4.01,-0.19 -24.11,-0.44 -26.39,0.44zm-96.57 -82.23c11.75,-0.49 9.46,-7.56 9.45,-18.49 -0.01,-12.62 2.55,-15.4 -5.96,-22.28 -3.87,1.14 -7.27,1.17 -8.68,5.2 -1.12,3.19 -0.62,9.79 -0.62,13.41 0.01,10.16 -2.44,18.34 5.81,22.16zm-11.72 226.26c-9.33,2.82 -6.68,13.64 0.79,14.76 3.23,0.49 24.48,0.43 26.96,-0.38 6.84,-2.23 7.66,-13.32 -1.63,-14.7 -4.12,-0.61 -22.95,-0.64 -26.12,0.32z"/>
 </g>
</svg>
