<?xml version="1.0" encoding="UTF-8"?>
<!DOCTYPE svg PUBLIC "-//W3C//DTD SVG 1.1//EN" "http://www.w3.org/Graphics/SVG/1.1/DTD/svg11.dtd">
<!-- Creator: CorelDRAW 2019 (64-Bit) -->
<svg xmlns="http://www.w3.org/2000/svg" xml:space="preserve" width="100%" height="100%" version="1.1" style="shape-rendering:geometricPrecision; text-rendering:geometricPrecision; image-rendering:optimizeQuality; fill-rule:evenodd; clip-rule:evenodd"
viewBox="0 0 414.46 465.66"
 xmlns:xlink="http://www.w3.org/1999/xlink">
 <defs>
  <style type="text/css">
   <![CDATA[
    .fil0 {fill:#A6A182}
   ]]>
  </style>
 </defs>
 <g id="Layer_x0020_1">
  <metadata id="CorelCorpID_0Corel-Layer"/>
  <path class="fil0" d="M20.73 396.32l0 -12.74 0 -12.48 0 -12.87 0 -12.4 0 -12.76 0 -12.51 0 -12.95 0 -12.33 0 -12.82 0 -12.45 0 -12.95 0 -12.23 0 -13.05 0 -12.26 0 -13.05 0 -12.22 0 -13.01 0 -12.28 0.01 -12.82 -0.01 -12.48 0 -12.95 0.26 -6.57 372.63 0.02 0.12 6.59 -0.01 12.95 0 12.4 0 12.82 0.01 12.37 -0.01 12.95 0 12.37 0 12.85 0.01 12.45 -0.01 12.87 0 12.44 0 12.71 0.01 12.52 -0.01 12.87 0.01 12.33 -0.01 12.87 0.01 12.4 -0.01 12.95 0 12.36 0 12.86 0.01 12.37 -0.01 12.95 -0.34 7.17 -372.54 0.02 -0.12 -7.28zm126.12 -341.44c0.53,-2.84 1.71,-8.89 3.77,-11.1l0.15 -1.4c3.25,-9.77 13.64,-18.56 25.5,-20.65l12.17 -1.03c2.62,0.16 5.01,0.36 7.52,0.72 2.02,0.29 4.71,0.52 6.37,1.62 2.26,-0.3 8.87,1.08 10.59,2.29 4.85,0.98 9.62,2.64 14.19,4.21 3.73,1.29 9.76,2.43 12.23,4.95 2.2,0.01 9.8,2.83 11.49,4.19 1.96,0.52 3.37,1.14 5.12,1.82 0.73,0.29 1.39,0.48 2.22,0.92 2.25,1.22 0.79,0.45 1.63,1.23 1.44,0.04 3.53,0.64 4.3,1.58 2.84,0.82 4.71,1.81 7.34,2.89 1.14,0.46 2.03,0.76 3.13,1.27l2.92 1.85c2.87,0.03 7.18,2.75 10.18,3.99 0.68,0.29 0.71,0.22 1.35,0.62 0.88,0.55 0.66,0.53 1.17,1.05 3.53,0.12 10.39,4.24 14.17,6.08l-15.12 0.09 -12.4 0 -12.97 0 -12.3 0 -12.93 0 -12.34 0 -12.93 0 -12.34 0 -12.79 0 -12.48 0 -12.97 0 -12.21 0 -4.86 -0.05 1.13 -7.14zm16.95 -51.29l-2.72 0.73 -10.7 5.95c-0.41,1.03 -2.45,2.35 -3.64,3.28 -1.52,1.19 -2.74,2.49 -4.13,3.19 -0.81,1.57 -1.35,2.12 -2.42,3.54 -0.78,1.03 -0.19,0.46 -1.11,1.39 -1.16,1.18 -0.79,0.69 -1.6,1.25 -0.4,1.63 -2.78,5.5 -3.93,6.96 -1.64,4.43 -3.61,7.64 -5.11,12.77 -1.03,3.54 -2.54,12.33 -3.49,13.83l-0.05 5.53 -12.75 0.06 -12.2 0 -12.83 0 -12.49 0 -12.74 0 -12.48 0 -13.03 0 -12.36 0.65c-5.66,2.61 -8.63,2.5 -12.94,6.6 -1.63,1.56 -3.66,3.46 -4.93,5.17 -1.37,1.84 -2.19,4.29 -3.57,5.45 -1.77,8.08 -2.54,8.61 -2.52,18.11 0.01,6.69 -0.03,13.38 -0.04,20.06l0 50.79 -0.01 37.72 0.01 12.94 -0.01 12.35 0 38.03 0 63.13 0 50.66c-0.01,10.91 -0.01,21.83 0,32.74 0.01,5.48 0.06,10.95 0.03,16.43 -0.03,6.96 0.94,8.63 2.47,14.52 0.88,0.97 2.52,4.09 3.45,5.43 1.35,1.93 2.54,3.46 4.77,5.33 3.33,2.8 8.06,5.01 13.2,6.71l12.72 0.77 12.71 0 12.34 0 12.93 0 12.57 0 12.79 0 12.48 0 12.67 0 12.4 0 12.87 0 12.36 0 12.91 0 12.32 0 12.96 0 12.32 0 12.95 0 12.41 0 12.82 0 12.36 0 12.95 0 12.32 0 12.91 0 12.59 0 12.72 0 12.56 0 12.79 0 12.48 0 12.67 0 12.63 -0.76c6.1,-2.01 7.13,-2.84 11.82,-5.57l1.21 -0.47c0.93,-1.56 3.56,-3.92 4.78,-5.64 1.04,-1.47 2.87,-4.93 3.71,-5.8 1.31,-4.96 2.37,-7.16 2.49,-13.03l0 -38.34 0.01 -12.36 -0.02 -290.57c-0.09,-5.93 -1.3,-8.03 -2.57,-12.96 -3.4,-4.79 -4.07,-6.94 -8.42,-10.9 -3.32,-3.02 -7.65,-4.56 -12.86,-6.45l-12.67 -0.74 -11.48 -0.81c-5.76,-0.76 -18.77,-4.78 -24.82,-7.21l-3.11 -1.68c-3.32,-0.05 -8.16,-2.64 -11.35,-4.01 -4.18,-1.25 -23.59,-8.99 -25.65,-11.23 -2.13,-0.12 -23.44,-9.42 -24.15,-10.35l-13.07 -5.58 -7.78 -3.3c-1.58,-0.39 -2.39,-0.61 -3.88,-1.28 -0.69,-0.3 -0.69,-0.3 -1.28,-0.66 -0.81,-0.49 -0.67,-0.41 -1.19,-0.88 -2.67,-0.06 -8.9,-2.8 -11.38,-3.92l-25.19 -7.6 -12.58 -2.51c-7.14,-0.72 -12.34,-1.11 -19.68,-0.9l-3.57 -0.15c-3.66,2.21 1.11,0.21 -3.68,1.1l-10.28 2.49zm138.7 219.3c-2.16,2.16 -10.04,4.54 -13.57,5.46 -2.02,1.45 -21.31,8.56 -23.36,8.52 -1.85,1.55 -5.14,2.4 -7.29,3.19 -2.56,0.95 -4.74,1.88 -7.45,2.61l-24.07 9.19c-0.73,0.41 -3.44,1.48 -5.17,2.09 -2.72,0.95 -3.93,0.68 -4.01,3.55l0.01 12.47 0 12.52 0 12.71 0 12.57 0 12.74 0 12.45 0 12.82 0 12.49 0.02 11.08 8.56 -2.46 12.98 -4.25c1.66,-1.04 8.84,-3.4 11.21,-3.4 1.39,-1.34 1.4,-1.02 3.62,-1.55 2.15,-1.41 7.13,-2.87 9.63,-2.88 2.17,-2.01 10.03,-4.06 13.49,-4.79 1.67,-1.09 8.69,-3.47 11.18,-3.41 1.48,-1.49 1.44,-1.09 3.61,-1.54l10.26 -3.43 8.58 -3.02 0.11 -5.43 0 -12.91 0 -12.4 0 -12.86 0 -12.38 0 -12.82 0 -12.45 0 -12.86 0 -12.36 0.33 -11.7 -1.58 0.09c-1.68,1.19 -4.91,2.33 -7.09,2.35zm-198.87 9.26l0 12.33 -0.01 12.82 0.01 12.48 0 12.91 0 12.28 -0.01 12.91 0.01 12.32 0 12.99 0.16 5.46 8.79 2.99 10 3.43c2.1,0.5 0.53,-0.05 1.98,0.53 1,0.39 0.89,0.53 1.38,0.91 2.14,-0.15 9.99,2.54 11.4,3.52l13.02 4.21 10.13 3.44c2.24,0.53 2.23,0.22 3.64,1.57 2.58,-0.09 9.06,2.19 11.33,3.42l12.77 4.19 8.49 2.64 0.16 -11.19 -0.01 -12.44 0 -12.95 0 -12.29 0.01 -12.91 -0.01 -12.48 0 -12.78 0 -12.49 0.01 -12.91c-0.27,-3.48 -7.15,-3.05 -9.72,-5.75 -1.97,0.02 -22.26,-7.31 -23.52,-8.49 -3.53,-0.91 -11.5,-3.17 -13.71,-5.42 -2.86,0 -21.66,-7.05 -24.2,-8.76l-14.58 -5.72c-2.5,0 -4.98,-1.36 -7.47,-2.13l-0.05 11.36zm84.57 -45.38l-13.02 3.56c-1.74,1.2 -9.04,3.2 -11.23,2.99l-3.65 1.53c-2.73,1.02 -6.05,2.14 -8.97,2.11 -1.87,1.88 -10.2,3.57 -13.46,4.36l-12.72 3.65c-2.07,0.76 -2.8,0.47 -4.23,1.94l3.55 1.2c3.09,0.74 11.87,3.37 13.74,5.19 3.56,0.08 20.23,6.67 24.89,8.36 3.71,1.2 11.99,3.22 14.27,5.55 2.08,0 21.49,6.67 23.11,7.93 2.22,0.46 5.01,1.86 6.75,1.85 1.44,-0.02 4.96,-1.52 6.95,-1.98l24.49 -8.97 12.6 -4.51c2.65,-1.23 22.09,-8.25 24.3,-8.24 2.23,-2.25 10.62,-4.58 14.27,-5.49l3.14 -0.88c-2.05,-2.48 -3.77,-0.93 -5.88,-3.02 -3.01,0.12 -7.59,-1.56 -10.5,-2.56l-10.46 -2.96c-0.72,-0.24 -0.66,-0.2 -1.42,-0.55 -1.58,-0.72 -0.6,-0.21 -1.33,-0.78 -2.44,0.17 -5.31,-0.93 -7.51,-1.82 -2.04,-0.43 -4.15,-0.7 -5.68,-2 -2.38,0.08 -8.81,-1.75 -10.98,-2.8l-12.95 -3.76c-4.78,-0.91 -15.55,-5.15 -19.04,-5.16 -2.61,0 -15.25,4.21 -19.03,5.26zm-84.57 -43.48c0.03,6.69 1.82,7.8 2.43,12l7.03 7.47c2.42,0.38 5.97,2.14 10.12,2.83 1.17,0.59 1.25,-0.73 1.21,4.45 -0.01,1.93 -0.06,3.91 -0.09,5.86l20.76 -0.06 -0.02 -6.99 0.02 -3.39 2.76 0.38c2.4,-1.64 6.68,-2.37 8.94,-3.89 2.69,-1.79 4.08,-3.17 5.82,-6.17 4.31,-7.42 2.52,-12.43 3.33,-21.48l-62.31 0.2 0 8.79z"/>
 </g>
</svg>
