<?xml version="1.0" encoding="UTF-8"?>
<!DOCTYPE svg PUBLIC "-//W3C//DTD SVG 1.1//EN" "http://www.w3.org/Graphics/SVG/1.1/DTD/svg11.dtd">
<!-- Creator: CorelDRAW 2019 (64-Bit) -->
<svg xmlns="http://www.w3.org/2000/svg" xml:space="preserve" width="100%" height="100%" version="1.1" style="shape-rendering:geometricPrecision; text-rendering:geometricPrecision; image-rendering:optimizeQuality; fill-rule:evenodd; clip-rule:evenodd"
viewBox="0 0 879.88 465.68"
 xmlns:xlink="http://www.w3.org/1999/xlink">
 <defs>
  <style type="text/css">
   <![CDATA[
    .fil0 {fill:#A6A182}
   ]]>
  </style>
 </defs>
 <g id="Layer_x0020_1">
  <metadata id="CorelCorpID_0Corel-Layer"/>
  <path class="fil0" d="M80.7 149.53l238.47 0.61 -0.1 160.26 -238.37 -0.15 0 -160.72zm451.2 70.09c-2.36,3.59 0.23,1.98 -4.5,3.04l-88.73 -0.15 0 30.41 72.19 -0.24c10.66,0 18.76,-1.94 21.27,2.51 5.37,7.37 4.15,10.74 16.51,11.21 22.85,0.87 59.3,-1.98 79.94,0.26 2.85,28.83 3.51,26.84 32.84,26.84 -2.74,14.31 -2.6,15.77 -0.9,30.57l-268.94 -0.03c0,-18.37 -0.03,-36.74 0,-55.11 0.01,-8.41 1.32,-17.98 -2.29,-23.53 -8.17,-12.59 -3.67,-7.62 1.14,-17.62l0.47 -96.12 -44.54 -0.33c0.05,26.92 2.99,179.71 -1.31,193.36l-4 -2c-6.49,0.74 -1.04,2.33 -4.96,-1l-0.01 -185.32c-37.95,0 -315.52,-2.3 -327.78,0.99l0 298.11c9.22,0.01 10.7,-1.05 19.45,2.63 2.98,-3.39 2.36,-3.74 3.3,-7.92l326.47 0c2.06,5.43 1.17,1.39 2.82,6.67 1.15,3.72 0.09,4.58 1.64,6.6l-5.81 0.83c-7.58,-0.55 -9.18,1.79 -13.66,5.41l-0.06 7.61c12.8,9.36 46.82,14.19 54.11,-3.7 -2.48,-9.64 -6.86,-7.93 -15.75,-11.54 0.56,-0.34 0.51,-0.66 3.43,-1.14 2.08,-0.34 3.99,-0.36 6.11,-0.38 3.8,-0.05 7.84,0.1 11.69,0.1 53.89,0.09 341.35,2.13 358.56,-0.9 -1.46,-4.53 -1.16,-1.07 2.53,-2.62 5.31,4.69 2.29,3.71 7.83,6.59 1.22,-4.04 8.63,-5.75 11.41,-4l24.51 0.8 -0.06 -116.12 -29.71 -0.36c2.41,-14.41 0.86,-17.38 -0.49,-30.41l40.92 -0.39c26.34,-3.52 43.59,-13.11 53.81,-28.24 6.12,-9.04 9.77,-19.85 8.14,-33.46 -1.94,-16.3 -9.44,-19.92 -13.03,-29.12 -16.39,-8.77 -21.76,-18.89 -50.59,-20.27 -34.29,-1.65 -103.57,-0.2 -141.77,-0.2 -29.43,0 -45.14,-7.33 -45.17,25.66l-27.4 0.05c-1.2,-25.32 1.02,-24.62 10.45,-43.75 5.98,-12.13 11.59,-23.44 17.4,-35.41 11.12,-22.93 27.75,-50.11 35.4,-72.9l-150.76 -0.08c8.34,22.79 23.52,48.04 36.04,73.58 6.11,12.46 11.83,24.14 17.91,36.56 9.19,18.78 10.68,16.95 9.76,41.56 -9.57,1.28 -19.39,0.02 -29.05,0.46 -14.07,0.63 -10.42,4.49 -16.78,11.95zm-218.66 83.8l0.25 -146.79 -226.28 0 0.06 146.93 225.97 -0.14zm-312.21 -219.17c9,5.98 4.82,31.09 4.82,42.88 -3.23,9.94 -4.42,-2.99 -5.85,8.25l0.01 305.21 24.55 0.14c-7.1,6.55 -12.76,1.46 -16.8,12.87 0.08,9.98 26.73,15.8 45.49,9.08 6.75,-2.42 9.19,-4.35 8.89,-12.43 -5.9,-6.56 -10.96,-4.76 -16.13,-9.39l309.86 -0.16c2.73,3.08 2.5,-0.63 0.3,3.58l5.81 -0.83c-1.55,-2.02 -0.49,-2.88 -1.64,-6.6 -1.65,-5.28 -0.76,-1.24 -2.82,-6.67l-326.47 0c-0.94,4.18 -0.32,4.53 -3.3,7.92 -8.75,-3.68 -10.23,-2.62 -19.45,-2.63l0 -298.11c12.26,-3.29 289.83,-0.99 327.78,-0.99l0.01 185.32c3.92,3.33 -1.53,1.74 4.96,1l-0.62 -191.16 -326.61 -0.39c-2.77,-6.46 -1.58,-14.88 -1.58,-22.15 0,-6.06 -2.13,-18.51 2.87,-21.25 6.38,-7.65 4.06,-29.48 3.07,-41.01l-17.27 -0.27 0.12 37.79zm433.84 169.82l-0.01 -32.87c-16.85,1.65 -41.28,1.22 -46.98,16.4 5.06,14.96 30.44,15.57 46.99,16.47zm325.73 185.67c-2.2,3.07 -1.09,2.14 -7.93,5.11 -5.18,2.24 -4.38,1.86 -7.95,4.69l-0.04 7.85c7.47,5.35 8.68,3.72 16.81,7.66 14.74,1.02 31.66,1.48 37.28,-11.45 -4.01,-12.33 -11.07,-5.85 -16.4,-13.89 -2.78,-1.75 -10.19,-0.04 -11.41,4 -5.54,-2.88 -2.52,-1.9 -7.83,-6.59 -3.69,1.55 -3.99,-1.91 -2.53,2.62zm-159.11 -393.4c-4.38,3.33 -18.02,2.21 -24.11,1.32 0.7,-5.02 5.71,-4.34 10.92,-4.39 7.96,-0.07 9.17,-1.34 13.19,3.07zm-31.27 1.9c-10.44,-0.03 -20.89,-0.01 -31.33,-0.01 -16.07,0 -24.86,-2.63 -27.71,3.41 7.31,4.45 27.15,1.62 37.61,1.62l113.74 -0.07c4.92,-0.8 -1.84,2.79 5.2,-1.91 -3.08,-4.7 -4.66,-3.19 -11.68,-3.11l-46.26 0.09c-4.05,-0.84 -3.25,-2.33 -4.52,-8.8l-30.1 -0.18c-5.06,8.02 1.27,5.06 -4.95,8.96zm-568.9 -41.64l0.16 35.5 16.59 0.04 -0.55 -36.56c-2.77,-6.28 -4.28,-5.91 -12.84,-5.18 -0.63,1.87 -1.65,2.25 -3.36,6.2z"/>
 </g>
</svg>
