<?xml version="1.0" encoding="UTF-8"?>
<!DOCTYPE svg PUBLIC "-//W3C//DTD SVG 1.1//EN" "http://www.w3.org/Graphics/SVG/1.1/DTD/svg11.dtd">
<!-- Creator: CorelDRAW 2019 (64-Bit) -->
<svg xmlns="http://www.w3.org/2000/svg" xml:space="preserve" width="100%" height="100%" version="1.1" style="shape-rendering:geometricPrecision; text-rendering:geometricPrecision; image-rendering:optimizeQuality; fill-rule:evenodd; clip-rule:evenodd"
viewBox="0 0 365.58 465.67"
 xmlns:xlink="http://www.w3.org/1999/xlink">
 <defs>
  <style type="text/css">
   <![CDATA[
    .fil0 {fill:#A6A182}
   ]]>
  </style>
 </defs>
 <g id="Layer_x0020_1">
  <metadata id="CorelCorpID_0Corel-Layer"/>
  <path class="fil0" d="M249.23 26.78c3.8,-1.35 31.08,-0.44 37.58,-0.45 6.65,-0.01 12.57,-1.01 15.82,3.26 3.35,4.4 0.64,9.93 -3.45,11.42 -3.2,1.16 -32.03,0.54 -37.79,0.54 -6.25,0.01 -12.84,0.79 -15.97,-2.99 -4.1,-4.93 -0.55,-10.24 3.81,-11.78zm-178.07 14.67c-12.55,0 -13.7,-15.23 0,-15.23l41.21 0.01c12.9,0 12.61,15.22 0,15.22l-41.21 0zm91.17 0c-12.6,0 -13.69,-15.22 0,-15.22l41.2 0c12.96,0 12.77,15.22 0.44,15.22l-41.64 0zm-161.82 25.65l364.5 0.4c0,-17.66 3.34,-43.64 -6.19,-56.39 -10.65,-14.25 -30.69,-10.73 -51.85,-10.73 -82.98,0 -165.97,0 -248.95,0 -21.56,0 -41.4,-3.41 -51.67,10.86 -9.54,13.25 -5.36,37.68 -5.84,55.86zm333.8 398.57l-0.18 -97.78 -17.03 0.04c-2.74,-0.07 -4.54,0.43 -7.03,1.37 -0.64,0.24 -2.62,1.1 -3.06,1.35 -2.19,1.26 -1.25,0.28 -1.8,1.56 -0.76,5.79 0.41,1.52 -1.98,4.42 -1.02,1.24 -1.88,1.2 -2.7,2.95l-0.57 33.12c-2.79,0 -8.37,0.83 -9.65,-0.88 -0.13,0.08 -1.51,1.02 -1.64,1.1 -1.03,0.58 1.26,0.12 -1,0.37l-4.1 -0.94c-8.42,7.35 -16.83,8.68 -30.95,8.66l-118.34 0c-21.09,0 -49.68,4.59 -60.25,-19.05 -5.5,-12.3 0.44,-19.94 -11.02,-28.48 -10.13,-7.56 -17.23,-5.84 -31.61,-6.04 -2.07,6.23 -0.68,84.63 -0.68,98.09l303.59 0.14zm-191.15 -105.57c1.07,-0.74 0.66,-0.17 0.83,-3.42 0.85,-16.33 0.15,-151.37 -0.38,-155.46 8.41,1.02 72.65,1.13 78.92,-0.42 -1.96,22.15 1.14,145.43 -0.3,155.82 -0.22,1.59 -0.22,1.13 -0.61,2.35l-0.76 -156.96 -75.99 0.33c0,27.45 0,54.91 0,82.36 0,16.43 -0.76,56.52 -0.04,71.95 0.17,3.88 1.04,3.88 0.89,6.29 -0.01,0.11 -0.18,0.69 -0.19,0.57 -0.01,-0.13 -0.07,0.44 -0.23,0.56 5.41,4.93 19.29,2.74 27.55,2.74 10.23,0 20.46,-0.01 30.68,0 23.57,0.01 19.6,0.16 19.6,-42.66 0,-41.17 -0.47,-82.61 0.02,-123.74l-80.37 0.04c-1.31,10.93 -0.5,157.69 0.38,159.65zm-44.44 -272.72c30.85,-7.11 42.89,42.29 9.52,49.32 -15.37,3.24 -27.36,-8.02 -29.63,-19.75 -3.16,-16.29 7.97,-26.77 20.11,-29.57zm-56.55 51.74c13.34,-0.9 45.86,1.03 55.1,-0.19 7.81,-1.04 62.54,1.69 89.84,-1.01l-0.08 -1.05c-16.16,2.23 -29.55,-9.88 -29.47,-24.86 0.04,-9.21 4.57,-15.18 9.24,-19.22 9.01,-7.81 11.12,-3.89 20.6,-6.39l0.59 -1.01 -73.02 -0.51c-7.27,0.02 -9.18,1.62 -16.96,0.37 -5.31,-0.85 -48.07,-0.29 -55.87,-0.35l0.03 54.22zm222.83 17.43l-164.47 0c0.15,19.84 6.45,28.71 26.74,28.65l110.45 0c20.24,0.07 27.24,-8.25 27.28,-28.65zm17.07 -59.99c4.06,5.53 7.14,13.46 4.43,21.59 -7.54,29.91 -55.2,23.58 -48.4,-13.52 -2,2.68 0.85,-0.04 -3.01,2.11 0.35,-6.55 1.95,-5.09 2.63,-8.75 -2.64,-0.55 -3.31,1.67 -3.33,1.71l-2.05 3.59c-0.14,-0.17 -0.47,0.58 -0.76,0.82l0.87 -7 -16.64 0 -0.03 38.57 -15.75 0c-2.11,2.27 -1.75,-3.19 -1.75,3.39 20.3,0.12 41.85,1.25 61.46,-0.77l29.7 0.81c10.62,0.07 21.26,0.01 31.88,0.01l-0.01 -54.13 -53.26 -0.15c2.71,1.9 5.52,2.46 8.38,4.19 5.25,3.17 5.6,4.37 5.64,7.53zm-94.67 -10.16c1.06,0.76 0.2,0.25 1.99,1.1 5.33,2.54 7.49,2.69 12.33,7.89 9.56,10.26 10.68,34 -14.69,41.48l0.08 1.05c2.43,2.03 7.31,1.12 11.17,1.15 0,-6.58 -0.36,-1.12 1.75,-3.39l15.75 0 0.03 -38.57 16.64 0 -0.87 7c0.29,-0.24 0.62,-0.99 0.76,-0.82l2.05 -3.59c0.02,-0.04 0.69,-2.26 3.33,-1.71 -0.68,3.66 -2.28,2.2 -2.63,8.75 3.86,-2.15 1.01,0.57 3.01,-2.11 1.56,-4.35 2.08,-6.2 5.37,-8.21 0.63,-2.82 0.81,-2.3 3.35,-4.24 1.55,-1.19 3.19,-2.44 5.37,-3.36 5.74,-2.42 9.09,-1.19 14.21,-2.46 4.12,-2.26 -2.65,-0.25 -6.67,-0.61 -3.63,-0.34 -5.39,-0.9 -9.72,-0.91 -11.55,-0.04 -56.97,-0.74 -62.02,0.55l-0.59 1.01zm53.09 151.84l0.02 5.23 -1.39 -12.02c7.27,1.83 30.77,0.75 39.93,0.75l-38.26 0.69 -0.3 5.35zm37.64 -8.03l-39.36 0.85 0.04 14.26c9.26,0.7 37.19,0.9 45.35,-0.89 12.14,-2.67 23.52,-11.22 27.57,-19.58 -2.53,-2.47 -2.12,3.82 -2.12,-3.26 4.94,-2.79 2.24,-1.67 0.8,-3.33 -1.47,-1.71 -1.65,-1.42 -4.32,-1.93l0.7 -3.5c0.28,-1.45 0.15,-1.94 0.18,-3.51 -6.96,3.75 -3.18,2.5 -4.45,0.87 -3.79,7.05 -3.28,7.8 -8.73,13.12 -3.44,3.35 -9.49,6.87 -15.66,6.9zm24.39 -20.02c1.27,1.63 -2.51,2.88 4.45,-0.87 -0.03,1.57 0.1,2.06 -0.18,3.51l-0.7 3.5c2.67,0.51 2.85,0.22 4.32,1.93 1.44,1.66 4.14,0.54 -0.8,3.33 0,7.08 -0.41,0.79 2.12,3.26 11.12,-18.92 4.73,-44.58 6.67,-68.35 -4.64,0 -10.37,-0.69 -14.55,0.55 -2.88,12.03 1.14,38.44 -1.33,53.14zm-114.53 -124.8c5.05,-1.29 50.47,-0.59 62.02,-0.55 4.33,0.01 6.09,0.57 9.72,0.91 4.02,0.36 10.79,-1.65 6.67,0.61 0.2,0.15 0.49,0.31 0.65,0.4l1.3 0.72c2.99,1.41 3.7,0.81 7.23,3.34 2.93,2.09 4.28,3.72 6.49,5.74 -0.04,-3.16 -0.39,-4.36 -5.64,-7.53 -2.86,-1.73 -5.67,-2.29 -8.38,-4.19l53.26 0.15 0.01 54.13c-10.62,0 -21.26,0.06 -31.88,-0.01l-29.7 -0.81c-19.61,2.02 -41.16,0.89 -61.46,0.77 -3.86,-0.03 -8.74,0.88 -11.17,-1.15 -27.3,2.7 -82.03,-0.03 -89.84,1.01 -9.24,1.22 -41.76,-0.71 -55.1,0.19l0 0.94 279.77 0c-1.17,-7.43 -1.29,-50.66 0.58,-56.72 -9.28,1.57 -25.56,0.47 -35.71,0.6 -80.17,1.05 -163.36,-0.7 -244.67,-0.05l0 1.01c7.8,0.06 50.56,-0.5 55.87,0.35 7.78,1.25 9.69,-0.35 16.96,-0.37l73.02 0.51zm-145.82 54.67l-0.01 0.85 280.83 -0.01 0.12 -57.8 -280.97 0.02 0 0.77c81.31,-0.65 164.5,1.1 244.67,0.05 10.15,-0.13 26.43,0.97 35.71,-0.6 -1.87,6.06 -1.75,49.29 -0.58,56.72l-279.77 0zm228.26 -34.84c-2.24,-1.23 -5.34,-3.75 -9.92,-2.85 -4.43,1.04 -7.78,3.63 -8.1,8.78 -0.34,5.38 2.2,8.81 5.95,10.07 12.44,4.18 15.03,-7.18 12.07,-16zm-170.94 -2.14c-12.72,6.44 -3.5,23.28 8.46,17.72 10.8,-5.02 3.33,-23.69 -8.46,-17.72zm79.5 -0.14c-11.89,4.87 -5.1,22.82 7.43,18.31 11.08,-3.98 5.7,-23.68 -7.43,-18.31zm104.58 309.41l4.1 0.94c2.26,-0.25 -0.03,0.21 1,-0.37 0.13,-0.08 1.51,-1.02 1.64,-1.1 1.28,1.71 6.86,0.88 9.65,0.88l0.57 -33.12c0.82,-1.75 1.68,-1.71 2.7,-2.95 2.39,-2.9 1.22,1.37 1.98,-4.42 -7.97,3.04 -10.19,9.4 -11.3,20.32 -1.03,10.16 -5.42,14.7 -10.34,19.82zm-140.41 -52.25c1.09,4.04 -0.25,1.93 2.14,3.97 0.16,-0.12 0.22,-0.69 0.23,-0.56 0.01,0.12 0.18,-0.46 0.19,-0.57 0.15,-2.41 -0.72,-2.41 -0.89,-6.29 -0.72,-15.43 0.04,-55.52 0.04,-71.95 0,-27.45 0,-54.91 0,-82.36l75.99 -0.33 0.76 156.96c0.39,-1.22 0.39,-0.76 0.61,-2.35 1.44,-10.39 -1.66,-133.67 0.3,-155.82 -6.27,1.55 -70.51,1.44 -78.92,0.42 0.53,4.09 1.23,139.13 0.38,155.46 -0.17,3.25 0.24,2.68 -0.83,3.42zm191.15 105.57c0.1,-0.22 0.26,-0.49 0.31,-0.66l0.47 -5.86c-0.02,-2.04 -0.01,-4.09 -0.01,-6.13 0,-21.11 0.95,-71.28 -0.22,-85.69 -5.23,-0.61 -13.66,-1.14 -17.76,0.6l17.03 -0.04 0.18 97.78zm-93.52 -232.78l38.26 -0.69c-9.16,0 -32.66,1.08 -39.93,-0.75l1.39 12.02 -0.02 -5.23 0.3 -5.35z"/>
 </g>
</svg>
