<?xml version="1.0" encoding="UTF-8"?>
<!DOCTYPE svg PUBLIC "-//W3C//DTD SVG 1.1//EN" "http://www.w3.org/Graphics/SVG/1.1/DTD/svg11.dtd">
<!-- Creator: CorelDRAW 2019 (64-Bit) -->
<svg xmlns="http://www.w3.org/2000/svg" xml:space="preserve" width="100%" height="100%" version="1.1" style="shape-rendering:geometricPrecision; text-rendering:geometricPrecision; image-rendering:optimizeQuality; fill-rule:evenodd; clip-rule:evenodd"
viewBox="0 0 465.9 465.67"
 xmlns:xlink="http://www.w3.org/1999/xlink">
 <defs>
  <style type="text/css">
   <![CDATA[
    .fil0 {fill:#A6A182}
   ]]>
  </style>
 </defs>
 <g id="Layer_x0020_1">
  <metadata id="CorelCorpID_0Corel-Layer"/>
  <path class="fil0" d="M465.2 453.01c0.84,-3.17 0.97,-69.86 0.1,-74.21 -0.95,-4.81 -4.57,-8.83 -7.81,-10.73 -5.17,-3.04 -10.08,-2.32 -16.54,-2.32 -12.4,0 -24.8,0.03 -37.2,0 -7.34,-0.01 -10.68,0.02 -15.4,4.06 -5.06,4.32 -13.27,13.27 -18.69,18.5 -14.05,13.52 -6.36,10.6 -26.55,10.7 -4.67,0.03 -4.3,-0.5 -6.65,-2.92l-23.09 -23.11c-3.2,-3.22 -5.5,-6.44 -12.2,-7.12 -5.36,-0.55 -13.02,-0.11 -18.63,-0.11l-261.01 0c-11.32,-0.03 -20.95,3.39 -21.27,17.05 -0.28,12.25 0.01,24.91 0.01,37.21 0,8.13 -1.21,30.02 1.52,35.93 5.37,11.67 17.26,9.58 27.54,9.58l411.02 0c6.26,0 11.29,0.72 16.57,-1.94 3.71,-1.87 6.9,-5.41 8.28,-10.57zm-212.33 -367.26c-2.07,-1.1 -6.18,-5.57 -8.22,-7.67 -0.35,-0.36 -0.85,-0.92 -1.19,-1.21l-1.63 -1 -3.49 1.2c-10.89,2.43 -9.41,-0.18 -13.4,-0.27l0 -9.6 -4.8 0c0,-1.31 0.13,-3.06 0.08,-4.28 -0.14,-3.47 0.41,-2.24 -1.28,-2.92l0 -2.4c0.88,0.5 1.53,0.85 2.4,0.3l0.34 -2.12 -20.26 -20.8c-0.97,-0.65 -0.11,-0.22 -0.99,-0.51l-1.26 2.63c-0.06,0.13 -0.13,0.3 -0.19,0.44l-2.84 2.06c-0.45,-1.12 0.25,-1.31 -4.15,-1.25 -1.83,0.02 -3.63,0.05 -5.45,0.05l0 -9.6 -7.2 0c0,-5 0.29,-9.59 -0.6,-14.39l1.52 -0.07c-0.79,-2.53 -10.54,-10.3 -13.44,-14.34l-166.26 0c1.68,2.47 6.1,6.44 8.52,8.85l165.85 165.96c5.37,5.41 12.83,12.1 23.95,5.53 2.64,-1.55 6.59,-6.34 8.85,-8.54l52.89 -52.73c2.9,-2.36 5.39,-6.44 5.59,-11.71 0.32,-8.56 -4.71,-12.39 -9.26,-16.97 -1.28,-1.29 -3.41,-2.98 -4.08,-4.64zm-10.36 75.4l1.63 0.85c0,1.62 -0.07,3.29 -0.06,4.88 0.01,4.04 0.53,3.23 1.26,3.52l0 2.4c-1.57,0.64 -0.84,-0.04 -1.21,1.79l0.01 7.81c-2.93,0 -6.72,-0.41 -9.18,0.42 -3.84,1.29 -3.43,0.78 -8.82,0.78l0 8.4c-3.8,0.09 -2.41,1.23 -4.55,2.5 0.53,1.9 13.84,14.47 15.11,15.74 5.38,5.35 10.24,10.25 15.6,15.6 4.56,4.55 18.85,20.29 24.4,22.42 5.95,2.27 7.74,0.28 12.52,0.37 1.5,-1.52 3.81,-2.62 5.26,-3.89 1.88,-1.64 3,-3.11 4.86,-4.75 2.55,1.25 32.55,31.94 32.68,32.14 1.55,2.35 0.66,74.49 0.66,85.48 0,10.58 -0.58,10.48 3.45,18.83 0.1,0.05 0.23,0.15 0.28,0.19l3.82 3.1c9.09,5.85 21.41,1.66 24.84,-8.59 1.87,-5.57 0.89,-66.28 0.89,-75.33 0,-37.7 3.89,-32.55 -12.37,-48.85 -4.51,-4.51 -27.57,-28.15 -30.43,-30.15 1.76,-4.03 6.47,-5.47 8.56,-11.6 4.09,-11.99 -4.51,-18.28 -11.72,-25.46l-48.26 -47.94c-2.29,1.04 -6.12,5.5 -7.91,7.28 -2.31,2.3 -20.8,19.94 -21.32,22.06zm189.57 125.06c3.45,-13.8 -12.43,-25.69 -25.38,-17.46 -3.13,1.99 -9.78,9.59 -12.74,12.47 -3.29,3.19 -9.23,7.77 -10.85,13.71 -4.1,15.06 13.48,27.13 25.68,17.92 4.28,-3.24 8.83,-8.63 12.77,-12.43 3.58,-3.44 8.87,-7.62 10.52,-14.21zm-199.07 48c0.47,5.68 4.59,10.61 8.05,12.67 5.14,3.07 12.03,2.28 18.68,2.29 8.69,0 16.83,0.25 21.54,-9.63 1.22,-2.55 1.8,-5.71 1.46,-8.95 -1.74,-16.43 -18.5,-14.71 -27.2,-14.72 -7.44,-0.01 -12.05,0.1 -16.86,3.89 -3.11,2.44 -6.18,8.22 -5.67,14.45zm183.03 1.2c0.9,5.65 4.87,9.9 8.83,11.88 5.17,2.58 28.18,4.04 35.64,-2.53 3.16,-2.78 6,-8.85 4.92,-15.24 -2.63,-15.67 -19.07,-13.65 -28.08,-13.66 -7.5,-0.01 -11.66,0.3 -16.18,4.56 -3.57,3.36 -6.23,8.06 -5.13,14.99zm-138.13 -69.17l-1.65 1.08c-0.13,0.07 -0.28,0.14 -0.41,0.21 -1.52,0.84 -3.09,1.53 -3.91,2.94 0.96,4.05 0.9,12.8 -0.44,16.17l-4.21 0.18 -0.56 -7.92 -0.3 7.3c2.05,4.19 2.03,5.63 4.92,8.8 4.25,4.66 17.35,18.08 22.15,19.83 8.61,3.12 16.88,-1.35 20.04,-6.63 1.87,-3.15 3.01,-7.24 2.37,-11.47 -0.68,-4.5 -3.44,-6.86 -4.21,-9.45 -1.29,-0.64 -1.15,-0.54 -2.15,-0.77l-4.8 0.07c-0.63,-1.07 -0.88,-0.94 -1.69,-1.65 -2.37,-2.11 -4.21,-7.05 -2.22,-7.16l0.29 -0.87c-0.57,-0.34 0.22,0.28 -0.9,-0.64 -0.52,-0.43 -0.71,-0.62 -1.2,-1.11 -1.37,-1.36 -1.04,-1.35 -2.67,-2.31 1.14,12.25 2.18,14.28 -3.61,13.86 -0.4,-2.31 -0.41,-5.05 -0.38,-7.75 0.04,-3.5 0.28,-4.39 -3.3,-4.28 -1.03,3.22 0.71,7.94 -1.11,11.61 -8.79,1.14 0.86,-13.24 -7.22,-11.33 -1.8,3.19 0.12,7.92 -1.59,11.31 -5.05,0.5 -3.86,-2.89 -3.79,-7.27 0.21,-13.24 8.67,-8.54 10.44,-8.25 2.09,0.35 2.25,-1.99 8.23,-0.46 -1.85,-1.36 -3.85,-2.94 -6.84,-3.7 -3.83,-0.97 -6.2,-0.02 -9.28,-0.34zm-56.32 -71.74c2.14,-1.27 0.75,-2.41 4.55,-2.5l0 -8.4c5.39,0 4.98,0.51 8.82,-0.78 2.46,-0.83 6.25,-0.42 9.18,-0.42l-0.01 -7.81c0.37,-1.83 -0.36,-1.15 1.21,-1.79l0 -2.4c-0.73,-0.29 -1.25,0.52 -1.26,-3.52 -0.01,-1.59 0.06,-3.26 0.06,-4.88l-1.63 -0.85c-3.26,1.46 -20.55,19.92 -24.28,23.54 -1.53,1.47 -2.23,1.87 -3.08,3.71 1.62,2.33 3.88,4.83 6.44,6.1zm-21.16 -160.03c-1.39,-2.81 -18.18,-19.22 -20.17,-20.13l-1.52 0.07c0.89,4.8 0.6,9.39 0.6,14.39l7.2 0 0 9.6c1.82,0 3.62,-0.03 5.45,-0.05 4.4,-0.06 3.7,0.13 4.15,1.25l2.84 -2.06c0.06,-0.14 0.13,-0.31 0.19,-0.44l1.26 -2.63zm41.4 41.4c-1.28,-2.56 -7.63,-8.17 -9.78,-10.38 -2.51,-2.56 -7.5,-8.35 -10.37,-9.71l-0.34 2.12c-0.87,0.55 -1.52,0.2 -2.4,-0.3l0 2.4c1.69,0.68 1.14,-0.55 1.28,2.92 0.05,1.22 -0.08,2.97 -0.08,4.28l4.8 0 0 9.6c3.99,0.09 2.51,2.7 13.4,0.27l3.49 -1.2zm34.94 209.56c-0.08,-3.52 -0.8,-8.97 1.03,-11.82 3.09,-4.82 5.91,-1.01 8.77,-1.42 3.12,-0.46 6.78,-3.04 8.64,2.52 0.26,0.78 1.52,9.56 -0.67,10.83 -0.91,-1.07 -0.87,-1.88 -0.89,-4.11 -0.06,-6.13 1.13,-8.21 -5.47,-8.2 -1.59,6.14 0.19,9.07 -1.44,12.06 -3.85,-2.75 1.35,-9.63 -4.2,-12.16 -5.08,-0.67 -3.73,7.14 -3.87,8.93 -0.32,4.37 0.35,2.34 -1.9,3.37zm19.59 -12.59c-0.44,-1.29 0.58,0.05 -0.82,-1.45 -1.04,-1.1 -0.57,-0.54 -1.51,-1.11 -5.98,-1.53 -6.14,0.81 -8.23,0.46 -1.77,-0.29 -10.23,-4.99 -10.44,8.25 -0.07,4.38 -1.26,7.77 3.79,7.27 1.71,-3.39 -0.21,-8.12 1.59,-11.31 8.08,-1.91 -1.57,12.47 7.22,11.33 1.82,-3.67 0.08,-8.39 1.11,-11.61 3.58,-0.11 3.34,0.78 3.3,4.28 -0.03,2.7 -0.02,5.44 0.38,7.75 5.79,0.42 4.75,-1.61 3.61,-13.86zm-19.59 12.59c2.25,-1.03 1.58,1 1.9,-3.37 0.14,-1.79 -1.21,-9.6 3.87,-8.93 5.55,2.53 0.35,9.41 4.2,12.16 1.63,-2.99 -0.15,-5.92 1.44,-12.06 6.6,-0.01 5.41,2.07 5.47,8.2 0.02,2.23 -0.02,3.04 0.89,4.11 2.19,-1.27 0.93,-10.05 0.67,-10.83 -1.86,-5.56 -5.52,-2.98 -8.64,-2.52 -2.86,0.41 -5.68,-3.4 -8.77,1.42 -1.83,2.85 -1.11,8.3 -1.03,11.82zm-8.83 -11.17l-1.21 4.64 0.56 7.92 4.21 -0.18c1.34,-3.37 1.4,-12.12 0.44,-16.17 -2.85,1.59 -1.58,1.87 -4,3.79zm41.61 12.25c-0.77,-2.53 -2.1,-3.07 -3.9,-4.81 -1.89,-1.82 -2.21,-3.02 -4.81,-3.93 -1.99,0.11 -0.15,5.05 2.22,7.16 0.81,0.71 1.06,0.58 1.69,1.65l4.8 -0.07z"/>
 </g>
</svg>
