<?xml version="1.0" encoding="UTF-8"?>
<!DOCTYPE svg PUBLIC "-//W3C//DTD SVG 1.1//EN" "http://www.w3.org/Graphics/SVG/1.1/DTD/svg11.dtd">
<!-- Creator: CorelDRAW 2019 (64-Bit) -->
<svg xmlns="http://www.w3.org/2000/svg" xml:space="preserve" width="100%" height="100%" version="1.1" style="shape-rendering:geometricPrecision; text-rendering:geometricPrecision; image-rendering:optimizeQuality; fill-rule:evenodd; clip-rule:evenodd"
viewBox="0 0 414.98 465.66"
 xmlns:xlink="http://www.w3.org/1999/xlink">
 <defs>
  <style type="text/css">
   <![CDATA[
    .fil0 {fill:#A6A182}
   ]]>
  </style>
 </defs>
 <g id="Layer_x0020_1">
  <metadata id="CorelCorpID_0Corel-Layer"/>
  <path class="fil0" d="M258.1 248.07c0.54,-6.33 -5.74,-8.99 -8.55,-17.05l-6.82 -5.27 -14.51 14.97 -0.91 15.67 -12.18 0.6 -0.51 -2.83c-11.47,9.17 -26.83,26.31 -38.01,37.51 -8.01,8.02 -28.96,32.6 -39.83,35.17 -5.91,-0.22 -56.64,-52.62 -63.63,-60.34l-3.73 1.29c-4.18,0.57 -6.72,-0.98 -7.91,-1.3l-3.19 -0.83c7.11,12.15 55.61,53.75 61.22,62.14l-6.35 6.12c-4.25,-2.35 -40.07,-39.78 -47.15,-46.72 -8.36,-8.23 -15.29,-15.27 -23.61,-23.57 -18.93,-18.9 -19.44,-15.86 -10.12,-22.61 4.94,2.1 1.72,0.51 5.46,3.66 1.21,1.02 -0.22,0.73 2.83,2.77 1.99,-2.21 0.88,0.46 1.57,-4.15 0.19,-1.27 0.01,-5.03 0.01,-6.44 -11.44,-17.81 -20.77,-4.53 34.25,-58.84 5.61,-5.53 38.6,-40.22 43.86,-43.26l6.96 17.67c-5.83,7.68 -10.7,10.18 -14.85,22.79 -9.33,28.34 11.04,56.98 42.06,58.08l-0.83 -9.84c-42.26,-4.74 -42.14,-56.13 -12.79,-65.18 -4.95,-14.18 -10.23,-17.08 -12.15,-36.25 -1.53,-15.33 -0.95,-31.92 -0.87,-47.45l35.18 0.86c-0.28,29.85 -1.96,49.98 11.15,74.98 11.81,22.53 23.53,34.37 6.95,61.4l10.19 1.63c9,-12.09 9.85,-29.24 3.96,-45.39 -5.17,-14.13 -14.83,-21.01 -18.03,-37.52l86.81 85.85 11.25 -5.31c-10.32,-17.68 -29.34,-26.57 -35.39,-33.32 20.4,1.38 54.85,16.15 71.09,29.63 4.47,3.71 2.6,3.27 7.79,5.79l11.67 -0.07c0.06,1.61 0.34,5.32 0.11,6.73 -0.68,4.07 -0.6,1.97 -1.92,3.87 2.18,3.1 4.63,6.69 6.69,9.45 2.73,-2.71 0.46,0.37 2.98,-4.06 0.35,-0.6 1.64,-3.58 2.07,-4.55 1.57,-3.62 2.53,-6.09 3.76,-10 -2.21,-4.3 -15.59,-17.09 -20.06,-20.28 -25.98,-18.52 -49.29,-30.33 -84.16,-35.43 -13.83,-2.02 -30.35,-22.87 -44.21,-36.69 -19.08,-19.03 -14.37,-14.36 -14.33,-65.55l-25.4 -0.76 0.12 -55.84 -20.96 0.31 -0.24 55.94 -25.32 0.09c-1.66,75.98 12.49,49.67 -36.43,98.17 -11.69,11.6 -22.13,22 -33.83,33.57 -10.97,10.86 -25.84,18.93 -23.53,44.17l-15.78 16.75c7.82,5.27 106.22,106.45 113.19,111.03 5.97,-4.08 11.53,-13.97 18.75,-15.03 13.36,-1.98 14.4,1.6 24.07,-8.2l80.3 -79.85c15.07,-15.97 7.91,-4.9 21.79,-8.88zm110.65 -12.53c2.04,6.22 4.92,12.99 9.9,16.87l17.92 -17.18 -0.05 212.16 -163.32 -0.36c0,-13.93 -0.25,-28.09 -0.09,-41.99 0.13,-11.79 3.4,-11.38 16.1,-23.9 14.28,-14.08 27.21,-27.06 41.36,-41.22 14.15,-14.16 27.02,-27.21 41.39,-41.16l41.26 -41.64 -7.27 -0.44c-1.17,-3.76 -2.58,-9.27 -6.61,-10.47 -6.37,2.69 -80.83,78.89 -92.38,90.32 -57.19,56.61 -52.04,42.16 -52.13,83.81 -0.03,14.75 -0.44,30.26 0.17,45.32l199.91 -0.09 0.07 -274.66c-6.5,3.16 -40.73,37.79 -46.23,44.63zm-99.95 6.57c8.76,10.54 -2.21,25.05 -4.92,35.84 -4.7,18.69 0.53,24.96 3.81,40.53 7.36,-4 14.51,-9.82 13.66,-20.31 -2.64,-32.5 22.73,-32.19 -2.62,-81.5 -1.58,1.13 -1.46,0.83 -3.07,2.25l-11.48 16.18 4.62 7.01zm-130 -47.55c5.81,17.77 36.56,12 31.88,-9.87 -4.36,-20.33 -39.51,-13.5 -31.88,9.87zm125.23 21.83c2.34,4.64 1.12,4.05 -3.87,8.83 -3.78,3.62 -4.25,4.79 -10.61,5.8 2.81,8.06 9.09,10.72 8.55,17.05l10.7 -5.96 -4.62 -7.01 11.48 -16.18c1.61,-1.42 1.49,-1.12 3.07,-2.25l-3.45 -5.59 -11.25 5.31zm-110.4 7.07l0.83 9.84c7.69,-0.72 15.79,-1.27 22.61,-4.98 6.65,-3.62 9.02,-9.17 14.22,-14.87l-10.19 -1.63 -2.67 2.48c-8.28,7.4 -13.68,8.56 -24.8,9.16zm173.28 38.04c1.75,-1.98 2.89,-3 4.7,-5.01 0.68,-10.53 -7.5,-22.47 -12.95,-28.13 -4.9,-5.09 -17.24,-18.1 -22.5,-20.02 4.51,6.85 11.87,10.51 17.77,24.73 0.9,2.16 12.34,27.72 12.98,28.43zm-286.31 -14.05c2.51,2.73 5.37,5.71 8.76,9.27l3.75 4.74c5.03,6.86 0.37,3.5 5.21,4.2l3.19 0.83c1.19,0.32 3.73,1.87 7.91,1.3l3.73 -1.29 -8.08 -6.96c-3.6,-3.64 -3.82,-5.27 -6.62,-8.49l-16.27 -14.19c0,1.41 0.18,5.17 -0.01,6.44 -0.69,4.61 0.42,1.94 -1.57,4.15zm294.72 -14.29l6.91 11.66c5.56,-4.08 8.23,-6.03 13.6,-11 -2.04,-10.01 -2.36,-7.1 -11.7,-19.27 -1.23,3.91 -2.19,6.38 -3.76,10 -0.43,0.97 -1.72,3.95 -2.07,4.55 -2.52,4.43 -0.25,1.35 -2.98,4.06zm24.02 13.05c4.03,1.2 5.44,6.71 6.61,10.47l7.27 0.44c0.67,-0.46 0.87,-0.28 2.75,-1.95 1.77,-1.58 1.61,-1.63 2.68,-2.76 -4.98,-3.88 -7.86,-10.65 -9.9,-16.87 -0.35,0.29 -0.88,0.28 -1.03,0.86l-8.38 9.81zm-144.72 7.95l0.51 2.83 12.18 -0.6 0.91 -15.67 -12.81 12.38c-0.14,-0.29 -0.53,0.7 -0.79,1.06zm114.01 -30.45c1.32,-1.9 1.24,0.2 1.92,-3.87 0.23,-1.41 -0.05,-5.12 -0.11,-6.73l-11.67 0.07c3.45,3.68 6.34,6.41 9.86,10.53z"/>
 </g>
</svg>
