<?xml version="1.0" encoding="UTF-8"?>
<!DOCTYPE svg PUBLIC "-//W3C//DTD SVG 1.1//EN" "http://www.w3.org/Graphics/SVG/1.1/DTD/svg11.dtd">
<!-- Creator: CorelDRAW 2019 (64-Bit) -->
<svg xmlns="http://www.w3.org/2000/svg" xml:space="preserve" width="100%" height="100%" version="1.1" style="shape-rendering:geometricPrecision; text-rendering:geometricPrecision; image-rendering:optimizeQuality; fill-rule:evenodd; clip-rule:evenodd"
viewBox="0 0 521.7 465.68"
 xmlns:xlink="http://www.w3.org/1999/xlink">
 <defs>
  <style type="text/css">
   <![CDATA[
    .fil0 {fill:#A6A182}
   ]]>
  </style>
 </defs>
 <g id="Layer_x0020_1">
  <metadata id="CorelCorpID_0Corel-Layer"/>
  <path class="fil0" d="M252.53 378.8l-0.23 0.36c-0.35,-15.59 -0.17,-10.29 3.67,-13.38 0,4.93 0.3,9.99 -0.38,14.83 -2.4,17.1 -4.29,-3.6 -4.29,35.88l-16.48 0.02c-3.29,-1.06 -0.06,1.09 -1.59,-1.79l-4.49 0.87c-0.27,0.18 -0.72,0.43 -1.08,0.65 -5.05,-2.12 -0.4,0.92 -2.65,-2.04 -6.79,2.06 -4.92,11.41 -4.9,19.28 0.02,7.7 -0.47,15.98 0.17,23.39l0.01 -38.16c2.2,1.78 4.12,0.69 3.81,11.08l-0.23 22.22c0.11,5.38 1.48,5.6 3.38,8.95 3,-5.42 5.36,-3.28 21.34,-3.28l181.76 0c0,-7.73 -0.6,-18.07 -0.05,-25.48 0.81,-10.93 3.58,2.18 1.6,-7.58 -0.7,-3.44 -2.33,-6.12 -4.82,-7.15 3.9,-5.1 -3.35,-2.21 3.69,-3.69 -0.78,-0.41 -2.07,-0.31 -2.64,-3.48l0.03 -1.74c0,-0.18 0.03,-0.62 0.15,-0.9 -0.53,-4.33 -23.43,-24.62 -22.23,-51.75 0.49,-11.08 2.41,-21.41 6.15,-30.81 2.52,-6.35 9.06,-21.62 13.81,-23.75 1.75,-5.97 7.62,-9.51 10.04,-14.76 -0.19,-0.19 -0.92,0.36 -1.17,-1.15 -0.16,-0.89 -0.25,-1.43 -0.45,-2.13l13.54 -10.11c5.68,-3.72 3.29,-3.11 3.67,-4.51 1.25,-4.56 0.62,-6.09 6.25,-6.52l11.18 -0.12c6.46,1.16 -0.62,-1.59 2.3,1.14 5.55,0.24 14.84,-3.94 21.26,-5.24 4.86,-0.97 20.67,-1.28 23.04,-2.9 -0.77,-1.88 0.81,-5.65 1,-6.68l0.23 -28.66c-7.35,0 -260.63,0.88 -265.18,-0.36 -7.51,-2.03 -16.76,-10.25 -17.54,9.72l0.02 96.5c-2.35,0.14 -4.16,0.32 -6.55,0.34 -11.82,0.09 0.2,2.09 -7.39,-0.75l-0.04 -108.33c-2.26,28.96 -0.04,67.09 -0.16,97.25 -0.13,33.3 18.14,12.91 29.23,44.79 2.28,6.56 1.42,13.79 3.21,19.93zm-56.75 -302.29c6.63,11.41 -0.11,35.89 19.26,33.16 14.12,-1.99 30.5,-6.11 45.38,-8.92l226.59 -44.25c9.3,-1.81 13.36,-1.65 19.49,-7.63 4.62,-4.5 8.66,-10.31 7.47,-19.14 -4.3,-40.71 -40.44,-25.47 -71.83,-19.53l-219.47 42.94c-31.69,6.27 -29.68,2.65 -26.89,23.37zm-194.51 150.18l3.6 -1.23c3.38,8.62 20.3,21.11 23.61,24.48 4.73,4.8 0.88,5.37 8.39,6.29 -1.22,4.38 1.41,3.41 -1.23,3.86 0.38,3.69 17.25,14.37 20.31,16.46 7.09,4.86 14.33,9.73 22.85,14.08 10.63,5.43 41.57,21.6 53.01,20.56 4.09,-3.49 7.6,-0.82 15.78,-0.34 3.31,0.2 6.3,0.39 9.6,0.71 4.41,0.43 -0.82,0.72 4.1,0.23 2.27,-0.22 3.48,-0.95 3.57,-0.98 9.06,-2.46 27.05,0.56 36.96,0.56l0.1 -83.51c-0.07,-1.75 -0.34,-4.03 -0.4,-5.59 -0.02,-0.4 -0.05,-1.51 -0.04,-1.86l0.34 -2.46c-2.38,-3.43 -94.06,-1.21 -105.86,-1.21 -7.21,0 -88.91,-1.79 -93.35,1.57 -2.32,1.76 -3.79,5.77 -1.34,8.38zm183.99 -142.32c-2.97,-2.75 -3.38,-10.35 -4.81,-14.72 -5.37,-16.39 -26.18,-41.45 -37.07,-57.79 -6.21,-9.31 -11.24,-12.39 -26.49,-11.78 -8.11,3.84 -11.12,3.42 -15.74,10.25 -4.84,7.15 -12.83,56.94 -13.73,66.3 -1.27,13.21 12.36,79.17 17.6,89.26 6.93,13.32 19.84,17.04 38.66,12.64 11.97,-2.79 33.5,-5.37 41.37,-11.69 26.21,-21.04 -1.26,-56.07 0.21,-82.47zm34.99 132.46l0.04 108.33c7.59,2.84 -4.43,0.84 7.39,0.75 2.39,-0.02 4.2,-0.2 6.55,-0.34l-0.02 -96.5c0.78,-19.97 10.03,-11.75 17.54,-9.72 4.55,1.24 257.83,0.36 265.18,0.36l-0.23 28.66c-0.19,1.03 -1.77,4.8 -1,6.68 4.55,-1.38 5.68,-2.95 6,-8.68l-0.07 -29.41c-0.51,-5.56 -2.9,-6.42 -5.77,-9.24 -14.57,1.73 -228.05,0.36 -266.04,0.36 -21.47,0 -26.98,-2.89 -29.57,8.75zm0.03 240.04c1.72,7.81 3.11,8.44 12.23,8.51 29.83,0.21 199.04,0.79 203.63,-0.64 10.71,-3.35 5.32,-46.66 4.38,-48.4 -1.38,-2.53 -2.72,-3.09 -5.22,-4.69l-4.22 -3.41 -2.77 -0.58c-0.12,0.28 -0.15,0.72 -0.15,0.9l-0.03 1.74c0.57,3.17 1.86,3.07 2.64,3.48 -7.04,1.48 0.21,-1.41 -3.69,3.69 2.49,1.03 4.12,3.71 4.82,7.15 1.98,9.76 -0.79,-3.35 -1.6,7.58 -0.55,7.41 0.05,17.75 0.05,25.48l-181.76 0c-15.98,0 -18.34,-2.14 -21.34,3.28 -1.9,-3.35 -3.27,-3.57 -3.38,-8.95l0.23 -22.22c0.31,-10.39 -1.61,-9.3 -3.81,-11.08l-0.01 38.16zm-88.47 -145.68c8.1,7.22 60.21,12.18 72.73,9.2 3.79,-8.92 1.93,-61.69 1.93,-78.93 0,-14.59 2.22,-20.25 -4.65,-23.51l-0.34 2.46c-0.01,0.35 0.02,1.46 0.04,1.86 0.06,1.56 0.33,3.84 0.4,5.59l-0.1 83.51c-9.91,0 -27.9,-3.02 -36.96,-0.56 -0.09,0.03 -1.3,0.76 -3.57,0.98 -4.92,0.49 0.31,0.2 -4.1,-0.23 -3.3,-0.32 -6.29,-0.51 -9.6,-0.71 -8.18,-0.48 -11.69,-3.15 -15.78,0.34zm120.72 67.61l-1 1.93c-3.22,7.38 -4.45,18.12 -17.4,27.17 -3.7,2.58 -6.16,3.03 -9.12,6.3 2.25,2.96 -2.4,-0.08 2.65,2.04 0.36,-0.22 0.81,-0.47 1.08,-0.65l4.49 -0.87c1.53,2.88 -1.7,0.73 1.59,1.79l16.48 -0.02c0,-39.48 1.89,-18.78 4.29,-35.88 0.68,-4.84 0.38,-9.9 0.38,-14.83 -3.84,3.09 -4.02,-2.21 -3.67,13.38l0.23 -0.36zm183.55 -92.21c6.51,-3.18 10.27,-9.61 17.61,-11.79 2.38,-4.7 10.84,-6.62 15.47,-9.75 2.89,-1.96 0.72,-0.28 2.24,-1.86 -2.92,-2.73 4.16,0.02 -2.3,-1.14l-11.18 0.12c-5.63,0.43 -5,1.96 -6.25,6.52 -0.38,1.4 2.01,0.79 -3.67,4.51l-13.54 10.11c0.2,0.7 0.29,1.24 0.45,2.13 0.25,1.51 0.98,0.96 1.17,1.15zm-434.81 -59.9c4.28,7.85 9.82,12.6 15.84,18.53 3.2,3.15 5.86,4.31 8.74,7.28 4.83,4.97 3.25,4.79 9.79,7.59 2.64,-0.45 0.01,0.52 1.23,-3.86 -7.51,-0.92 -3.66,-1.49 -8.39,-6.29 -3.31,-3.37 -20.23,-15.86 -23.61,-24.48l-3.6 1.23z"/>
 </g>
</svg>
