<?xml version="1.0" encoding="UTF-8"?>
<!DOCTYPE svg PUBLIC "-//W3C//DTD SVG 1.1//EN" "http://www.w3.org/Graphics/SVG/1.1/DTD/svg11.dtd">
<!-- Creator: CorelDRAW 2019 (64-Bit) -->
<svg xmlns="http://www.w3.org/2000/svg" xml:space="preserve" width="100%" height="100%" version="1.1" style="shape-rendering:geometricPrecision; text-rendering:geometricPrecision; image-rendering:optimizeQuality; fill-rule:evenodd; clip-rule:evenodd"
viewBox="0 0 584.79 465.67"
 xmlns:xlink="http://www.w3.org/1999/xlink">
 <defs>
  <style type="text/css">
   <![CDATA[
    .fil0 {fill:#A6A182}
   ]]>
  </style>
 </defs>
 <g id="Layer_x0020_1">
  <metadata id="CorelCorpID_0Corel-Layer"/>
  <path class="fil0" d="M388.85 260.16c6.74,-35.4 -5.72,-63.8 -24.47,-78.24 -32.86,-25.31 -46.23,-6.95 -74.67,-7.17 -31.85,-0.24 -42.97,-18.84 -76.34,11.5 -17.72,16.12 -26.91,40.33 -21.66,74.68l197.14 -0.77zm-217.7 -30.25c6.99,-12.13 8.31,-22.82 16.21,-35.67 15.09,-24.55 9.64,-1.12 18.82,-30.56 -19.66,-9.69 -28.69,-27.02 -57.01,-25.65 -18.66,0.9 -15.44,5.54 -34.26,5.27 -15.83,-0.22 -103.17,-35.56 -99.73,86.71l155.97 -0.1zm236.85 0.57l157.99 -1.12c3.84,-119.64 -83.95,-84.46 -106.13,-86.38 -16.07,-1.4 -13.37,-6.26 -34.68,-4.92 -25.24,1.59 -40.01,17.01 -49.9,28.53 14.2,31.3 8.39,-5.44 32.72,63.89zm-178.37 -125.84c12,71.97 131.7,62.8 122.51,-22.08 -8.38,-77.35 -137.85,-69.99 -122.51,22.08zm174.43 -33.84c8.3,73.56 136.91,69.81 122.47,-21.71 -11.59,-73.47 -132.03,-63.05 -122.47,21.71zm-348.76 5.64c15.8,68.79 141.34,56.91 120.31,-32.05 -16.3,-68.92 -140.4,-55.34 -120.31,32.05zm167.99 301.06c0.64,0.96 1.21,2.58 1.55,3.1l37.3 34.47 -14.24 50.6c23.57,-8.09 26.16,-19.29 47.31,-27.66 18.08,11.17 23.25,18.99 45.26,27.35l-14.33 -50.55c20.65,-21.68 33.57,-20.48 39.16,-36.69l-52.93 -1.29 -17.16 -46.93c-11.75,11.22 -14.26,30.2 -22.54,47.32l-49.38 0.28zm139.82 -13.13c11.22,6.22 15.29,4.73 25.69,10.03 -14.72,11.42 -24.89,20.57 -23.77,49.37 13.83,-5.63 26.19,-17.51 42.97,-26.6 18.12,11.38 20.75,15.53 43.81,26.28l-13.97 -48.12c16.51,-19.23 21.93,-12.22 37.86,-35.32l-49.2 -0.6 -20.83 -46.37 -17.73 46.18 -50.36 -0.13c5.7,9.68 10.34,16.86 25.53,25.28zm-213.35 11.03l-10.89 48.41c16.82,-8.24 22.98,-16.97 43.55,-26.3 17.92,10.06 19.74,15.96 42.17,26.28 -7.21,-28.46 -6.08,-30.53 -24.49,-48.46l6.98 -3.66c22.91,-11.58 27.94,-11.43 42.24,-31.46l-49.01 -0.74 -18.75 -46.67c-36.37,40.57 22.15,48.1 -70.21,46.33 9.67,17.46 18.27,17.54 38.41,36.27zm-123.96 5.68c24.36,-5.36 18.63,-13.41 43.84,-23.16 14.36,8.14 23.05,17.42 39.56,24.2 -3.91,-21.8 -7.7,-30.01 -19.42,-46.27 16.4,-9.14 31.87,-13.15 42.36,-32.75l-46.7 -1.41 -16 -43.71c-10.98,11.7 -12.94,25.01 -18.41,44.05l-51.03 0.65c8.23,13.46 22.25,18.78 38.48,33.47l-12.68 44.93zm429.38 -77c9.38,16.45 24.66,21.58 41.96,31.77 -13.79,14.28 -11.71,20.29 -18.85,43.72 16.48,-0.84 27.45,-12.83 42.5,-22.26 15.83,9.31 23.49,16.27 41.5,25.29l-12.26 -46.75c18.75,-21.12 21.54,-7.85 34.76,-33.18l-47.79 -0.05 -18.71 -44.21 -14.64 43.84 -48.47 1.83z"/>
 </g>
</svg>
