<?xml version="1.0" encoding="UTF-8"?>
<!DOCTYPE svg PUBLIC "-//W3C//DTD SVG 1.1//EN" "http://www.w3.org/Graphics/SVG/1.1/DTD/svg11.dtd">
<!-- Creator: CorelDRAW 2019 (64-Bit) -->
<svg xmlns="http://www.w3.org/2000/svg" xml:space="preserve" width="100%" height="100%" version="1.1" style="shape-rendering:geometricPrecision; text-rendering:geometricPrecision; image-rendering:optimizeQuality; fill-rule:evenodd; clip-rule:evenodd"
viewBox="0 0 667.86 465.67"
 xmlns:xlink="http://www.w3.org/1999/xlink">
 <defs>
  <style type="text/css">
   <![CDATA[
    .fil0 {fill:#A6A182}
   ]]>
  </style>
 </defs>
 <g id="Layer_x0020_1">
  <metadata id="CorelCorpID_0Corel-Layer"/>
  <path class="fil0" d="M159.34 261.04c17.04,-3.97 18.51,-12.58 37.29,-16.95 0.49,21.88 21.9,27.35 62.07,49.8 12.77,7.14 65.71,40.24 74.06,40.72 6.78,0.39 29.83,-14.09 37.44,-18.66 12.95,-7.77 23.58,-13.78 36.44,-21.19l54.1 -30.65c8.38,-5.46 10.18,-6.14 10.49,-20.02 10.94,2.91 31.58,15.2 37.29,23.73l-176.28 98.31 -172.9 -105.09zm159.33 -57.64l16.18 17.73c7.37,-10.62 7.64,-5.33 10.95,-17.73 8.92,2.39 22.34,10.43 27.12,16.95 -10.16,2.37 -12.84,4.4 -21.04,9.48 -7.64,4.73 -12.12,6.88 -19.64,10.86 -8.16,-5.46 -27.48,-17.71 -37.29,-20.34 8.15,-12.17 10.93,-10.18 23.72,-16.95zm-40.68 6.78l0 33.91c16.34,4.36 46.68,31.15 59.02,27.92 0.86,-0.23 23.89,-13.58 27.7,-15.79 27.3,-15.85 25.16,-10.97 25.16,-39.25 0,-12.33 -21.02,-14.18 -30.51,-27.13 14.91,-9.98 9.83,-5.14 46.3,14.72 15.27,8.33 32.4,22.19 48.62,25.96 -7.15,9.76 -116.47,71.2 -122.04,71.2 -1.5,0 -109.84,-58.03 -118.66,-71.2l71.88 -40.34c13.6,-8.49 13.79,-10.76 23.04,3.05 -11.71,6.21 -19.65,9.69 -30.51,16.95zm-135.6 44.08l0 37.29 189.85 108.48 172.3 -98.9c22.72,-13.27 20.93,-7.97 20.93,-36.7 0,-13.47 -93.93,-60.74 -109.55,-70.13 -10.28,-6.18 -29.19,-18.63 -39.61,-21.41 14.92,-22.29 13.56,-9.95 13.56,-47.46l257.64 145.78c-5.59,7.64 -62.35,39 -75.62,46.42 -19.22,10.73 -229.52,136.18 -239.13,135.63 -7.34,-0.42 -68.28,-36.59 -78.69,-42.86 -26.61,-16.05 -52.03,-29.41 -79.74,-45.7 -12.24,-7.19 -151.72,-85.77 -157.37,-93.49 11.59,-2.7 201.75,-114.49 226.96,-129.01 10.89,-6.26 23.62,-13.16 34.07,-20.16 0,60.24 3.69,26.56 10.17,50.85 -18.46,9.77 -131.16,77.96 -145.77,81.37zm230.53 -216.97l-38.47 22.06c-8.29,1.07 -13.04,-4.45 -19.32,-8.25 -6.67,-4.06 -13.42,-6.85 -20.18,-10.42 5.79,-7.92 27.42,-22.13 37.81,-22.72 11.02,-0.63 26.15,15.59 40.16,19.33zm-94.93 -6.79l0 81.37c-11.23,3 -23.81,13.05 -35.06,19.18l-105.37 60.74c-24.63,14.56 -46.04,27.37 -70.91,40.96 -12.95,7.08 -21.88,12.02 -34.7,19.55 -15.31,8.98 -28.73,13.64 -31.95,25.69 25.47,5.93 321.75,189.05 334.99,187.67 0.09,-0.01 325.19,-183.98 332.87,-194.45l-277.99 -159.34 0 -81.37c-18.35,-9.7 -37.48,-19.28 -54.24,-30.5 -13,3.02 -18.51,8.44 -29.47,14.6 -10.82,6.08 -18.3,10.68 -28.17,15.9z"/>
 </g>
</svg>
