<?xml version="1.0" encoding="UTF-8"?>
<!DOCTYPE svg PUBLIC "-//W3C//DTD SVG 1.1//EN" "http://www.w3.org/Graphics/SVG/1.1/DTD/svg11.dtd">
<!-- Creator: CorelDRAW 2019 (64-Bit) -->
<svg xmlns="http://www.w3.org/2000/svg" xml:space="preserve" width="100%" height="100%" version="1.1" style="shape-rendering:geometricPrecision; text-rendering:geometricPrecision; image-rendering:optimizeQuality; fill-rule:evenodd; clip-rule:evenodd"
viewBox="0 0 740.27 846.68"
 xmlns:xlink="http://www.w3.org/1999/xlink">
 <defs>
  <style type="text/css">
   <![CDATA[
    .fil0 {fill:#FF4612}
   ]]>
  </style>
 </defs>
 <g id="Layer_x0020_1">
  <metadata id="CorelCorpID_0Corel-Layer"/>
  <g id="_3026091251696">
   <path class="fil0" d="M327.58 374.04c0,-5.71 7.66,-10.58 14.11,-10.58l146.38 0c6.39,0 9.85,1.48 14.11,3.53 1.44,6.18 4.26,19.4 -7.05,19.4l-155.2 0c-8.24,0 -12.35,-4.11 -12.35,-12.35zm0 -52.9c0,-4.5 3.81,-10.59 8.82,-10.59 28.23,0 147.53,-2.49 165.78,1.77 1.44,6.17 4.26,19.4 -7.05,19.4l-158.73 0c-5.01,0 -8.82,-6.09 -8.82,-10.58zm-75.84 65.25c-9.04,0 -44.09,-24.15 -44.09,-31.75 0,-7.12 3.84,-12.34 10.59,-12.34 11.07,0 17.8,13.03 29.98,15.87 5.79,-8.64 11.31,-16.12 17.26,-25.06 12.9,-19.34 13.39,-22.56 25.06,-22.56 5.01,0 8.82,6.09 8.82,10.59 0,4.22 -39.63,65.25 -47.62,65.25zm75.84 -148.15c0,-7.24 9.7,-10.58 17.64,-10.58l142.85 0c6.39,0 9.85,1.48 14.11,3.53 1.44,6.18 4.26,19.4 -7.05,19.4l-158.73 0c-5.7,0 -8.82,-6.4 -8.82,-12.35zm0 -52.9c0,-4.5 3.81,-10.59 8.82,-10.59l158.73 0c11.31,0 8.49,13.23 7.05,19.4 -18.25,4.26 -137.55,1.77 -165.78,1.77 -5.01,0 -8.82,-6.09 -8.82,-10.58zm-75.84 65.25c-10.14,0 -16.93,-7.56 -25.4,-13.4 -4.55,-3.15 -5.69,-4.32 -10.27,-7.36 -16.93,-11.2 -5.33,-23.33 2.17,-23.33 10.94,0 17.68,13.06 28.21,15.87 6.35,-4.25 13.15,-16.75 18.38,-23.94 14.42,-19.81 12.27,-23.68 25.71,-23.68 5.01,0 8.82,6.09 8.82,10.59 0,5.51 -40.51,65.25 -47.62,65.25zm-81.12 -148.15c-4.4,18.86 -1.77,234.89 -1.77,273.37 10.68,2.49 34.74,23.74 44.36,31.48 30.05,24.14 10.88,42.68 8.55,51.41 21.09,10.12 67.03,28.22 88.18,28.22 8.04,0 12.34,-2.65 17.64,-5.29 5.84,-2.91 11.43,-4.59 17.63,-7.06 54.05,-21.49 66.63,4.85 136.27,-10.12 11.69,-2.51 23.36,-8.47 33.05,-9.28 -1.5,-6.43 -2.82,-5.57 -4.11,-13.58 -3.69,-23.02 20.71,-36.29 39.61,-51.44 12.36,-9.92 20.93,-11.79 20.93,-17.87l0 -257.49c0,-6.08 -1.3,-6.83 -1.76,-12.35 -16.74,-3.9 -66.13,-1.76 -86.42,-1.76 -9.14,0 -3.25,14.11 -14.11,14.11l-197.53 0c-10.86,0 -4.97,-14.11 -14.11,-14.11 -14.14,0 -77.33,-1.76 -86.41,1.76z"/>
   <path class="fil0" d="M77.14 638.59c6.26,4.19 12.05,6.85 20.77,9.22 6.92,1.88 17.59,2.85 24.8,5.18 11.74,3.81 29.98,20.66 35.56,24.4 7.29,-31.27 53.72,-32.74 67.11,-5.38 9.45,19.28 -2.03,10.03 17.82,15.69 10.2,2.9 23.43,13.15 24.42,24.96 11.89,-0.26 13.32,-2.93 25.39,2.83 7.68,3.66 12.72,8.52 16.93,14.81 16.54,-1.38 19.92,-6.85 36.37,2.44 14.44,8.15 18.31,18.04 18.31,34.6 0,16.83 -20.83,36.34 -24.69,52.91 4.14,2.77 61.72,51.88 61.72,8.81 0,-4.54 -33.31,-18.33 -32.58,-31.48 0.35,-6.29 5.49,-10.61 11.18,-10.41 5.46,0.2 9.31,4.04 13.61,7.36 22.04,17.01 54.5,46.33 64.23,4.55 -5.48,-1.46 -38.5,-27.3 -46.59,-32.77 -22.8,-15.41 -4.07,-25.43 -1.03,-25.43 7.13,0 12.85,5.61 17.39,9.07 13,9.88 40.22,33.26 54.92,33.26 15.73,0 24.69,-9.26 24.69,-24.69 0,-4.82 -2.91,-5.48 -6.2,-7.91l-42.93 -31.14c-4.91,-3.69 -14.36,-8.45 -14.36,-15.62 0,-4.44 3.76,-9.18 7.04,-10.81 5.01,-2.48 8.63,-0.41 13.44,2.62l42.74 31.39c12.51,9.19 16.21,13.83 28.49,13.83 10.57,0 21.16,-9.75 21.16,-22.93 0,-16.75 -19.15,-26.49 -38.04,-41.32 -37.86,-29.74 -100.88,-85.66 -152.43,-85.66 -28.35,0 -61.97,37.04 -91.71,37.04 -43.79,0 -52.51,-39.18 -40.29,-59.69l37.54 -45.36c5.63,-7.49 10.14,-11.28 11.57,-16.64 -13.1,-3.05 -27.6,-9.28 -39.05,-13.86l-38.55 -16.12c-4.38,6.53 -10.18,13.34 -15.47,19.8l-113.28 142.45z"/>
   <path class="fil0" d="M443.98 492.21c-54.74,0 -56.56,-15.81 -121.12,16.44 -24.65,12.31 -21.39,14 -38.35,35.72 -18.69,23.95 -43.8,40.14 -27.49,55.44 25.64,24.04 64.95,-36.46 121.69,-30.04 48.9,5.54 102.01,46.36 139.75,77.23l40.33 31.89c8.77,4.26 27.65,-9.02 33.77,-15.17 5.52,-5.55 14.17,-13.02 21.16,-15.88l41.9 -14.54c-0.63,-7.47 -5.23,-9.49 -14.34,-20.93l-110.88 -139.56c-22.15,5.16 -44.78,19.4 -86.42,19.4z"/>
   <path class="fil0" d="M532.16 437.54c6,11.33 29.73,39.18 39.03,50.91l100.53 125.22c3.89,4.89 16.61,23.16 22.7,23.16 5.26,0 42.33,-31.78 45.85,-37.04 -2.2,-9.43 -30.51,-42.14 -38.25,-51.7 -7.01,-8.66 -12.56,-16 -19.54,-24.54 -13.64,-16.67 -92.35,-117.89 -102.7,-124.81 -8.8,2.04 -42.22,28.6 -47.62,38.8z"/>
   <path class="fil0" d="M43.64 635.06c9.43,0 18.25,-15.38 27.66,-27.01l125.01 -155.4c16.96,-21.52 16.55,-15.77 -18.08,-43.89 -6.01,-4.87 -9.69,-8.22 -16.43,-11.79 -13.51,7.15 -41.34,47.04 -51.55,59.56 -10.93,13.4 -109.04,134.03 -110.07,138.74 -1.51,6.91 7.36,11.75 11.71,15.11 3.45,2.66 30.23,24.68 31.75,24.68z"/>
   <path class="fil0" d="M477.49 74.23c0,8.83 29.12,5.29 45.85,5.29 27.58,0 54.59,-7.09 65.98,13.39 5.27,9.49 2.81,63.41 2.81,76.55 0,69.96 0,139.92 0,209.88 18.38,12.3 21.06,26.35 31.74,33.5 0,-31.58 2.23,-298.52 -1.23,-316.22 -5.1,-26.14 -27.06,-48.85 -56.97,-48.85l-88.18 0 0 26.46z"/>
   <path class="fil0" d="M115.94 411.08c5.24,-3.51 10.1,-10.73 14.1,-15.88 5.43,-6.99 8.89,-11.18 15.89,-15.86l-0.08 -262.86c0.48,-48.62 33.97,-37.32 95.32,-36.96 24.79,0.15 21.16,5.57 21.16,-31.75l-88.19 0c-28.82,0 -52.01,22.14 -57,47.06 -3.42,17.14 -1.2,285.15 -1.2,316.25z"/>
   <path class="fil0" d="M329.34 38.95l-44.09 0 0 52.91 169.31 0 0 -52.91c-71.65,0 -47.62,1.97 -58.43,-22.69 -9.1,-20.77 -41.02,-22.14 -51.87,-1.19 -5.24,10.13 -0.31,23.88 -14.92,23.88z"/>
   <path class="fil0" d="M154.74 730.3c0,11.75 17.76,24.87 30.61,0.62 9.87,-18.61 27.22,-37.22 19.53,-48.86 -4.84,-7.3 -17.5,-11.84 -26.26,3.33l-16.72 29.14c-2.82,4.62 -7.16,9.48 -7.16,15.77z"/>
   <path class="fil0" d="M195.31 763.81c0,12.55 14.96,22.45 27.77,4.84l17.09 -28.76c8.49,-14.15 11.83,-30.75 -11.35,-30.75 -5.75,0 -8.55,6.58 -10.62,10.54 -5.88,11.28 -22.89,36.3 -22.89,44.13z"/>
   <path class="fil0" d="M239.4 788.5c0,13.92 19.32,24.38 32.78,-0.73 1.79,-3.33 2.71,-5.17 4.34,-8 2.57,-4.44 15.79,-25.64 15.79,-30.07 0,-9.01 -7.7,-14.8 -14.37,-15.36 -9.72,-0.82 -12.69,7.53 -16.64,14.34 -2.99,5.15 -21.9,37.38 -21.9,39.82z"/>
   <path class="fil0" d="M290.54 802.61c0,10.31 4.37,17.64 14.11,17.64 11.24,0 22.12,-26.17 29.89,-38.9 4.09,-6.72 12.77,-18.77 2.71,-27.21 -15.78,-13.23 -23.45,7.1 -30.49,18.83 -2.32,3.85 -16.22,27.21 -16.22,29.64z"/>
  </g>
 </g>
</svg>
