<?xml version="1.0" encoding="UTF-8"?>
<!DOCTYPE svg PUBLIC "-//W3C//DTD SVG 1.1//EN" "http://www.w3.org/Graphics/SVG/1.1/DTD/svg11.dtd">
<!-- Creator: CorelDRAW 2019 (64-Bit) -->
<svg xmlns="http://www.w3.org/2000/svg" xml:space="preserve" width="100%" height="100%" version="1.1" style="shape-rendering:geometricPrecision; text-rendering:geometricPrecision; image-rendering:optimizeQuality; fill-rule:evenodd; clip-rule:evenodd"
viewBox="0 0 952.03 846.68"
 xmlns:xlink="http://www.w3.org/1999/xlink">
 <defs>
  <style type="text/css">
   <![CDATA[
    .fil0 {fill:#FF4612}
   ]]>
  </style>
 </defs>
 <g id="Layer_x0020_1">
  <metadata id="CorelCorpID_0Corel-Layer"/>
  <path class="fil0" d="M434.39 539.62l10.7 -0.07 0.04 58.2 -10.79 0.03 0.02 -13.45 0 -29.58 -0.02 -4.03 0.05 -11.1zm103.26 54.11c-21.72,20.26 -15.89,-29.85 -15.93,-43l10.84 -0.03c-0.08,6.73 -0.08,13.46 -0.1,20.19 -0.04,16.74 -1.68,15.04 2.74,17.55 3.78,-2.17 2.68,-0.8 2.8,-8l-0.02 -29.75 10.73 -0.02c-0.98,67 6.04,61.37 -24.95,62l0.14 -10.05c10.63,-0.29 14.41,2.92 13.75,-8.89zm-60.2 -43.18c9.02,0.5 8.54,-2.18 11.63,4.04 5.84,-10.56 13.84,0.11 13.85,0.12 3.53,-4.05 4.68,-5.33 12.1,-3.87 6.83,7.7 4.3,34.36 4,46.95l-10.69 -0.01 0.09 -31.1c-0.4,-6.09 0.85,-4.61 -2.81,-6.31 -6.19,3 -2.66,29.99 -2.68,37.43l-10.67 -0.01 -1 -37.66c-4.14,2.06 -3.08,1.29 -3.24,7.93l0.15 29.75 -10.82 -0.03 0.09 -47.23zm-30.74 15.79c-1.24,-20.01 19.32,-19.53 24.52,-10.92 3.91,6.46 1.72,32.54 2.62,42.4 -7.63,-0.05 -8.15,1.57 -11.57,-3.66 -9.6,10.16 -18.4,-0.32 -15.1,-13.2 3,-11.65 19.17,-11.16 14.06,-20.53 -11.21,1.56 6.22,6.3 -14.53,5.91zm-43.06 0.08c-0.45,-20.58 19.5,-19.47 24.56,-11.01 3.9,6.5 1.72,32.54 2.61,42.41 -7.63,-0.05 -8.15,1.58 -11.58,-3.66 -9.62,10.2 -18.34,-0.33 -15.11,-13.2 2.91,-11.65 19.25,-11.12 14.08,-20.57 -10.93,1.77 5.96,6.18 -14.56,6.03zm-4.31 -190.51c7.3,19.63 -5.66,56.23 -16.75,65.24 -11.28,9.16 -35.84,22.87 -53.09,28.88 -13.59,4.74 -20.88,4.16 -34.7,6.82 -34.75,6.66 -45.74,61.16 -51.34,71.18 -2.47,14.51 -6.58,29.24 -8.87,44.84 -2.24,15.35 -3.6,30.89 -4.32,46.55 -1.62,34.87 -0.42,64.87 6.73,98.21 1.8,2.14 4.07,8.27 5.97,11.18l26.46 0.16c2.82,-4.61 6.27,-3.51 3.55,-8.28 -7.08,2.93 3.3,4.01 -10.09,4.06 0.66,-8.08 2.14,-12.16 11.27,-11.03 7.86,0.98 7.68,7.51 7.38,15.05l425.12 0.07c9.86,-2.68 13.02,-33.87 13.95,-44.83 3.36,-42.32 1.8,-88.61 -6.22,-129.44 -7.99,-40.72 -15.29,-64 -41.47,-90.44 -2.45,-2.48 -0.39,-0.1 -2.3,-2.42 -5.39,-1.03 -8.6,-4 -16.9,-5.13 -27.81,-3.78 -24.56,-3.55 -50.98,-16.27 -22.65,-10.91 -40.48,-18 -47.03,-44.06 -5.15,0.82 -2.37,-0.13 -5.26,1.34 0.09,0.35 0.4,0.76 0.5,0.96l1.79 4.79c2.13,7.5 -1.97,3.47 4.43,6.8 -2.74,4.09 -1.87,1.13 2.23,4.93 -0.71,1.7 -1.17,3.99 -1.79,5.64l-2.23 4.66c-6.7,-0.04 -8.59,0.36 -11.2,-4.85 -0.03,-0.06 -3.21,-5.05 -3.6,-10.75l-6.54 -0.07c5.44,19.12 16.52,21.72 14.99,32.65 -2,14.29 -9.12,25.21 -16.33,32.06 -42.71,40.52 -110.3,20.63 -126.07,-19.42 -7.79,-19.76 -1.48,-19.49 6.07,-33.33 5.9,-10.81 10.63,-22.53 12.3,-36.17l-5.44 2.68c-3.58,-11.15 0.93,-9.21 1.23,-9.5l5.76 -3.42c0.09,-0.33 0.43,-0.33 0.63,-0.52 -4.74,-0.52 -5.89,-1.28 -8.96,-4.04 0.74,-5.51 0.8,-7.11 3.35,-11.11l2.02 -2.33c0.09,0.53 -0.05,2.09 -0.1,2.46l-1.24 3.14 12.15 2.45 -0.68 -3.04c-1.87,-3.95 -3.95,-6.41 -6.72,-9.73 -1.86,-2.23 -2.13,-2.77 -3.55,-4.48 -2.38,-2.86 -2.29,-2.61 -4.45,-4.26 -0.15,0.03 -3.24,-1.56 -6.16,0.01 3.37,4.82 -1.1,-0.15 5.37,4.03l-4.48 1.35c0.32,0.25 0.72,0.52 0.98,0.7 0.28,0.19 0.74,0.52 1.05,0.74l3.79 2.58c-5.3,-0.31 -2.93,-1.68 -6.27,1.36 1.19,6.43 3.38,14.5 3.31,21.5 -0.04,4.3 -0.85,8.63 -1.78,12.22 -2.34,9.01 -4.68,7.33 -7.35,7.29 -3.22,-4.22 -0.7,1.16 -1.38,-3.51l0.63 -18.41c1.67,-10.46 -0.05,-10.33 -0.13,-17.64 -0.09,-7.35 0.06,-2.61 0.42,-2.81l-7.66 2.71zm-9.6 -262.83c-3.2,5.41 -3.94,2.97 -7.57,7.78l11.69 7.47c1.17,13.16 -11.42,16.89 -19.06,26.68 -6.97,8.92 -11.57,17.44 -15.91,29.82 -7.95,22.64 -11.13,52.99 -7.18,78.11 -3.34,4.42 -10.97,3.74 -13.16,24.17 -2.34,21.92 8.06,38.25 19.44,53.53 11.82,15.87 16.5,11.72 22.75,8.01 2.07,5.88 5.11,9.99 8.88,15.42 1.9,2.73 3.09,4.43 5.06,7.2l4.66 4.64 7.66 -2.71c-0.36,0.2 -0.51,-4.54 -0.42,2.81 0.08,7.31 1.8,7.18 0.13,17.64l-0.63 18.41c0.68,4.67 -1.84,-0.71 1.38,3.51 2.67,0.04 5.01,1.72 7.35,-7.29 0.93,-3.59 1.74,-7.92 1.78,-12.22 0.07,-7 -2.12,-15.07 -3.31,-21.5 3.34,-3.04 0.97,-1.67 6.27,-1.36l-3.79 -2.58c-0.31,-0.22 -0.77,-0.55 -1.05,-0.74 -0.26,-0.18 -0.66,-0.45 -0.98,-0.7l4.48 -1.35c-6.47,-4.18 -2,0.79 -5.37,-4.03 2.92,-1.57 6.01,0.02 6.16,-0.01 -1.17,-5.98 -38.45,-51.31 -12.05,-114.76 7.8,-18.75 12.7,-20.28 17.75,-29.47 12.54,1.56 23.66,12.42 38.1,13.46 4.56,-2.57 0.31,-3.94 6.82,-8.86 3.5,-2.65 7.47,-3.04 5.07,-7.99 -7.28,3.6 3.54,4.09 -10.12,4.22 0.49,-6.61 0.56,-9.84 6.42,-11 15.78,-3.12 12.17,13.92 12.67,25.16 17.11,-1.26 27.39,-10.64 40.79,-15.66 14.27,11.93 25.64,37.68 28.69,63.67 5.85,49.79 -23.13,96.44 -62.45,121.43 -15.06,9.57 -17.91,8.33 -31.95,-1.39 -11.56,-8.01 -21.25,-19.31 -25.02,-20.34l0.68 3.04 -12.15 -2.45 1.24 -3.14c0.05,-0.37 0.19,-1.93 0.1,-2.46l-2.02 2.33c-2.55,4 -2.61,5.6 -3.35,11.11 3.07,2.76 4.22,3.52 8.96,4.04 -0.2,0.19 -0.54,0.19 -0.63,0.52l-5.76 3.42c-0.3,0.29 -4.81,-1.65 -1.23,9.5l5.44 -2.68c4.1,1.04 6.64,4.5 10.14,7.28 32.69,26 52.39,24.75 85.27,-3.26 3.56,-3.03 1.93,-2.45 5.8,-4.75 2.94,7.03 3.25,20.07 7.83,24.94l6.54 0.07c0.39,5.7 3.57,10.69 3.6,10.75 2.61,5.21 4.5,4.81 11.2,4.85l2.23 -4.66c0.62,-1.65 1.08,-3.94 1.79,-5.64 -4.1,-3.8 -4.97,-0.84 -2.23,-4.93 -6.4,-3.33 -2.3,0.7 -4.43,-6.8l-1.79 -4.79c-0.1,-0.2 -0.41,-0.61 -0.5,-0.96 2.89,-1.47 0.11,-0.52 5.26,-1.34 -4.81,-6.14 -7.15,-31.23 -3.19,-39.22 2.23,-4.52 15.53,-18.27 18.62,-28.44 9.66,4.83 12.99,5.13 22.86,-8.02 5.46,-7.29 9.84,-12.35 14.07,-22.27 7.04,-16.48 10.16,-48.41 -8.12,-53.81 2.48,-26.59 2.25,-66.79 -4.26,-91.62 -3.23,-12.33 -11,-26.26 -18.14,-31.59 -13.39,-10.01 -21.48,-6.71 -36.67,-13.11 -10.36,-4.36 -11.65,-7.85 -32.76,-15.7 -40.38,-15.03 -68.13,-23.57 -108.96,-3.15 -5.88,2.94 -4.79,3.3 -9.42,3.76zm-326.96 447.81c22.2,-11.58 16.97,17.64 17.42,30.23l-12.92 -0.38c-8.94,-0.42 -6.67,-12.3 -2.75,-15.83 3.07,-2.77 9.88,-3.26 6.74,-9.03 -7.17,3.15 3.45,3.9 -10.38,4.11l1.89 -9.1zm-36.37 -79.89l0.32 -0.2c-9.63,21.12 -21.69,29.16 -25.92,68.5 -1.44,13.4 -0.51,30.63 -0.52,44.45 -0.01,24.45 -3.71,25.17 21.23,25.1 30.92,-0.09 61.86,-0.01 92.79,-0.01 29.06,0 63.8,1.73 92.15,-0.17 4.75,-25.71 5.31,-48.39 12.38,-73.62 3.16,-11.26 6.42,-22.06 10.88,-32.25l14.81 -27.98c-2.31,-6 -14.17,-17.41 -18.6,-21.55 -4.5,-4.19 -7.95,-5.83 -13.67,-1.62 -4.16,3.07 -6.16,5.6 -11.34,8.95 -39.35,25.45 -87.46,27.37 -127.36,2.48 -19.02,-11.87 -18.88,-23.23 -36.32,-3.47l-10.83 11.39zm843.18 79.87c21.32,-11.06 16.98,15.82 17.44,30.24l-8.77 -0.69c-2.18,0.09 -0.52,0.47 -4.15,0.31 -8.96,-0.41 -6.68,-12.32 -2.77,-15.84 3.09,-2.77 9.95,-3.22 6.77,-9.01 -7.16,3.16 3.43,3.91 -10.41,4.13l1.89 -9.14zm-161.41 -76.59c2.62,8.51 10.41,19.5 14.91,30.46 12.03,29.24 21.68,76.75 22.28,107.92 28.24,-0.3 189.71,2.93 201.94,-1.12 6.44,-3.18 4.41,-14.74 4.4,-23.76 -0.01,-37.29 1.64,-37.78 -6.78,-75.3l-8.57 -21.15 -8.21 -11.42c-28.94,-41.75 -29.23,-24.86 -52.06,-11.17 -35.12,21.07 -83.82,20.14 -118.8,-0.86 -25.15,-15.08 -19,-25.74 -42.48,0.98l-6.63 5.42zm48.14 -38.09c16.81,19.35 56.35,27.85 85.7,20.04 15.15,-4.04 26.51,-11.16 36.02,-19.16 7.27,-6.11 8.53,-8.47 13.46,-14.8 3.76,-4.84 6.73,-12.74 11.37,-17.13 0.11,-9.24 11.25,-24.95 5.15,-55.75 -10.16,-51.32 -61.38,-85.37 -114.92,-71.21 -76.25,20.16 -83.16,113.17 -44.92,150.38 3.34,3.24 5.44,4.88 8.14,7.63zm-682.02 -143.83c-3.93,9.75 -23.68,18.28 -30,56.05 -10.14,60.59 41.26,115.28 103.78,106.62 15.51,-2.16 22.12,-6.96 34.32,-11.18 3.55,-4.72 30.54,-15.91 41.89,-55.45 20.12,-70.13 -47.92,-135.94 -117.93,-112.49 -18.65,6.25 -26.03,15.13 -32.06,16.45zm74.56 517.65c-2.44,-19.58 1.54,-86.77 -1.01,-95.57 -2.39,-8.22 -13.69,-12.05 -20.76,-4.88 -7.34,7.46 -3.73,47.97 -3.73,61.1 0,75.61 -12.44,64.96 64.91,64.96 12.63,0 54.34,2.79 61.18,-3.77 7.89,-7.56 3.25,-18.24 -4.97,-20.7 -5.38,-1.61 -25.11,-0.78 -32.01,-0.78 -16.95,0 -48.42,1.82 -63.61,-0.36zm551.28 5.48c-2.35,13.38 -0.19,20.05 15.19,20.19 125.68,1.17 113.28,7.61 113.28,-36.78l0.03 -73.98c0.06,-16.57 -2.68,-18.67 -17.88,-19.34 -7.56,10.18 -7.45,4.66 -7.33,22.05 0.14,20.49 0.98,66.67 -0.23,82.48 -15.49,1.44 -36.7,0.27 -52.84,0.27 -20.98,0 -37.16,-2.66 -50.22,5.11zm-551.22 -799.55c19.17,-2.01 87.41,1.43 95.64,-0.98 7.7,-2.26 12.77,-13.27 5.13,-21.12 -5.53,-5.7 -49.46,-3.3 -61.42,-3.3 -77.13,0 -64.91,-10.8 -64.91,64.73 0,12.47 -2.75,54.4 3.63,61.25 7.14,7.67 18.61,2.76 20.84,-5.01 1.61,-5.62 0.74,-24.93 0.74,-32.04 0,-16.73 -1.83,-48.66 0.35,-63.53zm661.59 104.45c24.06,-0.17 18.1,-16.6 18.1,-61.09l-0.26 -57.78c-1.23,-8.55 -3.73,-6.79 -8.07,-10.64 -23.1,-1.55 -68.38,-0.32 -95.47,-0.34 -9.86,-0.01 -20.4,-1.35 -24.66,6.57 -5.11,9.53 2.22,17.61 11.1,18.52 8.6,0.87 21.93,0.08 31.04,0.08 18.71,0 42.89,-1.31 60.9,0.22 1.24,13.49 0.39,64.45 0.22,83.72 -0.15,18.33 2.1,13.71 7.1,20.74zm-333.15 467.39l10.82 0.03 -0.15 -29.75c0.16,-6.64 -0.9,-5.87 3.24,-7.93l1 37.66 10.67 0.01c0.02,-7.44 -3.51,-34.43 2.68,-37.43 3.66,1.7 2.41,0.22 2.81,6.31l-0.09 31.1 10.69 0.01c0.3,-12.59 2.83,-39.25 -4,-46.95 -7.42,-1.46 -8.57,-0.18 -12.1,3.87 -0.01,-0.01 -8.01,-10.68 -13.85,-0.12 -3.09,-6.22 -2.61,-3.54 -11.63,-4.04l-0.09 47.23zm60.29 -4.05c0.66,11.81 -3.12,8.6 -13.75,8.89l-0.14 10.05c30.99,-0.63 23.97,5 24.95,-62l-10.73 0.02 0.02 29.75c-0.12,7.2 0.98,5.83 -2.8,8 -4.42,-2.51 -2.78,-0.81 -2.74,-17.55 0.02,-6.73 0.02,-13.46 0.1,-20.19l-10.84 0.03c0.04,13.15 -5.79,63.26 15.93,43zm-79.53 -5.44c-2.05,-7.16 0.27,-8.61 4.6,-12.07l-1.11 11.9 -3.49 0.17zm-11.41 -21.95c20.75,0.39 3.32,-4.35 14.53,-5.91 5.11,9.37 -11.06,8.88 -14.06,20.53 -3.3,12.88 5.5,23.36 15.1,13.2 3.42,5.23 3.94,3.61 11.57,3.66 -0.9,-9.86 1.29,-35.94 -2.62,-42.4 -5.2,-8.61 -25.76,-9.09 -24.52,10.92zm-27.28 9.86l-0.38 11.94 -3.96 0.15c-2.07,-7.17 0.29,-8.6 4.34,-12.09zm-15.78 -9.78c20.52,0.15 3.63,-4.26 14.56,-6.03 5.17,9.45 -11.17,8.92 -14.08,20.57 -3.23,12.87 5.49,23.4 15.11,13.2 3.43,5.24 3.95,3.61 11.58,3.66 -0.89,-9.87 1.29,-35.91 -2.61,-42.41 -5.06,-8.46 -25.01,-9.57 -24.56,11.01zm30.69 -15.7l0.02 4.03 0 29.58 -0.02 13.45 10.79 -0.03 -0.04 -58.2 -10.7 0.07 -0.05 11.1zm-371.56 10.17l-1.89 9.1c13.83,-0.21 3.21,-0.96 10.38,-4.11 3.14,5.77 -3.67,6.26 -6.74,9.03 -3.92,3.53 -6.19,15.41 2.75,15.83l12.92 0.38c-0.45,-12.59 4.78,-41.81 -17.42,-30.23zm806.81 -0.02l-1.89 9.14c13.84,-0.22 3.25,-0.97 10.41,-4.13 3.18,5.79 -3.68,6.24 -6.77,9.01 -3.91,3.52 -6.19,15.43 2.77,15.84 3.63,0.16 1.97,-0.22 4.15,-0.31l8.77 0.69c-0.46,-14.42 3.88,-41.3 -17.44,-30.24zm-406.79 -327.85c2.66,1.64 -0.2,0.35 3.91,1.36 0.24,0.06 5.02,0.92 5.15,0.93 4.85,0.49 6.78,-0.16 11.8,-0.76 -0.5,-11.24 3.11,-28.28 -12.67,-25.16 -5.86,1.16 -5.93,4.39 -6.42,11 13.66,-0.13 2.84,-0.62 10.12,-4.22 2.4,4.95 -1.57,5.34 -5.07,7.99 -6.51,4.92 -2.26,6.29 -6.82,8.86zm-193.37 515.95l12.11 -0.2c0.3,-7.54 0.48,-14.07 -7.38,-15.05 -9.13,-1.13 -10.61,2.95 -11.27,11.03 13.39,-0.05 3.01,-1.13 10.09,-4.06 2.72,4.77 -0.73,3.67 -3.55,8.28zm150 -172.77c-4.05,3.49 -6.41,4.92 -4.34,12.09l3.96 -0.15 0.38 -11.94zm38.69 12.09l3.49 -0.17 1.11 -11.9c-4.33,3.46 -6.65,4.91 -4.6,12.07z"/>
 </g>
</svg>
