<?xml version="1.0" encoding="UTF-8"?>
<!DOCTYPE svg PUBLIC "-//W3C//DTD SVG 1.1//EN" "http://www.w3.org/Graphics/SVG/1.1/DTD/svg11.dtd">
<!-- Creator: CorelDRAW 2019 (64-Bit) -->
<svg xmlns="http://www.w3.org/2000/svg" xml:space="preserve" width="100%" height="100%" version="1.1" style="shape-rendering:geometricPrecision; text-rendering:geometricPrecision; image-rendering:optimizeQuality; fill-rule:evenodd; clip-rule:evenodd"
viewBox="0 0 627.36 846.68"
 xmlns:xlink="http://www.w3.org/1999/xlink">
 <defs>
  <style type="text/css">
   <![CDATA[
    .fil0 {fill:#FF4612}
   ]]>
  </style>
 </defs>
 <g id="Layer_x0020_1">
  <metadata id="CorelCorpID_0Corel-Layer"/>
  <path class="fil0" d="M439.28 420.04c4.59,2.94 16.47,5.82 19.35,4.97 8.76,-2.6 12.84,-5.92 23.1,-0.36 17.31,9.38 8.01,33.93 11.88,50.85 2.59,6.72 12.62,3.93 20.8,3.93 -2.08,-5.06 -6.63,-7.55 -7.68,-14.1 -2.07,-28.83 -3.73,-34.44 24.94,-45.79l1.47 -2.04 7.58 -27.67c31.05,-7.92 57.66,-9.56 86.04,-20.82l0.6 -67.11c-12.7,-4.8 -28.02,-8.53 -41.51,-11.64 -12.07,-2.78 -34.85,-5.16 -44,-8.23 -0.3,-0.45 -0.68,-1.71 -0.79,-1.41l-11.13 -33.9c-4.29,-11.14 -10.11,-21.79 -13.93,-31.93 13.65,-12.89 42.14,-49.28 52.2,-69.39 -6.89,-15.67 -32.68,-41.36 -43.31,-51.97 -39.93,15.91 -61.4,32.81 -78.5,39.83 -18,-10.96 -36.94,-27.07 -61.26,-34.14 1,-98.26 2.35,-87.94 -34.5,-95.43 -10.15,-2.06 -21.86,-4.69 -31.95,-3.29 -21.43,29.75 -19.21,30.32 -19.23,73.94 0,25.51 -2.58,70.23 0.79,93.4 22.01,7.27 41.2,1.41 80.95,26.61 69.47,44.03 97.15,132.54 66.03,205.84 -3.54,8.35 -7.17,12.29 -7.94,19.85zm-33.53 56.34c-6.64,5.7 -10.43,0.56 -16.89,-2.36 -9.45,6.57 -19.17,13.05 -31.8,16.58 -7.37,7.44 -43.87,13.27 -57.53,13.92 -0.17,19.37 -3.62,123.82 3.32,137.73 5.76,11.53 12.87,20.63 17.95,30.75 15.62,0.44 49.42,-5.31 60.88,-11.53 8.45,-17.74 5.74,-65.66 5.36,-88.23 25.25,-7.13 46.43,-26.68 61.38,-34.39 14,6.72 26.85,15.44 42.35,23.18 7.7,3.85 14.35,6.79 22.14,10.33 16.5,7.49 10.19,5.64 21.26,0.77l28.71 -34.2 7.48 -14.05c-8.61,-9.58 -19.4,-31.59 -28.39,-37.29 -19.91,-0.3 1.7,-2.39 -14.5,-4.06 -9.79,-1.01 -2.35,1.22 -14.11,2.02 -27.16,1.84 -74.46,-0.02 -100.48,-0.02 -2.13,-12.38 -4.32,2.45 -3.04,-14.21 -0.03,13.85 1.7,-0.93 -4.09,5.06zm-127.51 -205.61c41.11,-9.3 73.6,19.26 80.96,51.27 9.44,41.03 -19.05,73.96 -50.29,81.78 -86.98,21.78 -122.87,-112.21 -30.67,-133.05zm-16.17 -40.75l-0.83 14.7c-40.33,16.92 -14.74,11.59 -52.42,-4.3 -6.16,3.61 -18.86,13.2 -16.53,21.08 1.53,5.16 12.94,20.7 16.53,23.1 -2.48,8.48 -7.15,16.63 -10.67,26.81 -11.19,0.53 -24.63,1.97 -32.82,6.59l-1.97 24.98 30.89 9.05 9.07 27.82c-9.03,6.45 -15.12,13.41 -20.81,23.44 3.89,8.82 9.94,13.3 12.79,20.46 13.39,-2.21 20.24,-9.25 28.87,-11.29 10.24,-2.41 11.86,9.25 24.9,10.26 23.35,1.56 17.1,20.95 20.65,40.9l6.55 1.35c1.46,-3.71 -0.07,-1.33 1.97,-4.43l4.3 -5.02c0.16,-5.05 3.83,-14.58 7.73,-17.72 2.71,-3.86 -2.73,-3.16 6.41,-3.08 1.61,-12 15.57,-15.05 28.38,-12.05 2.59,7.66 2.26,9.29 -2.15,15.66l-0.19 3.53c4.7,0.89 5.48,4.2 6.65,8.95l3.42 -0.81c3.09,-0.02 1.16,-26.23 1.41,-30.65 0.92,-16.04 15.36,-15.2 15.57,1.41l5.82 0.59 -1.87 -7.5c6.95,-6.53 12.59,-10.22 16.08,-19.49 0.48,-0.34 1.17,-0.71 1.47,-0.97 11.91,-10.35 -0.97,-22.06 31.19,-27.33l-13.43 -9.15 1.24 -27.28c3.65,-2.32 8.83,-4.33 13.96,-7.09 6.2,-3.34 8.1,-5.49 14.6,-7.82 -1.06,-10.53 -3.23,-17.79 -7.5,-26.52l-34.24 1.83c-3.48,-8.86 -9.04,-14.04 -14.14,-20.76 2.05,-11.07 8.33,-18.86 10.67,-33.12 -7.12,-3.54 -11.74,-7.96 -20.63,-12.35 -11.08,5.66 -19.76,13.79 -24.87,23.78 -7.51,-6.12 -17.94,-4.56 -26.32,-8.77 -3.18,-7.65 -5.85,-28.1 -14.28,-30.14 -24.3,1.33 -22.47,-1.42 -25.45,21.35zm-241.48 145.74c3.41,7.93 5.92,13.57 9.99,21.02 2.12,3.89 3.87,7.13 5.81,10.48 4.03,6.98 3.81,4.56 4.83,11.03l6.26 5.1c4.44,-1.43 9.32,-2.72 12.06,1.27 1.13,1.64 1.79,4.17 1.22,6.76 -1.64,7.44 -0.9,3.05 -4.5,4.83l2.24 5.61c7.8,2.53 0.13,4.78 7.94,6.11l2.63 -0.46c2.66,-7.56 1.02,-10.76 6.57,-16.9 4.7,-5.21 6.71,-3.97 12.66,-9.34l1.1 -3.1c-11.89,-5.36 -36.06,-56.16 -41.74,-73.05 -27.34,-81.38 -1.77,-181.17 60.81,-239.14 5.86,-5.43 10.64,-8.26 16.52,-14.75 42.08,-28.79 80,-52.19 148.8,-52.6l0.09 -36.15c-105.72,0.24 -179.87,56.37 -221.17,112.74 -50.61,69.08 -71.64,165.47 -32.12,260.54zm122.04 307.64c-22.94,8.95 -22.55,41.8 11.28,44.18 43.68,3.08 232.13,6.52 252.89,-2.34 19.25,-8.2 21.36,-44.77 -15.21,-43.72 -27.62,0.79 -55.29,2.97 -83.27,3.4 -22.47,0.34 -159.62,-3.89 -165.69,-1.52zm16.69 60.14c-20.61,8.25 -18.47,39.63 5.01,43.36 17.09,2.72 218.75,0.65 223.88,-1.18 19.09,-6.8 18.08,-39.88 -4.81,-43.64 -15.97,-2.63 -56.54,-0.36 -75.09,-0.36 -22.21,0 -138.14,-2.53 -148.99,1.82zm-72.71 -264.65c10.81,31.22 15.29,30.77 22.87,72.51 18.29,100.71 -10.32,115.72 70.81,119.88 31.25,1.61 62.14,2.08 93.62,2.08l-0.16 -36.17c-21.52,-0.06 -102.66,0.72 -117.53,-4.45 -5.02,-14.23 -6.62,-59 -9.44,-78.24 -2.58,-17.65 -16.53,-61.23 -16.5,-69.8l-6.91 -10.35c-4.68,9.32 -26.84,6.27 -36.76,4.54zm82.29 -315.21c-9.03,-45.61 58.84,-52.07 64.24,-12 5.84,43.24 -56.85,49.33 -64.24,12zm-22.29 -55.53c-5.24,8.27 3.7,12.34 7.32,21.83l-6.81 12.3 -17.62 3.01 -1.38 13.92c18.69,6.93 17.89,4.56 20.78,13.96 3.4,11.07 -3.7,10.37 -9.43,20.97 2.6,6.05 2.68,6.7 7.33,11.26 7.01,-0.63 9.84,-3.89 15.09,-5.25 6.53,-1.69 7.15,2.71 15.59,5.58l-0.17 19.65 15.46 4.34c6.55,-18.27 3.5,-16.74 22.14,-18.65 10.47,9.59 3.58,13.57 20.83,12.39 7.87,-10.76 2.93,-10.23 1.17,-23.23 3.82,-3.95 6.54,-7.24 10.49,-10.56l18.77 3.18 2.95 -7.86c3.34,-10.69 -5.42,-11.09 -13.08,-17.28l1.54 -15.98c6.42,-2.5 10.96,-5.15 15.79,-8.43l-3.66 -14.04 -20.44 -1.71 -7.78 -8.27 6.27 -19.96c-5.62,-2.85 -6.45,-4.3 -12.55,-6.58 -5.41,4 -8.99,8.33 -14.21,11.92l-13.1 -3.06 -6.97 -17.72c-19.04,0.8 -15.8,0.37 -17.07,20.32 -29.21,11.17 -8.52,1.9 -32.58,-2.12 -2,2.61 -2.78,3.36 -4.67,6.07zm51.89 719.75c32.03,23.34 108.1,24.6 141.95,5.55 9.42,-5.3 28.48,-16.79 24,-31.44 -14.16,-7 -90.2,-1.72 -112.99,-2.43 -21.45,-0.66 -106.86,-10.96 -52.96,28.32zm124.4 -481.47c-10.32,37.46 -74.43,27.64 -62.86,-17.65 3.8,-14.9 20.85,-28.02 41.23,-22.02 13.91,4.09 26.89,20.56 21.63,39.67zm-77.13 0c9.46,56.32 100.27,46.93 91.3,-16.23 -8.26,-58.17 -102.01,-47.56 -91.3,16.23zm172.28 102.52l-7.39 6.05 -3.34 5.98 -1.57 15.4c5.79,-5.99 4.06,8.79 4.09,-5.06 -1.28,16.66 0.91,1.83 3.04,14.21 26.02,0 73.32,1.86 100.48,0.02 11.76,-0.8 4.32,-3.03 14.11,-2.02 16.2,1.67 -5.41,3.76 14.5,4.06 -2.13,-6.3 -1.13,-3.41 -3.9,-8.35l-2.77 0.6c-20.45,0.23 -17.7,-6.74 -28.57,-14.51 1.05,6.55 5.6,9.04 7.68,14.1 -8.18,0 -18.21,2.79 -20.8,-3.93 -2.44,2.54 -8.46,9 -14.07,2.52 -8.88,-10.26 10.66,-41.95 -14.68,-38.38 -1.69,12.87 0.9,27.52 -2.37,38.53 -31.04,4.07 2.73,-49.64 -25.81,-38.33 -5.09,12.82 0.95,26.02 -4.5,38.01 -18.73,7.16 -10.3,-18.38 -14.13,-28.9zm16.43 -21.31c9.87,-2.4 14.68,0.21 22.06,3.48 10.2,-5.86 24.44,-9.56 29.83,7.03 2.61,8.01 5.14,33.04 -1.4,37.76 -11.11,-7.43 7.26,-38.62 -12.66,-41.71 -19.57,-3.05 -10.09,26.31 -13.73,40.08 -14.26,-4.64 7.37,-32.16 -16.25,-40.93 -23.49,5.55 -4.34,29.82 -15.5,41.6 -6.08,-6.61 -3.3,-23.53 -3.19,-33.83 -4.06,3.95 -3.01,2.63 -5.59,7.83 3.83,10.52 -4.6,36.06 14.13,28.9 5.45,-11.99 -0.59,-25.19 4.5,-38.01 28.54,-11.31 -5.23,42.4 25.81,38.33 3.27,-11.01 0.68,-25.66 2.37,-38.53 25.34,-3.57 5.8,28.12 14.68,38.38 5.61,6.48 11.63,0.02 14.07,-2.52 -3.87,-16.92 5.43,-41.47 -11.88,-50.85 -10.26,-5.56 -14.34,-2.24 -23.1,0.36 -2.88,0.85 -14.76,-2.03 -19.35,-4.97l-2.98 -0.5 -1.82 8.1zm-9.25 8.44c-0.27,3.35 0.71,1.6 -1.59,5.04 -0.11,10.3 -2.89,27.22 3.19,33.83 11.16,-11.78 -7.99,-36.05 15.5,-41.6 23.62,8.77 1.99,36.29 16.25,40.93 3.64,-13.77 -5.84,-43.13 13.73,-40.08 19.92,3.09 1.55,34.28 12.66,41.71 6.54,-4.72 4.01,-29.75 1.4,-37.76 -5.39,-16.59 -19.63,-12.89 -29.83,-7.03 -7.38,-3.27 -12.19,-5.88 -22.06,-3.48l-9.25 8.44zm-340.7 37.65l2.08 5.16c9.92,1.73 32.08,4.78 36.76,-4.54 -1.52,-5.62 0.21,-2.21 -2.36,-7.55 -3.14,-6.53 -1.89,-3.22 -3.69,-5.28 -4.91,3.18 -8.92,2.57 -16.17,2.26 -20.18,-0.85 -23.02,-22.68 -5.27,-25.56 -1.77,2.46 -5.55,7.34 -6.1,8.89 -4.41,12.36 7.98,15.23 20.27,1.38l-3.7 -4.28c-5.3,3.38 -4.28,6.03 -11.24,10.13 -2.66,-5.86 -3.21,-4.97 0.55,-9.9 3.12,-4.09 4.36,-5.17 9.56,-2.58l-7.58 -10.81 -2.84 1.89c-1.33,0.76 -3.06,1.61 -4.35,2.3 -3.63,1.94 -4.89,2.06 -7.11,5.11 -5.79,7.98 -3.8,26.17 13.91,27.4 18.86,1.31 16.02,-3.82 21.36,4.58 -7.5,6.35 -24.54,2.98 -34.08,1.4zm-9.51 -15.21l9.51 15.21c9.54,1.58 26.58,4.95 34.08,-1.4 -5.34,-8.4 -2.5,-3.27 -21.36,-4.58 -17.71,-1.23 -19.7,-19.42 -13.91,-27.4 2.22,-3.05 3.48,-3.17 7.11,-5.11 1.29,-0.69 3.02,-1.54 4.35,-2.3l2.84 -1.89 -5.21 -3.95c-12.93,0 -20.12,14.7 -17.41,31.42zm456.3 15.36c-1.18,-3.73 0.76,-0.31 -1.8,-3.64 -1.26,-1.64 -2.6,-2.62 -3.98,-3.92 -3.39,-3.18 -4.99,-5.09 -7.75,-8.16 -2.4,-3.82 -2.84,-6.92 -1.25,-13.3 1.18,-4.69 3.81,-6.93 8.6,-9.07 3.15,-2.97 1.64,-0.2 2.11,-5.65 -1.03,-4.64 2.37,-1.82 -1.78,-3.15 -30.16,10.8 -13.1,54.46 5.85,46.89zm-190.76 -18.65l4.61 -0.49 0.45 -19.13 11.7 -2.08 -1.11 -5.47 0.85 -2.44 -11.4 0.6c-1.76,-12.17 3.66,-11.83 -6.79,-12.73 0.02,10.1 -2.83,34.87 1.69,41.74zm29.24 -60.87l15.67 2.59c-3.63,-9.53 -0.32,-16.26 5.9,-20.45 7.31,-4.92 12.02,-2.35 20.95,-1.07 -0.04,-0.08 -2.29,-5.45 -2.36,-5.59 -5.3,-1.01 0.08,1.07 -4.21,-1.28 -0.23,-0.13 -2.95,-2.23 -3.29,-2.5 -32.16,5.27 -19.28,16.98 -31.19,27.33 -0.3,0.26 -0.99,0.63 -1.47,0.97zm136.93 70.97c10.87,7.77 8.12,14.74 28.57,14.51 -2.04,-8.03 -0.84,-3.84 -3.98,-5.96 -18.95,7.57 -36.01,-36.09 -5.85,-46.89 4.15,1.33 0.75,-1.49 1.78,3.15 1.13,-1.45 1.59,-1.27 2.74,-4.24 1.71,-4.45 -0.13,1.13 1.68,-6.36 -28.67,11.35 -27.01,16.96 -24.94,45.79zm-257.27 -24.59c5.28,2.72 4.31,3.23 4.61,11.28 0.05,12.28 0.67,3.01 -3.57,6.52l-0.45 1.75 8.07 0.59c-0.43,-5.33 -0.02,-15.71 -1.62,-20.07 -3.64,-9.91 -7.13,0.59 -3.02,-13.26 0.84,4.18 -6.67,-6.24 4.62,3.34 7.76,6.58 6.46,19.48 5.98,31.63l5.64 1.1c-3.55,-19.95 2.7,-39.34 -20.65,-40.9l0.39 18.02zm-132.14 20.78c-1.82,-6.13 -2.14,-3.75 -2.79,-10.3 -0.57,-0.37 -2.21,-1.33 -2.54,-1.53 -0.19,-0.12 -0.89,-0.14 -1.03,-0.63 -0.13,-0.44 -0.62,-0.36 -0.91,-0.57 -12.29,13.85 -24.68,10.98 -20.27,-1.38 0.55,-1.55 4.33,-6.43 6.1,-8.89 -17.75,2.88 -14.91,24.71 5.27,25.56 7.25,0.31 11.26,0.92 16.17,-2.26zm215.47 -11.52c3.68,6.77 1.85,4.74 8.79,8.82l-1.02 -3.59c-4.52,-6.87 -1.67,-31.64 -1.69,-41.74 10.45,0.9 5.03,0.56 6.79,12.73l11.4 -0.6 -1.47 -4.27 -5.82 -0.59c-0.21,-16.61 -14.65,-17.45 -15.57,-1.41 -0.25,4.42 1.68,30.63 -1.41,30.65zm52.68 -53.05l-2.01 0.31 5.55 0.71c-1.42,-23.22 11.61,-16.87 24.99,-17.98 0.72,-8.86 -0.09,-3.25 -1.68,-4.56 -8.93,-1.28 -13.64,-3.85 -20.95,1.07 -6.22,4.19 -9.53,10.92 -5.9,20.45zm-127.35 63.93l5.96 1.64c0.48,-12.15 1.78,-25.05 -5.98,-31.63 -11.29,-9.58 -3.78,0.84 -4.62,-3.34 -4.11,13.85 -0.62,3.35 3.02,13.26 1.6,4.36 1.19,14.74 1.62,20.07zm-191.68 -12.91c3.32,7.32 2.46,6.77 8.58,10.55 -2.71,-16.72 4.48,-31.42 17.41,-31.42 -2.33,-8.6 -0.71,-3.57 -4.13,-5.83 -5.95,5.37 -7.96,4.13 -12.66,9.34 -5.55,6.14 -3.91,9.34 -6.57,16.9l-2.63 0.46zm322.57 -50l8.64 0.95c-0.28,-0.56 -0.81,-2.01 -0.92,-1.66 -0.09,0.34 -0.68,-1.25 -0.78,-1.6l-0.89 -2.75c-0.37,-6.48 7.5,-8.5 15.08,-4.25l0.72 -0.88 3.14 -7.79c-13.38,1.11 -26.41,-5.24 -24.99,17.98zm-92.33 36.75l4.87 -0.26 1.56 -5.81c5.44,-1.83 12.76,-4.17 19,-1 -0.51,5.72 1.53,3.93 -3.71,4.08 2.21,5.8 1.21,4.05 4.51,6.6 4.41,-6.37 4.74,-8 2.15,-15.66 -12.81,-3 -26.77,0.05 -28.38,12.05zm105.27 30.58c2.32,8.44 1.96,5.97 -2.83,10.73l-3.4 -6.41 -7.53 2.4 0.67 2c6.46,2.92 10.25,8.06 16.89,2.36l1.57 -15.4c-8.38,2.65 -3.15,0.5 -5.37,4.32zm-56.78 -10.56l4.47 -2 0.04 -14.84 10.24 0.26c-0.9,-6 0.24,-7.67 -3.71,-10.1l1.11 5.47 -11.7 2.08 -0.45 19.13zm4.47 -2l10.55 -6.28 0.47 -6.75 -0.74 -1.55 -10.24 -0.26 -0.04 14.84zm48.01 -53.82l3.24 0.69 1.26 -6.43 6.3 0.29 2.14 -0.62 -0.45 -4.19c-7.58,-4.25 -15.45,-2.23 -15.08,4.25l0.89 2.75c0.1,0.35 0.69,1.94 0.78,1.6 0.11,-0.35 0.64,1.1 0.92,1.66zm-96.1 35.54l16.85 -2.73c5.24,-0.15 3.2,1.64 3.71,-4.08 -6.24,-3.17 -13.56,-0.83 -19,1l-1.56 5.81zm-195.2 9.75c0.2,-3.15 2.68,-3.53 -1.13,-2.35 -5.2,-2.59 -6.44,-1.51 -9.56,2.58 -3.76,4.93 -3.21,4.04 -0.55,9.9 6.96,-4.1 5.94,-6.75 11.24,-10.13zm-58.87 -20.82c2.14,7.09 0.05,2.66 3.84,4.18l3.64 -1.72c2.34,7.61 -0.24,6.55 -0.25,6.56l1.55 3.84c3.6,-1.78 2.86,2.61 4.5,-4.83 0.57,-2.59 -0.09,-5.12 -1.22,-6.76 -2.74,-3.99 -7.62,-2.7 -12.06,-1.27zm470.31 34.77l7.35 -22.37c-4.79,2.14 -7.42,4.38 -8.6,9.07 -1.59,6.38 -1.15,9.48 1.25,13.3zm-267.29 0.38c4.24,-3.51 3.62,5.76 3.57,-6.52 -0.3,-8.05 0.67,-8.56 -4.61,-11.28l0.01 2.74 1.03 15.06zm145.22 11.08l3.4 6.41c4.79,-4.76 5.15,-2.29 2.83,-10.73 -7,1.69 -2.87,-1.32 -6.23,4.32zm5.17 -70.01c7.93,0.58 3.86,1.22 7.56,-6.14l-6.3 -0.29 -1.26 6.43zm-346.18 32.8c0.01,-0.01 2.59,1.05 0.25,-6.56l-3.64 1.72 -0.41 2.67 3.8 2.17z"/>
 </g>
</svg>
