<?xml version="1.0" encoding="UTF-8"?>
<!DOCTYPE svg PUBLIC "-//W3C//DTD SVG 1.1//EN" "http://www.w3.org/Graphics/SVG/1.1/DTD/svg11.dtd">
<!-- Creator: CorelDRAW 2019 (64-Bit) -->
<svg xmlns="http://www.w3.org/2000/svg" xml:space="preserve" width="100%" height="100%" version="1.1" style="shape-rendering:geometricPrecision; text-rendering:geometricPrecision; image-rendering:optimizeQuality; fill-rule:evenodd; clip-rule:evenodd"
viewBox="0 0 988.44 846.67"
 xmlns:xlink="http://www.w3.org/1999/xlink">
 <defs>
  <style type="text/css">
   <![CDATA[
    .fil0 {fill:#FF4612}
   ]]>
  </style>
 </defs>
 <g id="Layer_x0020_1">
  <metadata id="CorelCorpID_0Corel-Layer"/>
  <g id="_3027819476080">
   <path class="fil0" d="M-0 267.51l0 27.02c0,73.78 52.59,176.59 98.02,228.24l111.59 116.22c7.06,5.45 9.85,9.6 17.38,15.44 26.35,20.47 59.29,51.55 90.76,73.34 24.04,16.66 164.76,118.9 176.47,118.9 4.37,0 102.05,-63.86 106.18,-69.5 -5.75,-24.66 -34.75,-37.6 -34.75,-139 0,-30.27 11.44,-69.37 21.86,-90.11 14.05,-27.99 26.18,-45.77 47.16,-66.74 21.5,-21.5 37.91,-33.57 66.11,-47.79 57.31,-28.92 124.42,-30.11 185.6,-9.91 5.85,1.93 8.43,2.92 13.92,5.39l39.88 19.97c21.38,-31.94 48.26,-102.82 48.26,-156.38 0,-75.54 -17.54,-128.37 -55.98,-179.54 -30.67,-40.82 -71.04,-72.72 -122.71,-93.51 -51.44,-20.69 -125.1,-27.38 -183.55,-8.11 -30.32,10 -49.73,18.36 -73.68,34.43 -11.33,7.6 -21.05,14 -30.79,23.27 -5.51,5.25 -8.93,6.95 -14.52,12.51 -4.22,4.21 -9.62,11.57 -12.99,14.04 -3.43,-2.52 -7.91,-8.93 -12.03,-13.07 -5.61,-5.63 -9.04,-7.43 -14.51,-12.52 -94.62,-87.97 -250.49,-92.85 -354.91,-14.16l-29.34 24.72c-5.49,5.14 -6.89,9.01 -12.45,14.57 -37.82,37.78 -70.98,115.4 -70.98,172.28z"/>
   <path class="fil0" d="M776.56 744.83l-91.69 -90.73 39.53 -40.58 51.22 50.21 105.19 -104.23 40.53 39.59 -144.78 145.74zm211.88 -104.91l0 19.18c-1.22,24.87 -7.23,49.45 -17.99,71.12 -10.05,20.25 -21.51,35.22 -36.54,50.34 -64.6,64.96 -159.8,69.17 -236.64,17.5 -13.6,-9.14 -24.22,-20.45 -34.49,-33.07 -26.42,-32.44 -41.14,-72.14 -41.14,-117.16 0,-46.84 22.03,-96.48 53.51,-127.96 61.95,-61.94 161.45,-72.26 236.88,-19.58 24.07,16.82 46.12,43.8 59.08,70.27 10.36,21.17 16.13,45.1 17.33,69.36z"/>
  </g>
 </g>
</svg>
