<?xml version="1.0" encoding="UTF-8"?>
<!DOCTYPE svg PUBLIC "-//W3C//DTD SVG 1.1//EN" "http://www.w3.org/Graphics/SVG/1.1/DTD/svg11.dtd">
<!-- Creator: CorelDRAW 2019 (64-Bit) -->
<svg xmlns="http://www.w3.org/2000/svg" xml:space="preserve" width="100%" height="100%" version="1.1" style="shape-rendering:geometricPrecision; text-rendering:geometricPrecision; image-rendering:optimizeQuality; fill-rule:evenodd; clip-rule:evenodd"
viewBox="0 0 785.1 846.68"
 xmlns:xlink="http://www.w3.org/1999/xlink">
 <defs>
  <style type="text/css">
   <![CDATA[
    .fil0 {fill:#FF4612}
   ]]>
  </style>
 </defs>
 <g id="Layer_x0020_1">
  <metadata id="CorelCorpID_0Corel-Layer"/>
  <path class="fil0" d="M364.68 654.19c-6.61,-3.63 -15.71,-11.09 -22.65,-15.75 -29.18,-19.55 -54.12,-48.44 -74.17,-27.65 -25.98,26.95 -53.21,50.47 -79.75,77.73l5.27 6.63c-6.67,4.01 -3.26,19.47 -3.38,40.56l-35.07 0 0 -33.45c-5.77,0 -26.18,1.35 -29.88,-1.12 -9.24,-6.16 4.12,-16.26 -11.08,-20.62 -0.16,-0.33 -0.48,-0.85 -0.61,-0.91 -4.03,-1.74 -4.7,1.39 -7.75,3 5.6,-6.13 5.58,-3.06 0.06,-5.01l-9.6 11.75 5.61 3.9c0.15,1.09 0.88,1.54 1.04,1.98l0.78 4.12c22.12,5.45 19.65,-5.24 19.65,36.36l-33.49 0 0.05 33.44c-9.94,0 -30.82,2.97 -38.47,-2.91 -3.46,5.99 -3.1,8.85 -3.13,17.55 7.56,0.32 8.15,-5.92 10.24,17.14 213.64,0 427.27,0 640.9,0 15.38,0 30.74,0.02 46.12,-0.16 11.33,-0.13 14.56,-2.17 16.26,7.32 3.88,21.56 -7.41,20.69 6.35,27.17 0.42,0.2 0.98,0.45 1.42,0.63l11.44 1.42c3.19,-1.09 -0.06,4.37 3.23,-3.21 4.53,-10.44 -7.17,-45.6 -10.83,-60.46 -14.51,-58.9 -5.04,-55.03 -40.97,-80.18 -9.57,-6.7 -65.31,-50.38 -73.31,-51.51 -4.27,2.34 -3.6,-0.98 -3.6,3.04l6.26 2.09c-4.38,4.47 -5.44,13.21 -5.48,21.74l-32.95 0 -0.23 -33.39 -33.24 -0.06 0 -33.02c11.23,0 7.28,1.93 11.68,-3.45 3.08,-3.76 1.27,-2.65 -2.72,-2.02l1.39 -8.57c-0.67,-3.03 2.29,-2.04 -3.71,-2.82 -7.76,-1.54 3.37,3.12 -5.8,-1.11 -3.43,11.08 1.09,9.61 -15.21,9.58l-0.27 7.97 -15.12 0.47c-6.11,-0.41 -8.65,-0.88 -15.33,-0.64 -27.17,1 -19.61,-3.75 -23.06,-6.95 -11.76,0.84 -1.75,-1.57 -6.26,3.78 10.2,2.23 9.28,2.35 9.47,14.86 0.11,6.98 -0.29,14.77 -0.33,21.92l-33.4 0 0.02 33.45 -33.47 0 0.09 33.44 -35.19 0 -0.02 -8.36 -31.77 0 -0.04 8.36 -35.06 0c0,-56.99 3.24,-17.17 7.56,-40.95 2.25,-12.41 -8.95,-2.37 1.51,-7.12zm0.13 -508.59c-0.56,0.86 -39.68,25.31 -44.3,28.65 -7.92,5.73 -14.53,10.96 -20.72,16.93 -4.46,4.31 -14.11,16.98 -19.31,19.57 -3.59,13.48 -22.98,29.47 -29.98,46.16 -10.54,25.11 3.29,46.34 17.04,54.77 25.77,15.81 48.14,4.18 64.2,-17.52 4.9,-6.62 21.59,-28.93 27.15,-32.56 -4.32,22.84 -11.68,47.26 -17.07,69.99 -3.36,14.13 -1.73,26.18 -5.59,38.3l-52.21 167.55c-12.66,53.03 66.86,80.58 86.23,18.77 6.07,-19.38 38.17,-121.75 44.72,-130.88l27.22 11.75c-1.09,16.41 -8.93,87.46 -6.68,99.53 1.01,5.38 2.5,9.42 5.15,13.75 4.01,6.53 4.71,5.05 6.58,11.24 13.06,5.23 23.33,14.45 43.2,8.19 18.92,-5.95 18.94,-15.4 29.9,-26.62 -0.6,-13.25 12.49,-93.32 15.76,-118 4.65,-35.11 -17.38,-38.04 -63.44,-71.99 -13.42,-9.9 -7.93,-20.44 -5.71,-36.99 1.72,-12.79 3.31,-26.74 5.39,-39.09 3.95,-2.3 -0.43,-0.99 5.44,-1.59 23.15,-2.34 81.64,23.52 102.99,-6.13 10.38,-14.42 13.06,-36.43 2.01,-51.39 -14.36,-19.46 -26.85,-14.25 -46.06,-18.96 -14.26,-1.14 -22.21,-0.59 -28.38,-6.89 -14.18,-14.46 -28.44,-41.05 -42.78,-51.44 -36.46,-26.43 -67.78,-4.54 -100.75,4.9zm-363.63 692.87c15.51,11.4 63.47,7.6 89.79,7.6l645.9 0c28.13,0 36.43,3.9 43.97,-8.76l-11.44 -1.42c-0.44,-0.18 -1,-0.43 -1.42,-0.63 -13.76,-6.48 -2.47,-5.61 -6.35,-27.17 -1.7,-9.49 -4.93,-7.45 -16.26,-7.32 -15.38,0.18 -30.74,0.16 -46.12,0.16 -213.63,0 -427.26,0 -640.9,0 -2.09,-23.06 -2.68,-16.82 -10.24,-17.14 0.03,-8.7 -0.33,-11.56 3.13,-17.55 7.65,5.88 28.53,2.91 38.47,2.91l-0.05 -33.44 33.49 0c0,-41.6 2.47,-30.91 -19.65,-36.36l-0.78 -4.12c-0.16,-0.44 -0.89,-0.89 -1.04,-1.98l-5.61 -3.9 -79.81 106.74c-10.77,14.08 -19.51,20.09 -15.08,42.38zm32.46 -358.81l-1.91 12.99c33.19,30.17 11.57,-18.65 97.47,-74.86 21.24,-13.89 -1.14,-29.05 -6.11,-41.01l122.73 8c-3.31,9.53 -59.34,93.97 -64.97,101.49 -15.56,-9.19 -9.77,-42.6 -51.74,-12.2 -58.29,42.21 -82.6,127.51 -67.8,193.9l10.86 4.71c22.1,-4.51 9.73,-12.52 12.38,-54.92 2.85,-45.71 25.16,-108.69 66.44,-126.78 32.31,52.72 31.72,38.37 68.61,-16.35l59.16 -91.38c11.3,-27.05 -24.22,-23.69 -45.6,-25.2 -23.61,-1.68 -47.15,-3.14 -70.9,-4.68 -12.56,-0.81 -61.61,-6.14 -70.21,-2.22 -21.55,9.81 7.55,38.36 14,49.28 -5.82,5.5 -14.9,12.06 -21.16,16.89 -12.86,9.91 -25.97,25.64 -35.52,39.81 -4.64,6.87 -9.03,17.13 -15.73,22.53zm380.77 -401.75c6.95,9.05 9.57,25.08 31.74,36.28 35.93,18.17 77.55,-2.53 85.93,-39.78 5.38,-23.9 -4.12,-38.89 -12.59,-54.41 -5.68,-0.64 -32.09,-35.15 -74.52,-12.03 -10.48,5.7 -20.31,14.93 -25.72,26.85 -8.07,17.8 -3.05,26.41 -4.84,43.09zm122.71 486.93c-4.15,7.84 -35.43,32.56 -42.65,40.54 -5.96,6.56 -7.57,9 -15.9,12.37l-7.17 8.32c-4.29,4.41 -4.48,5.07 -8.32,8.47l-56.33 49.58c-13.5,-9.6 -27.23,-20.34 -42.07,-29.93 -10.46,4.75 0.74,-5.29 -1.51,7.12 -4.32,23.78 -7.56,-16.04 -7.56,40.95l35.06 0 0.04 -8.36 31.77 0 0.02 8.36 35.19 0 -0.09 -33.44 33.47 0 -0.02 -33.45 33.4 0c0.04,-7.15 0.44,-14.94 0.33,-21.92 -0.19,-12.51 0.73,-12.63 -9.47,-14.86 4.51,-5.35 -5.5,-2.94 6.26,-3.78 3.45,3.2 -4.11,7.95 23.06,6.95 6.68,-0.24 9.22,0.23 15.33,0.64l15.12 -0.47 0.27 -7.97c16.3,0.03 11.78,1.5 15.21,-9.58 9.17,4.23 -1.96,-0.43 5.8,1.11 -5.27,-9.28 -17.42,-19.18 -25.55,-25.33 -16.46,-12.46 -23.84,-0.79 -33.69,4.68zm-431.45 112.76c5.52,1.95 5.54,-1.12 -0.06,5.01 3.05,-1.61 3.72,-4.74 7.75,-3 0.13,0.06 0.45,0.58 0.61,0.91 15.2,4.36 1.84,14.46 11.08,20.62 3.7,2.47 24.11,1.12 29.88,1.12l0 33.45 35.07 0c0.12,-21.09 -3.29,-36.55 3.38,-40.56l-5.27 -6.63 -13.04 12.6c-3.64,-5.47 -9.84,-12.21 -14.2,-17.37l-15.48 -17.91c-18,-18.14 -33.14,-6.3 -39.72,11.76zm553.29 -35.65c-3.2,-6.13 -52.95,-51.16 -58.89,-53.64l-1.39 8.57c3.99,-0.63 5.8,-1.74 2.72,2.02 -4.4,5.38 -0.45,3.45 -11.68,3.45l0 33.02 33.24 0.06 0.23 33.39 32.95 0c0.04,-8.53 1.1,-17.27 5.48,-21.74l-6.26 -2.09c0,-4.02 -0.67,-0.7 3.6,-3.04z"/>
 </g>
</svg>
