<?xml version="1.0" encoding="UTF-8"?>
<!DOCTYPE svg PUBLIC "-//W3C//DTD SVG 1.1//EN" "http://www.w3.org/Graphics/SVG/1.1/DTD/svg11.dtd">
<!-- Creator: CorelDRAW 2019 (64-Bit) -->
<svg xmlns="http://www.w3.org/2000/svg" xml:space="preserve" width="100%" height="100%" version="1.1" style="shape-rendering:geometricPrecision; text-rendering:geometricPrecision; image-rendering:optimizeQuality; fill-rule:evenodd; clip-rule:evenodd"
viewBox="0 0 682.39 846.67"
 xmlns:xlink="http://www.w3.org/1999/xlink">
 <defs>
  <style type="text/css">
   <![CDATA[
    .fil0 {fill:#FF4612}
   ]]>
  </style>
 </defs>
 <g id="Layer_x0020_1">
  <metadata id="CorelCorpID_0Corel-Layer"/>
  <path class="fil0" d="M305.59 394.79l-99.81 -99.25c2.61,-4.24 31.01,-32.7 34.48,-34.08l65 64.71c15.95,-14.32 50.94,-50.85 68.5,-68.36 22.83,-22.77 46.04,-45.15 68.19,-68.1 6.25,2.58 27.49,26.83 34.69,33.03 -1.92,4.63 -35.96,37.18 -42.21,43.47 -14.49,14.59 -28.3,28.13 -42.76,42.77l-86.08 85.81zm240.22 -81.62c13.37,-119.9 -79.29,-215.3 -184.41,-225.46 -118.76,-11.49 -214.32,77.02 -224.77,183.88 -11.71,119.74 77.35,215 184.46,225.42 111.96,10.89 211.92,-69.03 224.72,-183.84zm-228.63 -254.86c127.6,-14.37 245.78,81.06 258.23,210.93 13.15,137.07 -89.23,245.21 -210.89,257.29 -136.37,13.55 -245.13,-88.88 -257.37,-209.84 -13.35,-131.91 81.08,-243.86 210.03,-258.38zm-148.18 441.66c16.87,5.38 21.39,24.88 29.9,39.83 25.87,45.41 65.18,-5.63 103.41,21.28 11.78,8.3 25.13,24.42 44.85,23.56 34.34,-13.9 38,-26.29 57.01,-32.6 26.8,-8.9 52.77,19.23 75.67,-2.86 14.1,-13.61 21.38,-44.19 37.71,-53.74 22.39,-13.1 52.94,-4.56 61.68,-31.02 8.95,-27.06 -3.54,-55.03 17.96,-73.44 20.77,-17.78 41.9,-24.37 31.18,-56.19 -9,-26.72 -24.96,-38.74 -10.03,-69.94 4.25,-8.9 12.79,-23.15 12.23,-34.88 -0.74,-15.53 -13.4,-19.55 -17.8,-28.62 -7.04,-3.03 -27.57,-22.43 -31.23,-31.23 -6.73,-16.14 0.73,-38.06 -5.74,-54.68 -10.82,-27.79 -60.23,-16.13 -78.5,-43.87 -24.14,-36.69 -10.97,-53.34 -72.84,-42.02 -25.16,4.61 -31.45,3.65 -48.43,-8.97 -10.69,-7.94 -21.99,-21.37 -40.74,-20.54 -8.56,3.51 -11.41,3.57 -19.39,8.66 -23.81,15.19 -31.82,30.23 -62.22,23.85 -16.39,-3.44 -34.69,-10.71 -47.99,0.18 -10.81,8.86 -15.76,22.04 -23.66,35.75 -8.42,14.59 -13.36,21.81 -32.66,26.7 -16.41,4.16 -34.92,5.66 -42.31,17.07 -8.83,13.66 -6.38,34.14 -8.03,51.32 -2.12,22.11 -10.54,28.13 -23.07,37.57 -39.56,29.81 -24.72,37.43 -9.38,78.98 15.93,43.14 -32.71,58.46 -7.3,91.68 4.19,5.47 10.8,10.74 15.2,14.51 27.68,23.71 29.32,24.56 29.41,59.92 0.05,22.57 3.19,31.41 20.15,38.92 9.09,4.03 40.73,10.98 44.96,14.82zm128.69 84.45c-7.34,-3.44 -11.55,-8.51 -21.3,-10.2 -9.12,-1.57 -18.85,0.13 -27.58,1.67 -58.32,10.27 -51.94,4.24 -75.15,-38.13 -3.81,-6.95 -7.62,-12.8 -14,-16.89 -9.04,-5.78 -12.87,-5.29 -18.31,-8 -1.65,-0.82 -1.58,-0.86 -2.49,-1.6 -4.88,0.84 -4.82,0.02 -7.32,4.42 -18.5,32.43 -128.14,219.8 -131.54,229.47l128.26 -7.53 47.86 108.69 3.27 -3.65c1.04,-1.61 1.37,-2.48 2.12,-3.82l66.12 -114.48c12.18,-21.28 23.84,-41.03 35.63,-61.72l34.91 -60.84c-2.35,-3.31 -7.69,-6.46 -10.77,-8.93 -2.45,-1.95 -3.22,-2.52 -5.36,-4.21l-4.35 -4.25zm67.85 18.11c2.16,8.31 115.13,200.96 131.05,228.77 2.58,4.49 5.84,12.12 9.96,15.37l47.63 -109.06 128.21 7.55c-2.44,-7.79 -12.57,-23.05 -16.81,-30.59l-101.71 -176.22c-5.78,-10 -12.41,-20.31 -17.26,-30.2 -39.12,6.39 -34.67,71.24 -74.7,70.74 -35.35,-0.43 -40.48,-22.79 -83.79,9.25 -5.72,4.23 -15.77,12.5 -22.58,14.39z"/>
 </g>
</svg>
