<?xml version="1.0" encoding="UTF-8"?>
<!DOCTYPE svg PUBLIC "-//W3C//DTD SVG 1.1//EN" "http://www.w3.org/Graphics/SVG/1.1/DTD/svg11.dtd">
<!-- Creator: CorelDRAW 2019 (64-Bit) -->
<svg xmlns="http://www.w3.org/2000/svg" xml:space="preserve" width="100%" height="100%" version="1.1" style="shape-rendering:geometricPrecision; text-rendering:geometricPrecision; image-rendering:optimizeQuality; fill-rule:evenodd; clip-rule:evenodd"
viewBox="0 0 845.7 846.68"
 xmlns:xlink="http://www.w3.org/1999/xlink">
 <defs>
  <style type="text/css">
   <![CDATA[
    .fil0 {fill:#FF4612}
   ]]>
  </style>
 </defs>
 <g id="Layer_x0020_1">
  <metadata id="CorelCorpID_0Corel-Layer"/>
  <path class="fil0" d="M307.35 659.96c-10.67,-5.24 -18.11,-8.52 -29.06,-15.71 -4.74,-3.11 -8.54,-5.66 -13.12,-9.14 -3.97,-3.01 -8.25,-7.95 -13.31,-8.28l-1.92 0.92c4.1,8.37 -3.96,-7.03 1.7,2.21 0.77,1.24 0.61,-0.36 1.25,2.64 -5.9,1.24 -8.64,-1.76 -13.81,1.21 -6.16,3.54 -0.04,1.74 0.22,2.07 2.49,3.15 1.79,-3.95 2.2,3.66 -3.63,1.11 -3.28,-0.63 -10.01,3.41 -0.85,0.52 -1.67,1.52 -1.86,1.2 -0.17,-0.27 -0.67,0.4 -0.97,0.63 0,6.24 1.51,15.17 5.09,20.45l3.99 7.33c1.54,3.64 1.6,-1.12 1.92,6.15 -3.34,0.78 -2.56,1.23 -6.14,0.8 29.47,19.74 55.18,35.94 91.1,46.87 30.18,9.19 30.2,9.75 50.07,-6.96 28.26,-23.77 70.88,-23.08 101.93,4.31 16.59,14.63 31.07,7.92 52.1,0.33 26.58,-9.57 46.91,-19.66 70.08,-34.72l15.37 -10.76c3.09,-2.24 2.74,-2.26 6.15,-3.87 0.58,-1.05 -0.03,-0.24 1.44,-1.88 0.21,-0.25 0.94,-0.97 1.2,-1.23 3.98,-3.93 6.19,-5.07 8.55,-11.1 8.53,-21.77 -13.26,-44.73 -35.43,-35.56 -12.12,5 -45.72,40.05 -68.26,34.35 -14.73,-3.72 -20.02,-15.32 -19.85,-32.85 0.18,-17.94 -1.78,-29.41 -8.33,-43.66 -10.43,-22.69 -41.13,-47.41 -57.74,-45.12 -5.93,1.25 -2.09,0.35 -6.97,0.34 -2.33,0 -3.19,-0.1 -5.01,-0.13l3.14 4.64c0.32,-0.04 0.68,-0.13 1.03,-0.18 6.21,-0.96 5.45,-1.71 11.4,0.26 -2.32,11.13 -5.76,6.25 -13.23,5.21 -3.64,-0.5 -12.07,0.43 -17.81,0.55l0 10.35c-0.07,-0.05 -1.86,-1.18 -2.13,-1.22 -6.57,-0.96 1.51,-0.46 -2.35,0.2 -2.74,0.47 -2.72,1.02 -7.42,1.01l0.88 -10.86c-5.1,0.58 -6.42,1.73 -10.29,1.53 -2.78,-0.14 -5.13,-1.74 -7.98,-1.47 -9.51,0.93 1.44,3.84 -5.17,12.64 -5.39,-2.39 -0.29,0.48 -3.43,-3.33l-1.81 -2.82c-0.35,0.27 -0.94,0.61 -1.2,0.74l-3.91 1.87c1.53,13.77 4.96,-4.27 5.24,17.04 -10.07,0.05 -2.94,1.11 -5.42,3.76l-5.19 4.1 -0.01 7.87 -13.1 0c-0.2,0.45 -0.15,1.03 -0.25,1.46 -0.1,0.42 -0.13,0.93 -0.27,1.41 -1.97,6.72 -2.3,4.98 -7.33,3.68 6.18,12.96 -1.13,3.65 -1.44,16.94 -0.44,18.94 0.46,20.99 -2.91,40.83 -0.05,0.25 -0.16,0.61 -0.2,0.85l-0.38 1.69c-0.34,2.09 -0.23,4.36 -0.31,6.51 -4.03,0 -8.7,-2.26 -10.49,7.42 0,0 0,2.82 -0.01,3.43l-13.36 -0.38c0.5,-9.89 4.4,5.75 4.52,-7.86 -4.9,-0.27 -9.25,0.46 -13.42,-1.44 0.01,-0.39 -0.02,-0.94 0.04,-1.17l2 -3.17zm-0.39 -534.42c-0.27,0.24 -0.7,0.21 -0.85,0.66 -0.59,1.84 -27.49,11.45 -33.57,16.99l4.08 7.07c0.14,0.3 0.35,0.59 0.49,0.88 5.78,12.3 -2.52,21.48 -4.56,25.11 -3.07,-3.26 -2.04,-1.68 -14.51,-1.74l-14.31 -4.29 -0.09 1.74c-0.25,3.64 0.65,-1.7 -0.16,2.47 -0.3,1.58 1.23,0.55 -1.54,3.02 -0.1,0.08 -0.41,0.3 -0.51,0.37 -3.05,1.98 -5.96,-0.43 -6.28,-0.6l-4.91 4.99c-1.68,2.05 -5.74,2.77 -8.79,3.15 0.91,19.19 4.91,13.82 5.16,23.19l28.81 0.15c6.15,-2.91 2.77,-4.1 4.72,-8.71 1.7,3.24 0.98,1.2 4.09,3.47 2.5,-2.22 0.8,2.26 3.08,-4.47l18.33 -4.93c-2.03,-3.06 -1.77,-0.42 -3.02,-4.44 -0.61,-1.97 -0.28,-3.76 -0.21,-6.04l-2.12 -1.06c-0.23,-0.17 -1.43,-0.89 -1.68,-1.14 -1.36,-1.34 -1.24,0.73 -1.52,-3.04 5.14,-2.4 1.79,2.7 8.88,-4.82 5.02,-5.33 3.38,1.56 4.58,-16.46l6.2 -0.37 0.71 15.48 20.25 0.39 -0.19 8.71c4.39,-0.33 3.33,-1.03 6.44,0.5 2.48,1.22 0.75,1.18 3.51,3.42 0.24,0.2 0.53,0.44 0.79,0.63l10.42 3c1.14,2.63 2.05,2.53 -0.31,8.86 6.51,2.63 8.07,2.8 7.9,15.96l0.33 15.73c1.95,8 2.46,-0.94 2.56,7.93 -3.05,2.75 -4.56,0.48 -6.9,5.24 2.3,5.36 3.05,0.72 4.73,5.92 2.91,9.02 -3.07,5.11 -4.23,5.33 29.23,84.12 145.64,73.6 163.25,-8.44 2.66,-12.44 0.08,-35 4.53,-43.84 4.84,-9.64 17.35,-17.93 31.52,-13.62 22.62,6.87 45.18,33.18 60.07,35.49 24.75,3.86 46.89,-28.36 17.25,-51.22 -33.81,-26.08 -69.82,-44.18 -111.7,-56.02 -11.49,-3.24 -12.47,-0.47 -21.18,-1.07 -0.99,1.03 -0.93,0.93 -2.41,2.11l-11.76 9.41c-15.71,12.37 -30.65,18.55 -53.09,17.65 -38.46,-1.53 -45.9,-25.88 -65.45,-29.57 -13.97,-2.92 -36.13,10.92 -46.83,10.87zm311.48 321.4c1.8,5.22 5.28,3.09 3.35,10.36 -1.08,4.1 -4.73,6.52 -9.87,4.87 -4.54,-1.45 -11.47,-15.23 6.52,-15.23zm-33.35 2.82c4.23,0.39 11.79,-0.82 14.33,3.39 3.26,5.42 -1.56,7.67 -5.94,8.03 -10.64,0.88 -17.23,-3.61 -20.21,-12.61 -7.09,-21.39 20.96,-35.67 30.31,-16.05 -2.5,6.46 -12.5,17.68 -17.2,13.82 -4.94,-7.35 0.97,-7.48 3.41,-12.56 -10.79,2.23 -7.28,9.83 -4.7,15.98zm48.09 -188.23c1.2,5.34 26.53,34.2 26.69,50.44 0.12,11.61 -7.35,20.83 -15.66,24.42 -9.32,4.03 -24.16,1.73 -35.06,2.94 -40.76,4.51 -70.28,36.35 -74.59,77.48l-0.05 7c9.9,2.22 1.1,2.73 11.37,0.28 4.37,-1.03 7.56,-0.65 11.6,1.18 10.3,4.66 7.4,32.98 5.71,34.83 -2,2.2 -3.34,2.34 -5.85,1.23 -4.42,-1.95 -1.61,1.19 -2.74,-4.06 -1.89,-8.74 4.79,-22.87 -6.9,-22.34 -1.88,4.32 -1.12,9.52 -1.17,14.71 -0.07,7.76 -0.47,5.72 -2.15,11.59 0.96,10.67 18.8,27.18 29.69,34 36.75,23.03 59.69,3.71 77.02,19.96 21.46,20.13 -1.59,43.56 -13.03,62.21 6.3,-1.33 2.6,-2.21 3.99,5.57 0.07,0.38 -0.26,8.03 -0.35,8.39 -2.52,10.18 -8.63,2.46 -8.84,2.32 -2.55,7.72 -2.53,11.27 -3.05,19.43l14.84 -0.27c0.27,-0.28 0.49,-1.32 0.61,-1.08l1.79 -2.88c0.41,-0.44 -2.07,-1.54 2.84,-1.54 5.3,0 0.86,0.04 5.24,5.55 12.93,0 12.67,2.62 12.67,-10.48 9.27,-1.04 5.38,1.32 8.3,-5.24 8.61,0 7.49,-1.03 14.3,-1.75 7.47,-4.28 28.77,-52.91 33.56,-66.6 12.81,-36.6 10.74,-37.57 -3.48,-55.54 -22.89,-28.95 -24.47,-64.02 -4.58,-93.99 6.4,-9.66 18.82,-16.26 16.08,-34.11 -1.23,-8.06 -9.62,-33.01 -11.91,-36.74l-5.53 -0.17c-1.65,-4.64 -4.43,-2.24 -5.05,-9.46 -0.47,-5.42 0.98,-9.21 -4.57,-13.03 -3.24,3.92 -2.62,5.85 -2.61,10.92l-5.69 0c0,-4.91 -0.38,-9.66 0.7,-13.57 0,-0.01 1.39,-1.8 1.26,-6.49 -0.47,-16.48 -11.5,-4.51 -12,-27.98 -2.69,2.48 -4.01,7.42 -5.24,11.35l-1.83 -4.4c-0.12,-0.74 -0.5,-0.86 -0.8,-1.32l-8.29 0.48c0,-7.29 0.69,-8.94 -2.21,-13.54 -5.85,-9.28 -2.94,-6.81 -9.15,-6.99l0 -10.48 -8.73 0c-0.36,-6.96 1.89,-4.11 -4.36,-4.81l0.26 -0.11c-3.37,3.97 -7.97,2.55 -11.62,2.3 -2.21,10.64 -4.75,-2.02 -4.76,9.88 0,13.59 5.51,9.85 -0.04,10.65 2.01,15.59 6.05,11.56 3.37,19.86zm-514.62 67.05c-1.07,6.76 -3.84,12.65 -4.37,18.95 -0.86,10.25 2.87,12.05 3.35,17.69 5.05,3.28 11.43,11.39 14.53,16.47 9.54,15.6 13.02,28.9 11.94,48.17 -0.44,7.92 -5.17,19.32 -4.81,24.24 2.94,6.9 0.12,9.04 -0.3,9.36 2.18,2.76 -0.66,2.85 10.65,2.83l-0.16 39.76 -18.35 0 -5.23 10.33c0.37,0.31 0.9,0.56 1.24,0.76l2.96 1.73c1.76,1.23 3.22,6.7 -4.2,9.31 0.21,0.38 1.19,2.08 1.39,2.5l1.75 4.53c1.07,5.16 0.79,3.16 -0.23,6.62 -0.55,12.35 24.69,50.52 32.27,62.42 11.32,17.78 21.16,32.63 41.93,28.58 7.78,-1.52 10.99,-6.72 14.63,-8.33 14.16,-26.6 0.33,-32.78 -12.76,-52.18 -5.25,-7.78 -9.71,-14.84 -14.3,-23.64 -4.48,-8.59 -5.9,-23.94 1.74,-29.17 1.9,-4.1 1.17,-3.37 5.15,-6.27 1.95,-1.43 4.19,-2.72 6.88,-3.58 12.74,-4.09 26.96,2.25 53.18,-7.06 15.62,-5.54 41.79,-26.15 42.15,-36.92l0.43 -5.64c-5.9,-4.95 -4.72,-6.31 -7.92,-9.58 -4.21,0.89 -3.52,-2.53 -2.85,-2.22l-2.28 0.81c-5.77,2.38 -4.6,2.2 -7.39,8.49 -3.83,8.68 -1.94,4.67 -4.6,5.73 -6.5,2.59 -5.82,0.21 -7.63,-1.93l-1.35 2.63c-4.97,0 -3.4,-0.4 -7.5,1.17 -2.99,1.15 -0.11,2.11 -3.56,0.99 -4.84,-1.56 0.59,-2 -10.88,-2.92 -11.52,-0.93 -17.81,-6.55 -18.68,6l-1.63 -2.12c-2.74,-5.11 0.25,-8.29 0.89,-11.15 0.86,-3.83 -1.05,-11.41 -0.75,-19.5 0.07,-1.77 -0.09,-3.52 0.75,-5.09 1.49,-2.8 -0.11,-1.87 3.52,-2.56 4.25,-2.27 3.76,-4.48 9.51,-5.53 6.7,-1.22 5.22,1.33 12.05,-0.16 -1.43,5.98 -1.42,4.99 -0.02,10.96 -5.54,-0.48 -5.03,-0.67 -8.61,2.37l-4.61 6.57c3.01,2.58 8.38,4.5 9.12,5.29 6.99,-4.72 1.74,-25.39 3.43,-34.29 1.09,-5.7 2.07,-5.65 7.8,-6.37l1.24 -0.27c0.23,0 1.04,0.03 1.3,0.09 2.1,0.46 2,0.96 3.02,1.49 -0.26,8.6 -2.29,27.95 0.99,34.4 0.28,-3.49 1.82,-11.78 1.89,-12.67 0.18,-2.2 1.81,-5.33 2.04,-8.64l2.73 0.5c2.98,-0.15 -0.04,0.17 3.3,-0.7 14.37,-3.78 10.26,1.61 20.17,2.72 0.27,-0.35 0.55,-0.79 0.74,-1.1 4,-6.49 2.75,-8.26 7.34,-10.36 1.38,2.31 3.44,7.25 6.29,8.3l0.7 -18.66c-0.13,-9.25 -8.22,-26.44 -13.96,-29.63 -2.03,1.42 -1.05,0.66 -1.77,4.83 -4.85,-2.55 -6.37,-5.37 -6.75,-5.65 -6.07,-4.46 -4.46,-1.24 -7.86,-1.75 -0.9,-0.14 -2.38,-0.34 -3.08,-2.21 1.48,-0.78 1.02,-0.42 2.23,-1.67 0.24,-0.24 1.15,-1.35 1.34,-1.58l1.46 -1.99c-5.25,-3.08 -4.07,-0.06 -2.41,-3.49 -6.8,-0.37 -6.89,0.51 -13.05,1.36 -6.47,0.89 -1.17,-0.85 -7.9,-1.79 -0.06,-8.52 -1.43,-9.02 -1.74,-14.96 -0.1,-0.1 0.07,-0.28 -1.54,-1.39 -0.59,-0.4 -1.6,-0.72 -1.97,-0.88 -12.17,-2.01 -18.68,-2.89 -32.8,-2.9 -23.76,0 -36.06,-14.92 -31.01,-34.5 1.44,-5.57 7.72,-17.55 12.21,-20.87 1.21,-5.81 4.9,-6.58 5.32,-11.85l-2.91 -8.31 4.64 -3.57c-1.91,-1.92 -2.58,-1.98 -3.93,-5.6l5.43 -4.96 5.06 -21.24 -11.8 -1.31c3.42,-1.82 3.13,-2.38 5.25,-6.55 3.99,0.75 4.38,0.89 7.83,0.68 -7.09,-8.04 -14.35,-8.12 -28.01,-6.71 -8.92,8.77 -2.16,-3.92 -22.59,23.52 -11.26,15.12 -26.09,40.53 -33.31,58.37 -2.38,5.89 -10.74,29.96 -12.4,32.45zm358.99 -222.11c1.73,-7.16 23.01,-31.53 5.33,-69.01 -9.19,-19.46 -32.69,-36.8 -51.47,-36.47 -49.02,-9.08 -91.6,46.67 -68.08,94.38 19.96,40.49 71.37,49.38 103.18,21.47 2.69,-2.36 2.95,-2.55 5.33,-5.17 2.55,-2.79 2.7,-3.22 5.71,-5.2zm-116.35 647.23c0.01,5.47 -4.03,14.84 -4.38,23.47 -0.37,9.38 2.77,17.82 2.83,25.53 2.08,1.88 7.63,13.78 10.83,17.97 13.6,17.74 37.84,29.07 62.67,25.27 72.31,-11.04 75.08,-113.95 5.77,-130.37 -32.11,-7.61 -58.89,7.43 -74.15,33.25l-3.57 4.88zm389.43 -269.51l0.16 -0.48c14.46,4.14 23,8.12 40.55,5.14 12.65,-2.15 24.92,-8.69 32.2,-15.03 17.87,-15.56 25.68,-38.21 20.66,-68.81l0.2 -1.81c-3.27,-3.22 -5.29,-10.11 -7.85,-14.47 -21.15,-36.02 -71.4,-41.37 -99.65,-15.97 -13.4,12.05 -27.35,33.35 -22.44,62.04 5.81,33.95 32.14,44.63 36.17,49.39zm-726.47 -113.3l-5.11 5.95c-15.01,14.62 -22.83,40.56 -17.24,61.82 10.56,40.14 41.05,44.63 44.08,48.43 11.18,1.68 15.75,3.77 27.91,2.29 9.4,-1.15 18.58,-5.94 24.55,-6.44 1.81,-2.47 -0.85,0.1 2.86,-3.01 5.9,-4.93 11.21,-6.25 19.58,-18.36 5.47,-7.93 11.06,-20.03 11.72,-31.63 1.06,-18.85 -3.49,-36.08 -15.13,-49.26l-11.21 -11.69c-3.87,-0.72 -12.02,-6.4 -18.37,-8.53 -34.05,-11.38 -53.71,7.01 -63.64,10.43zm219.57 -200.67l2.61 -3.67 -3.06 -5.11c-8.13,2.45 -39.28,22.11 -27.76,46.42 3.58,7.55 10.99,14.75 21.98,15.74 23.21,2.1 51.42,-40.14 77.88,-36.69 9.88,1.28 18,8.18 21.29,16.39 2.73,6.83 2.13,28.65 2.72,37.92l3.37 12.57c1.16,-0.22 7.14,3.69 4.23,-5.33 -1.68,-5.2 -2.43,-0.56 -4.73,-5.92 2.34,-4.76 3.85,-2.49 6.9,-5.24 -0.1,-8.87 -0.61,0.07 -2.56,-7.93l-0.33 -15.73c0.17,-13.16 -1.39,-13.33 -7.9,-15.96 2.36,-6.33 1.45,-6.23 0.31,-8.86l-10.42 -3c-0.26,-0.19 -0.55,-0.43 -0.79,-0.63 -2.76,-2.24 -1.03,-2.2 -3.51,-3.42 -3.11,-1.53 -2.05,-0.83 -6.44,-0.5l0.19 -8.71 -20.25 -0.39 -0.71 -15.48 -6.2 0.37c-1.2,18.02 0.44,11.13 -4.58,16.46 -7.09,7.52 -3.74,2.42 -8.88,4.82 0.28,3.77 0.16,1.7 1.52,3.04 0.25,0.25 1.45,0.97 1.68,1.14l2.12 1.06c-0.07,2.28 -0.4,4.07 0.21,6.04 1.25,4.02 0.99,1.38 3.02,4.44l-18.33 4.93c-2.28,6.73 -0.58,2.25 -3.08,4.47 -3.11,-2.27 -2.39,-0.23 -4.09,-3.47 -1.95,4.61 1.43,5.8 -4.72,8.71l-28.81 -0.15c-0.25,-9.37 -4.25,-4 -5.16,-23.19 3.05,-0.38 7.11,-1.1 8.79,-3.15l4.91 -4.99c0.32,0.17 3.23,2.58 6.28,0.6 0.1,-0.07 0.41,-0.29 0.51,-0.37 2.77,-2.47 1.24,-1.44 1.54,-3.02 0.81,-4.17 -0.09,1.17 0.16,-2.47l0.09 -1.74zm63.62 489.74l-2 3.17c-0.06,0.23 -0.03,0.78 -0.04,1.17 4.17,1.9 8.52,1.17 13.42,1.44 -0.12,13.61 -4.02,-2.03 -4.52,7.86l13.36 0.38c0.01,-0.61 0.01,-3.43 0.01,-3.43 1.79,-9.68 6.46,-7.42 10.49,-7.42 0.08,-2.15 -0.03,-4.42 0.31,-6.51l0.38 -1.69c0.04,-0.24 0.15,-0.6 0.2,-0.85 3.37,-19.84 2.47,-21.89 2.91,-40.83 0.31,-13.29 7.62,-3.98 1.44,-16.94 5.03,1.3 5.36,3.04 7.33,-3.68 0.14,-0.48 0.17,-0.99 0.27,-1.41 0.1,-0.43 0.05,-1.01 0.25,-1.46l13.1 0 0.01 -7.87 5.19 -4.1c2.48,-2.65 -4.65,-3.71 5.42,-3.76 -0.28,-21.31 -3.71,-3.27 -5.24,-17.04l3.91 -1.87c0.26,-0.13 0.85,-0.47 1.2,-0.74l1.81 2.82c3.14,3.81 -1.96,0.94 3.43,3.33 6.61,-8.8 -4.34,-11.71 5.17,-12.64 2.85,-0.27 5.2,1.33 7.98,1.47 3.87,0.2 5.19,-0.95 10.29,-1.53l-0.88 10.86c4.7,0.01 4.68,-0.54 7.42,-1.01 3.86,-0.66 -4.22,-1.16 2.35,-0.2 0.27,0.04 2.06,1.17 2.13,1.22l0 -10.35c5.74,-0.12 14.17,-1.05 17.81,-0.55 7.47,1.04 10.91,5.92 13.23,-5.21 -5.95,-1.97 -5.19,-1.22 -11.4,-0.26 -0.35,0.05 -0.71,0.14 -1.03,0.18l-3.14 -4.64c1.82,0.03 2.68,0.13 5.01,0.13 4.88,0.01 1.04,0.91 6.97,-0.34 -0.32,-0.22 -0.76,-0.44 -1.02,-0.56l-6.4 -2.07c-32.47,-4.89 -63.89,11.32 -82.59,38.45 -27.07,39.28 4.96,86.87 -44.54,86.48zm-192.91 -167.82c-1.42,15.03 5.45,24.08 7.51,36.88 1.96,2.35 1.4,2.61 2.91,6.47 0.42,1.07 1.18,2.82 1.8,3.82 1.44,2.33 0.63,1.1 2.06,2.52 1.02,-3.46 1.3,-1.46 0.23,-6.62l-1.75 -4.53c-0.2,-0.42 -1.18,-2.12 -1.39,-2.5 7.42,-2.61 5.96,-8.08 4.2,-9.31l-2.96 -1.73c-0.34,-0.2 -0.87,-0.45 -1.24,-0.76l5.23 -10.33 18.35 0 0.16 -39.76c-11.31,0.02 -8.47,-0.07 -10.65,-2.83 0.42,-0.32 3.24,-2.46 0.3,-9.36l-3.81 5.16c-11.49,20.36 -16.9,18.05 -20.95,32.88zm518.74 -230.61c2.68,-8.3 -1.36,-4.27 -3.37,-19.86 5.55,-0.8 0.04,2.94 0.04,-10.65 0.01,-11.9 2.55,0.76 4.76,-9.88 3.65,0.25 8.25,1.67 11.62,-2.3l-0.26 0.11c6.25,0.7 4,-2.15 4.36,4.81l8.73 0 0 10.48c6.21,0.18 3.3,-2.29 9.15,6.99 2.9,4.6 2.21,6.25 2.21,13.54l8.29 -0.48c0.3,0.46 0.68,0.58 0.8,1.32l1.83 4.4c1.23,-3.93 2.55,-8.87 5.24,-11.35 0.5,23.47 11.53,11.5 12,27.98 0.13,4.69 -1.26,6.48 -1.26,6.49 -1.08,3.91 -0.7,8.66 -0.7,13.57l5.69 0c-0.01,-5.07 -0.63,-7 2.61,-10.92 5.55,3.82 4.1,7.61 4.57,13.03 0.62,7.22 3.4,4.82 5.05,9.46l5.53 0.17c-5.85,-20.9 -41.84,-87.77 -61.71,-94.05 -32,-10.11 -46.67,34.18 -25.18,47.14zm36.79 364.4l0.31 -0.42c5.2,-8.67 17.32,-21.2 20.12,-30.09 -6.81,0.72 -5.69,1.75 -14.3,1.75 -2.92,6.56 0.97,4.2 -8.3,5.24 0,13.1 0.26,10.48 -12.67,10.48 -4.38,-5.51 0.06,-5.55 -5.24,-5.55 -4.91,0 -2.43,1.1 -2.84,1.54l-1.79 2.88c-0.12,-0.24 -0.34,0.8 -0.61,1.08l-14.84 0.27c0.52,-8.16 0.5,-11.71 3.05,-19.43 0.21,0.14 6.32,7.86 8.84,-2.32 0.09,-0.36 0.42,-8.01 0.35,-8.39 -1.39,-7.78 2.31,-6.9 -3.99,-5.57 -3.54,4.21 -3.8,5.32 -7,9.26 -19.24,23.68 -0.65,44.56 14.88,46.67 13.22,1.8 18.04,-4.18 24.03,-7.4zm-441.81 -197.14c-5.88,10.86 -5.59,37.09 18.34,32.3 5.84,-1.17 10.35,-5.88 12.35,-11.14 2.39,-6.27 2.27,-23.81 2,-31.92 -0.22,-6.62 0.11,-6.9 -4.02,-10.4 -5.73,0.72 -6.71,0.67 -7.8,6.37 -1.69,8.9 3.56,29.57 -3.43,34.29 -0.74,-0.79 -6.11,-2.71 -9.12,-5.29l4.61 -6.57c3.58,-3.04 3.07,-2.85 8.61,-2.37 -1.4,-5.97 -1.41,-4.98 0.02,-10.96 -6.83,1.49 -5.35,-1.06 -12.05,0.16 -5.75,1.05 -5.26,3.26 -9.51,5.53zm39.19 32.55c-2.53,-8.67 -5.63,-36.46 10.44,-38.27 9.58,-1.09 9.11,2.09 9.06,9.45 -8.33,3.15 -9.13,2 -9.52,13.01 -0.41,11.58 2.91,15.12 -9.98,15.81zm-10.52 -53.71c4.13,3.5 3.8,3.78 4.02,10.4 0.27,8.11 0.39,25.65 -2,31.92 -2,5.26 -6.51,9.97 -12.35,11.14 -23.93,4.79 -24.22,-21.44 -18.34,-32.3 -3.63,0.69 -2.03,-0.24 -3.52,2.56 -0.84,1.57 -0.68,3.32 -0.75,5.09 -0.3,8.09 1.61,15.67 0.75,19.5 -0.64,2.86 -3.63,6.04 -0.89,11.15l1.63 2.12c0.87,-12.55 7.16,-6.93 18.68,-6 11.47,0.92 6.04,1.36 10.88,2.92 3.45,1.12 0.57,0.16 3.56,-0.99 4.1,-1.57 2.53,-1.17 7.5,-1.17l1.35 -2.63c1.81,2.14 1.13,4.52 7.63,1.93 2.66,-1.06 0.77,2.95 4.6,-5.73 2.79,-6.29 1.62,-6.11 7.39,-8.49l2.28 -0.81c-0.67,-0.31 -1.36,3.11 2.85,2.22 -3.09,-22.51 1.74,-21.52 17.02,-28.42l1.05 -9.56 0.45 -6.16c-1.18,-6.58 0.02,-1.52 -2.04,-3.59l-0.7 18.66c-2.85,-1.05 -4.91,-5.99 -6.29,-8.3 -4.59,2.1 -3.34,3.87 -7.34,10.36 -0.19,0.31 -0.47,0.75 -0.74,1.1 -9.91,-1.11 -5.8,-6.5 -20.17,-2.72 -3.34,0.87 -0.32,0.55 -3.3,0.7l-2.73 -0.5c-0.23,3.31 -1.86,6.44 -2.04,8.64 -0.07,0.89 -1.61,9.18 -1.89,12.67 -3.28,-6.45 -1.25,-25.8 -0.99,-34.4 -1.02,-0.53 -0.92,-1.03 -3.02,-1.49 -0.26,-0.06 -1.07,-0.09 -1.3,-0.09l-1.24 0.27zm-28.62 218.4c-7.87,4.06 -15.54,12.13 -15.1,25.32 0.59,17.8 13.35,19.75 14.9,24.84l5.51 3.32c3.58,0.43 2.8,-0.02 6.14,-0.8 -0.32,-7.27 -0.38,-2.51 -1.92,-6.15l-3.99 -7.33c-3.58,-5.28 -5.09,-14.21 -5.09,-20.45 0.3,-0.23 0.8,-0.9 0.97,-0.63 0.19,0.32 1.01,-0.68 1.86,-1.2 6.73,-4.04 6.38,-2.3 10.01,-3.41 -0.41,-7.61 0.29,-0.51 -2.2,-3.66 -0.26,-0.33 -6.38,1.47 -0.22,-2.07 5.17,-2.97 7.91,0.03 13.81,-1.21 -0.64,-3 -0.48,-1.4 -1.25,-2.64 -5.66,-9.24 2.4,6.16 -1.7,-2.21l1.92 -0.92 -5.63 -3.22c-1.44,-0.34 -4.91,-0.52 -6.43,-0.48 -4.98,0.13 -7.64,1.21 -11.59,2.9zm15.07 -464.59l3.06 5.11 -2.61 3.67 14.31 4.29c12.47,0.06 11.44,-1.52 14.51,1.74 2.04,-3.63 10.34,-12.81 4.56,-25.11 -0.14,-0.29 -0.35,-0.58 -0.49,-0.88l-4.08 -7.07c-6.01,2.16 -26.72,14.01 -29.26,18.25zm48.82 289.02c3.2,3.27 2.02,4.63 7.92,9.58l-0.43 5.64 3.09 -0.46 -0.13 -1.26c2.53,-7.74 6.64,-15.34 7.89,-23.67 0.94,-6.24 2.76,-18.63 1.15,-24.65 -0.78,-2.91 -0.14,-1.4 -1.42,-3.16l-1.05 9.56c-15.28,6.9 -20.11,5.91 -17.02,28.42zm-86.8 -178.65c4.14,-2.29 5.76,-5.97 9.59,-10.92 10.52,-13.59 13.84,-26.37 -0.02,-39.94 -3.45,0.21 -3.84,0.07 -7.83,-0.68 -2.12,4.17 -1.83,4.73 -5.25,6.55l11.8 1.31 -5.06 21.24 -5.43 4.96c1.35,3.62 2.02,3.68 3.93,5.6l-4.64 3.57 2.91 8.31zm62.05 189.53c12.89,-0.69 9.57,-4.23 9.98,-15.81 0.39,-11.01 1.19,-9.86 9.52,-13.01 0.05,-7.36 0.52,-10.54 -9.06,-9.45 -16.07,1.81 -12.97,29.6 -10.44,38.27zm329.53 -6.54c-2.05,7.41 -22.86,3.92 -21.56,-14.31 0.42,-5.85 4.62,-11.61 8.9,-13.36 7.36,-3 11.33,0.65 16.15,3.39 -0.77,5.42 0.65,1.57 -1.95,5.54 -2.75,4.22 -6.74,8.68 -10.53,7.19 0.63,-6.13 3.83,-4.45 6.16,-10.73 -8.32,-4.06 -16.01,2.17 -14.53,11.72 1.79,11.56 12.59,7.7 17.36,10.56zm-11.79 -5.04c-2.58,-6.15 -6.09,-13.75 4.7,-15.98 -2.44,5.08 -8.35,5.21 -3.41,12.56 4.7,3.86 14.7,-7.36 17.2,-13.82 -9.35,-19.62 -37.4,-5.34 -30.31,16.05 2.98,9 9.57,13.49 20.21,12.61 4.38,-0.36 9.2,-2.61 5.94,-8.03 -2.54,-4.21 -10.1,-3 -14.33,-3.39zm-290.47 -76.66c-4.7,-10.33 -24.47,-26.5 -39.53,-28.9 0.31,5.94 1.68,6.44 1.74,14.96 6.73,0.94 1.43,2.68 7.9,1.79 6.16,-0.85 6.25,-1.73 13.05,-1.36 -1.66,3.43 -2.84,0.41 2.41,3.49l-1.46 1.99c-0.19,0.23 -1.1,1.34 -1.34,1.58 -1.21,1.25 -0.75,0.89 -2.23,1.67 0.7,1.87 2.18,2.07 3.08,2.21 3.4,0.51 1.79,-2.71 7.86,1.75 0.38,0.28 1.9,3.1 6.75,5.65 0.72,-4.17 -0.26,-3.41 1.77,-4.83zm239.89 50.71l-0.04 3.19 6.57 3c0.48,-0.45 1.78,-1.42 2.06,-1.58 18.01,-9.94 20.5,17.01 19.06,25.23 -1.23,6.99 0.42,3.71 -3.98,4.33 -0.38,-4.34 0.06,-9.17 -0.03,-13.7 -0.07,-3.78 0.22,-4.15 -0.96,-7.76 -1.48,-4.5 -1.59,-4.61 -4.74,-5.43 -12.29,-3.19 -9.55,16.02 -9.25,25.02l-1.81 0c0.13,0.45 0.24,0.65 0.37,1.34 0.11,0.64 0.28,0.96 0.45,1.22 1.74,2.76 -0.08,0.6 2.17,2.56 1.68,-5.87 2.08,-3.83 2.15,-11.59 0.05,-5.19 -0.71,-10.39 1.17,-14.71 11.69,-0.53 5.01,13.6 6.9,22.34 1.13,5.25 -1.68,2.11 2.74,4.06 2.51,1.11 3.85,0.97 5.85,-1.23 1.69,-1.85 4.59,-30.17 -5.71,-34.83 -4.04,-1.83 -7.23,-2.21 -11.6,-1.18 -10.27,2.45 -1.47,1.94 -11.37,-0.28zm0.73 12.94c1.42,4.49 2.6,15.62 6.15,19.36l1.81 0c-0.3,-9 -3.04,-28.21 9.25,-25.02 3.15,0.82 3.26,0.93 4.74,5.43 1.18,3.61 0.89,3.98 0.96,7.76 0.09,4.53 -0.35,9.36 0.03,13.7 4.4,-0.62 2.75,2.66 3.98,-4.33 1.44,-8.22 -1.05,-35.17 -19.06,-25.23 -0.28,0.16 -1.58,1.13 -2.06,1.58l-6.57 -3 0.77 9.75zm61.64 18.05c-4.77,-2.86 -15.57,1 -17.36,-10.56 -1.48,-9.55 6.21,-15.78 14.53,-11.72 -2.33,6.28 -5.53,4.6 -6.16,10.73 3.79,1.49 7.78,-2.97 10.53,-7.19 2.6,-3.97 1.18,-0.12 1.95,-5.54 -4.82,-2.74 -8.79,-6.39 -16.15,-3.39 -4.28,1.75 -8.48,7.51 -8.9,13.36 -1.3,18.23 19.51,21.72 21.56,14.31zm21.56 -7.86c-17.99,0 -11.06,13.78 -6.52,15.23 5.14,1.65 8.79,-0.77 9.87,-4.87 1.93,-7.27 -1.55,-5.14 -3.35,-10.36z"/>
 </g>
</svg>
