<?xml version="1.0" encoding="UTF-8"?>
<!DOCTYPE svg PUBLIC "-//W3C//DTD SVG 1.1//EN" "http://www.w3.org/Graphics/SVG/1.1/DTD/svg11.dtd">
<!-- Creator: CorelDRAW 2019 (64-Bit) -->
<svg xmlns="http://www.w3.org/2000/svg" xml:space="preserve" width="100%" height="100%" version="1.1" style="shape-rendering:geometricPrecision; text-rendering:geometricPrecision; image-rendering:optimizeQuality; fill-rule:evenodd; clip-rule:evenodd"
viewBox="0 0 750.64 846.66"
 xmlns:xlink="http://www.w3.org/1999/xlink">
 <defs>
  <style type="text/css">
   <![CDATA[
    .fil0 {fill:#FF4612}
   ]]>
  </style>
 </defs>
 <g id="Layer_x0020_1">
  <metadata id="CorelCorpID_0Corel-Layer"/>
  <path class="fil0" d="M480.22 757.08l-36.58 -39.03c18.87,7.46 30.23,19.08 36.58,39.03zm-317.31 -78.41l12.08 -12.4c-5.18,15.6 2.4,9.24 -12.08,12.4zm39.82 -39.81c-4.95,11.83 3.4,6.63 -13.57,11.11l13.57 -11.11zm325.75 -14.15l35.22 24.41c7.96,9.75 -0.53,-3.6 6.63,12.81 -13.21,-8.58 -15.1,-11.44 -25.58,-18.98 -20.59,-14.81 -12.87,-8.99 -16.27,-18.24zm0 0c-17.36,-6.73 -38.8,-26.21 -55.66,-37.94 -10.38,-7.22 -16.89,-10.92 -27.44,-17.08 -4.66,-2.72 -12.56,-7.19 -15.34,-9.23 -10.17,-7.49 -7.39,-6.78 -9.95,-10.06 17.27,2.44 99.84,53.57 108.39,74.31zm-187.56 -34.42c5.76,-31.19 21.36,-51.13 54.42,-56.78 6.82,3.06 9.47,3.77 14.66,7.14 10.42,6.78 8.52,7.91 10.09,9.75 -19.49,-1.97 -27.92,-16.17 -49.34,0.03 -17.78,13.45 -12.18,18.71 -21.78,32.55 -5.84,8.41 -3.32,3.7 -8.05,7.31zm-178.01 88.38c-5.7,24.91 -6.36,25.7 3.19,46.16 36.73,10.18 42.43,-2.64 61.33,-21.45 18.35,-18.26 36.4,-29.16 20.92,-65.06 -22.14,-7.6 -23.49,-7.02 -45.62,0.54 8.88,-25.44 57.18,-17.19 59.56,29.51 28.68,-5.57 27.47,-0.92 34.28,5.55 19.42,8.23 17.54,15.36 17.63,36.73 34.45,-1.75 46.95,6.63 47.44,41.6 31.17,-1.6 33.56,-1.34 39.04,10.04 11.75,6.46 28.18,39.91 50.13,45.15 38.06,9.09 41.67,-25.24 31.04,-51.36 18.88,7.06 29.45,10 49,3.9 18.95,-53.1 -17.74,-50.46 -39.09,-83.43 27.95,5.88 34.49,51.27 82.81,51.08 19.29,-20.13 17.97,-32.08 6.42,-55.91 29.05,3.85 43.41,-17.67 71.45,-26.95l-79.23 -177.31c-80.16,32.88 -115.91,-32.41 -194.86,-3.06 -28.27,10.5 -65.28,17.88 -80,38.52 -13.74,19.27 -27.46,75.91 -20.06,100.46 25.59,11.72 30.42,9.22 50.97,-5.36l11.66 -7.73c-20.22,40.76 -110.35,49.08 -54.07,-79.11 15.87,-36.16 47.73,-28.24 73.11,-49.49 -40,-27.96 -104.27,37.33 -181.78,5.77l-81.33 176.59 66.06 34.62zm71.88 -584.5c82.84,-1.29 96.21,-20.36 140.81,-52.86 46.54,33.5 60.08,51.95 140.9,52.84 11.32,49.58 -12.3,136.45 -32.1,175.37 -13.38,26.32 -27.64,46.63 -45.6,62.94 -52.57,47.73 -74.93,48.9 -128.87,-2.49 -53.87,-51.31 -89.81,-171.26 -75.14,-235.8zm-23.93 -24.23c-12.45,103.77 16.4,206.74 85.57,278.48 14.81,15.35 49.27,45.15 79.17,45.16 51.79,0.01 110.79,-74.31 131.03,-116.8 27.96,-58.71 42.69,-134.61 33.72,-206.85 -41.17,-2.89 -60.44,4.98 -101.14,-12.38 -42.25,-18.01 -37.39,-30.79 -63.61,-57.55 -26.32,26.87 -20.96,39.67 -63.53,57.65 -41.3,17.44 -59.85,9.05 -101.21,12.29zm-210.86 549.04l82.7 38.55 100.14 -215.16 -83.42 -40.27 -99.42 216.88zm568.39 -179.16l99.06 217.62 83.19 -36.05 -98.27 -218.04 -83.98 36.47zm-167.71 322.47c-43.22,-11.01 -30.56,0.33 -56.9,11.94 15.68,-24.97 15.89,-26.82 4.86,-52.9 -25.13,-7.38 -33.15,-7.75 -50.57,8.35 -76.35,70.57 -22.04,89.89 0.91,81.13l20.58 -13.39c0.95,-0.62 2.49,-1.73 3.86,-2.36 -16.23,53.46 20.39,68.97 62.19,27.05 19.37,-19.42 27.62,-24.66 15.07,-59.82zm65.75 -597.04l-26.8 -25.04 -82.82 85.32c-18.28,-8.83 -30.79,-27.15 -45.97,-40.65l-23.49 25.13c14.62,16.64 49.11,56.02 68.68,64.11l110.4 -108.87zm-169.86 508.67c-34.93,-2.8 -38.6,5.9 -55.62,23.26 -11.59,11.84 -36.97,27.79 -27.8,53.87 18.64,52.95 79.25,-24.87 93.57,-35.08 0.77,-15.09 2.31,-11.34 -1.61,-25.84 -2.26,-8.37 0.86,1.23 -2.94,-7.2 -0.44,-0.98 -1.33,-2.3 -1.77,-3.14 -0.43,-0.81 -1.52,-2.34 -1.88,-2.97 -0.37,-0.63 -1.42,-1.87 -1.95,-2.9zm85.6 161.64c25.86,21.41 74.96,15.14 37.41,-48.01l-37.41 48.01z"/>
 </g>
</svg>
