<?xml version="1.0" encoding="UTF-8"?>
<!DOCTYPE svg PUBLIC "-//W3C//DTD SVG 1.1//EN" "http://www.w3.org/Graphics/SVG/1.1/DTD/svg11.dtd">
<!-- Creator: CorelDRAW 2019 (64-Bit) -->
<svg xmlns="http://www.w3.org/2000/svg" xml:space="preserve" width="100%" height="100%" version="1.1" style="shape-rendering:geometricPrecision; text-rendering:geometricPrecision; image-rendering:optimizeQuality; fill-rule:evenodd; clip-rule:evenodd"
viewBox="0 0 621.05 465.68"
 xmlns:xlink="http://www.w3.org/1999/xlink">
 <defs>
  <style type="text/css">
   <![CDATA[
    .fil0 {fill:#A6A182}
   ]]>
  </style>
 </defs>
 <g id="Layer_x0020_1">
  <metadata id="CorelCorpID_0Corel-Layer"/>
  <path class="fil0" d="M436.08 340.79c30.34,-11.81 42.51,30.86 18.14,41.98 -13.52,6.17 -27.26,-1.72 -31.06,-11 -6.63,-16.18 -0.66,-25.69 12.92,-30.98zm-128.51 -1.04c30.72,-9.9 42.44,33.91 15.24,43.61 -29.04,10.35 -45.22,-33.94 -15.24,-43.61zm-129.15 0.26c30.48,-10.75 42.59,33.97 15.04,43.42 -28.15,9.66 -46.04,-32.49 -15.04,-43.42zm-129.29 -0.02c30.42,-11.39 42.89,34.33 14.98,43.54 -27.72,9.14 -45.8,-32.01 -14.98,-43.54zm517.19 -0.24c30.64,-9.41 41.4,36.66 13.58,44.22 -30.57,8.29 -41.06,-35.77 -13.58,-44.22zm-539.85 56.3c17.38,0.79 542.68,3.19 564.95,-0.19 38.68,-5.87 44.3,-68.76 -12.3,-69.35 -46.35,-0.49 -93.1,0.05 -139.5,0.05 -92.92,0 -185.84,-0.05 -278.76,0 -34.09,0.02 -100.66,-3.84 -130.89,0.49 -16.7,2.4 -29.58,16.06 -29.96,33.62 -0.46,21.31 11.55,28.71 26.46,35.38zm434.76 21.48c-7.83,-2.79 -7.26,-4.06 -14.99,-6.4l0.79 18.58 -315.15 1.27 0.39 16.27 315.24 -0.07 -0.08 18.5c7.86,-3.19 14.54,-8.51 21.6,-13.47l14.36 -10.51c3.42,-3.17 1.64,-1.18 3.44,-3.96 -8.27,-7.05 -21.39,-12.43 -25.6,-20.21zm5.77 -112.74c-17.04,-2.8 -12.43,-15.28 -12.34,-31.31 0.09,-15.53 -1.59,-24.72 3.17,-38.69 20.55,-2.17 15.71,8.82 15.58,28.71l-1.13 34.94c-2.13,4.94 -1.65,3.09 -5.28,6.35zm-42.28 -70.39c8.41,0.7 14.15,1.24 14.92,9.49 0.97,10.33 -5.27,9.84 -14.55,10.53l-0.33 10.87c12.3,-3.36 16.86,0.73 14.33,14.68 -2.32,12.77 -6.19,15.24 -14.19,20.82l0.64 9.74 133.1 0.58 0.42 -52.09c-4.71,-3.65 -5.95,-5.6 -14.54,-3.91l-2.74 48.89 -12.56 -0.81c-12.99,-21.42 10.81,-47.48 -19.86,-48.94l-2.63 41.39c-1.9,8.19 -1.21,4.67 -4.89,8.27 -18.9,8.33 -20.69,-49.4 -0.6,-66.2l-26.75 -1.86 -0.68 -12.63c-12.5,6.9 -26.5,3.35 -31.88,-6.76l-17.05 -0.24 -0.16 18.18zm-154.36 75.89l126.96 0.09 0.38 -4.56 -37.77 3.01c-14.2,-0.69 -13.87,-3.79 -17.36,-7.97 7.88,-2.04 15.82,0.03 27.36,-0.01l0 -27.38c-15.59,0 -8.68,-2.93 -14.42,7.53l-2.33 4.9c-6.15,5.87 -8.18,25.43 -37.3,16.85 -6.88,-22.67 4.25,-14.05 16.96,-21.45 9.51,-36.82 -10.28,-3.18 13.38,-46.2l-27.67 -0.09 -1.16 -15.94 -47.53 -0.39 0.08 16.28 15.83 0.22c-3.47,4.21 -0.13,2.53 -7.78,4.46 -0.22,0.06 -6.73,0.59 -7.63,0.76l-0.45 9.85c5.48,-3.27 10.13,-0.51 16.87,2.29 7.23,18.95 1.15,30.77 4.93,48.46 8.07,-2.43 7.69,6.32 6.85,-32.64 -0.41,-18.9 -1.4,-14.78 -9.02,-24.96 -0.51,-0.68 -0.93,-1.3 -1.39,-1.95l-2.83 -4.39c18.25,6.62 18.37,15.09 18.29,36.38 -0.07,20.14 5.27,35.57 -16.78,30.15l-2.64 -47.38c-7.38,-3.03 -4.09,-2.5 -13.71,-2.25l-0.12 56.33zm-131.89 -295.94c-8.01,7.34 -17.34,9.97 -20.84,24.34 -2.78,11.42 -0.59,18.29 3.86,27.79l3.33 7.7c10.37,4.16 20.35,13.14 37.27,8.86 12.26,-3.09 22,-12.8 25.04,-24.78 8.55,-33.59 -19.28,-49.41 -48.66,-43.91zm167.26 -8.06c-6.56,12.74 -20.02,23.81 -8.62,46.26 6.14,12.09 22.01,23.19 41.68,18.04 33.94,-8.88 37.31,-60.16 -3.69,-69.74 -14.94,-3 -18.95,2.77 -29.37,5.44zm-169.02 170.08c-1.81,2.14 -6.31,5.68 -9.33,8.86 -3.71,3.9 -5.9,8.26 -8.68,11.1 -2.58,22.46 4.95,45.61 27.18,43.97 11.09,-7.43 13.51,-5.1 27.68,-7.23 20.67,-13.12 18.53,-64.28 -36.85,-56.7zm52.44 -149.33c5.9,12.65 5.5,18.81 4.14,33.58l95.86 -9.43c-2.21,-18.47 -2.49,-16.36 1.77,-33.91l-101.77 9.76zm10.8 253.89l14.02 0.01c-0.45,16.96 -0.78,18.9 7.59,24.71l-31.74 1.29c0.56,-0.56 1.5,-1.85 1.77,-1.38 0.3,0.54 2.04,-1.33 3.18,-2.73 7.09,-8.72 2.57,-10.63 5.18,-21.9zm-133.53 19.92c6.42,-3.55 -13.21,-11.19 19.83,4.92 -26.8,4.54 -18.11,-3.36 -19.83,-4.92zm161.57 -19.92c-3.28,9.8 1.62,10.84 -4.54,19.05 -6.24,-6.4 -3.95,-7.35 -4.54,-19.05l9.08 0zm-37.02 19.36c-8.66,-4.48 -5.03,-9.17 -5.59,-19.36l7.9 0.04 -2.31 19.32zm-50.31 -19.35c11.25,-0.16 7.97,1.59 16.35,6.25 11.45,6.36 11.36,-0.78 12.11,10 -16.76,7.62 -23.34,-7.44 -28.46,-16.25zm-69.41 -2.4c-7.02,5.1 -5,2.74 -5.69,14.59 -0.26,4.53 0.23,11.53 0.32,16.27l85.33 -1.04c-4.96,-2.06 -0.8,-0.94 -7.81,-1.58l-23.73 -0.21c5.63,-9.55 5.56,-11.13 1.43,-20.41 -17.6,-3.89 -21.83,1.07 -39.27,-5.23l51.66 0c4.06,4.84 12.88,29.71 39.44,21.67 6.59,-15.75 0.74,-13.96 -17.25,-21.74l24.47 0.07c-1.23,14.31 -0.17,17.94 6.9,25.7 -10.25,-0.12 -24.76,-2.49 -32.91,1.8l16.68 0.03 67.82 -0.84 -14.92 -0.62c18.2,-15.78 1.43,-23.24 10.59,-26.78l0.93 -3.21 -27.08 -0.44 -0.02 -0.22c-10.33,0.09 -128.01,-2.67 -136.91,2.97 11.54,4.16 11.06,9.2 20.31,10.7 5.14,0.84 12.81,-0.28 17.3,0.15 16.06,1.56 6.96,-1.59 11.11,5.7 -6.24,6.01 -21.36,4.59 -30.46,3.24 -10.78,-1.6 -14.15,-7.12 -20.4,-11.26l2.16 -9.31zm61.38 -106.86c16.71,-1.25 17.14,-3.78 35.59,-0.52l-0.06 -83.11c-19.18,3.3 -18.76,1.26 -35.61,-0.78 3.77,13.62 3.5,70.22 0.08,84.41zm265.76 123.39c-10.22,-11.1 -8.62,-13.21 -8.65,-34.04 -0.04,-22.22 -1.36,-29.99 2.59,-38.13 6.74,3.02 2.51,-0.95 5.36,5.79l0.7 66.38zm-132.54 -63.9l-0.13 77.14 4.64 1.98 0.12 -56.33c9.62,-0.25 6.33,-0.78 13.71,2.25l2.64 47.38c22.05,5.42 16.71,-10.01 16.78,-30.15 0.08,-21.29 -0.04,-29.76 -18.29,-36.38l2.83 4.39c0.46,0.65 0.88,1.27 1.39,1.95 7.62,10.18 8.61,6.06 9.02,24.96 0.84,38.96 1.22,30.21 -6.85,32.64 -3.78,-17.69 2.3,-29.51 -4.93,-48.46 -6.74,-2.8 -11.39,-5.56 -16.87,-2.29l0.45 -9.85c0.9,-0.17 7.41,-0.7 7.63,-0.76 7.65,-1.93 4.31,-0.25 7.78,-4.46l-15.83 -0.22 -0.08 -16.28 47.53 0.39 33.23 -0.3 47.29 -0.07c-18.87,-3.58 -12.63,24.85 -12.81,42.35 -0.38,37.47 6.27,23.08 12.6,44.77l-0.38 4.56c5.31,-0.16 4.33,1.4 4.4,-3.16l0 -69.69 -0.19 -1.41 0.25 -16.57 -1.98 -4.51 -133.37 0.45 -0.58 15.68zm83.05 3.49c16.48,-1.59 29.61,-2.75 25.5,13.8 -8.41,8.18 -11.54,3.01 -20.3,9.37l-0.92 28.07 2.33 -4.9c5.74,-10.46 -1.17,-7.53 14.42,-7.53l0 27.38c-11.54,0.04 -19.48,-2.03 -27.36,0.01 3.49,4.18 3.16,7.28 17.36,7.97l37.77 -3.01c-6.33,-21.69 -12.98,-7.3 -12.6,-44.77 0.18,-17.5 -6.06,-45.93 12.81,-42.35l-47.29 0.07 -1.72 15.89zm-31.97 -49.41l-24.47 -23.26c13.56,-12.66 10.88,-19.16 35.1,-19.36 27.83,-0.22 23,4.6 37.49,17.98 -7.15,14.2 -20.44,16.43 -23.65,32.54 10.69,-3.39 30.05,-23.08 33.82,-31.68 -9.38,-14.03 -19.29,-11.39 -19.58,-32.19l-53.2 -0.28c0.1,20.4 -9.27,19.29 -19.43,32.47 3.31,7.27 21.94,25.13 29.68,31.04 7.14,-4.72 2.13,1.4 4.24,-7.26zm192.43 69c3.69,-14.19 19.91,-3.35 21.23,8.83 1.25,11.62 -4.06,28.37 3.61,36.49 16.34,-15.2 -14.33,-56.25 25.02,-49.98l-0.46 -8.49c-11.69,-2.28 -15.84,0.39 -24.56,4.01 -1.5,0.07 -24.95,-16.41 -37.03,6 -6.62,12.28 -6.65,40.03 0.43,48.6 5.79,-6.72 4.08,-12.68 4.08,-23.79 0.02,-31.24 2.45,-21.56 7.68,-21.67zm-193.6 -128.52l24.74 0.3 0.63 -48.01 -25.71 -1.31 0.34 49.02zm-213.76 105.85c5.57,9.8 10.11,4.65 16.13,19.49 -1.7,10.5 -8.62,17.3 -15.25,22.53l28.27 0.07c0.15,-7.79 0.54,-9.4 1.7,-14.28 2.77,-11.55 1.04,-4.46 5.47,-14.09 -35.57,-18.53 -17.07,-35.63 -29.73,-36.02 -9.57,3.25 -8.64,10.03 -6.59,22.3zm216.61 65.5c6.43,-19.38 19.07,11.27 21.24,-33.66 1.12,-23.07 15.16,-24.05 29.01,-24.32 1.79,13.49 -3.98,5.89 -17.43,13.17 -6.62,7.05 4.76,46.56 -23.72,46.95 -12.42,0.17 7.17,0.96 -4.66,-0.61l-4.44 -1.53zm30.29 -62.42l-2.68 0.44c-23.66,43.02 -3.87,9.38 -13.38,46.2 -12.71,7.4 -23.84,-1.22 -16.96,21.45 29.12,8.58 31.15,-10.98 37.3,-16.85l0.92 -28.07c8.76,-6.36 11.89,-1.19 20.3,-9.37 4.11,-16.55 -9.02,-15.39 -25.5,-13.8zm158.58 -0.32c-2.07,4.28 5.61,3.5 -6.24,3.37 -20.09,16.8 -18.3,74.53 0.6,66.2 3.68,-3.6 2.99,-0.08 4.89,-8.27l2.63 -41.39c-5.23,0.11 -7.66,-9.57 -7.68,21.67 0,11.11 1.71,17.07 -4.08,23.79 -7.08,-8.57 -7.05,-36.32 -0.43,-48.6 12.08,-22.41 35.53,-5.93 37.03,-6 8.72,-3.62 12.87,-6.29 24.56,-4.01l0.32 -8.66c-38.6,10.31 -27.85,1.85 -49.48,1.5 -0.04,-6.49 0.38,-10.64 -2.75,-15.75l0.63 16.15zm-356.27 74.02l2.93 0.07c8.15,-4.29 22.66,-1.92 32.91,-1.8 -7.07,-7.76 -8.13,-11.39 -6.9,-25.7l-24.47 -0.07c17.99,7.78 23.84,5.99 17.25,21.74 -26.56,8.04 -35.38,-16.83 -39.44,-21.67l-51.66 0c17.44,6.3 21.67,1.34 39.27,5.23 4.13,9.28 4.2,10.86 -1.43,20.41l23.73 0.21c7.01,0.64 2.85,-0.48 7.81,1.58zm407.87 -75.92l-0.16 -15.81 -52.1 -0.97 0.03 2.53c3.13,5.11 2.71,9.26 2.75,15.75 21.63,0.35 10.88,8.81 49.48,-1.5zm-378.41 2.53c10.98,10.4 17.99,18.79 18.41,38.66l9.06 -0.4 -5.84 -63.11 -11.55 -0.8c-3.77,10.08 0.2,6.86 -7.8,21.39l-2.28 4.26zm286.33 5.14c2.57,7.11 0.7,22.25 0.77,30.88 0.04,4.96 0.53,12.98 0.31,17.46 -0.8,16.04 0.63,8.14 -7.54,11.89 -0.65,-10.81 -0.55,-22.87 -0.56,-34.35 -0.01,-11.7 -3.83,-24.89 7.02,-25.88zm0 64.68c3.63,-3.26 3.15,-1.41 5.28,-6.35l1.13 -34.94c0.13,-19.89 4.97,-30.88 -15.58,-28.71 -4.76,13.97 -3.08,23.16 -3.17,38.69 -0.09,16.03 -4.7,28.51 12.34,31.31zm-148.39 -7.71l4.44 1.53c11.83,1.57 -7.76,0.78 4.66,0.61 28.48,-0.39 17.1,-39.9 23.72,-46.95 13.45,-7.28 19.22,0.32 17.43,-13.17 -13.85,0.27 -27.89,1.25 -29.01,24.32 -2.17,44.93 -14.81,14.28 -21.24,33.66zm190.75 -42.83c30.67,1.46 6.87,27.52 19.86,48.94l12.56 0.81 2.74 -48.89c8.59,-1.69 9.83,0.26 14.54,3.91l0.16 -9.43c-39.35,-6.27 -8.68,34.78 -25.02,49.98 -7.67,-8.12 -2.36,-24.87 -3.61,-36.49 -1.32,-12.18 -17.54,-23.02 -21.23,-8.83zm-110.97 40.82l-0.7 -66.38c-2.85,-6.74 1.38,-2.77 -5.36,-5.79 -3.95,8.14 -2.63,15.91 -2.59,38.13 0.03,20.83 -1.57,22.94 8.65,34.04zm-267.24 -21.4l16.28 0.04c0.41,-12.18 4.19,-15.67 11.82,-20.66l-3.36 -6.37 -17.57 -1.38c-4.43,9.63 -2.7,2.54 -5.47,14.09 -1.16,4.88 -1.55,6.49 -1.7,14.28zm-59.92 5.65l0.02 -0.78 -2.16 9.31c6.25,4.14 9.62,9.66 20.4,11.26 9.1,1.35 24.22,2.77 30.46,-3.24 -4.15,-7.29 4.95,-4.14 -11.11,-5.7 -4.49,-0.43 -12.16,0.69 -17.3,-0.15 -9.25,-1.5 -8.77,-6.54 -20.31,-10.7zm395.77 -39.21c-10.85,0.99 -7.03,14.18 -7.02,25.88 0.01,11.48 -0.09,23.54 0.56,34.35 8.17,-3.75 6.74,4.15 7.54,-11.89 0.22,-4.48 -0.27,-12.5 -0.31,-17.46 -0.07,-8.63 1.8,-23.77 -0.77,-30.88zm-314.59 33.55l28.06 -0.04c-1.7,-27.47 -27.69,-27.39 -28.06,0.04zm47.54 7.27c-2.61,11.27 1.91,13.18 -5.18,21.9 -1.14,1.4 -2.88,3.27 -3.18,2.73 -0.27,-0.47 -1.21,0.82 -1.77,1.38l31.74 -1.29c-8.37,-5.81 -8.04,-7.75 -7.59,-24.71l-14.02 -0.01zm115.81 -155.2c-0.32,0.03 -7.69,0.78 -7.89,0.83 -4.22,1.15 -3.33,1.14 -5.43,2.44l53.2 0.28c-13.57,-8.58 -11.02,9.15 -10.99,-53.99l-3.52 2.73 -0.63 48.01 -24.74 -0.3zm-152.42 120.54c5.52,4.4 7.85,0.21 15.24,6.82 5.6,5.01 6.78,10.21 6.79,20.62l8.16 0.12c-0.32,-15.84 -6.49,-24.57 -13.19,-31.91l-6.13 0.61c-6.47,0.95 -4.33,0.02 -10.87,3.74zm-15.91 27.44l4.98 -0.05c0.37,-27.43 26.36,-27.51 28.06,-0.04l4.9 0.09c-0.01,-10.41 -1.19,-15.61 -6.79,-20.62 -7.39,-6.61 -9.72,-2.42 -15.24,-6.82l-7.45 0.41 3.36 6.37c-7.63,4.99 -11.41,8.48 -11.82,20.66zm-47.72 -36.53l-0.37 8.9c7.22,-6.68 1.57,8.03 5.64,-5.46 5.53,7.23 3.79,0.93 7.94,10.45 -1.87,5.83 -7.4,12.5 -15.34,15.88 -0.44,10.85 -1.94,4.55 5.3,6.65 6.63,-5.23 13.55,-12.03 15.25,-22.53 -6.02,-14.84 -10.56,-9.69 -16.13,-19.49 -2.78,2.82 -2.45,-4.53 -2.29,5.6zm374.1 -13.96l0.97 -6.91 -32.85 0.15c5.38,10.11 19.38,13.66 31.88,6.76zm-333.15 57.72c5.12,8.81 11.7,23.87 28.46,16.25 -0.75,-10.78 -0.66,-3.64 -12.11,-10 -8.38,-4.66 -5.1,-6.41 -16.35,-6.25zm284.1 -15.65l0.31 12.81c5.1,-13.43 -2.94,-6.42 7.09,-8.81 5.41,9.96 0.08,19.27 -7.81,25.51l0.55 5.99c8,-5.58 11.87,-8.05 14.19,-20.82 2.53,-13.95 -2.03,-18.04 -14.33,-14.68zm-250.55 -22.76l6.13 -0.61c6.7,7.34 12.87,16.07 13.19,31.91l5.55 -0.2c-0.42,-19.87 -7.43,-28.26 -18.41,-38.66 -0.58,0.39 -1.54,0.2 -1.77,1.15 -0.22,0.94 -1.33,0.95 -1.6,1.29 -2.47,3.1 -1.47,1.47 -3.09,5.12zm-74.87 3.55l-1.76 20.87c7.94,-3.38 13.47,-10.05 15.34,-15.88 -4.15,-9.52 -2.41,-3.22 -7.94,-10.45 -4.07,13.49 1.58,-1.22 -5.64,5.46zm139.3 61.54l-0.24 -21.7c-1.95,-11.2 -0.21,-3.87 -4.09,-5.7 -9.16,3.54 7.61,11 -10.59,26.78l14.92 0.62zm186.39 -68.23c8.99,1.08 7.3,-1.52 8.92,7.21l-9.3 3 0.44 4.82c9.28,-0.69 15.52,-0.2 14.55,-10.53 -0.77,-8.25 -6.51,-8.79 -14.92,-9.49l0.31 4.99zm0.04 38.71l-0.72 16.7c7.89,-6.24 13.22,-15.55 7.81,-25.51 -10.03,2.39 -1.99,-4.62 -7.09,8.81zm-279.19 -37.8c0,0 0.18,6.08 15.37,1.36 8.66,-2.69 8.81,-4.85 12.31,-8.59 -14.17,2.13 -16.59,-0.2 -27.68,7.23zm73.03 40.63c0.59,11.7 -1.7,12.65 4.54,19.05 6.16,-8.21 1.26,-9.25 4.54,-19.05l-9.08 0zm-27.94 19.36l2.31 -19.32 -7.9 -0.04c0.56,10.19 -3.07,14.88 5.59,19.36zm-104.72 5.48c-33.04,-16.11 -13.41,-8.47 -19.83,-4.92 1.72,1.56 -6.97,9.46 19.83,4.92zm338.4 -56.17l9.3 -3c-1.62,-8.73 0.07,-6.13 -8.92,-7.21l-0.38 10.21z"/>
 </g>
</svg>
