<?xml version="1.0" encoding="UTF-8"?>
<!DOCTYPE svg PUBLIC "-//W3C//DTD SVG 1.1//EN" "http://www.w3.org/Graphics/SVG/1.1/DTD/svg11.dtd">
<!-- Creator: CorelDRAW 2019 (64-Bit) -->
<svg xmlns="http://www.w3.org/2000/svg" xml:space="preserve" width="100%" height="100%" version="1.1" style="shape-rendering:geometricPrecision; text-rendering:geometricPrecision; image-rendering:optimizeQuality; fill-rule:evenodd; clip-rule:evenodd"
viewBox="0 0 690.02 465.66"
 xmlns:xlink="http://www.w3.org/1999/xlink">
 <defs>
  <style type="text/css">
   <![CDATA[
    .fil0 {fill:#A6A182}
   ]]>
  </style>
 </defs>
 <g id="Layer_x0020_1">
  <metadata id="CorelCorpID_0Corel-Layer"/>
  <g id="_2167713974208">
   <path class="fil0" d="M235.39 250.66c0.55,-6.24 -0.9,-5.34 -4.42,-8.65l-55.17 -54.25c-6.3,-6.52 -3.99,-9.35 -9.02,-15.49l-23.93 -24.41c18.03,-17.9 36.58,-35.68 54.96,-54.21 38.24,-38.54 74.67,-84.36 145.81,-67.23 91.72,22.09 131.2,132.64 74.78,201.17 -14.45,17.55 -34.36,35.13 -65.49,44.06 -32.04,9.2 -63.43,5.95 -90.75,-7.12 -3.51,5.16 -6.15,13.05 -7.51,20.7 17.79,4.28 31.93,16.32 72.43,13.39 64.24,-4.64 124.05,-51.97 136.96,-120.22 19.51,-103.12 -65.02,-183.32 -163.14,-178.17 -53.19,8.51 -71.58,27.32 -98.29,54.07 -12.5,12.52 -68.59,70.93 -76.64,76.45 -17.85,-13.16 -15.48,-7.46 -40.96,23.34 -6.26,7.56 -5.73,10.67 -1.31,19.74 -18.11,21.21 -83.47,79.69 -83.7,101.46 26.14,-8.47 93.1,-80.48 101.45,-85.01 3.68,4.31 19.29,20.85 24.53,22.89 9.34,3.62 19.15,-8.35 29.2,-15.79 13.28,12.16 60.82,64.16 72.59,69.54l7.62 -16.26z"/>
   <path class="fil0" d="M236.64 251.03c-0.26,10.48 -15.66,30.3 -12.99,73.24 1.61,25.99 9.61,47.39 20.45,66.54 17.82,31.49 56.11,62.81 102.96,72.08 26.53,5.25 53.55,2.9 76.82,-5.83 35.02,-13.13 71.32,-52.43 96.16,-78.79l43.7 -43.88c5.11,3.77 11.75,10.59 19.38,4.08l10.03 -13c3.37,-3.81 -0.27,-1.97 3.6,-2.88 4.55,-9.23 5.83,-7.37 10.47,-14.13 5.02,-7.31 2.46,-10.35 -0.87,-16.92l34.29 -36.26c15.86,-15.05 19.11,-20.37 32.8,-35.85 3.25,-3.67 6.9,-8.33 10.12,-12.73 3.65,-4.99 6.5,-8.8 6.45,-16.52 -10.82,4.07 -20.22,12.25 -28.61,18.85l-49.13 44.07c-5.07,4.85 -18.51,19.47 -23.67,22.02 -3.78,-4.39 -7.85,-8.76 -12.01,-12.45 -1.52,-1.35 -1.75,-1.35 -3.53,-3 -7.41,-6.88 -10.82,-13.94 -26.05,-1.53 -5.15,4.2 -7.21,6.43 -12.14,9.89 -14.27,-12.87 -63.15,-65.55 -72.3,-69.29l-8.37 19.23 48.51 48.29c25.75,25.69 12.7,18.34 21.34,27.71l23.17 23.63c-17.3,18.13 -37.52,37.18 -54.76,54.21 -37.15,36.67 -74.32,84.75 -146.03,67.12 -54.8,-13.47 -97.48,-61.92 -100.46,-118.11 -5.1,-96.36 94.99,-160.19 181.98,-119.96 3.65,-5.51 6.03,-11.96 7.4,-20.68 -21.93,-6.78 -33.25,-13.39 -60.9,-13.71 -39.53,-0.45 -79.51,16.17 -105.24,42.69 -22.9,23.61 -14.06,14.05 -28.49,36.91l-4.08 4.96z"/>
  </g>
 </g>
</svg>
