<?xml version="1.0" encoding="UTF-8"?>
<!DOCTYPE svg PUBLIC "-//W3C//DTD SVG 1.1//EN" "http://www.w3.org/Graphics/SVG/1.1/DTD/svg11.dtd">
<!-- Creator: CorelDRAW 2019 (64-Bit) -->
<svg xmlns="http://www.w3.org/2000/svg" xml:space="preserve" width="100%" height="100%" version="1.1" style="shape-rendering:geometricPrecision; text-rendering:geometricPrecision; image-rendering:optimizeQuality; fill-rule:evenodd; clip-rule:evenodd"
viewBox="0 0 471.54 465.66"
 xmlns:xlink="http://www.w3.org/1999/xlink">
 <defs>
  <style type="text/css">
   <![CDATA[
    .fil0 {fill:#A6A182}
   ]]>
  </style>
 </defs>
 <g id="Layer_x0020_1">
  <metadata id="CorelCorpID_0Corel-Layer"/>
  <g id="_2149681947728">
   <path class="fil0" d="M46.96 381.53l379.58 0c15.35,0 31.57,17.88 29.8,35.66 -1.79,18.05 -14.7,32.82 -33.71,32.82l-371.76 0c-20.07,0 -33.74,-13.35 -35.67,-32.82 -1.78,-17.9 14.23,-35.66 31.76,-35.66zm349.25 -84.13c5.91,1.58 11.83,9.82 14.65,14.7 3.43,5.95 6.87,14.14 6.87,23.45l0 29.35 -21.52 0 0 -67.5zm-96.85 17.61c3.46,-0.93 49.35,-29.53 51.77,-30.35 3.42,-1.17 -0.24,0.02 6.93,0.02l0 80.22 -58.7 0 0 -49.89zm-74.35 -30.33c7.59,-0.17 3.15,-2.82 12.05,2.62l40.36 24.21c2.61,1.53 6.29,2.63 6.29,5.45l0 47.94 -58.7 0 0 -80.22zm-58.7 82.18l-87.07 0c-9.72,0 -15.65,-6.02 -15.65,-12.72l0 -84.13c0,-15.97 15.61,-13.7 29.35,-13.7 0,12.53 -3.07,34.24 9.78,34.24 5.5,0 13.71,-7.15 20.55,-10.76 6.06,3.21 14.02,10.76 20.54,10.76 12.22,0 8.81,-17.93 8.81,-34.24 15.31,0 29.34,-2.5 29.34,15.65l0 79.24c0,10.71 -4.94,15.66 -15.65,15.66zm92.94 -129.14c19.42,9.32 46.22,9.27 65.54,0l0 14.68c-6.8,1.58 -29.55,15.65 -33.26,15.65 -3.11,0 -28.19,-14.56 -32.28,-15.65l0 -14.68zm-32.28 -75.33l0 -34.24 129.13 0c0,21.03 2.53,47.96 -6.18,65.24 -6.75,13.39 -18.26,24.53 -31.97,30.64 -43.41,19.32 -90.98,-13.07 -90.98,-61.64zm32.28 -94.89c0,11.26 2.49,19.13 9.99,26.2 12.32,11.63 31.59,12.9 45.55,-0.99 16.24,-16.16 7.28,-31.39 6.31,-37.17 -0.73,-4.4 -0.22,-13.47 -0.22,-18.37 3.67,1.76 7.17,3 10.78,4.88 25.31,13.19 44.01,42.46 44.01,70.45l-165.34 0c0,-19.58 8.31,-36.51 16.76,-47.81 12.03,-16.07 21.68,-20.15 37.05,-27.52 0,5.42 0.65,12.81 -0.94,16.67 -2,4.88 -3.95,6.14 -3.95,13.66zm20.54 -29.35l0 -21.52c7.14,-1.67 18.3,-1.67 25.44,0l0 23.47c-10.91,-5.77 -16.62,-2.68 -25.44,-1.95zm-14.67 -16.63c-7.16,0.59 -22.47,9.24 -27.4,12.71 -24.9,17.51 -42.06,44.68 -42.06,79.25l-7.83 0c-5.93,0 -9.02,5.89 -6.84,10.65 2.43,5.29 8.2,4.02 15.65,4.02 -6.21,12.94 1.12,35.52 16.63,39.13 0,20.12 8.9,36.66 20.24,50.2 14.37,17.14 11.06,0.83 11.06,36.87 0,2.11 -5.07,8.02 -6.54,10.08 -4.86,6.83 -10.04,5.06 -25.6,7.67l-14.81 2.8c0,-11.2 -0.51,-17.32 -6.09,-23.27 -5.04,-5.37 -10.25,-10 -20.33,-10l-97.83 0c-7.34,0 -15.85,5.7 -19.19,10.16 -4.76,6.36 -6.24,13.44 -6.24,24.08 0,14.64 -0.95,71.8 0.94,82.22 0.72,3.93 1.68,5.09 1.99,8.77 -29,0 -50.87,21.45 -50.87,46.96 0,8.76 0.48,15.62 4.53,23.83 7.48,15.14 24.54,28.01 41.45,28.01l378.6 0c24.73,0 46.96,-22.23 46.96,-46.95 0,-12.89 -1.16,-18.01 -7.15,-29.05 -4.8,-8.86 -19.21,-20.84 -31,-21.82 0,-30.38 2.64,-58.49 -24.59,-80.1 -11.92,-9.47 -18.83,-12.56 -36.79,-16.03 -21.47,-4.15 -19.45,-0.27 -27.79,-11.34 -6.99,-9.28 -4.75,-9.02 -4.75,-29.5 0,-3.82 6.65,-7.16 9.03,-9.55 22.23,-22.21 22.02,-51.25 24.18,-54.09 0.7,-0.92 4.68,-2.95 5.95,-3.83 6.02,-4.19 9.51,-10.62 10.93,-18.45 1.45,-8.03 -0.56,-9.35 -1.17,-16.8 3,0 10.13,0.38 12.65,-0.06 8.47,-1.45 7.9,-14.61 -1.89,-14.61l-8.81 0c0,-32.12 -14.33,-57 -36.42,-75.11 -1.85,-1.52 -3.57,-2.95 -5.5,-4.29 -6.2,-4.29 -18.38,-10.66 -26.56,-12.56 0,-20.92 -17.25,-21.52 -31.31,-21.52 -16.29,0 -25.43,5.12 -25.43,21.52z"/>
   <path class="fil0" d="M325.77 414.79c0,25.95 39.14,27.2 39.14,0 0,-20.81 -28.31,-25.22 -36.91,-7.55 -0.58,1.21 -2.23,6.42 -2.23,7.55z"/>
   <path class="fil0" d="M33.26 413.82c0,12.01 6.32,20.15 17.93,21.12 4.58,0.38 10.56,-1.96 13.58,-4.3 11.91,-9.26 8.38,-34.43 -12.92,-34.43 -9.35,0 -18.59,8.29 -18.59,17.61z"/>
   <path class="fil0" d="M106.63 414.79c0,11.8 9.59,20.31 19.57,20.34 13.84,0.04 27.16,-18.77 13.99,-32.37 -14.44,-14.9 -33.56,-2.09 -33.56,12.03z"/>
   <path class="fil0" d="M218.16 416.75c0,-12.35 -7.74,-20.54 -19.57,-20.54 -16.39,0 -24.94,20.09 -13.86,32.45 11.49,12.82 33.43,4.2 33.43,-11.91z"/>
   <path class="fil0" d="M253.38 414.79c0,19.33 21.49,25.85 32.96,14.38 11.66,-11.65 4.07,-32.96 -14.37,-32.96 -10,0 -18.59,8.58 -18.59,18.58z"/>
   <path class="fil0" d="M400.12 412.84c0,31.89 38.16,25.49 38.16,3.91 0,-20.58 -21.24,-25.67 -32.09,-15.46 -2.36,2.21 -6.07,7.41 -6.07,11.55z"/>
   <path class="fil0" d="M277.84 192.72c-13.68,0 -5.52,18.59 13.69,18.59 5.8,0 20.55,-6.13 20.55,-10.76 0,-15.07 -13.95,-4.73 -15.1,-4.31 -11.06,4.06 -12.66,-3.52 -19.14,-3.52z"/>
   <path class="fil0" d="M74.35 341.42c0,12.69 -3.09,9.78 36.2,9.78 4.9,0 3.91,-5.45 3.91,-9.78 0,-3.01 -2.87,-3.91 -5.87,-3.91l-28.37 0c-3,0 -5.87,0.9 -5.87,3.91z"/>
   <path class="fil0" d="M245.55 151.63c0,15.59 24.46,16.5 24.46,0 0,-16.36 -24.46,-14.85 -24.46,0z"/>
   <path class="fil0" d="M323.82 163.37c8.09,0 13.69,-1.97 13.69,-12.72 0,-12.86 -22.19,-16.07 -23.93,0.48 -0.64,6.1 3.93,12.24 10.24,12.24z"/>
   <path class="fil0" d="M284.68 170.22c0,5.57 -1.42,16.63 6.85,16.63 9.48,0 9.48,-24.46 0,-24.46 -3.83,0 -6.85,3.64 -6.85,7.83z"/>
  </g>
 </g>
</svg>
