<?xml version="1.0" encoding="UTF-8"?>
<!DOCTYPE svg PUBLIC "-//W3C//DTD SVG 1.1//EN" "http://www.w3.org/Graphics/SVG/1.1/DTD/svg11.dtd">
<!-- Creator: CorelDRAW 2019 (64-Bit) -->
<svg xmlns="http://www.w3.org/2000/svg" xml:space="preserve" width="100%" height="100%" version="1.1" style="shape-rendering:geometricPrecision; text-rendering:geometricPrecision; image-rendering:optimizeQuality; fill-rule:evenodd; clip-rule:evenodd"
viewBox="0 0 474.12 465.67"
 xmlns:xlink="http://www.w3.org/1999/xlink">
 <defs>
  <style type="text/css">
   <![CDATA[
    .fil0 {fill:#A6A182}
   ]]>
  </style>
 </defs>
 <g id="Layer_x0020_1">
  <metadata id="CorelCorpID_0Corel-Layer"/>
  <path class="fil0" d="M6.42 412.23l461.33 0.13 -0.25 31.59 -461.03 -0.09 -0.05 -31.63zm33.95 -43.5c0.22,-3.42 0.38,-4.64 1.84,-7.62 1.31,-2.66 1.82,-3.71 4.28,-4.88 2.51,-6.44 22.47,-5.46 26.98,-4.64 0.12,24.28 -2.35,31.26 19.93,31.34 8.15,0.03 6.88,-0.14 13.3,-3.07 6.02,-2.74 5.91,-3.77 13.53,-3.71l101.65 -0.01c6.48,-0.01 7.3,1.69 12.14,4.35 6.19,3.38 6.7,2.41 14.68,2.43 5.4,0.02 9.94,-0.25 13.45,-2.92 6.68,-5.09 4.46,-18.55 4.71,-28.66 12.77,-0.37 29,-1.01 29.52,18.82 0.22,8.47 -1.96,12.04 -4.65,19.12 -1.53,4.01 -4.83,14.46 -6.75,17.33l-233.78 -0.06c-3.15,-12.85 -11.42,-23.02 -10.83,-37.82zm101.64 -42.4l48.79 0 0.02 43.86c-0.53,0.3 -0.4,0.45 -1.65,0.68 -5.01,0.94 -46.94,-0.18 -47.54,-0.31 -0.96,-4.57 -0.33,-16.74 -0.34,-22.15l0.04 -20.33c0.19,-1.24 0.43,-1.28 0.68,-1.75zm54.47 43.72l0.02 -43.61c6.82,-0.35 14.12,-0.11 20.99,-0.11 11.07,0.01 8.93,0.74 17.04,-3.7 7.12,-3.9 8.22,-3.4 17.81,-3.09 7.56,0.25 8.88,3.86 8.84,11.44 -0.25,48.12 4.34,46.2 -16.88,46.27 -6.55,0.03 -9.61,-2.9 -14.34,-5.56l-0.07 -13.75 -5.21 0.08 -0.37 12.45c-3.64,1.11 -15.75,0.45 -21.34,0.49 -4.44,0.04 -5.42,0.67 -6.49,-0.91zm-84.13 -43.98l23.54 0.17c0.97,3.39 1,40.88 0.04,44.51l-17.81 0c-1.96,-0.41 -0.25,0.15 -1.45,-0.87l-0.11 -19.92 -5.58 0.18 -0.01 21.65c-3.6,1.13 -8.83,4.58 -12.08,5.25 -2.87,0.59 -13.14,0.56 -15.44,-0.55 -6.35,-3.06 -4.31,-18.77 -4.31,-29.53 0,-8.88 -3.21,-25.67 6.51,-27.25 11.33,-1.83 18.76,1.85 26.7,6.36zm-67.47 79.14c0.53,1.38 1.41,-1.78 0.31,1.67l-43.91 0.06 -0.02 42.02 47.2 0.38 -0.92 1.87 -2.23 12.87 5.27 1.06c4.07,-15.48 0.62,-15.65 7.91,-15.56 52.79,0.7 109.46,0.05 162.63,0.05 19.25,0 42.46,-1.18 61.4,0.08l0.83 15.96 5.61 -0.27 -0.12 -10.65c-0.92,-1.5 -0.84,-2.95 -0.65,-5.11 10.19,-2.3 177.63,1.93 185.24,-1.08 -0.17,-7.12 -0.96,-37.05 0.42,-41.93l-182.39 -0.12 1.3 -3.19 3.63 -10.24c4.12,-11.19 9.59,-23.81 2.39,-35.98 -7.8,-13.19 -20.29,-11.51 -31.97,-11.49 -0.21,-23.02 3.12,-31.66 -19.57,-31.65 -20.59,0 -10.96,6.85 -26.84,6.74l-100.91 0.02c-12.89,0.08 -10.12,-6.8 -26.83,-6.77 -6.04,0.01 -9.95,-0.56 -14.13,2.9 -7.09,5.89 -5.14,17.13 -5.03,28.4 -8.6,1.74 -31.39,-4.75 -37.88,17.23 -3.96,13.39 3.92,28.74 9.26,42.73zm359.27 -338.83c-28.35,0.07 -56.71,-0.05 -85.06,0 -3.34,0.01 -7.75,0.26 -10.95,0.05 -4.06,-0.28 -4.22,-1.64 -6.47,-3.95 -7.25,-7.45 -6.71,-4.41 -6.66,-14.51 0.07,-12.42 -1.08,-30.23 0.21,-41.94l108.93 0.02 0 60.33zm5.72 -60.34l57.72 -0.01 0.12 35.74 -57.57 0.09 -0.27 -35.82zm-338.26 41.39l0.18 -5.58 -65.13 -0.01 -0.23 -35.73 282.79 -0.09 0.18 35.84 -185.92 -0.01 0 5.86 185.67 -0.25c1.93,14.44 -4.22,6.21 10.27,20.9 2.66,2.69 2.21,3.68 7.27,3.76 13.82,0.21 27.91,-0.44 41.72,-0.01 -1.81,-0.41 -0.32,0.14 -1.02,-2.37l5.06 0.66c0.08,-0.16 0.06,-0.05 0.08,0.14 0.03,0.25 0.22,0.64 0.3,0.71 0.39,0.29 -1.24,0.8 1.73,0.3l29.02 0.41 0.47 39.31 0.38 2.74c2.72,0.97 1.28,1 3.71,0.22 3.76,-1.2 -3.26,1.03 1.3,-0.73 2.85,-1.09 3.81,2.18 11.06,-0.22l-0.17 -2.03 -11.07 0.01 0.02 -39.22 20.55 0.02 -0.12 -24.16 1.13 -0.64c2.47,-0.72 3.33,-0.35 6.21,-0.33l56.01 -0.04 0 -46.13 -471.95 -0.03 0 46.13c10.4,0.18 65.64,-0.83 70.5,0.57zm325.18 244.56c-4.32,9.4 -6.23,5.85 -1.37,14.21 2.94,5.07 1.73,12.26 1.83,19.11l-56.35 -0.01c-0.08,-16.64 -1.35,-11.02 3.25,-21.99l28.62 -0.01 0.01 -5.65 -28.56 -0.02c-2.64,-6.28 -3.39,-3.06 -3.32,-12.35l-0.02 -48.1c1.95,1.76 1.18,2.08 3.74,2.99l3.32 -2.79c-0.74,-1.85 -1.73,-3.04 -2.95,-4.95l52.18 -0.57c0.13,0.73 1.59,56.4 -0.38,60.13zm-42.3 -101.2l26.42 0.09 20.14 26.04c-0.75,2.27 -4.36,7.48 -6.09,9.26l-54.48 -0.03c-1.86,-2.06 -5.22,-6.68 -6.11,-9.2l20.12 -26.16zm-0.27 -31.9c4.42,-1.51 28.8,-1.09 32.19,0.99 5.86,3.57 6.42,22.86 -2.24,24.67 -3.29,0.68 -27.92,1.61 -31.85,-0.71 -4.79,-2.82 -4.53,-6.81 -4.51,-13.24 0.01,-6.37 1.19,-9.92 6.41,-11.71zm9.14 -6.22c-8.02,0 -6.85,0.98 -10.64,-4.08 -11.62,-15.52 -9.42,-8.4 -9.47,-31.59l51.57 -0.11c0,4.12 -0.03,8.24 0,12.36 0.05,6.09 0.68,6.32 -2.44,10.15 -13.33,16.37 -4.48,13.27 -29.02,13.27zm-14.95 -80.56c1.29,4.44 0.55,32.41 0.47,39.16l-11.05 -0.03c-0.39,4.05 -0.74,24.33 0.3,27.14 0.84,2.26 9.33,12.55 11.48,15.54l-1.76 1.91c-2.7,2.54 -2.45,1.56 -4.03,4.7 -1.7,3.39 -1.65,6.52 -1.65,10.8 0,13.36 1.77,11.69 6.64,17.42 -0.93,2.24 -16.68,22.7 -18.32,23.41 -1.09,3.03 -1.33,2.68 -3.23,4.95 1.15,2.45 3.26,5.24 4.79,7.32 2.84,3.84 3.1,3.16 3.2,9.32l0.06 6.52 -0.06 7.85 0.01 5.65c-0.08,7.98 -1.44,36.84 1.25,41.65 1.68,2.97 3.38,3.85 1.93,6.94 -1.1,2.34 -3.08,4.08 -3.25,7.6 -0.32,6.49 -0.01,14.28 0.06,21.02l13.63 0.06 0.2 24.42 5.41 -0.05 0.14 -24.39 28.94 0.09 -0.02 52.38 5.7 -0.31 0.06 -52.13 13.59 -0.4c0.04,-5.21 0,-10.42 0.02,-15.63 0.03,-9.59 0.12,-5.64 -3.18,-12.48 -2.14,-4.43 2.75,-5.5 3.17,-11.4 0.91,-13.01 -0.57,-47.78 -0.15,-63.95 0.1,-3.97 3.48,-6.62 5.43,-9.37 -0.92,-2.23 -3.51,-5.01 -5.07,-7.15l-15.75 -20.47 1.51 -1.35c1.85,-1.53 3.19,-2.31 4.74,-4.66 1.66,-2.51 2.34,-5.56 2.39,-9.19 0.21,-13.43 -0.2,-10.72 -4.63,-18.96l-3.08 -1.65c1.13,-1.96 4.64,-6.94 6.75,-8.09 1.56,-6.19 5.58,-3.27 5.49,-13.41 -0.06,-6.54 -0.01,-13.07 -0.04,-19.61 -7.25,2.4 -8.21,-0.87 -11.06,0.22 -4.56,1.76 2.46,-0.47 -1.3,0.73 -2.43,0.78 -0.99,0.75 -3.71,-0.22l-0.38 -2.74 -0.98 0 -28.54 -0.02 0.02 -38.45 0.01 -1.25c-2.97,0.5 -1.34,-0.01 -1.73,-0.3 -0.08,-0.07 -0.27,-0.46 -0.3,-0.71 -0.02,-0.19 0,-0.3 -0.08,-0.14l-5.06 -0.66c0.7,2.51 -0.79,1.96 1.02,2.37zm-276.8 -24.68c-4.86,-1.4 -60.1,-0.39 -70.5,-0.57l0 -46.13 471.95 0.03 0 46.13 -56.01 0.04c-2.88,-0.02 -3.74,-0.39 -6.21,0.33l-1.13 0.64 63.5 -0.23c1.2,-3.31 1.14,-42.84 0.24,-47.33l-472.46 -0.34c-1.27,3.8 -1.33,43.89 -0.11,47.52l70.73 -0.09zm246.43 -8.63l53.7 0.26 0.16 -5.49c-6.75,-0.57 -49.1,-0.88 -53.9,0.24l0.04 4.99zm-270.5 412.41l0.92 -1.87 -47.2 -0.38 0.02 -42.02 43.91 -0.06c1.1,-3.45 0.22,-0.29 -0.31,-1.67 -1.43,1.32 2.1,1.27 -2.29,1.02l-41.96 0.36c-0.4,6.11 -0.79,38.73 0.29,43.22l46.31 -0.03 0.31 1.43zm297.45 -218.78l51.73 -0.09 0.07 59.65c1.97,-3.73 0.51,-59.4 0.38,-60.13l-52.18 0.57z"/>
 </g>
</svg>
