<svg width="44" height="55" viewBox="0 0 44 55" fill="none" xmlns="http://www.w3.org/2000/svg">
<path fill-rule="evenodd" clip-rule="evenodd" d="M7.53895 25.1993C7.51297 25.4379 6.20929 28.0102 5.92824 28.9622L1.30986 28.5157L0.630859 33.2235L5.1595 33.8045C5.31065 35.823 5.48542 36.7997 5.82669 38.6339L1.77394 40.6949L3.8074 45.1629L7.81055 43.0925C8.25928 43.4621 8.7399 44.3314 9.21815 44.8534C9.52163 45.1841 9.69876 45.4192 10.0058 45.7475C10.2821 46.0451 10.5336 46.2211 10.7403 46.5341C10.3388 47.2203 8.64307 49.8883 8.54151 50.4505C9.83811 51.0304 11.3118 52.4642 12.5907 52.9709L14.773 49.2411C15.3965 49.3439 16.2798 49.8033 16.9753 50.0206C17.6897 50.2438 18.7005 50.3442 19.3866 50.6407L19.6098 55L24.4041 54.9823L24.3321 50.6702C25.0052 50.4352 25.9853 50.3419 26.7494 50.1115C27.3858 49.9202 28.3046 49.5104 28.8572 49.4017C29.7476 50.3785 30.4289 51.7662 31.3122 52.8457C31.7669 52.7288 34.993 50.643 35.3673 50.2816C35.0544 49.4939 33.4071 47.5994 33.0151 46.6782C34.2928 45.8384 34.9859 44.5227 35.9637 43.4515C36.7974 43.5507 38.7671 44.7105 39.8405 45.0365L41.9436 40.6725L38.1353 39.0579C38.2369 38.3032 38.4967 37.5733 38.6266 36.7974C39.0599 34.2108 38.342 34.3868 39.8924 34.0431L43.0312 33.3144C42.8092 31.6987 42.4951 30.2873 42.1184 28.5559L38.29 29.3566C37.9676 28.7637 37.6488 27.6299 37.3441 26.9378C36.9969 26.1548 36.5707 25.5217 36.2672 24.8509C36.6474 24.5556 36.7218 24.4682 37.1316 24.0584C37.4457 23.7442 37.7102 23.5729 38.0314 23.2741L39.5724 21.5935C39.4036 21.2191 36.8647 18.2168 36.4809 17.9097C35.8078 18.3951 33.7059 20.3805 33.1745 21.1175C32.4234 20.9486 30.5647 19.1888 29.1949 18.7306L29.5268 17.4574C29.2953 17.1042 29.6543 16.9637 28.2302 18.381C27.8889 18.7199 27.3008 19.19 26.9938 19.699C28.4333 20.0994 29.8598 20.9852 30.9072 21.7435C33.0245 23.2753 32.4695 23.1549 33.9066 24.6867C35.5386 26.4252 36.9769 29.9743 37.1174 33.2187C37.4303 40.4587 32.9525 45.6436 28.0554 47.8014C16.7722 52.7749 4.44625 42.5633 7.33466 30.4267C7.9062 28.0244 8.388 27.7669 8.98316 26.2457C8.60882 25.7875 8.18371 25.367 7.53895 25.1993Z" fill="#A6A182"/>
<path fill-rule="evenodd" clip-rule="evenodd" d="M7.87363 2.79728C10.2602 2.63429 12.7837 2.58351 15.1679 2.50556C16.2059 2.4713 16.2188 2.82917 17.3985 3.97835L27.038 13.5922C26.3979 14.2808 25.7119 14.9068 25.0695 15.6071L19.0435 21.855C17.6371 23.3077 18.2984 23.7223 19.9079 27.5702L22.285 33.4779L14.7923 27.132C14.47 26.8627 14.2551 26.6501 13.9622 26.4116C13.3635 25.9226 12.8935 25.4537 12.2924 24.9801C11.6985 24.5124 11.2214 24.0034 10.6333 23.5392C10.0736 23.0975 9.5115 22.6404 9.00726 22.1101C9.30012 21.6837 11.0962 20.3869 11.6052 19.9736C12.5215 19.2283 13.3706 18.5634 14.2657 17.8559C19.8252 13.4635 18.9467 14.9824 13.6209 9.04867L10.1338 5.30587C9.81616 5.0106 8.05902 3.17404 7.87363 2.79728ZM8.01179 24.6506C8.60341 24.9766 9.4619 25.7572 9.92834 26.1812C12.9679 28.939 16.938 32.0311 19.9468 34.77L22.7361 37.1486C23.0218 37.3955 23.3265 37.6931 23.6312 37.9341C23.9642 38.1986 24.2157 38.4502 24.5345 38.7088C25.2761 39.31 26.5089 39.1352 26.6754 38.1195C26.7971 37.3719 25.1994 33.9456 24.8439 33.1047C24.1767 31.5244 23.5367 29.9359 22.8778 28.352C22.4668 27.3659 21.0179 24.1829 20.94 23.3514C22.54 22.1207 26.7652 17.0067 28.0405 16.2083C28.3924 15.4571 29.6784 14.6989 29.9406 13.8911C30.2925 12.8057 28.7491 11.7639 28.2862 11.3081L17.3596 0.526086C16.5589 -0.271135 15.4123 0.0572016 13.6115 0.120979C10.8341 0.219008 7.97282 0.255621 5.21195 0.429238C3.48315 0.537896 3.57998 1.85833 4.37471 2.78901L13.8996 12.906C14.0885 13.1198 14.1936 13.2486 14.3849 13.4529L14.9506 14.0977C14.4889 14.7213 6.1838 20.9751 5.94645 21.4274C5.12456 22.9888 7.77089 23.9443 8.01179 24.6506Z" fill="#A6A182"/>
<path fill-rule="evenodd" clip-rule="evenodd" d="M15.0969 31.2199C14.4982 30.9329 14.3034 30.5396 13.687 30.2444C13.0162 32.4683 12.5415 33.9305 13.3008 36.5064C15.0367 42.3905 22.2129 44.9865 27.2186 41.4078C34.018 36.5465 31.3906 25.1044 21.9932 24.8457C22.0511 25.3323 22.1975 25.552 22.3416 25.9158C22.9214 27.3803 22.88 26.0693 25.4543 27.4476C29.0808 29.3869 30.5156 33.8395 28.3156 37.7241C26.2892 41.3015 21.2528 42.4094 17.8318 39.9858C16.7702 39.2347 15.7204 38.1221 15.1583 36.5843C14.268 34.1478 14.797 33.5443 15.0969 31.2199Z" fill="#A6A182"/>
</svg>
