<?xml version="1.0" encoding="UTF-8"?>
<!DOCTYPE svg PUBLIC "-//W3C//DTD SVG 1.1//EN" "http://www.w3.org/Graphics/SVG/1.1/DTD/svg11.dtd">
<!-- Creator: CorelDRAW 2019 (64-Bit) -->
<svg xmlns="http://www.w3.org/2000/svg" xml:space="preserve" width="100%" height="100%" version="1.1" style="shape-rendering:geometricPrecision; text-rendering:geometricPrecision; image-rendering:optimizeQuality; fill-rule:evenodd; clip-rule:evenodd"
viewBox="0 0 465.7 465.66"
 xmlns:xlink="http://www.w3.org/1999/xlink">
 <defs>
  <style type="text/css">
   <![CDATA[
    .fil0 {fill:#A6A182}
   ]]>
  </style>
 </defs>
 <g id="Layer_x0020_1">
  <metadata id="CorelCorpID_0Corel-Layer"/>
  <path class="fil0" d="M461.75 217.88c-21.05,-5.38 -13.23,15.36 -14.69,31.15 -1.69,18.24 -20.71,9.29 -30.11,17.48 -5.77,5.02 -9.56,25.8 -13.06,34.68 -6.95,17.66 -11.9,22.44 -16.16,31.58 -7.62,16.38 13.03,20.26 10.69,34.91 -1.13,7.11 -17.32,21.23 -22.08,25.89 -21.78,21.37 -23.04,-18.04 -49.56,-1.82 -15.74,9.63 -32.77,16.38 -51.27,20.9 -28.13,6.86 2.52,35.71 -35.5,35.5 -6.9,-0.04 -17.95,0.65 -24.32,-0.22 -16.87,-2.29 -8.13,-21.1 -17.05,-30.58 -3.35,-3.55 -33.25,-11.42 -50.83,-20.18 -4.91,-2.44 -11.45,-7.14 -15.68,-8.83 -16.04,-6.43 -19.88,14.43 -35.09,10.88 -6.35,-1.48 -20.86,-17.71 -25.47,-22.46 -14.11,-14.52 2.67,-23.57 5.95,-31.71 2.98,-7.38 -1.09,-13.34 -3.95,-18.04 -3.22,-5.3 -5.57,-10.08 -8.47,-15.98 -5.29,-10.78 -8.91,-23.1 -12.19,-35.51 -4.86,-18.35 -19.93,-8.13 -30.71,-17.04 -6.36,-5.27 -6.01,-33.12 -4.15,-42.82 3.15,-16.43 21.72,-6.42 31.06,-16.59 3.32,-3.62 9.64,-28.29 12.46,-35.25 3.96,-9.77 15.8,-30.23 16.23,-31.61 5.21,-16.49 -15.91,-19.43 -10.93,-35.18 1.58,-4.98 18.68,-21.2 22.83,-25.02 3.92,-3.62 10.04,-7.24 17.37,-3.21 12.95,7.11 12.53,17.47 32.51,5.35 6.01,-3.64 9.81,-5.39 16.05,-8.4 11.86,-5.74 22.35,-8.33 35.62,-12.07 17.82,-5.02 8.3,-22.81 16.53,-31.26 8.13,-8.35 34.5,1.56 40.03,-7.75 10.3,-17.31 -22.94,-13.71 -33.42,-13.45 -9.92,1.3 -15.75,5.74 -20.37,10.95 -14.6,16.45 2.02,22.23 -16.28,26.84l-23.27 8.1c-10.24,4.36 -19.57,10.45 -28.32,14.1 -8.18,-5.74 -15.52,-14.09 -31.54,-11.14 -12.7,2.35 -19.32,12.35 -25.65,18.66 -6.03,6 -16.44,13.36 -19.44,24.83 -4.41,16.83 4.36,24.14 10.23,33.27 -0.78,3.96 -10.81,21.99 -13.59,28.55 -2.22,5.22 -3.93,9.9 -5.72,15.22 -1.83,5.48 -2.86,12.08 -5.37,16.04 -14.85,2.78 -19.92,3.03 -27.93,12.41 -8.39,9.8 -7.01,19.47 -7.01,33.73 0,14.31 -1.56,24.23 6.41,34.34 13.26,16.84 25.3,7.18 29.3,14.8 0.1,0.19 0.35,0.57 0.46,0.8l4.18 13.4c7.47,22.74 11.73,25.77 19.72,43.41 -20.23,28.15 -13.76,35.9 8.09,57.96 5.59,5.63 14.01,16.57 25.28,19.04 16.4,3.58 24.33,-4.91 32.72,-10.94 9.1,4.42 16.74,9.34 27.28,13.75 10.89,4.56 21.62,6.64 32.05,11.03 5.46,33.63 17.01,35.3 46.22,35.29 31.17,0 41.35,-1.91 47.31,-34.95l8 -2.92c22.07,-5.94 48,-20.98 51.81,-21.78 8.89,5.84 15.87,14.21 32.32,10.52 11.94,-2.67 19.17,-13.06 25.21,-19.11 6.09,-6.1 15.79,-12.81 18.77,-24.26 4.55,-17.46 -4.81,-23.87 -10.27,-33.26 1.14,-4.95 10.57,-21.09 13.75,-28.52l8.03 -23.34c4,-15.62 7.37,-4.34 22.21,-12.77 4.81,-2.73 9.99,-8.29 12.43,-13.21 5.72,-11.54 3.87,-33.96 0.34,-44.18zm-137.32 -216.97c-50.02,6.54 -85.95,37.14 -101.32,76.44 -23.08,59.01 13.18,78.58 -30.78,121.72 -4.18,4.11 -8.48,6.66 -12.32,11 -6.75,7.64 -42.7,38.45 -45.43,43.13 -3.45,5.91 0.54,11.94 5.67,12.94 7.28,1.42 9.94,-4.34 13.5,-7.81 3.93,-3.85 8.06,-6.46 11.88,-10.29l45.41 -43.06c30.72,-32.92 18.78,-54.14 21.07,-88.43 6.17,-92.29 113.87,-111.38 116.39,-93.18 0.82,5.92 -13.64,17.64 -20.13,24.17 -10.6,10.68 -37.94,34.23 -41.56,48.14 -3.17,12.14 0.3,23.87 9.3,32.09 7.76,7.08 14.69,14.6 22.16,22.08 16.18,16.18 30.13,37.96 55.35,27.93 12.04,-4.79 44.5,-40.18 57.43,-53.17 2.98,-2.98 7.22,-10.48 14.14,-6.35 6.86,4.1 1.36,29.96 -0.97,38.16 -11.95,42.11 -47.74,75.58 -99.39,77.48 -24.86,0.91 -55.31,-8.78 -85.81,22.57l-10.94 11.16c-3.54,4.01 -6.48,8.27 -10.35,11.8l-32.71 34.81c-13.37,11.5 0.56,24.39 10.19,14.87 7.48,-7.39 14.25,-16.27 21.15,-23.14 11.22,-11.14 35.95,-39.09 43.89,-44.58 36.04,-24.94 55.26,2.75 111.49,-20.07 36.27,-14.72 69.21,-53.37 73.62,-102.97 3.97,-44.86 -28.15,-44.22 -42.3,-31.05 -15.39,14.31 -29.85,29.88 -44.83,44.83 -20.54,20.49 -24.58,9.13 -50.34,-16.56 -36.06,-35.99 -33.08,-28.97 10.24,-72.45 12.98,-13.03 41.57,-33.72 21.81,-55.08 -8.08,-8.72 -21.51,-8.96 -35.51,-7.13zm-138.55 103.81c-82.12,26.1 -127.32,139.75 -52.89,223.43 55.87,62.81 180.36,60.59 225.57,-40.86 9.24,-20.74 -7.88,-23.12 -13.09,-14.23 -4.82,8.24 -3.61,12.32 -15.15,29.09 -9.83,14.27 -27.95,31.02 -47.5,39.81 -32.83,14.75 -74.27,15.4 -107.01,-3.08 -93.77,-52.92 -76.08,-180.48 9.55,-215.47 5.41,-2.21 11.8,-3.42 11.96,-10.53 0.15,-6.99 -5.21,-10.13 -11.44,-8.16z"/>
 </g>
</svg>
