<?xml version="1.0" encoding="UTF-8"?>
<!DOCTYPE svg PUBLIC "-//W3C//DTD SVG 1.1//EN" "http://www.w3.org/Graphics/SVG/1.1/DTD/svg11.dtd">
<!-- Creator: CorelDRAW 2019 (64-Bit) -->
<svg xmlns="http://www.w3.org/2000/svg" xml:space="preserve" width="100%" height="100%" version="1.1" style="shape-rendering:geometricPrecision; text-rendering:geometricPrecision; image-rendering:optimizeQuality; fill-rule:evenodd; clip-rule:evenodd"
viewBox="0 0 465.61 465.67"
 xmlns:xlink="http://www.w3.org/1999/xlink">
 <defs>
  <style type="text/css">
   <![CDATA[
    .fil0 {fill:#A6A182}
   ]]>
  </style>
 </defs>
 <g id="Layer_x0020_1">
  <metadata id="CorelCorpID_0Corel-Layer"/>
  <path class="fil0" d="M312.55 291.7l7.02 20.02c-18.12,7.13 -16.88,22.01 -1.8,30.24l-7.07 20.02c-28.47,0.27 -23,0.06 -26.27,25.09l-17.92 5.89c-18.38,-20.49 -19.47,-13.63 -33.77,-1.57l-18.36 -6.35c-0.34,-25.92 0.07,-23.28 -24.16,-26.83l-7.22 -17.67c16.09,-16.11 19.33,-15.89 1.7,-33.87l6.16 -17.42 22.19 -2.03c4.43,-9.48 4.39,-10.74 3.72,-23.61l18.11 -6.42c21.19,17.32 10.95,18.55 35.9,1.17 2.16,0.78 12.35,4.34 13.9,5.51 7.96,6.01 2.41,0.93 3.05,13.41 0.76,14.96 11.72,12.55 24.82,14.42zm-3.73 -117.96c12.76,8.4 14.22,15.65 26.32,-0.99 23.53,5.22 10.13,4.67 17.9,22.22 19.59,3.39 14.39,-6.19 21.43,13.24 -9.86,16.73 -14.4,13.01 1.29,26.63l-4.57 13.78c-13.5,1.23 -16.62,-1.88 -18.77,9.45 -2.76,14.59 5.35,8.52 -12.28,15.52 -15.65,-8 -14.54,-15.13 -26.94,1.07l-13.27 -4.13 -3.5 -18.13c-19.35,-3.4 -14.43,5.78 -21.86,-12.86 4.13,-7.09 12.44,-11.55 4.96,-22.09 -4.83,-6.8 -5.39,2.09 -5.08,-8.23 0,-0.06 2.68,-9.1 3.04,-10.49 10.61,-0.96 10.18,-0.09 18.26,-3.41l2.81 -17.41 10.26 -4.17zm-181.25 -72.41c9.03,2.52 17.29,11.8 29.8,4.98 7.67,-4.18 9.59,-14.5 12.63,-23.59l27.94 -0.12c4.58,12.99 2.28,15.95 12.08,24.64 20.76,4.13 18.23,-4.22 31.76,-5.97 6.22,5.27 12.08,11.06 17.27,17.36 -2.93,19.33 -25.06,31 18.63,43.91l-0.52 27.64c-38.04,13.97 -25.09,18.36 -17.98,42.95l-19.73 18.35c-8.77,-3.55 -17.68,-11.85 -29.08,-5.26 -7.77,4.49 -8.81,16.68 -13.93,24.03l-25.2 -0.55c-7.05,-9.47 -4.67,-19.4 -14.21,-23.92 -11.96,-5.68 -20.48,3.3 -29.46,5.6 -7.69,-3.85 -14.73,-10.79 -18.59,-18.56 2.07,-9.75 11.43,-16.91 5.61,-29.43 -4.71,-10.16 -14.35,-7.21 -23.85,-14.3 -4.18,-31.83 3.46,-25.78 14.85,-31.91 20.07,-10.79 6.49,-28.11 3.27,-36.24 4.12,-7.82 12.43,-14.98 18.71,-19.61zm82.63 -100.03c-121.31,12.72 -222.36,118.14 -209.02,254.95 11.79,120.81 120.08,221.67 255.03,208.21 120,-11.97 221.91,-119.45 208.14,-255.09 -12.15,-119.77 -119.77,-222.16 -254.15,-208.07z"/>
  <path class="fil0" d="M162.04 238.11c-6.01,-30.99 40.18,-36.24 43.92,-8.66 4.13,30.5 -39.15,33.26 -43.92,8.66zm14.34 -48.15c-22.34,4.05 -40.73,24.72 -35.34,52.34 10.54,54 97.67,40.93 85.83,-18.36 -4.16,-20.84 -25.65,-38.48 -50.49,-33.98z"/>
  <path class="fil0" d="M244.07 218.52c18.7,-11.28 33.6,20.15 14.88,29.12 -18.11,8.68 -36.21,-16.25 -14.88,-29.12zm-3.9 -15.5c-41.99,17.07 -16.44,74.75 22.98,59.88 38.52,-14.53 16.75,-76.03 -22.98,-59.88z"/>
  <path class="fil0" d="M334.1 242.46c-7.79,2.69 -11.55,2.73 -19.29,0 -10.56,-30.34 29.87,-30.35 19.29,0zm-16.65 -32.8c-31.15,9.17 -16.3,55.69 14.32,46.33 28.14,-8.61 17.58,-55.72 -14.32,-46.33z"/>
 </g>
</svg>
