<?xml version="1.0" encoding="UTF-8"?>
<!DOCTYPE svg PUBLIC "-//W3C//DTD SVG 1.1//EN" "http://www.w3.org/Graphics/SVG/1.1/DTD/svg11.dtd">
<!-- Creator: CorelDRAW 2019 (64-Bit) -->
<svg xmlns="http://www.w3.org/2000/svg" xml:space="preserve" width="100%" height="100%" version="1.1" style="shape-rendering:geometricPrecision; text-rendering:geometricPrecision; image-rendering:optimizeQuality; fill-rule:evenodd; clip-rule:evenodd"
viewBox="0 0 426.76 465.68"
 xmlns:xlink="http://www.w3.org/1999/xlink">
 <defs>
  <style type="text/css">
   <![CDATA[
    .fil0 {fill:#A6A182}
   ]]>
  </style>
 </defs>
 <g id="Layer_x0020_1">
  <metadata id="CorelCorpID_0Corel-Layer"/>
  <g id="_2149681926768">
   <path class="fil0" d="M329.74 147.17c-0.65,-4.89 -0.12,-98.65 -0.12,-106.26 -0.01,-8.34 -1.31,-17.52 5.98,-20.42 2.52,-1.01 62.23,-1.32 65.52,0 9.26,3.69 5.99,20.46 5.99,33.92l0 79.84c0,24.3 -0.97,21.13 -32.29,21.13 -4.98,0 -35.81,0.65 -39.22,-0.71 -2.69,-1.07 -5.43,-4.24 -5.86,-7.5zm5.24 -146.39c-10.73,1.74 -17.27,7.72 -21.23,14.87 -4.93,8.88 -3.5,21.95 -3.5,32.89 0,24.27 0,48.53 0,72.8 0,19.6 -4.22,44.51 20.62,52.16 6.08,1.87 63.38,2.13 71.16,0.89 10.46,-1.67 17.07,-8.04 20.94,-14.82 4.97,-8.7 3.51,-21.95 3.51,-32.95 0,-24.27 0,-48.53 0,-72.8 0,-19.51 4.22,-44.56 -20.62,-52.16 -6.15,-1.88 -63.13,-2.13 -70.88,-0.88z"/>
   <path class="fil0" d="M26.86 20.24c1.63,-0.46 60.23,-2.03 65.09,0.62 2.7,1.47 4.88,4.3 5.16,8.3 0.56,8.04 0.03,18.16 0.03,26.43l0 79.83c0.01,26.05 -1.42,19.95 -59.88,19.96 -5.64,0 -16.86,1.73 -17.58,-9.38 -0.53,-8.13 -0.03,-18.1 -0.03,-26.43l0 -79.83c0,-9.06 -1.32,-17.11 7.21,-19.5zm-1.84 -19.46c-10.73,1.74 -17.27,7.72 -21.24,14.87 -4.91,8.87 -3.5,21.83 -3.5,32.89 0,24.27 0,48.53 0,72.8 0,19.6 -4.22,44.51 20.62,52.16 6.08,1.87 63.38,2.13 71.17,0.89 10.37,-1.65 17.2,-8.08 20.94,-14.88 4.91,-8.95 3.5,-21.67 3.5,-32.89 0,-24.27 0,-48.53 0,-72.8 0,-10.89 1.59,-25.77 -1.81,-34.51 -3.32,-8.54 -9.71,-14.87 -18.81,-17.65 -6.16,-1.89 -63.16,-2.13 -70.87,-0.88z"/>
   <path class="fil0" d="M181.85 20.24c5.53,-1.55 43.71,-0.47 52.66,-0.47 5.69,0 16.8,-1.74 17.58,9.39 0.56,8.04 0.04,18.16 0.04,26.43l0 79.83c0,26.05 -1.43,19.95 -59.88,19.96 -4.02,0 -9.24,0.65 -12.43,-1.08 -2.69,-1.46 -4.9,-4.29 -5.16,-8.3 -0.53,-8.13 -0.03,-18.1 -0.03,-26.43l0 -79.83c0,-9.06 -1.32,-17.11 7.22,-19.5zm-1.85 -19.46c-10.73,1.74 -17.27,7.72 -21.23,14.87 -4.93,8.88 -3.51,21.95 -3.51,32.89 0,24.27 0,48.53 0,72.8 0,19.6 -4.21,44.51 20.62,52.16 6.08,1.87 63.39,2.13 71.17,0.89 10.37,-1.65 17.2,-8.08 20.94,-14.88 4.91,-8.95 3.51,-21.67 3.51,-32.89 0,-24.27 0,-48.53 0,-72.8 0,-18.51 4.74,-44.4 -20.62,-52.16 -6.15,-1.88 -63.14,-2.13 -70.88,-0.88z"/>
   <path class="fil0" d="M310.47 341.48c1.93,10.16 16.02,7.63 26.19,7.63 11.35,0 22.7,0 34.05,0 5.98,0 46.34,0.91 50.19,-0.89 3.39,-1.58 6.24,-5.61 5.38,-10.67 -1.75,-10.39 -16.06,-7.81 -26.22,-7.81 -11.35,0 -22.7,0 -34.05,0 -5.93,0 -46.38,-0.91 -50.19,0.89 -3.43,1.61 -6.33,5.7 -5.35,10.85z"/>
   <path class="fil0" d="M155.49 341.48c1.93,10.16 16.02,7.63 26.19,7.63 11.35,0 22.7,0 34.05,0 5.97,0 46.34,0.91 50.19,-0.89 3.39,-1.58 6.23,-5.61 5.38,-10.67 -1.75,-10.39 -16.06,-7.81 -26.22,-7.81 -11.35,0 -22.7,0 -34.05,0 -5.94,0 -46.38,-0.91 -50.19,0.89 -3.43,1.61 -6.33,5.7 -5.35,10.85z"/>
   <path class="fil0" d="M0.5 341.48c1.94,10.16 16.03,7.63 26.2,7.63 11.35,0 22.7,0 34.05,0 5.97,0 46.33,0.91 50.18,-0.89 3.4,-1.58 6.24,-5.61 5.39,-10.67 -1.75,-10.39 -16.06,-7.81 -26.22,-7.81 -11.35,0 -22.7,0 -34.05,0 -5.94,0 -46.38,-0.91 -50.19,0.89 -3.43,1.61 -6.34,5.7 -5.36,10.85z"/>
   <path class="fil0" d="M0.51 399.6c1.95,10.19 16.01,7.63 26.19,7.63 11.35,0 22.7,0 34.05,0 5.93,0 46.38,0.9 50.19,-0.88 3.37,-1.58 6.25,-5.6 5.37,-10.68 -1.79,-10.39 -16,-7.81 -26.21,-7.81 -11.35,0 -22.7,0 -34.05,0 -5.99,0 -46.32,-0.92 -50.19,0.89 -3.42,1.6 -6.34,5.69 -5.35,10.85z"/>
   <path class="fil0" d="M0.51 225.24c1.96,10.19 16.02,7.63 26.19,7.63 11.35,0 22.7,0 34.05,0 5.88,0 46.42,0.89 50.18,-0.88 3.39,-1.59 6.25,-5.59 5.38,-10.68 -1.77,-10.39 -16.02,-7.81 -26.21,-7.81 -11.35,0 -22.7,0 -34.05,0 -5.94,0 -46.39,-0.9 -50.19,0.89 -3.41,1.59 -6.34,5.7 -5.35,10.85z"/>
   <path class="fil0" d="M155.49 225.24c1.97,10.19 16.03,7.63 26.19,7.63 11.35,0 22.7,0 34.05,0 5.88,0 46.42,0.89 50.19,-0.88 3.38,-1.59 6.25,-5.59 5.38,-10.68 -1.78,-10.39 -16.02,-7.81 -26.22,-7.81 -11.35,0 -22.7,0 -34.05,0 -5.94,0 -46.38,-0.9 -50.19,0.89 -3.4,1.59 -6.34,5.7 -5.35,10.85z"/>
   <path class="fil0" d="M310.48 225.24c1.96,10.19 16.02,7.63 26.18,7.63 11.35,0 22.7,0 34.05,0 5.89,0 46.42,0.89 50.19,-0.88 3.39,-1.59 6.25,-5.59 5.38,-10.68 -1.78,-10.39 -16.02,-7.81 -26.22,-7.81 -11.35,0 -22.7,0 -34.05,0 -5.93,0 -46.38,-0.9 -50.19,0.89 -3.4,1.59 -6.34,5.7 -5.34,10.85z"/>
   <path class="fil0" d="M310.47 283.36c1.89,10.18 16.15,7.63 26.19,7.63l68.1 0c4.29,0 12.75,0.71 16.15,-0.88 3.41,-1.6 6.23,-5.61 5.37,-10.69 -1.77,-10.41 -16.25,-7.8 -26.22,-7.8 -11.35,0 -22.7,0 -34.05,0 -5.98,0 -46.32,-0.91 -50.18,0.89 -3.44,1.6 -6.31,5.69 -5.36,10.85z"/>
   <path class="fil0" d="M0.51 283.36c1.89,10.18 16.15,7.63 26.19,7.63l68.09 0c4.29,0 12.76,0.71 16.15,-0.88 3.41,-1.6 6.24,-5.61 5.37,-10.69 -1.77,-10.41 -16.24,-7.8 -26.21,-7.8 -11.35,0 -22.7,0 -34.05,0 -5.98,0 -46.33,-0.91 -50.19,0.89 -3.43,1.6 -6.31,5.69 -5.35,10.85z"/>
   <path class="fil0" d="M155.49 283.36c1.89,10.18 16.15,7.63 26.19,7.63l68.1 0c4.29,0 12.75,0.71 16.14,-0.88 3.41,-1.6 6.24,-5.61 5.38,-10.69 -1.77,-10.36 -16.04,-7.8 -26.22,-7.8 -11.35,0 -22.7,0 -34.05,0 -5.98,0 -46.32,-0.91 -50.18,0.89 -3.44,1.6 -6.32,5.69 -5.36,10.85z"/>
   <path class="fil0" d="M155.49 399.6c1.95,10.19 16.01,7.63 26.19,7.63l68.1 0c4.3,0 12.76,0.71 16.14,-0.88 3.37,-1.58 6.25,-5.6 5.37,-10.68 -1.79,-10.39 -15.99,-7.81 -26.21,-7.81 -11.35,0 -22.7,0 -34.05,0 -5.99,0 -46.32,-0.92 -50.18,0.89 -3.42,1.6 -6.35,5.69 -5.36,10.85z"/>
   <path class="fil0" d="M310.47 399.6c1.95,10.19 16.01,7.63 26.19,7.63l68.1 0c4.3,0 12.76,0.71 16.14,-0.88 3.37,-1.58 6.25,-5.6 5.38,-10.68 -1.79,-10.39 -16,-7.81 -26.22,-7.81 -11.35,0 -22.7,0 -34.05,0 -5.98,0 -46.32,-0.92 -50.18,0.89 -3.42,1.6 -6.34,5.69 -5.36,10.85z"/>
   <path class="fil0" d="M116.13 458.3c1.48,-5.13 -1.55,-9.46 -4.8,-11.25 -3.42,-1.87 -11.46,-1.07 -15.95,-1.07l-68.1 0c-10.04,0 -23.95,-2.54 -26.59,6.85 -1.5,5.34 1.46,9.64 4.78,11.44 3.44,1.86 11.45,1.08 15.94,1.08l68.1 0c10.39,0 23.84,2.62 26.62,-7.05z"/>
   <path class="fil0" d="M271.12 458.3c1.47,-5.13 -1.56,-9.46 -4.81,-11.25 -3.41,-1.87 -11.46,-1.07 -15.95,-1.07l-68.09 0c-10.05,0 -23.96,-2.54 -26.59,6.85 -1.5,5.34 1.45,9.64 4.77,11.44 3.45,1.86 11.45,1.08 15.95,1.08l68.09 0c10.39,0 23.84,2.62 26.63,-7.05z"/>
   <path class="fil0" d="M426.1 458.3c1.48,-5.13 -1.56,-9.46 -4.81,-11.25 -3.41,-1.87 -11.46,-1.07 -15.94,-1.07l-68.1 0c-10.04,0 -23.95,-2.54 -26.59,6.85 -1.5,5.34 1.46,9.64 4.78,11.44 3.44,1.86 11.44,1.08 15.94,1.08l68.1 0c10.38,0 23.83,2.62 26.62,-7.05z"/>
  </g>
 </g>
</svg>
