<?xml version="1.0" encoding="UTF-8"?>
<!DOCTYPE svg PUBLIC "-//W3C//DTD SVG 1.1//EN" "http://www.w3.org/Graphics/SVG/1.1/DTD/svg11.dtd">
<!-- Creator: CorelDRAW 2019 (64-Bit) -->
<svg xmlns="http://www.w3.org/2000/svg" xml:space="preserve" width="100%" height="100%" version="1.1" style="shape-rendering:geometricPrecision; text-rendering:geometricPrecision; image-rendering:optimizeQuality; fill-rule:evenodd; clip-rule:evenodd"
viewBox="0 0 707.22 719.66"
 xmlns:xlink="http://www.w3.org/1999/xlink">
 <defs>
  <style type="text/css">
   <![CDATA[
    .fil0 {fill:white}
   ]]>
  </style>
 </defs>
 <g id="Layer_x0020_1">
  <metadata id="CorelCorpID_0Corel-Layer"/>
  <path class="fil0" d="M208.59 351.66c0.58,14.99 1.56,20.41 -0.54,34.8l5.17 -2.1c0.25,-0.07 0.6,-0.21 0.8,-0.25 2.82,-0.57 1.36,-0.25 1.76,1.1 -10.96,0.06 -4.57,-0.74 -6.05,4.62 6.3,-0.6 5.44,-0.13 10.22,1.27l0.71 18.08c-1.16,-0.12 -7.55,-1.32 -7.55,-1.32 -3.49,-0.07 -1.18,-1.32 -3.79,1.11l-0.73 -57.31zm-2.14 -26.64l0.58 3.72 -0.02 77.95 0.02 8.98c-9.36,0 -16.06,-0.9 -23.29,1.88 -2.16,8.21 -2.07,45.6 -0.08,54.08 10.83,4.7 221.04,1.37 254.02,1.94l0.08 38.82 -141.39 -0.01c-3.09,-0.01 -7.23,-0.23 -10.2,-0.04 -14.18,0.93 -9.32,14.71 -9.32,33.12 0,6.99 -1.45,26.03 2.58,29.67 3.23,2.92 8.04,1.59 9.92,-1.44 2.84,-4.56 1.37,-40.11 1.37,-46.82 7.17,-1.93 129.42,-0.85 147.14,-0.76 -0.15,10.21 -0.05,20.49 -0.05,30.71 0,9.47 -2.73,24.12 6.4,24.76 12.26,0.87 6.05,-31.98 7.51,-54.74 4.87,-3.06 144.44,-1.14 146.91,-1 2.09,6.87 1.08,36.94 0.8,45.91 1.95,7.79 9.38,5.1 11.21,2.9 3.81,-4.59 1.72,-57.81 0.82,-59.12 -3.86,-5.66 -67.5,-3.13 -77.86,-3.13 -27.26,0 -54.62,-0.23 -81.87,0.03l-0.23 -38.89c80.43,-1.12 165.85,1.47 244.96,0.04 7.52,-0.13 7.73,-0.14 10.19,-5.1 0.21,-12.68 1.34,-40.63 -1.11,-50.94 -5.5,-2.58 -15.8,-2.47 -23.27,-1.32 -2.24,-2.14 -0.54,0.6 -1.84,-3.27l-0.45 -22.7 -1.52 -2.79c-0.13,-0.26 -0.83,-1.7 -1.01,-2.08l-3.87 2.62c-1.13,0.92 -1,0.95 -1.92,1.88 -1.46,1.47 -1.74,1.98 -3.24,3.13l0.11 11.12c0.01,1.09 0.21,5.68 0.1,6.36 -0.73,4.56 0.34,2.63 -2.53,5.06l-62.04 0.61c-6.4,3.94 -4.98,6.59 -2.48,12.01 11.19,3.08 74.45,1.35 91.31,1.15l0.06 30.47 -496.59 0.05 0.22 -30.5 344.59 0.06c28.81,0 39.7,4.1 35.83,-11.96 -13.93,-6.12 -307.16,0.62 -353.82,-1.82 -3.49,-2.63 -1.14,0.34 -2.26,-3.97l-0.14 -68.08c-7.3,2.57 -10.1,1.26 -11.53,6.2l0.05 -23.44c5.26,4.67 2.48,-1.33 11.5,2.09l-0.29 -3.77c-8.36,-9.34 -13.08,0.13 -13.39,-0.43 -0.12,-0.23 -0.43,0.54 -0.67,0.8zm-113.23 -79.69c-27.65,0.03 -50.28,-3.23 -70.39,11.45 -7.11,5.19 -14.43,13.24 -18.49,23.22 -5.59,13.76 -4.19,21.43 -4.17,36.62 0.05,4.73 -0.4,6.18 1.19,9.55 5.06,-17.88 -4.81,-6.47 12.58,-10.77 -0.51,-17.49 -0.79,-26.49 8.36,-38.96 5.25,-7.15 15.93,-15.49 29.82,-16.94 26.36,-2.74 66.27,-0.38 94.09,-0.42 24.34,-0.03 71.11,2.39 92.42,-2.19l78.97 -15.78c-0.98,19.35 -12.56,22.49 -28.7,28.09 -13.83,4.79 -27.46,9.8 -41.83,14.97 -24.92,8.97 -91.49,10.33 -95.2,18.74 -2.34,5.29 -0.06,155.09 -2.1,184.14 -3.59,51.27 -11.23,125.27 -12.92,173.2l-29.03 0.16 -0.03 -190.66c0.02,-7.7 2.03,-19.1 -6.95,-18.92 -9.12,0.19 -6.86,13.96 -6.86,21.44 0.08,60.25 1.29,129.86 -0.07,188l-28.61 0.22c-1.94,-21.08 -14.96,-180.32 -13.34,-188.32 -3.37,-6.2 -1.33,-68.19 -1.26,-80.82 -1.18,-1.3 -0.54,-0.28 -1.62,-2.5l-3.35 -7.88c-3.13,-7.75 -1.23,-23.76 1.8,-31.25l3.28 -4.88 -0.1 -25.24c-3.5,-7.2 -7.28,-6.68 -13.05,-3.4l-0.78 15.53 0.01 60.41 0.01 15.1 -0.39 53.26c-16.23,0.12 -19.46,0.99 -19.81,-15.93 -0.26,-12.37 -0.78,-24.75 -0.77,-37.13l-0.12 -1.31c-0.02,-4.78 0.46,-11.41 -1.2,-14.49 -1.5,5.32 -0.88,11.74 -0.88,17.54 -3.91,-3.58 0.19,-1.11 -5,-1.62 -0.63,-0.06 -5.4,0.05 -6.65,-0.03l0.2 10.48c0.49,10.57 -0.88,34.58 2.8,42.68 6.12,13.44 15.82,12.49 32.42,13.91l13.8 185.73c-4.58,0.01 -21.57,-0.49 -24.49,0.47 -6.62,2.19 -7.3,12.51 3.25,13.36 14.6,1.19 35.29,0.05 50.54,0.05 17.1,0 89.8,2.47 98.67,-2.18 0.73,-3.13 0.62,-6.77 0.45,-9.54 -8.08,-3.21 -18.44,-2.19 -29.06,-2.04l12.35 -165.46c-5.01,-4.5 0.2,-9.99 -0.04,-21.41 -0.02,-1.06 -0.27,-4.98 -0.27,-5.1 0.01,-0.69 0.13,-0.86 0.28,-3.81l0 -57.38c-5.44,0.38 -5.7,-0.25 -10.81,1.53 4.31,-30.82 -2.56,-71.69 1.07,-101.58l17.02 0.21 -1.24 3.42 3.69 -0.16c20.54,-5.45 50.76,-4.58 71.1,-10.9 20.04,-6.23 40.99,-15.07 61.16,-21.37 7.69,15.36 5.62,21.42 22.87,45l7.4 9.04c2.67,2.56 0.54,0.91 3.22,2.57l0.82 -6.04c6.22,-1.11 4.15,-1.98 10.02,0.11 -3.5,-7.49 -22.84,-23.2 -31.37,-57.48 4.65,-5.57 9.72,-9.9 12.34,-20.3 2.1,-8.35 1.64,-19.89 -3.51,-24.93 -14.32,-2.91 -83.37,18.74 -107.33,18.78 -42.07,0.07 -84.14,0.11 -126.21,0.14zm113.8 -130.16l-0.01 98.44c-0.01,2.67 -1.83,18.17 8.12,15.82 4.8,-1.13 2.56,-0.77 4.33,-3.51 3.49,-5.54 1.41,-147.69 1.47,-167.27 103.67,-1.79 218.19,-0.08 324.03,-0.08 23.97,0 36.46,3.67 31.84,-11.97 -8.52,-3.96 -341.38,-1.79 -380.46,-1.79l0.43 -30.36 496.02 0.04 0.16 30.45 -86.11 -0.14c-8.82,0.9 -9.92,9.43 -2.57,13.59l64.16 0.12 -0.03 285.06c6.68,2.44 2.04,4.3 7.79,8.34 3.69,-1.94 1.67,0.2 3.79,-5.43l0 43.77 0.45 22.7c1.3,3.87 -0.4,1.13 1.84,3.27l-0.08 -23.44 0.04 -48.92 0.05 -285.29c27.69,-0.11 24.47,3.28 24.47,-26.68 0,-38.17 10.12,-31.28 -63.37,-31.28 -72.89,0 -449.25,-2.26 -459.51,1.87 -1.23,4.28 -4.08,50.26 1.46,54.68 5.37,2.86 14.85,1.45 21.48,1.45l0.21 56.56zm273.53 77.6c0.4,-0.12 2.51,-0.14 2.79,0.01 0.31,0.17 0.89,0.56 1.2,0.75 0.34,0.2 0.69,0.81 1.1,1.13 -4.19,2.81 -3.87,2.05 -6.29,6.31 4.56,0.88 1.22,-2.26 3.78,3.79 5.05,-2.23 2.16,-0.15 5.58,-2.93 3.74,-0.82 15.65,-14.11 18.39,-16.9 21.64,18.24 28.19,66.89 3.24,101.32 -4.87,6.72 -10.18,11.69 -17.14,16.91 -3.75,2.81 -2.61,2.66 -6.77,3.18 -2.28,3.59 -7.72,5.34 -9.14,6.33 -0.13,4.33 -0.07,9.87 -1.05,14.68l2.49 -0.29c4.21,-3.02 11.41,-5.35 16.83,-8.86 37.12,-24 54.66,-69.42 40.04,-111.62 -1.94,-5.59 -7.41,-15.93 -7.93,-19.04l-9.97 -13.06c16.66,-16.7 6.31,-10.85 35.18,-13.03 2.73,6.3 7.03,10.66 9.4,18.07 5.44,5.64 11.33,30.64 12.71,40.47 4.43,31.75 -3.59,62.37 -19.88,88.31 -5.97,9.5 -18.2,24.15 -26.44,29.34l0.23 1.59c4.37,1.88 -1.32,-1.27 1.86,1.26 2.7,2.15 4.78,4.39 5.7,7.68 10.28,-4.04 25.2,-24.08 32.59,-36.04 8.65,-14.02 15.55,-31.89 18.89,-50.58 3.57,-20.03 2.19,-42.62 -2.82,-61.67 -3.5,-13.3 -14.56,-39.85 -22.37,-46.74 1.09,-2.07 0.81,-2.2 1.71,-4.28 -2.94,-2.68 -1.4,-1.89 -4.07,-4.44l-2.37 -2.33c-5.04,-5.68 2.07,1.58 -1.75,-2.31 -9.71,3.08 0.52,8.4 -22.58,8.26 0.16,-18.17 0.86,-9.1 5.49,-19.36l-4.31 0.38c0.16,-0.39 0.97,-0.9 0.18,-2.82 -1.95,-4.76 3.05,1.24 -2.71,-3.49 -0.25,2.53 -2.43,3.03 -5.2,0.55l-4.13 2.71c-4.47,4.66 -2.92,10 -2.94,18.25 -0.01,7.87 0.41,7.3 -3.9,11.53l-21.5 21.4c-4.93,4.99 -11.17,9.12 -14.12,15.58zm-57.56 454.9c-8.85,-40.58 39.96,-48.79 44.13,-12.67 1.61,13.87 -6.04,30.48 -16.44,34.57 -14.42,5.66 -25.15,-10.29 -27.69,-21.9zm-2.78 25.24c-7.7,5.46 -21.43,5.83 -31.67,13.9 -24.32,19.17 -15.46,39.1 -4.41,31 3.07,-3.25 4.68,-11.37 7.6,-15.18 9.36,-12.21 37.85,-18.1 52.27,-18.09 16.23,0.02 49.68,5.54 57.25,24.5 0.64,1.59 0.98,3.22 1.59,4.69 6.52,15.51 27.55,-2.58 -2.08,-26.97 -5.48,-4.51 -7.93,-5.37 -14.99,-7.74 -2.79,-0.94 -5.68,-1.95 -8.54,-2.81 -1.2,-0.36 -2.69,-0.71 -3.85,-1.13l-4.38 -2.17c8.32,-12.87 16.64,-26.89 10.23,-47.78 -14.42,-47.03 -82.66,-28.59 -69.62,26.57 2.55,10.78 6.57,14.29 10.6,21.21zm178.38 -59.18c31.57,-12.11 39.65,42.28 14.3,55.18 -24.89,12.67 -45.65,-43.16 -14.3,-55.18zm-53.86 105.04c6.11,-11.06 5.17,-16.95 16.3,-23.48 5.33,-3.12 24.11,-8.84 30.61,-9.92 12.48,-4.38 59.23,1.93 69.5,21.51 3.39,6.48 5.61,18.87 15.34,8.93 2.45,-7.18 -4.07,-17.63 -7.36,-21.95 -6.94,-9.14 -10.37,-7.34 -16.91,-13.36l-22.46 -6.67c2.37,-4.21 5.21,-7.78 7.68,-13.18 2.23,-4.86 2.52,-12.31 5.18,-16.21 -3.27,-19.04 -1.82,-27.94 -14.73,-38.08 -24.03,-18.85 -57.04,-2.9 -58.74,28.8 -1.05,19.53 5.16,26.6 12.17,38.62 -10.87,2.58 -25.12,7.45 -32.48,13.09 -5.69,4.38 -16.64,18.04 -14.65,28 3.54,5.46 4.38,4.4 10.55,3.9zm-451.59 -585.14c52.26,-12.62 55.67,75.86 15.17,87.41 -22.8,6.5 -38.14,-17.52 -41.67,-36.31 -3.98,-21.18 3.7,-45.6 26.5,-51.1zm-2.44 101.21c71.15,10.77 84.33,-117.62 6.31,-116.07 -62.1,11.11 -50.76,86.75 -22.43,107.16 6.6,4.76 9.07,5.12 16.12,8.91zm146.23 447.28c0.28,0.31 0.45,1.2 0.57,1.32 0.07,0.07 0.29,0.48 0.39,0.55l1.08 0.62c2.42,0.33 1.32,0.03 5.66,-1.61 -5.14,5.56 -4.15,3.91 0,5.06 -1.44,4.92 0.61,0.15 -2.51,5.28 27.5,-6.67 34.79,-14.15 66.61,-5 10.5,3.03 20.27,5.64 26.42,12.67 8.56,9.77 4.77,22.18 19.3,16.28 3.22,-11.4 -6.31,-24.36 -13.26,-29.87 -8.73,-6.91 -20.58,-9.47 -32.98,-13.85 -9.38,-0.08 -9.34,-0.83 -11.2,2.49l-8.21 -5.82c-4.36,0.43 -6.51,0.99 -10.76,-0.55 -1.98,-0.72 -1.77,-0.69 -3.1,-1.83 -3.87,-3.32 -0.7,-0.34 -1.93,-2.45 -6.11,-2.87 -9.41,-11.1 -10.93,-17.67 -7.4,-31.95 25.23,-47.74 39.16,-25.31 9.22,4.8 3.39,26.72 1.5,34.96l4.05 -0.87c1.74,-4.79 0.72,-0.8 8.51,-2.85 2.88,2.27 1.22,-2.78 0.94,3.03l1.17 -1.7c0.7,-1.36 0.73,-1.17 1.27,-2.76 0.47,-1.4 0.96,-4.52 1.14,-6.09 1.44,-12.46 -0.5,-23.33 -7.57,-33.26 -17.92,-25.16 -58.81,-17.07 -64.3,17.84 -3.43,21.75 5,30.19 11.48,43.05l-22.5 8.34zm87.12 -496.29c4.45,-14.77 27.88,-46.48 38.53,-50.61 2.37,-3.95 10.63,-8.63 14.67,-11.06 6.2,-3.72 10.96,-6.03 17.71,-8.81 77.05,-31.75 124.28,25.7 120.22,-2.94 -2.39,-4.42 -1.64,-3.4 -7.03,-5.89 -2.8,-1.3 -5.69,-2.65 -8.7,-3.89 -6.73,-2.77 -13.74,-5.1 -21.37,-6.63 -16.12,-6.73 -51.25,-4.08 -68.32,0.09 -38.48,9.38 -69.62,32.78 -89.51,65.68 -4.75,7.87 -9.02,16.84 -12.51,26.62 -3.66,10.25 -10.91,25.93 6.76,22.95 2.65,-4.76 6.35,-22.74 9.55,-25.51zm164.66 16c-3.42,2.78 -0.53,0.7 -5.58,2.93 -2.56,-6.05 0.78,-2.91 -3.78,-3.79 2.42,-4.26 2.1,-3.5 6.29,-6.31 -0.41,-0.32 -0.76,-0.93 -1.1,-1.13 -0.31,-0.19 -0.89,-0.58 -1.2,-0.75 -0.28,-0.15 -2.39,-0.13 -2.79,-0.01 -3.11,0.81 -2.02,0.3 -4.94,3.21 -0.24,0.24 -1.97,2.32 -2.22,2.69 -1.54,2.3 -0.35,-0.22 -1.08,2.21 2.55,2.89 0.88,-0.02 1.34,4.98 0.1,1.06 -0.05,3.8 0.01,5.21 4.95,4.14 5.84,5.1 6.68,13.88 -0.85,0.56 -2.25,2.29 -4.33,2.2 7,40.98 -36.31,54.49 -55.72,31.62 -9.53,-11.23 -11.71,-28.17 -2.13,-40.77 3.87,-5.1 8.53,-9.22 15.9,-11.75 5.05,-1.74 7.13,-1.38 12.48,-1.75 6.56,-0.45 4.29,-0.83 9.03,-4.24 -1.99,-7.11 -2.01,-9.75 -11.52,-9.62 -17.24,0.24 -30.57,8.63 -39.25,22.88 -11.76,19.28 -7.06,45.93 10.75,60.07 38.55,30.61 97.95,-14.09 66.98,-63.78 3.47,-4.47 3.76,-2.36 6.18,-7.98zm-77.51 124.96l10.09 2.98c1.16,-2.47 2.6,-1.74 6.2,-1.35l27 3.78c-0.13,-4.71 -0.77,-9.72 -0.39,-13.64 -17.15,1.79 -32.71,-1.35 -46.22,-8.25 -24.67,-12.58 -41.62,-35.98 -44.76,-63.86 -2.98,-26.44 7.17,-39.53 7.36,-46.41 -4.37,-3.62 3.84,4.84 -1.21,-1.6 -0.21,-0.27 -0.92,-1.27 -1.17,-1.55 -3.59,-3.93 -4.76,-1.62 -7.76,-4.19l-1.39 1.6c-13.2,19.52 -12.37,58.18 -1.43,83.04 9.86,22.4 30.27,40.06 53.68,49.45zm-130.48 -221.32c-2.42,4.48 -24.92,26.94 -29.41,29.36 -3.88,8.28 -14.45,8.11 -9.59,21.2 10.02,3.09 12.35,-2.56 23.61,-13.85l39.1 -39.13c12.34,-12.56 16.97,-12.85 13.94,-23.65 -15.83,-5.68 -23.78,19.53 -37.65,26.07zm-117.71 389.52c1.92,-29.77 1.6,-56.98 1.89,-86.88l0.04 -96.09 4.08 -1.15 1.24 -3.42 -17.02 -0.21c-3.63,29.89 3.24,70.76 -1.07,101.58 5.11,-1.78 5.37,-1.15 10.81,-1.53l0 57.38c-0.15,2.95 -0.27,3.12 -0.28,3.81 0,0.12 0.25,4.04 0.27,5.1 0.24,11.42 -4.97,16.91 0.04,21.41zm220.03 -332.6l-18.93 21.28 -3.77 9.03c3,2.57 4.17,0.26 7.76,4.19 0.25,0.28 0.96,1.28 1.17,1.55 5.05,6.44 -3.16,-2.02 1.21,1.6 0.17,-0.12 2.88,-1.97 2.9,-1.98 1.86,-6.59 11.16,-18 16.47,-22.19l8.19 -5.27c4.13,-5.06 13.93,-9.14 22.6,-11.89 10.95,-3.47 20.38,-3.92 32.2,-3.35 -1.78,-1.36 -1.05,-2.5 -10.09,-2.46 -2.91,0.02 -5.88,0.13 -8.84,0.13l0 -2.53c7.76,0.56 11.07,6.63 17.66,-1.25 -8.03,0 -10.88,1.15 -11.39,-1.1l0.05 -1.63c-1.33,-4.08 4.44,-2.4 -3.56,-2.86 -3.83,-0.22 -5.5,2.86 -8.65,3.85 -5.81,1.82 -5.39,-3.16 -5.47,-3.41 -7.8,1.4 -15.5,4.6 -22.29,8.05 -6.52,3.3 -11.94,9.02 -17.22,10.24zm146.68 -42.85c-2.66,2.21 -1.4,1.43 -2.58,3.76 2.77,2.48 4.95,1.98 5.2,-0.55 5.76,4.73 0.76,-1.27 2.71,3.49 0.79,1.92 -0.02,2.43 -0.18,2.82l4.31 -0.38c3.93,-1.3 12.9,-11.56 15.87,-14.32l12.88 13.09c-4.65,3.39 -9.24,7.33 -11.66,12.33 3.82,3.89 -3.29,-3.37 1.75,2.31l2.37 2.33c2.67,2.55 1.13,1.76 4.07,4.44 2.92,-0.46 -0.57,0.85 2.16,-0.84 1.26,-0.79 1.66,-1.24 2.64,-2.17 1.83,-1.73 3.3,-3.24 4.91,-5.24 4.81,-5.94 5.73,-5.59 9.9,-9.95 1.2,-9.56 -4.81,-12.36 -9.71,-17.13 -4.3,-4.18 -9.64,-10.56 -13.93,-13.91 -7.83,-6.1 -12.57,1.89 -16.46,5.74 -4.86,4.82 -9.61,8.84 -14.25,14.18zm-135.84 252.47l3.81 3.47c2.53,-0.2 26.81,5.07 32.44,6.15l3.78 0.15c2.44,-2.02 2.83,-2.45 8.77,-2.23 3.74,0.14 7.69,0.67 11.33,1.38 0.18,-6.31 1.31,-6.98 -0.41,-12.68 -17.98,0.17 -42.43,-1.13 -56.38,-8.93l-1.73 3.67c-2.69,8.41 1.14,7.02 1.25,7.08 -1.38,1.08 1.73,0.71 -2.86,1.94zm-393.34 -36.02l0.47 21.45c0.19,7.92 1.33,16.71 -0.36,24.33l1 7.23c6.04,3.28 4.01,1.74 10.81,3 0.21,-0.37 0.74,-1.71 1.34,-3.07 0.17,-0.4 0.33,-0.8 0.51,-1.2l1.15 -2.52c-0.29,-9.63 -1.62,-20.31 0.05,-29.74 -2.5,-4.34 -1.17,-16 -1.14,-22 -5.14,-1.38 -1.07,-2.19 -4.2,0 0.63,5.44 2.31,-4.58 -9.63,2.52zm422.01 -191.89c0.08,0.25 -0.34,5.23 5.47,3.41 3.15,-0.99 4.82,-4.07 8.65,-3.85 8,0.46 2.23,-1.22 3.56,2.86l-0.05 1.63c0.51,2.25 3.36,1.1 11.39,1.1 -6.59,7.88 -9.9,1.81 -17.66,1.25l0 2.53c2.96,0 5.93,-0.11 8.84,-0.13 9.04,-0.04 8.31,1.1 10.09,2.46 12.79,2.23 17.33,3.43 28.34,8.54 12.16,5.65 19.74,-7.21 3.63,-13.84 -15.94,-6.56 -44.38,-13.53 -62.26,-5.96zm-174.13 -28.08c4.97,-1.53 7.86,-6.5 11.91,-10.39 2.04,-1.95 3.41,-3.3 5.6,-5.74 3.21,-3.57 2.58,-3.58 6.85,-5.43 0.34,-1.76 -0.08,-0.89 1.37,-2.84 2.61,-3.49 5.86,-4.19 3.74,-9.27 -5.2,-12.48 -18.02,4.67 -23.96,10.57 -3.67,3.64 -7.4,6.99 -10.75,10.75 -4.83,5.41 -3.03,12.35 5.24,12.35zm259.95 235.35c-2,3.68 -25.21,11.95 -32.56,13.2l0.4 1.01 0.22 2.42c0.06,0.96 0.13,2.28 0.17,3.25 0.14,3.27 0.32,4.32 0.1,7.41 6.82,-1.59 13.24,-3.39 19.37,-5.72 5.91,-2.24 13.21,-7.1 18.39,-7.42 1.1,-1.43 0.63,-0.96 2.06,-2.32l1.21 -1.04c0.1,-0.09 0.4,-0.27 0.59,-0.43 -1.32,-2.74 -0.93,-4.6 -4,-6.56l-2.54 -0.25c5.12,-2.53 0.12,2.69 1.62,-2.37 0.08,-0.25 0.04,-2.31 0,-2.73l-5.03 1.55zm-266.25 341.97c3.12,-5.13 1.07,-0.36 2.51,-5.28 -4.15,-1.15 -5.14,0.5 0,-5.06 -4.34,1.64 -3.24,1.94 -5.66,1.61l-1.08 -0.62c-0.1,-0.07 -0.32,-0.48 -0.39,-0.55 -0.12,-0.12 -0.29,-1.01 -0.57,-1.32 -9.52,0.45 -28.7,22.08 -24.11,33.69 9.08,9.45 11.58,-1 14.99,-8.02 1.69,-3.5 4.46,-6.71 6.49,-8.64 2.28,-2.16 6.98,-4.52 7.82,-5.81zm426.3 -300.33c1.5,-1.15 1.78,-1.66 3.24,-3.13 0.92,-0.93 0.79,-0.96 1.92,-1.88l3.87 -2.62c0.18,0.38 0.88,1.82 1.01,2.08l1.52 2.79 0 -43.77c-2.12,5.63 -0.1,3.49 -3.79,5.43 -5.75,-4.04 -1.11,-5.9 -7.79,-8.34l0.02 49.44zm-214.32 -74.45c-0.38,3.92 0.26,8.93 0.39,13.64l-27 -3.78c-3.6,-0.39 -5.04,-1.12 -6.2,1.35 11.93,5.08 44.06,3.26 54.95,-2.42 0.98,-4.81 0.92,-10.35 1.05,-14.68l-23.19 5.89zm8.66 -110.71c-2.82,4.83 -5.01,4.78 -7.61,10.08 1.84,0.69 1.89,0.61 2.16,0.57 0.29,-0.05 2.71,-0.95 3.1,-1.11 -1.77,7.16 -4.64,5.55 -1.68,6.72 1.06,3.59 0.88,2.62 3.81,5.17 3.45,-2.86 5.98,-7.06 10.16,-9.23l3.31 7.1c2.08,0.09 3.48,-1.64 4.33,-2.2 -0.84,-8.78 -1.73,-9.74 -6.68,-13.88 -0.06,-1.41 0.09,-4.15 -0.01,-5.21 -0.46,-5 1.21,-2.09 -1.34,-4.98 -4.33,2.04 -2.08,0.95 -5.49,4.07 -0.69,0.63 -1.05,1.05 -1.91,1.7 -2,1.51 -0.12,0.45 -2.15,1.2zm-0.22 21.43c-2.93,-2.55 -2.75,-1.58 -3.81,-5.17 -2.96,-1.17 -0.09,0.44 1.68,-6.72 -0.39,0.16 -2.81,1.06 -3.1,1.11 -0.27,0.04 -0.32,0.12 -2.16,-0.57 -2.52,0.85 -23.62,17.8 -15.16,24.78 6.96,2.25 9.1,0.39 13.07,-3.65 3.35,-3.4 6.49,-6.15 9.48,-9.78zm-124.08 105.77c0.47,2.43 -0.16,-0.04 0.56,2.41 0.06,0.21 0.47,1.11 0.65,1.49 5.85,3.12 14.88,14.21 20.87,15.53l0.53 -14.3 0.91 -1.69c-2.73,-1.64 -3.78,-2.29 -6.03,-4.04 -3.84,-3 -2.43,-1.32 -4.14,-5.37l-2.51 0.04c-5.87,-2.09 -3.8,-1.22 -10.02,-0.11l-0.82 6.04zm118.05 32.9l-2.91 0.3c1.72,5.7 0.59,6.37 0.41,12.68 -3.64,-0.71 -7.59,-1.24 -11.33,-1.38 -5.94,-0.22 -6.33,0.21 -8.77,2.23 14.16,0.93 29.31,0.26 42.79,-3.12 0.22,-3.09 0.04,-4.14 -0.1,-7.41 -0.04,-0.97 -0.11,-2.29 -0.17,-3.25l-0.22 -2.42 -19.7 2.37zm-83.55 -5.5l-0.87 1.12c7,2.34 14.78,8.34 21.79,8.44 4.59,-1.23 1.48,-0.86 2.86,-1.94 -0.11,-0.06 -3.94,1.33 -1.25,-7.08l1.73 -3.67 -1.64 -0.07c-8.54,-3.64 -14.31,-6.77 -21.69,-11.17 -1.37,2.27 -0.84,0.59 -1.19,3.52 -0.13,1.04 -0.02,2.28 0.01,3.37 0.07,2.75 0.33,5.19 0.25,7.48zm-70.22 294.94c-2.62,2.02 -4.16,5.41 -6.56,7.76 -2.48,2.42 -4.71,3.06 -7.38,5.09l8.21 5.82c1.86,-3.32 1.82,-2.57 11.2,-2.49 2.17,-4.23 8.27,-10.48 8.03,-16.87 0.28,-5.81 1.94,-0.76 -0.94,-3.03 -7.79,2.05 -6.77,-1.94 -8.51,2.85l-4.05 0.87zm210.66 -307.57c0.04,0.42 0.08,2.48 0,2.73 -1.5,5.06 3.5,-0.16 -1.62,2.37l2.54 0.25c3.07,1.96 2.68,3.82 4,6.56l5.26 -2.3c2.8,-3.3 7.93,-5.27 13.3,-10.17l-0.42 -1.09c-0.92,-3.29 -3,-5.53 -5.7,-7.68 -3.18,-2.53 2.51,0.62 -1.86,-1.26 -4.34,1.04 -4.43,2.22 -8.37,5.16 -2.63,1.96 -5.8,3.53 -7.13,5.43zm86.03 221.93c0.28,-8.97 1.29,-39.04 -0.8,-45.91 -2.47,-0.14 -142.04,-2.06 -146.91,1l146.58 -0.21c-0.07,8.55 -1.8,40.28 1.13,45.12zm-598.07 -245.58c-1.49,4.5 -0.94,4.72 -0.82,9.82 11.94,-7.1 10.26,2.92 9.63,-2.52 3.13,-2.19 -0.94,-1.38 4.2,0l-0.43 -18.07c-17.39,4.3 -7.52,-7.11 -12.58,10.77zm49.34 65.18l0.11 -46.51 -3.28 4.88c-3.03,7.49 -4.93,23.5 -1.8,31.25l3.35 7.88c1.08,2.22 0.44,1.2 1.62,2.5zm158.62 17.62c2.61,-2.43 0.3,-1.18 3.79,-1.11 0,0 6.39,1.2 7.55,1.32l-0.71 -18.08c-4.78,-1.4 -3.92,-1.87 -10.22,-1.27 1.48,-5.36 -4.91,-4.56 6.05,-4.62 -0.4,-1.35 1.06,-1.67 -1.76,-1.1 -0.2,0.04 -0.55,0.18 -0.8,0.25l-5.17 2.1c2.1,-14.39 1.12,-19.81 0.54,-34.8l0.73 57.31zm11.46 -65.4l0.02 -15.15c-9.02,-3.42 -6.24,2.58 -11.5,-2.09l-0.05 23.44c1.43,-4.94 4.23,-3.63 11.53,-6.2zm-219.13 45.43l0.43 18.53c1.25,0.08 6.02,-0.03 6.65,0.03 5.19,0.51 1.09,-1.96 5,1.62 0,-5.8 -0.62,-12.22 0.88,-17.54l0.85 -6.43 -1.15 2.52c-0.18,0.4 -0.34,0.8 -0.51,1.2 -0.6,1.36 -1.13,2.7 -1.34,3.07 -6.8,-1.26 -4.77,0.28 -10.81,-3zm358.89 -34.52c1.4,1.77 -0.87,0.5 2.29,2.44 3.33,2.6 5.9,4.41 10.13,5.53 0.08,-2.29 -0.18,-4.73 -0.25,-7.48 -0.03,-1.09 -0.14,-2.33 -0.01,-3.37 0.35,-2.93 -0.18,-1.25 1.19,-3.52 -2.19,-1.7 -0.94,-1.13 -1.99,-2.45 -6.51,-1.54 -4.31,-3.69 -10.83,-5.45l-0.53 14.3z"/>
 </g>
</svg>
