<?xml version="1.0" encoding="UTF-8"?>
<!DOCTYPE svg PUBLIC "-//W3C//DTD SVG 1.1//EN" "http://www.w3.org/Graphics/SVG/1.1/DTD/svg11.dtd">
<!-- Creator: CorelDRAW 2019 (64-Bit) -->
<svg xmlns="http://www.w3.org/2000/svg" xml:space="preserve" width="100%" height="100%" version="1.1" style="shape-rendering:geometricPrecision; text-rendering:geometricPrecision; image-rendering:optimizeQuality; fill-rule:evenodd; clip-rule:evenodd"
viewBox="0 0 907.07 719.68"
 xmlns:xlink="http://www.w3.org/1999/xlink">
 <defs>
  <style type="text/css">
   <![CDATA[
    .fil0 {fill:white}
   ]]>
  </style>
 </defs>
 <g id="Layer_x0020_1">
  <metadata id="CorelCorpID_0Corel-Layer"/>
  <path class="fil0" d="M235.68 643.46l190.31 0.69 -0.17 52.86 -190.42 -0.23 0.28 -53.32zm402.53 -106.17c10.18,102.36 -23.51,84.42 -111.43,84.42l-394.17 0c-80.73,0.03 -123.26,16.39 -109.06,-85.06l614.66 0.64zm18.13 73.58c7.39,-34.62 3.95,-122.65 4.14,-167.39 0.09,-19.5 5.3,-38.34 -16.95,-34.29 -11.8,17.46 -1.78,78.84 -5.53,105.44l-614.2 -0.27 -0.53 -310.38c6.18,-45.62 64.62,-16.55 38.89,-53 -29.91,5.78 -48.48,13.01 -57.49,37.7 -7.69,21.11 -3.53,322.99 -3.67,379.02 -0.08,34.44 4.42,54.63 28.45,68.13 26.25,14.74 144.76,6.63 183.79,7.83l0.29 53.19c-15.29,0.45 -33.83,-1.56 -45.74,3.09 -7.28,26.07 23.16,18.8 67.41,18.8l229.51 0.05c17.24,0.16 35.63,4.66 28.97,-18.36 -11.27,-5.3 -30.57,-3.49 -45.56,-3.28l-0.32 -53.89c25.16,0.61 157.68,4 177.46,-4.01 19.03,-7.69 27.75,-25.39 31.08,-28.38zm-120.7 -147.77c-16,-1.64 -31.5,-6.11 -46.56,-9.18 -30.46,-6.2 -37.71,-2.58 -40.76,-15.82 8.91,-7.88 55.69,-2.94 68.37,-3.12 8.45,-9.59 12.51,-14.37 20.59,-24.18 7.19,-8.74 13.21,-18.27 21.89,-26.76 7.32,5.48 10.39,13.6 14.05,21.66l-37.58 57.4zm-35.12 -184.41l12.89 23.96c-17.96,2.52 -61.26,5.29 -70.36,16.57 -4.54,5.63 -26.33,48.23 -28.76,55.16 -12.37,-5.1 -12.72,-4.09 -7.73,-18.37l23.14 -72.39 70.82 -4.93zm21.7 -7.62c11.38,-6.24 32.16,-21.75 45.05,-22.34 5.11,5 64.71,104.46 65.46,117.35l-42.28 24 -68.23 -119.01zm78.71 -11.16c4.21,-4.97 82.78,-48.58 92.22,-52.67 1.6,18.84 1.47,31.11 8.26,48.11 6.48,16.21 15.03,24.22 22.1,34.91l-81.15 42.34 -41.43 -72.69zm180.78 -122.01c46.3,-9.38 83.73,24.36 91.86,61.28 23.1,104.88 -136.33,136.61 -156.79,32.81 -9.92,-50.31 25.15,-86.04 64.93,-94.09zm70.52 164.94c4.74,-9.32 15.59,-8.09 31.12,-34.68 8.85,-15.17 14.23,-33.73 13.75,-54.2 -1.43,-60.21 -45.83,-80.2 -49.06,-86.12 -30.87,-10.21 -46.46,-19.74 -83.6,-8.26 -25.18,7.78 -44.19,24.69 -54.98,42.22 -14.84,24.1 -8.59,17.44 -55.24,41.91 -21.82,11.45 -42.39,22.81 -62.65,34.85 -34.99,-14.67 -8.62,-26.22 -78.77,12.72 -21.21,11.78 -84.97,5.55 -95.84,14.42 -8.89,6.76 -24.83,64.69 -29.42,79.15 -4.88,15.38 -13.29,27.81 -2.35,37.58 6.3,5.64 23.78,17.98 33.59,19.4 12.34,-9.03 27.91,-44.84 36.17,-59.87 7.38,-13.42 16.14,-10.53 32.34,-13.17 13.47,-2.19 25.72,-4.54 38.62,-5.8l22.49 35.74c-2.84,8.08 -5.07,9.89 -9.97,15.49 -6.62,7.56 -27.12,37.09 -33.25,39.05 -19.99,-0.23 -61.92,-5.63 -76.72,2.03 -5.35,8.01 -3.97,38.59 4.82,46.21 8.98,9.97 60.77,15.73 78,19.38 42.98,9.13 36.91,2.96 56.27,-26.31 6.51,-9.83 12.85,-18.87 19.39,-29.21 9.84,-15.58 7.36,-11.71 24.24,-21.61 22.05,-12.93 46.65,-17.9 42.69,-51.98 15.3,-6.43 80.48,-44.93 89.29,-45.54 6.68,-0.46 32.1,13.08 56.37,12.09 23.26,-0.95 35.17,-9.12 52.7,-15.49zm-453.74 -150.92l-0.34 32.41 -26.23 4.84c-3.74,10.52 -8.75,21.37 -13.35,32.45 -7.67,18.49 2.98,18.15 10.07,32.89l-24.68 26.16c-34.81,-19.77 -6.83,-18.59 -66.08,2.51l-4.45 25.47 -35.53 0.94c-7.69,-14.19 1.6,-22.38 -14.72,-29.62 -43.68,-19.4 -30.37,-15.11 -55.87,0.38l-26.47 -25.71c10.24,-20.7 18.67,-14 5.95,-41.26 -12.95,-27.77 -2.1,-23.31 -35.78,-28.58l0.16 -37.69c33.65,-5.36 23.55,0.89 35.05,-27.53 14.05,-34.74 6.02,-16.16 -5.83,-44.03l24.41 -23.49c24.17,9.21 11.11,19.7 41.38,6.13 28.6,-12.81 24.84,0.59 29.7,-35.37l37.87 -0.53c4.38,32.63 -0.19,23.58 26.64,34.82 33.24,13.93 16.96,7.91 42.8,-4.91l26.25 26.11c-15.33,24.13 -18.16,11.05 -5.6,42.14 11.04,27.3 5.91,20.65 23.65,25.01 16.68,4.09 5.97,-2.44 11,6.46zm-308.73 -18.89l-0.08 66.37c11.34,8.04 15.88,6.71 32.24,8.82 4.18,17.57 12.17,17.74 2.97,30.27 -7.02,9.56 -15.1,13.97 -5.43,26.16 7.01,8.82 35.28,37.38 45.55,41.53 22.69,-5.43 18.01,-26.2 45.92,-5.83 5.23,9.52 2.12,17.5 8.69,28.95 14.64,4.35 59.31,5.04 70.54,-0.87 5.83,-7.97 4.53,-16.01 7.38,-28.02l21.23 -9.72c10.41,6.39 15.67,13.26 27.12,15.3l49.65 -47.88c-2.85,-16.28 -9.39,-13.71 -13.2,-24.29 -3.27,-9.1 2.9,-15.29 5.43,-25.98 11.85,-0.91 21.92,-1.17 29.33,-6.37 7.4,-12.87 5.3,-55.17 1.23,-70.89 -24.76,-13.08 -28.83,7.39 -38.11,-29.96 21.52,-31.77 22.31,-20.44 -18.16,-62.07 -17.22,-17.71 -22.75,-14.49 -40.28,2.49l-24.43 -8.42c-6.9,-35.96 5.59,-33.69 -75.64,-31.62 -7.95,7.21 -6.64,16.21 -9.31,31.07 -41.43,18.73 -29.41,-7.84 -47.39,-6.05 -8.45,3.87 -46.88,41.1 -50.24,50.3 7.67,27.59 23.07,9.38 5.86,47.27 -14.76,2.55 -23.62,0.93 -30.87,9.44zm615.96 510.97l179.13 -0.69 -0.07 52.14 -177.95 0.17 -1.11 -51.62zm12.75 -22.69c-23.05,1.55 -34.32,-4.6 -34.4,21.75 -0.05,16 -2.16,65.97 3.91,71.35 10.74,5.95 204.49,5.86 214.78,-0.11 5.23,-6.99 4.05,-7.6 4.05,-19.55 -0.02,-85.61 5.95,-69.64 -39.03,-73.77l0.42 -291.48c-30.07,-18.91 -22.21,25.97 -22.21,49.2 0,73.28 2.69,176.16 -0.33,242.91l-100.48 -0.07c-4.28,-85.73 3.5,-202.51 -0.17,-280.81 -0.73,-15.46 -5.5,-17.29 -19.58,-14.43 -5.33,19.83 -1.77,245.68 -2.22,287.28 -0.29,13.36 0.88,3.77 -4.74,7.73zm-477.64 -505.38c62.53,-19.89 95.69,78.05 30.88,99.53 -64.9,21.5 -101.38,-77.1 -30.88,-99.53zm-2.95 -21.86c-96.04,23.66 -60.04,167.42 34.55,143.75 93.31,-23.35 61.31,-167.38 -34.55,-143.75zm551.61 100.48c28.42,-9.28 41.03,34.17 14.4,43.4 -29.52,10.23 -46.89,-32.78 -14.4,-43.4zm-4.47 -21.09c-62.08,17.74 -32.84,103.95 24.41,85.92 20.95,-6.6 37.39,-27.59 28.71,-57.07 -5.82,-19.81 -29.08,-35.72 -53.12,-28.85zm-337.3 -20.37c-11.43,5.84 -6.19,16.6 1.41,19.68 15.98,6.46 151.8,-6.2 172.46,5.87 5.74,3.35 11.86,11.97 20.29,7.39 19.22,-10.44 -10.61,-28.27 -20.72,-31.24 -17.73,-5.2 -170.4,-3.25 -173.44,-1.7zm-123.43 413.8c-18.52,9.4 -1.75,33 12.84,24.63 15.29,-8.78 4.87,-33.62 -12.84,-24.63z"/>
 </g>
</svg>
