<svg width="45" height="79" viewBox="0 0 45 79" fill="none" xmlns="http://www.w3.org/2000/svg">
<path fill-rule="evenodd" clip-rule="evenodd" d="M13.1683 61.631C13.771 65.7266 18.8282 64.7298 22.1368 64.7298C23.6988 64.7298 26.6023 64.9648 27.8285 64.4038C29.081 63.8319 30.1952 62.4323 29.9603 60.5409C29.4411 56.3399 24.2543 57.3487 21.0127 57.3487C19.4298 57.3487 16.5241 57.1127 15.2672 57.6846C13.9795 58.2708 12.8862 59.7165 13.1683 61.631ZM26.7264 40.5392L26.9525 39.8421L26.5529 39.4019C26.5244 39.4151 26.4717 39.4392 26.3762 39.4832L25.2378 39.8761L24.5814 38.8146C24.9898 38.1428 25.3498 38.3887 25.0194 37.448L23.8624 37.3953L23.6099 36.0912L24.5979 35.6609L24.6099 34.9693L23.712 34.5445C23.6736 34.0571 23.813 33.6729 23.982 33.2371L25.1193 33.1438L25.3213 32.6333C25.1489 32.3183 24.9426 32.1723 24.7329 31.8462C24.88 31.4126 25.2521 31.0109 25.6286 30.8078L26.5189 31.2403C26.756 31.057 26.6967 31.0822 27.0206 30.9626L26.8318 29.7902L27.98 29.3006C28.7681 29.8231 28.1391 30.2084 29.3027 30.0119L29.5838 28.934L30.8538 28.9735C31.2479 29.9351 30.7298 30.0504 31.8484 30.1887C32.0207 29.799 32.1513 29.6464 32.4894 29.3643L33.641 29.9142L33.3874 31.0592L33.8429 31.4379L34.8364 31.0175C35.1789 31.2743 35.2832 31.6058 35.6312 31.9066C35.4072 32.5389 35.3084 32.4258 34.9659 32.8507L35.1723 33.4632L36.2525 33.4676C36.4259 33.8035 36.5401 34.3041 36.5335 34.7684C36.1131 35.0527 35.9275 35.0121 35.5829 35.3304L35.6081 35.9122L36.5675 36.3272L36.2349 37.6499L35.0999 37.6906L34.8199 38.1417L35.4841 39.1451C35.2294 39.4908 34.9857 39.7389 34.7607 40.0847C33.8814 39.8783 33.7529 39.2954 33.1689 40.0529L33.3852 41.1034L32.2512 41.5897C31.8319 41.3493 31.8198 41.043 31.4631 40.7675L30.867 40.9124L30.6288 41.9443L29.3192 41.9278L28.9932 40.829L28.43 40.7159C28.0744 41.0595 28.1413 41.1748 27.7407 41.5172L26.5782 40.9958L26.6386 40.5491L26.7264 40.5392ZM26.8153 37.7092L27.1018 38.0923C27.4564 38.4721 27.8735 38.6906 28.1874 38.9025C29.9021 39.3723 29.3181 39.6895 31.9417 38.9497C31.732 38.5435 31.541 38.3646 31.2655 38.0056C31.024 37.6895 30.7989 37.4183 30.5904 37.134C29.6343 37.0023 29.4905 36.9178 28.9888 37.4677L28.0733 38.3953C27.756 38.0078 28.1161 37.92 27.3148 37.797C27.6331 37.1461 28.5914 36.3898 28.3664 35.6422C28.0667 35.1713 26.7824 34.6949 26.2049 34.4709C25.8295 35.7772 26.2884 36.8288 26.8153 37.7092ZM16.0938 49.0422C15.3649 43.4306 23.6604 42.391 24.4607 47.827C24.8262 50.3134 23.0018 52.3266 20.8864 52.6252C18.3781 52.9786 16.3671 51.152 16.0938 49.0422ZM17.8424 42.8653C17.534 42.5326 17.0598 42.0661 16.6294 41.8356C16.1256 41.885 15.4527 42.4339 15.1486 42.7489C14.8961 43.3175 16.04 44.401 15.4011 44.8642L15.2364 44.9268C15.1069 44.9498 15.2112 44.9608 14.9708 44.9575C14.5701 44.9542 14.1135 44.7171 13.4449 44.8664C13.2254 45.3813 12.8752 45.9466 12.9027 46.6085C13.7611 47.1365 14.2825 47.4648 14.2573 48.1783C14.0278 48.3045 13.7347 48.4253 13.4372 48.5504C12.6227 48.8951 12.3593 48.7348 12.9027 50.7459L14.8292 51.0203C15.4329 52.1993 13.2671 52.4561 14.6052 53.6505C15.6349 54.5715 14.9642 54.4496 16.6767 53.6845C17.6547 53.2465 17.4407 54.2399 17.4407 55.2246C17.4407 55.881 18.657 56.0578 19.2146 56.0259C19.8425 55.4299 19.8151 54.4913 20.6757 54.4705C21.027 54.7581 21.3124 55.4683 21.6867 55.8931C22.2268 55.9689 23.0369 55.6428 23.4584 55.4365C23.4979 55.0577 23.4892 54.813 23.4749 54.4353C23.3959 52.3365 24.3355 53.78 25.3312 53.9293C25.9042 54.0149 26.6572 52.6394 26.6572 52.6394C26.4915 51.848 25.5046 51.4056 25.869 50.6163L27.6836 50.3243C27.8384 49.7689 27.9624 48.9094 27.8856 48.4472C27.4575 48.265 26.4585 47.9752 26.1874 47.5811C25.9119 46.839 27.3367 46.5734 27.4531 46.0081C27.3828 45.5316 27.0491 44.7566 26.7439 44.4361C26.0425 44.3285 25.5485 44.6238 24.8339 44.5711C24.4991 44.1474 24.4903 44.2616 24.7142 43.6501C24.8976 43.1474 25.0139 42.9432 24.9788 42.3603L23.6198 41.5403C22.544 42.0233 21.8316 43.7742 21.3837 41.8191C21.1905 40.9783 21.3332 40.593 19.3123 40.8498C18.6141 42.435 19.1432 42.7785 17.8424 42.8653ZM24.408 67.6762C24.3015 65.9527 26.0337 66.0153 26.4706 66.7464C26.8482 67.3787 26.5354 69.3809 26.6945 70.3008C25.8174 70.2723 25.981 70.1823 25.7681 70.1449L25.6484 70.1384C25.3191 70.1823 25.5364 70.4512 24.7307 70.247C24.2971 69.7783 24.251 68.9605 24.6604 68.4259C25.0095 67.9682 26.0019 67.8309 25.6199 67.1745C25.0644 67.2327 25.4947 67.2074 25.1709 67.674L24.408 67.6762ZM20.8063 67.6805C20.7723 67.09 20.8557 66.5861 21.3914 66.3863C23.7394 65.5081 22.8909 69.0999 23.0984 70.3008C21.6472 70.2525 22.6154 69.9803 21.8503 70.2196C20.544 70.6269 20.6592 68.9517 21.0621 68.4248C21.4134 67.9671 22.4057 67.832 22.0237 67.1745C21.4682 67.2327 21.8986 67.2074 21.5747 67.674L20.8063 67.6805ZM29.3554 67.2546C29.2226 67.2766 29.1041 67.0911 29.0964 67.9111L29.1008 70.2844L28.2083 70.292C28.1907 69.7289 28.2061 69.1625 28.2061 68.5982C28.2072 67.4017 28.351 67.3282 27.98 67.1646C27.7099 67.6443 27.8856 69.5763 27.8603 70.2888L26.969 70.2909L26.9788 66.3424L27.8054 66.3314L27.8965 66.607L28.3225 66.3117C27.1194 65.4587 26.0063 65.7068 24.3048 65.6772L24.274 70.2833L23.3761 70.2909L23.3399 65.6772C21.6285 65.6915 19.9139 65.6805 18.2025 65.6805C16.2683 65.6805 15.3857 65.6003 14.2188 66.7497C12.0223 68.9166 13.3099 72.4008 15.9675 72.9694C16.8874 73.167 24.4091 73.0638 25.9602 73.0605C28.4893 73.0561 29.9625 71.1625 29.7155 70.2646C29.3719 69.0176 29.9284 68.3359 29.3554 67.2546ZM32.8133 38.2295C32.5081 37.9661 31.4784 36.4172 31.6069 35.9342C31.7562 35.3689 33.8045 34.7464 34.0285 34.7322C34.1382 36.4205 33.7255 37.4139 32.8133 38.2295ZM31.0624 35.7805C30.5926 37.1538 28.5585 36.482 28.9756 35.101C29.3873 33.742 31.5509 34.348 31.0624 35.7805ZM30.6145 31.4368C32.0394 31.6135 33.237 32.5872 33.6465 33.6443C33.2644 33.877 31.6771 34.4435 31.1985 34.2558C30.3906 33.9363 30.6475 32.3754 30.6145 31.4368ZM26.5968 33.4204C27.0809 32.4851 28.2127 31.5993 29.5816 31.4148C29.643 34.9056 28.9438 34.3117 27.2193 33.7354C27.1666 33.7179 26.9218 33.6334 26.8855 33.6147C26.621 33.483 26.733 33.5499 26.5968 33.4204ZM23.0731 7.56995C22.0874 12.3582 14.692 10.94 15.7315 6.00458C16.7239 1.28874 24.0885 2.64114 23.0731 7.56995ZM13.7633 3.57311C13.1211 3.59177 12.8598 4.56985 12.8335 5.10993C13.7435 5.96506 14.0783 5.74881 14.0542 6.60065C13.6491 6.7236 12.9553 7.00352 12.6403 7.30869C12.5657 7.69509 12.6809 8.50082 12.9367 8.7994C13.333 9.05737 14.1596 8.97833 14.591 9.11665C14.7435 9.54257 14.6371 9.63917 14.4219 9.96519C14.2155 10.2791 14.0641 10.4844 13.9477 10.8291L14.8094 11.9653C15.8599 11.9762 16.9017 10.5108 16.8929 12.2924C16.8885 13.1157 16.7952 13.1859 17.6438 13.4176C18.0466 13.5262 18.0916 13.5668 18.5362 13.5174C19.1059 12.6568 19.4045 11.3692 20.1619 12.692C20.3354 12.9949 20.4517 13.1651 20.6757 13.4252C21.1839 13.4593 21.8722 13.2287 22.1719 13.0026C22.3365 12.5679 22.2092 11.8357 22.2509 11.2847C23.1587 10.9235 23.15 11.6326 24.1434 11.6842C24.3794 11.4504 25.0787 10.8225 25.0205 10.412C24.9195 9.70393 23.3234 8.78074 25.0776 8.59193C25.1983 8.57876 25.4903 8.55681 25.5924 8.52717C26.1896 8.35702 26.2126 7.60068 26.172 6.89594C25.5781 6.37342 24.6604 6.43819 24.6264 5.88383C24.6099 5.61489 24.6418 5.66429 25.1127 5.26471C25.3399 5.07151 25.5134 4.96064 25.7538 4.80476C25.7527 4.2537 25.4201 3.56762 25.1445 3.23172L23.3267 3.40516C23.0764 2.69602 23.5759 2.27559 23.6077 1.45339C23.3223 1.26458 22.6626 0.792561 22.2487 0.716818C21.578 0.802441 20.7964 2.78275 20.3804 0.902334C20.3046 0.559842 20.1927 0.252478 20.0862 0L18.5527 0.0318342C18.2464 0.637781 18.253 1.61915 17.6877 1.78491C17.0279 1.9803 16.7414 1.1614 16.0674 0.922093C15.6602 1.0626 15.1332 1.48194 14.8281 1.68392C14.838 2.53027 15.7019 3.61043 14.8171 3.69386C14.659 3.70813 14.603 3.69715 14.4461 3.67849C14.2825 3.65873 13.9455 3.60714 13.7633 3.57311ZM2.99345 16.7865C2.26126 11.985 9.56336 10.9136 10.2374 15.6635C10.9322 20.5638 3.70587 21.4518 2.99345 16.7865ZM5.45895 10.2374C5.4831 10.7841 5.32063 11.4746 4.62797 11.3604C4.31072 11.3077 3.92981 10.7193 3.36668 10.4844C2.98247 10.6337 2.41604 11.0651 2.15368 11.2682C2.15698 11.8807 2.73219 12.5965 2.46544 13.0773C2.02744 13.3736 1.29636 13.0674 0.761762 13.0893C-0.210827 14.5131 0.363286 14.7282 0.879219 15.119C2.13832 16.0708 0.942887 16.1355 0.00542601 16.6493C-0.0242127 17.1817 0.0690944 17.7712 0.248024 18.2135L1.87376 18.4539C2.19759 19.1181 1.55213 19.4496 1.29087 20.1576C1.4687 20.6428 1.89133 20.9612 2.2426 21.2762C3.01101 21.2312 3.95396 20.1664 4.13728 21.072C4.31402 21.9425 3.61915 22.7856 5.69386 22.8174C6.33823 22.1687 6.53911 20.5627 7.4151 22.071C7.54903 22.3026 7.69283 22.5386 7.83334 22.7252C9.96403 22.6528 9.26588 21.802 9.39211 20.9469C9.50628 20.1752 9.24282 21.4431 9.43932 20.7515C9.66106 19.9754 10.7643 21.128 11.2341 20.9721C11.4965 20.7669 12.0124 20.1993 12.1485 19.8206C12.132 19.3826 11.1408 18.8228 11.4537 18.1345L13.0574 17.8392L13.2067 16.3057C12.7907 15.927 12.0541 15.916 11.7424 15.4615C11.6545 14.8973 12.3922 14.681 12.7918 14.2013C12.8214 13.6843 12.4789 13.1245 12.2813 12.7315C11.3713 12.6909 10.0036 13.3451 10.4789 12.0015C10.6457 11.5328 10.7028 11.5712 10.6885 11.0541C10.3768 10.7885 9.87951 10.3779 9.43602 10.2879C8.82349 10.3626 7.97385 12.3165 7.56769 10.4515C7.49524 10.12 7.40083 9.84664 7.24935 9.64795C5.30088 9.42731 5.81791 9.83347 5.45895 10.2374ZM30.6123 10.9422C30.2413 6.77409 36.4654 6.39318 36.753 10.3812C37.0527 14.5285 30.9581 14.8259 30.6123 10.9422ZM30.8341 5.74442C30.5355 6.08801 29.9822 6.33829 29.9241 6.55894C29.8373 6.88167 30.7078 7.99587 29.8889 8.0771C29.5212 8.11332 29.3379 7.95196 28.767 8.03319C27.8856 9.26374 28.5266 9.43499 28.8746 9.71162C29.9504 10.5678 28.665 10.5843 28.126 11.0541L28.2698 12.3286C28.6858 12.4033 29.3939 12.3593 29.7429 12.6272C29.8527 13.333 29.2709 13.2792 29.2083 14.1333C29.5388 14.4099 29.7341 14.6657 30.0031 14.8841C30.6804 14.8117 31.0141 14.2782 31.4642 14.4472C32.0108 14.8534 30.8022 16.1333 32.9077 16.1805C33.1931 15.8677 33.4313 15.1717 33.8243 15.0301C34.6201 15.2881 34.113 16.0938 35.1339 16.0927C35.3117 15.9698 35.6926 15.9292 36.0077 15.703L36.1142 14.3693C36.2558 13.9818 37.0242 14.5647 37.5335 14.6503C37.797 14.4362 38.1472 14.0751 38.3217 13.7513C38.4348 13.0355 36.8573 12.344 38.247 12.1178C38.7037 12.0432 38.9595 12.1409 39.1208 11.7479C39.785 10.1342 38.0923 10.5228 37.9781 9.93007C37.8903 9.47012 38.5215 9.47231 38.9145 8.80599C38.7926 8.39324 38.6005 7.99696 38.4249 7.69838C38.0495 7.68521 37.1021 7.89597 36.9287 7.71375L36.9638 7.00132C37.0406 6.74994 37.0977 6.61712 37.1471 6.35695C36.9353 6.07703 36.427 5.74332 36.0724 5.63355C35.4928 5.68734 35.5741 6.48649 34.7014 6.42392L34.2831 5.10554L32.956 5.08469C32.5751 6.01227 32.8956 6.45355 31.8758 6.57431C31.53 6.14619 31.3775 5.9947 30.8341 5.74442ZM16.3067 76.9157C16.7151 79.4087 19.6844 78.9696 22.1368 78.9696C23.3234 78.9696 24.79 79.1639 25.7022 78.57C26.4212 78.1024 27.0447 77.1836 26.8065 75.9443C26.3268 73.4502 23.5067 73.9255 21.0127 73.9255C19.8491 73.9255 18.4264 73.7334 17.4835 74.2812C16.7612 74.7005 16.096 75.6325 16.3067 76.9157ZM9.15171 32.619C12.6875 31.495 14.5042 37.0111 10.8258 38.1867C7.16482 39.3569 5.30966 33.8408 9.15171 32.619ZM7.41291 30.8341C7.00455 30.9274 6.62035 31.2271 6.39202 31.5092C6.24602 31.9824 7.39973 33.0878 5.96829 32.9604C5.63019 32.9308 5.69167 32.8847 5.31295 32.9045C5.06267 33.2041 4.88154 33.6388 4.84422 34.1273C6.70268 35.3985 5.40735 35.1328 4.65541 35.8222L4.83324 36.9913C5.35796 37.1285 5.0484 37.055 5.51823 37.1022C7.1253 37.2635 5.66642 38.0649 5.70594 38.5896C5.85303 38.8893 6.28883 39.2867 6.51387 39.4381C6.94088 39.3295 7.45901 38.8673 7.86298 39.0232C8.09899 39.4228 7.92774 39.8037 8.02873 40.3405C8.3855 40.5128 8.77409 40.6292 9.21099 40.6314C9.37784 40.4184 9.43054 40.3635 9.58641 40.0902C10.1924 39.0254 10.3131 39.7949 10.93 40.5765L12.1189 40.279L12.1836 38.8212C12.6732 38.6862 13.019 39.0583 13.5789 39.2296C13.7567 39.111 14.2243 38.6247 14.3407 38.2526C14.142 37.7729 13.6414 37.4161 13.7852 36.9968C14.0344 36.7246 14.67 36.7608 15.0509 36.6905C15.1387 36.3447 15.2353 35.8694 15.1706 35.4435C14.9499 35.2942 14.8336 35.2481 14.5767 35.135L14.0158 34.7684C14.2463 33.5203 15.411 34.6927 14.4713 32.652C13.8994 32.5707 13.2506 32.8364 13.0366 32.6201C12.7951 32.2612 13.1573 31.8495 13.2067 31.3193C11.8335 29.8363 12.0113 31.417 10.8433 31.4115L10.537 30.2062C10.0892 30.0877 9.67423 30.0921 9.25051 30.2051C8.89265 31.0087 9.1111 31.3512 8.61712 31.4917C8.0913 31.641 7.83444 31.0669 7.41291 30.8341ZM25.1764 20.0456C25.2938 20.4858 25.5847 20.8305 25.7516 21.375C26.0546 22.3608 25.958 21.8569 26.8877 22.1357C27.0557 22.521 26.9986 22.9283 26.9657 23.4365C25.4772 23.6682 26.3927 23.06 25.1874 25.4399C25.3465 25.8043 25.5342 25.8493 25.7351 26.3389C25.4464 26.7166 25.2236 26.9767 24.8339 27.1853C24.622 27.0283 24.3048 26.7978 24.0468 26.6364C23.3223 26.9196 23.06 27.1732 22.1675 27.384L21.9919 28.4279L20.7196 28.4488L20.5341 27.3873C19.7031 27.2138 19.3035 26.9372 18.6526 26.6496C18.2881 26.8636 18.174 27.07 17.7393 27.2358C17.4033 26.9032 17.1849 26.7945 16.9346 26.3389C17.1651 25.9503 17.2683 25.8669 17.4967 25.5595C17.3979 25.2291 17.2134 25.0041 17.0685 24.6671C16.9138 24.3081 16.8501 23.9569 16.6756 23.5957L15.7524 23.4892C15.6206 22.9942 15.6272 22.6747 15.7381 22.1807L16.7041 22.0161C16.9643 21.1555 17.2288 20.7273 17.4835 20.0786C17.2914 19.8305 17.0477 19.6329 16.9171 19.2586C17.1081 18.9896 17.5285 18.544 17.7601 18.3881C18.0389 18.4869 18.3364 18.7657 18.6526 18.9677C19.0785 18.7207 19.4715 18.5099 19.9984 18.3551C20.893 18.0928 20.398 18.0906 20.6932 17.1575C21.162 17.1323 21.5659 17.0763 21.9315 17.2201C22.3014 18.1016 21.6472 18.0467 22.6966 18.3606C23.2575 18.5286 23.5781 18.7909 24.0468 18.9347C24.3476 18.735 24.4629 18.5966 24.7252 18.3914C25.2038 18.511 25.4662 18.8897 25.7208 19.2586C25.6166 19.5429 25.3685 19.8173 25.1764 20.0456ZM16.4428 18.2102C16.3331 18.5165 15.9906 18.9161 15.7666 19.2586C15.9214 19.6373 16.0839 19.7998 16.3298 20.1576C16.0455 21.4672 15.9796 21.0424 14.9433 21.3728C14.5503 22.0863 14.6733 23.4201 14.8994 24.2478L15.9862 24.4893C16.5965 25.565 16.242 25.4509 15.7974 26.3389C16.1574 27.1688 17.0466 27.8823 17.7535 28.3511C18.2266 28.1765 18.365 27.9603 18.7645 27.7824L19.6844 28.1403L19.8974 29.2512C21.1126 29.4697 21.6636 29.4159 22.8558 29.238L22.9886 28.1952C23.8569 27.6332 24.1401 27.7748 24.8042 28.3456C25.5167 28.1151 26.5365 26.9712 26.8888 26.3389C26.2961 25.0568 26.161 25.9602 26.6682 24.453L27.7978 24.273C28.0876 21.1489 28.0436 21.3794 26.6836 21.117C26.1248 19.881 26.3136 20.2542 26.8647 19.2586C26.587 18.5955 25.4892 17.5121 24.8339 17.2409C23.6692 17.837 24.4145 18.0083 22.9579 17.4309L22.7658 16.3847C21.9238 16.107 20.6515 16.062 19.848 16.41L19.6482 17.4671C18.0236 17.9622 19.0796 17.8381 17.7535 17.2629C17.2255 17.5439 16.8885 17.938 16.4428 18.2102ZM31.5147 47.2441C33.6146 46.3835 34.6234 49.5724 32.731 50.3112C31.2084 50.9061 29.8812 49.3803 30.6112 47.9642C30.8494 47.5032 31.0075 47.4516 31.5147 47.2441ZM31.3401 46.5251C30.8747 46.5075 30.9318 46.311 30.4872 46.1639L30.0075 46.5525L30.2204 47.3385L29.3543 47.378L29.115 48.018C29.5453 48.4384 29.4531 48.1607 29.6869 48.5932C29.4411 48.86 29.3708 48.7853 29.0558 49.0422C29.1139 50.0258 29.1699 49.6174 29.9526 49.8743C29.923 50.3145 29.7341 50.1794 29.6771 50.7217L29.9899 51.0774C30.6112 51.0346 30.3631 50.8699 30.9032 50.8732C31.1667 51.6197 30.5542 51.6394 31.6442 51.7986C31.9055 51.522 31.8495 51.4374 32.1393 51.1773C32.5685 51.3836 32.3303 51.4144 32.7013 51.7382C33.5938 51.5779 33.327 51.612 33.383 50.7327L34.1635 50.9292C34.3688 50.7426 34.4785 50.6756 34.6103 50.3913C34.4258 50.0543 34.3699 50.1202 34.2678 49.7173C34.5664 49.5021 34.7014 49.5647 35.0263 49.4637L35.1108 48.8204L34.3863 48.4099C34.5806 47.9521 34.585 48.1958 34.8891 47.8061C34.7069 46.8961 34.5971 47.1903 33.8298 47.2211L33.933 46.3473L33.3819 46.0388L32.7123 46.4976L32.5103 46.1925C32.4477 46.0651 32.4368 45.9554 32.3632 45.7995L31.6903 45.7556C31.4795 46.1387 31.5663 46.2572 31.3401 46.5251ZM20.6943 21.0391C21.8459 20.6132 22.8448 21.3201 23.1302 22.2027C23.4782 23.2818 22.8141 24.2521 22.0446 24.5551C19.6592 25.4959 18.3013 21.9239 20.6943 21.0391ZM24.1028 23.4168C24.5101 21.7373 23.3069 20.3091 21.937 20.0237C18.1619 19.2377 17.1586 24.8625 20.7459 25.5749C22.4847 25.9207 23.7658 24.8043 24.1028 23.4168ZM40.044 17.4605C39.4677 15.3013 42.6885 14.827 43.0562 16.6855C43.4635 18.7481 40.5117 19.2092 40.044 17.4605ZM40.8509 14.9247C40.4765 14.9094 40.5204 14.725 40.1187 14.591L39.6357 14.8457L39.7828 15.7173L39.0166 15.6833L38.7619 16.3364C39.0495 16.5121 39.1878 16.5022 39.3107 16.9138C38.9408 17.1202 38.6466 17.0357 38.7268 17.5681C38.8014 18.0664 39.111 17.9303 39.5511 17.9951C39.4864 18.5143 39.3854 18.3244 39.2657 18.7712L39.5577 19.1477L40.4194 18.9358C40.572 19.6944 40.2592 19.7482 41.1297 19.8349L41.5501 19.2509C41.9914 19.4507 41.7279 19.5034 42.1418 19.8074L42.6742 19.668L42.7587 18.8711L43.5908 19.072L43.8993 18.5857C43.7478 18.2212 43.6742 18.3112 43.5941 17.9095L44.3109 17.7174L44.3658 17.1235L43.7083 16.7075C43.8905 16.2288 43.9069 16.5022 44.1869 16.1114C43.9377 15.2497 44.0046 15.5911 43.1429 15.579L43.3065 14.7381C43.0529 14.6514 42.9695 14.58 42.7796 14.4813C42.3822 14.6459 42.4986 14.6756 42.1418 14.8874L41.841 14.2123L41.2427 14.2079C40.9925 14.5361 41.1077 14.6371 40.8509 14.9247ZM20.668 33.6443C20.073 35.4819 17.0532 34.7969 17.6953 32.6904C18.2486 30.878 21.3244 31.6223 20.668 33.6443ZM18.5669 31.0504C17.8754 31.0778 18.2728 30.9099 17.7535 30.7386L17.3342 30.9878L17.4407 31.866C16.9785 31.8682 16.5888 31.6552 16.4999 32.1953C16.422 32.6706 16.7282 32.6267 16.9456 32.9703C16.4352 33.6136 16.2606 32.8276 16.4198 34.011L17.186 34.1668C17.0916 34.7607 16.9873 34.348 16.9357 35.0363C17.5965 35.4874 17.3803 35.2152 18.1158 35.0856L18.1487 35.8189L18.7558 36.011C19.0993 35.6466 18.893 35.5961 19.3266 35.4314C19.4572 35.5785 19.4199 35.5741 19.5253 35.696L19.7086 35.887C19.7229 35.9013 19.7514 35.9309 19.7755 35.9485C20.6823 35.7586 20.2662 35.8497 20.4023 35.0845C20.6636 34.989 20.9007 35.1658 21.2794 35.202L21.5473 34.7816L21.207 34.101C21.4408 33.9221 21.6186 33.9649 21.7822 33.8639C22.027 33.7124 21.9908 33.7179 22.0083 33.1844L21.3563 32.8902C21.6428 32.0362 22.0226 32.8419 21.656 31.7431L20.8239 31.7233L20.9029 30.8912L20.3398 30.6179C20.084 30.8067 20.0631 30.9044 19.7755 31.0471C19.3496 30.5399 19.8491 30.3369 18.8765 30.361L18.5669 31.0504ZM1.49834 28.025C1.19866 25.8428 4.38208 25.5508 4.58186 27.5958C4.67188 28.5124 4.01434 29.226 3.21629 29.3171C2.33591 29.4181 1.60043 28.7715 1.49834 28.025ZM2.35567 25.6616C1.83754 25.5958 2.08782 25.4629 1.56859 25.3422L1.17012 25.6046L1.29636 26.3927L0.478548 26.4575L0.294129 27.0096C0.602591 27.407 0.591614 27.1381 0.805671 27.5761L0.541118 27.7814C0.333647 27.9284 0.435736 27.7934 0.205213 28.025C0.310595 29.0898 0.460984 28.4136 1.07352 28.8341C0.970331 29.17 0.895685 29.114 0.772739 29.4861L1.10316 29.9296L1.89242 29.6815L2.03184 30.4653L2.57741 30.5959L3.09993 29.9801C3.1636 30.0328 3.19214 30.0383 3.20092 30.0767L3.70368 30.5421L4.15814 30.3929L4.25035 29.5915L5.0451 29.8308L5.38211 29.4071C5.26026 28.9153 5.13731 29.024 5.07694 28.5948L5.8212 28.4114L5.86182 27.8022C5.46773 27.542 5.47541 27.7034 5.22733 27.351C5.50286 26.9932 5.53469 27.1743 5.69825 26.766L5.49078 26.3038L4.67297 26.239L4.80141 25.565L4.27669 25.2171C3.82333 25.4256 4.02202 25.5036 3.55768 25.6561C3.52255 25.5639 3.50279 25.4465 3.46218 25.3455L3.25471 24.9536C2.30297 24.9119 2.79366 25.0952 2.35567 25.6616ZM28.7791 1.24373C29.6101 0.993446 30.2885 1.51816 30.5004 2.13069C30.7781 2.93313 30.2501 3.75643 29.6354 3.95622C27.801 4.55119 26.8724 1.81894 28.7791 1.24373ZM28.205 0.487392C27.2796 0.115262 27.464 0.818907 27.5617 1.42156C27.0271 1.38753 26.8383 1.20201 26.6869 1.67843C26.5463 2.11972 26.857 2.08569 27.1029 2.39964L26.8537 2.62248C26.7209 2.72786 26.7483 2.64333 26.5606 2.84971C26.6386 3.64885 26.6803 3.28441 27.2961 3.52371C27.2807 3.86511 26.8932 4.27237 27.3499 4.50508C27.7956 4.56217 27.6287 4.47654 28.093 4.37994C28.2808 4.81025 28.0217 5.10993 28.5804 5.16592C28.9295 5.20105 28.9844 4.87941 29.2171 4.65657C29.4575 4.83331 29.4674 4.91015 29.6661 5.13518L30.2874 5.01224L30.238 4.32067C30.777 4.31518 30.8308 4.64779 31.1897 4.26029C31.4367 3.99354 31.1513 3.80803 31.0361 3.41174L31.7079 3.22623C31.7671 2.52368 31.8429 2.73554 31.1469 2.31731C31.3522 1.85077 31.3643 2.18009 31.5904 1.72563L31.4148 1.31289L30.6266 1.27776L30.7561 0.553256L30.3609 0.284312C29.9669 0.444581 30.103 0.503858 29.6661 0.61912C29.3126 0.0109773 29.7748 -0.0252478 28.8801 0.0274433C28.6683 0.322733 28.7561 0.400671 28.5376 0.678397C28.0678 0.64327 28.2522 0.693765 28.205 0.487392ZM8.4327 5.63355C10.2494 4.82672 11.2286 7.50957 9.53592 8.23298C7.90908 8.92894 6.63681 6.4305 8.4327 5.63355ZM6.36458 7.57653C6.75537 7.79937 6.87722 7.67533 7.17141 7.90695C7.04736 8.19675 6.97382 8.23298 6.92442 8.63474C7.73235 9.02554 7.08908 8.86966 8.01446 8.66219C8.02544 9.01456 7.90579 9.3812 8.34817 9.46682C8.818 9.55684 8.74665 9.33839 9.00132 8.95199C9.52714 9.20117 9.23514 9.60953 10.0134 9.34498L10.1012 8.58425C10.8675 8.67646 10.5359 8.99041 11.1232 8.48655L10.8653 7.69399C11.2308 7.55348 11.2659 7.65118 11.5437 7.47115C11.6205 6.5776 11.5118 7.08255 10.9937 6.55894C11.1518 6.31414 11.3033 6.3361 11.435 5.97934C11.0343 5.28228 11.3439 5.62806 10.458 5.56439L10.5678 4.81135L10.1572 4.61376L9.56116 4.97052L9.23514 4.33164L8.65005 4.32067L8.43709 4.96613C7.83883 4.96503 8.144 4.82562 7.63794 4.69499L7.30533 4.91234L7.39644 5.68405C6.99797 5.72027 6.60498 5.52158 6.52375 6.02105C6.41727 6.68298 6.74768 6.10557 6.95955 6.82788L6.39531 7.08914L6.36458 7.57653ZM39.0813 32.8155C40.763 32.0614 41.807 34.5961 40.2043 35.3063C38.5599 36.0352 37.3985 33.5708 39.0813 32.8155ZM38.9946 32.2162C38.5226 32.0856 38.5555 31.7837 38.1746 32.023C37.8222 32.2436 38.0462 32.506 38.1109 32.9078C37.3842 32.8836 37.4007 32.7365 37.2262 33.4325C37.5017 33.6904 37.4589 33.54 37.6696 33.8694C37.651 33.8913 37.6126 33.8858 37.6016 33.9232C37.5599 34.0691 37.4226 33.9704 37.2745 34.1932C37.0834 34.4819 37.1559 34.3568 37.2108 34.7827C37.6005 34.8837 37.5796 34.8035 37.8925 34.9934C37.3513 36.348 38.1823 35.8145 38.6576 35.7882C38.7816 36.2229 38.5478 36.3766 39.0495 36.5006C39.4051 36.5884 39.493 36.213 39.6225 36.0012C40.1187 36.2459 39.8014 36.5094 40.336 36.46C40.8212 36.415 40.6785 36.1153 40.6906 35.674C41.201 35.7179 41.2526 35.9946 41.5677 35.6631C41.8388 35.3787 41.5325 35.1833 41.4228 34.7432C42.1429 34.6817 42.0781 34.8178 42.1264 34.067L41.5655 33.787C41.7861 33.27 42.0617 33.4928 41.9003 33.0087C41.7532 32.5675 41.5468 32.8101 41.0506 32.7332C41.1176 32.2337 41.3635 32.158 40.9409 31.9165C40.5731 31.7068 40.4447 32.0274 40.0759 32.1876C39.9902 31.8693 40.0572 31.5257 39.561 31.5718C38.8892 31.6355 39.5336 31.6673 38.9946 32.2162ZM30.6694 23.1522C32.372 22.4277 33.2787 25.0118 31.6947 25.6737C30.0646 26.3554 28.913 23.8998 30.6694 23.1522ZM28.9174 24.0172L29.205 24.1918C29.1809 24.2247 29.1491 24.2247 29.1403 24.2565C29.1315 24.2895 29.0953 24.2994 29.0832 24.3092C29.0711 24.318 28.9043 24.4432 28.8933 24.4519C28.6858 24.6407 28.6364 24.4234 28.6836 24.8526C28.7352 25.3312 29.0536 25.1819 29.4454 25.2763C29.3104 25.6825 29.2577 25.5661 29.1798 26.048C29.8088 26.4026 29.3324 26.362 30.1162 26.0996L30.1765 26.2775C30.4411 27.1271 30.4993 27.0986 31.2402 26.3806C31.7935 26.7945 31.1853 26.98 32.1041 26.7451L32.2458 25.9953L32.9066 26.2127C33.0625 26.0173 33.1261 25.9251 33.3029 25.6792L32.9593 25.216C33.4039 24.879 33.5246 25.2851 33.6201 24.7571C33.7123 24.2434 33.4148 24.3861 33.091 24.0919C33.3775 23.6451 33.5191 23.8076 33.3709 23.161L32.5619 23.1314C32.709 22.3531 32.8429 22.6758 32.3742 22.1972C31.9977 22.2334 32.2578 22.1698 31.8945 22.386C31.1996 22.7999 32.2183 22.2839 31.6892 22.521C31.3599 22.1028 31.6705 21.9206 31.1283 21.925C30.5761 21.9294 30.8868 22.1884 30.5388 22.5781C30.0997 22.4607 30.3148 22.3322 29.755 22.296C29.2028 22.9338 29.7429 22.6714 29.5618 23.1983C29.1491 23.397 28.5058 23.1325 28.9174 24.0172ZM20.8129 19.3332C22.8316 19.0259 24.4332 20.4485 24.768 22.1193C25.1852 24.2006 23.6703 25.9273 22.0182 26.239C19.8842 26.6419 18.1454 25.1446 17.8677 23.4058C17.5219 21.2356 19.017 19.6066 20.8129 19.3332ZM20.4012 18.9677C15.2891 20.2553 17.2738 27.9032 22.3025 26.6167C24.1269 26.149 25.6802 24.2829 25.1775 21.9458C24.7768 20.0819 22.8239 18.3584 20.4012 18.9677ZM30.2446 55.5616C29.5113 56.9755 27.2686 55.9074 28.0645 54.4145C28.7978 53.0379 31.0295 54.0456 30.2446 55.5616ZM30.4795 53.8437C30.4191 53.4836 30.7034 53.1872 30.2863 53.0346C29.9537 52.9128 29.9021 53.1334 29.5728 53.2904C29.2885 52.4287 28.9657 52.4748 28.6737 53.3091C28.2346 53.2465 28.1754 52.9249 27.8724 53.106C27.4849 53.3365 27.7516 53.5067 27.722 53.9447C27.3115 53.9326 27.1106 53.7877 27.0129 54.2421C26.9437 54.5638 27.1062 54.5352 27.3718 54.7745C27.1589 55.1126 26.8175 54.9787 26.9163 55.3948C27.0282 55.8745 27.1468 55.5956 27.5826 55.8305C27.2708 56.4925 27.2752 56.8273 28.205 56.521L28.3697 56.9887C28.7045 57.5507 28.8823 57.0853 29.2171 56.7713L29.3302 56.9041C29.7243 57.2796 29.7045 57.1632 30.047 57.1017L30.092 56.4321C30.4905 56.521 30.7111 56.7845 30.9329 56.3882C31.0953 56.0962 30.8923 56.0556 30.8033 55.6736C31.2183 55.4738 31.3654 55.7252 31.3753 55.2312C31.3851 54.7943 31.1897 54.9941 30.8955 54.6626C31.0997 54.4452 31.4214 54.3804 31.1634 53.9743C30.9724 53.6735 30.8396 53.8129 30.4795 53.8437ZM20.8063 67.6805L21.5747 67.674C21.8986 67.2074 21.4682 67.2327 22.0237 67.1745C22.4057 67.832 21.4134 67.9671 21.0621 68.4248C20.6592 68.9517 20.544 70.6269 21.8503 70.2196C22.6154 69.9803 21.6472 70.2525 23.0984 70.3008C22.8909 69.0999 23.7394 65.5081 21.3914 66.3863C20.8557 66.5861 20.7723 67.09 20.8063 67.6805ZM24.408 67.6762L25.1709 67.674C25.4947 67.2074 25.0644 67.2327 25.6199 67.1745C26.0019 67.8309 25.0095 67.9682 24.6604 68.4259C24.251 68.9605 24.2971 69.7783 24.7307 70.247C25.5364 70.4512 25.3191 70.1823 25.6484 70.1384L25.7681 70.1449C25.981 70.1823 25.8174 70.2723 26.6945 70.3008C26.5354 69.3809 26.8482 67.3787 26.4706 66.7464C26.0337 66.0153 24.3015 65.9527 24.408 67.6762ZM8.97827 46.7666C10.3427 46.1508 11.0716 48.1827 9.91683 48.7447C8.54467 49.411 7.59513 47.3901 8.97827 46.7666ZM8.87399 46.266C8.38001 46.0948 7.89701 45.7336 8.17473 46.7929L7.54354 46.8555C7.44255 47.4626 7.48755 47.3209 7.82785 47.5789C7.54134 47.917 7.45243 47.7139 7.42718 48.0564C7.39425 48.5098 7.57757 48.366 7.95848 48.4802C7.92225 48.9291 7.68295 48.8863 7.96507 49.1662C8.20766 49.4055 8.29109 49.2266 8.6742 49.1267C8.67749 49.5647 8.55564 49.6185 8.89814 49.7239C9.32845 49.8556 9.18355 49.7151 9.43602 49.3858C9.56556 49.4483 10.2747 50.3584 10.2846 49.0323C10.7335 49.1695 10.6446 49.2464 11.0255 49.0817C11.1419 48.6338 11.0409 48.8369 10.9059 48.3682C11.3757 48.1508 11.3428 48.4527 11.4218 48.0081C11.4866 47.6426 11.2561 47.7205 10.9871 47.4691L11.1013 47.3374C11.244 47.1409 11.1704 47.3111 11.2297 47.1508C11.2912 46.9806 11.2912 47.0729 11.2132 46.7644L10.5414 46.7018C10.7643 45.5756 10.2593 46.0081 9.74997 46.2331C9.66545 45.8555 9.76425 45.7084 9.34821 45.7633C8.95522 45.8149 9.16269 45.9488 8.87399 46.266ZM29.3554 67.2546L29.2369 67.124C29.2215 67.1075 29.1963 67.079 29.1798 67.0614L28.3225 66.3117L27.8965 66.607L27.8054 66.3314L26.9788 66.3424L26.969 70.2909L27.8603 70.2888C27.8856 69.5763 27.7099 67.6443 27.98 67.1646C28.351 67.3282 28.2072 67.4017 28.2061 68.5982C28.2061 69.1625 28.1907 69.7289 28.2083 70.292L29.1008 70.2844L29.0964 67.9111C29.1041 67.0911 29.2226 67.2766 29.3554 67.2546ZM35.4511 19.7086C34.619 21.0556 32.9779 19.9436 33.5411 18.7613C34.1229 17.5395 36.1449 18.5835 35.4511 19.7086ZM36.0867 20.1587L35.8913 19.9337C36.1712 19.6614 37.0264 19.5429 35.9769 19.0665C36.1701 18.7514 36.3458 18.8228 36.2612 18.5011C36.1701 18.151 36.3293 18.3793 35.6871 18.1663C35.6641 18.1587 35.6224 18.1521 35.5949 18.1345L35.7047 17.6515C35.1141 17.4956 35.292 17.5856 34.8166 17.8041C34.675 17.0598 34.2634 17.1004 34.0965 17.826C33.4522 17.7097 33.7881 17.5165 33.2699 17.7075C33.1459 17.9918 33.2238 17.9347 33.2919 18.3727C32.9461 18.354 32.7222 18.2388 32.6508 18.6142C32.5795 18.9874 32.5948 18.6274 32.7419 18.8722L32.9428 19.1466C32.529 19.4518 32.5421 19.1697 32.5882 19.5989C32.63 19.9743 32.72 19.8546 33.1261 19.9326C32.9999 20.3376 32.9055 20.2257 33.0164 20.6296C33.3885 20.7712 33.3171 20.6703 33.7606 20.5682C33.7694 20.8898 33.7178 21.0468 33.9791 21.1346C34.3446 21.2564 34.2261 21.1324 34.4994 20.8184C34.5257 20.8305 34.5565 20.8338 34.5675 20.8711L34.7014 20.9754C35.0175 21.1961 34.5905 21.2027 35.0406 21.128C35.4325 21.0632 35.2963 20.9502 35.3183 20.5308L35.9297 20.6263L36.0867 20.1587ZM19.7986 37.3316C21.0928 36.7081 21.8305 38.6621 20.7119 39.1944C19.4814 39.7806 18.4802 37.9683 19.7986 37.3316ZM19.7755 36.8179C19.1992 36.7114 19.5461 36.5797 19.0598 36.6631C18.9039 37.0155 18.9753 36.8991 19.0499 37.3898C18.579 37.3481 18.7437 37.2701 18.4583 37.46C18.4023 38.0166 18.4089 37.673 18.7009 38.1406C18.2091 38.5314 18.0411 38.8135 18.9007 38.9003C18.6976 39.6138 18.6295 39.7587 19.4385 39.5765C19.4649 39.6379 19.4726 40.7818 20.3046 39.762C20.6263 40.1231 21.0423 40.4964 21.0489 39.5216C21.7965 39.571 21.9831 39.6039 21.6197 38.8388C21.9469 38.7334 22.1093 38.7905 22.1236 38.4689C22.1401 38.1022 22.0676 38.2581 21.713 38.0342C21.9139 37.7839 22.0819 37.8256 21.993 37.5007C21.8854 37.111 21.6823 37.2548 21.3146 37.2888C21.4825 36.5017 21.286 36.4238 20.6757 36.7992C20.6559 36.7783 20.6395 36.7081 20.6318 36.7257L20.488 36.5138C20.3003 36.3217 20.6384 36.3733 20.2201 36.3579C19.8502 36.3436 20.0039 36.4402 19.7755 36.8179ZM34.1887 42.9728C33.9615 41.7544 35.686 41.5414 35.9374 42.5623C36.2503 43.8313 34.3962 44.0826 34.1887 42.9728ZM34.0932 41.4437C33.7968 41.8729 34.1624 41.6149 33.933 41.908C33.7376 42.1572 33.8484 41.8323 33.5136 42.1869C33.5542 42.6084 33.394 42.2736 33.7409 42.6358C33.7233 42.6578 33.6893 42.6589 33.6816 42.6973C33.6618 42.7884 33.3984 42.8905 33.4247 43.0859C33.6706 43.5063 33.4939 43.1638 33.8923 43.4229C33.7233 43.8927 33.7244 44.0947 34.3863 43.9257C34.5982 44.4043 34.2294 44.2199 34.6608 44.3801C34.9769 44.4976 34.9297 44.3461 35.0175 44.0947C35.4017 44.2846 35.158 44.412 35.5115 44.3746C35.9572 44.3285 35.6652 44.2912 35.8474 43.8708C36.404 44.0223 36.5017 43.8115 36.2865 43.3109C36.6938 43.1035 37.0593 42.8784 36.3557 42.6644C36.3688 42.6336 36.3974 42.5568 36.404 42.5755L36.4918 42.4042C36.6147 42.1232 36.5423 42.525 36.5983 42.1023C36.3655 41.8674 36.4007 42.245 36.0121 41.5469C35.9682 41.4668 36.0823 41.245 35.6312 41.3899C35.5763 41.4075 35.674 41.4064 35.3984 41.5019C35.1888 41.1122 35.4028 41.312 35.0614 41.1297C34.8068 41.2362 34.9725 41.2077 34.8496 41.3032C34.1887 41.8158 34.7914 41.3295 34.0932 41.4437ZM4.52917 41.1835C5.60934 40.4953 6.43044 42.2253 5.35686 42.7247C4.85849 42.9564 4.3711 42.6786 4.18997 42.3669C4.05934 42.1419 4.0308 41.9443 4.09667 41.6841C4.20754 41.256 4.35134 41.2977 4.52917 41.1835ZM4.57418 40.6819C4.03629 40.4755 3.85297 40.2406 3.92761 41.1495C3.38204 41.133 3.70368 41.0507 3.4007 41.2977C3.44681 41.6918 3.39631 41.537 3.66745 41.7445C3.4018 42.0255 3.47755 41.8103 3.32935 42.1869C3.56646 42.626 3.29203 42.2769 3.78711 42.5239C3.71466 42.7258 3.4512 42.9575 4.00226 43.1024C4.75969 43.3022 4.01104 43.2056 4.60382 43.5349C4.92984 43.4174 4.83873 43.3955 5.08572 43.1968C5.26575 43.57 5.05169 43.4514 5.52262 43.5107C5.77619 43.1858 5.59068 43.3702 5.72679 42.997C5.98915 43.0508 6.12966 43.0563 6.28554 43.0288C6.36018 42.6732 6.30749 42.773 6.19552 42.4119C6.64999 42.2143 6.45239 42.4547 6.62144 42.0738C6.48313 41.7664 6.66206 41.9058 6.24931 41.7785C6.45239 41.3647 6.45239 41.6051 6.47984 41.1912C6.02867 40.8092 6.98589 41.5063 6.24712 41.0935C6.09892 41.0101 6.14722 41.0639 6.04733 40.9607C5.8695 40.7774 6.07038 41.0046 5.91999 40.7543C5.7257 40.4283 6.17577 40.7895 5.73997 40.459C5.64776 40.4305 5.51054 40.6292 5.27014 40.5073C4.12301 39.9277 5.66203 40.5754 4.94082 40.2483C4.56979 40.4437 4.77616 40.3119 4.57418 40.6819ZM14.9422 14.613C16.1223 14.2365 16.5855 16.0455 15.4681 16.3178C14.3078 16.5999 13.7841 14.9829 14.9422 14.613ZM13.8884 16.2343C13.9181 16.7898 14.0443 16.7459 14.4933 16.5977C14.7831 17.1015 14.3637 16.9435 15.0443 17.1224L15.1541 16.7799C15.6722 17.0049 15.142 16.949 15.7304 17.0401C15.7513 17.0137 15.7677 16.9303 15.7765 16.95C15.827 17.0631 15.6613 16.7393 16.2255 16.5922C16.3012 16.5724 16.6723 16.6954 16.4121 15.9994C16.8117 15.7579 16.6437 16.0499 16.8402 15.6624C16.7634 15.4407 16.8183 15.5801 16.7195 15.4516C16.7074 15.4352 16.6832 15.4044 16.669 15.388L16.4955 15.2123C16.8863 14.8139 16.8611 14.568 16.1772 14.6196C16.1816 14.0575 16.3012 14.3243 16.029 14.018C15.6195 14.0257 15.8501 14.0301 15.4713 14.2112C15.3627 13.5877 15.5153 13.9642 15.1684 13.8072C14.8599 13.9785 14.996 13.6327 14.8819 14.2419C14.5624 14.1717 14.5174 14.0751 14.1991 14.1333C13.9806 14.512 14.2748 14.3166 14.0531 14.5844C13.8467 14.8347 13.9675 14.501 13.6184 14.8644C13.6941 15.22 13.6085 15.0027 13.8774 15.3254C13.4899 15.7217 13.6875 15.2584 13.5624 15.7744C13.7567 16.0543 13.5174 15.9456 14.0234 16.0203C14.0245 16.455 14.0476 16.0609 13.8884 16.2343ZM37.4106 39.3767C37.1219 38.0879 38.9979 37.8475 39.1746 38.9694C39.3634 40.1758 37.6356 40.3877 37.4106 39.3767ZM37.8705 37.8969C37.4292 37.6982 37.0824 37.5061 37.2635 38.324C36.9254 38.3744 36.4523 38.2943 36.8573 38.9079L36.9539 39.0397C36.5851 39.2713 36.6872 39.0375 36.6553 39.4897C36.8112 39.6489 36.9298 39.6577 36.9945 39.7751C37.2415 40.2285 36.7486 39.6939 37.0791 40.2757C37.3743 40.5469 37.3184 40.1001 37.6751 40.481C37.9243 40.7466 37.4786 40.4656 37.8705 40.7433L38.2009 40.5941C38.2185 40.5798 38.2481 40.5425 38.2624 40.5293C38.2778 40.515 38.2997 40.4799 38.3206 40.4568L38.9057 40.7104L39.0166 40.1989C39.5193 40.3361 39.8223 40.2011 39.4765 39.7225C39.864 39.3723 39.0078 40.099 39.673 39.5907C39.8618 39.4458 39.7652 39.5819 39.9189 39.3767C39.8585 38.9782 40.0803 39.1429 39.561 38.9749L39.7092 38.7378C39.8761 38.2405 39.8058 38.875 39.7696 38.324L39.2207 38.2669C39.3195 37.8256 39.3514 38.0034 39.1768 37.7312C38.8102 37.6675 38.8717 37.684 38.6576 37.8706C38.2306 37.3744 38.4051 37.1099 37.8705 37.8969ZM1.50163 34.3117C2.775 33.8167 3.14823 35.6334 2.18222 35.9583C1.42918 36.2108 0.715657 35.5401 0.992285 34.7585C1.14816 34.3216 1.18768 34.4336 1.50163 34.3117ZM1.49505 33.9034C0.957158 33.7508 0.5982 33.3918 0.82543 34.3655C-0.0670242 34.3106 0.255708 34.5851 0.510382 34.9934C0.102026 35.3337 0.293031 34.9748 0.194236 35.4435C0.363286 35.6971 0.435736 35.6104 0.660771 35.7805C0.379752 36.3788 0.605884 36.4216 1.11962 36.2503C1.38966 36.7388 0.995579 36.4457 1.45663 36.7366C1.73106 36.6302 1.59713 36.5303 1.89133 36.527C2.146 36.5248 1.86169 36.6038 2.35567 36.6938C2.62241 36.4227 2.45336 36.628 2.60814 36.1691C3.09883 36.3557 3.27666 36.235 3.03626 35.6674C3.57854 35.3052 3.74539 35.4347 3.12737 34.8815C3.47864 34.4446 3.39522 34.5049 3.04065 34.236C2.61912 33.9155 3.02638 34.0999 2.68718 33.674C2.20747 33.6827 2.52472 33.6674 2.12514 33.8606C1.94072 33.2052 1.65641 33.3238 1.49505 33.9034ZM9.21648 41.9278C10.4218 41.593 10.7226 43.3417 9.74229 43.6348C8.49307 44.0091 8.01446 42.2615 9.21648 41.9278ZM8.98705 41.5557C8.63249 41.3756 8.87508 41.3976 8.44477 41.425C8.26145 41.7412 8.30426 41.5524 8.41294 41.9992C7.98263 42.0189 8.16375 41.9618 7.8981 42.0979C7.85529 42.48 7.89152 42.4382 8.10009 42.6358L7.98153 42.7456C7.74003 43.0826 7.80809 42.7654 7.79711 43.244C7.83224 43.255 8.06386 43.3208 8.26036 43.3603C8.10887 43.8576 8.00129 44.154 8.76641 43.9026C8.84325 44.3022 8.74226 44.154 8.96071 44.4098C9.43053 44.3604 9.23075 44.4789 9.39541 44.0903C9.42285 44.1068 9.45798 44.109 9.47005 44.1496C9.48432 44.1968 9.5908 44.244 9.61495 44.2594C10.1715 44.6008 10.0178 44.3384 10.1594 44.0343C10.1704 44.0124 10.1847 43.9685 10.1924 43.9498C10.2 43.9301 10.2088 43.8894 10.2231 43.8631L10.7193 43.9597C10.7983 43.615 10.7094 43.4855 10.7237 43.4218C10.795 43.0903 10.6336 43.48 10.8148 43.2319C10.8334 43.2067 10.9136 43.1309 10.9344 43.1079C11.4767 42.5348 10.716 43.5843 11.0749 42.9728L10.7083 42.5239C11.076 42.1506 11.1957 41.9849 10.3889 41.9026C10.4426 41.1396 10.2253 41.3504 9.77303 41.5041C9.4964 41.0584 9.77961 41.3317 9.43602 41.1319C9.17586 41.2307 9.1561 41.3438 8.98705 41.5557ZM24.3048 65.6772H23.3399L23.3761 70.2909L24.274 70.2833L24.3048 65.6772ZM11.2275 25.0217C11.0716 25.4498 11.1924 25.306 11.2484 25.4048C11.6853 25.306 12.1299 25.239 12.4361 25.5936C12.6743 25.8691 12.761 26.351 12.5228 26.7264C12.0673 27.4411 10.6776 27.1348 10.9202 25.9163L10.5601 25.7648C10.379 25.879 10.3581 25.452 10.4393 26.0261C10.1891 26.5508 10.3471 25.9042 10.121 26.452C10.2736 26.7868 10.2121 26.6639 10.6216 26.8285C10.1627 27.5453 10.761 27.283 11.0508 27.4575C11.3098 27.6145 10.9553 27.5212 11.3472 27.8154C12.1375 27.6902 10.7862 28.0086 11.6007 27.7023C12.2396 27.4619 11.7138 27.7901 12.3757 27.7726C12.4976 27.542 12.4504 27.609 12.5031 27.272C13.0069 27.3895 13.3132 27.2566 12.9542 26.789C13.2693 26.5047 13.1178 26.7912 13.401 26.452C13.2945 25.9866 13.4691 26.3027 13.0662 26.0019C13.3626 25.5343 13.3044 26.1073 13.2408 25.4399L12.7084 25.3301C12.7786 24.9294 12.828 25.0787 12.6699 24.7922C12.2473 24.7362 12.3626 24.7384 12.1331 24.9393C11.817 24.531 12.2374 24.6517 11.6842 24.5474C11.3098 24.8164 11.6523 24.7297 11.2275 25.0217ZM29.7649 34.6125C28.7001 34.9462 29.1019 36.6038 30.272 36.2712C31.3753 35.9583 30.8099 34.2843 29.7649 34.6125ZM30.272 36.2712C31.3753 35.9583 30.8099 34.2843 29.7649 34.6125C28.7001 34.9462 29.1019 36.6038 30.272 36.2712ZM28.9756 35.101C29.3873 33.742 31.5509 34.348 31.0624 35.7805C30.5926 37.1538 28.5585 36.482 28.9756 35.101ZM37.2745 25.6177C37.0187 22.7516 41.2987 22.4903 41.4963 25.2324C41.7027 28.0843 37.5116 28.2885 37.2745 25.6177ZM37.427 22.0446C37.2207 22.2806 36.8409 22.453 36.8002 22.6034C36.741 22.8262 37.3403 23.5924 36.7772 23.6484C36.5236 23.6725 36.3974 23.5617 36.0055 23.6177C35.3984 24.464 35.8397 24.5815 36.079 24.7725C36.8189 25.3609 35.9352 25.3718 35.5642 25.6946L35.663 26.5717C35.9495 26.6232 36.4358 26.5925 36.6762 26.7769C36.7519 27.2621 36.3513 27.2248 36.3085 27.8121C36.5357 28.002 36.6696 28.1787 36.8551 28.3291C37.3206 28.2786 37.55 27.912 37.8595 28.0283C38.2361 28.3072 37.4051 29.1875 38.853 29.2194C39.0484 29.0053 39.2119 28.5267 39.4831 28.429C40.0298 28.6057 39.6807 29.1601 40.3832 29.1601C40.5062 29.0756 40.7674 29.047 40.9837 28.8923L41.0572 27.9746C41.1549 27.7078 41.6829 28.1085 42.0331 28.1678C42.2142 28.0207 42.4546 27.7726 42.5754 27.5497C42.6522 27.0579 41.5688 26.5826 42.5238 26.4268C42.8378 26.3752 43.0134 26.4421 43.1254 26.1721C43.582 25.0623 42.4173 25.3301 42.3394 24.9218C42.279 24.6056 42.7126 24.6078 42.9827 24.149C42.8992 23.8657 42.7675 23.5935 42.6456 23.3882C42.3877 23.3784 41.7367 23.5233 41.6171 23.3981L41.6412 22.9074C41.695 22.7351 41.7334 22.644 41.7675 22.465C41.6215 22.2729 41.2724 22.0435 41.0287 21.9678C40.6302 22.004 40.6862 22.554 40.0857 22.5112L39.7981 21.6044L38.8859 21.5902C38.6236 22.2279 38.8442 22.532 38.1428 22.6143C37.9046 22.3201 37.8003 22.2159 37.427 22.0446Z" fill="white"/>
</svg>
