<?xml version="1.0" encoding="UTF-8"?>
<!DOCTYPE svg PUBLIC "-//W3C//DTD SVG 1.1//EN" "http://www.w3.org/Graphics/SVG/1.1/DTD/svg11.dtd">
<!-- Creator: CorelDRAW 2019 (64-Bit) -->
<svg xmlns="http://www.w3.org/2000/svg" xml:space="preserve" width="100%" height="100%" version="1.1" style="shape-rendering:geometricPrecision; text-rendering:geometricPrecision; image-rendering:optimizeQuality; fill-rule:evenodd; clip-rule:evenodd"
viewBox="0 0 735.22 719.67"
 xmlns:xlink="http://www.w3.org/1999/xlink">
 <defs>
  <style type="text/css">
   <![CDATA[
    .fil0 {fill:white}
   ]]>
  </style>
 </defs>
 <g id="Layer_x0020_1">
  <metadata id="CorelCorpID_0Corel-Layer"/>
  <path class="fil0" d="M513.55 295.61l-20.54 -45.02c-43.26,27.78 -99.68,-6.94 -81.19,-58.24l-47.4 -19.18c-12.35,59.73 -71.6,63.91 -104.55,17.06l-34.25 23.71c26.34,54.59 -6.89,92.04 -64.66,82.77 -19.09,65.42 8.22,39.63 29.03,64.22 9.74,11.52 11.44,41.34 7.2,55.07 -5.24,16.95 -29.84,9.36 -23.5,35.87 12.71,53.14 37.73,15.01 58.62,17.32 10.44,1.16 43.71,27.85 44.79,39.49 1.31,14.17 -13.45,27.26 5.06,38.67 44.99,27.72 41.32,-15.87 55.47,-28.45 21.22,-18.87 69.04,-10.91 77.43,19.15l8.39 2.64c54.12,-18.52 19.96,-40.6 22.47,-64.02 0.97,-9.01 24.43,-39.35 33.49,-41 38.14,-6.96 49.41,13.26 50.35,-47.49 -48.19,-7.18 -65.66,-74.19 -16.21,-92.57zm-91.63 -121.13c16.32,16.37 -14.62,63.05 31.21,68.35 24.44,2.83 32.44,-20.53 55.82,2.72 52.42,52.12 -2.49,65.36 -5.44,76.1 -15.26,55.63 35.39,40.83 42.12,64.35 2.66,9.28 -4.28,44.56 -8.54,53.77 -11.21,24.25 -44.95,4.81 -59.2,13.17 -1.39,0.82 -15.23,25.47 -15.28,28.28 -0.24,11.37 18.95,26.06 10.41,44.08 -4.88,10.32 -46.75,35.54 -56.72,32.95 -19.06,-11.74 -23.49,-33.38 -49.29,-31.97 -29.79,1.64 -19.12,28.63 -38.41,42.55 -11.7,3.86 -52.19,-2.97 -62.52,-9.45 -15.91,-9.98 -3.95,-47.55 -10.12,-58.23 -0.72,-1.25 -22.33,-16.02 -23.74,-16.31 -8.89,-1.83 -29.34,16.45 -41.33,14.08 -18.39,-11.6 -41.26,-42.02 -34.64,-64.68 4.57,-15.61 44.01,-28.92 20.93,-60.55 -15.73,-21.55 -60.76,-14.2 -31.15,-78.53 12.71,-27.63 41.1,-5.89 60.6,-19.76 29.74,-21.14 -4.78,-50.85 4.79,-70.03 2.84,-5.69 38.81,-28.45 45.66,-29.91 27.56,-5.87 27.39,29.94 50.64,30.21 44.9,0.53 29.64,-39 56.32,-46.27 8.31,-2.26 52.56,9.75 57.88,15.08zm-164.81 -124.45c-145.78,36 -250.21,185.69 -240.94,334.75 2.5,40.18 16.56,74.52 27.77,111.53 2.99,9.86 8.01,11.28 -3.77,19.68 -12.48,-10.19 -17.67,-26.93 -22.58,-41.61 -62.53,-187.12 47.75,-386.59 234.15,-440.52 -5.51,-10.17 -24.75,-8.52 -35.86,-14.93 -7.42,-4.28 -14.34,-6.65 -12.29,-17.12 6.01,-5.24 76.89,18.4 79.64,29.98l-34.13 71.68c-19.6,-10.22 15.08,-46.37 8.01,-53.44zm423.32 412.49l53.5 -21.4c12.68,11.58 -71.92,53.42 -79.88,47.79l-27.22 -74.58c27.61,-6.44 17.92,34 37.42,42.83 46.78,-182.05 -61.25,-371.88 -246.37,-412.58l5.32 -13.52c193.7,42.14 306.53,240.96 257.23,431.46zm-455.45 166.02l-48.19 21.43c89.89,50.51 204.16,59.44 299.91,18.71 24.47,-10.41 43.15,-28.2 67.02,-34.76 4.56,-0.01 3.64,10.9 2.85,13.45 -1.44,4.54 -73.51,40.45 -84.38,44.31 -67.32,23.96 -161.84,24.8 -229.36,1.42 -9.93,-3.44 -58.23,-30.26 -61.38,-26.97l15.4 45.64 -15.35 7.9c-2.6,-16.6 -36.8,-73.04 -26.43,-85.31l72.01 -21.19 7.9 15.37zm399.88 -45.1c0,-9.77 -7.91,-17.69 -17.68,-17.69 -9.77,0 -17.68,7.92 -17.68,17.69 0,9.76 7.91,17.68 17.68,17.68 9.77,0 17.68,-7.92 17.68,-17.68zm16.2 0.19c0,18.93 -15.34,34.28 -34.27,34.28 -18.93,0 -34.28,-15.35 -34.28,-34.28 0,-18.92 15.35,-34.27 34.28,-34.27 18.93,0 34.27,15.35 34.27,34.27zm-529.97 -0.05c0,-9.87 -8,-17.86 -17.87,-17.86 -9.86,0 -17.86,7.99 -17.86,17.86 0,9.87 8,17.86 17.86,17.86 9.87,0 17.87,-7.99 17.87,-17.86zm15.66 0.05c0,18.93 -15.35,34.28 -34.28,34.28 -18.92,0 -34.27,-15.35 -34.27,-34.28 0,-18.92 15.35,-34.27 34.27,-34.27 18.93,0 34.28,15.35 34.28,34.27zm214.53 -564.9c-17.83,5.04 -17.88,25.25 0,30.39 31.79,9.16 32.01,-39.44 0,-30.39zm39.47 15.24c0,18.76 -15.21,33.97 -33.97,33.97 -18.76,0 -33.97,-15.21 -33.97,-33.97 0,-18.76 15.21,-33.97 33.97,-33.97 18.76,0 33.97,15.21 33.97,33.97zm33.82 330.15c0,-40.59 -32.9,-73.49 -73.48,-73.49 -40.59,0 -73.49,32.9 -73.49,73.49 0,40.58 32.9,73.49 73.49,73.49 40.58,0 73.48,-32.91 73.48,-73.49zm16.31 0.5c0,49.62 -40.22,89.84 -89.84,89.84 -49.61,0 -89.83,-40.22 -89.83,-89.84 0,-49.61 40.22,-89.83 89.83,-89.83 49.62,0 89.84,40.22 89.84,89.83z"/>
 </g>
</svg>
