<?xml version="1.0" encoding="UTF-8"?>
<!DOCTYPE svg PUBLIC "-//W3C//DTD SVG 1.1//EN" "http://www.w3.org/Graphics/SVG/1.1/DTD/svg11.dtd">
<!-- Creator: CorelDRAW 2019 (64-Bit) -->
<svg xmlns="http://www.w3.org/2000/svg" xml:space="preserve" width="100%" height="100%" version="1.1" style="shape-rendering:geometricPrecision; text-rendering:geometricPrecision; image-rendering:optimizeQuality; fill-rule:evenodd; clip-rule:evenodd"
viewBox="0 0 946.83 719.67"
 xmlns:xlink="http://www.w3.org/1999/xlink">
 <defs>
  <style type="text/css">
   <![CDATA[
    .fil0 {fill:white}
   ]]>
  </style>
 </defs>
 <g id="Layer_x0020_1">
  <metadata id="CorelCorpID_0Corel-Layer"/>
  <path class="fil0" d="M453.37 191.08c98.02,-11.96 178.28,61.58 188.36,147.28 11.77,100.08 -61.53,179.37 -147.14,189.67 -99.47,11.96 -179.24,-61.13 -189.57,-146.89 -12.11,-100.54 61.28,-179.45 148.35,-190.06zm-167 181.96c4.39,99.55 94.12,179.22 199.55,173.65 100.88,-5.32 180.01,-93.2 174.53,-199.68 -12.2,-237.1 -385.49,-232.42 -374.08,26.03zm419.31 58.33c-14.66,-9.06 -9.42,-2.5 -13.9,-0.22 -3.88,14.34 6.17,9.91 6.93,27.23 0.64,14.4 -6.71,12.84 -8.45,31.05 14.01,15.11 30.4,26.37 56.17,27.77 14.22,-11.09 11.83,-30.48 35.91,-29.2 22.3,1.18 15.08,14.22 27.21,31.62 22.31,2.03 42.45,-7.93 57.92,-16.02 3.11,-30.53 -11.09,-20.24 2.51,-51.15 40.13,-8.78 39.47,20.52 59.04,-8.87 7.95,-11.93 13.7,-28.28 13.72,-43.68 -13.17,-12.31 -33.11,-12.3 -31.33,-35.6 1.8,-23.4 17.41,-14.99 35.2,-27.99 0.77,-14.87 -0.42,-18.97 -5.14,-32.75 -19.74,-57.58 -36.89,-2.33 -62.28,-27.59 -17.56,-23.7 2.63,-21.44 2.22,-52.45 -19.65,-11.84 -48.98,-35.88 -67.29,-6.65 -25.64,40.93 -39.9,-1.67 -54.26,-17.64 -76.44,-1.2 -51.56,44.09 -53.48,61.86 -11.73,5.3 -16.38,6.13 -18.78,23.44 31.57,4.58 41.94,-26.81 35.14,-58.96l29.14 -8.61c6.54,19.84 13.24,31.74 39.49,32.44 28.59,0.76 31.7,-16.7 44.6,-28.44 51.8,19.1 5.39,12.86 21.56,54.19 10.6,27.12 34.5,24.65 62.81,21.49l7.35 27.15c-17.62,9.78 -35.26,17.4 -34.64,44.62 0.6,26.3 13.99,30.52 31.57,40.32l-11 28.74c-50.54,-14.83 -72.95,6.89 -64.22,56.25l-26.86 7.79c-12.63,-15.11 -12.03,-30.51 -40.25,-31.72 -30.97,-1.33 -32.62,14.51 -45.09,28.91l-26.04 -13.74c2.59,-9.3 14.01,-41.55 -5.48,-53.59zm-581.54 -213.69c12.76,15.18 11.96,30.47 40.26,31.67 30.9,1.31 32.54,-14.3 45.13,-29l26.02 13.9c-2.99,10.52 -9.09,24.21 -4.25,39.48 4.49,14.2 10.23,14.99 17.8,15.74l5.66 -1.35c4.45,-14.89 -5.95,-9.96 -6.99,-27.37 -1.17,-19.39 7,-10.86 8.68,-30.98 -12.7,-15.48 -34.33,-28.83 -61.41,-26.82 -10.11,19.7 -10.78,31.02 -41.51,27.35 -9.34,-11.64 -7.04,-17.35 -16.52,-30.79 -22.17,-1.77 -42.13,8.14 -57.72,16.12 -3.05,30.32 10.89,20.08 -2.56,51.04 -39.67,9.12 -39.47,-20.38 -58.94,9.03 -41.46,62.6 20.35,42.59 17.5,79.2 -1.82,23.32 -17.56,14.97 -35,28.06 -0.95,14.96 0.31,18.85 4.97,32.65 19.53,57.78 36.87,2.3 62.18,27.42 17.71,24.27 -2.47,21.79 -2.26,52.95 18.44,10.06 33.01,20.96 61.22,21.2 7.78,-14.54 4.44,-30.85 28.67,-29.17 19.94,1.38 21.15,18.67 29.16,30.72 19.27,3.58 55.47,-6.47 58.47,-21.3 3.27,-16.15 -11.34,-14.89 -0.39,-36.55 9.61,-18.98 12.7,2.52 16.89,-26.21 -32.03,-4.45 -41.7,27.05 -35.17,59.36l-28.25 7.18c-10.96,-19.62 -12.79,-30.67 -40.46,-31.39 -12.76,-0.33 -19.29,1.86 -27.97,9.4l-12.37 14.39c-0.4,0.47 -1.82,3 -2.12,2.3 -0.29,-0.7 -1.37,1.57 -2.15,2.26 -50.74,-18.17 -6.07,-13.18 -21.55,-54.17 -10.35,-27.42 -34.58,-24.32 -62.57,-21.43l-7.98 -27.15c17.48,-11.22 33.37,-14.6 34.96,-40.42 1.75,-28.49 -13.36,-34.96 -31.73,-44.42l11.38 -28.8c50.16,14.54 73.24,-6.61 64.08,-56.18l26.84 -7.92zm167.03 431.41c-88.45,-52.38 -72.39,-86.6 -102.48,-81.73 -4.04,46.04 211.81,222.83 430.17,121.4 80.44,-37.37 76.53,-51.89 119.53,-83.12 -2,46.27 -12.5,48.18 8.04,53.36 11.3,-15.55 15.13,-71.69 11.59,-91.64 -18.13,-3.04 -31.63,4.97 -48.19,10.75 -42.57,14.88 -35.17,7.72 -40.51,23.25 16.46,10.63 25.86,-1.16 48.31,-5.4 -6.56,13.37 -1.21,6.89 -12.9,17.53l-40.88 30.5c-13.74,9.29 -41.29,24.28 -61.71,32.37 -106.84,42.32 -214.04,30.13 -310.97,-27.27zm-83.03 -535.44c2.09,-45.69 11.87,-47.58 -7.89,-53.35 -11.29,14.55 -15.09,71.77 -11.52,91.42 16.44,3.02 53.56,-11.6 71.48,-18.68 19.78,-7.81 12.3,-0.92 16.7,-15.19 -14.47,-9.48 -27.66,0.74 -47.79,5.46 5.57,-11.29 0.76,-5.39 10.5,-15.34l40.58 -30.9c13.81,-9.93 40.93,-24.37 61.12,-32.95 104.48,-44.42 215.74,-30.85 311.38,24.3 20.56,11.85 64.23,47.52 78.04,65.04 12.34,15.67 5.71,22.01 27.27,18.32 4.39,-37.02 -126.79,-139.59 -253.24,-150.46 -61.08,-5.25 -122.94,5.33 -173.74,27.89 -28.94,12.84 -41.92,21.58 -65.52,37.37 -22.61,15.12 -38.22,32.94 -57.37,47.07zm276.79 315.76c57.23,-20.73 46.8,-64.79 -4.57,-81.3 -17.65,-5.66 -47.85,-20.01 -24.79,-37.23 24.42,-18.22 37.76,9.43 62.64,8.93 -0.23,-23.09 -13.23,-25.29 -34.38,-32.67 -0.11,-20.74 5.08,-22.73 -10.49,-31.19 -11.53,11.12 -7.34,11.39 -7.48,33.18 -30.94,6.78 -49.74,35.5 -22.71,60.44 20.66,19.06 48.49,10.65 61.3,36.9 -3.06,18.3 -11.99,26.5 -34.23,24.54 -27.55,-2.44 -23.54,-17.87 -43.4,-12.86 -4.86,18.84 15.06,25.08 37.41,30 3.49,22.81 -3.54,23.05 9.11,35.13 16.61,-9.02 9.12,-12.13 11.59,-33.87zm283.06 -102.71c46.55,-28.69 77,46.7 38.15,66.02 -49.22,24.47 -77.33,-41.87 -38.15,-66.02zm-3.87 -17.9c-67.3,29.71 -26.26,129.26 42.77,102.76 66.13,-25.4 28.17,-134.07 -42.77,-102.76zm-567.82 64.24c-16.35,43.66 -89.32,24.03 -70.52,-29.24 15.06,-42.68 88.5,-18.78 70.52,29.24zm-57.68 -63.45c-72.76,36.92 -16.74,131.07 48.54,99.69 61.12,-29.39 18.1,-133.51 -48.54,-99.69z"/>
 </g>
</svg>
