<?xml version="1.0" encoding="UTF-8"?>
<!DOCTYPE svg PUBLIC "-//W3C//DTD SVG 1.1//EN" "http://www.w3.org/Graphics/SVG/1.1/DTD/svg11.dtd">
<!-- Creator: CorelDRAW 2019 (64-Bit) -->
<svg xmlns="http://www.w3.org/2000/svg" xml:space="preserve" width="100%" height="100%" version="1.1" style="shape-rendering:geometricPrecision; text-rendering:geometricPrecision; image-rendering:optimizeQuality; fill-rule:evenodd; clip-rule:evenodd"
viewBox="0 0 869.98 719.67"
 xmlns:xlink="http://www.w3.org/1999/xlink">
 <defs>
  <style type="text/css">
   <![CDATA[
    .fil0 {fill:white}
   ]]>
  </style>
 </defs>
 <g id="Layer_x0020_1">
  <metadata id="CorelCorpID_0Corel-Layer"/>
  <path class="fil0" d="M560.12 482.79l-50.92 120.46 -114.14 10.25c3.31,-14.75 12.29,-28.53 15.86,-42.22 5.37,-20.63 -7.36,-31.53 -28.06,-27.15 -16.12,10.84 -16.08,33.53 -22,37.29 -3.01,12.24 -7.91,31.13 -15.33,38.06 -3.69,3.45 -12.07,6.44 -16.23,9.85 -6.34,5.18 -4.51,6.39 -11.82,11.73 -2.22,32.64 -7.14,57.12 21.59,71.18 22.73,11.12 162.78,6.43 197.53,6.53 16.03,0.05 31.5,1.38 45.96,-4.39 16.44,-6.57 19.41,-16.33 29.54,-20.93 5.12,-13.78 71.94,-150.46 78.3,-157.82l33.55 8.14 -76.43 157.09 222.46 -0.34 -8.94 -66.88c-22.16,-84.43 -4.2,-183.12 -67.03,-245.9 -17.67,-17.66 -43.05,-30.09 -74.64,-32.99 -46.51,-7.78 -85.65,15.22 -108.02,37.4 -10.89,10.8 -22.33,25.63 -29.97,42.63 -5.27,11.72 -13.65,41.1 -21.26,48.01zm-72.83 -286.88c-20.5,-36.01 -10.21,-117.76 58.78,-141.52 32.02,-11.04 66.16,-1.24 88.32,14.45 24.43,17.31 31.43,34.61 45.14,65.83 -10.13,7.45 -175.13,58.58 -192.24,61.24zm-25.91 -123.91c-6.07,20.34 -16.86,33.22 -20.51,59.9 -4.49,32.81 2.37,46.7 6.76,75.29 -10.43,7.09 -19.59,12.9 -31.01,18.13 -5.12,8.45 -3.59,19.26 3.95,28.51 20.3,1.14 35.24,-11.61 55.12,-12.14 16.06,43.79 20.02,59.78 52.3,81.43 34.34,23.03 63.77,25.62 109.55,14.89 50.24,-23.45 81.53,-60.86 81.08,-116.28 -0.22,-26.26 -7.57,-34.15 -12.02,-55.63 29.39,-5.41 48.01,-28.63 13.66,-53.86 -0.47,-0.34 -1.36,-0.94 -1.98,-1.49l-7.89 1.79c-11.69,-47 -55.38,-86.71 -106.03,-97.96 -89.96,-19.99 -134.03,51.78 -142.98,57.42zm-403.4 196.34l-22.96 24.99c1.35,19.89 13,21.53 16.07,34.07 2.15,8.81 -8.73,27.21 -11.58,38.47 -13.09,3.52 -27.86,6.08 -38.67,10.48l-0.84 56.7 38.7 10.43c3.33,7.56 13.62,29.34 12.99,35.95 -0.61,6.45 -13.37,22.38 -17.19,32.35 5,8.75 31.69,36.53 40.87,40.62 10.31,-3.74 24.59,-16.43 32.18,-16.85 5.23,-0.28 28.03,9.5 35.92,12.47 3.09,12.83 5.74,29.22 10.99,38.26 68.19,6.18 54.76,-0.92 63.67,-25.2 -4.34,-24.93 -25.72,-36.75 -33.61,-67.56 -37.35,9.08 -74.91,-28.81 -85.13,-52.19 -18.27,-41.81 -3.15,-78.42 22.59,-103.37 58.83,-57.03 163.65,-3.01 149.32,78.11 5.67,10.13 -3.48,5.67 10.29,3.49l34.18 -15.33c14.96,-6.65 31.35,-14.96 47.12,-20.32l-0.25 -9.98 -37.91 -7.65c-3.33,-13.9 -14.62,-29.97 -10.62,-41.51 6.6,-19.03 17.14,-16.94 12.08,-36.27 -14.88,-7.69 -22.19,-21.96 -36.16,-31.27 -11.98,2.78 -26.63,17.52 -34.81,17.74 -6.87,0.18 -27.89,-9.72 -35.21,-15.57l-9.15 -37.69 -55.86 1.55c-5.82,8.44 -8.82,25.57 -11.15,37.79l-36.58 14.37c-12.99,-6.77 -21.47,-16.25 -35.06,-18.21 -5.69,4.57 -6.98,6.27 -14.23,11.13zm283.2 -186.74c9.2,16.82 18.7,28.72 13.31,53.71 -4.01,18.57 -15.69,31.41 -28.57,38.1 -17.04,8.87 -35.12,10.09 -52.97,1.62 -22.07,-10.46 -23.71,-24.65 -32.98,-35.41 1.59,8.53 -6.62,-3.45 3.63,12.44 -12.43,-5.22 -8.96,-2.22 -14.47,-23.18 -0.44,1.04 -0.79,2.36 -1.13,3.2l-4.68 8.38c-3.12,-19.46 2.81,9.6 1.8,-9.22 -0.41,-7.52 15.19,-1.01 -4.71,-5.29 4.29,-3.2 -8.38,-9.88 14.49,0 -8.77,-17.6 -16.74,-11.59 -37.51,-11.57l-1.65 23.78c-6.99,6.25 -3.9,5.59 -12.55,7.14 -0.48,0.66 -1.16,0.87 -1.39,2.02 -0.23,1.13 -1.08,1.57 -1.39,1.99 -0.64,0.91 -3.96,5.51 -4.08,5.67l14.19 35.19c9.94,-0.1 20.53,-3.66 26.29,-2.11 6.16,1.65 10.46,7.81 13.62,13.42 12.1,4.92 4.71,0.81 4,28.92 8.62,6.89 25.1,14.02 38.62,14.6 6.21,-12.6 10.25,-22.95 31.52,-21.21 24.57,2.02 9.08,19.85 32.14,19.53 4.23,-2.98 20.77,-10.86 28.48,-11.62l-2.92 -31.6c6.04,-3.99 12.57,-13.43 18.8,-15.17 7.99,-2.23 17.65,1.44 26.42,0.47 5.14,-11.39 11.91,-23.42 13.16,-36.85l-21.03 -13.13 1.25 -32.65c-6.48,6.92 -1.82,-2.05 -5.58,7.52 -3.22,8.19 -0.66,1.89 2.06,4.09l-8.36 -2.05c-10.23,-4.46 -9.12,-1.27 -6.88,-8.91 2.74,-9.35 7.09,-4.67 15.24,-12.26 -0.98,-6.97 0.82,-12.39 -11.07,-17.88l-8.93 -1.84c-11.7,-0.02 -13.98,2.25 -17.71,11.03l-4.48 -11.73c-0.2,-1.52 -0.74,-1.93 -1.31,-2.78l-10.89 12.11c-0.28,-0.53 -1.17,1.04 -1.78,1.53zm-100.45 387.24l-5.54 1.31c-18.74,17.25 -33.59,3.83 -2.26,52.29 9.54,14.76 28.76,41.96 34.65,57.31l2.33 2.23c1.52,1.72 1.79,1.9 3.52,4.21 6.29,8.43 16.89,25.05 18.25,33.16l28.31 -23.44 -4.33 -10.04c-6.31,-4.26 -52.64,-80 -54.35,-85.69l146.5 -65.94c16.96,21.35 67.75,112.96 79.48,122.59 9.62,-12.84 17.58,-30.17 14.09,-43.74 -7.64,-4.99 -26.26,-38.25 -33.07,-49.02 -7.11,-11.23 -28.55,-40.83 -29.47,-50.03l-6.46 -6.83c-1.43,-1.75 -2.75,-4.03 -3.76,-5.19 -3.78,-4.32 -4.1,-5.75 -11.14,-6.72 -15.83,-2.17 -138.57,61.8 -176.75,73.54zm-44.99 -330.68l1.65 -23.78c20.77,-0.02 28.74,-6.03 37.51,11.57 -22.87,-9.88 -10.2,-3.2 -14.49,0 19.9,4.28 4.3,-2.23 4.71,5.29 1.01,18.82 -4.92,-10.24 -1.8,9.22l4.68 -8.38c0.34,-0.84 0.69,-2.16 1.13,-3.2 5.51,20.96 2.04,17.96 14.47,23.18 -10.25,-15.89 -2.04,-3.91 -3.63,-12.44 1.94,-15.83 -2.61,-24.96 5.05,-41.19 5.89,-12.47 12.4,-19.69 23.31,-26.02 11.72,-6.8 25.84,-9.77 41.28,-6.72 10.92,2.17 16.45,6.12 23.76,11.25 0.66,0.47 2.5,1.83 3.11,2.22 5.17,3.28 0.35,1.1 4.7,2.44 0.61,-0.49 1.5,-2.06 1.78,-1.53l10.89 -12.11c0.57,0.85 1.11,1.26 1.31,2.78l4.48 11.73c3.73,-8.78 6.01,-11.05 17.71,-11.03l8.93 1.84c11.89,5.49 10.09,10.91 11.07,17.88 -8.15,7.59 -12.5,2.91 -15.24,12.26 -2.24,7.64 -3.35,4.45 6.88,8.91l8.36 2.05c-2.72,-2.2 -5.28,4.1 -2.06,-4.09 3.76,-9.57 -0.9,-0.6 5.58,-7.52 6.57,0.49 13.64,-6.6 18.2,-12.63 -0.68,-6.81 -2.77,-10.51 -5.88,-17.5l-5.91 -12.01c-2.57,-4.19 -1.81,-3.1 -4.12,-5.76 -45.57,2.78 -13.23,4.28 -43.85,-12.06l2.58 -29.08c-7.47,-3.81 -9.34,-5.81 -18.92,-5.91l-12.25 2.55c0.69,-0.37 1.85,-0.68 2.11,0.22l3.57 1.63c0.3,0.19 1.08,0.72 1.39,0.93l10.24 5.5 -6.83 18.44c5.92,-12.7 -1,-9.22 11.85,-9.77 -11.22,23.04 4.53,5.71 4.75,26.12 -4.48,21.52 -7.87,8.23 -12.67,23.2 -18.97,-15.73 -19.63,-15.76 -34.78,-11.61 0.82,-0.72 2.2,-2.43 2.82,-1.66 0.61,0.75 1.95,-1.18 2.78,-1.6 0.79,-0.39 1.74,-0.96 2.69,-1.42l16.49 -6.89c-0.42,0.24 -1.32,-0.4 -1.46,0.05l-4.19 -1.23c-4.49,-2.05 3.88,-8.6 -13.52,-0.09l-4.12 2.38c-6.96,3.45 -8.89,5.23 -19.96,4.66l-4.35 -11.41c-2.23,-16.12 2.05,-13.26 13.5,-18.69 12.07,-5.71 7.89,4.21 7.43,-8.56l-26.9 0.52c-3.53,-6.19 -9.16,-14.2 -14.74,-19.5 -11.77,1.06 -28,9.9 -37.34,14.43 2.13,17.42 8.67,22.89 -4.29,36.46 -14.97,15.66 -15.19,5.43 -36.69,7.21l-14.35 36.24c7.26,5.5 15.78,11.39 22.39,15.53l-0.8 26.7zm112.72 -117.59c0.46,12.77 4.64,2.85 -7.43,8.56 -11.45,5.43 -15.73,2.57 -13.5,18.69l4.35 11.41c11.07,0.57 13,-1.21 19.96,-4.66l4.12 -2.38c17.4,-8.51 9.03,-1.96 13.52,0.09l4.19 1.23c0.14,-0.45 1.04,0.19 1.46,-0.05l-16.49 6.89c-0.95,0.46 -1.9,1.03 -2.69,1.42 -0.83,0.42 -2.17,2.35 -2.78,1.6 -0.62,-0.77 -2,0.94 -2.82,1.66 15.15,-4.15 15.81,-4.12 34.78,11.61 4.8,-14.97 8.19,-1.68 12.67,-23.2 -0.22,-20.41 -15.97,-3.08 -4.75,-26.12 -12.85,0.55 -5.93,-2.93 -11.85,9.77l6.83 -18.44 -10.24 -5.5c-0.31,-0.21 -1.09,-0.74 -1.39,-0.93l-3.57 -1.63c-0.26,-0.9 -1.42,-0.59 -2.11,-0.22l12.25 -2.55c-3.21,-2.94 0.19,-2 -7.85,-5.34 -6.67,-2.78 -4,-1.54 -10.28,-2.48 -6.61,6.48 -9.8,12.64 -16.38,20.57z"/>
 </g>
</svg>
