<?xml version="1.0" encoding="UTF-8"?>
<!DOCTYPE svg PUBLIC "-//W3C//DTD SVG 1.1//EN" "http://www.w3.org/Graphics/SVG/1.1/DTD/svg11.dtd">
<!-- Creator: CorelDRAW 2019 (64-Bit) -->
<svg xmlns="http://www.w3.org/2000/svg" xml:space="preserve" width="100%" height="100%" version="1.1" style="shape-rendering:geometricPrecision; text-rendering:geometricPrecision; image-rendering:optimizeQuality; fill-rule:evenodd; clip-rule:evenodd"
viewBox="0 0 702.43 719.68"
 xmlns:xlink="http://www.w3.org/1999/xlink">
 <defs>
  <style type="text/css">
   <![CDATA[
    .fil0 {fill:white}
   ]]>
  </style>
 </defs>
 <g id="Layer_x0020_1">
  <metadata id="CorelCorpID_0Corel-Layer"/>
  <path class="fil0" d="M298.25 671.14l-7.3 30.62c-25.6,0.06 -51.2,0.01 -76.79,0.01 -24.47,0 -51.36,1.18 -75.4,0.41 -9.42,-0.3 -110.97,0.86 -113.96,-1.32 -1.99,-1.45 -6.86,-25.42 -7.44,-29.77l280.89 0.05zm60.91 -541.51l0.1 11.62c2.2,6.65 -0.13,19.59 0.14,25.39l-0.39 23.09c1.1,10.51 -1.59,3.62 3.36,6.41 1.22,-3.7 13.74,-14.79 17.17,-18.54 6.37,-4.58 3.83,-6.37 14.21,-5.88 0.16,0.2 0.48,0.21 0.55,0.55 0.07,0.34 0.45,0.45 0.54,0.57 5.02,6.06 3.96,10.06 -1.07,14.95l-38.71 37.92c-7.51,3.46 -11.52,-2.86 -16.1,-7.46 -4.13,-4.15 -8.46,-8.47 -12.78,-12.79 -4.58,-4.58 -8.4,-8.43 -12.79,-12.77 -6.14,-6.07 -10.58,-7.35 -8.06,-18.29 10.25,-6.72 13.18,-0.98 20.21,6.11 2.75,2.79 5.17,5.17 8.3,8.32 2.91,2.94 4.71,6.3 9.02,7.2 -0.2,-5.13 -0.47,-17.69 -0.63,-32.58l0 0 0 -0.03c-0.15,-13.34 -0.22,-28.55 -0.08,-41.95l0 -0.02 0 0c0.18,-17.04 0.69,-31.14 1.79,-34.73 6.12,-4.33 9.08,-3.91 14.71,0.69l0.57 42.17 -0.06 0.05zm191.57 572.12l12.36 0.01c4.18,-0.15 6.92,-0.45 9.16,0.01l10.53 0.02 0.33 -0.18 -0.11 0.18 0.11 -0.18 8.27 -0.11 0.16 0.3 -0.16 -0.3c0.75,0.12 1.37,0.22 1.9,0.3l13.87 0.02c2.17,-0.05 5.22,-0.06 9.58,-0.04 12.73,0.05 53.56,1.04 60.51,-0.51 3.14,-5.33 6.61,-22.84 7.46,-30.24l-20.3 0.01 -62.49 0.05 0 0c-48.96,0.96 -178.9,0.16 -197.67,-0.08l6.63 30.67c34.79,1.62 81.06,0.21 122.06,0.05l0.03 0c6.06,-0.03 12,-0.03 17.77,0.02zm71.76 15.95l-69.61 0.48c-0.01,0.03 -0.03,0.05 -0.05,0.07 -7.14,0.04 -14.28,0.06 -21.42,0.07l0 0c-33.33,0.07 -66.67,-0.04 -99.99,-0.04 -29.47,0 -33.1,5.1 -39.24,-21.63 -7,-30.48 -10.83,-30.64 3.46,-42.31l10.68 -0.4c2.27,-8.67 0.28,-129.17 0.68,-149.95 0.56,-29.12 27.71,-23.27 52.54,-23.27 4.79,0 68.89,0.73 73.47,-0.5l2.94 -5.53 0.03 -48.35c-9.73,-2.72 -346.95,-0.59 -369.51,-0.98l0.03 55.11c25.13,-0.42 50.58,-0.06 75.78,-0.06 23.83,0 51.44,-5.53 52.85,22.28 1.47,29.05 -2.44,136 0.51,151.14l14.36 2.09c2.94,4.93 7.04,6.41 5.91,15.07 -0.64,4.81 -2.85,12.64 -4,17.92 -3.3,15.15 -2.8,23.36 -13.41,28.89 -38.45,5.05 -110.53,-1.95 -142.75,0.17 -19.91,1.31 -134.7,2.81 -142.01,-2.03 -7.39,-4.9 -9.97,-26.26 -12.09,-36.64 -4.07,-19.96 -1.57,-23.94 18.54,-25.45 2.1,-12.04 0.15,-126.18 0.42,-149.84 0.33,-29.14 27.05,-23.6 51.69,-23.6 23.94,0 53.8,1.57 77.02,-0.31 -0.41,-15.71 -1.81,-54.65 0.7,-68.32 4.43,-2.9 1.67,-1.8 6.62,-3.35l186.2 -0.7 -0.34 -42.26c-24.13,-2.01 -144.83,-0.24 -179.46,-0.23 -52.92,0 -52.44,6.33 -64.75,-26.51 -3.49,-9.33 -12.22,-24.16 -6.89,-35.52 5.54,-11.81 17.32,-10.17 33.2,-10.85 -0.82,-43.33 -0.07,-87.42 -0.07,-130.83 0,-42.89 -0.65,-86.29 -0.01,-129.12 0.31,-20.84 12.89,-31.96 33.43,-32.1l324.59 0.03c21.35,0 44.07,-0.76 65.24,0.02 20.22,0.74 29.67,14.35 29.63,34.64 -0.04,17.59 -1.41,246.37 0.47,257.66 11.26,0.71 27.85,-3.17 33.51,12.19 4.01,10.87 -4.14,24.85 -7.63,34.13 -3.58,9.5 -4.73,17.24 -11.9,22.57 -1.93,1.44 -4.12,2.65 -7.11,3.22 -7.57,1.45 -122.07,0.47 -135.44,0.47 -27.79,0 -62.06,-1.79 -89.04,0.21 -1.1,6.74 -0.5,14.14 -0.5,21.01l0.22 17.7c0.05,0.33 0.21,0.78 0.26,1.04l0.69 1.93c3.71,3.46 181.53,-2.36 188.06,1.85 6.77,9.28 4.34,18.14 4.34,32.43 0,13 0.13,26.06 -0.06,39.05 25.75,-0.38 51.73,-0.06 77.51,-0.06 25.11,0 50.31,-5.13 51.22,23.61 0.68,21.65 -1.71,140.91 0.71,149.88 24.9,1.53 20.63,12.06 16.67,31.32 -3.08,14.93 -3.06,32.09 -19.96,33.04l-56.94 -0.55zm-18.86 -64.31l61.14 0.02 0.47 -146.94c-0.11,-6.47 0.91,-5.99 -3.77,-7.7 -3.13,-2.88 -104.03,-0.99 -117.59,-0.99 -17.47,0 -110.47,-2.09 -119.48,1.79l-0.27 151.45c1.51,4.72 11.74,2.65 22.63,2.65l72.84 0c22.73,0.04 46.47,-0.55 69.7,-0.45 4.8,0.03 9.58,0.08 14.33,0.17zm-566.45 -146.8c0,-11.21 3.05,-8.82 22.34,-8.81 37.71,0.01 208.55,-1.95 218.49,1.59l-0.33 154.27c-39.04,0 -216.79,1.8 -240.4,-0.71l-0.1 -146.34zm70.52 -190.48c-1.98,-5.97 -1.33,-6.19 5.5,-6.2l424.29 -0.01c11.43,0 50.33,-2.11 57.51,1.11 1.23,3.35 -11.15,32.75 -14.09,38.4l-459.35 -0.73 -13.86 -32.57zm34.08 -23.52c0.47,-81.13 0.03,-162.39 0.02,-243.53 0,-31.6 -1.46,-31.7 30.18,-31.7l301.61 0c93.81,0 86.81,-7.31 86.81,32.98 0,80.16 -1.4,161.57 0.07,242.18l-418.69 0.07z"/>
 </g>
</svg>
