<svg width="39" height="76" viewBox="0 0 39 76" fill="none" xmlns="http://www.w3.org/2000/svg">
<path fill-rule="evenodd" clip-rule="evenodd" d="M17.7586 0H20.781C22.6871 0.179524 24.5637 0.7012 26.3135 1.58298C34.7659 5.84299 38.0396 15.4591 34.2295 23.7014L33.1365 25.5938C32.9084 25.9328 32.8957 25.8821 32.8967 26.0997L36.3521 34.2934C37.8907 37.8036 39.7641 40.9199 36.3964 44.2738C35.7501 44.917 29.0961 49.6501 27.8542 50.5762C27.1615 51.0937 26.2628 51.5034 26.2628 51.9533V57.1478C26.2628 58.5883 27.7571 68.2667 28.0697 70.4823C28.4034 72.8478 29.4763 76 27.4498 76H21.5128C20.6648 76 20.4177 75.4899 20.2593 74.7296L19.5423 70.3999C19.2761 68.8666 19.4356 68.7567 18.9889 68.4294L18.3532 72.6915C18.0839 74.3104 18.1494 76 16.7628 76H10.923C8.99891 75.7698 9.6114 74.7011 10.2059 70.4823C10.4214 68.9563 10.6252 67.5645 10.8332 66.0628C11.885 58.47 12.0128 60.0656 12.0128 51.9533C12.0128 51.5773 11.8016 51.5372 11.2092 51.1243C9.73284 50.0947 2.5128 44.9117 1.73029 44.126C-1.51065 40.8724 0.522194 37.4498 2.01647 34.0895C2.83594 32.2478 3.54454 30.536 4.3355 28.6901C5.64497 25.635 5.6323 26.4365 4.67448 24.8546C4.39992 24.4016 4.20244 24.0573 3.99863 23.6C2.73668 20.772 2.5128 19.1003 2.5128 15.8837C2.5128 13.6312 3.31644 10.9932 4.09473 9.44931C6.94811 3.78902 12.2673 0.512172 17.7586 0ZM14.3878 38.2967C14.2178 37.4192 14.825 35.7338 15.6825 34.8414C17.5601 32.8878 20.4198 32.7421 22.2964 34.5447C23.1824 35.3969 23.7051 36.2649 23.8561 37.7455C23.9058 38.2397 23.6988 39.3158 23.5372 39.7277C23.3218 40.2757 22.9648 40.771 22.5931 41.1586C20.1379 43.7131 16.4618 42.9601 14.9295 40.13L14.3878 38.2967ZM23.8878 32.5076C24.8794 32.4252 25.682 31.8212 26.5595 31.6174L29.528 39.7815C28.6103 39.9948 25.8774 41.6845 25.2237 41.8598C26.4233 39.5925 26.7179 37.0622 25.5246 34.7295C25.0452 33.7917 24.4169 33.2986 23.8878 32.5076ZM12.903 41.7109L8.77292 39.7287L11.7161 31.6174C12.5926 31.8212 13.3951 32.4252 14.3878 32.5076C13.5007 33.8329 12.6411 34.1307 12.1416 36.4962C11.5228 39.4277 12.657 40.6548 12.903 41.7109ZM6.07583 40.2261C6.07583 41.5694 7.88058 42.0203 9.93454 43.0467C10.622 43.391 13.7933 45.125 14.3878 45.125H23.7389C24.7379 45.125 29.0423 42.7669 30.4679 42.0572C33.2083 40.6929 32.2885 40.4986 30.4753 35.2712L28.6378 30.2815C29.8744 29.4536 30.7741 28.463 31.1606 28.2033C31.2536 29.3195 35.7628 38.395 35.7628 39.6326C35.7628 41.8302 35.1229 42.2748 33.3878 43.4934L24.3693 50.0598C24.0726 50.3196 23.8878 50.5509 23.8878 51.062C23.8878 60.2029 23.7674 57.4541 24.9185 65.7661C25.1498 67.4325 25.9661 72.4232 25.9661 73.625H22.5519L21.9373 69.9342C21.7293 68.6891 21.5191 67.4377 21.3005 66.1177C21.0809 64.7913 20.8633 63.4998 20.6638 62.3012C20.4526 61.0308 20.5043 59.375 19.1378 59.375C17.7893 59.375 17.8357 60.9506 17.6319 62.1745L15.7237 73.625H12.3095C12.3095 71.344 14.3878 60.3677 14.3878 57.8902V51.062C14.3878 50.0841 12.6411 49.1221 11.5049 48.3047L4.97334 43.5547C1.60251 41.1301 2.1886 40.0392 3.57305 36.6852C4.04298 35.5458 7.06638 28.783 7.1139 28.2033C7.51414 28.4715 8.31883 29.3987 9.6378 30.2815C9.31994 30.9426 9.02003 31.9701 8.76552 32.6755C8.32305 33.9079 6.07583 39.7319 6.07583 40.2261ZM4.8878 16.625C4.8878 12.1443 7.33883 7.3964 11.0307 4.95592C23.2447 -3.11527 37.7513 9.32048 32.0952 22.4574C28.3273 31.2108 16.276 33.8815 9.07811 26.6847C6.59328 24.1999 4.8878 20.3612 4.8878 16.625Z" fill="white"/>
<path fill-rule="evenodd" clip-rule="evenodd" d="M13.2012 13.8044C14.1326 13.5868 18.7622 10.9605 19.1677 10.9309L23.5903 13.0641C24.0444 13.2647 24.6517 13.6903 25.0762 13.8044V19.4446C24.6517 19.5576 24.0444 19.9842 23.5903 20.1849C18.0821 22.6232 20.531 23.0351 16.2193 20.8797C15.4748 20.507 13.8971 19.6062 13.2012 19.4446V13.8044ZM10.8262 13.062V20.187C10.8262 21.2398 11.6657 21.3507 12.4113 21.7193C13.7852 22.3972 18.5858 24.937 18.9903 24.937C19.9893 24.937 24.2937 22.5789 25.7193 21.8692C26.4722 21.4943 27.4512 21.2145 27.4512 20.187V13.062C27.4512 12.0493 26.5103 11.7726 25.8186 11.4294C17.7991 7.44921 20.3547 7.62768 14.6881 10.3913C14.3026 10.5793 13.9964 10.6902 13.5835 10.9204C12.0448 11.7779 10.8262 11.893 10.8262 13.062Z" fill="white"/>
<path fill-rule="evenodd" clip-rule="evenodd" d="M17.9492 49.875H20.3242V47.5H17.9492V49.875Z" fill="white"/>
</svg>
