<svg width="121" height="120" viewBox="0 0 121 120" fill="none" xmlns="http://www.w3.org/2000/svg">
<g clip-path="url(#clip0_443_1517)">
<path fill-rule="evenodd" clip-rule="evenodd" d="M82.5758 3.08879C86.8471 2.63649 90.2176 4.98089 91.7338 7.41496C92.4112 8.50338 92.1735 8.80726 93.3183 9.35765C96.4006 10.8405 95.2967 10.0213 97.6579 8.35356C98.307 7.89508 99.0956 7.5392 99.9992 7.33428C104.112 6.40074 107.508 9.35484 108.395 12.3716C109.048 14.5898 107.886 17.3663 108.406 18.1522C109.016 19.0737 110.068 18.6652 111.254 18.8356C115.508 19.4461 118.246 24.8349 116.802 29.8936C114.999 36.2097 110.064 35.3731 109.267 36.1605C108.659 36.7612 108.804 38.0574 108.55 39.0033C108.305 39.9149 107.962 40.6312 107.48 41.3204C106.652 42.5058 105.272 43.6842 103.413 44.1528C98.2296 45.4602 97.9225 40.982 95.5725 44.003C91.7585 48.9057 82.2138 47.8746 79.8047 42.0918C78.5603 39.1042 78.0256 40.3501 75.7846 41.4435C70.5707 43.9875 63.4993 40.1617 63.9782 34.2397C64.1599 31.9923 66.0801 30.6557 64.2039 29.3604C61.7753 27.6833 59.4948 24.3635 60.1697 19.802C60.7208 16.076 63.2053 13.0721 66.3576 12.1476C71.005 10.7845 73.4941 14.7489 74.3307 12.1333C74.572 11.3782 74.2821 10.2561 74.6604 9.05182C75.6572 5.87873 78.6959 3.49976 82.5758 3.08879ZM80.84 47.8007C81.6489 48.0278 82.5349 48.9361 84.8676 49.5534C89.3574 50.7419 94.9297 49.5092 97.3077 46.2566C99.2597 46.7367 99.8715 47.4248 102.45 47.2275C106.3 46.9324 109.55 44.3954 110.941 40.8485C111.184 40.2295 111.268 39.0618 111.659 38.623C112.069 38.1785 113.408 38.1934 115.076 37.0513C116.25 36.2471 116.783 35.7116 117.614 34.5939C118.952 32.7954 120.017 30.0848 120.03 27.091C120.054 21.4108 116.347 16.562 111.401 15.9414C112.068 7.7222 105.535 3.4486 99.902 4.40716C96.5279 4.98145 95.6205 6.67959 94.7461 6.83617C94.0577 6.15449 93.0262 2.91394 88.2359 1.03168C87.3925 0.700258 85.7242 0.457386 85.1289 0.165039H82.0933C80.2326 1.01369 79.129 0.151546 75.329 3.18521C72.3908 5.53129 72.2239 8.25798 71.6511 9.39251C68.5913 9.04366 67.1264 8.27119 63.3099 10.3623C61.2991 11.4642 59.4124 13.5312 58.3862 15.8863C57.2194 18.564 56.8585 21.6832 57.6783 24.7345C58.3612 27.2765 60.2806 30.3231 61.808 31.0742C61.4745 33.0602 60.459 34.6999 61.6321 37.9463C63.4565 42.9966 69.1067 45.9603 74.3922 44.918C75.6589 44.6681 76.4315 44.179 77.4613 43.9012C77.7748 44.2667 77.8887 44.5461 78.1637 44.9655C79.2789 46.6664 80.5612 47.2795 80.84 47.8007Z" fill="white"/>
<path fill-rule="evenodd" clip-rule="evenodd" d="M23.464 78.2614C24.7757 77.6092 24.8111 77.3371 24.5504 75.6067C24.1736 73.104 25.1732 74.5067 24.6525 72.2492C24.0898 69.8086 23.2963 67.7656 24.7648 65.6511C25.5003 64.5925 27.8221 62.7608 29.2353 61.8978C32.6909 59.7876 38.9494 58.2626 41.4256 61.7632C42.114 62.7364 41.8011 63.8003 43.1598 64.1666C47.4569 65.3256 47.0259 68.178 45.2778 72.2371C44.8107 73.3219 45.2573 74.308 45.1066 75.6339C44.8681 77.7318 45.0846 77.5134 46.3894 78.2712L45.8792 82.0745C45.1016 82.474 44.4009 82.3298 44.0306 83.0036C43.8366 83.3569 43.6651 84.5553 43.4768 85.1102C42.6311 87.6061 40.7996 89.5538 38.8042 91.0414C33.3301 95.1219 28.0705 89.7647 26.4418 85.1459C25.5706 82.6761 26.0575 82.8681 24.4744 82.25L24.1563 82.0914C23.8307 81.514 23.5305 79.0864 23.464 78.2614ZM21.7143 75.8847C20.8368 76.8961 20.4336 77.1789 20.7325 79.2354C21.7396 86.1601 22.3785 83.8952 23.4061 85.1355C23.4078 85.1377 26.6427 95.3046 34.6103 95.3833C37.2353 95.4092 39.4025 94.2398 40.9214 93.0555C43.6881 90.8986 45.187 88.8165 46.312 85.4877C46.7021 84.3335 47.7338 85.0551 48.3857 83.2917C48.6695 82.5252 48.8995 80.6316 49.0518 79.6694C49.2933 78.1419 49.3205 77.0411 48.4087 76.1863C47.8666 75.6781 48.0343 76.1998 47.9583 75.4473C47.8875 74.7428 48.0332 72.9803 48.2416 72.4395C51.8714 63.0192 44.8524 62.0139 44.3197 61.1855C43.7537 60.306 43.693 59.6968 42.4947 58.7357C40.6714 57.2734 38.8602 56.7652 35.9146 56.8467C31.6205 56.9653 26.8999 59.3398 24.1626 62.2057C22.8254 63.6061 21.2263 64.7356 21.0877 67.8457C21.0152 69.473 21.3712 70.2491 21.6281 71.624C21.767 72.3675 21.6564 74.8258 21.7143 75.8847Z" fill="white"/>
<path fill-rule="evenodd" clip-rule="evenodd" d="M29.2068 98.6141C28.8182 100.25 31.2579 102.756 32.036 103.341C32.137 105.492 31.0005 110.908 30.6244 113.319C30.4921 114.167 29.851 117.56 30.0483 118.196C30.4477 119.483 32.5035 119.709 32.8419 117.499C33.1361 115.579 35.0947 104.318 34.8186 102.881C34.6007 101.749 33.1353 100.599 32.6031 99.6876L37.9133 99.7286C35.7126 103.081 35.0882 100.619 36.1405 107.798C36.5991 110.926 37.0498 114.085 37.5636 117.209C37.9314 119.445 40.1351 119.148 40.3841 117.649C40.5603 116.587 38.5001 106.318 38.3941 103.501C39.0326 103.068 39.7146 102.078 40.2221 101.413C40.742 100.732 41.6529 99.8717 41.2725 98.5404C40.6783 96.4614 37.5029 96.7976 35.193 96.7866C33.0332 96.7759 29.7379 96.3762 29.2068 98.6141Z" fill="white"/>
<path fill-rule="evenodd" clip-rule="evenodd" d="M22.9817 94.0331C23.2831 93.223 22.8744 92.3476 22.2245 92.1216C21.4008 91.8352 20.6628 92.3358 20.0252 92.6335C18.689 93.2567 17.4427 93.7874 16.1005 94.4123C13.6753 95.5412 10.4752 96.7016 8.36457 98.0903C4.16682 100.853 3.24405 104.157 1.6384 108.609C1.17071 109.907 0.503194 111.416 0.123053 112.718C-0.484075 114.799 2.04846 115.595 2.75989 113.775C4.24312 109.981 5.7711 104.243 8.14389 101.886C10.1689 99.8736 16.2545 97.5303 19.4427 96.052C20.6905 95.4735 22.6746 94.8584 22.9817 94.0331Z" fill="white"/>
<path fill-rule="evenodd" clip-rule="evenodd" d="M70.343 113.67C70.3169 112.396 68.1983 107.204 67.6543 105.715C66.5051 102.57 65.7725 101.589 63.6651 99.3883C63.0333 98.7286 61.5967 97.7464 60.5414 97.2356L49.918 92.456C47.2598 91.1073 46.5796 93.7665 47.9242 94.6781C48.6672 95.1819 51.1638 96.1804 52.1467 96.6062C53.7463 97.2994 59.4822 99.8229 60.6009 100.591C64.387 103.192 65.3685 107.711 67.2519 112.821C67.5436 113.613 67.7492 114.463 68.4963 114.701C69.5824 115.047 70.0674 114.348 70.343 113.67Z" fill="white"/>
<path fill-rule="evenodd" clip-rule="evenodd" d="M95.0651 26.0309C97.7299 24.6827 97.6821 31.2217 96.2242 31.8809C93.7564 32.9963 93.2618 26.9431 95.0651 26.0309ZM94.355 23.4881C92.8226 23.9108 92.2073 24.4955 91.5889 25.7903C91.0037 27.015 90.847 28.7781 91.0825 30.2632C91.5362 33.1237 93.5717 35.1726 96.9005 34.3619C102.206 33.0703 101.284 21.5754 94.355 23.4881Z" fill="white"/>
<path fill-rule="evenodd" clip-rule="evenodd" d="M82.1106 18.2676C84.6558 17.2863 84.5998 23.6128 83.0729 24.2326C81.4606 24.887 81.0539 22.9671 80.9979 21.7378C80.9326 20.3115 81.0163 18.6895 82.1106 18.2676ZM81.6668 15.7225C78.8606 16.2091 77.6205 18.789 77.9491 22.0976C78.2537 25.1628 80.1421 27.3722 83.528 26.7611C88.9605 25.7801 88.4522 14.5458 81.6668 15.7225Z" fill="white"/>
<path fill-rule="evenodd" clip-rule="evenodd" d="M93.1415 15.5919C92.3162 15.9987 90.7106 19.3098 90.1432 20.2936C89.3967 21.5881 83.3051 32.2014 83.1528 32.794C82.8267 34.0626 83.8002 35.1094 85.062 34.5838C85.8426 34.2588 90.1056 26.2035 90.8423 24.8765C91.8101 23.1336 92.7342 21.5493 93.6641 19.8832C93.9902 19.2985 94.8899 17.8829 95.02 17.3769C95.3584 16.063 94.1738 15.0831 93.1415 15.5919Z" fill="white"/>
<path fill-rule="evenodd" clip-rule="evenodd" d="M64.8722 52.3555C66.7809 51.6663 67.5772 54.6426 65.9106 55.2869C64.0274 56.0149 62.7231 53.1314 64.8722 52.3555ZM69.6769 52.773C69.2399 52.2968 69.1666 51.4788 68.3792 50.6737C67.5297 49.8054 66.9297 49.8965 66.2926 49.3545C65.0383 49.5153 64.393 49.2617 63.2488 49.8776C60.4865 51.3649 60.4552 55.2225 62.1945 57.0072C63.2652 58.1058 65.5494 58.7478 67.3447 57.7881C69.7669 56.4931 69.5289 54.384 69.6769 52.773Z" fill="white"/>
<path fill-rule="evenodd" clip-rule="evenodd" d="M55.6846 64.2814C55.5317 63.222 57.0765 62.9881 57.1577 63.9911C57.242 65.0261 55.807 65.1284 55.6846 64.2814ZM59.9117 64.8763C60.8987 60.2462 54.1163 58.6178 52.9649 63.1472C52.3956 65.3859 53.8964 67.2561 55.577 67.6476C57.8205 68.1702 59.5346 66.6464 59.9117 64.8763Z" fill="white"/>
</g>
<defs>
<clipPath id="clip0_443_1517">
<rect width="120" height="119" fill="white" transform="translate(0.0300293 0.165039)"/>
</clipPath>
</defs>
</svg>
