<svg width="38" height="61" viewBox="0 0 38 61" fill="none" xmlns="http://www.w3.org/2000/svg">
<path d="M19.4389 8.67879C19.4389 3.88563 15.5565 0 10.7673 0C5.97812 0 2.0957 3.88563 2.0957 8.67879C2.0957 13.472 5.97812 17.3576 10.7673 17.3576C15.5565 17.3576 19.4389 13.472 19.4389 8.67879Z" fill="#FF4612"/>
<path fill-rule="evenodd" clip-rule="evenodd" d="M2.337 24.5756L2.34002 24.573L2.38934 24.5247L2.33739 24.576C4.53873 22.3721 7.6588 21.6166 10.4909 22.3045C7.69598 21.6253 4.62138 22.3531 2.42767 24.4875C3.98713 22.9757 6.17821 22.1101 8.64546 22.2483C13.674 22.53 18.0182 26.8778 18.2993 31.9102L18.8114 41.0606L9.66854 40.5484C4.64039 40.2667 0.296131 35.9189 0.0142906 30.8859C-0.122621 28.4299 0.732402 26.2472 2.22777 24.6876L2.337 24.5756ZM35.2858 57.5456L35.2828 57.5486C34.9683 57.8634 34.6356 58.1481 34.2874 58.4033C34.6356 58.1477 34.9683 57.863 35.2824 57.5483C33.718 59.1128 31.4909 60.0138 28.977 59.8729C23.9488 59.5912 19.6046 55.2434 19.3232 50.211L18.8114 41.0606L27.9543 41.5731C32.9825 41.8545 37.3267 46.2023 37.6085 51.2353C37.7451 53.6811 36.8977 55.8565 35.4164 57.4119L35.2858 57.5456Z" fill="#FF4612"/>
</svg>
