<svg width="84" height="104" viewBox="0 0 84 104" fill="none" xmlns="http://www.w3.org/2000/svg">
<g clip-path="url(#clip0_148_1096)">
<path fill-rule="evenodd" clip-rule="evenodd" d="M15.5881 98.2923C15.2339 97.1467 13.0493 92.0965 12.405 91.7072C11.105 90.921 6.28715 93.2184 4.60024 93.6578L15.4632 68.2457C16.0416 66.879 16.049 65.2965 18.5267 65.8857C19.3161 66.0732 19.2462 66.0912 19.4564 66.8462C20.022 68.8787 19.7555 71.0296 20.967 72.5691C22.4032 74.3936 24.3094 73.8257 26.5284 73.239L17.2183 95.0757C16.9978 95.581 16.774 96.11 16.5261 96.7131C16.2386 97.412 16.1769 97.8067 15.5881 98.2923ZM57.3852 73.2795C58.5454 73.2946 59.2392 74.0849 60.946 73.8003C63.8639 73.3139 63.969 70.0633 64.3451 67.8265C64.705 65.6859 64.7505 65.839 67.0958 65.8394C67.9316 66.0617 70.0331 71.7977 70.3314 72.4827L79.3692 93.641C77.6856 93.2725 73.0196 91.043 71.7237 91.6257C70.8668 92.0114 68.9788 96.9293 68.2692 98.235L68.0561 97.9762C68.03 97.9353 67.9051 97.7486 67.8732 97.6892L62.7587 85.7935C61.7975 83.5915 60.9704 81.6089 60.0212 79.4495C59.1772 77.5279 58.2793 75.0008 57.3852 73.2795ZM23.5812 7.55027C25.8023 7.51915 28.6854 10.2309 31.4282 8.80932C33.5549 7.70668 34.099 4.27631 35.649 3.26989C37.5614 3.96063 39.0534 7.04009 41.9857 7.04624C44.8461 7.05238 46.3969 4.03351 48.3217 3.27153C49.8551 4.22923 50.4381 7.71528 52.545 8.804C55.1777 10.1642 57.9251 7.81764 60.2902 7.52611C61.4756 9.12706 60.7379 12.5058 62.4935 14.2894C64.3595 16.1851 67.3039 15.1808 70.1485 15.5963C70.5949 17.9707 68.4144 21.309 70.2739 23.5405C71.2549 24.7181 74.6751 25.8338 76.5635 26.4263C76.1816 29.0738 73.1127 30.5228 73.9303 33.8291C74.4504 35.9324 76.8672 36.9245 78.7527 38.9963C78.1234 40.8344 74.5182 41.6189 73.9133 44.3826C73.3403 47.0027 75.8319 49.4152 76.6007 51.4833C75.0462 52.803 71.5727 53.0249 70.3541 54.5304C68.3987 56.9462 70.5018 59.9253 70.1737 62.4516C69.2701 62.8398 68.3511 62.6478 67.3304 62.6478C60.3713 62.6478 62.0048 65.3743 60.5128 70.6169C57.9338 70.5407 55.3946 67.9767 52.5446 69.4053C50.4811 70.44 50.0843 73.4109 48.3217 74.9279C46.396 74.0312 44.7129 71.1324 41.9961 71.1233C39.4779 71.1147 37.388 73.9874 35.649 74.9284C33.871 73.4097 33.5214 70.3302 31.2697 69.3287C28.4131 68.0578 25.9616 70.6062 23.4885 70.5956C22.7826 68.3305 22.9506 65.2596 21.4081 63.7713C19.2557 61.6933 16.0412 63.4077 13.8139 62.4516C13.4448 59.9245 15.6551 56.7099 13.5135 54.399C12.1907 52.9717 8.55209 52.7031 7.37038 51.4747C8.20163 49.5524 10.606 46.8582 10.0607 44.3814C9.47312 41.7151 6.74684 41.2352 5.19771 39.2609C5.95035 37.3205 9.3912 36.4971 10.0474 33.8312C10.803 30.7607 7.73284 28.8187 7.43162 26.45C9.36554 25.7347 12.6893 24.8143 13.6939 23.5347C15.5923 21.1169 13.3517 18.1882 13.8267 15.6009C16.6254 15.1869 19.6703 16.1786 21.4635 14.2718C23.1575 12.4706 22.5745 9.90337 23.5812 7.55027ZM76.1154 77.2794L75.3185 75.9192C75.1248 75.4684 74.913 74.9574 74.6957 74.4464C74.2675 73.438 73.8426 72.4954 73.4334 71.5185C72.6791 69.7177 71.5251 67.4706 70.962 65.5561C75.1563 64.8846 72.6753 60.0985 72.7945 56.7005C73.874 55.9819 75.2713 55.6912 76.6098 55.1585C83.1311 52.5634 77.9185 48.0509 77.0422 45.2667C78.3046 43.4954 82.0777 41.8977 82.0185 38.9955C81.9614 36.2084 79.0907 35.3752 77.0505 32.9582C77.5921 30.8549 80.8331 27.888 79.5599 25.2794C78.4875 23.0819 75.0321 22.7031 72.8123 21.4949C72.6253 18.8609 74.4707 15.8224 72.742 13.6728C71.1693 11.7172 67.7574 12.3957 64.9951 12.2168C63.5573 9.93613 64.6248 6.35222 62.2001 4.82211C59.6124 3.18882 56.611 5.88791 54.1884 5.95915C52.3749 4.23742 51.8383 0.453291 48.9593 0.0364719C45.9753 -0.395087 44.0144 3.0795 41.9853 3.8509C39.5052 2.9063 38.6248 -0.204284 34.7946 0.0229601C31.0326 1.99732 32.1179 3.66869 29.7818 5.96079C27.3017 5.88545 24.4195 3.17285 21.778 4.8262C19.2189 6.42797 20.5152 10.199 18.9822 12.0988C16.7909 12.9177 13.1763 11.241 11.2357 13.6793C9.49588 15.8654 11.3615 18.8629 11.1588 21.4977C9.01053 22.6319 5.46418 23.0852 4.42481 25.2892C3.17317 27.9437 6.35542 30.8336 6.92393 32.9582C4.80009 35.3944 1.98857 36.2838 1.94761 39.0148C1.90416 41.9026 5.69299 43.5703 6.93179 45.2667C6.24577 47.4175 3.33868 50.1117 4.35902 52.7604C5.34708 55.3239 9.18142 55.3108 11.1762 56.7013C11.3119 59.8733 8.76517 64.8817 13.0079 65.5557C11.8556 69.5642 -0.141891 95.0261 0.00127087 96.5661C0.309524 99.8884 6.01076 96.173 10.5386 95.1044C12.7158 97.9619 13.6761 105.01 16.4636 103.878C17.5973 103.417 20.5996 95.35 21.3063 93.7646C22.8559 90.288 24.2962 86.863 25.7878 83.3364C26.1254 82.538 29.7305 73.5264 30.5129 72.9032C31.5093 74.9632 32.8068 78.0389 35.4214 78.1536C38.4506 78.2867 40.4292 74.5865 41.8178 74.3907C43.2837 74.1844 45.3558 78.0946 48.3213 78.1519C51.1609 78.2072 52.4928 74.9177 53.4685 72.913C53.9778 73.3307 53.8549 73.2738 54.1909 74.0509L55.8613 77.9759C56.6669 79.8561 57.3272 81.3194 58.1188 83.1681L64.9065 98.9827C65.4349 100.235 66.3986 103.415 67.5124 103.872C70.3512 105.039 71.3087 97.7731 73.4321 95.081C77.3153 96.1321 84.7833 100.165 83.933 95.9904C83.7087 94.8898 76.1596 78.7125 76.1154 77.2794Z" fill="#FEFEFE"/>
<path fill-rule="evenodd" clip-rule="evenodd" d="M30.9516 25.6042C29.9652 25.6006 16.2465 31.7149 15.8401 32.1755C13.4478 34.8856 20.5574 36.0288 22.8427 37.7342C22.9614 40.4545 22.481 48.0551 23.0326 50.0668C24.1001 53.9602 28.8728 53.0078 33.0676 53.0078C36.2374 53.0078 57.367 53.4357 58.4138 52.6926L58.178 52.6971C58.0005 52.1656 58.4126 51.7713 58.4126 51.7705C56.9553 51.7705 56.17 52.0141 54.6651 52.0055L26.7312 52.0026C27.0395 52.4006 26.7457 52.0731 27.1139 52.0554L58.4126 52.0002C58.4506 51.9383 58.4668 51.8389 58.4796 51.7926L58.881 49.9124L57.8168 50.328C56.1898 50.9651 32.7113 50.6121 28.373 50.6469C26.634 50.6609 26.7999 50.2838 26.4978 49.9124C29.7562 49.9124 56.6458 50.1843 57.2834 49.772C54.0759 50.14 39.4345 49.8235 34.241 49.8235C24.1253 49.8235 26.154 51.9371 26.0712 39.2057C29.033 40.0815 39.1039 45.4846 41.4189 46.08C42.8162 46.439 56.8001 40.0914 57.0058 39.9161L56.9901 38.9162C56.993 38.8462 57.0211 38.8131 57.0045 38.7652C55.2303 38.7652 55.6366 39.0509 54.2187 38.7733C53.3068 38.5948 52.4954 39.7077 52.5703 38.6194C51.2756 38.6149 46.0829 41.1563 44.4026 41.8446C42.0127 42.8236 42.7066 43.1413 40.4623 42.13C37.8362 40.9459 21.7168 33.7207 21.1897 33.2155C23.2614 32.1157 35.7918 27.102 36.3541 26.4272C35.2961 25.8143 36.4108 27.3436 36.215 25.9736C36.1625 25.6055 36.1952 25.6382 36.6466 25.447C37.6227 25.0335 37.789 25.0543 38.3861 24.3722L38.6985 23.9026C36.5585 23.9026 37.0943 24.269 36.1182 24.3669C36.1335 24.3968 36.1927 24.4217 36.2022 24.4222C36.4161 24.4389 36.014 24.9381 36.4397 24.3902C36.4534 24.3726 36.4881 24.2965 36.4993 24.2739L36.5866 23.6704L35.457 24.2793C35.4028 24.2993 35.3379 24.3157 35.2845 24.3354C33.651 24.9372 32.6327 26.0202 30.9516 25.6042Z" fill="#FEFEFE"/>
<path fill-rule="evenodd" clip-rule="evenodd" d="M30.9515 25.6042C32.6327 26.0202 33.6509 24.9372 35.2845 24.3353C35.3378 24.3156 35.4028 24.2993 35.457 24.2792L36.5866 23.6703L36.4993 24.2739C36.4881 24.2964 36.4533 24.3725 36.4397 24.3902C36.0139 24.938 36.4161 24.4389 36.2022 24.4221C36.1927 24.4217 36.1335 24.3967 36.1182 24.3668C37.0943 24.269 36.5584 23.9025 38.6984 23.9025L38.386 24.3721C37.789 25.0543 37.6226 25.0334 36.6466 25.4469C36.1952 25.6382 36.1625 25.6054 36.215 25.9735C36.4107 27.3435 35.2961 25.8142 36.354 26.4272C44.2528 24.0331 37.8403 22.5644 49.738 27.8504C51.2611 28.5268 62.273 33.5704 62.7732 34.063C60.6527 35.2373 53.6501 37.3902 52.5702 38.6193C52.4953 39.7076 53.3067 38.5948 54.2187 38.7733C55.6366 39.0509 55.2303 38.7651 57.0045 38.7651C57.0211 38.813 56.9929 38.8462 56.99 38.9162L57.0058 39.916L57.8883 39.7273C57.8891 41.5068 57.8908 43.2707 57.8908 45.0346C57.8908 47.1011 58.235 48.919 57.2834 49.7719C56.6458 50.1842 29.7562 49.9123 26.4978 49.9123C26.7998 50.2837 26.6339 50.6608 28.373 50.6469C32.7113 50.6121 56.1898 50.965 57.8167 50.3279L58.8809 49.9123L58.4796 51.7925C58.4668 51.8388 58.4506 51.9383 58.4125 52.0001L27.1139 52.0554C26.7456 52.073 27.0394 52.4005 26.7312 52.0026L54.6651 52.0054C56.17 52.014 56.9553 51.7704 58.4125 51.7704C58.4125 51.7712 58.0004 52.1655 58.1779 52.697L58.4138 52.6925C61.1438 51.7123 61.119 49.9361 61.1136 46.6601C61.109 43.9245 61.0635 41.1358 61.1256 38.4064C61.8464 37.868 64.2615 36.9197 65.3178 36.5721C65.3216 38.4924 64.8304 45.2061 65.9521 45.9452C69.3921 48.2115 68.5423 40.409 68.5423 38.9964C68.5423 37.5797 68.671 35.4473 68.5278 34.1162C68.3668 32.6201 67.0991 32.347 65.7395 31.7459L51.9852 25.3761C49.6259 24.3152 47.4772 23.1622 45.1635 22.1492C40.5632 20.1356 41.8716 20.5987 34.4247 23.848C33.5736 24.2194 31.6065 24.9544 30.9515 25.6042Z" fill="#FEFEFE"/>
</g>
<defs>
<clipPath id="clip0_148_1096">
<rect width="84" height="104" fill="white"/>
</clipPath>
</defs>
</svg>
