<svg width="84" height="96" viewBox="0 0 84 96" fill="none" xmlns="http://www.w3.org/2000/svg">
<g clip-path="url(#clip0_148_1047)">
<path fill-rule="evenodd" clip-rule="evenodd" d="M55.1544 41.3241C56.2864 42.2475 56.897 45.2858 57.0473 47.0644C57.2522 49.4894 56.9003 51.5507 56.1447 53.6423C55.0014 56.8065 51.754 60.8974 48.772 61.8408C46.231 64.5408 37.9241 61.4443 38.4109 67.4518C38.9019 73.5138 45.7735 67.9945 48.1585 74.1869C48.9464 74.6892 48.9352 76.5778 51.3119 76.2202C51.8687 76.1363 54.9924 74.7481 55.3488 74.4976C58.0274 72.6131 53.6266 69.419 56.4112 65.6584L59.1568 62.8949C62.1749 59.7726 65.9907 63.9259 67.996 61.6382C68.6746 60.8641 69.1908 58.7518 69.7476 57.8269C70.0743 53.5663 65.6768 55.111 64.5603 51.2552C64.2505 50.1856 64.2343 46.7912 64.4415 45.6418C64.7388 43.9913 65.8144 43.0533 66.9547 42.3983C69.3611 41.0161 71.0991 40.6155 68.1475 35.1991C66.7855 32.6997 63.9809 35.1462 61.4591 34.817C60.7764 34.7282 59.8662 34.4156 59.5102 33.8887C58.6898 33.5807 58.7414 33.4541 58.112 32.8482C57.9413 32.6842 57.6665 32.4491 57.5297 32.2877C57.0624 31.7367 57.3259 32.1619 57.0274 31.4872C55.5507 31.1633 54.8721 28.3272 55.6413 25.7201C56.6725 22.2252 55.1169 22.0857 52.6713 21.0422C49.681 19.7659 49.0359 20.4806 47.8054 22.9036C47.3216 23.8564 46.778 24.5878 45.9144 25.1562C44.6704 25.9756 43.9031 25.646 42.6655 26.0402C40.8986 26.603 39.4451 28.8544 40.5226 31.1645C42.1061 34.5588 46.4099 32.0965 51.5901 36.6421C52.6412 37.5647 55.0029 39.7145 55.1544 41.3241Z" fill="#FEFEFE"/>
<path fill-rule="evenodd" clip-rule="evenodd" d="M32.6978 20.1459C27.5263 21.697 21.7029 27.9634 19.5852 33.2419C16.4502 41.0564 17.2318 47.6342 20.904 54.8145C23.1691 59.2429 27.4282 68.8701 28.0297 74.1844C28.5575 78.8517 30.4019 80.2346 35.3276 80.235C38.8006 80.235 43.0593 81.0933 43.6947 78.6741C44.0101 77.473 43.2458 76.9121 43.1195 76.2737C40.792 75.4249 34.1148 76.2393 33.0779 75.5825C32.2343 75.0125 32.0471 71.6745 31.7241 70.4287C31.2839 68.7314 30.761 67.1504 30.1918 65.5301C29.0775 62.3591 27.8282 59.2153 26.4977 56.3407C25.1736 53.4792 23.2965 50.6038 22.5616 47.3829C20.2363 37.193 26.109 26.6538 36.0817 23.5683C38.3566 22.8645 39.2908 22.9511 41.6845 22.6907C43.633 22.4786 44.4856 20.3712 43.2537 18.9913C41.6563 17.2028 34.664 19.2109 32.6978 20.1459Z" fill="#FEFEFE"/>
<path fill-rule="evenodd" clip-rule="evenodd" d="M48.2625 49.5329C46.4884 57.6573 34.5089 54.8 36.3785 46.8929C38.2067 39.1608 49.9453 41.8273 48.2625 49.5329ZM46.6332 59.5384C47.3866 58.6464 48.0276 59.2602 47.9825 57.8542C47.9456 56.7071 47.2847 56.438 48.1535 55.2921C48.3268 55.0634 49.4084 54.0075 49.7212 53.868C50.6757 53.4424 51.4103 53.9734 52.6186 53.9583C55.1957 49.1429 51.1194 52.5762 51.3009 47.9081C51.4186 44.8766 53.3506 46.8264 53.4423 44.2344L52.5957 42.6058C50.352 42.4834 50.3133 43.5704 48.6295 41.9225C46.8478 40.1786 48.1697 40.108 47.8385 38.0119C47.1892 37.4234 46.3926 37.0761 45.4129 37.1188C44.0354 38.1869 44.8542 39.289 42.2015 39.2761C39.8748 39.2648 40.2936 38.3191 39.197 37.1649C38.1202 37.0534 37.1996 37.5379 36.6232 38.1457C36.3954 40.1254 37.7184 40.0418 35.974 41.8885C33.9901 43.9895 33.6142 42.28 32.119 42.7555C31.4047 43.2877 31.0592 44.2975 31.2002 45.4552C32.4066 46.2156 33.2999 46.363 33.3014 48.3809C33.3029 50.4698 32.342 50.4528 31.2322 51.3508C31.0916 52.476 31.4859 53.5388 32.2532 54.0192C33.969 54.3117 34.0897 52.8732 35.8943 54.7293C37.9789 56.8742 36.3789 56.3874 36.7736 58.7023C40.2992 61.0517 39.2346 58.0689 41.1617 57.4925C42.259 57.1641 43.8068 57.3387 44.3643 57.9597C45.3568 59.0652 44.5253 59.4934 46.6332 59.5384Z" fill="#FEFEFE"/>
<path fill-rule="evenodd" clip-rule="evenodd" d="M30.5442 84.045C28.1302 84.7869 28.5825 87.8978 30.7517 88.2587C32.348 88.5244 53.048 88.3381 53.5818 88.1696C55.6172 87.527 55.477 84.3122 53.1547 83.949C51.563 83.7003 31.0224 83.898 30.5442 84.045Z" fill="#FEFEFE"/>
<path fill-rule="evenodd" clip-rule="evenodd" d="M34.6657 94.2347C35.2157 96.7072 40.1075 95.8595 42.6621 95.8595C45.2456 95.8595 50.007 96.6498 49.2716 93.1397C48.7419 90.6116 43.9012 91.4579 41.2873 91.4579C38.7056 91.4579 33.8751 90.6793 34.6657 94.2347Z" fill="#FEFEFE"/>
<path fill-rule="evenodd" clip-rule="evenodd" d="M71.1239 41.2377C71.7021 43.1074 76.0593 42.4135 78.1887 42.4135C80.3379 42.4135 84.8516 43.0961 83.8594 39.9455C83.2846 38.1211 78.7665 38.7519 76.8134 38.7519C74.6784 38.7519 70.1344 38.0372 71.1239 41.2377Z" fill="#FEFEFE"/>
<path fill-rule="evenodd" clip-rule="evenodd" d="M40.1678 1.218C40.1287 3.4925 40.1546 5.78061 40.1542 8.05662C40.1542 10.2529 39.5696 13.2326 42.1998 12.9942C44.3791 12.7969 43.7983 9.79406 43.7979 7.5959C43.7979 5.35882 44.0938 2.74605 43.5622 0.684335C42.9825 0.52673 42.8889 -0.0908396 41.7746 0.0119628C40.8742 0.0951117 40.5964 0.78298 40.1678 1.218Z" fill="#FEFEFE"/>
<path fill-rule="evenodd" clip-rule="evenodd" d="M10.1157 38.7507C7.64683 38.7507 1.19935 38.2431 0.333917 39.4681C-0.222107 40.2553 -0.0288709 41.3605 0.514372 41.9089C1.35273 42.7559 11.6033 42.7064 12.412 41.9346C12.9586 41.4126 13.162 40.2228 12.5894 39.445C12.0883 38.7643 11.148 38.7507 10.1157 38.7507Z" fill="#FEFEFE"/>
<path fill-rule="evenodd" clip-rule="evenodd" d="M69.8083 10.3617C68.8782 10.76 62.1818 17.6232 62.0521 18.0979C61.6284 19.6471 63.0183 20.9329 64.4777 20.3354C65.1014 20.0803 68.9823 15.9867 69.7421 15.2323C70.2372 14.7406 71.9121 13.2341 72.1192 12.5394C72.5572 11.0696 71.2034 9.76414 69.8083 10.3617Z" fill="#FEFEFE"/>
<path fill-rule="evenodd" clip-rule="evenodd" d="M19.514 20.4332C21.0223 20.5243 22.5494 19.7094 21.8321 17.9384C21.6355 17.4527 19.705 15.6692 19.2606 15.2258C18.27 14.2382 15.156 10.6526 13.8868 10.2222C12.406 10.1768 11.2943 11.1999 11.8898 12.6973C12.1195 13.2749 13.9222 14.9495 14.4331 15.467L19.514 20.4332Z" fill="#FEFEFE"/>
</g>
<defs>
<clipPath id="clip0_148_1047">
<rect width="84" height="96" fill="white"/>
</clipPath>
</defs>
</svg>
