<svg width="76" height="76" viewBox="0 0 76 76" fill="none" xmlns="http://www.w3.org/2000/svg">
<g clip-path="url(#clip0_148_1132)">
<path fill-rule="evenodd" clip-rule="evenodd" d="M11.2004 25.2452L11.3506 26.3534C11.2878 32.9586 11.5741 61.5744 11.2405 62.595L5.88731 62.6512C4.44899 62.7461 2.91044 63.6404 2.21058 64.2894C1.98767 62.7961 2.15702 59.8718 2.15702 58.2259C2.15702 53.7984 1.90569 29.9254 2.37335 28.4243C3.52652 24.7224 7.13472 25.2948 11.2004 25.2452ZM13.3431 63.9558L13.4164 33.0295C14.3281 32.6994 31.622 32.9568 35.7015 32.9065C36.7179 32.8939 36.7113 32.8018 37.0177 33.1163C37.0222 36.0246 40.0296 38.6499 42.8164 39.0095C44.9902 39.2899 52.9585 38.7172 54.1638 39.3025C55.6054 40.002 55.8531 42.0911 54.3696 43.0322C53.5001 43.5836 50.1648 43.3733 48.8791 43.3739L25.7419 43.4762C23.9768 43.4768 21.8431 43.2626 20.5038 44.1048C19.4907 44.7416 18.3953 46.1532 18.4758 47.9644C18.6849 52.6611 23.6887 52.0756 26.0483 52.0756H49.4919C51.13 52.0756 53.6093 51.6704 54.6991 52.7117C56.047 53.9992 55.2583 55.9543 53.7915 56.3923C52.8595 56.6703 28.7783 56.5003 24.8227 56.5C22.7832 56.5 21.3345 56.3699 19.9964 57.5335C17.4665 59.7333 18.3178 63.8936 21.4111 64.8561C23.6097 65.5404 29.9545 64.79 32.7922 65.1075C34.5094 65.2996 35.6859 66.3345 36.308 67.4276C37.199 68.9933 36.4196 71.5289 38.1224 71.3583C39.809 71.189 38.9437 68.023 38.4808 66.9348C36.2906 61.7829 29.7983 62.9148 24.9759 62.9151C22.9759 62.9154 21.2073 63.1569 20.7217 61.3933C20.1241 59.2232 21.9437 58.6445 23.7494 58.6523L47.0404 58.654C50.8497 58.654 54.9396 59.4006 56.7603 56.7597C58.8093 53.788 56.6682 50.1097 53.3296 49.9302C49.657 49.7327 45.413 49.9215 41.6773 49.9215L24.2096 49.9218C22.2587 49.9257 20.5562 49.7926 20.6373 47.6535C20.7283 45.2631 23.4849 45.6359 24.516 45.6308L41.9837 45.5584C45.6114 45.5434 49.9317 45.7349 53.481 45.4923C57.8905 45.191 59.1471 39.2866 55.0581 37.3346C54.2314 36.9396 53.5423 36.924 52.5573 36.9258C50.1597 36.9294 43.2973 37.3151 41.4948 36.3448C40.4407 35.7775 39.3123 34.5261 39.1828 33.0154L73.8412 33.0214L73.8334 73.8334C66.2047 74.059 58.2313 73.8454 50.5645 73.8454H15.7823C13.3383 73.8454 6.36306 74.2191 4.65694 73.3382C1.90628 71.9184 1.16962 68.1214 3.75841 65.8184C5.42203 64.3382 8.48717 64.705 11.3399 64.7251C12.4257 64.7326 13.0783 64.8552 13.3431 63.9558ZM39.8255 19.8061C39.6454 20.4374 38.3959 22.408 38 22.8715C37.602 22.3994 36.3564 20.4389 36.176 19.8028C36.0994 19.6765 36.0761 19.7241 36.0198 19.456L36.0046 18.5407C36.0084 18.0796 36.0034 17.6413 36.0264 17.1634L39.9736 17.1796C39.9966 17.6413 39.9916 18.0796 39.9954 18.5407C40.002 19.3049 40.0813 19.3776 39.8255 19.8061ZM43.0746 15.0375H32.9254C32.6411 14.5684 32.7378 12.619 32.8287 12.1073L43.1381 12.1765C43.2374 12.5544 43.3727 14.5456 43.0746 15.0375ZM29.4195 2.15493H47.1936L46.5689 2.1657L46.5805 10.0317L29.4297 10.0152L29.4195 2.15493ZM27.2741 1.07268V11.3387C27.2741 12.5409 29.6645 12.2581 30.6451 12.2581C30.6451 17.7289 30.2163 17.1613 33.8628 17.1613C33.8628 20.7411 33.5441 19.8411 35.3663 22.8595C37.4704 26.3451 36.9273 25.3017 36.9273 30.7983H13.484V24.0564C13.484 22.4987 9.59904 22.984 7.96773 22.984C5.58361 22.984 3.82184 23.4382 2.49454 24.5591C1.35065 25.5249 0 27.2478 0 29.266V69.7177C0 72.8801 3.13276 76 6.28227 76H74.9273C75.6427 76 76 75.6427 76 74.9273V31.7177C76 31.2213 75.3343 30.7983 74.7741 30.7983H39.0727C39.0727 25.3777 38.5326 26.34 40.5759 22.955C42.4556 19.8414 42.1372 20.7779 42.1372 17.1613C45.7837 17.1613 45.3549 17.7289 45.3549 12.2581C46.3355 12.2581 48.7259 12.5409 48.7259 11.3387V1.07268C48.7259 0.35726 48.3686 0 47.6532 0H28.3468C27.6314 0 27.2741 0.35726 27.2741 1.07268Z" fill="#FEFEFE"/>
<path fill-rule="evenodd" clip-rule="evenodd" d="M13.343 63.9556L13.4492 63.7214C13.6147 63.0861 13.5028 33.6029 13.5028 33.0673L37.0176 33.1161C36.7112 32.8016 36.7178 32.8938 35.7014 32.9064C31.6219 32.9566 14.328 32.6993 13.4163 33.0293L13.343 63.9556Z" fill="#FEFEFE"/>
<path fill-rule="evenodd" clip-rule="evenodd" d="M5.88721 62.6512L11.2404 62.5949C11.574 61.5743 11.2877 32.9585 11.3505 26.3534L11.2003 25.2451V62.4426L6.27678 62.5013C5.60834 62.653 6.13077 62.5372 5.88721 62.6512Z" fill="#FEFEFE"/>
<path fill-rule="evenodd" clip-rule="evenodd" d="M32.9254 15.0376V12.2576H43.0564L43.0746 15.0376C43.3727 14.5457 43.2374 12.5544 43.1381 12.1765L32.8287 12.1074C32.7377 12.6191 32.6411 14.5684 32.9254 15.0376Z" fill="#FEFEFE"/>
<path fill-rule="evenodd" clip-rule="evenodd" d="M36.1761 19.8029L36.1405 17.3147H39.8534L39.8256 19.8062C40.0814 19.3777 40.0021 19.305 39.9955 18.5409C39.9916 18.0798 39.9967 17.6414 39.9737 17.1797L36.0265 17.1636C36.0034 17.6414 36.0085 18.0798 36.0046 18.5409L36.0199 19.4561C36.0761 19.7242 36.0995 19.6767 36.1761 19.8029Z" fill="#FEFEFE"/>
</g>
<defs>
<clipPath id="clip0_148_1132">
<rect width="76" height="76" fill="white"/>
</clipPath>
</defs>
</svg>
