<svg width="89" height="90" viewBox="0 0 89 90" fill="none" xmlns="http://www.w3.org/2000/svg">
<g clip-path="url(#clip0_153_1923)">
<path fill-rule="evenodd" clip-rule="evenodd" d="M30.8591 24.8655L31.0233 17.2307L42.7887 17.3253L42.8734 24.515C43.3496 26.5602 44.2229 26.5337 46.3528 27.3306C53.7924 30.1145 50.4245 30.1578 57.666 23.8308C59.5418 24.7486 64.1592 29.9225 65.8352 31.7083C63.7734 35.5652 58.7292 35.517 61.5259 41.5272C64.7162 48.3824 63.131 47.1004 72.2274 47.0026L72.2214 58.7225C61.7808 58.6725 64.3777 58.1205 61.5157 64.2061C58.6967 70.2 63.9114 70.1365 65.8186 74.0097L57.666 81.8993C56.2922 80.5939 53.1019 76.4018 50.7228 76.6254C49.9024 76.7023 47.4315 77.9754 46.3129 78.379C44.0859 79.1819 43.4601 79.1532 42.8727 81.2296L42.8035 88.3895L31.0321 88.4934L30.8591 80.8993C30.0907 79.0232 29.5354 79.1741 27.3275 78.3524C26.1912 77.9297 23.816 76.6938 22.8989 76.6297C20.4824 76.461 17.7817 80.714 15.8953 81.9443L7.86099 73.8808C12.1586 68.9832 14.6066 68.9609 12.1777 64.1154C9.02867 57.8335 12.4449 58.8989 1.48005 58.6977L1.47016 47.0324C12.2214 46.8407 9.11586 47.8658 12.1558 41.615C14.5907 36.608 12.3284 36.8975 7.84087 31.8224L15.9444 23.8191C17.7923 24.986 20.5265 29.2489 22.8947 29.0856C23.8012 29.0232 26.1542 27.7884 27.2922 27.355C29.5189 26.5071 30.0222 26.6945 30.8591 24.8655ZM22.5537 27.6495C20.0097 26.2265 18.2162 22.8012 15.9444 21.8629C14.6458 22.5524 6.90475 30.3293 5.9944 31.7282C6.84121 33.9254 10.256 35.8281 11.3178 37.6529C12.1611 39.1014 9.61075 44.044 8.89242 45.3341C-0.226998 46.8202 0.0010313 41.794 0.00420819 52.8757C0.00738507 63.6874 -0.511152 59.0226 8.9616 60.3744C14.2885 70.0409 10.0707 68.0081 6.01805 73.6086C6.52635 75.2655 14.9172 83.2918 15.9444 83.8449C18.4111 82.7617 19.9017 79.4207 22.5537 78.0785C22.5537 78.0785 28.5584 80.1141 29.2079 81.1452C30.2379 83.2641 29.2195 87.0555 29.725 89.6329C31.8779 90.1491 41.6016 90.068 43.9698 89.7137L44.2137 81.2608C45.1082 80.3689 49.7796 78.2061 51.4697 78.1558L57.576 83.9374C59.2675 83.2532 61.4889 80.5234 62.8143 79.1908C64.2256 77.7724 67.1321 75.5344 67.6912 73.6086C66.3492 71.45 63.6188 69.8184 62.4144 67.978C61.5736 66.6928 63.9633 61.8268 64.7462 60.4307C69.076 59.5821 73.147 61.8984 73.6662 58.6495C73.74 58.1875 73.7192 57.1354 73.7146 56.627C73.7033 55.3748 73.6969 54.1282 73.6969 52.8757C73.6969 51.6348 74.1615 46.7397 73.2755 45.8922C71.4449 44.7679 67.2796 45.8153 64.7939 45.2859C58.4366 35.1946 65.9453 36.8436 67.7096 31.7282C66.9023 30.3689 59.1468 22.3713 57.666 21.8643L51.5632 27.6622C49.5915 27.5081 45.2977 25.4625 44.2652 24.4637L44.1156 16.0083C41.687 15.6834 31.8076 15.6192 29.6968 16.0841C28.5891 22.9882 33.0134 24.8428 22.5537 27.6495Z" fill="#FEFEFE"/>
<path fill-rule="evenodd" clip-rule="evenodd" d="M34.4902 32.7684C46.2443 31.3372 55.5967 40.159 56.8675 50.375C60.103 76.3829 20.0615 82.6018 16.8264 55.3385C15.3979 43.3019 24.201 34.0213 34.4902 32.7684ZM15.3329 55.3637C16.5483 67.1934 26.1961 76.0268 39.4903 74.433C50.4481 73.1195 59.7009 63.2018 58.379 50.4736C57.2148 39.2636 46.9076 29.7218 34.1263 31.2858C23.1477 32.6291 14.0209 42.5943 15.3329 55.3637Z" fill="#FEFEFE"/>
<path fill-rule="evenodd" clip-rule="evenodd" d="M46.0266 8.77496L46.0898 1.59834L57.8471 1.50834L58.032 9.10448C58.8725 11.0586 59.3932 10.8212 61.587 11.6234C62.8291 12.0777 64.9827 13.3005 65.9926 13.3674C68.4007 13.5269 71.1504 9.24976 72.95 8.095L81.0178 16.1259C76.681 21.207 74.2331 20.8899 76.7163 25.8785C79.8385 32.1502 76.4777 31.0854 87.4111 31.2983L87.4175 42.9618C84.4559 43.0324 76.9024 42.0083 78.3203 45.8677C81.6282 45.333 76.339 44.5106 85.7878 44.5117C89.8902 44.512 88.8926 43.8473 88.8933 37.1186C88.8944 29.1763 89.8358 29.7216 84.5237 29.796C82.9084 29.8187 81.5357 29.8459 79.9328 29.6231C79.2557 28.1384 76.704 23.4138 77.596 21.916C78.7623 19.9573 82.1357 18.2554 82.883 15.9711L73.0922 6.00834C70.5723 7.16452 68.9577 10.576 66.3406 11.9239C66.3392 11.9239 60.2608 9.81279 59.6734 8.87027C58.696 6.68759 59.6727 2.97988 59.168 0.366335C57.0829 -0.147091 47.2321 -0.0719726 44.933 0.286964C44.5508 2.30133 44.7601 4.40925 44.7537 6.46614C44.74 10.7273 43.3499 8.38271 43.322 10.8807C45.166 11.0108 45.5938 10.294 46.0266 8.77496Z" fill="#FEFEFE"/>
<path fill-rule="evenodd" clip-rule="evenodd" d="M42.7688 46.7234C41.6029 50.3879 39.1175 54.7316 37.6261 58.0797L37.3819 52.0103L31.4937 51.7797L42.7688 46.7234ZM36.5061 62.7558C38.0603 62.3348 37.6089 62.1552 39.2608 58.4546C39.977 56.8494 40.6029 55.4729 41.3138 53.8802C41.9809 52.3856 45.538 45.3794 44.8214 44.6449C44.4766 44.2916 27.9271 50.9576 26.8943 52.8753C27.9765 53.6116 28.9533 53.4946 30.3952 53.4769L35.9544 53.5202C36.3265 56.2506 35.3123 60.7676 36.5061 62.7558Z" fill="#FEFEFE"/>
<path fill-rule="evenodd" clip-rule="evenodd" d="M30.8591 24.8652C31.5648 23.6322 31.3886 23.8111 31.3653 21.3623C31.3537 20.0924 31.3611 18.82 31.3611 17.5497L42.4791 17.5681C42.4763 19.3221 41.8473 23.3703 42.8734 24.5148L42.7887 17.3251L31.0233 17.2305L30.8591 24.8652Z" fill="#FEFEFE"/>
<path fill-rule="evenodd" clip-rule="evenodd" d="M46.0266 8.77491C47.0097 8.06873 46.3958 3.29342 46.3902 1.84491L57.583 1.88354C57.5891 3.66865 57.2166 7.53759 58.032 9.10444L57.8471 1.5083L46.0898 1.5983L46.0266 8.77491Z" fill="#FEFEFE"/>
<path fill-rule="evenodd" clip-rule="evenodd" d="M42.8727 81.2292C42.1431 83.375 42.5056 85.8546 42.507 88.1085L31.2795 88.1563C31.3074 86.8956 31.2961 85.6487 31.3067 84.3887C31.3265 81.9644 31.5086 82.1387 30.8591 80.8989L31.0321 88.4929L42.8035 88.3891L42.8727 81.2292Z" fill="#FEFEFE"/>
<path fill-rule="evenodd" clip-rule="evenodd" d="M20.393 52.6532C19.9239 51.5785 20.4837 52.4852 19.5465 52.1025C18.3379 53.3445 19.4061 53.319 20.184 53.6198C20.5543 53.0674 21.0672 54.1959 20.393 52.6532Z" fill="#FEFEFE"/>
<path fill-rule="evenodd" clip-rule="evenodd" d="M37.3175 69.6469C36.8424 68.5719 37.4347 69.4921 36.4414 69.0811C35.3553 70.3389 36.3288 70.2946 37.0902 70.6036C37.4771 70.0533 37.9865 71.1613 37.3175 69.6469Z" fill="#FEFEFE"/>
<path fill-rule="evenodd" clip-rule="evenodd" d="M54.2527 52.6513C53.7991 51.5858 54.3547 52.4897 53.4232 52.1035C52.2167 53.2877 53.2636 53.3104 54.0419 53.6112C54.4034 53.0602 54.8976 54.1664 54.2527 52.6513Z" fill="#FEFEFE"/>
<path fill-rule="evenodd" clip-rule="evenodd" d="M37.1426 36.6309C37.4984 36.0512 37.8641 37.1429 37.4105 35.8995C36.964 34.6764 37.6233 35.5792 36.4779 35.0913C35.7564 36.5986 35.8743 36.1692 37.1426 36.6309Z" fill="#FEFEFE"/>
</g>
<defs>
<clipPath id="clip0_153_1923">
<rect width="89" height="90" fill="white"/>
</clipPath>
</defs>
</svg>
