<svg width="91" height="68" viewBox="0 0 91 68" fill="none" xmlns="http://www.w3.org/2000/svg">
<g clip-path="url(#clip0_148_1142)">
<path fill-rule="evenodd" clip-rule="evenodd" d="M72.7618 45.8823C73.7742 43.7936 75.6911 41.564 78.1549 40.8093C80.5586 41.885 88.0231 49.3195 88.9352 52.137C88.3456 53.9872 86.3918 56.2646 85.101 56.7904C82.5719 57.8206 81.5586 55.424 80.418 54.2262L74.5153 48.3051C74.0261 47.7892 72.8033 45.9225 72.7618 45.8823ZM72.1378 42.9058C69.7894 39.4962 71.6804 37.9188 74.524 40.2533L72.1378 42.9058ZM27.5306 23.5079C30.9691 25.9985 31.4572 29.2576 37.1998 25.1024L37.5449 19.1219L44.871 19.0568C45.2008 24.5266 44.149 27.196 51.2161 27.1175L54.7353 23.558L59.9841 28.5343C58.2481 29.8431 55.688 31.6989 56.4208 34.722C57.5094 39.214 59.718 38.6133 63.9652 38.5787L64.2596 46.1752C59.8108 46.1803 58.1894 45.2821 56.6751 49.2103C55.3048 52.7642 57.7428 53.9082 59.7434 55.8895L54.781 61.3004C52.445 59.6451 52.4648 59.058 50.3704 57.502C43.7087 58.6251 45.7801 59.9696 44.7008 65.6462L37.6778 65.6194L37.3271 59.6478C31.4216 55.6173 30.8066 58.2321 27.5255 61.2176L22.5145 56.7117C24.2717 53.5706 27.1756 53.7615 25.8807 49.4954C24.5696 45.1771 22.7587 46.2145 18.2047 46.1398L18.2726 38.5929L24.3645 38.4208C27.1582 33.0164 26.2958 32.0655 22.4709 29.2009L27.5306 23.5079ZM27.8884 20.4045C29.0821 21.1614 29.8528 21.2079 29.6781 22.5173C28.2296 21.1606 29.1157 21.696 26.5414 21.2904C24.8899 22.2635 24.1396 23.3419 22.7228 24.753C20.6791 26.7882 21.2758 26.0935 19.8178 28.772C17.4229 22.9947 22.0972 17.5408 27.8884 20.4045ZM49.3619 24.9587L47.1259 24.0524L47.1406 18.882C52.1316 14.8507 58.3416 13.6776 63.0136 19.3208C67.5573 24.809 64.0836 33.683 58.5713 34.5536C58.8842 30.4174 67.3372 30.472 56.5345 22.0561C52.9474 19.2614 51.9561 23.834 49.3619 24.9587ZM39.3098 16.9403C41.1809 8.31498 56.8479 -0.0728443 68.2698 9.60457C77.9689 17.8221 78.0511 31.7779 67.0412 40.2785C66.9405 40.1484 66.8676 39.7363 66.8382 39.8271C66.8086 39.9176 66.6852 39.475 66.6448 39.3725C65.5221 36.5272 67.108 38.1718 65.3725 36.9283C64.3844 36.2204 62.6359 36.4391 61.0325 36.3069C63.6478 33.7261 66.122 32.8948 67.0214 27.669C68.6208 18.376 60.1258 11.0478 51.3829 13.7702C44.959 15.7706 52.0285 16.9076 39.3098 16.9403ZM34.3973 24.4291C31.227 23.9975 33.6925 20.7769 28.7645 18.3463C21.6876 14.8553 14.8457 21.7064 17.3558 28.643C18.7734 32.5607 22.6155 32.4917 23.7352 34.624C21.6355 38.8365 17.2651 34.4096 16.8238 37.5729L16.0431 39.4697C14.8298 42.2154 14.1612 41.141 11.4721 44.5092L6.19683 39.4432C7.91518 38.0784 10.4628 36.293 9.73686 33.279C8.65807 28.799 6.41196 29.3733 2.15758 29.4343L1.95594 21.8183C6.41116 21.8202 7.95086 22.7302 9.48976 18.7848C10.8793 15.2221 8.22016 13.9547 6.42702 12.1075L11.368 6.68727C13.6989 8.37522 13.6892 8.95054 15.7944 10.5103C22.4337 9.39227 20.4169 8.03575 21.4484 2.34383L28.4946 2.37141L28.8287 8.38271C34.9756 12.5829 35.4706 9.40379 38.6393 6.78793L41.2559 8.80035L37.0256 16.0951C33.2358 22.543 37.0613 21.8333 34.3973 24.4291ZM47.7152 60.6083C52.2328 58.397 50.1516 62.8571 55.3098 63.5837C56.8548 62.7035 61.4012 58.1145 62.1668 56.5152C61.0605 51.6077 57.1024 54.2843 59.287 48.4955L65.8778 47.8423C67.1347 42.5621 64.7166 44.9715 68.7017 41.8518C70.5085 44.5242 69.9588 45.4465 71.1687 47.9467C72.1748 50.026 76.5753 53.7133 78.7562 55.907C79.6891 56.8456 79.058 56.1918 79.6568 56.8603C85.9763 63.9127 90.8795 53.2632 90.9006 53.1621C91.5856 49.8895 88.5456 47.5804 87.1328 46.1704C79.4613 38.5131 82.8745 40.3138 73.5995 37.4072C75.7252 31.6947 78.1568 29.7093 77.2881 21.7163C76.67 16.0271 74.2119 12.4274 70.7173 9.00301C59.9104 -1.58651 50.2338 4.5881 42.9613 7.72333C36.149 0.822667 37.9064 5.94221 32.8754 8.32168C30.7186 6.48808 31.2006 8.15114 30.8713 5.20144C30.5581 2.39523 31.699 2.83402 29.788 1.00471C28.187 -0.394104 22.0367 -0.190104 20.1405 0.748778C19.0329 1.58539 19.2409 2.48599 19.0971 3.98092C18.2874 12.4073 15.5167 5.90125 11.4721 4.36616C10.6439 4.69064 4.58711 9.68596 4.23033 11.0781C3.64627 13.3555 5.56203 14.0385 6.60224 15.217C8.40806 17.2631 7.94901 16.5524 6.86916 19.5288L0 20.1663L0.125269 31.3059L6.75764 31.9311C9.18637 36.6359 4.9008 34.5022 3.96208 39.6276C5.07338 41.779 9.32723 46.1514 11.4721 46.8969C13.9349 46.2135 14.2896 45.2684 15.7944 43.5732C16.5825 45.8344 15.1028 47.1218 17.8579 48.1116C19.6048 48.7394 22.1765 47.6377 23.2659 49.0098C25.1505 54.0051 18.1502 52.8271 20.7613 57.6755C21.1086 58.3207 23.3787 60.5058 24.0812 61.2455C29.1762 66.6116 28.8675 61.2045 33.2728 59.7042C35.5327 61.5052 34.9729 59.9248 35.2869 62.7961C35.5964 65.6237 34.4526 65.1959 36.3884 66.9797C37.9501 68.3986 44.1908 68.1973 46.0301 67.2298C47.4567 66.1412 46.846 64.4565 47.2144 62.2267C47.5083 60.4488 47.3249 61.3333 47.7152 60.6083Z" fill="#FEFEFE"/>
<path fill-rule="evenodd" clip-rule="evenodd" d="M46.6402 45.4602C46.4222 45.9006 44.2321 47.6536 43.7215 47.8846C41.9714 48.6771 40.0546 48.5006 38.5368 47.8635C31.4832 44.9033 36.7738 32.8071 44.2096 37.1128C46.2607 38.3004 48.2607 42.1855 46.6402 45.4602ZM39.3841 34.4364C28.7791 37.037 32.623 53.1359 43.5005 50.2812C47.4795 49.2371 50.3377 44.7336 48.9688 39.832C47.9843 36.3085 43.7035 33.3771 39.3841 34.4364Z" fill="#FEFEFE"/>
<path fill-rule="evenodd" clip-rule="evenodd" d="M84.8212 52.6554C84.6053 50.446 82.9734 49.5812 81.5301 48.0941C77.372 43.8095 78.7039 44.3147 76.6494 45.0006C76.8225 46.4795 81.93 52.7802 84.8212 52.6554Z" fill="#FEFEFE"/>
</g>
<defs>
<clipPath id="clip0_148_1142">
<rect width="91" height="68" fill="white"/>
</clipPath>
</defs>
</svg>
