<svg width="87" height="87" viewBox="0 0 87 87" fill="none" xmlns="http://www.w3.org/2000/svg">
<g clip-path="url(#clip0_148_1080)">
<path fill-rule="evenodd" clip-rule="evenodd" d="M49.9265 83.2738C49.5384 79.7499 54.5976 79.4461 54.786 82.6768C54.9813 86.0221 50.2392 86.1102 49.9265 83.2738ZM51.2676 1.90274C52.545 1.2338 54.1818 1.85342 54.6254 3.09402C55.1211 4.47986 54.5205 5.83349 53.3754 6.29487C50.3458 7.51561 48.4809 3.36153 51.2676 1.90274ZM48.1339 2.96797L47.767 3.13444C47.7197 3.1454 47.6145 3.18616 47.5529 3.19746C47.484 3.21014 47.3891 3.23 47.3076 3.24028C45.6794 3.45195 39.0365 2.96969 36.591 3.37626L36.1679 4.50178C36.0336 6.06743 35.2759 15.0202 34.4626 16.0457C31.3834 19.9292 27.3192 10.8264 23.8422 7.03403C22.4124 6.98813 22.0082 7.74133 20.5752 8.24552L17.0047 10.5534C17.1466 12.4719 18.0643 12.8442 18.1496 14.4736C19.0183 15.2353 24.3294 24.9447 18.9265 24.6447C17.2 24.5484 10.3663 20.8886 7.77685 20.1803C7.17908 20.5543 7.4819 20.1731 6.99684 20.792C6.25588 22.0556 4.00286 25.5277 3.79733 26.7419C5.01376 28.5542 11.6149 32.2633 12.2116 33.5714C13.3924 34.0051 14.4163 35.183 13.415 36.9939C12.1109 39.3532 1.78033 38.3225 0.427904 39.8169C-0.130469 40.5787 -0.124303 46.1741 0.344662 47.0629C0.970519 47.848 8.19751 48.4042 9.50883 48.5495L11.9002 48.9526C13.3075 49.5832 11.8208 48.7755 12.5336 49.3729C13.9895 49.7315 14.1447 51.8688 13.0441 53.0211C11.9674 54.1476 4.56123 58.6603 3.78294 60.414L7.3418 66.7695C10.6979 66.4975 18.4373 60.7911 20.7801 62.861C23.2869 65.0753 17.063 73.1955 17.1 76.509C18.4394 77.2834 22.2976 79.9054 23.8422 79.8856C26.2302 77.418 30.2073 70.4495 31.9825 70.0751C36.7831 69.0619 34.6534 78.7415 36.5009 83.555L48.2055 83.6875C51.0857 89.5703 56.5653 86.5921 56.4204 82.6559C56.3437 80.5651 55.2766 80.3414 54.6285 79.2553C51.196 78.437 49.2263 78.996 48.3432 82.0705L37.7748 82.0527C37.4987 79.2427 37.111 76.4998 36.8044 73.712C36.4738 70.7047 35.7801 68.3372 32.4939 68.3998C29.8442 68.4505 28.5065 71.0013 27.348 72.5704C26.1716 74.1641 24.5681 76.6412 23.2243 77.9952L18.8936 75.6585C20.1412 71.947 24.9162 64.8592 22.0458 61.8933C18.7264 58.4637 13.4531 63.583 7.94402 64.8753C7.46615 63.3617 6.26205 62.0057 5.72457 60.4969C7.52061 59.2666 9.18511 57.9002 11.0044 56.5367C12.4891 55.4238 15.244 54.1089 15.3707 51.4557C15.6872 44.8276 5.62831 47.7976 1.99443 45.846C1.95469 45.7846 1.91633 45.6059 1.90742 45.6449L1.69675 43.7487C1.70051 42.8561 1.71901 41.958 1.72449 41.0644C6.20244 39.818 15.084 41.4675 15.3882 35.9355C15.5769 32.4959 9.93909 29.8143 5.83076 26.433C6.20381 24.8228 7.36749 23.5623 8.01253 22.0525C11.9705 23.0266 18.7699 28.3367 21.9592 25.1728C25.1573 21.9997 19.9672 14.8099 18.8895 11.2124L23.226 8.80691C26.2703 12.6102 29.2454 18.5355 32.4898 18.5362C35.6085 18.5369 36.4488 16.2889 36.7756 13.4189C37.101 10.5596 37.3795 7.73482 37.8211 4.9104L48.2661 4.87067C51.2967 10.9655 56.1131 7.49129 56.4063 4.49698C56.7643 0.844695 52.8396 -1.15322 50.009 0.707687C49.0612 1.33107 49.1629 1.57152 48.4357 2.58058C48.3966 2.63505 48.3192 2.73027 48.2866 2.77411C48.2537 2.81829 48.19 2.90769 48.1339 2.96797Z" fill="#FEFEFE"/>
<path fill-rule="evenodd" clip-rule="evenodd" d="M65.8591 73.3884C64.9078 70.0207 69.802 69.0956 70.5361 71.9067C71.3973 75.2055 66.646 76.1731 65.8591 73.3884ZM53.5941 28.6033C56.5189 27.0469 58.4341 31.6698 55.6573 32.9416C52.7641 34.2668 50.3781 30.3145 53.5941 28.6033ZM66.4637 76.6071C68.169 76.5375 69.4118 76.9091 70.7892 75.8484C71.7748 75.0893 72.5942 73.5052 72.202 71.7025C71.8621 70.1413 70.7892 69.0881 69.3121 68.6942C64.9794 67.5388 68.4091 72.3413 59.4221 62.2164L53.7534 56.2323C49.1031 55.9809 40.2836 56.8533 36.426 55.5479C26.0958 52.0535 25.3178 38.5254 33.8548 33.3722C38.2577 30.7142 45.0047 31.5435 50.594 31.5435C51.8344 36.5597 58.5849 35.4016 58.6225 30.7546C58.6397 28.618 57.0324 26.889 55.0277 26.6896C51.4003 26.3293 51.5668 28.9009 50.1027 29.9196C48.0217 30.5721 30.9002 26.2491 26.9063 40.016C25.9793 43.2114 26.2773 46.7339 27.5814 49.5651C33.1237 61.5985 46.0728 56.5378 52.5719 57.862C54.3649 58.2274 55.8276 61.4536 58.5444 63.3933C58.0926 64.8401 53.5112 69.0925 52.8076 69.261C50.3124 69.8598 43.9932 68.7291 41.7717 69.5922L41.7497 70.665C42.8298 71.1147 51.499 71.1887 53.1902 70.9209C54.6321 70.6924 57.9655 66.2328 59.6804 65.1833C60.6245 65.6968 64.0634 69.4066 64.6564 70.2992C63.3595 75.0756 64.9928 74.7722 66.4637 76.6071Z" fill="#FEFEFE"/>
<path fill-rule="evenodd" clip-rule="evenodd" d="M81.6518 25.5067C79.7355 28.0287 75.9718 25.7821 77.4613 22.9282C78.9172 20.1398 83.6787 22.8385 81.6518 25.5067ZM68.7205 6.27527C71.8707 5.39089 72.8093 10.1272 70.0846 10.9411C66.8577 11.9049 65.2069 7.26207 68.7205 6.27527ZM65.8235 11.0407L62.3263 14.8677C60.2274 17.44 60.8889 16.792 56.5908 16.7875C54.2559 16.7851 43.0401 16.3782 41.8415 17.166L41.7439 18.1491C45.2349 19.3215 59.0867 17.3784 61.1188 18.8266C62.0409 19.4839 65.2017 22.9056 66.1849 23.9424C67.7918 25.6383 71.1818 24.9741 75.4755 24.9748C76.3414 26.6237 76.9529 28.3377 79.7486 28.2565C81.9382 28.1928 83.4938 26.5953 83.6486 24.5216C83.8154 22.2894 82.2972 20.4748 80.3669 20.1651C77.2211 19.6609 76.5799 21.5403 75.4367 23.2848C73.9072 23.4287 72.3427 23.3502 70.7992 23.3639C68.1933 23.3869 68.3163 23.7119 66.9385 22.2603C65.4936 20.7378 63.4951 19.0574 62.2944 17.5233C63.0576 16.1837 65.9567 13.673 66.7319 12.1676C69.0744 12.6427 70.9242 13.2288 72.524 11.1637C73.836 9.46995 73.5544 7.06581 72.0766 5.69367C68.9863 2.82507 63.6599 5.42617 65.8235 11.0407Z" fill="#FEFEFE"/>
<path fill-rule="evenodd" clip-rule="evenodd" d="M80.6763 56.7072C79.7192 53.379 84.3365 52.3062 85.283 54.9532C86.5042 58.3681 81.4857 59.5221 80.6763 56.7072ZM71.4658 37.1603C74.5253 36.1996 75.7461 41.001 72.8611 41.8213C69.6667 42.7297 68.1012 38.217 71.4658 37.1603ZM81.3305 59.9043C83.5712 59.7879 84.5729 60.3106 86.0342 58.6534C87.5179 56.971 86.9088 55.6269 86.6837 53.6061C83.7607 51.6763 81.4672 50.0531 78.9049 55.0803C72.5709 55.1543 72.0372 55.7931 69.7459 53.4444C68.3557 52.0195 65.4454 49.5246 64.4427 47.8942C65.6379 47.2191 68.0378 44.6166 69.5667 43.138C71.9396 43.336 73.5716 44.2628 75.283 42.0334C78.3414 38.0495 73.0632 33.4084 69.5444 36.2999C67.6134 37.8865 67.919 39.1778 68.4544 41.8792C67.6055 42.9626 66.7598 43.635 65.8061 44.6043C64.6003 45.8292 64.7712 46.3303 62.4822 46.3587C60.0425 46.3888 54.4307 45.9439 52.585 46.5652L52.5949 47.7456C55.023 48.4991 58.4715 47.5397 61.2325 47.984C62.6538 48.2128 64.9432 51.055 65.9119 52.0233C72.0715 58.1825 68.2842 56.1291 78.8353 56.7723C79.2372 57.3765 79.4074 57.9667 79.8274 58.4894C80.4467 59.2611 80.6273 59.0631 81.3305 59.9043Z" fill="#FEFEFE"/>
<path fill-rule="evenodd" clip-rule="evenodd" d="M38.7192 39.3536C44.9963 37.0861 47.437 46.4047 42.1198 48.4283C36.0455 50.7399 32.4572 41.6156 38.7192 39.3536ZM38.1646 37.8242C30.063 40.7743 34.3115 52.7081 42.485 50.007C50.2984 47.4247 46.5337 34.7768 38.1646 37.8242Z" fill="#FEFEFE"/>
</g>
<defs>
<clipPath id="clip0_148_1080">
<rect width="87" height="87" fill="white"/>
</clipPath>
</defs>
</svg>
