<svg width="23" height="24" viewBox="0 0 23 24" fill="none" xmlns="http://www.w3.org/2000/svg">
<path d="M21.3354 10C21.3354 17 11.1677 23 11.1677 23C11.1677 23 1 17 1 10C1 7.61305 2.07124 5.32387 3.97806 3.63604C5.88487 1.94821 8.47107 1 11.1677 1C13.8644 1 16.4506 1.94821 18.3574 3.63604C20.2642 5.32387 21.3354 7.61305 21.3354 10Z" stroke="#FF4612" stroke-width="2" stroke-linecap="round" stroke-linejoin="round"/>
<path d="M11.1678 13C13.0396 13 14.557 11.6569 14.557 10C14.557 8.34315 13.0396 7 11.1678 7C9.29598 7 7.77856 8.34315 7.77856 10C7.77856 11.6569 9.29598 13 11.1678 13Z" stroke="#FF4612" stroke-width="2" stroke-linecap="round" stroke-linejoin="round"/>
</svg>
