<svg width="27" height="27" viewBox="0 0 27 27" fill="none" xmlns="http://www.w3.org/2000/svg">
<path d="M25.9464 19.7156V23.4781C25.9478 23.8274 25.8762 24.1732 25.7363 24.4932C25.5964 24.8132 25.3911 25.1005 25.1338 25.3366C24.8764 25.5728 24.5725 25.7526 24.2416 25.8645C23.9108 25.9764 23.5602 26.0179 23.2123 25.9865C19.353 25.5671 15.6459 24.2484 12.3888 22.1362C9.35853 20.2106 6.78938 17.6415 4.86381 14.6112C2.74424 11.3393 1.42519 7.61417 1.01351 3.73754C0.982173 3.39072 1.02339 3.04118 1.13454 2.71116C1.24569 2.38114 1.42434 2.07789 1.65912 1.8207C1.89389 1.56351 2.17964 1.35802 2.49819 1.21732C2.81673 1.07662 3.16108 1.00378 3.50931 1.00346H7.27181C7.88047 0.997465 8.47053 1.213 8.93203 1.60989C9.39353 2.00677 9.69496 2.55793 9.78015 3.16062C9.93895 4.36471 10.2335 5.54696 10.6581 6.68484C10.8268 7.13373 10.8633 7.62159 10.7633 8.09061C10.6633 8.55962 10.4309 8.99013 10.0937 9.33113L8.50089 10.9239C10.2863 14.0638 12.886 16.6636 16.0259 18.4489L17.6187 16.8561C17.9597 16.5189 18.3902 16.2866 18.8592 16.1865C19.3282 16.0865 19.8161 16.123 20.265 16.2918C21.4029 16.7164 22.5851 17.0109 23.7892 17.1697C24.3984 17.2556 24.9548 17.5625 25.3526 18.0319C25.7503 18.5013 25.9616 19.1006 25.9464 19.7156Z" stroke="#FF4612" stroke-width="2" stroke-linecap="round" stroke-linejoin="round"/>
</svg>
