<svg width="61" height="61" viewBox="0 0 61 61" fill="none" xmlns="http://www.w3.org/2000/svg">
<path fill-rule="evenodd" clip-rule="evenodd" d="M17.1393 55.9179C19.1677 55.9179 18.1872 57.4047 20.1257 56.2259C21.3141 55.5034 22.2159 55.2458 23.7526 55.1282C24.4128 55.0778 25.5703 55.1422 26.3681 55.3606C26.753 55.467 27.1576 55.6014 27.5087 55.7499C28.6971 56.2511 27.961 56.2987 29.2534 56.2987C29.8293 56.2987 29.4023 56.2063 29.9557 56.2455C30.2198 56.2651 30.5962 56.3155 30.8407 56.3687C31.3997 56.4863 31.7537 56.6907 32.1386 56.9819C32.5207 57.2703 32.7791 57.6372 32.8185 58.2084C32.9224 59.7065 32.7005 58.788 33.3326 59.7289H13.0601C13.0966 58.0992 14.5266 57.9144 14.9255 57.6484C15.4397 57.3039 15.5099 55.9179 17.1393 55.9179ZM30.1439 47.5314L29.0679 49.0015C28.2364 50.1439 27.3458 51.7372 26.7418 53.0365C26.5648 53.4173 26.4946 53.6749 26.3176 54.011C25.8624 53.9046 25.2022 53.7561 24.66 53.7561C25.0309 52.1713 29.3433 47.7414 30.1439 47.5286V47.5314ZM16.3724 45.3725C17.0494 45.5517 19.7155 48.6263 20.106 49.1471C22.0838 51.7904 21.6989 51.6728 22.8733 53.8849C21.9181 53.9073 21.4489 54.375 20.578 54.3946C20.5387 52.6137 18.3136 48.0494 17.0635 46.3329C16.8106 45.9885 16.5775 45.6777 16.3724 45.3725ZM28.9949 51.726C29.2562 50.6116 31.6722 47.7218 32.5319 46.865C33.8832 45.5209 34.2288 45.0309 35.8048 43.8996C36.2431 43.586 36.9005 43.4292 36.9005 42.8299C36.9005 41.3515 34.1866 43.138 33.6866 43.4404C32.8213 43.9612 32.0768 44.4344 31.2902 44.9917C30.9053 45.2633 30.5541 45.4761 30.1608 45.7729L26.8289 48.5507C26.8289 45.6665 28.7224 43.726 30.6946 42.7459C31.9335 42.1299 32.7538 41.8303 34.3187 41.5279C35.7599 41.2507 37.2882 41.3067 39.0693 41.3067C38.7856 41.7323 38.5889 41.7323 37.9456 42.7291C37.0719 44.0844 36.1981 46.6045 35.5548 48.2258C35.0969 49.3823 34.3327 50.6424 33.3607 51.25C31.3997 52.4709 30.1692 51.7288 28.9977 51.7288L28.9949 51.726ZM49.3938 39.6518C49.3938 36.9552 53.3466 36.9972 53.3466 39.5258C53.3466 42.2475 49.3938 42.0879 49.3938 39.6518ZM6.80925 37.9997C10.4081 37.9997 13.7147 38.4225 16.6533 40.2594C19.3868 41.9703 21.4714 44.1964 21.4714 48.1642C21.4714 48.7999 21.2298 48.4442 21.0556 48.2258C18.3361 44.8096 16.0409 43.152 12.3156 40.769C11.0879 39.9822 10.6497 39.439 9.99509 40.4134C10.1018 40.867 10.1468 40.9314 10.4811 41.2002C10.8014 41.4579 10.8604 41.4915 11.175 41.7799C11.4672 42.0515 11.5852 42.0823 11.8774 42.3511L14.3637 44.9581C15.9791 46.7642 16.8556 48.3378 17.9035 50.4548C18.2041 51.0596 18.3839 51.7764 18.6676 52.3617C17.2124 52.5073 15.9229 52.6109 14.4732 52.0956C14.167 51.9864 13.7372 51.7596 13.4366 51.6056C12.9618 51.362 12.9477 51.3088 12.5797 50.9364C11.897 50.2447 11.7257 50.0963 11.2734 49.1891C10.8885 48.4162 10.6469 47.8338 10.3659 46.9154C9.4304 43.8772 9.1298 40.9874 7.152 38.5569L6.81206 38.0053L6.80925 37.9997ZM48.1211 39.2709C48.1211 44.3644 54.6248 43.4572 54.6248 39.9066C54.6248 36.3336 52.0739 36.8628 52.0739 36.0928V27.9583H56.4088V59.7289H46.3372V27.9583H50.672V36.0928C50.672 36.7004 48.1211 36.8012 48.1211 39.2709ZM43.1485 12.7115H59.5974V26.6898H43.1485V12.7115ZM1.45458 20.9719H41.8731V23.2597H1.45458V20.9719ZM37.0269 2.67291C37.0269 2.3285 37.0887 2.3229 37.1533 2.03728C37.6899 1.90847 37.5101 1.90847 38.0467 2.03728C38.3529 3.35055 38.1731 13.3163 38.1731 15.5088C38.4344 15.6852 38.5046 15.8896 38.8109 15.8896H41.8703V16.5253H37.0241V2.67291H37.0269ZM35.7515 2.29209V17.2869C35.7515 17.5837 36.0914 17.9226 36.3892 17.9226H41.8703V19.5747H1.0697C-0.357468 19.5747 0.049892 21.476 0.049892 23.6405C0.049892 24.8977 1.23264 24.5309 3.62061 24.5309C3.62061 24.9033 3.53071 26.1662 4.38476 26.057C5.08991 25.9646 5.02249 25.105 5.02249 24.5309H8.46398C8.46398 26.3286 8.14651 28.0871 9.73943 27.3255C9.96418 26.3622 9.86585 25.6818 9.86585 24.5309H18.2799C18.2799 25.6818 18.1816 26.3622 18.4064 27.3255C19.8307 27.6643 19.5526 27.2527 19.5526 24.5309H27.9667L28.0931 25.5474C28.6184 25.6706 29.3685 26.0262 29.3685 24.5309H32.81C32.81 25.7658 32.5656 27.0735 33.5742 27.0735C34.4619 27.0735 34.2119 25.5642 34.2119 24.5309H37.7826C37.7826 27.5019 37.4933 27.4739 38.4204 27.9611C39.3475 27.4711 39.0581 27.5019 39.0581 24.5309H41.8618C41.8618 28.6472 41.2016 27.9611 44.9213 27.9611V59.7317H35.3581C35.0351 59.7317 35.0182 59.5301 34.49 58.9448C33.9141 58.3064 34.3187 55.355 30.2423 54.9182C29.7338 54.865 29.0286 54.9826 28.7954 54.9266C28.7392 54.9126 27.6998 54.4506 27.5818 54.3946C27.7391 54.1006 28.1408 53.2017 28.2195 52.8685C30.571 53.0645 32.7286 54.207 35.2654 51.376C36.0605 50.4884 36.6982 48.9343 37.1842 47.6966C37.8248 46.0613 38.7181 43.334 40.0442 42.1607C40.0526 42.1523 42.5895 40.7466 40.901 40.2314C40.2493 40.0326 38.1788 39.9066 37.5298 39.9066C34.3299 39.9066 31.352 40.7046 29.3938 41.9619C24.4465 45.1373 25.7725 48.8503 25.663 49.6819L23.6318 52.4877C23.4801 51.8408 22.9154 51.0344 22.5923 50.4632C22.1962 49.7603 22.7384 49.5643 22.7384 47.1506C22.7384 42.6871 18.1029 38.9181 14.0546 37.6328C11.1104 36.6976 8.57916 36.5604 5.52256 36.8516C4.91011 36.9104 4.37914 36.9748 4.37914 37.6188C4.37914 37.9969 5.32028 38.5233 6.13219 39.4305C6.73059 40.097 7.06491 40.8446 7.43574 41.6875C9.18598 45.6553 8.84043 51.4348 13.7035 53.2325C15.6728 53.9606 17.1449 53.7869 19.0413 53.6301C19.1621 53.8793 19.3953 54.8034 19.4234 55.1562C18.6339 55.0918 17.1506 53.7393 15.0267 55.3494C14.2344 55.9515 14.5407 56.3015 13.5574 56.8083C12.9056 57.1443 12.355 57.7072 12.0459 58.3512C11.4054 59.6841 12.4111 59.7597 10.5008 59.7345L1.44615 59.7317C0.971368 60.4401 0.976986 59.9613 1.1905 60.8741C1.47706 60.9413 1.48267 61.0001 1.82823 61.0001H60.2239C61.0274 61.0001 60.6144 59.8885 60.606 59.8577C59.6396 59.6337 58.9569 59.7317 57.8022 59.7317V27.9611C59.9037 27.9611 60.9909 28.2971 60.9909 27.0707V12.4567C60.9909 11.9946 60.8841 11.7482 60.7352 11.4402C59.3277 11.1126 45.2584 11.3142 42.6288 11.3142C41.5472 11.3142 41.8647 12.0534 41.8647 14.4924H39.443V2.29209C39.443 0.113573 35.7458 0.113573 35.7458 2.29209H35.7515Z" fill="#060000"/>
<path fill-rule="evenodd" clip-rule="evenodd" d="M43.4039 9.15201C44.5192 9.15201 43.8843 8.07675 44.4799 6.28465C45.1008 4.41975 46.4577 2.90767 48.1265 2.04242C50.1773 0.97836 52.481 1.10157 54.5346 1.99762C56.032 2.65005 57.7261 4.51216 58.243 6.18105C58.3863 6.64867 58.5549 7.25631 58.5745 7.75754C58.67 10.1853 59.9792 8.79919 59.9792 8.64518C59.9792 3.91292 56.0068 0.00390625 51.9472 0.00390625H50.801C47.4297 0.00390625 44.3282 2.64725 43.2606 5.83103C43.064 6.41626 42.252 9.15481 43.4067 9.15481L43.4039 9.15201Z" fill="#060000"/>
<path fill-rule="evenodd" clip-rule="evenodd" d="M53.0942 16.2672C53.8724 16.7852 55.5131 18.8518 55.8614 19.8682C56.4093 21.4615 55.1619 23.3852 52.9678 23.3852C51.3271 23.3852 49.7651 21.6211 50.2961 19.9662C50.5489 19.1794 51.0012 18.5997 51.4928 17.9753C51.948 17.3957 52.5267 16.6508 53.097 16.27L53.0942 16.2672ZM48.8857 20.5878C48.8857 22.6992 50.7736 24.6537 52.5829 24.6537H53.6027C55.4541 24.6537 59.9519 21.5819 55.1029 16.424C53.5605 14.7831 53.2937 13.6659 51.6923 15.7576C50.8776 16.8188 48.8886 18.5437 48.8886 20.5878H48.8857Z" fill="#060000"/>
<path fill-rule="evenodd" clip-rule="evenodd" d="M45.8263 8.00696C45.8263 8.69859 45.7139 9.14942 46.464 9.14942C47.2338 9.14942 47.0652 8.11896 47.2225 7.49173C47.3995 6.79169 47.6299 6.36887 48.0092 5.85924C50.0993 3.04228 55.6451 3.80672 55.6451 8.7686C56.0271 9.02341 55.9035 9.14942 56.4092 9.14942C58.1117 9.14942 56.2294 2.92188 51.6923 2.92188H51.0545C48.4755 2.92188 45.8263 5.45322 45.8263 8.00416V8.00696Z" fill="#060000"/>
<path fill-rule="evenodd" clip-rule="evenodd" d="M45.444 15.7605C45.444 14.5788 46.3037 14.9008 46.7195 14.9988C47.2083 17.0878 45.444 16.3289 45.444 15.7605ZM46.2082 17.6674C48.8743 17.6674 48.7591 13.6016 46.4638 13.6016H45.8261C43.6741 13.6016 43.278 17.6674 46.2082 17.6674Z" fill="#060000"/>
<path fill-rule="evenodd" clip-rule="evenodd" d="M48.6328 8.38713C48.6328 8.73155 48.6946 8.73715 48.7592 9.02276C49.5768 9.21877 49.0065 9.20197 49.779 9.02276C49.9729 8.61954 49.9167 8.18832 50.1611 7.75149C50.5151 7.11026 50.9421 7.11866 51.5658 7.11866C52.6334 7.11866 52.7626 8.14911 52.9677 9.02556C53.6475 9.18797 54.1139 9.36438 54.1139 8.26392C54.1139 6.40182 51.563 4.72452 49.5206 6.48022C49.0823 6.85824 48.6328 7.58908 48.6328 8.38993V8.38713Z" fill="#060000"/>
<path fill-rule="evenodd" clip-rule="evenodd" d="M37.7937 35.0755C37.7937 36.2711 37.656 37.7552 37.9201 38.8893C38.3134 38.9229 38.1617 38.8865 38.4314 39.0153C39.3866 38.5112 39.0691 38.4552 39.0691 35.3303C39.0691 34.9858 39.0073 34.9802 38.9427 34.6946C38.7854 34.6582 37.7965 34.283 37.7965 35.0755H37.7937Z" fill="#060000"/>
<path fill-rule="evenodd" clip-rule="evenodd" d="M37.7939 29.8651V32.9145C37.7939 33.6537 39.0694 33.4801 39.0694 32.7885C39.0694 29.7391 39.3728 29.7251 38.4317 29.2295C38.1564 29.3751 37.7939 29.4507 37.7939 29.8651Z" fill="#060000"/>
<path fill-rule="evenodd" clip-rule="evenodd" d="M32.8209 29.2293C32.8209 31.377 32.6271 31.9847 34.0964 31.6431C34.2284 31.0802 34.6246 28.3389 33.5851 28.3389C33.0626 28.3389 32.8209 28.6889 32.8209 29.2293Z" fill="#060000"/>
<path fill-rule="evenodd" clip-rule="evenodd" d="M23.2576 34.1858C23.1228 34.7626 22.8194 37.616 23.6397 37.616C24.7101 37.616 24.4038 36.9048 24.4038 34.5666C24.4038 33.9114 23.6537 34.0318 23.2576 34.1858Z" fill="#060000"/>
<path fill-rule="evenodd" clip-rule="evenodd" d="M27.975 27.3246C27.975 28.1086 27.7053 29.8755 28.6127 29.9931C29.6297 30.1248 29.3769 28.1674 29.3769 27.5794C29.3769 26.2745 27.975 26.5966 27.975 27.3246Z" fill="#060000"/>
<path fill-rule="evenodd" clip-rule="evenodd" d="M13.4425 31.0105C13.4425 33.5166 13.17 33.9339 14.2067 33.9339C14.9821 33.9339 14.718 32.5926 14.718 31.1393C14.718 30.3497 13.4425 30.3049 13.4425 31.0133V31.0105Z" fill="#060000"/>
<path fill-rule="evenodd" clip-rule="evenodd" d="M13.4425 26.6897C13.4425 29.1986 13.17 29.6131 14.2067 29.6131C15.0663 29.6131 14.7124 26.8325 14.5887 26.3089C14.4314 26.2725 13.4425 25.8973 13.4425 26.6897Z" fill="#060000"/>
<path fill-rule="evenodd" clip-rule="evenodd" d="M8.47005 33.805C8.47005 34.5247 8.25092 35.9471 9.2342 35.9135C10.2652 35.8799 9.87754 33.3514 9.7455 32.7886C9.31005 32.6878 8.47005 32.2929 8.47005 33.805Z" fill="#060000"/>
<path fill-rule="evenodd" clip-rule="evenodd" d="M18.2856 32.4069C18.2856 34.8038 18.0244 35.2014 19.0498 35.2014C19.8252 35.2014 19.5611 33.8601 19.5611 32.4069C19.5611 31.7068 18.2856 31.7068 18.2856 32.4069Z" fill="#060000"/>
<path fill-rule="evenodd" clip-rule="evenodd" d="M27.9746 32.0262C27.9746 33.1211 27.8875 33.2723 28.101 34.1879C29.5282 34.5183 29.3765 33.9583 29.3765 32.0262C29.3765 31.6818 29.3147 31.6762 29.2501 31.3906C28.9972 31.2701 28.7949 31.2085 28.4859 31.1357C28.4634 31.1553 28.4241 31.1525 28.4129 31.1917L28.1544 31.441C28.0055 31.6594 27.9746 31.7042 27.9746 32.0262Z" fill="#060000"/>
<path fill-rule="evenodd" clip-rule="evenodd" d="M8.46936 29.6125C8.46936 30.5225 8.31765 31.6454 9.23351 31.6454C10.0988 31.6454 9.87123 30.2453 9.87123 29.3577C9.87123 28.2656 8.46936 27.9996 8.46936 29.6125Z" fill="#060000"/>
<path fill-rule="evenodd" clip-rule="evenodd" d="M3.62334 32.1522C3.62334 33.3674 3.37611 34.4399 4.38749 34.4399C5.34548 34.4399 5.03926 32.127 4.89879 31.5165C4.38468 31.3961 3.62334 31.0937 3.62334 32.1522Z" fill="#060000"/>
<path fill-rule="evenodd" clip-rule="evenodd" d="M23.1322 30.7555C23.1322 32.7016 22.913 33.0432 23.8963 33.0432C24.652 33.0432 24.4076 31.828 24.4076 30.5007C24.4076 29.8763 23.1322 29.6243 23.1322 30.7555Z" fill="#060000"/>
<path fill-rule="evenodd" clip-rule="evenodd" d="M3.62322 28.2122C3.62322 29.2735 3.54456 29.2314 3.74964 30.1191C4.275 30.3711 4.37052 30.3711 4.89587 30.1191C5.01948 29.5899 5.33413 27.4505 4.51379 27.4505C4.05306 27.4505 3.62041 27.3665 3.62041 28.2122H3.62322Z" fill="#060000"/>
<path fill-rule="evenodd" clip-rule="evenodd" d="M23.2583 25.9251C23.1347 26.4599 22.8088 28.8484 23.6404 28.8484C24.6461 28.8484 24.4045 28.4816 24.4045 26.3059C24.4045 25.6506 23.6544 25.7711 23.2583 25.9251Z" fill="#060000"/>
<path fill-rule="evenodd" clip-rule="evenodd" d="M18.2854 28.9775C18.2854 30.0192 18.2096 29.8875 18.4118 30.7556C19.2294 30.9516 18.6591 30.9348 19.4316 30.7556C19.5496 30.2544 19.8811 28.4679 19.0496 28.4679C18.7574 28.4679 18.2854 28.4483 18.2854 28.9775Z" fill="#060000"/>
</svg>
