<svg width="61" height="61" viewBox="0 0 61 61" fill="none" xmlns="http://www.w3.org/2000/svg">
<g clip-path="url(#clip0_199_1272)">
<path fill-rule="evenodd" clip-rule="evenodd" d="M17.1398 55.9179C19.1682 55.9179 18.1877 57.4047 20.1262 56.2259C21.3146 55.5034 22.2164 55.2458 23.7531 55.1282C24.4133 55.0778 25.5708 55.1422 26.3686 55.3606C26.7535 55.467 27.1581 55.6014 27.5092 55.7499C28.6976 56.2511 27.9615 56.2987 29.2539 56.2987C29.8298 56.2987 29.4027 56.2063 29.9562 56.2455C30.2203 56.2651 30.5967 56.3155 30.8412 56.3687C31.4002 56.4863 31.7542 56.6907 32.1391 56.9819C32.5212 57.2703 32.7796 57.6372 32.819 58.2084C32.9229 59.7065 32.701 58.788 33.3331 59.7289H13.0606C13.0971 58.0992 14.5271 57.9144 14.926 57.6484C15.4401 57.3039 15.5104 55.9179 17.1398 55.9179ZM30.1444 47.5314L29.0684 49.0015C28.2369 50.1439 27.3463 51.7372 26.7423 53.0365C26.5653 53.4173 26.495 53.6749 26.3181 54.011C25.8629 53.9046 25.2027 53.7561 24.6605 53.7561C25.0314 52.1713 29.3438 47.7414 30.1444 47.5286V47.5314ZM16.3729 45.3725C17.0499 45.5517 19.716 48.6263 20.1065 49.1471C22.0843 51.7904 21.6994 51.6728 22.8738 53.8849C21.9186 53.9073 21.4494 54.375 20.5785 54.3946C20.5392 52.6137 18.3141 48.0494 17.064 46.3329C16.8111 45.9885 16.5779 45.6777 16.3729 45.3725ZM28.9954 51.726C29.2567 50.6116 31.6727 47.7218 32.5324 46.865C33.8837 45.5209 34.2293 45.0309 35.8053 43.8996C36.2436 43.586 36.901 43.4292 36.901 42.8299C36.901 41.3515 34.1871 43.138 33.687 43.4404C32.8218 43.9612 32.0773 44.4344 31.2906 44.9917C30.9058 45.2633 30.5546 45.4761 30.1613 45.7729L26.8294 48.5507C26.8294 45.6665 28.7229 43.726 30.6951 42.7459C31.934 42.1299 32.7543 41.8303 34.3192 41.5279C35.7604 41.2506 37.2887 41.3067 39.0698 41.3067C38.7861 41.7323 38.5894 41.7323 37.9461 42.7291C37.0723 44.0844 36.1986 46.6045 35.5553 48.2258C35.0974 49.3823 34.3332 50.6424 33.3612 51.25C31.4002 52.4709 30.1697 51.7288 28.9982 51.7288L28.9954 51.726ZM49.3943 39.6518C49.3943 36.9552 53.3471 36.9972 53.3471 39.5258C53.3471 42.2475 49.3943 42.0879 49.3943 39.6518ZM6.80974 37.9997C10.4086 37.9997 13.7152 38.4225 16.6538 40.2594C19.3873 41.9703 21.4719 44.1964 21.4719 48.1642C21.4719 48.7999 21.2303 48.4442 21.0561 48.2258C18.3366 44.8096 16.0414 43.152 12.3161 40.769C11.0884 39.9822 10.6502 39.4389 9.99557 40.4134C10.1023 40.867 10.1473 40.9314 10.4816 41.2002C10.8019 41.4579 10.8609 41.4915 11.1755 41.7799C11.4677 42.0515 11.5857 42.0823 11.8779 42.3511L14.3642 44.9581C15.9795 46.7642 16.8561 48.3378 17.904 50.4548C18.2046 51.0596 18.3844 51.7764 18.6681 52.3617C17.2129 52.5073 15.9234 52.6109 14.4737 52.0956C14.1675 51.9864 13.7377 51.7596 13.4371 51.6056C12.9623 51.362 12.9482 51.3088 12.5802 50.9364C11.8975 50.2447 11.7261 50.0963 11.2738 49.1891C10.889 48.4162 10.6473 47.8338 10.3664 46.9154C9.43089 43.8772 9.13029 40.9874 7.15248 38.5569L6.81255 38.0053L6.80974 37.9997ZM48.1216 39.2709C48.1216 44.3644 54.6253 43.4572 54.6253 39.9066C54.6253 36.3336 52.0744 36.8628 52.0744 36.0928V27.9583H56.4093V59.7289H46.3377V27.9583H50.6725V36.0928C50.6725 36.7004 48.1216 36.8012 48.1216 39.2709ZM43.149 12.7115H59.5979V26.6898H43.149V12.7115ZM1.45507 20.9719H41.8736V23.2597H1.45507V20.9719ZM37.0274 2.67291C37.0274 2.3285 37.0892 2.3229 37.1538 2.03728C37.6904 1.90847 37.5106 1.90847 38.0472 2.03728C38.3534 3.35055 38.1736 13.3163 38.1736 15.5088C38.4349 15.6852 38.5051 15.8896 38.8113 15.8896H41.8708V16.5253H37.0246V2.67291H37.0274ZM35.7519 2.29209V17.2869C35.7519 17.5837 36.0919 17.9226 36.3897 17.9226H41.8708V19.5746H1.07018C-0.356979 19.5746 0.0503803 21.476 0.0503803 23.6405C0.0503803 24.8977 1.23313 24.5309 3.6211 24.5309C3.6211 24.9033 3.5312 26.1662 4.38525 26.057C5.0904 25.9646 5.02298 25.105 5.02298 24.5309H8.46446C8.46446 26.3286 8.147 28.0871 9.73992 27.3255C9.96467 26.3622 9.86634 25.6818 9.86634 24.5309H18.2804C18.2804 25.6818 18.1821 26.3622 18.4068 27.3255C19.8312 27.6643 19.5531 27.2527 19.5531 24.5309H27.9672L28.0936 25.5474C28.6189 25.6706 29.369 26.0262 29.369 24.5309H32.8105C32.8105 25.7658 32.5661 27.0735 33.5747 27.0735C34.4624 27.0735 34.2124 25.5642 34.2124 24.5309H37.7831C37.7831 27.5019 37.4938 27.4739 38.4208 27.9611C39.3479 27.4711 39.0586 27.5019 39.0586 24.5309H41.8623C41.8623 28.6472 41.2021 27.9611 44.9217 27.9611V59.7317H35.3586C35.0355 59.7317 35.0187 59.5301 34.4905 58.9448C33.9146 58.3064 34.3192 55.355 30.2428 54.9182C29.7343 54.865 29.0291 54.9826 28.7959 54.9266C28.7397 54.9126 27.7003 54.4506 27.5823 54.3946C27.7396 54.1006 28.1413 53.2017 28.22 52.8685C30.5714 53.0645 32.729 54.207 35.2659 51.376C36.061 50.4884 36.6987 48.9343 37.1847 47.6966C37.8253 46.0613 38.7186 43.334 40.0447 42.1607C40.0531 42.1523 42.59 40.7466 40.9015 40.2314C40.2497 40.0326 38.1792 39.9066 37.5303 39.9066C34.3304 39.9066 31.3525 40.7046 29.3943 41.9619C24.447 45.1373 25.773 48.8503 25.6635 49.6819L23.6323 52.4877C23.4806 51.8408 22.9159 51.0344 22.5928 50.4632C22.1967 49.7603 22.7389 49.5643 22.7389 47.1506C22.7389 42.6871 18.1034 38.9181 14.0551 37.6329C11.1109 36.6976 8.57965 36.5604 5.52305 36.8516C4.9106 36.9104 4.37963 36.9748 4.37963 37.6188C4.37963 37.9969 5.32077 38.5233 6.13268 39.4305C6.73108 40.097 7.06539 40.8446 7.43623 41.6875C9.18647 45.6553 8.84092 51.4348 13.7039 53.2325C15.6733 53.9606 17.1454 53.7869 19.0418 53.6301C19.1626 53.8793 19.3957 54.8034 19.4238 55.1562C18.6344 55.0918 17.1511 53.7393 15.0272 55.3494C14.2349 55.9515 14.5411 56.3015 13.5579 56.8083C12.9061 57.1443 12.3554 57.7072 12.0464 58.3512C11.4059 59.6841 12.4116 59.7597 10.5013 59.7345L1.44664 59.7317C0.971856 60.4401 0.977474 59.9613 1.19099 60.8741C1.47754 60.9413 1.48316 61.0001 1.82872 61.0001H60.2244C61.0279 61.0001 60.6149 59.8885 60.6065 59.8577C59.6401 59.6337 58.9574 59.7317 57.8027 59.7317V27.9611C59.9041 27.9611 60.9914 28.2971 60.9914 27.0707V12.4567C60.9914 11.9946 60.8846 11.7482 60.7357 11.4402C59.3282 11.1126 45.2589 11.3142 42.6293 11.3142C41.5477 11.3142 41.8651 12.0534 41.8651 14.4924H39.4435V2.29209C39.4435 0.113573 35.7463 0.113573 35.7463 2.29209H35.7519Z" fill="white"/>
<path fill-rule="evenodd" clip-rule="evenodd" d="M43.4046 9.15201C44.5199 9.15201 43.885 8.07675 44.4806 6.28465C45.1015 4.41975 46.4584 2.90767 48.1272 2.04242C50.178 0.97836 52.4817 1.10157 54.5354 1.99762C56.0328 2.65005 57.7268 4.51216 58.2438 6.18105C58.387 6.64867 58.5556 7.25631 58.5753 7.75754C58.6708 10.1853 59.9799 8.79919 59.9799 8.64518C59.9799 3.91292 56.0075 0.00390625 51.9479 0.00390625H50.8017C47.4305 0.00390625 44.3289 2.64725 43.2613 5.83103C43.0647 6.41626 42.2528 9.15481 43.4074 9.15481L43.4046 9.15201Z" fill="white"/>
<path fill-rule="evenodd" clip-rule="evenodd" d="M53.0942 16.2672C53.8724 16.7852 55.5131 18.8518 55.8614 19.8682C56.4093 21.4615 55.1619 23.3852 52.9678 23.3852C51.3271 23.3852 49.7651 21.6211 50.2961 19.9662C50.5489 19.1794 51.0012 18.5997 51.4928 17.9753C51.948 17.3957 52.5267 16.6508 53.097 16.27L53.0942 16.2672ZM48.8857 20.5878C48.8857 22.6992 50.7736 24.6537 52.5829 24.6537H53.6027C55.4541 24.6537 59.9519 21.5819 55.1029 16.424C53.5605 14.7831 53.2937 13.6659 51.6923 15.7576C50.8776 16.8188 48.8886 18.5437 48.8886 20.5878H48.8857Z" fill="white"/>
<path fill-rule="evenodd" clip-rule="evenodd" d="M45.8263 8.00696C45.8263 8.69859 45.7139 9.14942 46.464 9.14942C47.2338 9.14942 47.0652 8.11896 47.2225 7.49173C47.3995 6.79169 47.6299 6.36887 48.0092 5.85924C50.0993 3.04228 55.6451 3.80672 55.6451 8.7686C56.0271 9.02341 55.9035 9.14942 56.4092 9.14942C58.1117 9.14942 56.2294 2.92188 51.6923 2.92188H51.0545C48.4755 2.92188 45.8263 5.45322 45.8263 8.00416V8.00696Z" fill="white"/>
<path fill-rule="evenodd" clip-rule="evenodd" d="M45.4443 15.7605C45.4443 14.5788 46.3039 14.9008 46.7197 14.9988C47.2086 17.0878 45.4443 16.3289 45.4443 15.7605ZM46.2084 17.6674C48.8745 17.6674 48.7593 13.6016 46.4641 13.6016H45.8263C43.6744 13.6016 43.2782 17.6674 46.2084 17.6674Z" fill="white"/>
<path fill-rule="evenodd" clip-rule="evenodd" d="M48.6328 8.38713C48.6328 8.73155 48.6946 8.73715 48.7592 9.02276C49.5768 9.21877 49.0065 9.20197 49.779 9.02276C49.9729 8.61954 49.9167 8.18832 50.1611 7.75149C50.5151 7.11026 50.9421 7.11866 51.5658 7.11866C52.6334 7.11866 52.7626 8.14911 52.9677 9.02556C53.6475 9.18797 54.1139 9.36438 54.1139 8.26392C54.1139 6.40182 51.563 4.72452 49.5206 6.48022C49.0823 6.85824 48.6328 7.58908 48.6328 8.38993V8.38713Z" fill="white"/>
<path fill-rule="evenodd" clip-rule="evenodd" d="M37.7942 35.0755C37.7942 36.2711 37.6565 37.7552 37.9206 38.8893C38.3139 38.9229 38.1622 38.8865 38.4319 39.0153C39.3871 38.5112 39.0696 38.4552 39.0696 35.3303C39.0696 34.9858 39.0078 34.9802 38.9432 34.6946C38.7859 34.6582 37.797 34.283 37.797 35.0755H37.7942Z" fill="white"/>
<path fill-rule="evenodd" clip-rule="evenodd" d="M37.7944 29.8651V32.9145C37.7944 33.6537 39.0699 33.4801 39.0699 32.7885C39.0699 29.7391 39.3733 29.7251 38.4322 29.2295C38.1568 29.3751 37.7944 29.4507 37.7944 29.8651Z" fill="white"/>
<path fill-rule="evenodd" clip-rule="evenodd" d="M32.8217 29.2293C32.8217 31.377 32.6278 31.9847 34.0971 31.6431C34.2292 31.0802 34.6253 28.3389 33.5858 28.3389C33.0633 28.3389 32.8217 28.6889 32.8217 29.2293Z" fill="white"/>
<path fill-rule="evenodd" clip-rule="evenodd" d="M23.2586 34.1858C23.1237 34.7626 22.8203 37.616 23.6407 37.616C24.711 37.616 24.4048 36.9048 24.4048 34.5666C24.4048 33.9114 23.6547 34.0318 23.2586 34.1858Z" fill="white"/>
<path fill-rule="evenodd" clip-rule="evenodd" d="M27.9755 27.3246C27.9755 28.1086 27.7058 29.8755 28.6132 29.9931C29.6302 30.1248 29.3774 28.1674 29.3774 27.5794C29.3774 26.2745 27.9755 26.5966 27.9755 27.3246Z" fill="white"/>
<path fill-rule="evenodd" clip-rule="evenodd" d="M13.4425 31.0105C13.4425 33.5166 13.17 33.9339 14.2067 33.9339C14.9821 33.9339 14.718 32.5926 14.718 31.1393C14.718 30.3497 13.4425 30.3049 13.4425 31.0133V31.0105Z" fill="white"/>
<path fill-rule="evenodd" clip-rule="evenodd" d="M13.4425 26.6897C13.4425 29.1986 13.17 29.6131 14.2067 29.6131C15.0663 29.6131 14.7124 26.8325 14.5887 26.3089C14.4314 26.2725 13.4425 25.8973 13.4425 26.6897Z" fill="white"/>
<path fill-rule="evenodd" clip-rule="evenodd" d="M8.47005 33.805C8.47005 34.5247 8.25092 35.9471 9.2342 35.9135C10.2652 35.8799 9.87754 33.3514 9.7455 32.7886C9.31005 32.6878 8.47005 32.2929 8.47005 33.805Z" fill="white"/>
<path fill-rule="evenodd" clip-rule="evenodd" d="M18.2861 32.4069C18.2861 34.8038 18.0248 35.2014 19.0503 35.2014C19.8257 35.2014 19.5616 33.8601 19.5616 32.4069C19.5616 31.7068 18.2861 31.7068 18.2861 32.4069Z" fill="white"/>
<path fill-rule="evenodd" clip-rule="evenodd" d="M27.9756 32.0262C27.9756 33.1211 27.8885 33.2723 28.102 34.1879C29.5292 34.5183 29.3775 33.9583 29.3775 32.0262C29.3775 31.6818 29.3157 31.6762 29.251 31.3906C28.9982 31.2701 28.7959 31.2085 28.4869 31.1357C28.4644 31.1553 28.4251 31.1525 28.4138 31.1917L28.1554 31.441C28.0065 31.6594 27.9756 31.7042 27.9756 32.0262Z" fill="white"/>
<path fill-rule="evenodd" clip-rule="evenodd" d="M8.46984 29.6125C8.46984 30.5225 8.31814 31.6454 9.23399 31.6454C10.0993 31.6454 9.87172 30.2453 9.87172 29.3577C9.87172 28.2656 8.46984 27.9996 8.46984 29.6125Z" fill="white"/>
<path fill-rule="evenodd" clip-rule="evenodd" d="M3.62382 32.1522C3.62382 33.3674 3.3766 34.4399 4.38797 34.4399C5.34597 34.4399 5.03975 32.127 4.89928 31.5165C4.38516 31.3961 3.62382 31.0937 3.62382 32.1522Z" fill="white"/>
<path fill-rule="evenodd" clip-rule="evenodd" d="M23.1322 30.7555C23.1322 32.7016 22.913 33.0432 23.8963 33.0432C24.652 33.0432 24.4076 31.828 24.4076 30.5007C24.4076 29.8763 23.1322 29.6243 23.1322 30.7555Z" fill="white"/>
<path fill-rule="evenodd" clip-rule="evenodd" d="M3.62371 28.2122C3.62371 29.2735 3.54505 29.2314 3.75013 30.1191C4.27549 30.3711 4.37101 30.3711 4.89636 30.1191C5.01997 29.5899 5.33462 27.4505 4.51428 27.4505C4.05355 27.4505 3.6209 27.3665 3.6209 28.2122H3.62371Z" fill="white"/>
<path fill-rule="evenodd" clip-rule="evenodd" d="M23.2585 25.9251C23.1349 26.4599 22.809 28.8484 23.6406 28.8484C24.6464 28.8484 24.4048 28.4816 24.4048 26.3059C24.4048 25.6506 23.6547 25.7711 23.2585 25.9251Z" fill="white"/>
<path fill-rule="evenodd" clip-rule="evenodd" d="M18.2859 28.9775C18.2859 30.0192 18.2101 29.8875 18.4123 30.7556C19.2299 30.9516 18.6596 30.9348 19.4321 30.7556C19.5501 30.2544 19.8816 28.4679 19.0501 28.4679C18.7579 28.4679 18.2859 28.4483 18.2859 28.9775Z" fill="white"/>
</g>
<defs>
<clipPath id="clip0_199_1272">
<rect width="61" height="61" fill="white"/>
</clipPath>
</defs>
</svg>
