<svg width="68" height="62" viewBox="0 0 68 62" fill="none" xmlns="http://www.w3.org/2000/svg">
<g clip-path="url(#clip0_199_1263)">
<path fill-rule="evenodd" clip-rule="evenodd" d="M8.39656 48.8458V45.111H13.2147V48.8458C13.2147 49.1696 12.9865 49.399 12.6642 49.399H8.94767C8.62546 49.399 8.39718 49.1696 8.39718 48.8458H8.39656ZM52.9955 32.6615V35.1511C52.2049 34.5692 52.1489 33.2309 52.9955 32.6615ZM7.84607 24.7768H52.9955V30.3099C50.9372 30.7919 48.2563 34.983 52.9955 37.5027V42.6207C52.2758 42.7889 52.3206 43.1739 51.619 43.1739H7.57051C5.09424 43.1739 5.45875 41.3293 5.15209 39.1028L4.06978 30.5081C3.91303 29.3686 3.77183 28.6904 4.07662 27.629C4.52758 26.0576 5.89603 24.7774 7.84607 24.7774V24.7768ZM44.7369 19.1055H45.0125C47.0757 19.1055 49.124 20.9645 49.2795 22.8403H40.4698C40.6254 20.9645 42.6743 19.1055 44.7369 19.1055ZM7.15811 22.0102H2.20247C2.2684 19.0443 6.09072 19.7968 8.67211 19.7968C8.41397 20.1844 8.2622 20.5063 8.01028 20.9301C7.78449 21.3101 7.57984 22.0102 7.15811 22.0102ZM38.4047 22.8403H9.2226C9.56285 22.1946 9.87697 21.6427 10.2651 20.9832C10.6738 20.2894 10.9375 19.7143 11.3456 19.0255C13.9599 14.6112 15.3744 9.83757 20.0974 9.83757H45.8379C46.3125 9.83757 46.371 9.94008 46.8014 9.97571C46.8014 11.354 46.9849 12.2716 47.3693 13.278C48.2159 15.492 50.7904 18.8655 52.9955 19.3818V22.8403H51.3434C50.8576 16.9715 42.3732 14.6706 39.1835 20.4419C38.8675 21.0139 38.4663 22.0877 38.4041 22.8403H38.4047ZM59.7407 18.5523V43.4515C59.7407 44.0353 60.8131 44.3672 61.5794 44.7854C65.4222 46.8819 67.0065 51.7899 65.4285 55.5297C64.8425 56.9174 63.7627 58.4595 62.6318 59.2208C62.6318 55.0066 63.6159 55.6354 60.4579 53.5208C56.6816 50.9917 58.2441 50.8236 53.4639 54.0202C51.739 55.1741 52.1701 54.3615 52.1701 59.2208C49.5439 57.4537 48.237 53.637 49.0357 50.2616C49.7386 47.2907 51.6326 45.4417 54.2153 44.2622C54.5984 44.0872 54.9231 43.9228 54.9231 43.3133V18.6911C54.9231 17.3284 52.9725 17.9898 50.7718 15.2551C47.3544 11.0071 48.6389 5.20578 52.032 2.92239C52.032 6.9016 51.6103 6.55656 53.4645 7.84546C54.117 8.29864 54.6973 8.70744 55.3144 9.16812C55.6528 9.42065 55.9725 9.60192 56.2978 9.84007C57.5064 10.7252 57.4174 10.6114 59.4378 9.2575C60.1083 8.80807 60.652 8.44303 61.3374 7.98485C61.6416 7.7817 61.9937 7.58793 62.2518 7.38228C62.7339 6.99786 62.6462 6.90285 62.6387 6.11151C62.6275 5.00263 62.6318 3.89375 62.6318 2.78488C63.7453 3.53371 64.8543 5.01951 65.3874 6.37904C66.4529 9.09811 66.1313 11.4621 64.8363 13.9912C64.3754 14.8907 64.3063 14.7838 63.8516 15.3532C63.0934 16.3008 63.6258 15.7126 62.6648 16.5121C61.5072 17.476 59.7413 17.7979 59.7413 18.5536L59.7407 18.5523ZM46.9389 7.90109H18.9958C16.7223 7.90109 14.4824 9.8682 13.2944 11.5778C12.6251 12.541 12.1374 13.5593 11.5689 14.5469C11.218 15.1563 10.0343 17.1903 9.91056 17.7222C8.67149 17.7222 7.43305 17.7222 6.19398 17.7222C3.9914 17.7222 1.95179 17.8366 0.792345 19.7637C0.36315 20.4763 -0.000732422 21.8877 -0.000732422 22.9785C-0.000732422 24.3461 1.89581 23.9467 4.12887 23.9467C3.87011 24.3355 3.64556 24.4555 3.34139 24.8156C1.19541 27.3571 1.99036 30.4487 2.41706 33.5509L3.63436 42.702C4.06169 43.9197 5.1776 44.8085 6.46829 45.1104C6.46829 51.8212 5.90038 51.3349 13.0754 51.3349C14.0445 51.3349 15.1399 50.2335 15.1399 49.2603V45.1104H49.5526C48.6196 46.5106 48.8559 45.658 47.7606 47.8745C45.6737 52.0981 47.0415 57.8506 50.6505 60.6053C54.2501 63.3532 54.0952 61.5561 54.0946 59.3577C54.094 58.2051 54.0946 57.0524 54.0946 55.8998C54.6669 55.746 56.4602 54.324 57.3982 53.8252C57.9567 54.2008 58.4388 54.5596 59.0241 54.9578C59.5236 55.2978 60.1183 55.8817 60.7017 56.0386C60.7017 57.1456 60.7023 58.2519 60.7017 59.3583C60.7017 59.8227 60.6538 60.5972 60.6974 61.0229C61.027 64.2458 67.9974 58.6751 67.9974 52.7188C67.9974 49.1509 66.6706 46.1568 64.1651 44.1209C63.6439 43.6971 62.3488 42.7808 61.6658 42.6214V19.3824C62.3457 19.223 63.5406 18.3711 64.0874 17.9429C64.8394 17.3541 65.4496 16.6496 66.0125 15.8664C69.3715 11.1921 68.245 4.64009 64.2031 1.47847C59.9105 -1.88067 60.7017 0.839025 60.7017 6.10339C60.1295 6.25715 58.3362 7.67919 57.3982 8.178C56.783 7.7642 54.6065 6.10214 54.0946 5.96462C54.0946 4.85762 54.094 3.75124 54.0946 2.64486C54.0952 1.60911 54.3975 0.0164298 53.1311 0.0164298C51.4579 0.0164298 48.7577 3.10366 47.7606 5.13202C47.4794 5.70334 46.955 7.09475 46.937 7.90109H46.9389Z" fill="white"/>
<path fill-rule="evenodd" clip-rule="evenodd" d="M24.6397 30.8632H40.607C42.5452 30.8632 43.7687 32.3353 43.9106 34.0449H21.1981C21.6204 33.1604 21.5713 32.5472 22.2605 31.7927C22.7382 31.2695 23.6756 30.8632 24.6391 30.8632H24.6397ZM18.8586 35.0131C18.8586 35.4044 19.2959 35.9813 19.6847 35.9813H45.5633C45.952 35.9813 46.3893 35.4044 46.3893 35.0131C46.3893 34.5262 45.2802 31.5258 44.8212 30.9176C44.0965 29.9581 42.7704 28.9268 41.1587 28.9268H23.8149C22.5939 28.9268 21.0594 29.8981 20.3434 30.9714C19.9186 31.6083 18.8593 34.2486 18.8593 35.0131H18.8586Z" fill="white"/>
<path fill-rule="evenodd" clip-rule="evenodd" d="M16.2429 38.3325C16.2429 38.7238 16.6802 39.3007 17.069 39.3007H48.7286C50.051 39.3007 50.051 37.3643 48.7286 37.3643H17.069C16.6802 37.3643 16.2429 37.9412 16.2429 38.3325Z" fill="white"/>
<path fill-rule="evenodd" clip-rule="evenodd" d="M11.2873 35.5665C8.45897 35.5665 8.96592 32.1079 11.1498 32.1079C13.2398 32.1079 13.3344 35.5665 11.2873 35.5665ZM7.29517 33.9063C7.29517 36.9672 11.1766 39.0569 13.7368 36.5059C14.7918 35.4546 15.1401 33.9844 14.5405 32.4348C14.1872 31.5216 13.4949 30.8984 12.6613 30.4502C10.809 29.4564 7.29579 30.6684 7.29579 33.9056L7.29517 33.9063Z" fill="white"/>
</g>
<defs>
<clipPath id="clip0_199_1263">
<rect width="68" height="62" fill="white"/>
</clipPath>
</defs>
</svg>
