<svg width="52" height="50" viewBox="0 0 52 50" fill="none" xmlns="http://www.w3.org/2000/svg">
<g clip-path="url(#clip0_199_1260)">
<path fill-rule="evenodd" clip-rule="evenodd" d="M3.60864e-05 25.5653C3.60864e-05 32.5445 2.42389 37.4731 5.53601 41.6139C11.6031 49.6831 24.339 54.6453 25.9682 43.5875C26.5839 39.4073 25.823 32.9493 26.8355 31.81C27.5069 31.0547 30.5036 30.5511 31.6086 30.2283C38.6842 28.1589 40.6784 22.0179 39.1925 15.0979C38.8712 13.6031 38.2138 12.7975 37.9074 11.4903H37.3286C37.1684 13.3997 35.2439 14.9241 33.942 15.8838C31.6742 17.5572 29.514 19.0757 28.0042 21.4798C27.475 22.322 27.0135 23.2629 26.6217 24.1287C25.7225 26.1172 25.7046 26.9416 25.3515 28.9004L24.9736 30.249C24.9567 30.2944 24.9249 30.3872 24.8851 30.4485C24.7458 28.7908 23.788 26.7668 23.1545 25.5603C21.6267 22.6507 19.4426 20.4293 16.3981 19.053C14.8028 18.3313 12.8981 17.7814 12.4416 16.0862C9.54924 18.0084 11.0223 25.9306 16.0042 28.6358C17.528 29.4631 19.0706 29.9854 20.837 30.4455C24.9835 31.5266 24.0168 33.8892 24.0168 41.0768C24.0168 44.6419 22.6184 48.2416 18.8816 47.9089C13.2979 47.4113 7.67044 41.6889 5.1143 37.1483C-1.11691 26.0806 2.90926 10.9087 15.4313 4.69071C25.9085 -0.511391 38.36 2.60849 45.5202 12.2633C49.5065 17.6392 51.2909 26.1409 48.2334 32.6561C47.766 33.6523 47.3254 34.2841 46.7107 35.1668C46.0025 36.1827 45.4585 36.4444 44.8518 37.3428C43.9198 36.7238 43.8781 36.318 42.7442 35.6999C39.3904 33.8714 35.6069 35.6042 34.4333 37.3428C35.032 38.2304 35.2986 37.9806 35.591 39.0666C34.8908 39.2522 32.4292 41.1913 32.1188 42.5133L32.9523 43.1294C34.2393 42.7404 35.6925 40.9168 36.7487 40.2149C37.5255 40.7312 40.4477 44.4346 41.0892 45.3854C39.5933 47.4123 37.9064 46.9058 37.9064 49.4067C38.6822 49.5863 38.4953 50.0691 40.2666 48.5941C41.0454 47.9464 41.4254 47.3669 42.2469 46.8209L43.9288 48.3127C45.0238 46.7301 49.1097 43.6615 46.0085 39.0647C49.3922 36.8156 51.2899 31.2452 51.8876 27.377C52.2158 25.2533 51.7524 21.5775 51.2272 19.522L49.429 14.7C49.1903 14.2053 48.9098 13.7472 48.6164 13.2082C44.7503 6.12131 36.6234 -0.00292969 25.7524 -0.00292969C11.804 -0.00292969 -0.00195312 11.7292 -0.00195312 25.5623L3.60864e-05 25.5653Z" fill="white"/>
</g>
<defs>
<clipPath id="clip0_199_1260">
<rect width="52" height="50" fill="white"/>
</clipPath>
</defs>
</svg>
