<svg width="54" height="54" viewBox="0 0 54 54" fill="none" xmlns="http://www.w3.org/2000/svg">
<g clip-path="url(#clip0_199_1235)">
<path fill-rule="evenodd" clip-rule="evenodd" d="M41.1331 45.1414C41.679 45.0143 42.3916 44.3732 42.8656 44.4828C43.0372 44.5226 43.4536 44.7815 43.7108 44.8837C44.0292 45.0099 44.4026 45.0741 44.4026 45.4577V50.3093H41.1331V45.1412V45.1414ZM40.2895 54.0007H34.7454C33.6761 53.8644 33.8558 53.3816 33.8558 51.8913H30.5862C30.5862 52.4032 30.8225 54.0007 29.9535 54.0007H24.0472C23.1779 54.0007 23.4144 52.4032 23.4144 51.8913H20.1448C20.1448 52.8777 20.3582 54.0007 19.3012 54.0007H13.7923C12.7297 53.8625 12.8675 53.3772 12.8675 51.8913H9.59798C9.59798 53.0993 9.81317 54.0007 8.85977 54.0007H3.05889C2.71723 54.0007 2.42611 53.5425 2.42611 53.1571C2.42611 51.4347 2.07475 49.5711 3.26996 49.5711C4.33477 49.5711 4.1136 51.43 4.1136 52.4187H8.01593V44.7194C8.01593 44.0378 8.54617 43.8517 9.05536 43.6495C9.4909 43.4766 9.98772 43.1378 10.4418 43.032C10.4418 40.5204 11.1615 37.1257 8.22699 37.1257H3.69188C0.937309 37.1257 1.58247 41.0069 1.58247 43.032C2.01533 43.1326 2.77397 43.5263 3.20043 43.7343C3.81712 44.0351 4.1136 44.1506 4.1136 45.0359C4.1136 46.0933 4.34096 47.5671 3.16432 47.5671C2.19338 47.5671 2.4259 46.122 2.4259 45.1414C2.08527 45.0619 1.96622 44.954 1.68563 44.8269C0.893157 44.4679 0 44.3163 0 43.5593V39.0242C0 37.465 1.44568 35.7658 2.84762 35.649C2.66131 34.8497 2.1092 34.4951 2.1092 33.3288C2.1092 31.8086 2.71826 30.7644 3.73253 29.995C5.23412 28.856 6.60408 29.4091 7.38252 29.4264C7.46216 25.8561 12.9373 24.3118 14.7683 28.0525C14.9497 28.4231 15.1447 28.9135 15.1874 29.4264C15.7131 29.4147 16.0496 29.2156 16.5584 29.2156C16.8782 29.2156 17.4635 29.3965 17.8239 29.4264C18.1338 28.0971 18.2601 27.7656 19.1132 26.9188C20.1172 25.9223 21.8309 25.5055 23.3473 26.2235C24.5572 26.7965 25.6286 27.9886 25.6286 29.4264C26.0934 29.4161 26.5903 29.2253 26.9998 29.2253C27.4093 29.2253 27.9059 29.4161 28.371 29.4264C28.371 27.2564 31.0614 24.992 33.8135 26.1988C35.287 26.845 35.8363 27.9692 36.1756 29.4264C36.6083 29.3905 37.1016 29.2156 37.5466 29.2156C37.9316 29.2156 38.3381 29.4159 38.8122 29.4264C38.8572 28.8865 39.0571 28.4035 39.2661 27.982C41.058 24.3679 46.5368 25.8338 46.6171 29.4264C47.3957 29.4091 48.7655 28.856 50.2671 29.995C51.0441 30.5845 51.8904 31.7046 51.8904 33.0125C51.8904 34.7466 51.3886 34.6339 51.152 35.649C52.5485 35.7652 53.9996 37.4776 53.9996 39.0242V43.5593C53.9996 44.223 53.4832 44.293 52.9808 44.5445C52.6344 44.7182 51.9184 45.0609 51.5737 45.1414C51.5737 45.7418 51.6434 53.044 51.5332 53.4329C51.4627 53.6822 51.2112 54.0007 50.9409 54.0007H45.14C44.1866 54.0007 44.4018 53.0993 44.4018 51.8913H41.1323C41.1323 52.7123 41.3307 54.0007 40.2886 54.0007H40.2895ZM20.1448 45.1414C20.595 45.0366 21.3887 44.4929 21.7485 44.4729C21.9968 44.4589 22.9714 45.0384 23.4144 45.1414V50.3095H20.1448V45.1414ZM9.59798 45.4579C9.59798 45.0692 9.97431 45.039 10.2995 44.8938C10.5134 44.7983 10.9748 44.5199 11.1349 44.483C11.6092 44.3734 12.3212 45.0143 12.8673 45.1416V50.3097H9.59778V45.4581L9.59798 45.4579ZM45.7738 37.1259H50.3089C51.4666 37.1259 52.1898 38.0081 52.3787 39.0638C52.531 39.9155 52.4181 42.0394 52.4181 43.0322L50.8697 43.6986C50.2295 44.0126 49.887 44.1116 49.887 45.0361V52.4189H45.9847V44.5088C45.9847 43.9195 43.709 43.0672 43.5588 43.0324C43.5588 41.8675 43.4552 40.1315 43.5697 39.0356C43.6867 37.9163 44.5081 37.1261 45.7736 37.1261L45.7738 37.1259ZM33.1176 42.8211V38.9188C33.1176 38.4723 33.5174 37.9121 33.771 37.6736C34.0881 37.3755 34.5416 37.1259 35.1214 37.1259H39.8675C40.9096 37.1259 41.8715 38.0877 41.8715 39.1296V42.8211C41.8715 43.5009 39.4456 43.4846 39.4456 44.7194V52.4187H35.5433V44.9305C35.5433 43.3714 33.1176 43.537 33.1176 42.8211ZM24.6799 37.1259H29.3207C32.1553 37.1259 31.4301 41.204 31.4301 43.0322C31.0503 43.1207 30.4676 43.4483 30.0284 43.6344C28.8187 44.1473 29.0042 44.0999 29.0042 45.9852C29.0042 46.6192 30.2254 46.9617 30.5359 46.1457C30.6434 45.8633 30.5862 45.4597 30.5862 45.1414C31.0003 45.045 32.0276 44.4855 32.1871 44.4729C32.5211 44.4469 33.3872 45.0322 33.8558 45.1414V50.3095H30.5862C30.5862 49.7605 30.7226 48.622 29.8478 48.622C29.4624 48.622 29.0042 48.9131 29.0042 49.2548V52.4189H24.9962V44.6142C24.9962 43.9771 24.4738 43.8473 23.9721 43.6344C23.5328 43.4481 22.9502 43.1205 22.5703 43.0322C22.5703 41.204 21.8451 37.1259 24.6797 37.1259H24.6799ZM12.1291 42.8211V39.1296C12.1291 38.0642 13.085 37.1259 14.1331 37.1259H18.8793C20.0091 37.1259 20.883 38.1975 20.883 38.9188V42.8211C20.883 43.5814 18.4573 43.3404 18.4573 44.9305V52.4187H14.555V44.7194C14.555 43.5117 12.1291 43.4704 12.1291 42.8211ZM30.9027 33.5398C31.9162 33.6242 31.6189 33.9873 33.5393 33.5398C33.8686 34.9531 34.249 35.3063 34.2777 35.6492C33.4568 35.7175 32.6315 36.3808 32.2737 36.9148C31.6451 36.4939 31.1936 35.6721 30.1643 35.6492C30.279 35.1569 30.878 34.6471 30.9027 33.5398ZM20.4613 33.5398C22.3817 33.9873 22.0844 33.6242 23.0979 33.5398C23.1061 33.9081 23.2266 34.3523 23.349 34.6599C23.5351 35.1281 23.7276 35.1823 23.8363 35.6492C22.8072 35.6723 22.3555 36.4939 21.7269 36.9148C21.3693 36.3808 20.5441 35.7175 19.7229 35.6492C19.7524 35.2952 20.1271 34.9739 20.4613 33.5398ZM42.8208 36.9148C42.3755 36.6167 41.6561 35.7278 40.7114 35.6492C40.7436 35.2628 40.979 35.053 41.1211 34.688C41.2691 34.3084 41.3442 34.067 41.3442 33.54C41.8961 33.586 42.1474 33.7511 42.8208 33.7511C43.4251 33.7511 43.5751 33.5827 44.0863 33.54C44.0863 34.4 44.4775 35.0257 44.8246 35.544C44.0383 35.9212 43.9479 35.8234 43.1752 36.426C42.9 36.6406 42.9085 36.5861 42.8208 36.915V36.9148ZM9.91448 33.5398C10.4257 33.5823 10.5757 33.7509 11.18 33.7509C11.8537 33.7509 12.1048 33.5858 12.6567 33.5398C12.6567 34.7938 13.241 35.0651 13.2895 35.6492C12.3117 35.7307 11.7072 36.562 11.18 36.9148C11.0781 36.5329 10.7825 36.3513 10.3327 36.0747C9.95182 35.8405 9.57487 35.7351 9.17627 35.5438C9.5233 35.0255 9.91448 34.3998 9.91448 33.5398ZM35.227 33.329C35.227 30.0388 39.7621 30.1368 39.7621 33.329C39.7621 34.4206 38.7445 35.4384 37.6527 35.4384C36.8854 35.4384 36.5126 35.4388 35.8284 34.7315C35.4991 34.3911 35.227 33.9514 35.227 33.3292V33.329ZM14.2387 33.329C14.2387 30.1093 18.7738 30.0652 18.7738 33.329C18.7738 34.4872 17.5865 35.4384 16.8755 35.4384H16.3481C15.2565 35.4384 14.2387 34.4208 14.2387 33.329ZM45.6684 33.329C45.6684 31.0931 48.1339 30.1865 49.4965 31.5047C50.7998 32.7657 50.4317 35.4384 47.7776 35.4384C46.5548 35.4384 45.6682 34.2194 45.6682 33.329H45.6684ZM6.22301 35.4384C5.76642 35.4384 5.43899 35.4691 5.0278 35.2624C2.9842 34.2355 3.50475 30.9033 6.11758 30.9033C8.98975 30.9033 9.00213 35.4384 6.22301 35.4384ZM26.8948 30.9033C28.3314 30.9033 29.2623 31.9245 29.305 33.1255C29.4141 36.1778 24.5863 36.1778 24.6954 33.1255C24.7358 31.9926 25.6994 30.9033 26.8948 30.9033ZM29.9535 29.7429C29.9535 26.8196 34.4886 26.8285 34.4886 29.6375V30.1648C34.4886 30.9495 33.3749 32.0632 32.5902 32.0632H32.0629C30.8557 32.0632 29.9535 30.9796 29.9535 29.7429ZM21.9377 32.0632C20.9447 32.0632 20.2527 31.803 19.7534 30.8725C18.9927 29.4547 19.9185 27.5281 21.8323 27.5281C24.7827 27.5281 24.7 32.0632 21.9377 32.0632ZM42.6095 27.5281C45.7239 27.5281 45.9771 32.0632 42.5041 32.0632C39.7877 32.0632 39.7699 27.5281 42.6095 27.5281ZM11.4961 32.0632C8.0118 32.0632 8.28847 27.5281 11.3907 27.5281C14.2154 27.5281 14.2222 32.0632 11.4961 32.0632Z" fill="#24282B"/>
<path fill-rule="evenodd" clip-rule="evenodd" d="M6.64472 1.58206H8.43764V5.90631C8.43764 6.37672 8.86472 6.85558 9.28128 6.85558C9.55342 6.85558 9.83463 6.58407 10.0368 6.45099C11.2446 5.65604 11.9263 6.54198 12.3583 6.74314C12.8756 6.98391 13.5001 6.64988 13.5001 6.01174V1.58206H15.3984V10.336H6.64452V1.58206H6.64472ZM10.1251 4.64054V1.58206H11.918V4.64054C11.6356 4.57472 10.3527 4.38388 10.1251 4.64054ZM4.95703 0.84364V11.1796C4.95703 11.6899 5.29065 12.0235 5.80088 12.0235H16.3477C16.6017 12.0235 16.9805 11.6445 16.9805 11.3907V0.738417C16.9805 0.245933 16.7346 0 16.2421 0H5.80088C5.29065 0 4.95703 0.333619 4.95703 0.84364Z" fill="#24282B"/>
<path fill-rule="evenodd" clip-rule="evenodd" d="M22.6758 1.58206H24.5742V6.01174C24.5742 6.64163 25.1733 6.9476 25.6423 6.77594C25.9856 6.6503 25.8849 6.59397 26.2253 6.39735C27.632 5.58424 28.1554 6.85558 28.7928 6.85558C29.2095 6.85558 29.6366 6.37672 29.6366 5.90631V1.58206H31.4295V10.336H22.6756V1.58206H22.6758ZM26.1562 4.64054V1.58206H27.9491V4.64054C27.5573 4.45258 26.5575 4.48477 26.1562 4.64054ZM21.0938 0.632782V11.3907C21.0938 11.7324 21.552 12.0235 21.9374 12.0235H32.2734C32.7836 12.0235 33.1172 11.6899 33.1172 11.1796V0.84364C33.1172 0.458236 32.8261 0 32.4844 0H21.7265C21.4726 0 21.0938 0.378803 21.0938 0.632782Z" fill="#24282B"/>
<path fill-rule="evenodd" clip-rule="evenodd" d="M42.6095 4.64095V1.58247H44.4027V4.64095C44.0109 4.45299 43.011 4.48518 42.6095 4.64095ZM37.4417 0.949482V11.0746C37.4417 11.5095 37.7961 12.0239 38.1799 12.0239H48.7267C49.271 12.0239 49.5703 11.5848 49.5703 11.0746V7.9105C49.5703 6.76026 47.8829 6.76026 47.8829 7.9105V10.3362H39.1289V1.58226H41.0273V6.01194C41.0273 6.63998 41.5779 6.967 42.083 6.76171C42.606 6.54899 43.2087 5.74827 44.2933 6.33174C44.5475 6.46853 44.6608 6.68743 45.0014 6.79163C45.6719 6.99671 46.0899 6.39302 46.0899 5.69545V1.58206H47.8829C47.8829 3.38013 47.5457 4.95703 48.7267 4.95703C49.9392 4.95703 49.5703 2.99762 49.5703 1.05471C49.5703 0.425637 49.3552 0 48.7267 0H38.2853C37.741 0 37.4417 0.439048 37.4417 0.949276V0.949482Z" fill="#24282B"/>
<path fill-rule="evenodd" clip-rule="evenodd" d="M26.2616 21.3048C25.9451 21.0929 25.0501 20.0392 24.7852 20.0392C24.2251 20.0392 23.8359 20.3116 23.8359 20.8829C23.8359 21.526 26.6342 24.1524 27.0001 24.1524C27.7168 24.1524 28.448 23.179 28.872 22.755C29.2155 22.4115 30.3748 21.3807 30.3748 20.8829C30.3748 20.5152 29.8986 20.0392 29.5312 20.0392C29.0354 20.0392 28.3508 21.0358 27.9491 21.3048C27.9491 19.9338 27.9491 18.5626 27.9491 17.1914C27.9491 16.0177 28.2458 13.9219 27.1055 13.9219C25.9152 13.9219 26.2616 15.8293 26.2616 17.1914C26.2616 18.5626 26.2616 19.9336 26.2616 21.3048Z" fill="#24282B"/>
<path fill-rule="evenodd" clip-rule="evenodd" d="M10.1254 21.1994C9.70963 20.9211 9.10409 20.0392 8.54331 20.0392C8.17565 20.0392 7.69946 20.5154 7.69946 20.8829C7.69946 21.3058 10.5461 24.1524 10.969 24.1524C11.5558 24.1524 14.2386 21.4697 14.2386 20.8829C14.2386 20.3042 13.7766 20.0392 13.3947 20.0392C12.8989 20.0392 12.2146 21.0358 11.8126 21.3048L11.8172 15.1831C11.8219 14.5718 11.7126 13.9219 10.969 13.9219C9.84766 13.9219 10.1254 15.9232 10.1254 17.086C10.1254 18.457 10.1254 19.8282 10.1254 21.1992V21.1994Z" fill="#24282B"/>
<path fill-rule="evenodd" clip-rule="evenodd" d="M42.7153 21.3054C42.242 20.9884 41.689 20.0398 41.0278 20.0398C40.3636 20.0398 40.2896 20.621 40.2896 21.0945C40.2896 21.3772 43.0307 24.153 43.4537 24.153C43.9975 24.153 44.3309 23.6454 44.6402 23.3357C44.9922 22.9829 46.5881 21.4737 46.7183 21.1845C46.9471 20.6767 46.4987 20.0396 45.985 20.0396C45.4048 20.0396 44.7349 21.0124 44.2975 21.3051C44.2975 20.7378 44.385 14.7991 44.2317 14.41C43.9379 13.6639 42.7289 13.6835 42.7086 14.9703L42.7155 21.3051L42.7153 21.3054Z" fill="#24282B"/>
</g>
<defs>
<clipPath id="clip0_199_1235">
<rect width="54" height="54" fill="white"/>
</clipPath>
</defs>
</svg>
