<svg width="68" height="65" viewBox="0 0 68 65" fill="none" xmlns="http://www.w3.org/2000/svg">
<g clip-path="url(#clip0_566_1369)">
<path fill-rule="evenodd" clip-rule="evenodd" d="M11.0236 60.4897H39.4455V62.8774H11.0236V60.4897ZM68.0002 35.1529V38.2121C67.9092 38.8324 67.6894 39.2652 67.2033 39.2652C65.7073 39.2652 66.0014 38.3082 66.0086 36.6116C66.0134 35.4466 66.1074 34.3568 64.9456 34.3568H46.6173C45.9749 34.3568 45.555 34.7764 45.555 35.4181V52.7957H54.8517C55.3884 52.7957 56.0698 53.2811 56.3185 53.5857C56.9051 54.3045 57.481 57.7124 55.6527 58.7689C55.418 58.9046 55.2186 59.0301 54.8517 59.0301H45.555C45.555 60.9357 45.1859 62.877 46.6173 62.877H64.9456C65.9846 62.877 66.0186 61.951 66.0099 60.889L66.0075 43.2439C66.0023 42.1989 65.8945 41.2546 66.9376 41.2546C67.4464 41.2546 68 41.4747 68 42.0505V62.0811C68 63.7574 66.4001 64.9996 64.6797 64.9996H46.8828C45.9672 64.9996 45.1172 64.6599 44.5988 64.2298C44.2551 63.9446 43.5627 62.9123 43.5627 62.3464V47.6221H38.7814V58.4996C39.4261 58.4996 41.4378 58.2022 41.4378 59.2955V63.9383C41.4378 64.6228 40.8848 64.9996 40.2423 64.9996H1.32826C0.536192 64.9996 0 64.729 0 63.9383V59.5171C0.132412 58.2961 0.684747 58.4996 2.65631 58.4996V53.4587C2.65631 51.5307 4.78145 51.871 4.78145 53.1935V58.4996H15.1408V23.214H4.78145V49.0813C4.78145 50.5051 2.65631 50.5051 2.65631 49.0813V22.5507C2.65631 21.7906 2.87663 21.6481 3.18421 21.221L8.32996 14.289C8.67375 13.8408 8.89255 13.765 8.90934 13.0105L8.89844 7.82623C8.89822 6.24508 8.6491 3.71419 11.6876 3.71419C12.6915 3.71419 15.1408 3.44838 15.1408 4.51011C15.1408 6.15749 14.2416 5.84287 11.9417 5.82501C11.4468 5.8213 11.0234 5.72261 11.0234 6.23462V12.8673H22.8436V10.3469H15.406C14.0217 10.3469 13.7619 8.2243 15.8046 8.2243H22.8436V5.83677H18.1952C16.7675 5.83677 16.7284 3.71419 18.328 3.71419H22.8436V2.65312C22.8436 1.20139 24.3003 0 26.0311 0H53.3904C55.4422 0 56.8436 1.15868 56.8436 3.18366V28.3877C58.5056 28.3877 61.5565 28.1008 62.5227 28.9503C63.4216 29.7406 63.2185 30.9145 63.2185 32.2348H64.8123C66.6314 32.2348 67.9998 33.66 67.9998 35.1531L68.0002 35.1529ZM1.99251 60.4897H8.89865V62.8774H1.99251V60.4897ZM22.844 51.3366C22.844 50.8895 23.0787 50.4082 23.5083 50.4082H30.4144C30.7253 50.4082 30.9458 50.6282 30.9458 50.9387V58.5H22.8442V51.3368L22.844 51.3366ZM54.3208 57.0406H45.5552V54.7856H54.3208C54.8991 54.7856 54.7193 55.3475 54.7193 56.6426C54.7193 56.9483 54.6268 57.0406 54.3208 57.0406ZM20.8519 50.9385V58.4998H17.1333V23.2142H36.6565V58.4998H33.0705V51.3366C33.0705 49.4933 31.8613 48.2856 30.0159 48.2856H23.9066C22.2459 48.2856 20.8517 49.3162 20.8517 50.9387L20.8519 50.9385ZM43.1646 45.6325H38.7817V43.7753H43.5629V45.2346C43.5629 45.5403 43.4704 45.6327 43.1643 45.6327L43.1646 45.6325ZM50.3364 30.5099H61.2269V32.2344H50.3364V30.5099ZM10.0941 15.6529C10.1868 15.9993 12.6699 19.2597 13.092 19.822C13.4692 20.3245 13.7988 20.6962 14.0784 21.2245H5.84402C5.95767 20.7994 6.52331 20.1876 6.81256 19.8039C7.23881 19.2383 9.51469 15.8076 10.0941 15.6531V15.6529ZM12.0864 14.857H22.8442V16.9793C21.4952 16.9793 20.1879 16.7268 20.1879 18.0406C20.1879 18.8313 20.7239 19.1017 21.5162 19.1017H26.2972C27.8968 19.1017 27.8578 16.9791 26.43 16.9791H24.8363V14.8568H30.6801C31.0499 14.8568 31.2159 15.1973 31.405 15.4592L33.2241 17.8873C33.6379 18.4498 33.9943 18.9603 34.3988 19.4996C34.6108 19.7822 34.7899 20.0244 35.0255 20.333C35.2609 20.6417 35.4949 20.8526 35.5942 21.2241L17.0094 21.2149C16.4232 21.1119 15.8438 20.0377 15.2546 19.2534C14.4401 18.169 12.7198 16.061 12.0864 14.8568V14.857ZM24.8363 5.83656H30.0161C30.3221 5.83656 30.4146 5.92894 30.4146 6.23462V12.8673H24.8365V10.3469C25.9303 10.3469 27.0943 10.5412 27.0943 9.28581C27.0943 8.08921 25.7196 8.22452 24.8365 8.22452V5.83699L24.8363 5.83656ZM24.8363 3.05075C24.8363 2.43132 25.1461 2.12215 25.766 2.12215H53.7894C54.4093 2.12215 54.7191 2.43154 54.7191 3.05075V28.3873C49.5042 28.3873 48.2113 27.7825 48.2113 32.2344H46.7504C45.1403 32.2344 43.5629 33.472 43.5629 35.0202V41.6529H38.7817V22.5507C38.7817 21.4125 36.7671 19.205 36.1064 18.325L33.1082 14.289C32.2898 13.2229 32.5395 13.4146 32.5395 11.4077C32.5395 9.88193 32.8161 5.99539 32.1416 4.9073C31.6975 4.19069 30.9161 3.71397 29.7506 3.71397H24.8365V3.05075H24.8363Z" fill="white"/>
<path fill-rule="evenodd" clip-rule="evenodd" d="M50.4689 41.2555H61.2268C62.1458 41.2555 62.5106 39.2656 61.0939 39.2656H50.4689C49.1005 39.2656 49.147 41.2555 50.4689 41.2555Z" fill="white"/>
<path fill-rule="evenodd" clip-rule="evenodd" d="M52.5939 46.0309H59.1017C60.0208 46.0309 60.3853 44.041 58.9689 44.041H52.5939C51.2255 44.041 51.272 46.0309 52.5939 46.0309Z" fill="white"/>
<path fill-rule="evenodd" clip-rule="evenodd" d="M11.024 50.0107C11.024 51.5256 10.6865 53.4597 12.0863 53.4597C13.5141 53.4597 13.1489 51.73 13.1489 49.878C13.1489 48.3411 11.0238 48.5856 11.0238 50.0107H11.024Z" fill="white"/>
<path fill-rule="evenodd" clip-rule="evenodd" d="M11.024 42.5814C11.024 44.0963 10.6865 46.0304 12.0863 46.0304C13.5016 46.0304 13.1489 44.3484 13.1489 42.5814C13.1489 40.9259 11.0238 41.1138 11.0238 42.5814H11.024Z" fill="white"/>
<path fill-rule="evenodd" clip-rule="evenodd" d="M11.024 35.1527C11.024 36.6676 10.6865 38.6017 12.0863 38.6017C13.5016 38.6017 13.1489 36.9195 13.1489 35.1527C13.1489 33.4972 11.0238 33.685 11.0238 35.1527H11.024Z" fill="white"/>
<path fill-rule="evenodd" clip-rule="evenodd" d="M20.3203 42.5814C20.3203 44.3484 19.9676 46.0304 21.3826 46.0304C22.7825 46.0304 22.445 44.0963 22.445 42.5814C22.445 41.1138 20.3201 40.9259 20.3201 42.5814H20.3203Z" fill="white"/>
<path fill-rule="evenodd" clip-rule="evenodd" d="M20.3203 35.1534C20.3203 36.9201 19.9676 38.6024 21.3826 38.6024C22.7739 38.6024 22.445 36.8411 22.445 35.1534C22.445 33.6103 20.3201 33.6103 20.3201 35.1534H20.3203Z" fill="white"/>
<path fill-rule="evenodd" clip-rule="evenodd" d="M20.3203 27.7248C20.3203 29.4916 19.9676 31.1738 21.3826 31.1738C22.7739 31.1738 22.445 29.4127 22.445 27.7248C22.445 26.1816 20.3201 26.1816 20.3201 27.7248H20.3203Z" fill="white"/>
<path fill-rule="evenodd" clip-rule="evenodd" d="M25.8992 34.8876C25.8992 36.8235 25.5216 38.602 26.9617 38.602C28.304 38.602 28.0241 36.7533 28.0241 35.4184C28.0241 33.2945 25.899 33.8982 25.899 34.8876H25.8992Z" fill="white"/>
<path fill-rule="evenodd" clip-rule="evenodd" d="M25.8991 27.459C25.8991 29.4951 25.5302 31.1732 26.9617 31.1732C28.3336 31.1732 28.024 29.3513 28.024 27.9896C28.024 25.918 25.8989 26.4899 25.8989 27.459H25.8991Z" fill="white"/>
<path fill-rule="evenodd" clip-rule="evenodd" d="M25.8983 42.449C25.8983 44.3008 25.5331 46.0308 26.9608 46.0308C28.6261 46.0308 27.9972 42.2055 27.7848 41.8913C27.1587 40.9653 25.898 41.4169 25.898 42.449H25.8983Z" fill="white"/>
<path fill-rule="evenodd" clip-rule="evenodd" d="M11.0236 27.99C11.0236 30.1447 10.7241 31.1737 12.3519 31.1737C13.4433 31.1737 13.1488 28.7951 13.1488 27.7247C13.1488 26.2897 11.0236 26.0008 11.0236 27.9898V27.99Z" fill="white"/>
<path fill-rule="evenodd" clip-rule="evenodd" d="M31.4769 35.0203C31.4769 37.3715 31.1246 38.6021 32.6723 38.6021C33.8531 38.6021 33.4691 36.3884 33.4691 34.755C33.4691 33.8172 31.4769 33.5338 31.4769 35.0203Z" fill="white"/>
<path fill-rule="evenodd" clip-rule="evenodd" d="M6.77412 42.4489C6.77412 44.7863 6.37405 46.0306 7.96954 46.0306C9.12285 46.0306 8.76641 43.6503 8.76641 42.1835C8.76641 41.2797 6.77412 40.9244 6.77412 42.4489Z" fill="white"/>
<path fill-rule="evenodd" clip-rule="evenodd" d="M31.4771 27.5922C31.4771 29.744 31.0962 31.1739 32.5397 31.1739C33.8522 31.1739 33.4692 29.6257 33.4692 27.327C33.4692 26.3742 31.4769 26.2191 31.4769 27.5922H31.4771Z" fill="white"/>
<path fill-rule="evenodd" clip-rule="evenodd" d="M31.4773 42.4489C31.4773 44.6519 31.104 46.0306 32.6727 46.0306C33.8262 46.0306 33.4696 43.6503 33.4696 42.1835C33.4696 41.2797 31.4773 40.9244 31.4773 42.4489Z" fill="white"/>
<path fill-rule="evenodd" clip-rule="evenodd" d="M6.77401 49.8775C6.77401 51.3397 6.43305 53.4592 7.70373 53.4592C9.17771 53.4592 8.76608 51.8275 8.76608 49.6123C8.76608 48.7086 6.77379 48.353 6.77379 49.8775H6.77401Z" fill="white"/>
<path fill-rule="evenodd" clip-rule="evenodd" d="M6.77355 35.0209C6.77355 37.5276 6.39398 38.6026 7.96896 38.6026C9.10265 38.6026 8.76584 36.3548 8.76584 35.0209C8.76584 34.6963 8.69559 34.5255 8.53221 34.3254C7.93188 33.5901 6.77355 34.0326 6.77355 35.0209Z" fill="white"/>
<path fill-rule="evenodd" clip-rule="evenodd" d="M6.77402 27.5917C6.77402 29.7435 6.39293 31.1734 7.83637 31.1734C9.12581 31.1734 8.76609 29.7274 8.76609 27.5917C8.76609 26.225 6.77381 26.2714 6.77381 27.5917H6.77402Z" fill="white"/>
</g>
<defs>
<clipPath id="clip0_566_1369">
<rect width="68" height="65" fill="white"/>
</clipPath>
</defs>
</svg>
