<svg width="68" height="65" viewBox="0 0 68 65" fill="none" xmlns="http://www.w3.org/2000/svg">
<g clip-path="url(#clip0_199_1297)">
<path fill-rule="evenodd" clip-rule="evenodd" d="M11.0233 60.4897H39.4452V62.8774H11.0233V60.4897ZM68 35.1529V38.2121C67.909 38.8324 67.6891 39.2652 67.2031 39.2652C65.7071 39.2652 66.0011 38.3082 66.0083 36.6116C66.0131 35.4466 66.1072 34.3568 64.9453 34.3568H46.6171C45.9746 34.3568 45.5547 34.7764 45.5547 35.4181V52.7957H54.8515C55.3881 52.7957 56.0696 53.2811 56.3183 53.5857C56.9048 54.3045 57.4807 57.7124 55.6525 58.7689C55.4178 58.9046 55.2184 59.0301 54.8515 59.0301H45.5547C45.5547 60.9357 45.1856 62.877 46.6171 62.877H64.9453C65.9843 62.877 66.0184 61.951 66.0096 60.889L66.0072 43.2439C66.002 42.1989 65.8942 41.2546 66.9374 41.2546C67.4461 41.2546 67.9997 41.4747 67.9997 42.0505V62.0811C67.9997 63.7574 66.3999 64.9996 64.6794 64.9996H46.8825C45.967 64.9996 45.1169 64.6599 44.5986 64.2298C44.2548 63.9446 43.5624 62.9123 43.5624 62.3464V47.6221H38.7812V58.4996C39.4258 58.4996 41.4375 58.2022 41.4375 59.2955V63.9383C41.4375 64.6228 40.8845 64.9996 40.2421 64.9996H1.32802C0.535948 64.9996 -0.000244141 64.729 -0.000244141 63.9383V59.5171C0.132168 58.2961 0.684503 58.4996 2.65607 58.4996V53.4587C2.65607 51.5307 4.7812 51.871 4.7812 53.1935V58.4996H15.1405V23.214H4.7812V49.0813C4.7812 50.5051 2.65607 50.5051 2.65607 49.0813V22.5507C2.65607 21.7906 2.87639 21.6481 3.18397 21.221L8.32971 14.289C8.67351 13.8408 8.8923 13.765 8.9091 13.0105L8.89819 7.82623C8.89797 6.24508 8.64886 3.71419 11.6874 3.71419C12.6912 3.71419 15.1405 3.44838 15.1405 4.51011C15.1405 6.15749 14.2414 5.84288 11.9415 5.82501C11.4465 5.8213 11.0231 5.72261 11.0231 6.23462V12.8673H22.8433V10.3469H15.4058C14.0215 10.3469 13.7617 8.2243 15.8043 8.2243H22.8433V5.83677H18.195C16.7672 5.83677 16.7282 3.71419 18.3278 3.71419H22.8433V2.65312C22.8433 1.20139 24.3001 0 26.0308 0H53.3901C55.442 0 56.8433 1.15868 56.8433 3.18366V28.3877C58.5054 28.3877 61.5563 28.1008 62.5224 28.9503C63.4214 29.7406 63.2183 30.9145 63.2183 32.2348H64.812C66.6311 32.2348 67.9995 33.66 67.9995 35.1531L68 35.1529ZM1.99226 60.4897H8.89841V62.8774H1.99226V60.4897ZM22.8438 51.3366C22.8438 50.8895 23.0785 50.4082 23.508 50.4082H30.4142C30.725 50.4082 30.9456 50.6282 30.9456 50.9387V58.5H22.844V51.3368L22.8438 51.3366ZM54.3205 57.0406H45.5549V54.7856H54.3205C54.8988 54.7856 54.7191 55.3475 54.7191 56.6426C54.7191 56.9483 54.6266 57.0406 54.3205 57.0406ZM20.8517 50.9385V58.4998H17.133V23.2142H36.6563V58.4998H33.0703V51.3366C33.0703 49.4933 31.8611 48.2856 30.0156 48.2856H23.9063C22.2456 48.2856 20.8515 49.3162 20.8515 50.9387L20.8517 50.9385ZM43.1643 45.6325H38.7814V43.7753H43.5626V45.2346C43.5626 45.5403 43.4702 45.6327 43.1641 45.6327L43.1643 45.6325ZM50.3362 30.5099H61.2267V32.2344H50.3362V30.5099ZM10.0938 15.6529C10.1865 15.9993 12.6696 19.2597 13.0917 19.822C13.4689 20.3245 13.7985 20.6962 14.0782 21.2245H5.84377C5.95742 20.7994 6.52307 20.1876 6.81232 19.8039C7.23857 19.2383 9.51444 15.8076 10.0938 15.6531V15.6529ZM12.0861 14.857H22.844V16.9793C21.495 16.9793 20.1877 16.7268 20.1877 18.0406C20.1877 18.8313 20.7237 19.1017 21.5159 19.1017H26.297C27.8966 19.1017 27.8575 16.9791 26.4298 16.9791H24.8361V14.8568H30.6799C31.0496 14.8568 31.2156 15.1973 31.4047 15.4592L33.2238 17.8873C33.6376 18.4498 33.9941 18.9603 34.3985 19.4996C34.6105 19.7822 34.7896 20.0244 35.0252 20.333C35.2606 20.6417 35.4947 20.8526 35.5939 21.2241L17.0091 21.2149C16.423 21.1119 15.8436 20.0377 15.2544 19.2534C14.4399 18.169 12.7196 16.061 12.0861 14.8568V14.857ZM24.8361 5.83656H30.0158C30.3219 5.83656 30.4144 5.92894 30.4144 6.23462V12.8673H24.8363V10.3469C25.93 10.3469 27.094 10.5412 27.094 9.28581C27.094 8.08921 25.7193 8.22452 24.8363 8.22452V5.83699L24.8361 5.83656ZM24.8361 3.05075C24.8361 2.43132 25.1458 2.12215 25.7658 2.12215H53.7891C54.4091 2.12215 54.7188 2.43154 54.7188 3.05075V28.3873C49.504 28.3873 48.211 27.7825 48.211 32.2344H46.7501C45.14 32.2344 43.5626 33.472 43.5626 35.0202V41.6529H38.7814V22.5507C38.7814 21.4125 36.7669 19.205 36.1061 18.325L33.108 14.289C32.2895 13.2229 32.5393 13.4146 32.5393 11.4077C32.5393 9.88193 32.8159 5.99539 32.1414 4.9073C31.6973 4.19069 30.9159 3.71397 29.7504 3.71397H24.8363V3.05075H24.8361Z" fill="#24282B"/>
<path fill-rule="evenodd" clip-rule="evenodd" d="M50.4687 41.2555H61.2265C62.1456 41.2555 62.5103 39.2656 61.0937 39.2656H50.4687C49.1003 39.2656 49.1467 41.2555 50.4687 41.2555Z" fill="#24282B"/>
<path fill-rule="evenodd" clip-rule="evenodd" d="M52.5937 46.0309H59.1015C60.0205 46.0309 60.385 44.041 58.9686 44.041H52.5937C51.2253 44.041 51.2717 46.0309 52.5937 46.0309Z" fill="#24282B"/>
<path fill-rule="evenodd" clip-rule="evenodd" d="M11.0233 50.0107C11.0233 51.5256 10.6858 53.4597 12.0856 53.4597C13.5133 53.4597 13.1482 51.73 13.1482 49.878C13.1482 48.3411 11.023 48.5856 11.023 50.0107H11.0233Z" fill="#24282B"/>
<path fill-rule="evenodd" clip-rule="evenodd" d="M11.0233 42.5814C11.0233 44.0963 10.6858 46.0304 12.0856 46.0304C13.5009 46.0304 13.1482 44.3484 13.1482 42.5814C13.1482 40.9259 11.023 41.1138 11.023 42.5814H11.0233Z" fill="#24282B"/>
<path fill-rule="evenodd" clip-rule="evenodd" d="M11.0233 35.1527C11.0233 36.6676 10.6858 38.6017 12.0856 38.6017C13.5009 38.6017 13.1482 36.9195 13.1482 35.1527C13.1482 33.4972 11.023 33.685 11.023 35.1527H11.0233Z" fill="#24282B"/>
<path fill-rule="evenodd" clip-rule="evenodd" d="M20.3203 42.5814C20.3203 44.3484 19.9676 46.0304 21.3826 46.0304C22.7825 46.0304 22.445 44.0963 22.445 42.5814C22.445 41.1138 20.3201 40.9259 20.3201 42.5814H20.3203Z" fill="#24282B"/>
<path fill-rule="evenodd" clip-rule="evenodd" d="M20.3205 35.1534C20.3205 36.9201 19.9678 38.6024 21.3829 38.6024C22.7742 38.6024 22.4452 36.8411 22.4452 35.1534C22.4452 33.6103 20.3203 33.6103 20.3203 35.1534H20.3205Z" fill="#24282B"/>
<path fill-rule="evenodd" clip-rule="evenodd" d="M20.3205 27.7248C20.3205 29.4916 19.9678 31.1738 21.3829 31.1738C22.7742 31.1738 22.4452 29.4127 22.4452 27.7248C22.4452 26.1816 20.3203 26.1816 20.3203 27.7248H20.3205Z" fill="#24282B"/>
<path fill-rule="evenodd" clip-rule="evenodd" d="M25.8984 34.8876C25.8984 36.8235 25.5208 38.602 26.961 38.602C28.3032 38.602 28.0234 36.7533 28.0234 35.4184C28.0234 33.2945 25.8982 33.8982 25.8982 34.8876H25.8984Z" fill="#24282B"/>
<path fill-rule="evenodd" clip-rule="evenodd" d="M25.8984 27.459C25.8984 29.4951 25.5295 31.1732 26.9609 31.1732C28.3328 31.1732 28.0233 29.3513 28.0233 27.9896C28.0233 25.918 25.8982 26.4899 25.8982 27.459H25.8984Z" fill="#24282B"/>
<path fill-rule="evenodd" clip-rule="evenodd" d="M25.8985 42.449C25.8985 44.3008 25.5333 46.0308 26.9611 46.0308C28.6264 46.0308 27.9975 42.2055 27.785 41.8913C27.1589 40.9653 25.8983 41.4169 25.8983 42.449H25.8985Z" fill="#24282B"/>
<path fill-rule="evenodd" clip-rule="evenodd" d="M11.0234 27.99C11.0234 30.1447 10.7239 31.1737 12.3516 31.1737C13.443 31.1737 13.1485 28.7951 13.1485 27.7247C13.1485 26.2897 11.0234 26.0008 11.0234 27.9898V27.99Z" fill="#24282B"/>
<path fill-rule="evenodd" clip-rule="evenodd" d="M31.4766 35.0203C31.4766 37.3715 31.1243 38.6021 32.672 38.6021C33.8528 38.6021 33.4689 36.3884 33.4689 34.755C33.4689 33.8172 31.4766 33.5338 31.4766 35.0203Z" fill="#24282B"/>
<path fill-rule="evenodd" clip-rule="evenodd" d="M6.77363 42.4489C6.77363 44.7863 6.37356 46.0306 7.96905 46.0306C9.12237 46.0306 8.76592 43.6503 8.76592 42.1835C8.76592 41.2797 6.77363 40.9244 6.77363 42.4489Z" fill="#24282B"/>
<path fill-rule="evenodd" clip-rule="evenodd" d="M31.4764 27.5922C31.4764 29.744 31.0955 31.1739 32.5389 31.1739C33.8515 31.1739 33.4684 29.6257 33.4684 27.327C33.4684 26.3742 31.4761 26.2191 31.4761 27.5922H31.4764Z" fill="#24282B"/>
<path fill-rule="evenodd" clip-rule="evenodd" d="M31.4765 42.4489C31.4765 44.6519 31.1033 46.0306 32.672 46.0306C33.8255 46.0306 33.4688 43.6503 33.4688 42.1835C33.4688 41.2797 31.4765 40.9244 31.4765 42.4489Z" fill="#24282B"/>
<path fill-rule="evenodd" clip-rule="evenodd" d="M6.77352 49.8775C6.77352 51.3397 6.43256 53.4592 7.70324 53.4592C9.17722 53.4592 8.76559 51.8275 8.76559 49.6123C8.76559 48.7086 6.7733 48.353 6.7733 49.8775H6.77352Z" fill="#24282B"/>
<path fill-rule="evenodd" clip-rule="evenodd" d="M6.7733 35.0209C6.7733 37.5276 6.39374 38.6026 7.96872 38.6026C9.1024 38.6026 8.76559 36.3548 8.76559 35.0209C8.76559 34.6963 8.69535 34.5255 8.53196 34.3254C7.93164 33.5901 6.7733 34.0326 6.7733 35.0209Z" fill="#24282B"/>
<path fill-rule="evenodd" clip-rule="evenodd" d="M6.77354 27.5917C6.77354 29.7435 6.39244 31.1734 7.83589 31.1734C9.12532 31.1734 8.76561 29.7274 8.76561 27.5917C8.76561 26.225 6.77332 26.2714 6.77332 27.5917H6.77354Z" fill="#24282B"/>
</g>
<defs>
<clipPath id="clip0_199_1297">
<rect width="68" height="65" fill="white"/>
</clipPath>
</defs>
</svg>
