<svg width="68" height="68" viewBox="0 0 68 68" fill="none" xmlns="http://www.w3.org/2000/svg">
<path fill-rule="evenodd" clip-rule="evenodd" d="M28.8203 65.8735H8.7658C7.90503 65.8735 6.65078 65.1988 6.14614 64.774C5.55236 64.2742 4.86095 63.375 4.78143 62.4192L11.9616 62.411C12.8735 62.4623 13.4322 63.32 14.7426 64.0135C15.615 63.5518 18.096 61.565 18.9926 61.0904C19.9849 61.6159 22.7219 63.8391 23.3755 64.0135C23.9092 63.6561 24.4764 63.2657 25.0044 62.853C25.8129 62.2207 26.0116 62.4183 27.3598 62.4192C29.2633 62.4204 31.1671 62.4192 33.0708 62.4192C32.3601 63.9014 31.4911 65.8738 28.8208 65.8738L28.8203 65.8735ZM28.6874 60.2933C28.7113 60.2727 28.7488 60.2098 28.7596 60.2328L32.1669 57.7952C32.7062 57.4264 33.9403 56.3665 35.1924 57.5059C36.097 58.3287 35.7056 59.5005 35.0158 59.9808C34.204 60.5462 29.8351 60.2933 28.6874 60.2933ZM4.51559 56.9717C4.77043 56.9717 5.51959 57.5596 5.7483 57.7315L8.08126 59.3833C8.31502 59.5562 8.45367 59.631 8.7108 59.8164C8.95303 59.9914 9.10589 60.1273 9.29679 60.2931C7.95522 60.2931 3.8118 60.5739 2.96479 60.1172C1.62551 59.3955 1.42797 56.9715 4.51582 56.9715L4.51559 56.9717ZM8.49996 56.9717C14.2237 56.9717 12.4105 56.4286 16.229 59.0716C16.5523 59.2955 16.7847 59.536 17.1328 59.6289C17.0235 60.0386 16.9616 59.9803 16.6355 60.1945L14.7421 61.4889C14.1532 61.1773 13.6788 60.7988 13.1494 60.4251L10.0411 58.2201C9.29954 57.7304 8.94203 57.5474 8.50019 56.9717H8.49996ZM16.9999 56.9717H29.6172L23.375 61.4891C22.9893 61.3862 22.8401 61.2255 22.5399 60.996C21.4731 60.1805 17.3134 57.4399 17.0001 56.9717H16.9999ZM4.11729 51.657H33.8671C36.2647 51.657 36.3447 54.9788 33.8671 54.9788H3.85145C1.47128 54.9788 1.32209 51.657 4.11729 51.657ZM14.2109 41.0277H23.7735C28.5758 41.0277 33.0703 45.4178 33.0703 49.664H4.64851C4.70786 46.997 6.65536 44.1012 8.8962 42.6199C10.3826 41.6373 12.2047 41.0277 14.2109 41.0277ZM15.5392 20.9651H46.4844C47.0388 20.9651 47.5379 23.5138 47.5471 23.6223H14.4767C14.4939 23.4175 14.9761 20.9651 15.5394 20.9651H15.5392ZM19.2579 16.4477H42.7659C43.2996 16.4477 43.7206 18.5097 43.8283 18.9721H18.1955C18.2104 18.7928 18.7212 16.4477 19.2579 16.4477ZM32.0079 6.08436V14.4547H30.0157V4.22412C30.8595 4.15397 38.3468 2.0984 39.0469 2.0984C39.631 2.0984 39.9766 2.61768 39.9766 3.29423C39.9766 4.18767 37.3739 4.55197 36.1811 4.81172L32.9622 5.57746C32.5114 5.67352 32.0079 5.58067 32.0079 6.08436ZM28.0235 2.62983C28.0235 6.23636 28.1942 10.2565 28.0405 13.8075C28.0017 14.7005 27.8189 14.4554 25.8986 14.455H17.3987L15.9377 18.9724H13.6797L12.1688 23.8385C11.9818 24.3912 11.7377 25.0139 11.6875 25.6157H14.7424C14.7424 27.9086 15.1228 30.0366 15.1372 32.2625L15.6719 38.9022C12.1193 38.9022 9.10337 39.4701 6.60701 41.7916C5.17446 43.1238 5.0617 43.1738 3.92616 45.0886C3.31152 46.1249 2.55755 48.2659 2.5234 49.797C2.11456 49.9932 2.06117 49.9728 1.64224 50.244C0.363924 51.0719 0 52.1856 0 53.6499C0 54.6913 0.634575 55.4024 1.06244 56.0416C0.275693 57.2173 0 57.071 0 58.9647C0 60.2357 0.916227 61.3378 1.78135 61.8328C2.72576 62.3734 2.48055 61.9866 2.76151 63.1107C3.46965 65.9435 6.07464 67.9993 9.69509 67.9993H28.0233C31.0683 67.9993 32.958 66.7441 34.1882 64.8662C35.701 62.5573 34.3498 62.6237 35.8596 61.8876C37.3641 61.1542 37.7188 59.8258 37.7188 58.3001C37.7188 57.2468 37.1525 56.6125 36.6562 56.0412C37.5474 54.7096 37.7188 54.9632 37.7188 53.1183C37.7188 52.0075 37.2172 51.1783 36.6282 50.6221C36.4453 50.4492 36.3174 50.3476 36.1043 50.216C35.904 50.0925 35.5653 49.9717 35.4766 49.9139C35.0362 49.6259 35.2894 50.0271 35.1473 49.3132C34.6876 47.0043 34.3729 45.4423 32.7651 43.4588C28.5616 38.2744 23.7625 38.9015 17.6643 38.9015L16.9039 27.7043C16.8393 27.2297 16.8808 26.7593 16.845 26.2712C16.774 25.2952 16.7231 25.6148 20.4533 25.6148C30.4142 25.6148 40.3752 25.6148 50.3361 25.6148C50.2568 24.6615 49.6504 23.3073 49.3784 22.3214C49.0903 21.2783 48.601 20.0756 48.3439 18.9717H46.0859L44.6249 14.4543L35.0547 14.4621C34.4907 14.471 33.9998 14.5937 33.9998 14.0556V7.41225L37.7076 6.60433C38.9552 6.34664 40.2878 6.1231 41.1126 5.36012C42.7904 3.80824 42.0669 0.941768 40.1279 0.218903C38.8365 -0.262549 37.9748 0.136827 36.3101 0.55546L28.0233 2.62891L28.0235 2.62983Z" fill="white"/>
<path fill-rule="evenodd" clip-rule="evenodd" d="M54.5857 32.6574H56.445V47.0069H54.5857V32.6574ZM50.6014 29.7345H52.4606V47.0069H50.6014V29.7345ZM46.617 45.1469V32.6574H48.4763V47.0069C47.1148 47.0069 47.2491 47.1232 46.9601 46.265C46.8283 45.8739 46.617 45.4972 46.617 45.1467V45.1469ZM58.5701 47.0069V32.6574H60.5623V42.4895L59.1343 46.6415C58.8928 47.0977 59.1366 46.9599 58.5701 47.0069ZM63.0857 65.8739H43.1639C43.1639 64.3626 41.3921 49.7764 41.1753 47.2692L40.5078 41.0282H42.8982L44.9844 46.9134C45.2406 47.5606 45.531 48.3286 45.6873 49.0001H60.5623C60.6104 48.4206 62.2662 44.0609 62.6031 43.0696L63.3515 41.028H65.7423L64.3902 53.3607C64.1667 55.3713 63.9781 57.4865 63.7109 59.5902L63.0857 65.8739ZM62.5545 28.273H64.5467V38.9023H62.5545V28.273ZM42.6326 29.7345H44.6248V39.5664L44.3393 38.9087L42.6326 38.902V29.7343V29.7345ZM60.5623 30.5317H54.5857V27.6086H48.4763V30.5317H46.617V27.6086H40.9061C40.6001 27.6086 40.5075 27.7009 40.5075 28.0072V38.9023H38.2495L40.9297 64.2557C41.0498 65.3363 41.3044 66.8251 41.3044 67.9998H64.5464C65.0522 67.9998 64.948 67.5117 65.0543 66.5149C65.4583 62.7256 67.9996 40.4269 67.9996 38.9025H66.5386V26.1475H60.5621V30.5321L60.5623 30.5317Z" fill="white"/>
<path fill-rule="evenodd" clip-rule="evenodd" d="M59.5 61.8877H46.75L45.8203 52.9859H60.4297C60.1948 53.9954 59.5002 61.1827 59.5002 61.8877H59.5ZM45.2888 64.0137H60.9607C61.5073 64.0137 61.3592 63.3752 61.4365 62.7626C61.5114 62.1683 61.5859 61.5986 61.6203 61.0862C61.7601 58.996 62.6873 52.2076 62.6873 50.9932H43.5625L44.7805 62.6624C44.8305 63.151 44.7702 64.0139 45.2888 64.0139V64.0137Z" fill="white"/>
<path fill-rule="evenodd" clip-rule="evenodd" d="M19.9219 29.7344H30.1484C30.4544 29.7344 30.5469 29.642 30.5469 29.3357V27.6084H19.9219V29.7344Z" fill="white"/>
<path fill-rule="evenodd" clip-rule="evenodd" d="M32.4062 29.3357C32.4062 29.9595 33.2221 29.7344 34.797 29.7344C35.3983 29.7344 35.1955 29.0528 35.1955 27.6084H32.4065V29.3357H32.4062Z" fill="white"/>
<path fill-rule="evenodd" clip-rule="evenodd" d="M19.789 44.6149C19.789 46.7131 19.3911 46.3422 21.9141 46.3422C21.9141 43.8182 22.2849 44.2162 20.1875 44.2162C19.8816 44.2162 19.789 44.3086 19.789 44.6149Z" fill="white"/>
<path fill-rule="evenodd" clip-rule="evenodd" d="M48.0781 56.8389C48.0781 58.8853 47.7591 58.5662 49.8047 58.5662C50.406 58.5662 50.2032 57.8846 50.2032 56.4402C48.7594 56.4402 48.0781 56.2371 48.0781 56.8389Z" fill="white"/>
<path fill-rule="evenodd" clip-rule="evenodd" d="M15.8047 44.6149V46.3422H17.9298C17.9298 43.8182 18.3006 44.2162 16.2032 44.2162C15.8973 44.2162 15.8047 44.3086 15.8047 44.6149Z" fill="white"/>
<path fill-rule="evenodd" clip-rule="evenodd" d="M23.9062 43.4196V45.1469H26.0311C26.0311 42.6229 26.4019 43.0209 24.3045 43.0209C23.9986 43.0209 23.906 43.1133 23.906 43.4196H23.9062Z" fill="white"/>
<path fill-rule="evenodd" clip-rule="evenodd" d="M11.8201 45.1465H13.8123V43.0205H11.8201V45.1465Z" fill="white"/>
<path fill-rule="evenodd" clip-rule="evenodd" d="M52.1953 58.5664H54.1875V56.4404H52.1953V58.5664Z" fill="white"/>
<path fill-rule="evenodd" clip-rule="evenodd" d="M56.1797 58.5664H58.039V56.4404H56.1797V58.5664Z" fill="white"/>
</svg>
