<svg width="154" height="57" viewBox="0 0 154 57" fill="none" xmlns="http://www.w3.org/2000/svg">
<path d="M18.1428 8.10021C18.1428 3.62659 14.5193 0 10.0493 0C5.5794 0 1.95581 3.62659 1.95581 8.10021C1.95581 12.5738 5.5794 16.2004 10.0493 16.2004C14.5193 16.2004 18.1428 12.5738 18.1428 8.10021Z" fill="#FF4612"/>
<path fill-rule="evenodd" clip-rule="evenodd" d="M2.1812 22.9381L2.18402 22.9356L2.23005 22.8906L2.18156 22.9384C4.23615 20.8815 7.14822 20.1763 9.79154 20.8184C7.18292 20.1845 4.31329 20.8637 2.26583 22.8559C3.72132 21.4448 5.76633 20.637 8.0691 20.7659C12.7624 21.0289 16.817 25.0868 17.0794 29.7837L17.5573 38.3241L9.02397 37.846C4.33103 37.5831 0.276389 33.5252 0.0133379 28.8277C-0.114446 26.5354 0.683575 24.4982 2.07925 23.0426L2.1812 22.9381ZM32.9334 53.7101L32.9306 53.7129C32.6371 54.0067 32.3266 54.2724 32.0016 54.5106C32.3266 54.2721 32.6371 54.0063 32.9303 53.7126C31.4702 55.1728 29.3915 56.0137 27.0452 55.8822C22.3522 55.6193 18.2977 51.5613 18.035 46.8645L17.5573 38.3241L26.0907 38.8024C30.7837 39.065 34.8383 43.123 35.1013 47.8205C35.2288 50.1032 34.4378 52.1336 33.0553 53.5853L32.9334 53.7101Z" fill="#FF4612"/>
<path d="M41.9634 7.41128C41.9634 6.44736 42.3022 5.61734 42.98 4.92115C43.6577 4.22502 44.496 3.87695 45.4947 3.87695C46.4935 3.87695 47.3318 4.22502 48.0095 4.92115C48.6873 5.61734 49.0261 6.44736 49.0261 7.41128C49.0261 8.44655 48.6873 9.30336 48.0095 9.98164C47.3318 10.66 46.4935 10.9991 45.4947 10.9991C44.496 10.9991 43.6577 10.66 42.98 9.98164C42.3022 9.30336 41.9634 8.44655 41.9634 7.41128ZM42.2844 15.176H48.7051V41.951H42.2844V15.176ZM63.9543 14.6941C66.3085 14.6941 68.208 15.1046 69.6526 15.9257C71.0973 16.7468 72.2298 17.7643 73.0503 18.9781C73.8707 17.7643 75.0032 16.7468 76.4479 15.9257C77.8925 15.1046 79.792 14.6941 82.1462 14.6941C84.3578 14.6941 86.2394 15.06 87.7911 15.7919C89.3428 16.5237 90.618 17.4519 91.6168 18.5764C92.6155 19.701 93.3379 20.9237 93.7837 22.2446C94.2296 23.5655 94.4526 24.815 94.4526 25.9931V41.951H88.0319V26.1538C88.0319 25.1899 87.8714 24.3688 87.5503 23.6905C87.2293 23.0122 86.8013 22.441 86.2662 21.9769C85.7312 21.5128 85.1069 21.1736 84.3935 20.9594C83.6801 20.7452 82.931 20.6381 82.1462 20.6381C81.3615 20.6381 80.6124 20.7452 79.899 20.9594C79.1856 21.1736 78.5614 21.5128 78.0263 21.9769C77.4912 22.441 77.0632 23.0122 76.7422 23.6905C76.4211 24.3688 76.2606 25.1899 76.2606 26.1538V41.951H69.8399V26.1538C69.8399 25.1899 69.6794 24.3688 69.3584 23.6905C69.0373 23.0122 68.6093 22.441 68.0742 21.9769C67.5392 21.5128 66.915 21.1736 66.2015 20.9594C65.4881 20.7452 64.739 20.6381 63.9543 20.6381C63.1695 20.6381 62.4204 20.7452 61.707 20.9594C60.9936 21.1736 60.3694 21.5128 59.8344 21.9769C59.2993 22.441 58.8712 23.0122 58.5502 23.6905C58.2291 24.3688 58.0687 25.1899 58.0687 26.1538V41.951H51.6479V25.9931C51.6479 24.815 51.8709 23.5655 52.3168 22.2446C52.7626 20.9237 53.485 19.701 54.4837 18.5764C55.4825 17.4519 56.7578 16.5237 58.3094 15.7919C59.8611 15.06 61.7427 14.6941 63.9543 14.6941ZM110.665 14.8012C113.697 14.8012 116.319 15.4973 118.53 16.8896C120.742 18.2819 122.365 20.1919 123.399 22.6195C122.757 23.512 121.981 24.6365 121.072 25.9931C120.162 27.3497 119.172 28.7421 118.102 30.17V28.6171C118.102 26.1181 117.433 24.1724 116.096 22.7801C114.758 21.3878 112.966 20.6917 110.718 20.6917C108.471 20.6917 106.67 21.3878 105.314 22.7801C103.959 24.1724 103.281 26.1181 103.281 28.6171C103.281 31.1161 103.959 33.0617 105.314 34.454C106.67 35.8464 108.471 36.5425 110.718 36.5425C112.466 36.5425 113.991 36.007 115.293 34.936C116.595 33.865 117.835 32.5263 119.012 30.9197C120.189 29.3132 121.384 27.5639 122.597 25.6718C123.809 23.7797 125.218 22.0304 126.824 20.4239C128.429 18.8174 130.31 17.4786 132.468 16.4077C134.627 15.3367 137.222 14.8012 140.254 14.8012C143.749 14.8012 146.674 15.7026 149.028 17.5054C151.383 19.3083 152.917 21.7448 153.63 24.815H146.942C146.371 23.4941 145.497 22.4767 144.32 21.7627C143.143 21.0487 141.752 20.6917 140.147 20.6917C138.006 20.6917 136.187 21.1022 134.689 21.9233C133.191 22.7444 131.862 23.8065 130.703 25.1095C129.543 26.4126 128.482 27.8585 127.519 29.4471C126.556 31.0357 125.557 32.5976 124.523 34.1327V41.951H118.102V40.5587C116.854 41.2728 115.587 41.7636 114.303 42.0314C113.019 42.2991 111.646 42.433 110.183 42.433C108.257 42.433 106.474 42.1028 104.833 41.4423C103.192 40.7819 101.783 39.8447 100.606 38.6309C99.4286 37.4171 98.5101 35.9534 97.8502 34.2398C97.1903 32.5263 96.8603 30.6341 96.8603 28.5635C96.8603 26.4929 97.1903 24.6097 97.8502 22.914C98.5101 21.2183 99.4465 19.7724 100.659 18.5764C101.872 17.3805 103.326 16.4523 105.02 15.7919C106.714 15.1314 108.596 14.8012 110.665 14.8012ZM140.254 42.433C136.794 42.433 133.877 41.5405 131.505 39.7555C129.133 37.9705 127.573 35.5607 126.824 32.5263C127.287 31.7051 127.84 30.7948 128.482 29.7952C129.124 28.7956 129.793 27.8406 130.489 26.9303C131.184 26.0199 131.862 25.2345 132.522 24.5741C133.182 23.9136 133.762 23.5298 134.261 23.4227C133.262 24.7436 132.763 26.4751 132.763 28.6171C132.763 31.1161 133.432 33.0617 134.769 34.454C136.107 35.8464 137.899 36.5425 140.147 36.5425C141.787 36.5425 143.196 36.1676 144.373 35.418C145.551 34.6682 146.425 33.6151 146.995 32.2585H153.684C152.97 35.4001 151.436 37.8812 149.082 39.7019C146.728 41.5226 143.785 42.433 140.254 42.433Z" fill="#24282B"/>
<path d="M41.9634 48.1493V52.1699H43.972C44.523 52.1699 45.0223 51.9459 45.3838 51.5783C45.424 51.5381 45.4642 51.4979 45.4986 51.4577C45.797 51.1073 45.975 50.6535 45.975 50.1596C45.975 49.0453 45.0739 48.1493 43.9663 48.1493H41.9634ZM42.675 48.8672H43.9663C44.678 48.8672 45.2576 49.4483 45.2576 50.1624C45.2576 50.8766 44.678 51.4577 43.9663 51.4577H42.675V48.8672ZM47.6393 48.8672H50.5719V48.1493H47.6393C47.0424 48.1493 46.5603 48.6375 46.5603 49.2349V51.0843C46.5603 51.6817 47.0424 52.1699 47.6393 52.1699H50.5719V51.4519H47.6393C47.4384 51.4519 47.272 51.2853 47.272 51.0843V50.3261H49.8545V49.6082H47.272V49.2349C47.272 49.0338 47.4384 48.8672 47.6393 48.8672ZM54.945 49.2578V49.2349C54.945 48.6375 54.4572 48.1493 53.8603 48.1493H52.2305C51.6336 48.1493 51.1515 48.6375 51.1515 49.2349V49.2578C51.1515 49.4875 51.2204 49.7001 51.3409 49.8724C51.3811 49.9356 51.427 49.993 51.4786 50.0447C51.6738 50.2343 51.9377 50.3491 52.2305 50.3491H53.6767C53.9809 50.3491 54.2333 50.5961 54.2333 50.9005C54.2333 51.205 53.9809 51.4519 53.6767 51.4519H52.4198C52.1157 51.4519 51.8689 51.205 51.8689 50.9005H51.1515C51.1515 51.6012 51.7197 52.1699 52.4198 52.1699H53.6767C54.3769 52.1699 54.945 51.6012 54.945 50.9005C54.945 50.5961 54.836 50.3146 54.6581 50.0964C54.6408 50.0792 54.6294 50.0619 54.6121 50.0447C54.3826 49.792 54.0497 49.6311 53.6767 49.6311H52.2305C52.0296 49.6311 51.8632 49.4646 51.8632 49.2636V49.2406C51.8632 49.0395 52.0296 48.873 52.2305 48.873H53.8603C54.0612 48.873 54.2276 49.0395 54.2276 49.2406V49.2636L54.945 49.2578ZM56.2363 52.1699V48.1493H55.5189V52.1699H56.2363ZM58.8188 48.8672H60.8275V48.1493H58.8188C57.7112 48.1493 56.8101 49.051 56.8101 50.1596C56.8101 51.2681 57.7112 52.1699 58.8188 52.1699H60.8275V49.9643H58.8188V50.6823H60.1101V51.4519H58.8188C58.1071 51.4519 57.5275 50.8718 57.5275 50.1596C57.5275 49.4474 58.1071 48.8672 58.8188 48.8672ZM64.7013 48.1493V50.7071L62.1187 48.7169L61.4013 48.1665V52.1699H62.1187V49.6292L64.7013 51.6195L65.4187 52.1699V48.155L64.7013 48.1493ZM69.9697 49.7977C69.7172 49.7977 69.5048 49.5852 69.5048 49.3267C69.5048 49.074 69.7172 48.8615 69.9697 48.8615H72.0414V48.1436H69.9697C69.3212 48.1436 68.7932 48.6719 68.7932 49.321C68.7932 49.6426 68.9194 49.9356 69.126 50.1481C68.9194 50.3606 68.7932 50.6535 68.7932 50.9752C68.7932 51.6242 69.3212 52.1527 69.9697 52.1527H72.0414V50.5042H72.7588V49.7805L69.9697 49.7977ZM71.3298 51.4347H69.9754C69.7229 51.4347 69.5106 51.2222 69.5106 50.9694C69.5106 50.711 69.7229 50.4985 69.9754 50.4985H71.3298V51.4347ZM77.2066 48.8672H80.1392V48.1493H77.2066C76.6097 48.1493 76.1276 48.6375 76.1276 49.2349V51.0843C76.1276 51.6817 76.6097 52.1699 77.2066 52.1699H80.1392V51.4519H77.2066C77.0057 51.4519 76.8392 51.2853 76.8392 51.0843V50.3261H79.4218V49.6082H76.8392V49.2349C76.8392 49.0338 77.0057 48.8672 77.2066 48.8672ZM84.013 48.1493V50.7071L81.4304 48.7169L80.7131 48.1665V52.1699H81.4304V49.6292L84.013 51.6195L84.7304 52.1699V48.155L84.013 48.1493ZM87.3129 48.8672H89.3216V48.1493H87.3129C86.2053 48.1493 85.3043 49.051 85.3043 50.1596C85.3043 51.2681 86.2053 52.1699 87.3129 52.1699H89.3216V49.9643H87.3129V50.6823H88.6042V51.4519H87.3129C86.6013 51.4519 86.0216 50.8718 86.0216 50.1596C86.0216 49.4474 86.6013 48.8672 87.3129 48.8672ZM90.6128 52.1699V48.1493H89.8954V52.1699H90.6128ZM94.4866 48.1493V50.7071L91.9041 48.7169L91.1867 48.1665V52.1699H91.9041V49.6292L94.4866 51.6195L95.204 52.1699V48.155L94.4866 48.1493ZM96.8626 48.8672H99.7952V48.1493H96.8626C96.2657 48.1493 95.7836 48.6375 95.7836 49.2349V51.0843C95.7836 51.6817 96.2657 52.1699 96.8626 52.1699H99.7952V51.4519H96.8626C96.6617 51.4519 96.4953 51.2853 96.4953 51.0843V50.3261H99.0778V49.6082H96.4953V49.2349C96.4953 49.0338 96.6617 48.8672 96.8626 48.8672ZM101.454 48.8672H104.386V48.1493H101.454C100.857 48.1493 100.375 48.6375 100.375 49.2349V51.0843C100.375 51.6817 100.857 52.1699 101.454 52.1699H104.386V51.4519H101.454C101.253 51.4519 101.087 51.2853 101.087 51.0843V50.3261H103.669V49.6082H101.087V49.2349C101.087 49.0338 101.253 48.8672 101.454 48.8672ZM107.629 50.3146C107.738 50.3032 107.841 50.2745 107.939 50.2285C108.312 50.0562 108.57 49.6771 108.57 49.2406C108.57 48.9419 108.45 48.6719 108.254 48.4767C108.059 48.2814 107.79 48.1607 107.491 48.1607H104.955V52.1814H105.672V50.3319H106.389C106.648 50.3319 106.871 50.4697 106.998 50.6765L107.015 50.711L107.399 51.4634L107.767 52.1814H108.57L108.203 51.4634L107.629 50.3146ZM105.672 49.6197V48.8787H107.491C107.617 48.8787 107.704 48.9362 107.749 48.9821C107.79 49.0223 107.859 49.1142 107.859 49.2463C107.859 49.3899 107.772 49.522 107.64 49.5795C107.595 49.6025 107.543 49.614 107.491 49.614L105.672 49.6197ZM109.867 52.1699V48.1493H109.15V52.1699H109.867ZM113.741 48.1493V50.7071L111.158 48.7169L110.441 48.1665V52.1699H111.158V49.6292L113.741 51.6195L114.458 52.1699V48.155L113.741 48.1493ZM117.041 48.8672H119.05V48.1493H117.041C115.933 48.1493 115.032 49.051 115.032 50.1596C115.032 51.2681 115.933 52.1699 117.041 52.1699H119.05V49.9643H117.041V50.6823H118.332V51.4519H117.041C116.329 51.4519 115.75 50.8718 115.75 50.1596C115.75 49.4474 116.329 48.8672 117.041 48.8672ZM126.218 49.2578V49.2349C126.218 48.6375 125.73 48.1493 125.133 48.1493H123.503C122.906 48.1493 122.424 48.6375 122.424 49.2349V49.2578C122.424 49.4875 122.493 49.7001 122.613 49.8724C122.654 49.9356 122.7 49.993 122.751 50.0447C122.946 50.2343 123.21 50.3491 123.503 50.3491H124.949C125.253 50.3491 125.506 50.5961 125.506 50.9005C125.506 51.205 125.253 51.4519 124.949 51.4519H123.692C123.388 51.4519 123.141 51.205 123.141 50.9005H122.424C122.424 51.6012 122.992 52.1699 123.692 52.1699H124.949C125.649 52.1699 126.218 51.6012 126.218 50.9005C126.218 50.5961 126.109 50.3146 125.931 50.0964C125.913 50.0792 125.902 50.0619 125.885 50.0447C125.655 49.792 125.322 49.6311 124.949 49.6311H123.503C123.302 49.6311 123.136 49.4646 123.136 49.2636V49.2406C123.136 49.0395 123.302 48.873 123.503 48.873H125.133C125.334 48.873 125.5 49.0395 125.5 49.2406V49.2636L126.218 49.2578ZM127.876 48.8672H130.809V48.1493H127.876C127.279 48.1493 126.797 48.6375 126.797 49.2349V51.0843C126.797 51.6817 127.279 52.1699 127.876 52.1699H130.809V51.4519H127.876C127.675 51.4519 127.509 51.2853 127.509 51.0843V50.3261H130.091V49.6082H127.509V49.2349C127.509 49.0338 127.675 48.8672 127.876 48.8672ZM134.051 50.3146C134.16 50.3032 134.264 50.2745 134.361 50.2285C134.734 50.0562 134.992 49.6771 134.992 49.2406C134.992 48.9419 134.872 48.6719 134.677 48.4767C134.482 48.2814 134.212 48.1607 133.914 48.1607H131.377V52.1814H132.094V50.3319H132.812C133.07 50.3319 133.294 50.4697 133.42 50.6765L133.437 50.711L133.822 51.4634L134.189 52.1814H134.992L134.625 51.4634L134.051 50.3146ZM132.094 49.6197V48.8787H133.914C134.04 48.8787 134.126 48.9362 134.172 48.9821C134.212 49.0223 134.281 49.1142 134.281 49.2463C134.281 49.3899 134.195 49.522 134.063 49.5795C134.017 49.6025 133.965 49.614 133.914 49.614L132.094 49.6197ZM138.631 48.1493L138.264 48.8672L137.386 50.5904L136.508 48.8672L136.14 48.1493H135.337L135.704 48.8672L137.386 52.1699L139.067 48.8672L139.434 48.1493H138.631ZM140.502 52.1699V48.1493H139.784V52.1699H140.502ZM143.027 48.8672H145.036V48.1493H143.027C141.919 48.1493 141.018 49.051 141.018 50.1596C141.018 51.2681 141.919 52.1699 143.027 52.1699H145.036V51.4519H143.027C142.315 51.4519 141.736 50.8718 141.736 50.1596C141.736 49.4474 142.315 48.8672 143.027 48.8672ZM146.694 48.8672H149.627V48.1493H146.694C146.097 48.1493 145.615 48.6375 145.615 49.2349V51.0843C145.615 51.6817 146.097 52.1699 146.694 52.1699H149.627V51.4519H146.694C146.493 51.4519 146.327 51.2853 146.327 51.0843V50.3261H148.909V49.6082H146.327V49.2349C146.327 49.0338 146.493 48.8672 146.694 48.8672ZM154 49.2578V49.2349C154 48.6375 153.512 48.1493 152.915 48.1493H151.285C150.689 48.1493 150.206 48.6375 150.206 49.2349V49.2578C150.206 49.4875 150.275 49.7001 150.396 49.8724C150.436 49.9356 150.482 49.993 150.534 50.0447C150.729 50.2343 150.993 50.3491 151.285 50.3491H152.732C153.036 50.3491 153.288 50.5961 153.288 50.9005C153.288 51.205 153.036 51.4519 152.732 51.4519H151.475C151.171 51.4519 150.924 51.205 150.924 50.9005H150.206C150.206 51.6012 150.775 52.1699 151.475 52.1699H152.732C153.432 52.1699 154 51.6012 154 50.9005C154 50.5961 153.891 50.3146 153.713 50.0964C153.696 50.0792 153.684 50.0619 153.667 50.0447C153.438 49.792 153.105 49.6311 152.732 49.6311H151.285C151.085 49.6311 150.918 49.4646 150.918 49.2636V49.2406C150.918 49.0395 151.085 48.873 151.285 48.873H152.915C153.116 48.873 153.283 49.0395 153.283 49.2406V49.2636L154 49.2578Z" fill="#24282B"/>
</svg>
