<svg width="51" height="53" viewBox="0 0 51 53" fill="none" xmlns="http://www.w3.org/2000/svg">
<path fill-rule="evenodd" clip-rule="evenodd" d="M4.82192 24.9427L11.7815 24.9355C12.0026 24.9968 12.062 26.0775 12.1156 26.4753L15.1001 48.3871C15.246 49.4621 15.4992 50.7929 15.5537 51.8445L1.18507 51.8486L4.82192 24.9419V24.9427ZM3.88025 22.5199L12.8489 22.5183L13.0269 23.8185L3.70073 23.8169L3.88025 22.5199ZM5.43501 20.2376L11.2958 20.2666L11.4128 21.4005L5.30678 21.4013L5.43501 20.2376ZM4.17517 21.3755C2.96343 21.5636 2.93217 21.1633 2.67331 23.0946C2.53066 24.155 2.36476 24.8951 3.67589 24.9419C3.65906 25.9709 0.396476 49.1699 0.0911343 51.4507C-0.0338873 52.3837 -0.206193 52.9704 0.917399 52.9696L13.3867 52.9664C16.7631 52.9664 16.8889 53.2795 16.6373 51.4652L14.2442 33.8664C13.9277 31.5679 13.224 27.0645 13.0477 25.0234L13.1759 24.9766C13.196 24.971 13.2184 24.9629 13.2408 24.9573C14.221 24.6974 14.2643 24.6401 14.0479 23.0373C13.8587 21.6346 14.0126 21.4885 12.5596 21.3876C12.3921 20.3643 12.6133 19.1496 11.5547 19.1182L5.12325 19.1198C4.1896 19.1585 4.37553 19.9946 4.17357 21.3755H4.17517Z" fill="white"/>
<path fill-rule="evenodd" clip-rule="evenodd" d="M16.2999 33.6994L49.8666 33.7252C49.9916 34.7542 49.9075 51.6371 49.8345 51.8728L18.7539 51.8889C18.5319 52.081 18.1905 52.4369 18.6008 52.813C18.858 53.0495 19.5032 52.9656 19.8879 52.9656H48.2606C48.9137 52.9656 50.5085 53.1342 50.8267 52.7194C51.1056 52.3554 50.9637 38.0535 50.9637 35.6508C50.9637 32.3088 51.5255 32.6187 48.2606 32.6187H17.135C16.6501 32.6171 16.106 32.5356 15.9136 32.8858C15.6892 33.295 15.928 33.6291 16.2999 33.6994Z" fill="white"/>
<path fill-rule="evenodd" clip-rule="evenodd" d="M36.5031 1.20663C39.9861 0.672359 42.6757 2.91438 43.7071 5.11927C43.9307 5.59786 43.9892 5.61804 44.579 5.70278C44.9693 5.75847 45.3236 5.84401 45.6874 5.97234C47.618 6.65592 49.1584 8.55413 49.2786 10.8486C49.4469 14.0389 46.8479 16.6925 43.671 16.5957C41.161 16.519 40.1464 14.9275 39.6888 14.846C39.4564 14.804 37.8054 15.1543 37.093 15.1188C34.9283 15.0106 34.3361 14.0833 33.7799 14.44C33.4265 14.6676 32.9729 15.7741 31.3604 16.2414C28.5635 17.0525 28.1579 14.8799 27.0103 15.9468C25.7441 17.1235 23.9729 16.5892 23.2436 15.4069C22.3012 13.8807 23.2717 12.2577 24.4834 11.7904C25.6791 11.3296 25.9276 12.2093 26.4189 10.8882C26.9093 9.56941 28.085 8.5275 29.4835 8.28053C30.7497 8.05698 30.3114 8.20871 30.6375 6.65269C31.229 3.82636 33.4641 1.67231 36.5031 1.20663ZM34.2656 15.6208C35.4581 15.8968 35.9189 16.3165 37.7101 16.2414C38.4241 16.2115 39.2768 15.9743 39.4876 16.0655C39.6038 16.1155 42.9786 19.2259 47.0474 16.8733C48.6607 15.9404 49.9662 14.3803 50.3212 12.077C50.7051 9.5904 49.4982 7.29915 48.2504 6.24028C47.5475 5.64386 46.7854 5.11443 45.6425 4.78273C44.672 4.50106 44.8603 4.86989 44.3955 4.04104C43.2976 2.08391 41.1265 0.399572 38.3296 0.0597984C33.6645 -0.506759 29.8994 3.03624 29.4322 7.13935C27.3477 7.67201 26.2482 8.47988 25.3642 10.5064C23.4536 10.5742 22.0431 11.8752 21.8075 13.6273C21.3867 16.7611 24.9042 18.7425 27.2387 17.1768C27.9007 16.7329 27.5521 16.8459 28.3142 17.1502C30.0485 17.841 32.0288 17.5432 33.4281 16.4012L34.2656 15.62V15.6208Z" fill="white"/>
<path fill-rule="evenodd" clip-rule="evenodd" d="M20.3095 15.3727C19.7389 15.0159 20.0042 15.1378 19.2356 14.9764C16.8474 14.4768 17.6071 13.7666 16.4883 15.0514C15.396 16.3056 13.1368 16.9408 11.3689 15.8101C10.1122 15.0071 10.432 16.781 8.33709 16.5841C5.84307 16.3492 5.25723 12.9313 7.57013 11.8539C8.54466 11.4003 9.28998 12.029 9.58891 11.1009C10.0081 9.79908 10.9978 8.73295 12.3698 8.35686C12.7185 8.26162 13.3347 8.25113 13.5383 8.07358C13.8925 7.76528 13.6112 6.59746 14.5016 4.88488C15.1668 3.60487 16.0235 2.76392 17.2032 2.06339C20.1052 0.340308 23.5432 1.174 25.5107 3.11176C26.785 4.36674 26.9517 5.39736 27.2402 5.6072C27.592 5.86223 28.9897 5.85819 27.1857 3.35065C22.8484 -2.6773 13.3989 0.0416948 12.6688 7.12286C11.4458 7.54172 11.336 7.38031 10.1211 8.32861C9.40619 8.88629 9.09764 9.47948 8.59595 10.494C5.54574 10.8289 4.43097 13.3276 5.27086 15.4751C5.6315 16.3968 6.51707 17.2604 7.57173 17.5679C9.4687 18.1215 10.4088 17.0941 10.9425 16.8722C12.1198 17.4105 13.1961 17.7503 14.7276 17.3613C15.8825 17.0683 17.0004 16.2935 17.434 15.618C18.6963 15.7867 20.2334 16.9803 20.3111 15.371L20.3095 15.3727Z" fill="white"/>
<path fill-rule="evenodd" clip-rule="evenodd" d="M20.6894 22.5183L29.6452 22.5256L29.7935 23.8185L20.4818 23.8137L20.6894 22.5183ZM22.1023 21.3973C22.1071 19.9494 22.3275 20.2255 22.7899 20.2327C23.7981 20.2489 27.6954 20.1439 28.0929 20.3021L28.1963 21.3989L22.1031 21.3965L22.1023 21.3973ZM29.8304 24.9452C31.196 24.8782 30.9836 24.1801 30.8305 23.0219C30.7416 22.3504 30.7793 21.5547 30.0403 21.4231C29.8857 21.3957 29.8192 21.4143 29.6781 21.4013L29.4104 21.3513C29.3992 21.3279 29.3704 21.34 29.3511 21.3303C29.0314 20.2989 29.5387 19.148 28.3061 19.1182L21.8771 19.1198C20.9498 19.1674 21.1991 19.9381 20.953 21.3925C19.4985 21.4506 19.6427 21.7032 19.4616 23.0784C19.327 24.1002 19.1138 24.7038 20.1284 24.9266L20.4602 25.0234C20.3912 26.0702 20.1765 27.213 20.0362 28.2493C19.9376 28.9829 19.3446 30.9901 20.3351 30.9336C20.909 30.9013 20.8865 30.2492 20.9554 29.7343C21.0228 29.2298 21.0965 28.6827 21.1702 28.1532C21.284 27.3357 21.4131 25.6868 21.619 25.0097C21.946 24.8443 28.4006 24.9371 28.6908 24.9403L29.3527 29.8061C29.4184 30.2855 29.392 30.9247 29.9826 30.9344C30.6318 30.9457 30.5428 30.2823 30.4611 29.706C30.2952 28.5342 29.8777 25.8458 29.8288 24.946L29.8304 24.9452Z" fill="white"/>
<path fill-rule="evenodd" clip-rule="evenodd" d="M29.848 37.8208L36.144 37.8086L36.1528 39.2646L29.8496 39.3009L29.8472 37.8208H29.848ZM28.7677 40.041C28.9753 40.6761 30.6863 40.4203 31.4356 40.4203C32.455 40.4203 33.4753 40.4203 34.4947 40.4203C35.236 40.4203 36.9662 40.6697 37.2051 40.0773C37.3101 39.8166 37.3141 37.3414 37.2187 37.0653C37.072 36.6408 36.592 36.6844 36.1007 36.6868L31.5118 36.6876C30.8754 36.6876 29.0362 36.4875 28.8006 37.0032C28.694 37.2364 28.678 39.769 28.7669 40.041H28.7677Z" fill="white"/>
<path fill-rule="evenodd" clip-rule="evenodd" d="M19.408 37.8065L25.6864 37.8226L25.6824 39.2995L19.38 39.2987L19.408 37.8065ZM18.2829 39.9638C18.4359 40.7046 20.1534 40.4197 20.8819 40.4197C21.9013 40.4197 22.9215 40.4197 23.9409 40.4197C24.4923 40.4197 26.4734 40.6102 26.7202 40.1397C26.8581 39.8766 26.8693 37.5071 26.7715 37.1229C26.6489 36.6378 26.1857 36.6838 25.7016 36.6871L21.1111 36.6879C20.4932 36.6879 18.6267 36.495 18.3566 36.9623C18.2075 37.2205 18.1987 39.557 18.2829 39.9638Z" fill="white"/>
<path fill-rule="evenodd" clip-rule="evenodd" d="M40.3147 37.8081L46.6138 37.8016L46.613 39.3019L40.3075 39.2801L40.3139 37.8081H40.3147ZM39.2071 39.9645C39.3466 40.7038 41.1337 40.4205 41.8366 40.4205C42.856 40.4205 43.8762 40.4205 44.8956 40.4205C45.6121 40.4205 47.364 40.6699 47.6477 40.1235C47.7663 39.8951 47.7799 37.4562 47.7086 37.1325C47.5916 36.5991 47.0907 36.6838 46.5786 36.6871L40.4589 36.6879C39.9396 36.6862 39.4628 36.591 39.2656 36.9889C39.1582 37.206 39.1398 39.6151 39.2063 39.9645H39.2071Z" fill="white"/>
<path fill-rule="evenodd" clip-rule="evenodd" d="M18.7542 51.8888L49.8349 51.8726C49.9087 51.6378 49.992 34.754 49.867 33.725L16.3003 33.6992L16.3981 33.7501C16.7363 33.8477 49.621 33.7759 49.8125 33.7759L49.7876 51.7758C40.7132 51.7758 31.6387 51.7758 22.5642 51.7758C22.0898 51.7758 19.1429 51.6564 18.7534 51.888L18.7542 51.8888Z" fill="#959595"/>
</svg>
