<svg width="30" height="57" viewBox="0 0 30 57" fill="none" xmlns="http://www.w3.org/2000/svg">
<g clip-path="url(#clip0_564_1320)">
<path fill-rule="evenodd" clip-rule="evenodd" d="M3.33335 47.9822V25.7165C3.33335 22.3329 5.53254 20.0389 8.8889 20.0389H21.0001C24.3771 20.0389 26.6667 22.2423 26.6667 25.6053V48.0936C26.6667 49.8788 26.0152 51.2062 25.1164 52.1068C24.1801 53.0449 22.87 53.66 21.0001 53.66H8.8889C5.52368 53.66 3.33335 51.3433 3.33335 47.9823V47.9822ZM0 24.826V48.8729C0 50.1313 0.389524 51.2255 0.778199 52.101C1.10643 52.84 1.48502 53.322 1.96497 53.9177C3.4102 55.712 5.69906 56.9999 8.11117 56.9999H21.8889C23.9163 56.9999 26.1635 55.8986 27.5322 54.5272C28.9096 53.147 30 50.9281 30 48.873V24.8261C30 22.7947 28.9009 20.5431 27.5322 19.1719C26.1547 17.7917 23.9399 16.6992 21.8889 16.6992H8.11117C6.13753 16.6992 4.48665 17.5273 3.07612 18.6678C2.13291 19.4307 1.335 20.3978 0.812899 21.5213C0.399142 22.4118 0 23.575 0 24.8261L0 24.826Z" fill="black"/>
<path fill-rule="evenodd" clip-rule="evenodd" d="M3.22266 4.89846L5.52878 7.26361C6.82653 6.35228 7.4202 5.41601 9.53981 4.54842C13.6698 2.85794 17.6741 2.87268 21.5616 5.11538C23.5276 6.24949 23.5868 6.66066 24.4447 7.23631L26.8052 4.92567C26.4433 4.39934 25.2488 3.49963 24.6995 3.08478C23.8837 2.46879 23.1416 2.07321 22.1869 1.59431C20.2902 0.643013 18.1942 0.119797 16.065 0H14.157C10.5365 0.202087 6.96297 1.54688 4.24743 3.92128C3.83283 4.28379 3.53495 4.43118 3.22275 4.89837L3.22266 4.89846Z" fill="black"/>
<path fill-rule="evenodd" clip-rule="evenodd" d="M7.88867 9.57479L10.2479 11.998C11.1912 11.3949 11.6227 10.7041 13.4393 10.2379C15.0124 9.83423 16.2792 10.064 17.7164 10.6379C18.6945 11.0283 19.0787 11.5552 19.7775 12.0241L22.1367 9.60078L20.8259 8.5244C17.5005 6.00346 12.7673 6.08811 9.24272 8.48245C8.5342 8.96381 8.14505 9.40275 7.88867 9.57489V9.57479Z" fill="black"/>
<path fill-rule="evenodd" clip-rule="evenodd" d="M20 38.5196H23.3333V35.1797H20V38.5196Z" fill="black"/>
<path fill-rule="evenodd" clip-rule="evenodd" d="M6.66602 38.5196H9.99927V35.1797H6.66602V38.5196Z" fill="black"/>
<path fill-rule="evenodd" clip-rule="evenodd" d="M13.334 38.5196H16.6673V35.1797H13.334V38.5196Z" fill="black"/>
</g>
<defs>
<clipPath id="clip0_564_1320">
<rect width="30" height="57" fill="white"/>
</clipPath>
</defs>
</svg>
