<svg width="64" height="64" viewBox="0 0 64 64" fill="none" xmlns="http://www.w3.org/2000/svg">
<g clip-path="url(#clip0_199_1206)">
<path fill-rule="evenodd" clip-rule="evenodd" d="M0.116222 38.295C-0.176359 41.0038 0.0539012 43.129 1.17503 45.6435C3.32872 50.471 8.34394 54.164 13.8007 54.164C17.2329 54.164 19.5762 53.5586 22.2777 51.7778C22.6759 51.5149 24.0305 50.6802 24.0305 50.2295V37.5082C24.0305 37.055 23.0924 36.8885 22.6273 36.7946C16.3001 35.519 14.6495 40.1386 10.783 41.4804C8.89565 42.1357 6.24273 42.056 4.54234 41.2693C3.55373 40.8114 3.04532 40.4708 2.25811 39.8518C1.75888 39.4593 0.677114 38.4427 0.115566 38.295H0.116222Z" fill="white"/>
<path fill-rule="evenodd" clip-rule="evenodd" d="M10.6119 26.4916C8.65632 26.6521 5.63734 28.712 4.3345 30C3.39837 30.926 2.86831 31.5593 2.13358 32.6802C1.69142 33.3543 0.725771 35.2692 0.647705 36.1971C1.01442 36.2936 1.17383 36.4827 1.4651 36.7022L3.74343 38.5186C4.71368 39.2957 6.12804 40.0009 7.82187 40.0009C10.7398 40.0009 12.2381 38.4014 13.8913 37.0739C15.2388 35.9925 16.6735 35.231 18.4335 34.869C20.664 34.4099 21.9288 34.665 24.0306 35.1481C24.0306 33.9676 24.0306 32.7871 24.0306 31.6072C24.0313 29.4917 24.3285 29.9048 23.0611 28.8927C22.1512 28.1661 19.4307 26.6062 18.0524 26.4928V19.542H10.6119V26.4928V26.4916Z" fill="white"/>
<path fill-rule="evenodd" clip-rule="evenodd" d="M40.6382 39.0822C40.6382 41.0709 42.8181 41.1635 44.5382 41.6589L49.6728 43.0168C50.6883 43.0168 51.4112 42.3595 51.7163 41.3616C51.9321 40.6545 52.4628 38.9968 52.4628 38.2955C50.8261 37.9192 49.2989 36.3353 48.7583 34.8705C48.2263 33.4297 48.2374 32.0446 48.8331 30.6465C49.827 28.3134 51.8908 27.1478 54.4558 27.1478C55.1236 27.1478 55.0508 27.2657 55.6517 27.2793C55.9069 26.1985 56.9755 24.2506 54.8966 23.3033L49.699 21.8761C45.9683 20.9708 45.7144 20.4832 44.5185 24.814C44.1971 25.979 40.6382 38.4353 40.6382 39.0822Z" fill="white"/>
<path fill-rule="evenodd" clip-rule="evenodd" d="M31.6036 60.8521C31.6036 61.9659 31.2979 63.9999 32.4006 63.9999H58.8399C59.9112 63.9999 59.7702 62.0371 59.7702 61.3773C59.7702 60.3587 59.3615 59.8037 58.3086 59.8037H32.7995C32.1566 59.8037 31.6036 60.1761 31.6036 60.8527V60.8521Z" fill="white"/>
<path fill-rule="evenodd" clip-rule="evenodd" d="M26.0234 42.0984H34.7924V39.3444C32.6695 39.3444 30.9396 39.7213 30.9396 38.2953C30.9396 36.9989 32.4904 37.3771 34.7924 37.3771V35.0161C33.5853 35.0161 31.6953 35.2169 31.2013 34.7577C30.689 34.2811 30.8451 33.0488 32.0023 33.0488H34.7924V30.6879C31.6816 30.6879 30.9396 31.0576 30.9396 29.5074C30.9396 28.4234 33.6581 28.7206 34.7924 28.7206V26.8848H26.0234V42.0978V42.0984Z" fill="white"/>
<path fill-rule="evenodd" clip-rule="evenodd" d="M15.5278 4.06535V11.5407H17.6533V4.19681C17.6533 3.01178 18.5783 2.09873 19.7795 2.09873H30.275C31.3141 2.09873 32.4011 2.96904 32.4011 3.93455V19.279H34.5273V3.93455C34.5273 2.81686 33.9493 1.8669 33.3694 1.27374C32.8276 0.719434 31.7038 0 30.6739 0H19.6463C17.4178 0 15.5278 1.86561 15.5278 4.06535Z" fill="white"/>
<path fill-rule="evenodd" clip-rule="evenodd" d="M57.7773 37.2458C57.9675 37.9497 61.4778 41.0418 59.5898 46.5104C58.6432 49.2521 56.0979 51.6448 53.1274 52.328C53.3971 53.471 54.3135 54.702 54.589 55.8688C56.8752 55.343 59.6817 53.3609 61.1216 51.5633C61.4982 51.0931 61.8675 50.5233 62.189 49.9936C66.802 42.3978 61.3335 34.6413 59.7709 34.2295C59.7223 34.8045 59.3314 35.5868 59.0499 36.0096C58.7462 36.4674 58.3139 37.104 57.7779 37.2458H57.7773Z" fill="white"/>
<path fill-rule="evenodd" clip-rule="evenodd" d="M37.9814 57.836H53.26C53.2219 57.3821 52.7575 56.4677 52.5515 56.0442L50.6838 51.7237C50.5441 51.3715 50.4647 51.0166 50.0711 51.0166H41.1697C40.7111 51.0166 40.5779 51.7166 40.2211 52.572C39.792 53.5978 38.15 57.1224 37.9814 57.8367V57.836Z" fill="white"/>
<path fill-rule="evenodd" clip-rule="evenodd" d="M26.0234 50.2298C26.0234 52.0171 27.8688 54.1644 30.5407 54.1644C32.7272 54.1644 34.7924 52.2463 34.7924 50.099V44.0664H26.0234V50.2305V50.2298Z" fill="white"/>
<path fill-rule="evenodd" clip-rule="evenodd" d="M49.6726 18.2289C49.6581 18.8843 49.422 19.1478 49.4069 19.8025C50.1521 19.864 53.2898 20.9202 54.0567 20.983C54.1046 20.417 54.3086 20.1489 54.3224 19.5402C55.9677 19.5765 56.8198 20.8205 57.466 18.8402C58.389 16.0104 58.145 16.3944 52.0631 14.8196C49.3262 14.1105 48.247 13.3108 47.7321 15.133C46.811 18.3876 47.5818 17.2382 49.6726 18.2289Z" fill="white"/>
<path fill-rule="evenodd" clip-rule="evenodd" d="M8.75192 14.0323C8.75192 15.1371 8.6345 16.3817 8.88444 17.4424C9.98588 17.6956 18.6774 17.6956 19.7789 17.4424C20.0294 16.3823 19.912 15.1371 19.912 14.0323C19.912 13.7254 19.6916 13.5078 19.3806 13.5078H9.28329C8.97234 13.5078 8.75192 13.7254 8.75192 14.0323Z" fill="white"/>
<path fill-rule="evenodd" clip-rule="evenodd" d="M24.4295 22.1643C24.4295 24.0131 24.1008 25.0492 25.8911 25.0492H34.7932C36.7835 25.0492 36.3873 24.3693 36.3873 21.9021C36.3873 21.5964 36.033 21.2461 35.7227 21.2461H25.3597C24.7391 21.2461 24.4295 21.5517 24.4295 22.1643Z" fill="white"/>
<path fill-rule="evenodd" clip-rule="evenodd" d="M54.1902 33.8358C52.9149 33.8358 52.9149 31.8686 54.1902 31.8686C55.5055 31.8686 55.5055 33.8358 54.1902 33.8358ZM50.3374 32.7868C50.3374 34.815 52.1008 36.5899 53.792 36.5899C55.5514 36.5899 56.9881 36.0233 57.6907 34.4057C59.498 30.2452 54.057 27.4315 51.4598 30.2218C50.8327 30.8959 50.3374 31.8627 50.3374 32.7862V32.7868Z" fill="white"/>
<path fill-rule="evenodd" clip-rule="evenodd" d="M1.1792 9.17997C1.1792 11.9806 5.28847 12.1594 5.49839 9.40921C5.65911 7.30659 3.03112 6.60529 1.86801 7.76118C1.62726 8.00077 1.1792 8.77978 1.1792 9.17997Z" fill="white"/>
<path fill-rule="evenodd" clip-rule="evenodd" d="M7.0249 4.06566C7.0249 6.91943 11.2765 6.82942 11.2765 4.06566C11.2765 1.39773 7.0249 1.20087 7.0249 4.06566Z" fill="white"/>
<path fill-rule="evenodd" clip-rule="evenodd" d="M25.3589 15.3446C25.3589 18.46 29.6105 18.0643 29.6105 15.8691C29.6105 15.118 29.6722 14.607 28.986 13.9938C27.3158 12.5012 25.3589 14.1758 25.3589 15.3446Z" fill="white"/>
<path fill-rule="evenodd" clip-rule="evenodd" d="M42.3655 45.377L46.6171 46.5575C47.0632 45.9002 47.4247 45.3142 47.813 44.5902L45.1089 43.8494C44.5999 43.7031 44.2784 43.6331 43.7503 43.4855C43.2688 43.3508 42.8759 43.1896 42.3655 43.1475V45.377Z" fill="white"/>
</g>
<defs>
<clipPath id="clip0_199_1206">
<rect width="64" height="64" fill="white"/>
</clipPath>
</defs>
</svg>
