<svg width="54" height="54" viewBox="0 0 54 54" fill="none" xmlns="http://www.w3.org/2000/svg">
<g clip-path="url(#clip0_199_1187)">
<path fill-rule="evenodd" clip-rule="evenodd" d="M20.8913 25.0268H33.1212C33.5713 25.0268 33.7123 25.6823 32.903 25.6823H21.1099C20.3002 25.6823 20.4417 25.0268 20.8918 25.0268H20.8913ZM24.3853 20.4367H29.6267C29.6267 22.0485 30.0483 22.7059 30.0635 23.3875H23.8392C24.0967 22.8504 24.3853 21.2646 24.3853 20.4367ZM14.667 17.4859V16.6116H39.345C39.345 17.5826 39.5064 18.7974 38.0345 18.7974H15.7588C15.0754 18.7974 14.667 18.1917 14.667 17.4859ZM14.667 2.73244C14.667 2.09397 15.2302 1.53034 15.8681 1.53034H34.5405V15.0817H14.667V2.73244ZM36.0691 14.7535V1.52986C38.0265 1.52986 39.345 1.20542 39.345 2.2948V15.0812H36.3966C36.1448 15.0812 36.0691 15.005 36.0691 14.7535ZM13.1379 2.40421V17.9226C13.1379 18.6321 13.6822 19.4913 14.0996 19.8016C14.6883 20.2392 15.4176 20.4362 16.4138 20.4362H22.7469C22.7469 21.9888 22.4899 22.1451 22.2008 23.387C21.2325 23.387 20.6121 23.2634 19.9377 23.6357C18.0465 24.6806 19.1904 27.2117 20.5628 27.2117H33.4477C34.7823 27.2117 35.9593 24.7402 34.1429 23.6745C33.4245 23.253 32.8547 23.387 31.8098 23.387C31.6295 22.6122 31.1823 21.6734 31.1548 20.4362H37.5972C38.5755 20.4362 39.2319 20.2615 39.8471 19.8466C40.3057 19.5373 40.8731 18.6525 40.8731 17.9226V1.96704C40.8731 0.980913 39.893 0 38.9077 0H15.5397C14.3386 0 13.1375 1.2021 13.1375 2.40421H13.1379Z" fill="white"/>
<path fill-rule="evenodd" clip-rule="evenodd" d="M37.5985 51.1457H52.4493V52.4572H37.5985V51.1457ZM48.1904 48.7415H50.8113V49.5064H48.1904V48.7415ZM46.6618 46.4467H52.3399V47.1022H46.6618V46.4467ZM49.5009 36.9388C49.4076 37.2883 49.4384 37.1856 49.1417 37.357C48.9188 37.4859 48.7172 37.5991 48.6112 37.4925C48.3887 37.2699 49.1658 36.9663 49.5013 36.9383L49.5009 36.9388ZM41.093 41.966C41.093 44.5318 41.5497 45.974 42.5838 48.0144L43.4952 49.5064H39.3457L38.3476 47.2268C37.0239 43.2382 38.2322 39.8725 40.4143 36.5874L41.8573 34.7529C42.111 34.923 42.2875 35.1006 42.6216 35.1901C42.5819 35.6661 42.2818 36.2615 42.1167 36.7612C41.5502 38.4758 41.093 39.9725 41.093 41.9656V41.966ZM42.6216 32.5675C42.6216 30.9169 45.2425 30.9761 45.2425 32.5675C45.2425 34.4171 42.6216 34.4162 42.6216 32.5675ZM45.4607 28.3052L49.2827 35.0807C48.5004 35.4951 47.7796 35.974 46.9898 36.3922C46.8218 36.0749 46.6992 35.8759 46.5194 35.5515L46.0068 34.7529C46.6074 33.8554 47.2013 32.8991 46.6216 31.5151C46.1796 30.4598 45.1356 29.7262 43.7139 29.7262C43.4408 29.7262 42.9538 29.9928 43.1479 29.5718C43.1786 29.505 44.9652 28.3464 45.4612 28.3052H45.4607ZM42.2941 26.4476C42.6803 26.3576 42.8559 26.1757 43.1678 26.0104C43.4101 26.4689 43.7286 26.9156 43.8227 27.322L42.951 27.7624C42.8209 27.5162 42.7518 27.3717 42.5994 27.1254L42.2941 26.4471V26.4476ZM41.5298 28.4147C41.3443 29.109 40.7158 28.894 41.8573 30.6005C41.588 31.0031 40.9837 31.5322 40.9837 32.677C40.9837 33.0886 41.0556 32.8835 41.093 33.3325C40.7627 33.5537 39.6221 34.9438 39.324 35.3867C39.0386 35.8101 38.7987 36.0891 38.5185 36.5476C36.0183 40.6365 35.2047 44.9774 37.5989 49.5064C35.6823 49.5064 36.0703 49.6622 36.0703 53.3316C36.0703 53.5722 36.3136 53.9871 36.8346 53.9871H53.214C53.7237 53.9871 53.9784 53.7323 53.9784 53.2221C53.9784 49.4917 54.3049 49.5064 52.4497 49.5064V48.7415C54.2935 48.7415 53.9784 48.1731 53.9784 45.6818C53.9784 45.1532 53.6329 44.8074 53.1047 44.8074H46.0068C44.8033 44.8074 45.1332 46.1218 45.1332 47.8676C45.1332 48.7069 45.8293 48.742 46.6618 48.742V49.5069C45.2051 49.5069 45.6211 49.5675 45.348 49.2914C44.1095 48.04 42.7305 44.9822 42.7305 42.9498C42.7305 39.9819 42.8209 39.6348 43.7527 36.8692C43.9401 36.3126 44.127 36.0858 44.2591 35.5183C44.8677 35.5321 44.8171 35.7504 45.0461 36.1511C45.7957 37.4617 46.1332 38.6567 47.2075 38.1409C47.4635 39.2402 48.1422 39.766 49.047 39.217C51.7294 37.5896 51.8709 38.0694 50.8108 36.0644C51.0702 35.677 51.1383 35.8925 51.1383 35.2995C51.1383 34.8344 50.1265 33.3377 49.8653 32.8579L46.4422 26.8853C46.0882 26.2946 45.8223 26.3695 45.4219 26.3524C44.6647 26.3202 44.4361 24.1523 43.4948 24.1523C43.0565 24.1523 40.9155 25.4288 40.6922 25.6112C40.1418 26.0602 40.402 26.5333 40.7153 27.043C41.0149 27.5299 41.2373 27.9784 41.5289 28.4147H41.5298Z" fill="white"/>
<path fill-rule="evenodd" clip-rule="evenodd" d="M2.65579 49.6154V33.5509H8.77074V49.6154C8.77074 50.7242 7.91793 51.7501 6.95154 52.166C4.80722 53.0891 2.65579 51.4001 2.65579 49.6154ZM1.56399 31.5834C1.56399 30.2875 1.37895 29.6163 1.89149 29.6163H9.53505C10.0476 29.6163 9.86255 30.2875 9.86255 31.5834C9.86255 31.8354 9.78635 31.9111 9.53505 31.9111H1.89149C1.63971 31.9111 1.56399 31.8349 1.56399 31.5834ZM0.035373 29.6163C0.035373 31.0051 -0.162448 31.9836 0.377538 32.7708C0.603281 33.0995 0.706451 33.1232 1.01785 33.3321C1.01785 37.485 1.01785 41.6374 1.01785 45.7903C1.01785 47.9994 0.79779 49.9844 1.56021 51.4768C3.26393 54.8108 8.07127 54.8477 9.82847 51.5488C10.6349 50.0346 10.4082 48.1249 10.4082 45.9002C10.4082 41.7108 10.4082 37.5219 10.4082 33.3325C11.7073 32.462 11.3912 31.7425 11.3912 29.6168C11.3912 28.6425 10.3585 27.9775 9.20709 27.9775H2.21851C1.04388 27.9775 0.0344265 28.6383 0.0344265 29.6168L0.035373 29.6163Z" fill="white"/>
<path fill-rule="evenodd" clip-rule="evenodd" d="M23.0756 8.85206C22.9559 8.33674 22.7055 7.8091 22.5446 7.30704C22.0666 5.81743 21.2119 5.98179 20.7079 6.9196L19.1447 9.7264C18.5721 9.7264 16.4051 9.65678 16.0179 9.76619C15.1443 10.0134 15.3161 11.3657 16.415 11.3657C19.609 11.3657 19.7666 11.7076 20.5172 10.444C20.7401 10.0684 21.2313 9.32523 21.3288 8.961C21.9772 9.43653 22.024 12.349 23.1854 12.349C24.1783 12.349 24.1404 11.0848 24.4826 9.93149L25.2242 7.28572C25.2313 7.26962 25.2455 7.23552 25.2602 7.21231C25.2602 7.85031 25.4017 8.45846 25.4845 9.06425C25.5659 9.66151 25.662 10.2053 25.759 10.866C26.0832 13.0713 25.9057 14.0972 27.1167 14.0972C27.7164 14.0972 28.3141 11.7924 28.6316 10.9138L29.8465 7.43066L33.3003 7.38993C34.1025 7.11521 33.7404 5.90032 33.1224 5.90032H29.1915C28.608 5.90032 28.2668 7.191 28.085 7.74374C27.8522 8.45136 27.51 9.19308 27.3354 9.9438C27.1608 9.66862 27.1432 9.35033 27.1092 9.07751L26.2142 3.0883C26.0273 2.48867 25.643 2.51283 25.2606 2.51283C24.7197 2.51283 24.5924 3.31329 24.4746 3.80208L23.077 8.85111L23.0756 8.85206Z" fill="white"/>
<path fill-rule="evenodd" clip-rule="evenodd" d="M26.6786 47.5387C28.7983 47.5387 29.8158 47.4112 31.7121 47.0025C32.3501 46.8651 35.1962 46.1878 35.1962 45.4622C35.1962 43.7097 33.6998 44.8503 31.5276 45.3973C28.4183 46.1802 24.7624 46.0689 21.7004 45.1989C19.2328 44.4979 17.0345 43.2626 15.0393 41.702C14.7605 41.4836 14.6844 41.3562 14.4028 41.1369C14.0724 40.8797 13.9953 40.8035 13.7118 40.5169C12.6763 39.472 12.8784 39.3418 12.0469 39.3418C11.9896 39.3418 10.6967 39.7164 12.019 41.009C13.9385 42.8856 13.2438 42.3319 15.23 43.8059C16.8528 45.0099 19.4685 46.2399 21.3502 46.7515C22.9185 47.1777 24.7292 47.5382 26.679 47.5382L26.6786 47.5387Z" fill="white"/>
<path fill-rule="evenodd" clip-rule="evenodd" d="M6.47803 26.2281C6.47803 27.0044 8.08142 27.6722 8.11786 25.7928C8.15146 24.0564 8.66447 22.1396 9.1666 20.613C9.48131 19.6558 9.97729 18.556 10.4548 17.7499L12.0473 15.1908C12.0473 13.9025 10.9844 14.2691 10.7657 14.449C10.0189 15.0653 8.65028 17.8024 8.18885 18.7606C7.37816 20.4439 6.4785 23.7926 6.4785 26.2285L6.47803 26.2281Z" fill="white"/>
<path fill-rule="evenodd" clip-rule="evenodd" d="M41.9663 14.8631C41.9663 15.575 42.6828 16.3025 43.3922 17.4795C45.3387 20.7093 45.4788 23.9893 46.0548 24.3317C46.3846 24.5278 47.2076 24.605 47.2076 23.4967C47.2076 21.8484 45.8423 18.6869 45.0605 17.2309C44.7268 16.6095 43.6123 14.6382 43.1163 14.3573C42.661 14.0996 41.9663 14.3947 41.9663 14.8631Z" fill="white"/>
<path fill-rule="evenodd" clip-rule="evenodd" d="M36.9434 4.04438C36.9434 5.09398 38.472 5.09398 38.472 4.04438C38.472 2.99432 36.9434 2.99432 36.9434 4.04438Z" fill="white"/>
<path fill-rule="evenodd" clip-rule="evenodd" d="M36.9434 8.30575C36.9434 9.35581 38.472 9.35581 38.472 8.30575C38.472 7.25616 36.9434 7.25616 36.9434 8.30575Z" fill="white"/>
<path fill-rule="evenodd" clip-rule="evenodd" d="M36.9434 12.5684C36.9434 13.6185 38.472 13.6185 38.472 12.5684C38.472 11.5189 36.9434 11.5189 36.9434 12.5684Z" fill="white"/>
</g>
<defs>
<clipPath id="clip0_199_1187">
<rect width="54" height="54" fill="white"/>
</clipPath>
</defs>
</svg>
