<svg width="49" height="61" viewBox="0 0 49 61" fill="none" xmlns="http://www.w3.org/2000/svg">
<path fill-rule="evenodd" clip-rule="evenodd" d="M9.05471 34.9043H33.7917V50.3006H12.3863C11.8646 50.3006 11.7579 50.5657 11.5791 50.9003C11.8142 51.9011 12.9643 51.5998 14.2043 51.5998C16.5567 51.5998 35.6087 51.4883 36.1353 51.6781C36.8605 51.9403 37.0393 53.0282 36.4396 53.5223C36.246 53.6817 35.8498 53.7991 35.5079 53.7991H7.33853C5.85946 53.7991 5.81402 52.1477 6.72892 51.6957C7.04113 51.5421 7.66951 51.5988 8.14574 51.5998C9.32148 51.6018 10.2413 51.864 10.4676 50.9003C10.3777 50.2106 9.45684 50.3006 9.05373 50.3006V34.9043H9.05471ZM25.108 16.208C25.108 9.92506 31.1093 5.42955 37.5719 7.96543C40.4836 9.10814 42.8785 12.4355 42.8785 15.6083C42.8785 17.7284 42.5475 19.3916 41.3224 21.0655C41.1683 21.2759 41.0428 21.4373 40.8827 21.63C40.698 21.8531 40.5873 22.0243 40.3828 22.2356L39.2861 23.1494C38.8148 23.4723 38.4957 23.6787 37.9661 23.9419C35.0989 25.3634 31.3266 25.0728 28.7133 23.1377C26.7896 21.7122 25.109 19.1529 25.109 16.209L25.108 16.208ZM23.795 15.9077C23.795 19.7937 26.3598 23.7658 29.6213 25.1355C30.8534 25.653 32.0745 26.106 33.7907 26.106V30.2053H30.2566C29.7349 30.2053 29.6282 30.4704 29.4494 30.805C29.6332 31.5877 30.0343 31.5114 30.963 31.5055L35.6126 31.4996C37.2192 31.573 37.2271 33.7038 35.5069 33.7038H7.33754C5.92467 33.7038 5.7903 32.1659 6.6647 31.6376C7.17452 31.3294 16.036 31.5035 16.8284 31.5035H25.6129C26.6365 31.5035 27.9348 31.7882 27.9348 30.804C27.9348 30.4802 27.4961 30.2043 27.1266 30.2043H9.05373V14.9078H23.8957C23.8957 15.4381 23.795 15.484 23.795 15.9077ZM23.8957 13.6085H7.33754C6.06794 13.6085 5.74979 12.277 6.55009 11.6284C7.02434 11.2439 9.10708 11.4092 10.0645 11.4092H24.9065C24.8156 11.7966 24.6101 12.1518 24.4638 12.5705C24.3443 12.911 24.2603 13.6085 23.8967 13.6085H23.8957ZM25.8145 10.109H8.24652C7.14883 10.108 6.45129 10.11 5.80512 10.5913C4.54342 11.5296 4.47328 13.3561 5.70435 14.3267C6.22009 14.7327 6.94431 14.9088 7.84242 14.9088V30.2053C3.56133 30.2053 4.45845 34.6616 6.74176 34.8945C7.23281 34.9444 7.84242 34.7233 7.84242 35.2046V50.3015C3.45759 50.3015 4.49699 55.0006 6.93344 55.0006H35.911C38.389 55.0006 39.3859 50.3015 35.1038 50.3015V34.9053H35.911C38.389 34.9053 39.3859 30.2062 35.1038 30.2062V26.0072C37.6223 26.0072 39.8433 24.4496 41.44 22.8833C44.0385 20.3327 45.0107 15.71 43.3834 12.1107C42.8291 10.8838 42.264 10.1237 41.435 9.14043C41.2552 8.92715 41.0438 8.72854 40.8165 8.55342C40.53 8.33329 40.4075 8.19045 40.1536 8.01043C35.3607 4.59208 28.8022 5.6937 25.8145 10.1119V10.109Z" fill="#24282B"/>
<path fill-rule="evenodd" clip-rule="evenodd" d="M30.3594 18.2074C30.3594 16.6646 31.0945 15.8447 31.9798 14.3136C32.2831 13.7892 33.7928 11.3805 33.8936 11.0097C34.2137 11.0939 34.1465 11.1036 34.4943 11.7141L36.9169 15.8134C37.5275 16.8651 37.6283 17.0618 37.6283 18.3082C37.6283 20.1475 35.8667 21.708 33.9934 21.708C32.0727 21.708 30.3585 20.0956 30.3585 18.2084L30.3594 18.2074ZM33.5903 22.9064H34.2967C36.7855 22.9064 38.9414 20.6416 38.9414 18.0078C38.9414 16.1607 36.9011 13.3832 35.9437 11.6779C35.6523 11.1584 35.3657 10.7593 35.0733 10.2398C34.7492 9.66351 34.515 9.0178 34.0052 9.03247C33.4243 9.0491 33.197 9.81124 32.9273 10.2525L29.4821 16.1392C28.9337 17.2966 28.9298 18.816 29.4821 19.9753C29.7488 20.5349 29.987 20.9595 30.3822 21.3841C30.9928 22.0406 32.3602 22.9064 33.5903 22.9064Z" fill="#24282B"/>
<path fill-rule="evenodd" clip-rule="evenodd" d="M12.084 40.0041V48.6018C12.084 49.6007 13.3971 49.6007 13.3971 48.6018V40.0041C13.3971 39.0052 12.084 39.0052 12.084 40.0041Z" fill="#24282B"/>
<path fill-rule="evenodd" clip-rule="evenodd" d="M34.1958 19.6075C34.1958 19.9666 34.3065 20.4068 34.5999 20.4068C36.2459 20.4068 38.0125 17.4072 36.2153 17.4072C35.5919 17.4072 35.8359 18.5861 34.7817 19.0871C34.512 19.2152 34.1958 19.2455 34.1958 19.6066V19.6075Z" fill="#24282B"/>
<path fill-rule="evenodd" clip-rule="evenodd" d="M12.084 37.5042C12.084 39.2643 13.3971 38.6684 13.3971 37.8046C13.3971 37.1647 13.3911 36.8047 12.5898 36.8047C12.2638 36.8047 12.085 37.1677 12.085 37.5042H12.084Z" fill="#24282B"/>
</svg>
