<svg width="66" height="52" viewBox="0 0 66 52" fill="none" xmlns="http://www.w3.org/2000/svg">
<g clip-path="url(#clip0_199_1200)">
<path fill-rule="evenodd" clip-rule="evenodd" d="M2.44911 50.0101H1.93348V35.3318C2.74053 35.3318 4.12507 35.0759 4.12507 36.501V48.5813C4.12507 49.7194 3.569 50.0101 2.44911 50.0101ZM22.1717 42.6056H6.05855V38.4488H24.7499C24.7499 39.8026 24.848 40.511 24.0011 41.591C23.7019 41.9721 22.7831 42.6056 22.1717 42.6056ZM23.7186 34.422C23.7186 31.4716 27.8437 31.4393 27.8437 34.5521C27.8437 36.842 23.7186 37.1615 23.7186 34.422ZM24.7499 30.2652V27.9273C25.0442 28.0693 26.3699 28.3073 26.8124 28.3169V30.2652L25.7847 30.113C25.4154 30.0728 25.256 30.2526 24.7499 30.2652ZM54.7845 27.1476C52.1552 27.1476 29.4286 22.2117 26.9409 22.2117C26.4484 22.2117 25.1251 23.87 27.8246 24.3087C35.6341 25.578 44.542 27.5599 52.4989 28.9306C55.6968 29.4819 56.2826 29.4058 58.7419 26.4596L60.0366 24.9068C60.2917 24.6347 60.4821 24.3308 60.7134 24.16C60.284 26.0173 59.9777 27.9705 59.6274 29.9506C59.1053 32.9028 58.9685 32.2621 55.4631 31.6586C47.7887 30.3365 39.6372 28.5422 31.9842 27.2603L23.1839 25.6068C19.9509 25.065 20.8395 24.872 20.8811 22.9914C22.1877 23.2982 24.1034 23.9551 24.1034 22.3417C24.1034 21.2923 22.8598 21.3121 21.301 21.0089C17.5738 20.2837 18.1554 21.1048 19.2795 14.7527C19.4424 13.8303 19.559 13.0896 19.7303 12.2194C20.1526 10.0709 20.19 10.0972 23.6847 10.8128C33.003 12.7204 43.1384 14.3811 52.496 16.2024L61.6269 17.9128C62.0867 18.0045 62.5821 18.1472 63.0329 18.1849C62.9127 18.6392 62.685 18.7033 62.1491 19.3727C61.9665 19.6011 61.8452 19.6832 61.6531 19.9121C61.4134 20.198 61.4116 20.2681 61.1327 20.5564L57.1932 25.1603C56.5509 25.9256 55.6391 27.1476 54.7827 27.1476H54.7845ZM16.3706 19.6137C16.3706 21.0898 17.5887 22.4874 18.9488 22.6012C18.2661 25.5534 19.2967 27.461 22.6873 27.5372V31.4339C22.6873 31.9019 21.1975 32.9507 21.7899 35.3258C21.9159 35.8328 22.0593 35.8826 22.1717 36.3698H6.05855C6.05855 33.3145 3.23952 33.2522 1.28938 33.2522C0.520392 33.2522 0 33.5171 0 34.2914V51.1782C0 52.2665 2.06016 51.9573 3.22286 51.9573C4.5967 51.9573 6.05855 50.6214 6.05855 49.2292V44.6828H21.656C23.0858 44.6828 24.7183 43.9487 25.5456 42.8867C26.5305 41.6227 26.8124 40.5494 26.8124 38.3176C28.1065 37.6919 27.7063 38.1653 28.9112 36.9254C30.332 35.4618 30.0305 33.4464 29.073 31.8834C28.7191 31.3056 28.8749 29.5023 28.8749 28.7052L56.3493 33.8839C57.845 34.1344 59.2718 34.594 60.5588 33.2246C61.1018 32.6469 61.3111 32.011 61.4539 31.139C61.6424 29.9841 63.1661 21.4146 63.4016 21.0209C63.9291 20.1381 66 18.3839 66 17.5341C66 16.3996 64.8771 16.4763 63.8828 16.2899L38.2307 11.4834C36.2657 11.1107 34.3655 10.7834 32.4743 10.3993L22.5755 8.5534C21.3016 8.33944 19.5798 7.88097 18.4534 9.63036C17.7427 10.7337 17.0052 16.0544 16.6621 17.8271C16.5633 18.3377 16.3712 19.1192 16.3712 19.6125L16.3706 19.6137Z" fill="#24282B"/>
<path fill-rule="evenodd" clip-rule="evenodd" d="M9.28143 10.9116C9.28143 11.4318 9.16962 12.1474 10.0231 12.3698C11.1322 12.6586 11.3124 11.4181 11.3428 10.5209C11.3678 9.78554 11.4344 9.60455 11.5735 9.06457C13.4374 1.83509 20.7324 2.05564 21.1446 1.8219C21.5407 1.59716 22.3305 0 20.1092 0C14.5365 0 9.28084 5.29611 9.28084 10.9116H9.28143Z" fill="#24282B"/>
<path fill-rule="evenodd" clip-rule="evenodd" d="M13.4058 11.1713C13.4058 12.7139 15.3202 13.0657 15.4671 10.9106C15.5611 9.5316 16.1695 8.44086 16.9129 7.69112C19.0902 5.49705 21.1355 6.77957 21.5608 5.48146C22.5331 2.51128 13.4058 4.4896 13.4058 11.1713Z" fill="#24282B"/>
</g>
<defs>
<clipPath id="clip0_199_1200">
<rect width="66" height="52" fill="white"/>
</clipPath>
</defs>
</svg>
